<?xml version="1.0" encoding="UTF-8" standalone="no"?>
<!DOCTYPE svg PUBLIC "-//W3C//DTD SVG 1.1//EN"
 "http://www.w3.org/Graphics/SVG/1.1/DTD/svg11.dtd">
<!-- Generated by graphviz version 2.38.0 (20140413.2041)
 -->
<!-- Title: /home/lucamuratore/advr&#45;superbuild/external/XBotInterface/include/spdlog/details/async_log_helper.h Pages: 1 -->
<svg width="1568pt" height="564pt"
 viewBox="0.00 0.00 1568.00 564.00" xmlns="http://www.w3.org/2000/svg" xmlns:xlink="http://www.w3.org/1999/xlink">
<g id="graph0" class="graph" transform="scale(1 1) rotate(0) translate(4 560)">
<title>/home/lucamuratore/advr&#45;superbuild/external/XBotInterface/include/spdlog/details/async_log_helper.h</title>
<!-- Node1 -->
<g id="node1" class="node"><title>Node1</title>
<polygon fill="#bfbfbf" stroke="black" points="688.5,-503.5 688.5,-555.5 833.5,-555.5 833.5,-503.5 688.5,-503.5"/>
<text text-anchor="start" x="696.5" y="-543.5" font-family="Helvetica,sans-Serif" font-size="10.00">/home/lucamuratore</text>
<text text-anchor="start" x="696.5" y="-532.5" font-family="Helvetica,sans-Serif" font-size="10.00">/advr&#45;superbuild/external</text>
<text text-anchor="start" x="696.5" y="-521.5" font-family="Helvetica,sans-Serif" font-size="10.00">/XBotInterface/include/spdlog</text>
<text text-anchor="middle" x="761" y="-510.5" font-family="Helvetica,sans-Serif" font-size="10.00">/details/async_log_helper.h</text>
</g>
<!-- Node2 -->
<g id="node2" class="node"><title>Node2</title>
<g id="a_node2"><a xlink:href="common_8h.html" target="_top" xlink:title="spdlog/common.h">
<polygon fill="none" stroke="black" points="204,-190.5 204,-209.5 298,-209.5 298,-190.5 204,-190.5"/>
<text text-anchor="middle" x="251" y="-197.5" font-family="Helvetica,sans-Serif" font-size="10.00">spdlog/common.h</text>
</a>
</g>
</g>
<!-- Node1&#45;&gt;Node2 -->
<g id="edge1" class="edge"><title>Node1&#45;&gt;Node2</title>
<path fill="none" stroke="midnightblue" d="M688.215,-524.686C578.165,-517.896 375.512,-501.105 312,-467 275.238,-447.26 250,-438.226 250,-396.5 250,-396.5 250,-396.5 250,-327.5 250,-289.201 250.464,-244.382 250.76,-219.697"/>
<polygon fill="midnightblue" stroke="midnightblue" points="254.261,-219.632 250.885,-209.589 247.261,-219.545 254.261,-219.632"/>
</g>
<!-- Node3 -->
<g id="node3" class="node"><title>Node3</title>
<polygon fill="none" stroke="#bfbfbf" points="1032.5,-0.5 1032.5,-19.5 1073.5,-19.5 1073.5,-0.5 1032.5,-0.5"/>
<text text-anchor="middle" x="1053" y="-7.5" font-family="Helvetica,sans-Serif" font-size="10.00">string</text>
</g>
<!-- Node1&#45;&gt;Node3 -->
<g id="edge72" class="edge"><title>Node1&#45;&gt;Node3</title>
<path fill="none" stroke="midnightblue" d="M833.855,-526.113C945.045,-521.229 1150.56,-506.939 1211,-467 1325.91,-391.067 1370,-338.733 1370,-201 1370,-201 1370,-201 1370,-137.5 1370,-76.2545 1163.3,-31.4358 1083.72,-16.4498"/>
<polygon fill="midnightblue" stroke="midnightblue" points="1084.27,-12.9922 1073.8,-14.6129 1082.99,-19.8752 1084.27,-12.9922"/>
</g>
<!-- Node5 -->
<g id="node5" class="node"><title>Node5</title>
<polygon fill="none" stroke="#bfbfbf" points="1026,-129 1026,-148 1072,-148 1072,-129 1026,-129"/>
<text text-anchor="middle" x="1049" y="-136" font-family="Helvetica,sans-Serif" font-size="10.00">chrono</text>
</g>
<!-- Node1&#45;&gt;Node5 -->
<g id="edge68" class="edge"><title>Node1&#45;&gt;Node5</title>
<path fill="none" stroke="midnightblue" d="M804.039,-503.318C878.722,-456.709 1029.54,-348.948 1084,-210 1091.5,-190.856 1078.09,-169.861 1065.76,-155.804"/>
<polygon fill="midnightblue" stroke="midnightblue" points="1068.2,-153.282 1058.8,-148.396 1063.1,-158.078 1068.2,-153.282"/>
</g>
<!-- Node6 -->
<g id="node6" class="node"><title>Node6</title>
<polygon fill="none" stroke="#bfbfbf" points="1306,-0.5 1306,-19.5 1358,-19.5 1358,-0.5 1306,-0.5"/>
<text text-anchor="middle" x="1332" y="-7.5" font-family="Helvetica,sans-Serif" font-size="10.00">memory</text>
</g>
<!-- Node1&#45;&gt;Node6 -->
<g id="edge71" class="edge"><title>Node1&#45;&gt;Node6</title>
<path fill="none" stroke="midnightblue" d="M833.623,-523.496C1023.84,-509.421 1522,-465.934 1522,-396.5 1522,-396.5 1522,-396.5 1522,-137.5 1522,-64.3451 1423.2,-30.9159 1368.09,-17.9596"/>
<polygon fill="midnightblue" stroke="midnightblue" points="1368.54,-14.4739 1358.02,-15.7045 1367.01,-21.3048 1368.54,-14.4739"/>
</g>
<!-- Node8 -->
<g id="node8" class="node"><title>Node8</title>
<polygon fill="none" stroke="#bfbfbf" points="142.5,-129 142.5,-148 201.5,-148 201.5,-129 142.5,-129"/>
<text text-anchor="middle" x="172" y="-136" font-family="Helvetica,sans-Serif" font-size="10.00">exception</text>
</g>
<!-- Node1&#45;&gt;Node8 -->
<g id="edge69" class="edge"><title>Node1&#45;&gt;Node8</title>
<path fill="none" stroke="midnightblue" d="M688.156,-524.983C570.711,-518.373 345.452,-501.537 274,-467 233.677,-447.51 202,-441.286 202,-396.5 202,-396.5 202,-396.5 202,-327.5 202,-264.547 185.393,-191.2 176.891,-157.775"/>
<polygon fill="midnightblue" stroke="midnightblue" points="180.263,-156.836 174.354,-148.042 173.49,-158.602 180.263,-156.836"/>
</g>
<!-- Node9 -->
<g id="node9" class="node"><title>Node9</title>
<polygon fill="none" stroke="#bfbfbf" points="538.5,-129 538.5,-148 597.5,-148 597.5,-129 538.5,-129"/>
<text text-anchor="middle" x="568" y="-136" font-family="Helvetica,sans-Serif" font-size="10.00">functional</text>
</g>
<!-- Node1&#45;&gt;Node9 -->
<g id="edge70" class="edge"><title>Node1&#45;&gt;Node9</title>
<path fill="none" stroke="midnightblue" d="M688.191,-521.544C564.357,-507.678 326,-471.278 326,-396.5 326,-396.5 326,-396.5 326,-260.5 326,-225.114 334.998,-211.636 363,-190 418.963,-146.759 449.569,-171.855 518,-154 521.826,-153.002 525.805,-151.921 529.772,-150.815"/>
<polygon fill="midnightblue" stroke="midnightblue" points="530.854,-154.147 539.517,-148.048 528.941,-147.413 530.854,-154.147"/>
</g>
<!-- Node20 -->
<g id="node20" class="node"><title>Node20</title>
<polygon fill="none" stroke="#bfbfbf" points="1424,-0.5 1424,-19.5 1468,-19.5 1468,-0.5 1424,-0.5"/>
<text text-anchor="middle" x="1446" y="-7.5" font-family="Helvetica,sans-Serif" font-size="10.00">vector</text>
</g>
<!-- Node1&#45;&gt;Node20 -->
<g id="edge75" class="edge"><title>Node1&#45;&gt;Node20</title>
<path fill="none" stroke="midnightblue" d="M833.556,-528.234C952.696,-526.302 1196.48,-516.042 1396,-467 1473.05,-448.062 1560,-475.838 1560,-396.5 1560,-396.5 1560,-396.5 1560,-137.5 1560,-85.0747 1505.3,-44.5813 1471.68,-24.6442"/>
<polygon fill="midnightblue" stroke="midnightblue" points="1473.24,-21.5028 1462.82,-19.5732 1469.76,-27.5782 1473.24,-21.5028"/>
</g>
<!-- Node21 -->
<g id="node21" class="node"><title>Node21</title>
<polygon fill="none" stroke="#bfbfbf" points="56,-0.5 56,-19.5 96,-19.5 96,-0.5 56,-0.5"/>
<text text-anchor="middle" x="76" y="-7.5" font-family="Helvetica,sans-Serif" font-size="10.00">utility</text>
</g>
<!-- Node1&#45;&gt;Node21 -->
<g id="edge74" class="edge"><title>Node1&#45;&gt;Node21</title>
<path fill="none" stroke="midnightblue" d="M688.339,-527.923C574.999,-525.483 350.027,-514.442 166,-467 88.3821,-446.99 0,-476.656 0,-396.5 0,-396.5 0,-396.5 0,-137.5 0,-92.1215 36.3794,-48.982 58.7989,-26.705"/>
<polygon fill="midnightblue" stroke="midnightblue" points="61.2772,-29.1776 66.0643,-19.7259 56.4279,-24.1293 61.2772,-29.1776"/>
</g>
<!-- Node23 -->
<g id="node23" class="node"><title>Node23</title>
<g id="a_node23"><a xlink:href="sink_8h.html" target="_top" xlink:title="spdlog/sinks/sink.h">
<polygon fill="none" stroke="black" points="760.5,-386 760.5,-405 861.5,-405 861.5,-386 760.5,-386"/>
<text text-anchor="middle" x="811" y="-393" font-family="Helvetica,sans-Serif" font-size="10.00">spdlog/sinks/sink.h</text>
</a>
</g>
</g>
<!-- Node1&#45;&gt;Node23 -->
<g id="edge25" class="edge"><title>Node1&#45;&gt;Node23</title>
<path fill="none" stroke="midnightblue" d="M770.522,-503.361C780.355,-477.402 795.455,-437.539 804.164,-414.546"/>
<polygon fill="midnightblue" stroke="midnightblue" points="807.506,-415.605 807.775,-405.014 800.96,-413.126 807.506,-415.605"/>
</g>
<!-- Node24 -->
<g id="node24" class="node"><title>Node24</title>
<g id="a_node24"><a xlink:href="log__msg_8h.html" target="_top" xlink:title="spdlog/details/log\l_msg.h">
<polygon fill="none" stroke="black" points="744,-313.5 744,-343.5 836,-343.5 836,-313.5 744,-313.5"/>
<text text-anchor="start" x="752" y="-331.5" font-family="Helvetica,sans-Serif" font-size="10.00">spdlog/details/log</text>
<text text-anchor="middle" x="790" y="-320.5" font-family="Helvetica,sans-Serif" font-size="10.00">_msg.h</text>
</a>
</g>
</g>
<!-- Node1&#45;&gt;Node24 -->
<g id="edge48" class="edge"><title>Node1&#45;&gt;Node24</title>
<path fill="none" stroke="midnightblue" d="M753.502,-503.292C745.826,-473.113 736.857,-421.452 751,-380 754.541,-369.621 761.176,-359.717 767.982,-351.473"/>
<polygon fill="midnightblue" stroke="midnightblue" points="770.74,-353.638 774.737,-343.826 765.494,-349.004 770.74,-353.638"/>
</g>
<!-- Node25 -->
<g id="node25" class="node"><title>Node25</title>
<g id="a_node25"><a xlink:href="os_8h.html" target="_top" xlink:title="spdlog/details/os.h">
<polygon fill="none" stroke="black" points="674,-252 674,-271 772,-271 772,-252 674,-252"/>
<text text-anchor="middle" x="723" y="-259" font-family="Helvetica,sans-Serif" font-size="10.00">spdlog/details/os.h</text>
</a>
</g>
</g>
<!-- Node1&#45;&gt;Node25 -->
<g id="edge49" class="edge"><title>Node1&#45;&gt;Node25</title>
<path fill="none" stroke="midnightblue" d="M751.415,-503.413C747.58,-492.395 743.489,-479.211 741,-467 727.253,-399.564 724.003,-317.507 723.236,-281.256"/>
<polygon fill="midnightblue" stroke="midnightblue" points="726.734,-281.111 723.064,-271.172 719.735,-281.231 726.734,-281.111"/>
</g>
<!-- Node27 -->
<g id="node27" class="node"><title>Node27</title>
<polygon fill="none" stroke="#bfbfbf" points="972,-190.5 972,-209.5 1016,-209.5 1016,-190.5 972,-190.5"/>
<text text-anchor="middle" x="994" y="-197.5" font-family="Helvetica,sans-Serif" font-size="10.00">thread</text>
</g>
<!-- Node1&#45;&gt;Node27 -->
<g id="edge73" class="edge"><title>Node1&#45;&gt;Node27</title>
<path fill="none" stroke="midnightblue" d="M787.379,-503.318C810.59,-480.435 844.554,-445.131 870,-411 919.734,-344.291 966.185,-256.247 985.084,-218.936"/>
<polygon fill="midnightblue" stroke="midnightblue" points="988.303,-220.325 989.664,-209.818 982.048,-217.183 988.303,-220.325"/>
</g>
<!-- Node34 -->
<g id="node34" class="node"><title>Node34</title>
<g id="a_node34"><a xlink:href="mpmc__bounded__q_8h.html" target="_top" xlink:title="spdlog/details/mpmc\l_bounded_q.h">
<polygon fill="none" stroke="black" points="66.5,-246.5 66.5,-276.5 173.5,-276.5 173.5,-246.5 66.5,-246.5"/>
<text text-anchor="start" x="74.5" y="-264.5" font-family="Helvetica,sans-Serif" font-size="10.00">spdlog/details/mpmc</text>
<text text-anchor="middle" x="120" y="-253.5" font-family="Helvetica,sans-Serif" font-size="10.00">_bounded_q.h</text>
</a>
</g>
</g>
<!-- Node1&#45;&gt;Node34 -->
<g id="edge44" class="edge"><title>Node1&#45;&gt;Node34</title>
<path fill="none" stroke="midnightblue" d="M688.452,-525.062C542.983,-517.546 226.244,-497.822 188,-467 132.409,-422.197 121.911,-330.557 120.169,-286.802"/>
<polygon fill="midnightblue" stroke="midnightblue" points="123.666,-286.667 119.892,-276.767 116.669,-286.859 123.666,-286.667"/>
</g>
<!-- Node35 -->
<g id="node35" class="node"><title>Node35</title>
<g id="a_node35"><a xlink:href="formatter_8h.html" target="_top" xlink:title="spdlog/formatter.h">
<polygon fill="none" stroke="black" points="1107.5,-447.5 1107.5,-466.5 1202.5,-466.5 1202.5,-447.5 1107.5,-447.5"/>
<text text-anchor="middle" x="1155" y="-454.5" font-family="Helvetica,sans-Serif" font-size="10.00">spdlog/formatter.h</text>
</a>
</g>
</g>
<!-- Node1&#45;&gt;Node35 -->
<g id="edge50" class="edge"><title>Node1&#45;&gt;Node35</title>
<path fill="none" stroke="midnightblue" d="M833.725,-515.487C909.807,-501.873 1027.69,-480.78 1097.52,-468.285"/>
<polygon fill="midnightblue" stroke="midnightblue" points="1098.24,-471.713 1107.46,-466.506 1097,-464.822 1098.24,-471.713"/>
</g>
<!-- Node2&#45;&gt;Node3 -->
<g id="edge2" class="edge"><title>Node2&#45;&gt;Node3</title>
<path fill="none" stroke="midnightblue" d="M295.378,-190.494C332.266,-182.813 385.833,-170.232 431,-154 461.12,-143.176 465.237,-131.832 496,-123 631.015,-84.2366 678.732,-137.004 810,-87 832.355,-78.4844 832.078,-65.5754 854,-56 921.489,-26.5206 946.539,-37.9932 1022.39,-19.9077"/>
<polygon fill="midnightblue" stroke="midnightblue" points="1023.54,-23.2268 1032.41,-17.4194 1021.86,-16.4333 1023.54,-23.2268"/>
</g>
<!-- Node4 -->
<g id="node4" class="node"><title>Node4</title>
<polygon fill="none" stroke="#bfbfbf" points="219.5,-129 219.5,-148 292.5,-148 292.5,-129 219.5,-129"/>
<text text-anchor="middle" x="256" y="-136" font-family="Helvetica,sans-Serif" font-size="10.00">initializer_list</text>
</g>
<!-- Node2&#45;&gt;Node4 -->
<g id="edge3" class="edge"><title>Node2&#45;&gt;Node4</title>
<path fill="none" stroke="midnightblue" d="M251.716,-190.475C252.422,-182.08 253.523,-168.981 254.432,-158.163"/>
<polygon fill="midnightblue" stroke="midnightblue" points="257.935,-158.267 255.285,-148.009 250.96,-157.681 257.935,-158.267"/>
</g>
<!-- Node2&#45;&gt;Node5 -->
<g id="edge4" class="edge"><title>Node2&#45;&gt;Node5</title>
<path fill="none" stroke="midnightblue" d="M298.234,-195.478C444.959,-184.538 890.518,-151.317 1015.87,-141.97"/>
<polygon fill="midnightblue" stroke="midnightblue" points="1016.29,-145.449 1026,-141.215 1015.77,-138.468 1016.29,-145.449"/>
</g>
<!-- Node2&#45;&gt;Node6 -->
<g id="edge5" class="edge"><title>Node2&#45;&gt;Node6</title>
<path fill="none" stroke="midnightblue" d="M298.374,-191.61C354.927,-182.44 445.892,-166.488 478,-154 502.722,-144.385 503.902,-131.586 529,-123 663.161,-77.103 705.479,-105.958 846,-87 1014.68,-64.2437 1215.28,-30.8566 1295.86,-17.1839"/>
<polygon fill="midnightblue" stroke="midnightblue" points="1296.71,-20.5909 1305.98,-15.4642 1295.53,-13.6899 1296.71,-20.5909"/>
</g>
<!-- Node7 -->
<g id="node7" class="node"><title>Node7</title>
<polygon fill="none" stroke="#bfbfbf" points="335,-62 335,-81 381,-81 381,-62 335,-62"/>
<text text-anchor="middle" x="358" y="-69" font-family="Helvetica,sans-Serif" font-size="10.00">atomic</text>
</g>
<!-- Node2&#45;&gt;Node7 -->
<g id="edge6" class="edge"><title>Node2&#45;&gt;Node7</title>
<path fill="none" stroke="midnightblue" d="M298.196,-192.378C341.154,-185.269 399.951,-172.453 414,-154 431.351,-131.209 402.296,-103.506 379.956,-86.9752"/>
<polygon fill="midnightblue" stroke="midnightblue" points="381.724,-83.9385 371.538,-81.0204 377.681,-89.6531 381.724,-83.9385"/>
</g>
<!-- Node2&#45;&gt;Node8 -->
<g id="edge7" class="edge"><title>Node2&#45;&gt;Node8</title>
<path fill="none" stroke="midnightblue" d="M239.681,-190.475C227.127,-181.02 206.649,-165.596 191.501,-154.187"/>
<polygon fill="midnightblue" stroke="midnightblue" points="193.391,-151.23 183.298,-148.009 189.18,-156.821 193.391,-151.23"/>
</g>
<!-- Node2&#45;&gt;Node9 -->
<g id="edge8" class="edge"><title>Node2&#45;&gt;Node9</title>
<path fill="none" stroke="midnightblue" d="M298.25,-191.621C370.539,-180.269 502.512,-159.278 524,-154 527.464,-153.149 531.048,-152.158 534.606,-151.101"/>
<polygon fill="midnightblue" stroke="midnightblue" points="535.957,-154.345 544.447,-148.008 533.858,-147.667 535.957,-154.345"/>
</g>
<!-- Node10 -->
<g id="node10" class="node"><title>Node10</title>
<g id="a_node10"><a xlink:href="null__mutex_8h.html" target="_top" xlink:title="spdlog/details/null\l_mutex.h">
<polygon fill="none" stroke="black" points="310.5,-123.5 310.5,-153.5 405.5,-153.5 405.5,-123.5 310.5,-123.5"/>
<text text-anchor="start" x="318.5" y="-141.5" font-family="Helvetica,sans-Serif" font-size="10.00">spdlog/details/null</text>
<text text-anchor="middle" x="358" y="-130.5" font-family="Helvetica,sans-Serif" font-size="10.00">_mutex.h</text>
</a>
</g>
</g>
<!-- Node2&#45;&gt;Node10 -->
<g id="edge9" class="edge"><title>Node2&#45;&gt;Node10</title>
<path fill="none" stroke="midnightblue" d="M266.33,-190.475C281.296,-182.153 304.577,-169.207 323.931,-158.445"/>
<polygon fill="midnightblue" stroke="midnightblue" points="325.744,-161.442 332.782,-153.523 322.342,-155.324 325.744,-161.442"/>
</g>
<!-- Node11 -->
<g id="node11" class="node"><title>Node11</title>
<g id="a_node11"><a xlink:href="fmt_8h.html" target="_top" xlink:title="spdlog/fmt/fmt.h">
<polygon fill="none" stroke="black" points="708,-129 708,-148 796,-148 796,-129 708,-129"/>
<text text-anchor="middle" x="752" y="-136" font-family="Helvetica,sans-Serif" font-size="10.00">spdlog/fmt/fmt.h</text>
</a>
</g>
</g>
<!-- Node2&#45;&gt;Node11 -->
<g id="edge11" class="edge"><title>Node2&#45;&gt;Node11</title>
<path fill="none" stroke="midnightblue" d="M298.133,-193.402C391.414,-182.324 599.06,-157.664 697.81,-145.936"/>
<polygon fill="midnightblue" stroke="midnightblue" points="698.358,-149.395 707.875,-144.74 697.532,-142.444 698.358,-149.395"/>
</g>
<!-- Node10&#45;&gt;Node7 -->
<g id="edge10" class="edge"><title>Node10&#45;&gt;Node7</title>
<path fill="none" stroke="midnightblue" d="M358,-123.396C358,-114.064 358,-101.714 358,-91.5173"/>
<polygon fill="midnightblue" stroke="midnightblue" points="361.5,-91.1945 358,-81.1945 354.5,-91.1946 361.5,-91.1945"/>
</g>
<!-- Node12 -->
<g id="node12" class="node"><title>Node12</title>
<g id="a_node12"><a xlink:href="format_8h.html" target="_top" xlink:title="spdlog/fmt/bundled\l/format.h">
<polygon fill="none" stroke="black" points="702.5,-56.5 702.5,-86.5 801.5,-86.5 801.5,-56.5 702.5,-56.5"/>
<text text-anchor="start" x="710.5" y="-74.5" font-family="Helvetica,sans-Serif" font-size="10.00">spdlog/fmt/bundled</text>
<text text-anchor="middle" x="752" y="-63.5" font-family="Helvetica,sans-Serif" font-size="10.00">/format.h</text>
</a>
</g>
</g>
<!-- Node11&#45;&gt;Node12 -->
<g id="edge12" class="edge"><title>Node11&#45;&gt;Node12</title>
<path fill="none" stroke="midnightblue" d="M752,-128.734C752,-120.541 752,-107.923 752,-96.7136"/>
<polygon fill="midnightblue" stroke="midnightblue" points="755.5,-96.589 752,-86.589 748.5,-96.5891 755.5,-96.589"/>
</g>
<!-- Node12&#45;&gt;Node3 -->
<g id="edge21" class="edge"><title>Node12&#45;&gt;Node3</title>
<path fill="none" stroke="midnightblue" d="M801.561,-59.011C806.433,-57.96 811.308,-56.9389 816,-56 904.525,-38.2857 930.413,-41.2281 1022.68,-19.817"/>
<polygon fill="midnightblue" stroke="midnightblue" points="1023.5,-23.221 1032.43,-17.523 1021.89,-16.4072 1023.5,-23.221"/>
</g>
<!-- Node12&#45;&gt;Node6 -->
<g id="edge19" class="edge"><title>Node12&#45;&gt;Node6</title>
<path fill="none" stroke="midnightblue" d="M801.701,-65.4013C916.059,-53.6698 1195.67,-24.9854 1295.69,-14.7253"/>
<polygon fill="midnightblue" stroke="midnightblue" points="1296.3,-18.1812 1305.89,-13.6789 1295.58,-11.2177 1296.3,-18.1812"/>
</g>
<!-- Node13 -->
<g id="node13" class="node"><title>Node13</title>
<polygon fill="none" stroke="#bfbfbf" points="900.5,-0.5 900.5,-19.5 949.5,-19.5 949.5,-0.5 900.5,-0.5"/>
<text text-anchor="middle" x="925" y="-7.5" font-family="Helvetica,sans-Serif" font-size="10.00">cassert</text>
</g>
<!-- Node12&#45;&gt;Node13 -->
<g id="edge13" class="edge"><title>Node12&#45;&gt;Node13</title>
<path fill="none" stroke="midnightblue" d="M792.999,-56.3993C822.721,-46.1768 862.464,-32.508 890.551,-22.8481"/>
<polygon fill="midnightblue" stroke="midnightblue" points="892.013,-26.0465 900.331,-19.4844 889.736,-19.4271 892.013,-26.0465"/>
</g>
<!-- Node14 -->
<g id="node14" class="node"><title>Node14</title>
<polygon fill="none" stroke="#bfbfbf" points="967.5,-0.5 967.5,-19.5 1014.5,-19.5 1014.5,-0.5 967.5,-0.5"/>
<text text-anchor="middle" x="991" y="-7.5" font-family="Helvetica,sans-Serif" font-size="10.00">clocale</text>
</g>
<!-- Node12&#45;&gt;Node14 -->
<g id="edge14" class="edge"><title>Node12&#45;&gt;Node14</title>
<path fill="none" stroke="midnightblue" d="M801.623,-58.7155C841.201,-49.2301 898.296,-35.3555 957.349,-20.1192"/>
<polygon fill="midnightblue" stroke="midnightblue" points="958.423,-23.4567 967.227,-17.5625 956.668,-16.68 958.423,-23.4567"/>
</g>
<!-- Node15 -->
<g id="node15" class="node"><title>Node15</title>
<polygon fill="none" stroke="#bfbfbf" points="572,-0.5 572,-19.5 616,-19.5 616,-0.5 572,-0.5"/>
<text text-anchor="middle" x="594" y="-7.5" font-family="Helvetica,sans-Serif" font-size="10.00">cmath</text>
</g>
<!-- Node12&#45;&gt;Node15 -->
<g id="edge15" class="edge"><title>Node12&#45;&gt;Node15</title>
<path fill="none" stroke="midnightblue" d="M714.556,-56.3993C687.488,-46.2058 651.319,-32.5855 625.681,-22.9304"/>
<polygon fill="midnightblue" stroke="midnightblue" points="626.665,-19.5612 616.073,-19.3124 624.198,-26.1121 626.665,-19.5612"/>
</g>
<!-- Node16 -->
<g id="node16" class="node"><title>Node16</title>
<polygon fill="none" stroke="#bfbfbf" points="510.5,-0.5 510.5,-19.5 553.5,-19.5 553.5,-0.5 510.5,-0.5"/>
<text text-anchor="middle" x="532" y="-7.5" font-family="Helvetica,sans-Serif" font-size="10.00">cstdio</text>
</g>
<!-- Node12&#45;&gt;Node16 -->
<g id="edge16" class="edge"><title>Node12&#45;&gt;Node16</title>
<path fill="none" stroke="midnightblue" d="M702.179,-57.4999C666.259,-48.0561 616.376,-34.7966 563.557,-20.1116"/>
<polygon fill="midnightblue" stroke="midnightblue" points="564.236,-16.6674 553.663,-17.3536 562.356,-23.4103 564.236,-16.6674"/>
</g>
<!-- Node17 -->
<g id="node17" class="node"><title>Node17</title>
<polygon fill="none" stroke="#bfbfbf" points="634,-0.5 634,-19.5 680,-19.5 680,-0.5 634,-0.5"/>
<text text-anchor="middle" x="657" y="-7.5" font-family="Helvetica,sans-Serif" font-size="10.00">cstring</text>
</g>
<!-- Node12&#45;&gt;Node17 -->
<g id="edge17" class="edge"><title>Node12&#45;&gt;Node17</title>
<path fill="none" stroke="midnightblue" d="M729.486,-56.3993C714.401,-46.9511 694.615,-34.5589 679.527,-25.1089"/>
<polygon fill="midnightblue" stroke="midnightblue" points="681.156,-21.9996 670.823,-19.6578 677.441,-27.9321 681.156,-21.9996"/>
</g>
<!-- Node18 -->
<g id="node18" class="node"><title>Node18</title>
<polygon fill="none" stroke="#bfbfbf" points="698,-0.5 698,-19.5 738,-19.5 738,-0.5 698,-0.5"/>
<text text-anchor="middle" x="718" y="-7.5" font-family="Helvetica,sans-Serif" font-size="10.00">limits</text>
</g>
<!-- Node12&#45;&gt;Node18 -->
<g id="edge18" class="edge"><title>Node12&#45;&gt;Node18</title>
<path fill="none" stroke="midnightblue" d="M743.942,-56.3993C739.155,-48.0207 733.044,-37.3269 727.956,-28.4229"/>
<polygon fill="midnightblue" stroke="midnightblue" points="730.948,-26.6037 722.947,-19.6578 724.87,-30.0767 730.948,-26.6037"/>
</g>
<!-- Node19 -->
<g id="node19" class="node"><title>Node19</title>
<polygon fill="none" stroke="#bfbfbf" points="756.5,-0.5 756.5,-19.5 815.5,-19.5 815.5,-0.5 756.5,-0.5"/>
<text text-anchor="middle" x="786" y="-7.5" font-family="Helvetica,sans-Serif" font-size="10.00">stdexcept</text>
</g>
<!-- Node12&#45;&gt;Node19 -->
<g id="edge20" class="edge"><title>Node12&#45;&gt;Node19</title>
<path fill="none" stroke="midnightblue" d="M760.058,-56.3993C764.845,-48.0207 770.956,-37.3269 776.044,-28.4229"/>
<polygon fill="midnightblue" stroke="midnightblue" points="779.13,-30.0767 781.053,-19.6578 773.052,-26.6037 779.13,-30.0767"/>
</g>
<!-- Node12&#45;&gt;Node20 -->
<g id="edge22" class="edge"><title>Node12&#45;&gt;Node20</title>
<path fill="none" stroke="midnightblue" d="M801.871,-66.9403C906.632,-59.3446 1157.23,-40.5567 1367,-20 1382.33,-18.4981 1399.3,-16.596 1413.57,-14.9277"/>
<polygon fill="midnightblue" stroke="midnightblue" points="1414.37,-18.3581 1423.89,-13.7081 1413.54,-11.4065 1414.37,-18.3581"/>
</g>
<!-- Node12&#45;&gt;Node21 -->
<g id="edge23" class="edge"><title>Node12&#45;&gt;Node21</title>
<path fill="none" stroke="midnightblue" d="M702.175,-58.4551C697.402,-57.5296 692.62,-56.6892 688,-56 466.478,-22.9508 196.06,-13.8348 106.449,-11.6317"/>
<polygon fill="midnightblue" stroke="midnightblue" points="106.275,-8.12672 96.1959,-11.3908 106.111,-15.1248 106.275,-8.12672"/>
</g>
<!-- Node22 -->
<g id="node22" class="node"><title>Node22</title>
<polygon fill="none" stroke="#bfbfbf" points="833.5,-0.5 833.5,-19.5 882.5,-19.5 882.5,-0.5 833.5,-0.5"/>
<text text-anchor="middle" x="858" y="-7.5" font-family="Helvetica,sans-Serif" font-size="10.00">stdint.h</text>
</g>
<!-- Node12&#45;&gt;Node22 -->
<g id="edge24" class="edge"><title>Node12&#45;&gt;Node22</title>
<path fill="none" stroke="midnightblue" d="M777.121,-56.3993C794.27,-46.7728 816.865,-34.0902 833.812,-24.5772"/>
<polygon fill="midnightblue" stroke="midnightblue" points="835.569,-27.6047 842.576,-19.6578 832.143,-21.5006 835.569,-27.6047"/>
</g>
<!-- Node23&#45;&gt;Node24 -->
<g id="edge26" class="edge"><title>Node23&#45;&gt;Node24</title>
<path fill="none" stroke="midnightblue" d="M808.168,-385.734C805.494,-377.456 801.36,-364.662 797.711,-353.367"/>
<polygon fill="midnightblue" stroke="midnightblue" points="800.957,-352.029 794.552,-343.589 794.296,-354.181 800.957,-352.029"/>
</g>
<!-- Node24&#45;&gt;Node2 -->
<g id="edge27" class="edge"><title>Node24&#45;&gt;Node2</title>
<path fill="none" stroke="midnightblue" d="M743.579,-316.605C641.619,-292.676 399.112,-235.761 297.281,-211.862"/>
<polygon fill="midnightblue" stroke="midnightblue" points="297.834,-208.397 287.298,-209.519 296.234,-215.211 297.834,-208.397"/>
</g>
<!-- Node24&#45;&gt;Node3 -->
<g id="edge42" class="edge"><title>Node24&#45;&gt;Node3</title>
<path fill="none" stroke="midnightblue" d="M801.64,-313.492C844.481,-261.937 993.278,-82.8704 1039.32,-27.4666"/>
<polygon fill="midnightblue" stroke="midnightblue" points="1042.09,-29.603 1045.79,-19.6749 1036.71,-25.1292 1042.09,-29.603"/>
</g>
<!-- Node24&#45;&gt;Node21 -->
<g id="edge43" class="edge"><title>Node24&#45;&gt;Node21</title>
<path fill="none" stroke="midnightblue" d="M743.929,-327.418C591.407,-326.729 109.589,-321.053 57,-277 30.3098,-254.642 38,-235.817 38,-201 38,-201 38,-201 38,-137.5 38,-97.3496 55.7757,-52.9463 67.0118,-28.8892"/>
<polygon fill="midnightblue" stroke="midnightblue" points="70.289,-30.1518 71.4917,-19.6255 63.9871,-27.1043 70.289,-30.1518"/>
</g>
<!-- Node24&#45;&gt;Node25 -->
<g id="edge28" class="edge"><title>Node24&#45;&gt;Node25</title>
<path fill="none" stroke="midnightblue" d="M775.462,-313.396C764.808,-303.06 750.34,-289.024 739.295,-278.309"/>
<polygon fill="midnightblue" stroke="midnightblue" points="741.577,-275.646 731.962,-271.195 736.702,-280.67 741.577,-275.646"/>
</g>
<!-- Node25&#45;&gt;Node2 -->
<g id="edge29" class="edge"><title>Node25&#45;&gt;Node2</title>
<path fill="none" stroke="midnightblue" d="M673.823,-254.301C585.862,-243.213 402.056,-220.042 308.447,-208.242"/>
<polygon fill="midnightblue" stroke="midnightblue" points="308.669,-204.742 298.31,-206.964 307.793,-211.687 308.669,-204.742"/>
</g>
<!-- Node25&#45;&gt;Node3 -->
<g id="edge33" class="edge"><title>Node25&#45;&gt;Node3</title>
<path fill="none" stroke="midnightblue" d="M763.825,-251.926C790.625,-244.566 825.025,-231.624 849,-210 906.427,-158.204 871.791,-106.915 930,-56 937.232,-49.6744 988.529,-32.0864 1022.55,-20.8646"/>
<polygon fill="midnightblue" stroke="midnightblue" points="1024.08,-24.0478 1032.49,-17.6058 1021.9,-17.3963 1024.08,-24.0478"/>
</g>
<!-- Node25&#45;&gt;Node5 -->
<g id="edge34" class="edge"><title>Node25&#45;&gt;Node5</title>
<path fill="none" stroke="midnightblue" d="M752.58,-251.992C784.717,-242.544 837.438,-226.443 882,-210 931.5,-191.735 987.791,-167.156 1020.75,-152.367"/>
<polygon fill="midnightblue" stroke="midnightblue" points="1022.51,-155.41 1030.19,-148.11 1019.64,-149.028 1022.51,-155.41"/>
</g>
<!-- Node25&#45;&gt;Node9 -->
<g id="edge32" class="edge"><title>Node25&#45;&gt;Node9</title>
<path fill="none" stroke="midnightblue" d="M673.955,-260.595C590.01,-259.597 424.303,-252.186 388,-210 326.268,-138.264 279.687,-226.521 524,-154 526.988,-153.113 530.079,-152.162 533.174,-151.188"/>
<polygon fill="midnightblue" stroke="midnightblue" points="534.505,-154.436 542.952,-148.041 532.36,-147.773 534.505,-154.436"/>
</g>
<!-- Node25&#45;&gt;Node16 -->
<g id="edge30" class="edge"><title>Node25&#45;&gt;Node16</title>
<path fill="none" stroke="midnightblue" d="M673.841,-259.671C596.727,-257.215 452.816,-247.578 421,-210 415.256,-203.216 415.347,-196.859 421,-190 474.274,-125.36 552.726,-218.64 606,-154 639.782,-113.01 582.643,-54.0841 550.945,-26.4324"/>
<polygon fill="midnightblue" stroke="midnightblue" points="553.028,-23.6092 543.14,-19.8037 548.497,-28.9447 553.028,-23.6092"/>
</g>
<!-- Node26 -->
<g id="node26" class="node"><title>Node26</title>
<polygon fill="none" stroke="#bfbfbf" points="1034.5,-190.5 1034.5,-209.5 1075.5,-209.5 1075.5,-190.5 1034.5,-190.5"/>
<text text-anchor="middle" x="1055" y="-197.5" font-family="Helvetica,sans-Serif" font-size="10.00">ctime</text>
</g>
<!-- Node25&#45;&gt;Node26 -->
<g id="edge31" class="edge"><title>Node25&#45;&gt;Node26</title>
<path fill="none" stroke="midnightblue" d="M772.018,-254.236C830.079,-246.388 929.822,-231.563 1024.68,-209.807"/>
<polygon fill="midnightblue" stroke="midnightblue" points="1025.49,-213.213 1034.43,-207.541 1023.9,-206.395 1025.49,-213.213"/>
</g>
<!-- Node25&#45;&gt;Node27 -->
<g id="edge35" class="edge"><title>Node25&#45;&gt;Node27</title>
<path fill="none" stroke="midnightblue" d="M761.828,-251.975C815.662,-240.155 911.978,-219.009 961.949,-208.037"/>
<polygon fill="midnightblue" stroke="midnightblue" points="962.86,-211.42 971.877,-205.857 961.359,-204.583 962.86,-211.42"/>
</g>
<!-- Node28 -->
<g id="node28" class="node"><title>Node28</title>
<polygon fill="none" stroke="#bfbfbf" points="430,-190.5 430,-209.5 476,-209.5 476,-190.5 430,-190.5"/>
<text text-anchor="middle" x="453" y="-197.5" font-family="Helvetica,sans-Serif" font-size="10.00">stdio.h</text>
</g>
<!-- Node25&#45;&gt;Node28 -->
<g id="edge36" class="edge"><title>Node25&#45;&gt;Node28</title>
<path fill="none" stroke="midnightblue" d="M678.5,-251.958C632.599,-242.946 558.743,-227.889 485.836,-210.084"/>
<polygon fill="midnightblue" stroke="midnightblue" points="486.571,-206.66 476.025,-207.669 484.898,-213.457 486.571,-206.66"/>
</g>
<!-- Node29 -->
<g id="node29" class="node"><title>Node29</title>
<polygon fill="none" stroke="#bfbfbf" points="494.5,-190.5 494.5,-209.5 543.5,-209.5 543.5,-190.5 494.5,-190.5"/>
<text text-anchor="middle" x="519" y="-197.5" font-family="Helvetica,sans-Serif" font-size="10.00">string.h</text>
</g>
<!-- Node25&#45;&gt;Node29 -->
<g id="edge37" class="edge"><title>Node25&#45;&gt;Node29</title>
<path fill="none" stroke="midnightblue" d="M693.772,-251.975C656.678,-241.156 592.792,-222.523 553.392,-211.031"/>
<polygon fill="midnightblue" stroke="midnightblue" points="554.273,-207.642 543.693,-208.202 552.313,-214.362 554.273,-207.642"/>
</g>
<!-- Node30 -->
<g id="node30" class="node"><title>Node30</title>
<polygon fill="none" stroke="#bfbfbf" points="562,-190.5 562,-209.5 622,-209.5 622,-190.5 562,-190.5"/>
<text text-anchor="middle" x="592" y="-197.5" font-family="Helvetica,sans-Serif" font-size="10.00">sys/stat.h</text>
</g>
<!-- Node25&#45;&gt;Node30 -->
<g id="edge38" class="edge"><title>Node25&#45;&gt;Node30</title>
<path fill="none" stroke="midnightblue" d="M704.231,-251.975C682.149,-241.945 645.281,-225.2 619.861,-213.655"/>
<polygon fill="midnightblue" stroke="midnightblue" points="621.287,-210.458 610.734,-209.509 618.392,-216.831 621.287,-210.458"/>
</g>
<!-- Node31 -->
<g id="node31" class="node"><title>Node31</title>
<polygon fill="none" stroke="#bfbfbf" points="640,-190.5 640,-209.5 708,-209.5 708,-190.5 640,-190.5"/>
<text text-anchor="middle" x="674" y="-197.5" font-family="Helvetica,sans-Serif" font-size="10.00">sys/types.h</text>
</g>
<!-- Node25&#45;&gt;Node31 -->
<g id="edge39" class="edge"><title>Node25&#45;&gt;Node31</title>
<path fill="none" stroke="midnightblue" d="M715.979,-251.975C708.557,-242.962 696.667,-228.525 687.433,-217.312"/>
<polygon fill="midnightblue" stroke="midnightblue" points="690.066,-215.003 681.007,-209.509 684.663,-219.453 690.066,-215.003"/>
</g>
<!-- Node32 -->
<g id="node32" class="node"><title>Node32</title>
<polygon fill="none" stroke="#bfbfbf" points="726.5,-190.5 726.5,-209.5 777.5,-209.5 777.5,-190.5 726.5,-190.5"/>
<text text-anchor="middle" x="752" y="-197.5" font-family="Helvetica,sans-Serif" font-size="10.00">unistd.h</text>
</g>
<!-- Node25&#45;&gt;Node32 -->
<g id="edge40" class="edge"><title>Node25&#45;&gt;Node32</title>
<path fill="none" stroke="midnightblue" d="M727.155,-251.975C731.376,-243.315 738.037,-229.649 743.4,-218.645"/>
<polygon fill="midnightblue" stroke="midnightblue" points="746.618,-220.032 747.853,-209.509 740.325,-216.965 746.618,-220.032"/>
</g>
<!-- Node33 -->
<g id="node33" class="node"><title>Node33</title>
<polygon fill="none" stroke="#bfbfbf" points="796,-190.5 796,-209.5 840,-209.5 840,-190.5 796,-190.5"/>
<text text-anchor="middle" x="818" y="-197.5" font-family="Helvetica,sans-Serif" font-size="10.00">fcntl.h</text>
</g>
<!-- Node25&#45;&gt;Node33 -->
<g id="edge41" class="edge"><title>Node25&#45;&gt;Node33</title>
<path fill="none" stroke="midnightblue" d="M736.611,-251.975C752.061,-242.299 777.49,-226.372 795.816,-214.894"/>
<polygon fill="midnightblue" stroke="midnightblue" points="797.797,-217.783 804.414,-209.509 794.081,-211.851 797.797,-217.783"/>
</g>
<!-- Node34&#45;&gt;Node2 -->
<g id="edge45" class="edge"><title>Node34&#45;&gt;Node2</title>
<path fill="none" stroke="midnightblue" d="M151.045,-246.399C172.73,-236.55 201.459,-223.501 222.551,-213.922"/>
<polygon fill="midnightblue" stroke="midnightblue" points="224.281,-216.98 231.938,-209.658 221.386,-210.607 224.281,-216.98"/>
</g>
<!-- Node34&#45;&gt;Node7 -->
<g id="edge46" class="edge"><title>Node34&#45;&gt;Node7</title>
<path fill="none" stroke="midnightblue" d="M116.508,-246.354C110.641,-218.871 102.253,-157.906 133,-123 157.984,-94.6363 268.529,-80.6397 324.819,-75.2475"/>
<polygon fill="midnightblue" stroke="midnightblue" points="325.352,-78.7133 334.989,-74.3106 324.71,-71.7428 325.352,-78.7133"/>
</g>
<!-- Node34&#45;&gt;Node21 -->
<g id="edge47" class="edge"><title>Node34&#45;&gt;Node21</title>
<path fill="none" stroke="midnightblue" d="M115.987,-246.437C113.206,-236.353 109.558,-222.414 107,-210 93.4938,-144.465 82.8574,-65.7078 78.3475,-30.117"/>
<polygon fill="midnightblue" stroke="midnightblue" points="81.7694,-29.2729 77.0576,-19.7834 74.8233,-30.1399 81.7694,-29.2729"/>
</g>
<!-- Node35&#45;&gt;Node3 -->
<g id="edge53" class="edge"><title>Node35&#45;&gt;Node3</title>
<path fill="none" stroke="midnightblue" d="M1176.02,-447.433C1190.9,-440.139 1209.79,-428.102 1219,-411 1253.78,-346.412 1234.36,-318.47 1223,-246 1208.5,-153.499 1200.27,-120.078 1132,-56 1117.7,-42.5814 1098.68,-31.5899 1082.88,-23.8294"/>
<polygon fill="midnightblue" stroke="midnightblue" points="1084.08,-20.5211 1073.54,-19.4221 1081.09,-26.8526 1084.08,-20.5211"/>
</g>
<!-- Node35&#45;&gt;Node6 -->
<g id="edge54" class="edge"><title>Node35&#45;&gt;Node6</title>
<path fill="none" stroke="midnightblue" d="M1201.11,-447.466C1283.16,-429.323 1446,-378.684 1446,-262.5 1446,-262.5 1446,-262.5 1446,-137.5 1446,-85.0747 1391.3,-44.5813 1357.68,-24.6442"/>
<polygon fill="midnightblue" stroke="midnightblue" points="1359.24,-21.5028 1348.82,-19.5732 1355.76,-27.5782 1359.24,-21.5028"/>
</g>
<!-- Node35&#45;&gt;Node20 -->
<g id="edge52" class="edge"><title>Node35&#45;&gt;Node20</title>
<path fill="none" stroke="midnightblue" d="M1202.9,-450.521C1245.43,-444.493 1308.62,-432.647 1360,-411 1420.77,-385.393 1484,-395.449 1484,-329.5 1484,-329.5 1484,-329.5 1484,-137.5 1484,-97.3496 1466.22,-52.9463 1454.99,-28.8892"/>
<polygon fill="midnightblue" stroke="midnightblue" points="1458.01,-27.1043 1450.51,-19.6255 1451.71,-30.1518 1458.01,-27.1043"/>
</g>
<!-- Node35&#45;&gt;Node24 -->
<g id="edge51" class="edge"><title>Node35&#45;&gt;Node24</title>
<path fill="none" stroke="midnightblue" d="M1130.2,-447.405C1070.8,-426.82 919.468,-374.371 840.181,-346.892"/>
<polygon fill="midnightblue" stroke="midnightblue" points="841.011,-343.475 830.416,-343.507 838.719,-350.089 841.011,-343.475"/>
</g>
<!-- Node36 -->
<g id="node36" class="node"><title>Node36</title>
<g id="a_node36"><a xlink:href="pattern__formatter__impl_8h.html" target="_top" xlink:title="spdlog/details/pattern\l_formatter_impl.h">
<polygon fill="none" stroke="black" points="1100,-380.5 1100,-410.5 1210,-410.5 1210,-380.5 1100,-380.5"/>
<text text-anchor="start" x="1108" y="-398.5" font-family="Helvetica,sans-Serif" font-size="10.00">spdlog/details/pattern</text>
<text text-anchor="middle" x="1155" y="-387.5" font-family="Helvetica,sans-Serif" font-size="10.00">_formatter_impl.h</text>
</a>
</g>
</g>
<!-- Node35&#45;&gt;Node36 -->
<g id="edge55" class="edge"><title>Node35&#45;&gt;Node36</title>
<path fill="none" stroke="midnightblue" d="M1150.1,-447.475C1148.57,-440.471 1147.99,-430.192 1148.36,-420.696"/>
<polygon fill="midnightblue" stroke="midnightblue" points="1151.86,-420.77 1149.17,-410.523 1144.88,-420.212 1151.86,-420.77"/>
</g>
<!-- Node36&#45;&gt;Node3 -->
<g id="edge64" class="edge"><title>Node36&#45;&gt;Node3</title>
<path fill="none" stroke="midnightblue" d="M1170.26,-380.174C1179.06,-370.833 1189.28,-357.839 1194,-344 1214.97,-282.551 1229.14,-270.694 1154,-123 1133.49,-82.6793 1094.65,-45.7667 1071.58,-26.0289"/>
<polygon fill="midnightblue" stroke="midnightblue" points="1073.76,-23.2957 1063.85,-19.5597 1069.27,-28.6629 1073.76,-23.2957"/>
</g>
<!-- Node36&#45;&gt;Node5 -->
<g id="edge60" class="edge"><title>Node36&#45;&gt;Node5</title>
<path fill="none" stroke="midnightblue" d="M1110.77,-380.437C1093.65,-372.586 1075.83,-360.887 1066,-344 1029.65,-281.573 1150.68,-254.424 1118,-190 1109.66,-173.555 1093.16,-161.179 1078.4,-152.796"/>
<polygon fill="midnightblue" stroke="midnightblue" points="1079.99,-149.677 1069.51,-148.091 1076.71,-155.864 1079.99,-149.677"/>
</g>
<!-- Node36&#45;&gt;Node6 -->
<g id="edge62" class="edge"><title>Node36&#45;&gt;Node6</title>
<path fill="none" stroke="midnightblue" d="M1176.55,-380.306C1188.95,-371.197 1204.01,-358.399 1214,-344 1287.15,-238.615 1319.54,-83.1534 1328.94,-29.7852"/>
<polygon fill="midnightblue" stroke="midnightblue" points="1332.42,-30.1917 1330.65,-19.7466 1325.52,-29.0189 1332.42,-30.1917"/>
</g>
<!-- Node36&#45;&gt;Node11 -->
<g id="edge59" class="edge"><title>Node36&#45;&gt;Node11</title>
<path fill="none" stroke="midnightblue" d="M1163.36,-380.484C1168.72,-370.652 1175.18,-356.992 1178,-344 1180.92,-330.536 1181.44,-326.342 1178,-313 1160.83,-246.375 1145.54,-220.776 1084,-190 1036.31,-166.148 887.257,-150.598 806.052,-143.665"/>
<polygon fill="midnightblue" stroke="midnightblue" points="806.276,-140.171 796.018,-142.822 805.69,-147.147 806.276,-140.171"/>
</g>
<!-- Node36&#45;&gt;Node20 -->
<g id="edge67" class="edge"><title>Node36&#45;&gt;Node20</title>
<path fill="none" stroke="midnightblue" d="M1206.5,-380.473C1280.48,-356.832 1408,-301.503 1408,-201 1408,-201 1408,-201 1408,-137.5 1408,-97.3496 1425.78,-52.9463 1437.01,-28.8892"/>
<polygon fill="midnightblue" stroke="midnightblue" points="1440.29,-30.1518 1441.49,-19.6255 1433.99,-27.1043 1440.29,-30.1518"/>
</g>
<!-- Node36&#45;&gt;Node21 -->
<g id="edge66" class="edge"><title>Node36&#45;&gt;Node21</title>
<path fill="none" stroke="midnightblue" d="M1131.53,-380.318C1119.37,-371.541 1105.7,-359.072 1099,-344 1093.4,-331.411 1096.69,-326.584 1099,-313 1108.53,-256.843 1153.95,-243.715 1135,-190 1122.28,-153.934 1114.7,-141.083 1081,-123 1004.7,-82.0585 779.092,-96.2941 693,-87 467.183,-62.6219 195.683,-26.9654 106.208,-15.0474"/>
<polygon fill="midnightblue" stroke="midnightblue" points="106.589,-11.5673 96.2137,-13.714 105.663,-18.5058 106.589,-11.5673"/>
</g>
<!-- Node36&#45;&gt;Node24 -->
<g id="edge57" class="edge"><title>Node36&#45;&gt;Node24</title>
<path fill="none" stroke="midnightblue" d="M1099.96,-384.698C1031.58,-372.521 915.505,-351.85 846.466,-339.556"/>
<polygon fill="midnightblue" stroke="midnightblue" points="846.677,-336.038 836.218,-337.731 845.45,-342.93 846.677,-336.038"/>
</g>
<!-- Node36&#45;&gt;Node25 -->
<g id="edge58" class="edge"><title>Node36&#45;&gt;Node25</title>
<path fill="none" stroke="midnightblue" d="M1109.18,-380.499C1023.45,-354.305 840.336,-298.353 760.98,-274.105"/>
<polygon fill="midnightblue" stroke="midnightblue" points="761.523,-270.611 750.936,-271.036 759.477,-277.306 761.523,-270.611"/>
</g>
<!-- Node36&#45;&gt;Node26 -->
<g id="edge61" class="edge"><title>Node36&#45;&gt;Node26</title>
<path fill="none" stroke="midnightblue" d="M1159.68,-380.378C1164.41,-363.659 1169.87,-335.276 1161,-313 1143.99,-270.281 1102.09,-234.47 1076.36,-215.527"/>
<polygon fill="midnightblue" stroke="midnightblue" points="1078.17,-212.517 1068,-209.546 1074.09,-218.21 1078.17,-212.517"/>
</g>
<!-- Node36&#45;&gt;Node27 -->
<g id="edge65" class="edge"><title>Node36&#45;&gt;Node27</title>
<path fill="none" stroke="midnightblue" d="M1099.72,-384.67C1074.48,-377.46 1046.23,-365.091 1028,-344 997.207,-308.382 993.139,-249.824 993.269,-219.895"/>
<polygon fill="midnightblue" stroke="midnightblue" points="996.774,-219.683 993.49,-209.611 989.776,-219.533 996.774,-219.683"/>
</g>
<!-- Node36&#45;&gt;Node35 -->
<g id="edge56" class="edge"><title>Node36&#45;&gt;Node35</title>
<path fill="none" stroke="midnightblue" d="M1160.83,-410.523C1161.87,-418.586 1162.03,-428.813 1161.3,-437.526"/>
<polygon fill="midnightblue" stroke="midnightblue" points="1157.83,-437.085 1159.9,-447.475 1164.76,-438.06 1157.83,-437.085"/>
</g>
<!-- Node37 -->
<g id="node37" class="node"><title>Node37</title>
<polygon fill="none" stroke="#bfbfbf" points="1108,-319 1108,-338 1152,-338 1152,-319 1108,-319"/>
<text text-anchor="middle" x="1130" y="-326" font-family="Helvetica,sans-Serif" font-size="10.00">mutex</text>
</g>
<!-- Node36&#45;&gt;Node37 -->
<g id="edge63" class="edge"><title>Node36&#45;&gt;Node37</title>
<path fill="none" stroke="midnightblue" d="M1149.58,-380.396C1145.87,-370.763 1140.93,-357.914 1136.94,-347.537"/>
<polygon fill="midnightblue" stroke="midnightblue" points="1140.2,-346.272 1133.34,-338.195 1133.67,-348.784 1140.2,-346.272"/>
</g>
</g>
</svg>
