<?xml version="1.0" encoding="UTF-8" standalone="no"?>
<!DOCTYPE svg PUBLIC "-//W3C//DTD SVG 1.1//EN"
 "http://www.w3.org/Graphics/SVG/1.1/DTD/svg11.dtd">
<!-- Generated by graphviz version 2.38.0 (20140413.2041)
 -->
<!-- Title: /home/lucamuratore/advr&#45;superbuild/external/XBotInterface/include/spdlog/sinks/base_sink.h Pages: 1 -->
<svg width="1209pt" height="951pt"
 viewBox="0.00 0.00 1209.00 951.00" xmlns="http://www.w3.org/2000/svg" xmlns:xlink="http://www.w3.org/1999/xlink">
<g id="graph0" class="graph" transform="scale(1 1) rotate(0) translate(4 947)">
<title>/home/lucamuratore/advr&#45;superbuild/external/XBotInterface/include/spdlog/sinks/base_sink.h</title>
<!-- Node1 -->
<g id="node1" class="node"><title>Node1</title>
<polygon fill="#bfbfbf" stroke="black" points="516,-890.5 516,-942.5 661,-942.5 661,-890.5 516,-890.5"/>
<text text-anchor="start" x="524" y="-930.5" font-family="Helvetica,sans-Serif" font-size="10.00">/home/lucamuratore</text>
<text text-anchor="start" x="524" y="-919.5" font-family="Helvetica,sans-Serif" font-size="10.00">/advr&#45;superbuild/external</text>
<text text-anchor="start" x="524" y="-908.5" font-family="Helvetica,sans-Serif" font-size="10.00">/XBotInterface/include/spdlog</text>
<text text-anchor="middle" x="588.5" y="-897.5" font-family="Helvetica,sans-Serif" font-size="10.00">/sinks/base_sink.h</text>
</g>
<!-- Node2 -->
<g id="node2" class="node"><title>Node2</title>
<g id="a_node2"><a xlink:href="logger_8h.html" target="_top" xlink:title="/home/lucamuratore\l/advr&#45;superbuild/external\l/XBotInterface/include/spdlog\l/logger.h">
<polygon fill="none" stroke="black" points="365,-801.5 365,-853.5 510,-853.5 510,-801.5 365,-801.5"/>
<text text-anchor="start" x="373" y="-841.5" font-family="Helvetica,sans-Serif" font-size="10.00">/home/lucamuratore</text>
<text text-anchor="start" x="373" y="-830.5" font-family="Helvetica,sans-Serif" font-size="10.00">/advr&#45;superbuild/external</text>
<text text-anchor="start" x="373" y="-819.5" font-family="Helvetica,sans-Serif" font-size="10.00">/XBotInterface/include/spdlog</text>
<text text-anchor="middle" x="437.5" y="-808.5" font-family="Helvetica,sans-Serif" font-size="10.00">/logger.h</text>
</a>
</g>
</g>
<!-- Node1&#45;&gt;Node2 -->
<g id="edge1" class="edge"><title>Node1&#45;&gt;Node2</title>
<path fill="none" stroke="midnightblue" d="M535.686,-885.07C517.838,-874.788 498.127,-863.431 481.077,-853.607"/>
<polygon fill="midnightblue" stroke="midnightblue" points="534.413,-888.376 544.825,-890.336 537.907,-882.311 534.413,-888.376"/>
</g>
<!-- Node22 -->
<g id="node22" class="node"><title>Node22</title>
<g id="a_node22"><a xlink:href="ansicolor__sink_8h.html" target="_top" xlink:title="/home/lucamuratore\l/advr&#45;superbuild/external\l/XBotInterface/include/spdlog\l/sinks/ansicolor_sink.h">
<polygon fill="none" stroke="black" points="605,-712.5 605,-764.5 750,-764.5 750,-712.5 605,-712.5"/>
<text text-anchor="start" x="613" y="-752.5" font-family="Helvetica,sans-Serif" font-size="10.00">/home/lucamuratore</text>
<text text-anchor="start" x="613" y="-741.5" font-family="Helvetica,sans-Serif" font-size="10.00">/advr&#45;superbuild/external</text>
<text text-anchor="start" x="613" y="-730.5" font-family="Helvetica,sans-Serif" font-size="10.00">/XBotInterface/include/spdlog</text>
<text text-anchor="middle" x="677.5" y="-719.5" font-family="Helvetica,sans-Serif" font-size="10.00">/sinks/ansicolor_sink.h</text>
</a>
</g>
</g>
<!-- Node1&#45;&gt;Node22 -->
<g id="edge28" class="edge"><title>Node1&#45;&gt;Node22</title>
<path fill="none" stroke="midnightblue" d="M565.94,-881.483C553.161,-857.585 542.454,-825.619 557.5,-801 568.365,-783.223 586.18,-770.373 604.798,-761.173"/>
<polygon fill="midnightblue" stroke="midnightblue" points="562.913,-883.241 570.889,-890.214 569.003,-879.789 562.913,-883.241"/>
</g>
<!-- Node23 -->
<g id="node23" class="node"><title>Node23</title>
<g id="a_node23"><a xlink:href="dist__sink_8h.html" target="_top" xlink:title="/home/lucamuratore\l/advr&#45;superbuild/external\l/XBotInterface/include/spdlog\l/sinks/dist_sink.h">
<polygon fill="none" stroke="black" points="567,-801.5 567,-853.5 712,-853.5 712,-801.5 567,-801.5"/>
<text text-anchor="start" x="575" y="-841.5" font-family="Helvetica,sans-Serif" font-size="10.00">/home/lucamuratore</text>
<text text-anchor="start" x="575" y="-830.5" font-family="Helvetica,sans-Serif" font-size="10.00">/advr&#45;superbuild/external</text>
<text text-anchor="start" x="575" y="-819.5" font-family="Helvetica,sans-Serif" font-size="10.00">/XBotInterface/include/spdlog</text>
<text text-anchor="middle" x="639.5" y="-808.5" font-family="Helvetica,sans-Serif" font-size="10.00">/sinks/dist_sink.h</text>
</a>
</g>
</g>
<!-- Node1&#45;&gt;Node23 -->
<g id="edge30" class="edge"><title>Node1&#45;&gt;Node23</title>
<path fill="none" stroke="midnightblue" d="M608.35,-881.639C613.821,-872.306 619.657,-862.349 624.782,-853.607"/>
<polygon fill="midnightblue" stroke="midnightblue" points="605.289,-879.939 603.251,-890.336 611.328,-883.479 605.289,-879.939"/>
</g>
<!-- Node24 -->
<g id="node24" class="node"><title>Node24</title>
<g id="a_node24"><a xlink:href="file__sinks_8h.html" target="_top" xlink:title="/home/lucamuratore\l/advr&#45;superbuild/external\l/XBotInterface/include/spdlog\l/sinks/file_sinks.h">
<polygon fill="none" stroke="black" points="0,-623.5 0,-675.5 145,-675.5 145,-623.5 0,-623.5"/>
<text text-anchor="start" x="8" y="-663.5" font-family="Helvetica,sans-Serif" font-size="10.00">/home/lucamuratore</text>
<text text-anchor="start" x="8" y="-652.5" font-family="Helvetica,sans-Serif" font-size="10.00">/advr&#45;superbuild/external</text>
<text text-anchor="start" x="8" y="-641.5" font-family="Helvetica,sans-Serif" font-size="10.00">/XBotInterface/include/spdlog</text>
<text text-anchor="middle" x="72.5" y="-630.5" font-family="Helvetica,sans-Serif" font-size="10.00">/sinks/file_sinks.h</text>
</a>
</g>
</g>
<!-- Node1&#45;&gt;Node24 -->
<g id="edge31" class="edge"><title>Node1&#45;&gt;Node24</title>
<path fill="none" stroke="midnightblue" d="M505.572,-910.9C404.835,-903.913 242.182,-887.701 192.5,-854 128.179,-810.369 93.3294,-719.825 79.5644,-675.729"/>
<polygon fill="midnightblue" stroke="midnightblue" points="505.511,-914.404 515.725,-911.588 505.984,-907.42 505.511,-914.404"/>
</g>
<!-- Node25 -->
<g id="node25" class="node"><title>Node25</title>
<g id="a_node25"><a xlink:href="null__sink_8h.html" target="_top" xlink:title="/home/lucamuratore\l/advr&#45;superbuild/external\l/XBotInterface/include/spdlog\l/sinks/null_sink.h">
<polygon fill="none" stroke="black" points="730,-801.5 730,-853.5 875,-853.5 875,-801.5 730,-801.5"/>
<text text-anchor="start" x="738" y="-841.5" font-family="Helvetica,sans-Serif" font-size="10.00">/home/lucamuratore</text>
<text text-anchor="start" x="738" y="-830.5" font-family="Helvetica,sans-Serif" font-size="10.00">/advr&#45;superbuild/external</text>
<text text-anchor="start" x="738" y="-819.5" font-family="Helvetica,sans-Serif" font-size="10.00">/XBotInterface/include/spdlog</text>
<text text-anchor="middle" x="802.5" y="-808.5" font-family="Helvetica,sans-Serif" font-size="10.00">/sinks/null_sink.h</text>
</a>
</g>
</g>
<!-- Node1&#45;&gt;Node25 -->
<g id="edge33" class="edge"><title>Node1&#45;&gt;Node25</title>
<path fill="none" stroke="midnightblue" d="M659.645,-886.576C685.965,-875.876 715.558,-863.846 740.954,-853.521"/>
<polygon fill="midnightblue" stroke="midnightblue" points="658.056,-883.444 650.111,-890.453 660.692,-889.929 658.056,-883.444"/>
</g>
<!-- Node26 -->
<g id="node26" class="node"><title>Node26</title>
<g id="a_node26"><a xlink:href="ostream__sink_8h.html" target="_top" xlink:title="/home/lucamuratore\l/advr&#45;superbuild/external\l/XBotInterface/include/spdlog\l/sinks/ostream_sink.h">
<polygon fill="none" stroke="black" points="893,-801.5 893,-853.5 1038,-853.5 1038,-801.5 893,-801.5"/>
<text text-anchor="start" x="901" y="-841.5" font-family="Helvetica,sans-Serif" font-size="10.00">/home/lucamuratore</text>
<text text-anchor="start" x="901" y="-830.5" font-family="Helvetica,sans-Serif" font-size="10.00">/advr&#45;superbuild/external</text>
<text text-anchor="start" x="901" y="-819.5" font-family="Helvetica,sans-Serif" font-size="10.00">/XBotInterface/include/spdlog</text>
<text text-anchor="middle" x="965.5" y="-808.5" font-family="Helvetica,sans-Serif" font-size="10.00">/sinks/ostream_sink.h</text>
</a>
</g>
</g>
<!-- Node1&#45;&gt;Node26 -->
<g id="edge34" class="edge"><title>Node1&#45;&gt;Node26</title>
<path fill="none" stroke="midnightblue" d="M671.165,-900.624C730.815,-889.332 813.081,-872.611 884.5,-854 887.211,-853.294 889.965,-852.552 892.742,-851.783"/>
<polygon fill="midnightblue" stroke="midnightblue" points="670.226,-897.239 661.046,-902.528 671.521,-904.118 670.226,-897.239"/>
</g>
<!-- Node27 -->
<g id="node27" class="node"><title>Node27</title>
<g id="a_node27"><a xlink:href="stdout__sinks_8h.html" target="_top" xlink:title="/home/lucamuratore\l/advr&#45;superbuild/external\l/XBotInterface/include/spdlog\l/sinks/stdout_sinks.h">
<polygon fill="none" stroke="black" points="202,-801.5 202,-853.5 347,-853.5 347,-801.5 202,-801.5"/>
<text text-anchor="start" x="210" y="-841.5" font-family="Helvetica,sans-Serif" font-size="10.00">/home/lucamuratore</text>
<text text-anchor="start" x="210" y="-830.5" font-family="Helvetica,sans-Serif" font-size="10.00">/advr&#45;superbuild/external</text>
<text text-anchor="start" x="210" y="-819.5" font-family="Helvetica,sans-Serif" font-size="10.00">/XBotInterface/include/spdlog</text>
<text text-anchor="middle" x="274.5" y="-808.5" font-family="Helvetica,sans-Serif" font-size="10.00">/sinks/stdout_sinks.h</text>
</a>
</g>
</g>
<!-- Node1&#45;&gt;Node27 -->
<g id="edge35" class="edge"><title>Node1&#45;&gt;Node27</title>
<path fill="none" stroke="midnightblue" d="M505.909,-894.707C461.24,-883.208 405.194,-868.372 355.5,-854 352.809,-853.222 350.071,-852.419 347.309,-851.598"/>
<polygon fill="midnightblue" stroke="midnightblue" points="505.285,-898.16 515.841,-897.257 507.026,-891.38 505.285,-898.16"/>
</g>
<!-- Node28 -->
<g id="node28" class="node"><title>Node28</title>
<g id="a_node28"><a xlink:href="wincolor__sink_8h.html" target="_top" xlink:title="/home/lucamuratore\l/advr&#45;superbuild/external\l/XBotInterface/include/spdlog\l/sinks/wincolor_sink.h">
<polygon fill="none" stroke="black" points="1056,-801.5 1056,-853.5 1201,-853.5 1201,-801.5 1056,-801.5"/>
<text text-anchor="start" x="1064" y="-841.5" font-family="Helvetica,sans-Serif" font-size="10.00">/home/lucamuratore</text>
<text text-anchor="start" x="1064" y="-830.5" font-family="Helvetica,sans-Serif" font-size="10.00">/advr&#45;superbuild/external</text>
<text text-anchor="start" x="1064" y="-819.5" font-family="Helvetica,sans-Serif" font-size="10.00">/XBotInterface/include/spdlog</text>
<text text-anchor="middle" x="1128.5" y="-808.5" font-family="Helvetica,sans-Serif" font-size="10.00">/sinks/wincolor_sink.h</text>
</a>
</g>
</g>
<!-- Node1&#45;&gt;Node28 -->
<g id="edge38" class="edge"><title>Node1&#45;&gt;Node28</title>
<path fill="none" stroke="midnightblue" d="M671.262,-908.726C763.753,-900.16 917.585,-882.928 1047.5,-854 1050.23,-853.391 1053.01,-852.732 1055.8,-852.034"/>
<polygon fill="midnightblue" stroke="midnightblue" points="670.763,-905.257 661.124,-909.653 671.401,-912.228 670.763,-905.257"/>
</g>
<!-- Node3 -->
<g id="node3" class="node"><title>Node3</title>
<g id="a_node3"><a xlink:href="async__logger_8h.html" target="_top" xlink:title="/home/lucamuratore\l/advr&#45;superbuild/external\l/XBotInterface/include/spdlog\l/async_logger.h">
<polygon fill="none" stroke="black" points="365,-712.5 365,-764.5 510,-764.5 510,-712.5 365,-712.5"/>
<text text-anchor="start" x="373" y="-752.5" font-family="Helvetica,sans-Serif" font-size="10.00">/home/lucamuratore</text>
<text text-anchor="start" x="373" y="-741.5" font-family="Helvetica,sans-Serif" font-size="10.00">/advr&#45;superbuild/external</text>
<text text-anchor="start" x="373" y="-730.5" font-family="Helvetica,sans-Serif" font-size="10.00">/XBotInterface/include/spdlog</text>
<text text-anchor="middle" x="437.5" y="-719.5" font-family="Helvetica,sans-Serif" font-size="10.00">/async_logger.h</text>
</a>
</g>
</g>
<!-- Node2&#45;&gt;Node3 -->
<g id="edge2" class="edge"><title>Node2&#45;&gt;Node3</title>
<path fill="none" stroke="midnightblue" d="M437.5,-791.191C437.5,-782.282 437.5,-772.899 437.5,-764.607"/>
<polygon fill="midnightblue" stroke="midnightblue" points="434,-791.336 437.5,-801.336 441,-791.336 434,-791.336"/>
</g>
<!-- Node5 -->
<g id="node5" class="node"><title>Node5</title>
<g id="a_node5"><a xlink:href="registry_8h.html" target="_top" xlink:title="/home/lucamuratore\l/advr&#45;superbuild/external\l/XBotInterface/include/spdlog\l/details/registry.h">
<polygon fill="none" stroke="black" points="403,-623.5 403,-675.5 548,-675.5 548,-623.5 403,-623.5"/>
<text text-anchor="start" x="411" y="-663.5" font-family="Helvetica,sans-Serif" font-size="10.00">/home/lucamuratore</text>
<text text-anchor="start" x="411" y="-652.5" font-family="Helvetica,sans-Serif" font-size="10.00">/advr&#45;superbuild/external</text>
<text text-anchor="start" x="411" y="-641.5" font-family="Helvetica,sans-Serif" font-size="10.00">/XBotInterface/include/spdlog</text>
<text text-anchor="middle" x="475.5" y="-630.5" font-family="Helvetica,sans-Serif" font-size="10.00">/details/registry.h</text>
</a>
</g>
</g>
<!-- Node2&#45;&gt;Node5 -->
<g id="edge26" class="edge"><title>Node2&#45;&gt;Node5</title>
<path fill="none" stroke="midnightblue" d="M493.256,-795.229C503.445,-786.81 512.683,-776.721 518.5,-765 528.972,-743.9 525.576,-734.468 518.5,-712 514.352,-698.828 506.267,-686.02 498.216,-675.533"/>
<polygon fill="midnightblue" stroke="midnightblue" points="491.106,-792.467 485.319,-801.341 495.377,-798.013 491.106,-792.467"/>
</g>
<!-- Node7 -->
<g id="node7" class="node"><title>Node7</title>
<g id="a_node7"><a xlink:href="spdlog_8h.html" target="_top" xlink:title="/home/lucamuratore\l/advr&#45;superbuild/external\l/XBotInterface/include/spdlog\l/spdlog.h">
<polygon fill="none" stroke="black" points="403,-445.5 403,-497.5 548,-497.5 548,-445.5 403,-445.5"/>
<text text-anchor="start" x="411" y="-485.5" font-family="Helvetica,sans-Serif" font-size="10.00">/home/lucamuratore</text>
<text text-anchor="start" x="411" y="-474.5" font-family="Helvetica,sans-Serif" font-size="10.00">/advr&#45;superbuild/external</text>
<text text-anchor="start" x="411" y="-463.5" font-family="Helvetica,sans-Serif" font-size="10.00">/XBotInterface/include/spdlog</text>
<text text-anchor="middle" x="475.5" y="-452.5" font-family="Helvetica,sans-Serif" font-size="10.00">/spdlog.h</text>
</a>
</g>
</g>
<!-- Node2&#45;&gt;Node7 -->
<g id="edge27" class="edge"><title>Node2&#45;&gt;Node7</title>
<path fill="none" stroke="midnightblue" d="M503.343,-795.929C515.913,-787.474 527.832,-777.193 536.5,-765 559.99,-731.956 552.028,-716.295 556.5,-676 563.461,-613.274 584.558,-590.531 556.5,-534 549.2,-519.291 536.514,-507.153 523.319,-497.659"/>
<polygon fill="midnightblue" stroke="midnightblue" points="501.141,-793.181 494.57,-801.491 504.889,-799.093 501.141,-793.181"/>
</g>
<!-- Node21 -->
<g id="node21" class="node"><title>Node21</title>
<g id="a_node21"><a xlink:href="logger__impl_8h.html" target="_top" xlink:title="/home/lucamuratore\l/advr&#45;superbuild/external\l/XBotInterface/include/spdlog\l/details/logger_impl.h">
<polygon fill="none" stroke="black" points="202,-712.5 202,-764.5 347,-764.5 347,-712.5 202,-712.5"/>
<text text-anchor="start" x="210" y="-752.5" font-family="Helvetica,sans-Serif" font-size="10.00">/home/lucamuratore</text>
<text text-anchor="start" x="210" y="-741.5" font-family="Helvetica,sans-Serif" font-size="10.00">/advr&#45;superbuild/external</text>
<text text-anchor="start" x="210" y="-730.5" font-family="Helvetica,sans-Serif" font-size="10.00">/XBotInterface/include/spdlog</text>
<text text-anchor="middle" x="274.5" y="-719.5" font-family="Helvetica,sans-Serif" font-size="10.00">/details/logger_impl.h</text>
</a>
</g>
</g>
<!-- Node2&#45;&gt;Node21 -->
<g id="edge24" class="edge"><title>Node2&#45;&gt;Node21</title>
<path fill="none" stroke="midnightblue" d="M375.101,-796.635C355.079,-786.205 333.445,-774.611 315.358,-764.607"/>
<polygon fill="midnightblue" stroke="midnightblue" points="373.679,-799.841 384.168,-801.336 376.901,-793.626 373.679,-799.841"/>
</g>
<!-- Node4 -->
<g id="node4" class="node"><title>Node4</title>
<g id="a_node4"><a xlink:href="async__logger__impl_8h.html" target="_top" xlink:title="/home/lucamuratore\l/advr&#45;superbuild/external\l/XBotInterface/include/spdlog\l/details/async_logger_impl.h">
<polygon fill="none" stroke="black" points="240,-623.5 240,-675.5 385,-675.5 385,-623.5 240,-623.5"/>
<text text-anchor="start" x="248" y="-663.5" font-family="Helvetica,sans-Serif" font-size="10.00">/home/lucamuratore</text>
<text text-anchor="start" x="248" y="-652.5" font-family="Helvetica,sans-Serif" font-size="10.00">/advr&#45;superbuild/external</text>
<text text-anchor="start" x="248" y="-641.5" font-family="Helvetica,sans-Serif" font-size="10.00">/XBotInterface/include/spdlog</text>
<text text-anchor="middle" x="312.5" y="-630.5" font-family="Helvetica,sans-Serif" font-size="10.00">/details/async_logger_impl.h</text>
</a>
</g>
</g>
<!-- Node3&#45;&gt;Node4 -->
<g id="edge3" class="edge"><title>Node3&#45;&gt;Node4</title>
<path fill="none" stroke="midnightblue" d="M386.469,-706.503C371.489,-696.371 355.615,-685.25 342.392,-675.607"/>
<polygon fill="midnightblue" stroke="midnightblue" points="384.905,-709.669 395.159,-712.336 388.806,-703.857 384.905,-709.669"/>
</g>
<!-- Node3&#45;&gt;Node5 -->
<g id="edge5" class="edge"><title>Node3&#45;&gt;Node5</title>
<path fill="none" stroke="midnightblue" d="M452.542,-703.061C456.546,-693.896 460.794,-684.169 464.534,-675.607"/>
<polygon fill="midnightblue" stroke="midnightblue" points="449.286,-701.771 448.491,-712.336 455.701,-704.573 449.286,-701.771"/>
</g>
<!-- Node4&#45;&gt;Node3 -->
<g id="edge4" class="edge"><title>Node4&#45;&gt;Node3</title>
<path fill="none" stroke="midnightblue" d="M363.443,-681.437C378.42,-691.565 394.297,-702.687 407.531,-712.336"/>
<polygon fill="midnightblue" stroke="midnightblue" points="365.01,-678.274 354.756,-675.607 361.109,-684.086 365.01,-678.274"/>
</g>
<!-- Node6 -->
<g id="node6" class="node"><title>Node6</title>
<g id="a_node6"><a xlink:href="spdlog__impl_8h.html" target="_top" xlink:title="/home/lucamuratore\l/advr&#45;superbuild/external\l/XBotInterface/include/spdlog\l/details/spdlog_impl.h">
<polygon fill="none" stroke="black" points="403,-534.5 403,-586.5 548,-586.5 548,-534.5 403,-534.5"/>
<text text-anchor="start" x="411" y="-574.5" font-family="Helvetica,sans-Serif" font-size="10.00">/home/lucamuratore</text>
<text text-anchor="start" x="411" y="-563.5" font-family="Helvetica,sans-Serif" font-size="10.00">/advr&#45;superbuild/external</text>
<text text-anchor="start" x="411" y="-552.5" font-family="Helvetica,sans-Serif" font-size="10.00">/XBotInterface/include/spdlog</text>
<text text-anchor="middle" x="475.5" y="-541.5" font-family="Helvetica,sans-Serif" font-size="10.00">/details/spdlog_impl.h</text>
</a>
</g>
</g>
<!-- Node5&#45;&gt;Node6 -->
<g id="edge6" class="edge"><title>Node5&#45;&gt;Node6</title>
<path fill="none" stroke="midnightblue" d="M475.5,-613.191C475.5,-604.282 475.5,-594.899 475.5,-586.607"/>
<polygon fill="midnightblue" stroke="midnightblue" points="472,-613.336 475.5,-623.336 479,-613.336 472,-613.336"/>
</g>
<!-- Node6&#45;&gt;Node7 -->
<g id="edge7" class="edge"><title>Node6&#45;&gt;Node7</title>
<path fill="none" stroke="midnightblue" d="M468.858,-524.191C468.621,-515.282 468.775,-505.899 469.318,-497.607"/>
<polygon fill="midnightblue" stroke="midnightblue" points="465.368,-524.503 469.314,-534.336 472.361,-524.189 465.368,-524.503"/>
</g>
<!-- Node7&#45;&gt;Node6 -->
<g id="edge8" class="edge"><title>Node7&#45;&gt;Node6</title>
<path fill="none" stroke="midnightblue" d="M482.141,-507.749C482.379,-516.655 482.227,-526.04 481.686,-534.336"/>
<polygon fill="midnightblue" stroke="midnightblue" points="485.631,-507.439 481.682,-497.607 478.638,-507.755 485.631,-507.439"/>
</g>
<!-- Node8 -->
<g id="node8" class="node"><title>Node8</title>
<g id="a_node8"><a xlink:href="Logger_8hpp.html" target="_top" xlink:title="/home/lucamuratore\l/advr&#45;superbuild/external\l/XBotInterface/include/XBotInterface\l/Logger.hpp">
<polygon fill="none" stroke="black" points="387.5,-356.5 387.5,-408.5 563.5,-408.5 563.5,-356.5 387.5,-356.5"/>
<text text-anchor="start" x="395.5" y="-396.5" font-family="Helvetica,sans-Serif" font-size="10.00">/home/lucamuratore</text>
<text text-anchor="start" x="395.5" y="-385.5" font-family="Helvetica,sans-Serif" font-size="10.00">/advr&#45;superbuild/external</text>
<text text-anchor="start" x="395.5" y="-374.5" font-family="Helvetica,sans-Serif" font-size="10.00">/XBotInterface/include/XBotInterface</text>
<text text-anchor="middle" x="475.5" y="-363.5" font-family="Helvetica,sans-Serif" font-size="10.00">/Logger.hpp</text>
</a>
</g>
</g>
<!-- Node7&#45;&gt;Node8 -->
<g id="edge9" class="edge"><title>Node7&#45;&gt;Node8</title>
<path fill="none" stroke="midnightblue" d="M475.5,-435.191C475.5,-426.282 475.5,-416.899 475.5,-408.607"/>
<polygon fill="midnightblue" stroke="midnightblue" points="472,-435.336 475.5,-445.336 479,-435.336 472,-435.336"/>
</g>
<!-- Node9 -->
<g id="node9" class="node"><title>Node9</title>
<g id="a_node9"><a xlink:href="ConfigHelper_8h.html" target="_top" xlink:title="/home/lucamuratore\l/advr&#45;superbuild/external\l/XBotInterface/include/XBotInterface\l/ConfigHelper.h">
<polygon fill="none" stroke="black" points="213.5,-267.5 213.5,-319.5 389.5,-319.5 389.5,-267.5 213.5,-267.5"/>
<text text-anchor="start" x="221.5" y="-307.5" font-family="Helvetica,sans-Serif" font-size="10.00">/home/lucamuratore</text>
<text text-anchor="start" x="221.5" y="-296.5" font-family="Helvetica,sans-Serif" font-size="10.00">/advr&#45;superbuild/external</text>
<text text-anchor="start" x="221.5" y="-285.5" font-family="Helvetica,sans-Serif" font-size="10.00">/XBotInterface/include/XBotInterface</text>
<text text-anchor="middle" x="301.5" y="-274.5" font-family="Helvetica,sans-Serif" font-size="10.00">/ConfigHelper.h</text>
</a>
</g>
</g>
<!-- Node8&#45;&gt;Node9 -->
<g id="edge10" class="edge"><title>Node8&#45;&gt;Node9</title>
<path fill="none" stroke="midnightblue" d="M416.053,-351.776C395.119,-341.309 371.812,-329.656 351.715,-319.607"/>
<polygon fill="midnightblue" stroke="midnightblue" points="414.662,-354.994 425.172,-356.336 417.793,-348.733 414.662,-354.994"/>
</g>
<!-- Node11 -->
<g id="node11" class="node"><title>Node11</title>
<g id="a_node11"><a xlink:href="StateMachine_8h.html" target="_top" xlink:title="/home/lucamuratore\l/advr&#45;superbuild/external\l/XBotInterface/include/XBotInterface\l/StateMachine.h">
<polygon fill="none" stroke="black" points="329.5,-0.5 329.5,-52.5 505.5,-52.5 505.5,-0.5 329.5,-0.5"/>
<text text-anchor="start" x="337.5" y="-40.5" font-family="Helvetica,sans-Serif" font-size="10.00">/home/lucamuratore</text>
<text text-anchor="start" x="337.5" y="-29.5" font-family="Helvetica,sans-Serif" font-size="10.00">/advr&#45;superbuild/external</text>
<text text-anchor="start" x="337.5" y="-18.5" font-family="Helvetica,sans-Serif" font-size="10.00">/XBotInterface/include/XBotInterface</text>
<text text-anchor="middle" x="417.5" y="-7.5" font-family="Helvetica,sans-Serif" font-size="10.00">/StateMachine.h</text>
</a>
</g>
</g>
<!-- Node8&#45;&gt;Node11 -->
<g id="edge12" class="edge"><title>Node8&#45;&gt;Node11</title>
<path fill="none" stroke="midnightblue" d="M450.554,-347.628C445.363,-339.01 440.549,-329.489 437.5,-320 406.984,-225.018 411.472,-104.019 415.252,-52.5184"/>
<polygon fill="midnightblue" stroke="midnightblue" points="447.717,-349.69 456.041,-356.244 453.621,-345.93 447.717,-349.69"/>
</g>
<!-- Node12 -->
<g id="node12" class="node"><title>Node12</title>
<g id="a_node12"><a xlink:href="XBotInterface_8h.html" target="_top" xlink:title="/home/lucamuratore\l/advr&#45;superbuild/external\l/XBotInterface/include/XBotInterface\l/XBotInterface.h">
<polygon fill="none" stroke="black" points="446.5,-267.5 446.5,-319.5 622.5,-319.5 622.5,-267.5 446.5,-267.5"/>
<text text-anchor="start" x="454.5" y="-307.5" font-family="Helvetica,sans-Serif" font-size="10.00">/home/lucamuratore</text>
<text text-anchor="start" x="454.5" y="-296.5" font-family="Helvetica,sans-Serif" font-size="10.00">/advr&#45;superbuild/external</text>
<text text-anchor="start" x="454.5" y="-285.5" font-family="Helvetica,sans-Serif" font-size="10.00">/XBotInterface/include/XBotInterface</text>
<text text-anchor="middle" x="534.5" y="-274.5" font-family="Helvetica,sans-Serif" font-size="10.00">/XBotInterface.h</text>
</a>
</g>
</g>
<!-- Node8&#45;&gt;Node12 -->
<g id="edge13" class="edge"><title>Node8&#45;&gt;Node12</title>
<path fill="none" stroke="midnightblue" d="M498.268,-347.927C504.653,-338.511 511.484,-328.439 517.473,-319.607"/>
<polygon fill="midnightblue" stroke="midnightblue" points="495.281,-346.095 492.565,-356.336 501.075,-350.024 495.281,-346.095"/>
</g>
<!-- Node20 -->
<g id="node20" class="node"><title>Node20</title>
<g id="a_node20"><a xlink:href="Logger_8cpp.html" target="_top" xlink:title="/home/lucamuratore\l/advr&#45;superbuild/external\l/XBotInterface/src/Logger.cpp">
<polygon fill="none" stroke="black" points="641,-273 641,-314 788,-314 788,-273 641,-273"/>
<text text-anchor="start" x="649" y="-302" font-family="Helvetica,sans-Serif" font-size="10.00">/home/lucamuratore</text>
<text text-anchor="start" x="649" y="-291" font-family="Helvetica,sans-Serif" font-size="10.00">/advr&#45;superbuild/external</text>
<text text-anchor="middle" x="714.5" y="-280" font-family="Helvetica,sans-Serif" font-size="10.00">/XBotInterface/src/Logger.cpp</text>
</a>
</g>
</g>
<!-- Node8&#45;&gt;Node20 -->
<g id="edge23" class="edge"><title>Node8&#45;&gt;Node20</title>
<path fill="none" stroke="midnightblue" d="M554,-352.925C588.905,-340.219 629.12,-325.58 660.563,-314.134"/>
<polygon fill="midnightblue" stroke="midnightblue" points="552.508,-349.743 544.308,-356.453 554.902,-356.321 552.508,-349.743"/>
</g>
<!-- Node10 -->
<g id="node10" class="node"><title>Node10</title>
<g id="a_node10"><a xlink:href="ConfigHelper_8cpp.html" target="_top" xlink:title="/home/lucamuratore\l/advr&#45;superbuild/external\l/XBotInterface/src/ConfigHelper.cpp">
<polygon fill="none" stroke="black" points="214,-184 214,-225 389,-225 389,-184 214,-184"/>
<text text-anchor="start" x="222" y="-213" font-family="Helvetica,sans-Serif" font-size="10.00">/home/lucamuratore</text>
<text text-anchor="start" x="222" y="-202" font-family="Helvetica,sans-Serif" font-size="10.00">/advr&#45;superbuild/external</text>
<text text-anchor="middle" x="301.5" y="-191" font-family="Helvetica,sans-Serif" font-size="10.00">/XBotInterface/src/ConfigHelper.cpp</text>
</a>
</g>
</g>
<!-- Node9&#45;&gt;Node10 -->
<g id="edge11" class="edge"><title>Node9&#45;&gt;Node10</title>
<path fill="none" stroke="midnightblue" d="M301.5,-257.155C301.5,-246.21 301.5,-234.549 301.5,-225.082"/>
<polygon fill="midnightblue" stroke="midnightblue" points="298,-257.336 301.5,-267.336 305,-257.336 298,-257.336"/>
</g>
<!-- Node13 -->
<g id="node13" class="node"><title>Node13</title>
<g id="a_node13"><a xlink:href="ModelInterface_8h.html" target="_top" xlink:title="/home/lucamuratore\l/advr&#45;superbuild/external\l/XBotInterface/include/XBotInterface\l/ModelInterface.h">
<polygon fill="none" stroke="black" points="687.5,-178.5 687.5,-230.5 863.5,-230.5 863.5,-178.5 687.5,-178.5"/>
<text text-anchor="start" x="695.5" y="-218.5" font-family="Helvetica,sans-Serif" font-size="10.00">/home/lucamuratore</text>
<text text-anchor="start" x="695.5" y="-207.5" font-family="Helvetica,sans-Serif" font-size="10.00">/advr&#45;superbuild/external</text>
<text text-anchor="start" x="695.5" y="-196.5" font-family="Helvetica,sans-Serif" font-size="10.00">/XBotInterface/include/XBotInterface</text>
<text text-anchor="middle" x="775.5" y="-185.5" font-family="Helvetica,sans-Serif" font-size="10.00">/ModelInterface.h</text>
</a>
</g>
</g>
<!-- Node12&#45;&gt;Node13 -->
<g id="edge14" class="edge"><title>Node12&#45;&gt;Node13</title>
<path fill="none" stroke="midnightblue" d="M613.454,-263.998C643.384,-253.193 677.212,-240.982 706.189,-230.521"/>
<polygon fill="midnightblue" stroke="midnightblue" points="612.101,-260.765 603.884,-267.453 614.478,-267.349 612.101,-260.765"/>
</g>
<!-- Node14 -->
<g id="node14" class="node"><title>Node14</title>
<g id="a_node14"><a xlink:href="RobotInterface_8h.html" target="_top" xlink:title="/home/lucamuratore\l/advr&#45;superbuild/external\l/XBotInterface/include/XBotInterface\l/RobotInterface.h">
<polygon fill="none" stroke="black" points="497.5,-89.5 497.5,-141.5 673.5,-141.5 673.5,-89.5 497.5,-89.5"/>
<text text-anchor="start" x="505.5" y="-129.5" font-family="Helvetica,sans-Serif" font-size="10.00">/home/lucamuratore</text>
<text text-anchor="start" x="505.5" y="-118.5" font-family="Helvetica,sans-Serif" font-size="10.00">/advr&#45;superbuild/external</text>
<text text-anchor="start" x="505.5" y="-107.5" font-family="Helvetica,sans-Serif" font-size="10.00">/XBotInterface/include/XBotInterface</text>
<text text-anchor="middle" x="585.5" y="-96.5" font-family="Helvetica,sans-Serif" font-size="10.00">/RobotInterface.h</text>
</a>
</g>
</g>
<!-- Node12&#45;&gt;Node14 -->
<g id="edge21" class="edge"><title>Node12&#45;&gt;Node14</title>
<path fill="none" stroke="midnightblue" d="M603.745,-261.769C615.282,-253.48 625.694,-243.306 632.5,-231 643.9,-210.387 640.05,-200.313 632.5,-178 628.021,-164.762 619.424,-152.13 610.794,-141.796"/>
<polygon fill="midnightblue" stroke="midnightblue" points="601.562,-259.017 595.18,-267.475 605.443,-264.843 601.562,-259.017"/>
</g>
<!-- Node19 -->
<g id="node19" class="node"><title>Node19</title>
<g id="a_node19"><a xlink:href="XBotInterface_8cpp.html" target="_top" xlink:title="/home/lucamuratore\l/advr&#45;superbuild/external\l/XBotInterface/src/XBotInterface.cpp">
<polygon fill="none" stroke="black" points="445.5,-184 445.5,-225 623.5,-225 623.5,-184 445.5,-184"/>
<text text-anchor="start" x="453.5" y="-213" font-family="Helvetica,sans-Serif" font-size="10.00">/home/lucamuratore</text>
<text text-anchor="start" x="453.5" y="-202" font-family="Helvetica,sans-Serif" font-size="10.00">/advr&#45;superbuild/external</text>
<text text-anchor="middle" x="534.5" y="-191" font-family="Helvetica,sans-Serif" font-size="10.00">/XBotInterface/src/XBotInterface.cpp</text>
</a>
</g>
</g>
<!-- Node12&#45;&gt;Node19 -->
<g id="edge22" class="edge"><title>Node12&#45;&gt;Node19</title>
<path fill="none" stroke="midnightblue" d="M534.5,-257.155C534.5,-246.21 534.5,-234.549 534.5,-225.082"/>
<polygon fill="midnightblue" stroke="midnightblue" points="531,-257.336 534.5,-267.336 538,-257.336 531,-257.336"/>
</g>
<!-- Node13&#45;&gt;Node14 -->
<g id="edge15" class="edge"><title>Node13&#45;&gt;Node14</title>
<path fill="none" stroke="midnightblue" d="M711.41,-174.153C688.275,-163.56 662.395,-151.71 640.144,-141.521"/>
<polygon fill="midnightblue" stroke="midnightblue" points="710.25,-177.472 720.799,-178.453 713.164,-171.107 710.25,-177.472"/>
</g>
<!-- Node17 -->
<g id="node17" class="node"><title>Node17</title>
<g id="a_node17"><a xlink:href="Utils_8h.html" target="_top" xlink:title="/home/lucamuratore\l/advr&#45;superbuild/external\l/XBotInterface/include/XBotInterface\l/Utils.h">
<polygon fill="none" stroke="black" points="891.5,-89.5 891.5,-141.5 1067.5,-141.5 1067.5,-89.5 891.5,-89.5"/>
<text text-anchor="start" x="899.5" y="-129.5" font-family="Helvetica,sans-Serif" font-size="10.00">/home/lucamuratore</text>
<text text-anchor="start" x="899.5" y="-118.5" font-family="Helvetica,sans-Serif" font-size="10.00">/advr&#45;superbuild/external</text>
<text text-anchor="start" x="899.5" y="-107.5" font-family="Helvetica,sans-Serif" font-size="10.00">/XBotInterface/include/XBotInterface</text>
<text text-anchor="middle" x="979.5" y="-96.5" font-family="Helvetica,sans-Serif" font-size="10.00">/Utils.h</text>
</a>
</g>
</g>
<!-- Node13&#45;&gt;Node17 -->
<g id="edge19" class="edge"><title>Node13&#45;&gt;Node17</title>
<path fill="none" stroke="midnightblue" d="M843.651,-174.436C868.658,-163.771 896.727,-151.8 920.83,-141.521"/>
<polygon fill="midnightblue" stroke="midnightblue" points="842.057,-171.31 834.232,-178.453 844.803,-177.749 842.057,-171.31"/>
</g>
<!-- Node18 -->
<g id="node18" class="node"><title>Node18</title>
<g id="a_node18"><a xlink:href="ModelInterface_8cpp.html" target="_top" xlink:title="/home/lucamuratore\l/advr&#45;superbuild/external\l/XBotInterface/src/ModelInterface.cpp">
<polygon fill="none" stroke="black" points="691.5,-95 691.5,-136 873.5,-136 873.5,-95 691.5,-95"/>
<text text-anchor="start" x="699.5" y="-124" font-family="Helvetica,sans-Serif" font-size="10.00">/home/lucamuratore</text>
<text text-anchor="start" x="699.5" y="-113" font-family="Helvetica,sans-Serif" font-size="10.00">/advr&#45;superbuild/external</text>
<text text-anchor="middle" x="782.5" y="-102" font-family="Helvetica,sans-Serif" font-size="10.00">/XBotInterface/src/ModelInterface.cpp</text>
</a>
</g>
</g>
<!-- Node13&#45;&gt;Node18 -->
<g id="edge20" class="edge"><title>Node13&#45;&gt;Node18</title>
<path fill="none" stroke="midnightblue" d="M778.344,-168.155C779.225,-157.21 780.163,-145.549 780.924,-136.082"/>
<polygon fill="midnightblue" stroke="midnightblue" points="774.838,-168.087 777.525,-178.336 781.816,-168.649 774.838,-168.087"/>
</g>
<!-- Node14&#45;&gt;Node11 -->
<g id="edge16" class="edge"><title>Node14&#45;&gt;Node11</title>
<path fill="none" stroke="midnightblue" d="M527.83,-84.6354C507.689,-74.2049 485.3,-62.6109 465.983,-52.6075"/>
<polygon fill="midnightblue" stroke="midnightblue" points="526.418,-87.8454 536.907,-89.336 529.637,-81.6294 526.418,-87.8454"/>
</g>
<!-- Node15 -->
<g id="node15" class="node"><title>Node15</title>
<g id="a_node15"><a xlink:href="main__test_8cpp.html" target="_top" xlink:title="/home/lucamuratore\l/advr&#45;superbuild/external\l/XBotInterface/src/main\l_test.cpp">
<polygon fill="none" stroke="black" points="524,-0.5 524,-52.5 647,-52.5 647,-0.5 524,-0.5"/>
<text text-anchor="start" x="532" y="-40.5" font-family="Helvetica,sans-Serif" font-size="10.00">/home/lucamuratore</text>
<text text-anchor="start" x="532" y="-29.5" font-family="Helvetica,sans-Serif" font-size="10.00">/advr&#45;superbuild/external</text>
<text text-anchor="start" x="532" y="-18.5" font-family="Helvetica,sans-Serif" font-size="10.00">/XBotInterface/src/main</text>
<text text-anchor="middle" x="585.5" y="-7.5" font-family="Helvetica,sans-Serif" font-size="10.00">_test.cpp</text>
</a>
</g>
</g>
<!-- Node14&#45;&gt;Node15 -->
<g id="edge17" class="edge"><title>Node14&#45;&gt;Node15</title>
<path fill="none" stroke="midnightblue" d="M585.5,-79.1908C585.5,-70.2824 585.5,-60.8986 585.5,-52.6075"/>
<polygon fill="midnightblue" stroke="midnightblue" points="582,-79.336 585.5,-89.336 589,-79.336 582,-79.336"/>
</g>
<!-- Node16 -->
<g id="node16" class="node"><title>Node16</title>
<g id="a_node16"><a xlink:href="RobotInterface_8cpp.html" target="_top" xlink:title="/home/lucamuratore\l/advr&#45;superbuild/external\l/XBotInterface/src/RobotInterface.cpp">
<polygon fill="none" stroke="black" points="665.5,-6 665.5,-47 847.5,-47 847.5,-6 665.5,-6"/>
<text text-anchor="start" x="673.5" y="-35" font-family="Helvetica,sans-Serif" font-size="10.00">/home/lucamuratore</text>
<text text-anchor="start" x="673.5" y="-24" font-family="Helvetica,sans-Serif" font-size="10.00">/advr&#45;superbuild/external</text>
<text text-anchor="middle" x="756.5" y="-13" font-family="Helvetica,sans-Serif" font-size="10.00">/XBotInterface/src/RobotInterface.cpp</text>
</a>
</g>
</g>
<!-- Node14&#45;&gt;Node16 -->
<g id="edge18" class="edge"><title>Node14&#45;&gt;Node16</title>
<path fill="none" stroke="midnightblue" d="M644.142,-84.6648C668.563,-72.2399 696.238,-58.1596 718.011,-47.0821"/>
<polygon fill="midnightblue" stroke="midnightblue" points="642.286,-81.6819 634.96,-89.336 645.46,-87.9208 642.286,-81.6819"/>
</g>
<!-- Node21&#45;&gt;Node2 -->
<g id="edge25" class="edge"><title>Node21&#45;&gt;Node2</title>
<path fill="none" stroke="midnightblue" d="M336.786,-769.306C356.802,-779.732 378.44,-791.327 396.54,-801.336"/>
<polygon fill="midnightblue" stroke="midnightblue" points="338.212,-766.102 327.723,-764.607 334.99,-772.317 338.212,-766.102"/>
</g>
<!-- Node22&#45;&gt;Node6 -->
<g id="edge29" class="edge"><title>Node22&#45;&gt;Node6</title>
<path fill="none" stroke="midnightblue" d="M644.891,-704.797C621.032,-681.331 587.543,-649.339 556.5,-623 541.825,-610.549 524.962,-597.551 510.435,-586.73"/>
<polygon fill="midnightblue" stroke="midnightblue" points="642.709,-707.561 652.283,-712.097 647.627,-702.58 642.709,-707.561"/>
</g>
<!-- Node24&#45;&gt;Node6 -->
<g id="edge32" class="edge"><title>Node24&#45;&gt;Node6</title>
<path fill="none" stroke="midnightblue" d="M155.167,-624.071C156.621,-623.706 158.066,-623.349 159.5,-623 242.317,-602.85 338.602,-584.883 402.92,-573.648"/>
<polygon fill="midnightblue" stroke="midnightblue" points="154.274,-620.687 145.469,-626.578 156.026,-627.464 154.274,-620.687"/>
</g>
<!-- Node27&#45;&gt;Node6 -->
<g id="edge37" class="edge"><title>Node27&#45;&gt;Node6</title>
<path fill="none" stroke="midnightblue" d="M218.069,-795.342C207.753,-786.916 198.398,-776.796 192.5,-765 163.283,-706.565 180.81,-665.417 230.5,-623 278.364,-582.142 349.55,-567.766 402.872,-563.02"/>
<polygon fill="midnightblue" stroke="midnightblue" points="216.026,-798.186 226.104,-801.455 220.265,-792.615 216.026,-798.186"/>
</g>
<!-- Node27&#45;&gt;Node21 -->
<g id="edge36" class="edge"><title>Node27&#45;&gt;Node21</title>
<path fill="none" stroke="midnightblue" d="M274.5,-791.191C274.5,-782.282 274.5,-772.899 274.5,-764.607"/>
<polygon fill="midnightblue" stroke="midnightblue" points="271,-791.336 274.5,-801.336 278,-791.336 271,-791.336"/>
</g>
</g>
</svg>
