<?xml version="1.0" encoding="UTF-8" standalone="no"?>
<!DOCTYPE svg PUBLIC "-//W3C//DTD SVG 1.1//EN"
 "http://www.w3.org/Graphics/SVG/1.1/DTD/svg11.dtd">
<!-- Generated by graphviz version 2.38.0 (20140413.2041)
 -->
<!-- Title: XBot::ModelInterface Pages: 1 -->
<svg width="1201pt" height="884pt"
 viewBox="0.00 0.00 1200.50 884.00" xmlns="http://www.w3.org/2000/svg" xmlns:xlink="http://www.w3.org/1999/xlink">
<g id="graph0" class="graph" transform="scale(1 1) rotate(0) translate(4 880)">
<title>XBot::ModelInterface</title>
<!-- Node1 -->
<g id="node1" class="node"><title>Node1</title>
<polygon fill="#bfbfbf" stroke="black" points="573,-0.5 573,-222.5 698,-222.5 698,-0.5 573,-0.5"/>
<text text-anchor="middle" x="635.5" y="-210.5" font-family="Helvetica,sans-Serif" font-size="10.00">XBot::ModelInterface</text>
<polyline fill="none" stroke="black" points="573,-203.5 698,-203.5 "/>
<text text-anchor="middle" x="635.5" y="-191.5" font-family="Helvetica,sans-Serif" font-size="10.00"> </text>
<polyline fill="none" stroke="black" points="573,-184.5 698,-184.5 "/>
<text text-anchor="start" x="581" y="-172.5" font-family="Helvetica,sans-Serif" font-size="10.00">+ ModelInterface()</text>
<text text-anchor="start" x="581" y="-161.5" font-family="Helvetica,sans-Serif" font-size="10.00">+ operator=()</text>
<text text-anchor="start" x="581" y="-150.5" font-family="Helvetica,sans-Serif" font-size="10.00">+ ModelInterface()</text>
<text text-anchor="start" x="581" y="-139.5" font-family="Helvetica,sans-Serif" font-size="10.00">+ chain()</text>
<text text-anchor="start" x="581" y="-128.5" font-family="Helvetica,sans-Serif" font-size="10.00">+ operator()()</text>
<text text-anchor="start" x="581" y="-117.5" font-family="Helvetica,sans-Serif" font-size="10.00">+ arm()</text>
<text text-anchor="start" x="581" y="-106.5" font-family="Helvetica,sans-Serif" font-size="10.00">+ leg()</text>
<text text-anchor="start" x="581" y="-95.5" font-family="Helvetica,sans-Serif" font-size="10.00">+ syncFrom()</text>
<text text-anchor="start" x="581" y="-84.5" font-family="Helvetica,sans-Serif" font-size="10.00">+ syncFrom_no_update()</text>
<text text-anchor="start" x="581" y="-73.5" font-family="Helvetica,sans-Serif" font-size="10.00">+ update()</text>
<text text-anchor="start" x="581" y="-62.5" font-family="Helvetica,sans-Serif" font-size="10.00">and 65 more...</text>
<text text-anchor="start" x="581" y="-51.5" font-family="Helvetica,sans-Serif" font-size="10.00">+ getModel()</text>
<text text-anchor="start" x="581" y="-40.5" font-family="Helvetica,sans-Serif" font-size="10.00"># init_internal()</text>
<text text-anchor="start" x="581" y="-29.5" font-family="Helvetica,sans-Serif" font-size="10.00"># init_model()</text>
<text text-anchor="start" x="581" y="-18.5" font-family="Helvetica,sans-Serif" font-size="10.00"># rotationEigenToKDL()</text>
<text text-anchor="start" x="581" y="-7.5" font-family="Helvetica,sans-Serif" font-size="10.00"># rotationKDLToEigen()</text>
</g>
<!-- Node2 -->
<g id="node2" class="node"><title>Node2</title>
<g id="a_node2"><a xlink:href="classXBot_1_1XBotInterface.html" target="_top" xlink:title="{XBot::XBotInterface\n|# _XBotModel\l|+ XBotInterface()\l+ XBotInterface()\l+ operator=()\l+ ~XBotInterface()\l+ init()\l+ getPathToConfig()\l+ getUrdf()\l+ getUrdfPath()\l+ getSrdf()\l+ getSrdfPath()\land 122 more...\l# getJointByNameInternal()\l# getJointByIdInternal()\l# getJointByDofIndexInternal()\l# getForceTorqueInternal()\l# getImuInternal()\l# init_internal()\l# getModelOrderedChainName()\l# computeAbsolutePath()\l}">
<polygon fill="none" stroke="black" points="557,-260.5 557,-515.5 714,-515.5 714,-260.5 557,-260.5"/>
<text text-anchor="middle" x="635.5" y="-503.5" font-family="Helvetica,sans-Serif" font-size="10.00">XBot::XBotInterface</text>
<polyline fill="none" stroke="black" points="557,-496.5 714,-496.5 "/>
<text text-anchor="start" x="565" y="-484.5" font-family="Helvetica,sans-Serif" font-size="10.00"># _XBotModel</text>
<polyline fill="none" stroke="black" points="557,-477.5 714,-477.5 "/>
<text text-anchor="start" x="565" y="-465.5" font-family="Helvetica,sans-Serif" font-size="10.00">+ XBotInterface()</text>
<text text-anchor="start" x="565" y="-454.5" font-family="Helvetica,sans-Serif" font-size="10.00">+ XBotInterface()</text>
<text text-anchor="start" x="565" y="-443.5" font-family="Helvetica,sans-Serif" font-size="10.00">+ operator=()</text>
<text text-anchor="start" x="565" y="-432.5" font-family="Helvetica,sans-Serif" font-size="10.00">+ ~XBotInterface()</text>
<text text-anchor="start" x="565" y="-421.5" font-family="Helvetica,sans-Serif" font-size="10.00">+ init()</text>
<text text-anchor="start" x="565" y="-410.5" font-family="Helvetica,sans-Serif" font-size="10.00">+ getPathToConfig()</text>
<text text-anchor="start" x="565" y="-399.5" font-family="Helvetica,sans-Serif" font-size="10.00">+ getUrdf()</text>
<text text-anchor="start" x="565" y="-388.5" font-family="Helvetica,sans-Serif" font-size="10.00">+ getUrdfPath()</text>
<text text-anchor="start" x="565" y="-377.5" font-family="Helvetica,sans-Serif" font-size="10.00">+ getSrdf()</text>
<text text-anchor="start" x="565" y="-366.5" font-family="Helvetica,sans-Serif" font-size="10.00">+ getSrdfPath()</text>
<text text-anchor="start" x="565" y="-355.5" font-family="Helvetica,sans-Serif" font-size="10.00">and 122 more...</text>
<text text-anchor="start" x="565" y="-344.5" font-family="Helvetica,sans-Serif" font-size="10.00"># getJointByNameInternal()</text>
<text text-anchor="start" x="565" y="-333.5" font-family="Helvetica,sans-Serif" font-size="10.00"># getJointByIdInternal()</text>
<text text-anchor="start" x="565" y="-322.5" font-family="Helvetica,sans-Serif" font-size="10.00"># getJointByDofIndexInternal()</text>
<text text-anchor="start" x="565" y="-311.5" font-family="Helvetica,sans-Serif" font-size="10.00"># getForceTorqueInternal()</text>
<text text-anchor="start" x="565" y="-300.5" font-family="Helvetica,sans-Serif" font-size="10.00"># getImuInternal()</text>
<text text-anchor="start" x="565" y="-289.5" font-family="Helvetica,sans-Serif" font-size="10.00"># init_internal()</text>
<text text-anchor="start" x="565" y="-278.5" font-family="Helvetica,sans-Serif" font-size="10.00"># getModelOrderedChainName()</text>
<text text-anchor="start" x="565" y="-267.5" font-family="Helvetica,sans-Serif" font-size="10.00"># computeAbsolutePath()</text>
</a>
</g>
</g>
<!-- Node2&#45;&gt;Node1 -->
<g id="edge1" class="edge"><title>Node2&#45;&gt;Node1</title>
<path fill="none" stroke="midnightblue" d="M635.5,-249.922C635.5,-240.815 635.5,-231.707 635.5,-222.758"/>
<polygon fill="none" stroke="midnightblue" points="632,-250.196 635.5,-260.196 639,-250.196 632,-250.196"/>
</g>
<!-- Node3 -->
<g id="node3" class="node"><title>Node3</title>
<polygon fill="none" stroke="#bfbfbf" points="0,-580 0,-659 133,-659 133,-580 0,-580"/>
<text text-anchor="start" x="8" y="-647" font-family="Helvetica,sans-Serif" font-size="10.00">std::map&lt; std::string,</text>
<text text-anchor="start" x="8" y="-636" font-family="Helvetica,sans-Serif" font-size="10.00"> XBot::ForceTorqueSensor</text>
<text text-anchor="middle" x="66.5" y="-625" font-family="Helvetica,sans-Serif" font-size="10.00">::Ptr &gt;</text>
<polyline fill="none" stroke="#bfbfbf" points="0,-618 133,-618 "/>
<text text-anchor="start" x="8" y="-606" font-family="Helvetica,sans-Serif" font-size="10.00">+ elements</text>
<polyline fill="none" stroke="#bfbfbf" points="0,-599 133,-599 "/>
<text text-anchor="middle" x="66.5" y="-587" font-family="Helvetica,sans-Serif" font-size="10.00"> </text>
</g>
<!-- Node3&#45;&gt;Node2 -->
<g id="edge2" class="edge"><title>Node3&#45;&gt;Node2</title>
<path fill="none" stroke="#404040" d="M131.334,-579.922C135.09,-577.88 138.831,-575.892 142.5,-574 277.129,-504.586 444.005,-447.528 544.99,-415.91"/>
<polygon fill="none" stroke="#404040" points="545.212,-415.841 549.752,-410.239 556.67,-412.275 552.129,-417.877 545.212,-415.841"/>
<text text-anchor="middle" x="242.5" y="-542.5" font-family="Helvetica,sans-Serif" font-size="10.00"> #_ft_map</text>
</g>
<!-- Node4 -->
<g id="node4" class="node"><title>Node4</title>
<g id="a_node4"><a xlink:title="STL class. ">
<polygon fill="none" stroke="#bfbfbf" points="310.5,-712.5 310.5,-769.5 370.5,-769.5 370.5,-712.5 310.5,-712.5"/>
<text text-anchor="middle" x="340.5" y="-757.5" font-family="Helvetica,sans-Serif" font-size="10.00">std::string</text>
<polyline fill="none" stroke="#bfbfbf" points="310.5,-750.5 370.5,-750.5 "/>
<text text-anchor="middle" x="340.5" y="-738.5" font-family="Helvetica,sans-Serif" font-size="10.00"> </text>
<polyline fill="none" stroke="#bfbfbf" points="310.5,-731.5 370.5,-731.5 "/>
<text text-anchor="middle" x="340.5" y="-719.5" font-family="Helvetica,sans-Serif" font-size="10.00"> </text>
</a>
</g>
</g>
<!-- Node4&#45;&gt;Node3 -->
<g id="edge3" class="edge"><title>Node4&#45;&gt;Node3</title>
<path fill="none" stroke="#404040" d="M310.332,-730.335C270.939,-717.319 200.206,-692.584 142.5,-665 142.259,-664.885 142.017,-664.769 141.775,-664.652"/>
<polygon fill="none" stroke="#404040" points="141.502,-664.515 134.344,-665.394 130.78,-659.126 137.937,-658.246 141.502,-664.515"/>
<text text-anchor="middle" x="223" y="-686" font-family="Helvetica,sans-Serif" font-size="10.00"> +keys</text>
</g>
<!-- Node6 -->
<g id="node6" class="node"><title>Node6</title>
<polygon fill="none" stroke="#bfbfbf" points="151.5,-585.5 151.5,-653.5 261.5,-653.5 261.5,-585.5 151.5,-585.5"/>
<text text-anchor="start" x="159.5" y="-641.5" font-family="Helvetica,sans-Serif" font-size="10.00">std::map&lt; std::string,</text>
<text text-anchor="middle" x="206.5" y="-630.5" font-family="Helvetica,sans-Serif" font-size="10.00"> int &gt;</text>
<polyline fill="none" stroke="#bfbfbf" points="151.5,-623.5 261.5,-623.5 "/>
<text text-anchor="start" x="159.5" y="-611.5" font-family="Helvetica,sans-Serif" font-size="10.00">+ elements</text>
<polyline fill="none" stroke="#bfbfbf" points="151.5,-604.5 261.5,-604.5 "/>
<text text-anchor="middle" x="206.5" y="-592.5" font-family="Helvetica,sans-Serif" font-size="10.00"> </text>
</g>
<!-- Node4&#45;&gt;Node6 -->
<g id="edge6" class="edge"><title>Node4&#45;&gt;Node6</title>
<path fill="none" stroke="#404040" d="M310.428,-713.182C293.452,-698.043 271.876,-678.802 252.788,-661.779"/>
<polygon fill="none" stroke="#404040" points="252.605,-661.616 245.464,-660.608 243.649,-653.629 250.789,-654.637 252.605,-661.616"/>
<text text-anchor="middle" x="302" y="-686" font-family="Helvetica,sans-Serif" font-size="10.00"> +keys</text>
</g>
<!-- Node7 -->
<g id="node7" class="node"><title>Node7</title>
<polygon fill="none" stroke="#bfbfbf" points="279.5,-585.5 279.5,-653.5 401.5,-653.5 401.5,-585.5 279.5,-585.5"/>
<text text-anchor="start" x="287.5" y="-641.5" font-family="Helvetica,sans-Serif" font-size="10.00">std::map&lt; std::string,</text>
<text text-anchor="middle" x="340.5" y="-630.5" font-family="Helvetica,sans-Serif" font-size="10.00"> XBot::ImuSensor::Ptr &gt;</text>
<polyline fill="none" stroke="#bfbfbf" points="279.5,-623.5 401.5,-623.5 "/>
<text text-anchor="start" x="287.5" y="-611.5" font-family="Helvetica,sans-Serif" font-size="10.00">+ elements</text>
<polyline fill="none" stroke="#bfbfbf" points="279.5,-604.5 401.5,-604.5 "/>
<text text-anchor="middle" x="340.5" y="-592.5" font-family="Helvetica,sans-Serif" font-size="10.00"> </text>
</g>
<!-- Node4&#45;&gt;Node7 -->
<g id="edge8" class="edge"><title>Node4&#45;&gt;Node7</title>
<path fill="none" stroke="#404040" d="M340.5,-712.284C340.5,-698.465 340.5,-681.401 340.5,-665.749"/>
<polygon fill="none" stroke="#404040" points="340.5,-665.589 336.5,-659.589 340.5,-653.589 344.5,-659.589 340.5,-665.589"/>
<text text-anchor="middle" x="356" y="-686" font-family="Helvetica,sans-Serif" font-size="10.00"> +keys</text>
</g>
<!-- Node12 -->
<g id="node12" class="node"><title>Node12</title>
<polygon fill="none" stroke="#bfbfbf" points="420,-591 420,-648 545,-648 545,-591 420,-591"/>
<text text-anchor="middle" x="482.5" y="-636" font-family="Helvetica,sans-Serif" font-size="10.00">std::vector&lt; std::string &gt;</text>
<polyline fill="none" stroke="#bfbfbf" points="420,-629 545,-629 "/>
<text text-anchor="middle" x="482.5" y="-617" font-family="Helvetica,sans-Serif" font-size="10.00"> </text>
<polyline fill="none" stroke="#bfbfbf" points="420,-610 545,-610 "/>
<text text-anchor="middle" x="482.5" y="-598" font-family="Helvetica,sans-Serif" font-size="10.00"> </text>
</g>
<!-- Node4&#45;&gt;Node12 -->
<g id="edge14" class="edge"><title>Node4&#45;&gt;Node12</title>
<path fill="none" stroke="#404040" d="M370.615,-714.657C390.917,-697.572 417.984,-674.793 440.411,-655.92"/>
<polygon fill="none" stroke="#404040" points="440.524,-655.825 442.539,-648.901 449.705,-648.099 447.69,-655.022 440.524,-655.825"/>
<text text-anchor="middle" x="432" y="-686" font-family="Helvetica,sans-Serif" font-size="10.00"> +elements</text>
</g>
<!-- Node13 -->
<g id="node13" class="node"><title>Node13</title>
<polygon fill="none" stroke="#bfbfbf" points="563.5,-580 563.5,-659 707.5,-659 707.5,-580 563.5,-580"/>
<text text-anchor="start" x="571.5" y="-647" font-family="Helvetica,sans-Serif" font-size="10.00">std::map&lt; std::string,</text>
<text text-anchor="start" x="571.5" y="-636" font-family="Helvetica,sans-Serif" font-size="10.00"> XBot::XBot::KinematicChain</text>
<text text-anchor="middle" x="635.5" y="-625" font-family="Helvetica,sans-Serif" font-size="10.00">::Ptr &gt;</text>
<polyline fill="none" stroke="#bfbfbf" points="563.5,-618 707.5,-618 "/>
<text text-anchor="start" x="571.5" y="-606" font-family="Helvetica,sans-Serif" font-size="10.00">+ elements</text>
<polyline fill="none" stroke="#bfbfbf" points="563.5,-599 707.5,-599 "/>
<text text-anchor="middle" x="635.5" y="-587" font-family="Helvetica,sans-Serif" font-size="10.00"> </text>
</g>
<!-- Node4&#45;&gt;Node13 -->
<g id="edge16" class="edge"><title>Node4&#45;&gt;Node13</title>
<path fill="none" stroke="#404040" d="M370.714,-731.027C412.534,-718.234 490.079,-693.161 553.5,-665 554.018,-664.77 554.537,-664.538 555.058,-664.304"/>
<polygon fill="none" stroke="#404040" points="555.223,-664.226 558.962,-658.06 566.092,-659.14 562.353,-665.306 555.223,-664.226"/>
<text text-anchor="middle" x="524" y="-686" font-family="Helvetica,sans-Serif" font-size="10.00"> +keys</text>
</g>
<!-- Node5 -->
<g id="node5" class="node"><title>Node5</title>
<g id="a_node5"><a xlink:title="STL class. ">
<polygon fill="none" stroke="#bfbfbf" points="293,-807.5 293,-875.5 388,-875.5 388,-807.5 293,-807.5"/>
<text text-anchor="start" x="301" y="-863.5" font-family="Helvetica,sans-Serif" font-size="10.00">std::basic_string&lt;</text>
<text text-anchor="middle" x="340.5" y="-852.5" font-family="Helvetica,sans-Serif" font-size="10.00"> char &gt;</text>
<polyline fill="none" stroke="#bfbfbf" points="293,-845.5 388,-845.5 "/>
<text text-anchor="middle" x="340.5" y="-833.5" font-family="Helvetica,sans-Serif" font-size="10.00"> </text>
<polyline fill="none" stroke="#bfbfbf" points="293,-826.5 388,-826.5 "/>
<text text-anchor="middle" x="340.5" y="-814.5" font-family="Helvetica,sans-Serif" font-size="10.00"> </text>
</a>
</g>
</g>
<!-- Node5&#45;&gt;Node4 -->
<g id="edge4" class="edge"><title>Node5&#45;&gt;Node4</title>
<path fill="none" stroke="midnightblue" d="M340.5,-797.375C340.5,-787.94 340.5,-778.201 340.5,-769.571"/>
<polygon fill="none" stroke="midnightblue" points="337,-797.427 340.5,-807.427 344,-797.427 337,-797.427"/>
</g>
<!-- Node6&#45;&gt;Node2 -->
<g id="edge5" class="edge"><title>Node6&#45;&gt;Node2</title>
<path fill="none" stroke="#404040" d="M241.48,-585.425C260.367,-568.657 284.651,-548.774 308.5,-534 384.233,-487.087 477.768,-447.22 545.375,-421.233"/>
<polygon fill="none" stroke="#404040" points="545.627,-421.137 549.809,-415.263 556.84,-416.864 552.658,-422.738 545.627,-421.137"/>
<text text-anchor="middle" x="366.5" y="-542.5" font-family="Helvetica,sans-Serif" font-size="10.00"> #_joint_name_to_eigen_id</text>
</g>
<!-- Node7&#45;&gt;Node2 -->
<g id="edge7" class="edge"><title>Node7&#45;&gt;Node2</title>
<path fill="none" stroke="#404040" d="M383.08,-585.374C425.829,-552.117 492.955,-499.896 547.241,-457.663"/>
<polygon fill="none" stroke="#404040" points="547.401,-457.538 549.68,-450.697 556.872,-450.17 554.593,-457.011 547.401,-457.538"/>
<text text-anchor="middle" x="471.5" y="-542.5" font-family="Helvetica,sans-Serif" font-size="10.00"> #_imu_map</text>
</g>
<!-- Node8 -->
<g id="node8" class="node"><title>Node8</title>
<polygon fill="none" stroke="#bfbfbf" points="725.5,-585.5 725.5,-653.5 825.5,-653.5 825.5,-585.5 725.5,-585.5"/>
<text text-anchor="middle" x="775.5" y="-641.5" font-family="Helvetica,sans-Serif" font-size="10.00">std::map&lt; int, int &gt;</text>
<polyline fill="none" stroke="#bfbfbf" points="725.5,-634.5 825.5,-634.5 "/>
<text text-anchor="start" x="733.5" y="-622.5" font-family="Helvetica,sans-Serif" font-size="10.00">+ keys</text>
<text text-anchor="start" x="733.5" y="-611.5" font-family="Helvetica,sans-Serif" font-size="10.00">+ elements</text>
<polyline fill="none" stroke="#bfbfbf" points="725.5,-604.5 825.5,-604.5 "/>
<text text-anchor="middle" x="775.5" y="-592.5" font-family="Helvetica,sans-Serif" font-size="10.00"> </text>
</g>
<!-- Node8&#45;&gt;Node2 -->
<g id="edge9" class="edge"><title>Node8&#45;&gt;Node2</title>
<path fill="none" stroke="#404040" d="M755.143,-585.129C745.192,-568.816 732.483,-547.982 719.083,-526.016"/>
<polygon fill="none" stroke="#404040" points="718.922,-525.753 712.383,-522.714 712.673,-515.508 719.212,-518.548 718.922,-525.753"/>
<text text-anchor="middle" x="784.5" y="-542.5" font-family="Helvetica,sans-Serif" font-size="10.00"> #_joint_id_to_eigen_id</text>
</g>
<!-- Node9 -->
<g id="node9" class="node"><title>Node9</title>
<polygon fill="none" stroke="#bfbfbf" points="843.5,-585.5 843.5,-653.5 943.5,-653.5 943.5,-585.5 843.5,-585.5"/>
<text text-anchor="start" x="851.5" y="-641.5" font-family="Helvetica,sans-Serif" font-size="10.00">std::vector&lt; XBot::</text>
<text text-anchor="middle" x="893.5" y="-630.5" font-family="Helvetica,sans-Serif" font-size="10.00">Joint::Ptr &gt;</text>
<polyline fill="none" stroke="#bfbfbf" points="843.5,-623.5 943.5,-623.5 "/>
<text text-anchor="start" x="851.5" y="-611.5" font-family="Helvetica,sans-Serif" font-size="10.00">+ elements</text>
<polyline fill="none" stroke="#bfbfbf" points="843.5,-604.5 943.5,-604.5 "/>
<text text-anchor="middle" x="893.5" y="-592.5" font-family="Helvetica,sans-Serif" font-size="10.00"> </text>
</g>
<!-- Node9&#45;&gt;Node2 -->
<g id="edge10" class="edge"><title>Node9&#45;&gt;Node2</title>
<path fill="none" stroke="#404040" d="M875.726,-585.139C866.021,-568.685 853.028,-549.17 838.5,-534 805.095,-499.118 762.273,-467.111 724.576,-442.094"/>
<polygon fill="none" stroke="#404040" points="724.13,-441.802 716.92,-441.86 714.092,-435.227 721.303,-435.168 724.13,-441.802"/>
<text text-anchor="middle" x="907.5" y="-548" font-family="Helvetica,sans-Serif" font-size="10.00"> #_ordered_joint_vector</text>
<text text-anchor="middle" x="907.5" y="-537" font-family="Helvetica,sans-Serif" font-size="10.00">#_joint_vector</text>
</g>
<!-- Node10 -->
<g id="node10" class="node"><title>Node10</title>
<polygon fill="none" stroke="#bfbfbf" points="964.5,-580 964.5,-659 1066.5,-659 1066.5,-580 964.5,-580"/>
<text text-anchor="start" x="972.5" y="-647" font-family="Helvetica,sans-Serif" font-size="10.00">std::map&lt; int, XBot</text>
<text text-anchor="middle" x="1015.5" y="-636" font-family="Helvetica,sans-Serif" font-size="10.00">::ImuSensor::Ptr &gt;</text>
<polyline fill="none" stroke="#bfbfbf" points="964.5,-629 1066.5,-629 "/>
<text text-anchor="start" x="972.5" y="-617" font-family="Helvetica,sans-Serif" font-size="10.00">+ keys</text>
<text text-anchor="start" x="972.5" y="-606" font-family="Helvetica,sans-Serif" font-size="10.00">+ elements</text>
<polyline fill="none" stroke="#bfbfbf" points="964.5,-599 1066.5,-599 "/>
<text text-anchor="middle" x="1015.5" y="-587" font-family="Helvetica,sans-Serif" font-size="10.00"> </text>
</g>
<!-- Node10&#45;&gt;Node2 -->
<g id="edge11" class="edge"><title>Node10&#45;&gt;Node2</title>
<path fill="none" stroke="#404040" d="M997.733,-579.997C988.921,-564.146 977.027,-546.587 962.5,-534 893.589,-474.289 796.158,-435.374 725.591,-413.042"/>
<polygon fill="none" stroke="#404040" points="725.525,-413.022 718.609,-415.064 714.064,-409.466 720.98,-407.423 725.525,-413.022"/>
<text text-anchor="middle" x="1015" y="-542.5" font-family="Helvetica,sans-Serif" font-size="10.00"> #_imu_id_map</text>
</g>
<!-- Node11 -->
<g id="node11" class="node"><title>Node11</title>
<polygon fill="none" stroke="#bfbfbf" points="1084.5,-574.5 1084.5,-664.5 1192.5,-664.5 1192.5,-574.5 1084.5,-574.5"/>
<text text-anchor="start" x="1092.5" y="-652.5" font-family="Helvetica,sans-Serif" font-size="10.00">std::map&lt; int, XBot</text>
<text text-anchor="start" x="1092.5" y="-641.5" font-family="Helvetica,sans-Serif" font-size="10.00">::ForceTorqueSensor</text>
<text text-anchor="middle" x="1138.5" y="-630.5" font-family="Helvetica,sans-Serif" font-size="10.00">::Ptr &gt;</text>
<polyline fill="none" stroke="#bfbfbf" points="1084.5,-623.5 1192.5,-623.5 "/>
<text text-anchor="start" x="1092.5" y="-611.5" font-family="Helvetica,sans-Serif" font-size="10.00">+ keys</text>
<text text-anchor="start" x="1092.5" y="-600.5" font-family="Helvetica,sans-Serif" font-size="10.00">+ elements</text>
<polyline fill="none" stroke="#bfbfbf" points="1084.5,-593.5 1192.5,-593.5 "/>
<text text-anchor="middle" x="1138.5" y="-581.5" font-family="Helvetica,sans-Serif" font-size="10.00"> </text>
</g>
<!-- Node11&#45;&gt;Node2 -->
<g id="edge12" class="edge"><title>Node11&#45;&gt;Node2</title>
<path fill="none" stroke="#404040" d="M1101,-574.471C1086.96,-560.044 1070.11,-544.93 1052.5,-534 949.31,-469.933 814.089,-429.622 726.031,-408.206"/>
<polygon fill="none" stroke="#404040" points="725.865,-408.166 719.098,-410.659 714.195,-405.372 720.961,-402.879 725.865,-408.166"/>
<text text-anchor="middle" x="1110" y="-542.5" font-family="Helvetica,sans-Serif" font-size="10.00"> #_ft_id_map</text>
</g>
<!-- Node12&#45;&gt;Node2 -->
<g id="edge13" class="edge"><title>Node12&#45;&gt;Node2</title>
<path fill="none" stroke="#404040" d="M493.821,-590.684C501.136,-573.806 511.349,-552.104 522.5,-534 530.703,-520.683 539.906,-507.15 549.426,-493.973"/>
<polygon fill="none" stroke="#404040" points="549.661,-493.652 549.983,-486.448 556.757,-483.975 556.435,-491.179 549.661,-493.652"/>
<text text-anchor="middle" x="577" y="-542.5" font-family="Helvetica,sans-Serif" font-size="10.00"> #_ordered_chain_names</text>
</g>
<!-- Node13&#45;&gt;Node2 -->
<g id="edge15" class="edge"><title>Node13&#45;&gt;Node2</title>
<path fill="none" stroke="#404040" d="M635.5,-579.828C635.5,-564.877 635.5,-546.789 635.5,-527.781"/>
<polygon fill="none" stroke="#404040" points="635.5,-527.515 631.5,-521.515 635.5,-515.515 639.5,-521.515 635.5,-527.515"/>
<text text-anchor="middle" x="666" y="-542.5" font-family="Helvetica,sans-Serif" font-size="10.00"> #_chain_map</text>
</g>
</g>
</svg>
