<?xml version="1.0" encoding="UTF-8" standalone="no"?>
<!DOCTYPE svg PUBLIC "-//W3C//DTD SVG 1.1//EN"
 "http://www.w3.org/Graphics/SVG/1.1/DTD/svg11.dtd">
<!-- Generated by graphviz version 2.38.0 (20140413.2041)
 -->
<!-- Title: spdlog::sinks::wincolor_stderr_sink&lt; Mutex &gt; Pages: 1 -->
<svg width="129pt" height="612pt"
 viewBox="0.00 0.00 129.00 612.00" xmlns="http://www.w3.org/2000/svg" xmlns:xlink="http://www.w3.org/1999/xlink">
<g id="graph0" class="graph" transform="scale(1 1) rotate(0) translate(4 608)">
<title>spdlog::sinks::wincolor_stderr_sink&lt; Mutex &gt;</title>
<!-- Node1 -->
<g id="node1" class="node"><title>Node1</title>
<polygon fill="#bfbfbf" stroke="black" points="-7.10543e-15,-0.5 -7.10543e-15,-68.5 121,-68.5 121,-0.5 -7.10543e-15,-0.5"/>
<text text-anchor="start" x="8" y="-56.5" font-family="Helvetica,sans-Serif" font-size="10.00">spdlog::sinks::wincolor</text>
<text text-anchor="middle" x="60.5" y="-45.5" font-family="Helvetica,sans-Serif" font-size="10.00">_stderr_sink&lt; Mutex &gt;</text>
<polyline fill="none" stroke="black" points="-7.10543e-15,-38.5 121,-38.5 "/>
<text text-anchor="middle" x="60.5" y="-26.5" font-family="Helvetica,sans-Serif" font-size="10.00"> </text>
<polyline fill="none" stroke="black" points="-7.10543e-15,-19.5 121,-19.5 "/>
<text text-anchor="start" x="8" y="-7.5" font-family="Helvetica,sans-Serif" font-size="10.00">+ wincolor_stderr_sink()</text>
</g>
<!-- Node2 -->
<g id="node2" class="node"><title>Node2</title>
<g id="a_node2"><a xlink:href="classspdlog_1_1sinks_1_1wincolor__sink.html" target="_top" xlink:title="{spdlog::sinks::wincolor\l_sink\&lt; Mutex \&gt;\n|+ BOLD\l+ RED\l+ CYAN\l+ WHITE\l+ YELLOW\l|+ wincolor_sink()\l+ ~wincolor_sink()\l+ wincolor_sink()\l+ operator=()\l+ _sink_it()\l+ flush()\l+ set_color()\l}">
<polygon fill="none" stroke="black" points="2.5,-105.5 2.5,-283.5 118.5,-283.5 118.5,-105.5 2.5,-105.5"/>
<text text-anchor="start" x="10.5" y="-271.5" font-family="Helvetica,sans-Serif" font-size="10.00">spdlog::sinks::wincolor</text>
<text text-anchor="middle" x="60.5" y="-260.5" font-family="Helvetica,sans-Serif" font-size="10.00">_sink&lt; Mutex &gt;</text>
<polyline fill="none" stroke="black" points="2.5,-253.5 118.5,-253.5 "/>
<text text-anchor="start" x="10.5" y="-241.5" font-family="Helvetica,sans-Serif" font-size="10.00">+ BOLD</text>
<text text-anchor="start" x="10.5" y="-230.5" font-family="Helvetica,sans-Serif" font-size="10.00">+ RED</text>
<text text-anchor="start" x="10.5" y="-219.5" font-family="Helvetica,sans-Serif" font-size="10.00">+ CYAN</text>
<text text-anchor="start" x="10.5" y="-208.5" font-family="Helvetica,sans-Serif" font-size="10.00">+ WHITE</text>
<text text-anchor="start" x="10.5" y="-197.5" font-family="Helvetica,sans-Serif" font-size="10.00">+ YELLOW</text>
<polyline fill="none" stroke="black" points="2.5,-190.5 118.5,-190.5 "/>
<text text-anchor="start" x="10.5" y="-178.5" font-family="Helvetica,sans-Serif" font-size="10.00">+ wincolor_sink()</text>
<text text-anchor="start" x="10.5" y="-167.5" font-family="Helvetica,sans-Serif" font-size="10.00">+ ~wincolor_sink()</text>
<text text-anchor="start" x="10.5" y="-156.5" font-family="Helvetica,sans-Serif" font-size="10.00">+ wincolor_sink()</text>
<text text-anchor="start" x="10.5" y="-145.5" font-family="Helvetica,sans-Serif" font-size="10.00">+ operator=()</text>
<text text-anchor="start" x="10.5" y="-134.5" font-family="Helvetica,sans-Serif" font-size="10.00">+ _sink_it()</text>
<text text-anchor="start" x="10.5" y="-123.5" font-family="Helvetica,sans-Serif" font-size="10.00">+ flush()</text>
<text text-anchor="start" x="10.5" y="-112.5" font-family="Helvetica,sans-Serif" font-size="10.00">+ set_color()</text>
</a>
</g>
</g>
<!-- Node2&#45;&gt;Node1 -->
<g id="edge1" class="edge"><title>Node2&#45;&gt;Node1</title>
<path fill="none" stroke="midnightblue" d="M60.5,-94.9951C60.5,-85.6501 60.5,-76.6935 60.5,-68.6942"/>
<polygon fill="none" stroke="midnightblue" points="57.0001,-95.261 60.5,-105.261 64.0001,-95.2611 57.0001,-95.261"/>
</g>
<!-- Node3 -->
<g id="node3" class="node"><title>Node3</title>
<g id="a_node3"><a xlink:href="classspdlog_1_1sinks_1_1base__sink.html" target="_top" xlink:title="{spdlog::sinks::base\l_sink\&lt; Mutex \&gt;\n|# _mutex\l|+ base_sink()\l+ ~base_sink()\l+ base_sink()\l+ operator=()\l+ log()\l# _sink_it()\l}">
<polygon fill="none" stroke="black" points="10,-320.5 10,-443.5 111,-443.5 111,-320.5 10,-320.5"/>
<text text-anchor="start" x="18" y="-431.5" font-family="Helvetica,sans-Serif" font-size="10.00">spdlog::sinks::base</text>
<text text-anchor="middle" x="60.5" y="-420.5" font-family="Helvetica,sans-Serif" font-size="10.00">_sink&lt; Mutex &gt;</text>
<polyline fill="none" stroke="black" points="10,-413.5 111,-413.5 "/>
<text text-anchor="start" x="18" y="-401.5" font-family="Helvetica,sans-Serif" font-size="10.00"># _mutex</text>
<polyline fill="none" stroke="black" points="10,-394.5 111,-394.5 "/>
<text text-anchor="start" x="18" y="-382.5" font-family="Helvetica,sans-Serif" font-size="10.00">+ base_sink()</text>
<text text-anchor="start" x="18" y="-371.5" font-family="Helvetica,sans-Serif" font-size="10.00">+ ~base_sink()</text>
<text text-anchor="start" x="18" y="-360.5" font-family="Helvetica,sans-Serif" font-size="10.00">+ base_sink()</text>
<text text-anchor="start" x="18" y="-349.5" font-family="Helvetica,sans-Serif" font-size="10.00">+ operator=()</text>
<text text-anchor="start" x="18" y="-338.5" font-family="Helvetica,sans-Serif" font-size="10.00">+ log()</text>
<text text-anchor="start" x="18" y="-327.5" font-family="Helvetica,sans-Serif" font-size="10.00"># _sink_it()</text>
</a>
</g>
</g>
<!-- Node3&#45;&gt;Node2 -->
<g id="edge2" class="edge"><title>Node3&#45;&gt;Node2</title>
<path fill="none" stroke="midnightblue" d="M60.5,-310.199C60.5,-301.505 60.5,-292.538 60.5,-283.628"/>
<polygon fill="none" stroke="midnightblue" points="57.0001,-310.26 60.5,-320.26 64.0001,-310.26 57.0001,-310.26"/>
</g>
<!-- Node4 -->
<g id="node4" class="node"><title>Node4</title>
<g id="a_node4"><a xlink:href="classspdlog_1_1sinks_1_1sink.html" target="_top" xlink:title="{spdlog::sinks::sink\n||+ sink()\l+ ~sink()\l+ log()\l+ flush()\l+ should_log()\l+ set_level()\l+ level()\l}">
<polygon fill="none" stroke="black" points="11.5,-480.5 11.5,-603.5 109.5,-603.5 109.5,-480.5 11.5,-480.5"/>
<text text-anchor="middle" x="60.5" y="-591.5" font-family="Helvetica,sans-Serif" font-size="10.00">spdlog::sinks::sink</text>
<polyline fill="none" stroke="black" points="11.5,-584.5 109.5,-584.5 "/>
<text text-anchor="middle" x="60.5" y="-572.5" font-family="Helvetica,sans-Serif" font-size="10.00"> </text>
<polyline fill="none" stroke="black" points="11.5,-565.5 109.5,-565.5 "/>
<text text-anchor="start" x="19.5" y="-553.5" font-family="Helvetica,sans-Serif" font-size="10.00">+ sink()</text>
<text text-anchor="start" x="19.5" y="-542.5" font-family="Helvetica,sans-Serif" font-size="10.00">+ ~sink()</text>
<text text-anchor="start" x="19.5" y="-531.5" font-family="Helvetica,sans-Serif" font-size="10.00">+ log()</text>
<text text-anchor="start" x="19.5" y="-520.5" font-family="Helvetica,sans-Serif" font-size="10.00">+ flush()</text>
<text text-anchor="start" x="19.5" y="-509.5" font-family="Helvetica,sans-Serif" font-size="10.00">+ should_log()</text>
<text text-anchor="start" x="19.5" y="-498.5" font-family="Helvetica,sans-Serif" font-size="10.00">+ set_level()</text>
<text text-anchor="start" x="19.5" y="-487.5" font-family="Helvetica,sans-Serif" font-size="10.00">+ level()</text>
</a>
</g>
</g>
<!-- Node4&#45;&gt;Node3 -->
<g id="edge3" class="edge"><title>Node4&#45;&gt;Node3</title>
<path fill="none" stroke="midnightblue" d="M60.5,-470.116C60.5,-461.31 60.5,-452.368 60.5,-443.734"/>
<polygon fill="none" stroke="midnightblue" points="57.0001,-470.365 60.5,-480.365 64.0001,-470.365 57.0001,-470.365"/>
</g>
</g>
</svg>
