<?xml version="1.0" encoding="UTF-8" standalone="no"?>
<!DOCTYPE svg PUBLIC "-//W3C//DTD SVG 1.1//EN"
 "http://www.w3.org/Graphics/SVG/1.1/DTD/svg11.dtd">
<!-- Generated by graphviz version 2.38.0 (20140413.2041)
 -->
<!-- Title: XBot::MatLogger Pages: 1 -->
<svg width="319pt" height="853pt"
 viewBox="0.00 0.00 319.11 853.00" xmlns="http://www.w3.org/2000/svg" xmlns:xlink="http://www.w3.org/1999/xlink">
<g id="graph0" class="graph" transform="scale(1 1) rotate(0) translate(4 849)">
<title>XBot::MatLogger</title>
<!-- Node1 -->
<g id="node1" class="node"><title>Node1</title>
<polygon fill="#bfbfbf" stroke="black" points="41.1094,-0.5 41.1094,-233.5 163.109,-233.5 163.109,-0.5 41.1094,-0.5"/>
<text text-anchor="middle" x="102.109" y="-221.5" font-family="Helvetica,sans-Serif" font-size="10.00">XBot::MatLogger</text>
<polyline fill="none" stroke="black" points="41.1094,-214.5 163.109,-214.5 "/>
<text text-anchor="middle" x="102.109" y="-202.5" font-family="Helvetica,sans-Serif" font-size="10.00"> </text>
<polyline fill="none" stroke="black" points="41.1094,-195.5 163.109,-195.5 "/>
<text text-anchor="start" x="49.1094" y="-183.5" font-family="Helvetica,sans-Serif" font-size="10.00">+ log()</text>
<text text-anchor="start" x="49.1094" y="-172.5" font-family="Helvetica,sans-Serif" font-size="10.00">+ log()</text>
<text text-anchor="start" x="49.1094" y="-161.5" font-family="Helvetica,sans-Serif" font-size="10.00">+ createScalarVariable()</text>
<text text-anchor="start" x="49.1094" y="-150.5" font-family="Helvetica,sans-Serif" font-size="10.00">+ createVectorVariable()</text>
<text text-anchor="start" x="49.1094" y="-139.5" font-family="Helvetica,sans-Serif" font-size="10.00">+ createMatrixVariable()</text>
<text text-anchor="start" x="49.1094" y="-128.5" font-family="Helvetica,sans-Serif" font-size="10.00">+ add()</text>
<text text-anchor="start" x="49.1094" y="-117.5" font-family="Helvetica,sans-Serif" font-size="10.00">+ add()</text>
<text text-anchor="start" x="49.1094" y="-106.5" font-family="Helvetica,sans-Serif" font-size="10.00">+ add()</text>
<text text-anchor="start" x="49.1094" y="-95.5" font-family="Helvetica,sans-Serif" font-size="10.00">+ add()</text>
<text text-anchor="start" x="49.1094" y="-84.5" font-family="Helvetica,sans-Serif" font-size="10.00">+ add()</text>
<text text-anchor="start" x="49.1094" y="-73.5" font-family="Helvetica,sans-Serif" font-size="10.00">+ add()</text>
<text text-anchor="start" x="49.1094" y="-62.5" font-family="Helvetica,sans-Serif" font-size="10.00">+ add()</text>
<text text-anchor="start" x="49.1094" y="-51.5" font-family="Helvetica,sans-Serif" font-size="10.00">+ add()</text>
<text text-anchor="start" x="49.1094" y="-40.5" font-family="Helvetica,sans-Serif" font-size="10.00">+ flush()</text>
<text text-anchor="start" x="49.1094" y="-29.5" font-family="Helvetica,sans-Serif" font-size="10.00">+ ~MatLogger()</text>
<text text-anchor="start" x="49.1094" y="-18.5" font-family="Helvetica,sans-Serif" font-size="10.00">+ getLogger()</text>
<text text-anchor="start" x="49.1094" y="-7.5" font-family="Helvetica,sans-Serif" font-size="10.00"># MatLogger()</text>
</g>
<!-- Node2 -->
<g id="node2" class="node"><title>Node2</title>
<polygon fill="none" stroke="#bfbfbf" points="34.6094,-281.5 34.6094,-360.5 169.609,-360.5 169.609,-281.5 34.6094,-281.5"/>
<text text-anchor="start" x="42.6094" y="-348.5" font-family="Helvetica,sans-Serif" font-size="10.00">std::unordered_map</text>
<text text-anchor="start" x="42.6094" y="-337.5" font-family="Helvetica,sans-Serif" font-size="10.00">&lt; std::string, XBot</text>
<text text-anchor="middle" x="102.109" y="-326.5" font-family="Helvetica,sans-Serif" font-size="10.00">::MatLogger::VariableInfo &gt;</text>
<polyline fill="none" stroke="#bfbfbf" points="34.6094,-319.5 169.609,-319.5 "/>
<text text-anchor="middle" x="102.109" y="-307.5" font-family="Helvetica,sans-Serif" font-size="10.00"> </text>
<polyline fill="none" stroke="#bfbfbf" points="34.6094,-300.5 169.609,-300.5 "/>
<text text-anchor="middle" x="102.109" y="-288.5" font-family="Helvetica,sans-Serif" font-size="10.00"> </text>
</g>
<!-- Node2&#45;&gt;Node1 -->
<g id="edge1" class="edge"><title>Node2&#45;&gt;Node1</title>
<path fill="none" stroke="#404040" d="M102.109,-281.052C102.109,-270.54 102.109,-258.563 102.109,-245.983"/>
<polygon fill="none" stroke="#404040" points="102.11,-245.766 98.1095,-239.766 102.109,-233.766 106.109,-239.766 102.11,-245.766"/>
<text text-anchor="middle" x="137.109" y="-255" font-family="Helvetica,sans-Serif" font-size="10.00"> #_var_idx_map</text>
</g>
<!-- Node3 -->
<g id="node3" class="node"><title>Node3</title>
<g id="a_node3"><a xlink:href="structXBot_1_1MatLogger_1_1VariableInfo.html" target="_top" xlink:title="{XBot::MatLogger::VariableInfo\n|+ interleave\l+ count\l+ type\l+ data\l+ rows\l+ cols\l+ buffer_capacity\l+ head\l+ tail\l+ empty\l|+ rearrange()\l}">
<polygon fill="none" stroke="black" points="101.109,-477.5 101.109,-633.5 249.109,-633.5 249.109,-477.5 101.109,-477.5"/>
<text text-anchor="middle" x="175.109" y="-621.5" font-family="Helvetica,sans-Serif" font-size="10.00">XBot::MatLogger::VariableInfo</text>
<polyline fill="none" stroke="black" points="101.109,-614.5 249.109,-614.5 "/>
<text text-anchor="start" x="109.109" y="-602.5" font-family="Helvetica,sans-Serif" font-size="10.00">+ interleave</text>
<text text-anchor="start" x="109.109" y="-591.5" font-family="Helvetica,sans-Serif" font-size="10.00">+ count</text>
<text text-anchor="start" x="109.109" y="-580.5" font-family="Helvetica,sans-Serif" font-size="10.00">+ type</text>
<text text-anchor="start" x="109.109" y="-569.5" font-family="Helvetica,sans-Serif" font-size="10.00">+ data</text>
<text text-anchor="start" x="109.109" y="-558.5" font-family="Helvetica,sans-Serif" font-size="10.00">+ rows</text>
<text text-anchor="start" x="109.109" y="-547.5" font-family="Helvetica,sans-Serif" font-size="10.00">+ cols</text>
<text text-anchor="start" x="109.109" y="-536.5" font-family="Helvetica,sans-Serif" font-size="10.00">+ buffer_capacity</text>
<text text-anchor="start" x="109.109" y="-525.5" font-family="Helvetica,sans-Serif" font-size="10.00">+ head</text>
<text text-anchor="start" x="109.109" y="-514.5" font-family="Helvetica,sans-Serif" font-size="10.00">+ tail</text>
<text text-anchor="start" x="109.109" y="-503.5" font-family="Helvetica,sans-Serif" font-size="10.00">+ empty</text>
<polyline fill="none" stroke="black" points="101.109,-496.5 249.109,-496.5 "/>
<text text-anchor="start" x="109.109" y="-484.5" font-family="Helvetica,sans-Serif" font-size="10.00">+ rearrange()</text>
</a>
</g>
</g>
<!-- Node3&#45;&gt;Node2 -->
<g id="edge2" class="edge"><title>Node3&#45;&gt;Node2</title>
<path fill="none" stroke="#404040" d="M150.875,-477.359C148.924,-471.148 146.984,-464.969 145.109,-459 136.116,-430.358 126.068,-398.346 117.948,-372.473"/>
<polygon fill="none" stroke="#404040" points="117.84,-372.129 112.227,-367.602 114.247,-360.68 119.86,-365.207 117.84,-372.129"/>
<text text-anchor="middle" x="169.609" y="-416.5" font-family="Helvetica,sans-Serif" font-size="10.00"> +elements</text>
</g>
<!-- Node4 -->
<g id="node4" class="node"><title>Node4</title>
<g id="a_node4"><a xlink:title="STL class. ">
<polygon fill="none" stroke="#bfbfbf" points="61.1094,-681.5 61.1094,-738.5 121.109,-738.5 121.109,-681.5 61.1094,-681.5"/>
<text text-anchor="middle" x="91.1094" y="-726.5" font-family="Helvetica,sans-Serif" font-size="10.00">std::string</text>
<polyline fill="none" stroke="#bfbfbf" points="61.1094,-719.5 121.109,-719.5 "/>
<text text-anchor="middle" x="91.1094" y="-707.5" font-family="Helvetica,sans-Serif" font-size="10.00"> </text>
<polyline fill="none" stroke="#bfbfbf" points="61.1094,-700.5 121.109,-700.5 "/>
<text text-anchor="middle" x="91.1094" y="-688.5" font-family="Helvetica,sans-Serif" font-size="10.00"> </text>
</a>
</g>
</g>
<!-- Node4&#45;&gt;Node1 -->
<g id="edge8" class="edge"><title>Node4&#45;&gt;Node1</title>
<path fill="none" stroke="#404040" d="M72.5088,-681.254C64.1439,-667.563 54.8755,-650.481 49.1094,-634 11.1043,-525.372 -8.01483,-493.444 4.10941,-379 8.8022,-334.704 10.8351,-323.195 25.1094,-281 29.1407,-269.083 33.8043,-256.89 38.8024,-244.802"/>
<polygon fill="none" stroke="#404040" points="38.8059,-244.793 37.4575,-237.709 43.4779,-233.74 44.8263,-240.824 38.8059,-244.793"/>
<text text-anchor="middle" x="32.1094" y="-416.5" font-family="Helvetica,sans-Serif" font-size="10.00"> #_file_name</text>
</g>
<!-- Node4&#45;&gt;Node2 -->
<g id="edge5" class="edge"><title>Node4&#45;&gt;Node2</title>
<path fill="none" stroke="#404040" d="M77.0833,-681.28C70.8572,-667.454 64.2388,-650.25 61.1094,-634 47.9139,-565.481 52.1125,-546.195 61.1094,-477 65.7306,-441.459 76.0752,-402.458 85.2168,-372.469"/>
<polygon fill="none" stroke="#404040" points="85.3391,-372.077 83.3049,-365.158 88.9087,-360.62 90.9428,-367.538 85.3391,-372.077"/>
<text text-anchor="middle" x="76.6094" y="-553" font-family="Helvetica,sans-Serif" font-size="10.00"> +keys</text>
</g>
<!-- Node4&#45;&gt;Node3 -->
<g id="edge3" class="edge"><title>Node4&#45;&gt;Node3</title>
<path fill="none" stroke="#404040" d="M106.321,-681.383C112.215,-670.682 119.318,-657.788 126.69,-644.403"/>
<polygon fill="none" stroke="#404040" points="126.854,-644.107 126.245,-636.922 132.643,-633.596 133.252,-640.782 126.854,-644.107"/>
<text text-anchor="middle" x="138.109" y="-655" font-family="Helvetica,sans-Serif" font-size="10.00"> +name</text>
</g>
<!-- Node6 -->
<g id="node6" class="node"><title>Node6</title>
<polygon fill="none" stroke="#bfbfbf" points="203.609,-379.5 203.609,-458.5 306.609,-458.5 306.609,-379.5 203.609,-379.5"/>
<text text-anchor="start" x="211.609" y="-446.5" font-family="Helvetica,sans-Serif" font-size="10.00">std::unordered_map</text>
<text text-anchor="start" x="211.609" y="-435.5" font-family="Helvetica,sans-Serif" font-size="10.00">&lt; std::string, Eigen</text>
<text text-anchor="middle" x="255.109" y="-424.5" font-family="Helvetica,sans-Serif" font-size="10.00">::MatrixXd &gt;</text>
<polyline fill="none" stroke="#bfbfbf" points="203.609,-417.5 306.609,-417.5 "/>
<text text-anchor="start" x="211.609" y="-405.5" font-family="Helvetica,sans-Serif" font-size="10.00">+ elements</text>
<polyline fill="none" stroke="#bfbfbf" points="203.609,-398.5 306.609,-398.5 "/>
<text text-anchor="middle" x="255.109" y="-386.5" font-family="Helvetica,sans-Serif" font-size="10.00"> </text>
</g>
<!-- Node4&#45;&gt;Node6 -->
<g id="edge7" class="edge"><title>Node4&#45;&gt;Node6</title>
<path fill="none" stroke="#404040" d="M121.274,-705.307C160.565,-698.699 227.806,-680.829 258.109,-634 289.519,-585.463 281.639,-516.872 270.626,-470.535"/>
<polygon fill="none" stroke="#404040" points="270.569,-470.309 265.219,-465.474 267.625,-458.676 272.975,-463.511 270.569,-470.309"/>
<text text-anchor="middle" x="258.609" y="-655" font-family="Helvetica,sans-Serif" font-size="10.00"> +keys</text>
</g>
<!-- Node5 -->
<g id="node5" class="node"><title>Node5</title>
<g id="a_node5"><a xlink:title="STL class. ">
<polygon fill="none" stroke="#bfbfbf" points="43.6094,-776.5 43.6094,-844.5 138.609,-844.5 138.609,-776.5 43.6094,-776.5"/>
<text text-anchor="start" x="51.6094" y="-832.5" font-family="Helvetica,sans-Serif" font-size="10.00">std::basic_string&lt;</text>
<text text-anchor="middle" x="91.1094" y="-821.5" font-family="Helvetica,sans-Serif" font-size="10.00"> char &gt;</text>
<polyline fill="none" stroke="#bfbfbf" points="43.6094,-814.5 138.609,-814.5 "/>
<text text-anchor="middle" x="91.1094" y="-802.5" font-family="Helvetica,sans-Serif" font-size="10.00"> </text>
<polyline fill="none" stroke="#bfbfbf" points="43.6094,-795.5 138.609,-795.5 "/>
<text text-anchor="middle" x="91.1094" y="-783.5" font-family="Helvetica,sans-Serif" font-size="10.00"> </text>
</a>
</g>
</g>
<!-- Node5&#45;&gt;Node4 -->
<g id="edge4" class="edge"><title>Node5&#45;&gt;Node4</title>
<path fill="none" stroke="midnightblue" d="M91.1094,-766.375C91.1094,-756.94 91.1094,-747.201 91.1094,-738.571"/>
<polygon fill="none" stroke="midnightblue" points="87.6095,-766.427 91.1094,-776.427 94.6095,-766.427 87.6095,-766.427"/>
</g>
<!-- Node6&#45;&gt;Node1 -->
<g id="edge6" class="edge"><title>Node6&#45;&gt;Node1</title>
<path fill="none" stroke="#404040" d="M237.56,-379.438C221.965,-345.586 198.269,-295.156 176.109,-252 173.788,-247.479 171.4,-242.885 168.969,-238.255"/>
<polygon fill="none" stroke="#404040" points="168.84,-238.01 162.498,-234.577 163.229,-227.403 169.57,-230.836 168.84,-238.01"/>
<text text-anchor="middle" x="270.109" y="-318.5" font-family="Helvetica,sans-Serif" font-size="10.00"> #_single_var_map</text>
</g>
</g>
</svg>
