<?xml version="1.0" encoding="UTF-8" standalone="no"?>
<!DOCTYPE svg PUBLIC "-//W3C//DTD SVG 1.1//EN"
 "http://www.w3.org/Graphics/SVG/1.1/DTD/svg11.dtd">
<!-- Generated by graphviz version 2.38.0 (20140413.2041)
 -->
<!-- Title: spdlog::sinks::sink Pages: 1 -->
<svg width="1188pt" height="744pt"
 viewBox="0.00 0.00 1188.00 744.00" xmlns="http://www.w3.org/2000/svg" xmlns:xlink="http://www.w3.org/1999/xlink">
<g id="graph0" class="graph" transform="scale(1 1) rotate(0) translate(4 740)">
<title>spdlog::sinks::sink</title>
<!-- Node1 -->
<g id="node1" class="node"><title>Node1</title>
<polygon fill="#bfbfbf" stroke="black" points="421.5,-612.5 421.5,-735.5 519.5,-735.5 519.5,-612.5 421.5,-612.5"/>
<text text-anchor="middle" x="470.5" y="-723.5" font-family="Helvetica,sans-Serif" font-size="10.00">spdlog::sinks::sink</text>
<polyline fill="none" stroke="black" points="421.5,-716.5 519.5,-716.5 "/>
<text text-anchor="middle" x="470.5" y="-704.5" font-family="Helvetica,sans-Serif" font-size="10.00"> </text>
<polyline fill="none" stroke="black" points="421.5,-697.5 519.5,-697.5 "/>
<text text-anchor="start" x="429.5" y="-685.5" font-family="Helvetica,sans-Serif" font-size="10.00">+ sink()</text>
<text text-anchor="start" x="429.5" y="-674.5" font-family="Helvetica,sans-Serif" font-size="10.00">+ ~sink()</text>
<text text-anchor="start" x="429.5" y="-663.5" font-family="Helvetica,sans-Serif" font-size="10.00">+ log()</text>
<text text-anchor="start" x="429.5" y="-652.5" font-family="Helvetica,sans-Serif" font-size="10.00">+ flush()</text>
<text text-anchor="start" x="429.5" y="-641.5" font-family="Helvetica,sans-Serif" font-size="10.00">+ should_log()</text>
<text text-anchor="start" x="429.5" y="-630.5" font-family="Helvetica,sans-Serif" font-size="10.00">+ set_level()</text>
<text text-anchor="start" x="429.5" y="-619.5" font-family="Helvetica,sans-Serif" font-size="10.00">+ level()</text>
</g>
<!-- Node2 -->
<g id="node2" class="node"><title>Node2</title>
<g id="a_node2"><a xlink:href="classspdlog_1_1sinks_1_1ansicolor__sink.html" target="_top" xlink:title="The ansi_color_sink is a decorator around another sink and prefixes the output with an ANSI escape se...">
<polygon fill="none" stroke="black" points="329,-320.5 329,-575.5 472,-575.5 472,-320.5 329,-320.5"/>
<text text-anchor="middle" x="400.5" y="-563.5" font-family="Helvetica,sans-Serif" font-size="10.00">spdlog::sinks::ansicolor_sink</text>
<polyline fill="none" stroke="black" points="329,-556.5 472,-556.5 "/>
<text text-anchor="start" x="337" y="-544.5" font-family="Helvetica,sans-Serif" font-size="10.00">+ reset</text>
<text text-anchor="start" x="337" y="-533.5" font-family="Helvetica,sans-Serif" font-size="10.00">+ bold</text>
<text text-anchor="start" x="337" y="-522.5" font-family="Helvetica,sans-Serif" font-size="10.00">+ dark</text>
<text text-anchor="start" x="337" y="-511.5" font-family="Helvetica,sans-Serif" font-size="10.00">+ underline</text>
<text text-anchor="start" x="337" y="-500.5" font-family="Helvetica,sans-Serif" font-size="10.00">+ blink</text>
<text text-anchor="start" x="337" y="-489.5" font-family="Helvetica,sans-Serif" font-size="10.00">+ reverse</text>
<text text-anchor="start" x="337" y="-478.5" font-family="Helvetica,sans-Serif" font-size="10.00">+ concealed</text>
<text text-anchor="start" x="337" y="-467.5" font-family="Helvetica,sans-Serif" font-size="10.00">+ grey</text>
<text text-anchor="start" x="337" y="-456.5" font-family="Helvetica,sans-Serif" font-size="10.00">+ red</text>
<text text-anchor="start" x="337" y="-445.5" font-family="Helvetica,sans-Serif" font-size="10.00">+ green</text>
<text text-anchor="start" x="337" y="-434.5" font-family="Helvetica,sans-Serif" font-size="10.00">and 13 more...</text>
<text text-anchor="start" x="337" y="-423.5" font-family="Helvetica,sans-Serif" font-size="10.00"># sink_</text>
<text text-anchor="start" x="337" y="-412.5" font-family="Helvetica,sans-Serif" font-size="10.00"># colors_</text>
<polyline fill="none" stroke="black" points="329,-405.5 472,-405.5 "/>
<text text-anchor="start" x="337" y="-393.5" font-family="Helvetica,sans-Serif" font-size="10.00">+ ansicolor_sink()</text>
<text text-anchor="start" x="337" y="-382.5" font-family="Helvetica,sans-Serif" font-size="10.00">+ ~ansicolor_sink()</text>
<text text-anchor="start" x="337" y="-371.5" font-family="Helvetica,sans-Serif" font-size="10.00">+ ansicolor_sink()</text>
<text text-anchor="start" x="337" y="-360.5" font-family="Helvetica,sans-Serif" font-size="10.00">+ operator=()</text>
<text text-anchor="start" x="337" y="-349.5" font-family="Helvetica,sans-Serif" font-size="10.00">+ log()</text>
<text text-anchor="start" x="337" y="-338.5" font-family="Helvetica,sans-Serif" font-size="10.00">+ flush()</text>
<text text-anchor="start" x="337" y="-327.5" font-family="Helvetica,sans-Serif" font-size="10.00">+ set_color()</text>
</a>
</g>
</g>
<!-- Node1&#45;&gt;Node2 -->
<g id="edge1" class="edge"><title>Node1&#45;&gt;Node2</title>
<path fill="none" stroke="midnightblue" d="M448.54,-602.729C445.818,-594.018 442.973,-584.915 440.086,-575.675"/>
<polygon fill="none" stroke="midnightblue" points="445.233,-603.882 451.557,-612.382 451.915,-601.794 445.233,-603.882"/>
</g>
<!-- Node3 -->
<g id="node3" class="node"><title>Node3</title>
<g id="a_node3"><a xlink:href="classspdlog_1_1sinks_1_1base__sink.html" target="_top" xlink:title="{spdlog::sinks::base\l_sink\&lt; Mutex \&gt;\n|# _mutex\l|+ base_sink()\l+ ~base_sink()\l+ base_sink()\l+ operator=()\l+ log()\l# _sink_it()\l}">
<polygon fill="none" stroke="black" points="490,-386.5 490,-509.5 591,-509.5 591,-386.5 490,-386.5"/>
<text text-anchor="start" x="498" y="-497.5" font-family="Helvetica,sans-Serif" font-size="10.00">spdlog::sinks::base</text>
<text text-anchor="middle" x="540.5" y="-486.5" font-family="Helvetica,sans-Serif" font-size="10.00">_sink&lt; Mutex &gt;</text>
<polyline fill="none" stroke="black" points="490,-479.5 591,-479.5 "/>
<text text-anchor="start" x="498" y="-467.5" font-family="Helvetica,sans-Serif" font-size="10.00"># _mutex</text>
<polyline fill="none" stroke="black" points="490,-460.5 591,-460.5 "/>
<text text-anchor="start" x="498" y="-448.5" font-family="Helvetica,sans-Serif" font-size="10.00">+ base_sink()</text>
<text text-anchor="start" x="498" y="-437.5" font-family="Helvetica,sans-Serif" font-size="10.00">+ ~base_sink()</text>
<text text-anchor="start" x="498" y="-426.5" font-family="Helvetica,sans-Serif" font-size="10.00">+ base_sink()</text>
<text text-anchor="start" x="498" y="-415.5" font-family="Helvetica,sans-Serif" font-size="10.00">+ operator=()</text>
<text text-anchor="start" x="498" y="-404.5" font-family="Helvetica,sans-Serif" font-size="10.00">+ log()</text>
<text text-anchor="start" x="498" y="-393.5" font-family="Helvetica,sans-Serif" font-size="10.00"># _sink_it()</text>
</a>
</g>
</g>
<!-- Node1&#45;&gt;Node3 -->
<g id="edge2" class="edge"><title>Node1&#45;&gt;Node3</title>
<path fill="none" stroke="midnightblue" d="M492.542,-602.466C501.854,-572.668 512.591,-538.309 521.542,-509.666"/>
<polygon fill="none" stroke="midnightblue" points="489.085,-601.794 489.443,-612.382 495.767,-603.882 489.085,-601.794"/>
</g>
<!-- Node4 -->
<g id="node4" class="node"><title>Node4</title>
<g id="a_node4"><a xlink:href="classspdlog_1_1sinks_1_1daily__file__sink.html" target="_top" xlink:title="{spdlog::sinks::daily\l_file_sink\&lt; Mutex \&gt;\n||+ daily_file_sink()\l+ flush()\l# _sink_it()\l}">
<polygon fill="none" stroke="black" points="0,-149.5 0,-239.5 103,-239.5 103,-149.5 0,-149.5"/>
<text text-anchor="start" x="8" y="-227.5" font-family="Helvetica,sans-Serif" font-size="10.00">spdlog::sinks::daily</text>
<text text-anchor="middle" x="51.5" y="-216.5" font-family="Helvetica,sans-Serif" font-size="10.00">_file_sink&lt; Mutex &gt;</text>
<polyline fill="none" stroke="black" points="0,-209.5 103,-209.5 "/>
<text text-anchor="middle" x="51.5" y="-197.5" font-family="Helvetica,sans-Serif" font-size="10.00"> </text>
<polyline fill="none" stroke="black" points="0,-190.5 103,-190.5 "/>
<text text-anchor="start" x="8" y="-178.5" font-family="Helvetica,sans-Serif" font-size="10.00">+ daily_file_sink()</text>
<text text-anchor="start" x="8" y="-167.5" font-family="Helvetica,sans-Serif" font-size="10.00">+ flush()</text>
<text text-anchor="start" x="8" y="-156.5" font-family="Helvetica,sans-Serif" font-size="10.00"># _sink_it()</text>
</a>
</g>
</g>
<!-- Node3&#45;&gt;Node4 -->
<g id="edge3" class="edge"><title>Node3&#45;&gt;Node4</title>
<path fill="none" stroke="midnightblue" d="M522.233,-376.727C513.174,-355.206 499.866,-333.636 480.5,-320 346.13,-225.389 254.09,-367.419 112.5,-284 95.1359,-273.77 81.5661,-256.42 71.6796,-239.779"/>
<polygon fill="none" stroke="midnightblue" points="519.062,-378.228 525.981,-386.252 525.576,-375.665 519.062,-378.228"/>
</g>
<!-- Node5 -->
<g id="node5" class="node"><title>Node5</title>
<g id="a_node5"><a xlink:href="classspdlog_1_1sinks_1_1dist__sink.html" target="_top" xlink:title="{spdlog::sinks::dist\l_sink\&lt; Mutex \&gt;\n|# _sinks\l|+ dist_sink()\l+ dist_sink()\l+ operator=()\l+ ~dist_sink()\l+ flush()\l+ add_sink()\l+ remove_sink()\l# _sink_it()\l}">
<polygon fill="none" stroke="black" points="121.5,-122 121.5,-267 217.5,-267 217.5,-122 121.5,-122"/>
<text text-anchor="start" x="129.5" y="-255" font-family="Helvetica,sans-Serif" font-size="10.00">spdlog::sinks::dist</text>
<text text-anchor="middle" x="169.5" y="-244" font-family="Helvetica,sans-Serif" font-size="10.00">_sink&lt; Mutex &gt;</text>
<polyline fill="none" stroke="black" points="121.5,-237 217.5,-237 "/>
<text text-anchor="start" x="129.5" y="-225" font-family="Helvetica,sans-Serif" font-size="10.00"># _sinks</text>
<polyline fill="none" stroke="black" points="121.5,-218 217.5,-218 "/>
<text text-anchor="start" x="129.5" y="-206" font-family="Helvetica,sans-Serif" font-size="10.00">+ dist_sink()</text>
<text text-anchor="start" x="129.5" y="-195" font-family="Helvetica,sans-Serif" font-size="10.00">+ dist_sink()</text>
<text text-anchor="start" x="129.5" y="-184" font-family="Helvetica,sans-Serif" font-size="10.00">+ operator=()</text>
<text text-anchor="start" x="129.5" y="-173" font-family="Helvetica,sans-Serif" font-size="10.00">+ ~dist_sink()</text>
<text text-anchor="start" x="129.5" y="-162" font-family="Helvetica,sans-Serif" font-size="10.00">+ flush()</text>
<text text-anchor="start" x="129.5" y="-151" font-family="Helvetica,sans-Serif" font-size="10.00">+ add_sink()</text>
<text text-anchor="start" x="129.5" y="-140" font-family="Helvetica,sans-Serif" font-size="10.00">+ remove_sink()</text>
<text text-anchor="start" x="129.5" y="-129" font-family="Helvetica,sans-Serif" font-size="10.00"># _sink_it()</text>
</a>
</g>
</g>
<!-- Node3&#45;&gt;Node5 -->
<g id="edge4" class="edge"><title>Node3&#45;&gt;Node5</title>
<path fill="none" stroke="midnightblue" d="M521.764,-376.918C512.683,-355.528 499.481,-333.988 480.5,-320 388.716,-252.357 322.51,-345.498 226.5,-284 219.421,-279.466 213.046,-273.703 207.349,-267.301"/>
<polygon fill="none" stroke="midnightblue" points="518.58,-378.383 525.53,-386.38 525.084,-375.794 518.58,-378.383"/>
</g>
<!-- Node6 -->
<g id="node6" class="node"><title>Node6</title>
<g id="a_node6"><a xlink:href="classspdlog_1_1sinks_1_1null__sink.html" target="_top" xlink:title="{spdlog::sinks::null\l_sink\&lt; Mutex \&gt;\n||# _sink_it()\l# flush()\l}">
<polygon fill="none" stroke="black" points="236,-155 236,-234 331,-234 331,-155 236,-155"/>
<text text-anchor="start" x="244" y="-222" font-family="Helvetica,sans-Serif" font-size="10.00">spdlog::sinks::null</text>
<text text-anchor="middle" x="283.5" y="-211" font-family="Helvetica,sans-Serif" font-size="10.00">_sink&lt; Mutex &gt;</text>
<polyline fill="none" stroke="black" points="236,-204 331,-204 "/>
<text text-anchor="middle" x="283.5" y="-192" font-family="Helvetica,sans-Serif" font-size="10.00"> </text>
<polyline fill="none" stroke="black" points="236,-185 331,-185 "/>
<text text-anchor="start" x="244" y="-173" font-family="Helvetica,sans-Serif" font-size="10.00"># _sink_it()</text>
<text text-anchor="start" x="244" y="-162" font-family="Helvetica,sans-Serif" font-size="10.00"># flush()</text>
</a>
</g>
</g>
<!-- Node3&#45;&gt;Node6 -->
<g id="edge5" class="edge"><title>Node3&#45;&gt;Node6</title>
<path fill="none" stroke="midnightblue" d="M520.331,-376.963C511.211,-356.027 498.349,-334.748 480.5,-320 430.973,-279.077 392.596,-321.598 340.5,-284 323.161,-271.487 309.765,-251.926 300.33,-234.373"/>
<polygon fill="none" stroke="midnightblue" points="517.095,-378.297 524.138,-386.213 523.569,-375.633 517.095,-378.297"/>
</g>
<!-- Node7 -->
<g id="node7" class="node"><title>Node7</title>
<g id="a_node7"><a xlink:href="classspdlog_1_1sinks_1_1ostream__sink.html" target="_top" xlink:title="{spdlog::sinks::ostream\l_sink\&lt; Mutex \&gt;\n|# _ostream\l# _force_flush\l|+ ostream_sink()\l+ ostream_sink()\l+ operator=()\l+ ~ostream_sink()\l# _sink_it()\l# flush()\l}">
<polygon fill="none" stroke="black" points="349.5,-127.5 349.5,-261.5 465.5,-261.5 465.5,-127.5 349.5,-127.5"/>
<text text-anchor="start" x="357.5" y="-249.5" font-family="Helvetica,sans-Serif" font-size="10.00">spdlog::sinks::ostream</text>
<text text-anchor="middle" x="407.5" y="-238.5" font-family="Helvetica,sans-Serif" font-size="10.00">_sink&lt; Mutex &gt;</text>
<polyline fill="none" stroke="black" points="349.5,-231.5 465.5,-231.5 "/>
<text text-anchor="start" x="357.5" y="-219.5" font-family="Helvetica,sans-Serif" font-size="10.00"># _ostream</text>
<text text-anchor="start" x="357.5" y="-208.5" font-family="Helvetica,sans-Serif" font-size="10.00"># _force_flush</text>
<polyline fill="none" stroke="black" points="349.5,-201.5 465.5,-201.5 "/>
<text text-anchor="start" x="357.5" y="-189.5" font-family="Helvetica,sans-Serif" font-size="10.00">+ ostream_sink()</text>
<text text-anchor="start" x="357.5" y="-178.5" font-family="Helvetica,sans-Serif" font-size="10.00">+ ostream_sink()</text>
<text text-anchor="start" x="357.5" y="-167.5" font-family="Helvetica,sans-Serif" font-size="10.00">+ operator=()</text>
<text text-anchor="start" x="357.5" y="-156.5" font-family="Helvetica,sans-Serif" font-size="10.00">+ ~ostream_sink()</text>
<text text-anchor="start" x="357.5" y="-145.5" font-family="Helvetica,sans-Serif" font-size="10.00"># _sink_it()</text>
<text text-anchor="start" x="357.5" y="-134.5" font-family="Helvetica,sans-Serif" font-size="10.00"># flush()</text>
</a>
</g>
</g>
<!-- Node3&#45;&gt;Node7 -->
<g id="edge6" class="edge"><title>Node3&#45;&gt;Node7</title>
<path fill="none" stroke="midnightblue" d="M508.931,-377.292C500.063,-358.525 490.188,-338.346 480.5,-320 470.38,-300.834 458.764,-280.406 447.819,-261.757"/>
<polygon fill="none" stroke="midnightblue" points="505.779,-378.814 513.199,-386.377 512.115,-375.838 505.779,-378.814"/>
</g>
<!-- Node8 -->
<g id="node8" class="node"><title>Node8</title>
<g id="a_node8"><a xlink:href="classspdlog_1_1sinks_1_1rotating__file__sink.html" target="_top" xlink:title="{spdlog::sinks::rotating\l_file_sink\&lt; Mutex \&gt;\n||+ rotating_file_sink()\l+ flush()\l# _sink_it()\l}">
<polygon fill="none" stroke="black" points="484,-149.5 484,-239.5 597,-239.5 597,-149.5 484,-149.5"/>
<text text-anchor="start" x="492" y="-227.5" font-family="Helvetica,sans-Serif" font-size="10.00">spdlog::sinks::rotating</text>
<text text-anchor="middle" x="540.5" y="-216.5" font-family="Helvetica,sans-Serif" font-size="10.00">_file_sink&lt; Mutex &gt;</text>
<polyline fill="none" stroke="black" points="484,-209.5 597,-209.5 "/>
<text text-anchor="middle" x="540.5" y="-197.5" font-family="Helvetica,sans-Serif" font-size="10.00"> </text>
<polyline fill="none" stroke="black" points="484,-190.5 597,-190.5 "/>
<text text-anchor="start" x="492" y="-178.5" font-family="Helvetica,sans-Serif" font-size="10.00">+ rotating_file_sink()</text>
<text text-anchor="start" x="492" y="-167.5" font-family="Helvetica,sans-Serif" font-size="10.00">+ flush()</text>
<text text-anchor="start" x="492" y="-156.5" font-family="Helvetica,sans-Serif" font-size="10.00"># _sink_it()</text>
</a>
</g>
</g>
<!-- Node3&#45;&gt;Node8 -->
<g id="edge7" class="edge"><title>Node3&#45;&gt;Node8</title>
<path fill="none" stroke="midnightblue" d="M540.5,-376.41C540.5,-332.562 540.5,-277.556 540.5,-239.777"/>
<polygon fill="none" stroke="midnightblue" points="537,-376.439 540.5,-386.439 544,-376.439 537,-376.439"/>
</g>
<!-- Node9 -->
<g id="node9" class="node"><title>Node9</title>
<g id="a_node9"><a xlink:href="classspdlog_1_1sinks_1_1simple__file__sink.html" target="_top" xlink:title="{spdlog::sinks::simple\l_file_sink\&lt; Mutex \&gt;\n||+ simple_file_sink()\l+ flush()\l+ set_force_flush()\l# _sink_it()\l}">
<polygon fill="none" stroke="black" points="615,-144 615,-245 724,-245 724,-144 615,-144"/>
<text text-anchor="start" x="623" y="-233" font-family="Helvetica,sans-Serif" font-size="10.00">spdlog::sinks::simple</text>
<text text-anchor="middle" x="669.5" y="-222" font-family="Helvetica,sans-Serif" font-size="10.00">_file_sink&lt; Mutex &gt;</text>
<polyline fill="none" stroke="black" points="615,-215 724,-215 "/>
<text text-anchor="middle" x="669.5" y="-203" font-family="Helvetica,sans-Serif" font-size="10.00"> </text>
<polyline fill="none" stroke="black" points="615,-196 724,-196 "/>
<text text-anchor="start" x="623" y="-184" font-family="Helvetica,sans-Serif" font-size="10.00">+ simple_file_sink()</text>
<text text-anchor="start" x="623" y="-173" font-family="Helvetica,sans-Serif" font-size="10.00">+ flush()</text>
<text text-anchor="start" x="623" y="-162" font-family="Helvetica,sans-Serif" font-size="10.00">+ set_force_flush()</text>
<text text-anchor="start" x="623" y="-151" font-family="Helvetica,sans-Serif" font-size="10.00"># _sink_it()</text>
</a>
</g>
</g>
<!-- Node3&#45;&gt;Node9 -->
<g id="edge8" class="edge"><title>Node3&#45;&gt;Node9</title>
<path fill="none" stroke="midnightblue" d="M576.201,-377.398C597.685,-335.51 624.535,-283.164 643.908,-245.394"/>
<polygon fill="none" stroke="midnightblue" points="573.013,-375.944 571.563,-386.439 579.241,-379.139 573.013,-375.944"/>
</g>
<!-- Node10 -->
<g id="node10" class="node"><title>Node10</title>
<g id="a_node10"><a xlink:href="classspdlog_1_1sinks_1_1stderr__sink.html" target="_top" xlink:title="{spdlog::sinks::stderr\l_sink\&lt; Mutex \&gt;\n||+ stderr_sink()\l+ _sink_it()\l+ flush()\l+ instance()\l}">
<polygon fill="none" stroke="black" points="742,-144 742,-245 847,-245 847,-144 742,-144"/>
<text text-anchor="start" x="750" y="-233" font-family="Helvetica,sans-Serif" font-size="10.00">spdlog::sinks::stderr</text>
<text text-anchor="middle" x="794.5" y="-222" font-family="Helvetica,sans-Serif" font-size="10.00">_sink&lt; Mutex &gt;</text>
<polyline fill="none" stroke="black" points="742,-215 847,-215 "/>
<text text-anchor="middle" x="794.5" y="-203" font-family="Helvetica,sans-Serif" font-size="10.00"> </text>
<polyline fill="none" stroke="black" points="742,-196 847,-196 "/>
<text text-anchor="start" x="750" y="-184" font-family="Helvetica,sans-Serif" font-size="10.00">+ stderr_sink()</text>
<text text-anchor="start" x="750" y="-173" font-family="Helvetica,sans-Serif" font-size="10.00">+ _sink_it()</text>
<text text-anchor="start" x="750" y="-162" font-family="Helvetica,sans-Serif" font-size="10.00">+ flush()</text>
<text text-anchor="start" x="750" y="-151" font-family="Helvetica,sans-Serif" font-size="10.00">+ instance()</text>
</a>
</g>
</g>
<!-- Node3&#45;&gt;Node10 -->
<g id="edge9" class="edge"><title>Node3&#45;&gt;Node10</title>
<path fill="none" stroke="midnightblue" d="M599.373,-403.455C639.244,-372.478 691.859,-328.598 732.5,-284 743.24,-272.214 753.684,-258.498 762.843,-245.433"/>
<polygon fill="none" stroke="midnightblue" points="597.1,-400.788 591.322,-409.669 601.377,-406.329 597.1,-400.788"/>
</g>
<!-- Node11 -->
<g id="node11" class="node"><title>Node11</title>
<g id="a_node11"><a xlink:href="classspdlog_1_1sinks_1_1stdout__sink.html" target="_top" xlink:title="{spdlog::sinks::stdout\l_sink\&lt; Mutex \&gt;\n||+ stdout_sink()\l+ _sink_it()\l+ flush()\l+ instance()\l}">
<polygon fill="none" stroke="black" points="865,-144 865,-245 972,-245 972,-144 865,-144"/>
<text text-anchor="start" x="873" y="-233" font-family="Helvetica,sans-Serif" font-size="10.00">spdlog::sinks::stdout</text>
<text text-anchor="middle" x="918.5" y="-222" font-family="Helvetica,sans-Serif" font-size="10.00">_sink&lt; Mutex &gt;</text>
<polyline fill="none" stroke="black" points="865,-215 972,-215 "/>
<text text-anchor="middle" x="918.5" y="-203" font-family="Helvetica,sans-Serif" font-size="10.00"> </text>
<polyline fill="none" stroke="black" points="865,-196 972,-196 "/>
<text text-anchor="start" x="873" y="-184" font-family="Helvetica,sans-Serif" font-size="10.00">+ stdout_sink()</text>
<text text-anchor="start" x="873" y="-173" font-family="Helvetica,sans-Serif" font-size="10.00">+ _sink_it()</text>
<text text-anchor="start" x="873" y="-162" font-family="Helvetica,sans-Serif" font-size="10.00">+ flush()</text>
<text text-anchor="start" x="873" y="-151" font-family="Helvetica,sans-Serif" font-size="10.00">+ instance()</text>
</a>
</g>
</g>
<!-- Node3&#45;&gt;Node11 -->
<g id="edge10" class="edge"><title>Node3&#45;&gt;Node11</title>
<path fill="none" stroke="midnightblue" d="M600.911,-425.72C668.352,-399.835 778.158,-351.131 855.5,-284 868.176,-272.997 879.653,-258.948 889.232,-245.301"/>
<polygon fill="none" stroke="midnightblue" points="599.387,-422.555 591.277,-429.373 601.869,-429.1 599.387,-422.555"/>
</g>
<!-- Node12 -->
<g id="node12" class="node"><title>Node12</title>
<g id="a_node12"><a xlink:href="classspdlog_1_1sinks_1_1wincolor__sink.html" target="_top" xlink:title="{spdlog::sinks::wincolor\l_sink\&lt; Mutex \&gt;\n|+ BOLD\l+ RED\l+ CYAN\l+ WHITE\l+ YELLOW\l|+ wincolor_sink()\l+ ~wincolor_sink()\l+ wincolor_sink()\l+ operator=()\l+ _sink_it()\l+ flush()\l+ set_color()\l}">
<polygon fill="none" stroke="black" points="990.5,-105.5 990.5,-283.5 1106.5,-283.5 1106.5,-105.5 990.5,-105.5"/>
<text text-anchor="start" x="998.5" y="-271.5" font-family="Helvetica,sans-Serif" font-size="10.00">spdlog::sinks::wincolor</text>
<text text-anchor="middle" x="1048.5" y="-260.5" font-family="Helvetica,sans-Serif" font-size="10.00">_sink&lt; Mutex &gt;</text>
<polyline fill="none" stroke="black" points="990.5,-253.5 1106.5,-253.5 "/>
<text text-anchor="start" x="998.5" y="-241.5" font-family="Helvetica,sans-Serif" font-size="10.00">+ BOLD</text>
<text text-anchor="start" x="998.5" y="-230.5" font-family="Helvetica,sans-Serif" font-size="10.00">+ RED</text>
<text text-anchor="start" x="998.5" y="-219.5" font-family="Helvetica,sans-Serif" font-size="10.00">+ CYAN</text>
<text text-anchor="start" x="998.5" y="-208.5" font-family="Helvetica,sans-Serif" font-size="10.00">+ WHITE</text>
<text text-anchor="start" x="998.5" y="-197.5" font-family="Helvetica,sans-Serif" font-size="10.00">+ YELLOW</text>
<polyline fill="none" stroke="black" points="990.5,-190.5 1106.5,-190.5 "/>
<text text-anchor="start" x="998.5" y="-178.5" font-family="Helvetica,sans-Serif" font-size="10.00">+ wincolor_sink()</text>
<text text-anchor="start" x="998.5" y="-167.5" font-family="Helvetica,sans-Serif" font-size="10.00">+ ~wincolor_sink()</text>
<text text-anchor="start" x="998.5" y="-156.5" font-family="Helvetica,sans-Serif" font-size="10.00">+ wincolor_sink()</text>
<text text-anchor="start" x="998.5" y="-145.5" font-family="Helvetica,sans-Serif" font-size="10.00">+ operator=()</text>
<text text-anchor="start" x="998.5" y="-134.5" font-family="Helvetica,sans-Serif" font-size="10.00">+ _sink_it()</text>
<text text-anchor="start" x="998.5" y="-123.5" font-family="Helvetica,sans-Serif" font-size="10.00">+ flush()</text>
<text text-anchor="start" x="998.5" y="-112.5" font-family="Helvetica,sans-Serif" font-size="10.00">+ set_color()</text>
</a>
</g>
</g>
<!-- Node3&#45;&gt;Node12 -->
<g id="edge11" class="edge"><title>Node3&#45;&gt;Node12</title>
<path fill="none" stroke="midnightblue" d="M601.291,-435.904C691.486,-417.082 862.842,-372.054 981.5,-284 984.44,-281.818 987.313,-279.472 990.113,-277"/>
<polygon fill="none" stroke="midnightblue" points="600.326,-432.529 591.232,-437.964 601.731,-439.386 600.326,-432.529"/>
</g>
<!-- Node13 -->
<g id="node13" class="node"><title>Node13</title>
<g id="a_node13"><a xlink:href="classspdlog_1_1sinks_1_1wincolor__stderr__sink.html" target="_top" xlink:title="{spdlog::sinks::wincolor\l_stderr_sink\&lt; Mutex \&gt;\n||+ wincolor_stderr_sink()\l}">
<polygon fill="none" stroke="black" points="918,-0.5 918,-68.5 1039,-68.5 1039,-0.5 918,-0.5"/>
<text text-anchor="start" x="926" y="-56.5" font-family="Helvetica,sans-Serif" font-size="10.00">spdlog::sinks::wincolor</text>
<text text-anchor="middle" x="978.5" y="-45.5" font-family="Helvetica,sans-Serif" font-size="10.00">_stderr_sink&lt; Mutex &gt;</text>
<polyline fill="none" stroke="black" points="918,-38.5 1039,-38.5 "/>
<text text-anchor="middle" x="978.5" y="-26.5" font-family="Helvetica,sans-Serif" font-size="10.00"> </text>
<polyline fill="none" stroke="black" points="918,-19.5 1039,-19.5 "/>
<text text-anchor="start" x="926" y="-7.5" font-family="Helvetica,sans-Serif" font-size="10.00">+ wincolor_stderr_sink()</text>
</a>
</g>
</g>
<!-- Node12&#45;&gt;Node13 -->
<g id="edge12" class="edge"><title>Node12&#45;&gt;Node13</title>
<path fill="none" stroke="midnightblue" d="M1005.26,-95.891C1000.97,-86.2228 996.863,-76.9488 993.206,-68.6942"/>
<polygon fill="none" stroke="midnightblue" points="1002.16,-97.5359 1009.41,-105.261 1008.56,-94.7004 1002.16,-97.5359"/>
</g>
<!-- Node14 -->
<g id="node14" class="node"><title>Node14</title>
<g id="a_node14"><a xlink:href="classspdlog_1_1sinks_1_1wincolor__stdout__sink.html" target="_top" xlink:title="{spdlog::sinks::wincolor\l_stdout_sink\&lt; Mutex \&gt;\n||+ wincolor_stdout_sink()\l}">
<polygon fill="none" stroke="black" points="1057,-0.5 1057,-68.5 1180,-68.5 1180,-0.5 1057,-0.5"/>
<text text-anchor="start" x="1065" y="-56.5" font-family="Helvetica,sans-Serif" font-size="10.00">spdlog::sinks::wincolor</text>
<text text-anchor="middle" x="1118.5" y="-45.5" font-family="Helvetica,sans-Serif" font-size="10.00">_stdout_sink&lt; Mutex &gt;</text>
<polyline fill="none" stroke="black" points="1057,-38.5 1180,-38.5 "/>
<text text-anchor="middle" x="1118.5" y="-26.5" font-family="Helvetica,sans-Serif" font-size="10.00"> </text>
<polyline fill="none" stroke="black" points="1057,-19.5 1180,-19.5 "/>
<text text-anchor="start" x="1065" y="-7.5" font-family="Helvetica,sans-Serif" font-size="10.00">+ wincolor_stdout_sink()</text>
</a>
</g>
</g>
<!-- Node12&#45;&gt;Node14 -->
<g id="edge13" class="edge"><title>Node12&#45;&gt;Node14</title>
<path fill="none" stroke="midnightblue" d="M1091.74,-95.891C1096.03,-86.2228 1100.14,-76.9488 1103.79,-68.6942"/>
<polygon fill="none" stroke="midnightblue" points="1088.44,-94.7004 1087.59,-105.261 1094.84,-97.5359 1088.44,-94.7004"/>
</g>
</g>
</svg>
