<?xml version="1.0" encoding="UTF-8" standalone="no"?>
<!DOCTYPE svg PUBLIC "-//W3C//DTD SVG 1.1//EN"
 "http://www.w3.org/Graphics/SVG/1.1/DTD/svg11.dtd">
<!-- Generated by graphviz version 2.38.0 (20140413.2041)
 -->
<!-- Title: XBot::SSLogger Pages: 1 -->
<svg width="268pt" height="397pt"
 viewBox="0.00 0.00 267.50 397.00" xmlns="http://www.w3.org/2000/svg" xmlns:xlink="http://www.w3.org/1999/xlink">
<g id="graph0" class="graph" transform="scale(1 1) rotate(0) translate(4 393)">
<title>XBot::SSLogger</title>
<!-- Node1 -->
<g id="node1" class="node"><title>Node1</title>
<polygon fill="#bfbfbf" stroke="black" points="82.5,-221.5 82.5,-388.5 186.5,-388.5 186.5,-221.5 82.5,-221.5"/>
<text text-anchor="middle" x="134.5" y="-376.5" font-family="Helvetica,sans-Serif" font-size="10.00">XBot::SSLogger</text>
<polyline fill="none" stroke="black" points="82.5,-369.5 186.5,-369.5 "/>
<text text-anchor="start" x="90.5" y="-357.5" font-family="Helvetica,sans-Serif" font-size="10.00"># _logger_name</text>
<text text-anchor="start" x="90.5" y="-346.5" font-family="Helvetica,sans-Serif" font-size="10.00"># _log_filename</text>
<text text-anchor="start" x="90.5" y="-335.5" font-family="Helvetica,sans-Serif" font-size="10.00"># _log_file_size</text>
<text text-anchor="start" x="90.5" y="-324.5" font-family="Helvetica,sans-Serif" font-size="10.00"># _log_max_files</text>
<polyline fill="none" stroke="black" points="82.5,-317.5 186.5,-317.5 "/>
<text text-anchor="start" x="90.5" y="-305.5" font-family="Helvetica,sans-Serif" font-size="10.00">+ SSLogger()</text>
<text text-anchor="start" x="90.5" y="-294.5" font-family="Helvetica,sans-Serif" font-size="10.00">+ setSeverityLevel()</text>
<text text-anchor="start" x="90.5" y="-283.5" font-family="Helvetica,sans-Serif" font-size="10.00">+ setHeader()</text>
<text text-anchor="start" x="90.5" y="-272.5" font-family="Helvetica,sans-Serif" font-size="10.00">+ log()</text>
<text text-anchor="start" x="90.5" y="-261.5" font-family="Helvetica,sans-Serif" font-size="10.00">+ endl()</text>
<text text-anchor="start" x="90.5" y="-250.5" font-family="Helvetica,sans-Serif" font-size="10.00"># info_internal()</text>
<text text-anchor="start" x="90.5" y="-239.5" font-family="Helvetica,sans-Serif" font-size="10.00"># warning_internal()</text>
<text text-anchor="start" x="90.5" y="-228.5" font-family="Helvetica,sans-Serif" font-size="10.00"># error_internal()</text>
</g>
<!-- Node2 -->
<g id="node2" class="node"><title>Node2</title>
<g id="a_node2"><a xlink:href="classXBot_1_1SSConsoleLogger.html" target="_top" xlink:title="{XBot::SSConsoleLogger\n||+ SSConsoleLogger()\l}">
<polygon fill="none" stroke="black" points="6,-127.5 6,-184.5 129,-184.5 129,-127.5 6,-127.5"/>
<text text-anchor="middle" x="67.5" y="-172.5" font-family="Helvetica,sans-Serif" font-size="10.00">XBot::SSConsoleLogger</text>
<polyline fill="none" stroke="black" points="6,-165.5 129,-165.5 "/>
<text text-anchor="middle" x="67.5" y="-153.5" font-family="Helvetica,sans-Serif" font-size="10.00"> </text>
<polyline fill="none" stroke="black" points="6,-146.5 129,-146.5 "/>
<text text-anchor="start" x="14" y="-134.5" font-family="Helvetica,sans-Serif" font-size="10.00">+ SSConsoleLogger()</text>
</a>
</g>
</g>
<!-- Node1&#45;&gt;Node2 -->
<g id="edge1" class="edge"><title>Node1&#45;&gt;Node2</title>
<path fill="none" stroke="midnightblue" d="M92.6905,-212.269C88.1753,-202.362 83.8752,-192.928 80.1471,-184.748"/>
<polygon fill="none" stroke="midnightblue" points="89.555,-213.829 96.8872,-221.476 95.9246,-210.925 89.555,-213.829"/>
</g>
<!-- Node4 -->
<g id="node4" class="node"><title>Node4</title>
<g id="a_node4"><a xlink:href="classXBot_1_1SSFileLogger.html" target="_top" xlink:title="{XBot::SSFileLogger\n||+ SSFileLogger()\l}">
<polygon fill="none" stroke="black" points="151,-127.5 151,-184.5 254,-184.5 254,-127.5 151,-127.5"/>
<text text-anchor="middle" x="202.5" y="-172.5" font-family="Helvetica,sans-Serif" font-size="10.00">XBot::SSFileLogger</text>
<polyline fill="none" stroke="black" points="151,-165.5 254,-165.5 "/>
<text text-anchor="middle" x="202.5" y="-153.5" font-family="Helvetica,sans-Serif" font-size="10.00"> </text>
<polyline fill="none" stroke="black" points="151,-146.5 254,-146.5 "/>
<text text-anchor="start" x="159" y="-134.5" font-family="Helvetica,sans-Serif" font-size="10.00">+ SSFileLogger()</text>
</a>
</g>
</g>
<!-- Node1&#45;&gt;Node4 -->
<g id="edge3" class="edge"><title>Node1&#45;&gt;Node4</title>
<path fill="none" stroke="midnightblue" d="M176.934,-212.269C181.516,-202.362 185.88,-192.928 189.664,-184.748"/>
<polygon fill="none" stroke="midnightblue" points="173.696,-210.931 172.674,-221.476 180.049,-213.87 173.696,-210.931"/>
</g>
<!-- Node3 -->
<g id="node3" class="node"><title>Node3</title>
<g id="a_node3"><a xlink:href="classXBot_1_1SPDConsoleLogger.html" target="_top" xlink:title="{XBot::SPDConsoleLogger\n||+ SPDConsoleLogger()\l# info_internal()\l# warning_internal()\l# error_internal()\l}">
<polygon fill="none" stroke="black" points="0,-0.5 0,-90.5 131,-90.5 131,-0.5 0,-0.5"/>
<text text-anchor="middle" x="65.5" y="-78.5" font-family="Helvetica,sans-Serif" font-size="10.00">XBot::SPDConsoleLogger</text>
<polyline fill="none" stroke="black" points="0,-71.5 131,-71.5 "/>
<text text-anchor="middle" x="65.5" y="-59.5" font-family="Helvetica,sans-Serif" font-size="10.00"> </text>
<polyline fill="none" stroke="black" points="0,-52.5 131,-52.5 "/>
<text text-anchor="start" x="8" y="-40.5" font-family="Helvetica,sans-Serif" font-size="10.00">+ SPDConsoleLogger()</text>
<text text-anchor="start" x="8" y="-29.5" font-family="Helvetica,sans-Serif" font-size="10.00"># info_internal()</text>
<text text-anchor="start" x="8" y="-18.5" font-family="Helvetica,sans-Serif" font-size="10.00"># warning_internal()</text>
<text text-anchor="start" x="8" y="-7.5" font-family="Helvetica,sans-Serif" font-size="10.00"># error_internal()</text>
</a>
</g>
</g>
<!-- Node2&#45;&gt;Node3 -->
<g id="edge2" class="edge"><title>Node2&#45;&gt;Node3</title>
<path fill="none" stroke="midnightblue" d="M66.8035,-117.214C66.6449,-108.609 66.475,-99.3943 66.3121,-90.5541"/>
<polygon fill="none" stroke="midnightblue" points="63.3063,-117.406 66.9901,-127.34 70.3051,-117.277 63.3063,-117.406"/>
</g>
<!-- Node5 -->
<g id="node5" class="node"><title>Node5</title>
<g id="a_node5"><a xlink:href="classXBot_1_1SPDFileLogger.html" target="_top" xlink:title="{XBot::SPDFileLogger\n||+ SPDFileLogger()\l# info_internal()\l# warning_internal()\l# error_internal()\l}">
<polygon fill="none" stroke="black" points="149.5,-0.5 149.5,-90.5 259.5,-90.5 259.5,-0.5 149.5,-0.5"/>
<text text-anchor="middle" x="204.5" y="-78.5" font-family="Helvetica,sans-Serif" font-size="10.00">XBot::SPDFileLogger</text>
<polyline fill="none" stroke="black" points="149.5,-71.5 259.5,-71.5 "/>
<text text-anchor="middle" x="204.5" y="-59.5" font-family="Helvetica,sans-Serif" font-size="10.00"> </text>
<polyline fill="none" stroke="black" points="149.5,-52.5 259.5,-52.5 "/>
<text text-anchor="start" x="157.5" y="-40.5" font-family="Helvetica,sans-Serif" font-size="10.00">+ SPDFileLogger()</text>
<text text-anchor="start" x="157.5" y="-29.5" font-family="Helvetica,sans-Serif" font-size="10.00"># info_internal()</text>
<text text-anchor="start" x="157.5" y="-18.5" font-family="Helvetica,sans-Serif" font-size="10.00"># warning_internal()</text>
<text text-anchor="start" x="157.5" y="-7.5" font-family="Helvetica,sans-Serif" font-size="10.00"># error_internal()</text>
</a>
</g>
</g>
<!-- Node4&#45;&gt;Node5 -->
<g id="edge4" class="edge"><title>Node4&#45;&gt;Node5</title>
<path fill="none" stroke="midnightblue" d="M203.197,-117.214C203.355,-108.609 203.525,-99.3943 203.688,-90.5541"/>
<polygon fill="none" stroke="midnightblue" points="199.695,-117.277 203.01,-127.34 206.694,-117.406 199.695,-117.277"/>
</g>
</g>
</svg>
