<?xml version="1.0" encoding="UTF-8" standalone="no"?>
<!DOCTYPE svg PUBLIC "-//W3C//DTD SVG 1.1//EN"
 "http://www.w3.org/Graphics/SVG/1.1/DTD/svg11.dtd">
<!-- Generated by graphviz version 2.38.0 (20140413.2041)
 -->
<!-- Title: spdlog::logger Pages: 1 -->
<svg width="220pt" height="486pt"
 viewBox="0.00 0.00 219.50 486.00" xmlns="http://www.w3.org/2000/svg" xmlns:xlink="http://www.w3.org/1999/xlink">
<g id="graph0" class="graph" transform="scale(1 1) rotate(0) translate(4 482)">
<title>spdlog::logger</title>
<!-- Node1 -->
<g id="node1" class="node"><title>Node1</title>
<polygon fill="#bfbfbf" stroke="black" points="39.5,-0.5 39.5,-266.5 158.5,-266.5 158.5,-0.5 39.5,-0.5"/>
<text text-anchor="middle" x="99" y="-254.5" font-family="Helvetica,sans-Serif" font-size="10.00">spdlog::logger</text>
<polyline fill="none" stroke="black" points="39.5,-247.5 158.5,-247.5 "/>
<text text-anchor="start" x="47.5" y="-235.5" font-family="Helvetica,sans-Serif" font-size="10.00"># _formatter</text>
<text text-anchor="start" x="47.5" y="-224.5" font-family="Helvetica,sans-Serif" font-size="10.00"># _level</text>
<text text-anchor="start" x="47.5" y="-213.5" font-family="Helvetica,sans-Serif" font-size="10.00"># _flush_level</text>
<text text-anchor="start" x="47.5" y="-202.5" font-family="Helvetica,sans-Serif" font-size="10.00"># _err_handler</text>
<text text-anchor="start" x="47.5" y="-191.5" font-family="Helvetica,sans-Serif" font-size="10.00"># _last_err_time</text>
<polyline fill="none" stroke="black" points="39.5,-184.5 158.5,-184.5 "/>
<text text-anchor="start" x="47.5" y="-172.5" font-family="Helvetica,sans-Serif" font-size="10.00">+ logger()</text>
<text text-anchor="start" x="47.5" y="-161.5" font-family="Helvetica,sans-Serif" font-size="10.00">+ logger()</text>
<text text-anchor="start" x="47.5" y="-150.5" font-family="Helvetica,sans-Serif" font-size="10.00">+ logger()</text>
<text text-anchor="start" x="47.5" y="-139.5" font-family="Helvetica,sans-Serif" font-size="10.00">+ ~logger()</text>
<text text-anchor="start" x="47.5" y="-128.5" font-family="Helvetica,sans-Serif" font-size="10.00">+ logger()</text>
<text text-anchor="start" x="47.5" y="-117.5" font-family="Helvetica,sans-Serif" font-size="10.00">+ operator=()</text>
<text text-anchor="start" x="47.5" y="-106.5" font-family="Helvetica,sans-Serif" font-size="10.00">+ log()</text>
<text text-anchor="start" x="47.5" y="-95.5" font-family="Helvetica,sans-Serif" font-size="10.00">+ log()</text>
<text text-anchor="start" x="47.5" y="-84.5" font-family="Helvetica,sans-Serif" font-size="10.00">+ trace()</text>
<text text-anchor="start" x="47.5" y="-73.5" font-family="Helvetica,sans-Serif" font-size="10.00">+ debug()</text>
<text text-anchor="start" x="47.5" y="-62.5" font-family="Helvetica,sans-Serif" font-size="10.00">and 22 more...</text>
<text text-anchor="start" x="47.5" y="-51.5" font-family="Helvetica,sans-Serif" font-size="10.00"># _sink_it()</text>
<text text-anchor="start" x="47.5" y="-40.5" font-family="Helvetica,sans-Serif" font-size="10.00"># _set_pattern()</text>
<text text-anchor="start" x="47.5" y="-29.5" font-family="Helvetica,sans-Serif" font-size="10.00"># _set_formatter()</text>
<text text-anchor="start" x="47.5" y="-18.5" font-family="Helvetica,sans-Serif" font-size="10.00"># _default_err_handler()</text>
<text text-anchor="start" x="47.5" y="-7.5" font-family="Helvetica,sans-Serif" font-size="10.00"># _should_flush_on()</text>
</g>
<!-- Node2 -->
<g id="node2" class="node"><title>Node2</title>
<polygon fill="none" stroke="#bfbfbf" points="0,-314.5 0,-371.5 116,-371.5 116,-314.5 0,-314.5"/>
<text text-anchor="middle" x="58" y="-359.5" font-family="Helvetica,sans-Serif" font-size="10.00">std::vector&lt; sink_ptr &gt;</text>
<polyline fill="none" stroke="#bfbfbf" points="0,-352.5 116,-352.5 "/>
<text text-anchor="start" x="8" y="-340.5" font-family="Helvetica,sans-Serif" font-size="10.00">+ elements</text>
<polyline fill="none" stroke="#bfbfbf" points="0,-333.5 116,-333.5 "/>
<text text-anchor="middle" x="58" y="-321.5" font-family="Helvetica,sans-Serif" font-size="10.00"> </text>
</g>
<!-- Node2&#45;&gt;Node1 -->
<g id="edge1" class="edge"><title>Node2&#45;&gt;Node1</title>
<path fill="none" stroke="#404040" d="M63.4445,-314.446C65.4494,-304.299 67.8824,-291.985 70.5249,-278.612"/>
<polygon fill="none" stroke="#404040" points="70.5693,-278.387 67.8083,-271.725 72.8955,-266.614 75.6565,-273.276 70.5693,-278.387"/>
<text text-anchor="middle" x="87.5" y="-288" font-family="Helvetica,sans-Serif" font-size="10.00"> #_sinks</text>
</g>
<!-- Node3 -->
<g id="node3" class="node"><title>Node3</title>
<g id="a_node3"><a xlink:title="STL class. ">
<polygon fill="none" stroke="#bfbfbf" points="134,-314.5 134,-371.5 194,-371.5 194,-314.5 134,-314.5"/>
<text text-anchor="middle" x="164" y="-359.5" font-family="Helvetica,sans-Serif" font-size="10.00">std::string</text>
<polyline fill="none" stroke="#bfbfbf" points="134,-352.5 194,-352.5 "/>
<text text-anchor="middle" x="164" y="-340.5" font-family="Helvetica,sans-Serif" font-size="10.00"> </text>
<polyline fill="none" stroke="#bfbfbf" points="134,-333.5 194,-333.5 "/>
<text text-anchor="middle" x="164" y="-321.5" font-family="Helvetica,sans-Serif" font-size="10.00"> </text>
</a>
</g>
</g>
<!-- Node3&#45;&gt;Node1 -->
<g id="edge2" class="edge"><title>Node3&#45;&gt;Node1</title>
<path fill="none" stroke="#404040" d="M155.369,-314.446C152.158,-304.197 148.255,-291.736 144.016,-278.206"/>
<polygon fill="none" stroke="#404040" points="143.972,-278.066 138.362,-273.536 140.385,-266.614 145.996,-271.144 143.972,-278.066"/>
<text text-anchor="middle" x="167" y="-288" font-family="Helvetica,sans-Serif" font-size="10.00"> #_name</text>
</g>
<!-- Node4 -->
<g id="node4" class="node"><title>Node4</title>
<g id="a_node4"><a xlink:title="STL class. ">
<polygon fill="none" stroke="#bfbfbf" points="116.5,-409.5 116.5,-477.5 211.5,-477.5 211.5,-409.5 116.5,-409.5"/>
<text text-anchor="start" x="124.5" y="-465.5" font-family="Helvetica,sans-Serif" font-size="10.00">std::basic_string&lt;</text>
<text text-anchor="middle" x="164" y="-454.5" font-family="Helvetica,sans-Serif" font-size="10.00"> char &gt;</text>
<polyline fill="none" stroke="#bfbfbf" points="116.5,-447.5 211.5,-447.5 "/>
<text text-anchor="middle" x="164" y="-435.5" font-family="Helvetica,sans-Serif" font-size="10.00"> </text>
<polyline fill="none" stroke="#bfbfbf" points="116.5,-428.5 211.5,-428.5 "/>
<text text-anchor="middle" x="164" y="-416.5" font-family="Helvetica,sans-Serif" font-size="10.00"> </text>
</a>
</g>
</g>
<!-- Node4&#45;&gt;Node3 -->
<g id="edge3" class="edge"><title>Node4&#45;&gt;Node3</title>
<path fill="none" stroke="midnightblue" d="M164,-399.375C164,-389.94 164,-380.201 164,-371.571"/>
<polygon fill="none" stroke="midnightblue" points="160.5,-399.427 164,-409.427 167.5,-399.427 160.5,-399.427"/>
</g>
</g>
</svg>
