<?xml version="1.0" encoding="UTF-8" standalone="no"?>
<!DOCTYPE svg PUBLIC "-//W3C//DTD SVG 1.1//EN"
 "http://www.w3.org/Graphics/SVG/1.1/DTD/svg11.dtd">
<!-- Generated by graphviz version 2.38.0 (20140413.2041)
 -->
<!-- Title: spdlog::sinks::ansicolor_sink Pages: 1 -->
<svg width="330pt" height="657pt"
 viewBox="0.00 0.00 330.00 657.00" xmlns="http://www.w3.org/2000/svg" xmlns:xlink="http://www.w3.org/1999/xlink">
<g id="graph0" class="graph" transform="scale(1 1) rotate(0) translate(4 653)">
<title>spdlog::sinks::ansicolor_sink</title>
<!-- Node1 -->
<g id="node1" class="node"><title>Node1</title>
<polygon fill="#bfbfbf" stroke="black" points="62.5,-0.5 62.5,-266.5 205.5,-266.5 205.5,-0.5 62.5,-0.5"/>
<text text-anchor="middle" x="134" y="-254.5" font-family="Helvetica,sans-Serif" font-size="10.00">spdlog::sinks::ansicolor_sink</text>
<polyline fill="none" stroke="black" points="62.5,-247.5 205.5,-247.5 "/>
<text text-anchor="start" x="70.5" y="-235.5" font-family="Helvetica,sans-Serif" font-size="10.00">+ reset</text>
<text text-anchor="start" x="70.5" y="-224.5" font-family="Helvetica,sans-Serif" font-size="10.00">+ bold</text>
<text text-anchor="start" x="70.5" y="-213.5" font-family="Helvetica,sans-Serif" font-size="10.00">+ dark</text>
<text text-anchor="start" x="70.5" y="-202.5" font-family="Helvetica,sans-Serif" font-size="10.00">+ blink</text>
<text text-anchor="start" x="70.5" y="-191.5" font-family="Helvetica,sans-Serif" font-size="10.00">+ concealed</text>
<text text-anchor="start" x="70.5" y="-180.5" font-family="Helvetica,sans-Serif" font-size="10.00">+ magenta</text>
<text text-anchor="start" x="70.5" y="-169.5" font-family="Helvetica,sans-Serif" font-size="10.00">+ cyan</text>
<text text-anchor="start" x="70.5" y="-158.5" font-family="Helvetica,sans-Serif" font-size="10.00">+ white</text>
<text text-anchor="start" x="70.5" y="-147.5" font-family="Helvetica,sans-Serif" font-size="10.00">+ on_grey</text>
<text text-anchor="start" x="70.5" y="-136.5" font-family="Helvetica,sans-Serif" font-size="10.00">+ on_red</text>
<text text-anchor="start" x="70.5" y="-125.5" font-family="Helvetica,sans-Serif" font-size="10.00">+ on_green</text>
<text text-anchor="start" x="70.5" y="-114.5" font-family="Helvetica,sans-Serif" font-size="10.00">+ on_yellow</text>
<text text-anchor="start" x="70.5" y="-103.5" font-family="Helvetica,sans-Serif" font-size="10.00">+ on_blue</text>
<text text-anchor="start" x="70.5" y="-92.5" font-family="Helvetica,sans-Serif" font-size="10.00"># sink_</text>
<polyline fill="none" stroke="black" points="62.5,-85.5 205.5,-85.5 "/>
<text text-anchor="start" x="70.5" y="-73.5" font-family="Helvetica,sans-Serif" font-size="10.00">+ ansicolor_sink()</text>
<text text-anchor="start" x="70.5" y="-62.5" font-family="Helvetica,sans-Serif" font-size="10.00">+ ~ansicolor_sink()</text>
<text text-anchor="start" x="70.5" y="-51.5" font-family="Helvetica,sans-Serif" font-size="10.00">+ ansicolor_sink()</text>
<text text-anchor="start" x="70.5" y="-40.5" font-family="Helvetica,sans-Serif" font-size="10.00">+ operator=()</text>
<text text-anchor="start" x="70.5" y="-29.5" font-family="Helvetica,sans-Serif" font-size="10.00">+ log()</text>
<text text-anchor="start" x="70.5" y="-18.5" font-family="Helvetica,sans-Serif" font-size="10.00">+ flush()</text>
<text text-anchor="start" x="70.5" y="-7.5" font-family="Helvetica,sans-Serif" font-size="10.00">+ set_color()</text>
</g>
<!-- Node2 -->
<g id="node2" class="node"><title>Node2</title>
<g id="a_node2"><a xlink:href="classspdlog_1_1sinks_1_1sink.html" target="_top" xlink:title="{spdlog::sinks::sink\n||+ sink()\l+ ~sink()\l+ log()\l+ flush()\l+ should_log()\l+ set_level()\l+ level()\l}">
<polygon fill="none" stroke="black" points="0,-314.5 0,-437.5 98,-437.5 98,-314.5 0,-314.5"/>
<text text-anchor="middle" x="49" y="-425.5" font-family="Helvetica,sans-Serif" font-size="10.00">spdlog::sinks::sink</text>
<polyline fill="none" stroke="black" points="0,-418.5 98,-418.5 "/>
<text text-anchor="middle" x="49" y="-406.5" font-family="Helvetica,sans-Serif" font-size="10.00"> </text>
<polyline fill="none" stroke="black" points="0,-399.5 98,-399.5 "/>
<text text-anchor="start" x="8" y="-387.5" font-family="Helvetica,sans-Serif" font-size="10.00">+ sink()</text>
<text text-anchor="start" x="8" y="-376.5" font-family="Helvetica,sans-Serif" font-size="10.00">+ ~sink()</text>
<text text-anchor="start" x="8" y="-365.5" font-family="Helvetica,sans-Serif" font-size="10.00">+ log()</text>
<text text-anchor="start" x="8" y="-354.5" font-family="Helvetica,sans-Serif" font-size="10.00">+ flush()</text>
<text text-anchor="start" x="8" y="-343.5" font-family="Helvetica,sans-Serif" font-size="10.00">+ should_log()</text>
<text text-anchor="start" x="8" y="-332.5" font-family="Helvetica,sans-Serif" font-size="10.00">+ set_level()</text>
<text text-anchor="start" x="8" y="-321.5" font-family="Helvetica,sans-Serif" font-size="10.00">+ level()</text>
</a>
</g>
</g>
<!-- Node2&#45;&gt;Node1 -->
<g id="edge1" class="edge"><title>Node2&#45;&gt;Node1</title>
<path fill="none" stroke="midnightblue" d="M73.8192,-304.776C78.1049,-292.65 82.6824,-279.699 87.3271,-266.557"/>
<polygon fill="none" stroke="midnightblue" points="70.4815,-303.717 70.4491,-314.312 77.0814,-306.05 70.4815,-303.717"/>
</g>
<!-- Node3 -->
<g id="node3" class="node"><title>Node3</title>
<g id="a_node3"><a xlink:title="STL class. ">
<polygon fill="none" stroke="#bfbfbf" points="120,-485.5 120,-542.5 180,-542.5 180,-485.5 120,-485.5"/>
<text text-anchor="middle" x="150" y="-530.5" font-family="Helvetica,sans-Serif" font-size="10.00">std::string</text>
<polyline fill="none" stroke="#bfbfbf" points="120,-523.5 180,-523.5 "/>
<text text-anchor="middle" x="150" y="-511.5" font-family="Helvetica,sans-Serif" font-size="10.00"> </text>
<polyline fill="none" stroke="#bfbfbf" points="120,-504.5 180,-504.5 "/>
<text text-anchor="middle" x="150" y="-492.5" font-family="Helvetica,sans-Serif" font-size="10.00"> </text>
</a>
</g>
</g>
<!-- Node3&#45;&gt;Node1 -->
<g id="edge2" class="edge"><title>Node3&#45;&gt;Node1</title>
<path fill="none" stroke="#404040" d="M146.987,-485.251C145.56,-471.122 143.962,-453.663 143,-438 139.82,-386.233 137.755,-329.428 136.417,-279.104"/>
<polygon fill="none" stroke="#404040" points="136.409,-278.79 132.257,-272.895 136.101,-266.794 140.254,-272.69 136.409,-278.79"/>
<text text-anchor="middle" x="173" y="-428.5" font-family="Helvetica,sans-Serif" font-size="10.00"> +reverse</text>
<text text-anchor="middle" x="173" y="-417.5" font-family="Helvetica,sans-Serif" font-size="10.00">+on_cyan</text>
<text text-anchor="middle" x="173" y="-406.5" font-family="Helvetica,sans-Serif" font-size="10.00">+yellow</text>
<text text-anchor="middle" x="173" y="-395.5" font-family="Helvetica,sans-Serif" font-size="10.00">+red</text>
<text text-anchor="middle" x="173" y="-384.5" font-family="Helvetica,sans-Serif" font-size="10.00">+underline</text>
<text text-anchor="middle" x="173" y="-373.5" font-family="Helvetica,sans-Serif" font-size="10.00">+blue</text>
<text text-anchor="middle" x="173" y="-362.5" font-family="Helvetica,sans-Serif" font-size="10.00">+green</text>
<text text-anchor="middle" x="173" y="-351.5" font-family="Helvetica,sans-Serif" font-size="10.00">+grey</text>
<text text-anchor="middle" x="173" y="-340.5" font-family="Helvetica,sans-Serif" font-size="10.00">+on_magenta</text>
<text text-anchor="middle" x="173" y="-329.5" font-family="Helvetica,sans-Serif" font-size="10.00">+on_white</text>
<text text-anchor="middle" x="173" y="-318.5" font-family="Helvetica,sans-Serif" font-size="10.00">...</text>
</g>
<!-- Node5 -->
<g id="node5" class="node"><title>Node5</title>
<polygon fill="none" stroke="#bfbfbf" points="212,-342 212,-410 322,-410 322,-342 212,-342"/>
<text text-anchor="start" x="220" y="-398" font-family="Helvetica,sans-Serif" font-size="10.00">std::map&lt; level::level</text>
<text text-anchor="middle" x="267" y="-387" font-family="Helvetica,sans-Serif" font-size="10.00">_enum, std::string &gt;</text>
<polyline fill="none" stroke="#bfbfbf" points="212,-380 322,-380 "/>
<text text-anchor="start" x="220" y="-368" font-family="Helvetica,sans-Serif" font-size="10.00">+ keys</text>
<polyline fill="none" stroke="#bfbfbf" points="212,-361 322,-361 "/>
<text text-anchor="middle" x="267" y="-349" font-family="Helvetica,sans-Serif" font-size="10.00"> </text>
</g>
<!-- Node3&#45;&gt;Node5 -->
<g id="edge5" class="edge"><title>Node3&#45;&gt;Node5</title>
<path fill="none" stroke="#404040" d="M173.677,-485.478C189.963,-466.547 211.911,-441.035 230.43,-419.508"/>
<polygon fill="none" stroke="#404040" points="230.571,-419.345 231.452,-412.187 238.397,-410.248 237.517,-417.405 230.571,-419.345"/>
<text text-anchor="middle" x="222.5" y="-459" font-family="Helvetica,sans-Serif" font-size="10.00"> +elements</text>
</g>
<!-- Node4 -->
<g id="node4" class="node"><title>Node4</title>
<g id="a_node4"><a xlink:title="STL class. ">
<polygon fill="none" stroke="#bfbfbf" points="102.5,-580.5 102.5,-648.5 197.5,-648.5 197.5,-580.5 102.5,-580.5"/>
<text text-anchor="start" x="110.5" y="-636.5" font-family="Helvetica,sans-Serif" font-size="10.00">std::basic_string&lt;</text>
<text text-anchor="middle" x="150" y="-625.5" font-family="Helvetica,sans-Serif" font-size="10.00"> char &gt;</text>
<polyline fill="none" stroke="#bfbfbf" points="102.5,-618.5 197.5,-618.5 "/>
<text text-anchor="middle" x="150" y="-606.5" font-family="Helvetica,sans-Serif" font-size="10.00"> </text>
<polyline fill="none" stroke="#bfbfbf" points="102.5,-599.5 197.5,-599.5 "/>
<text text-anchor="middle" x="150" y="-587.5" font-family="Helvetica,sans-Serif" font-size="10.00"> </text>
</a>
</g>
</g>
<!-- Node4&#45;&gt;Node3 -->
<g id="edge3" class="edge"><title>Node4&#45;&gt;Node3</title>
<path fill="none" stroke="midnightblue" d="M150,-570.375C150,-560.94 150,-551.201 150,-542.571"/>
<polygon fill="none" stroke="midnightblue" points="146.5,-570.427 150,-580.427 153.5,-570.427 146.5,-570.427"/>
</g>
<!-- Node5&#45;&gt;Node1 -->
<g id="edge4" class="edge"><title>Node5&#45;&gt;Node1</title>
<path fill="none" stroke="#404040" d="M248.647,-341.812C238.608,-323.659 225.414,-299.801 211.561,-274.751"/>
<polygon fill="none" stroke="#404040" points="211.398,-274.457 204.994,-271.142 205.591,-263.956 211.995,-267.271 211.398,-274.457"/>
<text text-anchor="middle" x="240" y="-288" font-family="Helvetica,sans-Serif" font-size="10.00"> #colors_</text>
</g>
</g>
</svg>
