<?xml version="1.0" encoding="UTF-8" standalone="no"?>
<!DOCTYPE svg PUBLIC "-//W3C//DTD SVG 1.1//EN"
 "http://www.w3.org/Graphics/SVG/1.1/DTD/svg11.dtd">
<!-- Generated by graphviz version 2.38.0 (20140413.2041)
 -->
<!-- Title: fmt::internal::CharTraits&lt; wchar_t &gt; Pages: 1 -->
<svg width="128pt" height="215pt"
 viewBox="0.00 0.00 128.00 215.00" xmlns="http://www.w3.org/2000/svg" xmlns:xlink="http://www.w3.org/1999/xlink">
<g id="graph0" class="graph" transform="scale(1 1) rotate(0) translate(4 211)">
<title>fmt::internal::CharTraits&lt; wchar_t &gt;</title>
<!-- Node1 -->
<g id="node1" class="node"><title>Node1</title>
<polygon fill="#bfbfbf" stroke="black" points="-7.10543e-15,-0.5 -7.10543e-15,-101.5 120,-101.5 120,-0.5 -7.10543e-15,-0.5"/>
<text text-anchor="start" x="8" y="-89.5" font-family="Helvetica,sans-Serif" font-size="10.00">fmt::internal::CharTraits</text>
<text text-anchor="middle" x="60" y="-78.5" font-family="Helvetica,sans-Serif" font-size="10.00">&lt; wchar_t &gt;</text>
<polyline fill="none" stroke="black" points="-7.10543e-15,-71.5 120,-71.5 "/>
<text text-anchor="middle" x="60" y="-59.5" font-family="Helvetica,sans-Serif" font-size="10.00"> </text>
<polyline fill="none" stroke="black" points="-7.10543e-15,-52.5 120,-52.5 "/>
<text text-anchor="start" x="8" y="-40.5" font-family="Helvetica,sans-Serif" font-size="10.00">+ format_float()</text>
<text text-anchor="start" x="8" y="-29.5" font-family="Helvetica,sans-Serif" font-size="10.00">+ convert()</text>
<text text-anchor="start" x="8" y="-18.5" font-family="Helvetica,sans-Serif" font-size="10.00">+ convert()</text>
<text text-anchor="start" x="8" y="-7.5" font-family="Helvetica,sans-Serif" font-size="10.00">+ format_float()</text>
</g>
<!-- Node2 -->
<g id="node2" class="node"><title>Node2</title>
<g id="a_node2"><a xlink:href="classfmt_1_1internal_1_1BasicCharTraits.html" target="_top" xlink:title="{fmt::internal::BasicChar\lTraits\&lt; wchar_t \&gt;\n||+ cast()\l}">
<polygon fill="none" stroke="black" points="-7.10543e-15,-138.5 -7.10543e-15,-206.5 120,-206.5 120,-138.5 -7.10543e-15,-138.5"/>
<text text-anchor="start" x="8" y="-194.5" font-family="Helvetica,sans-Serif" font-size="10.00">fmt::internal::BasicChar</text>
<text text-anchor="middle" x="60" y="-183.5" font-family="Helvetica,sans-Serif" font-size="10.00">Traits&lt; wchar_t &gt;</text>
<polyline fill="none" stroke="black" points="-7.10543e-15,-176.5 120,-176.5 "/>
<text text-anchor="middle" x="60" y="-164.5" font-family="Helvetica,sans-Serif" font-size="10.00"> </text>
<polyline fill="none" stroke="black" points="-7.10543e-15,-157.5 120,-157.5 "/>
<text text-anchor="start" x="8" y="-145.5" font-family="Helvetica,sans-Serif" font-size="10.00">+ cast()</text>
</a>
</g>
</g>
<!-- Node2&#45;&gt;Node1 -->
<g id="edge1" class="edge"><title>Node2&#45;&gt;Node1</title>
<path fill="none" stroke="midnightblue" d="M60,-128.045C60,-119.469 60,-110.408 60,-101.646"/>
<polygon fill="none" stroke="midnightblue" points="56.5001,-128.213 60,-138.213 63.5001,-128.213 56.5001,-128.213"/>
</g>
</g>
</svg>
