<?xml version="1.0" encoding="UTF-8" standalone="no"?>
<!DOCTYPE svg PUBLIC "-//W3C//DTD SVG 1.1//EN"
 "http://www.w3.org/Graphics/SVG/1.1/DTD/svg11.dtd">
<!-- Generated by graphviz version 2.38.0 (20140413.2041)
 -->
<!-- Title: fmt::BasicWriter&lt; Char &gt; Pages: 1 -->
<svg width="260pt" height="303pt"
 viewBox="0.00 0.00 260.00 303.00" xmlns="http://www.w3.org/2000/svg" xmlns:xlink="http://www.w3.org/1999/xlink">
<g id="graph0" class="graph" transform="scale(1 1) rotate(0) translate(4 299)">
<title>fmt::BasicWriter&lt; Char &gt;</title>
<!-- Node1 -->
<g id="node1" class="node"><title>Node1</title>
<polygon fill="#bfbfbf" stroke="black" points="59,-116.5 59,-294.5 186,-294.5 186,-116.5 59,-116.5"/>
<text text-anchor="middle" x="122.5" y="-282.5" font-family="Helvetica,sans-Serif" font-size="10.00">fmt::BasicWriter&lt; Char &gt;</text>
<polyline fill="none" stroke="black" points="59,-275.5 186,-275.5 "/>
<text text-anchor="middle" x="122.5" y="-263.5" font-family="Helvetica,sans-Serif" font-size="10.00"> </text>
<polyline fill="none" stroke="black" points="59,-256.5 186,-256.5 "/>
<text text-anchor="start" x="67" y="-244.5" font-family="Helvetica,sans-Serif" font-size="10.00">+ ~BasicWriter()</text>
<text text-anchor="start" x="67" y="-233.5" font-family="Helvetica,sans-Serif" font-size="10.00">+ size()</text>
<text text-anchor="start" x="67" y="-222.5" font-family="Helvetica,sans-Serif" font-size="10.00">+ data()</text>
<text text-anchor="start" x="67" y="-211.5" font-family="Helvetica,sans-Serif" font-size="10.00">+ c_str()</text>
<text text-anchor="start" x="67" y="-200.5" font-family="Helvetica,sans-Serif" font-size="10.00">+ str()</text>
<text text-anchor="start" x="67" y="-189.5" font-family="Helvetica,sans-Serif" font-size="10.00">+ write()</text>
<text text-anchor="start" x="67" y="-178.5" font-family="Helvetica,sans-Serif" font-size="10.00">+ operator&lt;&lt;()</text>
<text text-anchor="start" x="67" y="-167.5" font-family="Helvetica,sans-Serif" font-size="10.00">+ operator&lt;&lt;()</text>
<text text-anchor="start" x="67" y="-156.5" font-family="Helvetica,sans-Serif" font-size="10.00">+ operator&lt;&lt;()</text>
<text text-anchor="start" x="67" y="-145.5" font-family="Helvetica,sans-Serif" font-size="10.00">+ operator&lt;&lt;()</text>
<text text-anchor="start" x="67" y="-134.5" font-family="Helvetica,sans-Serif" font-size="10.00">and 12 more...</text>
<text text-anchor="start" x="67" y="-123.5" font-family="Helvetica,sans-Serif" font-size="10.00"># BasicWriter()</text>
</g>
<!-- Node2 -->
<g id="node2" class="node"><title>Node2</title>
<g id="a_node2"><a xlink:href="classfmt_1_1BasicArrayWriter.html" target="_top" xlink:title="This class template provides operations for formatting and writing data into a fixed&#45;size array...">
<polygon fill="none" stroke="black" points="0,-0.5 0,-79.5 111,-79.5 111,-0.5 0,-0.5"/>
<text text-anchor="start" x="8" y="-67.5" font-family="Helvetica,sans-Serif" font-size="10.00">fmt::BasicArrayWriter</text>
<text text-anchor="middle" x="55.5" y="-56.5" font-family="Helvetica,sans-Serif" font-size="10.00">&lt; Char &gt;</text>
<polyline fill="none" stroke="black" points="0,-49.5 111,-49.5 "/>
<text text-anchor="middle" x="55.5" y="-37.5" font-family="Helvetica,sans-Serif" font-size="10.00"> </text>
<polyline fill="none" stroke="black" points="0,-30.5 111,-30.5 "/>
<text text-anchor="start" x="8" y="-18.5" font-family="Helvetica,sans-Serif" font-size="10.00">+ BasicArrayWriter()</text>
<text text-anchor="start" x="8" y="-7.5" font-family="Helvetica,sans-Serif" font-size="10.00">+ BasicArrayWriter()</text>
</a>
</g>
</g>
<!-- Node1&#45;&gt;Node2 -->
<g id="edge1" class="edge"><title>Node1&#45;&gt;Node2</title>
<path fill="none" stroke="midnightblue" d="M82.3485,-106.518C78.4753,-97.0667 74.7258,-87.9167 71.3184,-79.6016"/>
<polygon fill="none" stroke="midnightblue" points="79.2242,-108.125 86.2547,-116.051 85.7014,-105.47 79.2242,-108.125"/>
</g>
<!-- Node3 -->
<g id="node3" class="node"><title>Node3</title>
<g id="a_node3"><a xlink:href="classfmt_1_1BasicMemoryWriter.html" target="_top" xlink:title="This class template provides operations for formatting and writing data into a character stream...">
<polygon fill="none" stroke="black" points="129,-6 129,-74 252,-74 252,-6 129,-6"/>
<text text-anchor="start" x="137" y="-62" font-family="Helvetica,sans-Serif" font-size="10.00">fmt::BasicMemoryWriter</text>
<text text-anchor="middle" x="190.5" y="-51" font-family="Helvetica,sans-Serif" font-size="10.00">&lt; Char &gt;</text>
<polyline fill="none" stroke="black" points="129,-44 252,-44 "/>
<text text-anchor="middle" x="190.5" y="-32" font-family="Helvetica,sans-Serif" font-size="10.00"> </text>
<polyline fill="none" stroke="black" points="129,-25 252,-25 "/>
<text text-anchor="start" x="137" y="-13" font-family="Helvetica,sans-Serif" font-size="10.00">+ BasicMemoryWriter()</text>
</a>
</g>
</g>
<!-- Node1&#45;&gt;Node3 -->
<g id="edge2" class="edge"><title>Node1&#45;&gt;Node3</title>
<path fill="none" stroke="midnightblue" d="M163.183,-106.682C168.001,-95.0957 172.634,-83.9581 176.671,-74.2498"/>
<polygon fill="none" stroke="midnightblue" points="159.895,-105.473 159.286,-116.051 166.358,-108.161 159.895,-105.473"/>
</g>
</g>
</svg>
