<?xml version="1.0" encoding="UTF-8" standalone="no"?>
<!DOCTYPE svg PUBLIC "-//W3C//DTD SVG 1.1//EN"
 "http://www.w3.org/Graphics/SVG/1.1/DTD/svg11.dtd">
<!-- Generated by graphviz version 2.38.0 (20140413.2041)
 -->
<!-- Title: spdlog::sinks::base_sink&lt; Mutex &gt; Pages: 1 -->
<svg width="1188pt" height="612pt"
 viewBox="0.00 0.00 1188.00 612.00" xmlns="http://www.w3.org/2000/svg" xmlns:xlink="http://www.w3.org/1999/xlink">
<g id="graph0" class="graph" transform="scale(1 1) rotate(0) translate(4 608)">
<title>spdlog::sinks::base_sink&lt; Mutex &gt;</title>
<!-- Node1 -->
<g id="node1" class="node"><title>Node1</title>
<polygon fill="#bfbfbf" stroke="black" points="490,-320.5 490,-443.5 591,-443.5 591,-320.5 490,-320.5"/>
<text text-anchor="start" x="498" y="-431.5" font-family="Helvetica,sans-Serif" font-size="10.00">spdlog::sinks::base</text>
<text text-anchor="middle" x="540.5" y="-420.5" font-family="Helvetica,sans-Serif" font-size="10.00">_sink&lt; Mutex &gt;</text>
<polyline fill="none" stroke="black" points="490,-413.5 591,-413.5 "/>
<text text-anchor="start" x="498" y="-401.5" font-family="Helvetica,sans-Serif" font-size="10.00"># _mutex</text>
<polyline fill="none" stroke="black" points="490,-394.5 591,-394.5 "/>
<text text-anchor="start" x="498" y="-382.5" font-family="Helvetica,sans-Serif" font-size="10.00">+ base_sink()</text>
<text text-anchor="start" x="498" y="-371.5" font-family="Helvetica,sans-Serif" font-size="10.00">+ ~base_sink()</text>
<text text-anchor="start" x="498" y="-360.5" font-family="Helvetica,sans-Serif" font-size="10.00">+ base_sink()</text>
<text text-anchor="start" x="498" y="-349.5" font-family="Helvetica,sans-Serif" font-size="10.00">+ operator=()</text>
<text text-anchor="start" x="498" y="-338.5" font-family="Helvetica,sans-Serif" font-size="10.00">+ log()</text>
<text text-anchor="start" x="498" y="-327.5" font-family="Helvetica,sans-Serif" font-size="10.00"># _sink_it()</text>
</g>
<!-- Node3 -->
<g id="node3" class="node"><title>Node3</title>
<g id="a_node3"><a xlink:href="classspdlog_1_1sinks_1_1daily__file__sink.html" target="_top" xlink:title="{spdlog::sinks::daily\l_file_sink\&lt; Mutex \&gt;\n||+ daily_file_sink()\l+ flush()\l# _sink_it()\l}">
<polygon fill="none" stroke="black" points="0,-149.5 0,-239.5 103,-239.5 103,-149.5 0,-149.5"/>
<text text-anchor="start" x="8" y="-227.5" font-family="Helvetica,sans-Serif" font-size="10.00">spdlog::sinks::daily</text>
<text text-anchor="middle" x="51.5" y="-216.5" font-family="Helvetica,sans-Serif" font-size="10.00">_file_sink&lt; Mutex &gt;</text>
<polyline fill="none" stroke="black" points="0,-209.5 103,-209.5 "/>
<text text-anchor="middle" x="51.5" y="-197.5" font-family="Helvetica,sans-Serif" font-size="10.00"> </text>
<polyline fill="none" stroke="black" points="0,-190.5 103,-190.5 "/>
<text text-anchor="start" x="8" y="-178.5" font-family="Helvetica,sans-Serif" font-size="10.00">+ daily_file_sink()</text>
<text text-anchor="start" x="8" y="-167.5" font-family="Helvetica,sans-Serif" font-size="10.00">+ flush()</text>
<text text-anchor="start" x="8" y="-156.5" font-family="Helvetica,sans-Serif" font-size="10.00"># _sink_it()</text>
</a>
</g>
</g>
<!-- Node1&#45;&gt;Node3 -->
<g id="edge2" class="edge"><title>Node1&#45;&gt;Node3</title>
<path fill="none" stroke="midnightblue" d="M479.58,-380.75C391.303,-377.58 225.99,-360.827 112.5,-284 96.1199,-272.911 82.8462,-255.832 72.9149,-239.625"/>
<polygon fill="none" stroke="midnightblue" points="479.591,-384.252 489.696,-381.065 479.81,-377.255 479.591,-384.252"/>
</g>
<!-- Node4 -->
<g id="node4" class="node"><title>Node4</title>
<g id="a_node4"><a xlink:href="classspdlog_1_1sinks_1_1dist__sink.html" target="_top" xlink:title="{spdlog::sinks::dist\l_sink\&lt; Mutex \&gt;\n|# _sinks\l|+ dist_sink()\l+ dist_sink()\l+ operator=()\l+ ~dist_sink()\l+ flush()\l+ add_sink()\l+ remove_sink()\l# _sink_it()\l}">
<polygon fill="none" stroke="black" points="121.5,-122 121.5,-267 217.5,-267 217.5,-122 121.5,-122"/>
<text text-anchor="start" x="129.5" y="-255" font-family="Helvetica,sans-Serif" font-size="10.00">spdlog::sinks::dist</text>
<text text-anchor="middle" x="169.5" y="-244" font-family="Helvetica,sans-Serif" font-size="10.00">_sink&lt; Mutex &gt;</text>
<polyline fill="none" stroke="black" points="121.5,-237 217.5,-237 "/>
<text text-anchor="start" x="129.5" y="-225" font-family="Helvetica,sans-Serif" font-size="10.00"># _sinks</text>
<polyline fill="none" stroke="black" points="121.5,-218 217.5,-218 "/>
<text text-anchor="start" x="129.5" y="-206" font-family="Helvetica,sans-Serif" font-size="10.00">+ dist_sink()</text>
<text text-anchor="start" x="129.5" y="-195" font-family="Helvetica,sans-Serif" font-size="10.00">+ dist_sink()</text>
<text text-anchor="start" x="129.5" y="-184" font-family="Helvetica,sans-Serif" font-size="10.00">+ operator=()</text>
<text text-anchor="start" x="129.5" y="-173" font-family="Helvetica,sans-Serif" font-size="10.00">+ ~dist_sink()</text>
<text text-anchor="start" x="129.5" y="-162" font-family="Helvetica,sans-Serif" font-size="10.00">+ flush()</text>
<text text-anchor="start" x="129.5" y="-151" font-family="Helvetica,sans-Serif" font-size="10.00">+ add_sink()</text>
<text text-anchor="start" x="129.5" y="-140" font-family="Helvetica,sans-Serif" font-size="10.00">+ remove_sink()</text>
<text text-anchor="start" x="129.5" y="-129" font-family="Helvetica,sans-Serif" font-size="10.00"># _sink_it()</text>
</a>
</g>
</g>
<!-- Node1&#45;&gt;Node4 -->
<g id="edge3" class="edge"><title>Node1&#45;&gt;Node4</title>
<path fill="none" stroke="midnightblue" d="M479.892,-374.77C412.18,-365.171 302.157,-341.409 226.5,-284 220.094,-279.139 214.206,-273.335 208.848,-267.055"/>
<polygon fill="none" stroke="midnightblue" points="479.596,-378.262 489.976,-376.139 480.537,-371.326 479.596,-378.262"/>
</g>
<!-- Node5 -->
<g id="node5" class="node"><title>Node5</title>
<g id="a_node5"><a xlink:href="classspdlog_1_1sinks_1_1null__sink.html" target="_top" xlink:title="{spdlog::sinks::null\l_sink\&lt; Mutex \&gt;\n||# _sink_it()\l# flush()\l}">
<polygon fill="none" stroke="black" points="236,-155 236,-234 331,-234 331,-155 236,-155"/>
<text text-anchor="start" x="244" y="-222" font-family="Helvetica,sans-Serif" font-size="10.00">spdlog::sinks::null</text>
<text text-anchor="middle" x="283.5" y="-211" font-family="Helvetica,sans-Serif" font-size="10.00">_sink&lt; Mutex &gt;</text>
<polyline fill="none" stroke="black" points="236,-204 331,-204 "/>
<text text-anchor="middle" x="283.5" y="-192" font-family="Helvetica,sans-Serif" font-size="10.00"> </text>
<polyline fill="none" stroke="black" points="236,-185 331,-185 "/>
<text text-anchor="start" x="244" y="-173" font-family="Helvetica,sans-Serif" font-size="10.00"># _sink_it()</text>
<text text-anchor="start" x="244" y="-162" font-family="Helvetica,sans-Serif" font-size="10.00"># flush()</text>
</a>
</g>
</g>
<!-- Node1&#45;&gt;Node5 -->
<g id="edge4" class="edge"><title>Node1&#45;&gt;Node5</title>
<path fill="none" stroke="midnightblue" d="M480.198,-361.658C437.638,-345.792 381.181,-320.048 340.5,-284 324.907,-270.183 311.898,-251.122 302.264,-234.227"/>
<polygon fill="none" stroke="midnightblue" points="479.01,-364.95 489.603,-365.089 481.408,-358.374 479.01,-364.95"/>
</g>
<!-- Node6 -->
<g id="node6" class="node"><title>Node6</title>
<g id="a_node6"><a xlink:href="classspdlog_1_1sinks_1_1ostream__sink.html" target="_top" xlink:title="{spdlog::sinks::ostream\l_sink\&lt; Mutex \&gt;\n|# _ostream\l# _force_flush\l|+ ostream_sink()\l+ ostream_sink()\l+ operator=()\l+ ~ostream_sink()\l# _sink_it()\l# flush()\l}">
<polygon fill="none" stroke="black" points="349.5,-127.5 349.5,-261.5 465.5,-261.5 465.5,-127.5 349.5,-127.5"/>
<text text-anchor="start" x="357.5" y="-249.5" font-family="Helvetica,sans-Serif" font-size="10.00">spdlog::sinks::ostream</text>
<text text-anchor="middle" x="407.5" y="-238.5" font-family="Helvetica,sans-Serif" font-size="10.00">_sink&lt; Mutex &gt;</text>
<polyline fill="none" stroke="black" points="349.5,-231.5 465.5,-231.5 "/>
<text text-anchor="start" x="357.5" y="-219.5" font-family="Helvetica,sans-Serif" font-size="10.00"># _ostream</text>
<text text-anchor="start" x="357.5" y="-208.5" font-family="Helvetica,sans-Serif" font-size="10.00"># _force_flush</text>
<polyline fill="none" stroke="black" points="349.5,-201.5 465.5,-201.5 "/>
<text text-anchor="start" x="357.5" y="-189.5" font-family="Helvetica,sans-Serif" font-size="10.00">+ ostream_sink()</text>
<text text-anchor="start" x="357.5" y="-178.5" font-family="Helvetica,sans-Serif" font-size="10.00">+ ostream_sink()</text>
<text text-anchor="start" x="357.5" y="-167.5" font-family="Helvetica,sans-Serif" font-size="10.00">+ operator=()</text>
<text text-anchor="start" x="357.5" y="-156.5" font-family="Helvetica,sans-Serif" font-size="10.00">+ ~ostream_sink()</text>
<text text-anchor="start" x="357.5" y="-145.5" font-family="Helvetica,sans-Serif" font-size="10.00"># _sink_it()</text>
<text text-anchor="start" x="357.5" y="-134.5" font-family="Helvetica,sans-Serif" font-size="10.00"># flush()</text>
</a>
</g>
</g>
<!-- Node1&#45;&gt;Node6 -->
<g id="edge5" class="edge"><title>Node1&#45;&gt;Node6</title>
<path fill="none" stroke="midnightblue" d="M490.894,-311.813C479.165,-295.454 466.685,-278.047 455.049,-261.819"/>
<polygon fill="none" stroke="midnightblue" points="488.279,-314.173 496.951,-320.26 493.968,-310.094 488.279,-314.173"/>
</g>
<!-- Node7 -->
<g id="node7" class="node"><title>Node7</title>
<g id="a_node7"><a xlink:href="classspdlog_1_1sinks_1_1rotating__file__sink.html" target="_top" xlink:title="{spdlog::sinks::rotating\l_file_sink\&lt; Mutex \&gt;\n||+ rotating_file_sink()\l+ flush()\l# _sink_it()\l}">
<polygon fill="none" stroke="black" points="484,-149.5 484,-239.5 597,-239.5 597,-149.5 484,-149.5"/>
<text text-anchor="start" x="492" y="-227.5" font-family="Helvetica,sans-Serif" font-size="10.00">spdlog::sinks::rotating</text>
<text text-anchor="middle" x="540.5" y="-216.5" font-family="Helvetica,sans-Serif" font-size="10.00">_file_sink&lt; Mutex &gt;</text>
<polyline fill="none" stroke="black" points="484,-209.5 597,-209.5 "/>
<text text-anchor="middle" x="540.5" y="-197.5" font-family="Helvetica,sans-Serif" font-size="10.00"> </text>
<polyline fill="none" stroke="black" points="484,-190.5 597,-190.5 "/>
<text text-anchor="start" x="492" y="-178.5" font-family="Helvetica,sans-Serif" font-size="10.00">+ rotating_file_sink()</text>
<text text-anchor="start" x="492" y="-167.5" font-family="Helvetica,sans-Serif" font-size="10.00">+ flush()</text>
<text text-anchor="start" x="492" y="-156.5" font-family="Helvetica,sans-Serif" font-size="10.00"># _sink_it()</text>
</a>
</g>
</g>
<!-- Node1&#45;&gt;Node7 -->
<g id="edge6" class="edge"><title>Node1&#45;&gt;Node7</title>
<path fill="none" stroke="midnightblue" d="M540.5,-310.23C540.5,-286.489 540.5,-260.709 540.5,-239.612"/>
<polygon fill="none" stroke="midnightblue" points="537,-310.26 540.5,-320.26 544,-310.26 537,-310.26"/>
</g>
<!-- Node8 -->
<g id="node8" class="node"><title>Node8</title>
<g id="a_node8"><a xlink:href="classspdlog_1_1sinks_1_1simple__file__sink.html" target="_top" xlink:title="{spdlog::sinks::simple\l_file_sink\&lt; Mutex \&gt;\n||+ simple_file_sink()\l+ flush()\l+ set_force_flush()\l# _sink_it()\l}">
<polygon fill="none" stroke="black" points="615,-144 615,-245 724,-245 724,-144 615,-144"/>
<text text-anchor="start" x="623" y="-233" font-family="Helvetica,sans-Serif" font-size="10.00">spdlog::sinks::simple</text>
<text text-anchor="middle" x="669.5" y="-222" font-family="Helvetica,sans-Serif" font-size="10.00">_file_sink&lt; Mutex &gt;</text>
<polyline fill="none" stroke="black" points="615,-215 724,-215 "/>
<text text-anchor="middle" x="669.5" y="-203" font-family="Helvetica,sans-Serif" font-size="10.00"> </text>
<polyline fill="none" stroke="black" points="615,-196 724,-196 "/>
<text text-anchor="start" x="623" y="-184" font-family="Helvetica,sans-Serif" font-size="10.00">+ simple_file_sink()</text>
<text text-anchor="start" x="623" y="-173" font-family="Helvetica,sans-Serif" font-size="10.00">+ flush()</text>
<text text-anchor="start" x="623" y="-162" font-family="Helvetica,sans-Serif" font-size="10.00">+ set_force_flush()</text>
<text text-anchor="start" x="623" y="-151" font-family="Helvetica,sans-Serif" font-size="10.00"># _sink_it()</text>
</a>
</g>
</g>
<!-- Node1&#45;&gt;Node8 -->
<g id="edge7" class="edge"><title>Node1&#45;&gt;Node8</title>
<path fill="none" stroke="midnightblue" d="M588.564,-311.884C603.955,-289.753 620.683,-265.699 634.914,-245.233"/>
<polygon fill="none" stroke="midnightblue" points="585.575,-310.052 582.739,-320.26 591.322,-314.049 585.575,-310.052"/>
</g>
<!-- Node9 -->
<g id="node9" class="node"><title>Node9</title>
<g id="a_node9"><a xlink:href="classspdlog_1_1sinks_1_1stderr__sink.html" target="_top" xlink:title="{spdlog::sinks::stderr\l_sink\&lt; Mutex \&gt;\n||+ stderr_sink()\l+ _sink_it()\l+ flush()\l+ instance()\l}">
<polygon fill="none" stroke="black" points="742,-144 742,-245 847,-245 847,-144 742,-144"/>
<text text-anchor="start" x="750" y="-233" font-family="Helvetica,sans-Serif" font-size="10.00">spdlog::sinks::stderr</text>
<text text-anchor="middle" x="794.5" y="-222" font-family="Helvetica,sans-Serif" font-size="10.00">_sink&lt; Mutex &gt;</text>
<polyline fill="none" stroke="black" points="742,-215 847,-215 "/>
<text text-anchor="middle" x="794.5" y="-203" font-family="Helvetica,sans-Serif" font-size="10.00"> </text>
<polyline fill="none" stroke="black" points="742,-196 847,-196 "/>
<text text-anchor="start" x="750" y="-184" font-family="Helvetica,sans-Serif" font-size="10.00">+ stderr_sink()</text>
<text text-anchor="start" x="750" y="-173" font-family="Helvetica,sans-Serif" font-size="10.00">+ _sink_it()</text>
<text text-anchor="start" x="750" y="-162" font-family="Helvetica,sans-Serif" font-size="10.00">+ flush()</text>
<text text-anchor="start" x="750" y="-151" font-family="Helvetica,sans-Serif" font-size="10.00">+ instance()</text>
</a>
</g>
</g>
<!-- Node1&#45;&gt;Node9 -->
<g id="edge8" class="edge"><title>Node1&#45;&gt;Node9</title>
<path fill="none" stroke="midnightblue" d="M600.493,-359.657C640.838,-343.269 693.559,-317.726 732.5,-284 745.121,-273.069 756.46,-259.042 765.883,-245.393"/>
<polygon fill="none" stroke="midnightblue" points="599.037,-356.469 591.042,-363.421 601.627,-362.972 599.037,-356.469"/>
</g>
<!-- Node10 -->
<g id="node10" class="node"><title>Node10</title>
<g id="a_node10"><a xlink:href="classspdlog_1_1sinks_1_1stdout__sink.html" target="_top" xlink:title="{spdlog::sinks::stdout\l_sink\&lt; Mutex \&gt;\n||+ stdout_sink()\l+ _sink_it()\l+ flush()\l+ instance()\l}">
<polygon fill="none" stroke="black" points="865,-144 865,-245 972,-245 972,-144 865,-144"/>
<text text-anchor="start" x="873" y="-233" font-family="Helvetica,sans-Serif" font-size="10.00">spdlog::sinks::stdout</text>
<text text-anchor="middle" x="918.5" y="-222" font-family="Helvetica,sans-Serif" font-size="10.00">_sink&lt; Mutex &gt;</text>
<polyline fill="none" stroke="black" points="865,-215 972,-215 "/>
<text text-anchor="middle" x="918.5" y="-203" font-family="Helvetica,sans-Serif" font-size="10.00"> </text>
<polyline fill="none" stroke="black" points="865,-196 972,-196 "/>
<text text-anchor="start" x="873" y="-184" font-family="Helvetica,sans-Serif" font-size="10.00">+ stdout_sink()</text>
<text text-anchor="start" x="873" y="-173" font-family="Helvetica,sans-Serif" font-size="10.00">+ _sink_it()</text>
<text text-anchor="start" x="873" y="-162" font-family="Helvetica,sans-Serif" font-size="10.00">+ flush()</text>
<text text-anchor="start" x="873" y="-151" font-family="Helvetica,sans-Serif" font-size="10.00">+ instance()</text>
</a>
</g>
</g>
<!-- Node1&#45;&gt;Node10 -->
<g id="edge9" class="edge"><title>Node1&#45;&gt;Node10</title>
<path fill="none" stroke="midnightblue" d="M601.105,-374.123C668.619,-363.951 778.392,-339.684 855.5,-284 869.567,-273.842 881.659,-259.555 891.38,-245.419"/>
<polygon fill="none" stroke="midnightblue" points="600.447,-370.682 591.052,-375.58 601.451,-377.609 600.447,-370.682"/>
</g>
<!-- Node11 -->
<g id="node11" class="node"><title>Node11</title>
<g id="a_node11"><a xlink:href="classspdlog_1_1sinks_1_1wincolor__sink.html" target="_top" xlink:title="{spdlog::sinks::wincolor\l_sink\&lt; Mutex \&gt;\n|+ BOLD\l+ RED\l+ CYAN\l+ WHITE\l+ YELLOW\l|+ wincolor_sink()\l+ ~wincolor_sink()\l+ wincolor_sink()\l+ operator=()\l+ _sink_it()\l+ flush()\l+ set_color()\l}">
<polygon fill="none" stroke="black" points="990.5,-105.5 990.5,-283.5 1106.5,-283.5 1106.5,-105.5 990.5,-105.5"/>
<text text-anchor="start" x="998.5" y="-271.5" font-family="Helvetica,sans-Serif" font-size="10.00">spdlog::sinks::wincolor</text>
<text text-anchor="middle" x="1048.5" y="-260.5" font-family="Helvetica,sans-Serif" font-size="10.00">_sink&lt; Mutex &gt;</text>
<polyline fill="none" stroke="black" points="990.5,-253.5 1106.5,-253.5 "/>
<text text-anchor="start" x="998.5" y="-241.5" font-family="Helvetica,sans-Serif" font-size="10.00">+ BOLD</text>
<text text-anchor="start" x="998.5" y="-230.5" font-family="Helvetica,sans-Serif" font-size="10.00">+ RED</text>
<text text-anchor="start" x="998.5" y="-219.5" font-family="Helvetica,sans-Serif" font-size="10.00">+ CYAN</text>
<text text-anchor="start" x="998.5" y="-208.5" font-family="Helvetica,sans-Serif" font-size="10.00">+ WHITE</text>
<text text-anchor="start" x="998.5" y="-197.5" font-family="Helvetica,sans-Serif" font-size="10.00">+ YELLOW</text>
<polyline fill="none" stroke="black" points="990.5,-190.5 1106.5,-190.5 "/>
<text text-anchor="start" x="998.5" y="-178.5" font-family="Helvetica,sans-Serif" font-size="10.00">+ wincolor_sink()</text>
<text text-anchor="start" x="998.5" y="-167.5" font-family="Helvetica,sans-Serif" font-size="10.00">+ ~wincolor_sink()</text>
<text text-anchor="start" x="998.5" y="-156.5" font-family="Helvetica,sans-Serif" font-size="10.00">+ wincolor_sink()</text>
<text text-anchor="start" x="998.5" y="-145.5" font-family="Helvetica,sans-Serif" font-size="10.00">+ operator=()</text>
<text text-anchor="start" x="998.5" y="-134.5" font-family="Helvetica,sans-Serif" font-size="10.00">+ _sink_it()</text>
<text text-anchor="start" x="998.5" y="-123.5" font-family="Helvetica,sans-Serif" font-size="10.00">+ flush()</text>
<text text-anchor="start" x="998.5" y="-112.5" font-family="Helvetica,sans-Serif" font-size="10.00">+ set_color()</text>
</a>
</g>
</g>
<!-- Node1&#45;&gt;Node11 -->
<g id="edge10" class="edge"><title>Node1&#45;&gt;Node11</title>
<path fill="none" stroke="midnightblue" d="M601.226,-380.449C690.948,-376.958 861.163,-359.872 980.5,-284 983.934,-281.817 987.262,-279.396 990.478,-276.792"/>
<polygon fill="none" stroke="midnightblue" points="601.092,-376.951 591.219,-380.795 601.334,-383.947 601.092,-376.951"/>
</g>
<!-- Node2 -->
<g id="node2" class="node"><title>Node2</title>
<g id="a_node2"><a xlink:href="classspdlog_1_1sinks_1_1sink.html" target="_top" xlink:title="{spdlog::sinks::sink\n||+ sink()\l+ ~sink()\l+ log()\l+ flush()\l+ should_log()\l+ set_level()\l+ level()\l}">
<polygon fill="none" stroke="black" points="491.5,-480.5 491.5,-603.5 589.5,-603.5 589.5,-480.5 491.5,-480.5"/>
<text text-anchor="middle" x="540.5" y="-591.5" font-family="Helvetica,sans-Serif" font-size="10.00">spdlog::sinks::sink</text>
<polyline fill="none" stroke="black" points="491.5,-584.5 589.5,-584.5 "/>
<text text-anchor="middle" x="540.5" y="-572.5" font-family="Helvetica,sans-Serif" font-size="10.00"> </text>
<polyline fill="none" stroke="black" points="491.5,-565.5 589.5,-565.5 "/>
<text text-anchor="start" x="499.5" y="-553.5" font-family="Helvetica,sans-Serif" font-size="10.00">+ sink()</text>
<text text-anchor="start" x="499.5" y="-542.5" font-family="Helvetica,sans-Serif" font-size="10.00">+ ~sink()</text>
<text text-anchor="start" x="499.5" y="-531.5" font-family="Helvetica,sans-Serif" font-size="10.00">+ log()</text>
<text text-anchor="start" x="499.5" y="-520.5" font-family="Helvetica,sans-Serif" font-size="10.00">+ flush()</text>
<text text-anchor="start" x="499.5" y="-509.5" font-family="Helvetica,sans-Serif" font-size="10.00">+ should_log()</text>
<text text-anchor="start" x="499.5" y="-498.5" font-family="Helvetica,sans-Serif" font-size="10.00">+ set_level()</text>
<text text-anchor="start" x="499.5" y="-487.5" font-family="Helvetica,sans-Serif" font-size="10.00">+ level()</text>
</a>
</g>
</g>
<!-- Node2&#45;&gt;Node1 -->
<g id="edge1" class="edge"><title>Node2&#45;&gt;Node1</title>
<path fill="none" stroke="midnightblue" d="M540.5,-470.116C540.5,-461.31 540.5,-452.368 540.5,-443.734"/>
<polygon fill="none" stroke="midnightblue" points="537,-470.365 540.5,-480.365 544,-470.365 537,-470.365"/>
</g>
<!-- Node12 -->
<g id="node12" class="node"><title>Node12</title>
<g id="a_node12"><a xlink:href="classspdlog_1_1sinks_1_1wincolor__stderr__sink.html" target="_top" xlink:title="{spdlog::sinks::wincolor\l_stderr_sink\&lt; Mutex \&gt;\n||+ wincolor_stderr_sink()\l}">
<polygon fill="none" stroke="black" points="918,-0.5 918,-68.5 1039,-68.5 1039,-0.5 918,-0.5"/>
<text text-anchor="start" x="926" y="-56.5" font-family="Helvetica,sans-Serif" font-size="10.00">spdlog::sinks::wincolor</text>
<text text-anchor="middle" x="978.5" y="-45.5" font-family="Helvetica,sans-Serif" font-size="10.00">_stderr_sink&lt; Mutex &gt;</text>
<polyline fill="none" stroke="black" points="918,-38.5 1039,-38.5 "/>
<text text-anchor="middle" x="978.5" y="-26.5" font-family="Helvetica,sans-Serif" font-size="10.00"> </text>
<polyline fill="none" stroke="black" points="918,-19.5 1039,-19.5 "/>
<text text-anchor="start" x="926" y="-7.5" font-family="Helvetica,sans-Serif" font-size="10.00">+ wincolor_stderr_sink()</text>
</a>
</g>
</g>
<!-- Node11&#45;&gt;Node12 -->
<g id="edge11" class="edge"><title>Node11&#45;&gt;Node12</title>
<path fill="none" stroke="midnightblue" d="M1005.26,-95.891C1000.97,-86.2228 996.863,-76.9488 993.206,-68.6942"/>
<polygon fill="none" stroke="midnightblue" points="1002.16,-97.5359 1009.41,-105.261 1008.56,-94.7004 1002.16,-97.5359"/>
</g>
<!-- Node13 -->
<g id="node13" class="node"><title>Node13</title>
<g id="a_node13"><a xlink:href="classspdlog_1_1sinks_1_1wincolor__stdout__sink.html" target="_top" xlink:title="{spdlog::sinks::wincolor\l_stdout_sink\&lt; Mutex \&gt;\n||+ wincolor_stdout_sink()\l}">
<polygon fill="none" stroke="black" points="1057,-0.5 1057,-68.5 1180,-68.5 1180,-0.5 1057,-0.5"/>
<text text-anchor="start" x="1065" y="-56.5" font-family="Helvetica,sans-Serif" font-size="10.00">spdlog::sinks::wincolor</text>
<text text-anchor="middle" x="1118.5" y="-45.5" font-family="Helvetica,sans-Serif" font-size="10.00">_stdout_sink&lt; Mutex &gt;</text>
<polyline fill="none" stroke="black" points="1057,-38.5 1180,-38.5 "/>
<text text-anchor="middle" x="1118.5" y="-26.5" font-family="Helvetica,sans-Serif" font-size="10.00"> </text>
<polyline fill="none" stroke="black" points="1057,-19.5 1180,-19.5 "/>
<text text-anchor="start" x="1065" y="-7.5" font-family="Helvetica,sans-Serif" font-size="10.00">+ wincolor_stdout_sink()</text>
</a>
</g>
</g>
<!-- Node11&#45;&gt;Node13 -->
<g id="edge12" class="edge"><title>Node11&#45;&gt;Node13</title>
<path fill="none" stroke="midnightblue" d="M1091.74,-95.891C1096.03,-86.2228 1100.14,-76.9488 1103.79,-68.6942"/>
<polygon fill="none" stroke="midnightblue" points="1088.44,-94.7004 1087.59,-105.261 1094.84,-97.5359 1088.44,-94.7004"/>
</g>
</g>
</svg>
