<?xml version="1.0" encoding="UTF-8" standalone="no"?>
<!DOCTYPE svg PUBLIC "-//W3C//DTD SVG 1.1//EN"
 "http://www.w3.org/Graphics/SVG/1.1/DTD/svg11.dtd">
<!-- Generated by graphviz version 2.38.0 (20140413.2041)
 -->
<!-- Title: spdlog::sinks::ostream_sink&lt; Mutex &gt; Pages: 1 -->
<svg width="232pt" height="654pt"
 viewBox="0.00 0.00 232.00 654.00" xmlns="http://www.w3.org/2000/svg" xmlns:xlink="http://www.w3.org/1999/xlink">
<g id="graph0" class="graph" transform="scale(1 1) rotate(0) translate(4 650)">
<title>spdlog::sinks::ostream_sink&lt; Mutex &gt;</title>
<!-- Node1 -->
<g id="node1" class="node"><title>Node1</title>
<polygon fill="#bfbfbf" stroke="black" points="55,-0.5 55,-123.5 171,-123.5 171,-0.5 55,-0.5"/>
<text text-anchor="start" x="63" y="-111.5" font-family="Helvetica,sans-Serif" font-size="10.00">spdlog::sinks::ostream</text>
<text text-anchor="middle" x="113" y="-100.5" font-family="Helvetica,sans-Serif" font-size="10.00">_sink&lt; Mutex &gt;</text>
<polyline fill="none" stroke="black" points="55,-93.5 171,-93.5 "/>
<text text-anchor="start" x="63" y="-81.5" font-family="Helvetica,sans-Serif" font-size="10.00"># _force_flush</text>
<polyline fill="none" stroke="black" points="55,-74.5 171,-74.5 "/>
<text text-anchor="start" x="63" y="-62.5" font-family="Helvetica,sans-Serif" font-size="10.00">+ ostream_sink()</text>
<text text-anchor="start" x="63" y="-51.5" font-family="Helvetica,sans-Serif" font-size="10.00">+ ostream_sink()</text>
<text text-anchor="start" x="63" y="-40.5" font-family="Helvetica,sans-Serif" font-size="10.00">+ operator=()</text>
<text text-anchor="start" x="63" y="-29.5" font-family="Helvetica,sans-Serif" font-size="10.00">+ ~ostream_sink()</text>
<text text-anchor="start" x="63" y="-18.5" font-family="Helvetica,sans-Serif" font-size="10.00"># _sink_it()</text>
<text text-anchor="start" x="63" y="-7.5" font-family="Helvetica,sans-Serif" font-size="10.00"># flush()</text>
</g>
<!-- Node2 -->
<g id="node2" class="node"><title>Node2</title>
<g id="a_node2"><a xlink:href="classspdlog_1_1sinks_1_1base__sink.html" target="_top" xlink:title="{spdlog::sinks::base\l_sink\&lt; Mutex \&gt;\n|# _mutex\l|+ base_sink()\l+ ~base_sink()\l+ base_sink()\l+ operator=()\l+ log()\l# _sink_it()\l}">
<polygon fill="none" stroke="black" points="1.5,-171.5 1.5,-294.5 102.5,-294.5 102.5,-171.5 1.5,-171.5"/>
<text text-anchor="start" x="9.5" y="-282.5" font-family="Helvetica,sans-Serif" font-size="10.00">spdlog::sinks::base</text>
<text text-anchor="middle" x="52" y="-271.5" font-family="Helvetica,sans-Serif" font-size="10.00">_sink&lt; Mutex &gt;</text>
<polyline fill="none" stroke="black" points="1.5,-264.5 102.5,-264.5 "/>
<text text-anchor="start" x="9.5" y="-252.5" font-family="Helvetica,sans-Serif" font-size="10.00"># _mutex</text>
<polyline fill="none" stroke="black" points="1.5,-245.5 102.5,-245.5 "/>
<text text-anchor="start" x="9.5" y="-233.5" font-family="Helvetica,sans-Serif" font-size="10.00">+ base_sink()</text>
<text text-anchor="start" x="9.5" y="-222.5" font-family="Helvetica,sans-Serif" font-size="10.00">+ ~base_sink()</text>
<text text-anchor="start" x="9.5" y="-211.5" font-family="Helvetica,sans-Serif" font-size="10.00">+ base_sink()</text>
<text text-anchor="start" x="9.5" y="-200.5" font-family="Helvetica,sans-Serif" font-size="10.00">+ operator=()</text>
<text text-anchor="start" x="9.5" y="-189.5" font-family="Helvetica,sans-Serif" font-size="10.00">+ log()</text>
<text text-anchor="start" x="9.5" y="-178.5" font-family="Helvetica,sans-Serif" font-size="10.00"># _sink_it()</text>
</a>
</g>
</g>
<!-- Node2&#45;&gt;Node1 -->
<g id="edge1" class="edge"><title>Node2&#45;&gt;Node1</title>
<path fill="none" stroke="midnightblue" d="M77.3121,-161.873C81.8895,-149.191 86.6276,-136.064 91.0974,-123.681"/>
<polygon fill="none" stroke="midnightblue" points="73.9531,-160.87 73.8501,-171.464 80.5374,-163.247 73.9531,-160.87"/>
</g>
<!-- Node3 -->
<g id="node3" class="node"><title>Node3</title>
<g id="a_node3"><a xlink:href="classspdlog_1_1sinks_1_1sink.html" target="_top" xlink:title="{spdlog::sinks::sink\n||+ sink()\l+ ~sink()\l+ log()\l+ flush()\l+ should_log()\l+ set_level()\l+ level()\l}">
<polygon fill="none" stroke="black" points="-7.10543e-15,-332.5 -7.10543e-15,-455.5 98,-455.5 98,-332.5 -7.10543e-15,-332.5"/>
<text text-anchor="middle" x="49" y="-443.5" font-family="Helvetica,sans-Serif" font-size="10.00">spdlog::sinks::sink</text>
<polyline fill="none" stroke="black" points="-7.10543e-15,-436.5 98,-436.5 "/>
<text text-anchor="middle" x="49" y="-424.5" font-family="Helvetica,sans-Serif" font-size="10.00"> </text>
<polyline fill="none" stroke="black" points="-7.10543e-15,-417.5 98,-417.5 "/>
<text text-anchor="start" x="8" y="-405.5" font-family="Helvetica,sans-Serif" font-size="10.00">+ sink()</text>
<text text-anchor="start" x="8" y="-394.5" font-family="Helvetica,sans-Serif" font-size="10.00">+ ~sink()</text>
<text text-anchor="start" x="8" y="-383.5" font-family="Helvetica,sans-Serif" font-size="10.00">+ log()</text>
<text text-anchor="start" x="8" y="-372.5" font-family="Helvetica,sans-Serif" font-size="10.00">+ flush()</text>
<text text-anchor="start" x="8" y="-361.5" font-family="Helvetica,sans-Serif" font-size="10.00">+ should_log()</text>
<text text-anchor="start" x="8" y="-350.5" font-family="Helvetica,sans-Serif" font-size="10.00">+ set_level()</text>
<text text-anchor="start" x="8" y="-339.5" font-family="Helvetica,sans-Serif" font-size="10.00">+ level()</text>
</a>
</g>
</g>
<!-- Node3&#45;&gt;Node2 -->
<g id="edge2" class="edge"><title>Node3&#45;&gt;Node2</title>
<path fill="none" stroke="midnightblue" d="M50.3365,-322.165C50.5097,-312.987 50.6858,-303.653 50.8555,-294.66"/>
<polygon fill="none" stroke="midnightblue" points="46.8321,-322.371 50.1427,-332.435 53.8308,-322.503 46.8321,-322.371"/>
</g>
<!-- Node4 -->
<g id="node4" class="node"><title>Node4</title>
<g id="a_node4"><a xlink:title="STL class. ">
<polygon fill="none" stroke="#bfbfbf" points="122.5,-204.5 122.5,-261.5 193.5,-261.5 193.5,-204.5 122.5,-204.5"/>
<text text-anchor="middle" x="158" y="-249.5" font-family="Helvetica,sans-Serif" font-size="10.00">std::ostream</text>
<polyline fill="none" stroke="#bfbfbf" points="122.5,-242.5 193.5,-242.5 "/>
<text text-anchor="middle" x="158" y="-230.5" font-family="Helvetica,sans-Serif" font-size="10.00"> </text>
<polyline fill="none" stroke="#bfbfbf" points="122.5,-223.5 193.5,-223.5 "/>
<text text-anchor="middle" x="158" y="-211.5" font-family="Helvetica,sans-Serif" font-size="10.00"> </text>
</a>
</g>
</g>
<!-- Node4&#45;&gt;Node1 -->
<g id="edge3" class="edge"><title>Node4&#45;&gt;Node1</title>
<path fill="none" stroke="#404040" d="M150.67,-204.471C145.683,-185.743 138.835,-160.026 132.345,-135.651"/>
<polygon fill="none" stroke="#404040" points="132.285,-135.425 126.876,-130.656 129.197,-123.829 134.606,-128.598 132.285,-135.425"/>
<text text-anchor="middle" x="160.5" y="-145" font-family="Helvetica,sans-Serif" font-size="10.00"> #_ostream</text>
</g>
<!-- Node5 -->
<g id="node5" class="node"><title>Node5</title>
<g id="a_node5"><a xlink:title="STL class. ">
<polygon fill="none" stroke="#bfbfbf" points="116,-360 116,-428 216,-428 216,-360 116,-360"/>
<text text-anchor="start" x="124" y="-416" font-family="Helvetica,sans-Serif" font-size="10.00">std::basic_ostream</text>
<text text-anchor="middle" x="166" y="-405" font-family="Helvetica,sans-Serif" font-size="10.00">&lt; char &gt;</text>
<polyline fill="none" stroke="#bfbfbf" points="116,-398 216,-398 "/>
<text text-anchor="middle" x="166" y="-386" font-family="Helvetica,sans-Serif" font-size="10.00"> </text>
<polyline fill="none" stroke="#bfbfbf" points="116,-379 216,-379 "/>
<text text-anchor="middle" x="166" y="-367" font-family="Helvetica,sans-Serif" font-size="10.00"> </text>
</a>
</g>
</g>
<!-- Node5&#45;&gt;Node4 -->
<g id="edge4" class="edge"><title>Node5&#45;&gt;Node4</title>
<path fill="none" stroke="midnightblue" d="M163.804,-349.351C162.396,-321.371 160.611,-285.897 159.395,-261.725"/>
<polygon fill="none" stroke="midnightblue" points="160.325,-349.857 164.323,-359.668 167.316,-349.505 160.325,-349.857"/>
</g>
<!-- Node6 -->
<g id="node6" class="node"><title>Node6</title>
<g id="a_node6"><a xlink:title="STL class. ">
<polygon fill="none" stroke="#bfbfbf" points="108,-493.5 108,-550.5 224,-550.5 224,-493.5 108,-493.5"/>
<text text-anchor="middle" x="166" y="-538.5" font-family="Helvetica,sans-Serif" font-size="10.00">std::basic_ios&lt; Char &gt;</text>
<polyline fill="none" stroke="#bfbfbf" points="108,-531.5 224,-531.5 "/>
<text text-anchor="middle" x="166" y="-519.5" font-family="Helvetica,sans-Serif" font-size="10.00"> </text>
<polyline fill="none" stroke="#bfbfbf" points="108,-512.5 224,-512.5 "/>
<text text-anchor="middle" x="166" y="-500.5" font-family="Helvetica,sans-Serif" font-size="10.00"> </text>
</a>
</g>
</g>
<!-- Node6&#45;&gt;Node5 -->
<g id="edge5" class="edge"><title>Node6&#45;&gt;Node5</title>
<path fill="none" stroke="midnightblue" d="M166,-482.978C166,-465.597 166,-445.191 166,-428.409"/>
<polygon fill="none" stroke="midnightblue" points="162.5,-483.349 166,-493.349 169.5,-483.349 162.5,-483.349"/>
</g>
<!-- Node7 -->
<g id="node7" class="node"><title>Node7</title>
<g id="a_node7"><a xlink:title="STL class. ">
<polygon fill="none" stroke="#bfbfbf" points="128.5,-588.5 128.5,-645.5 203.5,-645.5 203.5,-588.5 128.5,-588.5"/>
<text text-anchor="middle" x="166" y="-633.5" font-family="Helvetica,sans-Serif" font-size="10.00">std::ios_base</text>
<polyline fill="none" stroke="#bfbfbf" points="128.5,-626.5 203.5,-626.5 "/>
<text text-anchor="middle" x="166" y="-614.5" font-family="Helvetica,sans-Serif" font-size="10.00"> </text>
<polyline fill="none" stroke="#bfbfbf" points="128.5,-607.5 203.5,-607.5 "/>
<text text-anchor="middle" x="166" y="-595.5" font-family="Helvetica,sans-Serif" font-size="10.00"> </text>
</a>
</g>
</g>
<!-- Node7&#45;&gt;Node6 -->
<g id="edge6" class="edge"><title>Node7&#45;&gt;Node6</title>
<path fill="none" stroke="midnightblue" d="M166,-578.235C166,-569.028 166,-559.346 166,-550.705"/>
<polygon fill="none" stroke="midnightblue" points="162.5,-578.349 166,-588.349 169.5,-578.349 162.5,-578.349"/>
</g>
</g>
</svg>
