<?xml version="1.0" encoding="UTF-8" standalone="no"?>
<!DOCTYPE svg PUBLIC "-//W3C//DTD SVG 1.1//EN"
 "http://www.w3.org/Graphics/SVG/1.1/DTD/svg11.dtd">
<!-- Generated by graphviz version 2.38.0 (20140413.2041)
 -->
<!-- Title: fmt::SystemError Pages: 1 -->
<svg width="140pt" height="403pt"
 viewBox="0.00 0.00 140.00 403.00" xmlns="http://www.w3.org/2000/svg" xmlns:xlink="http://www.w3.org/1999/xlink">
<g id="graph0" class="graph" transform="scale(1 1) rotate(0) translate(4 399)">
<title>fmt::SystemError</title>
<!-- Node1 -->
<g id="node1" class="node"><title>Node1</title>
<polygon fill="#bfbfbf" stroke="black" points="20,-0.5 20,-90.5 112,-90.5 112,-0.5 20,-0.5"/>
<text text-anchor="middle" x="66" y="-78.5" font-family="Helvetica,sans-Serif" font-size="10.00">fmt::SystemError</text>
<polyline fill="none" stroke="black" points="20,-71.5 112,-71.5 "/>
<text text-anchor="start" x="28" y="-59.5" font-family="Helvetica,sans-Serif" font-size="10.00"># error_code_</text>
<polyline fill="none" stroke="black" points="20,-52.5 112,-52.5 "/>
<text text-anchor="start" x="28" y="-40.5" font-family="Helvetica,sans-Serif" font-size="10.00">+ SystemError()</text>
<text text-anchor="start" x="28" y="-29.5" font-family="Helvetica,sans-Serif" font-size="10.00">+ ~SystemError()</text>
<text text-anchor="start" x="28" y="-18.5" font-family="Helvetica,sans-Serif" font-size="10.00">+ error_code()</text>
<text text-anchor="start" x="28" y="-7.5" font-family="Helvetica,sans-Serif" font-size="10.00"># SystemError()</text>
</g>
<!-- Node2 -->
<g id="node2" class="node"><title>Node2</title>
<g id="a_node2"><a xlink:href="classfmt_1_1internal_1_1RuntimeError.html" target="_top" xlink:title="{fmt::internal::RuntimeError\n||# RuntimeError()\l# RuntimeError()\l# ~RuntimeError()\l}">
<polygon fill="none" stroke="black" points="0,-127.5 0,-206.5 132,-206.5 132,-127.5 0,-127.5"/>
<text text-anchor="middle" x="66" y="-194.5" font-family="Helvetica,sans-Serif" font-size="10.00">fmt::internal::RuntimeError</text>
<polyline fill="none" stroke="black" points="0,-187.5 132,-187.5 "/>
<text text-anchor="middle" x="66" y="-175.5" font-family="Helvetica,sans-Serif" font-size="10.00"> </text>
<polyline fill="none" stroke="black" points="0,-168.5 132,-168.5 "/>
<text text-anchor="start" x="8" y="-156.5" font-family="Helvetica,sans-Serif" font-size="10.00"># RuntimeError()</text>
<text text-anchor="start" x="8" y="-145.5" font-family="Helvetica,sans-Serif" font-size="10.00"># RuntimeError()</text>
<text text-anchor="start" x="8" y="-134.5" font-family="Helvetica,sans-Serif" font-size="10.00"># ~RuntimeError()</text>
</a>
</g>
</g>
<!-- Node2&#45;&gt;Node1 -->
<g id="edge1" class="edge"><title>Node2&#45;&gt;Node1</title>
<path fill="none" stroke="midnightblue" d="M66,-117.187C66,-108.491 66,-99.4758 66,-90.9111"/>
<polygon fill="none" stroke="midnightblue" points="62.5001,-117.202 66,-127.202 69.5001,-117.202 62.5001,-117.202"/>
</g>
<!-- Node3 -->
<g id="node3" class="node"><title>Node3</title>
<g id="a_node3"><a xlink:title="STL class. ">
<polygon fill="none" stroke="#bfbfbf" points="19.5,-243.5 19.5,-300.5 112.5,-300.5 112.5,-243.5 19.5,-243.5"/>
<text text-anchor="middle" x="66" y="-288.5" font-family="Helvetica,sans-Serif" font-size="10.00">std::runtime_error</text>
<polyline fill="none" stroke="#bfbfbf" points="19.5,-281.5 112.5,-281.5 "/>
<text text-anchor="middle" x="66" y="-269.5" font-family="Helvetica,sans-Serif" font-size="10.00"> </text>
<polyline fill="none" stroke="#bfbfbf" points="19.5,-262.5 112.5,-262.5 "/>
<text text-anchor="middle" x="66" y="-250.5" font-family="Helvetica,sans-Serif" font-size="10.00"> </text>
</a>
</g>
</g>
<!-- Node3&#45;&gt;Node2 -->
<g id="edge2" class="edge"><title>Node3&#45;&gt;Node2</title>
<path fill="none" stroke="midnightblue" d="M66,-233.156C66,-224.473 66,-215.232 66,-206.52"/>
<polygon fill="none" stroke="midnightblue" points="62.5001,-233.398 66,-243.398 69.5001,-233.398 62.5001,-233.398"/>
</g>
<!-- Node4 -->
<g id="node4" class="node"><title>Node4</title>
<g id="a_node4"><a xlink:title="STL class. ">
<polygon fill="none" stroke="#bfbfbf" points="27,-337.5 27,-394.5 105,-394.5 105,-337.5 27,-337.5"/>
<text text-anchor="middle" x="66" y="-382.5" font-family="Helvetica,sans-Serif" font-size="10.00">std::exception</text>
<polyline fill="none" stroke="#bfbfbf" points="27,-375.5 105,-375.5 "/>
<text text-anchor="middle" x="66" y="-363.5" font-family="Helvetica,sans-Serif" font-size="10.00"> </text>
<polyline fill="none" stroke="#bfbfbf" points="27,-356.5 105,-356.5 "/>
<text text-anchor="middle" x="66" y="-344.5" font-family="Helvetica,sans-Serif" font-size="10.00"> </text>
</a>
</g>
</g>
<!-- Node4&#45;&gt;Node3 -->
<g id="edge3" class="edge"><title>Node4&#45;&gt;Node3</title>
<path fill="none" stroke="midnightblue" d="M66,-327.209C66,-318.293 66,-308.951 66,-300.584"/>
<polygon fill="none" stroke="midnightblue" points="62.5001,-327.397 66,-337.397 69.5001,-327.397 62.5001,-327.397"/>
</g>
</g>
</svg>
