<?xml version="1.0" encoding="UTF-8" standalone="no"?>
<!DOCTYPE svg PUBLIC "-//W3C//DTD SVG 1.1//EN"
 "http://www.w3.org/Graphics/SVG/1.1/DTD/svg11.dtd">
<!-- Generated by graphviz version 2.38.0 (20140413.2041)
 -->
<!-- Title: fmt::internal::MemoryBuffer&lt; T, SIZE, Allocator &gt; Pages: 1 -->
<svg width="168pt" height="347pt"
 viewBox="0.00 0.00 168.00 347.00" xmlns="http://www.w3.org/2000/svg" xmlns:xlink="http://www.w3.org/1999/xlink">
<g id="graph0" class="graph" transform="scale(1 1) rotate(0) translate(4 343)">
<title>fmt::internal::MemoryBuffer&lt; T, SIZE, Allocator &gt;</title>
<!-- Node1 -->
<g id="node1" class="node"><title>Node1</title>
<polygon fill="#bfbfbf" stroke="black" points="3.5,-0.5 3.5,-101.5 139.5,-101.5 139.5,-0.5 3.5,-0.5"/>
<text text-anchor="start" x="11.5" y="-89.5" font-family="Helvetica,sans-Serif" font-size="10.00">fmt::internal::MemoryBuffer</text>
<text text-anchor="middle" x="71.5" y="-78.5" font-family="Helvetica,sans-Serif" font-size="10.00">&lt; T, SIZE, Allocator &gt;</text>
<polyline fill="none" stroke="black" points="3.5,-71.5 139.5,-71.5 "/>
<text text-anchor="middle" x="71.5" y="-59.5" font-family="Helvetica,sans-Serif" font-size="10.00"> </text>
<polyline fill="none" stroke="black" points="3.5,-52.5 139.5,-52.5 "/>
<text text-anchor="start" x="11.5" y="-40.5" font-family="Helvetica,sans-Serif" font-size="10.00">+ MemoryBuffer()</text>
<text text-anchor="start" x="11.5" y="-29.5" font-family="Helvetica,sans-Serif" font-size="10.00">+ ~MemoryBuffer()</text>
<text text-anchor="start" x="11.5" y="-18.5" font-family="Helvetica,sans-Serif" font-size="10.00">+ get_allocator()</text>
<text text-anchor="start" x="11.5" y="-7.5" font-family="Helvetica,sans-Serif" font-size="10.00"># grow()</text>
</g>
<!-- Node2 -->
<g id="node2" class="node"><title>Node2</title>
<polygon fill="none" stroke="#bfbfbf" points="0,-210 0,-267 55,-267 55,-210 0,-210"/>
<text text-anchor="middle" x="27.5" y="-255" font-family="Helvetica,sans-Serif" font-size="10.00">Allocator</text>
<polyline fill="none" stroke="#bfbfbf" points="0,-248 55,-248 "/>
<text text-anchor="middle" x="27.5" y="-236" font-family="Helvetica,sans-Serif" font-size="10.00"> </text>
<polyline fill="none" stroke="#bfbfbf" points="0,-229 55,-229 "/>
<text text-anchor="middle" x="27.5" y="-217" font-family="Helvetica,sans-Serif" font-size="10.00"> </text>
</g>
<!-- Node2&#45;&gt;Node1 -->
<g id="edge1" class="edge"><title>Node2&#45;&gt;Node1</title>
<path fill="none" stroke="#8b1a1a" d="M36.4373,-199.821C43.1511,-171.517 52.4093,-132.485 59.7264,-101.636"/>
<polygon fill="none" stroke="#8b1a1a" points="32.9897,-199.191 34.0872,-209.729 39.8008,-200.807 32.9897,-199.191"/>
</g>
<!-- Node3 -->
<g id="node3" class="node"><title>Node3</title>
<g id="a_node3"><a xlink:href="classfmt_1_1Buffer.html" target="_top" xlink:title="A buffer supporting a subset of std::vector&#39;s operations. ">
<polygon fill="none" stroke="black" points="73,-138.5 73,-338.5 160,-338.5 160,-138.5 73,-138.5"/>
<text text-anchor="middle" x="116.5" y="-326.5" font-family="Helvetica,sans-Serif" font-size="10.00">fmt::Buffer&lt; T &gt;</text>
<polyline fill="none" stroke="black" points="73,-319.5 160,-319.5 "/>
<text text-anchor="start" x="81" y="-307.5" font-family="Helvetica,sans-Serif" font-size="10.00"># ptr_</text>
<text text-anchor="start" x="81" y="-296.5" font-family="Helvetica,sans-Serif" font-size="10.00"># size_</text>
<text text-anchor="start" x="81" y="-285.5" font-family="Helvetica,sans-Serif" font-size="10.00"># capacity_</text>
<polyline fill="none" stroke="black" points="73,-278.5 160,-278.5 "/>
<text text-anchor="start" x="81" y="-266.5" font-family="Helvetica,sans-Serif" font-size="10.00">+ ~Buffer()</text>
<text text-anchor="start" x="81" y="-255.5" font-family="Helvetica,sans-Serif" font-size="10.00">+ size()</text>
<text text-anchor="start" x="81" y="-244.5" font-family="Helvetica,sans-Serif" font-size="10.00">+ capacity()</text>
<text text-anchor="start" x="81" y="-233.5" font-family="Helvetica,sans-Serif" font-size="10.00">+ resize()</text>
<text text-anchor="start" x="81" y="-222.5" font-family="Helvetica,sans-Serif" font-size="10.00">+ reserve()</text>
<text text-anchor="start" x="81" y="-211.5" font-family="Helvetica,sans-Serif" font-size="10.00">+ clear()</text>
<text text-anchor="start" x="81" y="-200.5" font-family="Helvetica,sans-Serif" font-size="10.00">+ push_back()</text>
<text text-anchor="start" x="81" y="-189.5" font-family="Helvetica,sans-Serif" font-size="10.00">+ append()</text>
<text text-anchor="start" x="81" y="-178.5" font-family="Helvetica,sans-Serif" font-size="10.00">+ operator[]()</text>
<text text-anchor="start" x="81" y="-167.5" font-family="Helvetica,sans-Serif" font-size="10.00">+ operator[]()</text>
<text text-anchor="start" x="81" y="-156.5" font-family="Helvetica,sans-Serif" font-size="10.00"># Buffer()</text>
<text text-anchor="start" x="81" y="-145.5" font-family="Helvetica,sans-Serif" font-size="10.00"># grow()</text>
</a>
</g>
</g>
<!-- Node3&#45;&gt;Node1 -->
<g id="edge2" class="edge"><title>Node3&#45;&gt;Node1</title>
<path fill="none" stroke="midnightblue" d="M90.0004,-128.263C87.7868,-119.138 85.6265,-110.233 83.6091,-101.916"/>
<polygon fill="none" stroke="midnightblue" points="86.6602,-129.34 92.4191,-138.233 93.4629,-127.69 86.6602,-129.34"/>
</g>
</g>
</svg>
