<?xml version="1.0" encoding="UTF-8" standalone="no"?>
<!DOCTYPE svg PUBLIC "-//W3C//DTD SVG 1.1//EN"
 "http://www.w3.org/Graphics/SVG/1.1/DTD/svg11.dtd">
<!-- Generated by graphviz version 2.38.0 (20140413.2041)
 -->
<!-- Title: spdlog::sinks::wincolor_sink&lt; Mutex &gt; Pages: 1 -->
<svg width="270pt" height="612pt"
 viewBox="0.00 0.00 270.00 612.00" xmlns="http://www.w3.org/2000/svg" xmlns:xlink="http://www.w3.org/1999/xlink">
<g id="graph0" class="graph" transform="scale(1 1) rotate(0) translate(4 608)">
<title>spdlog::sinks::wincolor_sink&lt; Mutex &gt;</title>
<!-- Node1 -->
<g id="node1" class="node"><title>Node1</title>
<polygon fill="#bfbfbf" stroke="black" points="72.5,-105.5 72.5,-283.5 188.5,-283.5 188.5,-105.5 72.5,-105.5"/>
<text text-anchor="start" x="80.5" y="-271.5" font-family="Helvetica,sans-Serif" font-size="10.00">spdlog::sinks::wincolor</text>
<text text-anchor="middle" x="130.5" y="-260.5" font-family="Helvetica,sans-Serif" font-size="10.00">_sink&lt; Mutex &gt;</text>
<polyline fill="none" stroke="black" points="72.5,-253.5 188.5,-253.5 "/>
<text text-anchor="start" x="80.5" y="-241.5" font-family="Helvetica,sans-Serif" font-size="10.00">+ BOLD</text>
<text text-anchor="start" x="80.5" y="-230.5" font-family="Helvetica,sans-Serif" font-size="10.00">+ RED</text>
<text text-anchor="start" x="80.5" y="-219.5" font-family="Helvetica,sans-Serif" font-size="10.00">+ CYAN</text>
<text text-anchor="start" x="80.5" y="-208.5" font-family="Helvetica,sans-Serif" font-size="10.00">+ WHITE</text>
<text text-anchor="start" x="80.5" y="-197.5" font-family="Helvetica,sans-Serif" font-size="10.00">+ YELLOW</text>
<polyline fill="none" stroke="black" points="72.5,-190.5 188.5,-190.5 "/>
<text text-anchor="start" x="80.5" y="-178.5" font-family="Helvetica,sans-Serif" font-size="10.00">+ wincolor_sink()</text>
<text text-anchor="start" x="80.5" y="-167.5" font-family="Helvetica,sans-Serif" font-size="10.00">+ ~wincolor_sink()</text>
<text text-anchor="start" x="80.5" y="-156.5" font-family="Helvetica,sans-Serif" font-size="10.00">+ wincolor_sink()</text>
<text text-anchor="start" x="80.5" y="-145.5" font-family="Helvetica,sans-Serif" font-size="10.00">+ operator=()</text>
<text text-anchor="start" x="80.5" y="-134.5" font-family="Helvetica,sans-Serif" font-size="10.00">+ _sink_it()</text>
<text text-anchor="start" x="80.5" y="-123.5" font-family="Helvetica,sans-Serif" font-size="10.00">+ flush()</text>
<text text-anchor="start" x="80.5" y="-112.5" font-family="Helvetica,sans-Serif" font-size="10.00">+ set_color()</text>
</g>
<!-- Node4 -->
<g id="node4" class="node"><title>Node4</title>
<g id="a_node4"><a xlink:href="classspdlog_1_1sinks_1_1wincolor__stderr__sink.html" target="_top" xlink:title="{spdlog::sinks::wincolor\l_stderr_sink\&lt; Mutex \&gt;\n||+ wincolor_stderr_sink()\l}">
<polygon fill="none" stroke="black" points="0,-0.5 0,-68.5 121,-68.5 121,-0.5 0,-0.5"/>
<text text-anchor="start" x="8" y="-56.5" font-family="Helvetica,sans-Serif" font-size="10.00">spdlog::sinks::wincolor</text>
<text text-anchor="middle" x="60.5" y="-45.5" font-family="Helvetica,sans-Serif" font-size="10.00">_stderr_sink&lt; Mutex &gt;</text>
<polyline fill="none" stroke="black" points="0,-38.5 121,-38.5 "/>
<text text-anchor="middle" x="60.5" y="-26.5" font-family="Helvetica,sans-Serif" font-size="10.00"> </text>
<polyline fill="none" stroke="black" points="0,-19.5 121,-19.5 "/>
<text text-anchor="start" x="8" y="-7.5" font-family="Helvetica,sans-Serif" font-size="10.00">+ wincolor_stderr_sink()</text>
</a>
</g>
</g>
<!-- Node1&#45;&gt;Node4 -->
<g id="edge3" class="edge"><title>Node1&#45;&gt;Node4</title>
<path fill="none" stroke="midnightblue" d="M87.2555,-95.891C82.9721,-86.2228 78.8634,-76.9488 75.2063,-68.6942"/>
<polygon fill="none" stroke="midnightblue" points="84.1561,-97.5359 91.4068,-105.261 90.5561,-94.7004 84.1561,-97.5359"/>
</g>
<!-- Node5 -->
<g id="node5" class="node"><title>Node5</title>
<g id="a_node5"><a xlink:href="classspdlog_1_1sinks_1_1wincolor__stdout__sink.html" target="_top" xlink:title="{spdlog::sinks::wincolor\l_stdout_sink\&lt; Mutex \&gt;\n||+ wincolor_stdout_sink()\l}">
<polygon fill="none" stroke="black" points="139,-0.5 139,-68.5 262,-68.5 262,-0.5 139,-0.5"/>
<text text-anchor="start" x="147" y="-56.5" font-family="Helvetica,sans-Serif" font-size="10.00">spdlog::sinks::wincolor</text>
<text text-anchor="middle" x="200.5" y="-45.5" font-family="Helvetica,sans-Serif" font-size="10.00">_stdout_sink&lt; Mutex &gt;</text>
<polyline fill="none" stroke="black" points="139,-38.5 262,-38.5 "/>
<text text-anchor="middle" x="200.5" y="-26.5" font-family="Helvetica,sans-Serif" font-size="10.00"> </text>
<polyline fill="none" stroke="black" points="139,-19.5 262,-19.5 "/>
<text text-anchor="start" x="147" y="-7.5" font-family="Helvetica,sans-Serif" font-size="10.00">+ wincolor_stdout_sink()</text>
</a>
</g>
</g>
<!-- Node1&#45;&gt;Node5 -->
<g id="edge4" class="edge"><title>Node1&#45;&gt;Node5</title>
<path fill="none" stroke="midnightblue" d="M173.744,-95.891C178.028,-86.2228 182.137,-76.9488 185.794,-68.6942"/>
<polygon fill="none" stroke="midnightblue" points="170.444,-94.7004 169.593,-105.261 176.844,-97.5359 170.444,-94.7004"/>
</g>
<!-- Node2 -->
<g id="node2" class="node"><title>Node2</title>
<g id="a_node2"><a xlink:href="classspdlog_1_1sinks_1_1base__sink.html" target="_top" xlink:title="{spdlog::sinks::base\l_sink\&lt; Mutex \&gt;\n|# _mutex\l|+ base_sink()\l+ ~base_sink()\l+ base_sink()\l+ operator=()\l+ log()\l# _sink_it()\l}">
<polygon fill="none" stroke="black" points="80,-320.5 80,-443.5 181,-443.5 181,-320.5 80,-320.5"/>
<text text-anchor="start" x="88" y="-431.5" font-family="Helvetica,sans-Serif" font-size="10.00">spdlog::sinks::base</text>
<text text-anchor="middle" x="130.5" y="-420.5" font-family="Helvetica,sans-Serif" font-size="10.00">_sink&lt; Mutex &gt;</text>
<polyline fill="none" stroke="black" points="80,-413.5 181,-413.5 "/>
<text text-anchor="start" x="88" y="-401.5" font-family="Helvetica,sans-Serif" font-size="10.00"># _mutex</text>
<polyline fill="none" stroke="black" points="80,-394.5 181,-394.5 "/>
<text text-anchor="start" x="88" y="-382.5" font-family="Helvetica,sans-Serif" font-size="10.00">+ base_sink()</text>
<text text-anchor="start" x="88" y="-371.5" font-family="Helvetica,sans-Serif" font-size="10.00">+ ~base_sink()</text>
<text text-anchor="start" x="88" y="-360.5" font-family="Helvetica,sans-Serif" font-size="10.00">+ base_sink()</text>
<text text-anchor="start" x="88" y="-349.5" font-family="Helvetica,sans-Serif" font-size="10.00">+ operator=()</text>
<text text-anchor="start" x="88" y="-338.5" font-family="Helvetica,sans-Serif" font-size="10.00">+ log()</text>
<text text-anchor="start" x="88" y="-327.5" font-family="Helvetica,sans-Serif" font-size="10.00"># _sink_it()</text>
</a>
</g>
</g>
<!-- Node2&#45;&gt;Node1 -->
<g id="edge1" class="edge"><title>Node2&#45;&gt;Node1</title>
<path fill="none" stroke="midnightblue" d="M130.5,-310.199C130.5,-301.505 130.5,-292.538 130.5,-283.628"/>
<polygon fill="none" stroke="midnightblue" points="127,-310.26 130.5,-320.26 134,-310.26 127,-310.26"/>
</g>
<!-- Node3 -->
<g id="node3" class="node"><title>Node3</title>
<g id="a_node3"><a xlink:href="classspdlog_1_1sinks_1_1sink.html" target="_top" xlink:title="{spdlog::sinks::sink\n||+ sink()\l+ ~sink()\l+ log()\l+ flush()\l+ should_log()\l+ set_level()\l+ level()\l}">
<polygon fill="none" stroke="black" points="81.5,-480.5 81.5,-603.5 179.5,-603.5 179.5,-480.5 81.5,-480.5"/>
<text text-anchor="middle" x="130.5" y="-591.5" font-family="Helvetica,sans-Serif" font-size="10.00">spdlog::sinks::sink</text>
<polyline fill="none" stroke="black" points="81.5,-584.5 179.5,-584.5 "/>
<text text-anchor="middle" x="130.5" y="-572.5" font-family="Helvetica,sans-Serif" font-size="10.00"> </text>
<polyline fill="none" stroke="black" points="81.5,-565.5 179.5,-565.5 "/>
<text text-anchor="start" x="89.5" y="-553.5" font-family="Helvetica,sans-Serif" font-size="10.00">+ sink()</text>
<text text-anchor="start" x="89.5" y="-542.5" font-family="Helvetica,sans-Serif" font-size="10.00">+ ~sink()</text>
<text text-anchor="start" x="89.5" y="-531.5" font-family="Helvetica,sans-Serif" font-size="10.00">+ log()</text>
<text text-anchor="start" x="89.5" y="-520.5" font-family="Helvetica,sans-Serif" font-size="10.00">+ flush()</text>
<text text-anchor="start" x="89.5" y="-509.5" font-family="Helvetica,sans-Serif" font-size="10.00">+ should_log()</text>
<text text-anchor="start" x="89.5" y="-498.5" font-family="Helvetica,sans-Serif" font-size="10.00">+ set_level()</text>
<text text-anchor="start" x="89.5" y="-487.5" font-family="Helvetica,sans-Serif" font-size="10.00">+ level()</text>
</a>
</g>
</g>
<!-- Node3&#45;&gt;Node2 -->
<g id="edge2" class="edge"><title>Node3&#45;&gt;Node2</title>
<path fill="none" stroke="midnightblue" d="M130.5,-470.116C130.5,-461.31 130.5,-452.368 130.5,-443.734"/>
<polygon fill="none" stroke="midnightblue" points="127,-470.365 130.5,-480.365 134,-470.365 127,-470.365"/>
</g>
</g>
</svg>
