<?xml version="1.0" encoding="UTF-8" standalone="no"?>
<!DOCTYPE svg PUBLIC "-//W3C//DTD SVG 1.1//EN"
 "http://www.w3.org/Graphics/SVG/1.1/DTD/svg11.dtd">
<!-- Generated by graphviz version 2.38.0 (20140413.2041)
 -->
<!-- Title: XBot::SSFileLogger Pages: 1 -->
<svg width="130pt" height="471pt"
 viewBox="0.00 0.00 130.00 471.00" xmlns="http://www.w3.org/2000/svg" xmlns:xlink="http://www.w3.org/1999/xlink">
<g id="graph0" class="graph" transform="scale(1 1) rotate(0) translate(4 467)">
<title>XBot::SSFileLogger</title>
<!-- Node1 -->
<g id="node1" class="node"><title>Node1</title>
<polygon fill="#bfbfbf" stroke="black" points="0.5,-0.5 0.5,-57.5 103.5,-57.5 103.5,-0.5 0.5,-0.5"/>
<text text-anchor="middle" x="52" y="-45.5" font-family="Helvetica,sans-Serif" font-size="10.00">XBot::SSFileLogger</text>
<polyline fill="none" stroke="black" points="0.5,-38.5 103.5,-38.5 "/>
<text text-anchor="middle" x="52" y="-26.5" font-family="Helvetica,sans-Serif" font-size="10.00"> </text>
<polyline fill="none" stroke="black" points="0.5,-19.5 103.5,-19.5 "/>
<text text-anchor="start" x="8.5" y="-7.5" font-family="Helvetica,sans-Serif" font-size="10.00">+ SSFileLogger()</text>
</g>
<!-- Node2 -->
<g id="node2" class="node"><title>Node2</title>
<g id="a_node2"><a xlink:href="classXBot_1_1SSLogger.html" target="_top" xlink:title="String Stream Logger. ">
<polygon fill="none" stroke="black" points="0,-95.5 0,-240.5 104,-240.5 104,-95.5 0,-95.5"/>
<text text-anchor="middle" x="52" y="-228.5" font-family="Helvetica,sans-Serif" font-size="10.00">XBot::SSLogger</text>
<polyline fill="none" stroke="black" points="0,-221.5 104,-221.5 "/>
<text text-anchor="start" x="8" y="-209.5" font-family="Helvetica,sans-Serif" font-size="10.00"># _log_file_size</text>
<text text-anchor="start" x="8" y="-198.5" font-family="Helvetica,sans-Serif" font-size="10.00"># _log_max_files</text>
<polyline fill="none" stroke="black" points="0,-191.5 104,-191.5 "/>
<text text-anchor="start" x="8" y="-179.5" font-family="Helvetica,sans-Serif" font-size="10.00">+ SSLogger()</text>
<text text-anchor="start" x="8" y="-168.5" font-family="Helvetica,sans-Serif" font-size="10.00">+ setSeverityLevel()</text>
<text text-anchor="start" x="8" y="-157.5" font-family="Helvetica,sans-Serif" font-size="10.00">+ setHeader()</text>
<text text-anchor="start" x="8" y="-146.5" font-family="Helvetica,sans-Serif" font-size="10.00">+ log()</text>
<text text-anchor="start" x="8" y="-135.5" font-family="Helvetica,sans-Serif" font-size="10.00">+ endl()</text>
<text text-anchor="start" x="8" y="-124.5" font-family="Helvetica,sans-Serif" font-size="10.00"># info_internal()</text>
<text text-anchor="start" x="8" y="-113.5" font-family="Helvetica,sans-Serif" font-size="10.00"># warning_internal()</text>
<text text-anchor="start" x="8" y="-102.5" font-family="Helvetica,sans-Serif" font-size="10.00"># error_internal()</text>
</a>
</g>
</g>
<!-- Node2&#45;&gt;Node1 -->
<g id="edge1" class="edge"><title>Node2&#45;&gt;Node1</title>
<path fill="none" stroke="midnightblue" d="M52,-85.0423C52,-75.3063 52,-65.9479 52,-57.7962"/>
<polygon fill="none" stroke="midnightblue" points="48.5001,-85.2901 52,-95.2901 55.5001,-85.2901 48.5001,-85.2901"/>
</g>
<!-- Node3 -->
<g id="node3" class="node"><title>Node3</title>
<g id="a_node3"><a xlink:title="STL class. ">
<polygon fill="none" stroke="#bfbfbf" points="22,-299.5 22,-356.5 82,-356.5 82,-299.5 22,-299.5"/>
<text text-anchor="middle" x="52" y="-344.5" font-family="Helvetica,sans-Serif" font-size="10.00">std::string</text>
<polyline fill="none" stroke="#bfbfbf" points="22,-337.5 82,-337.5 "/>
<text text-anchor="middle" x="52" y="-325.5" font-family="Helvetica,sans-Serif" font-size="10.00"> </text>
<polyline fill="none" stroke="#bfbfbf" points="22,-318.5 82,-318.5 "/>
<text text-anchor="middle" x="52" y="-306.5" font-family="Helvetica,sans-Serif" font-size="10.00"> </text>
</a>
</g>
</g>
<!-- Node3&#45;&gt;Node2 -->
<g id="edge2" class="edge"><title>Node3&#45;&gt;Node2</title>
<path fill="none" stroke="#404040" d="M52,-299.479C52,-286.317 52,-269.778 52,-252.939"/>
<polygon fill="none" stroke="#404040" points="52.0001,-252.668 48,-246.668 52,-240.668 56,-246.668 52.0001,-252.668"/>
<text text-anchor="middle" x="87" y="-273" font-family="Helvetica,sans-Serif" font-size="10.00"> #_logger_name</text>
<text text-anchor="middle" x="87" y="-262" font-family="Helvetica,sans-Serif" font-size="10.00">#_log_filename</text>
</g>
<!-- Node4 -->
<g id="node4" class="node"><title>Node4</title>
<g id="a_node4"><a xlink:title="STL class. ">
<polygon fill="none" stroke="#bfbfbf" points="4.5,-394.5 4.5,-462.5 99.5,-462.5 99.5,-394.5 4.5,-394.5"/>
<text text-anchor="start" x="12.5" y="-450.5" font-family="Helvetica,sans-Serif" font-size="10.00">std::basic_string&lt;</text>
<text text-anchor="middle" x="52" y="-439.5" font-family="Helvetica,sans-Serif" font-size="10.00"> char &gt;</text>
<polyline fill="none" stroke="#bfbfbf" points="4.5,-432.5 99.5,-432.5 "/>
<text text-anchor="middle" x="52" y="-420.5" font-family="Helvetica,sans-Serif" font-size="10.00"> </text>
<polyline fill="none" stroke="#bfbfbf" points="4.5,-413.5 99.5,-413.5 "/>
<text text-anchor="middle" x="52" y="-401.5" font-family="Helvetica,sans-Serif" font-size="10.00"> </text>
</a>
</g>
</g>
<!-- Node4&#45;&gt;Node3 -->
<g id="edge3" class="edge"><title>Node4&#45;&gt;Node3</title>
<path fill="none" stroke="midnightblue" d="M52,-384.375C52,-374.94 52,-365.201 52,-356.571"/>
<polygon fill="none" stroke="midnightblue" points="48.5001,-384.427 52,-394.427 55.5001,-384.427 48.5001,-384.427"/>
</g>
</g>
</svg>
