<?xml version="1.0" encoding="UTF-8" standalone="no"?>
<!DOCTYPE svg PUBLIC "-//W3C//DTD SVG 1.1//EN"
 "http://www.w3.org/Graphics/SVG/1.1/DTD/svg11.dtd">
<!-- Generated by graphviz version 2.38.0 (20140413.2041)
 -->
<!-- Title: XBot::ModelChain Pages: 1 -->
<svg width="928pt" height="642pt"
 viewBox="0.00 0.00 927.50 642.00" xmlns="http://www.w3.org/2000/svg" xmlns:xlink="http://www.w3.org/1999/xlink">
<g id="graph0" class="graph" transform="scale(1 1) rotate(0) translate(4 638)">
<title>XBot::ModelChain</title>
<!-- Node1 -->
<g id="node1" class="node"><title>Node1</title>
<polygon fill="#bfbfbf" stroke="black" points="450.5,-0.5 450.5,-57.5 546.5,-57.5 546.5,-0.5 450.5,-0.5"/>
<text text-anchor="middle" x="498.5" y="-45.5" font-family="Helvetica,sans-Serif" font-size="10.00">XBot::ModelChain</text>
<polyline fill="none" stroke="black" points="450.5,-38.5 546.5,-38.5 "/>
<text text-anchor="middle" x="498.5" y="-26.5" font-family="Helvetica,sans-Serif" font-size="10.00"> </text>
<polyline fill="none" stroke="black" points="450.5,-19.5 546.5,-19.5 "/>
<text text-anchor="middle" x="498.5" y="-7.5" font-family="Helvetica,sans-Serif" font-size="10.00"> </text>
</g>
<!-- Node2 -->
<g id="node2" class="node"><title>Node2</title>
<g id="a_node2"><a xlink:href="classXBot_1_1KinematicChain.html" target="_top" xlink:title="Kinematic chain abstraction as a set of joints and sensors. ">
<polygon fill="none" stroke="black" points="433,-95.5 433,-295.5 564,-295.5 564,-95.5 433,-95.5"/>
<text text-anchor="middle" x="498.5" y="-283.5" font-family="Helvetica,sans-Serif" font-size="10.00">XBot::KinematicChain</text>
<polyline fill="none" stroke="black" points="433,-276.5 564,-276.5 "/>
<text text-anchor="middle" x="498.5" y="-264.5" font-family="Helvetica,sans-Serif" font-size="10.00"> </text>
<polyline fill="none" stroke="black" points="433,-257.5 564,-257.5 "/>
<text text-anchor="start" x="441" y="-245.5" font-family="Helvetica,sans-Serif" font-size="10.00">+ KinematicChain()</text>
<text text-anchor="start" x="441" y="-234.5" font-family="Helvetica,sans-Serif" font-size="10.00">+ KinematicChain()</text>
<text text-anchor="start" x="441" y="-223.5" font-family="Helvetica,sans-Serif" font-size="10.00">+ KinematicChain()</text>
<text text-anchor="start" x="441" y="-212.5" font-family="Helvetica,sans-Serif" font-size="10.00">+ KinematicChain()</text>
<text text-anchor="start" x="441" y="-201.5" font-family="Helvetica,sans-Serif" font-size="10.00">+ operator=()</text>
<text text-anchor="start" x="441" y="-190.5" font-family="Helvetica,sans-Serif" font-size="10.00">+ getChainState()</text>
<text text-anchor="start" x="441" y="-179.5" font-family="Helvetica,sans-Serif" font-size="10.00">+ getChainState()</text>
<text text-anchor="start" x="441" y="-168.5" font-family="Helvetica,sans-Serif" font-size="10.00">+ getChainState()</text>
<text text-anchor="start" x="441" y="-157.5" font-family="Helvetica,sans-Serif" font-size="10.00">+ getForceTorque()</text>
<text text-anchor="start" x="441" y="-146.5" font-family="Helvetica,sans-Serif" font-size="10.00">+ getImu()</text>
<text text-anchor="start" x="441" y="-135.5" font-family="Helvetica,sans-Serif" font-size="10.00">and 141 more...</text>
<text text-anchor="start" x="441" y="-124.5" font-family="Helvetica,sans-Serif" font-size="10.00"># getJointInternal()</text>
<text text-anchor="start" x="441" y="-113.5" font-family="Helvetica,sans-Serif" font-size="10.00"># getForceTorqueInternal()</text>
<text text-anchor="start" x="441" y="-102.5" font-family="Helvetica,sans-Serif" font-size="10.00"># getImuInternal()</text>
</a>
</g>
</g>
<!-- Node2&#45;&gt;Node1 -->
<g id="edge1" class="edge"><title>Node2&#45;&gt;Node1</title>
<path fill="none" stroke="midnightblue" d="M498.5,-85.2275C498.5,-75.1446 498.5,-65.6712 498.5,-57.5133"/>
<polygon fill="none" stroke="midnightblue" points="495,-85.4874 498.5,-95.4874 502,-85.4875 495,-85.4874"/>
</g>
<!-- Node3 -->
<g id="node3" class="node"><title>Node3</title>
<polygon fill="none" stroke="#bfbfbf" points="0,-343.5 0,-422.5 133,-422.5 133,-343.5 0,-343.5"/>
<text text-anchor="start" x="8" y="-410.5" font-family="Helvetica,sans-Serif" font-size="10.00">std::map&lt; std::string,</text>
<text text-anchor="start" x="8" y="-399.5" font-family="Helvetica,sans-Serif" font-size="10.00"> XBot::ForceTorqueSensor</text>
<text text-anchor="middle" x="66.5" y="-388.5" font-family="Helvetica,sans-Serif" font-size="10.00">::Ptr &gt;</text>
<polyline fill="none" stroke="#bfbfbf" points="0,-381.5 133,-381.5 "/>
<text text-anchor="start" x="8" y="-369.5" font-family="Helvetica,sans-Serif" font-size="10.00">+ elements</text>
<polyline fill="none" stroke="#bfbfbf" points="0,-362.5 133,-362.5 "/>
<text text-anchor="middle" x="66.5" y="-350.5" font-family="Helvetica,sans-Serif" font-size="10.00"> </text>
</g>
<!-- Node3&#45;&gt;Node2 -->
<g id="edge2" class="edge"><title>Node3&#45;&gt;Node2</title>
<path fill="none" stroke="#404040" d="M133.073,-347.439C136.249,-345.916 139.403,-344.429 142.5,-343 237.261,-299.282 348.868,-254.392 421.516,-226.024"/>
<polygon fill="none" stroke="#404040" points="421.651,-225.972 425.79,-220.067 432.833,-221.616 428.694,-227.521 421.651,-225.972"/>
<text text-anchor="middle" x="222.5" y="-317" font-family="Helvetica,sans-Serif" font-size="10.00"> #_ft_map</text>
</g>
<!-- Node4 -->
<g id="node4" class="node"><title>Node4</title>
<g id="a_node4"><a xlink:title="STL class. ">
<polygon fill="none" stroke="#bfbfbf" points="182.5,-470.5 182.5,-527.5 242.5,-527.5 242.5,-470.5 182.5,-470.5"/>
<text text-anchor="middle" x="212.5" y="-515.5" font-family="Helvetica,sans-Serif" font-size="10.00">std::string</text>
<polyline fill="none" stroke="#bfbfbf" points="182.5,-508.5 242.5,-508.5 "/>
<text text-anchor="middle" x="212.5" y="-496.5" font-family="Helvetica,sans-Serif" font-size="10.00"> </text>
<polyline fill="none" stroke="#bfbfbf" points="182.5,-489.5 242.5,-489.5 "/>
<text text-anchor="middle" x="212.5" y="-477.5" font-family="Helvetica,sans-Serif" font-size="10.00"> </text>
</a>
</g>
</g>
<!-- Node4&#45;&gt;Node3 -->
<g id="edge3" class="edge"><title>Node4&#45;&gt;Node3</title>
<path fill="none" stroke="#404040" d="M182.249,-474.379C165.886,-461.603 145.099,-445.372 125.669,-430.201"/>
<polygon fill="none" stroke="#404040" points="125.424,-430.009 118.233,-429.469 115.966,-422.624 123.156,-423.164 125.424,-430.009"/>
<text text-anchor="middle" x="169" y="-444" font-family="Helvetica,sans-Serif" font-size="10.00"> +keys</text>
</g>
<!-- Node6 -->
<g id="node6" class="node"><title>Node6</title>
<polygon fill="none" stroke="#bfbfbf" points="151.5,-349 151.5,-417 273.5,-417 273.5,-349 151.5,-349"/>
<text text-anchor="start" x="159.5" y="-405" font-family="Helvetica,sans-Serif" font-size="10.00">std::map&lt; std::string,</text>
<text text-anchor="middle" x="212.5" y="-394" font-family="Helvetica,sans-Serif" font-size="10.00"> XBot::ImuSensor::Ptr &gt;</text>
<polyline fill="none" stroke="#bfbfbf" points="151.5,-387 273.5,-387 "/>
<text text-anchor="start" x="159.5" y="-375" font-family="Helvetica,sans-Serif" font-size="10.00">+ elements</text>
<polyline fill="none" stroke="#bfbfbf" points="151.5,-368 273.5,-368 "/>
<text text-anchor="middle" x="212.5" y="-356" font-family="Helvetica,sans-Serif" font-size="10.00"> </text>
</g>
<!-- Node4&#45;&gt;Node6 -->
<g id="edge6" class="edge"><title>Node4&#45;&gt;Node6</title>
<path fill="none" stroke="#404040" d="M212.5,-470.404C212.5,-458.094 212.5,-443.264 212.5,-429.392"/>
<polygon fill="none" stroke="#404040" points="212.5,-429.021 208.5,-423.021 212.5,-417.021 216.5,-423.021 212.5,-429.021"/>
<text text-anchor="middle" x="228" y="-444" font-family="Helvetica,sans-Serif" font-size="10.00"> +keys</text>
</g>
<!-- Node7 -->
<g id="node7" class="node"><title>Node7</title>
<polygon fill="none" stroke="#bfbfbf" points="291.5,-349 291.5,-417 415.5,-417 415.5,-349 291.5,-349"/>
<text text-anchor="start" x="299.5" y="-405" font-family="Helvetica,sans-Serif" font-size="10.00">std::map&lt; std::string,</text>
<text text-anchor="middle" x="353.5" y="-394" font-family="Helvetica,sans-Serif" font-size="10.00"> XBot::XBot::Joint::Ptr &gt;</text>
<polyline fill="none" stroke="#bfbfbf" points="291.5,-387 415.5,-387 "/>
<text text-anchor="start" x="299.5" y="-375" font-family="Helvetica,sans-Serif" font-size="10.00">+ elements</text>
<polyline fill="none" stroke="#bfbfbf" points="291.5,-368 415.5,-368 "/>
<text text-anchor="middle" x="353.5" y="-356" font-family="Helvetica,sans-Serif" font-size="10.00"> </text>
</g>
<!-- Node4&#45;&gt;Node7 -->
<g id="edge8" class="edge"><title>Node4&#45;&gt;Node7</title>
<path fill="none" stroke="#404040" d="M242.748,-473.544C260.352,-459.311 282.991,-441.008 303.208,-424.662"/>
<polygon fill="none" stroke="#404040" points="303.27,-424.612 305.421,-417.729 312.602,-417.067 310.451,-423.95 303.27,-424.612"/>
<text text-anchor="middle" x="299" y="-444" font-family="Helvetica,sans-Serif" font-size="10.00"> +keys</text>
</g>
<!-- Node5 -->
<g id="node5" class="node"><title>Node5</title>
<g id="a_node5"><a xlink:title="STL class. ">
<polygon fill="none" stroke="#bfbfbf" points="165,-565.5 165,-633.5 260,-633.5 260,-565.5 165,-565.5"/>
<text text-anchor="start" x="173" y="-621.5" font-family="Helvetica,sans-Serif" font-size="10.00">std::basic_string&lt;</text>
<text text-anchor="middle" x="212.5" y="-610.5" font-family="Helvetica,sans-Serif" font-size="10.00"> char &gt;</text>
<polyline fill="none" stroke="#bfbfbf" points="165,-603.5 260,-603.5 "/>
<text text-anchor="middle" x="212.5" y="-591.5" font-family="Helvetica,sans-Serif" font-size="10.00"> </text>
<polyline fill="none" stroke="#bfbfbf" points="165,-584.5 260,-584.5 "/>
<text text-anchor="middle" x="212.5" y="-572.5" font-family="Helvetica,sans-Serif" font-size="10.00"> </text>
</a>
</g>
</g>
<!-- Node5&#45;&gt;Node4 -->
<g id="edge4" class="edge"><title>Node5&#45;&gt;Node4</title>
<path fill="none" stroke="midnightblue" d="M212.5,-555.375C212.5,-545.94 212.5,-536.201 212.5,-527.571"/>
<polygon fill="none" stroke="midnightblue" points="209,-555.427 212.5,-565.427 216,-555.427 209,-555.427"/>
</g>
<!-- Node6&#45;&gt;Node2 -->
<g id="edge5" class="edge"><title>Node6&#45;&gt;Node2</title>
<path fill="none" stroke="#404040" d="M263.631,-348.836C307.899,-320.124 372.536,-278.2 422.801,-245.598"/>
<polygon fill="none" stroke="#404040" points="422.906,-245.53 425.764,-238.909 432.974,-239 430.117,-245.621 422.906,-245.53"/>
<text text-anchor="middle" x="340.5" y="-317" font-family="Helvetica,sans-Serif" font-size="10.00"> #_imu_map</text>
</g>
<!-- Node7&#45;&gt;Node2 -->
<g id="edge7" class="edge"><title>Node7&#45;&gt;Node2</title>
<path fill="none" stroke="#404040" d="M379.423,-348.836C392.421,-332.208 408.882,-311.149 425.386,-290.035"/>
<polygon fill="none" stroke="#404040" points="425.57,-289.8 426.113,-282.61 432.96,-280.346 432.416,-287.537 425.57,-289.8"/>
<text text-anchor="middle" x="448" y="-317" font-family="Helvetica,sans-Serif" font-size="10.00"> #_joint_name_map</text>
</g>
<!-- Node8 -->
<g id="node8" class="node"><title>Node8</title>
<polygon fill="none" stroke="#bfbfbf" points="433.5,-349 433.5,-417 563.5,-417 563.5,-349 433.5,-349"/>
<text text-anchor="start" x="441.5" y="-405" font-family="Helvetica,sans-Serif" font-size="10.00">std::vector&lt; XBot::</text>
<text text-anchor="middle" x="498.5" y="-394" font-family="Helvetica,sans-Serif" font-size="10.00">ForceTorqueSensor::Ptr &gt;</text>
<polyline fill="none" stroke="#bfbfbf" points="433.5,-387 563.5,-387 "/>
<text text-anchor="start" x="441.5" y="-375" font-family="Helvetica,sans-Serif" font-size="10.00">+ elements</text>
<polyline fill="none" stroke="#bfbfbf" points="433.5,-368 563.5,-368 "/>
<text text-anchor="middle" x="498.5" y="-356" font-family="Helvetica,sans-Serif" font-size="10.00"> </text>
</g>
<!-- Node8&#45;&gt;Node2 -->
<g id="edge9" class="edge"><title>Node8&#45;&gt;Node2</title>
<path fill="none" stroke="#404040" d="M498.5,-348.836C498.5,-336.913 498.5,-322.711 498.5,-307.845"/>
<polygon fill="none" stroke="#404040" points="498.5,-307.811 494.5,-301.811 498.5,-295.811 502.5,-301.811 498.5,-307.811"/>
<text text-anchor="middle" x="524.5" y="-317" font-family="Helvetica,sans-Serif" font-size="10.00"> #_ft_vector</text>
</g>
<!-- Node9 -->
<g id="node9" class="node"><title>Node9</title>
<polygon fill="none" stroke="#bfbfbf" points="581.5,-343.5 581.5,-422.5 683.5,-422.5 683.5,-343.5 581.5,-343.5"/>
<text text-anchor="start" x="589.5" y="-410.5" font-family="Helvetica,sans-Serif" font-size="10.00">std::map&lt; int, XBot</text>
<text text-anchor="middle" x="632.5" y="-399.5" font-family="Helvetica,sans-Serif" font-size="10.00">::XBot::Joint::Ptr &gt;</text>
<polyline fill="none" stroke="#bfbfbf" points="581.5,-392.5 683.5,-392.5 "/>
<text text-anchor="start" x="589.5" y="-380.5" font-family="Helvetica,sans-Serif" font-size="10.00">+ keys</text>
<text text-anchor="start" x="589.5" y="-369.5" font-family="Helvetica,sans-Serif" font-size="10.00">+ elements</text>
<polyline fill="none" stroke="#bfbfbf" points="581.5,-362.5 683.5,-362.5 "/>
<text text-anchor="middle" x="632.5" y="-350.5" font-family="Helvetica,sans-Serif" font-size="10.00"> </text>
</g>
<!-- Node9&#45;&gt;Node2 -->
<g id="edge10" class="edge"><title>Node9&#45;&gt;Node2</title>
<path fill="none" stroke="#404040" d="M604.409,-343.113C594.622,-329.564 583.139,-313.669 571.413,-297.436"/>
<polygon fill="none" stroke="#404040" points="571.121,-297.031 564.365,-294.509 564.094,-287.303 570.85,-289.825 571.121,-297.031"/>
<text text-anchor="middle" x="624" y="-317" font-family="Helvetica,sans-Serif" font-size="10.00"> #_joint_id_map</text>
</g>
<!-- Node10 -->
<g id="node10" class="node"><title>Node10</title>
<polygon fill="none" stroke="#bfbfbf" points="701.5,-349 701.5,-417 801.5,-417 801.5,-349 701.5,-349"/>
<text text-anchor="start" x="709.5" y="-405" font-family="Helvetica,sans-Serif" font-size="10.00">std::vector&lt; XBot::</text>
<text text-anchor="middle" x="751.5" y="-394" font-family="Helvetica,sans-Serif" font-size="10.00">ImuSensor::Ptr &gt;</text>
<polyline fill="none" stroke="#bfbfbf" points="701.5,-387 801.5,-387 "/>
<text text-anchor="start" x="709.5" y="-375" font-family="Helvetica,sans-Serif" font-size="10.00">+ elements</text>
<polyline fill="none" stroke="#bfbfbf" points="701.5,-368 801.5,-368 "/>
<text text-anchor="middle" x="751.5" y="-356" font-family="Helvetica,sans-Serif" font-size="10.00"> </text>
</g>
<!-- Node10&#45;&gt;Node2 -->
<g id="edge11" class="edge"><title>Node10&#45;&gt;Node2</title>
<path fill="none" stroke="#404040" d="M708.697,-348.874C694.112,-337.7 677.662,-325.22 662.5,-314 633.914,-292.846 602.206,-269.99 574.349,-250.108"/>
<polygon fill="none" stroke="#404040" points="574.045,-249.892 566.837,-249.667 564.273,-242.927 571.48,-243.152 574.045,-249.892"/>
<text text-anchor="middle" x="708.5" y="-317" font-family="Helvetica,sans-Serif" font-size="10.00"> #_imu_vector</text>
</g>
<!-- Node11 -->
<g id="node11" class="node"><title>Node11</title>
<polygon fill="none" stroke="#bfbfbf" points="819.5,-349 819.5,-417 919.5,-417 919.5,-349 819.5,-349"/>
<text text-anchor="start" x="827.5" y="-405" font-family="Helvetica,sans-Serif" font-size="10.00">std::vector&lt; XBot::</text>
<text text-anchor="middle" x="869.5" y="-394" font-family="Helvetica,sans-Serif" font-size="10.00">XBot::Joint::Ptr &gt;</text>
<polyline fill="none" stroke="#bfbfbf" points="819.5,-387 919.5,-387 "/>
<text text-anchor="start" x="827.5" y="-375" font-family="Helvetica,sans-Serif" font-size="10.00">+ elements</text>
<polyline fill="none" stroke="#bfbfbf" points="819.5,-368 919.5,-368 "/>
<text text-anchor="middle" x="869.5" y="-356" font-family="Helvetica,sans-Serif" font-size="10.00"> </text>
</g>
<!-- Node11&#45;&gt;Node2 -->
<g id="edge12" class="edge"><title>Node11&#45;&gt;Node2</title>
<path fill="none" stroke="#404040" d="M820.578,-348.895C817.2,-346.847 813.819,-344.863 810.5,-343 732.601,-299.269 639.456,-256.722 575.336,-228.85"/>
<polygon fill="none" stroke="#404040" points="575.123,-228.757 568.028,-230.045 564.11,-223.991 571.206,-222.703 575.123,-228.757"/>
<text text-anchor="middle" x="801.5" y="-317" font-family="Helvetica,sans-Serif" font-size="10.00"> #_joint_vector</text>
</g>
</g>
</svg>
