<?xml version="1.0" encoding="UTF-8" standalone="no"?>
<!DOCTYPE svg PUBLIC "-//W3C//DTD SVG 1.1//EN"
 "http://www.w3.org/Graphics/SVG/1.1/DTD/svg11.dtd">
<!-- Generated by graphviz version 2.38.0 (20140413.2041)
 -->
<!-- Title: /home/lucamuratore/advr&#45;superbuild/external/XBotInterface/include/spdlog/details/file_helper.h Pages: 1 -->
<svg width="1568pt" height="430pt"
 viewBox="0.00 0.00 1568.00 430.00" xmlns="http://www.w3.org/2000/svg" xmlns:xlink="http://www.w3.org/1999/xlink">
<g id="graph0" class="graph" transform="scale(1 1) rotate(0) translate(4 426)">
<title>/home/lucamuratore/advr&#45;superbuild/external/XBotInterface/include/spdlog/details/file_helper.h</title>
<!-- Node1 -->
<g id="node1" class="node"><title>Node1</title>
<polygon fill="#bfbfbf" stroke="black" points="1327.5,-369.5 1327.5,-421.5 1472.5,-421.5 1472.5,-369.5 1327.5,-369.5"/>
<text text-anchor="start" x="1335.5" y="-409.5" font-family="Helvetica,sans-Serif" font-size="10.00">/home/lucamuratore</text>
<text text-anchor="start" x="1335.5" y="-398.5" font-family="Helvetica,sans-Serif" font-size="10.00">/advr&#45;superbuild/external</text>
<text text-anchor="start" x="1335.5" y="-387.5" font-family="Helvetica,sans-Serif" font-size="10.00">/XBotInterface/include/spdlog</text>
<text text-anchor="middle" x="1400" y="-376.5" font-family="Helvetica,sans-Serif" font-size="10.00">/details/file_helper.h</text>
</g>
<!-- Node2 -->
<g id="node2" class="node"><title>Node2</title>
<g id="a_node2"><a xlink:href="os_8h.html" target="_top" xlink:title="spdlog/details/os.h">
<polygon fill="none" stroke="black" points="1051,-246.5 1051,-265.5 1149,-265.5 1149,-246.5 1051,-246.5"/>
<text text-anchor="middle" x="1100" y="-253.5" font-family="Helvetica,sans-Serif" font-size="10.00">spdlog/details/os.h</text>
</a>
</g>
</g>
<!-- Node1&#45;&gt;Node2 -->
<g id="edge1" class="edge"><title>Node1&#45;&gt;Node2</title>
<path fill="none" stroke="midnightblue" d="M1345.32,-369.44C1281.16,-340.03 1177.25,-292.404 1127.83,-269.754"/>
<polygon fill="midnightblue" stroke="midnightblue" points="1129.25,-266.554 1118.7,-265.569 1126.33,-272.918 1129.25,-266.554"/>
</g>
<!-- Node4 -->
<g id="node4" class="node"><title>Node4</title>
<polygon fill="none" stroke="#bfbfbf" points="652.5,-0.5 652.5,-19.5 693.5,-19.5 693.5,-0.5 652.5,-0.5"/>
<text text-anchor="middle" x="673" y="-7.5" font-family="Helvetica,sans-Serif" font-size="10.00">string</text>
</g>
<!-- Node1&#45;&gt;Node4 -->
<g id="edge45" class="edge"><title>Node1&#45;&gt;Node4</title>
<path fill="none" stroke="midnightblue" d="M1327.27,-393.63C1159.01,-390.842 747.411,-379.347 618,-333 507.28,-293.347 418.376,-234.083 457,-123 469.469,-87.1379 478.302,-76.9008 510,-56 558.628,-23.9355 581.799,-35.4978 642.682,-19.8975"/>
<polygon fill="midnightblue" stroke="midnightblue" points="643.63,-23.2669 652.365,-17.2707 641.797,-16.5111 643.63,-23.2669"/>
</g>
<!-- Node6 -->
<g id="node6" class="node"><title>Node6</title>
<polygon fill="none" stroke="#bfbfbf" points="1216,-129 1216,-148 1262,-148 1262,-129 1216,-129"/>
<text text-anchor="middle" x="1239" y="-136" font-family="Helvetica,sans-Serif" font-size="10.00">chrono</text>
</g>
<!-- Node1&#45;&gt;Node6 -->
<g id="edge43" class="edge"><title>Node1&#45;&gt;Node6</title>
<path fill="none" stroke="midnightblue" d="M1414.66,-369.194C1436.75,-327.333 1471.89,-243.037 1431,-190 1411.75,-165.026 1321.92,-149.953 1272.25,-143.386"/>
<polygon fill="midnightblue" stroke="midnightblue" points="1272.66,-139.911 1262.3,-142.114 1271.77,-146.854 1272.66,-139.911"/>
</g>
<!-- Node17 -->
<g id="node17" class="node"><title>Node17</title>
<polygon fill="none" stroke="#bfbfbf" points="1166.5,-0.5 1166.5,-19.5 1209.5,-19.5 1209.5,-0.5 1166.5,-0.5"/>
<text text-anchor="middle" x="1188" y="-7.5" font-family="Helvetica,sans-Serif" font-size="10.00">cstdio</text>
</g>
<!-- Node1&#45;&gt;Node17 -->
<g id="edge44" class="edge"><title>Node1&#45;&gt;Node17</title>
<path fill="none" stroke="midnightblue" d="M1428.81,-369.164C1454.48,-343.661 1488,-301.78 1488,-257 1488,-257 1488,-257 1488,-137.5 1488,-21.9719 1296.77,-10.2822 1219.67,-10.2646"/>
<polygon fill="midnightblue" stroke="midnightblue" points="1219.55,-6.76512 1209.58,-10.3299 1219.6,-13.765 1219.55,-6.76512"/>
</g>
<!-- Node25 -->
<g id="node25" class="node"><title>Node25</title>
<polygon fill="none" stroke="#bfbfbf" points="1378,-190.5 1378,-209.5 1422,-209.5 1422,-190.5 1378,-190.5"/>
<text text-anchor="middle" x="1400" y="-197.5" font-family="Helvetica,sans-Serif" font-size="10.00">thread</text>
</g>
<!-- Node1&#45;&gt;Node25 -->
<g id="edge46" class="edge"><title>Node1&#45;&gt;Node25</title>
<path fill="none" stroke="midnightblue" d="M1400,-369.203C1400,-329.811 1400,-254.713 1400,-219.761"/>
<polygon fill="midnightblue" stroke="midnightblue" points="1403.5,-219.556 1400,-209.556 1396.5,-219.556 1403.5,-219.556"/>
</g>
<!-- Node32 -->
<g id="node32" class="node"><title>Node32</title>
<g id="a_node32"><a xlink:href="log__msg_8h.html" target="_top" xlink:title="spdlog/details/log\l_msg.h">
<polygon fill="none" stroke="black" points="627,-302.5 627,-332.5 719,-332.5 719,-302.5 627,-302.5"/>
<text text-anchor="start" x="635" y="-320.5" font-family="Helvetica,sans-Serif" font-size="10.00">spdlog/details/log</text>
<text text-anchor="middle" x="673" y="-309.5" font-family="Helvetica,sans-Serif" font-size="10.00">_msg.h</text>
</a>
</g>
</g>
<!-- Node1&#45;&gt;Node32 -->
<g id="edge38" class="edge"><title>Node1&#45;&gt;Node32</title>
<path fill="none" stroke="midnightblue" d="M1327.3,-386.9C1182.35,-371.747 860.094,-338.059 729.55,-324.412"/>
<polygon fill="midnightblue" stroke="midnightblue" points="729.683,-320.907 719.374,-323.348 728.956,-327.869 729.683,-320.907"/>
</g>
<!-- Node33 -->
<g id="node33" class="node"><title>Node33</title>
<polygon fill="none" stroke="#bfbfbf" points="1516,-308 1516,-327 1560,-327 1560,-308 1516,-308"/>
<text text-anchor="middle" x="1538" y="-315" font-family="Helvetica,sans-Serif" font-size="10.00">cerrno</text>
</g>
<!-- Node1&#45;&gt;Node33 -->
<g id="edge47" class="edge"><title>Node1&#45;&gt;Node33</title>
<path fill="none" stroke="midnightblue" d="M1445.57,-369.404C1468.27,-356.902 1494.81,-342.286 1513.61,-331.931"/>
<polygon fill="midnightblue" stroke="midnightblue" points="1515.35,-334.968 1522.42,-327.078 1511.98,-328.836 1515.35,-334.968"/>
</g>
<!-- Node3 -->
<g id="node3" class="node"><title>Node3</title>
<g id="a_node3"><a xlink:href="common_8h.html" target="_top" xlink:title="spdlog/common.h">
<polygon fill="none" stroke="black" points="626,-190.5 626,-209.5 720,-209.5 720,-190.5 626,-190.5"/>
<text text-anchor="middle" x="673" y="-197.5" font-family="Helvetica,sans-Serif" font-size="10.00">spdlog/common.h</text>
</a>
</g>
</g>
<!-- Node2&#45;&gt;Node3 -->
<g id="edge2" class="edge"><title>Node2&#45;&gt;Node3</title>
<path fill="none" stroke="midnightblue" d="M1050.82,-249.335C980.508,-241.15 847.245,-225.314 734,-210 732.747,-209.831 731.48,-209.658 730.202,-209.482"/>
<polygon fill="midnightblue" stroke="midnightblue" points="730.662,-206.012 720.273,-208.09 729.69,-212.944 730.662,-206.012"/>
</g>
<!-- Node2&#45;&gt;Node4 -->
<g id="edge29" class="edge"><title>Node2&#45;&gt;Node4</title>
<path fill="none" stroke="midnightblue" d="M1050.97,-255.896C967.494,-256.256 803.278,-251.511 767,-210 690.961,-122.994 1073.46,-220.85 1012,-123 978.152,-69.1096 780.495,-29.6122 703.594,-16.0906"/>
<polygon fill="midnightblue" stroke="midnightblue" points="704.024,-12.6132 693.574,-14.3563 702.83,-19.5106 704.024,-12.6132"/>
</g>
<!-- Node2&#45;&gt;Node6 -->
<g id="edge30" class="edge"><title>Node2&#45;&gt;Node6</title>
<path fill="none" stroke="midnightblue" d="M1133.55,-246.453C1155.18,-239.548 1182.77,-227.971 1202,-210 1217.43,-195.585 1227.62,-173.272 1233.33,-157.619"/>
<polygon fill="midnightblue" stroke="midnightblue" points="1236.68,-158.619 1236.57,-148.025 1230.05,-156.375 1236.68,-158.619"/>
</g>
<!-- Node10 -->
<g id="node10" class="node"><title>Node10</title>
<polygon fill="none" stroke="#bfbfbf" points="944.5,-129 944.5,-148 1003.5,-148 1003.5,-129 944.5,-129"/>
<text text-anchor="middle" x="974" y="-136" font-family="Helvetica,sans-Serif" font-size="10.00">functional</text>
</g>
<!-- Node2&#45;&gt;Node10 -->
<g id="edge28" class="edge"><title>Node2&#45;&gt;Node10</title>
<path fill="none" stroke="midnightblue" d="M1109.63,-246.456C1123.08,-233.484 1144.4,-208.389 1131,-190 1104.33,-153.409 1050.71,-142.755 1013.6,-139.956"/>
<polygon fill="midnightblue" stroke="midnightblue" points="1013.8,-136.461 1003.61,-139.359 1013.38,-143.449 1013.8,-136.461"/>
</g>
<!-- Node2&#45;&gt;Node17 -->
<g id="edge26" class="edge"><title>Node2&#45;&gt;Node17</title>
<path fill="none" stroke="midnightblue" d="M1113.15,-246.265C1124.22,-238.19 1139.55,-225.17 1148,-210 1181.26,-150.267 1187.08,-66.7825 1187.95,-29.8503"/>
<polygon fill="midnightblue" stroke="midnightblue" points="1191.45,-29.63 1188.09,-19.5842 1184.45,-29.5366 1191.45,-29.63"/>
</g>
<!-- Node24 -->
<g id="node24" class="node"><title>Node24</title>
<polygon fill="none" stroke="#bfbfbf" points="1254.5,-190.5 1254.5,-209.5 1295.5,-209.5 1295.5,-190.5 1254.5,-190.5"/>
<text text-anchor="middle" x="1275" y="-197.5" font-family="Helvetica,sans-Serif" font-size="10.00">ctime</text>
</g>
<!-- Node2&#45;&gt;Node24 -->
<g id="edge27" class="edge"><title>Node2&#45;&gt;Node24</title>
<path fill="none" stroke="midnightblue" d="M1127.73,-246.444C1159.61,-236.606 1211.77,-220.512 1244.69,-210.352"/>
<polygon fill="midnightblue" stroke="midnightblue" points="1245.73,-213.696 1254.25,-207.403 1243.66,-207.007 1245.73,-213.696"/>
</g>
<!-- Node2&#45;&gt;Node25 -->
<g id="edge31" class="edge"><title>Node2&#45;&gt;Node25</title>
<path fill="none" stroke="midnightblue" d="M1149.42,-248.499C1201.52,-241.252 1286.13,-228.37 1367.79,-210.062"/>
<polygon fill="midnightblue" stroke="midnightblue" points="1368.75,-213.432 1377.73,-207.803 1367.2,-206.606 1368.75,-213.432"/>
</g>
<!-- Node26 -->
<g id="node26" class="node"><title>Node26</title>
<polygon fill="none" stroke="#bfbfbf" points="1314,-190.5 1314,-209.5 1360,-209.5 1360,-190.5 1314,-190.5"/>
<text text-anchor="middle" x="1337" y="-197.5" font-family="Helvetica,sans-Serif" font-size="10.00">stdio.h</text>
</g>
<!-- Node2&#45;&gt;Node26 -->
<g id="edge32" class="edge"><title>Node2&#45;&gt;Node26</title>
<path fill="none" stroke="midnightblue" d="M1141.55,-246.459C1182.88,-237.818 1248.01,-223.802 1304,-210 1304.1,-209.975 1304.2,-209.95 1304.3,-209.925"/>
<polygon fill="midnightblue" stroke="midnightblue" points="1305.15,-213.322 1313.96,-207.439 1303.4,-206.543 1305.15,-213.322"/>
</g>
<!-- Node27 -->
<g id="node27" class="node"><title>Node27</title>
<polygon fill="none" stroke="#bfbfbf" points="776.5,-190.5 776.5,-209.5 825.5,-209.5 825.5,-190.5 776.5,-190.5"/>
<text text-anchor="middle" x="801" y="-197.5" font-family="Helvetica,sans-Serif" font-size="10.00">string.h</text>
</g>
<!-- Node2&#45;&gt;Node27 -->
<g id="edge33" class="edge"><title>Node2&#45;&gt;Node27</title>
<path fill="none" stroke="midnightblue" d="M1050.9,-248.024C999.6,-240.431 916.595,-227.292 835.675,-209.979"/>
<polygon fill="midnightblue" stroke="midnightblue" points="836.334,-206.541 825.82,-207.848 834.854,-213.383 836.334,-206.541"/>
</g>
<!-- Node28 -->
<g id="node28" class="node"><title>Node28</title>
<polygon fill="none" stroke="#bfbfbf" points="844,-190.5 844,-209.5 904,-209.5 904,-190.5 844,-190.5"/>
<text text-anchor="middle" x="874" y="-197.5" font-family="Helvetica,sans-Serif" font-size="10.00">sys/stat.h</text>
</g>
<!-- Node2&#45;&gt;Node28 -->
<g id="edge34" class="edge"><title>Node2&#45;&gt;Node28</title>
<path fill="none" stroke="midnightblue" d="M1064.19,-246.444C1023.28,-236.67 956.528,-220.719 913.963,-210.549"/>
<polygon fill="midnightblue" stroke="midnightblue" points="914.758,-207.14 904.218,-208.22 913.131,-213.949 914.758,-207.14"/>
</g>
<!-- Node29 -->
<g id="node29" class="node"><title>Node29</title>
<polygon fill="none" stroke="#bfbfbf" points="922,-190.5 922,-209.5 990,-209.5 990,-190.5 922,-190.5"/>
<text text-anchor="middle" x="956" y="-197.5" font-family="Helvetica,sans-Serif" font-size="10.00">sys/types.h</text>
</g>
<!-- Node2&#45;&gt;Node29 -->
<g id="edge35" class="edge"><title>Node2&#45;&gt;Node29</title>
<path fill="none" stroke="midnightblue" d="M1077.18,-246.444C1053.17,-237.438 1015.17,-223.189 988.131,-213.049"/>
<polygon fill="midnightblue" stroke="midnightblue" points="989.303,-209.751 978.71,-209.516 986.845,-216.305 989.303,-209.751"/>
</g>
<!-- Node30 -->
<g id="node30" class="node"><title>Node30</title>
<polygon fill="none" stroke="#bfbfbf" points="1008.5,-190.5 1008.5,-209.5 1059.5,-209.5 1059.5,-190.5 1008.5,-190.5"/>
<text text-anchor="middle" x="1034" y="-197.5" font-family="Helvetica,sans-Serif" font-size="10.00">unistd.h</text>
</g>
<!-- Node2&#45;&gt;Node30 -->
<g id="edge36" class="edge"><title>Node2&#45;&gt;Node30</title>
<path fill="none" stroke="midnightblue" d="M1089.4,-246.324C1079.54,-238.263 1064.65,-226.077 1052.78,-216.369"/>
<polygon fill="midnightblue" stroke="midnightblue" points="1054.75,-213.457 1044.8,-209.834 1050.32,-218.875 1054.75,-213.457"/>
</g>
<!-- Node31 -->
<g id="node31" class="node"><title>Node31</title>
<polygon fill="none" stroke="#bfbfbf" points="1078,-190.5 1078,-209.5 1122,-209.5 1122,-190.5 1078,-190.5"/>
<text text-anchor="middle" x="1100" y="-197.5" font-family="Helvetica,sans-Serif" font-size="10.00">fcntl.h</text>
</g>
<!-- Node2&#45;&gt;Node31 -->
<g id="edge37" class="edge"><title>Node2&#45;&gt;Node31</title>
<path fill="none" stroke="midnightblue" d="M1100,-246.083C1100,-239.006 1100,-228.861 1100,-219.986"/>
<polygon fill="midnightblue" stroke="midnightblue" points="1103.5,-219.751 1100,-209.751 1096.5,-219.751 1103.5,-219.751"/>
</g>
<!-- Node3&#45;&gt;Node4 -->
<g id="edge3" class="edge"><title>Node3&#45;&gt;Node4</title>
<path fill="none" stroke="midnightblue" d="M673,-190.434C673,-161.928 673,-69.8218 673,-29.8263"/>
<polygon fill="midnightblue" stroke="midnightblue" points="676.5,-29.6168 673,-19.6168 669.5,-29.6168 676.5,-29.6168"/>
</g>
<!-- Node5 -->
<g id="node5" class="node"><title>Node5</title>
<polygon fill="none" stroke="#bfbfbf" points="701.5,-129 701.5,-148 774.5,-148 774.5,-129 701.5,-129"/>
<text text-anchor="middle" x="738" y="-136" font-family="Helvetica,sans-Serif" font-size="10.00">initializer_list</text>
</g>
<!-- Node3&#45;&gt;Node5 -->
<g id="edge4" class="edge"><title>Node3&#45;&gt;Node5</title>
<path fill="none" stroke="midnightblue" d="M682.313,-190.475C692.449,-181.197 708.864,-166.171 721.252,-154.831"/>
<polygon fill="midnightblue" stroke="midnightblue" points="723.691,-157.343 728.704,-148.009 718.965,-152.18 723.691,-157.343"/>
</g>
<!-- Node3&#45;&gt;Node6 -->
<g id="edge5" class="edge"><title>Node3&#45;&gt;Node6</title>
<path fill="none" stroke="midnightblue" d="M720.283,-194.029C831.938,-182.292 1109.76,-153.086 1205.75,-142.995"/>
<polygon fill="midnightblue" stroke="midnightblue" points="1206.18,-146.469 1215.76,-141.943 1205.45,-139.508 1206.18,-146.469"/>
</g>
<!-- Node7 -->
<g id="node7" class="node"><title>Node7</title>
<polygon fill="none" stroke="#bfbfbf" points="58,-0.5 58,-19.5 110,-19.5 110,-0.5 58,-0.5"/>
<text text-anchor="middle" x="84" y="-7.5" font-family="Helvetica,sans-Serif" font-size="10.00">memory</text>
</g>
<!-- Node3&#45;&gt;Node7 -->
<g id="edge6" class="edge"><title>Node3&#45;&gt;Node7</title>
<path fill="none" stroke="midnightblue" d="M627.064,-190.421C585.666,-182.311 523.3,-169.151 470,-154 383.064,-129.288 358.158,-128.751 278,-87 257.105,-76.1166 256.141,-66.3988 235,-56 224.541,-50.8552 161.071,-32.6129 119.817,-20.9945"/>
<polygon fill="midnightblue" stroke="midnightblue" points="120.682,-17.602 110.108,-18.2668 118.788,-24.3411 120.682,-17.602"/>
</g>
<!-- Node8 -->
<g id="node8" class="node"><title>Node8</title>
<polygon fill="none" stroke="#bfbfbf" points="818,-62 818,-81 864,-81 864,-62 818,-62"/>
<text text-anchor="middle" x="841" y="-69" font-family="Helvetica,sans-Serif" font-size="10.00">atomic</text>
</g>
<!-- Node3&#45;&gt;Node8 -->
<g id="edge7" class="edge"><title>Node3&#45;&gt;Node8</title>
<path fill="none" stroke="midnightblue" d="M707.095,-190.482C730.246,-183.468 760.606,-171.753 783,-154 805.047,-136.523 822.417,-108.528 832.2,-90.3263"/>
<polygon fill="midnightblue" stroke="midnightblue" points="835.357,-91.8415 836.837,-81.3505 829.138,-88.6289 835.357,-91.8415"/>
</g>
<!-- Node9 -->
<g id="node9" class="node"><title>Node9</title>
<polygon fill="none" stroke="#bfbfbf" points="585.5,-129 585.5,-148 644.5,-148 644.5,-129 585.5,-129"/>
<text text-anchor="middle" x="615" y="-136" font-family="Helvetica,sans-Serif" font-size="10.00">exception</text>
</g>
<!-- Node3&#45;&gt;Node9 -->
<g id="edge8" class="edge"><title>Node3&#45;&gt;Node9</title>
<path fill="none" stroke="midnightblue" d="M664.69,-190.475C655.818,-181.373 641.554,-166.741 630.58,-155.483"/>
<polygon fill="midnightblue" stroke="midnightblue" points="632.781,-152.727 623.295,-148.009 627.769,-157.613 632.781,-152.727"/>
</g>
<!-- Node3&#45;&gt;Node10 -->
<g id="edge9" class="edge"><title>Node3&#45;&gt;Node10</title>
<path fill="none" stroke="midnightblue" d="M720.1,-191.987C784.164,-182.264 895.337,-164.68 935,-154 937.812,-153.243 940.705,-152.365 943.585,-151.422"/>
<polygon fill="midnightblue" stroke="midnightblue" points="944.906,-154.668 953.183,-148.053 942.588,-148.063 944.906,-154.668"/>
</g>
<!-- Node11 -->
<g id="node11" class="node"><title>Node11</title>
<g id="a_node11"><a xlink:href="null__mutex_8h.html" target="_top" xlink:title="spdlog/details/null\l_mutex.h">
<polygon fill="none" stroke="black" points="831.5,-123.5 831.5,-153.5 926.5,-153.5 926.5,-123.5 831.5,-123.5"/>
<text text-anchor="start" x="839.5" y="-141.5" font-family="Helvetica,sans-Serif" font-size="10.00">spdlog/details/null</text>
<text text-anchor="middle" x="879" y="-130.5" font-family="Helvetica,sans-Serif" font-size="10.00">_mutex.h</text>
</a>
</g>
</g>
<!-- Node3&#45;&gt;Node11 -->
<g id="edge10" class="edge"><title>Node3&#45;&gt;Node11</title>
<path fill="none" stroke="midnightblue" d="M702.515,-190.475C733.357,-181.567 782.541,-167.361 821.162,-156.206"/>
<polygon fill="midnightblue" stroke="midnightblue" points="822.606,-159.432 831.242,-153.294 820.663,-152.707 822.606,-159.432"/>
</g>
<!-- Node12 -->
<g id="node12" class="node"><title>Node12</title>
<g id="a_node12"><a xlink:href="fmt_8h.html" target="_top" xlink:title="spdlog/fmt/fmt.h">
<polygon fill="none" stroke="black" points="479,-129 479,-148 567,-148 567,-129 479,-129"/>
<text text-anchor="middle" x="523" y="-136" font-family="Helvetica,sans-Serif" font-size="10.00">spdlog/fmt/fmt.h</text>
</a>
</g>
</g>
<!-- Node3&#45;&gt;Node12 -->
<g id="edge12" class="edge"><title>Node3&#45;&gt;Node12</title>
<path fill="none" stroke="midnightblue" d="M651.509,-190.475C625.89,-180.313 582.89,-163.256 553.755,-151.7"/>
<polygon fill="midnightblue" stroke="midnightblue" points="555.037,-148.443 544.451,-148.009 552.456,-154.95 555.037,-148.443"/>
</g>
<!-- Node11&#45;&gt;Node8 -->
<g id="edge11" class="edge"><title>Node11&#45;&gt;Node8</title>
<path fill="none" stroke="midnightblue" d="M870.755,-123.396C865.006,-113.562 857.298,-100.378 851.168,-89.892"/>
<polygon fill="midnightblue" stroke="midnightblue" points="854.152,-88.0611 846.083,-81.1945 848.108,-91.594 854.152,-88.0611"/>
</g>
<!-- Node13 -->
<g id="node13" class="node"><title>Node13</title>
<g id="a_node13"><a xlink:href="format_8h.html" target="_top" xlink:title="spdlog/fmt/bundled\l/format.h">
<polygon fill="none" stroke="black" points="287.5,-56.5 287.5,-86.5 386.5,-86.5 386.5,-56.5 287.5,-56.5"/>
<text text-anchor="start" x="295.5" y="-74.5" font-family="Helvetica,sans-Serif" font-size="10.00">spdlog/fmt/bundled</text>
<text text-anchor="middle" x="337" y="-63.5" font-family="Helvetica,sans-Serif" font-size="10.00">/format.h</text>
</a>
</g>
</g>
<!-- Node12&#45;&gt;Node13 -->
<g id="edge13" class="edge"><title>Node12&#45;&gt;Node13</title>
<path fill="none" stroke="midnightblue" d="M498.301,-128.869C470.028,-118.988 422.987,-102.549 386.98,-89.9662"/>
<polygon fill="midnightblue" stroke="midnightblue" points="387.737,-86.5231 377.142,-86.5281 385.427,-93.1312 387.737,-86.5231"/>
</g>
<!-- Node13&#45;&gt;Node4 -->
<g id="edge22" class="edge"><title>Node13&#45;&gt;Node4</title>
<path fill="none" stroke="midnightblue" d="M386.538,-58.8903C391.414,-57.8637 396.297,-56.8813 401,-56 504.748,-36.559 535.106,-43.2561 642.507,-19.7985"/>
<polygon fill="midnightblue" stroke="midnightblue" points="643.443,-23.176 652.446,-17.5906 641.925,-16.3425 643.443,-23.176"/>
</g>
<!-- Node13&#45;&gt;Node7 -->
<g id="edge20" class="edge"><title>Node13&#45;&gt;Node7</title>
<path fill="none" stroke="midnightblue" d="M287.215,-59.1136C237.299,-47.6733 162.86,-30.5411 120.223,-20.249"/>
<polygon fill="midnightblue" stroke="midnightblue" points="120.9,-16.8118 110.356,-17.8497 119.246,-23.6135 120.9,-16.8118"/>
</g>
<!-- Node14 -->
<g id="node14" class="node"><title>Node14</title>
<polygon fill="none" stroke="#bfbfbf" points="585.5,-0.5 585.5,-19.5 634.5,-19.5 634.5,-0.5 585.5,-0.5"/>
<text text-anchor="middle" x="610" y="-7.5" font-family="Helvetica,sans-Serif" font-size="10.00">cassert</text>
</g>
<!-- Node13&#45;&gt;Node14 -->
<g id="edge14" class="edge"><title>Node13&#45;&gt;Node14</title>
<path fill="none" stroke="midnightblue" d="M386.593,-59.1617C391.458,-58.0802 396.323,-57.0108 401,-56 475.583,-39.8815 497.043,-38.2736 575.322,-20.0537"/>
<polygon fill="midnightblue" stroke="midnightblue" points="576.221,-23.438 585.158,-17.7473 574.623,-16.6229 576.221,-23.438"/>
</g>
<!-- Node15 -->
<g id="node15" class="node"><title>Node15</title>
<polygon fill="none" stroke="#bfbfbf" points="128.5,-0.5 128.5,-19.5 175.5,-19.5 175.5,-0.5 128.5,-0.5"/>
<text text-anchor="middle" x="152" y="-7.5" font-family="Helvetica,sans-Serif" font-size="10.00">clocale</text>
</g>
<!-- Node13&#45;&gt;Node15 -->
<g id="edge15" class="edge"><title>Node13&#45;&gt;Node15</title>
<path fill="none" stroke="midnightblue" d="M293.158,-56.3993C260.134,-45.7784 215.544,-31.4373 185.385,-21.7373"/>
<polygon fill="midnightblue" stroke="midnightblue" points="186.339,-18.3677 175.748,-18.6378 184.196,-25.0316 186.339,-18.3677"/>
</g>
<!-- Node16 -->
<g id="node16" class="node"><title>Node16</title>
<polygon fill="none" stroke="#bfbfbf" points="194,-0.5 194,-19.5 238,-19.5 238,-0.5 194,-0.5"/>
<text text-anchor="middle" x="216" y="-7.5" font-family="Helvetica,sans-Serif" font-size="10.00">cmath</text>
</g>
<!-- Node13&#45;&gt;Node16 -->
<g id="edge16" class="edge"><title>Node13&#45;&gt;Node16</title>
<path fill="none" stroke="midnightblue" d="M308.325,-56.3993C288.476,-46.6391 262.239,-33.7373 242.808,-24.1826"/>
<polygon fill="midnightblue" stroke="midnightblue" points="244.125,-20.9297 233.607,-19.6578 241.036,-27.2114 244.125,-20.9297"/>
</g>
<!-- Node13&#45;&gt;Node17 -->
<g id="edge17" class="edge"><title>Node13&#45;&gt;Node17</title>
<path fill="none" stroke="midnightblue" d="M386.744,-67.022C543.92,-56.0326 1027.1,-22.2498 1156.08,-13.2321"/>
<polygon fill="midnightblue" stroke="midnightblue" points="1156.7,-16.6969 1166.43,-12.5079 1156.21,-9.71398 1156.7,-16.6969"/>
</g>
<!-- Node18 -->
<g id="node18" class="node"><title>Node18</title>
<polygon fill="none" stroke="#bfbfbf" points="256,-0.5 256,-19.5 302,-19.5 302,-0.5 256,-0.5"/>
<text text-anchor="middle" x="279" y="-7.5" font-family="Helvetica,sans-Serif" font-size="10.00">cstring</text>
</g>
<!-- Node13&#45;&gt;Node18 -->
<g id="edge18" class="edge"><title>Node13&#45;&gt;Node18</title>
<path fill="none" stroke="midnightblue" d="M323.255,-56.3993C314.653,-47.575 303.548,-36.1827 294.614,-27.0178"/>
<polygon fill="midnightblue" stroke="midnightblue" points="296.926,-24.3755 287.44,-19.6578 291.914,-29.2616 296.926,-24.3755"/>
</g>
<!-- Node19 -->
<g id="node19" class="node"><title>Node19</title>
<polygon fill="none" stroke="#bfbfbf" points="320,-0.5 320,-19.5 360,-19.5 360,-0.5 320,-0.5"/>
<text text-anchor="middle" x="340" y="-7.5" font-family="Helvetica,sans-Serif" font-size="10.00">limits</text>
</g>
<!-- Node13&#45;&gt;Node19 -->
<g id="edge19" class="edge"><title>Node13&#45;&gt;Node19</title>
<path fill="none" stroke="midnightblue" d="M337.711,-56.3993C338.111,-48.4664 338.616,-38.458 339.049,-29.8583"/>
<polygon fill="midnightblue" stroke="midnightblue" points="342.555,-29.8214 339.563,-19.6578 335.564,-29.4688 342.555,-29.8214"/>
</g>
<!-- Node20 -->
<g id="node20" class="node"><title>Node20</title>
<polygon fill="none" stroke="#bfbfbf" points="378.5,-0.5 378.5,-19.5 437.5,-19.5 437.5,-0.5 378.5,-0.5"/>
<text text-anchor="middle" x="408" y="-7.5" font-family="Helvetica,sans-Serif" font-size="10.00">stdexcept</text>
</g>
<!-- Node13&#45;&gt;Node20 -->
<g id="edge21" class="edge"><title>Node13&#45;&gt;Node20</title>
<path fill="none" stroke="midnightblue" d="M353.826,-56.3993C364.675,-47.3076 378.777,-35.4899 389.873,-26.1909"/>
<polygon fill="midnightblue" stroke="midnightblue" points="392.252,-28.7634 397.669,-19.6578 387.756,-23.3983 392.252,-28.7634"/>
</g>
<!-- Node21 -->
<g id="node21" class="node"><title>Node21</title>
<polygon fill="none" stroke="#bfbfbf" points="456,-0.5 456,-19.5 500,-19.5 500,-0.5 456,-0.5"/>
<text text-anchor="middle" x="478" y="-7.5" font-family="Helvetica,sans-Serif" font-size="10.00">vector</text>
</g>
<!-- Node13&#45;&gt;Node21 -->
<g id="edge23" class="edge"><title>Node13&#45;&gt;Node21</title>
<path fill="none" stroke="midnightblue" d="M370.415,-56.3993C393.967,-46.4608 425.238,-33.2649 447.993,-23.6625"/>
<polygon fill="midnightblue" stroke="midnightblue" points="449.631,-26.7704 457.483,-19.6578 446.909,-20.3211 449.631,-26.7704"/>
</g>
<!-- Node22 -->
<g id="node22" class="node"><title>Node22</title>
<polygon fill="none" stroke="#bfbfbf" points="0,-0.5 0,-19.5 40,-19.5 40,-0.5 0,-0.5"/>
<text text-anchor="middle" x="20" y="-7.5" font-family="Helvetica,sans-Serif" font-size="10.00">utility</text>
</g>
<!-- Node13&#45;&gt;Node22 -->
<g id="edge24" class="edge"><title>Node13&#45;&gt;Node22</title>
<path fill="none" stroke="midnightblue" d="M287.43,-63.7691C231.813,-55.782 138.796,-41.1225 50.1398,-20.0257"/>
<polygon fill="midnightblue" stroke="midnightblue" points="50.7319,-16.5682 40.19,-17.626 49.0906,-23.3731 50.7319,-16.5682"/>
</g>
<!-- Node23 -->
<g id="node23" class="node"><title>Node23</title>
<polygon fill="none" stroke="#bfbfbf" points="518.5,-0.5 518.5,-19.5 567.5,-19.5 567.5,-0.5 518.5,-0.5"/>
<text text-anchor="middle" x="543" y="-7.5" font-family="Helvetica,sans-Serif" font-size="10.00">stdint.h</text>
</g>
<!-- Node13&#45;&gt;Node23 -->
<g id="edge25" class="edge"><title>Node13&#45;&gt;Node23</title>
<path fill="none" stroke="midnightblue" d="M385.558,-56.4747C423.396,-45.5459 474.988,-30.6442 508.64,-20.9245"/>
<polygon fill="midnightblue" stroke="midnightblue" points="509.836,-24.222 518.472,-18.0845 507.894,-17.4969 509.836,-24.222"/>
</g>
<!-- Node32&#45;&gt;Node2 -->
<g id="edge40" class="edge"><title>Node32&#45;&gt;Node2</title>
<path fill="none" stroke="midnightblue" d="M719.102,-310.076C797.019,-299.219 954.652,-277.253 1040.69,-265.265"/>
<polygon fill="midnightblue" stroke="midnightblue" points="1041.39,-268.7 1050.82,-263.854 1040.43,-261.767 1041.39,-268.7"/>
</g>
<!-- Node32&#45;&gt;Node3 -->
<g id="edge39" class="edge"><title>Node32&#45;&gt;Node3</title>
<path fill="none" stroke="midnightblue" d="M673,-302.337C673,-281.622 673,-243.016 673,-219.899"/>
<polygon fill="midnightblue" stroke="midnightblue" points="676.5,-219.669 673,-209.669 669.5,-219.669 676.5,-219.669"/>
</g>
<!-- Node32&#45;&gt;Node4 -->
<g id="edge41" class="edge"><title>Node32&#45;&gt;Node4</title>
<path fill="none" stroke="midnightblue" d="M635.146,-302.483C564.049,-273.878 421.855,-204.549 470,-123 489.417,-90.1116 591.597,-44.438 643.167,-23.0065"/>
<polygon fill="midnightblue" stroke="midnightblue" points="644.558,-26.219 652.472,-19.1748 641.893,-19.7463 644.558,-26.219"/>
</g>
<!-- Node32&#45;&gt;Node22 -->
<g id="edge42" class="edge"><title>Node32&#45;&gt;Node22</title>
<path fill="none" stroke="midnightblue" d="M626.759,-302.975C596.533,-293.663 556.424,-280.407 522,-266 332.1,-186.522 114.919,-65.2409 43.8523,-24.7192"/>
<polygon fill="midnightblue" stroke="midnightblue" points="45.2308,-21.4756 34.8123,-19.5502 41.7561,-27.5524 45.2308,-21.4756"/>
</g>
</g>
</svg>
