<?xml version="1.0" encoding="UTF-8" standalone="no"?>
<!DOCTYPE svg PUBLIC "-//W3C//DTD SVG 1.1//EN"
 "http://www.w3.org/Graphics/SVG/1.1/DTD/svg11.dtd">
<!-- Generated by graphviz version 2.38.0 (20140413.2041)
 -->
<!-- Title: /home/lucamuratore/advr&#45;superbuild/external/XBotInterface/include/spdlog/fmt/fmt.h Pages: 1 -->
<svg width="763pt" height="184pt"
 viewBox="0.00 0.00 763.00 184.00" xmlns="http://www.w3.org/2000/svg" xmlns:xlink="http://www.w3.org/1999/xlink">
<g id="graph0" class="graph" transform="scale(1 1) rotate(0) translate(4 180)">
<title>/home/lucamuratore/advr&#45;superbuild/external/XBotInterface/include/spdlog/fmt/fmt.h</title>
<!-- Node1 -->
<g id="node1" class="node"><title>Node1</title>
<polygon fill="#bfbfbf" stroke="black" points="300,-123.5 300,-175.5 445,-175.5 445,-123.5 300,-123.5"/>
<text text-anchor="start" x="308" y="-163.5" font-family="Helvetica,sans-Serif" font-size="10.00">/home/lucamuratore</text>
<text text-anchor="start" x="308" y="-152.5" font-family="Helvetica,sans-Serif" font-size="10.00">/advr&#45;superbuild/external</text>
<text text-anchor="start" x="308" y="-141.5" font-family="Helvetica,sans-Serif" font-size="10.00">/XBotInterface/include/spdlog</text>
<text text-anchor="middle" x="372.5" y="-130.5" font-family="Helvetica,sans-Serif" font-size="10.00">/fmt/fmt.h</text>
</g>
<!-- Node2 -->
<g id="node2" class="node"><title>Node2</title>
<g id="a_node2"><a xlink:href="format_8h.html" target="_top" xlink:title="spdlog/fmt/bundled\l/format.h">
<polygon fill="none" stroke="black" points="323,-56.5 323,-86.5 422,-86.5 422,-56.5 323,-56.5"/>
<text text-anchor="start" x="331" y="-74.5" font-family="Helvetica,sans-Serif" font-size="10.00">spdlog/fmt/bundled</text>
<text text-anchor="middle" x="372.5" y="-63.5" font-family="Helvetica,sans-Serif" font-size="10.00">/format.h</text>
</a>
</g>
</g>
<!-- Node1&#45;&gt;Node2 -->
<g id="edge1" class="edge"><title>Node1&#45;&gt;Node2</title>
<path fill="none" stroke="midnightblue" d="M372.5,-123.193C372.5,-114.786 372.5,-105.443 372.5,-97.0914"/>
<polygon fill="midnightblue" stroke="midnightblue" points="376,-96.8452 372.5,-86.8453 369,-96.8453 376,-96.8452"/>
</g>
<!-- Node3 -->
<g id="node3" class="node"><title>Node3</title>
<polygon fill="none" stroke="#bfbfbf" points="0,-0.5 0,-19.5 49,-19.5 49,-0.5 0,-0.5"/>
<text text-anchor="middle" x="24.5" y="-7.5" font-family="Helvetica,sans-Serif" font-size="10.00">cassert</text>
</g>
<!-- Node2&#45;&gt;Node3 -->
<g id="edge2" class="edge"><title>Node2&#45;&gt;Node3</title>
<path fill="none" stroke="midnightblue" d="M322.817,-64.2134C262.494,-56.2086 157.524,-41.0873 59.1044,-20.1772"/>
<polygon fill="midnightblue" stroke="midnightblue" points="59.8083,-16.7486 49.2961,-18.069 58.3373,-23.5923 59.8083,-16.7486"/>
</g>
<!-- Node4 -->
<g id="node4" class="node"><title>Node4</title>
<polygon fill="none" stroke="#bfbfbf" points="67,-0.5 67,-19.5 114,-19.5 114,-0.5 67,-0.5"/>
<text text-anchor="middle" x="90.5" y="-7.5" font-family="Helvetica,sans-Serif" font-size="10.00">clocale</text>
</g>
<!-- Node2&#45;&gt;Node4 -->
<g id="edge3" class="edge"><title>Node2&#45;&gt;Node4</title>
<path fill="none" stroke="midnightblue" d="M322.683,-61.4012C274.431,-52.363 198.994,-37.641 124.299,-20.0623"/>
<polygon fill="midnightblue" stroke="midnightblue" points="124.783,-16.58 114.245,-17.6775 123.167,-23.3911 124.783,-16.58"/>
</g>
<!-- Node5 -->
<g id="node5" class="node"><title>Node5</title>
<polygon fill="none" stroke="#bfbfbf" points="132.5,-0.5 132.5,-19.5 176.5,-19.5 176.5,-0.5 132.5,-0.5"/>
<text text-anchor="middle" x="154.5" y="-7.5" font-family="Helvetica,sans-Serif" font-size="10.00">cmath</text>
</g>
<!-- Node2&#45;&gt;Node5 -->
<g id="edge4" class="edge"><title>Node2&#45;&gt;Node5</title>
<path fill="none" stroke="midnightblue" d="M322.822,-57.3563C287.309,-47.8983 238.141,-34.6786 186.224,-20.1668"/>
<polygon fill="midnightblue" stroke="midnightblue" points="187.074,-16.7702 176.501,-17.4427 185.186,-23.5107 187.074,-16.7702"/>
</g>
<!-- Node6 -->
<g id="node6" class="node"><title>Node6</title>
<polygon fill="none" stroke="#bfbfbf" points="195,-0.5 195,-19.5 238,-19.5 238,-0.5 195,-0.5"/>
<text text-anchor="middle" x="216.5" y="-7.5" font-family="Helvetica,sans-Serif" font-size="10.00">cstdio</text>
</g>
<!-- Node2&#45;&gt;Node6 -->
<g id="edge5" class="edge"><title>Node2&#45;&gt;Node6</title>
<path fill="none" stroke="midnightblue" d="M335.53,-56.3993C308.804,-46.2058 273.094,-32.5855 247.78,-22.9304"/>
<polygon fill="midnightblue" stroke="midnightblue" points="248.885,-19.6059 238.294,-19.3124 246.39,-26.1463 248.885,-19.6059"/>
</g>
<!-- Node7 -->
<g id="node7" class="node"><title>Node7</title>
<polygon fill="none" stroke="#bfbfbf" points="256.5,-0.5 256.5,-19.5 302.5,-19.5 302.5,-0.5 256.5,-0.5"/>
<text text-anchor="middle" x="279.5" y="-7.5" font-family="Helvetica,sans-Serif" font-size="10.00">cstring</text>
</g>
<!-- Node2&#45;&gt;Node7 -->
<g id="edge6" class="edge"><title>Node2&#45;&gt;Node7</title>
<path fill="none" stroke="midnightblue" d="M350.46,-56.3993C335.692,-46.9511 316.323,-34.5589 301.553,-25.1089"/>
<polygon fill="midnightblue" stroke="midnightblue" points="303.342,-22.0988 293.032,-19.6578 299.57,-27.9953 303.342,-22.0988"/>
</g>
<!-- Node8 -->
<g id="node8" class="node"><title>Node8</title>
<polygon fill="none" stroke="#bfbfbf" points="320.5,-0.5 320.5,-19.5 360.5,-19.5 360.5,-0.5 320.5,-0.5"/>
<text text-anchor="middle" x="340.5" y="-7.5" font-family="Helvetica,sans-Serif" font-size="10.00">limits</text>
</g>
<!-- Node2&#45;&gt;Node8 -->
<g id="edge7" class="edge"><title>Node2&#45;&gt;Node8</title>
<path fill="none" stroke="midnightblue" d="M364.916,-56.3993C360.458,-48.1098 354.781,-37.5542 350.023,-28.7077"/>
<polygon fill="midnightblue" stroke="midnightblue" points="352.975,-26.8071 345.156,-19.6578 346.81,-30.1227 352.975,-26.8071"/>
</g>
<!-- Node9 -->
<g id="node9" class="node"><title>Node9</title>
<polygon fill="none" stroke="#bfbfbf" points="378.5,-0.5 378.5,-19.5 430.5,-19.5 430.5,-0.5 378.5,-0.5"/>
<text text-anchor="middle" x="404.5" y="-7.5" font-family="Helvetica,sans-Serif" font-size="10.00">memory</text>
</g>
<!-- Node2&#45;&gt;Node9 -->
<g id="edge8" class="edge"><title>Node2&#45;&gt;Node9</title>
<path fill="none" stroke="midnightblue" d="M380.084,-56.3993C384.542,-48.1098 390.219,-37.5542 394.977,-28.7077"/>
<polygon fill="midnightblue" stroke="midnightblue" points="398.19,-30.1227 399.844,-19.6578 392.025,-26.8071 398.19,-30.1227"/>
</g>
<!-- Node10 -->
<g id="node10" class="node"><title>Node10</title>
<polygon fill="none" stroke="#bfbfbf" points="449,-0.5 449,-19.5 508,-19.5 508,-0.5 449,-0.5"/>
<text text-anchor="middle" x="478.5" y="-7.5" font-family="Helvetica,sans-Serif" font-size="10.00">stdexcept</text>
</g>
<!-- Node2&#45;&gt;Node10 -->
<g id="edge9" class="edge"><title>Node2&#45;&gt;Node10</title>
<path fill="none" stroke="midnightblue" d="M397.621,-56.3993C414.77,-46.7728 437.365,-34.0902 454.312,-24.5772"/>
<polygon fill="midnightblue" stroke="midnightblue" points="456.069,-27.6047 463.076,-19.6578 452.643,-21.5006 456.069,-27.6047"/>
</g>
<!-- Node11 -->
<g id="node11" class="node"><title>Node11</title>
<polygon fill="none" stroke="#bfbfbf" points="526,-0.5 526,-19.5 567,-19.5 567,-0.5 526,-0.5"/>
<text text-anchor="middle" x="546.5" y="-7.5" font-family="Helvetica,sans-Serif" font-size="10.00">string</text>
</g>
<!-- Node2&#45;&gt;Node11 -->
<g id="edge10" class="edge"><title>Node2&#45;&gt;Node11</title>
<path fill="none" stroke="midnightblue" d="M413.736,-56.3993C445.062,-45.6871 487.456,-31.1905 515.828,-21.4883"/>
<polygon fill="midnightblue" stroke="midnightblue" points="517.271,-24.694 525.601,-18.1466 515.006,-18.0705 517.271,-24.694"/>
</g>
<!-- Node12 -->
<g id="node12" class="node"><title>Node12</title>
<polygon fill="none" stroke="#bfbfbf" points="585.5,-0.5 585.5,-19.5 629.5,-19.5 629.5,-0.5 585.5,-0.5"/>
<text text-anchor="middle" x="607.5" y="-7.5" font-family="Helvetica,sans-Serif" font-size="10.00">vector</text>
</g>
<!-- Node2&#45;&gt;Node12 -->
<g id="edge11" class="edge"><title>Node2&#45;&gt;Node12</title>
<path fill="none" stroke="midnightblue" d="M422.109,-58.8047C461.323,-49.4271 517.673,-35.6596 575.509,-20.1939"/>
<polygon fill="midnightblue" stroke="midnightblue" points="576.43,-23.5706 585.179,-17.5956 574.613,-16.8104 576.43,-23.5706"/>
</g>
<!-- Node13 -->
<g id="node13" class="node"><title>Node13</title>
<polygon fill="none" stroke="#bfbfbf" points="647.5,-0.5 647.5,-19.5 687.5,-19.5 687.5,-0.5 647.5,-0.5"/>
<text text-anchor="middle" x="667.5" y="-7.5" font-family="Helvetica,sans-Serif" font-size="10.00">utility</text>
</g>
<!-- Node2&#45;&gt;Node13 -->
<g id="edge12" class="edge"><title>Node2&#45;&gt;Node13</title>
<path fill="none" stroke="midnightblue" d="M422.38,-62.7651C474.009,-54.3721 557.119,-39.7832 637.513,-20.0243"/>
<polygon fill="midnightblue" stroke="midnightblue" points="638.442,-23.3999 647.301,-17.5891 636.752,-16.607 638.442,-23.3999"/>
</g>
<!-- Node14 -->
<g id="node14" class="node"><title>Node14</title>
<polygon fill="none" stroke="#bfbfbf" points="706,-0.5 706,-19.5 755,-19.5 755,-0.5 706,-0.5"/>
<text text-anchor="middle" x="730.5" y="-7.5" font-family="Helvetica,sans-Serif" font-size="10.00">stdint.h</text>
</g>
<!-- Node2&#45;&gt;Node14 -->
<g id="edge13" class="edge"><title>Node2&#45;&gt;Node14</title>
<path fill="none" stroke="midnightblue" d="M422.193,-64.3909C484.037,-56.4257 593.028,-41.202 695.768,-19.9613"/>
<polygon fill="midnightblue" stroke="midnightblue" points="696.617,-23.3595 705.689,-17.887 695.184,-16.5077 696.617,-23.3595"/>
</g>
</g>
</svg>
