<?xml version="1.0" encoding="UTF-8" standalone="no"?>
<!DOCTYPE svg PUBLIC "-//W3C//DTD SVG 1.1//EN"
 "http://www.w3.org/Graphics/SVG/1.1/DTD/svg11.dtd">
<!-- Generated by graphviz version 2.38.0 (20140413.2041)
 -->
<!-- Title: /home/lucamuratore/advr&#45;superbuild/external/XBotInterface/src/ForceTorqueSensor.cpp Pages: 1 -->
<svg width="570pt" height="240pt"
 viewBox="0.00 0.00 570.00 240.00" xmlns="http://www.w3.org/2000/svg" xmlns:xlink="http://www.w3.org/1999/xlink">
<g id="graph0" class="graph" transform="scale(1 1) rotate(0) translate(4 236)">
<title>/home/lucamuratore/advr&#45;superbuild/external/XBotInterface/src/ForceTorqueSensor.cpp</title>
<!-- Node1 -->
<g id="node1" class="node"><title>Node1</title>
<polygon fill="#bfbfbf" stroke="black" points="191,-190.5 191,-231.5 394,-231.5 394,-190.5 191,-190.5"/>
<text text-anchor="start" x="199" y="-219.5" font-family="Helvetica,sans-Serif" font-size="10.00">/home/lucamuratore</text>
<text text-anchor="start" x="199" y="-208.5" font-family="Helvetica,sans-Serif" font-size="10.00">/advr&#45;superbuild/external</text>
<text text-anchor="middle" x="292.5" y="-197.5" font-family="Helvetica,sans-Serif" font-size="10.00">/XBotInterface/src/ForceTorqueSensor.cpp</text>
</g>
<!-- Node2 -->
<g id="node2" class="node"><title>Node2</title>
<g id="a_node2"><a xlink:href="ForceTorqueSensor_8h.html" target="_top" xlink:title="XBotInterface/ForceTorque\lSensor.h">
<polygon fill="none" stroke="black" points="225.5,-123.5 225.5,-153.5 359.5,-153.5 359.5,-123.5 225.5,-123.5"/>
<text text-anchor="start" x="233.5" y="-141.5" font-family="Helvetica,sans-Serif" font-size="10.00">XBotInterface/ForceTorque</text>
<text text-anchor="middle" x="292.5" y="-130.5" font-family="Helvetica,sans-Serif" font-size="10.00">Sensor.h</text>
</a>
</g>
</g>
<!-- Node1&#45;&gt;Node2 -->
<g id="edge1" class="edge"><title>Node1&#45;&gt;Node2</title>
<path fill="none" stroke="midnightblue" d="M292.5,-190.362C292.5,-182.226 292.5,-172.7 292.5,-164.105"/>
<polygon fill="midnightblue" stroke="midnightblue" points="296,-163.892 292.5,-153.892 289,-163.892 296,-163.892"/>
</g>
<!-- Node3 -->
<g id="node3" class="node"><title>Node3</title>
<polygon fill="none" stroke="#bfbfbf" points="0,-6 0,-25 41,-25 41,-6 0,-6"/>
<text text-anchor="middle" x="20.5" y="-13" font-family="Helvetica,sans-Serif" font-size="10.00">string</text>
</g>
<!-- Node2&#45;&gt;Node3 -->
<g id="edge2" class="edge"><title>Node2&#45;&gt;Node3</title>
<path fill="none" stroke="midnightblue" d="M225.255,-123.668C192.119,-115.448 152.155,-103.384 118.5,-87 87.7774,-72.0437 56.4401,-47.5446 37.7311,-31.7229"/>
<polygon fill="midnightblue" stroke="midnightblue" points="39.9336,-29.0007 30.0713,-25.1295 35.3669,-34.306 39.9336,-29.0007"/>
</g>
<!-- Node4 -->
<g id="node4" class="node"><title>Node4</title>
<polygon fill="none" stroke="#bfbfbf" points="59.5,-6 59.5,-25 111.5,-25 111.5,-6 59.5,-6"/>
<text text-anchor="middle" x="85.5" y="-13" font-family="Helvetica,sans-Serif" font-size="10.00">memory</text>
</g>
<!-- Node2&#45;&gt;Node4 -->
<g id="edge3" class="edge"><title>Node2&#45;&gt;Node4</title>
<path fill="none" stroke="midnightblue" d="M227.021,-123.446C199.912,-115.597 169.124,-103.897 144.5,-87 124.012,-72.9411 106.622,-49.9076 96.1401,-34.0151"/>
<polygon fill="midnightblue" stroke="midnightblue" points="98.8522,-31.7564 90.5402,-25.1867 92.941,-35.5059 98.8522,-31.7564"/>
</g>
<!-- Node5 -->
<g id="node5" class="node"><title>Node5</title>
<polygon fill="none" stroke="#bfbfbf" points="129.5,-6 129.5,-25 183.5,-25 183.5,-6 129.5,-6"/>
<text text-anchor="middle" x="156.5" y="-13" font-family="Helvetica,sans-Serif" font-size="10.00">iostream</text>
</g>
<!-- Node2&#45;&gt;Node5 -->
<g id="edge4" class="edge"><title>Node2&#45;&gt;Node5</title>
<path fill="none" stroke="midnightblue" d="M225.206,-129.279C198.984,-122.415 171.447,-109.874 155.5,-87 145.022,-71.9708 147.138,-50.4169 150.703,-35.1051"/>
<polygon fill="midnightblue" stroke="midnightblue" points="154.139,-35.8102 153.396,-25.2414 147.386,-33.9666 154.139,-35.8102"/>
</g>
<!-- Node6 -->
<g id="node6" class="node"><title>Node6</title>
<polygon fill="none" stroke="#bfbfbf" points="448.5,-67.5 448.5,-86.5 512.5,-86.5 512.5,-67.5 448.5,-67.5"/>
<text text-anchor="middle" x="480.5" y="-74.5" font-family="Helvetica,sans-Serif" font-size="10.00">kdl/kdl.hpp</text>
</g>
<!-- Node2&#45;&gt;Node6 -->
<g id="edge5" class="edge"><title>Node2&#45;&gt;Node6</title>
<path fill="none" stroke="midnightblue" d="M337.053,-123.399C369.539,-113.118 413.039,-99.3506 443.589,-89.6818"/>
<polygon fill="midnightblue" stroke="midnightblue" points="444.941,-92.9252 453.419,-86.5709 442.829,-86.2515 444.941,-92.9252"/>
</g>
<!-- Node7 -->
<g id="node7" class="node"><title>Node7</title>
<polygon fill="none" stroke="#bfbfbf" points="201.5,-0.5 201.5,-30.5 325.5,-30.5 325.5,-0.5 201.5,-0.5"/>
<text text-anchor="start" x="209.5" y="-18.5" font-family="Helvetica,sans-Serif" font-size="10.00">eigen_conversions/eigen</text>
<text text-anchor="middle" x="263.5" y="-7.5" font-family="Helvetica,sans-Serif" font-size="10.00">_kdl.h</text>
</g>
<!-- Node2&#45;&gt;Node7 -->
<g id="edge6" class="edge"><title>Node2&#45;&gt;Node7</title>
<path fill="none" stroke="midnightblue" d="M306.857,-123.432C319.57,-109.186 334.781,-86.5294 325.5,-67 319.67,-54.7316 309.239,-44.4642 298.577,-36.4605"/>
<polygon fill="midnightblue" stroke="midnightblue" points="300.266,-33.3721 290.059,-30.5319 296.267,-39.1174 300.266,-33.3721"/>
</g>
<!-- Node8 -->
<g id="node8" class="node"><title>Node8</title>
<polygon fill="none" stroke="#bfbfbf" points="344,-6 344,-25 431,-25 431,-6 344,-6"/>
<text text-anchor="middle" x="387.5" y="-13" font-family="Helvetica,sans-Serif" font-size="10.00">Eigen/Geometry</text>
</g>
<!-- Node2&#45;&gt;Node8 -->
<g id="edge7" class="edge"><title>Node2&#45;&gt;Node8</title>
<path fill="none" stroke="midnightblue" d="M307.869,-123.169C317.947,-113.42 331.128,-99.9787 341.5,-87 355.14,-69.9319 368.537,-48.7556 377.322,-34.0903"/>
<polygon fill="midnightblue" stroke="midnightblue" points="380.554,-35.5006 382.615,-25.1081 374.523,-31.9472 380.554,-35.5006"/>
</g>
<!-- Node9 -->
<g id="node9" class="node"><title>Node9</title>
<polygon fill="none" stroke="#bfbfbf" points="449,-6 449,-25 562,-25 562,-6 449,-6"/>
<text text-anchor="middle" x="505.5" y="-13" font-family="Helvetica,sans-Serif" font-size="10.00">srdfdom_advr/model.h</text>
</g>
<!-- Node2&#45;&gt;Node9 -->
<g id="edge8" class="edge"><title>Node2&#45;&gt;Node9</title>
<path fill="none" stroke="midnightblue" d="M317.351,-123.383C358.685,-99.9017 441.03,-53.1238 481.675,-30.0344"/>
<polygon fill="midnightblue" stroke="midnightblue" points="483.409,-33.0749 490.375,-25.0922 479.951,-26.9884 483.409,-33.0749"/>
</g>
<!-- Node10 -->
<g id="node10" class="node"><title>Node10</title>
<g id="a_node10"><a xlink:href="GenericSensor_8h.html" target="_top" xlink:title="XBotInterface/GenericSensor.h">
<polygon fill="none" stroke="black" points="164.5,-67.5 164.5,-86.5 316.5,-86.5 316.5,-67.5 164.5,-67.5"/>
<text text-anchor="middle" x="240.5" y="-74.5" font-family="Helvetica,sans-Serif" font-size="10.00">XBotInterface/GenericSensor.h</text>
</a>
</g>
</g>
<!-- Node2&#45;&gt;Node10 -->
<g id="edge9" class="edge"><title>Node2&#45;&gt;Node10</title>
<path fill="none" stroke="midnightblue" d="M280.177,-123.399C272.543,-114.664 262.709,-103.413 254.742,-94.2962"/>
<polygon fill="midnightblue" stroke="midnightblue" points="257.282,-91.8843 248.066,-86.6578 252.012,-96.4907 257.282,-91.8843"/>
</g>
<!-- Node10&#45;&gt;Node3 -->
<g id="edge10" class="edge"><title>Node10&#45;&gt;Node3</title>
<path fill="none" stroke="midnightblue" d="M191.637,-67.4698C152.755,-59.9605 97.2955,-47.6266 50.5,-31 49.0691,-30.4916 47.6163,-29.935 46.161,-29.3455"/>
<polygon fill="midnightblue" stroke="midnightblue" points="47.2873,-26.0155 36.7289,-25.1379 44.4355,-32.4083 47.2873,-26.0155"/>
</g>
<!-- Node10&#45;&gt;Node4 -->
<g id="edge11" class="edge"><title>Node10&#45;&gt;Node4</title>
<path fill="none" stroke="midnightblue" d="M216.956,-67.4396C192.695,-58.5556 153.823,-44.1463 120.5,-31 118.86,-30.3528 117.179,-29.6821 115.484,-29"/>
<polygon fill="midnightblue" stroke="midnightblue" points="116.392,-25.5902 105.811,-25.0513 113.746,-32.0711 116.392,-25.5902"/>
</g>
<!-- Node10&#45;&gt;Node5 -->
<g id="edge12" class="edge"><title>Node10&#45;&gt;Node5</title>
<path fill="none" stroke="midnightblue" d="M228.465,-67.4751C214.992,-57.9315 192.934,-42.3073 176.785,-30.8683"/>
<polygon fill="midnightblue" stroke="midnightblue" points="178.696,-27.9332 168.513,-25.0091 174.65,-33.6454 178.696,-27.9332"/>
</g>
<!-- Node10&#45;&gt;Node7 -->
<g id="edge14" class="edge"><title>Node10&#45;&gt;Node7</title>
<path fill="none" stroke="midnightblue" d="M243.795,-67.4751C246.561,-60.3204 250.648,-49.7483 254.383,-40.0841"/>
<polygon fill="midnightblue" stroke="midnightblue" points="257.738,-41.1123 258.079,-30.523 251.209,-38.5884 257.738,-41.1123"/>
</g>
<!-- Node10&#45;&gt;Node8 -->
<g id="edge13" class="edge"><title>Node10&#45;&gt;Node8</title>
<path fill="none" stroke="midnightblue" d="M261.562,-67.4751C286.559,-57.3571 328.442,-40.4046 356.987,-28.8507"/>
<polygon fill="midnightblue" stroke="midnightblue" points="358.521,-32.0054 366.478,-25.0091 355.895,-25.5168 358.521,-32.0054"/>
</g>
<!-- Node10&#45;&gt;Node9 -->
<g id="edge15" class="edge"><title>Node10&#45;&gt;Node9</title>
<path fill="none" stroke="midnightblue" d="M278.468,-67.4751C325.696,-56.8711 406.358,-38.7602 457.736,-27.2244"/>
<polygon fill="midnightblue" stroke="midnightblue" points="458.612,-30.6149 467.602,-25.0091 457.079,-23.7849 458.612,-30.6149"/>
</g>
</g>
</svg>
