<?xml version="1.0" encoding="UTF-8" standalone="no"?>
<!DOCTYPE svg PUBLIC "-//W3C//DTD SVG 1.1//EN"
 "http://www.w3.org/Graphics/SVG/1.1/DTD/svg11.dtd">
<!-- Generated by graphviz version 2.38.0 (20140413.2041)
 -->
<!-- Title: /home/lucamuratore/advr&#45;superbuild/external/XBotInterface/include/spdlog/formatter.h Pages: 1 -->
<svg width="1536pt" height="1040pt"
 viewBox="0.00 0.00 1535.50 1040.00" xmlns="http://www.w3.org/2000/svg" xmlns:xlink="http://www.w3.org/1999/xlink">
<g id="graph0" class="graph" transform="scale(1 1) rotate(0) translate(4 1036)">
<title>/home/lucamuratore/advr&#45;superbuild/external/XBotInterface/include/spdlog/formatter.h</title>
<!-- Node1 -->
<g id="node1" class="node"><title>Node1</title>
<polygon fill="#bfbfbf" stroke="black" points="736,-979.5 736,-1031.5 881,-1031.5 881,-979.5 736,-979.5"/>
<text text-anchor="start" x="744" y="-1019.5" font-family="Helvetica,sans-Serif" font-size="10.00">/home/lucamuratore</text>
<text text-anchor="start" x="744" y="-1008.5" font-family="Helvetica,sans-Serif" font-size="10.00">/advr&#45;superbuild/external</text>
<text text-anchor="start" x="744" y="-997.5" font-family="Helvetica,sans-Serif" font-size="10.00">/XBotInterface/include/spdlog</text>
<text text-anchor="middle" x="808.5" y="-986.5" font-family="Helvetica,sans-Serif" font-size="10.00">/formatter.h</text>
</g>
<!-- Node2 -->
<g id="node2" class="node"><title>Node2</title>
<g id="a_node2"><a xlink:href="async__log__helper_8h.html" target="_top" xlink:title="/home/lucamuratore\l/advr&#45;superbuild/external\l/XBotInterface/include/spdlog\l/details/async_log_helper.h">
<polygon fill="none" stroke="black" points="245,-890.5 245,-942.5 390,-942.5 390,-890.5 245,-890.5"/>
<text text-anchor="start" x="253" y="-930.5" font-family="Helvetica,sans-Serif" font-size="10.00">/home/lucamuratore</text>
<text text-anchor="start" x="253" y="-919.5" font-family="Helvetica,sans-Serif" font-size="10.00">/advr&#45;superbuild/external</text>
<text text-anchor="start" x="253" y="-908.5" font-family="Helvetica,sans-Serif" font-size="10.00">/XBotInterface/include/spdlog</text>
<text text-anchor="middle" x="317.5" y="-897.5" font-family="Helvetica,sans-Serif" font-size="10.00">/details/async_log_helper.h</text>
</a>
</g>
</g>
<!-- Node1&#45;&gt;Node2 -->
<g id="edge1" class="edge"><title>Node1&#45;&gt;Node2</title>
<path fill="none" stroke="midnightblue" d="M725.747,-989.837C631.731,-973.178 479.77,-946.253 390.161,-930.375"/>
<polygon fill="midnightblue" stroke="midnightblue" points="725.33,-993.318 735.787,-991.616 726.551,-986.425 725.33,-993.318"/>
</g>
<!-- Node21 -->
<g id="node21" class="node"><title>Node21</title>
<g id="a_node21"><a xlink:href="pattern__formatter__impl_8h.html" target="_top" xlink:title="/home/lucamuratore\l/advr&#45;superbuild/external\l/XBotInterface/include/spdlog\l/details/pattern_formatter_impl.h">
<polygon fill="none" stroke="black" points="815,-890.5 815,-942.5 972,-942.5 972,-890.5 815,-890.5"/>
<text text-anchor="start" x="823" y="-930.5" font-family="Helvetica,sans-Serif" font-size="10.00">/home/lucamuratore</text>
<text text-anchor="start" x="823" y="-919.5" font-family="Helvetica,sans-Serif" font-size="10.00">/advr&#45;superbuild/external</text>
<text text-anchor="start" x="823" y="-908.5" font-family="Helvetica,sans-Serif" font-size="10.00">/XBotInterface/include/spdlog</text>
<text text-anchor="middle" x="893.5" y="-897.5" font-family="Helvetica,sans-Serif" font-size="10.00">/details/pattern_formatter_impl.h</text>
</a>
</g>
</g>
<!-- Node1&#45;&gt;Node21 -->
<g id="edge24" class="edge"><title>Node1&#45;&gt;Node21</title>
<path fill="none" stroke="midnightblue" d="M833.896,-971.79C842.992,-962.129 853.298,-951.71 862.787,-942.607"/>
<polygon fill="midnightblue" stroke="midnightblue" points="831.132,-969.623 826.9,-979.336 836.265,-974.383 831.132,-969.623"/>
</g>
<!-- Node22 -->
<g id="node22" class="node"><title>Node22</title>
<g id="a_node22"><a xlink:href="base__sink_8h.html" target="_top" xlink:title="/home/lucamuratore\l/advr&#45;superbuild/external\l/XBotInterface/include/spdlog\l/sinks/base_sink.h">
<polygon fill="none" stroke="black" points="652,-890.5 652,-942.5 797,-942.5 797,-890.5 652,-890.5"/>
<text text-anchor="start" x="660" y="-930.5" font-family="Helvetica,sans-Serif" font-size="10.00">/home/lucamuratore</text>
<text text-anchor="start" x="660" y="-919.5" font-family="Helvetica,sans-Serif" font-size="10.00">/advr&#45;superbuild/external</text>
<text text-anchor="start" x="660" y="-908.5" font-family="Helvetica,sans-Serif" font-size="10.00">/XBotInterface/include/spdlog</text>
<text text-anchor="middle" x="724.5" y="-897.5" font-family="Helvetica,sans-Serif" font-size="10.00">/sinks/base_sink.h</text>
</a>
</g>
</g>
<!-- Node1&#45;&gt;Node22 -->
<g id="edge26" class="edge"><title>Node1&#45;&gt;Node22</title>
<path fill="none" stroke="midnightblue" d="M777.195,-972.077C767.789,-962.335 757.617,-951.8 748.742,-942.607"/>
<polygon fill="midnightblue" stroke="midnightblue" points="774.74,-974.573 784.204,-979.336 779.776,-969.711 774.74,-974.573"/>
</g>
<!-- Node3 -->
<g id="node3" class="node"><title>Node3</title>
<g id="a_node3"><a xlink:href="async__logger__impl_8h.html" target="_top" xlink:title="/home/lucamuratore\l/advr&#45;superbuild/external\l/XBotInterface/include/spdlog\l/details/async_logger_impl.h">
<polygon fill="none" stroke="black" points="0,-801.5 0,-853.5 145,-853.5 145,-801.5 0,-801.5"/>
<text text-anchor="start" x="8" y="-841.5" font-family="Helvetica,sans-Serif" font-size="10.00">/home/lucamuratore</text>
<text text-anchor="start" x="8" y="-830.5" font-family="Helvetica,sans-Serif" font-size="10.00">/advr&#45;superbuild/external</text>
<text text-anchor="start" x="8" y="-819.5" font-family="Helvetica,sans-Serif" font-size="10.00">/XBotInterface/include/spdlog</text>
<text text-anchor="middle" x="72.5" y="-808.5" font-family="Helvetica,sans-Serif" font-size="10.00">/details/async_logger_impl.h</text>
</a>
</g>
</g>
<!-- Node2&#45;&gt;Node3 -->
<g id="edge2" class="edge"><title>Node2&#45;&gt;Node3</title>
<path fill="none" stroke="midnightblue" d="M237.236,-886.998C206.808,-876.193 172.419,-863.982 142.962,-853.521"/>
<polygon fill="midnightblue" stroke="midnightblue" points="236.37,-890.405 246.965,-890.453 238.712,-883.808 236.37,-890.405"/>
</g>
<!-- Node4 -->
<g id="node4" class="node"><title>Node4</title>
<g id="a_node4"><a xlink:href="async__logger_8h.html" target="_top" xlink:title="/home/lucamuratore\l/advr&#45;superbuild/external\l/XBotInterface/include/spdlog\l/async_logger.h">
<polygon fill="none" stroke="black" points="15,-712.5 15,-764.5 160,-764.5 160,-712.5 15,-712.5"/>
<text text-anchor="start" x="23" y="-752.5" font-family="Helvetica,sans-Serif" font-size="10.00">/home/lucamuratore</text>
<text text-anchor="start" x="23" y="-741.5" font-family="Helvetica,sans-Serif" font-size="10.00">/advr&#45;superbuild/external</text>
<text text-anchor="start" x="23" y="-730.5" font-family="Helvetica,sans-Serif" font-size="10.00">/XBotInterface/include/spdlog</text>
<text text-anchor="middle" x="87.5" y="-719.5" font-family="Helvetica,sans-Serif" font-size="10.00">/async_logger.h</text>
</a>
</g>
</g>
<!-- Node3&#45;&gt;Node4 -->
<g id="edge3" class="edge"><title>Node3&#45;&gt;Node4</title>
<path fill="none" stroke="midnightblue" d="M71.9453,-791.191C73.2449,-782.282 75.0162,-772.899 76.9888,-764.607"/>
<polygon fill="midnightblue" stroke="midnightblue" points="68.4447,-790.974 70.6526,-801.336 75.3886,-791.859 68.4447,-790.974"/>
</g>
<!-- Node4&#45;&gt;Node3 -->
<g id="edge4" class="edge"><title>Node4&#45;&gt;Node3</title>
<path fill="none" stroke="midnightblue" d="M88.0636,-774.749C86.7661,-783.655 84.9964,-793.04 83.0246,-801.336"/>
<polygon fill="midnightblue" stroke="midnightblue" points="91.5636,-774.969 89.3534,-764.607 84.6195,-774.086 91.5636,-774.969"/>
</g>
<!-- Node5 -->
<g id="node5" class="node"><title>Node5</title>
<g id="a_node5"><a xlink:href="registry_8h.html" target="_top" xlink:title="/home/lucamuratore\l/advr&#45;superbuild/external\l/XBotInterface/include/spdlog\l/details/registry.h">
<polygon fill="none" stroke="black" points="101,-623.5 101,-675.5 246,-675.5 246,-623.5 101,-623.5"/>
<text text-anchor="start" x="109" y="-663.5" font-family="Helvetica,sans-Serif" font-size="10.00">/home/lucamuratore</text>
<text text-anchor="start" x="109" y="-652.5" font-family="Helvetica,sans-Serif" font-size="10.00">/advr&#45;superbuild/external</text>
<text text-anchor="start" x="109" y="-641.5" font-family="Helvetica,sans-Serif" font-size="10.00">/XBotInterface/include/spdlog</text>
<text text-anchor="middle" x="173.5" y="-630.5" font-family="Helvetica,sans-Serif" font-size="10.00">/details/registry.h</text>
</a>
</g>
</g>
<!-- Node4&#45;&gt;Node5 -->
<g id="edge5" class="edge"><title>Node4&#45;&gt;Node5</title>
<path fill="none" stroke="midnightblue" d="M119.551,-705.077C129.18,-695.335 139.594,-684.8 148.681,-675.607"/>
<polygon fill="midnightblue" stroke="midnightblue" points="116.916,-702.764 112.375,-712.336 121.894,-707.685 116.916,-702.764"/>
</g>
<!-- Node6 -->
<g id="node6" class="node"><title>Node6</title>
<g id="a_node6"><a xlink:href="spdlog__impl_8h.html" target="_top" xlink:title="/home/lucamuratore\l/advr&#45;superbuild/external\l/XBotInterface/include/spdlog\l/details/spdlog_impl.h">
<polygon fill="none" stroke="black" points="915,-534.5 915,-586.5 1060,-586.5 1060,-534.5 915,-534.5"/>
<text text-anchor="start" x="923" y="-574.5" font-family="Helvetica,sans-Serif" font-size="10.00">/home/lucamuratore</text>
<text text-anchor="start" x="923" y="-563.5" font-family="Helvetica,sans-Serif" font-size="10.00">/advr&#45;superbuild/external</text>
<text text-anchor="start" x="923" y="-552.5" font-family="Helvetica,sans-Serif" font-size="10.00">/XBotInterface/include/spdlog</text>
<text text-anchor="middle" x="987.5" y="-541.5" font-family="Helvetica,sans-Serif" font-size="10.00">/details/spdlog_impl.h</text>
</a>
</g>
</g>
<!-- Node5&#45;&gt;Node6 -->
<g id="edge6" class="edge"><title>Node5&#45;&gt;Node6</title>
<path fill="none" stroke="midnightblue" d="M256.333,-639.647C415.963,-622.586 763.754,-585.414 914.922,-569.257"/>
<polygon fill="midnightblue" stroke="midnightblue" points="255.666,-636.198 246.095,-640.741 256.41,-643.158 255.666,-636.198"/>
</g>
<!-- Node7 -->
<g id="node7" class="node"><title>Node7</title>
<g id="a_node7"><a xlink:href="spdlog_8h.html" target="_top" xlink:title="/home/lucamuratore\l/advr&#45;superbuild/external\l/XBotInterface/include/spdlog\l/spdlog.h">
<polygon fill="none" stroke="black" points="915,-445.5 915,-497.5 1060,-497.5 1060,-445.5 915,-445.5"/>
<text text-anchor="start" x="923" y="-485.5" font-family="Helvetica,sans-Serif" font-size="10.00">/home/lucamuratore</text>
<text text-anchor="start" x="923" y="-474.5" font-family="Helvetica,sans-Serif" font-size="10.00">/advr&#45;superbuild/external</text>
<text text-anchor="start" x="923" y="-463.5" font-family="Helvetica,sans-Serif" font-size="10.00">/XBotInterface/include/spdlog</text>
<text text-anchor="middle" x="987.5" y="-452.5" font-family="Helvetica,sans-Serif" font-size="10.00">/spdlog.h</text>
</a>
</g>
</g>
<!-- Node6&#45;&gt;Node7 -->
<g id="edge7" class="edge"><title>Node6&#45;&gt;Node7</title>
<path fill="none" stroke="midnightblue" d="M980.858,-524.191C980.621,-515.282 980.775,-505.899 981.318,-497.607"/>
<polygon fill="midnightblue" stroke="midnightblue" points="977.368,-524.503 981.314,-534.336 984.361,-524.189 977.368,-524.503"/>
</g>
<!-- Node7&#45;&gt;Node6 -->
<g id="edge8" class="edge"><title>Node7&#45;&gt;Node6</title>
<path fill="none" stroke="midnightblue" d="M994.141,-507.749C994.379,-516.655 994.227,-526.04 993.686,-534.336"/>
<polygon fill="midnightblue" stroke="midnightblue" points="997.631,-507.439 993.682,-497.607 990.638,-507.755 997.631,-507.439"/>
</g>
<!-- Node8 -->
<g id="node8" class="node"><title>Node8</title>
<g id="a_node8"><a xlink:href="Logger_8hpp.html" target="_top" xlink:title="/home/lucamuratore\l/advr&#45;superbuild/external\l/XBotInterface/include/XBotInterface\l/Logger.hpp">
<polygon fill="none" stroke="black" points="899.5,-356.5 899.5,-408.5 1075.5,-408.5 1075.5,-356.5 899.5,-356.5"/>
<text text-anchor="start" x="907.5" y="-396.5" font-family="Helvetica,sans-Serif" font-size="10.00">/home/lucamuratore</text>
<text text-anchor="start" x="907.5" y="-385.5" font-family="Helvetica,sans-Serif" font-size="10.00">/advr&#45;superbuild/external</text>
<text text-anchor="start" x="907.5" y="-374.5" font-family="Helvetica,sans-Serif" font-size="10.00">/XBotInterface/include/XBotInterface</text>
<text text-anchor="middle" x="987.5" y="-363.5" font-family="Helvetica,sans-Serif" font-size="10.00">/Logger.hpp</text>
</a>
</g>
</g>
<!-- Node7&#45;&gt;Node8 -->
<g id="edge9" class="edge"><title>Node7&#45;&gt;Node8</title>
<path fill="none" stroke="midnightblue" d="M987.5,-435.191C987.5,-426.282 987.5,-416.899 987.5,-408.607"/>
<polygon fill="midnightblue" stroke="midnightblue" points="984,-435.336 987.5,-445.336 991,-435.336 984,-435.336"/>
</g>
<!-- Node9 -->
<g id="node9" class="node"><title>Node9</title>
<g id="a_node9"><a xlink:href="ConfigHelper_8h.html" target="_top" xlink:title="/home/lucamuratore\l/advr&#45;superbuild/external\l/XBotInterface/include/XBotInterface\l/ConfigHelper.h">
<polygon fill="none" stroke="black" points="725.5,-267.5 725.5,-319.5 901.5,-319.5 901.5,-267.5 725.5,-267.5"/>
<text text-anchor="start" x="733.5" y="-307.5" font-family="Helvetica,sans-Serif" font-size="10.00">/home/lucamuratore</text>
<text text-anchor="start" x="733.5" y="-296.5" font-family="Helvetica,sans-Serif" font-size="10.00">/advr&#45;superbuild/external</text>
<text text-anchor="start" x="733.5" y="-285.5" font-family="Helvetica,sans-Serif" font-size="10.00">/XBotInterface/include/XBotInterface</text>
<text text-anchor="middle" x="813.5" y="-274.5" font-family="Helvetica,sans-Serif" font-size="10.00">/ConfigHelper.h</text>
</a>
</g>
</g>
<!-- Node8&#45;&gt;Node9 -->
<g id="edge10" class="edge"><title>Node8&#45;&gt;Node9</title>
<path fill="none" stroke="midnightblue" d="M928.053,-351.776C907.119,-341.309 883.812,-329.656 863.715,-319.607"/>
<polygon fill="midnightblue" stroke="midnightblue" points="926.662,-354.994 937.172,-356.336 929.793,-348.733 926.662,-354.994"/>
</g>
<!-- Node11 -->
<g id="node11" class="node"><title>Node11</title>
<g id="a_node11"><a xlink:href="StateMachine_8h.html" target="_top" xlink:title="/home/lucamuratore\l/advr&#45;superbuild/external\l/XBotInterface/include/XBotInterface\l/StateMachine.h">
<polygon fill="none" stroke="black" points="801.5,-0.5 801.5,-52.5 977.5,-52.5 977.5,-0.5 801.5,-0.5"/>
<text text-anchor="start" x="809.5" y="-40.5" font-family="Helvetica,sans-Serif" font-size="10.00">/home/lucamuratore</text>
<text text-anchor="start" x="809.5" y="-29.5" font-family="Helvetica,sans-Serif" font-size="10.00">/advr&#45;superbuild/external</text>
<text text-anchor="start" x="809.5" y="-18.5" font-family="Helvetica,sans-Serif" font-size="10.00">/XBotInterface/include/XBotInterface</text>
<text text-anchor="middle" x="889.5" y="-7.5" font-family="Helvetica,sans-Serif" font-size="10.00">/StateMachine.h</text>
</a>
</g>
</g>
<!-- Node8&#45;&gt;Node11 -->
<g id="edge12" class="edge"><title>Node8&#45;&gt;Node11</title>
<path fill="none" stroke="midnightblue" d="M963.096,-347.896C957.625,-339.148 952.318,-329.502 948.5,-320 928.798,-270.97 903.03,-114.341 893.375,-52.7338"/>
<polygon fill="midnightblue" stroke="midnightblue" points="960.182,-349.835 968.572,-356.305 966.048,-346.016 960.182,-349.835"/>
</g>
<!-- Node12 -->
<g id="node12" class="node"><title>Node12</title>
<g id="a_node12"><a xlink:href="XBotInterface_8h.html" target="_top" xlink:title="/home/lucamuratore\l/advr&#45;superbuild/external\l/XBotInterface/include/XBotInterface\l/XBotInterface.h">
<polygon fill="none" stroke="black" points="957.5,-267.5 957.5,-319.5 1133.5,-319.5 1133.5,-267.5 957.5,-267.5"/>
<text text-anchor="start" x="965.5" y="-307.5" font-family="Helvetica,sans-Serif" font-size="10.00">/home/lucamuratore</text>
<text text-anchor="start" x="965.5" y="-296.5" font-family="Helvetica,sans-Serif" font-size="10.00">/advr&#45;superbuild/external</text>
<text text-anchor="start" x="965.5" y="-285.5" font-family="Helvetica,sans-Serif" font-size="10.00">/XBotInterface/include/XBotInterface</text>
<text text-anchor="middle" x="1045.5" y="-274.5" font-family="Helvetica,sans-Serif" font-size="10.00">/XBotInterface.h</text>
</a>
</g>
</g>
<!-- Node8&#45;&gt;Node12 -->
<g id="edge13" class="edge"><title>Node8&#45;&gt;Node12</title>
<path fill="none" stroke="midnightblue" d="M1009.88,-347.927C1016.16,-338.511 1022.87,-328.439 1028.76,-319.607"/>
<polygon fill="midnightblue" stroke="midnightblue" points="1006.91,-346.074 1004.28,-356.336 1012.74,-349.957 1006.91,-346.074"/>
</g>
<!-- Node20 -->
<g id="node20" class="node"><title>Node20</title>
<g id="a_node20"><a xlink:href="Logger_8cpp.html" target="_top" xlink:title="/home/lucamuratore\l/advr&#45;superbuild/external\l/XBotInterface/src/Logger.cpp">
<polygon fill="none" stroke="black" points="1152,-273 1152,-314 1299,-314 1299,-273 1152,-273"/>
<text text-anchor="start" x="1160" y="-302" font-family="Helvetica,sans-Serif" font-size="10.00">/home/lucamuratore</text>
<text text-anchor="start" x="1160" y="-291" font-family="Helvetica,sans-Serif" font-size="10.00">/advr&#45;superbuild/external</text>
<text text-anchor="middle" x="1225.5" y="-280" font-family="Helvetica,sans-Serif" font-size="10.00">/XBotInterface/src/Logger.cpp</text>
</a>
</g>
</g>
<!-- Node8&#45;&gt;Node20 -->
<g id="edge23" class="edge"><title>Node8&#45;&gt;Node20</title>
<path fill="none" stroke="midnightblue" d="M1065.67,-352.925C1100.43,-340.219 1140.48,-325.58 1171.79,-314.134"/>
<polygon fill="midnightblue" stroke="midnightblue" points="1064.21,-349.732 1056.02,-356.453 1066.61,-356.307 1064.21,-349.732"/>
</g>
<!-- Node10 -->
<g id="node10" class="node"><title>Node10</title>
<g id="a_node10"><a xlink:href="ConfigHelper_8cpp.html" target="_top" xlink:title="/home/lucamuratore\l/advr&#45;superbuild/external\l/XBotInterface/src/ConfigHelper.cpp">
<polygon fill="none" stroke="black" points="726,-184 726,-225 901,-225 901,-184 726,-184"/>
<text text-anchor="start" x="734" y="-213" font-family="Helvetica,sans-Serif" font-size="10.00">/home/lucamuratore</text>
<text text-anchor="start" x="734" y="-202" font-family="Helvetica,sans-Serif" font-size="10.00">/advr&#45;superbuild/external</text>
<text text-anchor="middle" x="813.5" y="-191" font-family="Helvetica,sans-Serif" font-size="10.00">/XBotInterface/src/ConfigHelper.cpp</text>
</a>
</g>
</g>
<!-- Node9&#45;&gt;Node10 -->
<g id="edge11" class="edge"><title>Node9&#45;&gt;Node10</title>
<path fill="none" stroke="midnightblue" d="M813.5,-257.155C813.5,-246.21 813.5,-234.549 813.5,-225.082"/>
<polygon fill="midnightblue" stroke="midnightblue" points="810,-257.336 813.5,-267.336 817,-257.336 810,-257.336"/>
</g>
<!-- Node13 -->
<g id="node13" class="node"><title>Node13</title>
<g id="a_node13"><a xlink:href="ModelInterface_8h.html" target="_top" xlink:title="/home/lucamuratore\l/advr&#45;superbuild/external\l/XBotInterface/include/XBotInterface\l/ModelInterface.h">
<polygon fill="none" stroke="black" points="1073.5,-178.5 1073.5,-230.5 1249.5,-230.5 1249.5,-178.5 1073.5,-178.5"/>
<text text-anchor="start" x="1081.5" y="-218.5" font-family="Helvetica,sans-Serif" font-size="10.00">/home/lucamuratore</text>
<text text-anchor="start" x="1081.5" y="-207.5" font-family="Helvetica,sans-Serif" font-size="10.00">/advr&#45;superbuild/external</text>
<text text-anchor="start" x="1081.5" y="-196.5" font-family="Helvetica,sans-Serif" font-size="10.00">/XBotInterface/include/XBotInterface</text>
<text text-anchor="middle" x="1161.5" y="-185.5" font-family="Helvetica,sans-Serif" font-size="10.00">/ModelInterface.h</text>
</a>
</g>
</g>
<!-- Node12&#45;&gt;Node13 -->
<g id="edge14" class="edge"><title>Node12&#45;&gt;Node13</title>
<path fill="none" stroke="midnightblue" d="M1087.21,-261.219C1100.62,-251.164 1115.29,-240.16 1128.02,-230.607"/>
<polygon fill="midnightblue" stroke="midnightblue" points="1084.95,-258.536 1079.05,-267.336 1089.15,-264.136 1084.95,-258.536"/>
</g>
<!-- Node14 -->
<g id="node14" class="node"><title>Node14</title>
<g id="a_node14"><a xlink:href="RobotInterface_8h.html" target="_top" xlink:title="/home/lucamuratore\l/advr&#45;superbuild/external\l/XBotInterface/include/XBotInterface\l/RobotInterface.h">
<polygon fill="none" stroke="black" points="957.5,-89.5 957.5,-141.5 1133.5,-141.5 1133.5,-89.5 957.5,-89.5"/>
<text text-anchor="start" x="965.5" y="-129.5" font-family="Helvetica,sans-Serif" font-size="10.00">/home/lucamuratore</text>
<text text-anchor="start" x="965.5" y="-118.5" font-family="Helvetica,sans-Serif" font-size="10.00">/advr&#45;superbuild/external</text>
<text text-anchor="start" x="965.5" y="-107.5" font-family="Helvetica,sans-Serif" font-size="10.00">/XBotInterface/include/XBotInterface</text>
<text text-anchor="middle" x="1045.5" y="-96.5" font-family="Helvetica,sans-Serif" font-size="10.00">/RobotInterface.h</text>
</a>
</g>
</g>
<!-- Node12&#45;&gt;Node14 -->
<g id="edge21" class="edge"><title>Node12&#45;&gt;Node14</title>
<path fill="none" stroke="midnightblue" d="M1045.5,-257.249C1045.5,-223.038 1045.5,-171.969 1045.5,-141.67"/>
<polygon fill="midnightblue" stroke="midnightblue" points="1042,-257.283 1045.5,-267.283 1049,-257.284 1042,-257.283"/>
</g>
<!-- Node19 -->
<g id="node19" class="node"><title>Node19</title>
<g id="a_node19"><a xlink:href="XBotInterface_8cpp.html" target="_top" xlink:title="/home/lucamuratore\l/advr&#45;superbuild/external\l/XBotInterface/src/XBotInterface.cpp">
<polygon fill="none" stroke="black" points="1267.5,-184 1267.5,-225 1445.5,-225 1445.5,-184 1267.5,-184"/>
<text text-anchor="start" x="1275.5" y="-213" font-family="Helvetica,sans-Serif" font-size="10.00">/home/lucamuratore</text>
<text text-anchor="start" x="1275.5" y="-202" font-family="Helvetica,sans-Serif" font-size="10.00">/advr&#45;superbuild/external</text>
<text text-anchor="middle" x="1356.5" y="-191" font-family="Helvetica,sans-Serif" font-size="10.00">/XBotInterface/src/XBotInterface.cpp</text>
</a>
</g>
</g>
<!-- Node12&#45;&gt;Node19 -->
<g id="edge22" class="edge"><title>Node12&#45;&gt;Node19</title>
<path fill="none" stroke="midnightblue" d="M1143.58,-265.062C1190.09,-252.053 1244.56,-236.814 1286.77,-225.008"/>
<polygon fill="midnightblue" stroke="midnightblue" points="1142.48,-261.737 1133.79,-267.802 1144.36,-268.479 1142.48,-261.737"/>
</g>
<!-- Node13&#45;&gt;Node14 -->
<g id="edge15" class="edge"><title>Node13&#45;&gt;Node14</title>
<path fill="none" stroke="midnightblue" d="M1119.79,-172.219C1106.38,-162.164 1091.71,-151.16 1078.98,-141.607"/>
<polygon fill="midnightblue" stroke="midnightblue" points="1117.85,-175.136 1127.95,-178.336 1122.05,-169.536 1117.85,-175.136"/>
</g>
<!-- Node17 -->
<g id="node17" class="node"><title>Node17</title>
<g id="a_node17"><a xlink:href="Utils_8h.html" target="_top" xlink:title="/home/lucamuratore\l/advr&#45;superbuild/external\l/XBotInterface/include/XBotInterface\l/Utils.h">
<polygon fill="none" stroke="black" points="1351.5,-89.5 1351.5,-141.5 1527.5,-141.5 1527.5,-89.5 1351.5,-89.5"/>
<text text-anchor="start" x="1359.5" y="-129.5" font-family="Helvetica,sans-Serif" font-size="10.00">/home/lucamuratore</text>
<text text-anchor="start" x="1359.5" y="-118.5" font-family="Helvetica,sans-Serif" font-size="10.00">/advr&#45;superbuild/external</text>
<text text-anchor="start" x="1359.5" y="-107.5" font-family="Helvetica,sans-Serif" font-size="10.00">/XBotInterface/include/XBotInterface</text>
<text text-anchor="middle" x="1439.5" y="-96.5" font-family="Helvetica,sans-Serif" font-size="10.00">/Utils.h</text>
</a>
</g>
</g>
<!-- Node13&#45;&gt;Node17 -->
<g id="edge19" class="edge"><title>Node13&#45;&gt;Node17</title>
<path fill="none" stroke="midnightblue" d="M1251.23,-175.418C1286.09,-164.511 1325.69,-152.117 1359.55,-141.521"/>
<polygon fill="midnightblue" stroke="midnightblue" points="1250.03,-172.126 1241.54,-178.453 1252.13,-178.806 1250.03,-172.126"/>
</g>
<!-- Node18 -->
<g id="node18" class="node"><title>Node18</title>
<g id="a_node18"><a xlink:href="ModelInterface_8cpp.html" target="_top" xlink:title="/home/lucamuratore\l/advr&#45;superbuild/external\l/XBotInterface/src/ModelInterface.cpp">
<polygon fill="none" stroke="black" points="1151.5,-95 1151.5,-136 1333.5,-136 1333.5,-95 1151.5,-95"/>
<text text-anchor="start" x="1159.5" y="-124" font-family="Helvetica,sans-Serif" font-size="10.00">/home/lucamuratore</text>
<text text-anchor="start" x="1159.5" y="-113" font-family="Helvetica,sans-Serif" font-size="10.00">/advr&#45;superbuild/external</text>
<text text-anchor="middle" x="1242.5" y="-102" font-family="Helvetica,sans-Serif" font-size="10.00">/XBotInterface/src/ModelInterface.cpp</text>
</a>
</g>
</g>
<!-- Node13&#45;&gt;Node18 -->
<g id="edge20" class="edge"><title>Node13&#45;&gt;Node18</title>
<path fill="none" stroke="midnightblue" d="M1191.9,-170.847C1202.79,-159.148 1214.73,-146.33 1224.27,-136.082"/>
<polygon fill="midnightblue" stroke="midnightblue" points="1189.18,-168.632 1184.93,-178.336 1194.3,-173.402 1189.18,-168.632"/>
</g>
<!-- Node14&#45;&gt;Node11 -->
<g id="edge16" class="edge"><title>Node14&#45;&gt;Node11</title>
<path fill="none" stroke="midnightblue" d="M991.444,-84.3532C972.872,-73.9962 952.296,-62.5208 934.52,-52.6075"/>
<polygon fill="midnightblue" stroke="midnightblue" points="989.94,-87.522 1000.38,-89.336 993.349,-81.4085 989.94,-87.522"/>
</g>
<!-- Node15 -->
<g id="node15" class="node"><title>Node15</title>
<g id="a_node15"><a xlink:href="main__test_8cpp.html" target="_top" xlink:title="/home/lucamuratore\l/advr&#45;superbuild/external\l/XBotInterface/src/main\l_test.cpp">
<polygon fill="none" stroke="black" points="1196,-0.5 1196,-52.5 1319,-52.5 1319,-0.5 1196,-0.5"/>
<text text-anchor="start" x="1204" y="-40.5" font-family="Helvetica,sans-Serif" font-size="10.00">/home/lucamuratore</text>
<text text-anchor="start" x="1204" y="-29.5" font-family="Helvetica,sans-Serif" font-size="10.00">/advr&#45;superbuild/external</text>
<text text-anchor="start" x="1204" y="-18.5" font-family="Helvetica,sans-Serif" font-size="10.00">/XBotInterface/src/main</text>
<text text-anchor="middle" x="1257.5" y="-7.5" font-family="Helvetica,sans-Serif" font-size="10.00">_test.cpp</text>
</a>
</g>
</g>
<!-- Node14&#45;&gt;Node15 -->
<g id="edge17" class="edge"><title>Node14&#45;&gt;Node15</title>
<path fill="none" stroke="midnightblue" d="M1115.98,-85.5764C1142.05,-74.8763 1171.37,-62.8457 1196.53,-52.5211"/>
<polygon fill="midnightblue" stroke="midnightblue" points="1114.46,-82.4182 1106.53,-89.4527 1117.11,-88.8941 1114.46,-82.4182"/>
</g>
<!-- Node16 -->
<g id="node16" class="node"><title>Node16</title>
<g id="a_node16"><a xlink:href="RobotInterface_8cpp.html" target="_top" xlink:title="/home/lucamuratore\l/advr&#45;superbuild/external\l/XBotInterface/src/RobotInterface.cpp">
<polygon fill="none" stroke="black" points="995.5,-6 995.5,-47 1177.5,-47 1177.5,-6 995.5,-6"/>
<text text-anchor="start" x="1003.5" y="-35" font-family="Helvetica,sans-Serif" font-size="10.00">/home/lucamuratore</text>
<text text-anchor="start" x="1003.5" y="-24" font-family="Helvetica,sans-Serif" font-size="10.00">/advr&#45;superbuild/external</text>
<text text-anchor="middle" x="1086.5" y="-13" font-family="Helvetica,sans-Serif" font-size="10.00">/XBotInterface/src/RobotInterface.cpp</text>
</a>
</g>
</g>
<!-- Node14&#45;&gt;Node16 -->
<g id="edge18" class="edge"><title>Node14&#45;&gt;Node16</title>
<path fill="none" stroke="midnightblue" d="M1061.68,-80.1688C1066.97,-68.9329 1072.67,-56.842 1077.27,-47.0821"/>
<polygon fill="midnightblue" stroke="midnightblue" points="1058.46,-78.7981 1057.36,-89.336 1064.79,-81.7822 1058.46,-78.7981"/>
</g>
<!-- Node21&#45;&gt;Node1 -->
<g id="edge25" class="edge"><title>Node21&#45;&gt;Node1</title>
<path fill="none" stroke="midnightblue" d="M868.16,-950.15C859.07,-959.808 848.764,-970.228 839.272,-979.336"/>
<polygon fill="midnightblue" stroke="midnightblue" points="870.921,-952.321 875.152,-942.607 865.787,-947.562 870.921,-952.321"/>
</g>
<!-- Node23 -->
<g id="node23" class="node"><title>Node23</title>
<g id="a_node23"><a xlink:href="logger_8h.html" target="_top" xlink:title="/home/lucamuratore\l/advr&#45;superbuild/external\l/XBotInterface/include/spdlog\l/logger.h">
<polygon fill="none" stroke="black" points="163,-801.5 163,-853.5 308,-853.5 308,-801.5 163,-801.5"/>
<text text-anchor="start" x="171" y="-841.5" font-family="Helvetica,sans-Serif" font-size="10.00">/home/lucamuratore</text>
<text text-anchor="start" x="171" y="-830.5" font-family="Helvetica,sans-Serif" font-size="10.00">/advr&#45;superbuild/external</text>
<text text-anchor="start" x="171" y="-819.5" font-family="Helvetica,sans-Serif" font-size="10.00">/XBotInterface/include/spdlog</text>
<text text-anchor="middle" x="235.5" y="-808.5" font-family="Helvetica,sans-Serif" font-size="10.00">/logger.h</text>
</a>
</g>
</g>
<!-- Node22&#45;&gt;Node23 -->
<g id="edge27" class="edge"><title>Node22&#45;&gt;Node23</title>
<path fill="none" stroke="midnightblue" d="M641.508,-906.821C558.562,-897.252 427.714,-879.724 316.5,-854 313.771,-853.369 311.001,-852.691 308.211,-851.976"/>
<polygon fill="midnightblue" stroke="midnightblue" points="641.299,-910.32 651.632,-907.977 642.093,-903.365 641.299,-910.32"/>
</g>
<!-- Node25 -->
<g id="node25" class="node"><title>Node25</title>
<g id="a_node25"><a xlink:href="ansicolor__sink_8h.html" target="_top" xlink:title="/home/lucamuratore\l/advr&#45;superbuild/external\l/XBotInterface/include/spdlog\l/sinks/ansicolor_sink.h">
<polygon fill="none" stroke="black" points="1101,-623.5 1101,-675.5 1246,-675.5 1246,-623.5 1101,-623.5"/>
<text text-anchor="start" x="1109" y="-663.5" font-family="Helvetica,sans-Serif" font-size="10.00">/home/lucamuratore</text>
<text text-anchor="start" x="1109" y="-652.5" font-family="Helvetica,sans-Serif" font-size="10.00">/advr&#45;superbuild/external</text>
<text text-anchor="start" x="1109" y="-641.5" font-family="Helvetica,sans-Serif" font-size="10.00">/XBotInterface/include/spdlog</text>
<text text-anchor="middle" x="1173.5" y="-630.5" font-family="Helvetica,sans-Serif" font-size="10.00">/sinks/ansicolor_sink.h</text>
</a>
</g>
</g>
<!-- Node22&#45;&gt;Node25 -->
<g id="edge33" class="edge"><title>Node22&#45;&gt;Node25</title>
<path fill="none" stroke="midnightblue" d="M807.021,-890.108C896.513,-876.548 1095.3,-903.619 1150.5,-854 1200.47,-809.076 1189.2,-719.566 1179.87,-675.79"/>
<polygon fill="midnightblue" stroke="midnightblue" points="806.406,-886.662 797.175,-891.863 807.635,-893.553 806.406,-886.662"/>
</g>
<!-- Node26 -->
<g id="node26" class="node"><title>Node26</title>
<g id="a_node26"><a xlink:href="dist__sink_8h.html" target="_top" xlink:title="/home/lucamuratore\l/advr&#45;superbuild/external\l/XBotInterface/include/spdlog\l/sinks/dist_sink.h">
<polygon fill="none" stroke="black" points="326,-801.5 326,-853.5 471,-853.5 471,-801.5 326,-801.5"/>
<text text-anchor="start" x="334" y="-841.5" font-family="Helvetica,sans-Serif" font-size="10.00">/home/lucamuratore</text>
<text text-anchor="start" x="334" y="-830.5" font-family="Helvetica,sans-Serif" font-size="10.00">/advr&#45;superbuild/external</text>
<text text-anchor="start" x="334" y="-819.5" font-family="Helvetica,sans-Serif" font-size="10.00">/XBotInterface/include/spdlog</text>
<text text-anchor="middle" x="398.5" y="-808.5" font-family="Helvetica,sans-Serif" font-size="10.00">/sinks/dist_sink.h</text>
</a>
</g>
</g>
<!-- Node22&#45;&gt;Node26 -->
<g id="edge35" class="edge"><title>Node22&#45;&gt;Node26</title>
<path fill="none" stroke="midnightblue" d="M641.88,-896.048C594.227,-884.507 533.279,-869.201 479.5,-854 476.804,-853.238 474.063,-852.449 471.297,-851.64"/>
<polygon fill="midnightblue" stroke="midnightblue" points="641.298,-899.508 651.84,-898.452 642.94,-892.703 641.298,-899.508"/>
</g>
<!-- Node27 -->
<g id="node27" class="node"><title>Node27</title>
<g id="a_node27"><a xlink:href="file__sinks_8h.html" target="_top" xlink:title="/home/lucamuratore\l/advr&#45;superbuild/external\l/XBotInterface/include/spdlog\l/sinks/file_sinks.h">
<polygon fill="none" stroke="black" points="1016,-712.5 1016,-764.5 1161,-764.5 1161,-712.5 1016,-712.5"/>
<text text-anchor="start" x="1024" y="-752.5" font-family="Helvetica,sans-Serif" font-size="10.00">/home/lucamuratore</text>
<text text-anchor="start" x="1024" y="-741.5" font-family="Helvetica,sans-Serif" font-size="10.00">/advr&#45;superbuild/external</text>
<text text-anchor="start" x="1024" y="-730.5" font-family="Helvetica,sans-Serif" font-size="10.00">/XBotInterface/include/spdlog</text>
<text text-anchor="middle" x="1088.5" y="-719.5" font-family="Helvetica,sans-Serif" font-size="10.00">/sinks/file_sinks.h</text>
</a>
</g>
</g>
<!-- Node22&#45;&gt;Node27 -->
<g id="edge36" class="edge"><title>Node22&#45;&gt;Node27</title>
<path fill="none" stroke="midnightblue" d="M807.075,-890.126C892.679,-877.454 1084.77,-906.171 1131.5,-854 1154.31,-828.534 1131.42,-789.812 1111.29,-764.58"/>
<polygon fill="midnightblue" stroke="midnightblue" points="806.413,-886.688 797.18,-891.884 807.638,-893.58 806.413,-886.688"/>
</g>
<!-- Node28 -->
<g id="node28" class="node"><title>Node28</title>
<g id="a_node28"><a xlink:href="null__sink_8h.html" target="_top" xlink:title="/home/lucamuratore\l/advr&#45;superbuild/external\l/XBotInterface/include/spdlog\l/sinks/null_sink.h">
<polygon fill="none" stroke="black" points="489,-801.5 489,-853.5 634,-853.5 634,-801.5 489,-801.5"/>
<text text-anchor="start" x="497" y="-841.5" font-family="Helvetica,sans-Serif" font-size="10.00">/home/lucamuratore</text>
<text text-anchor="start" x="497" y="-830.5" font-family="Helvetica,sans-Serif" font-size="10.00">/advr&#45;superbuild/external</text>
<text text-anchor="start" x="497" y="-819.5" font-family="Helvetica,sans-Serif" font-size="10.00">/XBotInterface/include/spdlog</text>
<text text-anchor="middle" x="561.5" y="-808.5" font-family="Helvetica,sans-Serif" font-size="10.00">/sinks/null_sink.h</text>
</a>
</g>
</g>
<!-- Node22&#45;&gt;Node28 -->
<g id="edge38" class="edge"><title>Node22&#45;&gt;Node28</title>
<path fill="none" stroke="midnightblue" d="M668.283,-885.494C648.809,-875.101 627.198,-863.566 608.54,-853.607"/>
<polygon fill="midnightblue" stroke="midnightblue" points="666.884,-888.715 677.354,-890.336 670.18,-882.54 666.884,-888.715"/>
</g>
<!-- Node29 -->
<g id="node29" class="node"><title>Node29</title>
<g id="a_node29"><a xlink:href="ostream__sink_8h.html" target="_top" xlink:title="/home/lucamuratore\l/advr&#45;superbuild/external\l/XBotInterface/include/spdlog\l/sinks/ostream_sink.h">
<polygon fill="none" stroke="black" points="652,-801.5 652,-853.5 797,-853.5 797,-801.5 652,-801.5"/>
<text text-anchor="start" x="660" y="-841.5" font-family="Helvetica,sans-Serif" font-size="10.00">/home/lucamuratore</text>
<text text-anchor="start" x="660" y="-830.5" font-family="Helvetica,sans-Serif" font-size="10.00">/advr&#45;superbuild/external</text>
<text text-anchor="start" x="660" y="-819.5" font-family="Helvetica,sans-Serif" font-size="10.00">/XBotInterface/include/spdlog</text>
<text text-anchor="middle" x="724.5" y="-808.5" font-family="Helvetica,sans-Serif" font-size="10.00">/sinks/ostream_sink.h</text>
</a>
</g>
</g>
<!-- Node22&#45;&gt;Node29 -->
<g id="edge39" class="edge"><title>Node22&#45;&gt;Node29</title>
<path fill="none" stroke="midnightblue" d="M724.5,-880.191C724.5,-871.282 724.5,-861.899 724.5,-853.607"/>
<polygon fill="midnightblue" stroke="midnightblue" points="721,-880.336 724.5,-890.336 728,-880.336 721,-880.336"/>
</g>
<!-- Node30 -->
<g id="node30" class="node"><title>Node30</title>
<g id="a_node30"><a xlink:href="stdout__sinks_8h.html" target="_top" xlink:title="/home/lucamuratore\l/advr&#45;superbuild/external\l/XBotInterface/include/spdlog\l/sinks/stdout_sinks.h">
<polygon fill="none" stroke="black" points="978,-801.5 978,-853.5 1123,-853.5 1123,-801.5 978,-801.5"/>
<text text-anchor="start" x="986" y="-841.5" font-family="Helvetica,sans-Serif" font-size="10.00">/home/lucamuratore</text>
<text text-anchor="start" x="986" y="-830.5" font-family="Helvetica,sans-Serif" font-size="10.00">/advr&#45;superbuild/external</text>
<text text-anchor="start" x="986" y="-819.5" font-family="Helvetica,sans-Serif" font-size="10.00">/XBotInterface/include/spdlog</text>
<text text-anchor="middle" x="1050.5" y="-808.5" font-family="Helvetica,sans-Serif" font-size="10.00">/sinks/stdout_sinks.h</text>
</a>
</g>
</g>
<!-- Node22&#45;&gt;Node30 -->
<g id="edge40" class="edge"><title>Node22&#45;&gt;Node30</title>
<path fill="none" stroke="midnightblue" d="M807.245,-889.627C878.956,-870.991 899.874,-872.214 968.5,-854 971.526,-853.197 974.607,-852.354 977.715,-851.483"/>
<polygon fill="midnightblue" stroke="midnightblue" points="806.045,-886.323 797.27,-892.26 807.832,-893.092 806.045,-886.323"/>
</g>
<!-- Node31 -->
<g id="node31" class="node"><title>Node31</title>
<g id="a_node31"><a xlink:href="wincolor__sink_8h.html" target="_top" xlink:title="/home/lucamuratore\l/advr&#45;superbuild/external\l/XBotInterface/include/spdlog\l/sinks/wincolor_sink.h">
<polygon fill="none" stroke="black" points="815,-801.5 815,-853.5 960,-853.5 960,-801.5 815,-801.5"/>
<text text-anchor="start" x="823" y="-841.5" font-family="Helvetica,sans-Serif" font-size="10.00">/home/lucamuratore</text>
<text text-anchor="start" x="823" y="-830.5" font-family="Helvetica,sans-Serif" font-size="10.00">/advr&#45;superbuild/external</text>
<text text-anchor="start" x="823" y="-819.5" font-family="Helvetica,sans-Serif" font-size="10.00">/XBotInterface/include/spdlog</text>
<text text-anchor="middle" x="887.5" y="-808.5" font-family="Helvetica,sans-Serif" font-size="10.00">/sinks/wincolor_sink.h</text>
</a>
</g>
</g>
<!-- Node22&#45;&gt;Node31 -->
<g id="edge43" class="edge"><title>Node22&#45;&gt;Node31</title>
<path fill="none" stroke="midnightblue" d="M780.717,-885.494C800.191,-875.101 821.802,-863.566 840.46,-853.607"/>
<polygon fill="midnightblue" stroke="midnightblue" points="778.82,-882.54 771.646,-890.336 782.116,-888.715 778.82,-882.54"/>
</g>
<!-- Node23&#45;&gt;Node4 -->
<g id="edge28" class="edge"><title>Node23&#45;&gt;Node4</title>
<path fill="none" stroke="midnightblue" d="M183.735,-796.07C166.242,-785.788 146.922,-774.431 130.212,-764.607"/>
<polygon fill="midnightblue" stroke="midnightblue" points="182.298,-799.286 192.692,-801.336 185.845,-793.251 182.298,-799.286"/>
</g>
<!-- Node23&#45;&gt;Node5 -->
<g id="edge31" class="edge"><title>Node23&#45;&gt;Node5</title>
<path fill="none" stroke="midnightblue" d="M223.238,-791.69C211.186,-757.478 193.086,-706.1 182.367,-675.67"/>
<polygon fill="midnightblue" stroke="midnightblue" points="219.993,-793.015 226.617,-801.283 226.595,-790.689 219.993,-793.015"/>
</g>
<!-- Node23&#45;&gt;Node7 -->
<g id="edge32" class="edge"><title>Node23&#45;&gt;Node7</title>
<path fill="none" stroke="midnightblue" d="M245.384,-791.517C254.197,-766.222 269.48,-732.944 293.5,-712 478.548,-550.643 778.041,-496.512 914.985,-479.6"/>
<polygon fill="midnightblue" stroke="midnightblue" points="242.025,-790.527 242.212,-801.12 248.672,-792.723 242.025,-790.527"/>
</g>
<!-- Node24 -->
<g id="node24" class="node"><title>Node24</title>
<g id="a_node24"><a xlink:href="logger__impl_8h.html" target="_top" xlink:title="/home/lucamuratore\l/advr&#45;superbuild/external\l/XBotInterface/include/spdlog\l/details/logger_impl.h">
<polygon fill="none" stroke="black" points="303,-712.5 303,-764.5 448,-764.5 448,-712.5 303,-712.5"/>
<text text-anchor="start" x="311" y="-752.5" font-family="Helvetica,sans-Serif" font-size="10.00">/home/lucamuratore</text>
<text text-anchor="start" x="311" y="-741.5" font-family="Helvetica,sans-Serif" font-size="10.00">/advr&#45;superbuild/external</text>
<text text-anchor="start" x="311" y="-730.5" font-family="Helvetica,sans-Serif" font-size="10.00">/XBotInterface/include/spdlog</text>
<text text-anchor="middle" x="375.5" y="-719.5" font-family="Helvetica,sans-Serif" font-size="10.00">/details/logger_impl.h</text>
</a>
</g>
</g>
<!-- Node23&#45;&gt;Node24 -->
<g id="edge29" class="edge"><title>Node23&#45;&gt;Node24</title>
<path fill="none" stroke="midnightblue" d="M278.439,-795.787C294.429,-785.579 312.615,-774.341 328.915,-764.607"/>
<polygon fill="midnightblue" stroke="midnightblue" points="276.327,-792.984 269.808,-801.336 280.112,-798.872 276.327,-792.984"/>
</g>
<!-- Node24&#45;&gt;Node23 -->
<g id="edge30" class="edge"><title>Node24&#45;&gt;Node23</title>
<path fill="none" stroke="midnightblue" d="M332.654,-770.154C316.673,-780.357 298.487,-791.597 282.18,-801.336"/>
<polygon fill="midnightblue" stroke="midnightblue" points="334.761,-772.96 341.279,-764.607 330.975,-767.072 334.761,-772.96"/>
</g>
<!-- Node25&#45;&gt;Node6 -->
<g id="edge34" class="edge"><title>Node25&#45;&gt;Node6</title>
<path fill="none" stroke="midnightblue" d="M1110.55,-619.058C1088.02,-608.519 1062.85,-596.746 1041.18,-586.607"/>
<polygon fill="midnightblue" stroke="midnightblue" points="1109.16,-622.269 1119.7,-623.336 1112.13,-615.929 1109.16,-622.269"/>
</g>
<!-- Node27&#45;&gt;Node6 -->
<g id="edge37" class="edge"><title>Node27&#45;&gt;Node6</title>
<path fill="none" stroke="midnightblue" d="M1069.03,-703.568C1049.4,-669.362 1019.56,-617.361 1001.94,-586.67"/>
<polygon fill="midnightblue" stroke="midnightblue" points="1066.02,-705.352 1074.03,-712.283 1072.09,-701.868 1066.02,-705.352"/>
</g>
<!-- Node30&#45;&gt;Node6 -->
<g id="edge42" class="edge"><title>Node30&#45;&gt;Node6</title>
<path fill="none" stroke="midnightblue" d="M1021.8,-793.054C1015.77,-784.415 1010.15,-774.779 1006.5,-765 983.742,-703.994 983.848,-625.888 985.733,-586.541"/>
<polygon fill="midnightblue" stroke="midnightblue" points="1019.14,-795.355 1027.89,-801.329 1024.78,-791.202 1019.14,-795.355"/>
</g>
<!-- Node30&#45;&gt;Node24 -->
<g id="edge41" class="edge"><title>Node30&#45;&gt;Node24</title>
<path fill="none" stroke="midnightblue" d="M967.829,-801.046C775.887,-762.512 558.954,-747.844 448.318,-742.407"/>
<polygon fill="midnightblue" stroke="midnightblue" points="967.321,-804.514 977.818,-803.078 968.716,-797.655 967.321,-804.514"/>
</g>
</g>
</svg>
