<?xml version="1.0" encoding="UTF-8" standalone="no"?>
<!DOCTYPE svg PUBLIC "-//W3C//DTD SVG 1.1//EN"
 "http://www.w3.org/Graphics/SVG/1.1/DTD/svg11.dtd">
<!-- Generated by graphviz version 2.38.0 (20140413.2041)
 -->
<!-- Title: /home/lucamuratore/advr&#45;superbuild/external/XBotInterface/include/spdlog/formatter.h Pages: 1 -->
<svg width="1202pt" height="497pt"
 viewBox="0.00 0.00 1202.00 497.00" xmlns="http://www.w3.org/2000/svg" xmlns:xlink="http://www.w3.org/1999/xlink">
<g id="graph0" class="graph" transform="scale(1 1) rotate(0) translate(4 493)">
<title>/home/lucamuratore/advr&#45;superbuild/external/XBotInterface/include/spdlog/formatter.h</title>
<!-- Node1 -->
<g id="node1" class="node"><title>Node1</title>
<polygon fill="#bfbfbf" stroke="black" points="340.5,-436.5 340.5,-488.5 485.5,-488.5 485.5,-436.5 340.5,-436.5"/>
<text text-anchor="start" x="348.5" y="-476.5" font-family="Helvetica,sans-Serif" font-size="10.00">/home/lucamuratore</text>
<text text-anchor="start" x="348.5" y="-465.5" font-family="Helvetica,sans-Serif" font-size="10.00">/advr&#45;superbuild/external</text>
<text text-anchor="start" x="348.5" y="-454.5" font-family="Helvetica,sans-Serif" font-size="10.00">/XBotInterface/include/spdlog</text>
<text text-anchor="middle" x="413" y="-443.5" font-family="Helvetica,sans-Serif" font-size="10.00">/formatter.h</text>
</g>
<!-- Node2 -->
<g id="node2" class="node"><title>Node2</title>
<g id="a_node2"><a xlink:href="log__msg_8h.html" target="_top" xlink:title="spdlog/details/log\l_msg.h">
<polygon fill="none" stroke="black" points="193,-302.5 193,-332.5 285,-332.5 285,-302.5 193,-302.5"/>
<text text-anchor="start" x="201" y="-320.5" font-family="Helvetica,sans-Serif" font-size="10.00">spdlog/details/log</text>
<text text-anchor="middle" x="239" y="-309.5" font-family="Helvetica,sans-Serif" font-size="10.00">_msg.h</text>
</a>
</g>
</g>
<!-- Node1&#45;&gt;Node2 -->
<g id="edge1" class="edge"><title>Node1&#45;&gt;Node2</title>
<path fill="none" stroke="midnightblue" d="M382.293,-436.264C348.619,-408.589 295.226,-364.709 264.004,-339.049"/>
<polygon fill="midnightblue" stroke="midnightblue" points="266.143,-336.277 256.195,-332.631 261.698,-341.685 266.143,-336.277"/>
</g>
<!-- Node4 -->
<g id="node4" class="node"><title>Node4</title>
<polygon fill="none" stroke="#bfbfbf" points="74.5,-0.5 74.5,-19.5 115.5,-19.5 115.5,-0.5 74.5,-0.5"/>
<text text-anchor="middle" x="95" y="-7.5" font-family="Helvetica,sans-Serif" font-size="10.00">string</text>
</g>
<!-- Node1&#45;&gt;Node4 -->
<g id="edge43" class="edge"><title>Node1&#45;&gt;Node4</title>
<path fill="none" stroke="midnightblue" d="M340.115,-451.543C221.55,-433.28 0,-389.635 0,-318.5 0,-318.5 0,-318.5 0,-137.5 0,-88.9251 45.3419,-47.0905 73.3762,-25.867"/>
<polygon fill="midnightblue" stroke="midnightblue" points="75.7817,-28.4441 81.7907,-19.7181 71.6516,-22.7923 75.7817,-28.4441"/>
</g>
<!-- Node7 -->
<g id="node7" class="node"><title>Node7</title>
<polygon fill="none" stroke="#bfbfbf" points="1017,-0.5 1017,-19.5 1069,-19.5 1069,-0.5 1017,-0.5"/>
<text text-anchor="middle" x="1043" y="-7.5" font-family="Helvetica,sans-Serif" font-size="10.00">memory</text>
</g>
<!-- Node1&#45;&gt;Node7 -->
<g id="edge44" class="edge"><title>Node1&#45;&gt;Node7</title>
<path fill="none" stroke="midnightblue" d="M485.792,-461.977C665.918,-461.203 1118,-446.511 1118,-318.5 1118,-318.5 1118,-318.5 1118,-137.5 1118,-92.2791 1082.1,-49.0792 1059.97,-26.7498"/>
<polygon fill="midnightblue" stroke="midnightblue" points="1062.41,-24.2323 1052.8,-19.753 1057.52,-29.2422 1062.41,-24.2323"/>
</g>
<!-- Node21 -->
<g id="node21" class="node"><title>Node21</title>
<polygon fill="none" stroke="#bfbfbf" points="1134,-0.5 1134,-19.5 1178,-19.5 1178,-0.5 1134,-0.5"/>
<text text-anchor="middle" x="1156" y="-7.5" font-family="Helvetica,sans-Serif" font-size="10.00">vector</text>
</g>
<!-- Node1&#45;&gt;Node21 -->
<g id="edge42" class="edge"><title>Node1&#45;&gt;Node21</title>
<path fill="none" stroke="midnightblue" d="M485.645,-459.392C634.481,-454.321 969.047,-438.855 1076,-400 1135.91,-378.236 1194,-382.238 1194,-318.5 1194,-318.5 1194,-318.5 1194,-137.5 1194,-97.3496 1176.22,-52.9463 1164.99,-28.8892"/>
<polygon fill="midnightblue" stroke="midnightblue" points="1168.01,-27.1043 1160.51,-19.6255 1161.71,-30.1518 1168.01,-27.1043"/>
</g>
<!-- Node33 -->
<g id="node33" class="node"><title>Node33</title>
<g id="a_node33"><a xlink:href="pattern__formatter__impl_8h.html" target="_top" xlink:title="spdlog/details/pattern\l_formatter_impl.h">
<polygon fill="none" stroke="black" points="358,-369.5 358,-399.5 468,-399.5 468,-369.5 358,-369.5"/>
<text text-anchor="start" x="366" y="-387.5" font-family="Helvetica,sans-Serif" font-size="10.00">spdlog/details/pattern</text>
<text text-anchor="middle" x="413" y="-376.5" font-family="Helvetica,sans-Serif" font-size="10.00">_formatter_impl.h</text>
</a>
</g>
</g>
<!-- Node1&#45;&gt;Node33 -->
<g id="edge45" class="edge"><title>Node1&#45;&gt;Node33</title>
<path fill="none" stroke="midnightblue" d="M406.596,-436.193C406.116,-427.692 406.135,-418.233 406.655,-409.81"/>
<polygon fill="midnightblue" stroke="midnightblue" points="410.141,-410.126 407.582,-399.845 403.171,-409.478 410.141,-410.126"/>
</g>
<!-- Node3 -->
<g id="node3" class="node"><title>Node3</title>
<g id="a_node3"><a xlink:href="common_8h.html" target="_top" xlink:title="spdlog/common.h">
<polygon fill="none" stroke="black" points="180,-190.5 180,-209.5 274,-209.5 274,-190.5 180,-190.5"/>
<text text-anchor="middle" x="227" y="-197.5" font-family="Helvetica,sans-Serif" font-size="10.00">spdlog/common.h</text>
</a>
</g>
</g>
<!-- Node2&#45;&gt;Node3 -->
<g id="edge2" class="edge"><title>Node2&#45;&gt;Node3</title>
<path fill="none" stroke="midnightblue" d="M237.529,-302.337C235.376,-281.622 231.365,-243.016 228.964,-219.899"/>
<polygon fill="midnightblue" stroke="midnightblue" points="232.415,-219.254 227.901,-209.669 225.453,-219.978 232.415,-219.254"/>
</g>
<!-- Node2&#45;&gt;Node4 -->
<g id="edge40" class="edge"><title>Node2&#45;&gt;Node4</title>
<path fill="none" stroke="midnightblue" d="M223.109,-302.221C195.072,-275.975 137.307,-216.959 111,-154 93.5621,-112.267 92.7868,-58.0369 93.8274,-29.8614"/>
<polygon fill="midnightblue" stroke="midnightblue" points="97.3267,-29.96 94.3221,-19.8002 90.3351,-29.6162 97.3267,-29.96"/>
</g>
<!-- Node22 -->
<g id="node22" class="node"><title>Node22</title>
<polygon fill="none" stroke="#bfbfbf" points="922,-0.5 922,-19.5 962,-19.5 962,-0.5 922,-0.5"/>
<text text-anchor="middle" x="942" y="-7.5" font-family="Helvetica,sans-Serif" font-size="10.00">utility</text>
</g>
<!-- Node2&#45;&gt;Node22 -->
<g id="edge41" class="edge"><title>Node2&#45;&gt;Node22</title>
<path fill="none" stroke="midnightblue" d="M285.323,-309.036C300.215,-306.701 316.794,-304.17 332,-302 468.024,-282.592 942,-338.401 942,-201 942,-201 942,-201 942,-137.5 942,-99.2024 942,-54.3829 942,-29.6971"/>
<polygon fill="midnightblue" stroke="midnightblue" points="945.5,-29.5894 942,-19.5894 938.5,-29.5895 945.5,-29.5894"/>
</g>
<!-- Node24 -->
<g id="node24" class="node"><title>Node24</title>
<g id="a_node24"><a xlink:href="os_8h.html" target="_top" xlink:title="spdlog/details/os.h">
<polygon fill="none" stroke="black" points="503,-246.5 503,-265.5 601,-265.5 601,-246.5 503,-246.5"/>
<text text-anchor="middle" x="552" y="-253.5" font-family="Helvetica,sans-Serif" font-size="10.00">spdlog/details/os.h</text>
</a>
</g>
</g>
<!-- Node2&#45;&gt;Node24 -->
<g id="edge26" class="edge"><title>Node2&#45;&gt;Node24</title>
<path fill="none" stroke="midnightblue" d="M285.184,-307.721C341.608,-296.995 436.957,-278.869 497.082,-267.44"/>
<polygon fill="midnightblue" stroke="midnightblue" points="497.979,-270.832 507.15,-265.526 496.672,-263.955 497.979,-270.832"/>
</g>
<!-- Node3&#45;&gt;Node4 -->
<g id="edge3" class="edge"><title>Node3&#45;&gt;Node4</title>
<path fill="none" stroke="midnightblue" d="M235.454,-190.322C248.385,-175.947 270.342,-146.456 258,-123 230.04,-69.8644 164.219,-37.0607 125.31,-21.6058"/>
<polygon fill="midnightblue" stroke="midnightblue" points="126.16,-18.1836 115.57,-17.8761 123.657,-24.7207 126.16,-18.1836"/>
</g>
<!-- Node5 -->
<g id="node5" class="node"><title>Node5</title>
<polygon fill="none" stroke="#bfbfbf" points="534.5,-129 534.5,-148 607.5,-148 607.5,-129 534.5,-129"/>
<text text-anchor="middle" x="571" y="-136" font-family="Helvetica,sans-Serif" font-size="10.00">initializer_list</text>
</g>
<!-- Node3&#45;&gt;Node5 -->
<g id="edge4" class="edge"><title>Node3&#45;&gt;Node5</title>
<path fill="none" stroke="midnightblue" d="M274.049,-191.408C277.078,-190.929 280.081,-190.456 283,-190 388.264,-173.547 415.886,-176.613 520,-154 524.42,-153.04 529.023,-151.914 533.575,-150.722"/>
<polygon fill="midnightblue" stroke="midnightblue" points="534.646,-154.057 543.368,-148.043 532.799,-147.305 534.646,-154.057"/>
</g>
<!-- Node6 -->
<g id="node6" class="node"><title>Node6</title>
<polygon fill="none" stroke="#bfbfbf" points="752,-129 752,-148 798,-148 798,-129 752,-129"/>
<text text-anchor="middle" x="775" y="-136" font-family="Helvetica,sans-Serif" font-size="10.00">chrono</text>
</g>
<!-- Node3&#45;&gt;Node6 -->
<g id="edge5" class="edge"><title>Node3&#45;&gt;Node6</title>
<path fill="none" stroke="midnightblue" d="M274.015,-191.163C277.052,-190.744 280.067,-190.351 283,-190 484.416,-165.886 540.315,-199.501 738,-154 740.836,-153.347 743.743,-152.516 746.619,-151.582"/>
<polygon fill="midnightblue" stroke="midnightblue" points="747.931,-154.829 756.137,-148.127 745.543,-148.25 747.931,-154.829"/>
</g>
<!-- Node3&#45;&gt;Node7 -->
<g id="edge6" class="edge"><title>Node3&#45;&gt;Node7</title>
<path fill="none" stroke="midnightblue" d="M274.028,-191.261C277.062,-190.818 280.072,-190.393 283,-190 430.537,-170.183 470.578,-185.821 616,-154 769.226,-120.471 944.551,-51.6635 1013.22,-23.4686"/>
<polygon fill="midnightblue" stroke="midnightblue" points="1014.66,-26.6631 1022.56,-19.6124 1011.98,-20.1926 1014.66,-26.6631"/>
</g>
<!-- Node8 -->
<g id="node8" class="node"><title>Node8</title>
<polygon fill="none" stroke="#bfbfbf" points="501,-62 501,-81 547,-81 547,-62 501,-62"/>
<text text-anchor="middle" x="524" y="-69" font-family="Helvetica,sans-Serif" font-size="10.00">atomic</text>
</g>
<!-- Node3&#45;&gt;Node8 -->
<g id="edge7" class="edge"><title>Node3&#45;&gt;Node8</title>
<path fill="none" stroke="midnightblue" d="M274.153,-191.373C347.696,-179.399 481.798,-157.216 486,-154 506.209,-138.533 516.089,-109.719 520.6,-90.8265"/>
<polygon fill="midnightblue" stroke="midnightblue" points="524.028,-91.5332 522.673,-81.0253 517.179,-90.0845 524.028,-91.5332"/>
</g>
<!-- Node9 -->
<g id="node9" class="node"><title>Node9</title>
<polygon fill="none" stroke="#bfbfbf" points="418.5,-129 418.5,-148 477.5,-148 477.5,-129 418.5,-129"/>
<text text-anchor="middle" x="448" y="-136" font-family="Helvetica,sans-Serif" font-size="10.00">exception</text>
</g>
<!-- Node3&#45;&gt;Node9 -->
<g id="edge8" class="edge"><title>Node3&#45;&gt;Node9</title>
<path fill="none" stroke="midnightblue" d="M267.122,-190.457C304.24,-182.23 360.79,-168.869 409,-154 411.565,-153.209 414.207,-152.342 416.849,-151.438"/>
<polygon fill="midnightblue" stroke="midnightblue" points="418.044,-154.728 426.286,-148.07 415.691,-148.135 418.044,-154.728"/>
</g>
<!-- Node10 -->
<g id="node10" class="node"><title>Node10</title>
<polygon fill="none" stroke="#bfbfbf" points="816.5,-129 816.5,-148 875.5,-148 875.5,-129 816.5,-129"/>
<text text-anchor="middle" x="846" y="-136" font-family="Helvetica,sans-Serif" font-size="10.00">functional</text>
</g>
<!-- Node3&#45;&gt;Node10 -->
<g id="edge9" class="edge"><title>Node3&#45;&gt;Node10</title>
<path fill="none" stroke="midnightblue" d="M274.011,-191.127C277.049,-190.717 280.065,-190.336 283,-190 514.923,-163.452 578.802,-203.182 807,-154 810.248,-153.3 813.588,-152.383 816.883,-151.35"/>
<polygon fill="midnightblue" stroke="midnightblue" points="818.197,-154.599 826.489,-148.004 815.894,-147.989 818.197,-154.599"/>
</g>
<!-- Node11 -->
<g id="node11" class="node"><title>Node11</title>
<g id="a_node11"><a xlink:href="null__mutex_8h.html" target="_top" xlink:title="spdlog/details/null\l_mutex.h">
<polygon fill="none" stroke="black" points="305.5,-123.5 305.5,-153.5 400.5,-153.5 400.5,-123.5 305.5,-123.5"/>
<text text-anchor="start" x="313.5" y="-141.5" font-family="Helvetica,sans-Serif" font-size="10.00">spdlog/details/null</text>
<text text-anchor="middle" x="353" y="-130.5" font-family="Helvetica,sans-Serif" font-size="10.00">_mutex.h</text>
</a>
</g>
</g>
<!-- Node3&#45;&gt;Node11 -->
<g id="edge10" class="edge"><title>Node3&#45;&gt;Node11</title>
<path fill="none" stroke="midnightblue" d="M245.053,-190.475C262.995,-182.002 291.086,-168.737 314.114,-157.863"/>
<polygon fill="midnightblue" stroke="midnightblue" points="315.756,-160.958 323.304,-153.523 312.767,-154.628 315.756,-160.958"/>
</g>
<!-- Node12 -->
<g id="node12" class="node"><title>Node12</title>
<g id="a_node12"><a xlink:href="fmt_8h.html" target="_top" xlink:title="spdlog/fmt/fmt.h">
<polygon fill="none" stroke="black" points="161,-129 161,-148 249,-148 249,-129 161,-129"/>
<text text-anchor="middle" x="205" y="-136" font-family="Helvetica,sans-Serif" font-size="10.00">spdlog/fmt/fmt.h</text>
</a>
</g>
</g>
<!-- Node3&#45;&gt;Node12 -->
<g id="edge12" class="edge"><title>Node3&#45;&gt;Node12</title>
<path fill="none" stroke="midnightblue" d="M223.848,-190.475C220.679,-181.904 215.696,-168.427 211.649,-157.483"/>
<polygon fill="midnightblue" stroke="midnightblue" points="214.897,-156.175 208.146,-148.009 208.332,-158.602 214.897,-156.175"/>
</g>
<!-- Node11&#45;&gt;Node8 -->
<g id="edge11" class="edge"><title>Node11&#45;&gt;Node8</title>
<path fill="none" stroke="midnightblue" d="M393.412,-123.47C421.059,-113.687 458.455,-100.09 491,-87 492.415,-86.4308 493.86,-85.8386 495.316,-85.2328"/>
<polygon fill="midnightblue" stroke="midnightblue" points="497.072,-88.2887 504.892,-81.1403 494.321,-81.8519 497.072,-88.2887"/>
</g>
<!-- Node13 -->
<g id="node13" class="node"><title>Node13</title>
<g id="a_node13"><a xlink:href="format_8h.html" target="_top" xlink:title="spdlog/fmt/bundled\l/format.h">
<polygon fill="none" stroke="black" points="383.5,-56.5 383.5,-86.5 482.5,-86.5 482.5,-56.5 383.5,-56.5"/>
<text text-anchor="start" x="391.5" y="-74.5" font-family="Helvetica,sans-Serif" font-size="10.00">spdlog/fmt/bundled</text>
<text text-anchor="middle" x="433" y="-63.5" font-family="Helvetica,sans-Serif" font-size="10.00">/format.h</text>
</a>
</g>
</g>
<!-- Node12&#45;&gt;Node13 -->
<g id="edge13" class="edge"><title>Node12&#45;&gt;Node13</title>
<path fill="none" stroke="midnightblue" d="M235.277,-128.869C270.526,-118.819 329.575,-101.985 373.985,-89.3243"/>
<polygon fill="midnightblue" stroke="midnightblue" points="375.137,-92.6357 383.794,-86.5281 373.217,-85.9039 375.137,-92.6357"/>
</g>
<!-- Node13&#45;&gt;Node4 -->
<g id="edge22" class="edge"><title>Node13&#45;&gt;Node4</title>
<path fill="none" stroke="midnightblue" d="M383.49,-61.7845C312.715,-49.3256 184.699,-26.7902 125.967,-16.4512"/>
<polygon fill="midnightblue" stroke="midnightblue" points="126.291,-12.9546 115.836,-14.6678 125.077,-19.8486 126.291,-12.9546"/>
</g>
<!-- Node13&#45;&gt;Node7 -->
<g id="edge20" class="edge"><title>Node13&#45;&gt;Node7</title>
<path fill="none" stroke="midnightblue" d="M482.775,-57.6514C485.886,-57.0396 488.979,-56.4813 492,-56 702.83,-22.4086 758.571,-41.2465 971,-20 982.612,-18.8386 995.249,-17.3391 1006.65,-15.8984"/>
<polygon fill="midnightblue" stroke="midnightblue" points="1007.23,-19.3521 1016.7,-14.6032 1006.34,-12.4095 1007.23,-19.3521"/>
</g>
<!-- Node14 -->
<g id="node14" class="node"><title>Node14</title>
<polygon fill="none" stroke="#bfbfbf" points="615.5,-0.5 615.5,-19.5 664.5,-19.5 664.5,-0.5 615.5,-0.5"/>
<text text-anchor="middle" x="640" y="-7.5" font-family="Helvetica,sans-Serif" font-size="10.00">cassert</text>
</g>
<!-- Node13&#45;&gt;Node14 -->
<g id="edge14" class="edge"><title>Node13&#45;&gt;Node14</title>
<path fill="none" stroke="midnightblue" d="M481.794,-56.4747C519.815,-45.5459 571.658,-30.6442 605.473,-20.9245"/>
<polygon fill="midnightblue" stroke="midnightblue" points="606.709,-24.2109 615.353,-18.0845 604.775,-17.4833 606.709,-24.2109"/>
</g>
<!-- Node15 -->
<g id="node15" class="node"><title>Node15</title>
<polygon fill="none" stroke="#bfbfbf" points="221.5,-0.5 221.5,-19.5 268.5,-19.5 268.5,-0.5 221.5,-0.5"/>
<text text-anchor="middle" x="245" y="-7.5" font-family="Helvetica,sans-Serif" font-size="10.00">clocale</text>
</g>
<!-- Node13&#45;&gt;Node15 -->
<g id="edge15" class="edge"><title>Node13&#45;&gt;Node15</title>
<path fill="none" stroke="midnightblue" d="M388.447,-56.3993C354.693,-45.7166 309.048,-31.2704 278.393,-21.5686"/>
<polygon fill="midnightblue" stroke="midnightblue" points="279.201,-18.1532 268.611,-18.4726 277.089,-24.827 279.201,-18.1532"/>
</g>
<!-- Node16 -->
<g id="node16" class="node"><title>Node16</title>
<polygon fill="none" stroke="#bfbfbf" points="287,-0.5 287,-19.5 331,-19.5 331,-0.5 287,-0.5"/>
<text text-anchor="middle" x="309" y="-7.5" font-family="Helvetica,sans-Serif" font-size="10.00">cmath</text>
</g>
<!-- Node13&#45;&gt;Node16 -->
<g id="edge16" class="edge"><title>Node13&#45;&gt;Node16</title>
<path fill="none" stroke="midnightblue" d="M403.614,-56.3993C383.18,-46.5945 356.14,-33.6194 336.201,-24.052"/>
<polygon fill="midnightblue" stroke="midnightblue" points="337.573,-20.8284 327.043,-19.6578 334.545,-27.1395 337.573,-20.8284"/>
</g>
<!-- Node17 -->
<g id="node17" class="node"><title>Node17</title>
<polygon fill="none" stroke="#bfbfbf" points="700.5,-0.5 700.5,-19.5 743.5,-19.5 743.5,-0.5 700.5,-0.5"/>
<text text-anchor="middle" x="722" y="-7.5" font-family="Helvetica,sans-Serif" font-size="10.00">cstdio</text>
</g>
<!-- Node13&#45;&gt;Node17 -->
<g id="edge17" class="edge"><title>Node13&#45;&gt;Node17</title>
<path fill="none" stroke="midnightblue" d="M482.534,-58.1443C485.734,-57.4026 488.91,-56.6816 492,-56 529.436,-47.7426 636.378,-27.2596 690.218,-17.0232"/>
<polygon fill="midnightblue" stroke="midnightblue" points="691.071,-20.4239 700.242,-15.1191 689.765,-13.5469 691.071,-20.4239"/>
</g>
<!-- Node18 -->
<g id="node18" class="node"><title>Node18</title>
<polygon fill="none" stroke="#bfbfbf" points="349,-0.5 349,-19.5 395,-19.5 395,-0.5 349,-0.5"/>
<text text-anchor="middle" x="372" y="-7.5" font-family="Helvetica,sans-Serif" font-size="10.00">cstring</text>
</g>
<!-- Node13&#45;&gt;Node18 -->
<g id="edge18" class="edge"><title>Node13&#45;&gt;Node18</title>
<path fill="none" stroke="midnightblue" d="M418.544,-56.3993C409.406,-47.4859 397.581,-35.9523 388.138,-26.7408"/>
<polygon fill="midnightblue" stroke="midnightblue" points="390.478,-24.1348 380.876,-19.6578 385.591,-29.1458 390.478,-24.1348"/>
</g>
<!-- Node19 -->
<g id="node19" class="node"><title>Node19</title>
<polygon fill="none" stroke="#bfbfbf" points="413,-0.5 413,-19.5 453,-19.5 453,-0.5 413,-0.5"/>
<text text-anchor="middle" x="433" y="-7.5" font-family="Helvetica,sans-Serif" font-size="10.00">limits</text>
</g>
<!-- Node13&#45;&gt;Node19 -->
<g id="edge19" class="edge"><title>Node13&#45;&gt;Node19</title>
<path fill="none" stroke="midnightblue" d="M433,-56.3993C433,-48.4664 433,-38.458 433,-29.8583"/>
<polygon fill="midnightblue" stroke="midnightblue" points="436.5,-29.6577 433,-19.6578 429.5,-29.6578 436.5,-29.6577"/>
</g>
<!-- Node20 -->
<g id="node20" class="node"><title>Node20</title>
<polygon fill="none" stroke="#bfbfbf" points="471.5,-0.5 471.5,-19.5 530.5,-19.5 530.5,-0.5 471.5,-0.5"/>
<text text-anchor="middle" x="501" y="-7.5" font-family="Helvetica,sans-Serif" font-size="10.00">stdexcept</text>
</g>
<!-- Node13&#45;&gt;Node20 -->
<g id="edge21" class="edge"><title>Node13&#45;&gt;Node20</title>
<path fill="none" stroke="midnightblue" d="M449.115,-56.3993C459.404,-47.3967 472.747,-35.7214 483.326,-26.4652"/>
<polygon fill="midnightblue" stroke="midnightblue" points="485.884,-28.8769 491.105,-19.6578 481.275,-23.6088 485.884,-28.8769"/>
</g>
<!-- Node13&#45;&gt;Node21 -->
<g id="edge23" class="edge"><title>Node13&#45;&gt;Node21</title>
<path fill="none" stroke="midnightblue" d="M482.767,-57.6027C485.88,-57.003 488.976,-56.4607 492,-56 749.96,-16.7041 818.077,-42.963 1078,-20 1093.04,-18.6712 1109.67,-16.8074 1123.69,-15.1204"/>
<polygon fill="midnightblue" stroke="midnightblue" points="1124.34,-18.5671 1133.84,-13.8765 1123.49,-11.6191 1124.34,-18.5671"/>
</g>
<!-- Node13&#45;&gt;Node22 -->
<g id="edge24" class="edge"><title>Node13&#45;&gt;Node22</title>
<path fill="none" stroke="midnightblue" d="M482.789,-57.7391C485.897,-57.1056 488.985,-56.5185 492,-56 648.401,-29.1 838.353,-16.6253 911.378,-12.5661"/>
<polygon fill="midnightblue" stroke="midnightblue" points="911.884,-16.0439 921.679,-12.0067 911.504,-9.05415 911.884,-16.0439"/>
</g>
<!-- Node23 -->
<g id="node23" class="node"><title>Node23</title>
<polygon fill="none" stroke="#bfbfbf" points="548.5,-0.5 548.5,-19.5 597.5,-19.5 597.5,-0.5 548.5,-0.5"/>
<text text-anchor="middle" x="573" y="-7.5" font-family="Helvetica,sans-Serif" font-size="10.00">stdint.h</text>
</g>
<!-- Node13&#45;&gt;Node23 -->
<g id="edge25" class="edge"><title>Node13&#45;&gt;Node23</title>
<path fill="none" stroke="midnightblue" d="M466.178,-56.3993C489.563,-46.4608 520.612,-33.2649 543.206,-23.6625"/>
<polygon fill="midnightblue" stroke="midnightblue" points="544.794,-26.7904 552.629,-19.6578 542.056,-20.3481 544.794,-26.7904"/>
</g>
<!-- Node24&#45;&gt;Node3 -->
<g id="edge27" class="edge"><title>Node24&#45;&gt;Node3</title>
<path fill="none" stroke="midnightblue" d="M502.992,-246.857C444.285,-237.103 346.103,-220.789 284.043,-210.478"/>
<polygon fill="midnightblue" stroke="midnightblue" points="284.466,-207 274.028,-208.814 283.319,-213.906 284.466,-207"/>
</g>
<!-- Node24&#45;&gt;Node4 -->
<g id="edge31" class="edge"><title>Node24&#45;&gt;Node4</title>
<path fill="none" stroke="midnightblue" d="M502.993,-255.34C412.014,-255.003 221.641,-249.447 171,-210 112.987,-164.811 99.2435,-69.7653 95.9983,-29.5742"/>
<polygon fill="midnightblue" stroke="midnightblue" points="99.4891,-29.3186 95.3223,-19.5775 92.505,-29.7909 99.4891,-29.3186"/>
</g>
<!-- Node24&#45;&gt;Node6 -->
<g id="edge32" class="edge"><title>Node24&#45;&gt;Node6</title>
<path fill="none" stroke="midnightblue" d="M601.25,-253.635C668.307,-250.62 782.995,-240.954 809,-210 822.845,-193.521 806.542,-170.445 792.098,-155.245"/>
<polygon fill="midnightblue" stroke="midnightblue" points="794.448,-152.646 784.883,-148.09 789.519,-157.617 794.448,-152.646"/>
</g>
<!-- Node24&#45;&gt;Node10 -->
<g id="edge30" class="edge"><title>Node24&#45;&gt;Node10</title>
<path fill="none" stroke="midnightblue" d="M601.259,-253.11C670.978,-249.428 793.584,-238.927 826,-210 840.361,-197.185 844.733,-174.897 845.907,-158.806"/>
<polygon fill="midnightblue" stroke="midnightblue" points="849.419,-158.533 846.294,-148.409 842.424,-158.272 849.419,-158.533"/>
</g>
<!-- Node24&#45;&gt;Node17 -->
<g id="edge28" class="edge"><title>Node24&#45;&gt;Node17</title>
<path fill="none" stroke="midnightblue" d="M601.141,-252.302C674.211,-247.499 807.178,-235.477 847,-210 872.128,-193.924 875.415,-182.569 884,-154 904.439,-85.9892 806.071,-40.3689 753.424,-21.2134"/>
<polygon fill="midnightblue" stroke="midnightblue" points="754.453,-17.8652 743.859,-17.8406 752.126,-24.4669 754.453,-17.8652"/>
</g>
<!-- Node25 -->
<g id="node25" class="node"><title>Node25</title>
<polygon fill="none" stroke="#bfbfbf" points="292.5,-190.5 292.5,-209.5 333.5,-209.5 333.5,-190.5 292.5,-190.5"/>
<text text-anchor="middle" x="313" y="-197.5" font-family="Helvetica,sans-Serif" font-size="10.00">ctime</text>
</g>
<!-- Node24&#45;&gt;Node25 -->
<g id="edge29" class="edge"><title>Node24&#45;&gt;Node25</title>
<path fill="none" stroke="midnightblue" d="M514.13,-246.444C466.95,-235.784 387.252,-217.777 343.691,-207.934"/>
<polygon fill="midnightblue" stroke="midnightblue" points="344.216,-204.465 333.691,-205.675 342.674,-211.293 344.216,-204.465"/>
</g>
<!-- Node26 -->
<g id="node26" class="node"><title>Node26</title>
<polygon fill="none" stroke="#bfbfbf" points="970,-190.5 970,-209.5 1014,-209.5 1014,-190.5 970,-190.5"/>
<text text-anchor="middle" x="992" y="-197.5" font-family="Helvetica,sans-Serif" font-size="10.00">thread</text>
</g>
<!-- Node24&#45;&gt;Node26 -->
<g id="edge33" class="edge"><title>Node24&#45;&gt;Node26</title>
<path fill="none" stroke="midnightblue" d="M601.193,-248.963C692.004,-237.818 883.639,-214.299 959.802,-204.952"/>
<polygon fill="midnightblue" stroke="midnightblue" points="960.261,-208.422 969.761,-203.729 959.409,-201.474 960.261,-208.422"/>
</g>
<!-- Node27 -->
<g id="node27" class="node"><title>Node27</title>
<polygon fill="none" stroke="#bfbfbf" points="390,-190.5 390,-209.5 436,-209.5 436,-190.5 390,-190.5"/>
<text text-anchor="middle" x="413" y="-197.5" font-family="Helvetica,sans-Serif" font-size="10.00">stdio.h</text>
</g>
<!-- Node24&#45;&gt;Node27 -->
<g id="edge34" class="edge"><title>Node24&#45;&gt;Node27</title>
<path fill="none" stroke="midnightblue" d="M529.975,-246.444C506.896,-237.478 470.438,-223.314 444.359,-213.183"/>
<polygon fill="midnightblue" stroke="midnightblue" points="445.511,-209.875 434.922,-209.516 442.976,-216.4 445.511,-209.875"/>
</g>
<!-- Node28 -->
<g id="node28" class="node"><title>Node28</title>
<polygon fill="none" stroke="#bfbfbf" points="454.5,-190.5 454.5,-209.5 503.5,-209.5 503.5,-190.5 454.5,-190.5"/>
<text text-anchor="middle" x="479" y="-197.5" font-family="Helvetica,sans-Serif" font-size="10.00">string.h</text>
</g>
<!-- Node24&#45;&gt;Node28 -->
<g id="edge35" class="edge"><title>Node24&#45;&gt;Node28</title>
<path fill="none" stroke="midnightblue" d="M540.271,-246.324C529.163,-238.107 512.258,-225.602 499.017,-215.807"/>
<polygon fill="midnightblue" stroke="midnightblue" points="501.063,-212.967 490.942,-209.834 496.9,-218.595 501.063,-212.967"/>
</g>
<!-- Node29 -->
<g id="node29" class="node"><title>Node29</title>
<polygon fill="none" stroke="#bfbfbf" points="522,-190.5 522,-209.5 582,-209.5 582,-190.5 522,-190.5"/>
<text text-anchor="middle" x="552" y="-197.5" font-family="Helvetica,sans-Serif" font-size="10.00">sys/stat.h</text>
</g>
<!-- Node24&#45;&gt;Node29 -->
<g id="edge36" class="edge"><title>Node24&#45;&gt;Node29</title>
<path fill="none" stroke="midnightblue" d="M552,-246.083C552,-239.006 552,-228.861 552,-219.986"/>
<polygon fill="midnightblue" stroke="midnightblue" points="555.5,-219.751 552,-209.751 548.5,-219.751 555.5,-219.751"/>
</g>
<!-- Node30 -->
<g id="node30" class="node"><title>Node30</title>
<polygon fill="none" stroke="#bfbfbf" points="600,-190.5 600,-209.5 668,-209.5 668,-190.5 600,-190.5"/>
<text text-anchor="middle" x="634" y="-197.5" font-family="Helvetica,sans-Serif" font-size="10.00">sys/types.h</text>
</g>
<!-- Node24&#45;&gt;Node30 -->
<g id="edge37" class="edge"><title>Node24&#45;&gt;Node30</title>
<path fill="none" stroke="midnightblue" d="M565.175,-246.324C577.847,-237.979 597.233,-225.212 612.206,-215.352"/>
<polygon fill="midnightblue" stroke="midnightblue" points="614.431,-218.078 620.858,-209.655 610.581,-212.231 614.431,-218.078"/>
</g>
<!-- Node31 -->
<g id="node31" class="node"><title>Node31</title>
<polygon fill="none" stroke="#bfbfbf" points="686.5,-190.5 686.5,-209.5 737.5,-209.5 737.5,-190.5 686.5,-190.5"/>
<text text-anchor="middle" x="712" y="-197.5" font-family="Helvetica,sans-Serif" font-size="10.00">unistd.h</text>
</g>
<!-- Node24&#45;&gt;Node31 -->
<g id="edge38" class="edge"><title>Node24&#45;&gt;Node31</title>
<path fill="none" stroke="midnightblue" d="M577.352,-246.444C604.269,-237.359 646.996,-222.939 677.087,-212.783"/>
<polygon fill="midnightblue" stroke="midnightblue" points="678.41,-216.031 686.766,-209.516 676.172,-209.398 678.41,-216.031"/>
</g>
<!-- Node32 -->
<g id="node32" class="node"><title>Node32</title>
<polygon fill="none" stroke="#bfbfbf" points="756,-190.5 756,-209.5 800,-209.5 800,-190.5 756,-190.5"/>
<text text-anchor="middle" x="778" y="-197.5" font-family="Helvetica,sans-Serif" font-size="10.00">fcntl.h</text>
</g>
<!-- Node24&#45;&gt;Node32 -->
<g id="edge39" class="edge"><title>Node24&#45;&gt;Node32</title>
<path fill="none" stroke="midnightblue" d="M591.145,-246.478C628.348,-238.254 686.089,-225.171 745.688,-209.982"/>
<polygon fill="midnightblue" stroke="midnightblue" points="746.839,-213.301 755.656,-207.426 745.1,-206.52 746.839,-213.301"/>
</g>
<!-- Node33&#45;&gt;Node1 -->
<g id="edge46" class="edge"><title>Node33&#45;&gt;Node1</title>
<path fill="none" stroke="midnightblue" d="M418.418,-399.845C419.392,-407.278 419.832,-416.715 419.737,-425.958"/>
<polygon fill="midnightblue" stroke="midnightblue" points="416.232,-426.084 419.404,-436.193 423.228,-426.313 416.232,-426.084"/>
</g>
<!-- Node33&#45;&gt;Node2 -->
<g id="edge47" class="edge"><title>Node33&#45;&gt;Node2</title>
<path fill="none" stroke="midnightblue" d="M375.245,-369.396C349.137,-359.643 314.208,-346.595 286.253,-336.152"/>
<polygon fill="midnightblue" stroke="midnightblue" points="287.274,-332.797 276.682,-332.577 284.825,-339.355 287.274,-332.797"/>
</g>
<!-- Node33&#45;&gt;Node4 -->
<g id="edge54" class="edge"><title>Node33&#45;&gt;Node4</title>
<path fill="none" stroke="midnightblue" d="M357.667,-376.562C253.355,-361.929 38,-323.647 38,-257 38,-257 38,-257 38,-137.5 38,-94.969 65.1139,-50.9312 81.9409,-27.6963"/>
<polygon fill="midnightblue" stroke="midnightblue" points="84.8154,-29.6969 88.0107,-19.5954 79.2134,-25.4995 84.8154,-29.6969"/>
</g>
<!-- Node33&#45;&gt;Node6 -->
<g id="edge50" class="edge"><title>Node33&#45;&gt;Node6</title>
<path fill="none" stroke="midnightblue" d="M409.451,-369.228C402.321,-339.726 386.467,-269.785 381,-210 380.191,-201.148 375.094,-196.644 381,-190 426.342,-138.991 618.415,-163.49 686,-154 704.616,-151.386 725.349,-148.034 742.118,-145.212"/>
<polygon fill="midnightblue" stroke="midnightblue" points="742.719,-148.66 751.992,-143.534 741.547,-141.759 742.719,-148.66"/>
</g>
<!-- Node33&#45;&gt;Node7 -->
<g id="edge52" class="edge"><title>Node33&#45;&gt;Node7</title>
<path fill="none" stroke="midnightblue" d="M468.345,-383.41C595.913,-382.461 906.876,-375.697 1001,-333 1045.37,-312.873 1080,-305.721 1080,-257 1080,-257 1080,-257 1080,-137.5 1080,-97.436 1062.69,-53.0009 1051.75,-28.9151"/>
<polygon fill="midnightblue" stroke="midnightblue" points="1054.81,-27.1991 1047.39,-19.6392 1048.48,-30.178 1054.81,-27.1991"/>
</g>
<!-- Node33&#45;&gt;Node12 -->
<g id="edge49" class="edge"><title>Node33&#45;&gt;Node12</title>
<path fill="none" stroke="midnightblue" d="M357.966,-378.68C297.749,-372.194 206.726,-358.419 184,-333 141.465,-285.424 152.368,-251.037 171,-190 174.788,-177.59 182.762,-165.469 190.036,-156.214"/>
<polygon fill="midnightblue" stroke="midnightblue" points="192.918,-158.223 196.636,-148.302 187.543,-153.739 192.918,-158.223"/>
</g>
<!-- Node33&#45;&gt;Node21 -->
<g id="edge57" class="edge"><title>Node33&#45;&gt;Node21</title>
<path fill="none" stroke="midnightblue" d="M468.024,-382.722C601.504,-380.257 939.285,-370.402 1045,-333 1101.37,-313.058 1156,-316.789 1156,-257 1156,-257 1156,-257 1156,-137.5 1156,-99.2024 1156,-54.3829 1156,-29.6971"/>
<polygon fill="midnightblue" stroke="midnightblue" points="1159.5,-29.5894 1156,-19.5894 1152.5,-29.5895 1159.5,-29.5894"/>
</g>
<!-- Node33&#45;&gt;Node22 -->
<g id="edge56" class="edge"><title>Node33&#45;&gt;Node22</title>
<path fill="none" stroke="midnightblue" d="M468.268,-384.044C621.756,-384.081 1042,-373.54 1042,-257 1042,-257 1042,-257 1042,-137.5 1042,-87.7736 993.858,-46.1521 964.38,-25.3279"/>
<polygon fill="midnightblue" stroke="midnightblue" points="966.138,-22.2905 955.905,-19.5469 962.193,-28.0734 966.138,-22.2905"/>
</g>
<!-- Node33&#45;&gt;Node24 -->
<g id="edge48" class="edge"><title>Node33&#45;&gt;Node24</title>
<path fill="none" stroke="midnightblue" d="M428.407,-369.479C454.542,-345.694 507.386,-297.602 534.733,-272.715"/>
<polygon fill="midnightblue" stroke="midnightblue" points="537.303,-275.108 542.343,-265.789 532.591,-269.931 537.303,-275.108"/>
</g>
<!-- Node33&#45;&gt;Node25 -->
<g id="edge51" class="edge"><title>Node33&#45;&gt;Node25</title>
<path fill="none" stroke="midnightblue" d="M376.663,-369.365C360.425,-361.182 342.595,-349.238 332,-333 309.195,-298.049 309.084,-246.876 311.016,-219.652"/>
<polygon fill="midnightblue" stroke="midnightblue" points="314.513,-219.838 311.909,-209.568 307.54,-219.22 314.513,-219.838"/>
</g>
<!-- Node33&#45;&gt;Node26 -->
<g id="edge55" class="edge"><title>Node33&#45;&gt;Node26</title>
<path fill="none" stroke="midnightblue" d="M468.011,-377.405C589.988,-362.983 878.485,-323.6 956,-266 971.497,-254.484 981.179,-234.216 986.548,-219.365"/>
<polygon fill="midnightblue" stroke="midnightblue" points="989.923,-220.305 989.717,-209.712 983.273,-218.122 989.923,-220.305"/>
</g>
<!-- Node34 -->
<g id="node34" class="node"><title>Node34</title>
<polygon fill="none" stroke="#bfbfbf" points="341,-308 341,-327 385,-327 385,-308 341,-308"/>
<text text-anchor="middle" x="363" y="-315" font-family="Helvetica,sans-Serif" font-size="10.00">mutex</text>
</g>
<!-- Node33&#45;&gt;Node34 -->
<g id="edge53" class="edge"><title>Node33&#45;&gt;Node34</title>
<path fill="none" stroke="midnightblue" d="M402.151,-369.396C394.432,-359.361 384.029,-345.838 375.887,-335.253"/>
<polygon fill="midnightblue" stroke="midnightblue" points="378.559,-332.987 369.688,-327.195 373.011,-337.255 378.559,-332.987"/>
</g>
</g>
</svg>
