<?xml version="1.0" encoding="UTF-8" standalone="no"?>
<!DOCTYPE svg PUBLIC "-//W3C//DTD SVG 1.1//EN"
 "http://www.w3.org/Graphics/SVG/1.1/DTD/svg11.dtd">
<!-- Generated by graphviz version 2.38.0 (20140413.2041)
 -->
<!-- Title: /home/lucamuratore/advr&#45;superbuild/external/XBotInterface/include/XBotInterface/GenericSensor.h Pages: 1 -->
<svg width="804pt" height="595pt"
 viewBox="0.00 0.00 804.00 595.00" xmlns="http://www.w3.org/2000/svg" xmlns:xlink="http://www.w3.org/1999/xlink">
<g id="graph0" class="graph" transform="scale(1 1) rotate(0) translate(4 591)">
<title>/home/lucamuratore/advr&#45;superbuild/external/XBotInterface/include/XBotInterface/GenericSensor.h</title>
<!-- Node1 -->
<g id="node1" class="node"><title>Node1</title>
<polygon fill="#bfbfbf" stroke="black" points="387,-534.5 387,-586.5 563,-586.5 563,-534.5 387,-534.5"/>
<text text-anchor="start" x="395" y="-574.5" font-family="Helvetica,sans-Serif" font-size="10.00">/home/lucamuratore</text>
<text text-anchor="start" x="395" y="-563.5" font-family="Helvetica,sans-Serif" font-size="10.00">/advr&#45;superbuild/external</text>
<text text-anchor="start" x="395" y="-552.5" font-family="Helvetica,sans-Serif" font-size="10.00">/XBotInterface/include/XBotInterface</text>
<text text-anchor="middle" x="475" y="-541.5" font-family="Helvetica,sans-Serif" font-size="10.00">/GenericSensor.h</text>
</g>
<!-- Node2 -->
<g id="node2" class="node"><title>Node2</title>
<g id="a_node2"><a xlink:href="ForceTorqueSensor_8h.html" target="_top" xlink:title="/home/lucamuratore\l/advr&#45;superbuild/external\l/XBotInterface/include/XBotInterface\l/ForceTorqueSensor.h">
<polygon fill="none" stroke="black" points="387,-445.5 387,-497.5 563,-497.5 563,-445.5 387,-445.5"/>
<text text-anchor="start" x="395" y="-485.5" font-family="Helvetica,sans-Serif" font-size="10.00">/home/lucamuratore</text>
<text text-anchor="start" x="395" y="-474.5" font-family="Helvetica,sans-Serif" font-size="10.00">/advr&#45;superbuild/external</text>
<text text-anchor="start" x="395" y="-463.5" font-family="Helvetica,sans-Serif" font-size="10.00">/XBotInterface/include/XBotInterface</text>
<text text-anchor="middle" x="475" y="-452.5" font-family="Helvetica,sans-Serif" font-size="10.00">/ForceTorqueSensor.h</text>
</a>
</g>
</g>
<!-- Node1&#45;&gt;Node2 -->
<g id="edge1" class="edge"><title>Node1&#45;&gt;Node2</title>
<path fill="none" stroke="midnightblue" d="M475,-524.191C475,-515.282 475,-505.899 475,-497.607"/>
<polygon fill="midnightblue" stroke="midnightblue" points="471.5,-524.336 475,-534.336 478.5,-524.336 471.5,-524.336"/>
</g>
<!-- Node19 -->
<g id="node19" class="node"><title>Node19</title>
<g id="a_node19"><a xlink:href="ImuSensor_8h.html" target="_top" xlink:title="/home/lucamuratore\l/advr&#45;superbuild/external\l/XBotInterface/include/XBotInterface\l/ImuSensor.h">
<polygon fill="none" stroke="black" points="193,-445.5 193,-497.5 369,-497.5 369,-445.5 193,-445.5"/>
<text text-anchor="start" x="201" y="-485.5" font-family="Helvetica,sans-Serif" font-size="10.00">/home/lucamuratore</text>
<text text-anchor="start" x="201" y="-474.5" font-family="Helvetica,sans-Serif" font-size="10.00">/advr&#45;superbuild/external</text>
<text text-anchor="start" x="201" y="-463.5" font-family="Helvetica,sans-Serif" font-size="10.00">/XBotInterface/include/XBotInterface</text>
<text text-anchor="middle" x="281" y="-452.5" font-family="Helvetica,sans-Serif" font-size="10.00">/ImuSensor.h</text>
</a>
</g>
</g>
<!-- Node1&#45;&gt;Node19 -->
<g id="edge22" class="edge"><title>Node1&#45;&gt;Node19</title>
<path fill="none" stroke="midnightblue" d="M409.875,-530.295C386.173,-519.665 359.615,-507.755 336.794,-497.521"/>
<polygon fill="midnightblue" stroke="midnightblue" points="408.591,-533.554 419.147,-534.453 411.455,-527.167 408.591,-533.554"/>
</g>
<!-- Node21 -->
<g id="node21" class="node"><title>Node21</title>
<g id="a_node21"><a xlink:href="GenericSensor_8cpp.html" target="_top" xlink:title="/home/lucamuratore\l/advr&#45;superbuild/external\l/XBotInterface/src/GenericSensor.cpp">
<polygon fill="none" stroke="black" points="581,-451 581,-492 763,-492 763,-451 581,-451"/>
<text text-anchor="start" x="589" y="-480" font-family="Helvetica,sans-Serif" font-size="10.00">/home/lucamuratore</text>
<text text-anchor="start" x="589" y="-469" font-family="Helvetica,sans-Serif" font-size="10.00">/advr&#45;superbuild/external</text>
<text text-anchor="middle" x="672" y="-458" font-family="Helvetica,sans-Serif" font-size="10.00">/XBotInterface/src/GenericSensor.cpp</text>
</a>
</g>
</g>
<!-- Node1&#45;&gt;Node21 -->
<g id="edge25" class="edge"><title>Node1&#45;&gt;Node21</title>
<path fill="none" stroke="midnightblue" d="M541.185,-530.271C569.607,-517.719 602.067,-503.384 627.542,-492.134"/>
<polygon fill="midnightblue" stroke="midnightblue" points="539.45,-527.211 531.716,-534.453 542.278,-533.615 539.45,-527.211"/>
</g>
<!-- Node3 -->
<g id="node3" class="node"><title>Node3</title>
<g id="a_node3"><a xlink:href="KinematicChain_8h.html" target="_top" xlink:title="/home/lucamuratore\l/advr&#45;superbuild/external\l/XBotInterface/include/XBotInterface\l/KinematicChain.h">
<polygon fill="none" stroke="black" points="288,-356.5 288,-408.5 464,-408.5 464,-356.5 288,-356.5"/>
<text text-anchor="start" x="296" y="-396.5" font-family="Helvetica,sans-Serif" font-size="10.00">/home/lucamuratore</text>
<text text-anchor="start" x="296" y="-385.5" font-family="Helvetica,sans-Serif" font-size="10.00">/advr&#45;superbuild/external</text>
<text text-anchor="start" x="296" y="-374.5" font-family="Helvetica,sans-Serif" font-size="10.00">/XBotInterface/include/XBotInterface</text>
<text text-anchor="middle" x="376" y="-363.5" font-family="Helvetica,sans-Serif" font-size="10.00">/KinematicChain.h</text>
</a>
</g>
</g>
<!-- Node2&#45;&gt;Node3 -->
<g id="edge2" class="edge"><title>Node2&#45;&gt;Node3</title>
<path fill="none" stroke="midnightblue" d="M438.756,-438.649C427.49,-428.749 415.236,-417.98 404.571,-408.607"/>
<polygon fill="midnightblue" stroke="midnightblue" points="436.543,-441.364 446.365,-445.336 441.164,-436.106 436.543,-441.364"/>
</g>
<!-- Node18 -->
<g id="node18" class="node"><title>Node18</title>
<g id="a_node18"><a xlink:href="ForceTorqueSensor_8cpp.html" target="_top" xlink:title="/home/lucamuratore\l/advr&#45;superbuild/external\l/XBotInterface/src/ForceTorqueSensor.cpp">
<polygon fill="none" stroke="black" points="481.5,-362 481.5,-403 684.5,-403 684.5,-362 481.5,-362"/>
<text text-anchor="start" x="489.5" y="-391" font-family="Helvetica,sans-Serif" font-size="10.00">/home/lucamuratore</text>
<text text-anchor="start" x="489.5" y="-380" font-family="Helvetica,sans-Serif" font-size="10.00">/advr&#45;superbuild/external</text>
<text text-anchor="middle" x="583" y="-369" font-family="Helvetica,sans-Serif" font-size="10.00">/XBotInterface/src/ForceTorqueSensor.cpp</text>
</a>
</g>
</g>
<!-- Node2&#45;&gt;Node18 -->
<g id="edge21" class="edge"><title>Node2&#45;&gt;Node18</title>
<path fill="none" stroke="midnightblue" d="M514.293,-438.847C529.146,-426.882 545.606,-413.623 558.691,-403.082"/>
<polygon fill="midnightblue" stroke="midnightblue" points="511.83,-436.337 506.238,-445.336 516.221,-441.788 511.83,-436.337"/>
</g>
<!-- Node4 -->
<g id="node4" class="node"><title>Node4</title>
<g id="a_node4"><a xlink:href="ModelChain_8h.html" target="_top" xlink:title="/home/lucamuratore\l/advr&#45;superbuild/external\l/XBotInterface/include/XBotInterface\l/ModelChain.h">
<polygon fill="none" stroke="black" points="191,-267.5 191,-319.5 367,-319.5 367,-267.5 191,-267.5"/>
<text text-anchor="start" x="199" y="-307.5" font-family="Helvetica,sans-Serif" font-size="10.00">/home/lucamuratore</text>
<text text-anchor="start" x="199" y="-296.5" font-family="Helvetica,sans-Serif" font-size="10.00">/advr&#45;superbuild/external</text>
<text text-anchor="start" x="199" y="-285.5" font-family="Helvetica,sans-Serif" font-size="10.00">/XBotInterface/include/XBotInterface</text>
<text text-anchor="middle" x="279" y="-274.5" font-family="Helvetica,sans-Serif" font-size="10.00">/ModelChain.h</text>
</a>
</g>
</g>
<!-- Node3&#45;&gt;Node4 -->
<g id="edge3" class="edge"><title>Node3&#45;&gt;Node4</title>
<path fill="none" stroke="midnightblue" d="M340.488,-349.649C329.45,-339.749 317.443,-328.98 306.993,-319.607"/>
<polygon fill="midnightblue" stroke="midnightblue" points="338.162,-352.265 347.944,-356.336 342.836,-347.054 338.162,-352.265"/>
</g>
<!-- Node12 -->
<g id="node12" class="node"><title>Node12</title>
<g id="a_node12"><a xlink:href="RobotChain_8h.html" target="_top" xlink:title="/home/lucamuratore\l/advr&#45;superbuild/external\l/XBotInterface/include/XBotInterface\l/RobotChain.h">
<polygon fill="none" stroke="black" points="0,-178.5 0,-230.5 176,-230.5 176,-178.5 0,-178.5"/>
<text text-anchor="start" x="8" y="-218.5" font-family="Helvetica,sans-Serif" font-size="10.00">/home/lucamuratore</text>
<text text-anchor="start" x="8" y="-207.5" font-family="Helvetica,sans-Serif" font-size="10.00">/advr&#45;superbuild/external</text>
<text text-anchor="start" x="8" y="-196.5" font-family="Helvetica,sans-Serif" font-size="10.00">/XBotInterface/include/XBotInterface</text>
<text text-anchor="middle" x="88" y="-185.5" font-family="Helvetica,sans-Serif" font-size="10.00">/RobotChain.h</text>
</a>
</g>
</g>
<!-- Node3&#45;&gt;Node12 -->
<g id="edge15" class="edge"><title>Node3&#45;&gt;Node12</title>
<path fill="none" stroke="midnightblue" d="M278.158,-356.037C238.71,-344.635 198.622,-331.255 182,-320 147.287,-296.495 118.67,-256.503 102.459,-230.548"/>
<polygon fill="midnightblue" stroke="midnightblue" points="277.312,-359.435 287.889,-358.814 279.233,-352.704 277.312,-359.435"/>
</g>
<!-- Node15 -->
<g id="node15" class="node"><title>Node15</title>
<g id="a_node15"><a xlink:href="XBotInterface_8h.html" target="_top" xlink:title="/home/lucamuratore\l/advr&#45;superbuild/external\l/XBotInterface/include/XBotInterface\l/XBotInterface.h">
<polygon fill="none" stroke="black" points="385,-267.5 385,-319.5 561,-319.5 561,-267.5 385,-267.5"/>
<text text-anchor="start" x="393" y="-307.5" font-family="Helvetica,sans-Serif" font-size="10.00">/home/lucamuratore</text>
<text text-anchor="start" x="393" y="-296.5" font-family="Helvetica,sans-Serif" font-size="10.00">/advr&#45;superbuild/external</text>
<text text-anchor="start" x="393" y="-285.5" font-family="Helvetica,sans-Serif" font-size="10.00">/XBotInterface/include/XBotInterface</text>
<text text-anchor="middle" x="473" y="-274.5" font-family="Helvetica,sans-Serif" font-size="10.00">/XBotInterface.h</text>
</a>
</g>
</g>
<!-- Node3&#45;&gt;Node15 -->
<g id="edge16" class="edge"><title>Node3&#45;&gt;Node15</title>
<path fill="none" stroke="midnightblue" d="M411.512,-349.649C422.55,-339.749 434.557,-328.98 445.007,-319.607"/>
<polygon fill="midnightblue" stroke="midnightblue" points="409.164,-347.054 404.056,-356.336 413.838,-352.265 409.164,-347.054"/>
</g>
<!-- Node17 -->
<g id="node17" class="node"><title>Node17</title>
<g id="a_node17"><a xlink:href="KinematicChain_8cpp.html" target="_top" xlink:title="/home/lucamuratore\l/advr&#45;superbuild/external\l/XBotInterface/src/KinematicChain.cpp">
<polygon fill="none" stroke="black" points="578.5,-273 578.5,-314 765.5,-314 765.5,-273 578.5,-273"/>
<text text-anchor="start" x="586.5" y="-302" font-family="Helvetica,sans-Serif" font-size="10.00">/home/lucamuratore</text>
<text text-anchor="start" x="586.5" y="-291" font-family="Helvetica,sans-Serif" font-size="10.00">/advr&#45;superbuild/external</text>
<text text-anchor="middle" x="672" y="-280" font-family="Helvetica,sans-Serif" font-size="10.00">/XBotInterface/src/KinematicChain.cpp</text>
</a>
</g>
</g>
<!-- Node3&#45;&gt;Node17 -->
<g id="edge20" class="edge"><title>Node3&#45;&gt;Node17</title>
<path fill="none" stroke="midnightblue" d="M471.011,-353.574C514.745,-340.72 565.591,-325.775 605.2,-314.134"/>
<polygon fill="midnightblue" stroke="midnightblue" points="469.826,-350.275 461.218,-356.453 471.8,-356.991 469.826,-350.275"/>
</g>
<!-- Node5 -->
<g id="node5" class="node"><title>Node5</title>
<g id="a_node5"><a xlink:href="ModelInterface_8h.html" target="_top" xlink:title="/home/lucamuratore\l/advr&#45;superbuild/external\l/XBotInterface/include/XBotInterface\l/ModelInterface.h">
<polygon fill="none" stroke="black" points="420,-178.5 420,-230.5 596,-230.5 596,-178.5 420,-178.5"/>
<text text-anchor="start" x="428" y="-218.5" font-family="Helvetica,sans-Serif" font-size="10.00">/home/lucamuratore</text>
<text text-anchor="start" x="428" y="-207.5" font-family="Helvetica,sans-Serif" font-size="10.00">/advr&#45;superbuild/external</text>
<text text-anchor="start" x="428" y="-196.5" font-family="Helvetica,sans-Serif" font-size="10.00">/XBotInterface/include/XBotInterface</text>
<text text-anchor="middle" x="508" y="-185.5" font-family="Helvetica,sans-Serif" font-size="10.00">/ModelInterface.h</text>
</a>
</g>
</g>
<!-- Node4&#45;&gt;Node5 -->
<g id="edge4" class="edge"><title>Node4&#45;&gt;Node5</title>
<path fill="none" stroke="midnightblue" d="M354.392,-263.858C382.741,-253.087 414.725,-240.936 442.14,-230.521"/>
<polygon fill="midnightblue" stroke="midnightblue" points="353.034,-260.629 344.929,-267.453 355.52,-267.173 353.034,-260.629"/>
</g>
<!-- Node4&#45;&gt;Node12 -->
<g id="edge11" class="edge"><title>Node4&#45;&gt;Node12</title>
<path fill="none" stroke="midnightblue" d="M214.882,-263.295C191.547,-252.665 165.399,-240.755 142.931,-230.521"/>
<polygon fill="midnightblue" stroke="midnightblue" points="213.46,-266.493 224.011,-267.453 216.362,-260.122 213.46,-266.493"/>
</g>
<!-- Node14 -->
<g id="node14" class="node"><title>Node14</title>
<g id="a_node14"><a xlink:href="ModelChain_8cpp.html" target="_top" xlink:title="/home/lucamuratore\l/advr&#45;superbuild/external\l/XBotInterface/src/ModelChain.cpp">
<polygon fill="none" stroke="black" points="194,-184 194,-225 364,-225 364,-184 194,-184"/>
<text text-anchor="start" x="202" y="-213" font-family="Helvetica,sans-Serif" font-size="10.00">/home/lucamuratore</text>
<text text-anchor="start" x="202" y="-202" font-family="Helvetica,sans-Serif" font-size="10.00">/advr&#45;superbuild/external</text>
<text text-anchor="middle" x="279" y="-191" font-family="Helvetica,sans-Serif" font-size="10.00">/XBotInterface/src/ModelChain.cpp</text>
</a>
</g>
</g>
<!-- Node4&#45;&gt;Node14 -->
<g id="edge14" class="edge"><title>Node4&#45;&gt;Node14</title>
<path fill="none" stroke="midnightblue" d="M279,-257.155C279,-246.21 279,-234.549 279,-225.082"/>
<polygon fill="midnightblue" stroke="midnightblue" points="275.5,-257.336 279,-267.336 282.5,-257.336 275.5,-257.336"/>
</g>
<!-- Node6 -->
<g id="node6" class="node"><title>Node6</title>
<g id="a_node6"><a xlink:href="RobotInterface_8h.html" target="_top" xlink:title="/home/lucamuratore\l/advr&#45;superbuild/external\l/XBotInterface/include/XBotInterface\l/RobotInterface.h">
<polygon fill="none" stroke="black" points="226,-89.5 226,-141.5 402,-141.5 402,-89.5 226,-89.5"/>
<text text-anchor="start" x="234" y="-129.5" font-family="Helvetica,sans-Serif" font-size="10.00">/home/lucamuratore</text>
<text text-anchor="start" x="234" y="-118.5" font-family="Helvetica,sans-Serif" font-size="10.00">/advr&#45;superbuild/external</text>
<text text-anchor="start" x="234" y="-107.5" font-family="Helvetica,sans-Serif" font-size="10.00">/XBotInterface/include/XBotInterface</text>
<text text-anchor="middle" x="314" y="-96.5" font-family="Helvetica,sans-Serif" font-size="10.00">/RobotInterface.h</text>
</a>
</g>
</g>
<!-- Node5&#45;&gt;Node6 -->
<g id="edge5" class="edge"><title>Node5&#45;&gt;Node6</title>
<path fill="none" stroke="midnightblue" d="M442.875,-174.295C419.173,-163.665 392.615,-151.755 369.794,-141.521"/>
<polygon fill="midnightblue" stroke="midnightblue" points="441.591,-177.554 452.147,-178.453 444.455,-171.167 441.591,-177.554"/>
</g>
<!-- Node10 -->
<g id="node10" class="node"><title>Node10</title>
<g id="a_node10"><a xlink:href="Utils_8h.html" target="_top" xlink:title="/home/lucamuratore\l/advr&#45;superbuild/external\l/XBotInterface/include/XBotInterface\l/Utils.h">
<polygon fill="none" stroke="black" points="420,-89.5 420,-141.5 596,-141.5 596,-89.5 420,-89.5"/>
<text text-anchor="start" x="428" y="-129.5" font-family="Helvetica,sans-Serif" font-size="10.00">/home/lucamuratore</text>
<text text-anchor="start" x="428" y="-118.5" font-family="Helvetica,sans-Serif" font-size="10.00">/advr&#45;superbuild/external</text>
<text text-anchor="start" x="428" y="-107.5" font-family="Helvetica,sans-Serif" font-size="10.00">/XBotInterface/include/XBotInterface</text>
<text text-anchor="middle" x="508" y="-96.5" font-family="Helvetica,sans-Serif" font-size="10.00">/Utils.h</text>
</a>
</g>
</g>
<!-- Node5&#45;&gt;Node10 -->
<g id="edge9" class="edge"><title>Node5&#45;&gt;Node10</title>
<path fill="none" stroke="midnightblue" d="M508,-168.191C508,-159.282 508,-149.899 508,-141.607"/>
<polygon fill="midnightblue" stroke="midnightblue" points="504.5,-168.336 508,-178.336 511.5,-168.336 504.5,-168.336"/>
</g>
<!-- Node11 -->
<g id="node11" class="node"><title>Node11</title>
<g id="a_node11"><a xlink:href="ModelInterface_8cpp.html" target="_top" xlink:title="/home/lucamuratore\l/advr&#45;superbuild/external\l/XBotInterface/src/ModelInterface.cpp">
<polygon fill="none" stroke="black" points="614,-95 614,-136 796,-136 796,-95 614,-95"/>
<text text-anchor="start" x="622" y="-124" font-family="Helvetica,sans-Serif" font-size="10.00">/home/lucamuratore</text>
<text text-anchor="start" x="622" y="-113" font-family="Helvetica,sans-Serif" font-size="10.00">/advr&#45;superbuild/external</text>
<text text-anchor="middle" x="705" y="-102" font-family="Helvetica,sans-Serif" font-size="10.00">/XBotInterface/src/ModelInterface.cpp</text>
</a>
</g>
</g>
<!-- Node5&#45;&gt;Node11 -->
<g id="edge10" class="edge"><title>Node5&#45;&gt;Node11</title>
<path fill="none" stroke="midnightblue" d="M574.185,-174.271C602.607,-161.719 635.067,-147.384 660.542,-136.134"/>
<polygon fill="midnightblue" stroke="midnightblue" points="572.45,-171.211 564.716,-178.453 575.278,-177.615 572.45,-171.211"/>
</g>
<!-- Node7 -->
<g id="node7" class="node"><title>Node7</title>
<g id="a_node7"><a xlink:href="StateMachine_8h.html" target="_top" xlink:title="/home/lucamuratore\l/advr&#45;superbuild/external\l/XBotInterface/include/XBotInterface\l/StateMachine.h">
<polygon fill="none" stroke="black" points="58,-0.5 58,-52.5 234,-52.5 234,-0.5 58,-0.5"/>
<text text-anchor="start" x="66" y="-40.5" font-family="Helvetica,sans-Serif" font-size="10.00">/home/lucamuratore</text>
<text text-anchor="start" x="66" y="-29.5" font-family="Helvetica,sans-Serif" font-size="10.00">/advr&#45;superbuild/external</text>
<text text-anchor="start" x="66" y="-18.5" font-family="Helvetica,sans-Serif" font-size="10.00">/XBotInterface/include/XBotInterface</text>
<text text-anchor="middle" x="146" y="-7.5" font-family="Helvetica,sans-Serif" font-size="10.00">/StateMachine.h</text>
</a>
</g>
</g>
<!-- Node6&#45;&gt;Node7 -->
<g id="edge6" class="edge"><title>Node6&#45;&gt;Node7</title>
<path fill="none" stroke="midnightblue" d="M256.33,-84.6354C236.189,-74.2049 213.8,-62.6109 194.483,-52.6075"/>
<polygon fill="midnightblue" stroke="midnightblue" points="254.918,-87.8454 265.407,-89.336 258.137,-81.6294 254.918,-87.8454"/>
</g>
<!-- Node8 -->
<g id="node8" class="node"><title>Node8</title>
<g id="a_node8"><a xlink:href="main__test_8cpp.html" target="_top" xlink:title="/home/lucamuratore\l/advr&#45;superbuild/external\l/XBotInterface/src/main\l_test.cpp">
<polygon fill="none" stroke="black" points="252.5,-0.5 252.5,-52.5 375.5,-52.5 375.5,-0.5 252.5,-0.5"/>
<text text-anchor="start" x="260.5" y="-40.5" font-family="Helvetica,sans-Serif" font-size="10.00">/home/lucamuratore</text>
<text text-anchor="start" x="260.5" y="-29.5" font-family="Helvetica,sans-Serif" font-size="10.00">/advr&#45;superbuild/external</text>
<text text-anchor="start" x="260.5" y="-18.5" font-family="Helvetica,sans-Serif" font-size="10.00">/XBotInterface/src/main</text>
<text text-anchor="middle" x="314" y="-7.5" font-family="Helvetica,sans-Serif" font-size="10.00">_test.cpp</text>
</a>
</g>
</g>
<!-- Node6&#45;&gt;Node8 -->
<g id="edge7" class="edge"><title>Node6&#45;&gt;Node8</title>
<path fill="none" stroke="midnightblue" d="M314,-79.1908C314,-70.2824 314,-60.8986 314,-52.6075"/>
<polygon fill="midnightblue" stroke="midnightblue" points="310.5,-79.336 314,-89.336 317.5,-79.336 310.5,-79.336"/>
</g>
<!-- Node9 -->
<g id="node9" class="node"><title>Node9</title>
<g id="a_node9"><a xlink:href="RobotInterface_8cpp.html" target="_top" xlink:title="/home/lucamuratore\l/advr&#45;superbuild/external\l/XBotInterface/src/RobotInterface.cpp">
<polygon fill="none" stroke="black" points="394,-6 394,-47 576,-47 576,-6 394,-6"/>
<text text-anchor="start" x="402" y="-35" font-family="Helvetica,sans-Serif" font-size="10.00">/home/lucamuratore</text>
<text text-anchor="start" x="402" y="-24" font-family="Helvetica,sans-Serif" font-size="10.00">/advr&#45;superbuild/external</text>
<text text-anchor="middle" x="485" y="-13" font-family="Helvetica,sans-Serif" font-size="10.00">/XBotInterface/src/RobotInterface.cpp</text>
</a>
</g>
</g>
<!-- Node6&#45;&gt;Node9 -->
<g id="edge8" class="edge"><title>Node6&#45;&gt;Node9</title>
<path fill="none" stroke="midnightblue" d="M372.642,-84.6648C397.063,-72.2399 424.738,-58.1596 446.511,-47.0821"/>
<polygon fill="midnightblue" stroke="midnightblue" points="370.786,-81.6819 363.46,-89.336 373.96,-87.9208 370.786,-81.6819"/>
</g>
<!-- Node12&#45;&gt;Node6 -->
<g id="edge12" class="edge"><title>Node12&#45;&gt;Node6</title>
<path fill="none" stroke="midnightblue" d="M162.404,-174.858C190.382,-164.087 221.947,-151.936 249.003,-141.521"/>
<polygon fill="midnightblue" stroke="midnightblue" points="161.14,-171.594 153.065,-178.453 163.655,-178.126 161.14,-171.594"/>
</g>
<!-- Node13 -->
<g id="node13" class="node"><title>Node13</title>
<g id="a_node13"><a xlink:href="RobotChain_8cpp.html" target="_top" xlink:title="/home/lucamuratore\l/advr&#45;superbuild/external\l/XBotInterface/src/RobotChain.cpp">
<polygon fill="none" stroke="black" points="3,-95 3,-136 173,-136 173,-95 3,-95"/>
<text text-anchor="start" x="11" y="-124" font-family="Helvetica,sans-Serif" font-size="10.00">/home/lucamuratore</text>
<text text-anchor="start" x="11" y="-113" font-family="Helvetica,sans-Serif" font-size="10.00">/advr&#45;superbuild/external</text>
<text text-anchor="middle" x="88" y="-102" font-family="Helvetica,sans-Serif" font-size="10.00">/XBotInterface/src/RobotChain.cpp</text>
</a>
</g>
</g>
<!-- Node12&#45;&gt;Node13 -->
<g id="edge13" class="edge"><title>Node12&#45;&gt;Node13</title>
<path fill="none" stroke="midnightblue" d="M88,-168.155C88,-157.21 88,-145.549 88,-136.082"/>
<polygon fill="midnightblue" stroke="midnightblue" points="84.5001,-168.336 88,-178.336 91.5001,-168.336 84.5001,-168.336"/>
</g>
<!-- Node15&#45;&gt;Node5 -->
<g id="edge17" class="edge"><title>Node15&#45;&gt;Node5</title>
<path fill="none" stroke="midnightblue" d="M486.971,-257.771C490.624,-248.691 494.491,-239.079 497.899,-230.607"/>
<polygon fill="midnightblue" stroke="midnightblue" points="483.609,-256.752 483.123,-267.336 490.103,-259.365 483.609,-256.752"/>
</g>
<!-- Node15&#45;&gt;Node6 -->
<g id="edge18" class="edge"><title>Node15&#45;&gt;Node6</title>
<path fill="none" stroke="midnightblue" d="M438.48,-260.29C429.23,-251.123 419.458,-240.925 411,-231 392.201,-208.939 391.524,-200.292 373,-178 362.693,-165.596 350.467,-152.606 339.824,-141.777"/>
<polygon fill="midnightblue" stroke="midnightblue" points="436.153,-262.909 445.751,-267.396 441.046,-257.903 436.153,-262.909"/>
</g>
<!-- Node16 -->
<g id="node16" class="node"><title>Node16</title>
<g id="a_node16"><a xlink:href="XBotInterface_8cpp.html" target="_top" xlink:title="/home/lucamuratore\l/advr&#45;superbuild/external\l/XBotInterface/src/XBotInterface.cpp">
<polygon fill="none" stroke="black" points="614,-184 614,-225 792,-225 792,-184 614,-184"/>
<text text-anchor="start" x="622" y="-213" font-family="Helvetica,sans-Serif" font-size="10.00">/home/lucamuratore</text>
<text text-anchor="start" x="622" y="-202" font-family="Helvetica,sans-Serif" font-size="10.00">/advr&#45;superbuild/external</text>
<text text-anchor="middle" x="703" y="-191" font-family="Helvetica,sans-Serif" font-size="10.00">/XBotInterface/src/XBotInterface.cpp</text>
</a>
</g>
</g>
<!-- Node15&#45;&gt;Node16 -->
<g id="edge19" class="edge"><title>Node15&#45;&gt;Node16</title>
<path fill="none" stroke="midnightblue" d="M548.975,-263.762C582.465,-251.094 620.964,-236.531 651.094,-225.134"/>
<polygon fill="midnightblue" stroke="midnightblue" points="547.332,-260.641 539.217,-267.453 549.808,-267.188 547.332,-260.641"/>
</g>
<!-- Node19&#45;&gt;Node3 -->
<g id="edge23" class="edge"><title>Node19&#45;&gt;Node3</title>
<path fill="none" stroke="midnightblue" d="M316.092,-438.363C326.816,-428.542 338.448,-417.89 348.584,-408.607"/>
<polygon fill="midnightblue" stroke="midnightblue" points="313.489,-436.001 308.478,-445.336 318.217,-441.163 313.489,-436.001"/>
</g>
<!-- Node20 -->
<g id="node20" class="node"><title>Node20</title>
<g id="a_node20"><a xlink:href="ImuSensor_8cpp.html" target="_top" xlink:title="/home/lucamuratore\l/advr&#45;superbuild/external\l/XBotInterface/src/ImuSensor.cpp">
<polygon fill="none" stroke="black" points="104.5,-362 104.5,-403 269.5,-403 269.5,-362 104.5,-362"/>
<text text-anchor="start" x="112.5" y="-391" font-family="Helvetica,sans-Serif" font-size="10.00">/home/lucamuratore</text>
<text text-anchor="start" x="112.5" y="-380" font-family="Helvetica,sans-Serif" font-size="10.00">/advr&#45;superbuild/external</text>
<text text-anchor="middle" x="187" y="-369" font-family="Helvetica,sans-Serif" font-size="10.00">/XBotInterface/src/ImuSensor.cpp</text>
</a>
</g>
</g>
<!-- Node19&#45;&gt;Node20 -->
<g id="edge24" class="edge"><title>Node19&#45;&gt;Node20</title>
<path fill="none" stroke="midnightblue" d="M246.441,-438.515C233.608,-426.637 219.441,-413.525 208.158,-403.082"/>
<polygon fill="midnightblue" stroke="midnightblue" points="244.095,-441.112 253.811,-445.336 248.85,-435.975 244.095,-441.112"/>
</g>
</g>
</svg>
