<?xml version="1.0" encoding="UTF-8" standalone="no"?>
<!DOCTYPE svg PUBLIC "-//W3C//DTD SVG 1.1//EN"
 "http://www.w3.org/Graphics/SVG/1.1/DTD/svg11.dtd">
<!-- Generated by graphviz version 2.38.0 (20140413.2041)
 -->
<!-- Title: /home/lucamuratore/advr&#45;superbuild/external/XBotInterface/src/GenericSensor.cpp Pages: 1 -->
<svg width="571pt" height="173pt"
 viewBox="0.00 0.00 571.00 173.00" xmlns="http://www.w3.org/2000/svg" xmlns:xlink="http://www.w3.org/1999/xlink">
<g id="graph0" class="graph" transform="scale(1 1) rotate(0) translate(4 169)">
<title>/home/lucamuratore/advr&#45;superbuild/external/XBotInterface/src/GenericSensor.cpp</title>
<!-- Node1 -->
<g id="node1" class="node"><title>Node1</title>
<polygon fill="#bfbfbf" stroke="black" points="109.5,-123.5 109.5,-164.5 291.5,-164.5 291.5,-123.5 109.5,-123.5"/>
<text text-anchor="start" x="117.5" y="-152.5" font-family="Helvetica,sans-Serif" font-size="10.00">/home/lucamuratore</text>
<text text-anchor="start" x="117.5" y="-141.5" font-family="Helvetica,sans-Serif" font-size="10.00">/advr&#45;superbuild/external</text>
<text text-anchor="middle" x="200.5" y="-130.5" font-family="Helvetica,sans-Serif" font-size="10.00">/XBotInterface/src/GenericSensor.cpp</text>
</g>
<!-- Node2 -->
<g id="node2" class="node"><title>Node2</title>
<g id="a_node2"><a xlink:href="GenericSensor_8h.html" target="_top" xlink:title="XBotInterface/GenericSensor.h">
<polygon fill="none" stroke="black" points="124.5,-67.5 124.5,-86.5 276.5,-86.5 276.5,-67.5 124.5,-67.5"/>
<text text-anchor="middle" x="200.5" y="-74.5" font-family="Helvetica,sans-Serif" font-size="10.00">XBotInterface/GenericSensor.h</text>
</a>
</g>
</g>
<!-- Node1&#45;&gt;Node2 -->
<g id="edge1" class="edge"><title>Node1&#45;&gt;Node2</title>
<path fill="none" stroke="midnightblue" d="M200.5,-123.498C200.5,-115.065 200.5,-105.235 200.5,-96.874"/>
<polygon fill="midnightblue" stroke="midnightblue" points="204,-96.6525 200.5,-86.6525 197,-96.6525 204,-96.6525"/>
</g>
<!-- Node3 -->
<g id="node3" class="node"><title>Node3</title>
<polygon fill="none" stroke="#bfbfbf" points="0,-6 0,-25 41,-25 41,-6 0,-6"/>
<text text-anchor="middle" x="20.5" y="-13" font-family="Helvetica,sans-Serif" font-size="10.00">string</text>
</g>
<!-- Node2&#45;&gt;Node3 -->
<g id="edge2" class="edge"><title>Node2&#45;&gt;Node3</title>
<path fill="none" stroke="midnightblue" d="M166.623,-67.4878C135.879,-59.376 89.5238,-46.1737 50.5,-31 49.1184,-30.4628 47.7128,-29.8879 46.3019,-29.2881"/>
<polygon fill="midnightblue" stroke="midnightblue" points="47.6623,-26.0619 37.1106,-25.1075 44.7641,-32.4338 47.6623,-26.0619"/>
</g>
<!-- Node4 -->
<g id="node4" class="node"><title>Node4</title>
<polygon fill="none" stroke="#bfbfbf" points="59.5,-6 59.5,-25 111.5,-25 111.5,-6 59.5,-6"/>
<text text-anchor="middle" x="85.5" y="-13" font-family="Helvetica,sans-Serif" font-size="10.00">memory</text>
</g>
<!-- Node2&#45;&gt;Node4 -->
<g id="edge3" class="edge"><title>Node2&#45;&gt;Node4</title>
<path fill="none" stroke="midnightblue" d="M184.023,-67.4751C164.895,-57.578 133.127,-41.1416 110.848,-29.6151"/>
<polygon fill="midnightblue" stroke="midnightblue" points="112.436,-26.4958 101.946,-25.0091 109.219,-32.713 112.436,-26.4958"/>
</g>
<!-- Node5 -->
<g id="node5" class="node"><title>Node5</title>
<polygon fill="none" stroke="#bfbfbf" points="129.5,-6 129.5,-25 183.5,-25 183.5,-6 129.5,-6"/>
<text text-anchor="middle" x="156.5" y="-13" font-family="Helvetica,sans-Serif" font-size="10.00">iostream</text>
</g>
<!-- Node2&#45;&gt;Node5 -->
<g id="edge4" class="edge"><title>Node2&#45;&gt;Node5</title>
<path fill="none" stroke="midnightblue" d="M194.196,-67.4751C187.596,-58.5501 177.063,-44.3071 168.807,-33.1425"/>
<polygon fill="midnightblue" stroke="midnightblue" points="171.552,-30.9684 162.792,-25.0091 165.924,-35.1305 171.552,-30.9684"/>
</g>
<!-- Node6 -->
<g id="node6" class="node"><title>Node6</title>
<polygon fill="none" stroke="#bfbfbf" points="202,-6 202,-25 289,-25 289,-6 202,-6"/>
<text text-anchor="middle" x="245.5" y="-13" font-family="Helvetica,sans-Serif" font-size="10.00">Eigen/Geometry</text>
</g>
<!-- Node2&#45;&gt;Node6 -->
<g id="edge5" class="edge"><title>Node2&#45;&gt;Node6</title>
<path fill="none" stroke="midnightblue" d="M206.947,-67.4751C213.697,-58.5501 224.469,-44.3071 232.913,-33.1425"/>
<polygon fill="midnightblue" stroke="midnightblue" points="235.824,-35.0962 239.065,-25.0091 230.241,-30.8737 235.824,-35.0962"/>
</g>
<!-- Node7 -->
<g id="node7" class="node"><title>Node7</title>
<polygon fill="none" stroke="#bfbfbf" points="307.5,-0.5 307.5,-30.5 431.5,-30.5 431.5,-0.5 307.5,-0.5"/>
<text text-anchor="start" x="315.5" y="-18.5" font-family="Helvetica,sans-Serif" font-size="10.00">eigen_conversions/eigen</text>
<text text-anchor="middle" x="369.5" y="-7.5" font-family="Helvetica,sans-Serif" font-size="10.00">_kdl.h</text>
</g>
<!-- Node2&#45;&gt;Node7 -->
<g id="edge6" class="edge"><title>Node2&#45;&gt;Node7</title>
<path fill="none" stroke="midnightblue" d="M224.714,-67.4751C249.527,-58.7388 288.814,-44.9073 320.206,-33.855"/>
<polygon fill="midnightblue" stroke="midnightblue" points="321.4,-37.1453 329.67,-30.523 319.075,-30.5426 321.4,-37.1453"/>
</g>
<!-- Node8 -->
<g id="node8" class="node"><title>Node8</title>
<polygon fill="none" stroke="#bfbfbf" points="450,-6 450,-25 563,-25 563,-6 450,-6"/>
<text text-anchor="middle" x="506.5" y="-13" font-family="Helvetica,sans-Serif" font-size="10.00">srdfdom_advr/model.h</text>
</g>
<!-- Node2&#45;&gt;Node8 -->
<g id="edge7" class="edge"><title>Node2&#45;&gt;Node8</title>
<path fill="none" stroke="midnightblue" d="M248.397,-67.4692C296.901,-58.7248 374.034,-44.5289 440.5,-31 446.318,-29.8158 452.415,-28.5331 458.454,-27.2371"/>
<polygon fill="midnightblue" stroke="midnightblue" points="459.47,-30.5982 468.501,-25.0586 457.986,-23.7572 459.47,-30.5982"/>
</g>
</g>
</svg>
