<?xml version="1.0" encoding="UTF-8" standalone="no"?>
<!DOCTYPE svg PUBLIC "-//W3C//DTD SVG 1.1//EN"
 "http://www.w3.org/Graphics/SVG/1.1/DTD/svg11.dtd">
<!-- Generated by graphviz version 2.38.0 (20140413.2041)
 -->
<!-- Title: Graphical Class Hierarchy Pages: 1 -->
<svg width="637pt" height="50pt"
 viewBox="0.00 0.00 637.00 50.00" xmlns="http://www.w3.org/2000/svg" xmlns:xlink="http://www.w3.org/1999/xlink">
<g id="graph0" class="graph" transform="scale(1 1) rotate(0) translate(4 46)">
<title>Graphical Class Hierarchy</title>
<!-- Node1 -->
<g id="node1" class="node"><title>Node1</title>
<g id="a_node1"><a xlink:href="classfmt_1_1ArgVisitor.html" target="_top" xlink:title="fmt::ArgVisitor\&lt; PrintfArg\lFormatter\&lt; Char \&gt;, void \&gt;">
<polygon fill="none" stroke="black" points="0,-6 0,-36 131,-36 131,-6 0,-6"/>
<text text-anchor="start" x="8" y="-24" font-family="Helvetica,sans-Serif" font-size="10.00">fmt::ArgVisitor&lt; PrintfArg</text>
<text text-anchor="middle" x="65.5" y="-13" font-family="Helvetica,sans-Serif" font-size="10.00">Formatter&lt; Char &gt;, void &gt;</text>
</a>
</g>
</g>
<!-- Node2 -->
<g id="node2" class="node"><title>Node2</title>
<g id="a_node2"><a xlink:href="classfmt_1_1internal_1_1ArgFormatterBase.html" target="_top" xlink:title="fmt::internal::ArgFormatter\lBase\&lt; PrintfArgFormatter\l\&lt; Char \&gt;, Char \&gt;">
<polygon fill="none" stroke="black" points="167,-0.5 167,-41.5 298,-41.5 298,-0.5 167,-0.5"/>
<text text-anchor="start" x="175" y="-29.5" font-family="Helvetica,sans-Serif" font-size="10.00">fmt::internal::ArgFormatter</text>
<text text-anchor="start" x="175" y="-18.5" font-family="Helvetica,sans-Serif" font-size="10.00">Base&lt; PrintfArgFormatter</text>
<text text-anchor="middle" x="232.5" y="-7.5" font-family="Helvetica,sans-Serif" font-size="10.00">&lt; Char &gt;, Char &gt;</text>
</a>
</g>
</g>
<!-- Node1&#45;&gt;Node2 -->
<g id="edge1" class="edge"><title>Node1&#45;&gt;Node2</title>
<path fill="none" stroke="midnightblue" d="M141.239,-21C149.821,-21 158.516,-21 166.948,-21"/>
<polygon fill="midnightblue" stroke="midnightblue" points="141.239,-17.5001 131.239,-21 141.239,-24.5001 141.239,-17.5001"/>
</g>
<!-- Node3 -->
<g id="node3" class="node"><title>Node3</title>
<g id="a_node3"><a xlink:href="classfmt_1_1BasicPrintfArgFormatter.html" target="_top" xlink:title="fmt::BasicPrintfArgFormatter\l\&lt; PrintfArgFormatter\&lt; Char\l \&gt;, Char \&gt;">
<polygon fill="none" stroke="black" points="334,-0.5 334,-41.5 476,-41.5 476,-0.5 334,-0.5"/>
<text text-anchor="start" x="342" y="-29.5" font-family="Helvetica,sans-Serif" font-size="10.00">fmt::BasicPrintfArgFormatter</text>
<text text-anchor="start" x="342" y="-18.5" font-family="Helvetica,sans-Serif" font-size="10.00">&lt; PrintfArgFormatter&lt; Char</text>
<text text-anchor="middle" x="405" y="-7.5" font-family="Helvetica,sans-Serif" font-size="10.00"> &gt;, Char &gt;</text>
</a>
</g>
</g>
<!-- Node2&#45;&gt;Node3 -->
<g id="edge2" class="edge"><title>Node2&#45;&gt;Node3</title>
<path fill="none" stroke="midnightblue" d="M308.594,-21C316.986,-21 325.512,-21 333.839,-21"/>
<polygon fill="midnightblue" stroke="midnightblue" points="308.445,-17.5001 298.445,-21 308.445,-24.5001 308.445,-17.5001"/>
</g>
<!-- Node4 -->
<g id="node4" class="node"><title>Node4</title>
<g id="a_node4"><a xlink:href="classfmt_1_1PrintfArgFormatter.html" target="_top" xlink:title="The default printf argument formatter. ">
<polygon fill="none" stroke="black" points="512,-6 512,-36 629,-36 629,-6 512,-6"/>
<text text-anchor="start" x="520" y="-24" font-family="Helvetica,sans-Serif" font-size="10.00">fmt::PrintfArgFormatter</text>
<text text-anchor="middle" x="570.5" y="-13" font-family="Helvetica,sans-Serif" font-size="10.00">&lt; Char &gt;</text>
</a>
</g>
</g>
<!-- Node3&#45;&gt;Node4 -->
<g id="edge3" class="edge"><title>Node3&#45;&gt;Node4</title>
<path fill="none" stroke="midnightblue" d="M486.347,-21C494.944,-21 503.562,-21 511.82,-21"/>
<polygon fill="midnightblue" stroke="midnightblue" points="486.288,-17.5001 476.288,-21 486.288,-24.5001 486.288,-17.5001"/>
</g>
</g>
</svg>
