<?xml version="1.0" encoding="UTF-8" standalone="no"?>
<!DOCTYPE svg PUBLIC "-//W3C//DTD SVG 1.1//EN"
 "http://www.w3.org/Graphics/SVG/1.1/DTD/svg11.dtd">
<!-- Generated by graphviz version 2.38.0 (20140413.2041)
 -->
<!-- Title: Graphical Class Hierarchy Pages: 1 -->
<svg width="654pt" height="39pt"
 viewBox="0.00 0.00 654.00 39.00" xmlns="http://www.w3.org/2000/svg" xmlns:xlink="http://www.w3.org/1999/xlink">
<g id="graph0" class="graph" transform="scale(1 1) rotate(0) translate(4 35)">
<title>Graphical Class Hierarchy</title>
<!-- Node1 -->
<g id="node1" class="node"><title>Node1</title>
<g id="a_node1"><a xlink:title="STL class. ">
<polygon fill="none" stroke="#bfbfbf" points="0,-6 0,-25 75,-25 75,-6 0,-6"/>
<text text-anchor="middle" x="37.5" y="-13" font-family="Helvetica,sans-Serif" font-size="10.00">std::ios_base</text>
</a>
</g>
</g>
<!-- Node2 -->
<g id="node2" class="node"><title>Node2</title>
<g id="a_node2"><a xlink:title="STL class. ">
<polygon fill="none" stroke="#bfbfbf" points="111,-6 111,-25 227,-25 227,-6 111,-6"/>
<text text-anchor="middle" x="169" y="-13" font-family="Helvetica,sans-Serif" font-size="10.00">std::basic_ios&lt; Char &gt;</text>
</a>
</g>
</g>
<!-- Node1&#45;&gt;Node2 -->
<g id="edge1" class="edge"><title>Node1&#45;&gt;Node2</title>
<path fill="none" stroke="midnightblue" d="M85.4322,-15.5C93.6719,-15.5 102.329,-15.5 110.811,-15.5"/>
<polygon fill="midnightblue" stroke="midnightblue" points="85.2631,-12.0001 75.2631,-15.5 85.2631,-19.0001 85.2631,-12.0001"/>
</g>
<!-- Node3 -->
<g id="node3" class="node"><title>Node3</title>
<g id="a_node3"><a xlink:title="STL class. ">
<polygon fill="none" stroke="#bfbfbf" points="263,-0.5 263,-30.5 363,-30.5 363,-0.5 263,-0.5"/>
<text text-anchor="start" x="271" y="-18.5" font-family="Helvetica,sans-Serif" font-size="10.00">std::basic_ostream</text>
<text text-anchor="middle" x="313" y="-7.5" font-family="Helvetica,sans-Serif" font-size="10.00">&lt; Char &gt;</text>
</a>
</g>
</g>
<!-- Node2&#45;&gt;Node3 -->
<g id="edge2" class="edge"><title>Node2&#45;&gt;Node3</title>
<path fill="none" stroke="midnightblue" d="M237.59,-15.5C246.04,-15.5 254.554,-15.5 262.653,-15.5"/>
<polygon fill="midnightblue" stroke="midnightblue" points="237.348,-12.0001 227.348,-15.5 237.347,-19.0001 237.348,-12.0001"/>
</g>
<!-- Node4 -->
<g id="node4" class="node"><title>Node4</title>
<g id="a_node4"><a xlink:title="STL class. ">
<polygon fill="none" stroke="#bfbfbf" points="399,-6 399,-25 470,-25 470,-6 399,-6"/>
<text text-anchor="middle" x="434.5" y="-13" font-family="Helvetica,sans-Serif" font-size="10.00">std::ostream</text>
</a>
</g>
</g>
<!-- Node3&#45;&gt;Node4 -->
<g id="edge3" class="edge"><title>Node3&#45;&gt;Node4</title>
<path fill="none" stroke="midnightblue" d="M373.477,-15.5C382.192,-15.5 390.914,-15.5 398.903,-15.5"/>
<polygon fill="midnightblue" stroke="midnightblue" points="373.295,-12.0001 363.295,-15.5 373.295,-19.0001 373.295,-12.0001"/>
</g>
<!-- Node5 -->
<g id="node5" class="node"><title>Node5</title>
<g id="a_node5"><a xlink:href="structfmt_1_1internal_1_1DummyStream.html" target="_top" xlink:title="fmt::internal::DummyStream">
<polygon fill="none" stroke="black" points="506,-6 506,-25 646,-25 646,-6 506,-6"/>
<text text-anchor="middle" x="576" y="-13" font-family="Helvetica,sans-Serif" font-size="10.00">fmt::internal::DummyStream</text>
</a>
</g>
</g>
<!-- Node4&#45;&gt;Node5 -->
<g id="edge4" class="edge"><title>Node4&#45;&gt;Node5</title>
<path fill="none" stroke="midnightblue" d="M480.603,-15.5C488.663,-15.5 497.226,-15.5 505.778,-15.5"/>
<polygon fill="midnightblue" stroke="midnightblue" points="480.342,-12.0001 470.342,-15.5 480.342,-19.0001 480.342,-12.0001"/>
</g>
</g>
</svg>
