<?xml version="1.0" encoding="UTF-8" standalone="no"?>
<!DOCTYPE svg PUBLIC "-//W3C//DTD SVG 1.1//EN"
 "http://www.w3.org/Graphics/SVG/1.1/DTD/svg11.dtd">
<!-- Generated by graphviz version 2.38.0 (20140413.2041)
 -->
<!-- Title: Graphical Class Hierarchy Pages: 1 -->
<svg width="513pt" height="85pt"
 viewBox="0.00 0.00 513.00 85.00" xmlns="http://www.w3.org/2000/svg" xmlns:xlink="http://www.w3.org/1999/xlink">
<g id="graph0" class="graph" transform="scale(1 1) rotate(0) translate(4 81)">
<title>Graphical Class Hierarchy</title>
<!-- Node1 -->
<g id="node1" class="node"><title>Node1</title>
<g id="a_node1"><a xlink:title="STL class. ">
<polygon fill="none" stroke="#bfbfbf" points="0,-38.5 0,-57.5 78,-57.5 78,-38.5 0,-38.5"/>
<text text-anchor="middle" x="39" y="-45.5" font-family="Helvetica,sans-Serif" font-size="10.00">std::exception</text>
</a>
</g>
</g>
<!-- Node2 -->
<g id="node2" class="node"><title>Node2</title>
<g id="a_node2"><a xlink:href="classspdlog_1_1spdlog__ex.html" target="_top" xlink:title="spdlog::spdlog_ex">
<polygon fill="none" stroke="black" points="114,-57.5 114,-76.5 209,-76.5 209,-57.5 114,-57.5"/>
<text text-anchor="middle" x="161.5" y="-64.5" font-family="Helvetica,sans-Serif" font-size="10.00">spdlog::spdlog_ex</text>
</a>
</g>
</g>
<!-- Node1&#45;&gt;Node2 -->
<g id="edge1" class="edge"><title>Node1&#45;&gt;Node2</title>
<path fill="none" stroke="midnightblue" d="M88.189,-55.5983C96.6096,-56.926 105.358,-58.3054 113.739,-59.6269"/>
<polygon fill="midnightblue" stroke="midnightblue" points="88.5501,-52.112 78.127,-54.0117 87.4598,-59.0266 88.5501,-52.112"/>
</g>
<!-- Node3 -->
<g id="node3" class="node"><title>Node3</title>
<g id="a_node3"><a xlink:title="STL class. ">
<polygon fill="none" stroke="#bfbfbf" points="115,-19.5 115,-38.5 208,-38.5 208,-19.5 115,-19.5"/>
<text text-anchor="middle" x="161.5" y="-26.5" font-family="Helvetica,sans-Serif" font-size="10.00">std::runtime_error</text>
</a>
</g>
</g>
<!-- Node1&#45;&gt;Node3 -->
<g id="edge2" class="edge"><title>Node1&#45;&gt;Node3</title>
<path fill="none" stroke="midnightblue" d="M88.1551,-40.4071C96.875,-39.0322 105.947,-37.6017 114.6,-36.2373"/>
<polygon fill="midnightblue" stroke="midnightblue" points="87.4598,-36.9734 78.127,-41.9883 88.5501,-43.888 87.4598,-36.9734"/>
</g>
<!-- Node4 -->
<g id="node4" class="node"><title>Node4</title>
<g id="a_node4"><a xlink:href="classfmt_1_1FormatError.html" target="_top" xlink:title="A formatting error such as invalid format string. ">
<polygon fill="none" stroke="black" points="266.5,-38.5 266.5,-57.5 355.5,-57.5 355.5,-38.5 266.5,-38.5"/>
<text text-anchor="middle" x="311" y="-45.5" font-family="Helvetica,sans-Serif" font-size="10.00">fmt::FormatError</text>
</a>
</g>
</g>
<!-- Node3&#45;&gt;Node4 -->
<g id="edge3" class="edge"><title>Node3&#45;&gt;Node4</title>
<path fill="none" stroke="midnightblue" d="M218.578,-36.2236C234.43,-38.2656 251.439,-40.4566 266.436,-42.3883"/>
<polygon fill="midnightblue" stroke="midnightblue" points="218.727,-32.7139 208.361,-34.9076 217.832,-39.6566 218.727,-32.7139"/>
</g>
<!-- Node5 -->
<g id="node5" class="node"><title>Node5</title>
<g id="a_node5"><a xlink:href="classfmt_1_1internal_1_1RuntimeError.html" target="_top" xlink:title="fmt::internal::RuntimeError">
<polygon fill="none" stroke="black" points="245,-0.5 245,-19.5 377,-19.5 377,-0.5 245,-0.5"/>
<text text-anchor="middle" x="311" y="-7.5" font-family="Helvetica,sans-Serif" font-size="10.00">fmt::internal::RuntimeError</text>
</a>
</g>
</g>
<!-- Node3&#45;&gt;Node5 -->
<g id="edge4" class="edge"><title>Node3&#45;&gt;Node5</title>
<path fill="none" stroke="midnightblue" d="M218.361,-21.8043C227.044,-20.6859 236.079,-19.522 244.944,-18.3801"/>
<polygon fill="midnightblue" stroke="midnightblue" points="217.832,-18.3434 208.361,-23.0924 218.727,-25.2861 217.832,-18.3434"/>
</g>
<!-- Node6 -->
<g id="node6" class="node"><title>Node6</title>
<g id="a_node6"><a xlink:href="classfmt_1_1SystemError.html" target="_top" xlink:title="An error returned by an operating system or a language runtime, for example a file opening error...">
<polygon fill="none" stroke="black" points="413,-0.5 413,-19.5 505,-19.5 505,-0.5 413,-0.5"/>
<text text-anchor="middle" x="459" y="-7.5" font-family="Helvetica,sans-Serif" font-size="10.00">fmt::SystemError</text>
</a>
</g>
</g>
<!-- Node5&#45;&gt;Node6 -->
<g id="edge5" class="edge"><title>Node5&#45;&gt;Node6</title>
<path fill="none" stroke="midnightblue" d="M387.472,-10C396.133,-10 404.747,-10 412.826,-10"/>
<polygon fill="midnightblue" stroke="midnightblue" points="387.314,-6.5001 377.313,-10 387.313,-13.5001 387.314,-6.5001"/>
</g>
</g>
</svg>
