<?xml version="1.0" encoding="UTF-8" standalone="no"?>
<!DOCTYPE svg PUBLIC "-//W3C//DTD SVG 1.1//EN"
 "http://www.w3.org/Graphics/SVG/1.1/DTD/svg11.dtd">
<!-- Generated by graphviz version 2.38.0 (20140413.2041)
 -->
<!-- Title: Graphical Class Hierarchy Pages: 1 -->
<svg width="228pt" height="66pt"
 viewBox="0.00 0.00 228.00 66.00" xmlns="http://www.w3.org/2000/svg" xmlns:xlink="http://www.w3.org/1999/xlink">
<g id="graph0" class="graph" transform="scale(1 1) rotate(0) translate(4 62)">
<title>Graphical Class Hierarchy</title>
<!-- Node1 -->
<g id="node1" class="node"><title>Node1</title>
<g id="a_node1"><a xlink:href="classXBot_1_1Logger.html" target="_top" xlink:title="XBot::Logger">
<polygon fill="none" stroke="black" points="0,-19.5 0,-38.5 74,-38.5 74,-19.5 0,-19.5"/>
<text text-anchor="middle" x="37" y="-26.5" font-family="Helvetica,sans-Serif" font-size="10.00">XBot::Logger</text>
</a>
</g>
</g>
<!-- Node2 -->
<g id="node2" class="node"><title>Node2</title>
<g id="a_node2"><a xlink:href="classXBot_1_1ConsoleLogger.html" target="_top" xlink:title="XBot::ConsoleLogger">
<polygon fill="none" stroke="black" points="110,-38.5 110,-57.5 220,-57.5 220,-38.5 110,-38.5"/>
<text text-anchor="middle" x="165" y="-45.5" font-family="Helvetica,sans-Serif" font-size="10.00">XBot::ConsoleLogger</text>
</a>
</g>
</g>
<!-- Node1&#45;&gt;Node2 -->
<g id="edge1" class="edge"><title>Node1&#45;&gt;Node2</title>
<path fill="none" stroke="midnightblue" d="M84.264,-35.9763C92.4932,-37.2172 101.133,-38.5201 109.565,-39.7915"/>
<polygon fill="midnightblue" stroke="midnightblue" points="84.5167,-32.4749 74.1065,-34.4446 83.4728,-39.3967 84.5167,-32.4749"/>
</g>
<!-- Node3 -->
<g id="node3" class="node"><title>Node3</title>
<g id="a_node3"><a xlink:href="classXBot_1_1FileLogger.html" target="_top" xlink:title="XBot::FileLogger">
<polygon fill="none" stroke="black" points="120.5,-0.5 120.5,-19.5 209.5,-19.5 209.5,-0.5 120.5,-0.5"/>
<text text-anchor="middle" x="165" y="-7.5" font-family="Helvetica,sans-Serif" font-size="10.00">XBot::FileLogger</text>
</a>
</g>
</g>
<!-- Node1&#45;&gt;Node3 -->
<g id="edge2" class="edge"><title>Node1&#45;&gt;Node3</title>
<path fill="none" stroke="midnightblue" d="M84.2026,-22.0329C95.9913,-20.2553 108.627,-18.35 120.286,-16.5917"/>
<polygon fill="midnightblue" stroke="midnightblue" points="83.4728,-18.6033 74.1065,-23.5554 84.5167,-25.5251 83.4728,-18.6033"/>
</g>
</g>
</svg>
