<?xml version="1.0" encoding="UTF-8" standalone="no"?>
<!DOCTYPE svg PUBLIC "-//W3C//DTD SVG 1.1//EN"
 "http://www.w3.org/Graphics/SVG/1.1/DTD/svg11.dtd">
<!-- Generated by graphviz version 2.38.0 (20140413.2041)
 -->
<!-- Title: Graphical Class Hierarchy Pages: 1 -->
<svg width="619pt" height="50pt"
 viewBox="0.00 0.00 619.00 50.00" xmlns="http://www.w3.org/2000/svg" xmlns:xlink="http://www.w3.org/1999/xlink">
<g id="graph0" class="graph" transform="scale(1 1) rotate(0) translate(4 46)">
<title>Graphical Class Hierarchy</title>
<!-- Node1 -->
<g id="node1" class="node"><title>Node1</title>
<g id="a_node1"><a xlink:href="classfmt_1_1ArgVisitor.html" target="_top" xlink:title="fmt::ArgVisitor\&lt; ArgFormatter\l\&lt; Char \&gt;, void \&gt;">
<polygon fill="none" stroke="black" points="0,-6 0,-36 146,-36 146,-6 0,-6"/>
<text text-anchor="start" x="8" y="-24" font-family="Helvetica,sans-Serif" font-size="10.00">fmt::ArgVisitor&lt; ArgFormatter</text>
<text text-anchor="middle" x="73" y="-13" font-family="Helvetica,sans-Serif" font-size="10.00">&lt; Char &gt;, void &gt;</text>
</a>
</g>
</g>
<!-- Node2 -->
<g id="node2" class="node"><title>Node2</title>
<g id="a_node2"><a xlink:href="classfmt_1_1internal_1_1ArgFormatterBase.html" target="_top" xlink:title="fmt::internal::ArgFormatter\lBase\&lt; ArgFormatter\&lt; Char\l \&gt;, Char \&gt;">
<polygon fill="none" stroke="black" points="182,-0.5 182,-41.5 317,-41.5 317,-0.5 182,-0.5"/>
<text text-anchor="start" x="190" y="-29.5" font-family="Helvetica,sans-Serif" font-size="10.00">fmt::internal::ArgFormatter</text>
<text text-anchor="start" x="190" y="-18.5" font-family="Helvetica,sans-Serif" font-size="10.00">Base&lt; ArgFormatter&lt; Char</text>
<text text-anchor="middle" x="249.5" y="-7.5" font-family="Helvetica,sans-Serif" font-size="10.00"> &gt;, Char &gt;</text>
</a>
</g>
</g>
<!-- Node1&#45;&gt;Node2 -->
<g id="edge1" class="edge"><title>Node1&#45;&gt;Node2</title>
<path fill="none" stroke="midnightblue" d="M156.273,-21C164.866,-21 173.524,-21 181.912,-21"/>
<polygon fill="midnightblue" stroke="midnightblue" points="156.235,-17.5001 146.235,-21 156.235,-24.5001 156.235,-17.5001"/>
</g>
<!-- Node3 -->
<g id="node3" class="node"><title>Node3</title>
<g id="a_node3"><a xlink:href="classfmt_1_1BasicArgFormatter.html" target="_top" xlink:title="fmt::BasicArgFormatter\l\&lt; ArgFormatter\&lt; Char \&gt;\l, Char \&gt;">
<polygon fill="none" stroke="black" points="353,-0.5 353,-41.5 475,-41.5 475,-0.5 353,-0.5"/>
<text text-anchor="start" x="361" y="-29.5" font-family="Helvetica,sans-Serif" font-size="10.00">fmt::BasicArgFormatter</text>
<text text-anchor="start" x="361" y="-18.5" font-family="Helvetica,sans-Serif" font-size="10.00">&lt; ArgFormatter&lt; Char &gt;</text>
<text text-anchor="middle" x="414" y="-7.5" font-family="Helvetica,sans-Serif" font-size="10.00">, Char &gt;</text>
</a>
</g>
</g>
<!-- Node2&#45;&gt;Node3 -->
<g id="edge2" class="edge"><title>Node2&#45;&gt;Node3</title>
<path fill="none" stroke="midnightblue" d="M327.126,-21C335.745,-21 344.434,-21 352.802,-21"/>
<polygon fill="midnightblue" stroke="midnightblue" points="327.064,-17.5001 317.064,-21 327.064,-24.5001 327.064,-17.5001"/>
</g>
<!-- Node4 -->
<g id="node4" class="node"><title>Node4</title>
<g id="a_node4"><a xlink:href="classfmt_1_1ArgFormatter.html" target="_top" xlink:title="The default argument formatter. ">
<polygon fill="none" stroke="black" points="511,-6 511,-36 611,-36 611,-6 511,-6"/>
<text text-anchor="start" x="519" y="-24" font-family="Helvetica,sans-Serif" font-size="10.00">fmt::ArgFormatter&lt;</text>
<text text-anchor="middle" x="561" y="-13" font-family="Helvetica,sans-Serif" font-size="10.00"> Char &gt;</text>
</a>
</g>
</g>
<!-- Node3&#45;&gt;Node4 -->
<g id="edge3" class="edge"><title>Node3&#45;&gt;Node4</title>
<path fill="none" stroke="midnightblue" d="M485.29,-21C493.897,-21 502.547,-21 510.752,-21"/>
<polygon fill="midnightblue" stroke="midnightblue" points="485.233,-17.5001 475.233,-21 485.233,-24.5001 485.233,-17.5001"/>
</g>
</g>
</svg>
