<?xml version="1.0" encoding="UTF-8" standalone="no"?>
<!DOCTYPE svg PUBLIC "-//W3C//DTD SVG 1.1//EN"
 "http://www.w3.org/Graphics/SVG/1.1/DTD/svg11.dtd">
<!-- Generated by graphviz version 2.38.0 (20140413.2041)
 -->
<!-- Title: Graphical Class Hierarchy Pages: 1 -->
<svg width="568pt" height="137pt"
 viewBox="0.00 0.00 568.00 137.00" xmlns="http://www.w3.org/2000/svg" xmlns:xlink="http://www.w3.org/1999/xlink">
<g id="graph0" class="graph" transform="scale(1 1) rotate(0) translate(4 133)">
<title>Graphical Class Hierarchy</title>
<!-- Node1 -->
<g id="node1" class="node"><title>Node1</title>
<g id="a_node1"><a xlink:href="structfmt_1_1internal_1_1Value.html" target="_top" xlink:title="fmt::internal::Value">
<polygon fill="none" stroke="black" points="0,-55 0,-74 99,-74 99,-55 0,-55"/>
<text text-anchor="middle" x="49.5" y="-62" font-family="Helvetica,sans-Serif" font-size="10.00">fmt::internal::Value</text>
</a>
</g>
</g>
<!-- Node2 -->
<g id="node2" class="node"><title>Node2</title>
<g id="a_node2"><a xlink:href="structfmt_1_1internal_1_1Arg.html" target="_top" xlink:title="fmt::internal::Arg">
<polygon fill="none" stroke="black" points="135,-55 135,-74 224,-74 224,-55 135,-55"/>
<text text-anchor="middle" x="179.5" y="-62" font-family="Helvetica,sans-Serif" font-size="10.00">fmt::internal::Arg</text>
</a>
</g>
</g>
<!-- Node1&#45;&gt;Node2 -->
<g id="edge1" class="edge"><title>Node1&#45;&gt;Node2</title>
<path fill="none" stroke="midnightblue" d="M109.286,-64.5C117.912,-64.5 126.665,-64.5 134.912,-64.5"/>
<polygon fill="midnightblue" stroke="midnightblue" points="109.256,-61.0001 99.2565,-64.5 109.256,-68.0001 109.256,-61.0001"/>
</g>
<!-- Node3 -->
<g id="node3" class="node"><title>Node3</title>
<g id="a_node3"><a xlink:href="classfmt_1_1internal_1_1MakeArg.html" target="_top" xlink:title="fmt::internal::MakeArg\l\&lt; Formatter \&gt;">
<polygon fill="none" stroke="black" points="265,-98.5 265,-128.5 378,-128.5 378,-98.5 265,-98.5"/>
<text text-anchor="start" x="273" y="-116.5" font-family="Helvetica,sans-Serif" font-size="10.00">fmt::internal::MakeArg</text>
<text text-anchor="middle" x="321.5" y="-105.5" font-family="Helvetica,sans-Serif" font-size="10.00">&lt; Formatter &gt;</text>
</a>
</g>
</g>
<!-- Node2&#45;&gt;Node3 -->
<g id="edge2" class="edge"><title>Node2&#45;&gt;Node3</title>
<path fill="none" stroke="midnightblue" d="M217.353,-77.3986C235.821,-83.8622 258.29,-91.7265 277.537,-98.463"/>
<polygon fill="midnightblue" stroke="midnightblue" points="218.421,-74.0641 207.826,-74.064 216.108,-80.6711 218.421,-74.0641"/>
</g>
<!-- Node4 -->
<g id="node4" class="node"><title>Node4</title>
<g id="a_node4"><a xlink:href="classfmt_1_1internal_1_1MakeValue.html" target="_top" xlink:title="fmt::internal::MakeValue\l\&lt; Formatter \&gt;">
<polygon fill="none" stroke="black" points="260,-49.5 260,-79.5 383,-79.5 383,-49.5 260,-49.5"/>
<text text-anchor="start" x="268" y="-67.5" font-family="Helvetica,sans-Serif" font-size="10.00">fmt::internal::MakeValue</text>
<text text-anchor="middle" x="321.5" y="-56.5" font-family="Helvetica,sans-Serif" font-size="10.00">&lt; Formatter &gt;</text>
</a>
</g>
</g>
<!-- Node2&#45;&gt;Node4 -->
<g id="edge3" class="edge"><title>Node2&#45;&gt;Node4</title>
<path fill="none" stroke="midnightblue" d="M234.08,-64.5C242.485,-64.5 251.225,-64.5 259.776,-64.5"/>
<polygon fill="midnightblue" stroke="midnightblue" points="234.029,-61.0001 224.029,-64.5 234.029,-68.0001 234.029,-61.0001"/>
</g>
<!-- Node5 -->
<g id="node5" class="node"><title>Node5</title>
<g id="a_node5"><a xlink:href="structfmt_1_1internal_1_1NamedArg.html" target="_top" xlink:title="fmt::internal::NamedArg\l\&lt; Char \&gt;">
<polygon fill="none" stroke="black" points="261,-0.5 261,-30.5 382,-30.5 382,-0.5 261,-0.5"/>
<text text-anchor="start" x="269" y="-18.5" font-family="Helvetica,sans-Serif" font-size="10.00">fmt::internal::NamedArg</text>
<text text-anchor="middle" x="321.5" y="-7.5" font-family="Helvetica,sans-Serif" font-size="10.00">&lt; Char &gt;</text>
</a>
</g>
</g>
<!-- Node2&#45;&gt;Node5 -->
<g id="edge4" class="edge"><title>Node2&#45;&gt;Node5</title>
<path fill="none" stroke="midnightblue" d="M217.353,-51.6014C235.821,-45.1378 258.29,-37.2735 277.537,-30.537"/>
<polygon fill="midnightblue" stroke="midnightblue" points="216.108,-48.3289 207.826,-54.936 218.421,-54.9359 216.108,-48.3289"/>
</g>
<!-- Node6 -->
<g id="node6" class="node"><title>Node6</title>
<g id="a_node6"><a xlink:href="structfmt_1_1internal_1_1NamedArgWithType.html" target="_top" xlink:title="fmt::internal::NamedArgWith\lType\&lt; Char, T \&gt;">
<polygon fill="none" stroke="black" points="419,-0.5 419,-30.5 560,-30.5 560,-0.5 419,-0.5"/>
<text text-anchor="start" x="427" y="-18.5" font-family="Helvetica,sans-Serif" font-size="10.00">fmt::internal::NamedArgWith</text>
<text text-anchor="middle" x="489.5" y="-7.5" font-family="Helvetica,sans-Serif" font-size="10.00">Type&lt; Char, T &gt;</text>
</a>
</g>
</g>
<!-- Node5&#45;&gt;Node6 -->
<g id="edge5" class="edge"><title>Node5&#45;&gt;Node6</title>
<path fill="none" stroke="midnightblue" d="M392.518,-15.5C401.208,-15.5 410.092,-15.5 418.778,-15.5"/>
<polygon fill="midnightblue" stroke="midnightblue" points="392.43,-12.0001 382.43,-15.5 392.43,-19.0001 392.43,-12.0001"/>
</g>
</g>
</svg>
