<?xml version="1.0" encoding="UTF-8" standalone="no"?>
<!DOCTYPE svg PUBLIC "-//W3C//DTD SVG 1.1//EN"
 "http://www.w3.org/Graphics/SVG/1.1/DTD/svg11.dtd">
<!-- Generated by graphviz version 2.38.0 (20140413.2041)
 -->
<!-- Title: /home/lucamuratore/advr&#45;superbuild/external/XBotInterface/include/XBotInterface/Joint.h Pages: 1 -->
<svg width="1010pt" height="240pt"
 viewBox="0.00 0.00 1009.53 240.00" xmlns="http://www.w3.org/2000/svg" xmlns:xlink="http://www.w3.org/1999/xlink">
<g id="graph0" class="graph" transform="scale(1 1) rotate(0) translate(4 236)">
<title>/home/lucamuratore/advr&#45;superbuild/external/XBotInterface/include/XBotInterface/Joint.h</title>
<!-- Node1 -->
<g id="node1" class="node"><title>Node1</title>
<polygon fill="#bfbfbf" stroke="black" points="336,-179.5 336,-231.5 512,-231.5 512,-179.5 336,-179.5"/>
<text text-anchor="start" x="344" y="-219.5" font-family="Helvetica,sans-Serif" font-size="10.00">/home/lucamuratore</text>
<text text-anchor="start" x="344" y="-208.5" font-family="Helvetica,sans-Serif" font-size="10.00">/advr&#45;superbuild/external</text>
<text text-anchor="start" x="344" y="-197.5" font-family="Helvetica,sans-Serif" font-size="10.00">/XBotInterface/include/XBotInterface</text>
<text text-anchor="middle" x="424" y="-186.5" font-family="Helvetica,sans-Serif" font-size="10.00">/Joint.h</text>
</g>
<!-- Node2 -->
<g id="node2" class="node"><title>Node2</title>
<polygon fill="none" stroke="#bfbfbf" points="461.5,-0.5 461.5,-19.5 502.5,-19.5 502.5,-0.5 461.5,-0.5"/>
<text text-anchor="middle" x="482" y="-7.5" font-family="Helvetica,sans-Serif" font-size="10.00">string</text>
</g>
<!-- Node1&#45;&gt;Node2 -->
<g id="edge1" class="edge"><title>Node1&#45;&gt;Node2</title>
<path fill="none" stroke="midnightblue" d="M460.494,-179.418C471.82,-169.524 482.918,-157.126 489,-143 505.198,-105.375 495.404,-56.0435 487.99,-29.6231"/>
<polygon fill="midnightblue" stroke="midnightblue" points="491.269,-28.3743 485.041,-19.8038 484.565,-30.3879 491.269,-28.3743"/>
</g>
<!-- Node3 -->
<g id="node3" class="node"><title>Node3</title>
<polygon fill="none" stroke="#bfbfbf" points="0,-0.5 0,-19.5 52,-19.5 52,-0.5 0,-0.5"/>
<text text-anchor="middle" x="26" y="-7.5" font-family="Helvetica,sans-Serif" font-size="10.00">memory</text>
</g>
<!-- Node1&#45;&gt;Node3 -->
<g id="edge2" class="edge"><title>Node1&#45;&gt;Node3</title>
<path fill="none" stroke="midnightblue" d="M335.671,-201.921C236.548,-197.074 84.4126,-183.125 45,-143 15.34,-112.804 18.3519,-58.4205 22.4983,-29.7933"/>
<polygon fill="midnightblue" stroke="midnightblue" points="26.0124,-29.9958 24.1942,-19.5581 19.1065,-28.8514 26.0124,-29.9958"/>
</g>
<!-- Node4 -->
<g id="node4" class="node"><title>Node4</title>
<polygon fill="none" stroke="#bfbfbf" points="532,-62 532,-81 586,-81 586,-62 532,-62"/>
<text text-anchor="middle" x="559" y="-69" font-family="Helvetica,sans-Serif" font-size="10.00">iostream</text>
</g>
<!-- Node1&#45;&gt;Node4 -->
<g id="edge3" class="edge"><title>Node1&#45;&gt;Node4</title>
<path fill="none" stroke="midnightblue" d="M476.012,-179.366C492.464,-169.648 509.783,-157.373 523,-143 536.923,-127.859 546.871,-106.324 552.733,-91.0473"/>
<polygon fill="midnightblue" stroke="midnightblue" points="556.181,-91.8047 556.278,-81.2103 549.595,-89.4316 556.181,-91.8047"/>
</g>
<!-- Node5 -->
<g id="node5" class="node"><title>Node5</title>
<polygon fill="none" stroke="#bfbfbf" points="367.5,-123.5 367.5,-142.5 480.5,-142.5 480.5,-123.5 367.5,-123.5"/>
<text text-anchor="middle" x="424" y="-130.5" font-family="Helvetica,sans-Serif" font-size="10.00">srdfdom_advr/model.h</text>
</g>
<!-- Node1&#45;&gt;Node5 -->
<g id="edge4" class="edge"><title>Node1&#45;&gt;Node5</title>
<path fill="none" stroke="midnightblue" d="M424,-179.446C424,-170.73 424,-161.104 424,-152.964"/>
<polygon fill="midnightblue" stroke="midnightblue" points="427.5,-152.695 424,-142.695 420.5,-152.696 427.5,-152.695"/>
</g>
<!-- Node6 -->
<g id="node6" class="node"><title>Node6</title>
<g id="a_node6"><a xlink:href="SyncFlags_8h.html" target="_top" xlink:title="XBotInterface/SyncFlags.h">
<polygon fill="none" stroke="black" points="54,-123.5 54,-142.5 188,-142.5 188,-123.5 54,-123.5"/>
<text text-anchor="middle" x="121" y="-130.5" font-family="Helvetica,sans-Serif" font-size="10.00">XBotInterface/SyncFlags.h</text>
</a>
</g>
</g>
<!-- Node1&#45;&gt;Node6 -->
<g id="edge5" class="edge"><title>Node1&#45;&gt;Node6</title>
<path fill="none" stroke="midnightblue" d="M335.953,-184.014C281,-171.228 212.453,-155.279 167.746,-144.877"/>
<polygon fill="midnightblue" stroke="midnightblue" points="168.284,-141.408 157.751,-142.551 166.698,-148.226 168.284,-141.408"/>
</g>
<!-- Node12 -->
<g id="node12" class="node"><title>Node12</title>
<g id="a_node12"><a xlink:href="table__printer_8h.html" target="_top" xlink:title="bprinter/table_printer.h">
<polygon fill="none" stroke="black" points="738.5,-123.5 738.5,-142.5 851.5,-142.5 851.5,-123.5 738.5,-123.5"/>
<text text-anchor="middle" x="795" y="-130.5" font-family="Helvetica,sans-Serif" font-size="10.00">bprinter/table_printer.h</text>
</a>
</g>
</g>
<!-- Node1&#45;&gt;Node12 -->
<g id="edge13" class="edge"><title>Node1&#45;&gt;Node12</title>
<path fill="none" stroke="midnightblue" d="M512.392,-187.703C583.101,-174.267 680.025,-155.848 740.022,-144.447"/>
<polygon fill="midnightblue" stroke="midnightblue" points="740.881,-147.847 750.052,-142.541 739.574,-140.97 740.881,-147.847"/>
</g>
<!-- Node18 -->
<g id="node18" class="node"><title>Node18</title>
<g id="a_node18"><a xlink:href="ControlMode_8h.html" target="_top" xlink:title="XBotInterface/ControlMode.h">
<polygon fill="none" stroke="black" points="206.5,-123.5 206.5,-142.5 349.5,-142.5 349.5,-123.5 206.5,-123.5"/>
<text text-anchor="middle" x="278" y="-130.5" font-family="Helvetica,sans-Serif" font-size="10.00">XBotInterface/ControlMode.h</text>
</a>
</g>
</g>
<!-- Node1&#45;&gt;Node18 -->
<g id="edge21" class="edge"><title>Node1&#45;&gt;Node18</title>
<path fill="none" stroke="midnightblue" d="M372.115,-179.446C349.361,-168.459 323.613,-156.026 304.808,-146.945"/>
<polygon fill="midnightblue" stroke="midnightblue" points="306.186,-143.724 295.659,-142.527 303.142,-150.027 306.186,-143.724"/>
</g>
<!-- Node7 -->
<g id="node7" class="node"><title>Node7</title>
<g id="a_node7"><a xlink:href="TypedefAndEnums_8h.html" target="_top" xlink:title="XBotInterface/TypedefAnd\lEnums.h">
<polygon fill="none" stroke="black" points="145,-56.5 145,-86.5 277,-86.5 277,-56.5 145,-56.5"/>
<text text-anchor="start" x="153" y="-74.5" font-family="Helvetica,sans-Serif" font-size="10.00">XBotInterface/TypedefAnd</text>
<text text-anchor="middle" x="211" y="-63.5" font-family="Helvetica,sans-Serif" font-size="10.00">Enums.h</text>
</a>
</g>
</g>
<!-- Node6&#45;&gt;Node7 -->
<g id="edge6" class="edge"><title>Node6&#45;&gt;Node7</title>
<path fill="none" stroke="midnightblue" d="M133.895,-123.475C146.198,-115.341 165.182,-102.791 181.234,-92.1788"/>
<polygon fill="midnightblue" stroke="midnightblue" points="183.377,-94.9575 189.789,-86.523 179.517,-89.1182 183.377,-94.9575"/>
</g>
<!-- Node7&#45;&gt;Node2 -->
<g id="edge9" class="edge"><title>Node7&#45;&gt;Node2</title>
<path fill="none" stroke="midnightblue" d="M274.88,-56.4747C330.537,-44.2548 408.818,-27.0677 451.431,-17.7116"/>
<polygon fill="midnightblue" stroke="midnightblue" points="452.195,-21.1274 461.212,-15.5642 450.694,-14.2902 452.195,-21.1274"/>
</g>
<!-- Node7&#45;&gt;Node3 -->
<g id="edge10" class="edge"><title>Node7&#45;&gt;Node3</title>
<path fill="none" stroke="midnightblue" d="M167.158,-56.3993C134.998,-46.0562 91.8698,-32.1851 61.7814,-22.5081"/>
<polygon fill="midnightblue" stroke="midnightblue" points="62.7035,-19.1281 52.1121,-19.3982 60.5602,-25.7919 62.7035,-19.1281"/>
</g>
<!-- Node8 -->
<g id="node8" class="node"><title>Node8</title>
<polygon fill="none" stroke="#bfbfbf" points="390.5,-0.5 390.5,-19.5 425.5,-19.5 425.5,-0.5 390.5,-0.5"/>
<text text-anchor="middle" x="408" y="-7.5" font-family="Helvetica,sans-Serif" font-size="10.00">map</text>
</g>
<!-- Node7&#45;&gt;Node8 -->
<g id="edge7" class="edge"><title>Node7&#45;&gt;Node8</title>
<path fill="none" stroke="midnightblue" d="M259.86,-56.4493C291.712,-47.1838 334.396,-34.5694 380.691,-20.0234"/>
<polygon fill="midnightblue" stroke="midnightblue" points="381.824,-23.336 390.308,-16.99 379.719,-16.6602 381.824,-23.336"/>
</g>
<!-- Node9 -->
<g id="node9" class="node"><title>Node9</title>
<polygon fill="none" stroke="#bfbfbf" points="70.5,-0.5 70.5,-19.5 153.5,-19.5 153.5,-0.5 70.5,-0.5"/>
<text text-anchor="middle" x="112" y="-7.5" font-family="Helvetica,sans-Serif" font-size="10.00">unordered_map</text>
</g>
<!-- Node7&#45;&gt;Node9 -->
<g id="edge8" class="edge"><title>Node7&#45;&gt;Node9</title>
<path fill="none" stroke="midnightblue" d="M187.538,-56.3993C171.669,-46.8619 150.809,-34.3248 135.032,-24.8422"/>
<polygon fill="midnightblue" stroke="midnightblue" points="136.779,-21.8093 126.405,-19.6578 133.174,-27.809 136.779,-21.8093"/>
</g>
<!-- Node10 -->
<g id="node10" class="node"><title>Node10</title>
<polygon fill="none" stroke="#bfbfbf" points="172,-0.5 172,-19.5 250,-19.5 250,-0.5 172,-0.5"/>
<text text-anchor="middle" x="211" y="-7.5" font-family="Helvetica,sans-Serif" font-size="10.00">boost/any.hpp</text>
</g>
<!-- Node7&#45;&gt;Node10 -->
<g id="edge11" class="edge"><title>Node7&#45;&gt;Node10</title>
<path fill="none" stroke="midnightblue" d="M211,-56.3993C211,-48.4664 211,-38.458 211,-29.8583"/>
<polygon fill="midnightblue" stroke="midnightblue" points="214.5,-29.6577 211,-19.6578 207.5,-29.6578 214.5,-29.6577"/>
</g>
<!-- Node11 -->
<g id="node11" class="node"><title>Node11</title>
<polygon fill="none" stroke="#bfbfbf" points="268,-0.5 268,-19.5 372,-19.5 372,-0.5 268,-0.5"/>
<text text-anchor="middle" x="320" y="-7.5" font-family="Helvetica,sans-Serif" font-size="10.00">eigen3/Eigen/Dense</text>
</g>
<!-- Node7&#45;&gt;Node11 -->
<g id="edge12" class="edge"><title>Node7&#45;&gt;Node11</title>
<path fill="none" stroke="midnightblue" d="M236.831,-56.3993C254.467,-46.7728 277.7,-34.0902 295.128,-24.5772"/>
<polygon fill="midnightblue" stroke="midnightblue" points="297.039,-27.5213 304.14,-19.6578 293.685,-21.3771 297.039,-27.5213"/>
</g>
<!-- Node12&#45;&gt;Node2 -->
<g id="edge17" class="edge"><title>Node12&#45;&gt;Node2</title>
<path fill="none" stroke="midnightblue" d="M851.631,-128.395C923.913,-121.789 1034.68,-103.714 991,-56 958.637,-20.6493 618.205,-12.9147 512.878,-11.3624"/>
<polygon fill="midnightblue" stroke="midnightblue" points="512.651,-7.85904 502.603,-11.2199 512.553,-14.8584 512.651,-7.85904"/>
</g>
<!-- Node12&#45;&gt;Node4 -->
<g id="edge14" class="edge"><title>Node12&#45;&gt;Node4</title>
<path fill="none" stroke="midnightblue" d="M747.15,-123.491C706.272,-115.688 646.138,-102.937 595,-87 592.72,-86.2896 590.382,-85.498 588.045,-84.6613"/>
<polygon fill="midnightblue" stroke="midnightblue" points="589.189,-81.3517 578.598,-81.0605 586.696,-87.8927 589.189,-81.3517"/>
</g>
<!-- Node13 -->
<g id="node13" class="node"><title>Node13</title>
<polygon fill="none" stroke="#bfbfbf" points="738,-62 738,-81 788,-81 788,-62 738,-62"/>
<text text-anchor="middle" x="763" y="-69" font-family="Helvetica,sans-Serif" font-size="10.00">iomanip</text>
</g>
<!-- Node12&#45;&gt;Node13 -->
<g id="edge15" class="edge"><title>Node12&#45;&gt;Node13</title>
<path fill="none" stroke="midnightblue" d="M790.415,-123.475C785.758,-114.815 778.408,-101.149 772.49,-90.1453"/>
<polygon fill="midnightblue" stroke="midnightblue" points="775.395,-88.1584 767.576,-81.0091 769.23,-91.474 775.395,-88.1584"/>
</g>
<!-- Node14 -->
<g id="node14" class="node"><title>Node14</title>
<polygon fill="none" stroke="#bfbfbf" points="806,-62 806,-81 850,-81 850,-62 806,-62"/>
<text text-anchor="middle" x="828" y="-69" font-family="Helvetica,sans-Serif" font-size="10.00">vector</text>
</g>
<!-- Node12&#45;&gt;Node14 -->
<g id="edge16" class="edge"><title>Node12&#45;&gt;Node14</title>
<path fill="none" stroke="midnightblue" d="M799.728,-123.475C804.58,-114.727 812.266,-100.869 818.4,-89.8093"/>
<polygon fill="midnightblue" stroke="midnightblue" points="821.491,-91.4517 823.281,-81.0091 815.37,-88.0566 821.491,-91.4517"/>
</g>
<!-- Node15 -->
<g id="node15" class="node"><title>Node15</title>
<polygon fill="none" stroke="#bfbfbf" points="868,-62 868,-81 920,-81 920,-62 868,-62"/>
<text text-anchor="middle" x="894" y="-69" font-family="Helvetica,sans-Serif" font-size="10.00">sstream</text>
</g>
<!-- Node12&#45;&gt;Node15 -->
<g id="edge18" class="edge"><title>Node12&#45;&gt;Node15</title>
<path fill="none" stroke="midnightblue" d="M809.184,-123.475C825.358,-113.755 852.026,-97.7266 871.143,-86.2372"/>
<polygon fill="midnightblue" stroke="midnightblue" points="873.074,-89.1603 879.842,-81.0091 869.468,-83.1606 873.074,-89.1603"/>
</g>
<!-- Node16 -->
<g id="node16" class="node"><title>Node16</title>
<polygon fill="none" stroke="#bfbfbf" points="938,-62 938,-81 982,-81 982,-62 938,-62"/>
<text text-anchor="middle" x="960" y="-69" font-family="Helvetica,sans-Serif" font-size="10.00">cmath</text>
</g>
<!-- Node12&#45;&gt;Node16 -->
<g id="edge19" class="edge"><title>Node12&#45;&gt;Node16</title>
<path fill="none" stroke="midnightblue" d="M823.572,-123.439C850.935,-114.999 893.23,-101.318 929,-87 930.379,-86.448 931.784,-85.8655 933.198,-85.2638"/>
<polygon fill="midnightblue" stroke="midnightblue" points="934.744,-88.4064 942.447,-81.1323 931.889,-82.015 934.744,-88.4064"/>
</g>
<!-- Node17 -->
<g id="node17" class="node"><title>Node17</title>
<g id="a_node17"><a xlink:href="table__printer_8tpp_8h.html" target="_top" xlink:title="impl/table_printer.tpp.h">
<polygon fill="none" stroke="black" points="604,-62 604,-81 720,-81 720,-62 604,-62"/>
<text text-anchor="middle" x="662" y="-69" font-family="Helvetica,sans-Serif" font-size="10.00">impl/table_printer.tpp.h</text>
</a>
</g>
</g>
<!-- Node12&#45;&gt;Node17 -->
<g id="edge20" class="edge"><title>Node12&#45;&gt;Node17</title>
<path fill="none" stroke="midnightblue" d="M775.944,-123.475C753.525,-113.445 716.095,-96.7002 690.287,-85.1546"/>
<polygon fill="midnightblue" stroke="midnightblue" points="691.578,-81.8979 681.02,-81.0091 688.719,-88.2877 691.578,-81.8979"/>
</g>
<!-- Node18&#45;&gt;Node2 -->
<g id="edge22" class="edge"><title>Node18&#45;&gt;Node2</title>
<path fill="none" stroke="midnightblue" d="M292.345,-123.492C327.083,-102.887 415.989,-50.1537 458.574,-24.8948"/>
<polygon fill="midnightblue" stroke="midnightblue" points="460.583,-27.7729 467.398,-19.661 457.012,-21.7523 460.583,-27.7729"/>
</g>
</g>
</svg>
