<?xml version="1.0" encoding="UTF-8" standalone="no"?>
<!DOCTYPE svg PUBLIC "-//W3C//DTD SVG 1.1//EN"
 "http://www.w3.org/Graphics/SVG/1.1/DTD/svg11.dtd">
<!-- Generated by graphviz version 2.38.0 (20140413.2041)
 -->
<!-- Title: /home/lucamuratore/advr&#45;superbuild/external/XBotInterface/include/XBotInterface/KinematicChain.h Pages: 1 -->
<svg width="1464pt" height="307pt"
 viewBox="0.00 0.00 1463.94 307.00" xmlns="http://www.w3.org/2000/svg" xmlns:xlink="http://www.w3.org/1999/xlink">
<g id="graph0" class="graph" transform="scale(1 1) rotate(0) translate(4 303)">
<title>/home/lucamuratore/advr&#45;superbuild/external/XBotInterface/include/XBotInterface/KinematicChain.h</title>
<!-- Node1 -->
<g id="node1" class="node"><title>Node1</title>
<polygon fill="#bfbfbf" stroke="black" points="767.5,-246.5 767.5,-298.5 943.5,-298.5 943.5,-246.5 767.5,-246.5"/>
<text text-anchor="start" x="775.5" y="-286.5" font-family="Helvetica,sans-Serif" font-size="10.00">/home/lucamuratore</text>
<text text-anchor="start" x="775.5" y="-275.5" font-family="Helvetica,sans-Serif" font-size="10.00">/advr&#45;superbuild/external</text>
<text text-anchor="start" x="775.5" y="-264.5" font-family="Helvetica,sans-Serif" font-size="10.00">/XBotInterface/include/XBotInterface</text>
<text text-anchor="middle" x="855.5" y="-253.5" font-family="Helvetica,sans-Serif" font-size="10.00">/KinematicChain.h</text>
</g>
<!-- Node2 -->
<g id="node2" class="node"><title>Node2</title>
<polygon fill="none" stroke="#bfbfbf" points="732,-0.5 732,-19.5 773,-19.5 773,-0.5 732,-0.5"/>
<text text-anchor="middle" x="752.5" y="-7.5" font-family="Helvetica,sans-Serif" font-size="10.00">string</text>
</g>
<!-- Node1&#45;&gt;Node2 -->
<g id="edge1" class="edge"><title>Node1&#45;&gt;Node2</title>
<path fill="none" stroke="midnightblue" d="M868.713,-246.189C889.272,-202.906 922.525,-113.76 881.5,-56 859.384,-24.8628 814.056,-15.0922 783.465,-12.1282"/>
<polygon fill="midnightblue" stroke="midnightblue" points="783.562,-8.62532 773.321,-11.3399 783.019,-15.6043 783.562,-8.62532"/>
</g>
<!-- Node3 -->
<g id="node3" class="node"><title>Node3</title>
<polygon fill="none" stroke="#bfbfbf" points="308.5,-62 308.5,-81 352.5,-81 352.5,-62 308.5,-62"/>
<text text-anchor="middle" x="330.5" y="-69" font-family="Helvetica,sans-Serif" font-size="10.00">vector</text>
</g>
<!-- Node1&#45;&gt;Node3 -->
<g id="edge2" class="edge"><title>Node1&#45;&gt;Node3</title>
<path fill="none" stroke="midnightblue" d="M767.278,-259.104C673.695,-243.068 523.986,-208.985 410.5,-143 384.879,-128.103 360.016,-104.267 344.983,-88.4979"/>
<polygon fill="midnightblue" stroke="midnightblue" points="347.445,-86.0057 338.066,-81.0773 342.325,-90.7787 347.445,-86.0057"/>
</g>
<!-- Node4 -->
<g id="node4" class="node"><title>Node4</title>
<polygon fill="none" stroke="#bfbfbf" points="0,-0.5 0,-19.5 35,-19.5 35,-0.5 0,-0.5"/>
<text text-anchor="middle" x="17.5" y="-7.5" font-family="Helvetica,sans-Serif" font-size="10.00">map</text>
</g>
<!-- Node1&#45;&gt;Node4 -->
<g id="edge3" class="edge"><title>Node1&#45;&gt;Node4</title>
<path fill="none" stroke="midnightblue" d="M767.199,-271.169C605.189,-269.339 267.442,-259.497 162.5,-210 84.6094,-173.263 39.5127,-71.104 23.8333,-29.2444"/>
<polygon fill="midnightblue" stroke="midnightblue" points="27.0979,-27.9799 20.4051,-19.7666 20.5152,-30.3609 27.0979,-27.9799"/>
</g>
<!-- Node5 -->
<g id="node5" class="node"><title>Node5</title>
<polygon fill="none" stroke="#bfbfbf" points="1082.5,-0.5 1082.5,-19.5 1134.5,-19.5 1134.5,-0.5 1082.5,-0.5"/>
<text text-anchor="middle" x="1108.5" y="-7.5" font-family="Helvetica,sans-Serif" font-size="10.00">memory</text>
</g>
<!-- Node1&#45;&gt;Node5 -->
<g id="edge4" class="edge"><title>Node1&#45;&gt;Node5</title>
<path fill="none" stroke="midnightblue" d="M943.586,-268.248C1066.15,-262.427 1280.71,-247.149 1348.5,-210 1410.78,-175.872 1426.4,-153.805 1450.5,-87 1455.17,-74.0395 1459.58,-66.3584 1450.5,-56 1430.52,-33.2241 1228.46,-18.339 1144.64,-13.1001"/>
<polygon fill="midnightblue" stroke="midnightblue" points="1144.75,-9.60054 1134.56,-12.481 1144.32,-16.5874 1144.75,-9.60054"/>
</g>
<!-- Node6 -->
<g id="node6" class="node"><title>Node6</title>
<polygon fill="none" stroke="#bfbfbf" points="818.5,-62 818.5,-81 872.5,-81 872.5,-62 818.5,-62"/>
<text text-anchor="middle" x="845.5" y="-69" font-family="Helvetica,sans-Serif" font-size="10.00">iostream</text>
</g>
<!-- Node1&#45;&gt;Node6 -->
<g id="edge5" class="edge"><title>Node1&#45;&gt;Node6</title>
<path fill="none" stroke="midnightblue" d="M854.233,-246.297C852.204,-205.905 848.267,-127.563 846.455,-91.5043"/>
<polygon fill="midnightblue" stroke="midnightblue" points="849.944,-91.1961 845.946,-81.3844 842.953,-91.5475 849.944,-91.1961"/>
</g>
<!-- Node7 -->
<g id="node7" class="node"><title>Node7</title>
<polygon fill="none" stroke="#bfbfbf" points="53.5,-0.5 53.5,-19.5 157.5,-19.5 157.5,-0.5 53.5,-0.5"/>
<text text-anchor="middle" x="105.5" y="-7.5" font-family="Helvetica,sans-Serif" font-size="10.00">eigen3/Eigen/Dense</text>
</g>
<!-- Node1&#45;&gt;Node7 -->
<g id="edge6" class="edge"><title>Node1&#45;&gt;Node7</title>
<path fill="none" stroke="midnightblue" d="M767.342,-269.62C589.234,-263.792 196.231,-239.986 111.5,-143 83.9186,-111.43 92.657,-57.6691 99.9169,-29.4859"/>
<polygon fill="midnightblue" stroke="midnightblue" points="103.324,-30.2991 102.641,-19.7262 96.5814,-28.4169 103.324,-30.2991"/>
</g>
<!-- Node8 -->
<g id="node8" class="node"><title>Node8</title>
<g id="a_node8"><a xlink:href="Joint_8h.html" target="_top" xlink:title="XBotInterface/Joint.h">
<polygon fill="none" stroke="black" points="615,-185 615,-204 724,-204 724,-185 615,-185"/>
<text text-anchor="middle" x="669.5" y="-192" font-family="Helvetica,sans-Serif" font-size="10.00">XBotInterface/Joint.h</text>
</a>
</g>
</g>
<!-- Node1&#45;&gt;Node8 -->
<g id="edge7" class="edge"><title>Node1&#45;&gt;Node8</title>
<path fill="none" stroke="midnightblue" d="M794.081,-246.404C762.507,-233.503 725.421,-218.35 699.972,-207.951"/>
<polygon fill="midnightblue" stroke="midnightblue" points="701.074,-204.62 690.493,-204.078 698.426,-211.1 701.074,-204.62"/>
</g>
<!-- Node20 -->
<g id="node20" class="node"><title>Node20</title>
<polygon fill="none" stroke="#bfbfbf" points="1092.5,-185 1092.5,-204 1186.5,-204 1186.5,-185 1092.5,-185"/>
<text text-anchor="middle" x="1139.5" y="-192" font-family="Helvetica,sans-Serif" font-size="10.00">XBotCoreModel.h</text>
</g>
<!-- Node1&#45;&gt;Node20 -->
<g id="edge30" class="edge"><title>Node1&#45;&gt;Node20</title>
<path fill="none" stroke="midnightblue" d="M943.803,-247.87C995.14,-234.132 1057.46,-217.455 1097.77,-206.668"/>
<polygon fill="midnightblue" stroke="midnightblue" points="1098.77,-210.024 1107.52,-204.058 1096.96,-203.262 1098.77,-210.024"/>
</g>
<!-- Node21 -->
<g id="node21" class="node"><title>Node21</title>
<g id="a_node21"><a xlink:href="ForceTorqueSensor_8h.html" target="_top" xlink:title="XBotInterface/ForceTorque\lSensor.h">
<polygon fill="none" stroke="black" points="940.5,-179.5 940.5,-209.5 1074.5,-209.5 1074.5,-179.5 940.5,-179.5"/>
<text text-anchor="start" x="948.5" y="-197.5" font-family="Helvetica,sans-Serif" font-size="10.00">XBotInterface/ForceTorque</text>
<text text-anchor="middle" x="1007.5" y="-186.5" font-family="Helvetica,sans-Serif" font-size="10.00">Sensor.h</text>
</a>
</g>
</g>
<!-- Node1&#45;&gt;Node21 -->
<g id="edge31" class="edge"><title>Node1&#45;&gt;Node21</title>
<path fill="none" stroke="midnightblue" d="M905.692,-246.404C926.648,-235.926 950.575,-223.963 969.965,-214.267"/>
<polygon fill="midnightblue" stroke="midnightblue" points="971.708,-217.309 979.087,-209.707 968.577,-211.048 971.708,-217.309"/>
</g>
<!-- Node26 -->
<g id="node26" class="node"><title>Node26</title>
<g id="a_node26"><a xlink:href="ImuSensor_8h.html" target="_top" xlink:title="XBotInterface/ImuSensor.h">
<polygon fill="none" stroke="black" points="1205,-185 1205,-204 1340,-204 1340,-185 1205,-185"/>
<text text-anchor="middle" x="1272.5" y="-192" font-family="Helvetica,sans-Serif" font-size="10.00">XBotInterface/ImuSensor.h</text>
</a>
</g>
</g>
<!-- Node1&#45;&gt;Node26 -->
<g id="edge46" class="edge"><title>Node1&#45;&gt;Node26</title>
<path fill="none" stroke="midnightblue" d="M943.59,-255.745C1012.25,-243.422 1109.97,-225.789 1195.5,-210 1202.58,-208.693 1210.03,-207.306 1217.38,-205.929"/>
<polygon fill="midnightblue" stroke="midnightblue" points="1218.13,-209.349 1227.32,-204.065 1216.84,-202.469 1218.13,-209.349"/>
</g>
<!-- Node8&#45;&gt;Node2 -->
<g id="edge8" class="edge"><title>Node8&#45;&gt;Node2</title>
<path fill="none" stroke="midnightblue" d="M614.653,-191.423C490.669,-184.897 206.581,-158.607 299.5,-56 327.847,-24.6972 624.636,-14.296 721.856,-11.715"/>
<polygon fill="midnightblue" stroke="midnightblue" points="722.016,-15.2121 731.923,-11.457 721.837,-8.2144 722.016,-15.2121"/>
</g>
<!-- Node8&#45;&gt;Node5 -->
<g id="edge9" class="edge"><title>Node8&#45;&gt;Node5</title>
<path fill="none" stroke="midnightblue" d="M675.236,-184.871C692.287,-160.006 745.486,-87.9458 809.5,-56 855.07,-33.2583 1003.34,-19.1384 1072.44,-13.6357"/>
<polygon fill="midnightblue" stroke="midnightblue" points="1072.73,-17.1234 1082.43,-12.8563 1072.19,-10.1446 1072.73,-17.1234"/>
</g>
<!-- Node8&#45;&gt;Node6 -->
<g id="edge10" class="edge"><title>Node8&#45;&gt;Node6</title>
<path fill="none" stroke="midnightblue" d="M681.876,-184.992C711.594,-164.56 787.263,-112.538 824.355,-87.0374"/>
<polygon fill="midnightblue" stroke="midnightblue" points="826.645,-89.7105 832.902,-81.161 822.679,-83.9422 826.645,-89.7105"/>
</g>
<!-- Node9 -->
<g id="node9" class="node"><title>Node9</title>
<polygon fill="none" stroke="#bfbfbf" points="967,-62 967,-81 1080,-81 1080,-62 967,-62"/>
<text text-anchor="middle" x="1023.5" y="-69" font-family="Helvetica,sans-Serif" font-size="10.00">srdfdom_advr/model.h</text>
</g>
<!-- Node8&#45;&gt;Node9 -->
<g id="edge11" class="edge"><title>Node8&#45;&gt;Node9</title>
<path fill="none" stroke="midnightblue" d="M694.393,-184.992C756.193,-163.868 916.79,-108.974 988.282,-84.5378"/>
<polygon fill="midnightblue" stroke="midnightblue" points="989.831,-87.7073 998.161,-81.161 987.567,-81.0836 989.831,-87.7073"/>
</g>
<!-- Node10 -->
<g id="node10" class="node"><title>Node10</title>
<g id="a_node10"><a xlink:href="SyncFlags_8h.html" target="_top" xlink:title="XBotInterface/SyncFlags.h">
<polygon fill="none" stroke="black" points="120.5,-123.5 120.5,-142.5 254.5,-142.5 254.5,-123.5 120.5,-123.5"/>
<text text-anchor="middle" x="187.5" y="-130.5" font-family="Helvetica,sans-Serif" font-size="10.00">XBotInterface/SyncFlags.h</text>
</a>
</g>
</g>
<!-- Node8&#45;&gt;Node10 -->
<g id="edge12" class="edge"><title>Node8&#45;&gt;Node10</title>
<path fill="none" stroke="midnightblue" d="M614.678,-186.733C528.887,-176.142 362.616,-155.617 264.735,-143.534"/>
<polygon fill="midnightblue" stroke="midnightblue" points="264.961,-140.036 254.607,-142.284 264.103,-146.983 264.961,-140.036"/>
</g>
<!-- Node14 -->
<g id="node14" class="node"><title>Node14</title>
<g id="a_node14"><a xlink:href="table__printer_8h.html" target="_top" xlink:title="bprinter/table_printer.h">
<polygon fill="none" stroke="black" points="420,-123.5 420,-142.5 533,-142.5 533,-123.5 420,-123.5"/>
<text text-anchor="middle" x="476.5" y="-130.5" font-family="Helvetica,sans-Serif" font-size="10.00">bprinter/table_printer.h</text>
</a>
</g>
</g>
<!-- Node8&#45;&gt;Node14 -->
<g id="edge20" class="edge"><title>Node8&#45;&gt;Node14</title>
<path fill="none" stroke="midnightblue" d="M641.848,-184.975C608.312,-174.636 551.627,-157.161 514.132,-145.602"/>
<polygon fill="midnightblue" stroke="midnightblue" points="514.688,-142.111 504.101,-142.509 512.626,-148.8 514.688,-142.111"/>
</g>
<!-- Node19 -->
<g id="node19" class="node"><title>Node19</title>
<g id="a_node19"><a xlink:href="ControlMode_8h.html" target="_top" xlink:title="XBotInterface/ControlMode.h">
<polygon fill="none" stroke="black" points="551,-123.5 551,-142.5 694,-142.5 694,-123.5 551,-123.5"/>
<text text-anchor="middle" x="622.5" y="-130.5" font-family="Helvetica,sans-Serif" font-size="10.00">XBotInterface/ControlMode.h</text>
</a>
</g>
</g>
<!-- Node8&#45;&gt;Node19 -->
<g id="edge28" class="edge"><title>Node8&#45;&gt;Node19</title>
<path fill="none" stroke="midnightblue" d="M662.766,-184.975C655.716,-176.05 644.465,-161.807 635.646,-150.643"/>
<polygon fill="midnightblue" stroke="midnightblue" points="638.167,-148.187 629.221,-142.509 632.674,-152.526 638.167,-148.187"/>
</g>
<!-- Node11 -->
<g id="node11" class="node"><title>Node11</title>
<g id="a_node11"><a xlink:href="TypedefAndEnums_8h.html" target="_top" xlink:title="XBotInterface/TypedefAnd\lEnums.h">
<polygon fill="none" stroke="black" points="120.5,-56.5 120.5,-86.5 252.5,-86.5 252.5,-56.5 120.5,-56.5"/>
<text text-anchor="start" x="128.5" y="-74.5" font-family="Helvetica,sans-Serif" font-size="10.00">XBotInterface/TypedefAnd</text>
<text text-anchor="middle" x="186.5" y="-63.5" font-family="Helvetica,sans-Serif" font-size="10.00">Enums.h</text>
</a>
</g>
</g>
<!-- Node10&#45;&gt;Node11 -->
<g id="edge13" class="edge"><title>Node10&#45;&gt;Node11</title>
<path fill="none" stroke="midnightblue" d="M187.357,-123.475C187.239,-116.471 187.066,-106.192 186.907,-96.6956"/>
<polygon fill="midnightblue" stroke="midnightblue" points="190.403,-96.4627 186.736,-86.523 183.404,-96.5804 190.403,-96.4627"/>
</g>
<!-- Node11&#45;&gt;Node2 -->
<g id="edge16" class="edge"><title>Node11&#45;&gt;Node2</title>
<path fill="none" stroke="midnightblue" d="M252.783,-58.0278C257.418,-57.2968 262.025,-56.6116 266.5,-56 437.693,-32.6051 644.509,-17.9292 721.586,-12.9254"/>
<polygon fill="midnightblue" stroke="midnightblue" points="721.829,-16.4171 731.584,-12.2836 721.38,-9.43149 721.829,-16.4171"/>
</g>
<!-- Node11&#45;&gt;Node4 -->
<g id="edge14" class="edge"><title>Node11&#45;&gt;Node4</title>
<path fill="none" stroke="midnightblue" d="M146.449,-56.3993C115.118,-45.3684 72.3884,-30.3246 44.8676,-20.6353"/>
<polygon fill="midnightblue" stroke="midnightblue" points="45.7149,-17.2231 35.1201,-17.2035 43.3902,-23.8259 45.7149,-17.2231"/>
</g>
<!-- Node11&#45;&gt;Node5 -->
<g id="edge17" class="edge"><title>Node11&#45;&gt;Node5</title>
<path fill="none" stroke="midnightblue" d="M252.737,-61.1894C268.068,-59.2598 284.334,-57.393 299.5,-56 597.025,-28.672 957.74,-15.7144 1071.98,-12.0932"/>
<polygon fill="midnightblue" stroke="midnightblue" points="1072.37,-15.5828 1082.26,-11.7718 1072.15,-8.58627 1072.37,-15.5828"/>
</g>
<!-- Node11&#45;&gt;Node7 -->
<g id="edge19" class="edge"><title>Node11&#45;&gt;Node7</title>
<path fill="none" stroke="midnightblue" d="M167.304,-56.3993C154.684,-47.1293 138.207,-35.0254 125.439,-25.6469"/>
<polygon fill="midnightblue" stroke="midnightblue" points="127.418,-22.7572 117.286,-19.6578 123.273,-28.3987 127.418,-22.7572"/>
</g>
<!-- Node12 -->
<g id="node12" class="node"><title>Node12</title>
<polygon fill="none" stroke="#bfbfbf" points="176,-0.5 176,-19.5 259,-19.5 259,-0.5 176,-0.5"/>
<text text-anchor="middle" x="217.5" y="-7.5" font-family="Helvetica,sans-Serif" font-size="10.00">unordered_map</text>
</g>
<!-- Node11&#45;&gt;Node12 -->
<g id="edge15" class="edge"><title>Node11&#45;&gt;Node12</title>
<path fill="none" stroke="midnightblue" d="M193.847,-56.3993C198.165,-48.1098 203.665,-37.5542 208.274,-28.7077"/>
<polygon fill="midnightblue" stroke="midnightblue" points="211.473,-30.1435 212.989,-19.6578 205.265,-26.9091 211.473,-30.1435"/>
</g>
<!-- Node13 -->
<g id="node13" class="node"><title>Node13</title>
<polygon fill="none" stroke="#bfbfbf" points="277.5,-0.5 277.5,-19.5 355.5,-19.5 355.5,-0.5 277.5,-0.5"/>
<text text-anchor="middle" x="316.5" y="-7.5" font-family="Helvetica,sans-Serif" font-size="10.00">boost/any.hpp</text>
</g>
<!-- Node11&#45;&gt;Node13 -->
<g id="edge18" class="edge"><title>Node11&#45;&gt;Node13</title>
<path fill="none" stroke="midnightblue" d="M217.308,-56.3993C238.828,-46.55 267.337,-33.5014 288.268,-23.9217"/>
<polygon fill="midnightblue" stroke="midnightblue" points="289.948,-27.0021 297.584,-19.6578 287.034,-20.6371 289.948,-27.0021"/>
</g>
<!-- Node14&#45;&gt;Node2 -->
<g id="edge24" class="edge"><title>Node14&#45;&gt;Node2</title>
<path fill="none" stroke="midnightblue" d="M527.472,-123.486C587.662,-113.128 681.424,-95.9231 695.5,-87 717.858,-72.8273 734.586,-46.5525 743.955,-28.9214"/>
<polygon fill="midnightblue" stroke="midnightblue" points="747.23,-30.2009 748.609,-19.6961 740.98,-27.0484 747.23,-30.2009"/>
</g>
<!-- Node14&#45;&gt;Node3 -->
<g id="edge23" class="edge"><title>Node14&#45;&gt;Node3</title>
<path fill="none" stroke="midnightblue" d="M453.413,-123.467C430.065,-114.721 393.025,-100.524 361.5,-87 360.302,-86.4861 359.082,-85.9538 357.852,-85.4101"/>
<polygon fill="midnightblue" stroke="midnightblue" points="358.995,-82.0849 348.443,-81.132 356.097,-88.4572 358.995,-82.0849"/>
</g>
<!-- Node14&#45;&gt;Node6 -->
<g id="edge21" class="edge"><title>Node14&#45;&gt;Node6</title>
<path fill="none" stroke="midnightblue" d="M529.369,-123.475C605.033,-111.274 742.328,-89.1362 808.235,-78.5089"/>
<polygon fill="midnightblue" stroke="midnightblue" points="808.864,-81.9527 818.179,-76.9054 807.75,-75.042 808.864,-81.9527"/>
</g>
<!-- Node15 -->
<g id="node15" class="node"><title>Node15</title>
<polygon fill="none" stroke="#bfbfbf" points="370.5,-62 370.5,-81 420.5,-81 420.5,-62 370.5,-62"/>
<text text-anchor="middle" x="395.5" y="-69" font-family="Helvetica,sans-Serif" font-size="10.00">iomanip</text>
</g>
<!-- Node14&#45;&gt;Node15 -->
<g id="edge22" class="edge"><title>Node14&#45;&gt;Node15</title>
<path fill="none" stroke="midnightblue" d="M464.895,-123.475C452.023,-114.02 431.026,-98.5961 415.494,-87.1871"/>
<polygon fill="midnightblue" stroke="midnightblue" points="417.215,-84.1085 407.084,-81.0091 413.071,-89.75 417.215,-84.1085"/>
</g>
<!-- Node16 -->
<g id="node16" class="node"><title>Node16</title>
<polygon fill="none" stroke="#bfbfbf" points="438.5,-62 438.5,-81 490.5,-81 490.5,-62 438.5,-62"/>
<text text-anchor="middle" x="464.5" y="-69" font-family="Helvetica,sans-Serif" font-size="10.00">sstream</text>
</g>
<!-- Node14&#45;&gt;Node16 -->
<g id="edge25" class="edge"><title>Node14&#45;&gt;Node16</title>
<path fill="none" stroke="midnightblue" d="M474.781,-123.475C473.07,-114.992 470.39,-101.704 468.195,-90.8222"/>
<polygon fill="midnightblue" stroke="midnightblue" points="471.624,-90.1197 466.216,-81.0091 464.762,-91.5037 471.624,-90.1197"/>
</g>
<!-- Node17 -->
<g id="node17" class="node"><title>Node17</title>
<polygon fill="none" stroke="#bfbfbf" points="508.5,-62 508.5,-81 552.5,-81 552.5,-62 508.5,-62"/>
<text text-anchor="middle" x="530.5" y="-69" font-family="Helvetica,sans-Serif" font-size="10.00">cmath</text>
</g>
<!-- Node14&#45;&gt;Node17 -->
<g id="edge26" class="edge"><title>Node14&#45;&gt;Node17</title>
<path fill="none" stroke="midnightblue" d="M484.237,-123.475C492.497,-114.373 505.777,-99.741 515.994,-88.483"/>
<polygon fill="midnightblue" stroke="midnightblue" points="518.649,-90.7663 522.777,-81.0091 513.465,-86.0619 518.649,-90.7663"/>
</g>
<!-- Node18 -->
<g id="node18" class="node"><title>Node18</title>
<g id="a_node18"><a xlink:href="table__printer_8tpp_8h.html" target="_top" xlink:title="impl/table_printer.tpp.h">
<polygon fill="none" stroke="black" points="570.5,-62 570.5,-81 686.5,-81 686.5,-62 570.5,-62"/>
<text text-anchor="middle" x="628.5" y="-69" font-family="Helvetica,sans-Serif" font-size="10.00">impl/table_printer.tpp.h</text>
</a>
</g>
</g>
<!-- Node14&#45;&gt;Node18 -->
<g id="edge27" class="edge"><title>Node14&#45;&gt;Node18</title>
<path fill="none" stroke="midnightblue" d="M498.278,-123.475C524.238,-113.313 567.811,-96.2564 597.335,-84.6996"/>
<polygon fill="midnightblue" stroke="midnightblue" points="598.726,-87.9135 606.763,-81.0091 596.175,-81.3951 598.726,-87.9135"/>
</g>
<!-- Node19&#45;&gt;Node2 -->
<g id="edge29" class="edge"><title>Node19&#45;&gt;Node2</title>
<path fill="none" stroke="midnightblue" d="M663.375,-123.473C685.41,-116.924 711.492,-105.717 728.5,-87 742.865,-71.1915 748.633,-46.8121 750.948,-29.9475"/>
<polygon fill="midnightblue" stroke="midnightblue" points="754.464,-29.9893 752.062,-19.6702 747.505,-29.2345 754.464,-29.9893"/>
</g>
<!-- Node21&#45;&gt;Node2 -->
<g id="edge32" class="edge"><title>Node21&#45;&gt;Node2</title>
<path fill="none" stroke="midnightblue" d="M1001.95,-179.389C990.202,-151.417 960.122,-88.8137 914.5,-56 874.878,-27.5018 817.906,-17.0336 783.15,-13.2003"/>
<polygon fill="midnightblue" stroke="midnightblue" points="783.416,-9.70959 773.121,-12.211 782.729,-16.6758 783.416,-9.70959"/>
</g>
<!-- Node21&#45;&gt;Node5 -->
<g id="edge33" class="edge"><title>Node21&#45;&gt;Node5</title>
<path fill="none" stroke="midnightblue" d="M1044.28,-179.467C1060.71,-171.307 1078.77,-159.353 1089.5,-143 1112.4,-108.112 1112.47,-56.9132 1110.51,-29.6686"/>
<polygon fill="midnightblue" stroke="midnightblue" points="1113.98,-29.2236 1109.6,-19.5763 1107.01,-29.849 1113.98,-29.2236"/>
</g>
<!-- Node21&#45;&gt;Node6 -->
<g id="edge34" class="edge"><title>Node21&#45;&gt;Node6</title>
<path fill="none" stroke="midnightblue" d="M987.143,-179.351C972.862,-169.345 953.381,-155.534 936.5,-143 911.266,-124.263 882.693,-101.941 864.407,-87.5102"/>
<polygon fill="midnightblue" stroke="midnightblue" points="866.33,-84.569 856.316,-81.1099 861.987,-90.059 866.33,-84.569"/>
</g>
<!-- Node21&#45;&gt;Node9 -->
<g id="edge38" class="edge"><title>Node21&#45;&gt;Node9</title>
<path fill="none" stroke="midnightblue" d="M1006.24,-179.358C1005.26,-165.054 1004.51,-142.353 1007.5,-123 1009.2,-112.038 1012.84,-100.196 1016.23,-90.7361"/>
<polygon fill="midnightblue" stroke="midnightblue" points="1019.56,-91.8334 1019.82,-81.2419 1013.01,-89.356 1019.56,-91.8334"/>
</g>
<!-- Node22 -->
<g id="node22" class="node"><title>Node22</title>
<polygon fill="none" stroke="#bfbfbf" points="1016.5,-123.5 1016.5,-142.5 1080.5,-142.5 1080.5,-123.5 1016.5,-123.5"/>
<text text-anchor="middle" x="1048.5" y="-130.5" font-family="Helvetica,sans-Serif" font-size="10.00">kdl/kdl.hpp</text>
</g>
<!-- Node21&#45;&gt;Node22 -->
<g id="edge35" class="edge"><title>Node21&#45;&gt;Node22</title>
<path fill="none" stroke="midnightblue" d="M1017.22,-179.399C1023.05,-170.932 1030.52,-160.099 1036.69,-151.139"/>
<polygon fill="midnightblue" stroke="midnightblue" points="1039.74,-152.878 1042.53,-142.658 1033.98,-148.906 1039.74,-152.878"/>
</g>
<!-- Node23 -->
<g id="node23" class="node"><title>Node23</title>
<polygon fill="none" stroke="#bfbfbf" points="1136.5,-56.5 1136.5,-86.5 1260.5,-86.5 1260.5,-56.5 1136.5,-56.5"/>
<text text-anchor="start" x="1144.5" y="-74.5" font-family="Helvetica,sans-Serif" font-size="10.00">eigen_conversions/eigen</text>
<text text-anchor="middle" x="1198.5" y="-63.5" font-family="Helvetica,sans-Serif" font-size="10.00">_kdl.h</text>
</g>
<!-- Node21&#45;&gt;Node23 -->
<g id="edge36" class="edge"><title>Node21&#45;&gt;Node23</title>
<path fill="none" stroke="midnightblue" d="M1048.31,-179.426C1071.09,-170.644 1099.44,-158.136 1122.5,-143 1143.64,-129.124 1164.47,-109.242 1178.96,-94.1274"/>
<polygon fill="midnightblue" stroke="midnightblue" points="1181.63,-96.3982 1185.93,-86.7148 1176.53,-91.6037 1181.63,-96.3982"/>
</g>
<!-- Node24 -->
<g id="node24" class="node"><title>Node24</title>
<polygon fill="none" stroke="#bfbfbf" points="1355,-62 1355,-81 1442,-81 1442,-62 1355,-62"/>
<text text-anchor="middle" x="1398.5" y="-69" font-family="Helvetica,sans-Serif" font-size="10.00">Eigen/Geometry</text>
</g>
<!-- Node21&#45;&gt;Node24 -->
<g id="edge37" class="edge"><title>Node21&#45;&gt;Node24</title>
<path fill="none" stroke="midnightblue" d="M1074.61,-180.517C1077.61,-179.993 1080.58,-179.484 1083.5,-179 1195.97,-160.311 1237.39,-197.578 1337.5,-143 1360.07,-130.695 1378.11,-106.521 1388.56,-89.9427"/>
<polygon fill="midnightblue" stroke="midnightblue" points="1391.66,-91.5806 1393.81,-81.2064 1385.66,-87.9752 1391.66,-91.5806"/>
</g>
<!-- Node25 -->
<g id="node25" class="node"><title>Node25</title>
<g id="a_node25"><a xlink:href="GenericSensor_8h.html" target="_top" xlink:title="XBotInterface/GenericSensor.h">
<polygon fill="none" stroke="black" points="1176.5,-123.5 1176.5,-142.5 1328.5,-142.5 1328.5,-123.5 1176.5,-123.5"/>
<text text-anchor="middle" x="1252.5" y="-130.5" font-family="Helvetica,sans-Serif" font-size="10.00">XBotInterface/GenericSensor.h</text>
</a>
</g>
</g>
<!-- Node21&#45;&gt;Node25 -->
<g id="edge39" class="edge"><title>Node21&#45;&gt;Node25</title>
<path fill="none" stroke="midnightblue" d="M1065.25,-179.475C1108.81,-168.896 1167.7,-154.595 1207.72,-144.874"/>
<polygon fill="midnightblue" stroke="midnightblue" points="1208.58,-148.268 1217.47,-142.506 1206.93,-141.465 1208.58,-148.268"/>
</g>
<!-- Node25&#45;&gt;Node2 -->
<g id="edge40" class="edge"><title>Node25&#45;&gt;Node2</title>
<path fill="none" stroke="midnightblue" d="M1258.77,-123.226C1269.09,-107.628 1286.86,-74.936 1269.5,-56 1236.54,-20.0439 889.365,-12.7185 783.182,-11.3149"/>
<polygon fill="midnightblue" stroke="midnightblue" points="783.159,-7.81441 773.117,-11.1903 783.073,-14.8139 783.159,-7.81441"/>
</g>
<!-- Node25&#45;&gt;Node5 -->
<g id="edge41" class="edge"><title>Node25&#45;&gt;Node5</title>
<path fill="none" stroke="midnightblue" d="M1267.45,-123.474C1279.43,-115.702 1295.37,-103.002 1302.5,-87 1308.11,-74.414 1311.07,-66.787 1302.5,-56 1283.17,-31.6757 1195.37,-19.3262 1144.76,-14.1263"/>
<polygon fill="midnightblue" stroke="midnightblue" points="1144.86,-10.6191 1134.57,-13.1234 1144.18,-17.5855 1144.86,-10.6191"/>
</g>
<!-- Node25&#45;&gt;Node6 -->
<g id="edge42" class="edge"><title>Node25&#45;&gt;Node6</title>
<path fill="none" stroke="midnightblue" d="M1194.19,-123.475C1109.3,-111.066 954.102,-88.3767 882.946,-77.9743"/>
<polygon fill="midnightblue" stroke="midnightblue" points="883.074,-74.4559 872.673,-76.4724 882.061,-81.3823 883.074,-74.4559"/>
</g>
<!-- Node25&#45;&gt;Node9 -->
<g id="edge45" class="edge"><title>Node25&#45;&gt;Node9</title>
<path fill="none" stroke="midnightblue" d="M1219.69,-123.475C1179.3,-112.982 1110.62,-95.1367 1066.17,-83.587"/>
<polygon fill="midnightblue" stroke="midnightblue" points="1066.81,-80.1364 1056.25,-81.0091 1065.05,-86.9114 1066.81,-80.1364"/>
</g>
<!-- Node25&#45;&gt;Node23 -->
<g id="edge44" class="edge"><title>Node25&#45;&gt;Node23</title>
<path fill="none" stroke="midnightblue" d="M1244.76,-123.475C1237.79,-115.793 1227.24,-104.172 1217.98,-93.9643"/>
<polygon fill="midnightblue" stroke="midnightblue" points="1220.54,-91.5758 1211.23,-86.523 1215.36,-96.2802 1220.54,-91.5758"/>
</g>
<!-- Node25&#45;&gt;Node24 -->
<g id="edge43" class="edge"><title>Node25&#45;&gt;Node24</title>
<path fill="none" stroke="midnightblue" d="M1273.42,-123.475C1298.25,-113.357 1339.84,-96.4046 1368.19,-84.8507"/>
<polygon fill="midnightblue" stroke="midnightblue" points="1369.68,-88.0243 1377.62,-81.0091 1367.04,-81.5419 1369.68,-88.0243"/>
</g>
<!-- Node26&#45;&gt;Node24 -->
<g id="edge48" class="edge"><title>Node26&#45;&gt;Node24</title>
<path fill="none" stroke="midnightblue" d="M1301.65,-184.984C1323.52,-177.241 1352.79,-163.802 1371.5,-143 1384.62,-128.414 1391.63,-106.785 1395.18,-91.3344"/>
<polygon fill="midnightblue" stroke="midnightblue" points="1398.65,-91.8608 1397.2,-81.3649 1391.79,-90.4708 1398.65,-91.8608"/>
</g>
<!-- Node26&#45;&gt;Node25 -->
<g id="edge47" class="edge"><title>Node26&#45;&gt;Node25</title>
<path fill="none" stroke="midnightblue" d="M1269.63,-184.975C1266.78,-176.492 1262.32,-163.204 1258.66,-152.322"/>
<polygon fill="midnightblue" stroke="midnightblue" points="1261.86,-150.873 1255.36,-142.509 1255.23,-153.103 1261.86,-150.873"/>
</g>
</g>
</svg>
