<?xml version="1.0" encoding="UTF-8" standalone="no"?>
<!DOCTYPE svg PUBLIC "-//W3C//DTD SVG 1.1//EN"
 "http://www.w3.org/Graphics/SVG/1.1/DTD/svg11.dtd">
<!-- Generated by graphviz version 2.38.0 (20140413.2041)
 -->
<!-- Title: /home/lucamuratore/advr&#45;superbuild/external/XBotInterface/include/spdlog/details/log_msg.h Pages: 1 -->
<svg width="1517pt" height="1218pt"
 viewBox="0.00 0.00 1516.50 1218.00" xmlns="http://www.w3.org/2000/svg" xmlns:xlink="http://www.w3.org/1999/xlink">
<g id="graph0" class="graph" transform="scale(1 1) rotate(0) translate(4 1214)">
<title>/home/lucamuratore/advr&#45;superbuild/external/XBotInterface/include/spdlog/details/log_msg.h</title>
<!-- Node1 -->
<g id="node1" class="node"><title>Node1</title>
<polygon fill="#bfbfbf" stroke="black" points="815,-1157.5 815,-1209.5 960,-1209.5 960,-1157.5 815,-1157.5"/>
<text text-anchor="start" x="823" y="-1197.5" font-family="Helvetica,sans-Serif" font-size="10.00">/home/lucamuratore</text>
<text text-anchor="start" x="823" y="-1186.5" font-family="Helvetica,sans-Serif" font-size="10.00">/advr&#45;superbuild/external</text>
<text text-anchor="start" x="823" y="-1175.5" font-family="Helvetica,sans-Serif" font-size="10.00">/XBotInterface/include/spdlog</text>
<text text-anchor="middle" x="887.5" y="-1164.5" font-family="Helvetica,sans-Serif" font-size="10.00">/details/log_msg.h</text>
</g>
<!-- Node2 -->
<g id="node2" class="node"><title>Node2</title>
<g id="a_node2"><a xlink:href="async__log__helper_8h.html" target="_top" xlink:title="/home/lucamuratore\l/advr&#45;superbuild/external\l/XBotInterface/include/spdlog\l/details/async_log_helper.h">
<polygon fill="none" stroke="black" points="602,-890.5 602,-942.5 747,-942.5 747,-890.5 602,-890.5"/>
<text text-anchor="start" x="610" y="-930.5" font-family="Helvetica,sans-Serif" font-size="10.00">/home/lucamuratore</text>
<text text-anchor="start" x="610" y="-919.5" font-family="Helvetica,sans-Serif" font-size="10.00">/advr&#45;superbuild/external</text>
<text text-anchor="start" x="610" y="-908.5" font-family="Helvetica,sans-Serif" font-size="10.00">/XBotInterface/include/spdlog</text>
<text text-anchor="middle" x="674.5" y="-897.5" font-family="Helvetica,sans-Serif" font-size="10.00">/details/async_log_helper.h</text>
</a>
</g>
</g>
<!-- Node1&#45;&gt;Node2 -->
<g id="edge1" class="edge"><title>Node1&#45;&gt;Node2</title>
<path fill="none" stroke="midnightblue" d="M804.838,-1172.67C741.816,-1163.27 662.534,-1146.68 642.5,-1121 601.477,-1068.41 637.209,-984.439 659.634,-942.723"/>
<polygon fill="midnightblue" stroke="midnightblue" points="804.403,-1176.14 814.802,-1174.11 805.409,-1169.21 804.403,-1176.14"/>
</g>
<!-- Node21 -->
<g id="node21" class="node"><title>Node21</title>
<g id="a_node21"><a xlink:href="file__helper_8h.html" target="_top" xlink:title="/home/lucamuratore\l/advr&#45;superbuild/external\l/XBotInterface/include/spdlog\l/details/file_helper.h">
<polygon fill="none" stroke="black" points="1017,-1068.5 1017,-1120.5 1162,-1120.5 1162,-1068.5 1017,-1068.5"/>
<text text-anchor="start" x="1025" y="-1108.5" font-family="Helvetica,sans-Serif" font-size="10.00">/home/lucamuratore</text>
<text text-anchor="start" x="1025" y="-1097.5" font-family="Helvetica,sans-Serif" font-size="10.00">/advr&#45;superbuild/external</text>
<text text-anchor="start" x="1025" y="-1086.5" font-family="Helvetica,sans-Serif" font-size="10.00">/XBotInterface/include/spdlog</text>
<text text-anchor="middle" x="1089.5" y="-1075.5" font-family="Helvetica,sans-Serif" font-size="10.00">/details/file_helper.h</text>
</a>
</g>
</g>
<!-- Node1&#45;&gt;Node21 -->
<g id="edge24" class="edge"><title>Node1&#45;&gt;Node21</title>
<path fill="none" stroke="midnightblue" d="M954.983,-1153.44C979.745,-1142.77 1007.54,-1130.8 1031.41,-1120.52"/>
<polygon fill="midnightblue" stroke="midnightblue" points="953.456,-1150.28 945.656,-1157.45 956.225,-1156.71 953.456,-1150.28"/>
</g>
<!-- Node23 -->
<g id="node23" class="node"><title>Node23</title>
<g id="a_node23"><a xlink:href="pattern__formatter__impl_8h.html" target="_top" xlink:title="/home/lucamuratore\l/advr&#45;superbuild/external\l/XBotInterface/include/spdlog\l/details/pattern_formatter_impl.h">
<polygon fill="none" stroke="black" points="652,-1068.5 652,-1120.5 809,-1120.5 809,-1068.5 652,-1068.5"/>
<text text-anchor="start" x="660" y="-1108.5" font-family="Helvetica,sans-Serif" font-size="10.00">/home/lucamuratore</text>
<text text-anchor="start" x="660" y="-1097.5" font-family="Helvetica,sans-Serif" font-size="10.00">/advr&#45;superbuild/external</text>
<text text-anchor="start" x="660" y="-1086.5" font-family="Helvetica,sans-Serif" font-size="10.00">/XBotInterface/include/spdlog</text>
<text text-anchor="middle" x="730.5" y="-1075.5" font-family="Helvetica,sans-Serif" font-size="10.00">/details/pattern_formatter_impl.h</text>
</a>
</g>
</g>
<!-- Node1&#45;&gt;Node23 -->
<g id="edge27" class="edge"><title>Node1&#45;&gt;Node23</title>
<path fill="none" stroke="midnightblue" d="M833.097,-1152.35C814.407,-1142 793.698,-1130.52 775.809,-1120.61"/>
<polygon fill="midnightblue" stroke="midnightblue" points="831.646,-1155.55 842.089,-1157.34 835.039,-1149.43 831.646,-1155.55"/>
</g>
<!-- Node24 -->
<g id="node24" class="node"><title>Node24</title>
<g id="a_node24"><a xlink:href="formatter_8h.html" target="_top" xlink:title="/home/lucamuratore\l/advr&#45;superbuild/external\l/XBotInterface/include/spdlog\l/formatter.h">
<polygon fill="none" stroke="black" points="652,-979.5 652,-1031.5 797,-1031.5 797,-979.5 652,-979.5"/>
<text text-anchor="start" x="660" y="-1019.5" font-family="Helvetica,sans-Serif" font-size="10.00">/home/lucamuratore</text>
<text text-anchor="start" x="660" y="-1008.5" font-family="Helvetica,sans-Serif" font-size="10.00">/advr&#45;superbuild/external</text>
<text text-anchor="start" x="660" y="-997.5" font-family="Helvetica,sans-Serif" font-size="10.00">/XBotInterface/include/spdlog</text>
<text text-anchor="middle" x="724.5" y="-986.5" font-family="Helvetica,sans-Serif" font-size="10.00">/formatter.h</text>
</a>
</g>
</g>
<!-- Node1&#45;&gt;Node24 -->
<g id="edge48" class="edge"><title>Node1&#45;&gt;Node24</title>
<path fill="none" stroke="midnightblue" d="M871.457,-1147.93C859.061,-1123.68 840.211,-1091.53 817.5,-1068 804.058,-1054.07 786.927,-1041.64 771.04,-1031.66"/>
<polygon fill="midnightblue" stroke="midnightblue" points="868.45,-1149.74 876.046,-1157.12 874.714,-1146.61 868.45,-1149.74"/>
</g>
<!-- Node25 -->
<g id="node25" class="node"><title>Node25</title>
<g id="a_node25"><a xlink:href="base__sink_8h.html" target="_top" xlink:title="/home/lucamuratore\l/advr&#45;superbuild/external\l/XBotInterface/include/spdlog\l/sinks/base_sink.h">
<polygon fill="none" stroke="black" points="815,-890.5 815,-942.5 960,-942.5 960,-890.5 815,-890.5"/>
<text text-anchor="start" x="823" y="-930.5" font-family="Helvetica,sans-Serif" font-size="10.00">/home/lucamuratore</text>
<text text-anchor="start" x="823" y="-919.5" font-family="Helvetica,sans-Serif" font-size="10.00">/advr&#45;superbuild/external</text>
<text text-anchor="start" x="823" y="-908.5" font-family="Helvetica,sans-Serif" font-size="10.00">/XBotInterface/include/spdlog</text>
<text text-anchor="middle" x="887.5" y="-897.5" font-family="Helvetica,sans-Serif" font-size="10.00">/sinks/base_sink.h</text>
</a>
</g>
</g>
<!-- Node1&#45;&gt;Node25 -->
<g id="edge49" class="edge"><title>Node1&#45;&gt;Node25</title>
<path fill="none" stroke="midnightblue" d="M911.896,-1148.91C931.532,-1119.67 957.592,-1075.29 968.5,-1032 974.256,-1009.16 978.972,-1000.1 968.5,-979 961.2,-964.291 948.514,-952.153 935.319,-942.659"/>
<polygon fill="midnightblue" stroke="midnightblue" points="908.789,-1147.26 906.032,-1157.49 914.567,-1151.21 908.789,-1147.26"/>
</g>
<!-- Node29 -->
<g id="node29" class="node"><title>Node29</title>
<g id="a_node29"><a xlink:href="dist__sink_8h.html" target="_top" xlink:title="/home/lucamuratore\l/advr&#45;superbuild/external\l/XBotInterface/include/spdlog\l/sinks/dist_sink.h">
<polygon fill="none" stroke="black" points="1180,-801.5 1180,-853.5 1325,-853.5 1325,-801.5 1180,-801.5"/>
<text text-anchor="start" x="1188" y="-841.5" font-family="Helvetica,sans-Serif" font-size="10.00">/home/lucamuratore</text>
<text text-anchor="start" x="1188" y="-830.5" font-family="Helvetica,sans-Serif" font-size="10.00">/advr&#45;superbuild/external</text>
<text text-anchor="start" x="1188" y="-819.5" font-family="Helvetica,sans-Serif" font-size="10.00">/XBotInterface/include/spdlog</text>
<text text-anchor="middle" x="1252.5" y="-808.5" font-family="Helvetica,sans-Serif" font-size="10.00">/sinks/dist_sink.h</text>
</a>
</g>
</g>
<!-- Node1&#45;&gt;Node29 -->
<g id="edge50" class="edge"><title>Node1&#45;&gt;Node29</title>
<path fill="none" stroke="midnightblue" d="M970.363,-1173.98C1043.22,-1164.83 1141.97,-1147.88 1170.5,-1121 1247.46,-1048.48 1254.17,-910.134 1253.46,-853.557"/>
<polygon fill="midnightblue" stroke="midnightblue" points="969.764,-1170.52 960.264,-1175.22 970.616,-1177.47 969.764,-1170.52"/>
</g>
<!-- Node34 -->
<g id="node34" class="node"><title>Node34</title>
<g id="a_node34"><a xlink:href="sink_8h.html" target="_top" xlink:title="/home/lucamuratore\l/advr&#45;superbuild/external\l/XBotInterface/include/spdlog\l/sinks/sink.h">
<polygon fill="none" stroke="black" points="815,-979.5 815,-1031.5 960,-1031.5 960,-979.5 815,-979.5"/>
<text text-anchor="start" x="823" y="-1019.5" font-family="Helvetica,sans-Serif" font-size="10.00">/home/lucamuratore</text>
<text text-anchor="start" x="823" y="-1008.5" font-family="Helvetica,sans-Serif" font-size="10.00">/advr&#45;superbuild/external</text>
<text text-anchor="start" x="823" y="-997.5" font-family="Helvetica,sans-Serif" font-size="10.00">/XBotInterface/include/spdlog</text>
<text text-anchor="middle" x="887.5" y="-986.5" font-family="Helvetica,sans-Serif" font-size="10.00">/sinks/sink.h</text>
</a>
</g>
</g>
<!-- Node1&#45;&gt;Node34 -->
<g id="edge51" class="edge"><title>Node1&#45;&gt;Node34</title>
<path fill="none" stroke="midnightblue" d="M887.5,-1147.25C887.5,-1113.04 887.5,-1061.97 887.5,-1031.67"/>
<polygon fill="midnightblue" stroke="midnightblue" points="884,-1147.28 887.5,-1157.28 891,-1147.28 884,-1147.28"/>
</g>
<!-- Node3 -->
<g id="node3" class="node"><title>Node3</title>
<g id="a_node3"><a xlink:href="async__logger__impl_8h.html" target="_top" xlink:title="/home/lucamuratore\l/advr&#45;superbuild/external\l/XBotInterface/include/spdlog\l/details/async_logger_impl.h">
<polygon fill="none" stroke="black" points="0,-801.5 0,-853.5 145,-853.5 145,-801.5 0,-801.5"/>
<text text-anchor="start" x="8" y="-841.5" font-family="Helvetica,sans-Serif" font-size="10.00">/home/lucamuratore</text>
<text text-anchor="start" x="8" y="-830.5" font-family="Helvetica,sans-Serif" font-size="10.00">/advr&#45;superbuild/external</text>
<text text-anchor="start" x="8" y="-819.5" font-family="Helvetica,sans-Serif" font-size="10.00">/XBotInterface/include/spdlog</text>
<text text-anchor="middle" x="72.5" y="-808.5" font-family="Helvetica,sans-Serif" font-size="10.00">/details/async_logger_impl.h</text>
</a>
</g>
</g>
<!-- Node2&#45;&gt;Node3 -->
<g id="edge2" class="edge"><title>Node2&#45;&gt;Node3</title>
<path fill="none" stroke="midnightblue" d="M591.67,-910.532C488.228,-903.23 306.263,-886.759 153.5,-854 150.761,-853.413 147.983,-852.772 145.185,-852.089"/>
<polygon fill="midnightblue" stroke="midnightblue" points="591.52,-914.03 601.739,-911.231 592.005,-907.047 591.52,-914.03"/>
</g>
<!-- Node4 -->
<g id="node4" class="node"><title>Node4</title>
<g id="a_node4"><a xlink:href="async__logger_8h.html" target="_top" xlink:title="/home/lucamuratore\l/advr&#45;superbuild/external\l/XBotInterface/include/spdlog\l/async_logger.h">
<polygon fill="none" stroke="black" points="16,-712.5 16,-764.5 161,-764.5 161,-712.5 16,-712.5"/>
<text text-anchor="start" x="24" y="-752.5" font-family="Helvetica,sans-Serif" font-size="10.00">/home/lucamuratore</text>
<text text-anchor="start" x="24" y="-741.5" font-family="Helvetica,sans-Serif" font-size="10.00">/advr&#45;superbuild/external</text>
<text text-anchor="start" x="24" y="-730.5" font-family="Helvetica,sans-Serif" font-size="10.00">/XBotInterface/include/spdlog</text>
<text text-anchor="middle" x="88.5" y="-719.5" font-family="Helvetica,sans-Serif" font-size="10.00">/async_logger.h</text>
</a>
</g>
</g>
<!-- Node3&#45;&gt;Node4 -->
<g id="edge3" class="edge"><title>Node3&#45;&gt;Node4</title>
<path fill="none" stroke="midnightblue" d="M72.3512,-791.191C73.7531,-782.282 75.6323,-772.899 77.7002,-764.607"/>
<polygon fill="midnightblue" stroke="midnightblue" points="68.8511,-790.95 70.9419,-801.336 75.7846,-791.913 68.8511,-790.95"/>
</g>
<!-- Node4&#45;&gt;Node3 -->
<g id="edge4" class="edge"><title>Node4&#45;&gt;Node3</title>
<path fill="none" stroke="midnightblue" d="M88.6584,-774.749C87.2586,-783.655 85.381,-793.04 83.3139,-801.336"/>
<polygon fill="midnightblue" stroke="midnightblue" points="92.1578,-774.993 90.0648,-764.607 85.2242,-774.032 92.1578,-774.993"/>
</g>
<!-- Node5 -->
<g id="node5" class="node"><title>Node5</title>
<g id="a_node5"><a xlink:href="registry_8h.html" target="_top" xlink:title="/home/lucamuratore\l/advr&#45;superbuild/external\l/XBotInterface/include/spdlog\l/details/registry.h">
<polygon fill="none" stroke="black" points="249,-623.5 249,-675.5 394,-675.5 394,-623.5 249,-623.5"/>
<text text-anchor="start" x="257" y="-663.5" font-family="Helvetica,sans-Serif" font-size="10.00">/home/lucamuratore</text>
<text text-anchor="start" x="257" y="-652.5" font-family="Helvetica,sans-Serif" font-size="10.00">/advr&#45;superbuild/external</text>
<text text-anchor="start" x="257" y="-641.5" font-family="Helvetica,sans-Serif" font-size="10.00">/XBotInterface/include/spdlog</text>
<text text-anchor="middle" x="321.5" y="-630.5" font-family="Helvetica,sans-Serif" font-size="10.00">/details/registry.h</text>
</a>
</g>
</g>
<!-- Node4&#45;&gt;Node5 -->
<g id="edge5" class="edge"><title>Node4&#45;&gt;Node5</title>
<path fill="none" stroke="midnightblue" d="M165.209,-708.858C194.053,-698.087 226.596,-685.936 254.49,-675.521"/>
<polygon fill="midnightblue" stroke="midnightblue" points="163.725,-705.676 155.581,-712.453 166.173,-712.234 163.725,-705.676"/>
</g>
<!-- Node6 -->
<g id="node6" class="node"><title>Node6</title>
<g id="a_node6"><a xlink:href="spdlog__impl_8h.html" target="_top" xlink:title="/home/lucamuratore\l/advr&#45;superbuild/external\l/XBotInterface/include/spdlog\l/details/spdlog_impl.h">
<polygon fill="none" stroke="black" points="815,-534.5 815,-586.5 960,-586.5 960,-534.5 815,-534.5"/>
<text text-anchor="start" x="823" y="-574.5" font-family="Helvetica,sans-Serif" font-size="10.00">/home/lucamuratore</text>
<text text-anchor="start" x="823" y="-563.5" font-family="Helvetica,sans-Serif" font-size="10.00">/advr&#45;superbuild/external</text>
<text text-anchor="start" x="823" y="-552.5" font-family="Helvetica,sans-Serif" font-size="10.00">/XBotInterface/include/spdlog</text>
<text text-anchor="middle" x="887.5" y="-541.5" font-family="Helvetica,sans-Serif" font-size="10.00">/details/spdlog_impl.h</text>
</a>
</g>
</g>
<!-- Node5&#45;&gt;Node6 -->
<g id="edge6" class="edge"><title>Node5&#45;&gt;Node6</title>
<path fill="none" stroke="midnightblue" d="M404.165,-635.794C514.867,-618.777 709.515,-588.858 814.86,-572.665"/>
<polygon fill="midnightblue" stroke="midnightblue" points="403.399,-632.37 394.047,-637.349 404.463,-639.289 403.399,-632.37"/>
</g>
<!-- Node7 -->
<g id="node7" class="node"><title>Node7</title>
<g id="a_node7"><a xlink:href="spdlog_8h.html" target="_top" xlink:title="/home/lucamuratore\l/advr&#45;superbuild/external\l/XBotInterface/include/spdlog\l/spdlog.h">
<polygon fill="none" stroke="black" points="815,-445.5 815,-497.5 960,-497.5 960,-445.5 815,-445.5"/>
<text text-anchor="start" x="823" y="-485.5" font-family="Helvetica,sans-Serif" font-size="10.00">/home/lucamuratore</text>
<text text-anchor="start" x="823" y="-474.5" font-family="Helvetica,sans-Serif" font-size="10.00">/advr&#45;superbuild/external</text>
<text text-anchor="start" x="823" y="-463.5" font-family="Helvetica,sans-Serif" font-size="10.00">/XBotInterface/include/spdlog</text>
<text text-anchor="middle" x="887.5" y="-452.5" font-family="Helvetica,sans-Serif" font-size="10.00">/spdlog.h</text>
</a>
</g>
</g>
<!-- Node6&#45;&gt;Node7 -->
<g id="edge7" class="edge"><title>Node6&#45;&gt;Node7</title>
<path fill="none" stroke="midnightblue" d="M880.858,-524.191C880.621,-515.282 880.775,-505.899 881.318,-497.607"/>
<polygon fill="midnightblue" stroke="midnightblue" points="877.368,-524.503 881.314,-534.336 884.361,-524.189 877.368,-524.503"/>
</g>
<!-- Node7&#45;&gt;Node6 -->
<g id="edge8" class="edge"><title>Node7&#45;&gt;Node6</title>
<path fill="none" stroke="midnightblue" d="M894.141,-507.749C894.379,-516.655 894.227,-526.04 893.686,-534.336"/>
<polygon fill="midnightblue" stroke="midnightblue" points="897.631,-507.439 893.682,-497.607 890.638,-507.755 897.631,-507.439"/>
</g>
<!-- Node8 -->
<g id="node8" class="node"><title>Node8</title>
<g id="a_node8"><a xlink:href="Logger_8hpp.html" target="_top" xlink:title="/home/lucamuratore\l/advr&#45;superbuild/external\l/XBotInterface/include/XBotInterface\l/Logger.hpp">
<polygon fill="none" stroke="black" points="799.5,-356.5 799.5,-408.5 975.5,-408.5 975.5,-356.5 799.5,-356.5"/>
<text text-anchor="start" x="807.5" y="-396.5" font-family="Helvetica,sans-Serif" font-size="10.00">/home/lucamuratore</text>
<text text-anchor="start" x="807.5" y="-385.5" font-family="Helvetica,sans-Serif" font-size="10.00">/advr&#45;superbuild/external</text>
<text text-anchor="start" x="807.5" y="-374.5" font-family="Helvetica,sans-Serif" font-size="10.00">/XBotInterface/include/XBotInterface</text>
<text text-anchor="middle" x="887.5" y="-363.5" font-family="Helvetica,sans-Serif" font-size="10.00">/Logger.hpp</text>
</a>
</g>
</g>
<!-- Node7&#45;&gt;Node8 -->
<g id="edge9" class="edge"><title>Node7&#45;&gt;Node8</title>
<path fill="none" stroke="midnightblue" d="M887.5,-435.191C887.5,-426.282 887.5,-416.899 887.5,-408.607"/>
<polygon fill="midnightblue" stroke="midnightblue" points="884,-435.336 887.5,-445.336 891,-435.336 884,-435.336"/>
</g>
<!-- Node9 -->
<g id="node9" class="node"><title>Node9</title>
<g id="a_node9"><a xlink:href="ConfigHelper_8h.html" target="_top" xlink:title="/home/lucamuratore\l/advr&#45;superbuild/external\l/XBotInterface/include/XBotInterface\l/ConfigHelper.h">
<polygon fill="none" stroke="black" points="625.5,-267.5 625.5,-319.5 801.5,-319.5 801.5,-267.5 625.5,-267.5"/>
<text text-anchor="start" x="633.5" y="-307.5" font-family="Helvetica,sans-Serif" font-size="10.00">/home/lucamuratore</text>
<text text-anchor="start" x="633.5" y="-296.5" font-family="Helvetica,sans-Serif" font-size="10.00">/advr&#45;superbuild/external</text>
<text text-anchor="start" x="633.5" y="-285.5" font-family="Helvetica,sans-Serif" font-size="10.00">/XBotInterface/include/XBotInterface</text>
<text text-anchor="middle" x="713.5" y="-274.5" font-family="Helvetica,sans-Serif" font-size="10.00">/ConfigHelper.h</text>
</a>
</g>
</g>
<!-- Node8&#45;&gt;Node9 -->
<g id="edge10" class="edge"><title>Node8&#45;&gt;Node9</title>
<path fill="none" stroke="midnightblue" d="M828.053,-351.776C807.119,-341.309 783.812,-329.656 763.715,-319.607"/>
<polygon fill="midnightblue" stroke="midnightblue" points="826.662,-354.994 837.172,-356.336 829.793,-348.733 826.662,-354.994"/>
</g>
<!-- Node11 -->
<g id="node11" class="node"><title>Node11</title>
<g id="a_node11"><a xlink:href="StateMachine_8h.html" target="_top" xlink:title="/home/lucamuratore\l/advr&#45;superbuild/external\l/XBotInterface/include/XBotInterface\l/StateMachine.h">
<polygon fill="none" stroke="black" points="741.5,-0.5 741.5,-52.5 917.5,-52.5 917.5,-0.5 741.5,-0.5"/>
<text text-anchor="start" x="749.5" y="-40.5" font-family="Helvetica,sans-Serif" font-size="10.00">/home/lucamuratore</text>
<text text-anchor="start" x="749.5" y="-29.5" font-family="Helvetica,sans-Serif" font-size="10.00">/advr&#45;superbuild/external</text>
<text text-anchor="start" x="749.5" y="-18.5" font-family="Helvetica,sans-Serif" font-size="10.00">/XBotInterface/include/XBotInterface</text>
<text text-anchor="middle" x="829.5" y="-7.5" font-family="Helvetica,sans-Serif" font-size="10.00">/StateMachine.h</text>
</a>
</g>
</g>
<!-- Node8&#45;&gt;Node11 -->
<g id="edge12" class="edge"><title>Node8&#45;&gt;Node11</title>
<path fill="none" stroke="midnightblue" d="M862.554,-347.628C857.363,-339.01 852.549,-329.489 849.5,-320 818.984,-225.018 823.472,-104.019 827.252,-52.5184"/>
<polygon fill="midnightblue" stroke="midnightblue" points="859.717,-349.69 868.041,-356.244 865.621,-345.93 859.717,-349.69"/>
</g>
<!-- Node12 -->
<g id="node12" class="node"><title>Node12</title>
<g id="a_node12"><a xlink:href="XBotInterface_8h.html" target="_top" xlink:title="/home/lucamuratore\l/advr&#45;superbuild/external\l/XBotInterface/include/XBotInterface\l/XBotInterface.h">
<polygon fill="none" stroke="black" points="858.5,-267.5 858.5,-319.5 1034.5,-319.5 1034.5,-267.5 858.5,-267.5"/>
<text text-anchor="start" x="866.5" y="-307.5" font-family="Helvetica,sans-Serif" font-size="10.00">/home/lucamuratore</text>
<text text-anchor="start" x="866.5" y="-296.5" font-family="Helvetica,sans-Serif" font-size="10.00">/advr&#45;superbuild/external</text>
<text text-anchor="start" x="866.5" y="-285.5" font-family="Helvetica,sans-Serif" font-size="10.00">/XBotInterface/include/XBotInterface</text>
<text text-anchor="middle" x="946.5" y="-274.5" font-family="Helvetica,sans-Serif" font-size="10.00">/XBotInterface.h</text>
</a>
</g>
</g>
<!-- Node8&#45;&gt;Node12 -->
<g id="edge13" class="edge"><title>Node8&#45;&gt;Node12</title>
<path fill="none" stroke="midnightblue" d="M910.268,-347.927C916.653,-338.511 923.484,-328.439 929.473,-319.607"/>
<polygon fill="midnightblue" stroke="midnightblue" points="907.281,-346.095 904.565,-356.336 913.075,-350.024 907.281,-346.095"/>
</g>
<!-- Node20 -->
<g id="node20" class="node"><title>Node20</title>
<g id="a_node20"><a xlink:href="Logger_8cpp.html" target="_top" xlink:title="/home/lucamuratore\l/advr&#45;superbuild/external\l/XBotInterface/src/Logger.cpp">
<polygon fill="none" stroke="black" points="1053,-273 1053,-314 1200,-314 1200,-273 1053,-273"/>
<text text-anchor="start" x="1061" y="-302" font-family="Helvetica,sans-Serif" font-size="10.00">/home/lucamuratore</text>
<text text-anchor="start" x="1061" y="-291" font-family="Helvetica,sans-Serif" font-size="10.00">/advr&#45;superbuild/external</text>
<text text-anchor="middle" x="1126.5" y="-280" font-family="Helvetica,sans-Serif" font-size="10.00">/XBotInterface/src/Logger.cpp</text>
</a>
</g>
</g>
<!-- Node8&#45;&gt;Node20 -->
<g id="edge23" class="edge"><title>Node8&#45;&gt;Node20</title>
<path fill="none" stroke="midnightblue" d="M966,-352.925C1000.9,-340.219 1041.12,-325.58 1072.56,-314.134"/>
<polygon fill="midnightblue" stroke="midnightblue" points="964.508,-349.743 956.308,-356.453 966.902,-356.321 964.508,-349.743"/>
</g>
<!-- Node10 -->
<g id="node10" class="node"><title>Node10</title>
<g id="a_node10"><a xlink:href="ConfigHelper_8cpp.html" target="_top" xlink:title="/home/lucamuratore\l/advr&#45;superbuild/external\l/XBotInterface/src/ConfigHelper.cpp">
<polygon fill="none" stroke="black" points="626,-184 626,-225 801,-225 801,-184 626,-184"/>
<text text-anchor="start" x="634" y="-213" font-family="Helvetica,sans-Serif" font-size="10.00">/home/lucamuratore</text>
<text text-anchor="start" x="634" y="-202" font-family="Helvetica,sans-Serif" font-size="10.00">/advr&#45;superbuild/external</text>
<text text-anchor="middle" x="713.5" y="-191" font-family="Helvetica,sans-Serif" font-size="10.00">/XBotInterface/src/ConfigHelper.cpp</text>
</a>
</g>
</g>
<!-- Node9&#45;&gt;Node10 -->
<g id="edge11" class="edge"><title>Node9&#45;&gt;Node10</title>
<path fill="none" stroke="midnightblue" d="M713.5,-257.155C713.5,-246.21 713.5,-234.549 713.5,-225.082"/>
<polygon fill="midnightblue" stroke="midnightblue" points="710,-257.336 713.5,-267.336 717,-257.336 710,-257.336"/>
</g>
<!-- Node13 -->
<g id="node13" class="node"><title>Node13</title>
<g id="a_node13"><a xlink:href="ModelInterface_8h.html" target="_top" xlink:title="/home/lucamuratore\l/advr&#45;superbuild/external\l/XBotInterface/include/XBotInterface\l/ModelInterface.h">
<polygon fill="none" stroke="black" points="1112.5,-178.5 1112.5,-230.5 1288.5,-230.5 1288.5,-178.5 1112.5,-178.5"/>
<text text-anchor="start" x="1120.5" y="-218.5" font-family="Helvetica,sans-Serif" font-size="10.00">/home/lucamuratore</text>
<text text-anchor="start" x="1120.5" y="-207.5" font-family="Helvetica,sans-Serif" font-size="10.00">/advr&#45;superbuild/external</text>
<text text-anchor="start" x="1120.5" y="-196.5" font-family="Helvetica,sans-Serif" font-size="10.00">/XBotInterface/include/XBotInterface</text>
<text text-anchor="middle" x="1200.5" y="-185.5" font-family="Helvetica,sans-Serif" font-size="10.00">/ModelInterface.h</text>
</a>
</g>
</g>
<!-- Node12&#45;&gt;Node13 -->
<g id="edge14" class="edge"><title>Node12&#45;&gt;Node13</title>
<path fill="none" stroke="midnightblue" d="M1029.3,-264.138C1060.95,-253.299 1096.78,-241.027 1127.45,-230.521"/>
<polygon fill="midnightblue" stroke="midnightblue" points="1027.95,-260.901 1019.63,-267.453 1030.22,-267.523 1027.95,-260.901"/>
</g>
<!-- Node14 -->
<g id="node14" class="node"><title>Node14</title>
<g id="a_node14"><a xlink:href="RobotInterface_8h.html" target="_top" xlink:title="/home/lucamuratore\l/advr&#45;superbuild/external\l/XBotInterface/include/XBotInterface\l/RobotInterface.h">
<polygon fill="none" stroke="black" points="938.5,-89.5 938.5,-141.5 1114.5,-141.5 1114.5,-89.5 938.5,-89.5"/>
<text text-anchor="start" x="946.5" y="-129.5" font-family="Helvetica,sans-Serif" font-size="10.00">/home/lucamuratore</text>
<text text-anchor="start" x="946.5" y="-118.5" font-family="Helvetica,sans-Serif" font-size="10.00">/advr&#45;superbuild/external</text>
<text text-anchor="start" x="946.5" y="-107.5" font-family="Helvetica,sans-Serif" font-size="10.00">/XBotInterface/include/XBotInterface</text>
<text text-anchor="middle" x="1026.5" y="-96.5" font-family="Helvetica,sans-Serif" font-size="10.00">/RobotInterface.h</text>
</a>
</g>
</g>
<!-- Node12&#45;&gt;Node14 -->
<g id="edge21" class="edge"><title>Node12&#45;&gt;Node14</title>
<path fill="none" stroke="midnightblue" d="M1015.74,-261.769C1027.28,-253.48 1037.69,-243.306 1044.5,-231 1059.89,-203.178 1049.42,-166.083 1039.16,-141.76"/>
<polygon fill="midnightblue" stroke="midnightblue" points="1013.56,-259.017 1007.18,-267.475 1017.44,-264.843 1013.56,-259.017"/>
</g>
<!-- Node19 -->
<g id="node19" class="node"><title>Node19</title>
<g id="a_node19"><a xlink:href="XBotInterface_8cpp.html" target="_top" xlink:title="/home/lucamuratore\l/advr&#45;superbuild/external\l/XBotInterface/src/XBotInterface.cpp">
<polygon fill="none" stroke="black" points="857.5,-184 857.5,-225 1035.5,-225 1035.5,-184 857.5,-184"/>
<text text-anchor="start" x="865.5" y="-213" font-family="Helvetica,sans-Serif" font-size="10.00">/home/lucamuratore</text>
<text text-anchor="start" x="865.5" y="-202" font-family="Helvetica,sans-Serif" font-size="10.00">/advr&#45;superbuild/external</text>
<text text-anchor="middle" x="946.5" y="-191" font-family="Helvetica,sans-Serif" font-size="10.00">/XBotInterface/src/XBotInterface.cpp</text>
</a>
</g>
</g>
<!-- Node12&#45;&gt;Node19 -->
<g id="edge22" class="edge"><title>Node12&#45;&gt;Node19</title>
<path fill="none" stroke="midnightblue" d="M946.5,-257.155C946.5,-246.21 946.5,-234.549 946.5,-225.082"/>
<polygon fill="midnightblue" stroke="midnightblue" points="943,-257.336 946.5,-267.336 950,-257.336 943,-257.336"/>
</g>
<!-- Node13&#45;&gt;Node14 -->
<g id="edge15" class="edge"><title>Node13&#45;&gt;Node14</title>
<path fill="none" stroke="midnightblue" d="M1141.05,-173.776C1120.12,-163.309 1096.81,-151.656 1076.71,-141.607"/>
<polygon fill="midnightblue" stroke="midnightblue" points="1139.66,-176.994 1150.17,-178.336 1142.79,-170.733 1139.66,-176.994"/>
</g>
<!-- Node17 -->
<g id="node17" class="node"><title>Node17</title>
<g id="a_node17"><a xlink:href="Utils_8h.html" target="_top" xlink:title="/home/lucamuratore\l/advr&#45;superbuild/external\l/XBotInterface/include/XBotInterface\l/Utils.h">
<polygon fill="none" stroke="black" points="1132.5,-89.5 1132.5,-141.5 1308.5,-141.5 1308.5,-89.5 1132.5,-89.5"/>
<text text-anchor="start" x="1140.5" y="-129.5" font-family="Helvetica,sans-Serif" font-size="10.00">/home/lucamuratore</text>
<text text-anchor="start" x="1140.5" y="-118.5" font-family="Helvetica,sans-Serif" font-size="10.00">/advr&#45;superbuild/external</text>
<text text-anchor="start" x="1140.5" y="-107.5" font-family="Helvetica,sans-Serif" font-size="10.00">/XBotInterface/include/XBotInterface</text>
<text text-anchor="middle" x="1220.5" y="-96.5" font-family="Helvetica,sans-Serif" font-size="10.00">/Utils.h</text>
</a>
</g>
</g>
<!-- Node13&#45;&gt;Node17 -->
<g id="edge19" class="edge"><title>Node13&#45;&gt;Node17</title>
<path fill="none" stroke="midnightblue" d="M1208.55,-168.481C1210.62,-159.487 1212.8,-149.989 1214.73,-141.607"/>
<polygon fill="midnightblue" stroke="midnightblue" points="1205.11,-167.806 1206.28,-178.336 1211.94,-169.374 1205.11,-167.806"/>
</g>
<!-- Node18 -->
<g id="node18" class="node"><title>Node18</title>
<g id="a_node18"><a xlink:href="ModelInterface_8cpp.html" target="_top" xlink:title="/home/lucamuratore\l/advr&#45;superbuild/external\l/XBotInterface/src/ModelInterface.cpp">
<polygon fill="none" stroke="black" points="1326.5,-95 1326.5,-136 1508.5,-136 1508.5,-95 1326.5,-95"/>
<text text-anchor="start" x="1334.5" y="-124" font-family="Helvetica,sans-Serif" font-size="10.00">/home/lucamuratore</text>
<text text-anchor="start" x="1334.5" y="-113" font-family="Helvetica,sans-Serif" font-size="10.00">/advr&#45;superbuild/external</text>
<text text-anchor="middle" x="1417.5" y="-102" font-family="Helvetica,sans-Serif" font-size="10.00">/XBotInterface/src/ModelInterface.cpp</text>
</a>
</g>
</g>
<!-- Node13&#45;&gt;Node18 -->
<g id="edge20" class="edge"><title>Node13&#45;&gt;Node18</title>
<path fill="none" stroke="midnightblue" d="M1272.59,-174.598C1304.09,-161.969 1340.22,-147.482 1368.53,-136.134"/>
<polygon fill="midnightblue" stroke="midnightblue" points="1270.95,-171.483 1262.97,-178.453 1273.56,-177.98 1270.95,-171.483"/>
</g>
<!-- Node14&#45;&gt;Node11 -->
<g id="edge16" class="edge"><title>Node14&#45;&gt;Node11</title>
<path fill="none" stroke="midnightblue" d="M960.368,-85.2945C936.3,-74.6654 909.331,-62.7552 886.157,-52.5211"/>
<polygon fill="midnightblue" stroke="midnightblue" points="959.222,-88.6145 969.784,-89.4527 962.05,-82.2111 959.222,-88.6145"/>
</g>
<!-- Node15 -->
<g id="node15" class="node"><title>Node15</title>
<g id="a_node15"><a xlink:href="main__test_8cpp.html" target="_top" xlink:title="/home/lucamuratore\l/advr&#45;superbuild/external\l/XBotInterface/src/main\l_test.cpp">
<polygon fill="none" stroke="black" points="1136,-0.5 1136,-52.5 1259,-52.5 1259,-0.5 1136,-0.5"/>
<text text-anchor="start" x="1144" y="-40.5" font-family="Helvetica,sans-Serif" font-size="10.00">/home/lucamuratore</text>
<text text-anchor="start" x="1144" y="-29.5" font-family="Helvetica,sans-Serif" font-size="10.00">/advr&#45;superbuild/external</text>
<text text-anchor="start" x="1144" y="-18.5" font-family="Helvetica,sans-Serif" font-size="10.00">/XBotInterface/src/main</text>
<text text-anchor="middle" x="1197.5" y="-7.5" font-family="Helvetica,sans-Serif" font-size="10.00">_test.cpp</text>
</a>
</g>
</g>
<!-- Node14&#45;&gt;Node15 -->
<g id="edge17" class="edge"><title>Node14&#45;&gt;Node15</title>
<path fill="none" stroke="midnightblue" d="M1084.92,-84.7763C1105.5,-74.3094 1128.4,-62.656 1148.15,-52.6075"/>
<polygon fill="midnightblue" stroke="midnightblue" points="1083.29,-81.6819 1075.96,-89.336 1086.46,-87.9208 1083.29,-81.6819"/>
</g>
<!-- Node16 -->
<g id="node16" class="node"><title>Node16</title>
<g id="a_node16"><a xlink:href="RobotInterface_8cpp.html" target="_top" xlink:title="/home/lucamuratore\l/advr&#45;superbuild/external\l/XBotInterface/src/RobotInterface.cpp">
<polygon fill="none" stroke="black" points="935.5,-6 935.5,-47 1117.5,-47 1117.5,-6 935.5,-6"/>
<text text-anchor="start" x="943.5" y="-35" font-family="Helvetica,sans-Serif" font-size="10.00">/home/lucamuratore</text>
<text text-anchor="start" x="943.5" y="-24" font-family="Helvetica,sans-Serif" font-size="10.00">/advr&#45;superbuild/external</text>
<text text-anchor="middle" x="1026.5" y="-13" font-family="Helvetica,sans-Serif" font-size="10.00">/XBotInterface/src/RobotInterface.cpp</text>
</a>
</g>
</g>
<!-- Node14&#45;&gt;Node16 -->
<g id="edge18" class="edge"><title>Node14&#45;&gt;Node16</title>
<path fill="none" stroke="midnightblue" d="M1026.5,-79.1554C1026.5,-68.2096 1026.5,-56.5492 1026.5,-47.0821"/>
<polygon fill="midnightblue" stroke="midnightblue" points="1023,-79.336 1026.5,-89.336 1030,-79.336 1023,-79.336"/>
</g>
<!-- Node22 -->
<g id="node22" class="node"><title>Node22</title>
<g id="a_node22"><a xlink:href="file__sinks_8h.html" target="_top" xlink:title="/home/lucamuratore\l/advr&#45;superbuild/external\l/XBotInterface/include/spdlog\l/sinks/file_sinks.h">
<polygon fill="none" stroke="black" points="1017,-801.5 1017,-853.5 1162,-853.5 1162,-801.5 1017,-801.5"/>
<text text-anchor="start" x="1025" y="-841.5" font-family="Helvetica,sans-Serif" font-size="10.00">/home/lucamuratore</text>
<text text-anchor="start" x="1025" y="-830.5" font-family="Helvetica,sans-Serif" font-size="10.00">/advr&#45;superbuild/external</text>
<text text-anchor="start" x="1025" y="-819.5" font-family="Helvetica,sans-Serif" font-size="10.00">/XBotInterface/include/spdlog</text>
<text text-anchor="middle" x="1089.5" y="-808.5" font-family="Helvetica,sans-Serif" font-size="10.00">/sinks/file_sinks.h</text>
</a>
</g>
</g>
<!-- Node21&#45;&gt;Node22 -->
<g id="edge25" class="edge"><title>Node21&#45;&gt;Node22</title>
<path fill="none" stroke="midnightblue" d="M1089.5,-1057.89C1089.5,-1003.56 1089.5,-901.26 1089.5,-853.832"/>
<polygon fill="midnightblue" stroke="midnightblue" points="1086,-1058.09 1089.5,-1068.09 1093,-1058.09 1086,-1058.09"/>
</g>
<!-- Node22&#45;&gt;Node6 -->
<g id="edge26" class="edge"><title>Node22&#45;&gt;Node6</title>
<path fill="none" stroke="midnightblue" d="M1096.59,-791.453C1103.4,-747.22 1107.73,-671.117 1069.5,-623 1043.36,-590.098 998.858,-574.686 960.407,-567.517"/>
<polygon fill="midnightblue" stroke="midnightblue" points="1093.12,-791.006 1094.93,-801.446 1100.02,-792.157 1093.12,-791.006"/>
</g>
<!-- Node23&#45;&gt;Node24 -->
<g id="edge28" class="edge"><title>Node23&#45;&gt;Node24</title>
<path fill="none" stroke="midnightblue" d="M721.422,-1058.19C720.572,-1049.28 720.078,-1039.9 720.049,-1031.61"/>
<polygon fill="midnightblue" stroke="midnightblue" points="717.969,-1058.8 722.579,-1068.34 724.924,-1058 717.969,-1058.8"/>
</g>
<!-- Node24&#45;&gt;Node2 -->
<g id="edge29" class="edge"><title>Node24&#45;&gt;Node2</title>
<path fill="none" stroke="midnightblue" d="M705.04,-970.639C699.676,-961.306 693.954,-951.349 688.93,-942.607"/>
<polygon fill="midnightblue" stroke="midnightblue" points="702.02,-972.41 710.038,-979.336 708.09,-968.922 702.02,-972.41"/>
</g>
<!-- Node24&#45;&gt;Node23 -->
<g id="edge30" class="edge"><title>Node24&#45;&gt;Node23</title>
<path fill="none" stroke="midnightblue" d="M733.572,-1041.75C734.424,-1050.65 734.92,-1060.04 734.951,-1068.34"/>
<polygon fill="midnightblue" stroke="midnightblue" points="737.026,-1041.15 732.414,-1031.61 730.071,-1041.94 737.026,-1041.15"/>
</g>
<!-- Node24&#45;&gt;Node25 -->
<g id="edge31" class="edge"><title>Node24&#45;&gt;Node25</title>
<path fill="none" stroke="midnightblue" d="M780.717,-974.494C800.191,-964.101 821.802,-952.566 840.46,-942.607"/>
<polygon fill="midnightblue" stroke="midnightblue" points="778.82,-971.54 771.646,-979.336 782.116,-977.715 778.82,-971.54"/>
</g>
<!-- Node25&#45;&gt;Node22 -->
<g id="edge41" class="edge"><title>Node25&#45;&gt;Node22</title>
<path fill="none" stroke="midnightblue" d="M954.983,-886.436C979.745,-875.771 1007.54,-863.8 1031.41,-853.521"/>
<polygon fill="midnightblue" stroke="midnightblue" points="953.456,-883.282 945.656,-890.453 956.225,-889.712 953.456,-883.282"/>
</g>
<!-- Node26 -->
<g id="node26" class="node"><title>Node26</title>
<g id="a_node26"><a xlink:href="logger_8h.html" target="_top" xlink:title="/home/lucamuratore\l/advr&#45;superbuild/external\l/XBotInterface/include/spdlog\l/logger.h">
<polygon fill="none" stroke="black" points="163,-801.5 163,-853.5 308,-853.5 308,-801.5 163,-801.5"/>
<text text-anchor="start" x="171" y="-841.5" font-family="Helvetica,sans-Serif" font-size="10.00">/home/lucamuratore</text>
<text text-anchor="start" x="171" y="-830.5" font-family="Helvetica,sans-Serif" font-size="10.00">/advr&#45;superbuild/external</text>
<text text-anchor="start" x="171" y="-819.5" font-family="Helvetica,sans-Serif" font-size="10.00">/XBotInterface/include/spdlog</text>
<text text-anchor="middle" x="235.5" y="-808.5" font-family="Helvetica,sans-Serif" font-size="10.00">/logger.h</text>
</a>
</g>
</g>
<!-- Node25&#45;&gt;Node26 -->
<g id="edge32" class="edge"><title>Node25&#45;&gt;Node26</title>
<path fill="none" stroke="midnightblue" d="M804.744,-898.082C788.472,-895.062 771.49,-892.193 755.5,-890 561.55,-863.395 508.616,-891.627 316.5,-854 313.751,-853.462 310.964,-852.863 308.16,-852.215"/>
<polygon fill="midnightblue" stroke="midnightblue" points="804.293,-901.559 814.769,-899.977 805.593,-894.68 804.293,-901.559"/>
</g>
<!-- Node28 -->
<g id="node28" class="node"><title>Node28</title>
<g id="a_node28"><a xlink:href="ansicolor__sink_8h.html" target="_top" xlink:title="/home/lucamuratore\l/advr&#45;superbuild/external\l/XBotInterface/include/spdlog\l/sinks/ansicolor_sink.h">
<polygon fill="none" stroke="black" points="916,-623.5 916,-675.5 1061,-675.5 1061,-623.5 916,-623.5"/>
<text text-anchor="start" x="924" y="-663.5" font-family="Helvetica,sans-Serif" font-size="10.00">/home/lucamuratore</text>
<text text-anchor="start" x="924" y="-652.5" font-family="Helvetica,sans-Serif" font-size="10.00">/advr&#45;superbuild/external</text>
<text text-anchor="start" x="924" y="-641.5" font-family="Helvetica,sans-Serif" font-size="10.00">/XBotInterface/include/spdlog</text>
<text text-anchor="middle" x="988.5" y="-630.5" font-family="Helvetica,sans-Serif" font-size="10.00">/sinks/ansicolor_sink.h</text>
</a>
</g>
</g>
<!-- Node25&#45;&gt;Node28 -->
<g id="edge38" class="edge"><title>Node25&#45;&gt;Node28</title>
<path fill="none" stroke="midnightblue" d="M941.735,-884.315C952.231,-875.813 961.978,-865.668 968.5,-854 1000.54,-796.672 996.718,-715.927 992.132,-675.548"/>
<polygon fill="midnightblue" stroke="midnightblue" points="939.448,-881.658 933.604,-890.495 943.684,-887.231 939.448,-881.658"/>
</g>
<!-- Node25&#45;&gt;Node29 -->
<g id="edge40" class="edge"><title>Node25&#45;&gt;Node29</title>
<path fill="none" stroke="midnightblue" d="M970.02,-899.552C1026.71,-888.111 1103.54,-871.651 1170.5,-854 1173.53,-853.202 1176.61,-852.363 1179.72,-851.496"/>
<polygon fill="midnightblue" stroke="midnightblue" points="969.148,-896.157 960.033,-901.558 970.526,-903.02 969.148,-896.157"/>
</g>
<!-- Node30 -->
<g id="node30" class="node"><title>Node30</title>
<g id="a_node30"><a xlink:href="null__sink_8h.html" target="_top" xlink:title="/home/lucamuratore\l/advr&#45;superbuild/external\l/XBotInterface/include/spdlog\l/sinks/null_sink.h">
<polygon fill="none" stroke="black" points="326,-801.5 326,-853.5 471,-853.5 471,-801.5 326,-801.5"/>
<text text-anchor="start" x="334" y="-841.5" font-family="Helvetica,sans-Serif" font-size="10.00">/home/lucamuratore</text>
<text text-anchor="start" x="334" y="-830.5" font-family="Helvetica,sans-Serif" font-size="10.00">/advr&#45;superbuild/external</text>
<text text-anchor="start" x="334" y="-819.5" font-family="Helvetica,sans-Serif" font-size="10.00">/XBotInterface/include/spdlog</text>
<text text-anchor="middle" x="398.5" y="-808.5" font-family="Helvetica,sans-Serif" font-size="10.00">/sinks/null_sink.h</text>
</a>
</g>
</g>
<!-- Node25&#45;&gt;Node30 -->
<g id="edge42" class="edge"><title>Node25&#45;&gt;Node30</title>
<path fill="none" stroke="midnightblue" d="M804.653,-898.693C788.389,-895.62 771.433,-892.576 755.5,-890 633.38,-870.259 600.295,-880.676 479.5,-854 476.765,-853.396 473.989,-852.741 471.195,-852.046"/>
<polygon fill="midnightblue" stroke="midnightblue" points="804.196,-902.169 814.675,-900.605 805.509,-895.293 804.196,-902.169"/>
</g>
<!-- Node31 -->
<g id="node31" class="node"><title>Node31</title>
<g id="a_node31"><a xlink:href="ostream__sink_8h.html" target="_top" xlink:title="/home/lucamuratore\l/advr&#45;superbuild/external\l/XBotInterface/include/spdlog\l/sinks/ostream_sink.h">
<polygon fill="none" stroke="black" points="489,-801.5 489,-853.5 634,-853.5 634,-801.5 489,-801.5"/>
<text text-anchor="start" x="497" y="-841.5" font-family="Helvetica,sans-Serif" font-size="10.00">/home/lucamuratore</text>
<text text-anchor="start" x="497" y="-830.5" font-family="Helvetica,sans-Serif" font-size="10.00">/advr&#45;superbuild/external</text>
<text text-anchor="start" x="497" y="-819.5" font-family="Helvetica,sans-Serif" font-size="10.00">/XBotInterface/include/spdlog</text>
<text text-anchor="middle" x="561.5" y="-808.5" font-family="Helvetica,sans-Serif" font-size="10.00">/sinks/ostream_sink.h</text>
</a>
</g>
</g>
<!-- Node25&#45;&gt;Node31 -->
<g id="edge43" class="edge"><title>Node25&#45;&gt;Node31</title>
<path fill="none" stroke="midnightblue" d="M804.88,-896.048C757.227,-884.507 696.279,-869.201 642.5,-854 639.804,-853.238 637.063,-852.449 634.297,-851.64"/>
<polygon fill="midnightblue" stroke="midnightblue" points="804.298,-899.508 814.84,-898.452 805.94,-892.703 804.298,-899.508"/>
</g>
<!-- Node32 -->
<g id="node32" class="node"><title>Node32</title>
<g id="a_node32"><a xlink:href="stdout__sinks_8h.html" target="_top" xlink:title="/home/lucamuratore\l/advr&#45;superbuild/external\l/XBotInterface/include/spdlog\l/sinks/stdout_sinks.h">
<polygon fill="none" stroke="black" points="815,-801.5 815,-853.5 960,-853.5 960,-801.5 815,-801.5"/>
<text text-anchor="start" x="823" y="-841.5" font-family="Helvetica,sans-Serif" font-size="10.00">/home/lucamuratore</text>
<text text-anchor="start" x="823" y="-830.5" font-family="Helvetica,sans-Serif" font-size="10.00">/advr&#45;superbuild/external</text>
<text text-anchor="start" x="823" y="-819.5" font-family="Helvetica,sans-Serif" font-size="10.00">/XBotInterface/include/spdlog</text>
<text text-anchor="middle" x="887.5" y="-808.5" font-family="Helvetica,sans-Serif" font-size="10.00">/sinks/stdout_sinks.h</text>
</a>
</g>
</g>
<!-- Node25&#45;&gt;Node32 -->
<g id="edge44" class="edge"><title>Node25&#45;&gt;Node32</title>
<path fill="none" stroke="midnightblue" d="M887.5,-880.191C887.5,-871.282 887.5,-861.899 887.5,-853.607"/>
<polygon fill="midnightblue" stroke="midnightblue" points="884,-880.336 887.5,-890.336 891,-880.336 884,-880.336"/>
</g>
<!-- Node33 -->
<g id="node33" class="node"><title>Node33</title>
<g id="a_node33"><a xlink:href="wincolor__sink_8h.html" target="_top" xlink:title="/home/lucamuratore\l/advr&#45;superbuild/external\l/XBotInterface/include/spdlog\l/sinks/wincolor_sink.h">
<polygon fill="none" stroke="black" points="652,-801.5 652,-853.5 797,-853.5 797,-801.5 652,-801.5"/>
<text text-anchor="start" x="660" y="-841.5" font-family="Helvetica,sans-Serif" font-size="10.00">/home/lucamuratore</text>
<text text-anchor="start" x="660" y="-830.5" font-family="Helvetica,sans-Serif" font-size="10.00">/advr&#45;superbuild/external</text>
<text text-anchor="start" x="660" y="-819.5" font-family="Helvetica,sans-Serif" font-size="10.00">/XBotInterface/include/spdlog</text>
<text text-anchor="middle" x="724.5" y="-808.5" font-family="Helvetica,sans-Serif" font-size="10.00">/sinks/wincolor_sink.h</text>
</a>
</g>
</g>
<!-- Node25&#45;&gt;Node33 -->
<g id="edge47" class="edge"><title>Node25&#45;&gt;Node33</title>
<path fill="none" stroke="midnightblue" d="M831.283,-885.494C811.809,-875.101 790.198,-863.566 771.54,-853.607"/>
<polygon fill="midnightblue" stroke="midnightblue" points="829.884,-888.715 840.354,-890.336 833.18,-882.54 829.884,-888.715"/>
</g>
<!-- Node26&#45;&gt;Node4 -->
<g id="edge33" class="edge"><title>Node26&#45;&gt;Node4</title>
<path fill="none" stroke="midnightblue" d="M184.085,-796.07C166.71,-785.788 147.521,-774.431 130.923,-764.607"/>
<polygon fill="midnightblue" stroke="midnightblue" points="182.593,-799.255 192.982,-801.336 186.158,-793.231 182.593,-799.255"/>
</g>
<!-- Node26&#45;&gt;Node5 -->
<g id="edge36" class="edge"><title>Node26&#45;&gt;Node5</title>
<path fill="none" stroke="midnightblue" d="M245.68,-791.335C253.047,-768.132 264.053,-737.437 277.5,-712 284.188,-699.349 293.157,-686.322 301.253,-675.532"/>
<polygon fill="midnightblue" stroke="midnightblue" points="242.27,-790.515 242.653,-801.103 248.957,-792.588 242.27,-790.515"/>
</g>
<!-- Node26&#45;&gt;Node7 -->
<g id="edge37" class="edge"><title>Node26&#45;&gt;Node7</title>
<path fill="none" stroke="midnightblue" d="M224.448,-791.547C212.779,-747.159 200.899,-670.625 239.5,-623 311.632,-534.005 661.08,-492.564 814.746,-478.416"/>
<polygon fill="midnightblue" stroke="midnightblue" points="221.108,-792.601 227.147,-801.306 227.855,-790.735 221.108,-792.601"/>
</g>
<!-- Node27 -->
<g id="node27" class="node"><title>Node27</title>
<g id="a_node27"><a xlink:href="logger__impl_8h.html" target="_top" xlink:title="/home/lucamuratore\l/advr&#45;superbuild/external\l/XBotInterface/include/spdlog\l/details/logger_impl.h">
<polygon fill="none" stroke="black" points="287,-712.5 287,-764.5 432,-764.5 432,-712.5 287,-712.5"/>
<text text-anchor="start" x="295" y="-752.5" font-family="Helvetica,sans-Serif" font-size="10.00">/home/lucamuratore</text>
<text text-anchor="start" x="295" y="-741.5" font-family="Helvetica,sans-Serif" font-size="10.00">/advr&#45;superbuild/external</text>
<text text-anchor="start" x="295" y="-730.5" font-family="Helvetica,sans-Serif" font-size="10.00">/XBotInterface/include/spdlog</text>
<text text-anchor="middle" x="359.5" y="-719.5" font-family="Helvetica,sans-Serif" font-size="10.00">/details/logger_impl.h</text>
</a>
</g>
</g>
<!-- Node26&#45;&gt;Node27 -->
<g id="edge34" class="edge"><title>Node26&#45;&gt;Node27</title>
<path fill="none" stroke="midnightblue" d="M273.577,-795.219C287.5,-785.164 303.291,-774.16 317.532,-764.607"/>
<polygon fill="midnightblue" stroke="midnightblue" points="271.202,-792.619 265.18,-801.336 275.324,-798.277 271.202,-792.619"/>
</g>
<!-- Node27&#45;&gt;Node26 -->
<g id="edge35" class="edge"><title>Node27&#45;&gt;Node26</title>
<path fill="none" stroke="midnightblue" d="M321.506,-770.721C307.59,-780.773 291.799,-791.777 277.552,-801.336"/>
<polygon fill="midnightblue" stroke="midnightblue" points="323.876,-773.325 329.897,-764.607 319.754,-767.667 323.876,-773.325"/>
</g>
<!-- Node28&#45;&gt;Node6 -->
<g id="edge39" class="edge"><title>Node28&#45;&gt;Node6</title>
<path fill="none" stroke="midnightblue" d="M951.523,-616.649C940.03,-606.749 927.529,-595.98 916.648,-586.607"/>
<polygon fill="midnightblue" stroke="midnightblue" points="949.426,-619.461 959.287,-623.336 953.994,-614.158 949.426,-619.461"/>
</g>
<!-- Node32&#45;&gt;Node6 -->
<g id="edge46" class="edge"><title>Node32&#45;&gt;Node6</title>
<path fill="none" stroke="midnightblue" d="M887.5,-790.893C887.5,-736.555 887.5,-634.26 887.5,-586.832"/>
<polygon fill="midnightblue" stroke="midnightblue" points="884,-791.091 887.5,-801.091 891,-791.091 884,-791.091"/>
</g>
<!-- Node32&#45;&gt;Node27 -->
<g id="edge45" class="edge"><title>Node32&#45;&gt;Node27</title>
<path fill="none" stroke="midnightblue" d="M804.98,-801.04C668.412,-771.233 519.148,-754.208 432.379,-745.835"/>
<polygon fill="midnightblue" stroke="midnightblue" points="804.27,-804.467 814.79,-803.208 805.781,-797.632 804.27,-804.467"/>
</g>
<!-- Node34&#45;&gt;Node2 -->
<g id="edge52" class="edge"><title>Node34&#45;&gt;Node2</title>
<path fill="none" stroke="midnightblue" d="M816.687,-975.576C790.49,-964.876 761.036,-952.846 735.759,-942.521"/>
<polygon fill="midnightblue" stroke="midnightblue" points="815.596,-978.912 826.177,-979.453 818.243,-972.431 815.596,-978.912"/>
</g>
<!-- Node34&#45;&gt;Node25 -->
<g id="edge53" class="edge"><title>Node34&#45;&gt;Node25</title>
<path fill="none" stroke="midnightblue" d="M887.5,-969.191C887.5,-960.282 887.5,-950.899 887.5,-942.607"/>
<polygon fill="midnightblue" stroke="midnightblue" points="884,-969.336 887.5,-979.336 891,-969.336 884,-969.336"/>
</g>
<!-- Node34&#45;&gt;Node29 -->
<g id="edge54" class="edge"><title>Node34&#45;&gt;Node29</title>
<path fill="none" stroke="midnightblue" d="M948.636,-975.021C1019.19,-940.998 1134.02,-885.629 1200.48,-853.586"/>
<polygon fill="midnightblue" stroke="midnightblue" points="946.895,-971.974 939.408,-979.47 949.936,-978.28 946.895,-971.974"/>
</g>
</g>
</svg>
