<?xml version="1.0" encoding="UTF-8" standalone="no"?>
<!DOCTYPE svg PUBLIC "-//W3C//DTD SVG 1.1//EN"
 "http://www.w3.org/Graphics/SVG/1.1/DTD/svg11.dtd">
<!-- Generated by graphviz version 2.38.0 (20140413.2041)
 -->
<!-- Title: /home/lucamuratore/advr&#45;superbuild/external/XBotInterface/include/spdlog/details/log_msg.h Pages: 1 -->
<svg width="1203pt" height="363pt"
 viewBox="0.00 0.00 1203.00 363.00" xmlns="http://www.w3.org/2000/svg" xmlns:xlink="http://www.w3.org/1999/xlink">
<g id="graph0" class="graph" transform="scale(1 1) rotate(0) translate(4 359)">
<title>/home/lucamuratore/advr&#45;superbuild/external/XBotInterface/include/spdlog/details/log_msg.h</title>
<!-- Node1 -->
<g id="node1" class="node"><title>Node1</title>
<polygon fill="#bfbfbf" stroke="black" points="500.5,-302.5 500.5,-354.5 645.5,-354.5 645.5,-302.5 500.5,-302.5"/>
<text text-anchor="start" x="508.5" y="-342.5" font-family="Helvetica,sans-Serif" font-size="10.00">/home/lucamuratore</text>
<text text-anchor="start" x="508.5" y="-331.5" font-family="Helvetica,sans-Serif" font-size="10.00">/advr&#45;superbuild/external</text>
<text text-anchor="start" x="508.5" y="-320.5" font-family="Helvetica,sans-Serif" font-size="10.00">/XBotInterface/include/spdlog</text>
<text text-anchor="middle" x="573" y="-309.5" font-family="Helvetica,sans-Serif" font-size="10.00">/details/log_msg.h</text>
</g>
<!-- Node2 -->
<g id="node2" class="node"><title>Node2</title>
<g id="a_node2"><a xlink:href="common_8h.html" target="_top" xlink:title="spdlog/common.h">
<polygon fill="none" stroke="black" points="752,-190.5 752,-209.5 846,-209.5 846,-190.5 752,-190.5"/>
<text text-anchor="middle" x="799" y="-197.5" font-family="Helvetica,sans-Serif" font-size="10.00">spdlog/common.h</text>
</a>
</g>
</g>
<!-- Node1&#45;&gt;Node2 -->
<g id="edge1" class="edge"><title>Node1&#45;&gt;Node2</title>
<path fill="none" stroke="midnightblue" d="M617.921,-302.356C664.951,-276.032 737.066,-235.666 774.519,-214.703"/>
<polygon fill="midnightblue" stroke="midnightblue" points="776.669,-217.51 783.686,-209.572 773.25,-211.402 776.669,-217.51"/>
</g>
<!-- Node3 -->
<g id="node3" class="node"><title>Node3</title>
<polygon fill="none" stroke="#bfbfbf" points="989.5,-0.5 989.5,-19.5 1030.5,-19.5 1030.5,-0.5 989.5,-0.5"/>
<text text-anchor="middle" x="1010" y="-7.5" font-family="Helvetica,sans-Serif" font-size="10.00">string</text>
</g>
<!-- Node1&#45;&gt;Node3 -->
<g id="edge39" class="edge"><title>Node1&#45;&gt;Node3</title>
<path fill="none" stroke="midnightblue" d="M645.569,-327.837C809.645,-326.644 1195,-312.023 1195,-201 1195,-201 1195,-201 1195,-137.5 1195,-63.4518 1092.76,-29.5887 1040.29,-17.086"/>
<polygon fill="midnightblue" stroke="midnightblue" points="1041.03,-13.6654 1030.51,-14.8647 1039.48,-20.4917 1041.03,-13.6654"/>
</g>
<!-- Node21 -->
<g id="node21" class="node"><title>Node21</title>
<polygon fill="none" stroke="#bfbfbf" points="18,-0.5 18,-19.5 58,-19.5 58,-0.5 18,-0.5"/>
<text text-anchor="middle" x="38" y="-7.5" font-family="Helvetica,sans-Serif" font-size="10.00">utility</text>
</g>
<!-- Node1&#45;&gt;Node21 -->
<g id="edge40" class="edge"><title>Node1&#45;&gt;Node21</title>
<path fill="none" stroke="midnightblue" d="M500.429,-326.554C346.243,-322.578 0,-302.365 0,-201 0,-201 0,-201 0,-137.5 0,-97.3496 17.7757,-52.9463 29.0118,-28.8892"/>
<polygon fill="midnightblue" stroke="midnightblue" points="32.289,-30.1518 33.4917,-19.6255 25.9871,-27.1043 32.289,-30.1518"/>
</g>
<!-- Node23 -->
<g id="node23" class="node"><title>Node23</title>
<g id="a_node23"><a xlink:href="os_8h.html" target="_top" xlink:title="spdlog/details/os.h">
<polygon fill="none" stroke="black" points="434,-246.5 434,-265.5 532,-265.5 532,-246.5 434,-246.5"/>
<text text-anchor="middle" x="483" y="-253.5" font-family="Helvetica,sans-Serif" font-size="10.00">spdlog/details/os.h</text>
</a>
</g>
</g>
<!-- Node1&#45;&gt;Node23 -->
<g id="edge25" class="edge"><title>Node1&#45;&gt;Node23</title>
<path fill="none" stroke="midnightblue" d="M541.016,-302.446C527.971,-292.227 513.33,-280.758 502.019,-271.898"/>
<polygon fill="midnightblue" stroke="midnightblue" points="504.131,-269.107 494.101,-265.695 499.815,-274.617 504.131,-269.107"/>
</g>
<!-- Node2&#45;&gt;Node3 -->
<g id="edge2" class="edge"><title>Node2&#45;&gt;Node3</title>
<path fill="none" stroke="midnightblue" d="M846.015,-199.517C925.605,-199.277 1081.61,-193.616 1116,-154 1154.97,-109.103 1075.51,-50.9269 1033.6,-24.7856"/>
<polygon fill="midnightblue" stroke="midnightblue" points="1035.41,-21.7865 1025.05,-19.5665 1031.76,-27.7623 1035.41,-21.7865"/>
</g>
<!-- Node4 -->
<g id="node4" class="node"><title>Node4</title>
<polygon fill="none" stroke="#bfbfbf" points="827.5,-129 827.5,-148 900.5,-148 900.5,-129 827.5,-129"/>
<text text-anchor="middle" x="864" y="-136" font-family="Helvetica,sans-Serif" font-size="10.00">initializer_list</text>
</g>
<!-- Node2&#45;&gt;Node4 -->
<g id="edge3" class="edge"><title>Node2&#45;&gt;Node4</title>
<path fill="none" stroke="midnightblue" d="M808.313,-190.475C818.449,-181.197 834.864,-166.171 847.252,-154.831"/>
<polygon fill="midnightblue" stroke="midnightblue" points="849.691,-157.343 854.704,-148.009 844.965,-152.18 849.691,-157.343"/>
</g>
<!-- Node5 -->
<g id="node5" class="node"><title>Node5</title>
<polygon fill="none" stroke="#bfbfbf" points="581,-129 581,-148 627,-148 627,-129 581,-129"/>
<text text-anchor="middle" x="604" y="-136" font-family="Helvetica,sans-Serif" font-size="10.00">chrono</text>
</g>
<!-- Node2&#45;&gt;Node5 -->
<g id="edge4" class="edge"><title>Node2&#45;&gt;Node5</title>
<path fill="none" stroke="midnightblue" d="M771.061,-190.475C735.637,-179.666 674.651,-161.058 636.981,-149.563"/>
<polygon fill="midnightblue" stroke="midnightblue" points="637.601,-146.093 627.014,-146.522 635.558,-152.789 637.601,-146.093"/>
</g>
<!-- Node6 -->
<g id="node6" class="node"><title>Node6</title>
<polygon fill="none" stroke="#bfbfbf" points="773,-0.5 773,-19.5 825,-19.5 825,-0.5 773,-0.5"/>
<text text-anchor="middle" x="799" y="-7.5" font-family="Helvetica,sans-Serif" font-size="10.00">memory</text>
</g>
<!-- Node2&#45;&gt;Node6 -->
<g id="edge5" class="edge"><title>Node2&#45;&gt;Node6</title>
<path fill="none" stroke="midnightblue" d="M799,-190.434C799,-161.928 799,-69.8218 799,-29.8263"/>
<polygon fill="midnightblue" stroke="midnightblue" points="802.5,-29.6168 799,-19.6168 795.5,-29.6168 802.5,-29.6168"/>
</g>
<!-- Node7 -->
<g id="node7" class="node"><title>Node7</title>
<polygon fill="none" stroke="#bfbfbf" points="1013,-62 1013,-81 1059,-81 1059,-62 1013,-62"/>
<text text-anchor="middle" x="1036" y="-69" font-family="Helvetica,sans-Serif" font-size="10.00">atomic</text>
</g>
<!-- Node2&#45;&gt;Node7 -->
<g id="edge6" class="edge"><title>Node2&#45;&gt;Node7</title>
<path fill="none" stroke="midnightblue" d="M846.242,-199.079C922.379,-198.089 1066.95,-191.213 1099,-154 1118.73,-131.089 1084.92,-102.894 1059.69,-86.386"/>
<polygon fill="midnightblue" stroke="midnightblue" points="1061.55,-83.4222 1051.22,-81.0624 1057.82,-89.3482 1061.55,-83.4222"/>
</g>
<!-- Node8 -->
<g id="node8" class="node"><title>Node8</title>
<polygon fill="none" stroke="#bfbfbf" points="1031.5,-129 1031.5,-148 1090.5,-148 1090.5,-129 1031.5,-129"/>
<text text-anchor="middle" x="1061" y="-136" font-family="Helvetica,sans-Serif" font-size="10.00">exception</text>
</g>
<!-- Node2&#45;&gt;Node8 -->
<g id="edge7" class="edge"><title>Node2&#45;&gt;Node8</title>
<path fill="none" stroke="midnightblue" d="M846.066,-191.71C891.554,-184.149 962.175,-171.044 1022,-154 1024.64,-153.247 1027.36,-152.397 1030.08,-151.496"/>
<polygon fill="midnightblue" stroke="midnightblue" points="1031.48,-154.715 1039.74,-148.09 1029.15,-148.113 1031.48,-154.715"/>
</g>
<!-- Node9 -->
<g id="node9" class="node"><title>Node9</title>
<polygon fill="none" stroke="#bfbfbf" points="503.5,-129 503.5,-148 562.5,-148 562.5,-129 503.5,-129"/>
<text text-anchor="middle" x="533" y="-136" font-family="Helvetica,sans-Serif" font-size="10.00">functional</text>
</g>
<!-- Node2&#45;&gt;Node9 -->
<g id="edge8" class="edge"><title>Node2&#45;&gt;Node9</title>
<path fill="none" stroke="midnightblue" d="M751.963,-191.937C705.69,-184.46 633.273,-171.343 572,-154 569.354,-153.251 566.633,-152.405 563.918,-151.506"/>
<polygon fill="midnightblue" stroke="midnightblue" points="564.847,-148.122 554.252,-148.103 562.522,-154.725 564.847,-148.122"/>
</g>
<!-- Node10 -->
<g id="node10" class="node"><title>Node10</title>
<g id="a_node10"><a xlink:href="null__mutex_8h.html" target="_top" xlink:title="spdlog/details/null\l_mutex.h">
<polygon fill="none" stroke="black" points="918.5,-123.5 918.5,-153.5 1013.5,-153.5 1013.5,-123.5 918.5,-123.5"/>
<text text-anchor="start" x="926.5" y="-141.5" font-family="Helvetica,sans-Serif" font-size="10.00">spdlog/details/null</text>
<text text-anchor="middle" x="966" y="-130.5" font-family="Helvetica,sans-Serif" font-size="10.00">_mutex.h</text>
</a>
</g>
</g>
<!-- Node2&#45;&gt;Node10 -->
<g id="edge9" class="edge"><title>Node2&#45;&gt;Node10</title>
<path fill="none" stroke="midnightblue" d="M822.927,-190.475C847.342,-181.776 885.934,-168.026 916.888,-156.998"/>
<polygon fill="midnightblue" stroke="midnightblue" points="918.396,-160.176 926.641,-153.523 916.047,-153.582 918.396,-160.176"/>
</g>
<!-- Node11 -->
<g id="node11" class="node"><title>Node11</title>
<g id="a_node11"><a xlink:href="fmt_8h.html" target="_top" xlink:title="spdlog/fmt/fmt.h">
<polygon fill="none" stroke="black" points="683,-129 683,-148 771,-148 771,-129 683,-129"/>
<text text-anchor="middle" x="727" y="-136" font-family="Helvetica,sans-Serif" font-size="10.00">spdlog/fmt/fmt.h</text>
</a>
</g>
</g>
<!-- Node2&#45;&gt;Node11 -->
<g id="edge11" class="edge"><title>Node2&#45;&gt;Node11</title>
<path fill="none" stroke="midnightblue" d="M788.684,-190.475C777.349,-181.108 758.927,-165.884 745.161,-154.508"/>
<polygon fill="midnightblue" stroke="midnightblue" points="747.235,-151.681 737.297,-148.009 742.776,-157.077 747.235,-151.681"/>
</g>
<!-- Node10&#45;&gt;Node7 -->
<g id="edge10" class="edge"><title>Node10&#45;&gt;Node7</title>
<path fill="none" stroke="midnightblue" d="M981.189,-123.396C992.32,-113.06 1007.44,-99.0237 1018.97,-88.309"/>
<polygon fill="midnightblue" stroke="midnightblue" points="1021.69,-90.5639 1026.64,-81.1945 1016.93,-85.4343 1021.69,-90.5639"/>
</g>
<!-- Node12 -->
<g id="node12" class="node"><title>Node12</title>
<g id="a_node12"><a xlink:href="format_8h.html" target="_top" xlink:title="spdlog/fmt/bundled\l/format.h">
<polygon fill="none" stroke="black" points="483.5,-56.5 483.5,-86.5 582.5,-86.5 582.5,-56.5 483.5,-56.5"/>
<text text-anchor="start" x="491.5" y="-74.5" font-family="Helvetica,sans-Serif" font-size="10.00">spdlog/fmt/bundled</text>
<text text-anchor="middle" x="533" y="-63.5" font-family="Helvetica,sans-Serif" font-size="10.00">/format.h</text>
</a>
</g>
</g>
<!-- Node11&#45;&gt;Node12 -->
<g id="edge12" class="edge"><title>Node11&#45;&gt;Node12</title>
<path fill="none" stroke="midnightblue" d="M701.238,-128.869C671.624,-118.946 622.265,-102.408 584.649,-89.8051"/>
<polygon fill="midnightblue" stroke="midnightblue" points="585.462,-86.3864 574.868,-86.5281 583.238,-93.0237 585.462,-86.3864"/>
</g>
<!-- Node12&#45;&gt;Node3 -->
<g id="edge21" class="edge"><title>Node12&#45;&gt;Node3</title>
<path fill="none" stroke="midnightblue" d="M582.697,-64.3008C681.122,-52.0236 898.293,-24.9341 979,-14.8669"/>
<polygon fill="midnightblue" stroke="midnightblue" points="979.532,-18.3277 989.022,-13.6168 978.666,-11.3815 979.532,-18.3277"/>
</g>
<!-- Node12&#45;&gt;Node6 -->
<g id="edge19" class="edge"><title>Node12&#45;&gt;Node6</title>
<path fill="none" stroke="midnightblue" d="M582.895,-59.9787C627.36,-50.5047 694.457,-35.9692 762.614,-20.0349"/>
<polygon fill="midnightblue" stroke="midnightblue" points="763.739,-23.366 772.675,-17.6742 762.14,-16.5511 763.739,-23.366"/>
</g>
<!-- Node13 -->
<g id="node13" class="node"><title>Node13</title>
<polygon fill="none" stroke="#bfbfbf" points="378.5,-0.5 378.5,-19.5 427.5,-19.5 427.5,-0.5 378.5,-0.5"/>
<text text-anchor="middle" x="403" y="-7.5" font-family="Helvetica,sans-Serif" font-size="10.00">cassert</text>
</g>
<!-- Node12&#45;&gt;Node13 -->
<g id="edge13" class="edge"><title>Node12&#45;&gt;Node13</title>
<path fill="none" stroke="midnightblue" d="M502.192,-56.3993C480.672,-46.55 452.163,-33.5014 431.232,-23.9217"/>
<polygon fill="midnightblue" stroke="midnightblue" points="432.466,-20.6371 421.916,-19.6578 429.552,-27.0021 432.466,-20.6371"/>
</g>
<!-- Node14 -->
<g id="node14" class="node"><title>Node14</title>
<polygon fill="none" stroke="#bfbfbf" points="445.5,-0.5 445.5,-19.5 492.5,-19.5 492.5,-0.5 445.5,-0.5"/>
<text text-anchor="middle" x="469" y="-7.5" font-family="Helvetica,sans-Serif" font-size="10.00">clocale</text>
</g>
<!-- Node12&#45;&gt;Node14 -->
<g id="edge14" class="edge"><title>Node12&#45;&gt;Node14</title>
<path fill="none" stroke="midnightblue" d="M517.833,-56.3993C508.245,-47.4859 495.839,-35.9523 485.931,-26.7408"/>
<polygon fill="midnightblue" stroke="midnightblue" points="488.02,-23.9033 478.313,-19.6578 483.253,-29.0301 488.02,-23.9033"/>
</g>
<!-- Node15 -->
<g id="node15" class="node"><title>Node15</title>
<polygon fill="none" stroke="#bfbfbf" points="511,-0.5 511,-19.5 555,-19.5 555,-0.5 511,-0.5"/>
<text text-anchor="middle" x="533" y="-7.5" font-family="Helvetica,sans-Serif" font-size="10.00">cmath</text>
</g>
<!-- Node12&#45;&gt;Node15 -->
<g id="edge15" class="edge"><title>Node12&#45;&gt;Node15</title>
<path fill="none" stroke="midnightblue" d="M533,-56.3993C533,-48.4664 533,-38.458 533,-29.8583"/>
<polygon fill="midnightblue" stroke="midnightblue" points="536.5,-29.6577 533,-19.6578 529.5,-29.6578 536.5,-29.6577"/>
</g>
<!-- Node16 -->
<g id="node16" class="node"><title>Node16</title>
<polygon fill="none" stroke="#bfbfbf" points="150.5,-0.5 150.5,-19.5 193.5,-19.5 193.5,-0.5 150.5,-0.5"/>
<text text-anchor="middle" x="172" y="-7.5" font-family="Helvetica,sans-Serif" font-size="10.00">cstdio</text>
</g>
<!-- Node12&#45;&gt;Node16 -->
<g id="edge16" class="edge"><title>Node12&#45;&gt;Node16</title>
<path fill="none" stroke="midnightblue" d="M483.184,-62.2892C407.852,-49.8731 267.065,-26.6686 203.994,-16.2732"/>
<polygon fill="midnightblue" stroke="midnightblue" points="204.291,-12.7751 193.855,-14.6022 203.153,-19.6819 204.291,-12.7751"/>
</g>
<!-- Node17 -->
<g id="node17" class="node"><title>Node17</title>
<polygon fill="none" stroke="#bfbfbf" points="573,-0.5 573,-19.5 619,-19.5 619,-0.5 573,-0.5"/>
<text text-anchor="middle" x="596" y="-7.5" font-family="Helvetica,sans-Serif" font-size="10.00">cstring</text>
</g>
<!-- Node12&#45;&gt;Node17 -->
<g id="edge17" class="edge"><title>Node12&#45;&gt;Node17</title>
<path fill="none" stroke="midnightblue" d="M547.93,-56.3993C557.368,-47.4859 569.58,-35.9523 579.333,-26.7408"/>
<polygon fill="midnightblue" stroke="midnightblue" points="581.966,-29.0686 586.833,-19.6578 577.16,-23.9795 581.966,-29.0686"/>
</g>
<!-- Node18 -->
<g id="node18" class="node"><title>Node18</title>
<polygon fill="none" stroke="#bfbfbf" points="637,-0.5 637,-19.5 677,-19.5 677,-0.5 637,-0.5"/>
<text text-anchor="middle" x="657" y="-7.5" font-family="Helvetica,sans-Serif" font-size="10.00">limits</text>
</g>
<!-- Node12&#45;&gt;Node18 -->
<g id="edge18" class="edge"><title>Node12&#45;&gt;Node18</title>
<path fill="none" stroke="midnightblue" d="M562.386,-56.3993C582.82,-46.5945 609.86,-33.6194 629.799,-24.052"/>
<polygon fill="midnightblue" stroke="midnightblue" points="631.455,-27.1395 638.957,-19.6578 628.427,-20.8284 631.455,-27.1395"/>
</g>
<!-- Node19 -->
<g id="node19" class="node"><title>Node19</title>
<polygon fill="none" stroke="#bfbfbf" points="695.5,-0.5 695.5,-19.5 754.5,-19.5 754.5,-0.5 695.5,-0.5"/>
<text text-anchor="middle" x="725" y="-7.5" font-family="Helvetica,sans-Serif" font-size="10.00">stdexcept</text>
</g>
<!-- Node12&#45;&gt;Node19 -->
<g id="edge20" class="edge"><title>Node12&#45;&gt;Node19</title>
<path fill="none" stroke="midnightblue" d="M578.501,-56.3993C611.822,-46.0733 656.49,-32.2309 687.71,-22.5559"/>
<polygon fill="midnightblue" stroke="midnightblue" points="688.827,-25.8742 697.343,-19.5709 686.755,-19.1879 688.827,-25.8742"/>
</g>
<!-- Node20 -->
<g id="node20" class="node"><title>Node20</title>
<polygon fill="none" stroke="#bfbfbf" points="249,-0.5 249,-19.5 293,-19.5 293,-0.5 249,-0.5"/>
<text text-anchor="middle" x="271" y="-7.5" font-family="Helvetica,sans-Serif" font-size="10.00">vector</text>
</g>
<!-- Node12&#45;&gt;Node20 -->
<g id="edge22" class="edge"><title>Node12&#45;&gt;Node20</title>
<path fill="none" stroke="midnightblue" d="M483.206,-60.6242C438.469,-51.5243 370.78,-37.1969 303.26,-20.1966"/>
<polygon fill="midnightblue" stroke="midnightblue" points="303.856,-16.7369 293.302,-17.6693 302.134,-23.5218 303.856,-16.7369"/>
</g>
<!-- Node12&#45;&gt;Node21 -->
<g id="edge23" class="edge"><title>Node12&#45;&gt;Node21</title>
<path fill="none" stroke="midnightblue" d="M483.271,-64.5225C381.337,-52.2698 151.325,-24.6219 68.4694,-14.6625"/>
<polygon fill="midnightblue" stroke="midnightblue" points="68.7916,-11.1761 58.4454,-13.4576 67.9562,-18.1261 68.7916,-11.1761"/>
</g>
<!-- Node22 -->
<g id="node22" class="node"><title>Node22</title>
<polygon fill="none" stroke="#bfbfbf" points="311.5,-0.5 311.5,-19.5 360.5,-19.5 360.5,-0.5 311.5,-0.5"/>
<text text-anchor="middle" x="336" y="-7.5" font-family="Helvetica,sans-Serif" font-size="10.00">stdint.h</text>
</g>
<!-- Node12&#45;&gt;Node22 -->
<g id="edge24" class="edge"><title>Node12&#45;&gt;Node22</title>
<path fill="none" stroke="midnightblue" d="M486.314,-56.3993C450.79,-45.6702 402.698,-31.1447 370.574,-21.4424"/>
<polygon fill="midnightblue" stroke="midnightblue" points="371.326,-18.0135 360.741,-18.4726 369.302,-24.7145 371.326,-18.0135"/>
</g>
<!-- Node23&#45;&gt;Node2 -->
<g id="edge26" class="edge"><title>Node23&#45;&gt;Node2</title>
<path fill="none" stroke="midnightblue" d="M532.028,-246.622C588.729,-236.932 681.937,-221.004 741.869,-210.763"/>
<polygon fill="midnightblue" stroke="midnightblue" points="742.655,-214.179 751.922,-209.045 741.476,-207.279 742.655,-214.179"/>
</g>
<!-- Node23&#45;&gt;Node3 -->
<g id="edge30" class="edge"><title>Node23&#45;&gt;Node3</title>
<path fill="none" stroke="midnightblue" d="M532.212,-250.792C584.95,-245.143 663.591,-233.036 682,-210 706.24,-179.666 651.296,-154.5 674,-123 745.838,-23.33 910.225,-11.0169 978.927,-10.4134"/>
<polygon fill="midnightblue" stroke="midnightblue" points="979.106,-13.9134 989.103,-10.4055 979.1,-6.91338 979.106,-13.9134"/>
</g>
<!-- Node23&#45;&gt;Node5 -->
<g id="edge31" class="edge"><title>Node23&#45;&gt;Node5</title>
<path fill="none" stroke="midnightblue" d="M505.773,-246.372C523.318,-238.845 547.318,-226.533 564,-210 579.105,-195.03 590.316,-173.166 596.966,-157.764"/>
<polygon fill="midnightblue" stroke="midnightblue" points="600.292,-158.879 600.833,-148.298 593.811,-156.232 600.292,-158.879"/>
</g>
<!-- Node23&#45;&gt;Node9 -->
<g id="edge29" class="edge"><title>Node23&#45;&gt;Node9</title>
<path fill="none" stroke="midnightblue" d="M504.483,-246.36C519.392,-239.09 538.111,-227.117 547,-210 555.598,-193.444 549.379,-172.182 542.717,-157.356"/>
<polygon fill="midnightblue" stroke="midnightblue" points="545.785,-155.665 538.211,-148.258 539.513,-158.772 545.785,-155.665"/>
</g>
<!-- Node23&#45;&gt;Node16 -->
<g id="edge27" class="edge"><title>Node23&#45;&gt;Node16</title>
<path fill="none" stroke="midnightblue" d="M433.935,-253.435C327.278,-249.529 81.8432,-237.606 57,-210 2.96087,-149.952 106.315,-60.4227 151.917,-25.5961"/>
<polygon fill="midnightblue" stroke="midnightblue" points="154.057,-28.3665 159.957,-19.5667 149.857,-22.7664 154.057,-28.3665"/>
</g>
<!-- Node24 -->
<g id="node24" class="node"><title>Node24</title>
<polygon fill="none" stroke="#bfbfbf" points="632.5,-190.5 632.5,-209.5 673.5,-209.5 673.5,-190.5 632.5,-190.5"/>
<text text-anchor="middle" x="653" y="-197.5" font-family="Helvetica,sans-Serif" font-size="10.00">ctime</text>
</g>
<!-- Node23&#45;&gt;Node24 -->
<g id="edge28" class="edge"><title>Node23&#45;&gt;Node24</title>
<path fill="none" stroke="midnightblue" d="M509.937,-246.444C540.604,-236.702 590.585,-220.826 622.617,-210.651"/>
<polygon fill="midnightblue" stroke="midnightblue" points="623.867,-213.926 632.339,-207.563 621.748,-207.255 623.867,-213.926"/>
</g>
<!-- Node25 -->
<g id="node25" class="node"><title>Node25</title>
<polygon fill="none" stroke="#bfbfbf" points="66,-190.5 66,-209.5 110,-209.5 110,-190.5 66,-190.5"/>
<text text-anchor="middle" x="88" y="-197.5" font-family="Helvetica,sans-Serif" font-size="10.00">thread</text>
</g>
<!-- Node23&#45;&gt;Node25 -->
<g id="edge32" class="edge"><title>Node23&#45;&gt;Node25</title>
<path fill="none" stroke="midnightblue" d="M433.729,-251.418C365.301,-245.893 237.561,-233.588 120.123,-209.94"/>
<polygon fill="midnightblue" stroke="midnightblue" points="120.743,-206.495 110.245,-207.919 119.34,-213.353 120.743,-206.495"/>
</g>
<!-- Node26 -->
<g id="node26" class="node"><title>Node26</title>
<polygon fill="none" stroke="#bfbfbf" points="128,-190.5 128,-209.5 174,-209.5 174,-190.5 128,-190.5"/>
<text text-anchor="middle" x="151" y="-197.5" font-family="Helvetica,sans-Serif" font-size="10.00">stdio.h</text>
</g>
<!-- Node23&#45;&gt;Node26 -->
<g id="edge33" class="edge"><title>Node23&#45;&gt;Node26</title>
<path fill="none" stroke="midnightblue" d="M433.815,-249.541C376.148,-242.715 277.565,-229.725 184.223,-210.042"/>
<polygon fill="midnightblue" stroke="midnightblue" points="184.845,-206.596 174.334,-207.927 183.381,-213.441 184.845,-206.596"/>
</g>
<!-- Node27 -->
<g id="node27" class="node"><title>Node27</title>
<polygon fill="none" stroke="#bfbfbf" points="192.5,-190.5 192.5,-209.5 241.5,-209.5 241.5,-190.5 192.5,-190.5"/>
<text text-anchor="middle" x="217" y="-197.5" font-family="Helvetica,sans-Serif" font-size="10.00">string.h</text>
</g>
<!-- Node23&#45;&gt;Node27 -->
<g id="edge34" class="edge"><title>Node23&#45;&gt;Node27</title>
<path fill="none" stroke="midnightblue" d="M433.918,-246.468C389.029,-238.444 320.578,-225.652 251.957,-210.095"/>
<polygon fill="midnightblue" stroke="midnightblue" points="252.363,-206.598 241.835,-207.78 250.803,-213.421 252.363,-206.598"/>
</g>
<!-- Node28 -->
<g id="node28" class="node"><title>Node28</title>
<polygon fill="none" stroke="#bfbfbf" points="260,-190.5 260,-209.5 320,-209.5 320,-190.5 260,-190.5"/>
<text text-anchor="middle" x="290" y="-197.5" font-family="Helvetica,sans-Serif" font-size="10.00">sys/stat.h</text>
</g>
<!-- Node23&#45;&gt;Node28 -->
<g id="edge35" class="edge"><title>Node23&#45;&gt;Node28</title>
<path fill="none" stroke="midnightblue" d="M452.419,-246.444C419.288,-237.174 366.302,-222.349 329.914,-212.168"/>
<polygon fill="midnightblue" stroke="midnightblue" points="330.694,-208.752 320.121,-209.428 328.808,-215.493 330.694,-208.752"/>
</g>
<!-- Node29 -->
<g id="node29" class="node"><title>Node29</title>
<polygon fill="none" stroke="#bfbfbf" points="338,-190.5 338,-209.5 406,-209.5 406,-190.5 338,-190.5"/>
<text text-anchor="middle" x="372" y="-197.5" font-family="Helvetica,sans-Serif" font-size="10.00">sys/types.h</text>
</g>
<!-- Node23&#45;&gt;Node29 -->
<g id="edge36" class="edge"><title>Node23&#45;&gt;Node29</title>
<path fill="none" stroke="midnightblue" d="M465.166,-246.324C447.284,-237.625 419.525,-224.12 398.954,-214.113"/>
<polygon fill="midnightblue" stroke="midnightblue" points="400.313,-210.882 389.79,-209.655 397.251,-217.177 400.313,-210.882"/>
</g>
<!-- Node30 -->
<g id="node30" class="node"><title>Node30</title>
<polygon fill="none" stroke="#bfbfbf" points="424.5,-190.5 424.5,-209.5 475.5,-209.5 475.5,-190.5 424.5,-190.5"/>
<text text-anchor="middle" x="450" y="-197.5" font-family="Helvetica,sans-Serif" font-size="10.00">unistd.h</text>
</g>
<!-- Node23&#45;&gt;Node30 -->
<g id="edge37" class="edge"><title>Node23&#45;&gt;Node30</title>
<path fill="none" stroke="midnightblue" d="M477.551,-246.083C472.986,-238.613 466.332,-227.724 460.707,-218.52"/>
<polygon fill="midnightblue" stroke="midnightblue" points="463.549,-216.459 455.348,-209.751 457.576,-220.109 463.549,-216.459"/>
</g>
<!-- Node31 -->
<g id="node31" class="node"><title>Node31</title>
<polygon fill="none" stroke="#bfbfbf" points="494,-190.5 494,-209.5 538,-209.5 538,-190.5 494,-190.5"/>
<text text-anchor="middle" x="516" y="-197.5" font-family="Helvetica,sans-Serif" font-size="10.00">fcntl.h</text>
</g>
<!-- Node23&#45;&gt;Node31 -->
<g id="edge38" class="edge"><title>Node23&#45;&gt;Node31</title>
<path fill="none" stroke="midnightblue" d="M488.449,-246.083C493.014,-238.613 499.668,-227.724 505.293,-218.52"/>
<polygon fill="midnightblue" stroke="midnightblue" points="508.424,-220.109 510.652,-209.751 502.451,-216.459 508.424,-220.109"/>
</g>
</g>
</svg>
