<?xml version="1.0" encoding="UTF-8" standalone="no"?>
<!DOCTYPE svg PUBLIC "-//W3C//DTD SVG 1.1//EN"
 "http://www.w3.org/Graphics/SVG/1.1/DTD/svg11.dtd">
<!-- Generated by graphviz version 2.38.0 (20140413.2041)
 -->
<!-- Title: /home/lucamuratore/advr&#45;superbuild/external/XBotInterface/include/spdlog/logger.h Pages: 1 -->
<svg width="1640pt" height="743pt"
 viewBox="0.00 0.00 1640.00 743.00" xmlns="http://www.w3.org/2000/svg" xmlns:xlink="http://www.w3.org/1999/xlink">
<g id="graph0" class="graph" transform="scale(1 1) rotate(0) translate(4 739)">
<title>/home/lucamuratore/advr&#45;superbuild/external/XBotInterface/include/spdlog/logger.h</title>
<!-- Node1 -->
<g id="node1" class="node"><title>Node1</title>
<polygon fill="#bfbfbf" stroke="black" points="547.5,-682.5 547.5,-734.5 692.5,-734.5 692.5,-682.5 547.5,-682.5"/>
<text text-anchor="start" x="555.5" y="-722.5" font-family="Helvetica,sans-Serif" font-size="10.00">/home/lucamuratore</text>
<text text-anchor="start" x="555.5" y="-711.5" font-family="Helvetica,sans-Serif" font-size="10.00">/advr&#45;superbuild/external</text>
<text text-anchor="start" x="555.5" y="-700.5" font-family="Helvetica,sans-Serif" font-size="10.00">/XBotInterface/include/spdlog</text>
<text text-anchor="middle" x="620" y="-689.5" font-family="Helvetica,sans-Serif" font-size="10.00">/logger.h</text>
</g>
<!-- Node2 -->
<g id="node2" class="node"><title>Node2</title>
<g id="a_node2"><a xlink:href="base__sink_8h.html" target="_top" xlink:title="spdlog/sinks/base_sink.h">
<polygon fill="none" stroke="black" points="321.5,-492.5 321.5,-511.5 448.5,-511.5 448.5,-492.5 321.5,-492.5"/>
<text text-anchor="middle" x="385" y="-499.5" font-family="Helvetica,sans-Serif" font-size="10.00">spdlog/sinks/base_sink.h</text>
</a>
</g>
</g>
<!-- Node1&#45;&gt;Node2 -->
<g id="edge1" class="edge"><title>Node1&#45;&gt;Node2</title>
<path fill="none" stroke="midnightblue" d="M591.184,-682.424C541.982,-639.608 443.18,-553.629 402.806,-518.495"/>
<polygon fill="midnightblue" stroke="midnightblue" points="404.958,-515.728 395.116,-511.803 400.363,-521.008 404.958,-515.728"/>
</g>
<!-- Node5 -->
<g id="node5" class="node"><title>Node5</title>
<g id="a_node5"><a xlink:href="common_8h.html" target="_top" xlink:title="spdlog/common.h">
<polygon fill="none" stroke="black" points="290,-190.5 290,-209.5 384,-209.5 384,-190.5 290,-190.5"/>
<text text-anchor="middle" x="337" y="-197.5" font-family="Helvetica,sans-Serif" font-size="10.00">spdlog/common.h</text>
</a>
</g>
</g>
<!-- Node1&#45;&gt;Node5 -->
<g id="edge65" class="edge"><title>Node1&#45;&gt;Node5</title>
<path fill="none" stroke="midnightblue" d="M547.49,-700.564C415.844,-685.952 151,-646.379 151,-564.5 151,-564.5 151,-564.5 151,-445 151,-341.258 201.659,-321.318 273,-246 284.575,-233.78 299.941,-222.846 312.714,-214.816"/>
<polygon fill="midnightblue" stroke="midnightblue" points="314.733,-217.686 321.467,-209.506 311.102,-211.701 314.733,-217.686"/>
</g>
<!-- Node6 -->
<g id="node6" class="node"><title>Node6</title>
<polygon fill="none" stroke="#bfbfbf" points="112.5,-0.5 112.5,-19.5 153.5,-19.5 153.5,-0.5 112.5,-0.5"/>
<text text-anchor="middle" x="133" y="-7.5" font-family="Helvetica,sans-Serif" font-size="10.00">string</text>
</g>
<!-- Node1&#45;&gt;Node6 -->
<g id="edge68" class="edge"><title>Node1&#45;&gt;Node6</title>
<path fill="none" stroke="midnightblue" d="M547.36,-705.938C383.639,-700.45 0,-675.724 0,-564.5 0,-564.5 0,-564.5 0,-137.5 0,-81.0961 63.5797,-42.2158 102.82,-23.5908"/>
<polygon fill="midnightblue" stroke="midnightblue" points="104.58,-26.6349 112.219,-19.2936 101.669,-20.2687 104.58,-26.6349"/>
</g>
<!-- Node9 -->
<g id="node9" class="node"><title>Node9</title>
<polygon fill="none" stroke="#bfbfbf" points="1430,-0.5 1430,-19.5 1482,-19.5 1482,-0.5 1430,-0.5"/>
<text text-anchor="middle" x="1456" y="-7.5" font-family="Helvetica,sans-Serif" font-size="10.00">memory</text>
</g>
<!-- Node1&#45;&gt;Node9 -->
<g id="edge67" class="edge"><title>Node1&#45;&gt;Node9</title>
<path fill="none" stroke="midnightblue" d="M692.529,-705.586C869.109,-700.384 1317.44,-683.765 1462,-646 1543.07,-624.821 1632,-648.29 1632,-564.5 1632,-564.5 1632,-564.5 1632,-137.5 1632,-69.2381 1543.62,-34.1988 1492.12,-19.5748"/>
<polygon fill="midnightblue" stroke="midnightblue" points="1492.92,-16.1643 1482.35,-16.9184 1491.08,-22.9191 1492.92,-16.1643"/>
</g>
<!-- Node23 -->
<g id="node23" class="node"><title>Node23</title>
<polygon fill="none" stroke="#bfbfbf" points="1282,-0.5 1282,-19.5 1326,-19.5 1326,-0.5 1282,-0.5"/>
<text text-anchor="middle" x="1304" y="-7.5" font-family="Helvetica,sans-Serif" font-size="10.00">vector</text>
</g>
<!-- Node1&#45;&gt;Node23 -->
<g id="edge66" class="edge"><title>Node1&#45;&gt;Node23</title>
<path fill="none" stroke="midnightblue" d="M692.81,-704.473C918.932,-694.114 1594,-655.563 1594,-564.5 1594,-564.5 1594,-564.5 1594,-383.5 1594,-210.119 1395.96,-68.917 1327.19,-25.1095"/>
<polygon fill="midnightblue" stroke="midnightblue" points="1328.71,-21.9308 1318.38,-19.5813 1324.99,-27.8605 1328.71,-21.9308"/>
</g>
<!-- Node38 -->
<g id="node38" class="node"><title>Node38</title>
<g id="a_node38"><a xlink:href="logger__impl_8h.html" target="_top" xlink:title="spdlog/details/logger\l_impl.h">
<polygon fill="none" stroke="black" points="567,-615.5 567,-645.5 673,-645.5 673,-615.5 567,-615.5"/>
<text text-anchor="start" x="575" y="-633.5" font-family="Helvetica,sans-Serif" font-size="10.00">spdlog/details/logger</text>
<text text-anchor="middle" x="620" y="-622.5" font-family="Helvetica,sans-Serif" font-size="10.00">_impl.h</text>
</a>
</g>
</g>
<!-- Node1&#45;&gt;Node38 -->
<g id="edge69" class="edge"><title>Node1&#45;&gt;Node38</title>
<path fill="none" stroke="midnightblue" d="M613.596,-682.193C613.116,-673.692 613.135,-664.233 613.655,-655.81"/>
<polygon fill="midnightblue" stroke="midnightblue" points="617.141,-656.126 614.582,-645.845 610.171,-655.478 617.141,-656.126"/>
</g>
<!-- Node3 -->
<g id="node3" class="node"><title>Node3</title>
<g id="a_node3"><a xlink:href="sink_8h.html" target="_top" xlink:title="spdlog/sinks/sink.h">
<polygon fill="none" stroke="black" points="255.5,-375 255.5,-394 356.5,-394 356.5,-375 255.5,-375"/>
<text text-anchor="middle" x="306" y="-382" font-family="Helvetica,sans-Serif" font-size="10.00">spdlog/sinks/sink.h</text>
</a>
</g>
</g>
<!-- Node2&#45;&gt;Node3 -->
<g id="edge2" class="edge"><title>Node2&#45;&gt;Node3</title>
<path fill="none" stroke="midnightblue" d="M379.062,-492.319C366.08,-473.339 334.965,-427.848 317.825,-402.788"/>
<polygon fill="midnightblue" stroke="midnightblue" points="320.541,-400.56 312.007,-394.282 314.763,-404.512 320.541,-400.56"/>
</g>
<!-- Node4 -->
<g id="node4" class="node"><title>Node4</title>
<g id="a_node4"><a xlink:href="log__msg_8h.html" target="_top" xlink:title="spdlog/details/log\l_msg.h">
<polygon fill="none" stroke="black" points="293,-302.5 293,-332.5 385,-332.5 385,-302.5 293,-302.5"/>
<text text-anchor="start" x="301" y="-320.5" font-family="Helvetica,sans-Serif" font-size="10.00">spdlog/details/log</text>
<text text-anchor="middle" x="339" y="-309.5" font-family="Helvetica,sans-Serif" font-size="10.00">_msg.h</text>
</a>
</g>
</g>
<!-- Node2&#45;&gt;Node4 -->
<g id="edge63" class="edge"><title>Node2&#45;&gt;Node4</title>
<path fill="none" stroke="midnightblue" d="M384.661,-492.442C383.613,-471.097 379.555,-413.987 365,-369 361.956,-359.593 357.308,-349.808 352.78,-341.384"/>
<polygon fill="midnightblue" stroke="midnightblue" points="355.762,-339.546 347.81,-332.544 349.66,-342.976 355.762,-339.546"/>
</g>
<!-- Node2&#45;&gt;Node5 -->
<g id="edge62" class="edge"><title>Node2&#45;&gt;Node5</title>
<path fill="none" stroke="midnightblue" d="M362.51,-492.46C329.847,-478.677 270.511,-448.108 246,-400 211.992,-333.252 284.368,-251.261 319.416,-217.113"/>
<polygon fill="midnightblue" stroke="midnightblue" points="322.214,-219.281 327.051,-209.855 317.392,-214.208 322.214,-219.281"/>
</g>
<!-- Node35 -->
<g id="node35" class="node"><title>Node35</title>
<g id="a_node35"><a xlink:href="formatter_8h.html" target="_top" xlink:title="spdlog/formatter.h">
<polygon fill="none" stroke="black" points="998.5,-436.5 998.5,-455.5 1093.5,-455.5 1093.5,-436.5 998.5,-436.5"/>
<text text-anchor="middle" x="1046" y="-443.5" font-family="Helvetica,sans-Serif" font-size="10.00">spdlog/formatter.h</text>
</a>
</g>
</g>
<!-- Node2&#45;&gt;Node35 -->
<g id="edge44" class="edge"><title>Node2&#45;&gt;Node35</title>
<path fill="none" stroke="midnightblue" d="M448.679,-495.798C577.084,-485.308 865.284,-461.763 988.43,-451.703"/>
<polygon fill="midnightblue" stroke="midnightblue" points="988.735,-455.19 998.417,-450.887 988.165,-448.213 988.735,-455.19"/>
</g>
<!-- Node37 -->
<g id="node37" class="node"><title>Node37</title>
<polygon fill="none" stroke="#bfbfbf" points="1408,-308 1408,-327 1452,-327 1452,-308 1408,-308"/>
<text text-anchor="middle" x="1430" y="-315" font-family="Helvetica,sans-Serif" font-size="10.00">mutex</text>
</g>
<!-- Node2&#45;&gt;Node37 -->
<g id="edge64" class="edge"><title>Node2&#45;&gt;Node37</title>
<path fill="none" stroke="midnightblue" d="M448.582,-499.91C574.04,-497.121 862.1,-487.542 1102,-456 1226.96,-439.57 1276.67,-472.166 1380,-400 1402.29,-384.434 1416.52,-355.43 1423.89,-336.552"/>
<polygon fill="midnightblue" stroke="midnightblue" points="1427.22,-337.614 1427.36,-327.02 1420.65,-335.219 1427.22,-337.614"/>
</g>
<!-- Node3&#45;&gt;Node4 -->
<g id="edge3" class="edge"><title>Node3&#45;&gt;Node4</title>
<path fill="none" stroke="midnightblue" d="M310.451,-374.734C314.739,-366.287 321.415,-353.138 327.233,-341.678"/>
<polygon fill="midnightblue" stroke="midnightblue" points="330.441,-343.09 331.847,-332.589 324.199,-339.921 330.441,-343.09"/>
</g>
<!-- Node4&#45;&gt;Node5 -->
<g id="edge4" class="edge"><title>Node4&#45;&gt;Node5</title>
<path fill="none" stroke="midnightblue" d="M338.755,-302.337C338.396,-281.622 337.728,-243.016 337.327,-219.899"/>
<polygon fill="midnightblue" stroke="midnightblue" points="340.823,-219.607 337.15,-209.669 333.824,-219.729 340.823,-219.607"/>
</g>
<!-- Node4&#45;&gt;Node6 -->
<g id="edge42" class="edge"><title>Node4&#45;&gt;Node6</title>
<path fill="none" stroke="midnightblue" d="M292.813,-305.175C233.924,-290.695 139.472,-267.322 138,-266 115.086,-245.426 114,-231.795 114,-201 114,-201 114,-201 114,-137.5 114,-98.7728 122.816,-54.1089 128.438,-29.5661"/>
<polygon fill="midnightblue" stroke="midnightblue" points="131.917,-30.0609 130.82,-19.523 125.106,-28.4449 131.917,-30.0609"/>
</g>
<!-- Node24 -->
<g id="node24" class="node"><title>Node24</title>
<polygon fill="none" stroke="#bfbfbf" points="784,-0.5 784,-19.5 824,-19.5 824,-0.5 784,-0.5"/>
<text text-anchor="middle" x="804" y="-7.5" font-family="Helvetica,sans-Serif" font-size="10.00">utility</text>
</g>
<!-- Node4&#45;&gt;Node24 -->
<g id="edge43" class="edge"><title>Node4&#45;&gt;Node24</title>
<path fill="none" stroke="midnightblue" d="M348.847,-302.184C368.299,-275.164 414.524,-216.951 469,-190 566.858,-141.587 620.265,-213.2 712,-154 758.817,-123.787 786.609,-60.3915 797.981,-29.1671"/>
<polygon fill="midnightblue" stroke="midnightblue" points="801.339,-30.1663 801.323,-19.5715 794.728,-27.8641 801.339,-30.1663"/>
</g>
<!-- Node26 -->
<g id="node26" class="node"><title>Node26</title>
<g id="a_node26"><a xlink:href="os_8h.html" target="_top" xlink:title="spdlog/details/os.h">
<polygon fill="none" stroke="black" points="716,-246.5 716,-265.5 814,-265.5 814,-246.5 716,-246.5"/>
<text text-anchor="middle" x="765" y="-253.5" font-family="Helvetica,sans-Serif" font-size="10.00">spdlog/details/os.h</text>
</a>
</g>
</g>
<!-- Node4&#45;&gt;Node26 -->
<g id="edge28" class="edge"><title>Node4&#45;&gt;Node26</title>
<path fill="none" stroke="midnightblue" d="M385.4,-310.019C463.212,-299.151 619.885,-277.268 705.617,-265.294"/>
<polygon fill="midnightblue" stroke="midnightblue" points="706.291,-268.734 715.711,-263.884 705.322,-261.801 706.291,-268.734"/>
</g>
<!-- Node5&#45;&gt;Node6 -->
<g id="edge5" class="edge"><title>Node5&#45;&gt;Node6</title>
<path fill="none" stroke="midnightblue" d="M289.891,-191.947C263.359,-185.839 231.195,-174.581 209,-154 174.123,-121.659 189.762,-97.203 166,-56 160.313,-46.1389 152.895,-35.85 146.532,-27.6033"/>
<polygon fill="midnightblue" stroke="midnightblue" points="149.126,-25.241 140.174,-19.5734 143.638,-29.5862 149.126,-25.241"/>
</g>
<!-- Node7 -->
<g id="node7" class="node"><title>Node7</title>
<polygon fill="none" stroke="#bfbfbf" points="401.5,-129 401.5,-148 474.5,-148 474.5,-129 401.5,-129"/>
<text text-anchor="middle" x="438" y="-136" font-family="Helvetica,sans-Serif" font-size="10.00">initializer_list</text>
</g>
<!-- Node5&#45;&gt;Node7 -->
<g id="edge6" class="edge"><title>Node5&#45;&gt;Node7</title>
<path fill="none" stroke="midnightblue" d="M351.471,-190.475C367.971,-180.755 395.178,-164.727 414.681,-153.237"/>
<polygon fill="midnightblue" stroke="midnightblue" points="416.716,-156.101 423.556,-148.009 413.163,-150.069 416.716,-156.101"/>
</g>
<!-- Node8 -->
<g id="node8" class="node"><title>Node8</title>
<polygon fill="none" stroke="#bfbfbf" points="1023,-129 1023,-148 1069,-148 1069,-129 1023,-129"/>
<text text-anchor="middle" x="1046" y="-136" font-family="Helvetica,sans-Serif" font-size="10.00">chrono</text>
</g>
<!-- Node5&#45;&gt;Node8 -->
<g id="edge7" class="edge"><title>Node5&#45;&gt;Node8</title>
<path fill="none" stroke="midnightblue" d="M384.069,-195.05C517.697,-183.836 897.17,-151.99 1012.4,-142.319"/>
<polygon fill="midnightblue" stroke="midnightblue" points="1013.04,-145.778 1022.71,-141.454 1012.46,-138.803 1013.04,-145.778"/>
</g>
<!-- Node5&#45;&gt;Node9 -->
<g id="edge8" class="edge"><title>Node5&#45;&gt;Node9</title>
<path fill="none" stroke="midnightblue" d="M384.034,-195.69C409.23,-193.942 440.804,-191.795 469,-190 739.592,-172.778 812.838,-210.616 1078,-154 1215.47,-124.648 1369.29,-53.6547 1429.66,-24.1748"/>
<polygon fill="midnightblue" stroke="midnightblue" points="1431.43,-27.2059 1438.86,-19.6517 1428.34,-20.9245 1431.43,-27.2059"/>
</g>
<!-- Node10 -->
<g id="node10" class="node"><title>Node10</title>
<polygon fill="none" stroke="#bfbfbf" points="658,-62 658,-81 704,-81 704,-62 658,-62"/>
<text text-anchor="middle" x="681" y="-69" font-family="Helvetica,sans-Serif" font-size="10.00">atomic</text>
</g>
<!-- Node5&#45;&gt;Node10 -->
<g id="edge9" class="edge"><title>Node5&#45;&gt;Node10</title>
<path fill="none" stroke="midnightblue" d="M378.89,-190.477C408.989,-183.325 449.919,-171.445 483,-154 502.586,-143.671 502.309,-133.125 522,-123 573.794,-96.3666 593.214,-106.76 648,-87 649.659,-86.4015 651.353,-85.7591 653.054,-85.0896"/>
<polygon fill="midnightblue" stroke="midnightblue" points="654.795,-88.1558 662.678,-81.0771 652.102,-81.6948 654.795,-88.1558"/>
</g>
<!-- Node11 -->
<g id="node11" class="node"><title>Node11</title>
<polygon fill="none" stroke="#bfbfbf" points="324.5,-129 324.5,-148 383.5,-148 383.5,-129 324.5,-129"/>
<text text-anchor="middle" x="354" y="-136" font-family="Helvetica,sans-Serif" font-size="10.00">exception</text>
</g>
<!-- Node5&#45;&gt;Node11 -->
<g id="edge10" class="edge"><title>Node5&#45;&gt;Node11</title>
<path fill="none" stroke="midnightblue" d="M339.436,-190.475C341.859,-181.992 345.656,-168.704 348.765,-157.822"/>
<polygon fill="midnightblue" stroke="midnightblue" points="352.187,-158.586 351.569,-148.009 345.456,-156.663 352.187,-158.586"/>
</g>
<!-- Node12 -->
<g id="node12" class="node"><title>Node12</title>
<polygon fill="none" stroke="#bfbfbf" points="644.5,-129 644.5,-148 703.5,-148 703.5,-129 644.5,-129"/>
<text text-anchor="middle" x="674" y="-136" font-family="Helvetica,sans-Serif" font-size="10.00">functional</text>
</g>
<!-- Node5&#45;&gt;Node12 -->
<g id="edge11" class="edge"><title>Node5&#45;&gt;Node12</title>
<path fill="none" stroke="midnightblue" d="M384.055,-194.918C443.298,-189.092 547.868,-176.519 635,-154 637.819,-153.271 640.718,-152.413 643.601,-151.483"/>
<polygon fill="midnightblue" stroke="midnightblue" points="644.914,-154.732 653.204,-148.134 642.609,-148.122 644.914,-154.732"/>
</g>
<!-- Node13 -->
<g id="node13" class="node"><title>Node13</title>
<g id="a_node13"><a xlink:href="null__mutex_8h.html" target="_top" xlink:title="spdlog/details/null\l_mutex.h">
<polygon fill="none" stroke="black" points="531.5,-123.5 531.5,-153.5 626.5,-153.5 626.5,-123.5 531.5,-123.5"/>
<text text-anchor="start" x="539.5" y="-141.5" font-family="Helvetica,sans-Serif" font-size="10.00">spdlog/details/null</text>
<text text-anchor="middle" x="579" y="-130.5" font-family="Helvetica,sans-Serif" font-size="10.00">_mutex.h</text>
</a>
</g>
</g>
<!-- Node5&#45;&gt;Node13 -->
<g id="edge12" class="edge"><title>Node5&#45;&gt;Node13</title>
<path fill="none" stroke="midnightblue" d="M371.673,-190.475C410.758,-180.865 474.917,-165.091 521.525,-153.631"/>
<polygon fill="midnightblue" stroke="midnightblue" points="522.609,-156.969 531.484,-151.183 520.938,-150.171 522.609,-156.969"/>
</g>
<!-- Node14 -->
<g id="node14" class="node"><title>Node14</title>
<g id="a_node14"><a xlink:href="fmt_8h.html" target="_top" xlink:title="spdlog/fmt/fmt.h">
<polygon fill="none" stroke="black" points="218,-129 218,-148 306,-148 306,-129 218,-129"/>
<text text-anchor="middle" x="262" y="-136" font-family="Helvetica,sans-Serif" font-size="10.00">spdlog/fmt/fmt.h</text>
</a>
</g>
</g>
<!-- Node5&#45;&gt;Node14 -->
<g id="edge14" class="edge"><title>Node5&#45;&gt;Node14</title>
<path fill="none" stroke="midnightblue" d="M326.254,-190.475C314.447,-181.108 295.257,-165.884 280.918,-154.508"/>
<polygon fill="midnightblue" stroke="midnightblue" points="282.735,-151.482 272.726,-148.009 278.385,-156.966 282.735,-151.482"/>
</g>
<!-- Node13&#45;&gt;Node10 -->
<g id="edge13" class="edge"><title>Node13&#45;&gt;Node10</title>
<path fill="none" stroke="midnightblue" d="M601.132,-123.396C618.238,-112.496 641.803,-97.4787 658.9,-86.5835"/>
<polygon fill="midnightblue" stroke="midnightblue" points="661.098,-89.3328 667.651,-81.007 657.336,-83.4295 661.098,-89.3328"/>
</g>
<!-- Node15 -->
<g id="node15" class="node"><title>Node15</title>
<g id="a_node15"><a xlink:href="format_8h.html" target="_top" xlink:title="spdlog/fmt/bundled\l/format.h">
<polygon fill="none" stroke="black" points="540.5,-56.5 540.5,-86.5 639.5,-86.5 639.5,-56.5 540.5,-56.5"/>
<text text-anchor="start" x="548.5" y="-74.5" font-family="Helvetica,sans-Serif" font-size="10.00">spdlog/fmt/bundled</text>
<text text-anchor="middle" x="590" y="-63.5" font-family="Helvetica,sans-Serif" font-size="10.00">/format.h</text>
</a>
</g>
</g>
<!-- Node14&#45;&gt;Node15 -->
<g id="edge15" class="edge"><title>Node14&#45;&gt;Node15</title>
<path fill="none" stroke="midnightblue" d="M291.323,-128.997C298.995,-126.905 307.281,-124.761 315,-123 388.622,-106.201 474.319,-91.1706 530.227,-81.9625"/>
<polygon fill="midnightblue" stroke="midnightblue" points="531.007,-85.3815 540.31,-80.3118 529.876,-78.4735 531.007,-85.3815"/>
</g>
<!-- Node15&#45;&gt;Node6 -->
<g id="edge24" class="edge"><title>Node15&#45;&gt;Node6</title>
<path fill="none" stroke="midnightblue" d="M540.492,-58.7241C535.609,-57.7311 530.717,-56.802 526,-56 391.962,-33.2115 230.198,-18.7567 163.756,-13.3751"/>
<polygon fill="midnightblue" stroke="midnightblue" points="163.815,-9.86868 153.568,-12.5608 163.257,-16.8464 163.815,-9.86868"/>
</g>
<!-- Node15&#45;&gt;Node9 -->
<g id="edge22" class="edge"><title>Node15&#45;&gt;Node9</title>
<path fill="none" stroke="midnightblue" d="M639.762,-57.5708C642.876,-56.9791 645.974,-56.4472 649,-56 951.029,-11.3692 1030.3,-39.3243 1335,-20 1363.38,-18.1998 1395.49,-15.795 1419.49,-13.9241"/>
<polygon fill="midnightblue" stroke="midnightblue" points="1419.88,-17.4043 1429.57,-13.1323 1419.33,-10.4258 1419.88,-17.4043"/>
</g>
<!-- Node16 -->
<g id="node16" class="node"><title>Node16</title>
<polygon fill="none" stroke="#bfbfbf" points="467.5,-0.5 467.5,-19.5 516.5,-19.5 516.5,-0.5 467.5,-0.5"/>
<text text-anchor="middle" x="492" y="-7.5" font-family="Helvetica,sans-Serif" font-size="10.00">cassert</text>
</g>
<!-- Node15&#45;&gt;Node16 -->
<g id="edge16" class="edge"><title>Node15&#45;&gt;Node16</title>
<path fill="none" stroke="midnightblue" d="M566.775,-56.3993C551.214,-46.9511 530.803,-34.5589 515.238,-25.1089"/>
<polygon fill="midnightblue" stroke="midnightblue" points="516.624,-21.8558 506.26,-19.6578 512.991,-27.8394 516.624,-21.8558"/>
</g>
<!-- Node17 -->
<g id="node17" class="node"><title>Node17</title>
<polygon fill="none" stroke="#bfbfbf" points="534.5,-0.5 534.5,-19.5 581.5,-19.5 581.5,-0.5 534.5,-0.5"/>
<text text-anchor="middle" x="558" y="-7.5" font-family="Helvetica,sans-Serif" font-size="10.00">clocale</text>
</g>
<!-- Node15&#45;&gt;Node17 -->
<g id="edge17" class="edge"><title>Node15&#45;&gt;Node17</title>
<path fill="none" stroke="midnightblue" d="M582.416,-56.3993C577.958,-48.1098 572.281,-37.5542 567.523,-28.7077"/>
<polygon fill="midnightblue" stroke="midnightblue" points="570.475,-26.8071 562.656,-19.6578 564.31,-30.1227 570.475,-26.8071"/>
</g>
<!-- Node18 -->
<g id="node18" class="node"><title>Node18</title>
<polygon fill="none" stroke="#bfbfbf" points="600,-0.5 600,-19.5 644,-19.5 644,-0.5 600,-0.5"/>
<text text-anchor="middle" x="622" y="-7.5" font-family="Helvetica,sans-Serif" font-size="10.00">cmath</text>
</g>
<!-- Node15&#45;&gt;Node18 -->
<g id="edge18" class="edge"><title>Node15&#45;&gt;Node18</title>
<path fill="none" stroke="midnightblue" d="M597.584,-56.3993C602.042,-48.1098 607.719,-37.5542 612.477,-28.7077"/>
<polygon fill="midnightblue" stroke="midnightblue" points="615.69,-30.1227 617.344,-19.6578 609.525,-26.8071 615.69,-30.1227"/>
</g>
<!-- Node19 -->
<g id="node19" class="node"><title>Node19</title>
<polygon fill="none" stroke="#bfbfbf" points="1075.5,-0.5 1075.5,-19.5 1118.5,-19.5 1118.5,-0.5 1075.5,-0.5"/>
<text text-anchor="middle" x="1097" y="-7.5" font-family="Helvetica,sans-Serif" font-size="10.00">cstdio</text>
</g>
<!-- Node15&#45;&gt;Node19 -->
<g id="edge19" class="edge"><title>Node15&#45;&gt;Node19</title>
<path fill="none" stroke="midnightblue" d="M639.79,-57.7407C642.897,-57.1068 645.986,-56.5192 649,-56 803.925,-29.3186 991.916,-16.7868 1065.41,-12.6394"/>
<polygon fill="midnightblue" stroke="midnightblue" points="1065.61,-16.1336 1075.41,-12.0876 1065.23,-9.14422 1065.61,-16.1336"/>
</g>
<!-- Node20 -->
<g id="node20" class="node"><title>Node20</title>
<polygon fill="none" stroke="#bfbfbf" points="662,-0.5 662,-19.5 708,-19.5 708,-0.5 662,-0.5"/>
<text text-anchor="middle" x="685" y="-7.5" font-family="Helvetica,sans-Serif" font-size="10.00">cstring</text>
</g>
<!-- Node15&#45;&gt;Node20 -->
<g id="edge20" class="edge"><title>Node15&#45;&gt;Node20</title>
<path fill="none" stroke="midnightblue" d="M612.514,-56.3993C627.599,-46.9511 647.385,-34.5589 662.473,-25.1089"/>
<polygon fill="midnightblue" stroke="midnightblue" points="664.559,-27.9321 671.177,-19.6578 660.844,-21.9996 664.559,-27.9321"/>
</g>
<!-- Node21 -->
<g id="node21" class="node"><title>Node21</title>
<polygon fill="none" stroke="#bfbfbf" points="726,-0.5 726,-19.5 766,-19.5 766,-0.5 726,-0.5"/>
<text text-anchor="middle" x="746" y="-7.5" font-family="Helvetica,sans-Serif" font-size="10.00">limits</text>
</g>
<!-- Node15&#45;&gt;Node21 -->
<g id="edge21" class="edge"><title>Node15&#45;&gt;Node21</title>
<path fill="none" stroke="midnightblue" d="M626.97,-56.3993C654.332,-45.9631 691.112,-31.935 716.51,-22.2476"/>
<polygon fill="midnightblue" stroke="midnightblue" points="717.879,-25.4718 725.975,-18.6378 715.384,-18.9314 717.879,-25.4718"/>
</g>
<!-- Node22 -->
<g id="node22" class="node"><title>Node22</title>
<polygon fill="none" stroke="#bfbfbf" points="323.5,-0.5 323.5,-19.5 382.5,-19.5 382.5,-0.5 323.5,-0.5"/>
<text text-anchor="middle" x="353" y="-7.5" font-family="Helvetica,sans-Serif" font-size="10.00">stdexcept</text>
</g>
<!-- Node15&#45;&gt;Node22 -->
<g id="edge23" class="edge"><title>Node15&#45;&gt;Node22</title>
<path fill="none" stroke="midnightblue" d="M540.317,-58.0269C496.396,-47.0004 433.174,-31.1281 392.59,-20.9391"/>
<polygon fill="midnightblue" stroke="midnightblue" points="393.336,-17.518 382.785,-18.4776 391.631,-24.3073 393.336,-17.518"/>
</g>
<!-- Node15&#45;&gt;Node23 -->
<g id="edge25" class="edge"><title>Node15&#45;&gt;Node23</title>
<path fill="none" stroke="midnightblue" d="M639.771,-57.6285C642.883,-57.0224 645.978,-56.4716 649,-56 710.766,-46.362 1147.68,-20.1963 1271.42,-12.9074"/>
<polygon fill="midnightblue" stroke="midnightblue" points="1271.97,-16.3811 1281.74,-12.3 1271.56,-9.39322 1271.97,-16.3811"/>
</g>
<!-- Node15&#45;&gt;Node24 -->
<g id="edge26" class="edge"><title>Node15&#45;&gt;Node24</title>
<path fill="none" stroke="midnightblue" d="M639.599,-57.4576C674.665,-48.1236 723.007,-35.0297 773.881,-20.2595"/>
<polygon fill="midnightblue" stroke="midnightblue" points="775.125,-23.5425 783.745,-17.3834 773.165,-16.8223 775.125,-23.5425"/>
</g>
<!-- Node25 -->
<g id="node25" class="node"><title>Node25</title>
<polygon fill="none" stroke="#bfbfbf" points="400.5,-0.5 400.5,-19.5 449.5,-19.5 449.5,-0.5 400.5,-0.5"/>
<text text-anchor="middle" x="425" y="-7.5" font-family="Helvetica,sans-Serif" font-size="10.00">stdint.h</text>
</g>
<!-- Node15&#45;&gt;Node25 -->
<g id="edge27" class="edge"><title>Node15&#45;&gt;Node25</title>
<path fill="none" stroke="midnightblue" d="M550.897,-56.3993C522.842,-46.2826 485.427,-32.7905 458.691,-23.1493"/>
<polygon fill="midnightblue" stroke="midnightblue" points="459.603,-19.7576 449.009,-19.6578 457.229,-26.3426 459.603,-19.7576"/>
</g>
<!-- Node26&#45;&gt;Node5 -->
<g id="edge29" class="edge"><title>Node26&#45;&gt;Node5</title>
<path fill="none" stroke="midnightblue" d="M715.903,-248.806C636.146,-238.743 478.85,-218.897 394.176,-208.214"/>
<polygon fill="midnightblue" stroke="midnightblue" points="394.58,-204.737 384.22,-206.958 393.703,-211.682 394.58,-204.737"/>
</g>
<!-- Node26&#45;&gt;Node6 -->
<g id="edge33" class="edge"><title>Node26&#45;&gt;Node6</title>
<path fill="none" stroke="midnightblue" d="M715.837,-247.767C673.95,-240.48 618.46,-227.768 605,-210 599.633,-202.915 599.813,-197.218 605,-190 634.281,-149.255 682.719,-194.745 712,-154 720.04,-142.812 720.769,-133.627 712,-123 710.878,-121.641 282.721,-39.6434 163.493,-16.8321"/>
<polygon fill="midnightblue" stroke="midnightblue" points="164.042,-13.3736 153.562,-14.9322 162.727,-20.249 164.042,-13.3736"/>
</g>
<!-- Node26&#45;&gt;Node8 -->
<g id="edge34" class="edge"><title>Node26&#45;&gt;Node8</title>
<path fill="none" stroke="midnightblue" d="M814.171,-253.221C882.645,-249.693 1001.74,-239.396 1032,-210 1045.54,-196.847 1047.97,-174.62 1047.69,-158.636"/>
<polygon fill="midnightblue" stroke="midnightblue" points="1051.16,-158.115 1047.12,-148.32 1044.17,-158.496 1051.16,-158.115"/>
</g>
<!-- Node26&#45;&gt;Node12 -->
<g id="edge32" class="edge"><title>Node26&#45;&gt;Node12</title>
<path fill="none" stroke="midnightblue" d="M715.865,-250.412C664.721,-244.5 589.646,-232.233 572,-210 566.474,-203.037 567.312,-197.552 572,-190 576.237,-183.175 616.249,-164.643 644.876,-152.032"/>
<polygon fill="midnightblue" stroke="midnightblue" points="646.32,-155.221 654.08,-148.008 643.515,-148.807 646.32,-155.221"/>
</g>
<!-- Node26&#45;&gt;Node19 -->
<g id="edge30" class="edge"><title>Node26&#45;&gt;Node19</title>
<path fill="none" stroke="midnightblue" d="M814.187,-252.801C886.107,-248.683 1015.4,-237.585 1052,-210 1108.37,-167.52 1104.25,-70.6015 1099.65,-29.7302"/>
<polygon fill="midnightblue" stroke="midnightblue" points="1103.12,-29.2622 1098.4,-19.7804 1096.18,-30.1406 1103.12,-29.2622"/>
</g>
<!-- Node27 -->
<g id="node27" class="node"><title>Node27</title>
<polygon fill="none" stroke="#bfbfbf" points="478.5,-190.5 478.5,-209.5 519.5,-209.5 519.5,-190.5 478.5,-190.5"/>
<text text-anchor="middle" x="499" y="-197.5" font-family="Helvetica,sans-Serif" font-size="10.00">ctime</text>
</g>
<!-- Node26&#45;&gt;Node27 -->
<g id="edge31" class="edge"><title>Node26&#45;&gt;Node27</title>
<path fill="none" stroke="midnightblue" d="M716.601,-246.435C669.741,-237.939 596.772,-224.172 534,-210 532.546,-209.672 531.061,-209.327 529.563,-208.972"/>
<polygon fill="midnightblue" stroke="midnightblue" points="530.226,-205.53 519.679,-206.534 528.55,-212.327 530.226,-205.53"/>
</g>
<!-- Node28 -->
<g id="node28" class="node"><title>Node28</title>
<polygon fill="none" stroke="#bfbfbf" points="1118,-190.5 1118,-209.5 1162,-209.5 1162,-190.5 1118,-190.5"/>
<text text-anchor="middle" x="1140" y="-197.5" font-family="Helvetica,sans-Serif" font-size="10.00">thread</text>
</g>
<!-- Node26&#45;&gt;Node28 -->
<g id="edge35" class="edge"><title>Node26&#45;&gt;Node28</title>
<path fill="none" stroke="midnightblue" d="M814.119,-250.241C880.31,-243.426 1001.65,-229.522 1104,-210 1105.25,-209.762 1106.51,-209.508 1107.79,-209.241"/>
<polygon fill="midnightblue" stroke="midnightblue" points="1108.64,-212.637 1117.62,-207.011 1107.09,-205.811 1108.64,-212.637"/>
</g>
<!-- Node29 -->
<g id="node29" class="node"><title>Node29</title>
<polygon fill="none" stroke="#bfbfbf" points="676,-190.5 676,-209.5 722,-209.5 722,-190.5 676,-190.5"/>
<text text-anchor="middle" x="699" y="-197.5" font-family="Helvetica,sans-Serif" font-size="10.00">stdio.h</text>
</g>
<!-- Node26&#45;&gt;Node29 -->
<g id="edge36" class="edge"><title>Node26&#45;&gt;Node29</title>
<path fill="none" stroke="midnightblue" d="M754.396,-246.324C744.544,-238.263 729.649,-226.077 717.785,-216.369"/>
<polygon fill="midnightblue" stroke="midnightblue" points="719.753,-213.457 709.797,-209.834 715.32,-218.875 719.753,-213.457"/>
</g>
<!-- Node30 -->
<g id="node30" class="node"><title>Node30</title>
<polygon fill="none" stroke="#bfbfbf" points="740.5,-190.5 740.5,-209.5 789.5,-209.5 789.5,-190.5 740.5,-190.5"/>
<text text-anchor="middle" x="765" y="-197.5" font-family="Helvetica,sans-Serif" font-size="10.00">string.h</text>
</g>
<!-- Node26&#45;&gt;Node30 -->
<g id="edge37" class="edge"><title>Node26&#45;&gt;Node30</title>
<path fill="none" stroke="midnightblue" d="M765,-246.083C765,-239.006 765,-228.861 765,-219.986"/>
<polygon fill="midnightblue" stroke="midnightblue" points="768.5,-219.751 765,-209.751 761.5,-219.751 768.5,-219.751"/>
</g>
<!-- Node31 -->
<g id="node31" class="node"><title>Node31</title>
<polygon fill="none" stroke="#bfbfbf" points="808,-190.5 808,-209.5 868,-209.5 868,-190.5 808,-190.5"/>
<text text-anchor="middle" x="838" y="-197.5" font-family="Helvetica,sans-Serif" font-size="10.00">sys/stat.h</text>
</g>
<!-- Node26&#45;&gt;Node31 -->
<g id="edge38" class="edge"><title>Node26&#45;&gt;Node31</title>
<path fill="none" stroke="midnightblue" d="M776.729,-246.324C787.837,-238.107 804.742,-225.602 817.983,-215.807"/>
<polygon fill="midnightblue" stroke="midnightblue" points="820.1,-218.595 826.058,-209.834 815.937,-212.967 820.1,-218.595"/>
</g>
<!-- Node32 -->
<g id="node32" class="node"><title>Node32</title>
<polygon fill="none" stroke="#bfbfbf" points="886,-190.5 886,-209.5 954,-209.5 954,-190.5 886,-190.5"/>
<text text-anchor="middle" x="920" y="-197.5" font-family="Helvetica,sans-Serif" font-size="10.00">sys/types.h</text>
</g>
<!-- Node26&#45;&gt;Node32 -->
<g id="edge39" class="edge"><title>Node26&#45;&gt;Node32</title>
<path fill="none" stroke="midnightblue" d="M789.56,-246.444C815.523,-237.399 856.668,-223.064 885.797,-212.916"/>
<polygon fill="midnightblue" stroke="midnightblue" points="887.263,-216.112 895.555,-209.516 884.96,-209.501 887.263,-216.112"/>
</g>
<!-- Node33 -->
<g id="node33" class="node"><title>Node33</title>
<polygon fill="none" stroke="#bfbfbf" points="972.5,-190.5 972.5,-209.5 1023.5,-209.5 1023.5,-190.5 972.5,-190.5"/>
<text text-anchor="middle" x="998" y="-197.5" font-family="Helvetica,sans-Serif" font-size="10.00">unistd.h</text>
</g>
<!-- Node26&#45;&gt;Node33 -->
<g id="edge40" class="edge"><title>Node26&#45;&gt;Node33</title>
<path fill="none" stroke="midnightblue" d="M804.148,-246.445C842.114,-238.071 901.586,-224.755 962.603,-210.043"/>
<polygon fill="midnightblue" stroke="midnightblue" points="963.511,-213.424 972.407,-207.67 961.864,-206.621 963.511,-213.424"/>
</g>
<!-- Node34 -->
<g id="node34" class="node"><title>Node34</title>
<polygon fill="none" stroke="#bfbfbf" points="614,-190.5 614,-209.5 658,-209.5 658,-190.5 614,-190.5"/>
<text text-anchor="middle" x="636" y="-197.5" font-family="Helvetica,sans-Serif" font-size="10.00">fcntl.h</text>
</g>
<!-- Node26&#45;&gt;Node34 -->
<g id="edge41" class="edge"><title>Node26&#45;&gt;Node34</title>
<path fill="none" stroke="midnightblue" d="M744.56,-246.444C723.33,-237.557 689.901,-223.563 665.745,-213.451"/>
<polygon fill="midnightblue" stroke="midnightblue" points="666.921,-210.149 656.345,-209.516 664.218,-216.606 666.921,-210.149"/>
</g>
<!-- Node35&#45;&gt;Node4 -->
<g id="edge45" class="edge"><title>Node35&#45;&gt;Node4</title>
<path fill="none" stroke="midnightblue" d="M998.312,-437.844C890.898,-421.487 621.975,-379.19 399,-333 397.731,-332.737 396.448,-332.467 395.155,-332.19"/>
<polygon fill="midnightblue" stroke="midnightblue" points="395.639,-328.713 385.119,-329.969 394.126,-335.547 395.639,-328.713"/>
</g>
<!-- Node35&#45;&gt;Node6 -->
<g id="edge47" class="edge"><title>Node35&#45;&gt;Node6</title>
<path fill="none" stroke="midnightblue" d="M998.06,-443.046C876.177,-436.996 545.583,-413.798 284,-333 179.388,-300.687 76,-310.489 76,-201 76,-201 76,-201 76,-137.5 76,-94.969 103.114,-50.9312 119.941,-27.6963"/>
<polygon fill="midnightblue" stroke="midnightblue" points="122.815,-29.6969 126.011,-19.5954 117.213,-25.4995 122.815,-29.6969"/>
</g>
<!-- Node35&#45;&gt;Node9 -->
<g id="edge48" class="edge"><title>Node35&#45;&gt;Node9</title>
<path fill="none" stroke="midnightblue" d="M1090.67,-436.478C1137.19,-427.189 1206.63,-412.042 1231,-400 1273.5,-379.001 1284.16,-369.836 1314,-333 1391.2,-237.709 1397.51,-202.408 1439,-87 1445.85,-67.9567 1450.5,-45.2024 1453.18,-29.5859"/>
<polygon fill="midnightblue" stroke="midnightblue" points="1456.65,-30.0617 1454.79,-19.6313 1449.74,-28.9446 1456.65,-30.0617"/>
</g>
<!-- Node35&#45;&gt;Node23 -->
<g id="edge46" class="edge"><title>Node35&#45;&gt;Node23</title>
<path fill="none" stroke="midnightblue" d="M1085.68,-436.461C1155.19,-418.9 1294.78,-371.203 1328,-266 1354.98,-180.574 1324.63,-71.6778 1310.48,-29.1571"/>
<polygon fill="midnightblue" stroke="midnightblue" points="1313.76,-27.9392 1307.2,-19.6211 1307.14,-30.2158 1313.76,-27.9392"/>
</g>
<!-- Node36 -->
<g id="node36" class="node"><title>Node36</title>
<g id="a_node36"><a xlink:href="pattern__formatter__impl_8h.html" target="_top" xlink:title="spdlog/details/pattern\l_formatter_impl.h">
<polygon fill="none" stroke="black" points="991,-369.5 991,-399.5 1101,-399.5 1101,-369.5 991,-369.5"/>
<text text-anchor="start" x="999" y="-387.5" font-family="Helvetica,sans-Serif" font-size="10.00">spdlog/details/pattern</text>
<text text-anchor="middle" x="1046" y="-376.5" font-family="Helvetica,sans-Serif" font-size="10.00">_formatter_impl.h</text>
</a>
</g>
</g>
<!-- Node35&#45;&gt;Node36 -->
<g id="edge49" class="edge"><title>Node35&#45;&gt;Node36</title>
<path fill="none" stroke="midnightblue" d="M1041.1,-436.475C1039.57,-429.471 1038.99,-419.192 1039.36,-409.696"/>
<polygon fill="midnightblue" stroke="midnightblue" points="1042.86,-409.77 1040.17,-399.523 1035.88,-409.212 1042.86,-409.77"/>
</g>
<!-- Node36&#45;&gt;Node4 -->
<g id="edge51" class="edge"><title>Node36&#45;&gt;Node4</title>
<path fill="none" stroke="midnightblue" d="M990.692,-382.148C878.477,-378.753 616.261,-367.506 399,-333 397.72,-332.797 396.427,-332.58 395.125,-332.352"/>
<polygon fill="midnightblue" stroke="midnightblue" points="395.52,-328.864 385.038,-330.409 394.196,-335.738 395.52,-328.864"/>
</g>
<!-- Node36&#45;&gt;Node6 -->
<g id="edge58" class="edge"><title>Node36&#45;&gt;Node6</title>
<path fill="none" stroke="midnightblue" d="M990.938,-380.75C850.273,-373.472 485.173,-352.896 434,-333 413.037,-324.849 413.436,-313.319 394,-302 293.286,-243.349 152,-317.547 152,-201 152,-201 152,-201 152,-137.5 152,-98.7728 143.184,-54.1089 137.562,-29.5661"/>
<polygon fill="midnightblue" stroke="midnightblue" points="140.894,-28.4449 135.18,-19.523 134.083,-30.0609 140.894,-28.4449"/>
</g>
<!-- Node36&#45;&gt;Node8 -->
<g id="edge54" class="edge"><title>Node36&#45;&gt;Node8</title>
<path fill="none" stroke="midnightblue" d="M1067.75,-369.292C1114.28,-337.114 1215.73,-256.312 1171,-190 1150.63,-159.798 1108.82,-147.654 1079.17,-142.773"/>
<polygon fill="midnightblue" stroke="midnightblue" points="1079.65,-139.306 1069.25,-141.332 1078.64,-146.233 1079.65,-139.306"/>
</g>
<!-- Node36&#45;&gt;Node9 -->
<g id="edge56" class="edge"><title>Node36&#45;&gt;Node9</title>
<path fill="none" stroke="midnightblue" d="M1101.43,-381.104C1145.81,-376.717 1207.75,-364.809 1252,-333 1310.16,-291.192 1415.83,-89.8417 1447.07,-28.6659"/>
<polygon fill="midnightblue" stroke="midnightblue" points="1450.31,-30.0145 1451.72,-19.514 1444.07,-26.843 1450.31,-30.0145"/>
</g>
<!-- Node36&#45;&gt;Node14 -->
<g id="edge53" class="edge"><title>Node36&#45;&gt;Node14</title>
<path fill="none" stroke="midnightblue" d="M990.897,-374.053C936.587,-364.522 851.326,-348.969 778,-333 555.658,-284.579 443.556,-369.235 281,-210 267.301,-196.581 263.157,-174.402 262.06,-158.503"/>
<polygon fill="midnightblue" stroke="midnightblue" points="265.549,-158.124 261.706,-148.25 258.553,-158.365 265.549,-158.124"/>
</g>
<!-- Node36&#45;&gt;Node23 -->
<g id="edge61" class="edge"><title>Node36&#45;&gt;Node23</title>
<path fill="none" stroke="midnightblue" d="M1101.23,-376.109C1166.4,-363.925 1266,-332.89 1266,-257 1266,-257 1266,-257 1266,-199 1266,-135.875 1286.84,-63.1488 1297.65,-29.6558"/>
<polygon fill="midnightblue" stroke="midnightblue" points="1301.07,-30.4652 1300.89,-19.8719 1294.43,-28.2654 1301.07,-30.4652"/>
</g>
<!-- Node36&#45;&gt;Node24 -->
<g id="edge60" class="edge"><title>Node36&#45;&gt;Node24</title>
<path fill="none" stroke="midnightblue" d="M1084.5,-369.314C1104.08,-360.82 1127.39,-348.619 1145,-333 1194.85,-288.79 1222.87,-247.958 1190,-190 1115,-57.7473 911.094,-22.4489 834.035,-13.6922"/>
<polygon fill="midnightblue" stroke="midnightblue" points="834.345,-10.2055 824.03,-12.6254 833.603,-17.166 834.345,-10.2055"/>
</g>
<!-- Node36&#45;&gt;Node26 -->
<g id="edge52" class="edge"><title>Node36&#45;&gt;Node26</title>
<path fill="none" stroke="midnightblue" d="M1014.85,-369.479C959.835,-344.71 846.265,-293.584 793.323,-269.75"/>
<polygon fill="midnightblue" stroke="midnightblue" points="794.726,-266.544 784.171,-265.63 791.853,-272.927 794.726,-266.544"/>
</g>
<!-- Node36&#45;&gt;Node27 -->
<g id="edge55" class="edge"><title>Node36&#45;&gt;Node27</title>
<path fill="none" stroke="midnightblue" d="M993.454,-369.468C958.1,-359.792 910.536,-346.319 869,-333 741.655,-292.165 592.317,-236.443 529.389,-212.597"/>
<polygon fill="midnightblue" stroke="midnightblue" points="530.293,-209.196 519.702,-208.919 527.808,-215.74 530.293,-209.196"/>
</g>
<!-- Node36&#45;&gt;Node28 -->
<g id="edge59" class="edge"><title>Node36&#45;&gt;Node28</title>
<path fill="none" stroke="midnightblue" d="M1053.22,-369.483C1070.12,-336.676 1112.21,-254.949 1130.86,-218.745"/>
<polygon fill="midnightblue" stroke="midnightblue" points="1133.99,-220.311 1135.46,-209.819 1127.77,-217.106 1133.99,-220.311"/>
</g>
<!-- Node36&#45;&gt;Node35 -->
<g id="edge50" class="edge"><title>Node36&#45;&gt;Node35</title>
<path fill="none" stroke="midnightblue" d="M1051.83,-399.523C1052.87,-407.586 1053.03,-417.813 1052.3,-426.526"/>
<polygon fill="midnightblue" stroke="midnightblue" points="1048.83,-426.085 1050.9,-436.475 1055.76,-427.06 1048.83,-426.085"/>
</g>
<!-- Node36&#45;&gt;Node37 -->
<g id="edge57" class="edge"><title>Node36&#45;&gt;Node37</title>
<path fill="none" stroke="midnightblue" d="M1101.02,-374.187C1182.35,-360.421 1332.1,-335.072 1397.74,-323.961"/>
<polygon fill="midnightblue" stroke="midnightblue" points="1398.62,-327.362 1407.89,-322.242 1397.45,-320.46 1398.62,-327.362"/>
</g>
<!-- Node38&#45;&gt;Node1 -->
<g id="edge70" class="edge"><title>Node38&#45;&gt;Node1</title>
<path fill="none" stroke="midnightblue" d="M625.418,-645.845C626.392,-653.278 626.832,-662.715 626.737,-671.958"/>
<polygon fill="midnightblue" stroke="midnightblue" points="623.232,-672.084 626.404,-682.193 630.228,-672.313 623.232,-672.084"/>
</g>
<!-- Node38&#45;&gt;Node6 -->
<g id="edge78" class="edge"><title>Node38&#45;&gt;Node6</title>
<path fill="none" stroke="midnightblue" d="M566.809,-617.61C423.135,-582.034 38,-462.299 38,-201 38,-201 38,-201 38,-137.5 38,-88.9251 83.3419,-47.0905 111.376,-25.867"/>
<polygon fill="midnightblue" stroke="midnightblue" points="113.782,-28.4441 119.791,-19.7181 109.652,-22.7923 113.782,-28.4441"/>
</g>
<!-- Node38&#45;&gt;Node9 -->
<g id="edge77" class="edge"><title>Node38&#45;&gt;Node9</title>
<path fill="none" stroke="midnightblue" d="M673.005,-627.963C871.01,-621.527 1556,-592.778 1556,-503 1556,-503 1556,-503 1556,-383.5 1556,-302.151 1570,-282.349 1570,-201 1570,-201 1570,-201 1570,-137.5 1570,-85.0747 1515.3,-44.5813 1481.68,-24.6442"/>
<polygon fill="midnightblue" stroke="midnightblue" points="1483.24,-21.5028 1472.82,-19.5732 1479.76,-27.5782 1483.24,-21.5028"/>
</g>
<!-- Node39 -->
<g id="node39" class="node"><title>Node39</title>
<g id="a_node39"><a xlink:href="stdout__sinks_8h.html" target="_top" xlink:title="spdlog/sinks/stdout\l_sinks.h">
<polygon fill="none" stroke="black" points="919.5,-548.5 919.5,-578.5 1020.5,-578.5 1020.5,-548.5 919.5,-548.5"/>
<text text-anchor="start" x="927.5" y="-566.5" font-family="Helvetica,sans-Serif" font-size="10.00">spdlog/sinks/stdout</text>
<text text-anchor="middle" x="970" y="-555.5" font-family="Helvetica,sans-Serif" font-size="10.00">_sinks.h</text>
</a>
</g>
</g>
<!-- Node38&#45;&gt;Node39 -->
<g id="edge71" class="edge"><title>Node38&#45;&gt;Node39</title>
<path fill="none" stroke="midnightblue" d="M673.157,-619.628C736.73,-607.822 842.89,-588.106 909.534,-575.729"/>
<polygon fill="midnightblue" stroke="midnightblue" points="910.281,-579.151 919.473,-573.883 909.003,-572.268 910.281,-579.151"/>
</g>
<!-- Node39&#45;&gt;Node2 -->
<g id="edge73" class="edge"><title>Node39&#45;&gt;Node2</title>
<path fill="none" stroke="midnightblue" d="M919.363,-557.35C815.796,-546.816 579.385,-522.771 458.756,-510.502"/>
<polygon fill="midnightblue" stroke="midnightblue" points="458.812,-506.989 448.509,-509.46 458.104,-513.954 458.812,-506.989"/>
</g>
<!-- Node39&#45;&gt;Node9 -->
<g id="edge75" class="edge"><title>Node39&#45;&gt;Node9</title>
<path fill="none" stroke="midnightblue" d="M1020.57,-562.506C1156.23,-561.167 1518,-548.118 1518,-447 1518,-447 1518,-447 1518,-383.5 1518,-301.691 1494,-282.809 1494,-201 1494,-201 1494,-201 1494,-137.5 1494,-97.3496 1476.22,-52.9463 1464.99,-28.8892"/>
<polygon fill="midnightblue" stroke="midnightblue" points="1468.01,-27.1043 1460.51,-19.6255 1461.71,-30.1518 1468.01,-27.1043"/>
</g>
<!-- Node39&#45;&gt;Node13 -->
<g id="edge72" class="edge"><title>Node39&#45;&gt;Node13</title>
<path fill="none" stroke="midnightblue" d="M928.385,-548.476C827.115,-511.798 568.838,-402.32 469,-210 454.542,-182.149 487.834,-163.811 521.49,-152.838"/>
<polygon fill="midnightblue" stroke="midnightblue" points="522.883,-156.072 531.422,-149.801 520.836,-149.378 522.883,-156.072"/>
</g>
<!-- Node39&#45;&gt;Node19 -->
<g id="edge74" class="edge"><title>Node39&#45;&gt;Node19</title>
<path fill="none" stroke="midnightblue" d="M1020.77,-561.704C1149.76,-558.315 1480,-540.507 1480,-447 1480,-447 1480,-447 1480,-383.5 1480,-187.507 1219.07,-61.282 1127.95,-23.1779"/>
<polygon fill="midnightblue" stroke="midnightblue" points="1129.27,-19.9348 1118.69,-19.3645 1126.6,-26.4078 1129.27,-19.9348"/>
</g>
<!-- Node39&#45;&gt;Node37 -->
<g id="edge76" class="edge"><title>Node39&#45;&gt;Node37</title>
<path fill="none" stroke="midnightblue" d="M1020.54,-558.486C1111.67,-548.482 1303.73,-514.291 1408,-400 1423.63,-382.867 1428.34,-355.772 1429.66,-337.579"/>
<polygon fill="midnightblue" stroke="midnightblue" points="1433.17,-337.482 1430.12,-327.337 1426.18,-337.172 1433.17,-337.482"/>
</g>
</g>
</svg>
