<?xml version="1.0" encoding="UTF-8" standalone="no"?>
<!DOCTYPE svg PUBLIC "-//W3C//DTD SVG 1.1//EN"
 "http://www.w3.org/Graphics/SVG/1.1/DTD/svg11.dtd">
<!-- Generated by graphviz version 2.38.0 (20140413.2041)
 -->
<!-- Title: /home/lucamuratore/advr&#45;superbuild/external/XBotInterface/include/spdlog/sinks/null_sink.h Pages: 1 -->
<svg width="1605pt" height="609pt"
 viewBox="0.00 0.00 1604.60 609.00" xmlns="http://www.w3.org/2000/svg" xmlns:xlink="http://www.w3.org/1999/xlink">
<g id="graph0" class="graph" transform="scale(1 1) rotate(0) translate(4 605)">
<title>/home/lucamuratore/advr&#45;superbuild/external/XBotInterface/include/spdlog/sinks/null_sink.h</title>
<!-- Node1 -->
<g id="node1" class="node"><title>Node1</title>
<polygon fill="#bfbfbf" stroke="black" points="1435.5,-548.5 1435.5,-600.5 1580.5,-600.5 1580.5,-548.5 1435.5,-548.5"/>
<text text-anchor="start" x="1443.5" y="-588.5" font-family="Helvetica,sans-Serif" font-size="10.00">/home/lucamuratore</text>
<text text-anchor="start" x="1443.5" y="-577.5" font-family="Helvetica,sans-Serif" font-size="10.00">/advr&#45;superbuild/external</text>
<text text-anchor="start" x="1443.5" y="-566.5" font-family="Helvetica,sans-Serif" font-size="10.00">/XBotInterface/include/spdlog</text>
<text text-anchor="middle" x="1508" y="-555.5" font-family="Helvetica,sans-Serif" font-size="10.00">/sinks/null_sink.h</text>
</g>
<!-- Node2 -->
<g id="node2" class="node"><title>Node2</title>
<g id="a_node2"><a xlink:href="base__sink_8h.html" target="_top" xlink:title="spdlog/sinks/base_sink.h">
<polygon fill="none" stroke="black" points="1328.5,-492.5 1328.5,-511.5 1455.5,-511.5 1455.5,-492.5 1328.5,-492.5"/>
<text text-anchor="middle" x="1392" y="-499.5" font-family="Helvetica,sans-Serif" font-size="10.00">spdlog/sinks/base_sink.h</text>
</a>
</g>
</g>
<!-- Node1&#45;&gt;Node2 -->
<g id="edge1" class="edge"><title>Node1&#45;&gt;Node2</title>
<path fill="none" stroke="midnightblue" d="M1466.78,-548.446C1449.36,-537.862 1429.74,-525.936 1414.97,-516.958"/>
<polygon fill="midnightblue" stroke="midnightblue" points="1416.39,-513.73 1406.03,-511.527 1412.76,-519.712 1416.39,-513.73"/>
</g>
<!-- Node13 -->
<g id="node13" class="node"><title>Node13</title>
<g id="a_node13"><a xlink:href="null__mutex_8h.html" target="_top" xlink:title="spdlog/details/null\l_mutex.h">
<polygon fill="none" stroke="black" points="1472.5,-123.5 1472.5,-153.5 1567.5,-153.5 1567.5,-123.5 1472.5,-123.5"/>
<text text-anchor="start" x="1480.5" y="-141.5" font-family="Helvetica,sans-Serif" font-size="10.00">spdlog/details/null</text>
<text text-anchor="middle" x="1520" y="-130.5" font-family="Helvetica,sans-Serif" font-size="10.00">_mutex.h</text>
</a>
</g>
</g>
<!-- Node1&#45;&gt;Node13 -->
<g id="edge65" class="edge"><title>Node1&#45;&gt;Node13</title>
<path fill="none" stroke="midnightblue" d="M1524.37,-548.483C1538.95,-523.753 1558,-484.312 1558,-447 1558,-447 1558,-447 1558,-255 1558,-221.717 1543.59,-185.62 1532.51,-162.8"/>
<polygon fill="midnightblue" stroke="midnightblue" points="1535.5,-160.949 1527.87,-153.593 1529.25,-164.099 1535.5,-160.949"/>
</g>
<!-- Node37 -->
<g id="node37" class="node"><title>Node37</title>
<polygon fill="none" stroke="#bfbfbf" points="1486,-308 1486,-327 1530,-327 1530,-308 1486,-308"/>
<text text-anchor="middle" x="1508" y="-315" font-family="Helvetica,sans-Serif" font-size="10.00">mutex</text>
</g>
<!-- Node1&#45;&gt;Node37 -->
<g id="edge66" class="edge"><title>Node1&#45;&gt;Node37</title>
<path fill="none" stroke="midnightblue" d="M1508,-548.117C1508,-496.895 1508,-382.215 1508,-337.172"/>
<polygon fill="midnightblue" stroke="midnightblue" points="1511.5,-337.08 1508,-327.08 1504.5,-337.08 1511.5,-337.08"/>
</g>
<!-- Node3 -->
<g id="node3" class="node"><title>Node3</title>
<g id="a_node3"><a xlink:href="sink_8h.html" target="_top" xlink:title="spdlog/sinks/sink.h">
<polygon fill="none" stroke="black" points="1297.5,-375 1297.5,-394 1398.5,-394 1398.5,-375 1297.5,-375"/>
<text text-anchor="middle" x="1348" y="-382" font-family="Helvetica,sans-Serif" font-size="10.00">spdlog/sinks/sink.h</text>
</a>
</g>
</g>
<!-- Node2&#45;&gt;Node3 -->
<g id="edge2" class="edge"><title>Node2&#45;&gt;Node3</title>
<path fill="none" stroke="midnightblue" d="M1388.69,-492.319C1381.56,-473.59 1364.59,-429.046 1354.97,-403.792"/>
<polygon fill="midnightblue" stroke="midnightblue" points="1358.18,-402.381 1351.35,-394.282 1351.63,-404.873 1358.18,-402.381"/>
</g>
<!-- Node4 -->
<g id="node4" class="node"><title>Node4</title>
<g id="a_node4"><a xlink:href="log__msg_8h.html" target="_top" xlink:title="spdlog/details/log\l_msg.h">
<polygon fill="none" stroke="black" points="1300,-302.5 1300,-332.5 1392,-332.5 1392,-302.5 1300,-302.5"/>
<text text-anchor="start" x="1308" y="-320.5" font-family="Helvetica,sans-Serif" font-size="10.00">spdlog/details/log</text>
<text text-anchor="middle" x="1346" y="-309.5" font-family="Helvetica,sans-Serif" font-size="10.00">_msg.h</text>
</a>
</g>
</g>
<!-- Node2&#45;&gt;Node4 -->
<g id="edge63" class="edge"><title>Node2&#45;&gt;Node4</title>
<path fill="none" stroke="midnightblue" d="M1377.4,-492.391C1353.37,-477.26 1306.33,-443.35 1288,-400 1282.63,-387.31 1282.29,-381.54 1288,-369 1293.46,-357.015 1303.32,-346.768 1313.38,-338.7"/>
<polygon fill="midnightblue" stroke="midnightblue" points="1315.49,-341.491 1321.41,-332.705 1311.31,-335.882 1315.49,-341.491"/>
</g>
<!-- Node5 -->
<g id="node5" class="node"><title>Node5</title>
<g id="a_node5"><a xlink:href="common_8h.html" target="_top" xlink:title="spdlog/common.h">
<polygon fill="none" stroke="black" points="1301,-190.5 1301,-209.5 1395,-209.5 1395,-190.5 1301,-190.5"/>
<text text-anchor="middle" x="1348" y="-197.5" font-family="Helvetica,sans-Serif" font-size="10.00">spdlog/common.h</text>
</a>
</g>
</g>
<!-- Node2&#45;&gt;Node5 -->
<g id="edge62" class="edge"><title>Node2&#45;&gt;Node5</title>
<path fill="none" stroke="midnightblue" d="M1394.33,-492.421C1401.57,-464.356 1421.9,-372.997 1401,-302 1391.73,-270.493 1372.22,-237.416 1359.64,-218.029"/>
<polygon fill="midnightblue" stroke="midnightblue" points="1362.54,-216.072 1354.09,-209.679 1356.71,-219.945 1362.54,-216.072"/>
</g>
<!-- Node35 -->
<g id="node35" class="node"><title>Node35</title>
<g id="a_node35"><a xlink:href="formatter_8h.html" target="_top" xlink:title="spdlog/formatter.h">
<polygon fill="none" stroke="black" points="532.5,-436.5 532.5,-455.5 627.5,-455.5 627.5,-436.5 532.5,-436.5"/>
<text text-anchor="middle" x="580" y="-443.5" font-family="Helvetica,sans-Serif" font-size="10.00">spdlog/formatter.h</text>
</a>
</g>
</g>
<!-- Node2&#45;&gt;Node35 -->
<g id="edge44" class="edge"><title>Node2&#45;&gt;Node35</title>
<path fill="none" stroke="midnightblue" d="M1328.28,-496.763C1174.57,-486.541 785.227,-460.648 637.786,-450.843"/>
<polygon fill="midnightblue" stroke="midnightblue" points="637.805,-447.337 627.595,-450.165 637.34,-454.321 637.805,-447.337"/>
</g>
<!-- Node2&#45;&gt;Node37 -->
<g id="edge64" class="edge"><title>Node2&#45;&gt;Node37</title>
<path fill="none" stroke="midnightblue" d="M1403.66,-492.377C1414.39,-483.995 1430.23,-470.445 1441,-456 1469.87,-417.284 1491.53,-364.185 1501.66,-336.677"/>
<polygon fill="midnightblue" stroke="midnightblue" points="1504.99,-337.762 1505.07,-327.168 1498.4,-335.397 1504.99,-337.762"/>
</g>
<!-- Node3&#45;&gt;Node4 -->
<g id="edge3" class="edge"><title>Node3&#45;&gt;Node4</title>
<path fill="none" stroke="midnightblue" d="M1347.73,-374.734C1347.48,-366.541 1347.09,-353.923 1346.75,-342.714"/>
<polygon fill="midnightblue" stroke="midnightblue" points="1350.24,-342.477 1346.43,-332.589 1343.24,-342.692 1350.24,-342.477"/>
</g>
<!-- Node4&#45;&gt;Node5 -->
<g id="edge4" class="edge"><title>Node4&#45;&gt;Node5</title>
<path fill="none" stroke="midnightblue" d="M1346.25,-302.337C1346.6,-281.622 1347.27,-243.016 1347.67,-219.899"/>
<polygon fill="midnightblue" stroke="midnightblue" points="1351.18,-219.729 1347.85,-209.669 1344.18,-219.607 1351.18,-219.729"/>
</g>
<!-- Node6 -->
<g id="node6" class="node"><title>Node6</title>
<polygon fill="none" stroke="#bfbfbf" points="1263.5,-0.5 1263.5,-19.5 1304.5,-19.5 1304.5,-0.5 1263.5,-0.5"/>
<text text-anchor="middle" x="1284" y="-7.5" font-family="Helvetica,sans-Serif" font-size="10.00">string</text>
</g>
<!-- Node4&#45;&gt;Node6 -->
<g id="edge42" class="edge"><title>Node4&#45;&gt;Node6</title>
<path fill="none" stroke="midnightblue" d="M1384.98,-302.332C1439.34,-280.196 1535.75,-231.712 1576,-154 1582.34,-141.766 1580.64,-135.972 1576,-123 1563.02,-86.727 1554.13,-75.66 1521,-56 1455.17,-16.9395 1362.54,-10.7155 1314.93,-10.3511"/>
<polygon fill="midnightblue" stroke="midnightblue" points="1314.65,-6.85124 1304.66,-10.3599 1314.66,-13.8512 1314.65,-6.85124"/>
</g>
<!-- Node24 -->
<g id="node24" class="node"><title>Node24</title>
<polygon fill="none" stroke="#bfbfbf" points="655,-0.5 655,-19.5 695,-19.5 695,-0.5 655,-0.5"/>
<text text-anchor="middle" x="675" y="-7.5" font-family="Helvetica,sans-Serif" font-size="10.00">utility</text>
</g>
<!-- Node4&#45;&gt;Node24 -->
<g id="edge43" class="edge"><title>Node4&#45;&gt;Node24</title>
<path fill="none" stroke="midnightblue" d="M1299.98,-313.885C1137.87,-304.202 600.423,-267.921 552,-210 499.382,-147.061 606.364,-59.5594 653.854,-25.4347"/>
<polygon fill="midnightblue" stroke="midnightblue" points="656.081,-28.1467 662.236,-19.5228 652.047,-22.4263 656.081,-28.1467"/>
</g>
<!-- Node26 -->
<g id="node26" class="node"><title>Node26</title>
<g id="a_node26"><a xlink:href="os_8h.html" target="_top" xlink:title="spdlog/details/os.h">
<polygon fill="none" stroke="black" points="872,-246.5 872,-265.5 970,-265.5 970,-246.5 872,-246.5"/>
<text text-anchor="middle" x="921" y="-253.5" font-family="Helvetica,sans-Serif" font-size="10.00">spdlog/details/os.h</text>
</a>
</g>
</g>
<!-- Node4&#45;&gt;Node26 -->
<g id="edge28" class="edge"><title>Node4&#45;&gt;Node26</title>
<path fill="none" stroke="midnightblue" d="M1299.71,-310.019C1222.08,-299.151 1065.77,-277.268 980.244,-265.294"/>
<polygon fill="midnightblue" stroke="midnightblue" points="980.562,-261.805 970.174,-263.884 979.592,-268.737 980.562,-261.805"/>
</g>
<!-- Node5&#45;&gt;Node6 -->
<g id="edge5" class="edge"><title>Node5&#45;&gt;Node6</title>
<path fill="none" stroke="midnightblue" d="M1358.71,-190.305C1367.94,-182.069 1380.59,-168.789 1386,-154 1390.73,-141.061 1390.97,-135.849 1386,-123 1369.69,-80.8765 1329.36,-44.8625 1304.57,-25.7202"/>
<polygon fill="midnightblue" stroke="midnightblue" points="1306.62,-22.8786 1296.52,-19.6706 1302.41,-28.4753 1306.62,-22.8786"/>
</g>
<!-- Node7 -->
<g id="node7" class="node"><title>Node7</title>
<polygon fill="none" stroke="#bfbfbf" points="1227.5,-129 1227.5,-148 1300.5,-148 1300.5,-129 1227.5,-129"/>
<text text-anchor="middle" x="1264" y="-136" font-family="Helvetica,sans-Serif" font-size="10.00">initializer_list</text>
</g>
<!-- Node5&#45;&gt;Node7 -->
<g id="edge6" class="edge"><title>Node5&#45;&gt;Node7</title>
<path fill="none" stroke="midnightblue" d="M1335.96,-190.475C1322.49,-180.931 1300.43,-165.307 1284.28,-153.868"/>
<polygon fill="midnightblue" stroke="midnightblue" points="1286.2,-150.933 1276.01,-148.009 1282.15,-156.645 1286.2,-150.933"/>
</g>
<!-- Node8 -->
<g id="node8" class="node"><title>Node8</title>
<polygon fill="none" stroke="#bfbfbf" points="708,-129 708,-148 754,-148 754,-129 708,-129"/>
<text text-anchor="middle" x="731" y="-136" font-family="Helvetica,sans-Serif" font-size="10.00">chrono</text>
</g>
<!-- Node5&#45;&gt;Node8 -->
<g id="edge7" class="edge"><title>Node5&#45;&gt;Node8</title>
<path fill="none" stroke="midnightblue" d="M1300.86,-194.454C1181.15,-182.91 867.581,-152.671 764.428,-142.724"/>
<polygon fill="midnightblue" stroke="midnightblue" points="764.575,-139.222 754.285,-141.745 763.903,-146.189 764.575,-139.222"/>
</g>
<!-- Node9 -->
<g id="node9" class="node"><title>Node9</title>
<polygon fill="none" stroke="#bfbfbf" points="0,-0.5 0,-19.5 52,-19.5 52,-0.5 0,-0.5"/>
<text text-anchor="middle" x="26" y="-7.5" font-family="Helvetica,sans-Serif" font-size="10.00">memory</text>
</g>
<!-- Node5&#45;&gt;Node9 -->
<g id="edge8" class="edge"><title>Node5&#45;&gt;Node9</title>
<path fill="none" stroke="midnightblue" d="M1321.97,-190.411C1295.62,-181.62 1253.79,-167.39 1218,-154 1183.45,-141.073 1177.06,-130.787 1141,-123 774.008,-43.7473 664.661,-163.089 297,-87 259.253,-79.1882 252.86,-67.2757 216,-56 151.409,-36.2413 131.473,-36.718 62.434,-20.2832"/>
<polygon fill="midnightblue" stroke="midnightblue" points="62.899,-16.7949 52.3566,-17.848 61.2547,-23.599 62.899,-16.7949"/>
</g>
<!-- Node10 -->
<g id="node10" class="node"><title>Node10</title>
<polygon fill="none" stroke="#bfbfbf" points="1466,-62 1466,-81 1512,-81 1512,-62 1466,-62"/>
<text text-anchor="middle" x="1489" y="-69" font-family="Helvetica,sans-Serif" font-size="10.00">atomic</text>
</g>
<!-- Node5&#45;&gt;Node10 -->
<g id="edge9" class="edge"><title>Node5&#45;&gt;Node10</title>
<path fill="none" stroke="midnightblue" d="M1364.71,-190.496C1379.97,-182.295 1402.72,-168.952 1420,-154 1442.59,-134.447 1464.08,-107.214 1476.91,-89.7195"/>
<polygon fill="midnightblue" stroke="midnightblue" points="1480.1,-91.2758 1483.09,-81.1125 1474.41,-87.1909 1480.1,-91.2758"/>
</g>
<!-- Node11 -->
<g id="node11" class="node"><title>Node11</title>
<polygon fill="none" stroke="#bfbfbf" points="1318.5,-129 1318.5,-148 1377.5,-148 1377.5,-129 1318.5,-129"/>
<text text-anchor="middle" x="1348" y="-136" font-family="Helvetica,sans-Serif" font-size="10.00">exception</text>
</g>
<!-- Node5&#45;&gt;Node11 -->
<g id="edge10" class="edge"><title>Node5&#45;&gt;Node11</title>
<path fill="none" stroke="midnightblue" d="M1348,-190.475C1348,-182.08 1348,-168.981 1348,-158.163"/>
<polygon fill="midnightblue" stroke="midnightblue" points="1351.5,-158.009 1348,-148.009 1344.5,-158.009 1351.5,-158.009"/>
</g>
<!-- Node12 -->
<g id="node12" class="node"><title>Node12</title>
<polygon fill="none" stroke="#bfbfbf" points="1073.5,-129 1073.5,-148 1132.5,-148 1132.5,-129 1073.5,-129"/>
<text text-anchor="middle" x="1103" y="-136" font-family="Helvetica,sans-Serif" font-size="10.00">functional</text>
</g>
<!-- Node5&#45;&gt;Node12 -->
<g id="edge11" class="edge"><title>Node5&#45;&gt;Node12</title>
<path fill="none" stroke="midnightblue" d="M1312.9,-190.475C1267.78,-179.518 1189.66,-160.547 1142.51,-149.095"/>
<polygon fill="midnightblue" stroke="midnightblue" points="1143.2,-145.661 1132.66,-146.702 1141.55,-152.463 1143.2,-145.661"/>
</g>
<!-- Node5&#45;&gt;Node13 -->
<g id="edge12" class="edge"><title>Node5&#45;&gt;Node13</title>
<path fill="none" stroke="midnightblue" d="M1372.64,-190.475C1397.9,-181.739 1437.88,-167.907 1469.83,-156.855"/>
<polygon fill="midnightblue" stroke="midnightblue" points="1471.16,-160.1 1479.46,-153.523 1468.87,-153.485 1471.16,-160.1"/>
</g>
<!-- Node14 -->
<g id="node14" class="node"><title>Node14</title>
<g id="a_node14"><a xlink:href="fmt_8h.html" target="_top" xlink:title="spdlog/fmt/fmt.h">
<polygon fill="none" stroke="black" points="356,-129 356,-148 444,-148 444,-129 356,-129"/>
<text text-anchor="middle" x="400" y="-136" font-family="Helvetica,sans-Serif" font-size="10.00">spdlog/fmt/fmt.h</text>
</a>
</g>
</g>
<!-- Node5&#45;&gt;Node14 -->
<g id="edge14" class="edge"><title>Node5&#45;&gt;Node14</title>
<path fill="none" stroke="midnightblue" d="M1300.99,-196.049C1141.89,-186.064 624.192,-153.571 454.448,-142.917"/>
<polygon fill="midnightblue" stroke="midnightblue" points="454.449,-139.411 444.25,-142.277 454.011,-146.397 454.449,-139.411"/>
</g>
<!-- Node13&#45;&gt;Node10 -->
<g id="edge13" class="edge"><title>Node13&#45;&gt;Node10</title>
<path fill="none" stroke="midnightblue" d="M1513.27,-123.396C1508.68,-113.763 1502.55,-100.914 1497.6,-90.5373"/>
<polygon fill="midnightblue" stroke="midnightblue" points="1500.61,-88.7139 1493.15,-81.1945 1494.29,-91.7273 1500.61,-88.7139"/>
</g>
<!-- Node15 -->
<g id="node15" class="node"><title>Node15</title>
<g id="a_node15"><a xlink:href="format_8h.html" target="_top" xlink:title="spdlog/fmt/bundled\l/format.h">
<polygon fill="none" stroke="black" points="306.5,-56.5 306.5,-86.5 405.5,-86.5 405.5,-56.5 306.5,-56.5"/>
<text text-anchor="start" x="314.5" y="-74.5" font-family="Helvetica,sans-Serif" font-size="10.00">spdlog/fmt/bundled</text>
<text text-anchor="middle" x="356" y="-63.5" font-family="Helvetica,sans-Serif" font-size="10.00">/format.h</text>
</a>
</g>
</g>
<!-- Node14&#45;&gt;Node15 -->
<g id="edge15" class="edge"><title>Node14&#45;&gt;Node15</title>
<path fill="none" stroke="midnightblue" d="M394.066,-128.734C388.234,-120.118 379.09,-106.61 371.226,-94.9923"/>
<polygon fill="midnightblue" stroke="midnightblue" points="374.041,-92.9081 365.537,-86.589 368.244,-96.8321 374.041,-92.9081"/>
</g>
<!-- Node15&#45;&gt;Node6 -->
<g id="edge24" class="edge"><title>Node15&#45;&gt;Node6</title>
<path fill="none" stroke="midnightblue" d="M405.565,-67.3221C573.417,-56.56 1117.5,-21.6756 1253.15,-12.9783"/>
<polygon fill="midnightblue" stroke="midnightblue" points="1253.5,-16.463 1263.25,-12.3303 1253.05,-9.47739 1253.5,-16.463"/>
</g>
<!-- Node15&#45;&gt;Node9 -->
<g id="edge22" class="edge"><title>Node15&#45;&gt;Node9</title>
<path fill="none" stroke="midnightblue" d="M306.456,-58.9245C301.58,-57.8909 296.7,-56.8976 292,-56 193.028,-37.0991 164.483,-40.7154 62.1169,-20.0637"/>
<polygon fill="midnightblue" stroke="midnightblue" points="62.8081,-16.6327 52.3095,-18.0572 61.405,-23.4907 62.8081,-16.6327"/>
</g>
<!-- Node16 -->
<g id="node16" class="node"><title>Node16</title>
<polygon fill="none" stroke="#bfbfbf" points="398.5,-0.5 398.5,-19.5 447.5,-19.5 447.5,-0.5 398.5,-0.5"/>
<text text-anchor="middle" x="423" y="-7.5" font-family="Helvetica,sans-Serif" font-size="10.00">cassert</text>
</g>
<!-- Node15&#45;&gt;Node16 -->
<g id="edge16" class="edge"><title>Node15&#45;&gt;Node16</title>
<path fill="none" stroke="midnightblue" d="M371.878,-56.3993C382.015,-47.3967 395.162,-35.7214 405.585,-26.4652"/>
<polygon fill="midnightblue" stroke="midnightblue" points="408.098,-28.915 413.251,-19.6578 403.45,-23.681 408.098,-28.915"/>
</g>
<!-- Node17 -->
<g id="node17" class="node"><title>Node17</title>
<polygon fill="none" stroke="#bfbfbf" points="465.5,-0.5 465.5,-19.5 512.5,-19.5 512.5,-0.5 465.5,-0.5"/>
<text text-anchor="middle" x="489" y="-7.5" font-family="Helvetica,sans-Serif" font-size="10.00">clocale</text>
</g>
<!-- Node15&#45;&gt;Node17 -->
<g id="edge17" class="edge"><title>Node15&#45;&gt;Node17</title>
<path fill="none" stroke="midnightblue" d="M387.519,-56.3993C409.635,-46.5054 438.967,-33.3832 460.406,-23.7919"/>
<polygon fill="midnightblue" stroke="midnightblue" points="461.948,-26.9364 469.647,-19.6578 459.09,-20.5466 461.948,-26.9364"/>
</g>
<!-- Node18 -->
<g id="node18" class="node"><title>Node18</title>
<polygon fill="none" stroke="#bfbfbf" points="531,-0.5 531,-19.5 575,-19.5 575,-0.5 531,-0.5"/>
<text text-anchor="middle" x="553" y="-7.5" font-family="Helvetica,sans-Serif" font-size="10.00">cmath</text>
</g>
<!-- Node15&#45;&gt;Node18 -->
<g id="edge18" class="edge"><title>Node15&#45;&gt;Node18</title>
<path fill="none" stroke="midnightblue" d="M402.686,-56.3993C439.236,-45.3601 489.093,-30.3019 521.171,-20.6134"/>
<polygon fill="midnightblue" stroke="midnightblue" points="522.361,-23.9103 530.922,-17.6684 520.337,-17.2092 522.361,-23.9103"/>
</g>
<!-- Node19 -->
<g id="node19" class="node"><title>Node19</title>
<polygon fill="none" stroke="#bfbfbf" points="70.5,-0.5 70.5,-19.5 113.5,-19.5 113.5,-0.5 70.5,-0.5"/>
<text text-anchor="middle" x="92" y="-7.5" font-family="Helvetica,sans-Serif" font-size="10.00">cstdio</text>
</g>
<!-- Node15&#45;&gt;Node19 -->
<g id="edge19" class="edge"><title>Node15&#45;&gt;Node19</title>
<path fill="none" stroke="midnightblue" d="M306.4,-59.196C301.536,-58.1075 296.673,-57.0271 292,-56 220.07,-40.1912 199.174,-38.8099 123.627,-20.0065"/>
<polygon fill="midnightblue" stroke="midnightblue" points="124.177,-16.536 113.626,-17.4958 122.472,-23.3253 124.177,-16.536"/>
</g>
<!-- Node20 -->
<g id="node20" class="node"><title>Node20</title>
<polygon fill="none" stroke="#bfbfbf" points="132,-0.5 132,-19.5 178,-19.5 178,-0.5 132,-0.5"/>
<text text-anchor="middle" x="155" y="-7.5" font-family="Helvetica,sans-Serif" font-size="10.00">cstring</text>
</g>
<!-- Node15&#45;&gt;Node20 -->
<g id="edge20" class="edge"><title>Node15&#45;&gt;Node20</title>
<path fill="none" stroke="midnightblue" d="M308.62,-56.4747C271.546,-45.5 220.938,-30.5189 188.114,-20.8023"/>
<polygon fill="midnightblue" stroke="midnightblue" points="188.703,-17.3267 178.121,-17.8442 186.716,-24.0388 188.703,-17.3267"/>
</g>
<!-- Node21 -->
<g id="node21" class="node"><title>Node21</title>
<polygon fill="none" stroke="#bfbfbf" points="196,-0.5 196,-19.5 236,-19.5 236,-0.5 196,-0.5"/>
<text text-anchor="middle" x="216" y="-7.5" font-family="Helvetica,sans-Serif" font-size="10.00">limits</text>
</g>
<!-- Node15&#45;&gt;Node21 -->
<g id="edge21" class="edge"><title>Node15&#45;&gt;Node21</title>
<path fill="none" stroke="midnightblue" d="M322.822,-56.3993C299.437,-46.4608 268.388,-33.2649 245.794,-23.6625"/>
<polygon fill="midnightblue" stroke="midnightblue" points="246.944,-20.3481 236.371,-19.6578 244.206,-26.7904 246.944,-20.3481"/>
</g>
<!-- Node22 -->
<g id="node22" class="node"><title>Node22</title>
<polygon fill="none" stroke="#bfbfbf" points="254.5,-0.5 254.5,-19.5 313.5,-19.5 313.5,-0.5 254.5,-0.5"/>
<text text-anchor="middle" x="284" y="-7.5" font-family="Helvetica,sans-Serif" font-size="10.00">stdexcept</text>
</g>
<!-- Node15&#45;&gt;Node22 -->
<g id="edge23" class="edge"><title>Node15&#45;&gt;Node22</title>
<path fill="none" stroke="midnightblue" d="M338.937,-56.3993C327.935,-47.3076 313.635,-35.4899 302.382,-26.1909"/>
<polygon fill="midnightblue" stroke="midnightblue" points="304.415,-23.33 294.477,-19.6578 299.956,-28.726 304.415,-23.33"/>
</g>
<!-- Node23 -->
<g id="node23" class="node"><title>Node23</title>
<polygon fill="none" stroke="#bfbfbf" points="593,-0.5 593,-19.5 637,-19.5 637,-0.5 593,-0.5"/>
<text text-anchor="middle" x="615" y="-7.5" font-family="Helvetica,sans-Serif" font-size="10.00">vector</text>
</g>
<!-- Node15&#45;&gt;Node23 -->
<g id="edge25" class="edge"><title>Node15&#45;&gt;Node23</title>
<path fill="none" stroke="midnightblue" d="M405.607,-59.2264C410.469,-58.1317 415.33,-57.0416 420,-56 489.705,-40.4533 509.964,-38.556 582.589,-20.2366"/>
<polygon fill="midnightblue" stroke="midnightblue" points="583.868,-23.5229 592.697,-17.667 582.143,-16.7387 583.868,-23.5229"/>
</g>
<!-- Node15&#45;&gt;Node24 -->
<g id="edge26" class="edge"><title>Node15&#45;&gt;Node24</title>
<path fill="none" stroke="midnightblue" d="M405.657,-63.8366C461.685,-55.8779 555.64,-41.208 645.057,-19.9761"/>
<polygon fill="midnightblue" stroke="midnightblue" points="645.907,-23.3714 654.811,-17.6291 644.269,-16.5657 645.907,-23.3714"/>
</g>
<!-- Node25 -->
<g id="node25" class="node"><title>Node25</title>
<polygon fill="none" stroke="#bfbfbf" points="331.5,-0.5 331.5,-19.5 380.5,-19.5 380.5,-0.5 331.5,-0.5"/>
<text text-anchor="middle" x="356" y="-7.5" font-family="Helvetica,sans-Serif" font-size="10.00">stdint.h</text>
</g>
<!-- Node15&#45;&gt;Node25 -->
<g id="edge27" class="edge"><title>Node15&#45;&gt;Node25</title>
<path fill="none" stroke="midnightblue" d="M356,-56.3993C356,-48.4664 356,-38.458 356,-29.8583"/>
<polygon fill="midnightblue" stroke="midnightblue" points="359.5,-29.6577 356,-19.6578 352.5,-29.6578 359.5,-29.6577"/>
</g>
<!-- Node26&#45;&gt;Node5 -->
<g id="edge29" class="edge"><title>Node26&#45;&gt;Node5</title>
<path fill="none" stroke="midnightblue" d="M970.399,-248.753C1050.06,-238.679 1206.47,-218.898 1290.83,-208.23"/>
<polygon fill="midnightblue" stroke="midnightblue" points="1291.52,-211.671 1301,-206.944 1290.64,-204.727 1291.52,-211.671"/>
</g>
<!-- Node26&#45;&gt;Node6 -->
<g id="edge33" class="edge"><title>Node26&#45;&gt;Node6</title>
<path fill="none" stroke="midnightblue" d="M970.25,-253.635C1037.31,-250.62 1152,-240.954 1178,-210 1183.72,-203.194 1183.25,-197.17 1178,-190 1146.59,-147.144 1095.41,-196.856 1064,-154 1055.86,-142.887 1058.06,-135.431 1064,-123 1098.84,-50.1027 1201.66,-23.833 1253.46,-15.0486"/>
<polygon fill="midnightblue" stroke="midnightblue" points="1254.07,-18.4956 1263.4,-13.4725 1252.97,-11.582 1254.07,-18.4956"/>
</g>
<!-- Node26&#45;&gt;Node8 -->
<g id="edge34" class="edge"><title>Node26&#45;&gt;Node8</title>
<path fill="none" stroke="midnightblue" d="M871.803,-254.776C833.636,-251.93 782.004,-241.815 750,-210 736.4,-196.48 732.238,-174.32 731.11,-158.452"/>
<polygon fill="midnightblue" stroke="midnightblue" points="734.599,-158.088 730.732,-148.224 727.603,-158.346 734.599,-158.088"/>
</g>
<!-- Node26&#45;&gt;Node12 -->
<g id="edge32" class="edge"><title>Node26&#45;&gt;Node12</title>
<path fill="none" stroke="midnightblue" d="M970.285,-254.758C1044.77,-253.228 1180.58,-245.499 1211,-210 1216.78,-203.25 1215.77,-197.499 1211,-190 1202.63,-176.839 1166.67,-161.67 1138.52,-151.419"/>
<polygon fill="midnightblue" stroke="midnightblue" points="1139.54,-148.067 1128.95,-148.01 1137.19,-154.661 1139.54,-148.067"/>
</g>
<!-- Node26&#45;&gt;Node19 -->
<g id="edge30" class="edge"><title>Node26&#45;&gt;Node19</title>
<path fill="none" stroke="midnightblue" d="M881.343,-246.492C843.314,-238.09 784.399,-224.435 734,-210 706.977,-202.26 701.458,-196.016 674,-190 531.177,-158.706 482.999,-207.684 347,-154 279.367,-127.303 279.977,-90.553 216,-56 199.636,-47.1618 154.121,-31.4243 123.033,-21.0999"/>
<polygon fill="midnightblue" stroke="midnightblue" points="124.095,-17.7647 113.502,-17.9536 121.901,-24.4119 124.095,-17.7647"/>
</g>
<!-- Node27 -->
<g id="node27" class="node"><title>Node27</title>
<polygon fill="none" stroke="#bfbfbf" points="561.5,-190.5 561.5,-209.5 602.5,-209.5 602.5,-190.5 561.5,-190.5"/>
<text text-anchor="middle" x="582" y="-197.5" font-family="Helvetica,sans-Serif" font-size="10.00">ctime</text>
</g>
<!-- Node26&#45;&gt;Node27 -->
<g id="edge31" class="edge"><title>Node26&#45;&gt;Node27</title>
<path fill="none" stroke="midnightblue" d="M871.896,-250.102C812.637,-243.692 709.881,-230.991 612.558,-209.811"/>
<polygon fill="midnightblue" stroke="midnightblue" points="613.072,-206.34 602.552,-207.599 611.561,-213.175 613.072,-206.34"/>
</g>
<!-- Node28 -->
<g id="node28" class="node"><title>Node28</title>
<polygon fill="none" stroke="#bfbfbf" points="621,-190.5 621,-209.5 665,-209.5 665,-190.5 621,-190.5"/>
<text text-anchor="middle" x="643" y="-197.5" font-family="Helvetica,sans-Serif" font-size="10.00">thread</text>
</g>
<!-- Node26&#45;&gt;Node28 -->
<g id="edge35" class="edge"><title>Node26&#45;&gt;Node28</title>
<path fill="none" stroke="midnightblue" d="M871.693,-246.741C822.665,-238.315 745.391,-224.457 679,-210 677.725,-209.722 676.427,-209.432 675.117,-209.134"/>
<polygon fill="midnightblue" stroke="midnightblue" points="675.573,-205.645 665.035,-206.735 673.953,-212.455 675.573,-205.645"/>
</g>
<!-- Node29 -->
<g id="node29" class="node"><title>Node29</title>
<polygon fill="none" stroke="#bfbfbf" points="759,-190.5 759,-209.5 805,-209.5 805,-190.5 759,-190.5"/>
<text text-anchor="middle" x="782" y="-197.5" font-family="Helvetica,sans-Serif" font-size="10.00">stdio.h</text>
</g>
<!-- Node26&#45;&gt;Node29 -->
<g id="edge36" class="edge"><title>Node26&#45;&gt;Node29</title>
<path fill="none" stroke="midnightblue" d="M898.975,-246.444C875.896,-237.478 839.438,-223.314 813.359,-213.183"/>
<polygon fill="midnightblue" stroke="midnightblue" points="814.511,-209.875 803.922,-209.516 811.976,-216.4 814.511,-209.875"/>
</g>
<!-- Node30 -->
<g id="node30" class="node"><title>Node30</title>
<polygon fill="none" stroke="#bfbfbf" points="823.5,-190.5 823.5,-209.5 872.5,-209.5 872.5,-190.5 823.5,-190.5"/>
<text text-anchor="middle" x="848" y="-197.5" font-family="Helvetica,sans-Serif" font-size="10.00">string.h</text>
</g>
<!-- Node26&#45;&gt;Node30 -->
<g id="edge37" class="edge"><title>Node26&#45;&gt;Node30</title>
<path fill="none" stroke="midnightblue" d="M909.271,-246.324C898.163,-238.107 881.258,-225.602 868.017,-215.807"/>
<polygon fill="midnightblue" stroke="midnightblue" points="870.063,-212.967 859.942,-209.834 865.9,-218.595 870.063,-212.967"/>
</g>
<!-- Node31 -->
<g id="node31" class="node"><title>Node31</title>
<polygon fill="none" stroke="#bfbfbf" points="891,-190.5 891,-209.5 951,-209.5 951,-190.5 891,-190.5"/>
<text text-anchor="middle" x="921" y="-197.5" font-family="Helvetica,sans-Serif" font-size="10.00">sys/stat.h</text>
</g>
<!-- Node26&#45;&gt;Node31 -->
<g id="edge38" class="edge"><title>Node26&#45;&gt;Node31</title>
<path fill="none" stroke="midnightblue" d="M921,-246.083C921,-239.006 921,-228.861 921,-219.986"/>
<polygon fill="midnightblue" stroke="midnightblue" points="924.5,-219.751 921,-209.751 917.5,-219.751 924.5,-219.751"/>
</g>
<!-- Node32 -->
<g id="node32" class="node"><title>Node32</title>
<polygon fill="none" stroke="#bfbfbf" points="969,-190.5 969,-209.5 1037,-209.5 1037,-190.5 969,-190.5"/>
<text text-anchor="middle" x="1003" y="-197.5" font-family="Helvetica,sans-Serif" font-size="10.00">sys/types.h</text>
</g>
<!-- Node26&#45;&gt;Node32 -->
<g id="edge39" class="edge"><title>Node26&#45;&gt;Node32</title>
<path fill="none" stroke="midnightblue" d="M934.175,-246.324C946.847,-237.979 966.233,-225.212 981.206,-215.352"/>
<polygon fill="midnightblue" stroke="midnightblue" points="983.431,-218.078 989.858,-209.655 979.581,-212.231 983.431,-218.078"/>
</g>
<!-- Node33 -->
<g id="node33" class="node"><title>Node33</title>
<polygon fill="none" stroke="#bfbfbf" points="1055.5,-190.5 1055.5,-209.5 1106.5,-209.5 1106.5,-190.5 1055.5,-190.5"/>
<text text-anchor="middle" x="1081" y="-197.5" font-family="Helvetica,sans-Serif" font-size="10.00">unistd.h</text>
</g>
<!-- Node26&#45;&gt;Node33 -->
<g id="edge40" class="edge"><title>Node26&#45;&gt;Node33</title>
<path fill="none" stroke="midnightblue" d="M946.352,-246.444C973.269,-237.359 1016,-222.939 1046.09,-212.783"/>
<polygon fill="midnightblue" stroke="midnightblue" points="1047.41,-216.031 1055.77,-209.516 1045.17,-209.398 1047.41,-216.031"/>
</g>
<!-- Node34 -->
<g id="node34" class="node"><title>Node34</title>
<polygon fill="none" stroke="#bfbfbf" points="1125,-190.5 1125,-209.5 1169,-209.5 1169,-190.5 1125,-190.5"/>
<text text-anchor="middle" x="1147" y="-197.5" font-family="Helvetica,sans-Serif" font-size="10.00">fcntl.h</text>
</g>
<!-- Node26&#45;&gt;Node34 -->
<g id="edge41" class="edge"><title>Node26&#45;&gt;Node34</title>
<path fill="none" stroke="midnightblue" d="M960.145,-246.478C997.348,-238.254 1055.09,-225.171 1114.69,-209.982"/>
<polygon fill="midnightblue" stroke="midnightblue" points="1115.84,-213.301 1124.66,-207.426 1114.1,-206.52 1115.84,-213.301"/>
</g>
<!-- Node35&#45;&gt;Node4 -->
<g id="edge45" class="edge"><title>Node35&#45;&gt;Node4</title>
<path fill="none" stroke="midnightblue" d="M627.749,-438.766C741.986,-423.559 1039.87,-382.182 1286,-333 1287.27,-332.746 1288.56,-332.484 1289.85,-332.214"/>
<polygon fill="midnightblue" stroke="midnightblue" points="1290.86,-335.576 1299.89,-330.035 1289.38,-328.735 1290.86,-335.576"/>
</g>
<!-- Node35&#45;&gt;Node6 -->
<g id="edge47" class="edge"><title>Node35&#45;&gt;Node6</title>
<path fill="none" stroke="midnightblue" d="M627.692,-440.879C706.146,-433.886 867.277,-418.626 1003,-400 1091.86,-387.806 1318.6,-368.425 1401,-333 1482.43,-297.989 1499.54,-276.628 1558,-210 1585.49,-178.672 1603.86,-163.239 1593,-123 1584.02,-89.7347 1582.35,-75.5798 1554,-56 1515.56,-29.4507 1376.89,-17.138 1314.63,-12.8547"/>
<polygon fill="midnightblue" stroke="midnightblue" points="1314.84,-9.36078 1304.63,-12.1907 1314.37,-16.3454 1314.84,-9.36078"/>
</g>
<!-- Node35&#45;&gt;Node9 -->
<g id="edge48" class="edge"><title>Node35&#45;&gt;Node9</title>
<path fill="none" stroke="midnightblue" d="M532.169,-442.692C409.811,-435.489 95,-408.238 95,-318.5 95,-318.5 95,-318.5 95,-137.5 95,-93.1623 61.9276,-49.5839 41.5764,-26.9649"/>
<polygon fill="midnightblue" stroke="midnightblue" points="44.1135,-24.5536 34.7389,-19.6173 38.9891,-29.3223 44.1135,-24.5536"/>
</g>
<!-- Node35&#45;&gt;Node23 -->
<g id="edge46" class="edge"><title>Node35&#45;&gt;Node23</title>
<path fill="none" stroke="midnightblue" d="M532.437,-444.933C450.165,-442.045 290,-423.002 290,-318.5 290,-318.5 290,-318.5 290,-199 290,-156.778 314.75,-150.252 347,-123 353.206,-117.756 469.502,-59.1307 477,-56 496.366,-47.9137 548.948,-31.3008 583.327,-20.6795"/>
<polygon fill="midnightblue" stroke="midnightblue" points="584.399,-24.0116 592.926,-17.7232 582.339,-17.3216 584.399,-24.0116"/>
</g>
<!-- Node36 -->
<g id="node36" class="node"><title>Node36</title>
<g id="a_node36"><a xlink:href="pattern__formatter__impl_8h.html" target="_top" xlink:title="spdlog/details/pattern\l_formatter_impl.h">
<polygon fill="none" stroke="black" points="525,-369.5 525,-399.5 635,-399.5 635,-369.5 525,-369.5"/>
<text text-anchor="start" x="533" y="-387.5" font-family="Helvetica,sans-Serif" font-size="10.00">spdlog/details/pattern</text>
<text text-anchor="middle" x="580" y="-376.5" font-family="Helvetica,sans-Serif" font-size="10.00">_formatter_impl.h</text>
</a>
</g>
</g>
<!-- Node35&#45;&gt;Node36 -->
<g id="edge49" class="edge"><title>Node35&#45;&gt;Node36</title>
<path fill="none" stroke="midnightblue" d="M575.099,-436.475C573.572,-429.471 572.991,-419.192 573.356,-409.696"/>
<polygon fill="midnightblue" stroke="midnightblue" points="576.861,-409.77 574.17,-399.523 569.883,-409.212 576.861,-409.77"/>
</g>
<!-- Node36&#45;&gt;Node4 -->
<g id="edge51" class="edge"><title>Node36&#45;&gt;Node4</title>
<path fill="none" stroke="midnightblue" d="M635.178,-380.739C778.608,-373.373 1160.71,-352.483 1286,-333 1287.28,-332.801 1288.57,-332.588 1289.88,-332.364"/>
<polygon fill="midnightblue" stroke="midnightblue" points="1290.8,-335.751 1299.97,-330.44 1289.49,-328.875 1290.8,-335.751"/>
</g>
<!-- Node36&#45;&gt;Node6 -->
<g id="edge58" class="edge"><title>Node36&#45;&gt;Node6</title>
<path fill="none" stroke="midnightblue" d="M635.022,-377.238C777.77,-359.746 1153.96,-305.302 1227,-210 1232.41,-202.945 1228.09,-198.822 1227,-190 1223.33,-160.18 1210.09,-151.987 1218,-123 1228.14,-85.824 1254.11,-48.4184 1270.29,-27.6252"/>
<polygon fill="midnightblue" stroke="midnightblue" points="1273.24,-29.5388 1276.74,-19.5401 1267.77,-25.1715 1273.24,-29.5388"/>
</g>
<!-- Node36&#45;&gt;Node8 -->
<g id="edge54" class="edge"><title>Node36&#45;&gt;Node8</title>
<path fill="none" stroke="midnightblue" d="M571.69,-369.373C552.594,-334.863 510.312,-245.077 552,-190 569.574,-166.782 651.234,-151.214 697.956,-144.04"/>
<polygon fill="midnightblue" stroke="midnightblue" points="698.539,-147.492 707.914,-142.557 697.508,-140.568 698.539,-147.492"/>
</g>
<!-- Node36&#45;&gt;Node9 -->
<g id="edge56" class="edge"><title>Node36&#45;&gt;Node9</title>
<path fill="none" stroke="midnightblue" d="M524.923,-377.2C484.151,-370.705 428.391,-357.862 385,-333 234.207,-246.6 248.189,-160.067 109,-56 92.1001,-43.3645 71.2083,-32.0575 54.613,-23.9381"/>
<polygon fill="midnightblue" stroke="midnightblue" points="55.9333,-20.6901 45.401,-19.54 52.9173,-27.0071 55.9333,-20.6901"/>
</g>
<!-- Node36&#45;&gt;Node14 -->
<g id="edge53" class="edge"><title>Node36&#45;&gt;Node14</title>
<path fill="none" stroke="midnightblue" d="M524.992,-374.85C479.41,-366.442 419.79,-352.142 405,-333 364.794,-280.964 383.133,-195.419 394.006,-157.997"/>
<polygon fill="midnightblue" stroke="midnightblue" points="397.363,-158.987 396.944,-148.401 390.67,-156.938 397.363,-158.987"/>
</g>
<!-- Node36&#45;&gt;Node23 -->
<g id="edge61" class="edge"><title>Node36&#45;&gt;Node23</title>
<path fill="none" stroke="midnightblue" d="M524.722,-378.072C495.272,-372.044 461.411,-359.409 443,-333 406.653,-280.864 431.102,-252.432 443,-190 445.997,-174.272 484.593,-67.2358 496,-56 502.506,-49.5912 550.275,-32.6808 583.275,-21.513"/>
<polygon fill="midnightblue" stroke="midnightblue" points="584.617,-24.7543 592.98,-18.2494 582.386,-18.1194 584.617,-24.7543"/>
</g>
<!-- Node36&#45;&gt;Node24 -->
<g id="edge60" class="edge"><title>Node36&#45;&gt;Node24</title>
<path fill="none" stroke="midnightblue" d="M565.398,-369.422C556.545,-359.984 545.86,-346.794 540,-333 503.504,-247.088 508.089,-211.753 537,-123 548.034,-89.127 554.172,-79.4395 581,-56 599.766,-39.604 625.548,-27.825 645.365,-20.4409"/>
<polygon fill="midnightblue" stroke="midnightblue" points="646.586,-23.7214 654.836,-17.0735 644.241,-17.1259 646.586,-23.7214"/>
</g>
<!-- Node36&#45;&gt;Node26 -->
<g id="edge52" class="edge"><title>Node36&#45;&gt;Node26</title>
<path fill="none" stroke="midnightblue" d="M617.796,-369.479C685.117,-344.505 824.675,-292.734 888.214,-269.163"/>
<polygon fill="midnightblue" stroke="midnightblue" points="889.577,-272.39 897.736,-265.63 887.143,-265.827 889.577,-272.39"/>
</g>
<!-- Node36&#45;&gt;Node27 -->
<g id="edge55" class="edge"><title>Node36&#45;&gt;Node27</title>
<path fill="none" stroke="midnightblue" d="M580.154,-369.483C580.509,-337.097 581.386,-257.037 581.79,-220.159"/>
<polygon fill="midnightblue" stroke="midnightblue" points="585.293,-219.857 581.903,-209.819 578.294,-219.78 585.293,-219.857"/>
</g>
<!-- Node36&#45;&gt;Node28 -->
<g id="edge59" class="edge"><title>Node36&#45;&gt;Node28</title>
<path fill="none" stroke="midnightblue" d="M584.839,-369.483C596.067,-336.957 623.895,-256.343 636.551,-219.683"/>
<polygon fill="midnightblue" stroke="midnightblue" points="640.001,-220.413 639.956,-209.819 633.384,-218.129 640.001,-220.413"/>
</g>
<!-- Node36&#45;&gt;Node35 -->
<g id="edge50" class="edge"><title>Node36&#45;&gt;Node35</title>
<path fill="none" stroke="midnightblue" d="M585.83,-399.523C586.873,-407.586 587.029,-417.813 586.299,-426.526"/>
<polygon fill="midnightblue" stroke="midnightblue" points="582.827,-426.085 584.901,-436.475 589.759,-427.06 582.827,-426.085"/>
</g>
<!-- Node36&#45;&gt;Node37 -->
<g id="edge57" class="edge"><title>Node36&#45;&gt;Node37</title>
<path fill="none" stroke="midnightblue" d="M635.366,-381.496C767.864,-376.394 1113.57,-361.277 1401,-333 1426.22,-330.519 1454.63,-326.616 1475.84,-323.484"/>
<polygon fill="midnightblue" stroke="midnightblue" points="1476.55,-326.916 1485.92,-321.973 1475.51,-319.994 1476.55,-326.916"/>
</g>
</g>
</svg>
