<?xml version="1.0" encoding="UTF-8" standalone="no"?>
<!DOCTYPE svg PUBLIC "-//W3C//DTD SVG 1.1//EN"
 "http://www.w3.org/Graphics/SVG/1.1/DTD/svg11.dtd">
<!-- Generated by graphviz version 2.38.0 (20140413.2041)
 -->
<!-- Title: /home/lucamuratore/advr&#45;superbuild/external/XBotInterface/include/spdlog/details/pattern_formatter_impl.h Pages: 1 -->
<svg width="1255pt" height="486pt"
 viewBox="0.00 0.00 1255.00 486.00" xmlns="http://www.w3.org/2000/svg" xmlns:xlink="http://www.w3.org/1999/xlink">
<g id="graph0" class="graph" transform="scale(1 1) rotate(0) translate(4 482)">
<title>/home/lucamuratore/advr&#45;superbuild/external/XBotInterface/include/spdlog/details/pattern_formatter_impl.h</title>
<!-- Node1 -->
<g id="node1" class="node"><title>Node1</title>
<polygon fill="#bfbfbf" stroke="black" points="337.5,-425.5 337.5,-477.5 494.5,-477.5 494.5,-425.5 337.5,-425.5"/>
<text text-anchor="start" x="345.5" y="-465.5" font-family="Helvetica,sans-Serif" font-size="10.00">/home/lucamuratore</text>
<text text-anchor="start" x="345.5" y="-454.5" font-family="Helvetica,sans-Serif" font-size="10.00">/advr&#45;superbuild/external</text>
<text text-anchor="start" x="345.5" y="-443.5" font-family="Helvetica,sans-Serif" font-size="10.00">/XBotInterface/include/spdlog</text>
<text text-anchor="middle" x="416" y="-432.5" font-family="Helvetica,sans-Serif" font-size="10.00">/details/pattern_formatter_impl.h</text>
</g>
<!-- Node2 -->
<g id="node2" class="node"><title>Node2</title>
<g id="a_node2"><a xlink:href="formatter_8h.html" target="_top" xlink:title="spdlog/formatter.h">
<polygon fill="none" stroke="black" points="216.5,-369.5 216.5,-388.5 311.5,-388.5 311.5,-369.5 216.5,-369.5"/>
<text text-anchor="middle" x="264" y="-376.5" font-family="Helvetica,sans-Serif" font-size="10.00">spdlog/formatter.h</text>
</a>
</g>
</g>
<!-- Node1&#45;&gt;Node2 -->
<g id="edge1" class="edge"><title>Node1&#45;&gt;Node2</title>
<path fill="none" stroke="midnightblue" d="M355.49,-425.446C331.343,-414.509 305.044,-402.14 286.795,-393.07"/>
<polygon fill="midnightblue" stroke="midnightblue" points="288.299,-389.909 277.795,-388.527 285.145,-396.158 288.299,-389.909"/>
</g>
<!-- Node3 -->
<g id="node3" class="node"><title>Node3</title>
<g id="a_node3"><a xlink:href="log__msg_8h.html" target="_top" xlink:title="spdlog/details/log\l_msg.h">
<polygon fill="none" stroke="black" points="258,-302.5 258,-332.5 350,-332.5 350,-302.5 258,-302.5"/>
<text text-anchor="start" x="266" y="-320.5" font-family="Helvetica,sans-Serif" font-size="10.00">spdlog/details/log</text>
<text text-anchor="middle" x="304" y="-309.5" font-family="Helvetica,sans-Serif" font-size="10.00">_msg.h</text>
</a>
</g>
</g>
<!-- Node1&#45;&gt;Node3 -->
<g id="edge47" class="edge"><title>Node1&#45;&gt;Node3</title>
<path fill="none" stroke="midnightblue" d="M394.67,-425.361C373.777,-400.737 342.269,-363.603 322.433,-340.224"/>
<polygon fill="midnightblue" stroke="midnightblue" points="325.078,-337.932 315.94,-332.572 319.741,-342.461 325.078,-337.932"/>
</g>
<!-- Node5 -->
<g id="node5" class="node"><title>Node5</title>
<polygon fill="none" stroke="#bfbfbf" points="169.5,-0.5 169.5,-19.5 210.5,-19.5 210.5,-0.5 169.5,-0.5"/>
<text text-anchor="middle" x="190" y="-7.5" font-family="Helvetica,sans-Serif" font-size="10.00">string</text>
</g>
<!-- Node1&#45;&gt;Node5 -->
<g id="edge54" class="edge"><title>Node1&#45;&gt;Node5</title>
<path fill="none" stroke="midnightblue" d="M337.407,-442.341C268.904,-430.628 173.324,-402.15 126,-333 72.8856,-255.389 83.2956,-215.551 100,-123 105.645,-91.7222 105.483,-81.0852 125,-56 135.105,-43.0117 150.003,-32.3187 162.987,-24.62"/>
<polygon fill="midnightblue" stroke="midnightblue" points="165.003,-27.5021 172.008,-19.5533 161.575,-21.3989 165.003,-27.5021"/>
</g>
<!-- Node7 -->
<g id="node7" class="node"><title>Node7</title>
<polygon fill="none" stroke="#bfbfbf" points="720,-129 720,-148 766,-148 766,-129 720,-129"/>
<text text-anchor="middle" x="743" y="-136" font-family="Helvetica,sans-Serif" font-size="10.00">chrono</text>
</g>
<!-- Node1&#45;&gt;Node7 -->
<g id="edge50" class="edge"><title>Node1&#45;&gt;Node7</title>
<path fill="none" stroke="midnightblue" d="M416,-425.195C416,-398.623 416,-355.625 416,-318.5 416,-318.5 416,-318.5 416,-255 416,-218.822 433.879,-208.447 465,-190 560.054,-133.657 604.971,-185.108 711,-154 712.931,-153.433 714.897,-152.772 716.855,-152.049"/>
<polygon fill="midnightblue" stroke="midnightblue" points="718.506,-155.154 726.398,-148.086 715.821,-148.689 718.506,-155.154"/>
</g>
<!-- Node8 -->
<g id="node8" class="node"><title>Node8</title>
<polygon fill="none" stroke="#bfbfbf" points="75,-0.5 75,-19.5 127,-19.5 127,-0.5 75,-0.5"/>
<text text-anchor="middle" x="101" y="-7.5" font-family="Helvetica,sans-Serif" font-size="10.00">memory</text>
</g>
<!-- Node1&#45;&gt;Node8 -->
<g id="edge52" class="edge"><title>Node1&#45;&gt;Node8</title>
<path fill="none" stroke="midnightblue" d="M337.265,-441.782C216.662,-426.21 0,-388.493 0,-318.5 0,-318.5 0,-318.5 0,-137.5 0,-87.5818 48.6239,-46.0346 78.3965,-25.2739"/>
<polygon fill="midnightblue" stroke="midnightblue" points="80.6151,-27.9996 86.9564,-19.512 76.7063,-22.1926 80.6151,-27.9996"/>
</g>
<!-- Node13 -->
<g id="node13" class="node"><title>Node13</title>
<g id="a_node13"><a xlink:href="fmt_8h.html" target="_top" xlink:title="spdlog/fmt/fmt.h">
<polygon fill="none" stroke="black" points="614,-129 614,-148 702,-148 702,-129 614,-129"/>
<text text-anchor="middle" x="658" y="-136" font-family="Helvetica,sans-Serif" font-size="10.00">spdlog/fmt/fmt.h</text>
</a>
</g>
</g>
<!-- Node1&#45;&gt;Node13 -->
<g id="edge49" class="edge"><title>Node1&#45;&gt;Node13</title>
<path fill="none" stroke="midnightblue" d="M404.185,-425.32C393.03,-399.205 378,-356.894 378,-318.5 378,-318.5 378,-318.5 378,-255 378,-224.205 378.382,-209.762 402,-190 471.94,-131.481 514.993,-173.843 604,-154 608.669,-152.959 613.542,-151.782 618.367,-150.559"/>
<polygon fill="midnightblue" stroke="midnightblue" points="619.329,-153.925 628.122,-148.014 617.562,-147.151 619.329,-153.925"/>
</g>
<!-- Node22 -->
<g id="node22" class="node"><title>Node22</title>
<polygon fill="none" stroke="#bfbfbf" points="1172,-0.5 1172,-19.5 1216,-19.5 1216,-0.5 1172,-0.5"/>
<text text-anchor="middle" x="1194" y="-7.5" font-family="Helvetica,sans-Serif" font-size="10.00">vector</text>
</g>
<!-- Node1&#45;&gt;Node22 -->
<g id="edge57" class="edge"><title>Node1&#45;&gt;Node22</title>
<path fill="none" stroke="midnightblue" d="M494.503,-446.08C583.225,-439.576 731.272,-424.14 854,-389 912.914,-372.131 926.521,-362.924 980,-333 1087.62,-272.785 1147.49,-269.005 1192,-154 1207.88,-112.968 1211.72,-99.6248 1206,-56 1204.84,-47.1813 1202.47,-37.6328 1200.13,-29.6098"/>
<polygon fill="midnightblue" stroke="midnightblue" points="1203.4,-28.3366 1197.09,-19.8268 1196.71,-30.4151 1203.4,-28.3366"/>
</g>
<!-- Node23 -->
<g id="node23" class="node"><title>Node23</title>
<polygon fill="none" stroke="#bfbfbf" points="976,-0.5 976,-19.5 1016,-19.5 1016,-0.5 976,-0.5"/>
<text text-anchor="middle" x="996" y="-7.5" font-family="Helvetica,sans-Serif" font-size="10.00">utility</text>
</g>
<!-- Node1&#45;&gt;Node23 -->
<g id="edge56" class="edge"><title>Node1&#45;&gt;Node23</title>
<path fill="none" stroke="midnightblue" d="M494.816,-450.112C609.559,-446.177 825.712,-425.777 980,-333 1055.97,-287.32 1098.2,-289.697 1137,-210 1173.83,-134.359 1068.55,-56.2562 1019.57,-25.0798"/>
<polygon fill="midnightblue" stroke="midnightblue" points="1021.19,-21.9673 1010.85,-19.6499 1017.49,-27.9085 1021.19,-21.9673"/>
</g>
<!-- Node25 -->
<g id="node25" class="node"><title>Node25</title>
<g id="a_node25"><a xlink:href="os_8h.html" target="_top" xlink:title="spdlog/details/os.h">
<polygon fill="none" stroke="black" points="677,-246.5 677,-265.5 775,-265.5 775,-246.5 677,-246.5"/>
<text text-anchor="middle" x="726" y="-253.5" font-family="Helvetica,sans-Serif" font-size="10.00">spdlog/details/os.h</text>
</a>
</g>
</g>
<!-- Node1&#45;&gt;Node25 -->
<g id="edge48" class="edge"><title>Node1&#45;&gt;Node25</title>
<path fill="none" stroke="midnightblue" d="M456.209,-425.402C522.218,-384.199 651.416,-303.555 703.47,-271.063"/>
<polygon fill="midnightblue" stroke="midnightblue" points="705.629,-273.841 712.259,-265.577 701.923,-267.903 705.629,-273.841"/>
</g>
<!-- Node26 -->
<g id="node26" class="node"><title>Node26</title>
<polygon fill="none" stroke="#bfbfbf" points="1024.5,-190.5 1024.5,-209.5 1065.5,-209.5 1065.5,-190.5 1024.5,-190.5"/>
<text text-anchor="middle" x="1045" y="-197.5" font-family="Helvetica,sans-Serif" font-size="10.00">ctime</text>
</g>
<!-- Node1&#45;&gt;Node26 -->
<g id="edge51" class="edge"><title>Node1&#45;&gt;Node26</title>
<path fill="none" stroke="midnightblue" d="M494.915,-443.677C616.487,-429.548 851.66,-387.457 1006,-266 1021.48,-253.819 1032.19,-233.663 1038.42,-219.021"/>
<polygon fill="midnightblue" stroke="midnightblue" points="1041.75,-220.113 1042.16,-209.527 1035.24,-217.544 1041.75,-220.113"/>
</g>
<!-- Node27 -->
<g id="node27" class="node"><title>Node27</title>
<polygon fill="none" stroke="#bfbfbf" points="1084,-190.5 1084,-209.5 1128,-209.5 1128,-190.5 1084,-190.5"/>
<text text-anchor="middle" x="1106" y="-197.5" font-family="Helvetica,sans-Serif" font-size="10.00">thread</text>
</g>
<!-- Node1&#45;&gt;Node27 -->
<g id="edge55" class="edge"><title>Node1&#45;&gt;Node27</title>
<path fill="none" stroke="midnightblue" d="M494.905,-447.357C602.758,-439.978 799.212,-415.319 943,-333 1002.54,-298.914 1062.73,-243.506 1090.36,-216.621"/>
<polygon fill="midnightblue" stroke="midnightblue" points="1092.88,-219.048 1097.56,-209.541 1087.98,-214.056 1092.88,-219.048"/>
</g>
<!-- Node34 -->
<g id="node34" class="node"><title>Node34</title>
<polygon fill="none" stroke="#bfbfbf" points="1203,-369.5 1203,-388.5 1247,-388.5 1247,-369.5 1203,-369.5"/>
<text text-anchor="middle" x="1225" y="-376.5" font-family="Helvetica,sans-Serif" font-size="10.00">mutex</text>
</g>
<!-- Node1&#45;&gt;Node34 -->
<g id="edge53" class="edge"><title>Node1&#45;&gt;Node34</title>
<path fill="none" stroke="midnightblue" d="M494.694,-448.537C635.035,-444.082 937.399,-430.168 1189,-389 1190.25,-388.795 1191.52,-388.569 1192.81,-388.325"/>
<polygon fill="midnightblue" stroke="midnightblue" points="1193.62,-391.731 1202.65,-386.196 1192.14,-384.889 1193.62,-391.731"/>
</g>
<!-- Node2&#45;&gt;Node1 -->
<g id="edge46" class="edge"><title>Node2&#45;&gt;Node1</title>
<path fill="none" stroke="midnightblue" d="M286.974,-388.527C306.212,-396.65 334.295,-409.354 359.388,-421.151"/>
<polygon fill="midnightblue" stroke="midnightblue" points="357.938,-424.337 368.475,-425.446 360.93,-418.008 357.938,-424.337"/>
</g>
<!-- Node2&#45;&gt;Node3 -->
<g id="edge2" class="edge"><title>Node2&#45;&gt;Node3</title>
<path fill="none" stroke="midnightblue" d="M269.731,-369.475C274.743,-362.019 282.251,-350.852 288.962,-340.869"/>
<polygon fill="midnightblue" stroke="midnightblue" points="291.898,-342.775 294.573,-332.523 286.089,-338.869 291.898,-342.775"/>
</g>
<!-- Node2&#45;&gt;Node5 -->
<g id="edge44" class="edge"><title>Node2&#45;&gt;Node5</title>
<path fill="none" stroke="midnightblue" d="M235.433,-369.402C191.912,-354.331 114,-318.731 114,-257 114,-257 114,-257 114,-137.5 114,-92.1215 150.379,-48.982 172.799,-26.705"/>
<polygon fill="midnightblue" stroke="midnightblue" points="175.277,-29.1776 180.064,-19.7259 170.428,-24.1293 175.277,-29.1776"/>
</g>
<!-- Node2&#45;&gt;Node8 -->
<g id="edge45" class="edge"><title>Node2&#45;&gt;Node8</title>
<path fill="none" stroke="midnightblue" d="M216.28,-373.948C186.416,-368.934 149.315,-357.775 126,-333 48.5768,-250.729 76.3382,-199.059 62,-87 60.2514,-73.3336 57.1846,-68.9089 62,-56 66.1734,-44.8124 74.5196,-34.5598 82.4238,-26.6759"/>
<polygon fill="midnightblue" stroke="midnightblue" points="85.0616,-29.0029 90.0098,-19.6346 80.2994,-23.8724 85.0616,-29.0029"/>
</g>
<!-- Node2&#45;&gt;Node22 -->
<g id="edge43" class="edge"><title>Node2&#45;&gt;Node22</title>
<path fill="none" stroke="midnightblue" d="M311.737,-375.293C475.974,-365.026 1014.36,-323.18 1137,-210 1189.16,-161.862 1194.76,-69.554 1194.6,-29.8823"/>
<polygon fill="midnightblue" stroke="midnightblue" points="1198.1,-29.7029 1194.42,-19.7659 1191.1,-29.8258 1198.1,-29.7029"/>
</g>
<!-- Node4 -->
<g id="node4" class="node"><title>Node4</title>
<g id="a_node4"><a xlink:href="common_8h.html" target="_top" xlink:title="spdlog/common.h">
<polygon fill="none" stroke="black" points="256,-190.5 256,-209.5 350,-209.5 350,-190.5 256,-190.5"/>
<text text-anchor="middle" x="303" y="-197.5" font-family="Helvetica,sans-Serif" font-size="10.00">spdlog/common.h</text>
</a>
</g>
</g>
<!-- Node3&#45;&gt;Node4 -->
<g id="edge3" class="edge"><title>Node3&#45;&gt;Node4</title>
<path fill="none" stroke="midnightblue" d="M303.877,-302.337C303.698,-281.622 303.364,-243.016 303.164,-219.899"/>
<polygon fill="midnightblue" stroke="midnightblue" points="306.662,-219.639 303.075,-209.669 299.662,-219.699 306.662,-219.639"/>
</g>
<!-- Node3&#45;&gt;Node5 -->
<g id="edge41" class="edge"><title>Node3&#45;&gt;Node5</title>
<path fill="none" stroke="midnightblue" d="M257.982,-303.086C213.245,-286.879 152,-254.857 152,-201 152,-201 152,-201 152,-137.5 152,-97.3496 169.776,-52.9463 181.012,-28.8892"/>
<polygon fill="midnightblue" stroke="midnightblue" points="184.289,-30.1518 185.492,-19.6255 177.987,-27.1043 184.289,-30.1518"/>
</g>
<!-- Node3&#45;&gt;Node23 -->
<g id="edge42" class="edge"><title>Node3&#45;&gt;Node23</title>
<path fill="none" stroke="midnightblue" d="M350.052,-315.41C481.695,-311.311 855.506,-292.492 939,-210 989.383,-160.221 995.974,-69.147 996.338,-29.8612"/>
<polygon fill="midnightblue" stroke="midnightblue" points="999.838,-29.6179 996.297,-19.6321 992.838,-29.6463 999.838,-29.6179"/>
</g>
<!-- Node3&#45;&gt;Node25 -->
<g id="edge27" class="edge"><title>Node3&#45;&gt;Node25</title>
<path fill="none" stroke="midnightblue" d="M350.369,-309.962C427.523,-299.084 582.143,-277.283 666.967,-265.323"/>
<polygon fill="midnightblue" stroke="midnightblue" points="667.542,-268.777 676.955,-263.915 666.565,-261.846 667.542,-268.777"/>
</g>
<!-- Node4&#45;&gt;Node5 -->
<g id="edge4" class="edge"><title>Node4&#45;&gt;Node5</title>
<path fill="none" stroke="midnightblue" d="M300.77,-190.249C294.489,-166.775 274.931,-101.135 242,-56 233.534,-44.3963 221.54,-33.7601 211.204,-25.745"/>
<polygon fill="midnightblue" stroke="midnightblue" points="213.139,-22.8225 203.026,-19.6651 208.963,-28.4401 213.139,-22.8225"/>
</g>
<!-- Node6 -->
<g id="node6" class="node"><title>Node6</title>
<polygon fill="none" stroke="#bfbfbf" points="522.5,-129 522.5,-148 595.5,-148 595.5,-129 522.5,-129"/>
<text text-anchor="middle" x="559" y="-136" font-family="Helvetica,sans-Serif" font-size="10.00">initializer_list</text>
</g>
<!-- Node4&#45;&gt;Node6 -->
<g id="edge5" class="edge"><title>Node4&#45;&gt;Node6</title>
<path fill="none" stroke="midnightblue" d="M348.764,-190.485C391.504,-182.228 456.943,-168.806 513,-154 516.423,-153.096 519.97,-152.095 523.507,-151.054"/>
<polygon fill="midnightblue" stroke="midnightblue" points="524.79,-154.322 533.336,-148.06 522.75,-147.626 524.79,-154.322"/>
</g>
<!-- Node4&#45;&gt;Node7 -->
<g id="edge6" class="edge"><title>Node4&#45;&gt;Node7</title>
<path fill="none" stroke="midnightblue" d="M350.342,-194.625C450.377,-185.257 676.895,-163.353 711,-154 713.151,-153.41 715.34,-152.693 717.512,-151.897"/>
<polygon fill="midnightblue" stroke="midnightblue" points="718.871,-155.123 726.762,-148.052 716.185,-148.659 718.871,-155.123"/>
</g>
<!-- Node4&#45;&gt;Node8 -->
<g id="edge7" class="edge"><title>Node4&#45;&gt;Node8</title>
<path fill="none" stroke="midnightblue" d="M293.796,-190.434C262.313,-161.133 158.627,-64.6333 117.765,-26.6032"/>
<polygon fill="midnightblue" stroke="midnightblue" points="119.963,-23.8676 110.258,-19.6168 115.194,-28.9918 119.963,-23.8676"/>
</g>
<!-- Node9 -->
<g id="node9" class="node"><title>Node9</title>
<polygon fill="none" stroke="#bfbfbf" points="364,-62 364,-81 410,-81 410,-62 364,-62"/>
<text text-anchor="middle" x="387" y="-69" font-family="Helvetica,sans-Serif" font-size="10.00">atomic</text>
</g>
<!-- Node4&#45;&gt;Node9 -->
<g id="edge8" class="edge"><title>Node4&#45;&gt;Node9</title>
<path fill="none" stroke="midnightblue" d="M303.508,-190.303C304.746,-175.385 308.942,-144.455 323,-123 332.832,-107.995 348.617,-95.4684 362.05,-86.6449"/>
<polygon fill="midnightblue" stroke="midnightblue" points="364.239,-89.4046 370.872,-81.1429 360.535,-83.4651 364.239,-89.4046"/>
</g>
<!-- Node10 -->
<g id="node10" class="node"><title>Node10</title>
<polygon fill="none" stroke="#bfbfbf" points="332.5,-129 332.5,-148 391.5,-148 391.5,-129 332.5,-129"/>
<text text-anchor="middle" x="362" y="-136" font-family="Helvetica,sans-Serif" font-size="10.00">exception</text>
</g>
<!-- Node4&#45;&gt;Node10 -->
<g id="edge9" class="edge"><title>Node4&#45;&gt;Node10</title>
<path fill="none" stroke="midnightblue" d="M311.453,-190.475C320.566,-181.285 335.27,-166.456 346.476,-155.156"/>
<polygon fill="midnightblue" stroke="midnightblue" points="349.007,-157.574 353.562,-148.009 344.036,-152.646 349.007,-157.574"/>
</g>
<!-- Node11 -->
<g id="node11" class="node"><title>Node11</title>
<polygon fill="none" stroke="#bfbfbf" points="827.5,-129 827.5,-148 886.5,-148 886.5,-129 827.5,-129"/>
<text text-anchor="middle" x="857" y="-136" font-family="Helvetica,sans-Serif" font-size="10.00">functional</text>
</g>
<!-- Node4&#45;&gt;Node11 -->
<g id="edge10" class="edge"><title>Node4&#45;&gt;Node11</title>
<path fill="none" stroke="midnightblue" d="M350.039,-195.768C435.093,-189.645 620.023,-175.056 775,-154 788.927,-152.108 804.102,-149.562 817.569,-147.131"/>
<polygon fill="midnightblue" stroke="midnightblue" points="818.283,-150.559 827.485,-145.308 817.017,-143.674 818.283,-150.559"/>
</g>
<!-- Node12 -->
<g id="node12" class="node"><title>Node12</title>
<g id="a_node12"><a xlink:href="null__mutex_8h.html" target="_top" xlink:title="spdlog/details/null\l_mutex.h">
<polygon fill="none" stroke="black" points="409.5,-123.5 409.5,-153.5 504.5,-153.5 504.5,-123.5 409.5,-123.5"/>
<text text-anchor="start" x="417.5" y="-141.5" font-family="Helvetica,sans-Serif" font-size="10.00">spdlog/details/null</text>
<text text-anchor="middle" x="457" y="-130.5" font-family="Helvetica,sans-Serif" font-size="10.00">_mutex.h</text>
</a>
</g>
</g>
<!-- Node4&#45;&gt;Node12 -->
<g id="edge11" class="edge"><title>Node4&#45;&gt;Node12</title>
<path fill="none" stroke="midnightblue" d="M325.064,-190.475C347.481,-181.814 382.859,-168.145 411.34,-157.141"/>
<polygon fill="midnightblue" stroke="midnightblue" points="412.639,-160.392 420.705,-153.523 410.116,-153.862 412.639,-160.392"/>
</g>
<!-- Node4&#45;&gt;Node13 -->
<g id="edge13" class="edge"><title>Node4&#45;&gt;Node13</title>
<path fill="none" stroke="midnightblue" d="M350.167,-192.019C433.311,-179.703 597.825,-155.286 604,-154 608.796,-153.001 613.8,-151.832 618.743,-150.6"/>
<polygon fill="midnightblue" stroke="midnightblue" points="619.917,-153.911 628.719,-148.014 618.16,-147.135 619.917,-153.911"/>
</g>
<!-- Node12&#45;&gt;Node9 -->
<g id="edge12" class="edge"><title>Node12&#45;&gt;Node9</title>
<path fill="none" stroke="midnightblue" d="M441.811,-123.396C430.68,-113.06 415.564,-99.0237 404.025,-88.309"/>
<polygon fill="midnightblue" stroke="midnightblue" points="406.073,-85.4343 396.363,-81.1945 401.31,-90.5639 406.073,-85.4343"/>
</g>
<!-- Node14 -->
<g id="node14" class="node"><title>Node14</title>
<g id="a_node14"><a xlink:href="format_8h.html" target="_top" xlink:title="spdlog/fmt/bundled\l/format.h">
<polygon fill="none" stroke="black" points="613.5,-56.5 613.5,-86.5 712.5,-86.5 712.5,-56.5 613.5,-56.5"/>
<text text-anchor="start" x="621.5" y="-74.5" font-family="Helvetica,sans-Serif" font-size="10.00">spdlog/fmt/bundled</text>
<text text-anchor="middle" x="663" y="-63.5" font-family="Helvetica,sans-Serif" font-size="10.00">/format.h</text>
</a>
</g>
</g>
<!-- Node13&#45;&gt;Node14 -->
<g id="edge14" class="edge"><title>Node13&#45;&gt;Node14</title>
<path fill="none" stroke="midnightblue" d="M658.674,-128.734C659.305,-120.541 660.275,-107.923 661.137,-96.7136"/>
<polygon fill="midnightblue" stroke="midnightblue" points="664.639,-96.828 661.916,-86.589 657.659,-96.2911 664.639,-96.828"/>
</g>
<!-- Node14&#45;&gt;Node5 -->
<g id="edge23" class="edge"><title>Node14&#45;&gt;Node5</title>
<path fill="none" stroke="midnightblue" d="M613.275,-64.2449C515.638,-51.963 301.399,-25.0131 221.16,-14.9197"/>
<polygon fill="midnightblue" stroke="midnightblue" points="221.112,-11.3862 210.754,-13.6107 220.239,-18.3315 221.112,-11.3862"/>
</g>
<!-- Node14&#45;&gt;Node8 -->
<g id="edge21" class="edge"><title>Node14&#45;&gt;Node8</title>
<path fill="none" stroke="midnightblue" d="M613.285,-66.3607C522.896,-58.6453 325.656,-40.9365 160,-20 152.579,-19.0621 144.652,-17.9376 137.095,-16.8062"/>
<polygon fill="midnightblue" stroke="midnightblue" points="137.514,-13.3297 127.1,-15.276 136.455,-20.2491 137.514,-13.3297"/>
</g>
<!-- Node15 -->
<g id="node15" class="node"><title>Node15</title>
<polygon fill="none" stroke="#bfbfbf" points="705.5,-0.5 705.5,-19.5 754.5,-19.5 754.5,-0.5 705.5,-0.5"/>
<text text-anchor="middle" x="730" y="-7.5" font-family="Helvetica,sans-Serif" font-size="10.00">cassert</text>
</g>
<!-- Node14&#45;&gt;Node15 -->
<g id="edge15" class="edge"><title>Node14&#45;&gt;Node15</title>
<path fill="none" stroke="midnightblue" d="M678.878,-56.3993C689.015,-47.3967 702.162,-35.7214 712.585,-26.4652"/>
<polygon fill="midnightblue" stroke="midnightblue" points="715.098,-28.915 720.251,-19.6578 710.45,-23.681 715.098,-28.915"/>
</g>
<!-- Node16 -->
<g id="node16" class="node"><title>Node16</title>
<polygon fill="none" stroke="#bfbfbf" points="772.5,-0.5 772.5,-19.5 819.5,-19.5 819.5,-0.5 772.5,-0.5"/>
<text text-anchor="middle" x="796" y="-7.5" font-family="Helvetica,sans-Serif" font-size="10.00">clocale</text>
</g>
<!-- Node14&#45;&gt;Node16 -->
<g id="edge16" class="edge"><title>Node14&#45;&gt;Node16</title>
<path fill="none" stroke="midnightblue" d="M694.519,-56.3993C716.635,-46.5054 745.967,-33.3832 767.406,-23.7919"/>
<polygon fill="midnightblue" stroke="midnightblue" points="768.948,-26.9364 776.647,-19.6578 766.09,-20.5466 768.948,-26.9364"/>
</g>
<!-- Node17 -->
<g id="node17" class="node"><title>Node17</title>
<polygon fill="none" stroke="#bfbfbf" points="838,-0.5 838,-19.5 882,-19.5 882,-0.5 838,-0.5"/>
<text text-anchor="middle" x="860" y="-7.5" font-family="Helvetica,sans-Serif" font-size="10.00">cmath</text>
</g>
<!-- Node14&#45;&gt;Node17 -->
<g id="edge17" class="edge"><title>Node14&#45;&gt;Node17</title>
<path fill="none" stroke="midnightblue" d="M709.686,-56.3993C746.236,-45.3601 796.093,-30.3019 828.171,-20.6134"/>
<polygon fill="midnightblue" stroke="midnightblue" points="829.361,-23.9103 837.922,-17.6684 827.337,-17.2092 829.361,-23.9103"/>
</g>
<!-- Node18 -->
<g id="node18" class="node"><title>Node18</title>
<polygon fill="none" stroke="#bfbfbf" points="909.5,-0.5 909.5,-19.5 952.5,-19.5 952.5,-0.5 909.5,-0.5"/>
<text text-anchor="middle" x="931" y="-7.5" font-family="Helvetica,sans-Serif" font-size="10.00">cstdio</text>
</g>
<!-- Node14&#45;&gt;Node18 -->
<g id="edge18" class="edge"><title>Node14&#45;&gt;Node18</title>
<path fill="none" stroke="midnightblue" d="M712.825,-59.5144C759.023,-49.3167 829.669,-33.6919 891,-20 893.801,-19.3748 896.711,-18.7233 899.627,-18.0694"/>
<polygon fill="midnightblue" stroke="midnightblue" points="900.424,-21.4777 909.413,-15.8709 898.889,-14.6479 900.424,-21.4777"/>
</g>
<!-- Node19 -->
<g id="node19" class="node"><title>Node19</title>
<polygon fill="none" stroke="#bfbfbf" points="439,-0.5 439,-19.5 485,-19.5 485,-0.5 439,-0.5"/>
<text text-anchor="middle" x="462" y="-7.5" font-family="Helvetica,sans-Serif" font-size="10.00">cstring</text>
</g>
<!-- Node14&#45;&gt;Node19 -->
<g id="edge19" class="edge"><title>Node14&#45;&gt;Node19</title>
<path fill="none" stroke="midnightblue" d="M615.62,-56.4747C578.546,-45.5 527.938,-30.5189 495.114,-20.8023"/>
<polygon fill="midnightblue" stroke="midnightblue" points="495.703,-17.3267 485.121,-17.8442 493.716,-24.0388 495.703,-17.3267"/>
</g>
<!-- Node20 -->
<g id="node20" class="node"><title>Node20</title>
<polygon fill="none" stroke="#bfbfbf" points="503,-0.5 503,-19.5 543,-19.5 543,-0.5 503,-0.5"/>
<text text-anchor="middle" x="523" y="-7.5" font-family="Helvetica,sans-Serif" font-size="10.00">limits</text>
</g>
<!-- Node14&#45;&gt;Node20 -->
<g id="edge20" class="edge"><title>Node14&#45;&gt;Node20</title>
<path fill="none" stroke="midnightblue" d="M629.822,-56.3993C606.437,-46.4608 575.388,-33.2649 552.794,-23.6625"/>
<polygon fill="midnightblue" stroke="midnightblue" points="553.944,-20.3481 543.371,-19.6578 551.206,-26.7904 553.944,-20.3481"/>
</g>
<!-- Node21 -->
<g id="node21" class="node"><title>Node21</title>
<polygon fill="none" stroke="#bfbfbf" points="561.5,-0.5 561.5,-19.5 620.5,-19.5 620.5,-0.5 561.5,-0.5"/>
<text text-anchor="middle" x="591" y="-7.5" font-family="Helvetica,sans-Serif" font-size="10.00">stdexcept</text>
</g>
<!-- Node14&#45;&gt;Node21 -->
<g id="edge22" class="edge"><title>Node14&#45;&gt;Node21</title>
<path fill="none" stroke="midnightblue" d="M645.937,-56.3993C634.935,-47.3076 620.635,-35.4899 609.382,-26.1909"/>
<polygon fill="midnightblue" stroke="midnightblue" points="611.415,-23.33 601.477,-19.6578 606.956,-28.726 611.415,-23.33"/>
</g>
<!-- Node14&#45;&gt;Node22 -->
<g id="edge24" class="edge"><title>Node14&#45;&gt;Node22</title>
<path fill="none" stroke="midnightblue" d="M712.955,-64.9024C820.75,-52.8237 1072.64,-24.5992 1161.92,-14.5946"/>
<polygon fill="midnightblue" stroke="midnightblue" points="1162.43,-18.059 1171.98,-13.4672 1161.65,-11.1026 1162.43,-18.059"/>
</g>
<!-- Node14&#45;&gt;Node23 -->
<g id="edge25" class="edge"><title>Node14&#45;&gt;Node23</title>
<path fill="none" stroke="midnightblue" d="M712.543,-63.4045C771.874,-54.6077 874.135,-38.4945 961,-20 962.496,-19.6815 964.024,-19.3421 965.565,-18.9886"/>
<polygon fill="midnightblue" stroke="midnightblue" points="966.819,-22.286 975.71,-16.5245 965.166,-15.4838 966.819,-22.286"/>
</g>
<!-- Node24 -->
<g id="node24" class="node"><title>Node24</title>
<polygon fill="none" stroke="#bfbfbf" points="638.5,-0.5 638.5,-19.5 687.5,-19.5 687.5,-0.5 638.5,-0.5"/>
<text text-anchor="middle" x="663" y="-7.5" font-family="Helvetica,sans-Serif" font-size="10.00">stdint.h</text>
</g>
<!-- Node14&#45;&gt;Node24 -->
<g id="edge26" class="edge"><title>Node14&#45;&gt;Node24</title>
<path fill="none" stroke="midnightblue" d="M663,-56.3993C663,-48.4664 663,-38.458 663,-29.8583"/>
<polygon fill="midnightblue" stroke="midnightblue" points="666.5,-29.6577 663,-19.6578 659.5,-29.6578 666.5,-29.6577"/>
</g>
<!-- Node25&#45;&gt;Node4 -->
<g id="edge28" class="edge"><title>Node25&#45;&gt;Node4</title>
<path fill="none" stroke="midnightblue" d="M676.649,-248.7C597.777,-238.631 443.719,-218.964 360.172,-208.299"/>
<polygon fill="midnightblue" stroke="midnightblue" points="360.459,-204.807 350.096,-207.012 359.572,-211.751 360.459,-204.807"/>
</g>
<!-- Node25&#45;&gt;Node5 -->
<g id="edge32" class="edge"><title>Node25&#45;&gt;Node5</title>
<path fill="none" stroke="midnightblue" d="M676.676,-253.479C561.007,-249.475 279.578,-237.039 247,-210 192.131,-164.46 188.074,-69.9707 189.026,-29.7652"/>
<polygon fill="midnightblue" stroke="midnightblue" points="192.532,-29.6694 189.41,-19.545 185.537,-29.4065 192.532,-29.6694"/>
</g>
<!-- Node25&#45;&gt;Node7 -->
<g id="edge33" class="edge"><title>Node25&#45;&gt;Node7</title>
<path fill="none" stroke="midnightblue" d="M676.953,-253.489C610.854,-250.302 498.5,-240.435 473,-210 467.291,-203.186 467.204,-196.739 473,-190 507.881,-149.447 659.709,-169.182 711,-154 712.93,-153.429 714.894,-152.764 716.852,-152.039"/>
<polygon fill="midnightblue" stroke="midnightblue" points="718.505,-155.142 726.394,-148.07 715.816,-148.679 718.505,-155.142"/>
</g>
<!-- Node25&#45;&gt;Node11 -->
<g id="edge31" class="edge"><title>Node25&#45;&gt;Node11</title>
<path fill="none" stroke="midnightblue" d="M775.317,-249.066C821.51,-242.374 885.67,-229.771 901,-210 914.98,-191.971 894.902,-169.317 877.507,-154.63"/>
<polygon fill="midnightblue" stroke="midnightblue" points="879.343,-151.617 869.344,-148.115 874.977,-157.088 879.343,-151.617"/>
</g>
<!-- Node25&#45;&gt;Node18 -->
<g id="edge29" class="edge"><title>Node25&#45;&gt;Node18</title>
<path fill="none" stroke="midnightblue" d="M775.074,-250.097C825.709,-243.939 899.797,-231.485 918,-210 962,-158.068 946.087,-68.54 936.333,-29.7854"/>
<polygon fill="midnightblue" stroke="midnightblue" points="939.649,-28.6367 933.688,-19.8779 932.886,-30.4423 939.649,-28.6367"/>
</g>
<!-- Node25&#45;&gt;Node26 -->
<g id="edge30" class="edge"><title>Node25&#45;&gt;Node26</title>
<path fill="none" stroke="midnightblue" d="M775.145,-246.681C841.805,-235.397 958.906,-215.574 1014.3,-206.197"/>
<polygon fill="midnightblue" stroke="midnightblue" points="1014.94,-209.639 1024.21,-204.519 1013.77,-202.737 1014.94,-209.639"/>
</g>
<!-- Node25&#45;&gt;Node27 -->
<g id="edge34" class="edge"><title>Node25&#45;&gt;Node27</title>
<path fill="none" stroke="midnightblue" d="M775.071,-250.925C840.874,-244.96 961.427,-232.282 1073.91,-209.712"/>
<polygon fill="midnightblue" stroke="midnightblue" points="1074.62,-213.138 1083.72,-207.713 1073.22,-206.279 1074.62,-213.138"/>
</g>
<!-- Node28 -->
<g id="node28" class="node"><title>Node28</title>
<polygon fill="none" stroke="#bfbfbf" points="482,-190.5 482,-209.5 528,-209.5 528,-190.5 482,-190.5"/>
<text text-anchor="middle" x="505" y="-197.5" font-family="Helvetica,sans-Serif" font-size="10.00">stdio.h</text>
</g>
<!-- Node25&#45;&gt;Node28 -->
<g id="edge35" class="edge"><title>Node25&#45;&gt;Node28</title>
<path fill="none" stroke="midnightblue" d="M688.237,-246.482C652.096,-238.225 595.816,-225.094 538.074,-210.202"/>
<polygon fill="midnightblue" stroke="midnightblue" points="538.6,-206.723 528.042,-207.601 536.843,-213.499 538.6,-206.723"/>
</g>
<!-- Node29 -->
<g id="node29" class="node"><title>Node29</title>
<polygon fill="none" stroke="#bfbfbf" points="546.5,-190.5 546.5,-209.5 595.5,-209.5 595.5,-190.5 546.5,-190.5"/>
<text text-anchor="middle" x="571" y="-197.5" font-family="Helvetica,sans-Serif" font-size="10.00">string.h</text>
</g>
<!-- Node25&#45;&gt;Node29 -->
<g id="edge36" class="edge"><title>Node25&#45;&gt;Node29</title>
<path fill="none" stroke="midnightblue" d="M701.44,-246.444C675.477,-237.399 634.332,-223.064 605.203,-212.916"/>
<polygon fill="midnightblue" stroke="midnightblue" points="606.04,-209.501 595.445,-209.516 603.737,-216.112 606.04,-209.501"/>
</g>
<!-- Node30 -->
<g id="node30" class="node"><title>Node30</title>
<polygon fill="none" stroke="#bfbfbf" points="614,-190.5 614,-209.5 674,-209.5 674,-190.5 614,-190.5"/>
<text text-anchor="middle" x="644" y="-197.5" font-family="Helvetica,sans-Serif" font-size="10.00">sys/stat.h</text>
</g>
<!-- Node25&#45;&gt;Node30 -->
<g id="edge37" class="edge"><title>Node25&#45;&gt;Node30</title>
<path fill="none" stroke="midnightblue" d="M712.825,-246.324C700.153,-237.979 680.767,-225.212 665.794,-215.352"/>
<polygon fill="midnightblue" stroke="midnightblue" points="667.419,-212.231 657.142,-209.655 663.569,-218.078 667.419,-212.231"/>
</g>
<!-- Node31 -->
<g id="node31" class="node"><title>Node31</title>
<polygon fill="none" stroke="#bfbfbf" points="692,-190.5 692,-209.5 760,-209.5 760,-190.5 692,-190.5"/>
<text text-anchor="middle" x="726" y="-197.5" font-family="Helvetica,sans-Serif" font-size="10.00">sys/types.h</text>
</g>
<!-- Node25&#45;&gt;Node31 -->
<g id="edge38" class="edge"><title>Node25&#45;&gt;Node31</title>
<path fill="none" stroke="midnightblue" d="M726,-246.083C726,-239.006 726,-228.861 726,-219.986"/>
<polygon fill="midnightblue" stroke="midnightblue" points="729.5,-219.751 726,-209.751 722.5,-219.751 729.5,-219.751"/>
</g>
<!-- Node32 -->
<g id="node32" class="node"><title>Node32</title>
<polygon fill="none" stroke="#bfbfbf" points="778.5,-190.5 778.5,-209.5 829.5,-209.5 829.5,-190.5 778.5,-190.5"/>
<text text-anchor="middle" x="804" y="-197.5" font-family="Helvetica,sans-Serif" font-size="10.00">unistd.h</text>
</g>
<!-- Node25&#45;&gt;Node32 -->
<g id="edge39" class="edge"><title>Node25&#45;&gt;Node32</title>
<path fill="none" stroke="midnightblue" d="M738.532,-246.324C750.586,-237.979 769.027,-225.212 783.269,-215.352"/>
<polygon fill="midnightblue" stroke="midnightblue" points="785.269,-218.224 791.499,-209.655 781.285,-212.469 785.269,-218.224"/>
</g>
<!-- Node33 -->
<g id="node33" class="node"><title>Node33</title>
<polygon fill="none" stroke="#bfbfbf" points="848,-190.5 848,-209.5 892,-209.5 892,-190.5 848,-190.5"/>
<text text-anchor="middle" x="870" y="-197.5" font-family="Helvetica,sans-Serif" font-size="10.00">fcntl.h</text>
</g>
<!-- Node25&#45;&gt;Node33 -->
<g id="edge40" class="edge"><title>Node25&#45;&gt;Node33</title>
<path fill="none" stroke="midnightblue" d="M748.817,-246.444C772.973,-237.385 811.276,-223.021 838.345,-212.871"/>
<polygon fill="midnightblue" stroke="midnightblue" points="839.628,-216.127 847.763,-209.339 837.17,-209.573 839.628,-216.127"/>
</g>
</g>
</svg>
