<?xml version="1.0" encoding="UTF-8" standalone="no"?>
<!DOCTYPE svg PUBLIC "-//W3C//DTD SVG 1.1//EN"
 "http://www.w3.org/Graphics/SVG/1.1/DTD/svg11.dtd">
<!-- Generated by graphviz version 2.38.0 (20140413.2041)
 -->
<!-- Title: /home/lucamuratore/advr&#45;superbuild/external/XBotInterface/include/spdlog/details/pattern_formatter_impl.h Pages: 1 -->
<svg width="1470pt" height="1129pt"
 viewBox="0.00 0.00 1469.86 1129.00" xmlns="http://www.w3.org/2000/svg" xmlns:xlink="http://www.w3.org/1999/xlink">
<g id="graph0" class="graph" transform="scale(1 1) rotate(0) translate(4 1125)">
<title>/home/lucamuratore/advr&#45;superbuild/external/XBotInterface/include/spdlog/details/pattern_formatter_impl.h</title>
<!-- Node1 -->
<g id="node1" class="node"><title>Node1</title>
<polygon fill="#bfbfbf" stroke="black" points="329.362,-1068.5 329.362,-1120.5 486.362,-1120.5 486.362,-1068.5 329.362,-1068.5"/>
<text text-anchor="start" x="337.362" y="-1108.5" font-family="Helvetica,sans-Serif" font-size="10.00">/home/lucamuratore</text>
<text text-anchor="start" x="337.362" y="-1097.5" font-family="Helvetica,sans-Serif" font-size="10.00">/advr&#45;superbuild/external</text>
<text text-anchor="start" x="337.362" y="-1086.5" font-family="Helvetica,sans-Serif" font-size="10.00">/XBotInterface/include/spdlog</text>
<text text-anchor="middle" x="407.862" y="-1075.5" font-family="Helvetica,sans-Serif" font-size="10.00">/details/pattern_formatter_impl.h</text>
</g>
<!-- Node2 -->
<g id="node2" class="node"><title>Node2</title>
<g id="a_node2"><a xlink:href="formatter_8h.html" target="_top" xlink:title="/home/lucamuratore\l/advr&#45;superbuild/external\l/XBotInterface/include/spdlog\l/formatter.h">
<polygon fill="none" stroke="black" points="335.362,-979.5 335.362,-1031.5 480.362,-1031.5 480.362,-979.5 335.362,-979.5"/>
<text text-anchor="start" x="343.362" y="-1019.5" font-family="Helvetica,sans-Serif" font-size="10.00">/home/lucamuratore</text>
<text text-anchor="start" x="343.362" y="-1008.5" font-family="Helvetica,sans-Serif" font-size="10.00">/advr&#45;superbuild/external</text>
<text text-anchor="start" x="343.362" y="-997.5" font-family="Helvetica,sans-Serif" font-size="10.00">/XBotInterface/include/spdlog</text>
<text text-anchor="middle" x="407.862" y="-986.5" font-family="Helvetica,sans-Serif" font-size="10.00">/formatter.h</text>
</a>
</g>
</g>
<!-- Node1&#45;&gt;Node2 -->
<g id="edge1" class="edge"><title>Node1&#45;&gt;Node2</title>
<path fill="none" stroke="midnightblue" d="M401.219,-1058.19C400.983,-1049.28 401.136,-1039.9 401.679,-1031.61"/>
<polygon fill="midnightblue" stroke="midnightblue" points="397.73,-1058.5 401.676,-1068.34 404.723,-1058.19 397.73,-1058.5"/>
</g>
<!-- Node2&#45;&gt;Node1 -->
<g id="edge25" class="edge"><title>Node2&#45;&gt;Node1</title>
<path fill="none" stroke="midnightblue" d="M414.503,-1041.75C414.741,-1050.65 414.589,-1060.04 414.048,-1068.34"/>
<polygon fill="midnightblue" stroke="midnightblue" points="417.992,-1041.44 414.044,-1031.61 410.999,-1041.76 417.992,-1041.44"/>
</g>
<!-- Node3 -->
<g id="node3" class="node"><title>Node3</title>
<g id="a_node3"><a xlink:href="async__log__helper_8h.html" target="_top" xlink:title="/home/lucamuratore\l/advr&#45;superbuild/external\l/XBotInterface/include/spdlog\l/details/async_log_helper.h">
<polygon fill="none" stroke="black" points="147.362,-890.5 147.362,-942.5 292.362,-942.5 292.362,-890.5 147.362,-890.5"/>
<text text-anchor="start" x="155.362" y="-930.5" font-family="Helvetica,sans-Serif" font-size="10.00">/home/lucamuratore</text>
<text text-anchor="start" x="155.362" y="-919.5" font-family="Helvetica,sans-Serif" font-size="10.00">/advr&#45;superbuild/external</text>
<text text-anchor="start" x="155.362" y="-908.5" font-family="Helvetica,sans-Serif" font-size="10.00">/XBotInterface/include/spdlog</text>
<text text-anchor="middle" x="219.862" y="-897.5" font-family="Helvetica,sans-Serif" font-size="10.00">/details/async_log_helper.h</text>
</a>
</g>
</g>
<!-- Node2&#45;&gt;Node3 -->
<g id="edge2" class="edge"><title>Node2&#45;&gt;Node3</title>
<path fill="none" stroke="midnightblue" d="M344.446,-975.153C321.555,-964.56 295.947,-952.71 273.93,-942.521"/>
<polygon fill="midnightblue" stroke="midnightblue" points="343.191,-978.429 353.737,-979.453 346.131,-972.077 343.191,-978.429"/>
</g>
<!-- Node22 -->
<g id="node22" class="node"><title>Node22</title>
<g id="a_node22"><a xlink:href="base__sink_8h.html" target="_top" xlink:title="/home/lucamuratore\l/advr&#45;superbuild/external\l/XBotInterface/include/spdlog\l/sinks/base_sink.h">
<polygon fill="none" stroke="black" points="523.362,-890.5 523.362,-942.5 668.362,-942.5 668.362,-890.5 523.362,-890.5"/>
<text text-anchor="start" x="531.362" y="-930.5" font-family="Helvetica,sans-Serif" font-size="10.00">/home/lucamuratore</text>
<text text-anchor="start" x="531.362" y="-919.5" font-family="Helvetica,sans-Serif" font-size="10.00">/advr&#45;superbuild/external</text>
<text text-anchor="start" x="531.362" y="-908.5" font-family="Helvetica,sans-Serif" font-size="10.00">/XBotInterface/include/spdlog</text>
<text text-anchor="middle" x="595.862" y="-897.5" font-family="Helvetica,sans-Serif" font-size="10.00">/sinks/base_sink.h</text>
</a>
</g>
</g>
<!-- Node2&#45;&gt;Node22 -->
<g id="edge26" class="edge"><title>Node2&#45;&gt;Node22</title>
<path fill="none" stroke="midnightblue" d="M471.278,-975.153C494.169,-964.56 519.776,-952.71 541.793,-942.521"/>
<polygon fill="midnightblue" stroke="midnightblue" points="469.592,-972.077 461.987,-979.453 472.532,-978.429 469.592,-972.077"/>
</g>
<!-- Node4 -->
<g id="node4" class="node"><title>Node4</title>
<g id="a_node4"><a xlink:href="async__logger__impl_8h.html" target="_top" xlink:title="/home/lucamuratore\l/advr&#45;superbuild/external\l/XBotInterface/include/spdlog\l/details/async_logger_impl.h">
<polygon fill="none" stroke="black" points="34.3618,-623.5 34.3618,-675.5 179.362,-675.5 179.362,-623.5 34.3618,-623.5"/>
<text text-anchor="start" x="42.3618" y="-663.5" font-family="Helvetica,sans-Serif" font-size="10.00">/home/lucamuratore</text>
<text text-anchor="start" x="42.3618" y="-652.5" font-family="Helvetica,sans-Serif" font-size="10.00">/advr&#45;superbuild/external</text>
<text text-anchor="start" x="42.3618" y="-641.5" font-family="Helvetica,sans-Serif" font-size="10.00">/XBotInterface/include/spdlog</text>
<text text-anchor="middle" x="106.862" y="-630.5" font-family="Helvetica,sans-Serif" font-size="10.00">/details/async_logger_impl.h</text>
</a>
</g>
</g>
<!-- Node3&#45;&gt;Node4 -->
<g id="edge3" class="edge"><title>Node3&#45;&gt;Node4</title>
<path fill="none" stroke="midnightblue" d="M136.966,-911.365C96.2596,-904.635 50.554,-889.043 24.8618,-854 -12.4545,-803.103 -3.36238,-768.448 24.8618,-712 32.2629,-697.198 45.1085,-685.034 58.466,-675.545"/>
<polygon fill="midnightblue" stroke="midnightblue" points="136.51,-914.836 146.918,-912.855 137.547,-907.913 136.51,-914.836"/>
</g>
<!-- Node5 -->
<g id="node5" class="node"><title>Node5</title>
<g id="a_node5"><a xlink:href="async__logger_8h.html" target="_top" xlink:title="/home/lucamuratore\l/advr&#45;superbuild/external\l/XBotInterface/include/spdlog\l/async_logger.h">
<polygon fill="none" stroke="black" points="34.3618,-712.5 34.3618,-764.5 179.362,-764.5 179.362,-712.5 34.3618,-712.5"/>
<text text-anchor="start" x="42.3618" y="-752.5" font-family="Helvetica,sans-Serif" font-size="10.00">/home/lucamuratore</text>
<text text-anchor="start" x="42.3618" y="-741.5" font-family="Helvetica,sans-Serif" font-size="10.00">/advr&#45;superbuild/external</text>
<text text-anchor="start" x="42.3618" y="-730.5" font-family="Helvetica,sans-Serif" font-size="10.00">/XBotInterface/include/spdlog</text>
<text text-anchor="middle" x="106.862" y="-719.5" font-family="Helvetica,sans-Serif" font-size="10.00">/async_logger.h</text>
</a>
</g>
</g>
<!-- Node4&#45;&gt;Node5 -->
<g id="edge4" class="edge"><title>Node4&#45;&gt;Node5</title>
<path fill="none" stroke="midnightblue" d="M113.503,-685.749C113.741,-694.655 113.589,-704.04 113.048,-712.336"/>
<polygon fill="midnightblue" stroke="midnightblue" points="116.992,-685.439 113.044,-675.607 109.999,-685.755 116.992,-685.439"/>
</g>
<!-- Node5&#45;&gt;Node4 -->
<g id="edge5" class="edge"><title>Node5&#45;&gt;Node4</title>
<path fill="none" stroke="midnightblue" d="M100.219,-702.191C99.9829,-693.282 100.136,-683.899 100.679,-675.607"/>
<polygon fill="midnightblue" stroke="midnightblue" points="96.7297,-702.503 100.676,-712.336 103.723,-702.189 96.7297,-702.503"/>
</g>
<!-- Node6 -->
<g id="node6" class="node"><title>Node6</title>
<g id="a_node6"><a xlink:href="registry_8h.html" target="_top" xlink:title="/home/lucamuratore\l/advr&#45;superbuild/external\l/XBotInterface/include/spdlog\l/details/registry.h">
<polygon fill="none" stroke="black" points="236.362,-623.5 236.362,-675.5 381.362,-675.5 381.362,-623.5 236.362,-623.5"/>
<text text-anchor="start" x="244.362" y="-663.5" font-family="Helvetica,sans-Serif" font-size="10.00">/home/lucamuratore</text>
<text text-anchor="start" x="244.362" y="-652.5" font-family="Helvetica,sans-Serif" font-size="10.00">/advr&#45;superbuild/external</text>
<text text-anchor="start" x="244.362" y="-641.5" font-family="Helvetica,sans-Serif" font-size="10.00">/XBotInterface/include/spdlog</text>
<text text-anchor="middle" x="308.862" y="-630.5" font-family="Helvetica,sans-Serif" font-size="10.00">/details/registry.h</text>
</a>
</g>
</g>
<!-- Node5&#45;&gt;Node6 -->
<g id="edge6" class="edge"><title>Node5&#45;&gt;Node6</title>
<path fill="none" stroke="midnightblue" d="M174.345,-708.436C199.107,-697.771 226.9,-685.8 250.767,-675.521"/>
<polygon fill="midnightblue" stroke="midnightblue" points="172.817,-705.282 165.018,-712.453 175.586,-711.712 172.817,-705.282"/>
</g>
<!-- Node7 -->
<g id="node7" class="node"><title>Node7</title>
<g id="a_node7"><a xlink:href="spdlog__impl_8h.html" target="_top" xlink:title="/home/lucamuratore\l/advr&#45;superbuild/external\l/XBotInterface/include/spdlog\l/details/spdlog_impl.h">
<polygon fill="none" stroke="black" points="849.362,-534.5 849.362,-586.5 994.362,-586.5 994.362,-534.5 849.362,-534.5"/>
<text text-anchor="start" x="857.362" y="-574.5" font-family="Helvetica,sans-Serif" font-size="10.00">/home/lucamuratore</text>
<text text-anchor="start" x="857.362" y="-563.5" font-family="Helvetica,sans-Serif" font-size="10.00">/advr&#45;superbuild/external</text>
<text text-anchor="start" x="857.362" y="-552.5" font-family="Helvetica,sans-Serif" font-size="10.00">/XBotInterface/include/spdlog</text>
<text text-anchor="middle" x="921.862" y="-541.5" font-family="Helvetica,sans-Serif" font-size="10.00">/details/spdlog_impl.h</text>
</a>
</g>
</g>
<!-- Node6&#45;&gt;Node7 -->
<g id="edge7" class="edge"><title>Node6&#45;&gt;Node7</title>
<path fill="none" stroke="midnightblue" d="M391.516,-636.769C512.154,-619.648 734.538,-588.086 849.23,-571.808"/>
<polygon fill="midnightblue" stroke="midnightblue" points="390.997,-633.308 381.588,-638.178 391.981,-640.238 390.997,-633.308"/>
</g>
<!-- Node8 -->
<g id="node8" class="node"><title>Node8</title>
<g id="a_node8"><a xlink:href="spdlog_8h.html" target="_top" xlink:title="/home/lucamuratore\l/advr&#45;superbuild/external\l/XBotInterface/include/spdlog\l/spdlog.h">
<polygon fill="none" stroke="black" points="849.362,-445.5 849.362,-497.5 994.362,-497.5 994.362,-445.5 849.362,-445.5"/>
<text text-anchor="start" x="857.362" y="-485.5" font-family="Helvetica,sans-Serif" font-size="10.00">/home/lucamuratore</text>
<text text-anchor="start" x="857.362" y="-474.5" font-family="Helvetica,sans-Serif" font-size="10.00">/advr&#45;superbuild/external</text>
<text text-anchor="start" x="857.362" y="-463.5" font-family="Helvetica,sans-Serif" font-size="10.00">/XBotInterface/include/spdlog</text>
<text text-anchor="middle" x="921.862" y="-452.5" font-family="Helvetica,sans-Serif" font-size="10.00">/spdlog.h</text>
</a>
</g>
</g>
<!-- Node7&#45;&gt;Node8 -->
<g id="edge8" class="edge"><title>Node7&#45;&gt;Node8</title>
<path fill="none" stroke="midnightblue" d="M915.219,-524.191C914.983,-515.282 915.136,-505.899 915.679,-497.607"/>
<polygon fill="midnightblue" stroke="midnightblue" points="911.73,-524.503 915.676,-534.336 918.723,-524.189 911.73,-524.503"/>
</g>
<!-- Node8&#45;&gt;Node7 -->
<g id="edge9" class="edge"><title>Node8&#45;&gt;Node7</title>
<path fill="none" stroke="midnightblue" d="M928.503,-507.749C928.741,-516.655 928.589,-526.04 928.048,-534.336"/>
<polygon fill="midnightblue" stroke="midnightblue" points="931.992,-507.439 928.044,-497.607 924.999,-507.755 931.992,-507.439"/>
</g>
<!-- Node9 -->
<g id="node9" class="node"><title>Node9</title>
<g id="a_node9"><a xlink:href="Logger_8hpp.html" target="_top" xlink:title="/home/lucamuratore\l/advr&#45;superbuild/external\l/XBotInterface/include/XBotInterface\l/Logger.hpp">
<polygon fill="none" stroke="black" points="833.862,-356.5 833.862,-408.5 1009.86,-408.5 1009.86,-356.5 833.862,-356.5"/>
<text text-anchor="start" x="841.862" y="-396.5" font-family="Helvetica,sans-Serif" font-size="10.00">/home/lucamuratore</text>
<text text-anchor="start" x="841.862" y="-385.5" font-family="Helvetica,sans-Serif" font-size="10.00">/advr&#45;superbuild/external</text>
<text text-anchor="start" x="841.862" y="-374.5" font-family="Helvetica,sans-Serif" font-size="10.00">/XBotInterface/include/XBotInterface</text>
<text text-anchor="middle" x="921.862" y="-363.5" font-family="Helvetica,sans-Serif" font-size="10.00">/Logger.hpp</text>
</a>
</g>
</g>
<!-- Node8&#45;&gt;Node9 -->
<g id="edge10" class="edge"><title>Node8&#45;&gt;Node9</title>
<path fill="none" stroke="midnightblue" d="M921.862,-435.191C921.862,-426.282 921.862,-416.899 921.862,-408.607"/>
<polygon fill="midnightblue" stroke="midnightblue" points="918.362,-435.336 921.862,-445.336 925.362,-435.336 918.362,-435.336"/>
</g>
<!-- Node10 -->
<g id="node10" class="node"><title>Node10</title>
<g id="a_node10"><a xlink:href="ConfigHelper_8h.html" target="_top" xlink:title="/home/lucamuratore\l/advr&#45;superbuild/external\l/XBotInterface/include/XBotInterface\l/ConfigHelper.h">
<polygon fill="none" stroke="black" points="659.862,-267.5 659.862,-319.5 835.862,-319.5 835.862,-267.5 659.862,-267.5"/>
<text text-anchor="start" x="667.862" y="-307.5" font-family="Helvetica,sans-Serif" font-size="10.00">/home/lucamuratore</text>
<text text-anchor="start" x="667.862" y="-296.5" font-family="Helvetica,sans-Serif" font-size="10.00">/advr&#45;superbuild/external</text>
<text text-anchor="start" x="667.862" y="-285.5" font-family="Helvetica,sans-Serif" font-size="10.00">/XBotInterface/include/XBotInterface</text>
<text text-anchor="middle" x="747.862" y="-274.5" font-family="Helvetica,sans-Serif" font-size="10.00">/ConfigHelper.h</text>
</a>
</g>
</g>
<!-- Node9&#45;&gt;Node10 -->
<g id="edge11" class="edge"><title>Node9&#45;&gt;Node10</title>
<path fill="none" stroke="midnightblue" d="M862.414,-351.776C841.481,-341.309 818.174,-329.656 798.077,-319.607"/>
<polygon fill="midnightblue" stroke="midnightblue" points="861.024,-354.994 871.534,-356.336 864.155,-348.733 861.024,-354.994"/>
</g>
<!-- Node12 -->
<g id="node12" class="node"><title>Node12</title>
<g id="a_node12"><a xlink:href="StateMachine_8h.html" target="_top" xlink:title="/home/lucamuratore\l/advr&#45;superbuild/external\l/XBotInterface/include/XBotInterface\l/StateMachine.h">
<polygon fill="none" stroke="black" points="735.862,-0.5 735.862,-52.5 911.862,-52.5 911.862,-0.5 735.862,-0.5"/>
<text text-anchor="start" x="743.862" y="-40.5" font-family="Helvetica,sans-Serif" font-size="10.00">/home/lucamuratore</text>
<text text-anchor="start" x="743.862" y="-29.5" font-family="Helvetica,sans-Serif" font-size="10.00">/advr&#45;superbuild/external</text>
<text text-anchor="start" x="743.862" y="-18.5" font-family="Helvetica,sans-Serif" font-size="10.00">/XBotInterface/include/XBotInterface</text>
<text text-anchor="middle" x="823.862" y="-7.5" font-family="Helvetica,sans-Serif" font-size="10.00">/StateMachine.h</text>
</a>
</g>
</g>
<!-- Node9&#45;&gt;Node12 -->
<g id="edge13" class="edge"><title>Node9&#45;&gt;Node12</title>
<path fill="none" stroke="midnightblue" d="M897.457,-347.896C891.987,-339.148 886.68,-329.502 882.862,-320 863.16,-270.97 837.392,-114.341 827.737,-52.7338"/>
<polygon fill="midnightblue" stroke="midnightblue" points="894.544,-349.835 902.934,-356.305 900.409,-346.016 894.544,-349.835"/>
</g>
<!-- Node13 -->
<g id="node13" class="node"><title>Node13</title>
<g id="a_node13"><a xlink:href="XBotInterface_8h.html" target="_top" xlink:title="/home/lucamuratore\l/advr&#45;superbuild/external\l/XBotInterface/include/XBotInterface\l/XBotInterface.h">
<polygon fill="none" stroke="black" points="891.862,-267.5 891.862,-319.5 1067.86,-319.5 1067.86,-267.5 891.862,-267.5"/>
<text text-anchor="start" x="899.862" y="-307.5" font-family="Helvetica,sans-Serif" font-size="10.00">/home/lucamuratore</text>
<text text-anchor="start" x="899.862" y="-296.5" font-family="Helvetica,sans-Serif" font-size="10.00">/advr&#45;superbuild/external</text>
<text text-anchor="start" x="899.862" y="-285.5" font-family="Helvetica,sans-Serif" font-size="10.00">/XBotInterface/include/XBotInterface</text>
<text text-anchor="middle" x="979.862" y="-274.5" font-family="Helvetica,sans-Serif" font-size="10.00">/XBotInterface.h</text>
</a>
</g>
</g>
<!-- Node9&#45;&gt;Node13 -->
<g id="edge14" class="edge"><title>Node9&#45;&gt;Node13</title>
<path fill="none" stroke="midnightblue" d="M944.244,-347.927C950.521,-338.511 957.236,-328.439 963.123,-319.607"/>
<polygon fill="midnightblue" stroke="midnightblue" points="941.273,-346.074 938.638,-356.336 947.097,-349.957 941.273,-346.074"/>
</g>
<!-- Node21 -->
<g id="node21" class="node"><title>Node21</title>
<g id="a_node21"><a xlink:href="Logger_8cpp.html" target="_top" xlink:title="/home/lucamuratore\l/advr&#45;superbuild/external\l/XBotInterface/src/Logger.cpp">
<polygon fill="none" stroke="black" points="1086.36,-273 1086.36,-314 1233.36,-314 1233.36,-273 1086.36,-273"/>
<text text-anchor="start" x="1094.36" y="-302" font-family="Helvetica,sans-Serif" font-size="10.00">/home/lucamuratore</text>
<text text-anchor="start" x="1094.36" y="-291" font-family="Helvetica,sans-Serif" font-size="10.00">/advr&#45;superbuild/external</text>
<text text-anchor="middle" x="1159.86" y="-280" font-family="Helvetica,sans-Serif" font-size="10.00">/XBotInterface/src/Logger.cpp</text>
</a>
</g>
</g>
<!-- Node9&#45;&gt;Node21 -->
<g id="edge24" class="edge"><title>Node9&#45;&gt;Node21</title>
<path fill="none" stroke="midnightblue" d="M1000.03,-352.925C1034.79,-340.219 1074.84,-325.58 1106.15,-314.134"/>
<polygon fill="midnightblue" stroke="midnightblue" points="998.572,-349.732 990.382,-356.453 1000.98,-356.307 998.572,-349.732"/>
</g>
<!-- Node11 -->
<g id="node11" class="node"><title>Node11</title>
<g id="a_node11"><a xlink:href="ConfigHelper_8cpp.html" target="_top" xlink:title="/home/lucamuratore\l/advr&#45;superbuild/external\l/XBotInterface/src/ConfigHelper.cpp">
<polygon fill="none" stroke="black" points="660.362,-184 660.362,-225 835.362,-225 835.362,-184 660.362,-184"/>
<text text-anchor="start" x="668.362" y="-213" font-family="Helvetica,sans-Serif" font-size="10.00">/home/lucamuratore</text>
<text text-anchor="start" x="668.362" y="-202" font-family="Helvetica,sans-Serif" font-size="10.00">/advr&#45;superbuild/external</text>
<text text-anchor="middle" x="747.862" y="-191" font-family="Helvetica,sans-Serif" font-size="10.00">/XBotInterface/src/ConfigHelper.cpp</text>
</a>
</g>
</g>
<!-- Node10&#45;&gt;Node11 -->
<g id="edge12" class="edge"><title>Node10&#45;&gt;Node11</title>
<path fill="none" stroke="midnightblue" d="M747.862,-257.155C747.862,-246.21 747.862,-234.549 747.862,-225.082"/>
<polygon fill="midnightblue" stroke="midnightblue" points="744.362,-257.336 747.862,-267.336 751.362,-257.336 744.362,-257.336"/>
</g>
<!-- Node14 -->
<g id="node14" class="node"><title>Node14</title>
<g id="a_node14"><a xlink:href="ModelInterface_8h.html" target="_top" xlink:title="/home/lucamuratore\l/advr&#45;superbuild/external\l/XBotInterface/include/XBotInterface\l/ModelInterface.h">
<polygon fill="none" stroke="black" points="1007.86,-178.5 1007.86,-230.5 1183.86,-230.5 1183.86,-178.5 1007.86,-178.5"/>
<text text-anchor="start" x="1015.86" y="-218.5" font-family="Helvetica,sans-Serif" font-size="10.00">/home/lucamuratore</text>
<text text-anchor="start" x="1015.86" y="-207.5" font-family="Helvetica,sans-Serif" font-size="10.00">/advr&#45;superbuild/external</text>
<text text-anchor="start" x="1015.86" y="-196.5" font-family="Helvetica,sans-Serif" font-size="10.00">/XBotInterface/include/XBotInterface</text>
<text text-anchor="middle" x="1095.86" y="-185.5" font-family="Helvetica,sans-Serif" font-size="10.00">/ModelInterface.h</text>
</a>
</g>
</g>
<!-- Node13&#45;&gt;Node14 -->
<g id="edge15" class="edge"><title>Node13&#45;&gt;Node14</title>
<path fill="none" stroke="midnightblue" d="M1021.57,-261.219C1034.98,-251.164 1049.65,-240.16 1062.39,-230.607"/>
<polygon fill="midnightblue" stroke="midnightblue" points="1019.31,-258.536 1013.41,-267.336 1023.51,-264.136 1019.31,-258.536"/>
</g>
<!-- Node15 -->
<g id="node15" class="node"><title>Node15</title>
<g id="a_node15"><a xlink:href="RobotInterface_8h.html" target="_top" xlink:title="/home/lucamuratore\l/advr&#45;superbuild/external\l/XBotInterface/include/XBotInterface\l/RobotInterface.h">
<polygon fill="none" stroke="black" points="891.862,-89.5 891.862,-141.5 1067.86,-141.5 1067.86,-89.5 891.862,-89.5"/>
<text text-anchor="start" x="899.862" y="-129.5" font-family="Helvetica,sans-Serif" font-size="10.00">/home/lucamuratore</text>
<text text-anchor="start" x="899.862" y="-118.5" font-family="Helvetica,sans-Serif" font-size="10.00">/advr&#45;superbuild/external</text>
<text text-anchor="start" x="899.862" y="-107.5" font-family="Helvetica,sans-Serif" font-size="10.00">/XBotInterface/include/XBotInterface</text>
<text text-anchor="middle" x="979.862" y="-96.5" font-family="Helvetica,sans-Serif" font-size="10.00">/RobotInterface.h</text>
</a>
</g>
</g>
<!-- Node13&#45;&gt;Node15 -->
<g id="edge22" class="edge"><title>Node13&#45;&gt;Node15</title>
<path fill="none" stroke="midnightblue" d="M979.862,-257.249C979.862,-223.038 979.862,-171.969 979.862,-141.67"/>
<polygon fill="midnightblue" stroke="midnightblue" points="976.362,-257.283 979.862,-267.283 983.362,-257.284 976.362,-257.283"/>
</g>
<!-- Node20 -->
<g id="node20" class="node"><title>Node20</title>
<g id="a_node20"><a xlink:href="XBotInterface_8cpp.html" target="_top" xlink:title="/home/lucamuratore\l/advr&#45;superbuild/external\l/XBotInterface/src/XBotInterface.cpp">
<polygon fill="none" stroke="black" points="1201.86,-184 1201.86,-225 1379.86,-225 1379.86,-184 1201.86,-184"/>
<text text-anchor="start" x="1209.86" y="-213" font-family="Helvetica,sans-Serif" font-size="10.00">/home/lucamuratore</text>
<text text-anchor="start" x="1209.86" y="-202" font-family="Helvetica,sans-Serif" font-size="10.00">/advr&#45;superbuild/external</text>
<text text-anchor="middle" x="1290.86" y="-191" font-family="Helvetica,sans-Serif" font-size="10.00">/XBotInterface/src/XBotInterface.cpp</text>
</a>
</g>
</g>
<!-- Node13&#45;&gt;Node20 -->
<g id="edge23" class="edge"><title>Node13&#45;&gt;Node20</title>
<path fill="none" stroke="midnightblue" d="M1077.95,-265.062C1124.45,-252.053 1178.92,-236.814 1221.13,-225.008"/>
<polygon fill="midnightblue" stroke="midnightblue" points="1076.84,-261.737 1068.15,-267.802 1078.72,-268.479 1076.84,-261.737"/>
</g>
<!-- Node14&#45;&gt;Node15 -->
<g id="edge16" class="edge"><title>Node14&#45;&gt;Node15</title>
<path fill="none" stroke="midnightblue" d="M1054.15,-172.219C1040.75,-162.164 1026.08,-151.16 1013.34,-141.607"/>
<polygon fill="midnightblue" stroke="midnightblue" points="1052.21,-175.136 1062.31,-178.336 1056.41,-169.536 1052.21,-175.136"/>
</g>
<!-- Node18 -->
<g id="node18" class="node"><title>Node18</title>
<g id="a_node18"><a xlink:href="Utils_8h.html" target="_top" xlink:title="/home/lucamuratore\l/advr&#45;superbuild/external\l/XBotInterface/include/XBotInterface\l/Utils.h">
<polygon fill="none" stroke="black" points="1285.86,-89.5 1285.86,-141.5 1461.86,-141.5 1461.86,-89.5 1285.86,-89.5"/>
<text text-anchor="start" x="1293.86" y="-129.5" font-family="Helvetica,sans-Serif" font-size="10.00">/home/lucamuratore</text>
<text text-anchor="start" x="1293.86" y="-118.5" font-family="Helvetica,sans-Serif" font-size="10.00">/advr&#45;superbuild/external</text>
<text text-anchor="start" x="1293.86" y="-107.5" font-family="Helvetica,sans-Serif" font-size="10.00">/XBotInterface/include/XBotInterface</text>
<text text-anchor="middle" x="1373.86" y="-96.5" font-family="Helvetica,sans-Serif" font-size="10.00">/Utils.h</text>
</a>
</g>
</g>
<!-- Node14&#45;&gt;Node18 -->
<g id="edge20" class="edge"><title>Node14&#45;&gt;Node18</title>
<path fill="none" stroke="midnightblue" d="M1185.59,-175.418C1220.45,-164.511 1260.05,-152.117 1293.91,-141.521"/>
<polygon fill="midnightblue" stroke="midnightblue" points="1184.4,-172.126 1175.9,-178.453 1186.49,-178.806 1184.4,-172.126"/>
</g>
<!-- Node19 -->
<g id="node19" class="node"><title>Node19</title>
<g id="a_node19"><a xlink:href="ModelInterface_8cpp.html" target="_top" xlink:title="/home/lucamuratore\l/advr&#45;superbuild/external\l/XBotInterface/src/ModelInterface.cpp">
<polygon fill="none" stroke="black" points="1085.86,-95 1085.86,-136 1267.86,-136 1267.86,-95 1085.86,-95"/>
<text text-anchor="start" x="1093.86" y="-124" font-family="Helvetica,sans-Serif" font-size="10.00">/home/lucamuratore</text>
<text text-anchor="start" x="1093.86" y="-113" font-family="Helvetica,sans-Serif" font-size="10.00">/advr&#45;superbuild/external</text>
<text text-anchor="middle" x="1176.86" y="-102" font-family="Helvetica,sans-Serif" font-size="10.00">/XBotInterface/src/ModelInterface.cpp</text>
</a>
</g>
</g>
<!-- Node14&#45;&gt;Node19 -->
<g id="edge21" class="edge"><title>Node14&#45;&gt;Node19</title>
<path fill="none" stroke="midnightblue" d="M1126.26,-170.847C1137.16,-159.148 1149.09,-146.33 1158.63,-136.082"/>
<polygon fill="midnightblue" stroke="midnightblue" points="1123.54,-168.632 1119.29,-178.336 1128.67,-173.402 1123.54,-168.632"/>
</g>
<!-- Node15&#45;&gt;Node12 -->
<g id="edge17" class="edge"><title>Node15&#45;&gt;Node12</title>
<path fill="none" stroke="midnightblue" d="M925.805,-84.3532C907.234,-73.9962 886.658,-62.5208 868.882,-52.6075"/>
<polygon fill="midnightblue" stroke="midnightblue" points="924.302,-87.522 934.74,-89.336 927.711,-81.4085 924.302,-87.522"/>
</g>
<!-- Node16 -->
<g id="node16" class="node"><title>Node16</title>
<g id="a_node16"><a xlink:href="main__test_8cpp.html" target="_top" xlink:title="/home/lucamuratore\l/advr&#45;superbuild/external\l/XBotInterface/src/main\l_test.cpp">
<polygon fill="none" stroke="black" points="1130.36,-0.5 1130.36,-52.5 1253.36,-52.5 1253.36,-0.5 1130.36,-0.5"/>
<text text-anchor="start" x="1138.36" y="-40.5" font-family="Helvetica,sans-Serif" font-size="10.00">/home/lucamuratore</text>
<text text-anchor="start" x="1138.36" y="-29.5" font-family="Helvetica,sans-Serif" font-size="10.00">/advr&#45;superbuild/external</text>
<text text-anchor="start" x="1138.36" y="-18.5" font-family="Helvetica,sans-Serif" font-size="10.00">/XBotInterface/src/main</text>
<text text-anchor="middle" x="1191.86" y="-7.5" font-family="Helvetica,sans-Serif" font-size="10.00">_test.cpp</text>
</a>
</g>
</g>
<!-- Node15&#45;&gt;Node16 -->
<g id="edge18" class="edge"><title>Node15&#45;&gt;Node16</title>
<path fill="none" stroke="midnightblue" d="M1050.34,-85.5764C1076.42,-74.8763 1105.73,-62.8457 1130.89,-52.5211"/>
<polygon fill="midnightblue" stroke="midnightblue" points="1048.82,-82.4182 1040.9,-89.4527 1051.48,-88.8941 1048.82,-82.4182"/>
</g>
<!-- Node17 -->
<g id="node17" class="node"><title>Node17</title>
<g id="a_node17"><a xlink:href="RobotInterface_8cpp.html" target="_top" xlink:title="/home/lucamuratore\l/advr&#45;superbuild/external\l/XBotInterface/src/RobotInterface.cpp">
<polygon fill="none" stroke="black" points="929.862,-6 929.862,-47 1111.86,-47 1111.86,-6 929.862,-6"/>
<text text-anchor="start" x="937.862" y="-35" font-family="Helvetica,sans-Serif" font-size="10.00">/home/lucamuratore</text>
<text text-anchor="start" x="937.862" y="-24" font-family="Helvetica,sans-Serif" font-size="10.00">/advr&#45;superbuild/external</text>
<text text-anchor="middle" x="1020.86" y="-13" font-family="Helvetica,sans-Serif" font-size="10.00">/XBotInterface/src/RobotInterface.cpp</text>
</a>
</g>
</g>
<!-- Node15&#45;&gt;Node17 -->
<g id="edge19" class="edge"><title>Node15&#45;&gt;Node17</title>
<path fill="none" stroke="midnightblue" d="M996.041,-80.1688C1001.34,-68.9329 1007.03,-56.842 1011.63,-47.0821"/>
<polygon fill="midnightblue" stroke="midnightblue" points="992.818,-78.7981 991.721,-89.336 999.15,-81.7822 992.818,-78.7981"/>
</g>
<!-- Node23 -->
<g id="node23" class="node"><title>Node23</title>
<g id="a_node23"><a xlink:href="logger_8h.html" target="_top" xlink:title="/home/lucamuratore\l/advr&#45;superbuild/external\l/XBotInterface/include/spdlog\l/logger.h">
<polygon fill="none" stroke="black" points="34.3618,-801.5 34.3618,-853.5 179.362,-853.5 179.362,-801.5 34.3618,-801.5"/>
<text text-anchor="start" x="42.3618" y="-841.5" font-family="Helvetica,sans-Serif" font-size="10.00">/home/lucamuratore</text>
<text text-anchor="start" x="42.3618" y="-830.5" font-family="Helvetica,sans-Serif" font-size="10.00">/advr&#45;superbuild/external</text>
<text text-anchor="start" x="42.3618" y="-819.5" font-family="Helvetica,sans-Serif" font-size="10.00">/XBotInterface/include/spdlog</text>
<text text-anchor="middle" x="106.862" y="-808.5" font-family="Helvetica,sans-Serif" font-size="10.00">/logger.h</text>
</a>
</g>
</g>
<!-- Node22&#45;&gt;Node23 -->
<g id="edge27" class="edge"><title>Node22&#45;&gt;Node23</title>
<path fill="none" stroke="midnightblue" d="M512.87,-906.821C429.924,-897.252 299.076,-879.724 187.862,-854 185.133,-853.369 182.362,-852.691 179.572,-851.976"/>
<polygon fill="midnightblue" stroke="midnightblue" points="512.661,-910.32 522.994,-907.977 513.455,-903.365 512.661,-910.32"/>
</g>
<!-- Node25 -->
<g id="node25" class="node"><title>Node25</title>
<g id="a_node25"><a xlink:href="ansicolor__sink_8h.html" target="_top" xlink:title="/home/lucamuratore\l/advr&#45;superbuild/external\l/XBotInterface/include/spdlog\l/sinks/ansicolor_sink.h">
<polygon fill="none" stroke="black" points="1051.36,-712.5 1051.36,-764.5 1196.36,-764.5 1196.36,-712.5 1051.36,-712.5"/>
<text text-anchor="start" x="1059.36" y="-752.5" font-family="Helvetica,sans-Serif" font-size="10.00">/home/lucamuratore</text>
<text text-anchor="start" x="1059.36" y="-741.5" font-family="Helvetica,sans-Serif" font-size="10.00">/advr&#45;superbuild/external</text>
<text text-anchor="start" x="1059.36" y="-730.5" font-family="Helvetica,sans-Serif" font-size="10.00">/XBotInterface/include/spdlog</text>
<text text-anchor="middle" x="1123.86" y="-719.5" font-family="Helvetica,sans-Serif" font-size="10.00">/sinks/ansicolor_sink.h</text>
</a>
</g>
</g>
<!-- Node22&#45;&gt;Node25 -->
<g id="edge33" class="edge"><title>Node22&#45;&gt;Node25</title>
<path fill="none" stroke="midnightblue" d="M678.659,-911.447C789.147,-904.778 977.755,-888.616 1036.86,-854 1072.41,-833.182 1098.27,-791.634 1112.17,-764.727"/>
<polygon fill="midnightblue" stroke="midnightblue" points="678.322,-907.96 668.546,-912.044 678.734,-914.948 678.322,-907.96"/>
</g>
<!-- Node26 -->
<g id="node26" class="node"><title>Node26</title>
<g id="a_node26"><a xlink:href="dist__sink_8h.html" target="_top" xlink:title="/home/lucamuratore\l/advr&#45;superbuild/external\l/XBotInterface/include/spdlog\l/sinks/dist_sink.h">
<polygon fill="none" stroke="black" points="197.362,-801.5 197.362,-853.5 342.362,-853.5 342.362,-801.5 197.362,-801.5"/>
<text text-anchor="start" x="205.362" y="-841.5" font-family="Helvetica,sans-Serif" font-size="10.00">/home/lucamuratore</text>
<text text-anchor="start" x="205.362" y="-830.5" font-family="Helvetica,sans-Serif" font-size="10.00">/advr&#45;superbuild/external</text>
<text text-anchor="start" x="205.362" y="-819.5" font-family="Helvetica,sans-Serif" font-size="10.00">/XBotInterface/include/spdlog</text>
<text text-anchor="middle" x="269.862" y="-808.5" font-family="Helvetica,sans-Serif" font-size="10.00">/sinks/dist_sink.h</text>
</a>
</g>
</g>
<!-- Node22&#45;&gt;Node26 -->
<g id="edge35" class="edge"><title>Node22&#45;&gt;Node26</title>
<path fill="none" stroke="midnightblue" d="M513.242,-896.048C465.589,-884.507 404.641,-869.201 350.862,-854 348.166,-853.238 345.425,-852.449 342.659,-851.64"/>
<polygon fill="midnightblue" stroke="midnightblue" points="512.66,-899.508 523.202,-898.452 514.302,-892.703 512.66,-899.508"/>
</g>
<!-- Node27 -->
<g id="node27" class="node"><title>Node27</title>
<g id="a_node27"><a xlink:href="file__sinks_8h.html" target="_top" xlink:title="/home/lucamuratore\l/advr&#45;superbuild/external\l/XBotInterface/include/spdlog\l/sinks/file_sinks.h">
<polygon fill="none" stroke="black" points="950.362,-623.5 950.362,-675.5 1095.36,-675.5 1095.36,-623.5 950.362,-623.5"/>
<text text-anchor="start" x="958.362" y="-663.5" font-family="Helvetica,sans-Serif" font-size="10.00">/home/lucamuratore</text>
<text text-anchor="start" x="958.362" y="-652.5" font-family="Helvetica,sans-Serif" font-size="10.00">/advr&#45;superbuild/external</text>
<text text-anchor="start" x="958.362" y="-641.5" font-family="Helvetica,sans-Serif" font-size="10.00">/XBotInterface/include/spdlog</text>
<text text-anchor="middle" x="1022.86" y="-630.5" font-family="Helvetica,sans-Serif" font-size="10.00">/sinks/file_sinks.h</text>
</a>
</g>
</g>
<!-- Node22&#45;&gt;Node27 -->
<g id="edge36" class="edge"><title>Node22&#45;&gt;Node27</title>
<path fill="none" stroke="midnightblue" d="M678.761,-914.564C784.742,-911.484 959.727,-899.438 1002.86,-854 1048.81,-805.597 1038.06,-718.537 1029.1,-675.701"/>
<polygon fill="midnightblue" stroke="midnightblue" points="678.629,-911.066 668.727,-914.835 678.818,-918.063 678.629,-911.066"/>
</g>
<!-- Node28 -->
<g id="node28" class="node"><title>Node28</title>
<g id="a_node28"><a xlink:href="null__sink_8h.html" target="_top" xlink:title="/home/lucamuratore\l/advr&#45;superbuild/external\l/XBotInterface/include/spdlog\l/sinks/null_sink.h">
<polygon fill="none" stroke="black" points="360.362,-801.5 360.362,-853.5 505.362,-853.5 505.362,-801.5 360.362,-801.5"/>
<text text-anchor="start" x="368.362" y="-841.5" font-family="Helvetica,sans-Serif" font-size="10.00">/home/lucamuratore</text>
<text text-anchor="start" x="368.362" y="-830.5" font-family="Helvetica,sans-Serif" font-size="10.00">/advr&#45;superbuild/external</text>
<text text-anchor="start" x="368.362" y="-819.5" font-family="Helvetica,sans-Serif" font-size="10.00">/XBotInterface/include/spdlog</text>
<text text-anchor="middle" x="432.862" y="-808.5" font-family="Helvetica,sans-Serif" font-size="10.00">/sinks/null_sink.h</text>
</a>
</g>
</g>
<!-- Node22&#45;&gt;Node28 -->
<g id="edge38" class="edge"><title>Node22&#45;&gt;Node28</title>
<path fill="none" stroke="midnightblue" d="M539.644,-885.494C520.171,-875.101 498.56,-863.566 479.902,-853.607"/>
<polygon fill="midnightblue" stroke="midnightblue" points="538.245,-888.715 548.715,-890.336 541.541,-882.54 538.245,-888.715"/>
</g>
<!-- Node29 -->
<g id="node29" class="node"><title>Node29</title>
<g id="a_node29"><a xlink:href="ostream__sink_8h.html" target="_top" xlink:title="/home/lucamuratore\l/advr&#45;superbuild/external\l/XBotInterface/include/spdlog\l/sinks/ostream_sink.h">
<polygon fill="none" stroke="black" points="523.362,-801.5 523.362,-853.5 668.362,-853.5 668.362,-801.5 523.362,-801.5"/>
<text text-anchor="start" x="531.362" y="-841.5" font-family="Helvetica,sans-Serif" font-size="10.00">/home/lucamuratore</text>
<text text-anchor="start" x="531.362" y="-830.5" font-family="Helvetica,sans-Serif" font-size="10.00">/advr&#45;superbuild/external</text>
<text text-anchor="start" x="531.362" y="-819.5" font-family="Helvetica,sans-Serif" font-size="10.00">/XBotInterface/include/spdlog</text>
<text text-anchor="middle" x="595.862" y="-808.5" font-family="Helvetica,sans-Serif" font-size="10.00">/sinks/ostream_sink.h</text>
</a>
</g>
</g>
<!-- Node22&#45;&gt;Node29 -->
<g id="edge39" class="edge"><title>Node22&#45;&gt;Node29</title>
<path fill="none" stroke="midnightblue" d="M595.862,-880.191C595.862,-871.282 595.862,-861.899 595.862,-853.607"/>
<polygon fill="midnightblue" stroke="midnightblue" points="592.362,-880.336 595.862,-890.336 599.362,-880.336 592.362,-880.336"/>
</g>
<!-- Node30 -->
<g id="node30" class="node"><title>Node30</title>
<g id="a_node30"><a xlink:href="stdout__sinks_8h.html" target="_top" xlink:title="/home/lucamuratore\l/advr&#45;superbuild/external\l/XBotInterface/include/spdlog\l/sinks/stdout_sinks.h">
<polygon fill="none" stroke="black" points="849.362,-801.5 849.362,-853.5 994.362,-853.5 994.362,-801.5 849.362,-801.5"/>
<text text-anchor="start" x="857.362" y="-841.5" font-family="Helvetica,sans-Serif" font-size="10.00">/home/lucamuratore</text>
<text text-anchor="start" x="857.362" y="-830.5" font-family="Helvetica,sans-Serif" font-size="10.00">/advr&#45;superbuild/external</text>
<text text-anchor="start" x="857.362" y="-819.5" font-family="Helvetica,sans-Serif" font-size="10.00">/XBotInterface/include/spdlog</text>
<text text-anchor="middle" x="921.862" y="-808.5" font-family="Helvetica,sans-Serif" font-size="10.00">/sinks/stdout_sinks.h</text>
</a>
</g>
</g>
<!-- Node22&#45;&gt;Node30 -->
<g id="edge40" class="edge"><title>Node22&#45;&gt;Node30</title>
<path fill="none" stroke="midnightblue" d="M678.381,-895.889C725.793,-884.325 786.368,-869.047 839.862,-854 842.876,-853.152 845.947,-852.272 849.046,-851.37"/>
<polygon fill="midnightblue" stroke="midnightblue" points="677.36,-892.535 668.47,-898.299 679.014,-899.337 677.36,-892.535"/>
</g>
<!-- Node31 -->
<g id="node31" class="node"><title>Node31</title>
<g id="a_node31"><a xlink:href="wincolor__sink_8h.html" target="_top" xlink:title="/home/lucamuratore\l/advr&#45;superbuild/external\l/XBotInterface/include/spdlog\l/sinks/wincolor_sink.h">
<polygon fill="none" stroke="black" points="686.362,-801.5 686.362,-853.5 831.362,-853.5 831.362,-801.5 686.362,-801.5"/>
<text text-anchor="start" x="694.362" y="-841.5" font-family="Helvetica,sans-Serif" font-size="10.00">/home/lucamuratore</text>
<text text-anchor="start" x="694.362" y="-830.5" font-family="Helvetica,sans-Serif" font-size="10.00">/advr&#45;superbuild/external</text>
<text text-anchor="start" x="694.362" y="-819.5" font-family="Helvetica,sans-Serif" font-size="10.00">/XBotInterface/include/spdlog</text>
<text text-anchor="middle" x="758.862" y="-808.5" font-family="Helvetica,sans-Serif" font-size="10.00">/sinks/wincolor_sink.h</text>
</a>
</g>
</g>
<!-- Node22&#45;&gt;Node31 -->
<g id="edge43" class="edge"><title>Node22&#45;&gt;Node31</title>
<path fill="none" stroke="midnightblue" d="M652.079,-885.494C671.553,-875.101 693.164,-863.566 711.821,-853.607"/>
<polygon fill="midnightblue" stroke="midnightblue" points="650.182,-882.54 643.008,-890.336 653.478,-888.715 650.182,-882.54"/>
</g>
<!-- Node23&#45;&gt;Node5 -->
<g id="edge28" class="edge"><title>Node23&#45;&gt;Node5</title>
<path fill="none" stroke="midnightblue" d="M106.862,-791.191C106.862,-782.282 106.862,-772.899 106.862,-764.607"/>
<polygon fill="midnightblue" stroke="midnightblue" points="103.362,-791.336 106.862,-801.336 110.362,-791.336 103.362,-791.336"/>
</g>
<!-- Node23&#45;&gt;Node6 -->
<g id="edge31" class="edge"><title>Node23&#45;&gt;Node6</title>
<path fill="none" stroke="midnightblue" d="M174.285,-796.669C190.75,-787.754 207.689,-777.085 221.862,-765 230.173,-757.913 267.776,-707.009 290.74,-675.506"/>
<polygon fill="midnightblue" stroke="midnightblue" points="172.432,-793.689 165.208,-801.439 175.688,-799.885 172.432,-793.689"/>
</g>
<!-- Node23&#45;&gt;Node8 -->
<g id="edge32" class="edge"><title>Node23&#45;&gt;Node8</title>
<path fill="none" stroke="midnightblue" d="M158.989,-794.961C169.802,-786.39 180.215,-776.305 187.862,-765 224.531,-710.789 179.333,-667.994 226.862,-623 316.461,-538.18 689.813,-494.065 849.213,-478.799"/>
<polygon fill="midnightblue" stroke="midnightblue" points="156.566,-792.404 150.682,-801.215 160.776,-797.996 156.566,-792.404"/>
</g>
<!-- Node24 -->
<g id="node24" class="node"><title>Node24</title>
<g id="a_node24"><a xlink:href="logger__impl_8h.html" target="_top" xlink:title="/home/lucamuratore\l/advr&#45;superbuild/external\l/XBotInterface/include/spdlog\l/details/logger_impl.h">
<polygon fill="none" stroke="black" points="274.362,-712.5 274.362,-764.5 419.362,-764.5 419.362,-712.5 274.362,-712.5"/>
<text text-anchor="start" x="282.362" y="-752.5" font-family="Helvetica,sans-Serif" font-size="10.00">/home/lucamuratore</text>
<text text-anchor="start" x="282.362" y="-741.5" font-family="Helvetica,sans-Serif" font-size="10.00">/advr&#45;superbuild/external</text>
<text text-anchor="start" x="282.362" y="-730.5" font-family="Helvetica,sans-Serif" font-size="10.00">/XBotInterface/include/spdlog</text>
<text text-anchor="middle" x="346.862" y="-719.5" font-family="Helvetica,sans-Serif" font-size="10.00">/details/logger_impl.h</text>
</a>
</g>
</g>
<!-- Node23&#45;&gt;Node24 -->
<g id="edge29" class="edge"><title>Node23&#45;&gt;Node24</title>
<path fill="none" stroke="midnightblue" d="M179.355,-797.907C209.393,-786.813 244.145,-774.248 274.202,-763.622"/>
<polygon fill="midnightblue" stroke="midnightblue" points="177.942,-794.698 169.779,-801.453 180.373,-801.262 177.942,-794.698"/>
</g>
<!-- Node24&#45;&gt;Node23 -->
<g id="edge30" class="edge"><title>Node24&#45;&gt;Node23</title>
<path fill="none" stroke="midnightblue" d="M274.296,-768.12C244.271,-779.208 209.547,-791.763 179.512,-802.381"/>
<polygon fill="midnightblue" stroke="midnightblue" points="275.705,-771.331 283.867,-764.576 273.274,-764.766 275.705,-771.331"/>
</g>
<!-- Node25&#45;&gt;Node7 -->
<g id="edge34" class="edge"><title>Node25&#45;&gt;Node7</title>
<path fill="none" stroke="midnightblue" d="M1126.59,-701.95C1126.56,-677.081 1122.37,-644.578 1103.86,-623 1076.72,-591.354 1032.69,-575.95 994.739,-568.471"/>
<polygon fill="midnightblue" stroke="midnightblue" points="1123.09,-702.016 1126.38,-712.087 1130.09,-702.163 1123.09,-702.016"/>
</g>
<!-- Node27&#45;&gt;Node7 -->
<g id="edge37" class="edge"><title>Node27&#45;&gt;Node7</title>
<path fill="none" stroke="midnightblue" d="M985.885,-616.649C974.392,-606.749 961.89,-595.98 951.009,-586.607"/>
<polygon fill="midnightblue" stroke="midnightblue" points="983.787,-619.461 993.648,-623.336 988.356,-614.158 983.787,-619.461"/>
</g>
<!-- Node30&#45;&gt;Node7 -->
<g id="edge42" class="edge"><title>Node30&#45;&gt;Node7</title>
<path fill="none" stroke="midnightblue" d="M921.862,-790.893C921.862,-736.555 921.862,-634.26 921.862,-586.832"/>
<polygon fill="midnightblue" stroke="midnightblue" points="918.362,-791.091 921.862,-801.091 925.362,-791.091 918.362,-791.091"/>
</g>
<!-- Node30&#45;&gt;Node24 -->
<g id="edge41" class="edge"><title>Node30&#45;&gt;Node24</title>
<path fill="none" stroke="midnightblue" d="M839.028,-800.988C684.788,-768.393 514.04,-751.925 419.384,-744.5"/>
<polygon fill="midnightblue" stroke="midnightblue" points="838.652,-804.486 849.163,-803.158 840.117,-797.642 838.652,-804.486"/>
</g>
</g>
</svg>
