<?xml version="1.0" encoding="UTF-8" standalone="no"?>
<!DOCTYPE svg PUBLIC "-//W3C//DTD SVG 1.1//EN"
 "http://www.w3.org/Graphics/SVG/1.1/DTD/svg11.dtd">
<!-- Generated by graphviz version 2.38.0 (20140413.2041)
 -->
<!-- Title: /home/lucamuratore/advr&#45;superbuild/external/XBotInterface/include/spdlog/fmt/bundled/printf.h Pages: 1 -->
<svg width="200pt" height="173pt"
 viewBox="0.00 0.00 200.00 173.00" xmlns="http://www.w3.org/2000/svg" xmlns:xlink="http://www.w3.org/1999/xlink">
<g id="graph0" class="graph" transform="scale(1 1) rotate(0) translate(4 169)">
<title>/home/lucamuratore/advr&#45;superbuild/external/XBotInterface/include/spdlog/fmt/bundled/printf.h</title>
<!-- Node1 -->
<g id="node1" class="node"><title>Node1</title>
<polygon fill="#bfbfbf" stroke="black" points="21.5,-112.5 21.5,-164.5 166.5,-164.5 166.5,-112.5 21.5,-112.5"/>
<text text-anchor="start" x="29.5" y="-152.5" font-family="Helvetica,sans-Serif" font-size="10.00">/home/lucamuratore</text>
<text text-anchor="start" x="29.5" y="-141.5" font-family="Helvetica,sans-Serif" font-size="10.00">/advr&#45;superbuild/external</text>
<text text-anchor="start" x="29.5" y="-130.5" font-family="Helvetica,sans-Serif" font-size="10.00">/XBotInterface/include/spdlog</text>
<text text-anchor="middle" x="94" y="-119.5" font-family="Helvetica,sans-Serif" font-size="10.00">/fmt/bundled/printf.h</text>
</g>
<!-- Node2 -->
<g id="node2" class="node"><title>Node2</title>
<polygon fill="none" stroke="#bfbfbf" points="-3.55271e-15,-56.5 -3.55271e-15,-75.5 56,-75.5 56,-56.5 -3.55271e-15,-56.5"/>
<text text-anchor="middle" x="28" y="-63.5" font-family="Helvetica,sans-Serif" font-size="10.00">algorithm</text>
</g>
<!-- Node1&#45;&gt;Node2 -->
<g id="edge1" class="edge"><title>Node1&#45;&gt;Node2</title>
<path fill="none" stroke="midnightblue" d="M70.545,-112.446C61.4478,-102.728 51.2916,-91.8797 43.1843,-83.2196"/>
<polygon fill="midnightblue" stroke="midnightblue" points="45.5298,-80.6037 36.1405,-75.6955 40.4196,-85.3877 45.5298,-80.6037"/>
</g>
<!-- Node3 -->
<g id="node3" class="node"><title>Node3</title>
<polygon fill="none" stroke="#bfbfbf" points="74,-56.5 74,-75.5 114,-75.5 114,-56.5 74,-56.5"/>
<text text-anchor="middle" x="94" y="-63.5" font-family="Helvetica,sans-Serif" font-size="10.00">limits</text>
</g>
<!-- Node1&#45;&gt;Node3 -->
<g id="edge2" class="edge"><title>Node1&#45;&gt;Node3</title>
<path fill="none" stroke="midnightblue" d="M94,-112.446C94,-103.73 94,-94.1045 94,-85.9641"/>
<polygon fill="midnightblue" stroke="midnightblue" points="97.5001,-85.6954 94,-75.6955 90.5001,-85.6955 97.5001,-85.6954"/>
</g>
<!-- Node4 -->
<g id="node4" class="node"><title>Node4</title>
<g id="a_node4"><a xlink:href="ostream_8h.html" target="_top" xlink:title="ostream.h">
<polygon fill="none" stroke="black" points="132,-56.5 132,-75.5 192,-75.5 192,-56.5 132,-56.5"/>
<text text-anchor="middle" x="162" y="-63.5" font-family="Helvetica,sans-Serif" font-size="10.00">ostream.h</text>
</a>
</g>
</g>
<!-- Node1&#45;&gt;Node4 -->
<g id="edge3" class="edge"><title>Node1&#45;&gt;Node4</title>
<path fill="none" stroke="midnightblue" d="M118.166,-112.446C127.635,-102.628 138.218,-91.6559 146.613,-82.9524"/>
<polygon fill="midnightblue" stroke="midnightblue" points="149.19,-85.3229 153.613,-75.6955 144.151,-80.4632 149.19,-85.3229"/>
</g>
<!-- Node5 -->
<g id="node5" class="node"><title>Node5</title>
<polygon fill="none" stroke="#bfbfbf" points="136,-0.5 136,-19.5 188,-19.5 188,-0.5 136,-0.5"/>
<text text-anchor="middle" x="162" y="-7.5" font-family="Helvetica,sans-Serif" font-size="10.00">ostream</text>
</g>
<!-- Node4&#45;&gt;Node5 -->
<g id="edge4" class="edge"><title>Node4&#45;&gt;Node5</title>
<path fill="none" stroke="midnightblue" d="M162,-56.083C162,-49.0059 162,-38.8611 162,-29.9865"/>
<polygon fill="midnightblue" stroke="midnightblue" points="165.5,-29.751 162,-19.7511 158.5,-29.7511 165.5,-29.751"/>
</g>
</g>
</svg>
