<?xml version="1.0" encoding="UTF-8" standalone="no"?>
<!DOCTYPE svg PUBLIC "-//W3C//DTD SVG 1.1//EN"
 "http://www.w3.org/Graphics/SVG/1.1/DTD/svg11.dtd">
<!-- Generated by graphviz version 2.38.0 (20140413.2041)
 -->
<!-- Title: /home/lucamuratore/advr&#45;superbuild/external/XBotInterface/include/spdlog/sinks/stdout_sinks.h Pages: 1 -->
<svg width="1525pt" height="609pt"
 viewBox="0.00 0.00 1525.00 609.00" xmlns="http://www.w3.org/2000/svg" xmlns:xlink="http://www.w3.org/1999/xlink">
<g id="graph0" class="graph" transform="scale(1 1) rotate(0) translate(4 605)">
<title>/home/lucamuratore/advr&#45;superbuild/external/XBotInterface/include/spdlog/sinks/stdout_sinks.h</title>
<!-- Node1 -->
<g id="node1" class="node"><title>Node1</title>
<polygon fill="#bfbfbf" stroke="black" points="285.5,-548.5 285.5,-600.5 430.5,-600.5 430.5,-548.5 285.5,-548.5"/>
<text text-anchor="start" x="293.5" y="-588.5" font-family="Helvetica,sans-Serif" font-size="10.00">/home/lucamuratore</text>
<text text-anchor="start" x="293.5" y="-577.5" font-family="Helvetica,sans-Serif" font-size="10.00">/advr&#45;superbuild/external</text>
<text text-anchor="start" x="293.5" y="-566.5" font-family="Helvetica,sans-Serif" font-size="10.00">/XBotInterface/include/spdlog</text>
<text text-anchor="middle" x="358" y="-555.5" font-family="Helvetica,sans-Serif" font-size="10.00">/sinks/stdout_sinks.h</text>
</g>
<!-- Node2 -->
<g id="node2" class="node"><title>Node2</title>
<g id="a_node2"><a xlink:href="null__mutex_8h.html" target="_top" xlink:title="spdlog/details/null\l_mutex.h">
<polygon fill="none" stroke="black" points="66.5,-123.5 66.5,-153.5 161.5,-153.5 161.5,-123.5 66.5,-123.5"/>
<text text-anchor="start" x="74.5" y="-141.5" font-family="Helvetica,sans-Serif" font-size="10.00">spdlog/details/null</text>
<text text-anchor="middle" x="114" y="-130.5" font-family="Helvetica,sans-Serif" font-size="10.00">_mutex.h</text>
</a>
</g>
</g>
<!-- Node1&#45;&gt;Node2 -->
<g id="edge1" class="edge"><title>Node1&#45;&gt;Node2</title>
<path fill="none" stroke="midnightblue" d="M285.409,-562.2C221.993,-547.713 140,-515.7 140,-447 140,-447 140,-447 140,-255 140,-222.738 130.226,-186.618 122.663,-163.499"/>
<polygon fill="midnightblue" stroke="midnightblue" points="125.917,-162.196 119.387,-153.852 119.289,-164.447 125.917,-162.196"/>
</g>
<!-- Node4 -->
<g id="node4" class="node"><title>Node4</title>
<g id="a_node4"><a xlink:href="base__sink_8h.html" target="_top" xlink:title="spdlog/sinks/base_sink.h">
<polygon fill="none" stroke="black" points="294.5,-492.5 294.5,-511.5 421.5,-511.5 421.5,-492.5 294.5,-492.5"/>
<text text-anchor="middle" x="358" y="-499.5" font-family="Helvetica,sans-Serif" font-size="10.00">spdlog/sinks/base_sink.h</text>
</a>
</g>
</g>
<!-- Node1&#45;&gt;Node4 -->
<g id="edge3" class="edge"><title>Node1&#45;&gt;Node4</title>
<path fill="none" stroke="midnightblue" d="M358,-548.446C358,-539.73 358,-530.104 358,-521.964"/>
<polygon fill="midnightblue" stroke="midnightblue" points="361.5,-521.695 358,-511.695 354.5,-521.696 361.5,-521.695"/>
</g>
<!-- Node11 -->
<g id="node11" class="node"><title>Node11</title>
<polygon fill="none" stroke="#bfbfbf" points="1415,-0.5 1415,-19.5 1467,-19.5 1467,-0.5 1415,-0.5"/>
<text text-anchor="middle" x="1441" y="-7.5" font-family="Helvetica,sans-Serif" font-size="10.00">memory</text>
</g>
<!-- Node1&#45;&gt;Node11 -->
<g id="edge67" class="edge"><title>Node1&#45;&gt;Node11</title>
<path fill="none" stroke="midnightblue" d="M430.501,-573.232C684.234,-571.35 1517,-556.808 1517,-447 1517,-447 1517,-447 1517,-137.5 1517,-92.1215 1480.62,-48.982 1458.2,-26.705"/>
<polygon fill="midnightblue" stroke="midnightblue" points="1460.57,-24.1293 1450.94,-19.7259 1455.72,-29.1776 1460.57,-24.1293"/>
</g>
<!-- Node19 -->
<g id="node19" class="node"><title>Node19</title>
<polygon fill="none" stroke="#bfbfbf" points="1193.5,-0.5 1193.5,-19.5 1236.5,-19.5 1236.5,-0.5 1193.5,-0.5"/>
<text text-anchor="middle" x="1215" y="-7.5" font-family="Helvetica,sans-Serif" font-size="10.00">cstdio</text>
</g>
<!-- Node1&#45;&gt;Node19 -->
<g id="edge66" class="edge"><title>Node1&#45;&gt;Node19</title>
<path fill="none" stroke="midnightblue" d="M430.653,-572.347C667.635,-567.636 1403,-545.113 1403,-447 1403,-447 1403,-447 1403,-137.5 1403,-99.7246 1297.2,-47.4351 1244.34,-23.6671"/>
<polygon fill="midnightblue" stroke="midnightblue" points="1245.68,-20.4337 1235.12,-19.5709 1242.84,-26.8305 1245.68,-20.4337"/>
</g>
<!-- Node37 -->
<g id="node37" class="node"><title>Node37</title>
<polygon fill="none" stroke="#bfbfbf" points="253,-308 253,-327 297,-327 297,-308 253,-308"/>
<text text-anchor="middle" x="275" y="-315" font-family="Helvetica,sans-Serif" font-size="10.00">mutex</text>
</g>
<!-- Node1&#45;&gt;Node37 -->
<g id="edge68" class="edge"><title>Node1&#45;&gt;Node37</title>
<path fill="none" stroke="midnightblue" d="M316.777,-548.457C304.366,-538.711 292.153,-526.395 285,-512 256.095,-453.829 265.107,-373.319 271.28,-337.268"/>
<polygon fill="midnightblue" stroke="midnightblue" points="274.763,-337.679 273.133,-327.21 267.879,-336.411 274.763,-337.679"/>
</g>
<!-- Node3 -->
<g id="node3" class="node"><title>Node3</title>
<polygon fill="none" stroke="#bfbfbf" points="174,-62 174,-81 220,-81 220,-62 174,-62"/>
<text text-anchor="middle" x="197" y="-69" font-family="Helvetica,sans-Serif" font-size="10.00">atomic</text>
</g>
<!-- Node2&#45;&gt;Node3 -->
<g id="edge2" class="edge"><title>Node2&#45;&gt;Node3</title>
<path fill="none" stroke="midnightblue" d="M132.01,-123.396C145.592,-112.759 164.179,-98.2028 177.998,-87.3813"/>
<polygon fill="midnightblue" stroke="midnightblue" points="180.183,-90.1158 185.898,-81.1945 175.867,-84.6046 180.183,-90.1158"/>
</g>
<!-- Node5 -->
<g id="node5" class="node"><title>Node5</title>
<g id="a_node5"><a xlink:href="sink_8h.html" target="_top" xlink:title="spdlog/sinks/sink.h">
<polygon fill="none" stroke="black" points="307.5,-375 307.5,-394 408.5,-394 408.5,-375 307.5,-375"/>
<text text-anchor="middle" x="358" y="-382" font-family="Helvetica,sans-Serif" font-size="10.00">spdlog/sinks/sink.h</text>
</a>
</g>
</g>
<!-- Node4&#45;&gt;Node5 -->
<g id="edge4" class="edge"><title>Node4&#45;&gt;Node5</title>
<path fill="none" stroke="midnightblue" d="M358,-492.319C358,-473.757 358,-429.839 358,-404.473"/>
<polygon fill="midnightblue" stroke="midnightblue" points="361.5,-404.282 358,-394.282 354.5,-404.282 361.5,-404.282"/>
</g>
<!-- Node6 -->
<g id="node6" class="node"><title>Node6</title>
<g id="a_node6"><a xlink:href="log__msg_8h.html" target="_top" xlink:title="spdlog/details/log\l_msg.h">
<polygon fill="none" stroke="black" points="315,-302.5 315,-332.5 407,-332.5 407,-302.5 315,-302.5"/>
<text text-anchor="start" x="323" y="-320.5" font-family="Helvetica,sans-Serif" font-size="10.00">spdlog/details/log</text>
<text text-anchor="middle" x="361" y="-309.5" font-family="Helvetica,sans-Serif" font-size="10.00">_msg.h</text>
</a>
</g>
</g>
<!-- Node4&#45;&gt;Node6 -->
<g id="edge64" class="edge"><title>Node4&#45;&gt;Node6</title>
<path fill="none" stroke="midnightblue" d="M365.309,-492.275C378.719,-475.63 406.813,-437.636 417,-400 420.6,-386.701 422.599,-381.589 417,-369 411.763,-357.225 402.273,-347.039 392.576,-338.961"/>
<polygon fill="midnightblue" stroke="midnightblue" points="394.519,-336.039 384.47,-332.682 390.233,-341.573 394.519,-336.039"/>
</g>
<!-- Node7 -->
<g id="node7" class="node"><title>Node7</title>
<g id="a_node7"><a xlink:href="common_8h.html" target="_top" xlink:title="spdlog/common.h">
<polygon fill="none" stroke="black" points="313,-190.5 313,-209.5 407,-209.5 407,-190.5 313,-190.5"/>
<text text-anchor="middle" x="360" y="-197.5" font-family="Helvetica,sans-Serif" font-size="10.00">spdlog/common.h</text>
</a>
</g>
</g>
<!-- Node4&#45;&gt;Node7 -->
<g id="edge63" class="edge"><title>Node4&#45;&gt;Node7</title>
<path fill="none" stroke="midnightblue" d="M325.128,-492.477C279.63,-478.468 203,-445.907 203,-385.5 203,-385.5 203,-385.5 203,-316.5 203,-259.794 270.277,-227.835 316.75,-212.523"/>
<polygon fill="midnightblue" stroke="midnightblue" points="317.835,-215.851 326.32,-209.506 315.73,-209.175 317.835,-215.851"/>
</g>
<!-- Node35 -->
<g id="node35" class="node"><title>Node35</title>
<g id="a_node35"><a xlink:href="formatter_8h.html" target="_top" xlink:title="spdlog/formatter.h">
<polygon fill="none" stroke="black" points="899.5,-436.5 899.5,-455.5 994.5,-455.5 994.5,-436.5 899.5,-436.5"/>
<text text-anchor="middle" x="947" y="-443.5" font-family="Helvetica,sans-Serif" font-size="10.00">spdlog/formatter.h</text>
</a>
</g>
</g>
<!-- Node4&#45;&gt;Node35 -->
<g id="edge45" class="edge"><title>Node4&#45;&gt;Node35</title>
<path fill="none" stroke="midnightblue" d="M421.593,-495.17C536.833,-484.604 778.487,-462.449 889.275,-452.292"/>
<polygon fill="midnightblue" stroke="midnightblue" points="889.622,-455.775 899.26,-451.377 888.982,-448.805 889.622,-455.775"/>
</g>
<!-- Node4&#45;&gt;Node37 -->
<g id="edge65" class="edge"><title>Node4&#45;&gt;Node37</title>
<path fill="none" stroke="midnightblue" d="M351.894,-492.495C340.018,-475.613 313.61,-436.358 298,-400 289.14,-379.364 282.665,-354.338 278.882,-337.508"/>
<polygon fill="midnightblue" stroke="midnightblue" points="282.217,-336.364 276.698,-327.32 275.372,-337.832 282.217,-336.364"/>
</g>
<!-- Node5&#45;&gt;Node6 -->
<g id="edge5" class="edge"><title>Node5&#45;&gt;Node6</title>
<path fill="none" stroke="midnightblue" d="M358.405,-374.734C358.783,-366.541 359.365,-353.923 359.882,-342.714"/>
<polygon fill="midnightblue" stroke="midnightblue" points="363.385,-342.74 360.35,-332.589 356.392,-342.417 363.385,-342.74"/>
</g>
<!-- Node6&#45;&gt;Node7 -->
<g id="edge6" class="edge"><title>Node6&#45;&gt;Node7</title>
<path fill="none" stroke="midnightblue" d="M360.877,-302.337C360.698,-281.622 360.364,-243.016 360.164,-219.899"/>
<polygon fill="midnightblue" stroke="midnightblue" points="363.662,-219.639 360.075,-209.669 356.662,-219.699 363.662,-219.639"/>
</g>
<!-- Node8 -->
<g id="node8" class="node"><title>Node8</title>
<polygon fill="none" stroke="#bfbfbf" points="510.5,-0.5 510.5,-19.5 551.5,-19.5 551.5,-0.5 510.5,-0.5"/>
<text text-anchor="middle" x="531" y="-7.5" font-family="Helvetica,sans-Serif" font-size="10.00">string</text>
</g>
<!-- Node6&#45;&gt;Node8 -->
<g id="edge43" class="edge"><title>Node6&#45;&gt;Node8</title>
<path fill="none" stroke="midnightblue" d="M377.792,-302.334C399.625,-282.23 435,-243.152 435,-201 435,-201 435,-201 435,-137.5 435,-99.7399 436.169,-86.0764 459,-56 469.82,-41.7456 486.571,-30.8905 501.194,-23.4164"/>
<polygon fill="midnightblue" stroke="midnightblue" points="502.911,-26.4743 510.412,-18.9914 499.882,-20.1637 502.911,-26.4743"/>
</g>
<!-- Node24 -->
<g id="node24" class="node"><title>Node24</title>
<polygon fill="none" stroke="#bfbfbf" points="18,-0.5 18,-19.5 58,-19.5 58,-0.5 18,-0.5"/>
<text text-anchor="middle" x="38" y="-7.5" font-family="Helvetica,sans-Serif" font-size="10.00">utility</text>
</g>
<!-- Node6&#45;&gt;Node24 -->
<g id="edge44" class="edge"><title>Node6&#45;&gt;Node24</title>
<path fill="none" stroke="midnightblue" d="M314.912,-304.207C217.591,-277.929 0,-217.348 0,-201 0,-201 0,-201 0,-137.5 0,-97.3496 17.7757,-52.9463 29.0118,-28.8892"/>
<polygon fill="midnightblue" stroke="midnightblue" points="32.289,-30.1518 33.4917,-19.6255 25.9871,-27.1043 32.289,-30.1518"/>
</g>
<!-- Node26 -->
<g id="node26" class="node"><title>Node26</title>
<g id="a_node26"><a xlink:href="os_8h.html" target="_top" xlink:title="spdlog/details/os.h">
<polygon fill="none" stroke="black" points="807,-246.5 807,-265.5 905,-265.5 905,-246.5 807,-246.5"/>
<text text-anchor="middle" x="856" y="-253.5" font-family="Helvetica,sans-Serif" font-size="10.00">spdlog/details/os.h</text>
</a>
</g>
</g>
<!-- Node6&#45;&gt;Node26 -->
<g id="edge29" class="edge"><title>Node6&#45;&gt;Node26</title>
<path fill="none" stroke="midnightblue" d="M407.124,-310.956C497.296,-300.117 696.833,-276.132 796.678,-264.131"/>
<polygon fill="midnightblue" stroke="midnightblue" points="797.383,-267.571 806.894,-262.903 796.548,-260.621 797.383,-267.571"/>
</g>
<!-- Node7&#45;&gt;Node2 -->
<g id="edge14" class="edge"><title>Node7&#45;&gt;Node2</title>
<path fill="none" stroke="midnightblue" d="M322.81,-190.433C286.563,-182.03 229.63,-168.69 171.702,-154.397"/>
<polygon fill="midnightblue" stroke="midnightblue" points="172.19,-150.912 161.642,-151.908 170.508,-157.707 172.19,-150.912"/>
</g>
<!-- Node7&#45;&gt;Node3 -->
<g id="edge11" class="edge"><title>Node7&#45;&gt;Node3</title>
<path fill="none" stroke="midnightblue" d="M348.425,-190.469C336.288,-181.488 316.695,-166.892 300,-154 282.475,-140.467 278.358,-136.747 261,-123 245.855,-111.005 228.665,-97.4446 215.917,-87.3978"/>
<polygon fill="midnightblue" stroke="midnightblue" points="217.901,-84.5057 207.88,-81.0662 213.569,-90.0041 217.901,-84.5057"/>
</g>
<!-- Node7&#45;&gt;Node8 -->
<g id="edge7" class="edge"><title>Node7&#45;&gt;Node8</title>
<path fill="none" stroke="midnightblue" d="M363.242,-190.367C374.329,-161 410.617,-66.2291 421,-56 442.735,-34.5861 476.063,-22.8962 500.339,-16.8415"/>
<polygon fill="midnightblue" stroke="midnightblue" points="501.173,-20.2411 510.129,-14.5797 499.597,-13.4208 501.173,-20.2411"/>
</g>
<!-- Node9 -->
<g id="node9" class="node"><title>Node9</title>
<polygon fill="none" stroke="#bfbfbf" points="179.5,-129 179.5,-148 252.5,-148 252.5,-129 179.5,-129"/>
<text text-anchor="middle" x="216" y="-136" font-family="Helvetica,sans-Serif" font-size="10.00">initializer_list</text>
</g>
<!-- Node7&#45;&gt;Node9 -->
<g id="edge8" class="edge"><title>Node7&#45;&gt;Node9</title>
<path fill="none" stroke="midnightblue" d="M339.368,-190.475C314.881,-180.357 273.853,-163.405 245.891,-151.851"/>
<polygon fill="midnightblue" stroke="midnightblue" points="247.172,-148.593 236.593,-148.009 244.499,-155.063 247.172,-148.593"/>
</g>
<!-- Node10 -->
<g id="node10" class="node"><title>Node10</title>
<polygon fill="none" stroke="#bfbfbf" points="908,-129 908,-148 954,-148 954,-129 908,-129"/>
<text text-anchor="middle" x="931" y="-136" font-family="Helvetica,sans-Serif" font-size="10.00">chrono</text>
</g>
<!-- Node7&#45;&gt;Node10 -->
<g id="edge9" class="edge"><title>Node7&#45;&gt;Node10</title>
<path fill="none" stroke="midnightblue" d="M407.213,-194.08C519.63,-182.366 800.979,-153.049 897.716,-142.968"/>
<polygon fill="midnightblue" stroke="midnightblue" points="898.215,-146.435 907.799,-141.918 897.49,-139.473 898.215,-146.435"/>
</g>
<!-- Node7&#45;&gt;Node11 -->
<g id="edge10" class="edge"><title>Node7&#45;&gt;Node11</title>
<path fill="none" stroke="midnightblue" d="M407.133,-192.347C521.316,-176.061 821.711,-132.212 1071,-87 1193.8,-64.7281 1338.51,-33.567 1404.68,-19.0432"/>
<polygon fill="midnightblue" stroke="midnightblue" points="1405.6,-22.4255 1414.61,-16.859 1404.09,-15.5889 1405.6,-22.4255"/>
</g>
<!-- Node12 -->
<g id="node12" class="node"><title>Node12</title>
<polygon fill="none" stroke="#bfbfbf" points="309.5,-129 309.5,-148 368.5,-148 368.5,-129 309.5,-129"/>
<text text-anchor="middle" x="339" y="-136" font-family="Helvetica,sans-Serif" font-size="10.00">exception</text>
</g>
<!-- Node7&#45;&gt;Node12 -->
<g id="edge12" class="edge"><title>Node7&#45;&gt;Node12</title>
<path fill="none" stroke="midnightblue" d="M356.991,-190.475C353.966,-181.904 349.21,-168.427 345.347,-157.483"/>
<polygon fill="midnightblue" stroke="midnightblue" points="348.632,-156.274 342.003,-148.009 342.031,-158.604 348.632,-156.274"/>
</g>
<!-- Node13 -->
<g id="node13" class="node"><title>Node13</title>
<polygon fill="none" stroke="#bfbfbf" points="501.5,-129 501.5,-148 560.5,-148 560.5,-129 501.5,-129"/>
<text text-anchor="middle" x="531" y="-136" font-family="Helvetica,sans-Serif" font-size="10.00">functional</text>
</g>
<!-- Node7&#45;&gt;Node13 -->
<g id="edge13" class="edge"><title>Node7&#45;&gt;Node13</title>
<path fill="none" stroke="midnightblue" d="M384.5,-190.475C413.96,-180.225 463.579,-162.959 496.802,-151.399"/>
<polygon fill="midnightblue" stroke="midnightblue" points="498.251,-154.601 506.545,-148.009 495.95,-147.99 498.251,-154.601"/>
</g>
<!-- Node14 -->
<g id="node14" class="node"><title>Node14</title>
<g id="a_node14"><a xlink:href="fmt_8h.html" target="_top" xlink:title="spdlog/fmt/fmt.h">
<polygon fill="none" stroke="black" points="972,-129 972,-148 1060,-148 1060,-129 972,-129"/>
<text text-anchor="middle" x="1016" y="-136" font-family="Helvetica,sans-Serif" font-size="10.00">spdlog/fmt/fmt.h</text>
</a>
</g>
</g>
<!-- Node7&#45;&gt;Node14 -->
<g id="edge15" class="edge"><title>Node7&#45;&gt;Node14</title>
<path fill="none" stroke="midnightblue" d="M407.381,-196.647C530.131,-190.36 856.316,-172.398 963,-154 968.156,-153.111 973.535,-151.937 978.805,-150.642"/>
<polygon fill="midnightblue" stroke="midnightblue" points="979.933,-153.965 988.718,-148.043 978.158,-147.193 979.933,-153.965"/>
</g>
<!-- Node15 -->
<g id="node15" class="node"><title>Node15</title>
<g id="a_node15"><a xlink:href="format_8h.html" target="_top" xlink:title="spdlog/fmt/bundled\l/format.h">
<polygon fill="none" stroke="black" points="963.5,-56.5 963.5,-86.5 1062.5,-86.5 1062.5,-56.5 963.5,-56.5"/>
<text text-anchor="start" x="971.5" y="-74.5" font-family="Helvetica,sans-Serif" font-size="10.00">spdlog/fmt/bundled</text>
<text text-anchor="middle" x="1013" y="-63.5" font-family="Helvetica,sans-Serif" font-size="10.00">/format.h</text>
</a>
</g>
</g>
<!-- Node14&#45;&gt;Node15 -->
<g id="edge16" class="edge"><title>Node14&#45;&gt;Node15</title>
<path fill="none" stroke="midnightblue" d="M1015.6,-128.734C1015.22,-120.541 1014.63,-107.923 1014.12,-96.7136"/>
<polygon fill="midnightblue" stroke="midnightblue" points="1017.61,-96.417 1013.65,-86.589 1010.62,-96.7398 1017.61,-96.417"/>
</g>
<!-- Node15&#45;&gt;Node8 -->
<g id="edge25" class="edge"><title>Node15&#45;&gt;Node8</title>
<path fill="none" stroke="midnightblue" d="M963.233,-64.3566C863.79,-52.0809 643.11,-24.8393 561.831,-14.8059"/>
<polygon fill="midnightblue" stroke="midnightblue" points="562.103,-11.313 551.75,-13.5614 561.245,-18.2603 562.103,-11.313"/>
</g>
<!-- Node15&#45;&gt;Node11 -->
<g id="edge23" class="edge"><title>Node15&#45;&gt;Node11</title>
<path fill="none" stroke="midnightblue" d="M1062.52,-63.6165C1149.63,-51.5064 1328.3,-26.667 1404.87,-16.023"/>
<polygon fill="midnightblue" stroke="midnightblue" points="1405.55,-19.4617 1414.97,-14.618 1404.59,-12.5284 1405.55,-19.4617"/>
</g>
<!-- Node16 -->
<g id="node16" class="node"><title>Node16</title>
<polygon fill="none" stroke="#bfbfbf" points="934.5,-0.5 934.5,-19.5 983.5,-19.5 983.5,-0.5 934.5,-0.5"/>
<text text-anchor="middle" x="959" y="-7.5" font-family="Helvetica,sans-Serif" font-size="10.00">cassert</text>
</g>
<!-- Node15&#45;&gt;Node16 -->
<g id="edge17" class="edge"><title>Node15&#45;&gt;Node16</title>
<path fill="none" stroke="midnightblue" d="M1000.2,-56.3993C992.275,-47.6641 982.064,-36.4126 973.79,-27.2962"/>
<polygon fill="midnightblue" stroke="midnightblue" points="976.17,-24.7106 966.857,-19.6578 970.986,-29.415 976.17,-24.7106"/>
</g>
<!-- Node17 -->
<g id="node17" class="node"><title>Node17</title>
<polygon fill="none" stroke="#bfbfbf" points="1001.5,-0.5 1001.5,-19.5 1048.5,-19.5 1048.5,-0.5 1001.5,-0.5"/>
<text text-anchor="middle" x="1025" y="-7.5" font-family="Helvetica,sans-Serif" font-size="10.00">clocale</text>
</g>
<!-- Node15&#45;&gt;Node17 -->
<g id="edge18" class="edge"><title>Node15&#45;&gt;Node17</title>
<path fill="none" stroke="midnightblue" d="M1015.84,-56.3993C1017.46,-48.3772 1019.51,-38.2328 1021.25,-29.569"/>
<polygon fill="midnightblue" stroke="midnightblue" points="1024.71,-30.1524 1023.25,-19.6578 1017.85,-28.7684 1024.71,-30.1524"/>
</g>
<!-- Node18 -->
<g id="node18" class="node"><title>Node18</title>
<polygon fill="none" stroke="#bfbfbf" points="1067,-0.5 1067,-19.5 1111,-19.5 1111,-0.5 1067,-0.5"/>
<text text-anchor="middle" x="1089" y="-7.5" font-family="Helvetica,sans-Serif" font-size="10.00">cmath</text>
</g>
<!-- Node15&#45;&gt;Node18 -->
<g id="edge19" class="edge"><title>Node15&#45;&gt;Node18</title>
<path fill="none" stroke="midnightblue" d="M1031.01,-56.3993C1042.74,-47.2185 1058.02,-35.2579 1069.94,-25.9182"/>
<polygon fill="midnightblue" stroke="midnightblue" points="1072.22,-28.5782 1077.94,-19.6578 1067.91,-23.0664 1072.22,-28.5782"/>
</g>
<!-- Node15&#45;&gt;Node19 -->
<g id="edge20" class="edge"><title>Node15&#45;&gt;Node19</title>
<path fill="none" stroke="midnightblue" d="M1060.62,-56.4747C1098.51,-45.314 1150.46,-30.01 1183.38,-20.3128"/>
<polygon fill="midnightblue" stroke="midnightblue" points="1184.76,-23.5567 1193.36,-17.3737 1182.78,-16.8419 1184.76,-23.5567"/>
</g>
<!-- Node20 -->
<g id="node20" class="node"><title>Node20</title>
<polygon fill="none" stroke="#bfbfbf" points="1129,-0.5 1129,-19.5 1175,-19.5 1175,-0.5 1129,-0.5"/>
<text text-anchor="middle" x="1152" y="-7.5" font-family="Helvetica,sans-Serif" font-size="10.00">cstring</text>
</g>
<!-- Node15&#45;&gt;Node20 -->
<g id="edge21" class="edge"><title>Node15&#45;&gt;Node20</title>
<path fill="none" stroke="midnightblue" d="M1045.94,-56.3993C1069.16,-46.4608 1099.99,-33.2649 1122.42,-23.6625"/>
<polygon fill="midnightblue" stroke="midnightblue" points="1123.96,-26.8106 1131.77,-19.6578 1121.2,-20.3754 1123.96,-26.8106"/>
</g>
<!-- Node21 -->
<g id="node21" class="node"><title>Node21</title>
<polygon fill="none" stroke="#bfbfbf" points="732,-0.5 732,-19.5 772,-19.5 772,-0.5 732,-0.5"/>
<text text-anchor="middle" x="752" y="-7.5" font-family="Helvetica,sans-Serif" font-size="10.00">limits</text>
</g>
<!-- Node15&#45;&gt;Node21 -->
<g id="edge22" class="edge"><title>Node15&#45;&gt;Node21</title>
<path fill="none" stroke="midnightblue" d="M963.373,-60.9927C918.407,-52.0876 850.152,-37.8497 782.233,-20.1548"/>
<polygon fill="midnightblue" stroke="midnightblue" points="782.778,-16.6793 772.217,-17.5192 780.997,-23.4489 782.778,-16.6793"/>
</g>
<!-- Node22 -->
<g id="node22" class="node"><title>Node22</title>
<polygon fill="none" stroke="#bfbfbf" points="790.5,-0.5 790.5,-19.5 849.5,-19.5 849.5,-0.5 790.5,-0.5"/>
<text text-anchor="middle" x="820" y="-7.5" font-family="Helvetica,sans-Serif" font-size="10.00">stdexcept</text>
</g>
<!-- Node15&#45;&gt;Node22 -->
<g id="edge24" class="edge"><title>Node15&#45;&gt;Node22</title>
<path fill="none" stroke="midnightblue" d="M967.262,-56.3993C933.767,-46.0733 888.866,-32.2309 857.484,-22.5559"/>
<polygon fill="midnightblue" stroke="midnightblue" points="858.389,-19.1724 847.801,-19.5709 856.327,-25.8617 858.389,-19.1724"/>
</g>
<!-- Node23 -->
<g id="node23" class="node"><title>Node23</title>
<polygon fill="none" stroke="#bfbfbf" points="1267,-0.5 1267,-19.5 1311,-19.5 1311,-0.5 1267,-0.5"/>
<text text-anchor="middle" x="1289" y="-7.5" font-family="Helvetica,sans-Serif" font-size="10.00">vector</text>
</g>
<!-- Node15&#45;&gt;Node23 -->
<g id="edge26" class="edge"><title>Node15&#45;&gt;Node23</title>
<path fill="none" stroke="midnightblue" d="M1062.66,-59.7939C1119.05,-47.6373 1209.39,-28.1619 1257.1,-17.8773"/>
<polygon fill="midnightblue" stroke="midnightblue" points="1257.84,-21.2972 1266.88,-15.7684 1256.37,-14.4544 1257.84,-21.2972"/>
</g>
<!-- Node15&#45;&gt;Node24 -->
<g id="edge27" class="edge"><title>Node15&#45;&gt;Node24</title>
<path fill="none" stroke="midnightblue" d="M963.309,-67.4676C788.942,-56.8267 207.967,-21.3723 68.3574,-12.8526"/>
<polygon fill="midnightblue" stroke="midnightblue" points="68.1976,-9.3364 58.0029,-12.2207 67.7711,-16.3234 68.1976,-9.3364"/>
</g>
<!-- Node25 -->
<g id="node25" class="node"><title>Node25</title>
<polygon fill="none" stroke="#bfbfbf" points="867.5,-0.5 867.5,-19.5 916.5,-19.5 916.5,-0.5 867.5,-0.5"/>
<text text-anchor="middle" x="892" y="-7.5" font-family="Helvetica,sans-Serif" font-size="10.00">stdint.h</text>
</g>
<!-- Node15&#45;&gt;Node25 -->
<g id="edge28" class="edge"><title>Node15&#45;&gt;Node25</title>
<path fill="none" stroke="midnightblue" d="M984.325,-56.3993C964.476,-46.6391 938.239,-33.7373 918.808,-24.1826"/>
<polygon fill="midnightblue" stroke="midnightblue" points="920.125,-20.9297 909.607,-19.6578 917.036,-27.2114 920.125,-20.9297"/>
</g>
<!-- Node26&#45;&gt;Node7 -->
<g id="edge30" class="edge"><title>Node26&#45;&gt;Node7</title>
<path fill="none" stroke="midnightblue" d="M806.628,-249.625C714.213,-239.564 515.6,-217.94 417.392,-207.248"/>
<polygon fill="midnightblue" stroke="midnightblue" points="417.672,-203.758 407.351,-206.155 416.914,-210.717 417.672,-203.758"/>
</g>
<!-- Node26&#45;&gt;Node8 -->
<g id="edge34" class="edge"><title>Node26&#45;&gt;Node8</title>
<path fill="none" stroke="midnightblue" d="M806.749,-254.698C732.707,-253.08 598.151,-245.227 568,-210 546.194,-184.522 601.119,-158.633 603,-154 619.384,-113.644 624.114,-94.0955 603,-56 594.005,-39.7712 576.449,-28.6223 560.924,-21.4812"/>
<polygon fill="midnightblue" stroke="midnightblue" points="562.189,-18.216 551.616,-17.5432 559.462,-24.6629 562.189,-18.216"/>
</g>
<!-- Node26&#45;&gt;Node10 -->
<g id="edge35" class="edge"><title>Node26&#45;&gt;Node10</title>
<path fill="none" stroke="midnightblue" d="M905.271,-249.311C952.308,-242.746 1018.28,-230.183 1034,-210 1039.46,-202.987 1038.7,-197.543 1034,-190 1031.8,-186.473 988.673,-166.073 958.929,-152.304"/>
<polygon fill="midnightblue" stroke="midnightblue" points="960.358,-149.109 949.811,-148.097 957.425,-155.465 960.358,-149.109"/>
</g>
<!-- Node26&#45;&gt;Node13 -->
<g id="edge33" class="edge"><title>Node26&#45;&gt;Node13</title>
<path fill="none" stroke="midnightblue" d="M849.324,-246.224C837.978,-231.982 813.475,-204.023 786,-190 715.864,-154.202 622.878,-143.742 570.769,-140.711"/>
<polygon fill="midnightblue" stroke="midnightblue" points="570.77,-137.206 560.602,-140.184 570.408,-144.197 570.77,-137.206"/>
</g>
<!-- Node26&#45;&gt;Node19 -->
<g id="edge31" class="edge"><title>Node26&#45;&gt;Node19</title>
<path fill="none" stroke="midnightblue" d="M905.13,-252.302C946.46,-248.088 1005.73,-237.341 1050,-210 1126.23,-162.926 1183.9,-68.2638 1205.61,-28.8535"/>
<polygon fill="midnightblue" stroke="midnightblue" points="1208.78,-30.348 1210.45,-19.8854 1202.62,-27.0238 1208.78,-30.348"/>
</g>
<!-- Node27 -->
<g id="node27" class="node"><title>Node27</title>
<polygon fill="none" stroke="#bfbfbf" points="1119.5,-190.5 1119.5,-209.5 1160.5,-209.5 1160.5,-190.5 1119.5,-190.5"/>
<text text-anchor="middle" x="1140" y="-197.5" font-family="Helvetica,sans-Serif" font-size="10.00">ctime</text>
</g>
<!-- Node26&#45;&gt;Node27 -->
<g id="edge32" class="edge"><title>Node26&#45;&gt;Node27</title>
<path fill="none" stroke="midnightblue" d="M905.345,-247.172C955.735,-238.924 1036.12,-225.059 1105,-210 1106.46,-209.682 1107.94,-209.345 1109.44,-208.996"/>
<polygon fill="midnightblue" stroke="midnightblue" points="1110.45,-212.354 1119.33,-206.581 1108.79,-205.553 1110.45,-212.354"/>
</g>
<!-- Node28 -->
<g id="node28" class="node"><title>Node28</title>
<polygon fill="none" stroke="#bfbfbf" points="1179,-190.5 1179,-209.5 1223,-209.5 1223,-190.5 1179,-190.5"/>
<text text-anchor="middle" x="1201" y="-197.5" font-family="Helvetica,sans-Serif" font-size="10.00">thread</text>
</g>
<!-- Node26&#45;&gt;Node28 -->
<g id="edge36" class="edge"><title>Node26&#45;&gt;Node28</title>
<path fill="none" stroke="midnightblue" d="M905.144,-249.957C965.085,-243.359 1069.61,-230.413 1168.82,-209.76"/>
<polygon fill="midnightblue" stroke="midnightblue" points="1169.65,-213.162 1178.71,-207.672 1168.21,-206.313 1169.65,-213.162"/>
</g>
<!-- Node29 -->
<g id="node29" class="node"><title>Node29</title>
<polygon fill="none" stroke="#bfbfbf" points="833,-190.5 833,-209.5 879,-209.5 879,-190.5 833,-190.5"/>
<text text-anchor="middle" x="856" y="-197.5" font-family="Helvetica,sans-Serif" font-size="10.00">stdio.h</text>
</g>
<!-- Node26&#45;&gt;Node29 -->
<g id="edge37" class="edge"><title>Node26&#45;&gt;Node29</title>
<path fill="none" stroke="midnightblue" d="M856,-246.083C856,-239.006 856,-228.861 856,-219.986"/>
<polygon fill="midnightblue" stroke="midnightblue" points="859.5,-219.751 856,-209.751 852.5,-219.751 859.5,-219.751"/>
</g>
<!-- Node30 -->
<g id="node30" class="node"><title>Node30</title>
<polygon fill="none" stroke="#bfbfbf" points="897.5,-190.5 897.5,-209.5 946.5,-209.5 946.5,-190.5 897.5,-190.5"/>
<text text-anchor="middle" x="922" y="-197.5" font-family="Helvetica,sans-Serif" font-size="10.00">string.h</text>
</g>
<!-- Node26&#45;&gt;Node30 -->
<g id="edge38" class="edge"><title>Node26&#45;&gt;Node30</title>
<path fill="none" stroke="midnightblue" d="M866.604,-246.324C876.456,-238.263 891.351,-226.077 903.215,-216.369"/>
<polygon fill="midnightblue" stroke="midnightblue" points="905.68,-218.875 911.203,-209.834 901.247,-213.457 905.68,-218.875"/>
</g>
<!-- Node31 -->
<g id="node31" class="node"><title>Node31</title>
<polygon fill="none" stroke="#bfbfbf" points="965,-190.5 965,-209.5 1025,-209.5 1025,-190.5 965,-190.5"/>
<text text-anchor="middle" x="995" y="-197.5" font-family="Helvetica,sans-Serif" font-size="10.00">sys/stat.h</text>
</g>
<!-- Node26&#45;&gt;Node31 -->
<g id="edge39" class="edge"><title>Node26&#45;&gt;Node31</title>
<path fill="none" stroke="midnightblue" d="M878.025,-246.444C901.104,-237.478 937.562,-223.314 963.641,-213.183"/>
<polygon fill="midnightblue" stroke="midnightblue" points="965.024,-216.4 973.078,-209.516 962.489,-209.875 965.024,-216.4"/>
</g>
<!-- Node32 -->
<g id="node32" class="node"><title>Node32</title>
<polygon fill="none" stroke="#bfbfbf" points="577,-190.5 577,-209.5 645,-209.5 645,-190.5 577,-190.5"/>
<text text-anchor="middle" x="611" y="-197.5" font-family="Helvetica,sans-Serif" font-size="10.00">sys/types.h</text>
</g>
<!-- Node26&#45;&gt;Node32 -->
<g id="edge40" class="edge"><title>Node26&#45;&gt;Node32</title>
<path fill="none" stroke="midnightblue" d="M817.179,-246.444C773.149,-236.739 701.492,-220.945 655.309,-210.766"/>
<polygon fill="midnightblue" stroke="midnightblue" points="655.81,-207.293 645.291,-208.558 654.303,-214.128 655.81,-207.293"/>
</g>
<!-- Node33 -->
<g id="node33" class="node"><title>Node33</title>
<polygon fill="none" stroke="#bfbfbf" points="663.5,-190.5 663.5,-209.5 714.5,-209.5 714.5,-190.5 663.5,-190.5"/>
<text text-anchor="middle" x="689" y="-197.5" font-family="Helvetica,sans-Serif" font-size="10.00">unistd.h</text>
</g>
<!-- Node26&#45;&gt;Node33 -->
<g id="edge41" class="edge"><title>Node26&#45;&gt;Node33</title>
<path fill="none" stroke="midnightblue" d="M829.538,-246.444C801.073,-237.239 755.667,-222.557 724.203,-212.383"/>
<polygon fill="midnightblue" stroke="midnightblue" points="725.108,-208.997 714.516,-209.251 722.954,-215.658 725.108,-208.997"/>
</g>
<!-- Node34 -->
<g id="node34" class="node"><title>Node34</title>
<polygon fill="none" stroke="#bfbfbf" points="733,-190.5 733,-209.5 777,-209.5 777,-190.5 733,-190.5"/>
<text text-anchor="middle" x="755" y="-197.5" font-family="Helvetica,sans-Serif" font-size="10.00">fcntl.h</text>
</g>
<!-- Node26&#45;&gt;Node34 -->
<g id="edge42" class="edge"><title>Node26&#45;&gt;Node34</title>
<path fill="none" stroke="midnightblue" d="M839.773,-246.324C823.649,-237.703 798.7,-224.364 780.036,-214.386"/>
<polygon fill="midnightblue" stroke="midnightblue" points="781.656,-211.283 771.187,-209.655 778.356,-217.456 781.656,-211.283"/>
</g>
<!-- Node35&#45;&gt;Node6 -->
<g id="edge46" class="edge"><title>Node35&#45;&gt;Node6</title>
<path fill="none" stroke="midnightblue" d="M899.302,-443.038C799.517,-438.474 571.948,-425.54 499,-400 475.031,-391.608 472.751,-382.109 451,-369 433.132,-358.232 412.9,-346.812 396.15,-337.561"/>
<polygon fill="midnightblue" stroke="midnightblue" points="397.689,-334.413 387.24,-332.662 394.317,-340.547 397.689,-334.413"/>
</g>
<!-- Node35&#45;&gt;Node8 -->
<g id="edge48" class="edge"><title>Node35&#45;&gt;Node8</title>
<path fill="none" stroke="midnightblue" d="M899.381,-436.64C779.181,-414.192 473,-348.073 473,-257 473,-257 473,-257 473,-137.5 473,-94.8422 500.59,-50.8525 517.712,-27.6597"/>
<polygon fill="midnightblue" stroke="midnightblue" points="520.599,-29.6461 523.888,-19.5748 515.036,-25.3967 520.599,-29.6461"/>
</g>
<!-- Node35&#45;&gt;Node11 -->
<g id="edge49" class="edge"><title>Node35&#45;&gt;Node11</title>
<path fill="none" stroke="midnightblue" d="M994.68,-443.789C1125.26,-439.191 1479,-417.59 1479,-318.5 1479,-318.5 1479,-318.5 1479,-137.5 1479,-97.3496 1461.22,-52.9463 1449.99,-28.8892"/>
<polygon fill="midnightblue" stroke="midnightblue" points="1453.01,-27.1043 1445.51,-19.6255 1446.71,-30.1518 1453.01,-27.1043"/>
</g>
<!-- Node35&#45;&gt;Node23 -->
<g id="edge47" class="edge"><title>Node35&#45;&gt;Node23</title>
<path fill="none" stroke="midnightblue" d="M994.543,-440.752C1104.1,-429.653 1365,-395.173 1365,-318.5 1365,-318.5 1365,-318.5 1365,-137.5 1365,-92.1215 1328.62,-48.982 1306.2,-26.705"/>
<polygon fill="midnightblue" stroke="midnightblue" points="1308.57,-24.1293 1298.94,-19.7259 1303.72,-29.1776 1308.57,-24.1293"/>
</g>
<!-- Node36 -->
<g id="node36" class="node"><title>Node36</title>
<g id="a_node36"><a xlink:href="pattern__formatter__impl_8h.html" target="_top" xlink:title="spdlog/details/pattern\l_formatter_impl.h">
<polygon fill="none" stroke="black" points="892,-369.5 892,-399.5 1002,-399.5 1002,-369.5 892,-369.5"/>
<text text-anchor="start" x="900" y="-387.5" font-family="Helvetica,sans-Serif" font-size="10.00">spdlog/details/pattern</text>
<text text-anchor="middle" x="947" y="-376.5" font-family="Helvetica,sans-Serif" font-size="10.00">_formatter_impl.h</text>
</a>
</g>
</g>
<!-- Node35&#45;&gt;Node36 -->
<g id="edge50" class="edge"><title>Node35&#45;&gt;Node36</title>
<path fill="none" stroke="midnightblue" d="M942.099,-436.475C940.572,-429.471 939.991,-419.192 940.356,-409.696"/>
<polygon fill="midnightblue" stroke="midnightblue" points="943.861,-409.77 941.17,-399.523 936.883,-409.212 943.861,-409.77"/>
</g>
<!-- Node36&#45;&gt;Node6 -->
<g id="edge52" class="edge"><title>Node36&#45;&gt;Node6</title>
<path fill="none" stroke="midnightblue" d="M891.764,-380.772C795.577,-375.449 591.313,-361.608 421,-333 419.722,-332.785 418.431,-332.559 417.13,-332.321"/>
<polygon fill="midnightblue" stroke="midnightblue" points="417.542,-328.835 407.052,-330.325 416.181,-335.701 417.542,-328.835"/>
</g>
<!-- Node36&#45;&gt;Node8 -->
<g id="edge59" class="edge"><title>Node36&#45;&gt;Node8</title>
<path fill="none" stroke="midnightblue" d="M891.87,-377.405C803.732,-364.358 633.457,-324.856 559,-210 554.165,-202.541 557.799,-198.807 559,-190 561.243,-173.546 566.757,-170.454 569,-154 570.861,-140.348 571.243,-136.594 569,-123 563.34,-88.7019 548.547,-50.7856 539.176,-29.0366"/>
<polygon fill="midnightblue" stroke="midnightblue" points="542.315,-27.4804 535.075,-19.7452 535.911,-30.307 542.315,-27.4804"/>
</g>
<!-- Node36&#45;&gt;Node10 -->
<g id="edge55" class="edge"><title>Node36&#45;&gt;Node10</title>
<path fill="none" stroke="midnightblue" d="M1002.1,-370.416C1104.82,-343.586 1308.5,-277.425 1232,-190 1192.28,-144.614 1020.97,-170.623 963,-154 961.065,-153.445 959.097,-152.793 957.137,-152.076"/>
<polygon fill="midnightblue" stroke="midnightblue" points="958.168,-148.715 947.59,-148.126 955.492,-155.184 958.168,-148.715"/>
</g>
<!-- Node36&#45;&gt;Node11 -->
<g id="edge57" class="edge"><title>Node36&#45;&gt;Node11</title>
<path fill="none" stroke="midnightblue" d="M1002.23,-381.007C1131.14,-373.684 1441,-346.748 1441,-257 1441,-257 1441,-257 1441,-137.5 1441,-99.2024 1441,-54.3829 1441,-29.6971"/>
<polygon fill="midnightblue" stroke="midnightblue" points="1444.5,-29.5894 1441,-19.5894 1437.5,-29.5895 1444.5,-29.5894"/>
</g>
<!-- Node36&#45;&gt;Node14 -->
<g id="edge54" class="edge"><title>Node36&#45;&gt;Node14</title>
<path fill="none" stroke="midnightblue" d="M1002.28,-382.824C1077.75,-378.403 1208.73,-357.266 1253,-266 1259.83,-251.922 1269.63,-211.41 1252,-190 1229.35,-162.502 1132.68,-149.254 1070.3,-143.457"/>
<polygon fill="midnightblue" stroke="midnightblue" points="1070.5,-139.96 1060.22,-142.557 1069.87,-146.933 1070.5,-139.96"/>
</g>
<!-- Node36&#45;&gt;Node23 -->
<g id="edge62" class="edge"><title>Node36&#45;&gt;Node23</title>
<path fill="none" stroke="midnightblue" d="M1002.16,-378.485C1072.17,-371.27 1188.15,-356.219 1224,-333 1325.87,-267.023 1303.29,-88.2186 1292.77,-29.7673"/>
<polygon fill="midnightblue" stroke="midnightblue" points="1296.17,-28.9222 1290.87,-19.7508 1289.3,-30.2283 1296.17,-28.9222"/>
</g>
<!-- Node36&#45;&gt;Node24 -->
<g id="edge61" class="edge"><title>Node36&#45;&gt;Node24</title>
<path fill="none" stroke="midnightblue" d="M891.946,-377.48C715.302,-356.979 167.866,-283.847 57,-154 26.862,-118.702 30.402,-59.569 34.6536,-29.6087"/>
<polygon fill="midnightblue" stroke="midnightblue" points="38.1206,-30.0933 36.2492,-19.665 31.209,-28.9841 38.1206,-30.0933"/>
</g>
<!-- Node36&#45;&gt;Node26 -->
<g id="edge53" class="edge"><title>Node36&#45;&gt;Node26</title>
<path fill="none" stroke="midnightblue" d="M936.914,-369.479C920.098,-346.104 886.395,-299.253 868.245,-274.022"/>
<polygon fill="midnightblue" stroke="midnightblue" points="871.003,-271.862 862.322,-265.789 865.321,-275.95 871.003,-271.862"/>
</g>
<!-- Node36&#45;&gt;Node27 -->
<g id="edge56" class="edge"><title>Node36&#45;&gt;Node27</title>
<path fill="none" stroke="midnightblue" d="M961.824,-369.483C997.111,-336.116 1085.92,-252.141 1123.16,-216.928"/>
<polygon fill="midnightblue" stroke="midnightblue" points="1125.81,-219.232 1130.67,-209.819 1121,-214.146 1125.81,-219.232"/>
</g>
<!-- Node36&#45;&gt;Node28 -->
<g id="edge60" class="edge"><title>Node36&#45;&gt;Node28</title>
<path fill="none" stroke="midnightblue" d="M972.817,-369.298C989.943,-359.602 1012.73,-346.173 1032,-333 1089.35,-293.802 1152.87,-241.623 1183.11,-216.207"/>
<polygon fill="midnightblue" stroke="midnightblue" points="1185.67,-218.627 1191.05,-209.501 1181.15,-213.278 1185.67,-218.627"/>
</g>
<!-- Node36&#45;&gt;Node35 -->
<g id="edge51" class="edge"><title>Node36&#45;&gt;Node35</title>
<path fill="none" stroke="midnightblue" d="M952.83,-399.523C953.873,-407.586 954.029,-417.813 953.299,-426.526"/>
<polygon fill="midnightblue" stroke="midnightblue" points="949.827,-426.085 951.901,-436.475 956.759,-427.06 949.827,-426.085"/>
</g>
<!-- Node36&#45;&gt;Node37 -->
<g id="edge58" class="edge"><title>Node36&#45;&gt;Node37</title>
<path fill="none" stroke="midnightblue" d="M891.534,-381.675C756.929,-376.837 415.957,-362.023 306,-333 304.018,-332.477 302.007,-331.831 300.011,-331.106"/>
<polygon fill="midnightblue" stroke="midnightblue" points="300.932,-327.695 290.359,-327.01 298.198,-334.139 300.932,-327.695"/>
</g>
</g>
</svg>
