<?xml version="1.0" encoding="UTF-8" standalone="no"?>
<!DOCTYPE svg PUBLIC "-//W3C//DTD SVG 1.1//EN"
 "http://www.w3.org/Graphics/SVG/1.1/DTD/svg11.dtd">
<!-- Generated by graphviz version 2.38.0 (20140413.2041)
 -->
<!-- Title: XBot::FSM::Event Pages: 1 -->
<svg width="203pt" height="372pt"
 viewBox="0.00 0.00 203.00 372.00" xmlns="http://www.w3.org/2000/svg" xmlns:xlink="http://www.w3.org/1999/xlink">
<g id="graph0" class="graph" transform="scale(1 1) rotate(0) translate(4 368)">
<title>XBot::FSM::Event</title>
<!-- Node1 -->
<g id="node1" class="node"><title>Node1</title>
<polygon fill="#bfbfbf" stroke="black" points="16,-0.5 16,-57.5 113,-57.5 113,-0.5 16,-0.5"/>
<text text-anchor="middle" x="64.5" y="-45.5" font-family="Helvetica,sans-Serif" font-size="10.00">XBot::FSM::Event</text>
<polyline fill="none" stroke="black" points="16,-38.5 113,-38.5 "/>
<text text-anchor="middle" x="64.5" y="-26.5" font-family="Helvetica,sans-Serif" font-size="10.00"> </text>
<polyline fill="none" stroke="black" points="16,-19.5 113,-19.5 "/>
<text text-anchor="middle" x="64.5" y="-7.5" font-family="Helvetica,sans-Serif" font-size="10.00"> </text>
</g>
<!-- Node2 -->
<g id="node2" class="node"><title>Node2</title>
<g id="a_node2"><a xlink:href="structXBot_1_1FSM_1_1Message.html" target="_top" xlink:title="Base class for defining custom messages that can be processed by the states during the entry phase...">
<polygon fill="none" stroke="black" points="84,-95.5 84,-152.5 195,-152.5 195,-95.5 84,-95.5"/>
<text text-anchor="middle" x="139.5" y="-140.5" font-family="Helvetica,sans-Serif" font-size="10.00">XBot::FSM::Message</text>
<polyline fill="none" stroke="black" points="84,-133.5 195,-133.5 "/>
<text text-anchor="middle" x="139.5" y="-121.5" font-family="Helvetica,sans-Serif" font-size="10.00"> </text>
<polyline fill="none" stroke="black" points="84,-114.5 195,-114.5 "/>
<text text-anchor="middle" x="139.5" y="-102.5" font-family="Helvetica,sans-Serif" font-size="10.00"> </text>
</a>
</g>
</g>
<!-- Node2&#45;&gt;Node1 -->
<g id="edge1" class="edge"><title>Node2&#45;&gt;Node1</title>
<path fill="none" stroke="midnightblue" d="M110.714,-87.3056C102.799,-77.4909 94.3357,-66.9963 86.843,-57.7053"/>
<polygon fill="none" stroke="midnightblue" points="108.199,-89.7617 117.201,-95.3487 113.647,-85.3674 108.199,-89.7617"/>
</g>
<!-- Node3 -->
<g id="node3" class="node"><title>Node3</title>
<g id="a_node3"><a xlink:title="STL class. ">
<polygon fill="none" stroke="#bfbfbf" points="17.5,-200.5 17.5,-257.5 77.5,-257.5 77.5,-200.5 17.5,-200.5"/>
<text text-anchor="middle" x="47.5" y="-245.5" font-family="Helvetica,sans-Serif" font-size="10.00">std::string</text>
<polyline fill="none" stroke="#bfbfbf" points="17.5,-238.5 77.5,-238.5 "/>
<text text-anchor="middle" x="47.5" y="-226.5" font-family="Helvetica,sans-Serif" font-size="10.00"> </text>
<polyline fill="none" stroke="#bfbfbf" points="17.5,-219.5 77.5,-219.5 "/>
<text text-anchor="middle" x="47.5" y="-207.5" font-family="Helvetica,sans-Serif" font-size="10.00"> </text>
</a>
</g>
</g>
<!-- Node3&#45;&gt;Node1 -->
<g id="edge4" class="edge"><title>Node3&#45;&gt;Node1</title>
<path fill="none" stroke="#404040" d="M42.8183,-200.275C39.0538,-173.22 35.3198,-130.993 41.5,-95 42.9733,-86.4199 45.4657,-77.469 48.2793,-69.0503"/>
<polygon fill="none" stroke="#404040" points="48.3372,-68.8892 46.6037,-61.8896 52.3982,-57.5972 54.1317,-64.5969 48.3372,-68.8892"/>
<text text-anchor="middle" x="58.5" y="-121.5" font-family="Helvetica,sans-Serif" font-size="10.00"> +name</text>
</g>
<!-- Node3&#45;&gt;Node2 -->
<g id="edge2" class="edge"><title>Node3&#45;&gt;Node2</title>
<path fill="none" stroke="#404040" d="M72.1543,-200.398C82.7761,-188.506 95.3491,-174.43 106.738,-161.679"/>
<polygon fill="none" stroke="#404040" points="106.784,-161.628 107.797,-154.489 114.778,-152.678 113.764,-159.818 106.784,-161.628"/>
<text text-anchor="middle" x="120" y="-174" font-family="Helvetica,sans-Serif" font-size="10.00"> +message</text>
</g>
<!-- Node4 -->
<g id="node4" class="node"><title>Node4</title>
<g id="a_node4"><a xlink:title="STL class. ">
<polygon fill="none" stroke="#bfbfbf" points="0,-295.5 0,-363.5 95,-363.5 95,-295.5 0,-295.5"/>
<text text-anchor="start" x="8" y="-351.5" font-family="Helvetica,sans-Serif" font-size="10.00">std::basic_string&lt;</text>
<text text-anchor="middle" x="47.5" y="-340.5" font-family="Helvetica,sans-Serif" font-size="10.00"> char &gt;</text>
<polyline fill="none" stroke="#bfbfbf" points="0,-333.5 95,-333.5 "/>
<text text-anchor="middle" x="47.5" y="-321.5" font-family="Helvetica,sans-Serif" font-size="10.00"> </text>
<polyline fill="none" stroke="#bfbfbf" points="0,-314.5 95,-314.5 "/>
<text text-anchor="middle" x="47.5" y="-302.5" font-family="Helvetica,sans-Serif" font-size="10.00"> </text>
</a>
</g>
</g>
<!-- Node4&#45;&gt;Node3 -->
<g id="edge3" class="edge"><title>Node4&#45;&gt;Node3</title>
<path fill="none" stroke="midnightblue" d="M47.5,-285.375C47.5,-275.94 47.5,-266.201 47.5,-257.571"/>
<polygon fill="none" stroke="midnightblue" points="44.0001,-285.427 47.5,-295.427 51.0001,-285.427 44.0001,-285.427"/>
</g>
</g>
</svg>
