<?xml version="1.0" encoding="UTF-8" standalone="no"?>
<!DOCTYPE svg PUBLIC "-//W3C//DTD SVG 1.1//EN"
 "http://www.w3.org/Graphics/SVG/1.1/DTD/svg11.dtd">
<!-- Generated by graphviz version 2.38.0 (20140413.2041)
 -->
<!-- Title: fmt::internal::Arg Pages: 1 -->
<svg width="646pt" height="376pt"
 viewBox="0.00 0.00 646.00 376.00" xmlns="http://www.w3.org/2000/svg" xmlns:xlink="http://www.w3.org/1999/xlink">
<g id="graph0" class="graph" transform="scale(1 1) rotate(0) translate(4 372)">
<title>fmt::internal::Arg</title>
<!-- Node1 -->
<g id="node1" class="node"><title>Node1</title>
<polygon fill="#bfbfbf" stroke="black" points="263.5,-0.5 263.5,-57.5 352.5,-57.5 352.5,-0.5 263.5,-0.5"/>
<text text-anchor="middle" x="308" y="-45.5" font-family="Helvetica,sans-Serif" font-size="10.00">fmt::internal::Arg</text>
<polyline fill="none" stroke="black" points="263.5,-38.5 352.5,-38.5 "/>
<text text-anchor="start" x="271.5" y="-26.5" font-family="Helvetica,sans-Serif" font-size="10.00">+ type</text>
<polyline fill="none" stroke="black" points="263.5,-19.5 352.5,-19.5 "/>
<text text-anchor="middle" x="308" y="-7.5" font-family="Helvetica,sans-Serif" font-size="10.00"> </text>
</g>
<!-- Node2 -->
<g id="node2" class="node"><title>Node2</title>
<g id="a_node2"><a xlink:href="structfmt_1_1internal_1_1Value.html" target="_top" xlink:title="{fmt::internal::Value\n|+ int_value\l+ uint_value\l+ long_long_value\l+ ulong_long_value\l+ double_value\l+ long_double_value\l+ pointer\l+ @3\l|}">
<polygon fill="none" stroke="black" points="255,-95.5 255,-229.5 361,-229.5 361,-95.5 255,-95.5"/>
<text text-anchor="middle" x="308" y="-217.5" font-family="Helvetica,sans-Serif" font-size="10.00">fmt::internal::Value</text>
<polyline fill="none" stroke="black" points="255,-210.5 361,-210.5 "/>
<text text-anchor="start" x="263" y="-198.5" font-family="Helvetica,sans-Serif" font-size="10.00">+ int_value</text>
<text text-anchor="start" x="263" y="-187.5" font-family="Helvetica,sans-Serif" font-size="10.00">+ uint_value</text>
<text text-anchor="start" x="263" y="-176.5" font-family="Helvetica,sans-Serif" font-size="10.00">+ long_long_value</text>
<text text-anchor="start" x="263" y="-165.5" font-family="Helvetica,sans-Serif" font-size="10.00">+ ulong_long_value</text>
<text text-anchor="start" x="263" y="-154.5" font-family="Helvetica,sans-Serif" font-size="10.00">+ double_value</text>
<text text-anchor="start" x="263" y="-143.5" font-family="Helvetica,sans-Serif" font-size="10.00">+ long_double_value</text>
<text text-anchor="start" x="263" y="-132.5" font-family="Helvetica,sans-Serif" font-size="10.00">+ pointer</text>
<text text-anchor="start" x="263" y="-121.5" font-family="Helvetica,sans-Serif" font-size="10.00">+ @3</text>
<polyline fill="none" stroke="black" points="255,-114.5 361,-114.5 "/>
<text text-anchor="middle" x="308" y="-102.5" font-family="Helvetica,sans-Serif" font-size="10.00"> </text>
</a>
</g>
</g>
<!-- Node2&#45;&gt;Node1 -->
<g id="edge1" class="edge"><title>Node2&#45;&gt;Node1</title>
<path fill="none" stroke="midnightblue" d="M308,-85.1172C308,-75.3593 308,-65.9224 308,-57.697"/>
<polygon fill="none" stroke="midnightblue" points="304.5,-85.3647 308,-95.3647 311.5,-85.3648 304.5,-85.3647"/>
</g>
<!-- Node3 -->
<g id="node3" class="node"><title>Node3</title>
<g id="a_node3"><a xlink:href="structfmt_1_1internal_1_1Value_1_1StringValue.html" target="_top" xlink:title="{fmt::internal::Value\l::StringValue\&lt; signed\l char \&gt;\n|+ value\l+ size\l|}">
<polygon fill="none" stroke="black" points="0,-277.5 0,-367.5 110,-367.5 110,-277.5 0,-277.5"/>
<text text-anchor="start" x="8" y="-355.5" font-family="Helvetica,sans-Serif" font-size="10.00">fmt::internal::Value</text>
<text text-anchor="start" x="8" y="-344.5" font-family="Helvetica,sans-Serif" font-size="10.00">::StringValue&lt; signed</text>
<text text-anchor="middle" x="55" y="-333.5" font-family="Helvetica,sans-Serif" font-size="10.00"> char &gt;</text>
<polyline fill="none" stroke="black" points="0,-326.5 110,-326.5 "/>
<text text-anchor="start" x="8" y="-314.5" font-family="Helvetica,sans-Serif" font-size="10.00">+ value</text>
<text text-anchor="start" x="8" y="-303.5" font-family="Helvetica,sans-Serif" font-size="10.00">+ size</text>
<polyline fill="none" stroke="black" points="0,-296.5 110,-296.5 "/>
<text text-anchor="middle" x="55" y="-284.5" font-family="Helvetica,sans-Serif" font-size="10.00"> </text>
</a>
</g>
</g>
<!-- Node3&#45;&gt;Node2 -->
<g id="edge2" class="edge"><title>Node3&#45;&gt;Node2</title>
<path fill="none" stroke="#404040" d="M110.349,-282.679C113.263,-280.741 116.159,-278.838 119,-277 160.095,-250.416 207.294,-222.07 244.244,-200.355"/>
<polygon fill="none" stroke="#404040" points="244.519,-200.195 247.673,-193.71 254.872,-194.127 251.718,-200.612 244.519,-200.195"/>
<text text-anchor="middle" x="179.5" y="-251" font-family="Helvetica,sans-Serif" font-size="10.00"> +sstring</text>
</g>
<!-- Node4 -->
<g id="node4" class="node"><title>Node4</title>
<g id="a_node4"><a xlink:href="structfmt_1_1internal_1_1Value_1_1CustomValue.html" target="_top" xlink:title="{fmt::internal::Value\l::CustomValue\n|+ value\l+ format\l|}">
<polygon fill="none" stroke="black" points="128.5,-283 128.5,-362 227.5,-362 227.5,-283 128.5,-283"/>
<text text-anchor="start" x="136.5" y="-350" font-family="Helvetica,sans-Serif" font-size="10.00">fmt::internal::Value</text>
<text text-anchor="middle" x="178" y="-339" font-family="Helvetica,sans-Serif" font-size="10.00">::CustomValue</text>
<polyline fill="none" stroke="black" points="128.5,-332 227.5,-332 "/>
<text text-anchor="start" x="136.5" y="-320" font-family="Helvetica,sans-Serif" font-size="10.00">+ value</text>
<text text-anchor="start" x="136.5" y="-309" font-family="Helvetica,sans-Serif" font-size="10.00">+ format</text>
<polyline fill="none" stroke="black" points="128.5,-302 227.5,-302 "/>
<text text-anchor="middle" x="178" y="-290" font-family="Helvetica,sans-Serif" font-size="10.00"> </text>
</a>
</g>
</g>
<!-- Node4&#45;&gt;Node2 -->
<g id="edge3" class="edge"><title>Node4&#45;&gt;Node2</title>
<path fill="none" stroke="#404040" d="M209.802,-282.849C221.006,-269.231 234.01,-253.426 246.816,-237.862"/>
<polygon fill="none" stroke="#404040" points="247.122,-237.491 247.845,-230.316 254.746,-228.224 254.023,-235.399 247.122,-237.491"/>
<text text-anchor="middle" x="257" y="-251" font-family="Helvetica,sans-Serif" font-size="10.00"> +custom</text>
</g>
<!-- Node5 -->
<g id="node5" class="node"><title>Node5</title>
<g id="a_node5"><a xlink:href="structfmt_1_1internal_1_1Value_1_1StringValue.html" target="_top" xlink:title="{fmt::internal::Value\l::StringValue\&lt; wchar_t \&gt;\n|+ value\l+ size\l|}">
<polygon fill="none" stroke="black" points="245.5,-283 245.5,-362 370.5,-362 370.5,-283 245.5,-283"/>
<text text-anchor="start" x="253.5" y="-350" font-family="Helvetica,sans-Serif" font-size="10.00">fmt::internal::Value</text>
<text text-anchor="middle" x="308" y="-339" font-family="Helvetica,sans-Serif" font-size="10.00">::StringValue&lt; wchar_t &gt;</text>
<polyline fill="none" stroke="black" points="245.5,-332 370.5,-332 "/>
<text text-anchor="start" x="253.5" y="-320" font-family="Helvetica,sans-Serif" font-size="10.00">+ value</text>
<text text-anchor="start" x="253.5" y="-309" font-family="Helvetica,sans-Serif" font-size="10.00">+ size</text>
<polyline fill="none" stroke="black" points="245.5,-302 370.5,-302 "/>
<text text-anchor="middle" x="308" y="-290" font-family="Helvetica,sans-Serif" font-size="10.00"> </text>
</a>
</g>
</g>
<!-- Node5&#45;&gt;Node2 -->
<g id="edge4" class="edge"><title>Node5&#45;&gt;Node2</title>
<path fill="none" stroke="#404040" d="M308,-282.849C308,-270.483 308,-256.315 308,-242.161"/>
<polygon fill="none" stroke="#404040" points="308,-241.772 304,-235.772 308,-229.772 312,-235.772 308,-241.772"/>
<text text-anchor="middle" x="328.5" y="-251" font-family="Helvetica,sans-Serif" font-size="10.00"> +wstring</text>
</g>
<!-- Node6 -->
<g id="node6" class="node"><title>Node6</title>
<g id="a_node6"><a xlink:href="structfmt_1_1internal_1_1Value_1_1StringValue.html" target="_top" xlink:title="{fmt::internal::Value\l::StringValue\&lt; unsigned\l char \&gt;\n|+ value\l+ size\l|}">
<polygon fill="none" stroke="black" points="388.5,-277.5 388.5,-367.5 509.5,-367.5 509.5,-277.5 388.5,-277.5"/>
<text text-anchor="start" x="396.5" y="-355.5" font-family="Helvetica,sans-Serif" font-size="10.00">fmt::internal::Value</text>
<text text-anchor="start" x="396.5" y="-344.5" font-family="Helvetica,sans-Serif" font-size="10.00">::StringValue&lt; unsigned</text>
<text text-anchor="middle" x="449" y="-333.5" font-family="Helvetica,sans-Serif" font-size="10.00"> char &gt;</text>
<polyline fill="none" stroke="black" points="388.5,-326.5 509.5,-326.5 "/>
<text text-anchor="start" x="396.5" y="-314.5" font-family="Helvetica,sans-Serif" font-size="10.00">+ value</text>
<text text-anchor="start" x="396.5" y="-303.5" font-family="Helvetica,sans-Serif" font-size="10.00">+ size</text>
<polyline fill="none" stroke="black" points="388.5,-296.5 509.5,-296.5 "/>
<text text-anchor="middle" x="449" y="-284.5" font-family="Helvetica,sans-Serif" font-size="10.00"> </text>
</a>
</g>
</g>
<!-- Node6&#45;&gt;Node2 -->
<g id="edge5" class="edge"><title>Node6&#45;&gt;Node2</title>
<path fill="none" stroke="#404040" d="M409.724,-277.488C397.122,-263.367 382.852,-247.377 369.072,-231.935"/>
<polygon fill="none" stroke="#404040" points="369.021,-231.879 362.042,-230.065 361.031,-222.925 368.011,-224.739 369.021,-231.879"/>
<text text-anchor="middle" x="411.5" y="-251" font-family="Helvetica,sans-Serif" font-size="10.00"> +ustring</text>
</g>
<!-- Node7 -->
<g id="node7" class="node"><title>Node7</title>
<g id="a_node7"><a xlink:href="structfmt_1_1internal_1_1Value_1_1StringValue.html" target="_top" xlink:title="{fmt::internal::Value\l::StringValue\&lt; char \&gt;\n|+ value\l+ size\l|}">
<polygon fill="none" stroke="black" points="528,-283 528,-362 638,-362 638,-283 528,-283"/>
<text text-anchor="start" x="536" y="-350" font-family="Helvetica,sans-Serif" font-size="10.00">fmt::internal::Value</text>
<text text-anchor="middle" x="583" y="-339" font-family="Helvetica,sans-Serif" font-size="10.00">::StringValue&lt; char &gt;</text>
<polyline fill="none" stroke="black" points="528,-332 638,-332 "/>
<text text-anchor="start" x="536" y="-320" font-family="Helvetica,sans-Serif" font-size="10.00">+ value</text>
<text text-anchor="start" x="536" y="-309" font-family="Helvetica,sans-Serif" font-size="10.00">+ size</text>
<polyline fill="none" stroke="black" points="528,-302 638,-302 "/>
<text text-anchor="middle" x="583" y="-290" font-family="Helvetica,sans-Serif" font-size="10.00"> </text>
</a>
</g>
</g>
<!-- Node7&#45;&gt;Node2 -->
<g id="edge6" class="edge"><title>Node7&#45;&gt;Node2</title>
<path fill="none" stroke="#404040" d="M527.941,-283.227C524.6,-281.085 521.269,-278.995 518,-277 469.999,-247.708 413.886,-217.581 371.745,-195.734"/>
<polygon fill="none" stroke="#404040" points="371.735,-195.729 364.568,-196.53 361.072,-190.223 368.239,-189.422 371.735,-195.729"/>
<text text-anchor="middle" x="502" y="-251" font-family="Helvetica,sans-Serif" font-size="10.00"> +string</text>
</g>
</g>
</svg>
