<?xml version="1.0" encoding="UTF-8" standalone="no"?>
<!DOCTYPE svg PUBLIC "-//W3C//DTD SVG 1.1//EN"
 "http://www.w3.org/Graphics/SVG/1.1/DTD/svg11.dtd">
<!-- Generated by graphviz version 2.38.0 (20140413.2041)
 -->
<!-- Title: fmt::internal::NamedArgWithType&lt; Char, T &gt; Pages: 1 -->
<svg width="646pt" height="588pt"
 viewBox="0.00 0.00 646.00 588.00" xmlns="http://www.w3.org/2000/svg" xmlns:xlink="http://www.w3.org/1999/xlink">
<g id="graph0" class="graph" transform="scale(1 1) rotate(0) translate(4 584)">
<title>fmt::internal::NamedArgWithType&lt; Char, T &gt;</title>
<!-- Node1 -->
<g id="node1" class="node"><title>Node1</title>
<polygon fill="#bfbfbf" stroke="black" points="237.5,-0.5 237.5,-68.5 378.5,-68.5 378.5,-0.5 237.5,-0.5"/>
<text text-anchor="start" x="245.5" y="-56.5" font-family="Helvetica,sans-Serif" font-size="10.00">fmt::internal::NamedArgWith</text>
<text text-anchor="middle" x="308" y="-45.5" font-family="Helvetica,sans-Serif" font-size="10.00">Type&lt; Char, T &gt;</text>
<polyline fill="none" stroke="black" points="237.5,-38.5 378.5,-38.5 "/>
<text text-anchor="middle" x="308" y="-26.5" font-family="Helvetica,sans-Serif" font-size="10.00"> </text>
<polyline fill="none" stroke="black" points="237.5,-19.5 378.5,-19.5 "/>
<text text-anchor="start" x="245.5" y="-7.5" font-family="Helvetica,sans-Serif" font-size="10.00">+ NamedArgWithType()</text>
</g>
<!-- Node2 -->
<g id="node2" class="node"><title>Node2</title>
<g id="a_node2"><a xlink:href="structfmt_1_1internal_1_1NamedArg.html" target="_top" xlink:title="{fmt::internal::NamedArg\l\&lt; Char \&gt;\n|+ name\l|+ NamedArg()\l}">
<polygon fill="none" stroke="black" points="247.5,-106.5 247.5,-174.5 368.5,-174.5 368.5,-106.5 247.5,-106.5"/>
<text text-anchor="start" x="255.5" y="-162.5" font-family="Helvetica,sans-Serif" font-size="10.00">fmt::internal::NamedArg</text>
<text text-anchor="middle" x="308" y="-151.5" font-family="Helvetica,sans-Serif" font-size="10.00">&lt; Char &gt;</text>
<polyline fill="none" stroke="black" points="247.5,-144.5 368.5,-144.5 "/>
<text text-anchor="start" x="255.5" y="-132.5" font-family="Helvetica,sans-Serif" font-size="10.00">+ name</text>
<polyline fill="none" stroke="black" points="247.5,-125.5 368.5,-125.5 "/>
<text text-anchor="start" x="255.5" y="-113.5" font-family="Helvetica,sans-Serif" font-size="10.00">+ NamedArg()</text>
</a>
</g>
</g>
<!-- Node2&#45;&gt;Node1 -->
<g id="edge1" class="edge"><title>Node2&#45;&gt;Node1</title>
<path fill="none" stroke="midnightblue" d="M308,-96.1737C308,-87.0025 308,-77.4608 308,-68.7336"/>
<polygon fill="none" stroke="midnightblue" points="304.5,-96.3078 308,-106.308 311.5,-96.3078 304.5,-96.3078"/>
</g>
<!-- Node3 -->
<g id="node3" class="node"><title>Node3</title>
<g id="a_node3"><a xlink:href="structfmt_1_1internal_1_1Arg.html" target="_top" xlink:title="{fmt::internal::Arg\n|+ type\l|}">
<polygon fill="none" stroke="black" points="263.5,-212.5 263.5,-269.5 352.5,-269.5 352.5,-212.5 263.5,-212.5"/>
<text text-anchor="middle" x="308" y="-257.5" font-family="Helvetica,sans-Serif" font-size="10.00">fmt::internal::Arg</text>
<polyline fill="none" stroke="black" points="263.5,-250.5 352.5,-250.5 "/>
<text text-anchor="start" x="271.5" y="-238.5" font-family="Helvetica,sans-Serif" font-size="10.00">+ type</text>
<polyline fill="none" stroke="black" points="263.5,-231.5 352.5,-231.5 "/>
<text text-anchor="middle" x="308" y="-219.5" font-family="Helvetica,sans-Serif" font-size="10.00"> </text>
</a>
</g>
</g>
<!-- Node3&#45;&gt;Node2 -->
<g id="edge2" class="edge"><title>Node3&#45;&gt;Node2</title>
<path fill="none" stroke="midnightblue" d="M308,-202.007C308,-192.962 308,-183.383 308,-174.578"/>
<polygon fill="none" stroke="midnightblue" points="304.5,-202.3 308,-212.3 311.5,-202.3 304.5,-202.3"/>
</g>
<!-- Node4 -->
<g id="node4" class="node"><title>Node4</title>
<g id="a_node4"><a xlink:href="structfmt_1_1internal_1_1Value.html" target="_top" xlink:title="{fmt::internal::Value\n|+ int_value\l+ uint_value\l+ long_long_value\l+ ulong_long_value\l+ double_value\l+ long_double_value\l+ pointer\l+ @3\l|}">
<polygon fill="none" stroke="black" points="255,-307.5 255,-441.5 361,-441.5 361,-307.5 255,-307.5"/>
<text text-anchor="middle" x="308" y="-429.5" font-family="Helvetica,sans-Serif" font-size="10.00">fmt::internal::Value</text>
<polyline fill="none" stroke="black" points="255,-422.5 361,-422.5 "/>
<text text-anchor="start" x="263" y="-410.5" font-family="Helvetica,sans-Serif" font-size="10.00">+ int_value</text>
<text text-anchor="start" x="263" y="-399.5" font-family="Helvetica,sans-Serif" font-size="10.00">+ uint_value</text>
<text text-anchor="start" x="263" y="-388.5" font-family="Helvetica,sans-Serif" font-size="10.00">+ long_long_value</text>
<text text-anchor="start" x="263" y="-377.5" font-family="Helvetica,sans-Serif" font-size="10.00">+ ulong_long_value</text>
<text text-anchor="start" x="263" y="-366.5" font-family="Helvetica,sans-Serif" font-size="10.00">+ double_value</text>
<text text-anchor="start" x="263" y="-355.5" font-family="Helvetica,sans-Serif" font-size="10.00">+ long_double_value</text>
<text text-anchor="start" x="263" y="-344.5" font-family="Helvetica,sans-Serif" font-size="10.00">+ pointer</text>
<text text-anchor="start" x="263" y="-333.5" font-family="Helvetica,sans-Serif" font-size="10.00">+ @3</text>
<polyline fill="none" stroke="black" points="255,-326.5 361,-326.5 "/>
<text text-anchor="middle" x="308" y="-314.5" font-family="Helvetica,sans-Serif" font-size="10.00"> </text>
</a>
</g>
</g>
<!-- Node4&#45;&gt;Node3 -->
<g id="edge3" class="edge"><title>Node4&#45;&gt;Node3</title>
<path fill="none" stroke="midnightblue" d="M308,-297.117C308,-287.359 308,-277.922 308,-269.697"/>
<polygon fill="none" stroke="midnightblue" points="304.5,-297.365 308,-307.365 311.5,-297.365 304.5,-297.365"/>
</g>
<!-- Node5 -->
<g id="node5" class="node"><title>Node5</title>
<g id="a_node5"><a xlink:href="structfmt_1_1internal_1_1Value_1_1StringValue.html" target="_top" xlink:title="{fmt::internal::Value\l::StringValue\&lt; signed\l char \&gt;\n|+ value\l+ size\l|}">
<polygon fill="none" stroke="black" points="0,-489.5 0,-579.5 110,-579.5 110,-489.5 0,-489.5"/>
<text text-anchor="start" x="8" y="-567.5" font-family="Helvetica,sans-Serif" font-size="10.00">fmt::internal::Value</text>
<text text-anchor="start" x="8" y="-556.5" font-family="Helvetica,sans-Serif" font-size="10.00">::StringValue&lt; signed</text>
<text text-anchor="middle" x="55" y="-545.5" font-family="Helvetica,sans-Serif" font-size="10.00"> char &gt;</text>
<polyline fill="none" stroke="black" points="0,-538.5 110,-538.5 "/>
<text text-anchor="start" x="8" y="-526.5" font-family="Helvetica,sans-Serif" font-size="10.00">+ value</text>
<text text-anchor="start" x="8" y="-515.5" font-family="Helvetica,sans-Serif" font-size="10.00">+ size</text>
<polyline fill="none" stroke="black" points="0,-508.5 110,-508.5 "/>
<text text-anchor="middle" x="55" y="-496.5" font-family="Helvetica,sans-Serif" font-size="10.00"> </text>
</a>
</g>
</g>
<!-- Node5&#45;&gt;Node4 -->
<g id="edge4" class="edge"><title>Node5&#45;&gt;Node4</title>
<path fill="none" stroke="#404040" d="M110.349,-494.679C113.263,-492.741 116.159,-490.838 119,-489 160.095,-462.416 207.294,-434.07 244.244,-412.355"/>
<polygon fill="none" stroke="#404040" points="244.519,-412.195 247.673,-405.71 254.872,-406.127 251.718,-412.612 244.519,-412.195"/>
<text text-anchor="middle" x="179.5" y="-463" font-family="Helvetica,sans-Serif" font-size="10.00"> +sstring</text>
</g>
<!-- Node6 -->
<g id="node6" class="node"><title>Node6</title>
<g id="a_node6"><a xlink:href="structfmt_1_1internal_1_1Value_1_1CustomValue.html" target="_top" xlink:title="{fmt::internal::Value\l::CustomValue\n|+ value\l+ format\l|}">
<polygon fill="none" stroke="black" points="128.5,-495 128.5,-574 227.5,-574 227.5,-495 128.5,-495"/>
<text text-anchor="start" x="136.5" y="-562" font-family="Helvetica,sans-Serif" font-size="10.00">fmt::internal::Value</text>
<text text-anchor="middle" x="178" y="-551" font-family="Helvetica,sans-Serif" font-size="10.00">::CustomValue</text>
<polyline fill="none" stroke="black" points="128.5,-544 227.5,-544 "/>
<text text-anchor="start" x="136.5" y="-532" font-family="Helvetica,sans-Serif" font-size="10.00">+ value</text>
<text text-anchor="start" x="136.5" y="-521" font-family="Helvetica,sans-Serif" font-size="10.00">+ format</text>
<polyline fill="none" stroke="black" points="128.5,-514 227.5,-514 "/>
<text text-anchor="middle" x="178" y="-502" font-family="Helvetica,sans-Serif" font-size="10.00"> </text>
</a>
</g>
</g>
<!-- Node6&#45;&gt;Node4 -->
<g id="edge5" class="edge"><title>Node6&#45;&gt;Node4</title>
<path fill="none" stroke="#404040" d="M209.802,-494.849C221.006,-481.231 234.01,-465.426 246.816,-449.862"/>
<polygon fill="none" stroke="#404040" points="247.122,-449.491 247.845,-442.316 254.746,-440.224 254.023,-447.399 247.122,-449.491"/>
<text text-anchor="middle" x="257" y="-463" font-family="Helvetica,sans-Serif" font-size="10.00"> +custom</text>
</g>
<!-- Node7 -->
<g id="node7" class="node"><title>Node7</title>
<g id="a_node7"><a xlink:href="structfmt_1_1internal_1_1Value_1_1StringValue.html" target="_top" xlink:title="{fmt::internal::Value\l::StringValue\&lt; wchar_t \&gt;\n|+ value\l+ size\l|}">
<polygon fill="none" stroke="black" points="245.5,-495 245.5,-574 370.5,-574 370.5,-495 245.5,-495"/>
<text text-anchor="start" x="253.5" y="-562" font-family="Helvetica,sans-Serif" font-size="10.00">fmt::internal::Value</text>
<text text-anchor="middle" x="308" y="-551" font-family="Helvetica,sans-Serif" font-size="10.00">::StringValue&lt; wchar_t &gt;</text>
<polyline fill="none" stroke="black" points="245.5,-544 370.5,-544 "/>
<text text-anchor="start" x="253.5" y="-532" font-family="Helvetica,sans-Serif" font-size="10.00">+ value</text>
<text text-anchor="start" x="253.5" y="-521" font-family="Helvetica,sans-Serif" font-size="10.00">+ size</text>
<polyline fill="none" stroke="black" points="245.5,-514 370.5,-514 "/>
<text text-anchor="middle" x="308" y="-502" font-family="Helvetica,sans-Serif" font-size="10.00"> </text>
</a>
</g>
</g>
<!-- Node7&#45;&gt;Node4 -->
<g id="edge6" class="edge"><title>Node7&#45;&gt;Node4</title>
<path fill="none" stroke="#404040" d="M308,-494.849C308,-482.483 308,-468.315 308,-454.161"/>
<polygon fill="none" stroke="#404040" points="308,-453.772 304,-447.772 308,-441.772 312,-447.772 308,-453.772"/>
<text text-anchor="middle" x="328.5" y="-463" font-family="Helvetica,sans-Serif" font-size="10.00"> +wstring</text>
</g>
<!-- Node8 -->
<g id="node8" class="node"><title>Node8</title>
<g id="a_node8"><a xlink:href="structfmt_1_1internal_1_1Value_1_1StringValue.html" target="_top" xlink:title="{fmt::internal::Value\l::StringValue\&lt; unsigned\l char \&gt;\n|+ value\l+ size\l|}">
<polygon fill="none" stroke="black" points="388.5,-489.5 388.5,-579.5 509.5,-579.5 509.5,-489.5 388.5,-489.5"/>
<text text-anchor="start" x="396.5" y="-567.5" font-family="Helvetica,sans-Serif" font-size="10.00">fmt::internal::Value</text>
<text text-anchor="start" x="396.5" y="-556.5" font-family="Helvetica,sans-Serif" font-size="10.00">::StringValue&lt; unsigned</text>
<text text-anchor="middle" x="449" y="-545.5" font-family="Helvetica,sans-Serif" font-size="10.00"> char &gt;</text>
<polyline fill="none" stroke="black" points="388.5,-538.5 509.5,-538.5 "/>
<text text-anchor="start" x="396.5" y="-526.5" font-family="Helvetica,sans-Serif" font-size="10.00">+ value</text>
<text text-anchor="start" x="396.5" y="-515.5" font-family="Helvetica,sans-Serif" font-size="10.00">+ size</text>
<polyline fill="none" stroke="black" points="388.5,-508.5 509.5,-508.5 "/>
<text text-anchor="middle" x="449" y="-496.5" font-family="Helvetica,sans-Serif" font-size="10.00"> </text>
</a>
</g>
</g>
<!-- Node8&#45;&gt;Node4 -->
<g id="edge7" class="edge"><title>Node8&#45;&gt;Node4</title>
<path fill="none" stroke="#404040" d="M409.724,-489.488C397.122,-475.367 382.852,-459.377 369.072,-443.935"/>
<polygon fill="none" stroke="#404040" points="369.021,-443.879 362.042,-442.065 361.031,-434.925 368.011,-436.739 369.021,-443.879"/>
<text text-anchor="middle" x="411.5" y="-463" font-family="Helvetica,sans-Serif" font-size="10.00"> +ustring</text>
</g>
<!-- Node9 -->
<g id="node9" class="node"><title>Node9</title>
<g id="a_node9"><a xlink:href="structfmt_1_1internal_1_1Value_1_1StringValue.html" target="_top" xlink:title="{fmt::internal::Value\l::StringValue\&lt; char \&gt;\n|+ value\l+ size\l|}">
<polygon fill="none" stroke="black" points="528,-495 528,-574 638,-574 638,-495 528,-495"/>
<text text-anchor="start" x="536" y="-562" font-family="Helvetica,sans-Serif" font-size="10.00">fmt::internal::Value</text>
<text text-anchor="middle" x="583" y="-551" font-family="Helvetica,sans-Serif" font-size="10.00">::StringValue&lt; char &gt;</text>
<polyline fill="none" stroke="black" points="528,-544 638,-544 "/>
<text text-anchor="start" x="536" y="-532" font-family="Helvetica,sans-Serif" font-size="10.00">+ value</text>
<text text-anchor="start" x="536" y="-521" font-family="Helvetica,sans-Serif" font-size="10.00">+ size</text>
<polyline fill="none" stroke="black" points="528,-514 638,-514 "/>
<text text-anchor="middle" x="583" y="-502" font-family="Helvetica,sans-Serif" font-size="10.00"> </text>
</a>
</g>
</g>
<!-- Node9&#45;&gt;Node4 -->
<g id="edge8" class="edge"><title>Node9&#45;&gt;Node4</title>
<path fill="none" stroke="#404040" d="M527.941,-495.227C524.6,-493.085 521.269,-490.995 518,-489 469.999,-459.708 413.886,-429.581 371.745,-407.734"/>
<polygon fill="none" stroke="#404040" points="371.735,-407.729 364.568,-408.53 361.072,-402.223 368.239,-401.422 371.735,-407.729"/>
<text text-anchor="middle" x="502" y="-463" font-family="Helvetica,sans-Serif" font-size="10.00"> +string</text>
</g>
</g>
</svg>
