<?xml version="1.0" encoding="UTF-8" standalone="no"?>
<!DOCTYPE svg PUBLIC "-//W3C//DTD SVG 1.1//EN"
 "http://www.w3.org/Graphics/SVG/1.1/DTD/svg11.dtd">
<!-- Generated by graphviz version 2.38.0 (20140413.2041)
 -->
<!-- Title: XBot::FSM::Message Pages: 1 -->
<svg width="119pt" height="160pt"
 viewBox="0.00 0.00 119.00 160.00" xmlns="http://www.w3.org/2000/svg" xmlns:xlink="http://www.w3.org/1999/xlink">
<g id="graph0" class="graph" transform="scale(1 1) rotate(0) translate(4 156)">
<title>XBot::FSM::Message</title>
<!-- Node1 -->
<g id="node1" class="node"><title>Node1</title>
<polygon fill="#bfbfbf" stroke="black" points="-7.10543e-15,-94.5 -7.10543e-15,-151.5 111,-151.5 111,-94.5 -7.10543e-15,-94.5"/>
<text text-anchor="middle" x="55.5" y="-139.5" font-family="Helvetica,sans-Serif" font-size="10.00">XBot::FSM::Message</text>
<polyline fill="none" stroke="black" points="-7.10543e-15,-132.5 111,-132.5 "/>
<text text-anchor="start" x="8" y="-120.5" font-family="Helvetica,sans-Serif" font-size="10.00">+ message</text>
<polyline fill="none" stroke="black" points="-7.10543e-15,-113.5 111,-113.5 "/>
<text text-anchor="middle" x="55.5" y="-101.5" font-family="Helvetica,sans-Serif" font-size="10.00"> </text>
</g>
<!-- Node2 -->
<g id="node2" class="node"><title>Node2</title>
<g id="a_node2"><a xlink:href="structXBot_1_1FSM_1_1Event.html" target="_top" xlink:title="Base class for defining custom events which states can react to. ">
<polygon fill="none" stroke="black" points="7,-0.5 7,-57.5 104,-57.5 104,-0.5 7,-0.5"/>
<text text-anchor="middle" x="55.5" y="-45.5" font-family="Helvetica,sans-Serif" font-size="10.00">XBot::FSM::Event</text>
<polyline fill="none" stroke="black" points="7,-38.5 104,-38.5 "/>
<text text-anchor="start" x="15" y="-26.5" font-family="Helvetica,sans-Serif" font-size="10.00">+ name</text>
<polyline fill="none" stroke="black" points="7,-19.5 104,-19.5 "/>
<text text-anchor="middle" x="55.5" y="-7.5" font-family="Helvetica,sans-Serif" font-size="10.00"> </text>
</a>
</g>
</g>
<!-- Node1&#45;&gt;Node2 -->
<g id="edge1" class="edge"><title>Node1&#45;&gt;Node2</title>
<path fill="none" stroke="midnightblue" d="M55.5,-84.2092C55.5,-75.2929 55.5,-65.9513 55.5,-57.5836"/>
<polygon fill="none" stroke="midnightblue" points="52.0001,-84.3969 55.5,-94.397 59.0001,-84.397 52.0001,-84.3969"/>
</g>
</g>
</svg>
