<?xml version="1.0" encoding="UTF-8" standalone="no"?>
<!DOCTYPE svg PUBLIC "-//W3C//DTD SVG 1.1//EN"
 "http://www.w3.org/Graphics/SVG/1.1/DTD/svg11.dtd">
<!-- Generated by graphviz version 2.38.0 (20140413.2041)
 -->
<!-- Title: /home/lucamuratore/advr&#45;superbuild/external/XBotInterface/include/XBotInterface/TypedefAndEnums.h Pages: 1 -->
<svg width="492pt" height="117pt"
 viewBox="0.00 0.00 491.50 117.00" xmlns="http://www.w3.org/2000/svg" xmlns:xlink="http://www.w3.org/1999/xlink">
<g id="graph0" class="graph" transform="scale(1 1) rotate(0) translate(4 113)">
<title>/home/lucamuratore/advr&#45;superbuild/external/XBotInterface/include/XBotInterface/TypedefAndEnums.h</title>
<!-- Node1 -->
<g id="node1" class="node"><title>Node1</title>
<polygon fill="#bfbfbf" stroke="black" points="118.5,-56.5 118.5,-108.5 294.5,-108.5 294.5,-56.5 118.5,-56.5"/>
<text text-anchor="start" x="126.5" y="-96.5" font-family="Helvetica,sans-Serif" font-size="10.00">/home/lucamuratore</text>
<text text-anchor="start" x="126.5" y="-85.5" font-family="Helvetica,sans-Serif" font-size="10.00">/advr&#45;superbuild/external</text>
<text text-anchor="start" x="126.5" y="-74.5" font-family="Helvetica,sans-Serif" font-size="10.00">/XBotInterface/include/XBotInterface</text>
<text text-anchor="middle" x="206.5" y="-63.5" font-family="Helvetica,sans-Serif" font-size="10.00">/TypedefAndEnums.h</text>
</g>
<!-- Node2 -->
<g id="node2" class="node"><title>Node2</title>
<polygon fill="none" stroke="#bfbfbf" points="0,-0.5 0,-19.5 35,-19.5 35,-0.5 0,-0.5"/>
<text text-anchor="middle" x="17.5" y="-7.5" font-family="Helvetica,sans-Serif" font-size="10.00">map</text>
</g>
<!-- Node1&#45;&gt;Node2 -->
<g id="edge1" class="edge"><title>Node1&#45;&gt;Node2</title>
<path fill="none" stroke="midnightblue" d="M139.334,-56.4458C106.695,-44.2711 69.2965,-30.3209 44.6397,-21.1235"/>
<polygon fill="midnightblue" stroke="midnightblue" points="45.8122,-17.8254 35.2196,-17.6097 43.3657,-24.384 45.8122,-17.8254"/>
</g>
<!-- Node3 -->
<g id="node3" class="node"><title>Node3</title>
<polygon fill="none" stroke="#bfbfbf" points="53,-0.5 53,-19.5 136,-19.5 136,-0.5 53,-0.5"/>
<text text-anchor="middle" x="94.5" y="-7.5" font-family="Helvetica,sans-Serif" font-size="10.00">unordered_map</text>
</g>
<!-- Node1&#45;&gt;Node3 -->
<g id="edge2" class="edge"><title>Node1&#45;&gt;Node3</title>
<path fill="none" stroke="midnightblue" d="M166.698,-56.4458C149.883,-45.8619 130.938,-33.9362 116.674,-24.9578"/>
<polygon fill="midnightblue" stroke="midnightblue" points="118.374,-21.8921 108.046,-19.527 114.645,-27.8162 118.374,-21.8921"/>
</g>
<!-- Node4 -->
<g id="node4" class="node"><title>Node4</title>
<polygon fill="none" stroke="#bfbfbf" points="154,-0.5 154,-19.5 195,-19.5 195,-0.5 154,-0.5"/>
<text text-anchor="middle" x="174.5" y="-7.5" font-family="Helvetica,sans-Serif" font-size="10.00">string</text>
</g>
<!-- Node1&#45;&gt;Node4 -->
<g id="edge3" class="edge"><title>Node1&#45;&gt;Node4</title>
<path fill="none" stroke="midnightblue" d="M195.128,-56.4458C190.99,-47.3294 186.4,-37.2174 182.603,-28.8509"/>
<polygon fill="midnightblue" stroke="midnightblue" points="185.767,-27.3547 178.447,-19.6955 179.393,-30.248 185.767,-27.3547"/>
</g>
<!-- Node5 -->
<g id="node5" class="node"><title>Node5</title>
<polygon fill="none" stroke="#bfbfbf" points="213.5,-0.5 213.5,-19.5 265.5,-19.5 265.5,-0.5 213.5,-0.5"/>
<text text-anchor="middle" x="239.5" y="-7.5" font-family="Helvetica,sans-Serif" font-size="10.00">memory</text>
</g>
<!-- Node1&#45;&gt;Node5 -->
<g id="edge4" class="edge"><title>Node1&#45;&gt;Node5</title>
<path fill="none" stroke="midnightblue" d="M218.227,-56.4458C222.495,-47.3294 227.228,-37.2174 231.144,-28.8509"/>
<polygon fill="midnightblue" stroke="midnightblue" points="234.36,-30.2362 235.43,-19.6955 228.02,-27.2686 234.36,-30.2362"/>
</g>
<!-- Node6 -->
<g id="node6" class="node"><title>Node6</title>
<polygon fill="none" stroke="#bfbfbf" points="283.5,-0.5 283.5,-19.5 361.5,-19.5 361.5,-0.5 283.5,-0.5"/>
<text text-anchor="middle" x="322.5" y="-7.5" font-family="Helvetica,sans-Serif" font-size="10.00">boost/any.hpp</text>
</g>
<!-- Node1&#45;&gt;Node6 -->
<g id="edge5" class="edge"><title>Node1&#45;&gt;Node6</title>
<path fill="none" stroke="midnightblue" d="M247.724,-56.4458C265.139,-45.8619 284.761,-33.9362 299.534,-24.9578"/>
<polygon fill="midnightblue" stroke="midnightblue" points="301.742,-27.7116 308.47,-19.527 298.106,-21.7297 301.742,-27.7116"/>
</g>
<!-- Node7 -->
<g id="node7" class="node"><title>Node7</title>
<polygon fill="none" stroke="#bfbfbf" points="379.5,-0.5 379.5,-19.5 483.5,-19.5 483.5,-0.5 379.5,-0.5"/>
<text text-anchor="middle" x="431.5" y="-7.5" font-family="Helvetica,sans-Serif" font-size="10.00">eigen3/Eigen/Dense</text>
</g>
<!-- Node1&#45;&gt;Node7 -->
<g id="edge6" class="edge"><title>Node1&#45;&gt;Node7</title>
<path fill="none" stroke="midnightblue" d="M286.46,-56.4458C323.295,-44.9043 365.221,-31.7673 394.49,-22.5963"/>
<polygon fill="midnightblue" stroke="midnightblue" points="395.79,-25.8569 404.286,-19.527 393.697,-19.1771 395.79,-25.8569"/>
</g>
</g>
</svg>
