<?xml version="1.0" encoding="UTF-8" standalone="no"?>
<!DOCTYPE svg PUBLIC "-//W3C//DTD SVG 1.1//EN"
 "http://www.w3.org/Graphics/SVG/1.1/DTD/svg11.dtd">
<!-- Generated by graphviz version 2.38.0 (20140413.2041)
 -->
<!-- Title: /home/lucamuratore/advr&#45;superbuild/external/XBotInterface/include/spdlog/sinks/ansicolor_sink.h Pages: 1 -->
<svg width="1628pt" height="609pt"
 viewBox="0.00 0.00 1627.50 609.00" xmlns="http://www.w3.org/2000/svg" xmlns:xlink="http://www.w3.org/1999/xlink">
<g id="graph0" class="graph" transform="scale(1 1) rotate(0) translate(4 605)">
<title>/home/lucamuratore/advr&#45;superbuild/external/XBotInterface/include/spdlog/sinks/ansicolor_sink.h</title>
<!-- Node1 -->
<g id="node1" class="node"><title>Node1</title>
<polygon fill="#bfbfbf" stroke="black" points="1393.5,-548.5 1393.5,-600.5 1538.5,-600.5 1538.5,-548.5 1393.5,-548.5"/>
<text text-anchor="start" x="1401.5" y="-588.5" font-family="Helvetica,sans-Serif" font-size="10.00">/home/lucamuratore</text>
<text text-anchor="start" x="1401.5" y="-577.5" font-family="Helvetica,sans-Serif" font-size="10.00">/advr&#45;superbuild/external</text>
<text text-anchor="start" x="1401.5" y="-566.5" font-family="Helvetica,sans-Serif" font-size="10.00">/XBotInterface/include/spdlog</text>
<text text-anchor="middle" x="1466" y="-555.5" font-family="Helvetica,sans-Serif" font-size="10.00">/sinks/ansicolor_sink.h</text>
</g>
<!-- Node2 -->
<g id="node2" class="node"><title>Node2</title>
<g id="a_node2"><a xlink:href="base__sink_8h.html" target="_top" xlink:title="spdlog/sinks/base_sink.h">
<polygon fill="none" stroke="black" points="1086.5,-492.5 1086.5,-511.5 1213.5,-511.5 1213.5,-492.5 1086.5,-492.5"/>
<text text-anchor="middle" x="1150" y="-499.5" font-family="Helvetica,sans-Serif" font-size="10.00">spdlog/sinks/base_sink.h</text>
</a>
</g>
</g>
<!-- Node1&#45;&gt;Node2 -->
<g id="edge1" class="edge"><title>Node1&#45;&gt;Node2</title>
<path fill="none" stroke="midnightblue" d="M1393.11,-557.237C1333.3,-543.894 1250.3,-525.377 1198.4,-513.799"/>
<polygon fill="midnightblue" stroke="midnightblue" points="1198.98,-510.34 1188.45,-511.579 1197.45,-517.172 1198.98,-510.34"/>
</g>
<!-- Node5 -->
<g id="node5" class="node"><title>Node5</title>
<g id="a_node5"><a xlink:href="common_8h.html" target="_top" xlink:title="spdlog/common.h">
<polygon fill="none" stroke="black" points="1149,-190.5 1149,-209.5 1243,-209.5 1243,-190.5 1149,-190.5"/>
<text text-anchor="middle" x="1196" y="-197.5" font-family="Helvetica,sans-Serif" font-size="10.00">spdlog/common.h</text>
</a>
</g>
</g>
<!-- Node1&#45;&gt;Node5 -->
<g id="edge65" class="edge"><title>Node1&#45;&gt;Node5</title>
<path fill="none" stroke="midnightblue" d="M1435.08,-548.35C1410.08,-525.001 1379,-487.781 1379,-447 1379,-447 1379,-447 1379,-316.5 1379,-256.02 1306.64,-225.932 1252.92,-211.928"/>
<polygon fill="midnightblue" stroke="midnightblue" points="1253.68,-208.51 1243.13,-209.496 1251.99,-215.303 1253.68,-208.51"/>
</g>
<!-- Node6 -->
<g id="node6" class="node"><title>Node6</title>
<polygon fill="none" stroke="#bfbfbf" points="985.5,-0.5 985.5,-19.5 1026.5,-19.5 1026.5,-0.5 985.5,-0.5"/>
<text text-anchor="middle" x="1006" y="-7.5" font-family="Helvetica,sans-Serif" font-size="10.00">string</text>
</g>
<!-- Node1&#45;&gt;Node6 -->
<g id="edge66" class="edge"><title>Node1&#45;&gt;Node6</title>
<path fill="none" stroke="midnightblue" d="M1498.24,-548.344C1524.06,-525.126 1556,-488.103 1556,-447 1556,-447 1556,-447 1556,-137.5 1556,-30.1248 1152.83,-13.8845 1036.86,-11.4341"/>
<polygon fill="midnightblue" stroke="midnightblue" points="1036.62,-7.92903 1026.56,-11.2374 1036.49,-14.9278 1036.62,-7.92903"/>
</g>
<!-- Node38 -->
<g id="node38" class="node"><title>Node38</title>
<polygon fill="none" stroke="#bfbfbf" points="1584.5,-492.5 1584.5,-511.5 1619.5,-511.5 1619.5,-492.5 1584.5,-492.5"/>
<text text-anchor="middle" x="1602" y="-499.5" font-family="Helvetica,sans-Serif" font-size="10.00">map</text>
</g>
<!-- Node1&#45;&gt;Node38 -->
<g id="edge67" class="edge"><title>Node1&#45;&gt;Node38</title>
<path fill="none" stroke="midnightblue" d="M1514.33,-548.446C1535.33,-537.56 1559.07,-525.254 1576.54,-516.196"/>
<polygon fill="midnightblue" stroke="midnightblue" points="1578.28,-519.237 1585.55,-511.527 1575.06,-513.022 1578.28,-519.237"/>
</g>
<!-- Node3 -->
<g id="node3" class="node"><title>Node3</title>
<g id="a_node3"><a xlink:href="sink_8h.html" target="_top" xlink:title="spdlog/sinks/sink.h">
<polygon fill="none" stroke="black" points="1028.5,-375 1028.5,-394 1129.5,-394 1129.5,-375 1028.5,-375"/>
<text text-anchor="middle" x="1079" y="-382" font-family="Helvetica,sans-Serif" font-size="10.00">spdlog/sinks/sink.h</text>
</a>
</g>
</g>
<!-- Node2&#45;&gt;Node3 -->
<g id="edge2" class="edge"><title>Node2&#45;&gt;Node3</title>
<path fill="none" stroke="midnightblue" d="M1144.66,-492.319C1133.05,-473.422 1105.28,-428.248 1089.83,-403.121"/>
<polygon fill="midnightblue" stroke="midnightblue" points="1092.62,-400.968 1084.4,-394.282 1086.65,-404.634 1092.62,-400.968"/>
</g>
<!-- Node4 -->
<g id="node4" class="node"><title>Node4</title>
<g id="a_node4"><a xlink:href="log__msg_8h.html" target="_top" xlink:title="spdlog/details/log\l_msg.h">
<polygon fill="none" stroke="black" points="895,-302.5 895,-332.5 987,-332.5 987,-302.5 895,-302.5"/>
<text text-anchor="start" x="903" y="-320.5" font-family="Helvetica,sans-Serif" font-size="10.00">spdlog/details/log</text>
<text text-anchor="middle" x="941" y="-309.5" font-family="Helvetica,sans-Serif" font-size="10.00">_msg.h</text>
</a>
</g>
</g>
<!-- Node2&#45;&gt;Node4 -->
<g id="edge63" class="edge"><title>Node2&#45;&gt;Node4</title>
<path fill="none" stroke="midnightblue" d="M1137.59,-492.391C1113.75,-475.64 1060.22,-437.047 1019,-400 997.843,-380.987 975.587,-357.316 960.289,-340.392"/>
<polygon fill="midnightblue" stroke="midnightblue" points="962.653,-337.786 953.373,-332.675 957.441,-342.458 962.653,-337.786"/>
</g>
<!-- Node2&#45;&gt;Node5 -->
<g id="edge62" class="edge"><title>Node2&#45;&gt;Node5</title>
<path fill="none" stroke="midnightblue" d="M1156.01,-492.481C1168.48,-473.958 1196,-428.236 1196,-385.5 1196,-385.5 1196,-385.5 1196,-316.5 1196,-282.364 1196,-242.552 1196,-219.709"/>
<polygon fill="midnightblue" stroke="midnightblue" points="1199.5,-219.693 1196,-209.693 1192.5,-219.693 1199.5,-219.693"/>
</g>
<!-- Node35 -->
<g id="node35" class="node"><title>Node35</title>
<g id="a_node35"><a xlink:href="formatter_8h.html" target="_top" xlink:title="spdlog/formatter.h">
<polygon fill="none" stroke="black" points="254.5,-436.5 254.5,-455.5 349.5,-455.5 349.5,-436.5 254.5,-436.5"/>
<text text-anchor="middle" x="302" y="-443.5" font-family="Helvetica,sans-Serif" font-size="10.00">spdlog/formatter.h</text>
</a>
</g>
</g>
<!-- Node2&#45;&gt;Node35 -->
<g id="edge44" class="edge"><title>Node2&#45;&gt;Node35</title>
<path fill="none" stroke="midnightblue" d="M1086.26,-496.941C926.802,-486.787 512.472,-460.403 359.685,-450.673"/>
<polygon fill="midnightblue" stroke="midnightblue" points="359.776,-447.172 349.574,-450.029 359.331,-454.158 359.776,-447.172"/>
</g>
<!-- Node37 -->
<g id="node37" class="node"><title>Node37</title>
<polygon fill="none" stroke="#bfbfbf" points="1102,-308 1102,-327 1146,-327 1146,-308 1102,-308"/>
<text text-anchor="middle" x="1124" y="-315" font-family="Helvetica,sans-Serif" font-size="10.00">mutex</text>
</g>
<!-- Node2&#45;&gt;Node37 -->
<g id="edge64" class="edge"><title>Node2&#45;&gt;Node37</title>
<path fill="none" stroke="midnightblue" d="M1149.75,-492.278C1149.02,-471.029 1146.39,-414.953 1138,-369 1136.03,-358.205 1132.81,-346.373 1129.95,-336.876"/>
<polygon fill="midnightblue" stroke="midnightblue" points="1133.29,-335.829 1126.97,-327.327 1126.61,-337.916 1133.29,-335.829"/>
</g>
<!-- Node3&#45;&gt;Node4 -->
<g id="edge3" class="edge"><title>Node3&#45;&gt;Node4</title>
<path fill="none" stroke="midnightblue" d="M1060.67,-374.869C1040.24,-365.242 1006.58,-349.388 980.153,-336.942"/>
<polygon fill="midnightblue" stroke="midnightblue" points="981.321,-333.623 970.783,-332.528 978.338,-339.956 981.321,-333.623"/>
</g>
<!-- Node4&#45;&gt;Node5 -->
<g id="edge4" class="edge"><title>Node4&#45;&gt;Node5</title>
<path fill="none" stroke="midnightblue" d="M974.412,-302.422C997.884,-292.448 1029.97,-278.647 1058,-266 1096.87,-248.463 1141.44,-227.273 1169.16,-213.962"/>
<polygon fill="midnightblue" stroke="midnightblue" points="1170.73,-217.09 1178.22,-209.601 1167.69,-210.782 1170.73,-217.09"/>
</g>
<!-- Node4&#45;&gt;Node6 -->
<g id="edge42" class="edge"><title>Node4&#45;&gt;Node6</title>
<path fill="none" stroke="midnightblue" d="M956.256,-302.426C975.453,-283.566 1007.43,-248.035 1020,-210 1030.97,-176.793 1015.92,-72.135 1009.08,-29.424"/>
<polygon fill="midnightblue" stroke="midnightblue" points="1012.53,-28.8572 1007.46,-19.553 1005.62,-29.9868 1012.53,-28.8572"/>
</g>
<!-- Node24 -->
<g id="node24" class="node"><title>Node24</title>
<polygon fill="none" stroke="#bfbfbf" points="856,-0.5 856,-19.5 896,-19.5 896,-0.5 856,-0.5"/>
<text text-anchor="middle" x="876" y="-7.5" font-family="Helvetica,sans-Serif" font-size="10.00">utility</text>
</g>
<!-- Node4&#45;&gt;Node24 -->
<g id="edge43" class="edge"><title>Node4&#45;&gt;Node24</title>
<path fill="none" stroke="midnightblue" d="M937.952,-302.175C927.315,-252.181 891.841,-85.4515 879.935,-29.4934"/>
<polygon fill="midnightblue" stroke="midnightblue" points="883.33,-28.6322 877.825,-19.5796 876.483,-30.089 883.33,-28.6322"/>
</g>
<!-- Node26 -->
<g id="node26" class="node"><title>Node26</title>
<g id="a_node26"><a xlink:href="os_8h.html" target="_top" xlink:title="spdlog/details/os.h">
<polygon fill="none" stroke="black" points="611,-246.5 611,-265.5 709,-265.5 709,-246.5 611,-246.5"/>
<text text-anchor="middle" x="660" y="-253.5" font-family="Helvetica,sans-Serif" font-size="10.00">spdlog/details/os.h</text>
</a>
</g>
</g>
<!-- Node4&#45;&gt;Node26 -->
<g id="edge28" class="edge"><title>Node4&#45;&gt;Node26</title>
<path fill="none" stroke="midnightblue" d="M894.913,-306.741C844.116,-295.985 762.673,-278.74 710.265,-267.643"/>
<polygon fill="midnightblue" stroke="midnightblue" points="710.696,-264.157 700.188,-265.51 709.246,-271.005 710.696,-264.157"/>
</g>
<!-- Node5&#45;&gt;Node6 -->
<g id="edge5" class="edge"><title>Node5&#45;&gt;Node6</title>
<path fill="none" stroke="midnightblue" d="M1243.25,-199.133C1319.8,-198.23 1465.68,-191.491 1498,-154 1507,-143.564 1505.91,-134.28 1498,-123 1444.13,-46.1905 1135.97,-19.5065 1036.77,-12.8398"/>
<polygon fill="midnightblue" stroke="midnightblue" points="1036.98,-9.34658 1026.78,-12.1893 1036.53,-16.3318 1036.98,-9.34658"/>
</g>
<!-- Node7 -->
<g id="node7" class="node"><title>Node7</title>
<polygon fill="none" stroke="#bfbfbf" points="1416.5,-129 1416.5,-148 1489.5,-148 1489.5,-129 1416.5,-129"/>
<text text-anchor="middle" x="1453" y="-136" font-family="Helvetica,sans-Serif" font-size="10.00">initializer_list</text>
</g>
<!-- Node5&#45;&gt;Node7 -->
<g id="edge6" class="edge"><title>Node5&#45;&gt;Node7</title>
<path fill="none" stroke="midnightblue" d="M1242.4,-190.424C1285.35,-182.173 1350.86,-168.798 1407,-154 1410.42,-153.098 1413.97,-152.098 1417.51,-151.057"/>
<polygon fill="midnightblue" stroke="midnightblue" points="1418.79,-154.325 1427.34,-148.064 1416.75,-147.629 1418.79,-154.325"/>
</g>
<!-- Node8 -->
<g id="node8" class="node"><title>Node8</title>
<polygon fill="none" stroke="#bfbfbf" points="818,-129 818,-148 864,-148 864,-129 818,-129"/>
<text text-anchor="middle" x="841" y="-136" font-family="Helvetica,sans-Serif" font-size="10.00">chrono</text>
</g>
<!-- Node5&#45;&gt;Node8 -->
<g id="edge7" class="edge"><title>Node5&#45;&gt;Node8</title>
<path fill="none" stroke="midnightblue" d="M1148.86,-191.099C1075.96,-178.881 937.701,-155.708 874.291,-145.08"/>
<polygon fill="midnightblue" stroke="midnightblue" points="874.862,-141.627 864.421,-143.426 873.705,-148.53 874.862,-141.627"/>
</g>
<!-- Node9 -->
<g id="node9" class="node"><title>Node9</title>
<polygon fill="none" stroke="#bfbfbf" points="176,-0.5 176,-19.5 228,-19.5 228,-0.5 176,-0.5"/>
<text text-anchor="middle" x="202" y="-7.5" font-family="Helvetica,sans-Serif" font-size="10.00">memory</text>
</g>
<!-- Node5&#45;&gt;Node9 -->
<g id="edge8" class="edge"><title>Node5&#45;&gt;Node9</title>
<path fill="none" stroke="midnightblue" d="M1188.81,-190.384C1174.36,-173.796 1139.94,-137.763 1102,-123 982.065,-76.3358 651.306,-105.849 524,-87 418.674,-71.4053 297.049,-38.5463 237.955,-21.6019"/>
<polygon fill="midnightblue" stroke="midnightblue" points="238.582,-18.1402 228.004,-18.7291 236.64,-24.8655 238.582,-18.1402"/>
</g>
<!-- Node10 -->
<g id="node10" class="node"><title>Node10</title>
<polygon fill="none" stroke="#bfbfbf" points="1258,-62 1258,-81 1304,-81 1304,-62 1258,-62"/>
<text text-anchor="middle" x="1281" y="-69" font-family="Helvetica,sans-Serif" font-size="10.00">atomic</text>
</g>
<!-- Node5&#45;&gt;Node10 -->
<g id="edge9" class="edge"><title>Node5&#45;&gt;Node10</title>
<path fill="none" stroke="midnightblue" d="M1196.64,-190.3C1198.11,-175.377 1202.76,-144.439 1217,-123 1226.99,-107.959 1242.91,-95.3691 1256.38,-86.5217"/>
<polygon fill="midnightblue" stroke="midnightblue" points="1258.58,-89.2758 1265.2,-81.0105 1254.87,-83.3383 1258.58,-89.2758"/>
</g>
<!-- Node11 -->
<g id="node11" class="node"><title>Node11</title>
<polygon fill="none" stroke="#bfbfbf" points="1226.5,-129 1226.5,-148 1285.5,-148 1285.5,-129 1226.5,-129"/>
<text text-anchor="middle" x="1256" y="-136" font-family="Helvetica,sans-Serif" font-size="10.00">exception</text>
</g>
<!-- Node5&#45;&gt;Node11 -->
<g id="edge10" class="edge"><title>Node5&#45;&gt;Node11</title>
<path fill="none" stroke="midnightblue" d="M1204.6,-190.475C1213.86,-181.285 1228.82,-166.456 1240.21,-155.156"/>
<polygon fill="midnightblue" stroke="midnightblue" points="1242.78,-157.536 1247.42,-148.009 1237.85,-152.565 1242.78,-157.536"/>
</g>
<!-- Node12 -->
<g id="node12" class="node"><title>Node12</title>
<polygon fill="none" stroke="#bfbfbf" points="1034.5,-129 1034.5,-148 1093.5,-148 1093.5,-129 1034.5,-129"/>
<text text-anchor="middle" x="1064" y="-136" font-family="Helvetica,sans-Serif" font-size="10.00">functional</text>
</g>
<!-- Node5&#45;&gt;Node12 -->
<g id="edge11" class="edge"><title>Node5&#45;&gt;Node12</title>
<path fill="none" stroke="midnightblue" d="M1177.09,-190.475C1154.84,-180.445 1117.69,-163.7 1092.07,-152.155"/>
<polygon fill="midnightblue" stroke="midnightblue" points="1093.43,-148.928 1082.88,-148.009 1090.56,-155.309 1093.43,-148.928"/>
</g>
<!-- Node13 -->
<g id="node13" class="node"><title>Node13</title>
<g id="a_node13"><a xlink:href="null__mutex_8h.html" target="_top" xlink:title="spdlog/details/null\l_mutex.h">
<polygon fill="none" stroke="black" points="1303.5,-123.5 1303.5,-153.5 1398.5,-153.5 1398.5,-123.5 1303.5,-123.5"/>
<text text-anchor="start" x="1311.5" y="-141.5" font-family="Helvetica,sans-Serif" font-size="10.00">spdlog/details/null</text>
<text text-anchor="middle" x="1351" y="-130.5" font-family="Helvetica,sans-Serif" font-size="10.00">_mutex.h</text>
</a>
</g>
</g>
<!-- Node5&#45;&gt;Node13 -->
<g id="edge12" class="edge"><title>Node5&#45;&gt;Node13</title>
<path fill="none" stroke="midnightblue" d="M1218.21,-190.475C1240.77,-181.814 1276.38,-168.145 1305.04,-157.141"/>
<polygon fill="midnightblue" stroke="midnightblue" points="1306.39,-160.374 1314.47,-153.523 1303.88,-153.839 1306.39,-160.374"/>
</g>
<!-- Node14 -->
<g id="node14" class="node"><title>Node14</title>
<g id="a_node14"><a xlink:href="fmt_8h.html" target="_top" xlink:title="spdlog/fmt/fmt.h">
<polygon fill="none" stroke="black" points="539,-129 539,-148 627,-148 627,-129 539,-129"/>
<text text-anchor="middle" x="583" y="-136" font-family="Helvetica,sans-Serif" font-size="10.00">spdlog/fmt/fmt.h</text>
</a>
</g>
</g>
<!-- Node5&#45;&gt;Node14 -->
<g id="edge14" class="edge"><title>Node5&#45;&gt;Node14</title>
<path fill="none" stroke="midnightblue" d="M1148.92,-194.43C1037.09,-183.576 756.034,-156.295 637.295,-144.77"/>
<polygon fill="midnightblue" stroke="midnightblue" points="637.626,-141.286 627.335,-143.803 636.95,-148.253 637.626,-141.286"/>
</g>
<!-- Node13&#45;&gt;Node10 -->
<g id="edge13" class="edge"><title>Node13&#45;&gt;Node10</title>
<path fill="none" stroke="midnightblue" d="M1335.81,-123.396C1324.68,-113.06 1309.56,-99.0237 1298.03,-88.309"/>
<polygon fill="midnightblue" stroke="midnightblue" points="1300.07,-85.4343 1290.36,-81.1945 1295.31,-90.5639 1300.07,-85.4343"/>
</g>
<!-- Node15 -->
<g id="node15" class="node"><title>Node15</title>
<g id="a_node15"><a xlink:href="format_8h.html" target="_top" xlink:title="spdlog/fmt/bundled\l/format.h">
<polygon fill="none" stroke="black" points="533.5,-56.5 533.5,-86.5 632.5,-86.5 632.5,-56.5 533.5,-56.5"/>
<text text-anchor="start" x="541.5" y="-74.5" font-family="Helvetica,sans-Serif" font-size="10.00">spdlog/fmt/bundled</text>
<text text-anchor="middle" x="583" y="-63.5" font-family="Helvetica,sans-Serif" font-size="10.00">/format.h</text>
</a>
</g>
</g>
<!-- Node14&#45;&gt;Node15 -->
<g id="edge15" class="edge"><title>Node14&#45;&gt;Node15</title>
<path fill="none" stroke="midnightblue" d="M583,-128.734C583,-120.541 583,-107.923 583,-96.7136"/>
<polygon fill="midnightblue" stroke="midnightblue" points="586.5,-96.589 583,-86.589 579.5,-96.5891 586.5,-96.589"/>
</g>
<!-- Node15&#45;&gt;Node6 -->
<g id="edge24" class="edge"><title>Node15&#45;&gt;Node6</title>
<path fill="none" stroke="midnightblue" d="M632.767,-63.4996C721.052,-51.0814 902.594,-25.5453 975.096,-15.347"/>
<polygon fill="midnightblue" stroke="midnightblue" points="975.958,-18.7604 985.373,-13.9015 974.983,-11.8286 975.958,-18.7604"/>
</g>
<!-- Node15&#45;&gt;Node9 -->
<g id="edge22" class="edge"><title>Node15&#45;&gt;Node9</title>
<path fill="none" stroke="midnightblue" d="M533.468,-58.8575C528.59,-57.8375 523.706,-56.8656 519,-56 417.869,-37.3979 297.37,-22.1827 238.3,-15.1728"/>
<polygon fill="midnightblue" stroke="midnightblue" points="238.344,-11.6539 228.004,-13.9604 237.526,-18.6059 238.344,-11.6539"/>
</g>
<!-- Node16 -->
<g id="node16" class="node"><title>Node16</title>
<polygon fill="none" stroke="#bfbfbf" points="661.5,-0.5 661.5,-19.5 710.5,-19.5 710.5,-0.5 661.5,-0.5"/>
<text text-anchor="middle" x="686" y="-7.5" font-family="Helvetica,sans-Serif" font-size="10.00">cassert</text>
</g>
<!-- Node15&#45;&gt;Node16 -->
<g id="edge16" class="edge"><title>Node15&#45;&gt;Node16</title>
<path fill="none" stroke="midnightblue" d="M607.41,-56.3993C623.92,-46.8619 645.623,-34.3248 662.038,-24.8422"/>
<polygon fill="midnightblue" stroke="midnightblue" points="664.104,-27.6906 671.013,-19.6578 660.603,-21.6292 664.104,-27.6906"/>
</g>
<!-- Node17 -->
<g id="node17" class="node"><title>Node17</title>
<polygon fill="none" stroke="#bfbfbf" points="728.5,-0.5 728.5,-19.5 775.5,-19.5 775.5,-0.5 728.5,-0.5"/>
<text text-anchor="middle" x="752" y="-7.5" font-family="Helvetica,sans-Serif" font-size="10.00">clocale</text>
</g>
<!-- Node15&#45;&gt;Node17 -->
<g id="edge17" class="edge"><title>Node15&#45;&gt;Node17</title>
<path fill="none" stroke="midnightblue" d="M623.051,-56.3993C652.26,-46.1156 691.375,-32.3442 718.839,-22.675"/>
<polygon fill="midnightblue" stroke="midnightblue" points="720.12,-25.9347 728.39,-19.3124 717.795,-19.332 720.12,-25.9347"/>
</g>
<!-- Node18 -->
<g id="node18" class="node"><title>Node18</title>
<polygon fill="none" stroke="#bfbfbf" points="794,-0.5 794,-19.5 838,-19.5 838,-0.5 794,-0.5"/>
<text text-anchor="middle" x="816" y="-7.5" font-family="Helvetica,sans-Serif" font-size="10.00">cmath</text>
</g>
<!-- Node15&#45;&gt;Node18 -->
<g id="edge18" class="edge"><title>Node15&#45;&gt;Node18</title>
<path fill="none" stroke="midnightblue" d="M632.661,-58.4336C673.402,-48.4362 732.541,-33.6979 784,-20 784.101,-19.9731 784.202,-19.9461 784.304,-19.9191"/>
<polygon fill="midnightblue" stroke="midnightblue" points="785.261,-23.2858 793.988,-17.2782 783.42,-16.5324 785.261,-23.2858"/>
</g>
<!-- Node19 -->
<g id="node19" class="node"><title>Node19</title>
<polygon fill="none" stroke="#bfbfbf" points="333.5,-0.5 333.5,-19.5 376.5,-19.5 376.5,-0.5 333.5,-0.5"/>
<text text-anchor="middle" x="355" y="-7.5" font-family="Helvetica,sans-Serif" font-size="10.00">cstdio</text>
</g>
<!-- Node15&#45;&gt;Node19 -->
<g id="edge19" class="edge"><title>Node15&#45;&gt;Node19</title>
<path fill="none" stroke="midnightblue" d="M533.5,-58.2715C495.773,-48.8467 442.305,-35.2663 386.383,-20.0402"/>
<polygon fill="midnightblue" stroke="midnightblue" points="387.225,-16.6419 376.656,-17.3817 385.379,-23.3943 387.225,-16.6419"/>
</g>
<!-- Node20 -->
<g id="node20" class="node"><title>Node20</title>
<polygon fill="none" stroke="#bfbfbf" points="395,-0.5 395,-19.5 441,-19.5 441,-0.5 395,-0.5"/>
<text text-anchor="middle" x="418" y="-7.5" font-family="Helvetica,sans-Serif" font-size="10.00">cstring</text>
</g>
<!-- Node15&#45;&gt;Node20 -->
<g id="edge20" class="edge"><title>Node15&#45;&gt;Node20</title>
<path fill="none" stroke="midnightblue" d="M543.897,-56.3993C515.504,-46.1607 477.525,-32.4649 450.73,-22.8025"/>
<polygon fill="midnightblue" stroke="midnightblue" points="451.645,-19.4122 441.051,-19.3124 449.271,-25.9971 451.645,-19.4122"/>
</g>
<!-- Node21 -->
<g id="node21" class="node"><title>Node21</title>
<polygon fill="none" stroke="#bfbfbf" points="459,-0.5 459,-19.5 499,-19.5 499,-0.5 459,-0.5"/>
<text text-anchor="middle" x="479" y="-7.5" font-family="Helvetica,sans-Serif" font-size="10.00">limits</text>
</g>
<!-- Node15&#45;&gt;Node21 -->
<g id="edge21" class="edge"><title>Node15&#45;&gt;Node21</title>
<path fill="none" stroke="midnightblue" d="M558.353,-56.3993C541.683,-46.8619 519.769,-34.3248 503.195,-24.8422"/>
<polygon fill="midnightblue" stroke="midnightblue" points="504.551,-21.5858 494.133,-19.6578 501.075,-27.6617 504.551,-21.5858"/>
</g>
<!-- Node22 -->
<g id="node22" class="node"><title>Node22</title>
<polygon fill="none" stroke="#bfbfbf" points="517.5,-0.5 517.5,-19.5 576.5,-19.5 576.5,-0.5 517.5,-0.5"/>
<text text-anchor="middle" x="547" y="-7.5" font-family="Helvetica,sans-Serif" font-size="10.00">stdexcept</text>
</g>
<!-- Node15&#45;&gt;Node22 -->
<g id="edge23" class="edge"><title>Node15&#45;&gt;Node22</title>
<path fill="none" stroke="midnightblue" d="M574.469,-56.3993C569.399,-48.0207 562.929,-37.3269 557.542,-28.4229"/>
<polygon fill="midnightblue" stroke="midnightblue" points="560.41,-26.4018 552.238,-19.6578 554.42,-30.0255 560.41,-26.4018"/>
</g>
<!-- Node23 -->
<g id="node23" class="node"><title>Node23</title>
<polygon fill="none" stroke="#bfbfbf" points="16,-0.5 16,-19.5 60,-19.5 60,-0.5 16,-0.5"/>
<text text-anchor="middle" x="38" y="-7.5" font-family="Helvetica,sans-Serif" font-size="10.00">vector</text>
</g>
<!-- Node15&#45;&gt;Node23 -->
<g id="edge25" class="edge"><title>Node15&#45;&gt;Node23</title>
<path fill="none" stroke="midnightblue" d="M533.19,-65.062C423.111,-53.0442 161.665,-24.5011 70.2373,-14.5195"/>
<polygon fill="midnightblue" stroke="midnightblue" points="70.5177,-11.0294 60.1969,-13.4233 69.7579,-17.988 70.5177,-11.0294"/>
</g>
<!-- Node15&#45;&gt;Node24 -->
<g id="edge26" class="edge"><title>Node15&#45;&gt;Node24</title>
<path fill="none" stroke="midnightblue" d="M632.567,-59.0401C637.438,-57.9831 642.311,-56.9527 647,-56 732.397,-38.6493 757.511,-41.2122 845.888,-20.0267"/>
<polygon fill="midnightblue" stroke="midnightblue" points="846.918,-23.3784 855.807,-17.6141 845.263,-16.5768 846.918,-23.3784"/>
</g>
<!-- Node25 -->
<g id="node25" class="node"><title>Node25</title>
<polygon fill="none" stroke="#bfbfbf" points="594.5,-0.5 594.5,-19.5 643.5,-19.5 643.5,-0.5 594.5,-0.5"/>
<text text-anchor="middle" x="619" y="-7.5" font-family="Helvetica,sans-Serif" font-size="10.00">stdint.h</text>
</g>
<!-- Node15&#45;&gt;Node25 -->
<g id="edge27" class="edge"><title>Node15&#45;&gt;Node25</title>
<path fill="none" stroke="midnightblue" d="M591.531,-56.3993C596.601,-48.0207 603.071,-37.3269 608.458,-28.4229"/>
<polygon fill="midnightblue" stroke="midnightblue" points="611.58,-30.0255 613.762,-19.6578 605.59,-26.4018 611.58,-30.0255"/>
</g>
<!-- Node26&#45;&gt;Node5 -->
<g id="edge29" class="edge"><title>Node26&#45;&gt;Node5</title>
<path fill="none" stroke="midnightblue" d="M709.465,-250.017C809.037,-239.985 1033.14,-217.407 1138.81,-206.762"/>
<polygon fill="midnightblue" stroke="midnightblue" points="1139.36,-210.224 1148.96,-205.739 1138.66,-203.259 1139.36,-210.224"/>
</g>
<!-- Node26&#45;&gt;Node6 -->
<g id="edge33" class="edge"><title>Node26&#45;&gt;Node6</title>
<path fill="none" stroke="midnightblue" d="M709.146,-253.657C751.04,-250.307 811.108,-240.067 854,-210 920.825,-163.155 900.393,-117.532 954,-56 963.558,-45.0291 975.801,-34.305 986.006,-26.0793"/>
<polygon fill="midnightblue" stroke="midnightblue" points="988.291,-28.7349 993.996,-19.8067 983.969,-23.2291 988.291,-28.7349"/>
</g>
<!-- Node26&#45;&gt;Node8 -->
<g id="edge34" class="edge"><title>Node26&#45;&gt;Node8</title>
<path fill="none" stroke="midnightblue" d="M709.398,-248.716C755.288,-241.79 818.895,-229.042 835,-210 847,-195.811 846.913,-173.772 844.833,-158.116"/>
<polygon fill="midnightblue" stroke="midnightblue" points="848.247,-157.315 843.111,-148.048 841.347,-158.495 848.247,-157.315"/>
</g>
<!-- Node26&#45;&gt;Node12 -->
<g id="edge32" class="edge"><title>Node26&#45;&gt;Node12</title>
<path fill="none" stroke="midnightblue" d="M709.103,-252.769C766.833,-248.897 864.816,-238.381 944,-210 982.152,-196.325 1021.83,-170.304 1044.65,-153.987"/>
<polygon fill="midnightblue" stroke="midnightblue" points="1046.78,-156.767 1052.8,-148.053 1042.66,-151.107 1046.78,-156.767"/>
</g>
<!-- Node26&#45;&gt;Node19 -->
<g id="edge30" class="edge"><title>Node26&#45;&gt;Node19</title>
<path fill="none" stroke="midnightblue" d="M610.877,-252.441C545.847,-248.044 436.007,-236.786 407,-210 355.187,-162.154 352.37,-69.687 353.788,-29.9279"/>
<polygon fill="midnightblue" stroke="midnightblue" points="357.292,-29.9486 354.289,-19.7881 350.3,-29.6033 357.292,-29.9486"/>
</g>
<!-- Node27 -->
<g id="node27" class="node"><title>Node27</title>
<polygon fill="none" stroke="#bfbfbf" points="256.5,-190.5 256.5,-209.5 297.5,-209.5 297.5,-190.5 256.5,-190.5"/>
<text text-anchor="middle" x="277" y="-197.5" font-family="Helvetica,sans-Serif" font-size="10.00">ctime</text>
</g>
<!-- Node26&#45;&gt;Node27 -->
<g id="edge31" class="edge"><title>Node26&#45;&gt;Node27</title>
<path fill="none" stroke="midnightblue" d="M610.75,-251.299C544.074,-245.722 421.323,-233.455 307.472,-209.75"/>
<polygon fill="midnightblue" stroke="midnightblue" points="308.049,-206.295 297.541,-207.648 306.6,-213.143 308.049,-206.295"/>
</g>
<!-- Node28 -->
<g id="node28" class="node"><title>Node28</title>
<polygon fill="none" stroke="#bfbfbf" points="316,-190.5 316,-209.5 360,-209.5 360,-190.5 316,-190.5"/>
<text text-anchor="middle" x="338" y="-197.5" font-family="Helvetica,sans-Serif" font-size="10.00">thread</text>
</g>
<!-- Node26&#45;&gt;Node28 -->
<g id="edge35" class="edge"><title>Node26&#45;&gt;Node28</title>
<path fill="none" stroke="midnightblue" d="M610.929,-248.631C553.772,-240.901 456.628,-226.794 374,-210 372.722,-209.74 371.42,-209.465 370.107,-209.179"/>
<polygon fill="midnightblue" stroke="midnightblue" points="370.547,-205.688 360.014,-206.833 368.962,-212.506 370.547,-205.688"/>
</g>
<!-- Node29 -->
<g id="node29" class="node"><title>Node29</title>
<polygon fill="none" stroke="#bfbfbf" points="416,-190.5 416,-209.5 462,-209.5 462,-190.5 416,-190.5"/>
<text text-anchor="middle" x="439" y="-197.5" font-family="Helvetica,sans-Serif" font-size="10.00">stdio.h</text>
</g>
<!-- Node26&#45;&gt;Node29 -->
<g id="edge36" class="edge"><title>Node26&#45;&gt;Node29</title>
<path fill="none" stroke="midnightblue" d="M622.237,-246.482C586.096,-238.225 529.816,-225.094 472.074,-210.202"/>
<polygon fill="midnightblue" stroke="midnightblue" points="472.6,-206.723 462.042,-207.601 470.843,-213.499 472.6,-206.723"/>
</g>
<!-- Node30 -->
<g id="node30" class="node"><title>Node30</title>
<polygon fill="none" stroke="#bfbfbf" points="480.5,-190.5 480.5,-209.5 529.5,-209.5 529.5,-190.5 480.5,-190.5"/>
<text text-anchor="middle" x="505" y="-197.5" font-family="Helvetica,sans-Serif" font-size="10.00">string.h</text>
</g>
<!-- Node26&#45;&gt;Node30 -->
<g id="edge37" class="edge"><title>Node26&#45;&gt;Node30</title>
<path fill="none" stroke="midnightblue" d="M635.44,-246.444C609.477,-237.399 568.332,-223.064 539.203,-212.916"/>
<polygon fill="midnightblue" stroke="midnightblue" points="540.04,-209.501 529.445,-209.516 537.737,-216.112 540.04,-209.501"/>
</g>
<!-- Node31 -->
<g id="node31" class="node"><title>Node31</title>
<polygon fill="none" stroke="#bfbfbf" points="548,-190.5 548,-209.5 608,-209.5 608,-190.5 548,-190.5"/>
<text text-anchor="middle" x="578" y="-197.5" font-family="Helvetica,sans-Serif" font-size="10.00">sys/stat.h</text>
</g>
<!-- Node26&#45;&gt;Node31 -->
<g id="edge38" class="edge"><title>Node26&#45;&gt;Node31</title>
<path fill="none" stroke="midnightblue" d="M646.825,-246.324C634.153,-237.979 614.767,-225.212 599.794,-215.352"/>
<polygon fill="midnightblue" stroke="midnightblue" points="601.419,-212.231 591.142,-209.655 597.569,-218.078 601.419,-212.231"/>
</g>
<!-- Node32 -->
<g id="node32" class="node"><title>Node32</title>
<polygon fill="none" stroke="#bfbfbf" points="626,-190.5 626,-209.5 694,-209.5 694,-190.5 626,-190.5"/>
<text text-anchor="middle" x="660" y="-197.5" font-family="Helvetica,sans-Serif" font-size="10.00">sys/types.h</text>
</g>
<!-- Node26&#45;&gt;Node32 -->
<g id="edge39" class="edge"><title>Node26&#45;&gt;Node32</title>
<path fill="none" stroke="midnightblue" d="M660,-246.083C660,-239.006 660,-228.861 660,-219.986"/>
<polygon fill="midnightblue" stroke="midnightblue" points="663.5,-219.751 660,-209.751 656.5,-219.751 663.5,-219.751"/>
</g>
<!-- Node33 -->
<g id="node33" class="node"><title>Node33</title>
<polygon fill="none" stroke="#bfbfbf" points="712.5,-190.5 712.5,-209.5 763.5,-209.5 763.5,-190.5 712.5,-190.5"/>
<text text-anchor="middle" x="738" y="-197.5" font-family="Helvetica,sans-Serif" font-size="10.00">unistd.h</text>
</g>
<!-- Node26&#45;&gt;Node33 -->
<g id="edge40" class="edge"><title>Node26&#45;&gt;Node33</title>
<path fill="none" stroke="midnightblue" d="M672.532,-246.324C684.586,-237.979 703.027,-225.212 717.269,-215.352"/>
<polygon fill="midnightblue" stroke="midnightblue" points="719.269,-218.224 725.499,-209.655 715.285,-212.469 719.269,-218.224"/>
</g>
<!-- Node34 -->
<g id="node34" class="node"><title>Node34</title>
<polygon fill="none" stroke="#bfbfbf" points="782,-190.5 782,-209.5 826,-209.5 826,-190.5 782,-190.5"/>
<text text-anchor="middle" x="804" y="-197.5" font-family="Helvetica,sans-Serif" font-size="10.00">fcntl.h</text>
</g>
<!-- Node26&#45;&gt;Node34 -->
<g id="edge41" class="edge"><title>Node26&#45;&gt;Node34</title>
<path fill="none" stroke="midnightblue" d="M682.817,-246.444C706.973,-237.385 745.276,-223.021 772.345,-212.871"/>
<polygon fill="midnightblue" stroke="midnightblue" points="773.628,-216.127 781.763,-209.339 771.17,-209.573 773.628,-216.127"/>
</g>
<!-- Node35&#45;&gt;Node4 -->
<g id="edge45" class="edge"><title>Node35&#45;&gt;Node4</title>
<path fill="none" stroke="midnightblue" d="M346.384,-436.484C442.355,-418.026 676.319,-372.784 872,-333 876.183,-332.149 880.508,-331.262 884.856,-330.362"/>
<polygon fill="midnightblue" stroke="midnightblue" points="885.916,-333.717 894.994,-328.255 884.491,-326.863 885.916,-333.717"/>
</g>
<!-- Node35&#45;&gt;Node6 -->
<g id="edge47" class="edge"><title>Node35&#45;&gt;Node6</title>
<path fill="none" stroke="midnightblue" d="M349.989,-442.603C489.31,-434.831 890.611,-406.439 996,-333 1081.78,-273.227 1138.27,-221.055 1102,-123 1086.73,-81.7134 1048.68,-45.3761 1025.33,-25.9554"/>
<polygon fill="midnightblue" stroke="midnightblue" points="1027.44,-23.1579 1017.46,-19.588 1023.04,-28.5994 1027.44,-23.1579"/>
</g>
<!-- Node35&#45;&gt;Node9 -->
<g id="edge48" class="edge"><title>Node35&#45;&gt;Node9</title>
<path fill="none" stroke="midnightblue" d="M271.939,-436.437C228.972,-422.48 151.1,-390.447 114,-333 63.2533,-254.421 82.1927,-214.83 100,-123 106.112,-91.4823 106.153,-80.4154 127,-56 138.728,-42.2643 155.749,-31.578 170.612,-24.0727"/>
<polygon fill="midnightblue" stroke="midnightblue" points="172.471,-27.0638 179.991,-19.5999 169.458,-20.7456 172.471,-27.0638"/>
</g>
<!-- Node35&#45;&gt;Node23 -->
<g id="edge46" class="edge"><title>Node35&#45;&gt;Node23</title>
<path fill="none" stroke="midnightblue" d="M254.48,-445.693C169.433,-444.184 0,-427.499 0,-318.5 0,-318.5 0,-318.5 0,-137.5 0,-97.3496 17.7757,-52.9463 29.0118,-28.8892"/>
<polygon fill="midnightblue" stroke="midnightblue" points="32.289,-30.1518 33.4917,-19.6255 25.9871,-27.1043 32.289,-30.1518"/>
</g>
<!-- Node36 -->
<g id="node36" class="node"><title>Node36</title>
<g id="a_node36"><a xlink:href="pattern__formatter__impl_8h.html" target="_top" xlink:title="spdlog/details/pattern\l_formatter_impl.h">
<polygon fill="none" stroke="black" points="247,-369.5 247,-399.5 357,-399.5 357,-369.5 247,-369.5"/>
<text text-anchor="start" x="255" y="-387.5" font-family="Helvetica,sans-Serif" font-size="10.00">spdlog/details/pattern</text>
<text text-anchor="middle" x="302" y="-376.5" font-family="Helvetica,sans-Serif" font-size="10.00">_formatter_impl.h</text>
</a>
</g>
</g>
<!-- Node35&#45;&gt;Node36 -->
<g id="edge49" class="edge"><title>Node35&#45;&gt;Node36</title>
<path fill="none" stroke="midnightblue" d="M297.099,-436.475C295.572,-429.471 294.991,-419.192 295.356,-409.696"/>
<polygon fill="midnightblue" stroke="midnightblue" points="298.861,-409.77 296.17,-399.523 291.883,-409.212 298.861,-409.77"/>
</g>
<!-- Node36&#45;&gt;Node4 -->
<g id="edge51" class="edge"><title>Node36&#45;&gt;Node4</title>
<path fill="none" stroke="midnightblue" d="M357.281,-380.789C459.398,-375.296 684.317,-360.933 872,-333 876.154,-332.382 880.435,-331.669 884.733,-330.897"/>
<polygon fill="midnightblue" stroke="midnightblue" points="885.564,-334.302 894.742,-329.009 884.266,-327.424 885.564,-334.302"/>
</g>
<!-- Node36&#45;&gt;Node6 -->
<g id="edge58" class="edge"><title>Node36&#45;&gt;Node6</title>
<path fill="none" stroke="midnightblue" d="M357.421,-378.897C466.917,-367.39 714.671,-329.13 880,-210 945.805,-162.583 985.279,-69.1785 999.72,-29.5155"/>
<polygon fill="midnightblue" stroke="midnightblue" points="1003.11,-30.4313 1003.13,-19.8365 996.506,-28.105 1003.11,-30.4313"/>
</g>
<!-- Node36&#45;&gt;Node8 -->
<g id="edge54" class="edge"><title>Node36&#45;&gt;Node8</title>
<path fill="none" stroke="midnightblue" d="M290.148,-369.287C262.345,-334.19 198.803,-242.469 247,-190 251.794,-184.781 683.538,-151.5 807.856,-142.018"/>
<polygon fill="midnightblue" stroke="midnightblue" points="808.219,-145.501 817.925,-141.251 807.688,-138.521 808.219,-145.501"/>
</g>
<!-- Node36&#45;&gt;Node9 -->
<g id="edge56" class="edge"><title>Node36&#45;&gt;Node9</title>
<path fill="none" stroke="midnightblue" d="M246.63,-379.431C211.24,-374.015 166.752,-361.547 138,-333 112.863,-308.043 114,-292.422 114,-257 114,-257 114,-257 114,-137.5 114,-90.149 156.064,-47.8056 182.028,-26.1794"/>
<polygon fill="midnightblue" stroke="midnightblue" points="184.533,-28.6565 190.132,-19.6621 180.146,-23.2016 184.533,-28.6565"/>
</g>
<!-- Node36&#45;&gt;Node14 -->
<g id="edge53" class="edge"><title>Node36&#45;&gt;Node14</title>
<path fill="none" stroke="midnightblue" d="M258.255,-369.32C241.323,-361.449 223.71,-349.768 214,-333 182.15,-278.001 172.033,-237.73 214,-190 255.279,-143.053 431.133,-162.973 493,-154 504.508,-152.331 516.825,-150.425 528.537,-148.557"/>
<polygon fill="midnightblue" stroke="midnightblue" points="529.322,-151.976 538.639,-146.931 528.21,-145.064 529.322,-151.976"/>
</g>
<!-- Node36&#45;&gt;Node23 -->
<g id="edge61" class="edge"><title>Node36&#45;&gt;Node23</title>
<path fill="none" stroke="midnightblue" d="M246.725,-383.16C204.669,-379.865 148.352,-368.42 114,-333 29.8143,-246.195 32.6937,-84.3972 36.3731,-29.6545"/>
<polygon fill="midnightblue" stroke="midnightblue" points="39.8644,-29.9018 37.1394,-19.6634 32.8849,-29.3664 39.8644,-29.9018"/>
</g>
<!-- Node36&#45;&gt;Node24 -->
<g id="edge60" class="edge"><title>Node36&#45;&gt;Node24</title>
<path fill="none" stroke="midnightblue" d="M247.922,-369.391C228.47,-361.697 208.113,-350.124 195,-333 156.358,-282.539 151.044,-234.927 196,-190 339.594,-46.4992 445.355,-141.172 641,-87 715.567,-66.3531 801.77,-37.0536 846.159,-21.5572"/>
<polygon fill="midnightblue" stroke="midnightblue" points="847.465,-24.8081 855.745,-18.1978 845.15,-18.202 847.465,-24.8081"/>
</g>
<!-- Node36&#45;&gt;Node26 -->
<g id="edge52" class="edge"><title>Node36&#45;&gt;Node26</title>
<path fill="none" stroke="midnightblue" d="M341.68,-369.479C412.503,-344.454 559.476,-292.52 625.99,-269.018"/>
<polygon fill="midnightblue" stroke="midnightblue" points="627.313,-272.262 635.576,-265.63 624.981,-265.662 627.313,-272.262"/>
</g>
<!-- Node36&#45;&gt;Node27 -->
<g id="edge55" class="edge"><title>Node36&#45;&gt;Node27</title>
<path fill="none" stroke="midnightblue" d="M300.08,-369.483C295.643,-337.097 284.676,-257.037 279.625,-220.159"/>
<polygon fill="midnightblue" stroke="midnightblue" points="283.033,-219.251 278.208,-209.819 276.098,-220.201 283.033,-219.251"/>
</g>
<!-- Node36&#45;&gt;Node28 -->
<g id="edge59" class="edge"><title>Node36&#45;&gt;Node28</title>
<path fill="none" stroke="midnightblue" d="M304.765,-369.483C311.181,-336.957 327.083,-256.343 334.315,-219.683"/>
<polygon fill="midnightblue" stroke="midnightblue" points="337.759,-220.307 336.26,-209.819 330.891,-218.952 337.759,-220.307"/>
</g>
<!-- Node36&#45;&gt;Node35 -->
<g id="edge50" class="edge"><title>Node36&#45;&gt;Node35</title>
<path fill="none" stroke="midnightblue" d="M307.83,-399.523C308.873,-407.586 309.029,-417.813 308.299,-426.526"/>
<polygon fill="midnightblue" stroke="midnightblue" points="304.827,-426.085 306.901,-436.475 311.759,-427.06 304.827,-426.085"/>
</g>
<!-- Node36&#45;&gt;Node37 -->
<g id="edge57" class="edge"><title>Node36&#45;&gt;Node37</title>
<path fill="none" stroke="midnightblue" d="M357.388,-380.228C475.084,-373.107 758.736,-355.062 996,-333 1028.68,-329.961 1065.97,-325.64 1091.83,-322.506"/>
<polygon fill="midnightblue" stroke="midnightblue" points="1092.33,-325.972 1101.83,-321.285 1091.48,-319.024 1092.33,-325.972"/>
</g>
</g>
</svg>
