<?xml version="1.0" encoding="UTF-8" standalone="no"?>
<!DOCTYPE svg PUBLIC "-//W3C//DTD SVG 1.1//EN"
 "http://www.w3.org/Graphics/SVG/1.1/DTD/svg11.dtd">
<!-- Generated by graphviz version 2.36.0 (20140111.2315)
 -->
<!-- Title: /home/lucamuratore/advr&#45;superbuild/external/XBotInterface/include/spdlog/sinks/ansicolor_sink.h Pages: 1 -->
<svg width="1628pt" height="614pt"
 viewBox="0.00 0.00 1628.00 614.00" xmlns="http://www.w3.org/2000/svg" xmlns:xlink="http://www.w3.org/1999/xlink">
<g id="graph0" class="graph" transform="scale(1 1) rotate(0) translate(4 610)">
<title>/home/lucamuratore/advr&#45;superbuild/external/XBotInterface/include/spdlog/sinks/ansicolor_sink.h</title>
<!-- Node1 -->
<g id="node1" class="node"><title>Node1</title>
<polygon fill="#bfbfbf" stroke="black" points="1393.5,-553 1393.5,-605 1538.5,-605 1538.5,-553 1393.5,-553"/>
<text text-anchor="start" x="1401.5" y="-593" font-family="Helvetica,sans-Serif" font-size="10.00">/home/lucamuratore</text>
<text text-anchor="start" x="1401.5" y="-582" font-family="Helvetica,sans-Serif" font-size="10.00">/advr&#45;superbuild/external</text>
<text text-anchor="start" x="1401.5" y="-571" font-family="Helvetica,sans-Serif" font-size="10.00">/XBotInterface/include/spdlog</text>
<text text-anchor="middle" x="1466" y="-560" font-family="Helvetica,sans-Serif" font-size="10.00">/sinks/ansicolor_sink.h</text>
</g>
<!-- Node2 -->
<g id="node2" class="node"><title>Node2</title>
<g id="a_node2"><a xlink:href="base__sink_8h.html" target="_top" xlink:title="spdlog/sinks/base_sink.h">
<polygon fill="none" stroke="black" points="1086.5,-496.5 1086.5,-515.5 1213.5,-515.5 1213.5,-496.5 1086.5,-496.5"/>
<text text-anchor="middle" x="1150" y="-503.5" font-family="Helvetica,sans-Serif" font-size="10.00">spdlog/sinks/base_sink.h</text>
</a>
</g>
</g>
<!-- Node1&#45;&gt;Node2 -->
<g id="edge1" class="edge"><title>Node1&#45;&gt;Node2</title>
<path fill="none" stroke="midnightblue" d="M1393.11,-561.622C1333.13,-548.146 1249.83,-529.43 1197.96,-517.775"/>
<polygon fill="midnightblue" stroke="midnightblue" points="1198.54,-514.32 1188.02,-515.542 1197.01,-521.149 1198.54,-514.32"/>
</g>
<!-- Node5 -->
<g id="node5" class="node"><title>Node5</title>
<g id="a_node5"><a xlink:href="common_8h.html" target="_top" xlink:title="spdlog/common.h">
<polygon fill="none" stroke="black" points="1149,-192.5 1149,-211.5 1243,-211.5 1243,-192.5 1149,-192.5"/>
<text text-anchor="middle" x="1196" y="-199.5" font-family="Helvetica,sans-Serif" font-size="10.00">spdlog/common.h</text>
</a>
</g>
</g>
<!-- Node1&#45;&gt;Node5 -->
<g id="edge65" class="edge"><title>Node1&#45;&gt;Node5</title>
<path fill="none" stroke="midnightblue" d="M1435.08,-552.725C1410.08,-529.268 1379,-491.891 1379,-451 1379,-451 1379,-451 1379,-319 1379,-258.446 1306.64,-228.179 1252.92,-214.052"/>
<polygon fill="midnightblue" stroke="midnightblue" points="1253.68,-210.635 1243.13,-211.599 1251.98,-217.425 1253.68,-210.635"/>
</g>
<!-- Node6 -->
<g id="node6" class="node"><title>Node6</title>
<polygon fill="none" stroke="#bfbfbf" points="985.5,-0.5 985.5,-19.5 1026.5,-19.5 1026.5,-0.5 985.5,-0.5"/>
<text text-anchor="middle" x="1006" y="-7.5" font-family="Helvetica,sans-Serif" font-size="10.00">string</text>
</g>
<!-- Node1&#45;&gt;Node6 -->
<g id="edge66" class="edge"><title>Node1&#45;&gt;Node6</title>
<path fill="none" stroke="midnightblue" d="M1497.98,-552.946C1523.85,-529.634 1556,-492.346 1556,-451 1556,-451 1556,-451 1556,-139 1556,-31.5604 1152.83,-14.2665 1036.86,-11.5143"/>
<polygon fill="midnightblue" stroke="midnightblue" points="1036.63,-8.00858 1026.56,-11.2908 1036.48,-15.0069 1036.63,-8.00858"/>
</g>
<!-- Node38 -->
<g id="node38" class="node"><title>Node38</title>
<polygon fill="none" stroke="#bfbfbf" points="1584.5,-496.5 1584.5,-515.5 1619.5,-515.5 1619.5,-496.5 1584.5,-496.5"/>
<text text-anchor="middle" x="1602" y="-503.5" font-family="Helvetica,sans-Serif" font-size="10.00">map</text>
</g>
<!-- Node1&#45;&gt;Node38 -->
<g id="edge67" class="edge"><title>Node1&#45;&gt;Node38</title>
<path fill="none" stroke="midnightblue" d="M1513.95,-552.968C1534.98,-541.986 1558.83,-529.537 1576.4,-520.366"/>
<polygon fill="midnightblue" stroke="midnightblue" points="1578.21,-523.369 1585.45,-515.639 1574.97,-517.164 1578.21,-523.369"/>
</g>
<!-- Node3 -->
<g id="node3" class="node"><title>Node3</title>
<g id="a_node3"><a xlink:href="sink_8h.html" target="_top" xlink:title="spdlog/sinks/sink.h">
<polygon fill="none" stroke="black" points="1028.5,-378.5 1028.5,-397.5 1129.5,-397.5 1129.5,-378.5 1028.5,-378.5"/>
<text text-anchor="middle" x="1079" y="-385.5" font-family="Helvetica,sans-Serif" font-size="10.00">spdlog/sinks/sink.h</text>
</a>
</g>
</g>
<!-- Node2&#45;&gt;Node3 -->
<g id="edge2" class="edge"><title>Node2&#45;&gt;Node3</title>
<path fill="none" stroke="midnightblue" d="M1144.66,-496.281C1132.99,-477.21 1105.01,-431.488 1089.61,-406.327"/>
<polygon fill="midnightblue" stroke="midnightblue" points="1092.41,-404.207 1084.21,-397.505 1086.44,-407.861 1092.41,-404.207"/>
</g>
<!-- Node4 -->
<g id="node4" class="node"><title>Node4</title>
<g id="a_node4"><a xlink:href="log__msg_8h.html" target="_top" xlink:title="spdlog/details/log\l_msg.h">
<polygon fill="none" stroke="black" points="895,-305 895,-335 987,-335 987,-305 895,-305"/>
<text text-anchor="start" x="903" y="-323" font-family="Helvetica,sans-Serif" font-size="10.00">spdlog/details/log</text>
<text text-anchor="middle" x="941" y="-312" font-family="Helvetica,sans-Serif" font-size="10.00">_msg.h</text>
</a>
</g>
</g>
<!-- Node2&#45;&gt;Node4 -->
<g id="edge63" class="edge"><title>Node2&#45;&gt;Node4</title>
<path fill="none" stroke="midnightblue" d="M1137.56,-496.425C1113.66,-479.732 1060.06,-441.234 1019,-404 997.601,-384.593 975.223,-360.305 959.953,-343.028"/>
<polygon fill="midnightblue" stroke="midnightblue" points="962.285,-340.378 953.063,-335.162 957.019,-344.99 962.285,-340.378"/>
</g>
<!-- Node2&#45;&gt;Node5 -->
<g id="edge62" class="edge"><title>Node2&#45;&gt;Node5</title>
<path fill="none" stroke="midnightblue" d="M1156.01,-496.441C1168.48,-477.829 1196,-431.896 1196,-389 1196,-389 1196,-389 1196,-319 1196,-284.716 1196,-244.732 1196,-221.79"/>
<polygon fill="midnightblue" stroke="midnightblue" points="1199.5,-221.731 1196,-211.731 1192.5,-221.731 1199.5,-221.731"/>
</g>
<!-- Node35 -->
<g id="node35" class="node"><title>Node35</title>
<g id="a_node35"><a xlink:href="formatter_8h.html" target="_top" xlink:title="spdlog/formatter.h">
<polygon fill="none" stroke="black" points="254.5,-440.5 254.5,-459.5 349.5,-459.5 349.5,-440.5 254.5,-440.5"/>
<text text-anchor="middle" x="302" y="-447.5" font-family="Helvetica,sans-Serif" font-size="10.00">spdlog/formatter.h</text>
</a>
</g>
</g>
<!-- Node2&#45;&gt;Node35 -->
<g id="edge44" class="edge"><title>Node2&#45;&gt;Node35</title>
<path fill="none" stroke="midnightblue" d="M1086.26,-500.941C926.802,-490.787 512.472,-464.403 359.685,-454.673"/>
<polygon fill="midnightblue" stroke="midnightblue" points="359.776,-451.172 349.574,-454.029 359.331,-458.158 359.776,-451.172"/>
</g>
<!-- Node37 -->
<g id="node37" class="node"><title>Node37</title>
<polygon fill="none" stroke="#bfbfbf" points="1102,-310.5 1102,-329.5 1146,-329.5 1146,-310.5 1102,-310.5"/>
<text text-anchor="middle" x="1124" y="-317.5" font-family="Helvetica,sans-Serif" font-size="10.00">mutex</text>
</g>
<!-- Node2&#45;&gt;Node37 -->
<g id="edge64" class="edge"><title>Node2&#45;&gt;Node37</title>
<path fill="none" stroke="midnightblue" d="M1149.75,-496.214C1149.01,-474.806 1146.38,-418.312 1138,-372 1136.01,-360.972 1132.73,-348.865 1129.85,-339.217"/>
<polygon fill="midnightblue" stroke="midnightblue" points="1133.16,-338.07 1126.85,-329.555 1126.47,-340.143 1133.16,-338.07"/>
</g>
<!-- Node3&#45;&gt;Node4 -->
<g id="edge3" class="edge"><title>Node3&#45;&gt;Node4</title>
<path fill="none" stroke="midnightblue" d="M1060.96,-378.372C1040.37,-368.526 1006.11,-352.141 979.464,-339.396"/>
<polygon fill="midnightblue" stroke="midnightblue" points="980.922,-336.213 970.39,-335.056 977.902,-342.528 980.922,-336.213"/>
</g>
<!-- Node4&#45;&gt;Node5 -->
<g id="edge4" class="edge"><title>Node4&#45;&gt;Node5</title>
<path fill="none" stroke="midnightblue" d="M973.894,-304.965C997.403,-294.861 1029.75,-280.809 1058,-268 1096.84,-250.394 1141.41,-229.221 1169.14,-215.933"/>
<polygon fill="midnightblue" stroke="midnightblue" points="1170.71,-219.063 1178.21,-211.581 1167.68,-212.752 1170.71,-219.063"/>
</g>
<!-- Node4&#45;&gt;Node6 -->
<g id="edge42" class="edge"><title>Node4&#45;&gt;Node6</title>
<path fill="none" stroke="midnightblue" d="M956.257,-304.845C975.456,-285.88 1007.44,-250.164 1020,-212 1031.04,-178.449 1015.95,-72.7449 1009.09,-29.6077"/>
<polygon fill="midnightblue" stroke="midnightblue" points="1012.52,-28.948 1007.47,-19.6383 1005.61,-30.07 1012.52,-28.948"/>
</g>
<!-- Node24 -->
<g id="node24" class="node"><title>Node24</title>
<polygon fill="none" stroke="#bfbfbf" points="856,-0.5 856,-19.5 896,-19.5 896,-0.5 856,-0.5"/>
<text text-anchor="middle" x="876" y="-7.5" font-family="Helvetica,sans-Serif" font-size="10.00">utility</text>
</g>
<!-- Node4&#45;&gt;Node24 -->
<g id="edge43" class="edge"><title>Node4&#45;&gt;Node24</title>
<path fill="none" stroke="midnightblue" d="M938.038,-304.966C927.513,-255.091 891.906,-86.3714 879.951,-29.7239"/>
<polygon fill="midnightblue" stroke="midnightblue" points="883.323,-28.749 877.833,-19.6873 876.474,-30.1945 883.323,-28.749"/>
</g>
<!-- Node26 -->
<g id="node26" class="node"><title>Node26</title>
<g id="a_node26"><a xlink:href="os_8h.html" target="_top" xlink:title="spdlog/details/os.h">
<polygon fill="none" stroke="black" points="611,-248.5 611,-267.5 709,-267.5 709,-248.5 611,-248.5"/>
<text text-anchor="middle" x="660" y="-255.5" font-family="Helvetica,sans-Serif" font-size="10.00">spdlog/details/os.h</text>
</a>
</g>
</g>
<!-- Node4&#45;&gt;Node26 -->
<g id="edge28" class="edge"><title>Node4&#45;&gt;Node26</title>
<path fill="none" stroke="midnightblue" d="M894.913,-309.159C844.116,-298.313 762.673,-280.923 710.265,-269.733"/>
<polygon fill="midnightblue" stroke="midnightblue" points="710.699,-266.246 700.188,-267.581 709.237,-273.092 710.699,-266.246"/>
</g>
<!-- Node5&#45;&gt;Node6 -->
<g id="edge5" class="edge"><title>Node5&#45;&gt;Node6</title>
<path fill="none" stroke="midnightblue" d="M1243.25,-201.133C1319.8,-200.23 1465.68,-193.491 1498,-156 1507.29,-145.228 1506.14,-135.663 1498,-124 1444.29,-47.0282 1136.02,-19.7534 1036.78,-12.8981"/>
<polygon fill="midnightblue" stroke="midnightblue" points="1037,-9.40495 1026.78,-12.2287 1036.53,-16.3893 1037,-9.40495"/>
</g>
<!-- Node7 -->
<g id="node7" class="node"><title>Node7</title>
<polygon fill="none" stroke="#bfbfbf" points="1416.5,-130.5 1416.5,-149.5 1489.5,-149.5 1489.5,-130.5 1416.5,-130.5"/>
<text text-anchor="middle" x="1453" y="-137.5" font-family="Helvetica,sans-Serif" font-size="10.00">initializer_list</text>
</g>
<!-- Node5&#45;&gt;Node7 -->
<g id="edge6" class="edge"><title>Node5&#45;&gt;Node7</title>
<path fill="none" stroke="midnightblue" d="M1242.85,-192.474C1285.83,-184.306 1351.12,-171.026 1407,-156 1410.82,-154.974 1414.78,-153.819 1418.71,-152.617"/>
<polygon fill="midnightblue" stroke="midnightblue" points="1419.84,-155.932 1428.32,-149.577 1417.73,-149.258 1419.84,-155.932"/>
</g>
<!-- Node8 -->
<g id="node8" class="node"><title>Node8</title>
<polygon fill="none" stroke="#bfbfbf" points="818,-130.5 818,-149.5 864,-149.5 864,-130.5 818,-130.5"/>
<text text-anchor="middle" x="841" y="-137.5" font-family="Helvetica,sans-Serif" font-size="10.00">chrono</text>
</g>
<!-- Node5&#45;&gt;Node8 -->
<g id="edge7" class="edge"><title>Node5&#45;&gt;Node8</title>
<path fill="none" stroke="midnightblue" d="M1148.86,-193.032C1075.96,-180.712 937.701,-157.344 874.291,-146.627"/>
<polygon fill="midnightblue" stroke="midnightblue" points="874.865,-143.174 864.421,-144.959 873.698,-150.076 874.865,-143.174"/>
</g>
<!-- Node9 -->
<g id="node9" class="node"><title>Node9</title>
<polygon fill="none" stroke="#bfbfbf" points="176,-0.5 176,-19.5 228,-19.5 228,-0.5 176,-0.5"/>
<text text-anchor="middle" x="202" y="-7.5" font-family="Helvetica,sans-Serif" font-size="10.00">memory</text>
</g>
<!-- Node5&#45;&gt;Node9 -->
<g id="edge8" class="edge"><title>Node5&#45;&gt;Node9</title>
<path fill="none" stroke="midnightblue" d="M1188.83,-192.271C1174.43,-175.467 1140.09,-138.962 1102,-124 982.215,-76.9523 651.278,-107.036 524,-88 418.674,-72.2471 297.138,-38.9624 238.028,-21.7751"/>
<polygon fill="midnightblue" stroke="midnightblue" points="238.992,-18.4104 228.411,-18.9603 237.025,-25.1286 238.992,-18.4104"/>
</g>
<!-- Node10 -->
<g id="node10" class="node"><title>Node10</title>
<polygon fill="none" stroke="#bfbfbf" points="1258,-62.5 1258,-81.5 1304,-81.5 1304,-62.5 1258,-62.5"/>
<text text-anchor="middle" x="1281" y="-69.5" font-family="Helvetica,sans-Serif" font-size="10.00">atomic</text>
</g>
<!-- Node5&#45;&gt;Node10 -->
<g id="edge9" class="edge"><title>Node5&#45;&gt;Node10</title>
<path fill="none" stroke="midnightblue" d="M1196.63,-192.193C1198.07,-177.086 1202.68,-145.76 1217,-124 1226.96,-108.861 1242.89,-96.1467 1256.36,-87.199"/>
<polygon fill="midnightblue" stroke="midnightblue" points="1258.6,-89.9214 1265.19,-81.6229 1254.87,-84.0026 1258.6,-89.9214"/>
</g>
<!-- Node11 -->
<g id="node11" class="node"><title>Node11</title>
<polygon fill="none" stroke="#bfbfbf" points="1226.5,-130.5 1226.5,-149.5 1285.5,-149.5 1285.5,-130.5 1226.5,-130.5"/>
<text text-anchor="middle" x="1256" y="-137.5" font-family="Helvetica,sans-Serif" font-size="10.00">exception</text>
</g>
<!-- Node5&#45;&gt;Node11 -->
<g id="edge10" class="edge"><title>Node5&#45;&gt;Node11</title>
<path fill="none" stroke="midnightblue" d="M1204.6,-192.403C1213.86,-183.136 1228.82,-168.183 1240.21,-156.788"/>
<polygon fill="midnightblue" stroke="midnightblue" points="1242.82,-159.127 1247.42,-149.581 1237.87,-154.177 1242.82,-159.127"/>
</g>
<!-- Node12 -->
<g id="node12" class="node"><title>Node12</title>
<polygon fill="none" stroke="#bfbfbf" points="1034.5,-130.5 1034.5,-149.5 1093.5,-149.5 1093.5,-130.5 1034.5,-130.5"/>
<text text-anchor="middle" x="1064" y="-137.5" font-family="Helvetica,sans-Serif" font-size="10.00">functional</text>
</g>
<!-- Node5&#45;&gt;Node12 -->
<g id="edge11" class="edge"><title>Node5&#45;&gt;Node12</title>
<path fill="none" stroke="midnightblue" d="M1177.09,-192.403C1154.84,-182.29 1117.69,-165.404 1092.07,-153.761"/>
<polygon fill="midnightblue" stroke="midnightblue" points="1093.43,-150.532 1082.88,-149.581 1090.53,-156.905 1093.43,-150.532"/>
</g>
<!-- Node13 -->
<g id="node13" class="node"><title>Node13</title>
<g id="a_node13"><a xlink:href="null__mutex_8h.html" target="_top" xlink:title="spdlog/details/null\l_mutex.h">
<polygon fill="none" stroke="black" points="1303.5,-125 1303.5,-155 1398.5,-155 1398.5,-125 1303.5,-125"/>
<text text-anchor="start" x="1311.5" y="-143" font-family="Helvetica,sans-Serif" font-size="10.00">spdlog/details/null</text>
<text text-anchor="middle" x="1351" y="-132" font-family="Helvetica,sans-Serif" font-size="10.00">_mutex.h</text>
</a>
</g>
</g>
<!-- Node5&#45;&gt;Node13 -->
<g id="edge12" class="edge"><title>Node5&#45;&gt;Node13</title>
<path fill="none" stroke="midnightblue" d="M1218.21,-192.403C1240.85,-183.641 1276.62,-169.794 1305.33,-158.679"/>
<polygon fill="midnightblue" stroke="midnightblue" points="1306.71,-161.899 1314.77,-155.025 1304.18,-155.371 1306.71,-161.899"/>
</g>
<!-- Node14 -->
<g id="node14" class="node"><title>Node14</title>
<g id="a_node14"><a xlink:href="fmt_8h.html" target="_top" xlink:title="spdlog/fmt/fmt.h">
<polygon fill="none" stroke="black" points="539,-130.5 539,-149.5 627,-149.5 627,-130.5 539,-130.5"/>
<text text-anchor="middle" x="583" y="-137.5" font-family="Helvetica,sans-Serif" font-size="10.00">spdlog/fmt/fmt.h</text>
</a>
</g>
</g>
<!-- Node5&#45;&gt;Node14 -->
<g id="edge14" class="edge"><title>Node5&#45;&gt;Node14</title>
<path fill="none" stroke="midnightblue" d="M1148.92,-196.392C1037.09,-185.446 756.034,-157.936 637.295,-146.314"/>
<polygon fill="midnightblue" stroke="midnightblue" points="637.628,-142.83 627.335,-145.339 636.946,-149.797 637.628,-142.83"/>
</g>
<!-- Node13&#45;&gt;Node10 -->
<g id="edge13" class="edge"><title>Node13&#45;&gt;Node10</title>
<path fill="none" stroke="midnightblue" d="M1335.81,-124.679C1324.57,-114.082 1309.27,-99.6546 1297.69,-88.7362"/>
<polygon fill="midnightblue" stroke="midnightblue" points="1300.04,-86.1419 1290.36,-81.8283 1295.24,-91.235 1300.04,-86.1419"/>
</g>
<!-- Node15 -->
<g id="node15" class="node"><title>Node15</title>
<g id="a_node15"><a xlink:href="format_8h.html" target="_top" xlink:title="spdlog/fmt/bundled\l/format.h">
<polygon fill="none" stroke="black" points="533.5,-57 533.5,-87 632.5,-87 632.5,-57 533.5,-57"/>
<text text-anchor="start" x="541.5" y="-75" font-family="Helvetica,sans-Serif" font-size="10.00">spdlog/fmt/bundled</text>
<text text-anchor="middle" x="583" y="-64" font-family="Helvetica,sans-Serif" font-size="10.00">/format.h</text>
</a>
</g>
</g>
<!-- Node14&#45;&gt;Node15 -->
<g id="edge15" class="edge"><title>Node14&#45;&gt;Node15</title>
<path fill="none" stroke="midnightblue" d="M583,-130.372C583,-121.971 583,-108.811 583,-97.2126"/>
<polygon fill="midnightblue" stroke="midnightblue" points="586.5,-97.1814 583,-87.1815 579.5,-97.1815 586.5,-97.1814"/>
</g>
<!-- Node15&#45;&gt;Node6 -->
<g id="edge24" class="edge"><title>Node15&#45;&gt;Node6</title>
<path fill="none" stroke="midnightblue" d="M632.767,-63.9408C721.052,-51.4182 902.594,-25.6675 975.096,-15.3835"/>
<polygon fill="midnightblue" stroke="midnightblue" points="975.963,-18.7957 985.373,-13.9259 974.98,-11.865 975.963,-18.7957"/>
</g>
<!-- Node15&#45;&gt;Node9 -->
<g id="edge22" class="edge"><title>Node15&#45;&gt;Node9</title>
<path fill="none" stroke="midnightblue" d="M533.478,-58.9332C528.599,-57.8827 523.711,-56.8846 519,-56 417.939,-37.0229 297.409,-21.9747 238.316,-15.0862"/>
<polygon fill="midnightblue" stroke="midnightblue" points="238.351,-11.5671 228.016,-13.8959 237.548,-18.5208 238.351,-11.5671"/>
</g>
<!-- Node16 -->
<g id="node16" class="node"><title>Node16</title>
<polygon fill="none" stroke="#bfbfbf" points="661.5,-0.5 661.5,-19.5 710.5,-19.5 710.5,-0.5 661.5,-0.5"/>
<text text-anchor="middle" x="686" y="-7.5" font-family="Helvetica,sans-Serif" font-size="10.00">cassert</text>
</g>
<!-- Node15&#45;&gt;Node16 -->
<g id="edge16" class="edge"><title>Node15&#45;&gt;Node16</title>
<path fill="none" stroke="midnightblue" d="M607.149,-56.9327C623.75,-47.2619 645.694,-34.4793 662.216,-24.8546"/>
<polygon fill="midnightblue" stroke="midnightblue" points="664.358,-27.6579 671.237,-19.6 660.834,-21.6093 664.358,-27.6579"/>
</g>
<!-- Node17 -->
<g id="node17" class="node"><title>Node17</title>
<polygon fill="none" stroke="#bfbfbf" points="728.5,-0.5 728.5,-19.5 775.5,-19.5 775.5,-0.5 728.5,-0.5"/>
<text text-anchor="middle" x="752" y="-7.5" font-family="Helvetica,sans-Serif" font-size="10.00">clocale</text>
</g>
<!-- Node15&#45;&gt;Node17 -->
<g id="edge17" class="edge"><title>Node15&#45;&gt;Node17</title>
<path fill="none" stroke="midnightblue" d="M622.623,-56.9327C651.818,-46.5675 691.082,-32.6277 718.672,-22.8326"/>
<polygon fill="midnightblue" stroke="midnightblue" points="720.015,-26.0698 728.268,-19.4257 717.673,-19.4732 720.015,-26.0698"/>
</g>
<!-- Node18 -->
<g id="node18" class="node"><title>Node18</title>
<polygon fill="none" stroke="#bfbfbf" points="794,-0.5 794,-19.5 838,-19.5 838,-0.5 794,-0.5"/>
<text text-anchor="middle" x="816" y="-7.5" font-family="Helvetica,sans-Serif" font-size="10.00">cmath</text>
</g>
<!-- Node15&#45;&gt;Node18 -->
<g id="edge18" class="edge"><title>Node15&#45;&gt;Node18</title>
<path fill="none" stroke="midnightblue" d="M632.654,-58.7782C673.389,-48.6609 732.527,-33.7662 784,-20 784.101,-19.973 784.202,-19.9459 784.304,-19.9187"/>
<polygon fill="midnightblue" stroke="midnightblue" points="785.264,-23.2848 793.987,-17.2714 783.417,-16.5326 785.264,-23.2848"/>
</g>
<!-- Node19 -->
<g id="node19" class="node"><title>Node19</title>
<polygon fill="none" stroke="#bfbfbf" points="333.5,-0.5 333.5,-19.5 376.5,-19.5 376.5,-0.5 333.5,-0.5"/>
<text text-anchor="middle" x="355" y="-7.5" font-family="Helvetica,sans-Serif" font-size="10.00">cstdio</text>
</g>
<!-- Node15&#45;&gt;Node19 -->
<g id="edge19" class="edge"><title>Node15&#45;&gt;Node19</title>
<path fill="none" stroke="midnightblue" d="M533.1,-58.5106C495.393,-48.9754 442.125,-35.2986 386.358,-20.0389"/>
<polygon fill="midnightblue" stroke="midnightblue" points="387.227,-16.6479 376.657,-17.3751 385.374,-23.3981 387.227,-16.6479"/>
</g>
<!-- Node20 -->
<g id="node20" class="node"><title>Node20</title>
<polygon fill="none" stroke="#bfbfbf" points="395,-0.5 395,-19.5 441,-19.5 441,-0.5 395,-0.5"/>
<text text-anchor="middle" x="418" y="-7.5" font-family="Helvetica,sans-Serif" font-size="10.00">cstring</text>
</g>
<!-- Node15&#45;&gt;Node20 -->
<g id="edge20" class="edge"><title>Node15&#45;&gt;Node20</title>
<path fill="none" stroke="midnightblue" d="M544.315,-56.9327C515.936,-46.613 477.812,-32.7499 450.895,-22.9617"/>
<polygon fill="midnightblue" stroke="midnightblue" points="451.765,-19.5539 441.171,-19.4257 449.372,-26.1325 451.765,-19.5539"/>
</g>
<!-- Node21 -->
<g id="node21" class="node"><title>Node21</title>
<polygon fill="none" stroke="#bfbfbf" points="459,-0.5 459,-19.5 499,-19.5 499,-0.5 459,-0.5"/>
<text text-anchor="middle" x="479" y="-7.5" font-family="Helvetica,sans-Serif" font-size="10.00">limits</text>
</g>
<!-- Node15&#45;&gt;Node21 -->
<g id="edge21" class="edge"><title>Node15&#45;&gt;Node21</title>
<path fill="none" stroke="midnightblue" d="M558.617,-56.9327C541.854,-47.2619 519.697,-34.4793 503.015,-24.8546"/>
<polygon fill="midnightblue" stroke="midnightblue" points="504.318,-21.5656 493.907,-19.6 500.82,-27.629 504.318,-21.5656"/>
</g>
<!-- Node22 -->
<g id="node22" class="node"><title>Node22</title>
<polygon fill="none" stroke="#bfbfbf" points="517.5,-0.5 517.5,-19.5 576.5,-19.5 576.5,-0.5 517.5,-0.5"/>
<text text-anchor="middle" x="547" y="-7.5" font-family="Helvetica,sans-Serif" font-size="10.00">stdexcept</text>
</g>
<!-- Node15&#45;&gt;Node22 -->
<g id="edge23" class="edge"><title>Node15&#45;&gt;Node22</title>
<path fill="none" stroke="midnightblue" d="M574.469,-56.7808C569.399,-48.3318 562.929,-37.5481 557.542,-28.5693"/>
<polygon fill="midnightblue" stroke="midnightblue" points="560.385,-26.5047 552.238,-19.7305 554.382,-30.1062 560.385,-26.5047"/>
</g>
<!-- Node23 -->
<g id="node23" class="node"><title>Node23</title>
<polygon fill="none" stroke="#bfbfbf" points="16,-0.5 16,-19.5 60,-19.5 60,-0.5 16,-0.5"/>
<text text-anchor="middle" x="38" y="-7.5" font-family="Helvetica,sans-Serif" font-size="10.00">vector</text>
</g>
<!-- Node15&#45;&gt;Node23 -->
<g id="edge25" class="edge"><title>Node15&#45;&gt;Node23</title>
<path fill="none" stroke="midnightblue" d="M533.19,-65.5163C423.111,-53.3976 161.665,-24.6145 70.2373,-14.5491"/>
<polygon fill="midnightblue" stroke="midnightblue" points="70.5199,-11.0591 60.1969,-13.4437 69.7538,-18.0171 70.5199,-11.0591"/>
</g>
<!-- Node15&#45;&gt;Node24 -->
<g id="edge26" class="edge"><title>Node15&#45;&gt;Node24</title>
<path fill="none" stroke="midnightblue" d="M632.559,-59.1203C637.431,-58.0319 642.307,-56.9738 647,-56 735.005,-37.7391 758.595,-40.9465 846,-20 846.099,-19.9762 846.198,-19.9523 846.298,-19.9283"/>
<polygon fill="midnightblue" stroke="midnightblue" points="846.988,-23.3666 855.751,-17.4115 845.187,-16.6023 846.988,-23.3666"/>
</g>
<!-- Node25 -->
<g id="node25" class="node"><title>Node25</title>
<polygon fill="none" stroke="#bfbfbf" points="594.5,-0.5 594.5,-19.5 643.5,-19.5 643.5,-0.5 594.5,-0.5"/>
<text text-anchor="middle" x="619" y="-7.5" font-family="Helvetica,sans-Serif" font-size="10.00">stdint.h</text>
</g>
<!-- Node15&#45;&gt;Node25 -->
<g id="edge27" class="edge"><title>Node15&#45;&gt;Node25</title>
<path fill="none" stroke="midnightblue" d="M591.531,-56.7808C596.601,-48.3318 603.071,-37.5481 608.458,-28.5693"/>
<polygon fill="midnightblue" stroke="midnightblue" points="611.618,-30.1062 613.762,-19.7305 605.615,-26.5047 611.618,-30.1062"/>
</g>
<!-- Node26&#45;&gt;Node5 -->
<g id="edge29" class="edge"><title>Node26&#45;&gt;Node5</title>
<path fill="none" stroke="midnightblue" d="M709.465,-252.017C809.037,-241.985 1033.14,-219.407 1138.81,-208.762"/>
<polygon fill="midnightblue" stroke="midnightblue" points="1139.36,-212.224 1148.96,-207.739 1138.66,-205.259 1139.36,-212.224"/>
</g>
<!-- Node26&#45;&gt;Node6 -->
<g id="edge33" class="edge"><title>Node26&#45;&gt;Node6</title>
<path fill="none" stroke="midnightblue" d="M709.319,-255.576C750.986,-252.163 810.496,-241.875 853,-212 920.574,-164.504 899.786,-118.313 954,-56 963.551,-45.0226 975.793,-34.2982 986,-26.074"/>
<polygon fill="midnightblue" stroke="midnightblue" points="988.285,-28.7299 993.991,-19.8029 983.964,-23.223 988.285,-28.7299"/>
</g>
<!-- Node26&#45;&gt;Node8 -->
<g id="edge34" class="edge"><title>Node26&#45;&gt;Node8</title>
<path fill="none" stroke="midnightblue" d="M709.064,-250.63C754.654,-243.639 817.868,-230.844 834,-212 846.186,-197.765 846.414,-175.56 844.561,-159.776"/>
<polygon fill="midnightblue" stroke="midnightblue" points="847.978,-158.968 842.986,-149.623 841.061,-160.041 847.978,-158.968"/>
</g>
<!-- Node26&#45;&gt;Node12 -->
<g id="edge32" class="edge"><title>Node26&#45;&gt;Node12</title>
<path fill="none" stroke="midnightblue" d="M709.118,-254.812C766.863,-250.98 864.86,-240.504 944,-212 982.201,-198.241 1021.86,-172.032 1044.66,-155.594"/>
<polygon fill="midnightblue" stroke="midnightblue" points="1046.82,-158.354 1052.81,-149.616 1042.68,-152.709 1046.82,-158.354"/>
</g>
<!-- Node26&#45;&gt;Node19 -->
<g id="edge30" class="edge"><title>Node26&#45;&gt;Node19</title>
<path fill="none" stroke="midnightblue" d="M610.868,-254.451C545.827,-250.066 435.974,-238.821 407,-212 354.758,-163.64 352.174,-70.2617 353.721,-30.113"/>
<polygon fill="midnightblue" stroke="midnightblue" points="357.23,-30.043 354.256,-19.8739 350.239,-29.6776 357.23,-30.043"/>
</g>
<!-- Node27 -->
<g id="node27" class="node"><title>Node27</title>
<polygon fill="none" stroke="#bfbfbf" points="256.5,-192.5 256.5,-211.5 297.5,-211.5 297.5,-192.5 256.5,-192.5"/>
<text text-anchor="middle" x="277" y="-199.5" font-family="Helvetica,sans-Serif" font-size="10.00">ctime</text>
</g>
<!-- Node26&#45;&gt;Node27 -->
<g id="edge31" class="edge"><title>Node26&#45;&gt;Node27</title>
<path fill="none" stroke="midnightblue" d="M610.75,-253.299C544.074,-247.722 421.323,-235.455 307.472,-211.75"/>
<polygon fill="midnightblue" stroke="midnightblue" points="308.049,-208.295 297.541,-209.648 306.6,-215.143 308.049,-208.295"/>
</g>
<!-- Node28 -->
<g id="node28" class="node"><title>Node28</title>
<polygon fill="none" stroke="#bfbfbf" points="316,-192.5 316,-211.5 360,-211.5 360,-192.5 316,-192.5"/>
<text text-anchor="middle" x="338" y="-199.5" font-family="Helvetica,sans-Serif" font-size="10.00">thread</text>
</g>
<!-- Node26&#45;&gt;Node28 -->
<g id="edge35" class="edge"><title>Node26&#45;&gt;Node28</title>
<path fill="none" stroke="midnightblue" d="M610.929,-250.631C553.772,-242.901 456.628,-228.794 374,-212 372.722,-211.74 371.42,-211.465 370.107,-211.179"/>
<polygon fill="midnightblue" stroke="midnightblue" points="370.547,-207.688 360.014,-208.833 368.962,-214.506 370.547,-207.688"/>
</g>
<!-- Node29 -->
<g id="node29" class="node"><title>Node29</title>
<polygon fill="none" stroke="#bfbfbf" points="416,-192.5 416,-211.5 462,-211.5 462,-192.5 416,-192.5"/>
<text text-anchor="middle" x="439" y="-199.5" font-family="Helvetica,sans-Serif" font-size="10.00">stdio.h</text>
</g>
<!-- Node26&#45;&gt;Node29 -->
<g id="edge36" class="edge"><title>Node26&#45;&gt;Node29</title>
<path fill="none" stroke="midnightblue" d="M622.237,-248.482C586.096,-240.225 529.816,-227.094 472.074,-212.202"/>
<polygon fill="midnightblue" stroke="midnightblue" points="472.6,-208.723 462.042,-209.601 470.843,-215.499 472.6,-208.723"/>
</g>
<!-- Node30 -->
<g id="node30" class="node"><title>Node30</title>
<polygon fill="none" stroke="#bfbfbf" points="480.5,-192.5 480.5,-211.5 529.5,-211.5 529.5,-192.5 480.5,-192.5"/>
<text text-anchor="middle" x="505" y="-199.5" font-family="Helvetica,sans-Serif" font-size="10.00">string.h</text>
</g>
<!-- Node26&#45;&gt;Node30 -->
<g id="edge37" class="edge"><title>Node26&#45;&gt;Node30</title>
<path fill="none" stroke="midnightblue" d="M635.44,-248.444C609.477,-239.399 568.332,-225.064 539.203,-214.916"/>
<polygon fill="midnightblue" stroke="midnightblue" points="540.04,-211.501 529.445,-211.516 537.737,-218.112 540.04,-211.501"/>
</g>
<!-- Node31 -->
<g id="node31" class="node"><title>Node31</title>
<polygon fill="none" stroke="#bfbfbf" points="548,-192.5 548,-211.5 608,-211.5 608,-192.5 548,-192.5"/>
<text text-anchor="middle" x="578" y="-199.5" font-family="Helvetica,sans-Serif" font-size="10.00">sys/stat.h</text>
</g>
<!-- Node26&#45;&gt;Node31 -->
<g id="edge38" class="edge"><title>Node26&#45;&gt;Node31</title>
<path fill="none" stroke="midnightblue" d="M646.825,-248.324C634.153,-239.979 614.767,-227.212 599.794,-217.352"/>
<polygon fill="midnightblue" stroke="midnightblue" points="601.419,-214.231 591.142,-211.655 597.569,-220.078 601.419,-214.231"/>
</g>
<!-- Node32 -->
<g id="node32" class="node"><title>Node32</title>
<polygon fill="none" stroke="#bfbfbf" points="626,-192.5 626,-211.5 694,-211.5 694,-192.5 626,-192.5"/>
<text text-anchor="middle" x="660" y="-199.5" font-family="Helvetica,sans-Serif" font-size="10.00">sys/types.h</text>
</g>
<!-- Node26&#45;&gt;Node32 -->
<g id="edge39" class="edge"><title>Node26&#45;&gt;Node32</title>
<path fill="none" stroke="midnightblue" d="M660,-248.083C660,-241.006 660,-230.861 660,-221.986"/>
<polygon fill="midnightblue" stroke="midnightblue" points="663.5,-221.751 660,-211.751 656.5,-221.751 663.5,-221.751"/>
</g>
<!-- Node33 -->
<g id="node33" class="node"><title>Node33</title>
<polygon fill="none" stroke="#bfbfbf" points="712.5,-192.5 712.5,-211.5 763.5,-211.5 763.5,-192.5 712.5,-192.5"/>
<text text-anchor="middle" x="738" y="-199.5" font-family="Helvetica,sans-Serif" font-size="10.00">unistd.h</text>
</g>
<!-- Node26&#45;&gt;Node33 -->
<g id="edge40" class="edge"><title>Node26&#45;&gt;Node33</title>
<path fill="none" stroke="midnightblue" d="M672.532,-248.324C684.586,-239.979 703.027,-227.212 717.269,-217.352"/>
<polygon fill="midnightblue" stroke="midnightblue" points="719.269,-220.224 725.499,-211.655 715.285,-214.469 719.269,-220.224"/>
</g>
<!-- Node34 -->
<g id="node34" class="node"><title>Node34</title>
<polygon fill="none" stroke="#bfbfbf" points="782,-192.5 782,-211.5 826,-211.5 826,-192.5 782,-192.5"/>
<text text-anchor="middle" x="804" y="-199.5" font-family="Helvetica,sans-Serif" font-size="10.00">fcntl.h</text>
</g>
<!-- Node26&#45;&gt;Node34 -->
<g id="edge41" class="edge"><title>Node26&#45;&gt;Node34</title>
<path fill="none" stroke="midnightblue" d="M682.817,-248.444C706.973,-239.385 745.276,-225.021 772.345,-214.871"/>
<polygon fill="midnightblue" stroke="midnightblue" points="773.628,-218.127 781.763,-211.339 771.17,-211.573 773.628,-218.127"/>
</g>
<!-- Node35&#45;&gt;Node4 -->
<g id="edge45" class="edge"><title>Node35&#45;&gt;Node4</title>
<path fill="none" stroke="midnightblue" d="M346.401,-440.485C442.404,-422.012 676.427,-376.64 872,-336 876.118,-335.144 880.372,-334.248 884.652,-333.339"/>
<polygon fill="midnightblue" stroke="midnightblue" points="885.584,-336.718 894.63,-331.203 884.119,-329.873 885.584,-336.718"/>
</g>
<!-- Node35&#45;&gt;Node6 -->
<g id="edge47" class="edge"><title>Node35&#45;&gt;Node6</title>
<path fill="none" stroke="midnightblue" d="M349.509,-446.575C488.414,-438.676 890.649,-409.811 996,-336 1082.28,-275.553 1138.33,-222.88 1102,-124 1086.74,-82.4669 1048.69,-45.7633 1025.34,-26.1285"/>
<polygon fill="midnightblue" stroke="midnightblue" points="1027.42,-23.313 1017.47,-19.6896 1022.99,-28.7308 1027.42,-23.313"/>
</g>
<!-- Node35&#45;&gt;Node9 -->
<g id="edge48" class="edge"><title>Node35&#45;&gt;Node9</title>
<path fill="none" stroke="midnightblue" d="M272.283,-440.402C229.375,-426.288 151.151,-393.832 114,-336 62.9636,-256.553 82.2607,-216.746 100,-124 106.109,-92.0615 105.948,-80.7831 127,-56 138.693,-42.2344 155.711,-31.546 170.582,-24.047"/>
<polygon fill="midnightblue" stroke="midnightblue" points="172.442,-27.038 179.966,-19.5793 169.433,-20.7177 172.442,-27.038"/>
</g>
<!-- Node35&#45;&gt;Node23 -->
<g id="edge46" class="edge"><title>Node35&#45;&gt;Node23</title>
<path fill="none" stroke="midnightblue" d="M254.48,-449.493C169.433,-447.622 0,-430.193 0,-321 0,-321 0,-321 0,-139 0,-98.2307 17.9354,-53.0653 29.1626,-28.7866"/>
<polygon fill="midnightblue" stroke="midnightblue" points="32.335,-30.2655 33.4917,-19.734 26.0199,-27.2455 32.335,-30.2655"/>
</g>
<!-- Node36 -->
<g id="node36" class="node"><title>Node36</title>
<g id="a_node36"><a xlink:href="pattern__formatter__impl_8h.html" target="_top" xlink:title="spdlog/details/pattern\l_formatter_impl.h">
<polygon fill="none" stroke="black" points="247,-373 247,-403 357,-403 357,-373 247,-373"/>
<text text-anchor="start" x="255" y="-391" font-family="Helvetica,sans-Serif" font-size="10.00">spdlog/details/pattern</text>
<text text-anchor="middle" x="302" y="-380" font-family="Helvetica,sans-Serif" font-size="10.00">_formatter_impl.h</text>
</a>
</g>
</g>
<!-- Node35&#45;&gt;Node36 -->
<g id="edge49" class="edge"><title>Node35&#45;&gt;Node36</title>
<path fill="none" stroke="midnightblue" d="M297.099,-440.403C295.572,-433.341 294.991,-422.975 295.356,-413.399"/>
<polygon fill="midnightblue" stroke="midnightblue" points="298.868,-413.386 296.17,-403.141 291.89,-412.832 298.868,-413.386"/>
</g>
<!-- Node36&#45;&gt;Node4 -->
<g id="edge51" class="edge"><title>Node36&#45;&gt;Node4</title>
<path fill="none" stroke="midnightblue" d="M357.3,-384.35C459.447,-378.947 684.412,-364.667 872,-336 876.158,-335.365 880.441,-334.63 884.741,-333.834"/>
<polygon fill="midnightblue" stroke="midnightblue" points="885.607,-337.232 894.753,-331.884 884.268,-330.361 885.607,-337.232"/>
</g>
<!-- Node36&#45;&gt;Node6 -->
<g id="edge58" class="edge"><title>Node36&#45;&gt;Node6</title>
<path fill="none" stroke="midnightblue" d="M357.187,-382.002C466.246,-369.763 713.154,-330.105 879,-212 946,-164.287 985.643,-69.0705 999.924,-29.2103"/>
<polygon fill="midnightblue" stroke="midnightblue" points="1003.31,-30.1159 1003.28,-19.5211 996.7,-27.8242 1003.31,-30.1159"/>
</g>
<!-- Node36&#45;&gt;Node8 -->
<g id="edge54" class="edge"><title>Node36&#45;&gt;Node8</title>
<path fill="none" stroke="midnightblue" d="M290.313,-372.934C262.527,-337.757 198.36,-244.995 247,-192 251.792,-186.779 683.538,-153.133 807.856,-143.546"/>
<polygon fill="midnightblue" stroke="midnightblue" points="808.223,-147.028 817.925,-142.77 807.685,-140.049 808.223,-147.028"/>
</g>
<!-- Node36&#45;&gt;Node9 -->
<g id="edge56" class="edge"><title>Node36&#45;&gt;Node9</title>
<path fill="none" stroke="midnightblue" d="M246.975,-382.843C211.503,-377.359 166.789,-364.77 138,-336 112.645,-310.661 114,-294.846 114,-259 114,-259 114,-259 114,-139 114,-91.0276 156.492,-47.9191 182.422,-26.0789"/>
<polygon fill="midnightblue" stroke="midnightblue" points="184.947,-28.537 190.496,-19.5113 180.529,-23.1068 184.947,-28.537"/>
</g>
<!-- Node36&#45;&gt;Node14 -->
<g id="edge53" class="edge"><title>Node36&#45;&gt;Node14</title>
<path fill="none" stroke="midnightblue" d="M258.705,-372.795C241.63,-364.826 223.786,-352.983 214,-336 182.046,-280.548 171.74,-240.063 214,-192 255.279,-145.053 431.158,-165.14 493,-156 504.514,-154.298 516.833,-152.338 528.546,-150.407"/>
<polygon fill="midnightblue" stroke="midnightblue" points="529.358,-153.82 538.647,-148.725 528.208,-146.915 529.358,-153.82"/>
</g>
<!-- Node36&#45;&gt;Node23 -->
<g id="edge61" class="edge"><title>Node36&#45;&gt;Node23</title>
<path fill="none" stroke="midnightblue" d="M246.693,-386.519C204.62,-383.115 148.294,-371.522 114,-336 29.2703,-248.236 32.5005,-85.0276 36.3216,-29.814"/>
<polygon fill="midnightblue" stroke="midnightblue" points="39.8192,-29.981 37.1146,-19.7372 32.8408,-29.4318 39.8192,-29.981"/>
</g>
<!-- Node36&#45;&gt;Node24 -->
<g id="edge60" class="edge"><title>Node36&#45;&gt;Node24</title>
<path fill="none" stroke="midnightblue" d="M247.545,-372.971C227.806,-365.215 207.152,-353.481 194,-336 155.52,-284.853 150.774,-237.293 196,-192 339.512,-48.2749 445.421,-142.784 641,-88 715.599,-67.1041 801.789,-37.4098 846.167,-21.7021"/>
<polygon fill="midnightblue" stroke="midnightblue" points="847.5,-24.9429 855.751,-18.2968 845.156,-18.3468 847.5,-24.9429"/>
</g>
<!-- Node36&#45;&gt;Node26 -->
<g id="edge52" class="edge"><title>Node36&#45;&gt;Node26</title>
<path fill="none" stroke="midnightblue" d="M341.336,-372.936C412.172,-347.609 559.974,-294.763 626.4,-271.014"/>
<polygon fill="midnightblue" stroke="midnightblue" points="627.727,-274.256 635.965,-267.594 625.37,-267.665 627.727,-274.256"/>
</g>
<!-- Node36&#45;&gt;Node27 -->
<g id="edge55" class="edge"><title>Node36&#45;&gt;Node27</title>
<path fill="none" stroke="midnightblue" d="M300.08,-372.867C295.624,-340.074 284.581,-258.798 279.559,-221.836"/>
<polygon fill="midnightblue" stroke="midnightblue" points="283.023,-221.329 278.208,-211.891 276.086,-222.271 283.023,-221.329"/>
</g>
<!-- Node36&#45;&gt;Node28 -->
<g id="edge59" class="edge"><title>Node36&#45;&gt;Node28</title>
<path fill="none" stroke="midnightblue" d="M304.765,-372.867C311.181,-340.074 327.083,-258.798 334.315,-221.836"/>
<polygon fill="midnightblue" stroke="midnightblue" points="337.775,-222.377 336.26,-211.891 330.905,-221.033 337.775,-222.377"/>
</g>
<!-- Node36&#45;&gt;Node35 -->
<g id="edge50" class="edge"><title>Node36&#45;&gt;Node35</title>
<path fill="none" stroke="midnightblue" d="M307.83,-403.141C308.873,-411.272 309.029,-421.585 308.299,-430.371"/>
<polygon fill="midnightblue" stroke="midnightblue" points="304.815,-430.016 306.901,-440.403 311.748,-430.982 304.815,-430.016"/>
</g>
<!-- Node36&#45;&gt;Node37 -->
<g id="edge57" class="edge"><title>Node36&#45;&gt;Node37</title>
<path fill="none" stroke="midnightblue" d="M357.394,-383.747C475.102,-376.653 758.775,-358.606 996,-336 1028.69,-332.885 1065.97,-328.411 1091.84,-325.16"/>
<polygon fill="midnightblue" stroke="midnightblue" points="1092.35,-328.623 1101.83,-323.893 1091.47,-321.678 1092.35,-328.623"/>
</g>
</g>
</svg>
