<?xml version="1.0" encoding="UTF-8" standalone="no"?>
<!DOCTYPE svg PUBLIC "-//W3C//DTD SVG 1.1//EN"
 "http://www.w3.org/Graphics/SVG/1.1/DTD/svg11.dtd">
<!-- Generated by graphviz version 2.36.0 (20140111.2315)
 -->
<!-- Title: /home/lucamuratore/advr&#45;superbuild/external/XBotInterface/include/spdlog/details/async_log_helper.h Pages: 1 -->
<svg width="1568pt" height="570pt"
 viewBox="0.00 0.00 1568.00 570.00" xmlns="http://www.w3.org/2000/svg" xmlns:xlink="http://www.w3.org/1999/xlink">
<g id="graph0" class="graph" transform="scale(1 1) rotate(0) translate(4 566)">
<title>/home/lucamuratore/advr&#45;superbuild/external/XBotInterface/include/spdlog/details/async_log_helper.h</title>
<!-- Node1 -->
<g id="node1" class="node"><title>Node1</title>
<polygon fill="#bfbfbf" stroke="black" points="688.5,-509 688.5,-561 833.5,-561 833.5,-509 688.5,-509"/>
<text text-anchor="start" x="696.5" y="-549" font-family="Helvetica,sans-Serif" font-size="10.00">/home/lucamuratore</text>
<text text-anchor="start" x="696.5" y="-538" font-family="Helvetica,sans-Serif" font-size="10.00">/advr&#45;superbuild/external</text>
<text text-anchor="start" x="696.5" y="-527" font-family="Helvetica,sans-Serif" font-size="10.00">/XBotInterface/include/spdlog</text>
<text text-anchor="middle" x="761" y="-516" font-family="Helvetica,sans-Serif" font-size="10.00">/details/async_log_helper.h</text>
</g>
<!-- Node2 -->
<g id="node2" class="node"><title>Node2</title>
<g id="a_node2"><a xlink:href="common_8h.html" target="_top" xlink:title="spdlog/common.h">
<polygon fill="none" stroke="black" points="204,-192.5 204,-211.5 298,-211.5 298,-192.5 204,-192.5"/>
<text text-anchor="middle" x="251" y="-199.5" font-family="Helvetica,sans-Serif" font-size="10.00">spdlog/common.h</text>
</a>
</g>
</g>
<!-- Node1&#45;&gt;Node2 -->
<g id="edge1" class="edge"><title>Node1&#45;&gt;Node2</title>
<path fill="none" stroke="midnightblue" d="M688.198,-530.124C578.126,-523.238 375.443,-506.256 312,-472 275.137,-452.096 250,-442.893 250,-401 250,-401 250,-401 250,-331 250,-292.247 250.464,-246.897 250.76,-221.918"/>
<polygon fill="midnightblue" stroke="midnightblue" points="254.262,-221.733 250.885,-211.691 247.263,-221.647 254.262,-221.733"/>
</g>
<!-- Node3 -->
<g id="node3" class="node"><title>Node3</title>
<polygon fill="none" stroke="#bfbfbf" points="1032.5,-0.5 1032.5,-19.5 1073.5,-19.5 1073.5,-0.5 1032.5,-0.5"/>
<text text-anchor="middle" x="1053" y="-7.5" font-family="Helvetica,sans-Serif" font-size="10.00">string</text>
</g>
<!-- Node1&#45;&gt;Node3 -->
<g id="edge72" class="edge"><title>Node1&#45;&gt;Node3</title>
<path fill="none" stroke="midnightblue" d="M833.882,-531.561C945.108,-526.592 1150.67,-512.127 1211,-472 1326.64,-395.087 1370,-341.879 1370,-203 1370,-203 1370,-203 1370,-139 1370,-77.6542 1163.3,-31.9191 1083.72,-16.584"/>
<polygon fill="midnightblue" stroke="midnightblue" points="1084.28,-13.1273 1073.8,-14.7036 1082.97,-20.0048 1084.28,-13.1273"/>
</g>
<!-- Node5 -->
<g id="node5" class="node"><title>Node5</title>
<polygon fill="none" stroke="#bfbfbf" points="1026,-130.5 1026,-149.5 1072,-149.5 1072,-130.5 1026,-130.5"/>
<text text-anchor="middle" x="1049" y="-137.5" font-family="Helvetica,sans-Serif" font-size="10.00">chrono</text>
</g>
<!-- Node1&#45;&gt;Node5 -->
<g id="edge68" class="edge"><title>Node1&#45;&gt;Node5</title>
<path fill="none" stroke="midnightblue" d="M803.178,-508.976C877.582,-461.965 1029.44,-352.414 1084,-212 1091.57,-192.511 1077.78,-171.11 1065.35,-156.953"/>
<polygon fill="midnightblue" stroke="midnightblue" points="1067.76,-154.406 1058.35,-149.524 1062.66,-159.204 1067.76,-154.406"/>
</g>
<!-- Node6 -->
<g id="node6" class="node"><title>Node6</title>
<polygon fill="none" stroke="#bfbfbf" points="1306,-0.5 1306,-19.5 1358,-19.5 1358,-0.5 1306,-0.5"/>
<text text-anchor="middle" x="1332" y="-7.5" font-family="Helvetica,sans-Serif" font-size="10.00">memory</text>
</g>
<!-- Node1&#45;&gt;Node6 -->
<g id="edge71" class="edge"><title>Node1&#45;&gt;Node6</title>
<path fill="none" stroke="midnightblue" d="M833.623,-528.902C1023.84,-514.582 1522,-470.449 1522,-401 1522,-401 1522,-401 1522,-139 1522,-65.5776 1423.2,-31.4867 1368.09,-18.1821"/>
<polygon fill="midnightblue" stroke="midnightblue" points="1368.55,-14.696 1358.02,-15.8638 1366.98,-21.5177 1368.55,-14.696"/>
</g>
<!-- Node8 -->
<g id="node8" class="node"><title>Node8</title>
<polygon fill="none" stroke="#bfbfbf" points="142.5,-130.5 142.5,-149.5 201.5,-149.5 201.5,-130.5 142.5,-130.5"/>
<text text-anchor="middle" x="172" y="-137.5" font-family="Helvetica,sans-Serif" font-size="10.00">exception</text>
</g>
<!-- Node1&#45;&gt;Node8 -->
<g id="edge69" class="edge"><title>Node1&#45;&gt;Node8</title>
<path fill="none" stroke="midnightblue" d="M688.14,-530.429C570.673,-523.728 345.383,-506.704 274,-472 233.582,-452.35 202,-445.942 202,-401 202,-401 202,-401 202,-331 202,-267.393 185.393,-193.259 176.891,-159.472"/>
<polygon fill="midnightblue" stroke="midnightblue" points="180.24,-158.444 174.354,-149.635 173.462,-160.192 180.24,-158.444"/>
</g>
<!-- Node9 -->
<g id="node9" class="node"><title>Node9</title>
<polygon fill="none" stroke="#bfbfbf" points="538.5,-130.5 538.5,-149.5 597.5,-149.5 597.5,-130.5 538.5,-130.5"/>
<text text-anchor="middle" x="568" y="-137.5" font-family="Helvetica,sans-Serif" font-size="10.00">functional</text>
</g>
<!-- Node1&#45;&gt;Node9 -->
<g id="edge70" class="edge"><title>Node1&#45;&gt;Node9</title>
<path fill="none" stroke="midnightblue" d="M688.191,-526.886C564.357,-512.751 326,-475.826 326,-401 326,-401 326,-401 326,-263 326,-227.209 335.605,-213.788 364,-192 419.764,-149.21 450.083,-174.107 518,-156 522.138,-154.897 526.451,-153.69 530.735,-152.455"/>
<polygon fill="midnightblue" stroke="midnightblue" points="531.973,-155.739 540.579,-149.559 529.997,-149.024 531.973,-155.739"/>
</g>
<!-- Node20 -->
<g id="node20" class="node"><title>Node20</title>
<polygon fill="none" stroke="#bfbfbf" points="1424,-0.5 1424,-19.5 1468,-19.5 1468,-0.5 1424,-0.5"/>
<text text-anchor="middle" x="1446" y="-7.5" font-family="Helvetica,sans-Serif" font-size="10.00">vector</text>
</g>
<!-- Node1&#45;&gt;Node20 -->
<g id="edge75" class="edge"><title>Node1&#45;&gt;Node20</title>
<path fill="none" stroke="midnightblue" d="M833.62,-533.159C951.664,-530.39 1191.82,-518.894 1389,-472 1469.06,-452.961 1560,-483.291 1560,-401 1560,-401 1560,-401 1560,-139 1560,-86.2307 1505.3,-45.1502 1471.68,-24.8847"/>
<polygon fill="midnightblue" stroke="midnightblue" points="1473.22,-21.7332 1462.82,-19.7283 1469.7,-27.7832 1473.22,-21.7332"/>
</g>
<!-- Node21 -->
<g id="node21" class="node"><title>Node21</title>
<polygon fill="none" stroke="#bfbfbf" points="56,-0.5 56,-19.5 96,-19.5 96,-0.5 56,-0.5"/>
<text text-anchor="middle" x="76" y="-7.5" font-family="Helvetica,sans-Serif" font-size="10.00">utility</text>
</g>
<!-- Node1&#45;&gt;Node21 -->
<g id="edge74" class="edge"><title>Node1&#45;&gt;Node21</title>
<path fill="none" stroke="midnightblue" d="M688.323,-533.401C574.962,-530.919 349.962,-519.757 166,-472 88.3317,-451.837 0,-481.243 0,-401 0,-401 0,-401 0,-139 0,-92.9944 36.7478,-49.0786 59.1376,-26.591"/>
<polygon fill="midnightblue" stroke="midnightblue" points="61.6395,-29.0401 66.3745,-19.5623 56.7625,-24.0187 61.6395,-29.0401"/>
</g>
<!-- Node23 -->
<g id="node23" class="node"><title>Node23</title>
<g id="a_node23"><a xlink:href="sink_8h.html" target="_top" xlink:title="spdlog/sinks/sink.h">
<polygon fill="none" stroke="black" points="760.5,-390.5 760.5,-409.5 861.5,-409.5 861.5,-390.5 760.5,-390.5"/>
<text text-anchor="middle" x="811" y="-397.5" font-family="Helvetica,sans-Serif" font-size="10.00">spdlog/sinks/sink.h</text>
</a>
</g>
</g>
<!-- Node1&#45;&gt;Node23 -->
<g id="edge25" class="edge"><title>Node1&#45;&gt;Node23</title>
<path fill="none" stroke="midnightblue" d="M770.405,-508.984C780.222,-482.87 795.381,-442.546 804.131,-419.273"/>
<polygon fill="midnightblue" stroke="midnightblue" points="807.516,-420.214 807.758,-409.622 800.963,-417.751 807.516,-420.214"/>
</g>
<!-- Node24 -->
<g id="node24" class="node"><title>Node24</title>
<g id="a_node24"><a xlink:href="log__msg_8h.html" target="_top" xlink:title="spdlog/details/log\l_msg.h">
<polygon fill="none" stroke="black" points="744,-317 744,-347 836,-347 836,-317 744,-317"/>
<text text-anchor="start" x="752" y="-335" font-family="Helvetica,sans-Serif" font-size="10.00">spdlog/details/log</text>
<text text-anchor="middle" x="790" y="-324" font-family="Helvetica,sans-Serif" font-size="10.00">_msg.h</text>
</a>
</g>
</g>
<!-- Node1&#45;&gt;Node24 -->
<g id="edge48" class="edge"><title>Node1&#45;&gt;Node24</title>
<path fill="none" stroke="midnightblue" d="M753.556,-508.818C745.851,-478.383 736.773,-426.026 751,-384 754.629,-373.279 761.516,-363.039 768.505,-354.585"/>
<polygon fill="midnightblue" stroke="midnightblue" points="771.143,-356.884 775.133,-347.069 765.894,-352.254 771.143,-356.884"/>
</g>
<!-- Node25 -->
<g id="node25" class="node"><title>Node25</title>
<g id="a_node25"><a xlink:href="os_8h.html" target="_top" xlink:title="spdlog/details/os.h">
<polygon fill="none" stroke="black" points="674,-254.5 674,-273.5 772,-273.5 772,-254.5 674,-254.5"/>
<text text-anchor="middle" x="723" y="-261.5" font-family="Helvetica,sans-Serif" font-size="10.00">spdlog/details/os.h</text>
</a>
</g>
</g>
<!-- Node1&#45;&gt;Node25 -->
<g id="edge49" class="edge"><title>Node1&#45;&gt;Node25</title>
<path fill="none" stroke="midnightblue" d="M751.413,-508.704C747.577,-497.596 743.487,-484.305 741,-472 727.203,-403.722 723.979,-320.671 723.227,-283.982"/>
<polygon fill="midnightblue" stroke="midnightblue" points="726.723,-283.718 723.06,-273.777 719.724,-283.833 726.723,-283.718"/>
</g>
<!-- Node27 -->
<g id="node27" class="node"><title>Node27</title>
<polygon fill="none" stroke="#bfbfbf" points="972,-192.5 972,-211.5 1016,-211.5 1016,-192.5 972,-192.5"/>
<text text-anchor="middle" x="994" y="-199.5" font-family="Helvetica,sans-Serif" font-size="10.00">thread</text>
</g>
<!-- Node1&#45;&gt;Node27 -->
<g id="edge73" class="edge"><title>Node1&#45;&gt;Node27</title>
<path fill="none" stroke="midnightblue" d="M787.42,-508.73C810.658,-485.761 844.638,-450.315 870,-416 920.214,-348.061 966.73,-258.222 985.385,-220.674"/>
<polygon fill="midnightblue" stroke="midnightblue" points="988.609,-222.049 989.888,-211.532 982.329,-218.956 988.609,-222.049"/>
</g>
<!-- Node34 -->
<g id="node34" class="node"><title>Node34</title>
<g id="a_node34"><a xlink:href="mpmc__bounded__q_8h.html" target="_top" xlink:title="spdlog/details/mpmc\l_bounded_q.h">
<polygon fill="none" stroke="black" points="66.5,-249 66.5,-279 173.5,-279 173.5,-249 66.5,-249"/>
<text text-anchor="start" x="74.5" y="-267" font-family="Helvetica,sans-Serif" font-size="10.00">spdlog/details/mpmc</text>
<text text-anchor="middle" x="120" y="-256" font-family="Helvetica,sans-Serif" font-size="10.00">_bounded_q.h</text>
</a>
</g>
</g>
<!-- Node1&#45;&gt;Node34 -->
<g id="edge44" class="edge"><title>Node1&#45;&gt;Node34</title>
<path fill="none" stroke="midnightblue" d="M688.442,-530.507C542.953,-522.881 226.179,-502.911 188,-472 131.763,-426.468 121.602,-333.404 120.058,-289.265"/>
<polygon fill="midnightblue" stroke="midnightblue" points="123.555,-289.074 119.829,-279.156 116.557,-289.233 123.555,-289.074"/>
</g>
<!-- Node35 -->
<g id="node35" class="node"><title>Node35</title>
<g id="a_node35"><a xlink:href="formatter_8h.html" target="_top" xlink:title="spdlog/formatter.h">
<polygon fill="none" stroke="black" points="1107.5,-452.5 1107.5,-471.5 1202.5,-471.5 1202.5,-452.5 1107.5,-452.5"/>
<text text-anchor="middle" x="1155" y="-459.5" font-family="Helvetica,sans-Serif" font-size="10.00">spdlog/formatter.h</text>
</a>
</g>
</g>
<!-- Node1&#45;&gt;Node35 -->
<g id="edge50" class="edge"><title>Node1&#45;&gt;Node35</title>
<path fill="none" stroke="midnightblue" d="M833.725,-520.895C909.913,-507.165 1028.02,-485.883 1097.81,-473.306"/>
<polygon fill="midnightblue" stroke="midnightblue" points="1098.53,-476.733 1107.75,-471.515 1097.28,-469.844 1098.53,-476.733"/>
</g>
<!-- Node2&#45;&gt;Node3 -->
<g id="edge2" class="edge"><title>Node2&#45;&gt;Node3</title>
<path fill="none" stroke="midnightblue" d="M296.177,-192.488C333.07,-184.879 386.237,-172.402 431,-156 461.234,-144.922 465.106,-133.078 496,-124 630.771,-84.3963 679.111,-138.989 810,-88 832.531,-79.2228 831.915,-65.8452 854,-56 921.266,-26.0144 946.52,-37.9517 1022.39,-19.9052"/>
<polygon fill="midnightblue" stroke="midnightblue" points="1023.54,-23.2245 1032.41,-17.4194 1021.86,-16.4304 1023.54,-23.2245"/>
</g>
<!-- Node4 -->
<g id="node4" class="node"><title>Node4</title>
<polygon fill="none" stroke="#bfbfbf" points="219.5,-130.5 219.5,-149.5 292.5,-149.5 292.5,-130.5 219.5,-130.5"/>
<text text-anchor="middle" x="256" y="-137.5" font-family="Helvetica,sans-Serif" font-size="10.00">initializer_list</text>
</g>
<!-- Node2&#45;&gt;Node4 -->
<g id="edge3" class="edge"><title>Node2&#45;&gt;Node4</title>
<path fill="none" stroke="midnightblue" d="M251.716,-192.403C252.422,-183.938 253.523,-170.728 254.432,-159.82"/>
<polygon fill="midnightblue" stroke="midnightblue" points="257.942,-159.837 255.285,-149.581 250.966,-159.255 257.942,-159.837"/>
</g>
<!-- Node2&#45;&gt;Node5 -->
<g id="edge4" class="edge"><title>Node2&#45;&gt;Node5</title>
<path fill="none" stroke="midnightblue" d="M298.234,-197.449C444.959,-186.417 890.518,-152.916 1015.87,-143.491"/>
<polygon fill="midnightblue" stroke="midnightblue" points="1016.29,-146.969 1026,-142.729 1015.76,-139.989 1016.29,-146.969"/>
</g>
<!-- Node2&#45;&gt;Node6 -->
<g id="edge5" class="edge"><title>Node2&#45;&gt;Node6</title>
<path fill="none" stroke="midnightblue" d="M298.403,-193.684C354.986,-184.59 445.981,-168.716 478,-156 502.87,-146.123 503.744,-132.841 529,-124 662.832,-77.1521 705.498,-107.099 846,-88 1014.71,-65.0671 1215.29,-31.1723 1295.87,-17.2833"/>
<polygon fill="midnightblue" stroke="midnightblue" points="1296.72,-20.6875 1305.98,-15.5363 1295.53,-13.7896 1296.72,-20.6875"/>
</g>
<!-- Node7 -->
<g id="node7" class="node"><title>Node7</title>
<polygon fill="none" stroke="#bfbfbf" points="335,-62.5 335,-81.5 381,-81.5 381,-62.5 335,-62.5"/>
<text text-anchor="middle" x="358" y="-69.5" font-family="Helvetica,sans-Serif" font-size="10.00">atomic</text>
</g>
<!-- Node2&#45;&gt;Node7 -->
<g id="edge6" class="edge"><title>Node2&#45;&gt;Node7</title>
<path fill="none" stroke="midnightblue" d="M298.196,-194.378C341.154,-187.269 399.951,-174.453 414,-156 431.647,-132.821 402.189,-104.42 379.738,-87.5669"/>
<polygon fill="midnightblue" stroke="midnightblue" points="381.752,-84.704 371.589,-81.7083 377.665,-90.3876 381.752,-84.704"/>
</g>
<!-- Node2&#45;&gt;Node8 -->
<g id="edge7" class="edge"><title>Node2&#45;&gt;Node8</title>
<path fill="none" stroke="midnightblue" d="M239.681,-192.403C227.127,-182.869 206.649,-167.315 191.501,-155.811"/>
<polygon fill="midnightblue" stroke="midnightblue" points="193.378,-152.842 183.298,-149.581 189.144,-158.416 193.378,-152.842"/>
</g>
<!-- Node2&#45;&gt;Node9 -->
<g id="edge8" class="edge"><title>Node2&#45;&gt;Node9</title>
<path fill="none" stroke="midnightblue" d="M298.257,-193.646C370.555,-182.33 502.54,-161.387 524,-156 527.853,-155.033 531.85,-153.883 535.795,-152.657"/>
<polygon fill="midnightblue" stroke="midnightblue" points="536.968,-155.955 545.378,-149.511 534.785,-149.305 536.968,-155.955"/>
</g>
<!-- Node10 -->
<g id="node10" class="node"><title>Node10</title>
<g id="a_node10"><a xlink:href="null__mutex_8h.html" target="_top" xlink:title="spdlog/details/null\l_mutex.h">
<polygon fill="none" stroke="black" points="310.5,-125 310.5,-155 405.5,-155 405.5,-125 310.5,-125"/>
<text text-anchor="start" x="318.5" y="-143" font-family="Helvetica,sans-Serif" font-size="10.00">spdlog/details/null</text>
<text text-anchor="middle" x="358" y="-132" font-family="Helvetica,sans-Serif" font-size="10.00">_mutex.h</text>
</a>
</g>
</g>
<!-- Node2&#45;&gt;Node10 -->
<g id="edge9" class="edge"><title>Node2&#45;&gt;Node10</title>
<path fill="none" stroke="midnightblue" d="M266.33,-192.403C281.296,-184.011 304.577,-170.957 323.931,-160.104"/>
<polygon fill="midnightblue" stroke="midnightblue" points="325.772,-163.085 332.782,-155.141 322.348,-156.979 325.772,-163.085"/>
</g>
<!-- Node11 -->
<g id="node11" class="node"><title>Node11</title>
<g id="a_node11"><a xlink:href="fmt_8h.html" target="_top" xlink:title="spdlog/fmt/fmt.h">
<polygon fill="none" stroke="black" points="708,-130.5 708,-149.5 796,-149.5 796,-130.5 708,-130.5"/>
<text text-anchor="middle" x="752" y="-137.5" font-family="Helvetica,sans-Serif" font-size="10.00">spdlog/fmt/fmt.h</text>
</a>
</g>
</g>
<!-- Node2&#45;&gt;Node11 -->
<g id="edge11" class="edge"><title>Node2&#45;&gt;Node11</title>
<path fill="none" stroke="midnightblue" d="M298.133,-195.355C391.414,-184.184 599.06,-159.316 697.81,-147.49"/>
<polygon fill="midnightblue" stroke="midnightblue" points="698.362,-150.949 707.875,-146.284 697.53,-143.998 698.362,-150.949"/>
</g>
<!-- Node10&#45;&gt;Node7 -->
<g id="edge10" class="edge"><title>Node10&#45;&gt;Node7</title>
<path fill="none" stroke="midnightblue" d="M358,-124.679C358,-115.101 358,-102.394 358,-91.9766"/>
<polygon fill="midnightblue" stroke="midnightblue" points="361.5,-91.8283 358,-81.8283 354.5,-91.8283 361.5,-91.8283"/>
</g>
<!-- Node12 -->
<g id="node12" class="node"><title>Node12</title>
<g id="a_node12"><a xlink:href="format_8h.html" target="_top" xlink:title="spdlog/fmt/bundled\l/format.h">
<polygon fill="none" stroke="black" points="702.5,-57 702.5,-87 801.5,-87 801.5,-57 702.5,-57"/>
<text text-anchor="start" x="710.5" y="-75" font-family="Helvetica,sans-Serif" font-size="10.00">spdlog/fmt/bundled</text>
<text text-anchor="middle" x="752" y="-64" font-family="Helvetica,sans-Serif" font-size="10.00">/format.h</text>
</a>
</g>
</g>
<!-- Node11&#45;&gt;Node12 -->
<g id="edge12" class="edge"><title>Node11&#45;&gt;Node12</title>
<path fill="none" stroke="midnightblue" d="M752,-130.372C752,-121.971 752,-108.811 752,-97.2126"/>
<polygon fill="midnightblue" stroke="midnightblue" points="755.5,-97.1814 752,-87.1815 748.5,-97.1815 755.5,-97.1814"/>
</g>
<!-- Node12&#45;&gt;Node3 -->
<g id="edge21" class="edge"><title>Node12&#45;&gt;Node3</title>
<path fill="none" stroke="midnightblue" d="M801.552,-59.0869C806.425,-58.0053 811.304,-56.9579 816,-56 904.459,-37.9574 930.408,-41.2063 1022.68,-19.8159"/>
<polygon fill="midnightblue" stroke="midnightblue" points="1023.5,-23.22 1032.43,-17.523 1021.89,-16.406 1023.5,-23.22"/>
</g>
<!-- Node12&#45;&gt;Node6 -->
<g id="edge19" class="edge"><title>Node12&#45;&gt;Node6</title>
<path fill="none" stroke="midnightblue" d="M801.701,-65.8585C916.059,-54.0284 1195.67,-25.103 1295.69,-14.7566"/>
<polygon fill="midnightblue" stroke="midnightblue" points="1296.3,-18.2119 1305.89,-13.7014 1295.58,-11.249 1296.3,-18.2119"/>
</g>
<!-- Node13 -->
<g id="node13" class="node"><title>Node13</title>
<polygon fill="none" stroke="#bfbfbf" points="900.5,-0.5 900.5,-19.5 949.5,-19.5 949.5,-0.5 900.5,-0.5"/>
<text text-anchor="middle" x="925" y="-7.5" font-family="Helvetica,sans-Serif" font-size="10.00">cassert</text>
</g>
<!-- Node12&#45;&gt;Node13 -->
<g id="edge13" class="edge"><title>Node12&#45;&gt;Node13</title>
<path fill="none" stroke="midnightblue" d="M792.561,-56.9327C822.489,-46.553 862.752,-32.5887 891.001,-22.7916"/>
<polygon fill="midnightblue" stroke="midnightblue" points="892.154,-26.0963 900.455,-19.5127 889.86,-19.4827 892.154,-26.0963"/>
</g>
<!-- Node14 -->
<g id="node14" class="node"><title>Node14</title>
<polygon fill="none" stroke="#bfbfbf" points="967.5,-0.5 967.5,-19.5 1014.5,-19.5 1014.5,-0.5 967.5,-0.5"/>
<text text-anchor="middle" x="991" y="-7.5" font-family="Helvetica,sans-Serif" font-size="10.00">clocale</text>
</g>
<!-- Node12&#45;&gt;Node14 -->
<g id="edge14" class="edge"><title>Node12&#45;&gt;Node14</title>
<path fill="none" stroke="midnightblue" d="M801.615,-59.0636C841.19,-49.4642 898.282,-35.4409 957.345,-20.1253"/>
<polygon fill="midnightblue" stroke="midnightblue" points="958.428,-23.4602 967.225,-17.556 956.666,-16.6856 958.428,-23.4602"/>
</g>
<!-- Node15 -->
<g id="node15" class="node"><title>Node15</title>
<polygon fill="none" stroke="#bfbfbf" points="572,-0.5 572,-19.5 616,-19.5 616,-0.5 572,-0.5"/>
<text text-anchor="middle" x="594" y="-7.5" font-family="Helvetica,sans-Serif" font-size="10.00">cmath</text>
</g>
<!-- Node12&#45;&gt;Node15 -->
<g id="edge15" class="edge"><title>Node12&#45;&gt;Node15</title>
<path fill="none" stroke="midnightblue" d="M714.956,-56.9327C687.901,-46.6584 651.596,-32.872 625.84,-23.0913"/>
<polygon fill="midnightblue" stroke="midnightblue" points="626.779,-19.7039 616.188,-19.4257 624.294,-26.2479 626.779,-19.7039"/>
</g>
<!-- Node16 -->
<g id="node16" class="node"><title>Node16</title>
<polygon fill="none" stroke="#bfbfbf" points="510.5,-0.5 510.5,-19.5 553.5,-19.5 553.5,-0.5 510.5,-0.5"/>
<text text-anchor="middle" x="532" y="-7.5" font-family="Helvetica,sans-Serif" font-size="10.00">cstdio</text>
</g>
<!-- Node12&#45;&gt;Node16 -->
<g id="edge16" class="edge"><title>Node12&#45;&gt;Node16</title>
<path fill="none" stroke="midnightblue" d="M702.188,-57.8349C666.272,-48.2798 616.39,-34.8809 563.561,-20.1184"/>
<polygon fill="midnightblue" stroke="midnightblue" points="564.239,-16.6736 553.665,-17.3467 562.351,-23.4142 564.239,-16.6736"/>
</g>
<!-- Node17 -->
<g id="node17" class="node"><title>Node17</title>
<polygon fill="none" stroke="#bfbfbf" points="634,-0.5 634,-19.5 680,-19.5 680,-0.5 634,-0.5"/>
<text text-anchor="middle" x="657" y="-7.5" font-family="Helvetica,sans-Serif" font-size="10.00">cstring</text>
</g>
<!-- Node12&#45;&gt;Node17 -->
<g id="edge17" class="edge"><title>Node12&#45;&gt;Node17</title>
<path fill="none" stroke="midnightblue" d="M729.486,-56.7808C714.31,-47.1958 694.376,-34.6062 679.255,-25.0555"/>
<polygon fill="midnightblue" stroke="midnightblue" points="680.87,-21.9365 670.547,-19.5557 677.132,-27.8549 680.87,-21.9365"/>
</g>
<!-- Node18 -->
<g id="node18" class="node"><title>Node18</title>
<polygon fill="none" stroke="#bfbfbf" points="698,-0.5 698,-19.5 738,-19.5 738,-0.5 698,-0.5"/>
<text text-anchor="middle" x="718" y="-7.5" font-family="Helvetica,sans-Serif" font-size="10.00">limits</text>
</g>
<!-- Node12&#45;&gt;Node18 -->
<g id="edge18" class="edge"><title>Node12&#45;&gt;Node18</title>
<path fill="none" stroke="midnightblue" d="M743.942,-56.7808C739.155,-48.3318 733.044,-37.5481 727.956,-28.5693"/>
<polygon fill="midnightblue" stroke="midnightblue" points="730.923,-26.7052 722.947,-19.7305 724.832,-30.1563 730.923,-26.7052"/>
</g>
<!-- Node19 -->
<g id="node19" class="node"><title>Node19</title>
<polygon fill="none" stroke="#bfbfbf" points="756.5,-0.5 756.5,-19.5 815.5,-19.5 815.5,-0.5 756.5,-0.5"/>
<text text-anchor="middle" x="786" y="-7.5" font-family="Helvetica,sans-Serif" font-size="10.00">stdexcept</text>
</g>
<!-- Node12&#45;&gt;Node19 -->
<g id="edge20" class="edge"><title>Node12&#45;&gt;Node19</title>
<path fill="none" stroke="midnightblue" d="M760.058,-56.7808C764.845,-48.3318 770.956,-37.5481 776.044,-28.5693"/>
<polygon fill="midnightblue" stroke="midnightblue" points="779.168,-30.1563 781.053,-19.7305 773.077,-26.7052 779.168,-30.1563"/>
</g>
<!-- Node12&#45;&gt;Node20 -->
<g id="edge22" class="edge"><title>Node12&#45;&gt;Node20</title>
<path fill="none" stroke="midnightblue" d="M801.87,-67.3861C906.629,-59.6798 1157.22,-40.6427 1367,-20 1382.33,-18.4919 1399.3,-16.589 1413.57,-14.9218"/>
<polygon fill="midnightblue" stroke="midnightblue" points="1414.36,-18.3523 1423.89,-13.7033 1413.54,-11.4006 1414.36,-18.3523"/>
</g>
<!-- Node12&#45;&gt;Node21 -->
<g id="edge23" class="edge"><title>Node12&#45;&gt;Node21</title>
<path fill="none" stroke="midnightblue" d="M702.186,-58.5283C697.41,-57.5733 692.625,-56.7076 688,-56 466.602,-22.1293 196.105,-13.5411 106.46,-11.5529"/>
<polygon fill="midnightblue" stroke="midnightblue" points="106.275,-8.04832 96.204,-11.3372 106.128,-15.0468 106.275,-8.04832"/>
</g>
<!-- Node22 -->
<g id="node22" class="node"><title>Node22</title>
<polygon fill="none" stroke="#bfbfbf" points="833.5,-0.5 833.5,-19.5 882.5,-19.5 882.5,-0.5 833.5,-0.5"/>
<text text-anchor="middle" x="858" y="-7.5" font-family="Helvetica,sans-Serif" font-size="10.00">stdint.h</text>
</g>
<!-- Node12&#45;&gt;Node22 -->
<g id="edge24" class="edge"><title>Node12&#45;&gt;Node22</title>
<path fill="none" stroke="midnightblue" d="M776.852,-56.9327C794.097,-47.1715 816.942,-34.2401 833.999,-24.5856"/>
<polygon fill="midnightblue" stroke="midnightblue" points="835.828,-27.572 842.807,-19.6 832.38,-21.4802 835.828,-27.572"/>
</g>
<!-- Node23&#45;&gt;Node24 -->
<g id="edge26" class="edge"><title>Node23&#45;&gt;Node24</title>
<path fill="none" stroke="midnightblue" d="M808.255,-390.372C805.555,-381.886 801.309,-368.542 797.591,-356.858"/>
<polygon fill="midnightblue" stroke="midnightblue" points="800.88,-355.649 794.512,-347.181 794.209,-357.772 800.88,-355.649"/>
</g>
<!-- Node24&#45;&gt;Node2 -->
<g id="edge27" class="edge"><title>Node24&#45;&gt;Node2</title>
<path fill="none" stroke="midnightblue" d="M743.579,-319.976C641.495,-295.734 398.524,-238.034 296.912,-213.903"/>
<polygon fill="midnightblue" stroke="midnightblue" points="297.492,-210.444 286.954,-211.538 295.875,-217.254 297.492,-210.444"/>
</g>
<!-- Node24&#45;&gt;Node3 -->
<g id="edge42" class="edge"><title>Node24&#45;&gt;Node3</title>
<path fill="none" stroke="midnightblue" d="M801.64,-316.837C844.481,-264.712 993.278,-83.6652 1039.32,-27.6487"/>
<polygon fill="midnightblue" stroke="midnightblue" points="1042.15,-29.7187 1045.79,-19.7708 1036.74,-25.2741 1042.15,-29.7187"/>
</g>
<!-- Node24&#45;&gt;Node21 -->
<g id="edge43" class="edge"><title>Node24&#45;&gt;Node21</title>
<path fill="none" stroke="midnightblue" d="M743.922,-330.892C591.382,-330.114 109.509,-324.154 57,-280 30.0215,-257.315 38,-238.249 38,-203 38,-203 38,-203 38,-139 38,-98.2307 55.9354,-53.0653 67.1626,-28.7866"/>
<polygon fill="midnightblue" stroke="midnightblue" points="70.335,-30.2655 71.4917,-19.734 64.0199,-27.2455 70.335,-30.2655"/>
</g>
<!-- Node24&#45;&gt;Node25 -->
<g id="edge28" class="edge"><title>Node24&#45;&gt;Node25</title>
<path fill="none" stroke="midnightblue" d="M775.462,-316.679C764.808,-306.184 750.34,-291.932 739.295,-281.052"/>
<polygon fill="midnightblue" stroke="midnightblue" points="741.542,-278.353 731.962,-273.828 736.63,-283.339 741.542,-278.353"/>
</g>
<!-- Node25&#45;&gt;Node2 -->
<g id="edge29" class="edge"><title>Node25&#45;&gt;Node2</title>
<path fill="none" stroke="midnightblue" d="M673.823,-256.749C585.862,-245.567 402.056,-222.202 308.447,-210.303"/>
<polygon fill="midnightblue" stroke="midnightblue" points="308.671,-206.803 298.31,-209.014 307.788,-213.747 308.671,-206.803"/>
</g>
<!-- Node25&#45;&gt;Node3 -->
<g id="edge33" class="edge"><title>Node25&#45;&gt;Node3</title>
<path fill="none" stroke="midnightblue" d="M762.637,-254.421C789.349,-246.957 823.965,-233.819 848,-212 905.995,-159.351 871.05,-107.577 930,-56 937.231,-49.6735 988.528,-32.0858 1022.55,-20.8642"/>
<polygon fill="midnightblue" stroke="midnightblue" points="1024.08,-24.0474 1032.49,-17.6056 1021.9,-17.3959 1024.08,-24.0474"/>
</g>
<!-- Node25&#45;&gt;Node5 -->
<g id="edge34" class="edge"><title>Node25&#45;&gt;Node5</title>
<path fill="none" stroke="midnightblue" d="M752.288,-254.485C784.398,-244.945 837.306,-228.629 882,-212 931.504,-193.581 987.794,-168.836 1020.75,-153.95"/>
<polygon fill="midnightblue" stroke="midnightblue" points="1022.53,-156.984 1030.19,-149.665 1019.64,-150.609 1022.53,-156.984"/>
</g>
<!-- Node25&#45;&gt;Node9 -->
<g id="edge32" class="edge"><title>Node25&#45;&gt;Node9</title>
<path fill="none" stroke="midnightblue" d="M673.95,-263.018C589.998,-261.889 424.28,-254.221 388,-212 326.472,-140.396 281.123,-229.447 524,-156 527.346,-154.988 530.819,-153.889 534.281,-152.762"/>
<polygon fill="midnightblue" stroke="midnightblue" points="535.512,-156.041 543.891,-149.557 533.297,-149.401 535.512,-156.041"/>
</g>
<!-- Node25&#45;&gt;Node16 -->
<g id="edge30" class="edge"><title>Node25&#45;&gt;Node16</title>
<path fill="none" stroke="midnightblue" d="M673.836,-262.086C596.715,-259.496 452.795,-249.614 421,-212 415.262,-205.211 415.347,-198.859 421,-192 474.274,-127.36 552.726,-220.64 606,-156 640.321,-114.357 582.28,-54.1705 550.56,-26.2675"/>
<polygon fill="midnightblue" stroke="midnightblue" points="552.644,-23.4438 542.772,-19.5968 548.09,-28.7603 552.644,-23.4438"/>
</g>
<!-- Node26 -->
<g id="node26" class="node"><title>Node26</title>
<polygon fill="none" stroke="#bfbfbf" points="1034.5,-192.5 1034.5,-211.5 1075.5,-211.5 1075.5,-192.5 1034.5,-192.5"/>
<text text-anchor="middle" x="1055" y="-199.5" font-family="Helvetica,sans-Serif" font-size="10.00">ctime</text>
</g>
<!-- Node25&#45;&gt;Node26 -->
<g id="edge31" class="edge"><title>Node25&#45;&gt;Node26</title>
<path fill="none" stroke="midnightblue" d="M772.085,-256.449C831.95,-248.055 936.043,-232.15 1024,-212 1024.21,-211.952 1024.42,-211.902 1024.64,-211.853"/>
<polygon fill="midnightblue" stroke="midnightblue" points="1025.6,-215.219 1034.41,-209.335 1023.85,-208.441 1025.6,-215.219"/>
</g>
<!-- Node25&#45;&gt;Node27 -->
<g id="edge35" class="edge"><title>Node25&#45;&gt;Node27</title>
<path fill="none" stroke="midnightblue" d="M761.54,-254.467C815.292,-242.566 911.792,-221.201 961.874,-210.113"/>
<polygon fill="midnightblue" stroke="midnightblue" points="962.817,-213.489 971.824,-207.91 961.304,-206.654 962.817,-213.489"/>
</g>
<!-- Node28 -->
<g id="node28" class="node"><title>Node28</title>
<polygon fill="none" stroke="#bfbfbf" points="430,-192.5 430,-211.5 476,-211.5 476,-192.5 430,-192.5"/>
<text text-anchor="middle" x="453" y="-199.5" font-family="Helvetica,sans-Serif" font-size="10.00">stdio.h</text>
</g>
<!-- Node25&#45;&gt;Node28 -->
<g id="edge36" class="edge"><title>Node25&#45;&gt;Node28</title>
<path fill="none" stroke="midnightblue" d="M678.944,-254.425C633.086,-245.307 558.983,-230.034 485.866,-212.095"/>
<polygon fill="midnightblue" stroke="midnightblue" points="486.574,-208.665 476.026,-209.663 484.894,-215.461 486.574,-208.665"/>
</g>
<!-- Node29 -->
<g id="node29" class="node"><title>Node29</title>
<polygon fill="none" stroke="#bfbfbf" points="494.5,-192.5 494.5,-211.5 543.5,-211.5 543.5,-192.5 494.5,-192.5"/>
<text text-anchor="middle" x="519" y="-199.5" font-family="Helvetica,sans-Serif" font-size="10.00">string.h</text>
</g>
<!-- Node25&#45;&gt;Node29 -->
<g id="edge37" class="edge"><title>Node25&#45;&gt;Node29</title>
<path fill="none" stroke="midnightblue" d="M693.772,-254.403C656.678,-243.494 592.792,-224.704 553.392,-213.115"/>
<polygon fill="midnightblue" stroke="midnightblue" points="554.274,-209.727 543.693,-210.263 552.299,-216.442 554.274,-209.727"/>
</g>
<!-- Node30 -->
<g id="node30" class="node"><title>Node30</title>
<polygon fill="none" stroke="#bfbfbf" points="562,-192.5 562,-211.5 622,-211.5 622,-192.5 562,-192.5"/>
<text text-anchor="middle" x="592" y="-199.5" font-family="Helvetica,sans-Serif" font-size="10.00">sys/stat.h</text>
</g>
<!-- Node25&#45;&gt;Node30 -->
<g id="edge38" class="edge"><title>Node25&#45;&gt;Node30</title>
<path fill="none" stroke="midnightblue" d="M704.231,-254.403C682.149,-244.29 645.281,-227.404 619.861,-215.761"/>
<polygon fill="midnightblue" stroke="midnightblue" points="621.284,-212.563 610.734,-211.581 618.369,-218.927 621.284,-212.563"/>
</g>
<!-- Node31 -->
<g id="node31" class="node"><title>Node31</title>
<polygon fill="none" stroke="#bfbfbf" points="640,-192.5 640,-211.5 708,-211.5 708,-192.5 640,-192.5"/>
<text text-anchor="middle" x="674" y="-199.5" font-family="Helvetica,sans-Serif" font-size="10.00">sys/types.h</text>
</g>
<!-- Node25&#45;&gt;Node31 -->
<g id="edge39" class="edge"><title>Node25&#45;&gt;Node31</title>
<path fill="none" stroke="midnightblue" d="M715.979,-254.403C708.557,-245.314 696.667,-230.756 687.433,-219.449"/>
<polygon fill="midnightblue" stroke="midnightblue" points="690.044,-217.112 681.007,-211.581 684.622,-221.54 690.044,-217.112"/>
</g>
<!-- Node32 -->
<g id="node32" class="node"><title>Node32</title>
<polygon fill="none" stroke="#bfbfbf" points="726.5,-192.5 726.5,-211.5 777.5,-211.5 777.5,-192.5 726.5,-192.5"/>
<text text-anchor="middle" x="752" y="-199.5" font-family="Helvetica,sans-Serif" font-size="10.00">unistd.h</text>
</g>
<!-- Node25&#45;&gt;Node32 -->
<g id="edge40" class="edge"><title>Node25&#45;&gt;Node32</title>
<path fill="none" stroke="midnightblue" d="M727.155,-254.403C731.376,-245.671 738.037,-231.889 743.4,-220.794"/>
<polygon fill="midnightblue" stroke="midnightblue" points="746.652,-222.107 747.853,-211.581 740.35,-219.061 746.652,-222.107"/>
</g>
<!-- Node33 -->
<g id="node33" class="node"><title>Node33</title>
<polygon fill="none" stroke="#bfbfbf" points="796,-192.5 796,-211.5 840,-211.5 840,-192.5 796,-192.5"/>
<text text-anchor="middle" x="818" y="-199.5" font-family="Helvetica,sans-Serif" font-size="10.00">fcntl.h</text>
</g>
<!-- Node25&#45;&gt;Node33 -->
<g id="edge41" class="edge"><title>Node25&#45;&gt;Node33</title>
<path fill="none" stroke="midnightblue" d="M736.611,-254.403C752.061,-244.646 777.49,-228.585 795.816,-217.011"/>
<polygon fill="midnightblue" stroke="midnightblue" points="797.828,-219.88 804.414,-211.581 794.09,-213.961 797.828,-219.88"/>
</g>
<!-- Node34&#45;&gt;Node2 -->
<g id="edge45" class="edge"><title>Node34&#45;&gt;Node2</title>
<path fill="none" stroke="midnightblue" d="M150.714,-248.933C172.618,-238.9 201.833,-225.519 223.078,-215.789"/>
<polygon fill="midnightblue" stroke="midnightblue" points="224.589,-218.946 232.223,-211.6 221.674,-212.582 224.589,-218.946"/>
</g>
<!-- Node34&#45;&gt;Node7 -->
<g id="edge46" class="edge"><title>Node34&#45;&gt;Node7</title>
<path fill="none" stroke="midnightblue" d="M116.459,-248.707C110.507,-220.939 101.975,-159.332 133,-124 157.952,-95.5837 268.512,-81.3401 324.812,-75.8218"/>
<polygon fill="midnightblue" stroke="midnightblue" points="325.357,-79.286 334.984,-74.8621 324.699,-72.317 325.357,-79.286"/>
</g>
<!-- Node34&#45;&gt;Node21 -->
<g id="edge47" class="edge"><title>Node34&#45;&gt;Node21</title>
<path fill="none" stroke="midnightblue" d="M115.987,-248.796C113.206,-238.612 109.558,-224.534 107,-212 93.431,-145.508 82.7629,-65.5602 78.2883,-29.8407"/>
<polygon fill="midnightblue" stroke="midnightblue" points="81.7564,-29.3664 77.0573,-19.8707 74.8091,-30.2242 81.7564,-29.3664"/>
</g>
<!-- Node35&#45;&gt;Node3 -->
<g id="edge53" class="edge"><title>Node35&#45;&gt;Node3</title>
<path fill="none" stroke="midnightblue" d="M1176.09,-452.474C1191.02,-445.2 1209.92,-433.171 1219,-416 1253.9,-349.986 1231.36,-321.95 1221,-248 1207.95,-154.854 1200.36,-120.601 1132,-56 1117.75,-42.533 1098.73,-31.5401 1082.92,-23.7909"/>
<polygon fill="midnightblue" stroke="midnightblue" points="1084.1,-20.4799 1073.57,-19.3921 1081.13,-26.8146 1084.1,-20.4799"/>
</g>
<!-- Node35&#45;&gt;Node6 -->
<g id="edge54" class="edge"><title>Node35&#45;&gt;Node6</title>
<path fill="none" stroke="midnightblue" d="M1199.83,-452.448C1281.46,-433.995 1446,-382.255 1446,-265 1446,-265 1446,-265 1446,-139 1446,-86.2307 1391.3,-45.1502 1357.68,-24.8847"/>
<polygon fill="midnightblue" stroke="midnightblue" points="1359.22,-21.7332 1348.82,-19.7283 1355.7,-27.7832 1359.22,-21.7332"/>
</g>
<!-- Node35&#45;&gt;Node20 -->
<g id="edge52" class="edge"><title>Node35&#45;&gt;Node20</title>
<path fill="none" stroke="midnightblue" d="M1202.6,-455.32C1244.49,-449.182 1306.51,-437.288 1357,-416 1419.13,-389.802 1484,-400.43 1484,-333 1484,-333 1484,-333 1484,-139 1484,-98.2307 1466.06,-53.0653 1454.84,-28.7866"/>
<polygon fill="midnightblue" stroke="midnightblue" points="1457.98,-27.2455 1450.51,-19.734 1451.67,-30.2655 1457.98,-27.2455"/>
</g>
<!-- Node35&#45;&gt;Node24 -->
<g id="edge51" class="edge"><title>Node35&#45;&gt;Node24</title>
<path fill="none" stroke="midnightblue" d="M1130.48,-452.403C1071.24,-431.627 919.338,-378.357 839.979,-350.527"/>
<polygon fill="midnightblue" stroke="midnightblue" points="840.802,-347.107 830.207,-347.1 838.486,-353.712 840.802,-347.107"/>
</g>
<!-- Node36 -->
<g id="node36" class="node"><title>Node36</title>
<g id="a_node36"><a xlink:href="pattern__formatter__impl_8h.html" target="_top" xlink:title="spdlog/details/pattern\l_formatter_impl.h">
<polygon fill="none" stroke="black" points="1100,-385 1100,-415 1210,-415 1210,-385 1100,-385"/>
<text text-anchor="start" x="1108" y="-403" font-family="Helvetica,sans-Serif" font-size="10.00">spdlog/details/pattern</text>
<text text-anchor="middle" x="1155" y="-392" font-family="Helvetica,sans-Serif" font-size="10.00">_formatter_impl.h</text>
</a>
</g>
</g>
<!-- Node35&#45;&gt;Node36 -->
<g id="edge55" class="edge"><title>Node35&#45;&gt;Node36</title>
<path fill="none" stroke="midnightblue" d="M1150.1,-452.403C1148.57,-445.341 1147.99,-434.975 1148.36,-425.399"/>
<polygon fill="midnightblue" stroke="midnightblue" points="1151.87,-425.386 1149.17,-415.141 1144.89,-424.832 1151.87,-425.386"/>
</g>
<!-- Node36&#45;&gt;Node3 -->
<g id="edge64" class="edge"><title>Node36&#45;&gt;Node3</title>
<path fill="none" stroke="midnightblue" d="M1169.49,-384.86C1178.15,-375.359 1188.34,-362.044 1193,-348 1213.66,-285.687 1225.67,-266.903 1154,-124 1133.62,-83.3623 1094.74,-46.1051 1071.62,-26.1767"/>
<polygon fill="midnightblue" stroke="midnightblue" points="1073.78,-23.4179 1063.88,-19.6446 1069.26,-28.7681 1073.78,-23.4179"/>
</g>
<!-- Node36&#45;&gt;Node5 -->
<g id="edge60" class="edge"><title>Node36&#45;&gt;Node5</title>
<path fill="none" stroke="midnightblue" d="M1111.23,-384.911C1093.96,-376.963 1075.91,-365.103 1066,-348 1029.36,-284.767 1150.91,-257.253 1118,-192 1109.61,-175.369 1092.95,-162.816 1078.11,-154.327"/>
<polygon fill="midnightblue" stroke="midnightblue" points="1079.66,-151.187 1069.19,-149.565 1076.36,-157.362 1079.66,-151.187"/>
</g>
<!-- Node36&#45;&gt;Node6 -->
<g id="edge62" class="edge"><title>Node36&#45;&gt;Node6</title>
<path fill="none" stroke="midnightblue" d="M1175.61,-384.977C1187.9,-375.711 1203.01,-362.609 1213,-348 1286.43,-240.648 1319.39,-83.1514 1328.93,-29.606"/>
<polygon fill="midnightblue" stroke="midnightblue" points="1332.41,-30.0076 1330.66,-19.5592 1325.51,-28.8217 1332.41,-30.0076"/>
</g>
<!-- Node36&#45;&gt;Node11 -->
<g id="edge59" class="edge"><title>Node36&#45;&gt;Node11</title>
<path fill="none" stroke="midnightblue" d="M1163,-384.789C1168.13,-374.834 1174.31,-361.032 1177,-348 1179.88,-334.072 1180.51,-329.783 1177,-316 1160.01,-249.238 1145.45,-223.132 1084,-192 1036.42,-167.896 887.321,-152.199 806.079,-145.202"/>
<polygon fill="midnightblue" stroke="midnightblue" points="806.301,-141.708 796.041,-144.352 805.71,-148.683 806.301,-141.708"/>
</g>
<!-- Node36&#45;&gt;Node20 -->
<g id="edge67" class="edge"><title>Node36&#45;&gt;Node20</title>
<path fill="none" stroke="midnightblue" d="M1205.29,-384.982C1279.07,-360.991 1408,-304.54 1408,-203 1408,-203 1408,-203 1408,-139 1408,-98.2307 1425.94,-53.0653 1437.16,-28.7866"/>
<polygon fill="midnightblue" stroke="midnightblue" points="1440.33,-30.2655 1441.49,-19.734 1434.02,-27.2455 1440.33,-30.2655"/>
</g>
<!-- Node36&#45;&gt;Node21 -->
<g id="edge66" class="edge"><title>Node36&#45;&gt;Node21</title>
<path fill="none" stroke="midnightblue" d="M1131.81,-384.838C1119.58,-375.947 1105.75,-363.276 1099,-348 1093.25,-334.991 1096.64,-330.025 1099,-316 1108.52,-259.408 1153.9,-246.186 1135,-192 1122.29,-155.56 1114.94,-142.37 1081,-124 1004.85,-82.7831 779.085,-97.3628 693,-88 467.158,-63.4368 195.674,-27.2238 106.205,-15.1135"/>
<polygon fill="midnightblue" stroke="midnightblue" points="106.592,-11.634 96.2121,-13.7586 105.651,-18.5705 106.592,-11.634"/>
</g>
<!-- Node36&#45;&gt;Node24 -->
<g id="edge57" class="edge"><title>Node36&#45;&gt;Node24</title>
<path fill="none" stroke="midnightblue" d="M1099.96,-389.048C1031.58,-376.682 915.505,-355.694 846.466,-343.21"/>
<polygon fill="midnightblue" stroke="midnightblue" points="846.681,-339.693 836.218,-341.357 845.436,-346.581 846.681,-339.693"/>
</g>
<!-- Node36&#45;&gt;Node25 -->
<g id="edge58" class="edge"><title>Node36&#45;&gt;Node25</title>
<path fill="none" stroke="midnightblue" d="M1109.47,-384.949C1076.33,-374.717 1030.38,-360.517 990,-348 908.063,-322.601 812.017,-292.717 760.387,-276.643"/>
<polygon fill="midnightblue" stroke="midnightblue" points="761.259,-273.249 750.67,-273.618 759.178,-279.932 761.259,-273.249"/>
</g>
<!-- Node36&#45;&gt;Node26 -->
<g id="edge61" class="edge"><title>Node36&#45;&gt;Node26</title>
<path fill="none" stroke="midnightblue" d="M1159.35,-384.926C1163.82,-367.948 1168.97,-338.841 1160,-316 1143.18,-273.191 1101.67,-236.961 1076.17,-217.751"/>
<polygon fill="midnightblue" stroke="midnightblue" points="1078.02,-214.768 1067.88,-211.683 1073.88,-220.415 1078.02,-214.768"/>
</g>
<!-- Node36&#45;&gt;Node27 -->
<g id="edge65" class="edge"><title>Node36&#45;&gt;Node27</title>
<path fill="none" stroke="midnightblue" d="M1100,-389.059C1074.68,-381.766 1046.27,-369.269 1028,-348 996.779,-311.649 992.943,-251.939 993.205,-221.741"/>
<polygon fill="midnightblue" stroke="midnightblue" points="996.704,-221.807 993.457,-211.722 989.706,-221.631 996.704,-221.807"/>
</g>
<!-- Node36&#45;&gt;Node35 -->
<g id="edge56" class="edge"><title>Node36&#45;&gt;Node35</title>
<path fill="none" stroke="midnightblue" d="M1160.83,-415.141C1161.87,-423.272 1162.03,-433.585 1161.3,-442.371"/>
<polygon fill="midnightblue" stroke="midnightblue" points="1157.81,-442.016 1159.9,-452.403 1164.75,-442.982 1157.81,-442.016"/>
</g>
<!-- Node37 -->
<g id="node37" class="node"><title>Node37</title>
<polygon fill="none" stroke="#bfbfbf" points="1108,-322.5 1108,-341.5 1152,-341.5 1152,-322.5 1108,-322.5"/>
<text text-anchor="middle" x="1130" y="-329.5" font-family="Helvetica,sans-Serif" font-size="10.00">mutex</text>
</g>
<!-- Node36&#45;&gt;Node37 -->
<g id="edge63" class="edge"><title>Node36&#45;&gt;Node37</title>
<path fill="none" stroke="midnightblue" d="M1149.58,-384.679C1145.87,-374.898 1140.93,-361.852 1136.94,-351.315"/>
<polygon fill="midnightblue" stroke="midnightblue" points="1140.16,-349.94 1133.34,-341.828 1133.61,-352.42 1140.16,-349.94"/>
</g>
</g>
</svg>
