<?xml version="1.0" encoding="UTF-8" standalone="no"?>
<!DOCTYPE svg PUBLIC "-//W3C//DTD SVG 1.1//EN"
 "http://www.w3.org/Graphics/SVG/1.1/DTD/svg11.dtd">
<!-- Generated by graphviz version 2.36.0 (20140111.2315)
 -->
<!-- Title: /home/lucamuratore/advr&#45;superbuild/external/XBotInterface/include/spdlog/sinks/base_sink.h Pages: 1 -->
<svg width="1366pt" height="558pt"
 viewBox="0.00 0.00 1366.00 558.00" xmlns="http://www.w3.org/2000/svg" xmlns:xlink="http://www.w3.org/1999/xlink">
<g id="graph0" class="graph" transform="scale(1 1) rotate(0) translate(4 554)">
<title>/home/lucamuratore/advr&#45;superbuild/external/XBotInterface/include/spdlog/sinks/base_sink.h</title>
<!-- Node1 -->
<g id="node1" class="node"><title>Node1</title>
<polygon fill="#bfbfbf" stroke="black" points="189.5,-497 189.5,-549 334.5,-549 334.5,-497 189.5,-497"/>
<text text-anchor="start" x="197.5" y="-537" font-family="Helvetica,sans-Serif" font-size="10.00">/home/lucamuratore</text>
<text text-anchor="start" x="197.5" y="-526" font-family="Helvetica,sans-Serif" font-size="10.00">/advr&#45;superbuild/external</text>
<text text-anchor="start" x="197.5" y="-515" font-family="Helvetica,sans-Serif" font-size="10.00">/XBotInterface/include/spdlog</text>
<text text-anchor="middle" x="262" y="-504" font-family="Helvetica,sans-Serif" font-size="10.00">/sinks/base_sink.h</text>
</g>
<!-- Node2 -->
<g id="node2" class="node"><title>Node2</title>
<g id="a_node2"><a xlink:href="sink_8h.html" target="_top" xlink:title="spdlog/sinks/sink.h">
<polygon fill="none" stroke="black" points="56.5,-378.5 56.5,-397.5 157.5,-397.5 157.5,-378.5 56.5,-378.5"/>
<text text-anchor="middle" x="107" y="-385.5" font-family="Helvetica,sans-Serif" font-size="10.00">spdlog/sinks/sink.h</text>
</a>
</g>
</g>
<!-- Node1&#45;&gt;Node2 -->
<g id="edge1" class="edge"><title>Node1&#45;&gt;Node2</title>
<path fill="none" stroke="midnightblue" d="M221.586,-496.988C205.547,-486.349 187.312,-473.331 172,-460 152.613,-443.121 133.058,-420.894 120.535,-405.839"/>
<polygon fill="midnightblue" stroke="midnightblue" points="123.074,-403.415 114.029,-397.898 117.66,-407.851 123.074,-403.415"/>
</g>
<!-- Node3 -->
<g id="node3" class="node"><title>Node3</title>
<g id="a_node3"><a xlink:href="log__msg_8h.html" target="_top" xlink:title="spdlog/details/log\l_msg.h">
<polygon fill="none" stroke="black" points="61,-305 61,-335 153,-335 153,-305 61,-305"/>
<text text-anchor="start" x="69" y="-323" font-family="Helvetica,sans-Serif" font-size="10.00">spdlog/details/log</text>
<text text-anchor="middle" x="107" y="-312" font-family="Helvetica,sans-Serif" font-size="10.00">_msg.h</text>
</a>
</g>
</g>
<!-- Node1&#45;&gt;Node3 -->
<g id="edge62" class="edge"><title>Node1&#45;&gt;Node3</title>
<path fill="none" stroke="midnightblue" d="M248.872,-496.863C231.999,-465.782 200.71,-412.086 166,-372 156.465,-360.989 144.525,-350.226 133.885,-341.447"/>
<polygon fill="midnightblue" stroke="midnightblue" points="136.048,-338.695 126.063,-335.149 131.658,-344.147 136.048,-338.695"/>
</g>
<!-- Node4 -->
<g id="node4" class="node"><title>Node4</title>
<g id="a_node4"><a xlink:href="common_8h.html" target="_top" xlink:title="spdlog/common.h">
<polygon fill="none" stroke="black" points="196,-192.5 196,-211.5 290,-211.5 290,-192.5 196,-192.5"/>
<text text-anchor="middle" x="243" y="-199.5" font-family="Helvetica,sans-Serif" font-size="10.00">spdlog/common.h</text>
</a>
</g>
</g>
<!-- Node1&#45;&gt;Node4 -->
<g id="edge61" class="edge"><title>Node1&#45;&gt;Node4</title>
<path fill="none" stroke="midnightblue" d="M262,-496.997C262,-470.265 262,-426.637 262,-389 262,-389 262,-389 262,-319 262,-284.259 253.598,-244.426 247.968,-221.636"/>
<polygon fill="midnightblue" stroke="midnightblue" points="251.282,-220.468 245.406,-211.652 244.502,-222.208 251.282,-220.468"/>
</g>
<!-- Node34 -->
<g id="node34" class="node"><title>Node34</title>
<g id="a_node34"><a xlink:href="formatter_8h.html" target="_top" xlink:title="spdlog/formatter.h">
<polygon fill="none" stroke="black" points="985.5,-440.5 985.5,-459.5 1080.5,-459.5 1080.5,-440.5 985.5,-440.5"/>
<text text-anchor="middle" x="1033" y="-447.5" font-family="Helvetica,sans-Serif" font-size="10.00">spdlog/formatter.h</text>
</a>
</g>
</g>
<!-- Node1&#45;&gt;Node34 -->
<g id="edge43" class="edge"><title>Node1&#45;&gt;Node34</title>
<path fill="none" stroke="midnightblue" d="M334.534,-515.32C486.852,-501.294 837.319,-469.02 975.492,-456.296"/>
<polygon fill="midnightblue" stroke="midnightblue" points="975.823,-459.78 985.46,-455.378 975.181,-452.81 975.823,-459.78"/>
</g>
<!-- Node36 -->
<g id="node36" class="node"><title>Node36</title>
<polygon fill="none" stroke="#bfbfbf" points="1314,-310.5 1314,-329.5 1358,-329.5 1358,-310.5 1314,-310.5"/>
<text text-anchor="middle" x="1336" y="-317.5" font-family="Helvetica,sans-Serif" font-size="10.00">mutex</text>
</g>
<!-- Node1&#45;&gt;Node36 -->
<g id="edge63" class="edge"><title>Node1&#45;&gt;Node36</title>
<path fill="none" stroke="midnightblue" d="M334.722,-521.045C479.373,-518.157 813.04,-506.554 1089,-460 1184.67,-443.86 1226.45,-467.28 1300,-404 1319.31,-387.387 1328.6,-358.514 1332.82,-339.581"/>
<polygon fill="midnightblue" stroke="midnightblue" points="1336.26,-340.238 1334.75,-329.75 1329.39,-338.886 1336.26,-340.238"/>
</g>
<!-- Node2&#45;&gt;Node3 -->
<g id="edge2" class="edge"><title>Node2&#45;&gt;Node3</title>
<path fill="none" stroke="midnightblue" d="M107,-378.372C107,-369.971 107,-356.811 107,-345.213"/>
<polygon fill="midnightblue" stroke="midnightblue" points="110.5,-345.181 107,-335.181 103.5,-345.181 110.5,-345.181"/>
</g>
<!-- Node3&#45;&gt;Node4 -->
<g id="edge3" class="edge"><title>Node3&#45;&gt;Node4</title>
<path fill="none" stroke="midnightblue" d="M123.676,-304.776C149.405,-282.831 198.571,-240.895 225.05,-218.31"/>
<polygon fill="midnightblue" stroke="midnightblue" points="227.455,-220.859 232.792,-211.707 222.912,-215.534 227.455,-220.859"/>
</g>
<!-- Node5 -->
<g id="node5" class="node"><title>Node5</title>
<polygon fill="none" stroke="#bfbfbf" points="505.5,-0.5 505.5,-19.5 546.5,-19.5 546.5,-0.5 505.5,-0.5"/>
<text text-anchor="middle" x="526" y="-7.5" font-family="Helvetica,sans-Serif" font-size="10.00">string</text>
</g>
<!-- Node3&#45;&gt;Node5 -->
<g id="edge41" class="edge"><title>Node3&#45;&gt;Node5</title>
<path fill="none" stroke="midnightblue" d="M100.837,-304.804C86.9814,-270.502 57.4109,-181.688 95,-124 139.633,-55.5011 404.41,-23.0798 495.352,-13.859"/>
<polygon fill="midnightblue" stroke="midnightblue" points="495.707,-17.3411 505.313,-12.8721 495.016,-10.3753 495.707,-17.3411"/>
</g>
<!-- Node23 -->
<g id="node23" class="node"><title>Node23</title>
<polygon fill="none" stroke="#bfbfbf" points="56,-0.5 56,-19.5 96,-19.5 96,-0.5 56,-0.5"/>
<text text-anchor="middle" x="76" y="-7.5" font-family="Helvetica,sans-Serif" font-size="10.00">utility</text>
</g>
<!-- Node3&#45;&gt;Node23 -->
<g id="edge42" class="edge"><title>Node3&#45;&gt;Node23</title>
<path fill="none" stroke="midnightblue" d="M73.3373,-304.823C56.5458,-296.287 37.0823,-283.956 24,-268 4.47479,-244.186 0,-233.795 0,-203 0,-203 0,-203 0,-139 0,-92.9944 36.7478,-49.0786 59.1376,-26.591"/>
<polygon fill="midnightblue" stroke="midnightblue" points="61.6395,-29.0401 66.3745,-19.5623 56.7625,-24.0187 61.6395,-29.0401"/>
</g>
<!-- Node25 -->
<g id="node25" class="node"><title>Node25</title>
<g id="a_node25"><a xlink:href="os_8h.html" target="_top" xlink:title="spdlog/details/os.h">
<polygon fill="none" stroke="black" points="614,-248.5 614,-267.5 712,-267.5 712,-248.5 614,-248.5"/>
<text text-anchor="middle" x="663" y="-255.5" font-family="Helvetica,sans-Serif" font-size="10.00">spdlog/details/os.h</text>
</a>
</g>
</g>
<!-- Node3&#45;&gt;Node25 -->
<g id="edge27" class="edge"><title>Node3&#45;&gt;Node25</title>
<path fill="none" stroke="midnightblue" d="M153.448,-313.988C254.179,-303.117 492.589,-277.39 603.872,-265.381"/>
<polygon fill="midnightblue" stroke="midnightblue" points="604.347,-268.85 613.914,-264.297 603.596,-261.89 604.347,-268.85"/>
</g>
<!-- Node4&#45;&gt;Node5 -->
<g id="edge4" class="edge"><title>Node4&#45;&gt;Node5</title>
<path fill="none" stroke="midnightblue" d="M289.156,-192.447C332.777,-183.742 394.5,-169.627 415,-156 464.813,-122.887 501.493,-59.8234 517.342,-28.942"/>
<polygon fill="midnightblue" stroke="midnightblue" points="520.574,-30.3034 521.907,-19.7927 514.31,-27.1782 520.574,-30.3034"/>
</g>
<!-- Node6 -->
<g id="node6" class="node"><title>Node6</title>
<polygon fill="none" stroke="#bfbfbf" points="104.5,-130.5 104.5,-149.5 177.5,-149.5 177.5,-130.5 104.5,-130.5"/>
<text text-anchor="middle" x="141" y="-137.5" font-family="Helvetica,sans-Serif" font-size="10.00">initializer_list</text>
</g>
<!-- Node4&#45;&gt;Node6 -->
<g id="edge5" class="edge"><title>Node4&#45;&gt;Node6</title>
<path fill="none" stroke="midnightblue" d="M228.386,-192.403C211.647,-182.557 183.996,-166.291 164.281,-154.695"/>
<polygon fill="midnightblue" stroke="midnightblue" points="165.981,-151.634 155.587,-149.581 162.432,-157.668 165.981,-151.634"/>
</g>
<!-- Node7 -->
<g id="node7" class="node"><title>Node7</title>
<polygon fill="none" stroke="#bfbfbf" points="696,-130.5 696,-149.5 742,-149.5 742,-130.5 696,-130.5"/>
<text text-anchor="middle" x="719" y="-137.5" font-family="Helvetica,sans-Serif" font-size="10.00">chrono</text>
</g>
<!-- Node4&#45;&gt;Node7 -->
<g id="edge6" class="edge"><title>Node4&#45;&gt;Node7</title>
<path fill="none" stroke="midnightblue" d="M290.381,-195.028C386.575,-182.902 602.664,-155.664 685.66,-145.203"/>
<polygon fill="midnightblue" stroke="midnightblue" points="686.301,-148.649 695.785,-143.926 685.426,-141.704 686.301,-148.649"/>
</g>
<!-- Node8 -->
<g id="node8" class="node"><title>Node8</title>
<polygon fill="none" stroke="#bfbfbf" points="1098,-0.5 1098,-19.5 1150,-19.5 1150,-0.5 1098,-0.5"/>
<text text-anchor="middle" x="1124" y="-7.5" font-family="Helvetica,sans-Serif" font-size="10.00">memory</text>
</g>
<!-- Node4&#45;&gt;Node8 -->
<g id="edge7" class="edge"><title>Node4&#45;&gt;Node8</title>
<path fill="none" stroke="midnightblue" d="M290.035,-196.05C332.495,-190.337 395.947,-178.654 447,-156 469.432,-146.046 469.037,-132.659 492,-124 637.491,-69.135 687.13,-116.437 840,-88 930.828,-71.1039 1035.06,-39.6537 1088.43,-22.6439"/>
<polygon fill="midnightblue" stroke="midnightblue" points="1089.64,-25.9299 1098.09,-19.5428 1087.5,-19.2645 1089.64,-25.9299"/>
</g>
<!-- Node9 -->
<g id="node9" class="node"><title>Node9</title>
<polygon fill="none" stroke="#bfbfbf" points="258,-62.5 258,-81.5 304,-81.5 304,-62.5 258,-62.5"/>
<text text-anchor="middle" x="281" y="-69.5" font-family="Helvetica,sans-Serif" font-size="10.00">atomic</text>
</g>
<!-- Node4&#45;&gt;Node9 -->
<g id="edge8" class="edge"><title>Node4&#45;&gt;Node9</title>
<path fill="none" stroke="midnightblue" d="M260.502,-192.465C273.787,-184.917 291.076,-172.533 299,-156 309.122,-134.882 299.755,-108.019 291.186,-90.6692"/>
<polygon fill="midnightblue" stroke="midnightblue" points="294.18,-88.8452 286.387,-81.6683 288.004,-92.139 294.18,-88.8452"/>
</g>
<!-- Node10 -->
<g id="node10" class="node"><title>Node10</title>
<polygon fill="none" stroke="#bfbfbf" points="347.5,-130.5 347.5,-149.5 406.5,-149.5 406.5,-130.5 347.5,-130.5"/>
<text text-anchor="middle" x="377" y="-137.5" font-family="Helvetica,sans-Serif" font-size="10.00">exception</text>
</g>
<!-- Node4&#45;&gt;Node10 -->
<g id="edge9" class="edge"><title>Node4&#45;&gt;Node10</title>
<path fill="none" stroke="midnightblue" d="M262.199,-192.403C284.787,-182.29 322.499,-165.404 348.501,-153.761"/>
<polygon fill="midnightblue" stroke="midnightblue" points="350.14,-156.862 357.837,-149.581 347.279,-150.473 350.14,-156.862"/>
</g>
<!-- Node11 -->
<g id="node11" class="node"><title>Node11</title>
<polygon fill="none" stroke="#bfbfbf" points="501.5,-130.5 501.5,-149.5 560.5,-149.5 560.5,-130.5 501.5,-130.5"/>
<text text-anchor="middle" x="531" y="-137.5" font-family="Helvetica,sans-Serif" font-size="10.00">functional</text>
</g>
<!-- Node4&#45;&gt;Node11 -->
<g id="edge10" class="edge"><title>Node4&#45;&gt;Node11</title>
<path fill="none" stroke="midnightblue" d="M290.129,-193.153C350.189,-183.006 450.584,-165.511 487,-156 490.651,-155.047 494.435,-153.941 498.183,-152.771"/>
<polygon fill="midnightblue" stroke="midnightblue" points="499.491,-156.026 507.901,-149.582 497.308,-149.374 499.491,-156.026"/>
</g>
<!-- Node12 -->
<g id="node12" class="node"><title>Node12</title>
<g id="a_node12"><a xlink:href="null__mutex_8h.html" target="_top" xlink:title="spdlog/details/null\l_mutex.h">
<polygon fill="none" stroke="black" points="195.5,-125 195.5,-155 290.5,-155 290.5,-125 195.5,-125"/>
<text text-anchor="start" x="203.5" y="-143" font-family="Helvetica,sans-Serif" font-size="10.00">spdlog/details/null</text>
<text text-anchor="middle" x="243" y="-132" font-family="Helvetica,sans-Serif" font-size="10.00">_mutex.h</text>
</a>
</g>
</g>
<!-- Node4&#45;&gt;Node12 -->
<g id="edge11" class="edge"><title>Node4&#45;&gt;Node12</title>
<path fill="none" stroke="midnightblue" d="M243,-192.403C243,-185.341 243,-174.975 243,-165.399"/>
<polygon fill="midnightblue" stroke="midnightblue" points="246.5,-165.141 243,-155.141 239.5,-165.141 246.5,-165.141"/>
</g>
<!-- Node13 -->
<g id="node13" class="node"><title>Node13</title>
<g id="a_node13"><a xlink:href="fmt_8h.html" target="_top" xlink:title="spdlog/fmt/fmt.h">
<polygon fill="none" stroke="black" points="760,-130.5 760,-149.5 848,-149.5 848,-130.5 760,-130.5"/>
<text text-anchor="middle" x="804" y="-137.5" font-family="Helvetica,sans-Serif" font-size="10.00">spdlog/fmt/fmt.h</text>
</a>
</g>
</g>
<!-- Node4&#45;&gt;Node13 -->
<g id="edge13" class="edge"><title>Node4&#45;&gt;Node13</title>
<path fill="none" stroke="midnightblue" d="M290.331,-196.387C305.26,-194.954 321.817,-193.387 337,-192 520.929,-175.198 569.332,-189.297 751,-156 756.467,-154.998 762.184,-153.678 767.755,-152.235"/>
<polygon fill="midnightblue" stroke="midnightblue" points="768.824,-155.571 777.541,-149.55 766.971,-148.821 768.824,-155.571"/>
</g>
<!-- Node12&#45;&gt;Node9 -->
<g id="edge12" class="edge"><title>Node12&#45;&gt;Node9</title>
<path fill="none" stroke="midnightblue" d="M251.245,-124.679C256.994,-114.694 264.702,-101.307 270.832,-90.6596"/>
<polygon fill="midnightblue" stroke="midnightblue" points="273.961,-92.2409 275.917,-81.8283 267.894,-88.7481 273.961,-92.2409"/>
</g>
<!-- Node14 -->
<g id="node14" class="node"><title>Node14</title>
<g id="a_node14"><a xlink:href="format_8h.html" target="_top" xlink:title="spdlog/fmt/bundled\l/format.h">
<polygon fill="none" stroke="black" points="732.5,-57 732.5,-87 831.5,-87 831.5,-57 732.5,-57"/>
<text text-anchor="start" x="740.5" y="-75" font-family="Helvetica,sans-Serif" font-size="10.00">spdlog/fmt/bundled</text>
<text text-anchor="middle" x="782" y="-64" font-family="Helvetica,sans-Serif" font-size="10.00">/format.h</text>
</a>
</g>
</g>
<!-- Node13&#45;&gt;Node14 -->
<g id="edge14" class="edge"><title>Node13&#45;&gt;Node14</title>
<path fill="none" stroke="midnightblue" d="M801.124,-130.372C798.295,-121.886 793.847,-108.542 789.953,-96.858"/>
<polygon fill="midnightblue" stroke="midnightblue" points="793.21,-95.5615 786.727,-87.1815 786.569,-97.7751 793.21,-95.5615"/>
</g>
<!-- Node14&#45;&gt;Node5 -->
<g id="edge23" class="edge"><title>Node14&#45;&gt;Node5</title>
<path fill="none" stroke="midnightblue" d="M732.4,-59.3088C727.536,-58.1822 722.674,-57.0637 718,-56 648.768,-40.2424 628.44,-39.086 556.539,-20.2517"/>
<polygon fill="midnightblue" stroke="midnightblue" points="557.096,-16.7787 546.534,-17.605 555.306,-23.546 557.096,-16.7787"/>
</g>
<!-- Node14&#45;&gt;Node8 -->
<g id="edge21" class="edge"><title>Node14&#45;&gt;Node8</title>
<path fill="none" stroke="midnightblue" d="M831.535,-59.0002C836.412,-57.9361 841.295,-56.9166 846,-56 947.988,-36.1306 974.625,-37.7736 1077,-20 1080.46,-19.3991 1084.06,-18.7512 1087.66,-18.0883"/>
<polygon fill="midnightblue" stroke="midnightblue" points="1088.5,-21.492 1097.68,-16.2063 1087.21,-14.6123 1088.5,-21.492"/>
</g>
<!-- Node15 -->
<g id="node15" class="node"><title>Node15</title>
<polygon fill="none" stroke="#bfbfbf" points="564.5,-0.5 564.5,-19.5 613.5,-19.5 613.5,-0.5 564.5,-0.5"/>
<text text-anchor="middle" x="589" y="-7.5" font-family="Helvetica,sans-Serif" font-size="10.00">cassert</text>
</g>
<!-- Node14&#45;&gt;Node15 -->
<g id="edge15" class="edge"><title>Node14&#45;&gt;Node15</title>
<path fill="none" stroke="midnightblue" d="M736.75,-56.9327C702.065,-46.1498 654.937,-31.4984 623.319,-21.6692"/>
<polygon fill="midnightblue" stroke="midnightblue" points="624.223,-18.2848 613.634,-18.6583 622.144,-24.9693 624.223,-18.2848"/>
</g>
<!-- Node16 -->
<g id="node16" class="node"><title>Node16</title>
<polygon fill="none" stroke="#bfbfbf" points="631.5,-0.5 631.5,-19.5 678.5,-19.5 678.5,-0.5 631.5,-0.5"/>
<text text-anchor="middle" x="655" y="-7.5" font-family="Helvetica,sans-Serif" font-size="10.00">clocale</text>
</g>
<!-- Node14&#45;&gt;Node16 -->
<g id="edge16" class="edge"><title>Node14&#45;&gt;Node16</title>
<path fill="none" stroke="midnightblue" d="M752.224,-56.9327C731.085,-46.9455 702.921,-33.6397 682.348,-23.9205"/>
<polygon fill="midnightblue" stroke="midnightblue" points="683.74,-20.7072 673.203,-19.6 680.75,-27.0364 683.74,-20.7072"/>
</g>
<!-- Node17 -->
<g id="node17" class="node"><title>Node17</title>
<polygon fill="none" stroke="#bfbfbf" points="697,-0.5 697,-19.5 741,-19.5 741,-0.5 697,-0.5"/>
<text text-anchor="middle" x="719" y="-7.5" font-family="Helvetica,sans-Serif" font-size="10.00">cmath</text>
</g>
<!-- Node14&#45;&gt;Node17 -->
<g id="edge17" class="edge"><title>Node14&#45;&gt;Node17</title>
<path fill="none" stroke="midnightblue" d="M767.07,-56.7808C757.632,-47.7925 745.42,-36.162 735.667,-26.8731"/>
<polygon fill="midnightblue" stroke="midnightblue" points="737.822,-24.0926 728.167,-19.7305 732.995,-29.1616 737.822,-24.0926"/>
</g>
<!-- Node18 -->
<g id="node18" class="node"><title>Node18</title>
<polygon fill="none" stroke="#bfbfbf" points="1025.5,-0.5 1025.5,-19.5 1068.5,-19.5 1068.5,-0.5 1025.5,-0.5"/>
<text text-anchor="middle" x="1047" y="-7.5" font-family="Helvetica,sans-Serif" font-size="10.00">cstdio</text>
</g>
<!-- Node14&#45;&gt;Node18 -->
<g id="edge18" class="edge"><title>Node14&#45;&gt;Node18</title>
<path fill="none" stroke="midnightblue" d="M831.59,-59.2662C836.456,-58.1482 841.322,-57.0434 846,-56 918.287,-39.8769 939.377,-38.8403 1015.32,-20.0148"/>
<polygon fill="midnightblue" stroke="midnightblue" points="1016.52,-23.3219 1025.38,-17.4991 1014.82,-16.5313 1016.52,-23.3219"/>
</g>
<!-- Node19 -->
<g id="node19" class="node"><title>Node19</title>
<polygon fill="none" stroke="#bfbfbf" points="759,-0.5 759,-19.5 805,-19.5 805,-0.5 759,-0.5"/>
<text text-anchor="middle" x="782" y="-7.5" font-family="Helvetica,sans-Serif" font-size="10.00">cstring</text>
</g>
<!-- Node14&#45;&gt;Node19 -->
<g id="edge19" class="edge"><title>Node14&#45;&gt;Node19</title>
<path fill="none" stroke="midnightblue" d="M782,-56.7808C782,-48.7812 782,-38.6887 782,-30.0168"/>
<polygon fill="midnightblue" stroke="midnightblue" points="785.5,-29.7305 782,-19.7305 778.5,-29.7306 785.5,-29.7305"/>
</g>
<!-- Node20 -->
<g id="node20" class="node"><title>Node20</title>
<polygon fill="none" stroke="#bfbfbf" points="823,-0.5 823,-19.5 863,-19.5 863,-0.5 823,-0.5"/>
<text text-anchor="middle" x="843" y="-7.5" font-family="Helvetica,sans-Serif" font-size="10.00">limits</text>
</g>
<!-- Node14&#45;&gt;Node20 -->
<g id="edge20" class="edge"><title>Node14&#45;&gt;Node20</title>
<path fill="none" stroke="midnightblue" d="M796.456,-56.7808C805.594,-47.7925 817.419,-36.162 826.862,-26.8731"/>
<polygon fill="midnightblue" stroke="midnightblue" points="829.449,-29.2382 834.124,-19.7305 824.54,-24.2477 829.449,-29.2382"/>
</g>
<!-- Node21 -->
<g id="node21" class="node"><title>Node21</title>
<polygon fill="none" stroke="#bfbfbf" points="881.5,-0.5 881.5,-19.5 940.5,-19.5 940.5,-0.5 881.5,-0.5"/>
<text text-anchor="middle" x="911" y="-7.5" font-family="Helvetica,sans-Serif" font-size="10.00">stdexcept</text>
</g>
<!-- Node14&#45;&gt;Node21 -->
<g id="edge22" class="edge"><title>Node14&#45;&gt;Node21</title>
<path fill="none" stroke="midnightblue" d="M812.245,-56.9327C833.717,-46.9455 862.325,-33.6397 883.221,-23.9205"/>
<polygon fill="midnightblue" stroke="midnightblue" points="884.919,-26.9909 892.51,-19.6 881.967,-20.6439 884.919,-26.9909"/>
</g>
<!-- Node22 -->
<g id="node22" class="node"><title>Node22</title>
<polygon fill="none" stroke="#bfbfbf" points="1226,-0.5 1226,-19.5 1270,-19.5 1270,-0.5 1226,-0.5"/>
<text text-anchor="middle" x="1248" y="-7.5" font-family="Helvetica,sans-Serif" font-size="10.00">vector</text>
</g>
<!-- Node14&#45;&gt;Node22 -->
<g id="edge24" class="edge"><title>Node14&#45;&gt;Node22</title>
<path fill="none" stroke="midnightblue" d="M831.87,-64.5789C927.932,-52.2104 1136.18,-25.3969 1215.99,-15.1216"/>
<polygon fill="midnightblue" stroke="midnightblue" points="1216.47,-18.5888 1225.94,-13.8404 1215.57,-11.6461 1216.47,-18.5888"/>
</g>
<!-- Node14&#45;&gt;Node23 -->
<g id="edge25" class="edge"><title>Node14&#45;&gt;Node23</title>
<path fill="none" stroke="midnightblue" d="M732.355,-66.7809C595.515,-55.1514 215.799,-22.8809 106.06,-13.5547"/>
<polygon fill="midnightblue" stroke="midnightblue" points="106.275,-10.0604 96.0146,-12.701 105.682,-17.0353 106.275,-10.0604"/>
</g>
<!-- Node24 -->
<g id="node24" class="node"><title>Node24</title>
<polygon fill="none" stroke="#bfbfbf" points="958.5,-0.5 958.5,-19.5 1007.5,-19.5 1007.5,-0.5 958.5,-0.5"/>
<text text-anchor="middle" x="983" y="-7.5" font-family="Helvetica,sans-Serif" font-size="10.00">stdint.h</text>
</g>
<!-- Node14&#45;&gt;Node24 -->
<g id="edge26" class="edge"><title>Node14&#45;&gt;Node24</title>
<path fill="none" stroke="midnightblue" d="M829.126,-56.9327C865.825,-45.9776 915.902,-31.0294 948.824,-21.2019"/>
<polygon fill="midnightblue" stroke="midnightblue" points="949.875,-24.5407 958.456,-18.3265 947.873,-17.8331 949.875,-24.5407"/>
</g>
<!-- Node25&#45;&gt;Node4 -->
<g id="edge28" class="edge"><title>Node25&#45;&gt;Node4</title>
<path fill="none" stroke="midnightblue" d="M613.999,-250.7C535.79,-240.644 383.126,-221.016 300.097,-210.341"/>
<polygon fill="midnightblue" stroke="midnightblue" points="300.446,-206.857 290.081,-209.053 299.553,-213.8 300.446,-206.857"/>
</g>
<!-- Node25&#45;&gt;Node5 -->
<g id="edge32" class="edge"><title>Node25&#45;&gt;Node5</title>
<path fill="none" stroke="midnightblue" d="M655.102,-248.404C647.683,-239.832 636.869,-225.963 631,-212 603.707,-147.061 643.339,-113.747 603,-56 591.765,-39.9173 572.79,-28.7312 556.487,-21.5342"/>
<polygon fill="midnightblue" stroke="midnightblue" points="557.356,-18.1082 546.776,-17.5606 554.706,-24.5868 557.356,-18.1082"/>
</g>
<!-- Node25&#45;&gt;Node7 -->
<g id="edge33" class="edge"><title>Node25&#45;&gt;Node7</title>
<path fill="none" stroke="midnightblue" d="M712.435,-251.209C759.182,-244.596 824.43,-232.024 840,-212 880.745,-159.6 819.68,-185.961 751,-156 749.415,-155.308 747.791,-154.587 746.156,-153.852"/>
<polygon fill="midnightblue" stroke="midnightblue" points="747.41,-150.576 736.862,-149.581 744.487,-156.937 747.41,-150.576"/>
</g>
<!-- Node25&#45;&gt;Node11 -->
<g id="edge31" class="edge"><title>Node25&#45;&gt;Node11</title>
<path fill="none" stroke="midnightblue" d="M648.947,-248.48C635.351,-239.963 614.446,-226.135 598,-212 578.23,-195.008 558.03,-172.804 545.054,-157.785"/>
<polygon fill="midnightblue" stroke="midnightblue" points="547.456,-155.208 538.306,-149.866 542.128,-159.748 547.456,-155.208"/>
</g>
<!-- Node25&#45;&gt;Node18 -->
<g id="edge29" class="edge"><title>Node25&#45;&gt;Node18</title>
<path fill="none" stroke="midnightblue" d="M712.341,-253.936C754.302,-249.497 814.907,-238.625 861,-212 943.738,-164.208 1011.2,-67.5807 1036.38,-28.246"/>
<polygon fill="midnightblue" stroke="midnightblue" points="1039.49,-29.8727 1041.85,-19.5447 1033.57,-26.1451 1039.49,-29.8727"/>
</g>
<!-- Node26 -->
<g id="node26" class="node"><title>Node26</title>
<polygon fill="none" stroke="#bfbfbf" points="926.5,-192.5 926.5,-211.5 967.5,-211.5 967.5,-192.5 926.5,-192.5"/>
<text text-anchor="middle" x="947" y="-199.5" font-family="Helvetica,sans-Serif" font-size="10.00">ctime</text>
</g>
<!-- Node25&#45;&gt;Node26 -->
<g id="edge30" class="edge"><title>Node25&#45;&gt;Node26</title>
<path fill="none" stroke="midnightblue" d="M712.345,-249.172C762.735,-240.924 843.12,-227.059 912,-212 913.456,-211.682 914.943,-211.345 916.442,-210.996"/>
<polygon fill="midnightblue" stroke="midnightblue" points="917.447,-214.354 926.332,-208.581 915.787,-207.553 917.447,-214.354"/>
</g>
<!-- Node27 -->
<g id="node27" class="node"><title>Node27</title>
<polygon fill="none" stroke="#bfbfbf" points="986,-192.5 986,-211.5 1030,-211.5 1030,-192.5 986,-192.5"/>
<text text-anchor="middle" x="1008" y="-199.5" font-family="Helvetica,sans-Serif" font-size="10.00">thread</text>
</g>
<!-- Node25&#45;&gt;Node27 -->
<g id="edge34" class="edge"><title>Node25&#45;&gt;Node27</title>
<path fill="none" stroke="midnightblue" d="M712.144,-251.957C772.085,-245.359 876.608,-232.413 975.821,-211.76"/>
<polygon fill="midnightblue" stroke="midnightblue" points="976.652,-215.162 985.713,-209.672 975.206,-208.313 976.652,-215.162"/>
</g>
<!-- Node28 -->
<g id="node28" class="node"><title>Node28</title>
<polygon fill="none" stroke="#bfbfbf" points="640,-192.5 640,-211.5 686,-211.5 686,-192.5 640,-192.5"/>
<text text-anchor="middle" x="663" y="-199.5" font-family="Helvetica,sans-Serif" font-size="10.00">stdio.h</text>
</g>
<!-- Node25&#45;&gt;Node28 -->
<g id="edge35" class="edge"><title>Node25&#45;&gt;Node28</title>
<path fill="none" stroke="midnightblue" d="M663,-248.083C663,-241.006 663,-230.861 663,-221.986"/>
<polygon fill="midnightblue" stroke="midnightblue" points="666.5,-221.751 663,-211.751 659.5,-221.751 666.5,-221.751"/>
</g>
<!-- Node29 -->
<g id="node29" class="node"><title>Node29</title>
<polygon fill="none" stroke="#bfbfbf" points="704.5,-192.5 704.5,-211.5 753.5,-211.5 753.5,-192.5 704.5,-192.5"/>
<text text-anchor="middle" x="729" y="-199.5" font-family="Helvetica,sans-Serif" font-size="10.00">string.h</text>
</g>
<!-- Node25&#45;&gt;Node29 -->
<g id="edge36" class="edge"><title>Node25&#45;&gt;Node29</title>
<path fill="none" stroke="midnightblue" d="M673.604,-248.324C683.456,-240.263 698.351,-228.077 710.215,-218.369"/>
<polygon fill="midnightblue" stroke="midnightblue" points="712.68,-220.875 718.203,-211.834 708.247,-215.457 712.68,-220.875"/>
</g>
<!-- Node30 -->
<g id="node30" class="node"><title>Node30</title>
<polygon fill="none" stroke="#bfbfbf" points="772,-192.5 772,-211.5 832,-211.5 832,-192.5 772,-192.5"/>
<text text-anchor="middle" x="802" y="-199.5" font-family="Helvetica,sans-Serif" font-size="10.00">sys/stat.h</text>
</g>
<!-- Node25&#45;&gt;Node30 -->
<g id="edge37" class="edge"><title>Node25&#45;&gt;Node30</title>
<path fill="none" stroke="midnightblue" d="M685.025,-248.444C708.104,-239.478 744.562,-225.314 770.641,-215.183"/>
<polygon fill="midnightblue" stroke="midnightblue" points="772.024,-218.4 780.078,-211.516 769.489,-211.875 772.024,-218.4"/>
</g>
<!-- Node31 -->
<g id="node31" class="node"><title>Node31</title>
<polygon fill="none" stroke="#bfbfbf" points="346,-192.5 346,-211.5 414,-211.5 414,-192.5 346,-192.5"/>
<text text-anchor="middle" x="380" y="-199.5" font-family="Helvetica,sans-Serif" font-size="10.00">sys/types.h</text>
</g>
<!-- Node25&#45;&gt;Node31 -->
<g id="edge38" class="edge"><title>Node25&#45;&gt;Node31</title>
<path fill="none" stroke="midnightblue" d="M616.036,-248.495C569.789,-240.053 496.866,-226.561 424.464,-212.26"/>
<polygon fill="midnightblue" stroke="midnightblue" points="424.744,-208.747 414.254,-210.237 423.383,-215.614 424.744,-208.747"/>
</g>
<!-- Node32 -->
<g id="node32" class="node"><title>Node32</title>
<polygon fill="none" stroke="#bfbfbf" points="432.5,-192.5 432.5,-211.5 483.5,-211.5 483.5,-192.5 432.5,-192.5"/>
<text text-anchor="middle" x="458" y="-199.5" font-family="Helvetica,sans-Serif" font-size="10.00">unistd.h</text>
</g>
<!-- Node25&#45;&gt;Node32 -->
<g id="edge39" class="edge"><title>Node25&#45;&gt;Node32</title>
<path fill="none" stroke="midnightblue" d="M630.517,-248.444C593.104,-238.588 531.851,-222.453 493.291,-212.296"/>
<polygon fill="midnightblue" stroke="midnightblue" points="494.092,-208.888 483.53,-209.725 492.309,-215.657 494.092,-208.888"/>
</g>
<!-- Node33 -->
<g id="node33" class="node"><title>Node33</title>
<polygon fill="none" stroke="#bfbfbf" points="502,-192.5 502,-211.5 546,-211.5 546,-192.5 502,-192.5"/>
<text text-anchor="middle" x="524" y="-199.5" font-family="Helvetica,sans-Serif" font-size="10.00">fcntl.h</text>
</g>
<!-- Node25&#45;&gt;Node33 -->
<g id="edge40" class="edge"><title>Node25&#45;&gt;Node33</title>
<path fill="none" stroke="midnightblue" d="M640.975,-248.444C617.896,-239.478 581.438,-225.314 555.359,-215.183"/>
<polygon fill="midnightblue" stroke="midnightblue" points="556.511,-211.875 545.922,-211.516 553.976,-218.4 556.511,-211.875"/>
</g>
<!-- Node34&#45;&gt;Node3 -->
<g id="edge44" class="edge"><title>Node34&#45;&gt;Node3</title>
<path fill="none" stroke="midnightblue" d="M985.288,-444.724C853.982,-432.536 476.481,-394.674 167,-336 165.724,-335.758 164.435,-335.506 163.137,-335.244"/>
<polygon fill="midnightblue" stroke="midnightblue" points="163.581,-331.76 153.069,-333.086 162.114,-338.604 163.581,-331.76"/>
</g>
<!-- Node34&#45;&gt;Node5 -->
<g id="edge46" class="edge"><title>Node34&#45;&gt;Node5</title>
<path fill="none" stroke="midnightblue" d="M1055.64,-440.423C1095.03,-423.859 1172,-383.494 1172,-321 1172,-321 1172,-321 1172,-201 1172,4.77826 918.996,-150.692 723,-88 662.158,-68.5391 593.04,-39.9723 554.986,-23.6606"/>
<polygon fill="midnightblue" stroke="midnightblue" points="556.125,-20.3404 545.556,-19.5965 553.354,-26.7687 556.125,-20.3404"/>
</g>
<!-- Node34&#45;&gt;Node8 -->
<g id="edge47" class="edge"><title>Node34&#45;&gt;Node8</title>
<path fill="none" stroke="midnightblue" d="M1079.35,-440.457C1118.65,-432.325 1170.96,-419.11 1186,-404 1213.09,-376.785 1210,-359.4 1210,-321 1210,-321 1210,-321 1210,-139 1210,-91.3748 1168.47,-48.1309 1143.13,-26.1759"/>
<polygon fill="midnightblue" stroke="midnightblue" points="1145.16,-23.3062 1135.24,-19.5708 1140.66,-28.6737 1145.16,-23.3062"/>
</g>
<!-- Node34&#45;&gt;Node22 -->
<g id="edge45" class="edge"><title>Node34&#45;&gt;Node22</title>
<path fill="none" stroke="midnightblue" d="M1078.98,-440.422C1123.74,-431.525 1188.1,-417.105 1210,-404 1252.92,-378.32 1286,-371.017 1286,-321 1286,-321 1286,-321 1286,-139 1286,-98.2307 1268.06,-53.0653 1256.84,-28.7866"/>
<polygon fill="midnightblue" stroke="midnightblue" points="1259.98,-27.2455 1252.51,-19.734 1253.67,-30.2655 1259.98,-27.2455"/>
</g>
<!-- Node35 -->
<g id="node35" class="node"><title>Node35</title>
<g id="a_node35"><a xlink:href="pattern__formatter__impl_8h.html" target="_top" xlink:title="spdlog/details/pattern\l_formatter_impl.h">
<polygon fill="none" stroke="black" points="978,-373 978,-403 1088,-403 1088,-373 978,-373"/>
<text text-anchor="start" x="986" y="-391" font-family="Helvetica,sans-Serif" font-size="10.00">spdlog/details/pattern</text>
<text text-anchor="middle" x="1033" y="-380" font-family="Helvetica,sans-Serif" font-size="10.00">_formatter_impl.h</text>
</a>
</g>
</g>
<!-- Node34&#45;&gt;Node35 -->
<g id="edge48" class="edge"><title>Node34&#45;&gt;Node35</title>
<path fill="none" stroke="midnightblue" d="M1028.1,-440.403C1026.57,-433.341 1025.99,-422.975 1026.36,-413.399"/>
<polygon fill="midnightblue" stroke="midnightblue" points="1029.87,-413.386 1027.17,-403.141 1022.89,-412.832 1029.87,-413.386"/>
</g>
<!-- Node35&#45;&gt;Node3 -->
<g id="edge50" class="edge"><title>Node35&#45;&gt;Node3</title>
<path fill="none" stroke="midnightblue" d="M977.915,-387.297C840.297,-387.272 470.702,-382.491 167,-336 165.716,-335.804 164.42,-335.592 163.115,-335.368"/>
<polygon fill="midnightblue" stroke="midnightblue" points="163.493,-331.876 153.012,-333.422 162.169,-338.75 163.493,-331.876"/>
</g>
<!-- Node35&#45;&gt;Node5 -->
<g id="edge57" class="edge"><title>Node35&#45;&gt;Node5</title>
<path fill="none" stroke="midnightblue" d="M977.875,-381.799C827.426,-366.342 415.747,-315.199 337,-212 331.608,-204.933 331.217,-198.75 337,-192 404.891,-112.762 501.109,-235.238 569,-156 601.358,-118.234 562.296,-56.9778 539.784,-27.6642"/>
<polygon fill="midnightblue" stroke="midnightblue" points="542.385,-25.3107 533.427,-19.6538 536.902,-29.6624 542.385,-25.3107"/>
</g>
<!-- Node35&#45;&gt;Node7 -->
<g id="edge53" class="edge"><title>Node35&#45;&gt;Node7</title>
<path fill="none" stroke="midnightblue" d="M1039.09,-372.805C1053.25,-337.328 1083.82,-243.928 1038,-192 995.471,-143.803 812.747,-173.86 751,-156 748.712,-155.338 746.383,-154.532 744.077,-153.641"/>
<polygon fill="midnightblue" stroke="midnightblue" points="745.462,-150.427 734.896,-149.65 742.671,-156.847 745.462,-150.427"/>
</g>
<!-- Node35&#45;&gt;Node8 -->
<g id="edge55" class="edge"><title>Node35&#45;&gt;Node8</title>
<path fill="none" stroke="midnightblue" d="M1054.92,-372.978C1084.62,-352.061 1134,-309.67 1134,-259 1134,-259 1134,-259 1134,-139 1134,-100.13 1129.36,-54.822 1126.4,-29.8828"/>
<polygon fill="midnightblue" stroke="midnightblue" points="1129.84,-29.1717 1125.15,-19.673 1122.89,-30.0252 1129.84,-29.1717"/>
</g>
<!-- Node35&#45;&gt;Node13 -->
<g id="edge52" class="edge"><title>Node35&#45;&gt;Node13</title>
<path fill="none" stroke="midnightblue" d="M1047.87,-372.931C1056.75,-363.458 1067.21,-350.147 1072,-336 1092.52,-275.38 1112.81,-241.304 1072,-192 1045.41,-159.875 928.6,-147.814 858.265,-143.415"/>
<polygon fill="midnightblue" stroke="midnightblue" points="858.431,-139.919 848.241,-142.82 858.016,-146.907 858.431,-139.919"/>
</g>
<!-- Node35&#45;&gt;Node22 -->
<g id="edge60" class="edge"><title>Node35&#45;&gt;Node22</title>
<path fill="none" stroke="midnightblue" d="M1088.09,-378.663C1151.79,-365.534 1248,-333.392 1248,-259 1248,-259 1248,-259 1248,-139 1248,-100.248 1248,-54.8973 1248,-29.9188"/>
<polygon fill="midnightblue" stroke="midnightblue" points="1251.5,-29.6912 1248,-19.6913 1244.5,-29.6913 1251.5,-29.6912"/>
</g>
<!-- Node35&#45;&gt;Node23 -->
<g id="edge59" class="edge"><title>Node35&#45;&gt;Node23</title>
<path fill="none" stroke="midnightblue" d="M977.989,-385.925C884.275,-383.104 688.157,-372.899 527,-336 370.21,-300.101 331.956,-281.71 187,-212 143.861,-191.254 121.119,-196.115 95,-156 69.5623,-116.931 70.8413,-59.3072 73.5977,-29.8475"/>
<polygon fill="midnightblue" stroke="midnightblue" points="77.0979,-30.0371 74.7144,-19.7138 70.14,-29.2703 77.0979,-30.0371"/>
</g>
<!-- Node35&#45;&gt;Node25 -->
<g id="edge51" class="edge"><title>Node35&#45;&gt;Node25</title>
<path fill="none" stroke="midnightblue" d="M992.345,-372.936C918.985,-347.557 765.751,-294.546 697.305,-270.868"/>
<polygon fill="midnightblue" stroke="midnightblue" points="698.436,-267.555 687.841,-267.594 696.147,-274.171 698.436,-267.555"/>
</g>
<!-- Node35&#45;&gt;Node26 -->
<g id="edge54" class="edge"><title>Node35&#45;&gt;Node26</title>
<path fill="none" stroke="midnightblue" d="M1026.39,-372.867C1011,-339.933 972.751,-258.096 955.582,-221.361"/>
<polygon fill="midnightblue" stroke="midnightblue" points="958.561,-219.469 951.156,-211.891 952.219,-222.433 958.561,-219.469"/>
</g>
<!-- Node35&#45;&gt;Node27 -->
<g id="edge58" class="edge"><title>Node35&#45;&gt;Node27</title>
<path fill="none" stroke="midnightblue" d="M1031.08,-372.867C1026.62,-340.074 1015.58,-258.798 1010.56,-221.836"/>
<polygon fill="midnightblue" stroke="midnightblue" points="1014.02,-221.329 1009.21,-211.891 1007.09,-222.271 1014.02,-221.329"/>
</g>
<!-- Node35&#45;&gt;Node34 -->
<g id="edge49" class="edge"><title>Node35&#45;&gt;Node34</title>
<path fill="none" stroke="midnightblue" d="M1038.83,-403.141C1039.87,-411.272 1040.03,-421.585 1039.3,-430.371"/>
<polygon fill="midnightblue" stroke="midnightblue" points="1035.81,-430.016 1037.9,-440.403 1042.75,-430.982 1035.81,-430.016"/>
</g>
<!-- Node35&#45;&gt;Node36 -->
<g id="edge56" class="edge"><title>Node35&#45;&gt;Node36</title>
<path fill="none" stroke="midnightblue" d="M1088.22,-374.971C1151.3,-361.231 1252.4,-339.21 1303.78,-328.019"/>
<polygon fill="midnightblue" stroke="midnightblue" points="1304.63,-331.414 1313.66,-325.866 1303.14,-324.575 1304.63,-331.414"/>
</g>
</g>
</svg>
