<?xml version="1.0" encoding="UTF-8" standalone="no"?>
<!DOCTYPE svg PUBLIC "-//W3C//DTD SVG 1.1//EN"
 "http://www.w3.org/Graphics/SVG/1.1/DTD/svg11.dtd">
<!-- Generated by graphviz version 2.36.0 (20140111.2315)
 -->
<!-- Title: /home/lucamuratore/advr&#45;superbuild/external/XBotInterface/include/spdlog/sinks/base_sink.h Pages: 1 -->
<svg width="1208pt" height="962pt"
 viewBox="0.00 0.00 1208.00 962.00" xmlns="http://www.w3.org/2000/svg" xmlns:xlink="http://www.w3.org/1999/xlink">
<g id="graph0" class="graph" transform="scale(1 1) rotate(0) translate(4 958)">
<title>/home/lucamuratore/advr&#45;superbuild/external/XBotInterface/include/spdlog/sinks/base_sink.h</title>
<!-- Node1 -->
<g id="node1" class="node"><title>Node1</title>
<polygon fill="#bfbfbf" stroke="black" points="515.5,-901 515.5,-953 660.5,-953 660.5,-901 515.5,-901"/>
<text text-anchor="start" x="523.5" y="-941" font-family="Helvetica,sans-Serif" font-size="10.00">/home/lucamuratore</text>
<text text-anchor="start" x="523.5" y="-930" font-family="Helvetica,sans-Serif" font-size="10.00">/advr&#45;superbuild/external</text>
<text text-anchor="start" x="523.5" y="-919" font-family="Helvetica,sans-Serif" font-size="10.00">/XBotInterface/include/spdlog</text>
<text text-anchor="middle" x="588" y="-908" font-family="Helvetica,sans-Serif" font-size="10.00">/sinks/base_sink.h</text>
</g>
<!-- Node2 -->
<g id="node2" class="node"><title>Node2</title>
<g id="a_node2"><a xlink:href="logger_8h.html" target="_top" xlink:title="/home/lucamuratore\l/advr&#45;superbuild/external\l/XBotInterface/include/spdlog\l/logger.h">
<polygon fill="none" stroke="black" points="364.5,-811 364.5,-863 509.5,-863 509.5,-811 364.5,-811"/>
<text text-anchor="start" x="372.5" y="-851" font-family="Helvetica,sans-Serif" font-size="10.00">/home/lucamuratore</text>
<text text-anchor="start" x="372.5" y="-840" font-family="Helvetica,sans-Serif" font-size="10.00">/advr&#45;superbuild/external</text>
<text text-anchor="start" x="372.5" y="-829" font-family="Helvetica,sans-Serif" font-size="10.00">/XBotInterface/include/spdlog</text>
<text text-anchor="middle" x="437" y="-818" font-family="Helvetica,sans-Serif" font-size="10.00">/logger.h</text>
</a>
</g>
</g>
<!-- Node1&#45;&gt;Node2 -->
<g id="edge1" class="edge"><title>Node1&#45;&gt;Node2</title>
<path fill="none" stroke="midnightblue" d="M535.957,-895.67C517.712,-885.038 497.438,-873.222 480.016,-863.069"/>
<polygon fill="midnightblue" stroke="midnightblue" points="534.327,-898.771 544.729,-900.783 537.852,-892.724 534.327,-898.771"/>
</g>
<!-- Node22 -->
<g id="node22" class="node"><title>Node22</title>
<g id="a_node22"><a xlink:href="ansicolor__sink_8h.html" target="_top" xlink:title="/home/lucamuratore\l/advr&#45;superbuild/external\l/XBotInterface/include/spdlog\l/sinks/ansicolor_sink.h">
<polygon fill="none" stroke="black" points="604.5,-721 604.5,-773 749.5,-773 749.5,-721 604.5,-721"/>
<text text-anchor="start" x="612.5" y="-761" font-family="Helvetica,sans-Serif" font-size="10.00">/home/lucamuratore</text>
<text text-anchor="start" x="612.5" y="-750" font-family="Helvetica,sans-Serif" font-size="10.00">/advr&#45;superbuild/external</text>
<text text-anchor="start" x="612.5" y="-739" font-family="Helvetica,sans-Serif" font-size="10.00">/XBotInterface/include/spdlog</text>
<text text-anchor="middle" x="677" y="-728" font-family="Helvetica,sans-Serif" font-size="10.00">/sinks/ansicolor_sink.h</text>
</a>
</g>
</g>
<!-- Node1&#45;&gt;Node22 -->
<g id="edge28" class="edge"><title>Node1&#45;&gt;Node22</title>
<path fill="none" stroke="midnightblue" d="M565.596,-891.998C552.668,-867.739 541.715,-835.102 557,-810 567.854,-792.174 585.665,-779.25 604.284,-769.972"/>
<polygon fill="midnightblue" stroke="midnightblue" points="562.631,-893.865 570.596,-900.851 568.726,-890.423 562.631,-893.865"/>
</g>
<!-- Node23 -->
<g id="node23" class="node"><title>Node23</title>
<g id="a_node23"><a xlink:href="dist__sink_8h.html" target="_top" xlink:title="/home/lucamuratore\l/advr&#45;superbuild/external\l/XBotInterface/include/spdlog\l/sinks/dist_sink.h">
<polygon fill="none" stroke="black" points="566.5,-811 566.5,-863 711.5,-863 711.5,-811 566.5,-811"/>
<text text-anchor="start" x="574.5" y="-851" font-family="Helvetica,sans-Serif" font-size="10.00">/home/lucamuratore</text>
<text text-anchor="start" x="574.5" y="-840" font-family="Helvetica,sans-Serif" font-size="10.00">/advr&#45;superbuild/external</text>
<text text-anchor="start" x="574.5" y="-829" font-family="Helvetica,sans-Serif" font-size="10.00">/XBotInterface/include/spdlog</text>
<text text-anchor="middle" x="639" y="-818" font-family="Helvetica,sans-Serif" font-size="10.00">/sinks/dist_sink.h</text>
</a>
</g>
</g>
<!-- Node1&#45;&gt;Node23 -->
<g id="edge30" class="edge"><title>Node1&#45;&gt;Node23</title>
<path fill="none" stroke="midnightblue" d="M607.895,-891.671C613.416,-882.145 619.306,-871.983 624.458,-863.092"/>
<polygon fill="midnightblue" stroke="midnightblue" points="604.737,-890.14 602.751,-900.547 610.794,-893.65 604.737,-890.14"/>
</g>
<!-- Node24 -->
<g id="node24" class="node"><title>Node24</title>
<g id="a_node24"><a xlink:href="file__sinks_8h.html" target="_top" xlink:title="/home/lucamuratore\l/advr&#45;superbuild/external\l/XBotInterface/include/spdlog\l/sinks/file_sinks.h">
<polygon fill="none" stroke="black" points="-0.5,-631 -0.5,-683 144.5,-683 144.5,-631 -0.5,-631"/>
<text text-anchor="start" x="7.5" y="-671" font-family="Helvetica,sans-Serif" font-size="10.00">/home/lucamuratore</text>
<text text-anchor="start" x="7.5" y="-660" font-family="Helvetica,sans-Serif" font-size="10.00">/advr&#45;superbuild/external</text>
<text text-anchor="start" x="7.5" y="-649" font-family="Helvetica,sans-Serif" font-size="10.00">/XBotInterface/include/spdlog</text>
<text text-anchor="middle" x="72" y="-638" font-family="Helvetica,sans-Serif" font-size="10.00">/sinks/file_sinks.h</text>
</a>
</g>
</g>
<!-- Node1&#45;&gt;Node24 -->
<g id="edge31" class="edge"><title>Node1&#45;&gt;Node24</title>
<path fill="none" stroke="midnightblue" d="M505.04,-921.329C404.269,-914.25 241.58,-897.87 192,-864 127.065,-819.641 92.417,-727.654 78.8675,-683.171"/>
<polygon fill="midnightblue" stroke="midnightblue" points="504.98,-924.833 515.196,-922.026 505.459,-917.85 504.98,-924.833"/>
</g>
<!-- Node25 -->
<g id="node25" class="node"><title>Node25</title>
<g id="a_node25"><a xlink:href="null__sink_8h.html" target="_top" xlink:title="/home/lucamuratore\l/advr&#45;superbuild/external\l/XBotInterface/include/spdlog\l/sinks/null_sink.h">
<polygon fill="none" stroke="black" points="729.5,-811 729.5,-863 874.5,-863 874.5,-811 729.5,-811"/>
<text text-anchor="start" x="737.5" y="-851" font-family="Helvetica,sans-Serif" font-size="10.00">/home/lucamuratore</text>
<text text-anchor="start" x="737.5" y="-840" font-family="Helvetica,sans-Serif" font-size="10.00">/advr&#45;superbuild/external</text>
<text text-anchor="start" x="737.5" y="-829" font-family="Helvetica,sans-Serif" font-size="10.00">/XBotInterface/include/spdlog</text>
<text text-anchor="middle" x="802" y="-818" font-family="Helvetica,sans-Serif" font-size="10.00">/sinks/null_sink.h</text>
</a>
</g>
</g>
<!-- Node1&#45;&gt;Node25 -->
<g id="edge33" class="edge"><title>Node1&#45;&gt;Node25</title>
<path fill="none" stroke="midnightblue" d="M658.315,-897.085C684.989,-886.117 715.123,-873.725 740.882,-863.133"/>
<polygon fill="midnightblue" stroke="midnightblue" points="656.955,-893.86 649.037,-900.901 659.617,-900.334 656.955,-893.86"/>
</g>
<!-- Node26 -->
<g id="node26" class="node"><title>Node26</title>
<g id="a_node26"><a xlink:href="ostream__sink_8h.html" target="_top" xlink:title="/home/lucamuratore\l/advr&#45;superbuild/external\l/XBotInterface/include/spdlog\l/sinks/ostream_sink.h">
<polygon fill="none" stroke="black" points="892.5,-811 892.5,-863 1037.5,-863 1037.5,-811 892.5,-811"/>
<text text-anchor="start" x="900.5" y="-851" font-family="Helvetica,sans-Serif" font-size="10.00">/home/lucamuratore</text>
<text text-anchor="start" x="900.5" y="-840" font-family="Helvetica,sans-Serif" font-size="10.00">/advr&#45;superbuild/external</text>
<text text-anchor="start" x="900.5" y="-829" font-family="Helvetica,sans-Serif" font-size="10.00">/XBotInterface/include/spdlog</text>
<text text-anchor="middle" x="965" y="-818" font-family="Helvetica,sans-Serif" font-size="10.00">/sinks/ostream_sink.h</text>
</a>
</g>
</g>
<!-- Node1&#45;&gt;Node26 -->
<g id="edge34" class="edge"><title>Node1&#45;&gt;Node26</title>
<path fill="none" stroke="midnightblue" d="M670.69,-910.915C730.115,-899.517 811.949,-882.681 883,-864 886.033,-863.203 889.121,-862.361 892.233,-861.488"/>
<polygon fill="midnightblue" stroke="midnightblue" points="669.775,-907.526 660.608,-912.837 671.086,-914.402 669.775,-907.526"/>
</g>
<!-- Node27 -->
<g id="node27" class="node"><title>Node27</title>
<g id="a_node27"><a xlink:href="stdout__sinks_8h.html" target="_top" xlink:title="/home/lucamuratore\l/advr&#45;superbuild/external\l/XBotInterface/include/spdlog\l/sinks/stdout_sinks.h">
<polygon fill="none" stroke="black" points="201.5,-811 201.5,-863 346.5,-863 346.5,-811 201.5,-811"/>
<text text-anchor="start" x="209.5" y="-851" font-family="Helvetica,sans-Serif" font-size="10.00">/home/lucamuratore</text>
<text text-anchor="start" x="209.5" y="-840" font-family="Helvetica,sans-Serif" font-size="10.00">/advr&#45;superbuild/external</text>
<text text-anchor="start" x="209.5" y="-829" font-family="Helvetica,sans-Serif" font-size="10.00">/XBotInterface/include/spdlog</text>
<text text-anchor="middle" x="274" y="-818" font-family="Helvetica,sans-Serif" font-size="10.00">/sinks/stdout_sinks.h</text>
</a>
</g>
</g>
<!-- Node1&#45;&gt;Node27 -->
<g id="edge35" class="edge"><title>Node1&#45;&gt;Node27</title>
<path fill="none" stroke="midnightblue" d="M505.386,-905.102C460.71,-893.528 404.665,-878.569 355,-864 352.307,-863.21 349.568,-862.394 346.804,-861.561"/>
<polygon fill="midnightblue" stroke="midnightblue" points="504.762,-908.556 515.32,-907.668 506.513,-901.778 504.762,-908.556"/>
</g>
<!-- Node28 -->
<g id="node28" class="node"><title>Node28</title>
<g id="a_node28"><a xlink:href="wincolor__sink_8h.html" target="_top" xlink:title="/home/lucamuratore\l/advr&#45;superbuild/external\l/XBotInterface/include/spdlog\l/sinks/wincolor_sink.h">
<polygon fill="none" stroke="black" points="1055.5,-811 1055.5,-863 1200.5,-863 1200.5,-811 1055.5,-811"/>
<text text-anchor="start" x="1063.5" y="-851" font-family="Helvetica,sans-Serif" font-size="10.00">/home/lucamuratore</text>
<text text-anchor="start" x="1063.5" y="-840" font-family="Helvetica,sans-Serif" font-size="10.00">/advr&#45;superbuild/external</text>
<text text-anchor="start" x="1063.5" y="-829" font-family="Helvetica,sans-Serif" font-size="10.00">/XBotInterface/include/spdlog</text>
<text text-anchor="middle" x="1128" y="-818" font-family="Helvetica,sans-Serif" font-size="10.00">/sinks/wincolor_sink.h</text>
</a>
</g>
</g>
<!-- Node1&#45;&gt;Node28 -->
<g id="edge38" class="edge"><title>Node1&#45;&gt;Node28</title>
<path fill="none" stroke="midnightblue" d="M670.995,-919.106C763.336,-910.434 916.582,-893.049 1046,-864 1049.06,-863.313 1052.17,-862.564 1055.3,-861.767"/>
<polygon fill="midnightblue" stroke="midnightblue" points="670.505,-915.637 660.871,-920.045 671.152,-922.607 670.505,-915.637"/>
</g>
<!-- Node3 -->
<g id="node3" class="node"><title>Node3</title>
<g id="a_node3"><a xlink:href="async__logger_8h.html" target="_top" xlink:title="/home/lucamuratore\l/advr&#45;superbuild/external\l/XBotInterface/include/spdlog\l/async_logger.h">
<polygon fill="none" stroke="black" points="364.5,-721 364.5,-773 509.5,-773 509.5,-721 364.5,-721"/>
<text text-anchor="start" x="372.5" y="-761" font-family="Helvetica,sans-Serif" font-size="10.00">/home/lucamuratore</text>
<text text-anchor="start" x="372.5" y="-750" font-family="Helvetica,sans-Serif" font-size="10.00">/advr&#45;superbuild/external</text>
<text text-anchor="start" x="372.5" y="-739" font-family="Helvetica,sans-Serif" font-size="10.00">/XBotInterface/include/spdlog</text>
<text text-anchor="middle" x="437" y="-728" font-family="Helvetica,sans-Serif" font-size="10.00">/async_logger.h</text>
</a>
</g>
</g>
<!-- Node2&#45;&gt;Node3 -->
<g id="edge2" class="edge"><title>Node2&#45;&gt;Node3</title>
<path fill="none" stroke="midnightblue" d="M437,-800.489C437,-791.309 437,-781.616 437,-773.092"/>
<polygon fill="midnightblue" stroke="midnightblue" points="433.5,-800.547 437,-810.547 440.5,-800.547 433.5,-800.547"/>
</g>
<!-- Node5 -->
<g id="node5" class="node"><title>Node5</title>
<g id="a_node5"><a xlink:href="registry_8h.html" target="_top" xlink:title="/home/lucamuratore\l/advr&#45;superbuild/external\l/XBotInterface/include/spdlog\l/details/registry.h">
<polygon fill="none" stroke="black" points="402.5,-631 402.5,-683 547.5,-683 547.5,-631 402.5,-631"/>
<text text-anchor="start" x="410.5" y="-671" font-family="Helvetica,sans-Serif" font-size="10.00">/home/lucamuratore</text>
<text text-anchor="start" x="410.5" y="-660" font-family="Helvetica,sans-Serif" font-size="10.00">/advr&#45;superbuild/external</text>
<text text-anchor="start" x="410.5" y="-649" font-family="Helvetica,sans-Serif" font-size="10.00">/XBotInterface/include/spdlog</text>
<text text-anchor="middle" x="475" y="-638" font-family="Helvetica,sans-Serif" font-size="10.00">/details/registry.h</text>
</a>
</g>
</g>
<!-- Node2&#45;&gt;Node5 -->
<g id="edge26" class="edge"><title>Node2&#45;&gt;Node5</title>
<path fill="none" stroke="midnightblue" d="M492.435,-804.674C502.754,-796.135 512.126,-785.894 518,-774 528.628,-752.481 525.166,-742.905 518,-720 513.854,-706.748 505.77,-693.841 497.718,-683.264"/>
<polygon fill="midnightblue" stroke="midnightblue" points="490.182,-801.991 484.401,-810.87 494.457,-807.534 490.182,-801.991"/>
</g>
<!-- Node7 -->
<g id="node7" class="node"><title>Node7</title>
<g id="a_node7"><a xlink:href="spdlog_8h.html" target="_top" xlink:title="/home/lucamuratore\l/advr&#45;superbuild/external\l/XBotInterface/include/spdlog\l/spdlog.h">
<polygon fill="none" stroke="black" points="402.5,-451 402.5,-503 547.5,-503 547.5,-451 402.5,-451"/>
<text text-anchor="start" x="410.5" y="-491" font-family="Helvetica,sans-Serif" font-size="10.00">/home/lucamuratore</text>
<text text-anchor="start" x="410.5" y="-480" font-family="Helvetica,sans-Serif" font-size="10.00">/advr&#45;superbuild/external</text>
<text text-anchor="start" x="410.5" y="-469" font-family="Helvetica,sans-Serif" font-size="10.00">/XBotInterface/include/spdlog</text>
<text text-anchor="middle" x="475" y="-458" font-family="Helvetica,sans-Serif" font-size="10.00">/spdlog.h</text>
</a>
</g>
</g>
<!-- Node2&#45;&gt;Node7 -->
<g id="edge27" class="edge"><title>Node2&#45;&gt;Node7</title>
<path fill="none" stroke="midnightblue" d="M502.297,-805.497C515.075,-796.905 527.218,-786.433 536,-774 559.641,-740.532 551.529,-724.731 556,-684 562.983,-620.382 584.341,-597.383 556,-540 548.628,-525.074 535.749,-512.751 522.401,-503.13"/>
<polygon fill="midnightblue" stroke="midnightblue" points="500.4,-802.556 493.838,-810.874 504.155,-808.464 500.4,-802.556"/>
</g>
<!-- Node21 -->
<g id="node21" class="node"><title>Node21</title>
<g id="a_node21"><a xlink:href="logger__impl_8h.html" target="_top" xlink:title="/home/lucamuratore\l/advr&#45;superbuild/external\l/XBotInterface/include/spdlog\l/details/logger_impl.h">
<polygon fill="none" stroke="black" points="201.5,-721 201.5,-773 346.5,-773 346.5,-721 201.5,-721"/>
<text text-anchor="start" x="209.5" y="-761" font-family="Helvetica,sans-Serif" font-size="10.00">/home/lucamuratore</text>
<text text-anchor="start" x="209.5" y="-750" font-family="Helvetica,sans-Serif" font-size="10.00">/advr&#45;superbuild/external</text>
<text text-anchor="start" x="209.5" y="-739" font-family="Helvetica,sans-Serif" font-size="10.00">/XBotInterface/include/spdlog</text>
<text text-anchor="middle" x="274" y="-728" font-family="Helvetica,sans-Serif" font-size="10.00">/details/logger_impl.h</text>
</a>
</g>
</g>
<!-- Node2&#45;&gt;Node21 -->
<g id="edge24" class="edge"><title>Node2&#45;&gt;Node21</title>
<path fill="none" stroke="midnightblue" d="M375.194,-806.105C354.791,-795.36 332.655,-783.361 314.273,-773.069"/>
<polygon fill="midnightblue" stroke="midnightblue" points="373.638,-809.241 384.12,-810.783 376.887,-803.041 373.638,-809.241"/>
</g>
<!-- Node4 -->
<g id="node4" class="node"><title>Node4</title>
<g id="a_node4"><a xlink:href="async__logger__impl_8h.html" target="_top" xlink:title="/home/lucamuratore\l/advr&#45;superbuild/external\l/XBotInterface/include/spdlog\l/details/async_logger_impl.h">
<polygon fill="none" stroke="black" points="239.5,-631 239.5,-683 384.5,-683 384.5,-631 239.5,-631"/>
<text text-anchor="start" x="247.5" y="-671" font-family="Helvetica,sans-Serif" font-size="10.00">/home/lucamuratore</text>
<text text-anchor="start" x="247.5" y="-660" font-family="Helvetica,sans-Serif" font-size="10.00">/advr&#45;superbuild/external</text>
<text text-anchor="start" x="247.5" y="-649" font-family="Helvetica,sans-Serif" font-size="10.00">/XBotInterface/include/spdlog</text>
<text text-anchor="middle" x="312" y="-638" font-family="Helvetica,sans-Serif" font-size="10.00">/details/async_logger_impl.h</text>
</a>
</g>
</g>
<!-- Node3&#45;&gt;Node4 -->
<g id="edge3" class="edge"><title>Node3&#45;&gt;Node4</title>
<path fill="none" stroke="midnightblue" d="M386.652,-715.114C371.383,-704.68 355.125,-693.163 341.654,-683.221"/>
<polygon fill="midnightblue" stroke="midnightblue" points="384.769,-718.066 395.009,-720.783 388.698,-712.273 384.769,-718.066"/>
</g>
<!-- Node3&#45;&gt;Node5 -->
<g id="edge5" class="edge"><title>Node3&#45;&gt;Node5</title>
<path fill="none" stroke="midnightblue" d="M452.079,-711.081C456.118,-701.726 460.405,-691.799 464.165,-683.092"/>
<polygon fill="midnightblue" stroke="midnightblue" points="448.742,-709.979 447.991,-720.547 455.169,-712.754 448.742,-709.979"/>
</g>
<!-- Node4&#45;&gt;Node3 -->
<g id="edge4" class="edge"><title>Node4&#45;&gt;Node3</title>
<path fill="none" stroke="midnightblue" d="M362.354,-688.89C377.623,-699.324 393.88,-710.841 407.351,-720.783"/>
<polygon fill="midnightblue" stroke="midnightblue" points="364.237,-685.938 353.996,-683.221 360.307,-691.731 364.237,-685.938"/>
</g>
<!-- Node6 -->
<g id="node6" class="node"><title>Node6</title>
<g id="a_node6"><a xlink:href="spdlog__impl_8h.html" target="_top" xlink:title="/home/lucamuratore\l/advr&#45;superbuild/external\l/XBotInterface/include/spdlog\l/details/spdlog_impl.h">
<polygon fill="none" stroke="black" points="402.5,-541 402.5,-593 547.5,-593 547.5,-541 402.5,-541"/>
<text text-anchor="start" x="410.5" y="-581" font-family="Helvetica,sans-Serif" font-size="10.00">/home/lucamuratore</text>
<text text-anchor="start" x="410.5" y="-570" font-family="Helvetica,sans-Serif" font-size="10.00">/advr&#45;superbuild/external</text>
<text text-anchor="start" x="410.5" y="-559" font-family="Helvetica,sans-Serif" font-size="10.00">/XBotInterface/include/spdlog</text>
<text text-anchor="middle" x="475" y="-548" font-family="Helvetica,sans-Serif" font-size="10.00">/details/spdlog_impl.h</text>
</a>
</g>
</g>
<!-- Node5&#45;&gt;Node6 -->
<g id="edge6" class="edge"><title>Node5&#45;&gt;Node6</title>
<path fill="none" stroke="midnightblue" d="M475,-620.489C475,-611.309 475,-601.616 475,-593.092"/>
<polygon fill="midnightblue" stroke="midnightblue" points="471.5,-620.547 475,-630.547 478.5,-620.547 471.5,-620.547"/>
</g>
<!-- Node6&#45;&gt;Node7 -->
<g id="edge7" class="edge"><title>Node6&#45;&gt;Node7</title>
<path fill="none" stroke="midnightblue" d="M468.363,-530.489C468.116,-521.309 468.274,-511.616 468.838,-503.092"/>
<polygon fill="midnightblue" stroke="midnightblue" points="464.869,-530.714 468.814,-540.547 471.862,-530.4 464.869,-530.714"/>
</g>
<!-- Node7&#45;&gt;Node6 -->
<g id="edge8" class="edge"><title>Node7&#45;&gt;Node6</title>
<path fill="none" stroke="midnightblue" d="M481.626,-513.123C481.885,-522.289 481.738,-531.99 481.186,-540.547"/>
<polygon fill="midnightblue" stroke="midnightblue" points="485.121,-512.92 481.162,-503.092 478.128,-513.243 485.121,-512.92"/>
</g>
<!-- Node8 -->
<g id="node8" class="node"><title>Node8</title>
<g id="a_node8"><a xlink:href="Logger_8hpp.html" target="_top" xlink:title="/home/lucamuratore\l/advr&#45;superbuild/external\l/XBotInterface/include/XBotInterface\l/Logger.hpp">
<polygon fill="none" stroke="black" points="387,-361 387,-413 563,-413 563,-361 387,-361"/>
<text text-anchor="start" x="395" y="-401" font-family="Helvetica,sans-Serif" font-size="10.00">/home/lucamuratore</text>
<text text-anchor="start" x="395" y="-390" font-family="Helvetica,sans-Serif" font-size="10.00">/advr&#45;superbuild/external</text>
<text text-anchor="start" x="395" y="-379" font-family="Helvetica,sans-Serif" font-size="10.00">/XBotInterface/include/XBotInterface</text>
<text text-anchor="middle" x="475" y="-368" font-family="Helvetica,sans-Serif" font-size="10.00">/Logger.hpp</text>
</a>
</g>
</g>
<!-- Node7&#45;&gt;Node8 -->
<g id="edge9" class="edge"><title>Node7&#45;&gt;Node8</title>
<path fill="none" stroke="midnightblue" d="M475,-440.489C475,-431.309 475,-421.616 475,-413.092"/>
<polygon fill="midnightblue" stroke="midnightblue" points="471.5,-440.547 475,-450.547 478.5,-440.547 471.5,-440.547"/>
</g>
<!-- Node9 -->
<g id="node9" class="node"><title>Node9</title>
<g id="a_node9"><a xlink:href="ConfigHelper_8h.html" target="_top" xlink:title="/home/lucamuratore\l/advr&#45;superbuild/external\l/XBotInterface/include/XBotInterface\l/ConfigHelper.h">
<polygon fill="none" stroke="black" points="213,-271 213,-323 389,-323 389,-271 213,-271"/>
<text text-anchor="start" x="221" y="-311" font-family="Helvetica,sans-Serif" font-size="10.00">/home/lucamuratore</text>
<text text-anchor="start" x="221" y="-300" font-family="Helvetica,sans-Serif" font-size="10.00">/advr&#45;superbuild/external</text>
<text text-anchor="start" x="221" y="-289" font-family="Helvetica,sans-Serif" font-size="10.00">/XBotInterface/include/XBotInterface</text>
<text text-anchor="middle" x="301" y="-278" font-family="Helvetica,sans-Serif" font-size="10.00">/ConfigHelper.h</text>
</a>
</g>
</g>
<!-- Node8&#45;&gt;Node9 -->
<g id="edge10" class="edge"><title>Node8&#45;&gt;Node9</title>
<path fill="none" stroke="midnightblue" d="M416.175,-356.249C394.857,-345.468 371.009,-333.407 350.568,-323.069"/>
<polygon fill="midnightblue" stroke="midnightblue" points="414.635,-359.393 425.139,-360.783 417.795,-353.146 414.635,-359.393"/>
</g>
<!-- Node11 -->
<g id="node11" class="node"><title>Node11</title>
<g id="a_node11"><a xlink:href="StateMachine_8h.html" target="_top" xlink:title="/home/lucamuratore\l/advr&#45;superbuild/external\l/XBotInterface/include/XBotInterface\l/StateMachine.h">
<polygon fill="none" stroke="black" points="329,-1 329,-53 505,-53 505,-1 329,-1"/>
<text text-anchor="start" x="337" y="-41" font-family="Helvetica,sans-Serif" font-size="10.00">/home/lucamuratore</text>
<text text-anchor="start" x="337" y="-30" font-family="Helvetica,sans-Serif" font-size="10.00">/advr&#45;superbuild/external</text>
<text text-anchor="start" x="337" y="-19" font-family="Helvetica,sans-Serif" font-size="10.00">/XBotInterface/include/XBotInterface</text>
<text text-anchor="middle" x="417" y="-8" font-family="Helvetica,sans-Serif" font-size="10.00">/StateMachine.h</text>
</a>
</g>
</g>
<!-- Node8&#45;&gt;Node11 -->
<g id="edge12" class="edge"><title>Node8&#45;&gt;Node11</title>
<path fill="none" stroke="midnightblue" d="M450.36,-352.352C445.051,-343.527 440.106,-333.743 437,-324 406.333,-227.819 410.901,-105.405 414.727,-53.3074"/>
<polygon fill="midnightblue" stroke="midnightblue" points="447.421,-354.253 455.736,-360.819 453.331,-350.501 447.421,-354.253"/>
</g>
<!-- Node12 -->
<g id="node12" class="node"><title>Node12</title>
<g id="a_node12"><a xlink:href="XBotInterface_8h.html" target="_top" xlink:title="/home/lucamuratore\l/advr&#45;superbuild/external\l/XBotInterface/include/XBotInterface\l/XBotInterface.h">
<polygon fill="none" stroke="black" points="446,-271 446,-323 622,-323 622,-271 446,-271"/>
<text text-anchor="start" x="454" y="-311" font-family="Helvetica,sans-Serif" font-size="10.00">/home/lucamuratore</text>
<text text-anchor="start" x="454" y="-300" font-family="Helvetica,sans-Serif" font-size="10.00">/advr&#45;superbuild/external</text>
<text text-anchor="start" x="454" y="-289" font-family="Helvetica,sans-Serif" font-size="10.00">/XBotInterface/include/XBotInterface</text>
<text text-anchor="middle" x="534" y="-278" font-family="Helvetica,sans-Serif" font-size="10.00">/XBotInterface.h</text>
</a>
</g>
</g>
<!-- Node8&#45;&gt;Node12 -->
<g id="edge13" class="edge"><title>Node8&#45;&gt;Node12</title>
<path fill="none" stroke="midnightblue" d="M497.819,-351.965C504.262,-342.354 511.155,-332.074 517.177,-323.092"/>
<polygon fill="midnightblue" stroke="midnightblue" points="494.727,-350.292 492.065,-360.547 500.541,-354.19 494.727,-350.292"/>
</g>
<!-- Node20 -->
<g id="node20" class="node"><title>Node20</title>
<g id="a_node20"><a xlink:href="Logger_8cpp.html" target="_top" xlink:title="/home/lucamuratore\l/advr&#45;superbuild/external\l/XBotInterface/src/Logger.cpp">
<polygon fill="none" stroke="black" points="640.5,-276.5 640.5,-317.5 787.5,-317.5 787.5,-276.5 640.5,-276.5"/>
<text text-anchor="start" x="648.5" y="-305.5" font-family="Helvetica,sans-Serif" font-size="10.00">/home/lucamuratore</text>
<text text-anchor="start" x="648.5" y="-294.5" font-family="Helvetica,sans-Serif" font-size="10.00">/advr&#45;superbuild/external</text>
<text text-anchor="middle" x="714" y="-283.5" font-family="Helvetica,sans-Serif" font-size="10.00">/XBotInterface/src/Logger.cpp</text>
</a>
</g>
</g>
<!-- Node8&#45;&gt;Node20 -->
<g id="edge23" class="edge"><title>Node8&#45;&gt;Node20</title>
<path fill="none" stroke="midnightblue" d="M552.979,-357.288C588.327,-344.273 629.21,-329.22 660.936,-317.538"/>
<polygon fill="midnightblue" stroke="midnightblue" points="551.343,-354.161 543.168,-360.901 553.761,-360.73 551.343,-354.161"/>
</g>
<!-- Node10 -->
<g id="node10" class="node"><title>Node10</title>
<g id="a_node10"><a xlink:href="ConfigHelper_8cpp.html" target="_top" xlink:title="/home/lucamuratore\l/advr&#45;superbuild/external\l/XBotInterface/src/ConfigHelper.cpp">
<polygon fill="none" stroke="black" points="213.5,-186.5 213.5,-227.5 388.5,-227.5 388.5,-186.5 213.5,-186.5"/>
<text text-anchor="start" x="221.5" y="-215.5" font-family="Helvetica,sans-Serif" font-size="10.00">/home/lucamuratore</text>
<text text-anchor="start" x="221.5" y="-204.5" font-family="Helvetica,sans-Serif" font-size="10.00">/advr&#45;superbuild/external</text>
<text text-anchor="middle" x="301" y="-193.5" font-family="Helvetica,sans-Serif" font-size="10.00">/XBotInterface/src/ConfigHelper.cpp</text>
</a>
</g>
</g>
<!-- Node9&#45;&gt;Node10 -->
<g id="edge11" class="edge"><title>Node9&#45;&gt;Node10</title>
<path fill="none" stroke="midnightblue" d="M301,-260.515C301,-249.257 301,-237.227 301,-227.525"/>
<polygon fill="midnightblue" stroke="midnightblue" points="297.5,-260.547 301,-270.547 304.5,-260.547 297.5,-260.547"/>
</g>
<!-- Node13 -->
<g id="node13" class="node"><title>Node13</title>
<g id="a_node13"><a xlink:href="ModelInterface_8h.html" target="_top" xlink:title="/home/lucamuratore\l/advr&#45;superbuild/external\l/XBotInterface/include/XBotInterface\l/ModelInterface.h">
<polygon fill="none" stroke="black" points="687,-181 687,-233 863,-233 863,-181 687,-181"/>
<text text-anchor="start" x="695" y="-221" font-family="Helvetica,sans-Serif" font-size="10.00">/home/lucamuratore</text>
<text text-anchor="start" x="695" y="-210" font-family="Helvetica,sans-Serif" font-size="10.00">/advr&#45;superbuild/external</text>
<text text-anchor="start" x="695" y="-199" font-family="Helvetica,sans-Serif" font-size="10.00">/XBotInterface/include/XBotInterface</text>
<text text-anchor="middle" x="775" y="-188" font-family="Helvetica,sans-Serif" font-size="10.00">/ModelInterface.h</text>
</a>
</g>
</g>
<!-- Node12&#45;&gt;Node13 -->
<g id="edge14" class="edge"><title>Node12&#45;&gt;Node13</title>
<path fill="none" stroke="midnightblue" d="M612.401,-267.372C642.633,-256.333 676.909,-243.817 706.17,-233.133"/>
<polygon fill="midnightblue" stroke="midnightblue" points="610.931,-264.183 602.738,-270.901 613.332,-270.758 610.931,-264.183"/>
</g>
<!-- Node14 -->
<g id="node14" class="node"><title>Node14</title>
<g id="a_node14"><a xlink:href="RobotInterface_8h.html" target="_top" xlink:title="/home/lucamuratore\l/advr&#45;superbuild/external\l/XBotInterface/include/XBotInterface\l/RobotInterface.h">
<polygon fill="none" stroke="black" points="497,-91 497,-143 673,-143 673,-91 497,-91"/>
<text text-anchor="start" x="505" y="-131" font-family="Helvetica,sans-Serif" font-size="10.00">/home/lucamuratore</text>
<text text-anchor="start" x="505" y="-120" font-family="Helvetica,sans-Serif" font-size="10.00">/advr&#45;superbuild/external</text>
<text text-anchor="start" x="505" y="-109" font-family="Helvetica,sans-Serif" font-size="10.00">/XBotInterface/include/XBotInterface</text>
<text text-anchor="middle" x="585" y="-98" font-family="Helvetica,sans-Serif" font-size="10.00">/RobotInterface.h</text>
</a>
</g>
</g>
<!-- Node12&#45;&gt;Node14 -->
<g id="edge21" class="edge"><title>Node12&#45;&gt;Node14</title>
<path fill="none" stroke="midnightblue" d="M602.168,-265.094C613.743,-256.703 624.202,-246.413 631,-234 642.528,-212.95 638.53,-202.788 631,-180 626.542,-166.51 617.889,-153.562 609.28,-143.02"/>
<polygon fill="midnightblue" stroke="midnightblue" points="599.923,-262.387 593.579,-270.872 603.83,-268.195 599.923,-262.387"/>
</g>
<!-- Node19 -->
<g id="node19" class="node"><title>Node19</title>
<g id="a_node19"><a xlink:href="XBotInterface_8cpp.html" target="_top" xlink:title="/home/lucamuratore\l/advr&#45;superbuild/external\l/XBotInterface/src/XBotInterface.cpp">
<polygon fill="none" stroke="black" points="445,-186.5 445,-227.5 623,-227.5 623,-186.5 445,-186.5"/>
<text text-anchor="start" x="453" y="-215.5" font-family="Helvetica,sans-Serif" font-size="10.00">/home/lucamuratore</text>
<text text-anchor="start" x="453" y="-204.5" font-family="Helvetica,sans-Serif" font-size="10.00">/advr&#45;superbuild/external</text>
<text text-anchor="middle" x="534" y="-193.5" font-family="Helvetica,sans-Serif" font-size="10.00">/XBotInterface/src/XBotInterface.cpp</text>
</a>
</g>
</g>
<!-- Node12&#45;&gt;Node19 -->
<g id="edge22" class="edge"><title>Node12&#45;&gt;Node19</title>
<path fill="none" stroke="midnightblue" d="M534,-260.515C534,-249.257 534,-237.227 534,-227.525"/>
<polygon fill="midnightblue" stroke="midnightblue" points="530.5,-260.547 534,-270.547 537.5,-260.547 530.5,-260.547"/>
</g>
<!-- Node13&#45;&gt;Node14 -->
<g id="edge15" class="edge"><title>Node13&#45;&gt;Node14</title>
<path fill="none" stroke="midnightblue" d="M711.638,-176.654C688.188,-165.792 661.834,-153.586 639.264,-143.133"/>
<polygon fill="midnightblue" stroke="midnightblue" points="710.263,-179.874 720.808,-180.901 713.205,-173.522 710.263,-179.874"/>
</g>
<!-- Node17 -->
<g id="node17" class="node"><title>Node17</title>
<g id="a_node17"><a xlink:href="Utils_8h.html" target="_top" xlink:title="/home/lucamuratore\l/advr&#45;superbuild/external\l/XBotInterface/include/XBotInterface\l/Utils.h">
<polygon fill="none" stroke="black" points="891,-91 891,-143 1067,-143 1067,-91 891,-91"/>
<text text-anchor="start" x="899" y="-131" font-family="Helvetica,sans-Serif" font-size="10.00">/home/lucamuratore</text>
<text text-anchor="start" x="899" y="-120" font-family="Helvetica,sans-Serif" font-size="10.00">/advr&#45;superbuild/external</text>
<text text-anchor="start" x="899" y="-109" font-family="Helvetica,sans-Serif" font-size="10.00">/XBotInterface/include/XBotInterface</text>
<text text-anchor="middle" x="979" y="-98" font-family="Helvetica,sans-Serif" font-size="10.00">/Utils.h</text>
</a>
</g>
</g>
<!-- Node13&#45;&gt;Node17 -->
<g id="edge19" class="edge"><title>Node13&#45;&gt;Node17</title>
<path fill="none" stroke="midnightblue" d="M842.696,-176.798C867.958,-165.9 896.397,-153.632 920.738,-143.133"/>
<polygon fill="midnightblue" stroke="midnightblue" points="840.981,-173.726 833.185,-180.901 843.754,-180.153 840.981,-173.726"/>
</g>
<!-- Node18 -->
<g id="node18" class="node"><title>Node18</title>
<g id="a_node18"><a xlink:href="ModelInterface_8cpp.html" target="_top" xlink:title="/home/lucamuratore\l/advr&#45;superbuild/external\l/XBotInterface/src/ModelInterface.cpp">
<polygon fill="none" stroke="black" points="691,-96.5 691,-137.5 873,-137.5 873,-96.5 691,-96.5"/>
<text text-anchor="start" x="699" y="-125.5" font-family="Helvetica,sans-Serif" font-size="10.00">/home/lucamuratore</text>
<text text-anchor="start" x="699" y="-114.5" font-family="Helvetica,sans-Serif" font-size="10.00">/advr&#45;superbuild/external</text>
<text text-anchor="middle" x="782" y="-103.5" font-family="Helvetica,sans-Serif" font-size="10.00">/XBotInterface/src/ModelInterface.cpp</text>
</a>
</g>
</g>
<!-- Node13&#45;&gt;Node18 -->
<g id="edge20" class="edge"><title>Node13&#45;&gt;Node18</title>
<path fill="none" stroke="midnightblue" d="M777.823,-170.515C778.718,-159.257 779.675,-147.227 780.447,-137.525"/>
<polygon fill="midnightblue" stroke="midnightblue" points="774.329,-170.301 777.025,-180.547 781.307,-170.856 774.329,-170.301"/>
</g>
<!-- Node14&#45;&gt;Node11 -->
<g id="edge16" class="edge"><title>Node14&#45;&gt;Node11</title>
<path fill="none" stroke="midnightblue" d="M527.927,-86.1047C507.415,-75.3602 484.507,-63.3607 464.858,-53.0687"/>
<polygon fill="midnightblue" stroke="midnightblue" points="526.376,-89.243 536.858,-90.7827 529.624,-83.0422 526.376,-89.243"/>
</g>
<!-- Node15 -->
<g id="node15" class="node"><title>Node15</title>
<g id="a_node15"><a xlink:href="main__test_8cpp.html" target="_top" xlink:title="/home/lucamuratore\l/advr&#45;superbuild/external\l/XBotInterface/src/main\l_test.cpp">
<polygon fill="none" stroke="black" points="523.5,-1 523.5,-53 646.5,-53 646.5,-1 523.5,-1"/>
<text text-anchor="start" x="531.5" y="-41" font-family="Helvetica,sans-Serif" font-size="10.00">/home/lucamuratore</text>
<text text-anchor="start" x="531.5" y="-30" font-family="Helvetica,sans-Serif" font-size="10.00">/advr&#45;superbuild/external</text>
<text text-anchor="start" x="531.5" y="-19" font-family="Helvetica,sans-Serif" font-size="10.00">/XBotInterface/src/main</text>
<text text-anchor="middle" x="585" y="-8" font-family="Helvetica,sans-Serif" font-size="10.00">_test.cpp</text>
</a>
</g>
</g>
<!-- Node14&#45;&gt;Node15 -->
<g id="edge17" class="edge"><title>Node14&#45;&gt;Node15</title>
<path fill="none" stroke="midnightblue" d="M585,-80.4892C585,-71.3088 585,-61.616 585,-53.0921"/>
<polygon fill="midnightblue" stroke="midnightblue" points="581.5,-80.5467 585,-90.5468 588.5,-80.5468 581.5,-80.5467"/>
</g>
<!-- Node16 -->
<g id="node16" class="node"><title>Node16</title>
<g id="a_node16"><a xlink:href="RobotInterface_8cpp.html" target="_top" xlink:title="/home/lucamuratore\l/advr&#45;superbuild/external\l/XBotInterface/src/RobotInterface.cpp">
<polygon fill="none" stroke="black" points="665,-6.5 665,-47.5 847,-47.5 847,-6.5 665,-6.5"/>
<text text-anchor="start" x="673" y="-35.5" font-family="Helvetica,sans-Serif" font-size="10.00">/home/lucamuratore</text>
<text text-anchor="start" x="673" y="-24.5" font-family="Helvetica,sans-Serif" font-size="10.00">/advr&#45;superbuild/external</text>
<text text-anchor="middle" x="756" y="-13.5" font-family="Helvetica,sans-Serif" font-size="10.00">/XBotInterface/src/RobotInterface.cpp</text>
</a>
</g>
</g>
<!-- Node14&#45;&gt;Node16 -->
<g id="edge18" class="edge"><title>Node14&#45;&gt;Node16</title>
<path fill="none" stroke="midnightblue" d="M642.936,-86.1848C667.659,-73.4622 695.824,-58.9678 717.859,-47.6283"/>
<polygon fill="midnightblue" stroke="midnightblue" points="641.292,-83.0948 634.002,-90.7827 644.495,-89.3189 641.292,-83.0948"/>
</g>
<!-- Node21&#45;&gt;Node2 -->
<g id="edge25" class="edge"><title>Node21&#45;&gt;Node2</title>
<path fill="none" stroke="midnightblue" d="M335.512,-777.74C355.898,-788.473 378.043,-800.474 396.461,-810.783"/>
<polygon fill="midnightblue" stroke="midnightblue" points="337.077,-774.609 326.595,-773.069 333.829,-780.81 337.077,-774.609"/>
</g>
<!-- Node22&#45;&gt;Node6 -->
<g id="edge29" class="edge"><title>Node22&#45;&gt;Node6</title>
<path fill="none" stroke="midnightblue" d="M645.19,-713.621C621.302,-689.777 587.432,-656.952 556,-630 541.212,-617.32 524.177,-604.09 509.557,-593.123"/>
<polygon fill="midnightblue" stroke="midnightblue" points="642.729,-716.11 652.27,-720.717 647.684,-711.165 642.729,-716.11"/>
</g>
<!-- Node24&#45;&gt;Node6 -->
<g id="edge32" class="edge"><title>Node24&#45;&gt;Node6</title>
<path fill="none" stroke="midnightblue" d="M154.664,-631.088C156.119,-630.717 157.565,-630.354 159,-630 241.772,-609.562 338.066,-591.473 402.398,-580.186"/>
<polygon fill="midnightblue" stroke="midnightblue" points="153.743,-627.711 144.961,-633.638 155.522,-634.482 153.743,-627.711"/>
</g>
<!-- Node27&#45;&gt;Node6 -->
<g id="edge37" class="edge"><title>Node27&#45;&gt;Node6</title>
<path fill="none" stroke="midnightblue" d="M217.894,-804.787C207.446,-796.242 197.955,-785.969 192,-774 162.514,-714.74 179.785,-673.124 230,-630 277.765,-588.98 348.963,-574.466 402.315,-569.632"/>
<polygon fill="midnightblue" stroke="midnightblue" points="215.951,-807.707 226.027,-810.983 220.194,-802.139 215.951,-807.707"/>
</g>
<!-- Node27&#45;&gt;Node21 -->
<g id="edge36" class="edge"><title>Node27&#45;&gt;Node21</title>
<path fill="none" stroke="midnightblue" d="M274,-800.489C274,-791.309 274,-781.616 274,-773.092"/>
<polygon fill="midnightblue" stroke="midnightblue" points="270.5,-800.547 274,-810.547 277.5,-800.547 270.5,-800.547"/>
</g>
</g>
</svg>
