<?xml version="1.0" encoding="UTF-8" standalone="no"?>
<!DOCTYPE svg PUBLIC "-//W3C//DTD SVG 1.1//EN"
 "http://www.w3.org/Graphics/SVG/1.1/DTD/svg11.dtd">
<!-- Generated by graphviz version 2.38.0 (20140413.2041)
 -->
<!-- Title: /home/lucamuratore/advr&#45;superbuild/external/XBotInterface/include/spdlog/sinks/base_sink.h Pages: 1 -->
<svg width="1366pt" height="553pt"
 viewBox="0.00 0.00 1366.00 553.00" xmlns="http://www.w3.org/2000/svg" xmlns:xlink="http://www.w3.org/1999/xlink">
<g id="graph0" class="graph" transform="scale(1 1) rotate(0) translate(4 549)">
<title>/home/lucamuratore/advr&#45;superbuild/external/XBotInterface/include/spdlog/sinks/base_sink.h</title>
<!-- Node1 -->
<g id="node1" class="node"><title>Node1</title>
<polygon fill="#bfbfbf" stroke="black" points="189.5,-492.5 189.5,-544.5 334.5,-544.5 334.5,-492.5 189.5,-492.5"/>
<text text-anchor="start" x="197.5" y="-532.5" font-family="Helvetica,sans-Serif" font-size="10.00">/home/lucamuratore</text>
<text text-anchor="start" x="197.5" y="-521.5" font-family="Helvetica,sans-Serif" font-size="10.00">/advr&#45;superbuild/external</text>
<text text-anchor="start" x="197.5" y="-510.5" font-family="Helvetica,sans-Serif" font-size="10.00">/XBotInterface/include/spdlog</text>
<text text-anchor="middle" x="262" y="-499.5" font-family="Helvetica,sans-Serif" font-size="10.00">/sinks/base_sink.h</text>
</g>
<!-- Node2 -->
<g id="node2" class="node"><title>Node2</title>
<g id="a_node2"><a xlink:href="sink_8h.html" target="_top" xlink:title="spdlog/sinks/sink.h">
<polygon fill="none" stroke="black" points="56.5,-375 56.5,-394 157.5,-394 157.5,-375 56.5,-375"/>
<text text-anchor="middle" x="107" y="-382" font-family="Helvetica,sans-Serif" font-size="10.00">spdlog/sinks/sink.h</text>
</a>
</g>
</g>
<!-- Node1&#45;&gt;Node2 -->
<g id="edge1" class="edge"><title>Node1&#45;&gt;Node2</title>
<path fill="none" stroke="midnightblue" d="M221.145,-492.41C205.216,-481.916 187.177,-469.117 172,-456 152.626,-439.256 133.068,-417.183 120.541,-402.228"/>
<polygon fill="midnightblue" stroke="midnightblue" points="123.097,-399.826 114.033,-394.34 117.698,-404.281 123.097,-399.826"/>
</g>
<!-- Node3 -->
<g id="node3" class="node"><title>Node3</title>
<g id="a_node3"><a xlink:href="log__msg_8h.html" target="_top" xlink:title="spdlog/details/log\l_msg.h">
<polygon fill="none" stroke="black" points="61,-302.5 61,-332.5 153,-332.5 153,-302.5 61,-302.5"/>
<text text-anchor="start" x="69" y="-320.5" font-family="Helvetica,sans-Serif" font-size="10.00">spdlog/details/log</text>
<text text-anchor="middle" x="107" y="-309.5" font-family="Helvetica,sans-Serif" font-size="10.00">_msg.h</text>
</a>
</g>
</g>
<!-- Node1&#45;&gt;Node3 -->
<g id="edge62" class="edge"><title>Node1&#45;&gt;Node3</title>
<path fill="none" stroke="midnightblue" d="M248.705,-492.329C231.777,-461.504 200.551,-408.523 166,-369 156.617,-358.267 144.92,-347.785 134.421,-339.178"/>
<polygon fill="midnightblue" stroke="midnightblue" points="136.322,-336.217 126.326,-332.708 131.952,-341.685 136.322,-336.217"/>
</g>
<!-- Node4 -->
<g id="node4" class="node"><title>Node4</title>
<g id="a_node4"><a xlink:href="common_8h.html" target="_top" xlink:title="spdlog/common.h">
<polygon fill="none" stroke="black" points="196,-190.5 196,-209.5 290,-209.5 290,-190.5 196,-190.5"/>
<text text-anchor="middle" x="243" y="-197.5" font-family="Helvetica,sans-Serif" font-size="10.00">spdlog/common.h</text>
</a>
</g>
</g>
<!-- Node1&#45;&gt;Node4 -->
<g id="edge61" class="edge"><title>Node1&#45;&gt;Node4</title>
<path fill="none" stroke="midnightblue" d="M262,-492.195C262,-465.623 262,-422.625 262,-385.5 262,-385.5 262,-385.5 262,-316.5 262,-281.905 253.598,-242.245 247.968,-219.555"/>
<polygon fill="midnightblue" stroke="midnightblue" points="251.291,-218.424 245.406,-209.614 244.513,-220.171 251.291,-218.424"/>
</g>
<!-- Node34 -->
<g id="node34" class="node"><title>Node34</title>
<g id="a_node34"><a xlink:href="formatter_8h.html" target="_top" xlink:title="spdlog/formatter.h">
<polygon fill="none" stroke="black" points="985.5,-436.5 985.5,-455.5 1080.5,-455.5 1080.5,-436.5 985.5,-436.5"/>
<text text-anchor="middle" x="1033" y="-443.5" font-family="Helvetica,sans-Serif" font-size="10.00">spdlog/formatter.h</text>
</a>
</g>
</g>
<!-- Node1&#45;&gt;Node34 -->
<g id="edge43" class="edge"><title>Node1&#45;&gt;Node34</title>
<path fill="none" stroke="midnightblue" d="M334.534,-510.868C486.852,-496.94 837.319,-464.893 975.492,-452.259"/>
<polygon fill="midnightblue" stroke="midnightblue" points="975.82,-455.743 985.46,-451.347 975.183,-448.772 975.82,-455.743"/>
</g>
<!-- Node36 -->
<g id="node36" class="node"><title>Node36</title>
<polygon fill="none" stroke="#bfbfbf" points="1314,-308 1314,-327 1358,-327 1358,-308 1314,-308"/>
<text text-anchor="middle" x="1336" y="-315" font-family="Helvetica,sans-Serif" font-size="10.00">mutex</text>
</g>
<!-- Node1&#45;&gt;Node36 -->
<g id="edge63" class="edge"><title>Node1&#45;&gt;Node36</title>
<path fill="none" stroke="midnightblue" d="M334.722,-516.603C479.372,-513.827 813.038,-502.469 1089,-456 1184.68,-439.889 1226.24,-463.033 1300,-400 1318.98,-383.779 1328.34,-355.613 1332.66,-337.013"/>
<polygon fill="midnightblue" stroke="midnightblue" points="1336.12,-337.595 1334.7,-327.095 1329.26,-336.185 1336.12,-337.595"/>
</g>
<!-- Node2&#45;&gt;Node3 -->
<g id="edge2" class="edge"><title>Node2&#45;&gt;Node3</title>
<path fill="none" stroke="midnightblue" d="M107,-374.734C107,-366.541 107,-353.923 107,-342.714"/>
<polygon fill="midnightblue" stroke="midnightblue" points="110.5,-342.589 107,-332.589 103.5,-342.589 110.5,-342.589"/>
</g>
<!-- Node3&#45;&gt;Node4 -->
<g id="edge3" class="edge"><title>Node3&#45;&gt;Node4</title>
<path fill="none" stroke="midnightblue" d="M123.676,-302.337C149.405,-280.487 198.571,-238.732 225.05,-216.244"/>
<polygon fill="midnightblue" stroke="midnightblue" points="227.435,-218.81 232.792,-209.669 222.904,-213.475 227.435,-218.81"/>
</g>
<!-- Node5 -->
<g id="node5" class="node"><title>Node5</title>
<polygon fill="none" stroke="#bfbfbf" points="505.5,-0.5 505.5,-19.5 546.5,-19.5 546.5,-0.5 505.5,-0.5"/>
<text text-anchor="middle" x="526" y="-7.5" font-family="Helvetica,sans-Serif" font-size="10.00">string</text>
</g>
<!-- Node3&#45;&gt;Node5 -->
<g id="edge41" class="edge"><title>Node3&#45;&gt;Node5</title>
<path fill="none" stroke="midnightblue" d="M100.854,-302.401C87.0361,-268.334 57.5432,-180.144 95,-123 139.794,-54.6616 404.466,-22.8176 495.367,-13.7931"/>
<polygon fill="midnightblue" stroke="midnightblue" points="495.707,-17.2766 505.323,-12.8276 495.032,-10.3093 495.707,-17.2766"/>
</g>
<!-- Node23 -->
<g id="node23" class="node"><title>Node23</title>
<polygon fill="none" stroke="#bfbfbf" points="56,-0.5 56,-19.5 96,-19.5 96,-0.5 56,-0.5"/>
<text text-anchor="middle" x="76" y="-7.5" font-family="Helvetica,sans-Serif" font-size="10.00">utility</text>
</g>
<!-- Node3&#45;&gt;Node23 -->
<g id="edge42" class="edge"><title>Node3&#45;&gt;Node23</title>
<path fill="none" stroke="midnightblue" d="M72.9237,-302.324C56.227,-293.898 36.9749,-281.754 24,-266 4.42262,-242.229 0,-231.795 0,-201 0,-201 0,-201 0,-137.5 0,-92.1215 36.3794,-48.982 58.7989,-26.705"/>
<polygon fill="midnightblue" stroke="midnightblue" points="61.2772,-29.1776 66.0643,-19.7259 56.4279,-24.1293 61.2772,-29.1776"/>
</g>
<!-- Node25 -->
<g id="node25" class="node"><title>Node25</title>
<g id="a_node25"><a xlink:href="os_8h.html" target="_top" xlink:title="spdlog/details/os.h">
<polygon fill="none" stroke="black" points="614,-246.5 614,-265.5 712,-265.5 712,-246.5 614,-246.5"/>
<text text-anchor="middle" x="663" y="-253.5" font-family="Helvetica,sans-Serif" font-size="10.00">spdlog/details/os.h</text>
</a>
</g>
</g>
<!-- Node3&#45;&gt;Node25 -->
<g id="edge27" class="edge"><title>Node3&#45;&gt;Node25</title>
<path fill="none" stroke="midnightblue" d="M153.448,-311.529C254.179,-300.75 492.589,-275.236 603.872,-263.328"/>
<polygon fill="midnightblue" stroke="midnightblue" points="604.343,-266.797 613.914,-262.253 603.598,-259.837 604.343,-266.797"/>
</g>
<!-- Node4&#45;&gt;Node5 -->
<g id="edge4" class="edge"><title>Node4&#45;&gt;Node5</title>
<path fill="none" stroke="midnightblue" d="M288.727,-190.499C332.355,-181.779 394.39,-167.601 415,-154 464.491,-121.341 501.324,-59.1481 517.275,-28.6938"/>
<polygon fill="midnightblue" stroke="midnightblue" points="520.451,-30.1701 521.872,-19.671 514.214,-26.9923 520.451,-30.1701"/>
</g>
<!-- Node6 -->
<g id="node6" class="node"><title>Node6</title>
<polygon fill="none" stroke="#bfbfbf" points="104.5,-129 104.5,-148 177.5,-148 177.5,-129 104.5,-129"/>
<text text-anchor="middle" x="141" y="-136" font-family="Helvetica,sans-Serif" font-size="10.00">initializer_list</text>
</g>
<!-- Node4&#45;&gt;Node6 -->
<g id="edge5" class="edge"><title>Node4&#45;&gt;Node6</title>
<path fill="none" stroke="midnightblue" d="M228.386,-190.475C211.647,-180.711 183.996,-164.581 164.281,-153.081"/>
<polygon fill="midnightblue" stroke="midnightblue" points="165.988,-150.025 155.587,-148.009 162.461,-156.071 165.988,-150.025"/>
</g>
<!-- Node7 -->
<g id="node7" class="node"><title>Node7</title>
<polygon fill="none" stroke="#bfbfbf" points="696,-129 696,-148 742,-148 742,-129 696,-129"/>
<text text-anchor="middle" x="719" y="-136" font-family="Helvetica,sans-Serif" font-size="10.00">chrono</text>
</g>
<!-- Node4&#45;&gt;Node7 -->
<g id="edge6" class="edge"><title>Node4&#45;&gt;Node7</title>
<path fill="none" stroke="midnightblue" d="M290.381,-193.077C386.575,-181.053 602.664,-154.042 685.66,-143.668"/>
<polygon fill="midnightblue" stroke="midnightblue" points="686.296,-147.115 695.785,-142.402 685.428,-140.169 686.296,-147.115"/>
</g>
<!-- Node8 -->
<g id="node8" class="node"><title>Node8</title>
<polygon fill="none" stroke="#bfbfbf" points="1098,-0.5 1098,-19.5 1150,-19.5 1150,-0.5 1098,-0.5"/>
<text text-anchor="middle" x="1124" y="-7.5" font-family="Helvetica,sans-Serif" font-size="10.00">memory</text>
</g>
<!-- Node4&#45;&gt;Node8 -->
<g id="edge7" class="edge"><title>Node4&#45;&gt;Node8</title>
<path fill="none" stroke="midnightblue" d="M290.369,-193.811C332.773,-187.956 395.946,-176.2 447,-154 469.272,-144.315 469.212,-131.4 492,-123 637.896,-69.2214 687.084,-115.186 840,-87 930.539,-70.3113 1034.48,-39.41 1087.99,-22.6093"/>
<polygon fill="midnightblue" stroke="midnightblue" points="1089.21,-25.8945 1097.7,-19.5442 1087.11,-19.2197 1089.21,-25.8945"/>
</g>
<!-- Node9 -->
<g id="node9" class="node"><title>Node9</title>
<polygon fill="none" stroke="#bfbfbf" points="258,-62 258,-81 304,-81 304,-62 258,-62"/>
<text text-anchor="middle" x="281" y="-69" font-family="Helvetica,sans-Serif" font-size="10.00">atomic</text>
</g>
<!-- Node4&#45;&gt;Node9 -->
<g id="edge8" class="edge"><title>Node4&#45;&gt;Node9</title>
<path fill="none" stroke="midnightblue" d="M260.502,-190.465C273.787,-182.917 291.076,-170.533 299,-154 308.947,-133.246 299.623,-106.873 291.111,-89.8424"/>
<polygon fill="midnightblue" stroke="midnightblue" points="294.173,-88.1469 286.345,-81.0075 288.012,-91.4703 294.173,-88.1469"/>
</g>
<!-- Node10 -->
<g id="node10" class="node"><title>Node10</title>
<polygon fill="none" stroke="#bfbfbf" points="347.5,-129 347.5,-148 406.5,-148 406.5,-129 347.5,-129"/>
<text text-anchor="middle" x="377" y="-136" font-family="Helvetica,sans-Serif" font-size="10.00">exception</text>
</g>
<!-- Node4&#45;&gt;Node10 -->
<g id="edge9" class="edge"><title>Node4&#45;&gt;Node10</title>
<path fill="none" stroke="midnightblue" d="M262.199,-190.475C284.787,-180.445 322.499,-163.7 348.501,-152.155"/>
<polygon fill="midnightblue" stroke="midnightblue" points="350.118,-155.266 357.837,-148.009 347.277,-148.869 350.118,-155.266"/>
</g>
<!-- Node11 -->
<g id="node11" class="node"><title>Node11</title>
<polygon fill="none" stroke="#bfbfbf" points="501.5,-129 501.5,-148 560.5,-148 560.5,-129 501.5,-129"/>
<text text-anchor="middle" x="531" y="-136" font-family="Helvetica,sans-Serif" font-size="10.00">functional</text>
</g>
<!-- Node4&#45;&gt;Node11 -->
<g id="edge10" class="edge"><title>Node4&#45;&gt;Node11</title>
<path fill="none" stroke="midnightblue" d="M290.115,-191.096C350.158,-180.887 450.536,-163.325 487,-154 490.375,-153.137 493.868,-152.151 497.341,-151.108"/>
<polygon fill="midnightblue" stroke="midnightblue" points="498.482,-154.418 506.967,-148.074 496.378,-147.742 498.482,-154.418"/>
</g>
<!-- Node12 -->
<g id="node12" class="node"><title>Node12</title>
<g id="a_node12"><a xlink:href="null__mutex_8h.html" target="_top" xlink:title="spdlog/details/null\l_mutex.h">
<polygon fill="none" stroke="black" points="195.5,-123.5 195.5,-153.5 290.5,-153.5 290.5,-123.5 195.5,-123.5"/>
<text text-anchor="start" x="203.5" y="-141.5" font-family="Helvetica,sans-Serif" font-size="10.00">spdlog/details/null</text>
<text text-anchor="middle" x="243" y="-130.5" font-family="Helvetica,sans-Serif" font-size="10.00">_mutex.h</text>
</a>
</g>
</g>
<!-- Node4&#45;&gt;Node12 -->
<g id="edge11" class="edge"><title>Node4&#45;&gt;Node12</title>
<path fill="none" stroke="midnightblue" d="M243,-190.475C243,-183.471 243,-173.192 243,-163.696"/>
<polygon fill="midnightblue" stroke="midnightblue" points="246.5,-163.523 243,-153.523 239.5,-163.523 246.5,-163.523"/>
</g>
<!-- Node13 -->
<g id="node13" class="node"><title>Node13</title>
<g id="a_node13"><a xlink:href="fmt_8h.html" target="_top" xlink:title="spdlog/fmt/fmt.h">
<polygon fill="none" stroke="black" points="760,-129 760,-148 848,-148 848,-129 760,-129"/>
<text text-anchor="middle" x="804" y="-136" font-family="Helvetica,sans-Serif" font-size="10.00">spdlog/fmt/fmt.h</text>
</a>
</g>
</g>
<!-- Node4&#45;&gt;Node13 -->
<g id="edge13" class="edge"><title>Node4&#45;&gt;Node13</title>
<path fill="none" stroke="midnightblue" d="M290.331,-194.387C305.26,-192.954 321.817,-191.387 337,-190 520.929,-173.198 569.188,-186.501 751,-154 756.093,-153.09 761.407,-151.914 766.619,-150.627"/>
<polygon fill="midnightblue" stroke="midnightblue" points="767.648,-153.975 776.433,-148.054 765.873,-147.204 767.648,-153.975"/>
</g>
<!-- Node12&#45;&gt;Node9 -->
<g id="edge12" class="edge"><title>Node12&#45;&gt;Node9</title>
<path fill="none" stroke="midnightblue" d="M251.245,-123.396C256.994,-113.562 264.702,-100.378 270.832,-89.892"/>
<polygon fill="midnightblue" stroke="midnightblue" points="273.892,-91.594 275.917,-81.1945 267.848,-88.0611 273.892,-91.594"/>
</g>
<!-- Node14 -->
<g id="node14" class="node"><title>Node14</title>
<g id="a_node14"><a xlink:href="format_8h.html" target="_top" xlink:title="spdlog/fmt/bundled\l/format.h">
<polygon fill="none" stroke="black" points="732.5,-56.5 732.5,-86.5 831.5,-86.5 831.5,-56.5 732.5,-56.5"/>
<text text-anchor="start" x="740.5" y="-74.5" font-family="Helvetica,sans-Serif" font-size="10.00">spdlog/fmt/bundled</text>
<text text-anchor="middle" x="782" y="-63.5" font-family="Helvetica,sans-Serif" font-size="10.00">/format.h</text>
</a>
</g>
</g>
<!-- Node13&#45;&gt;Node14 -->
<g id="edge14" class="edge"><title>Node13&#45;&gt;Node14</title>
<path fill="none" stroke="midnightblue" d="M801.033,-128.734C798.231,-120.456 793.901,-107.662 790.078,-96.3674"/>
<polygon fill="midnightblue" stroke="midnightblue" points="793.29,-94.9391 786.769,-86.589 786.659,-97.1833 793.29,-94.9391"/>
</g>
<!-- Node14&#45;&gt;Node5 -->
<g id="edge23" class="edge"><title>Node14&#45;&gt;Node5</title>
<path fill="none" stroke="midnightblue" d="M732.392,-59.2327C727.53,-58.1368 722.67,-57.0446 718,-56 648.71,-40.4993 628.435,-39.108 556.539,-20.2531"/>
<polygon fill="midnightblue" stroke="midnightblue" points="557.096,-16.7802 546.534,-17.605 555.305,-23.5472 557.096,-16.7802"/>
</g>
<!-- Node14&#45;&gt;Node8 -->
<g id="edge21" class="edge"><title>Node14&#45;&gt;Node8</title>
<path fill="none" stroke="midnightblue" d="M831.544,-58.9245C836.42,-57.8909 841.3,-56.8976 846,-56 948.061,-36.509 974.625,-37.7736 1077,-20 1080.46,-19.3991 1084.06,-18.7512 1087.66,-18.0883"/>
<polygon fill="midnightblue" stroke="midnightblue" points="1088.5,-21.492 1097.68,-16.2063 1087.21,-14.6123 1088.5,-21.492"/>
</g>
<!-- Node15 -->
<g id="node15" class="node"><title>Node15</title>
<polygon fill="none" stroke="#bfbfbf" points="564.5,-0.5 564.5,-19.5 613.5,-19.5 613.5,-0.5 564.5,-0.5"/>
<text text-anchor="middle" x="589" y="-7.5" font-family="Helvetica,sans-Serif" font-size="10.00">cassert</text>
</g>
<!-- Node14&#45;&gt;Node15 -->
<g id="edge15" class="edge"><title>Node14&#45;&gt;Node15</title>
<path fill="none" stroke="midnightblue" d="M736.262,-56.3993C701.56,-45.7012 654.616,-31.2286 623.145,-21.5266"/>
<polygon fill="midnightblue" stroke="midnightblue" points="624.094,-18.1565 613.506,-18.5551 622.031,-24.8459 624.094,-18.1565"/>
</g>
<!-- Node16 -->
<g id="node16" class="node"><title>Node16</title>
<polygon fill="none" stroke="#bfbfbf" points="631.5,-0.5 631.5,-19.5 678.5,-19.5 678.5,-0.5 631.5,-0.5"/>
<text text-anchor="middle" x="655" y="-7.5" font-family="Helvetica,sans-Serif" font-size="10.00">clocale</text>
</g>
<!-- Node14&#45;&gt;Node16 -->
<g id="edge16" class="edge"><title>Node14&#45;&gt;Node16</title>
<path fill="none" stroke="midnightblue" d="M751.903,-56.3993C730.88,-46.55 703.028,-33.5014 682.581,-23.9217"/>
<polygon fill="midnightblue" stroke="midnightblue" points="684.02,-20.7309 673.48,-19.6578 681.05,-27.0698 684.02,-20.7309"/>
</g>
<!-- Node17 -->
<g id="node17" class="node"><title>Node17</title>
<polygon fill="none" stroke="#bfbfbf" points="697,-0.5 697,-19.5 741,-19.5 741,-0.5 697,-0.5"/>
<text text-anchor="middle" x="719" y="-7.5" font-family="Helvetica,sans-Serif" font-size="10.00">cmath</text>
</g>
<!-- Node14&#45;&gt;Node17 -->
<g id="edge17" class="edge"><title>Node14&#45;&gt;Node17</title>
<path fill="none" stroke="midnightblue" d="M767.07,-56.3993C757.632,-47.4859 745.42,-35.9523 735.667,-26.7408"/>
<polygon fill="midnightblue" stroke="midnightblue" points="737.84,-23.9795 728.167,-19.6578 733.034,-29.0686 737.84,-23.9795"/>
</g>
<!-- Node18 -->
<g id="node18" class="node"><title>Node18</title>
<polygon fill="none" stroke="#bfbfbf" points="1025.5,-0.5 1025.5,-19.5 1068.5,-19.5 1068.5,-0.5 1025.5,-0.5"/>
<text text-anchor="middle" x="1047" y="-7.5" font-family="Helvetica,sans-Serif" font-size="10.00">cstdio</text>
</g>
<!-- Node14&#45;&gt;Node18 -->
<g id="edge18" class="edge"><title>Node14&#45;&gt;Node18</title>
<path fill="none" stroke="midnightblue" d="M831.599,-59.1902C836.463,-58.1028 841.326,-57.0243 846,-56 918.346,-40.1451 939.381,-38.8623 1015.32,-20.0162"/>
<polygon fill="midnightblue" stroke="midnightblue" points="1016.52,-23.3231 1025.38,-17.4991 1014.82,-16.5327 1016.52,-23.3231"/>
</g>
<!-- Node19 -->
<g id="node19" class="node"><title>Node19</title>
<polygon fill="none" stroke="#bfbfbf" points="759,-0.5 759,-19.5 805,-19.5 805,-0.5 759,-0.5"/>
<text text-anchor="middle" x="782" y="-7.5" font-family="Helvetica,sans-Serif" font-size="10.00">cstring</text>
</g>
<!-- Node14&#45;&gt;Node19 -->
<g id="edge19" class="edge"><title>Node14&#45;&gt;Node19</title>
<path fill="none" stroke="midnightblue" d="M782,-56.3993C782,-48.4664 782,-38.458 782,-29.8583"/>
<polygon fill="midnightblue" stroke="midnightblue" points="785.5,-29.6577 782,-19.6578 778.5,-29.6578 785.5,-29.6577"/>
</g>
<!-- Node20 -->
<g id="node20" class="node"><title>Node20</title>
<polygon fill="none" stroke="#bfbfbf" points="823,-0.5 823,-19.5 863,-19.5 863,-0.5 823,-0.5"/>
<text text-anchor="middle" x="843" y="-7.5" font-family="Helvetica,sans-Serif" font-size="10.00">limits</text>
</g>
<!-- Node14&#45;&gt;Node20 -->
<g id="edge20" class="edge"><title>Node14&#45;&gt;Node20</title>
<path fill="none" stroke="midnightblue" d="M796.456,-56.3993C805.594,-47.4859 817.419,-35.9523 826.862,-26.7408"/>
<polygon fill="midnightblue" stroke="midnightblue" points="829.409,-29.1458 834.124,-19.6578 824.522,-24.1348 829.409,-29.1458"/>
</g>
<!-- Node21 -->
<g id="node21" class="node"><title>Node21</title>
<polygon fill="none" stroke="#bfbfbf" points="881.5,-0.5 881.5,-19.5 940.5,-19.5 940.5,-0.5 881.5,-0.5"/>
<text text-anchor="middle" x="911" y="-7.5" font-family="Helvetica,sans-Serif" font-size="10.00">stdexcept</text>
</g>
<!-- Node14&#45;&gt;Node21 -->
<g id="edge22" class="edge"><title>Node14&#45;&gt;Node21</title>
<path fill="none" stroke="midnightblue" d="M812.571,-56.3993C833.925,-46.55 862.215,-33.5014 882.985,-23.9217"/>
<polygon fill="midnightblue" stroke="midnightblue" points="884.615,-27.0244 892.229,-19.6578 881.683,-20.668 884.615,-27.0244"/>
</g>
<!-- Node22 -->
<g id="node22" class="node"><title>Node22</title>
<polygon fill="none" stroke="#bfbfbf" points="1226,-0.5 1226,-19.5 1270,-19.5 1270,-0.5 1226,-0.5"/>
<text text-anchor="middle" x="1248" y="-7.5" font-family="Helvetica,sans-Serif" font-size="10.00">vector</text>
</g>
<!-- Node14&#45;&gt;Node22 -->
<g id="edge24" class="edge"><title>Node14&#45;&gt;Node22</title>
<path fill="none" stroke="midnightblue" d="M831.87,-64.1325C927.932,-51.867 1136.18,-25.2769 1215.99,-15.0872"/>
<polygon fill="midnightblue" stroke="midnightblue" points="1216.46,-18.5551 1225.94,-13.8167 1215.58,-11.6115 1216.46,-18.5551"/>
</g>
<!-- Node14&#45;&gt;Node23 -->
<g id="edge25" class="edge"><title>Node14&#45;&gt;Node23</title>
<path fill="none" stroke="midnightblue" d="M732.355,-66.3161C595.515,-54.7834 215.799,-22.7819 106.06,-13.5334"/>
<polygon fill="midnightblue" stroke="midnightblue" points="106.273,-10.039 96.0146,-12.6868 105.685,-17.0143 106.273,-10.039"/>
</g>
<!-- Node24 -->
<g id="node24" class="node"><title>Node24</title>
<polygon fill="none" stroke="#bfbfbf" points="958.5,-0.5 958.5,-19.5 1007.5,-19.5 1007.5,-0.5 958.5,-0.5"/>
<text text-anchor="middle" x="983" y="-7.5" font-family="Helvetica,sans-Serif" font-size="10.00">stdint.h</text>
</g>
<!-- Node14&#45;&gt;Node24 -->
<g id="edge26" class="edge"><title>Node14&#45;&gt;Node24</title>
<path fill="none" stroke="midnightblue" d="M829.38,-56.4747C865.983,-45.6393 915.779,-30.8986 948.628,-21.1748"/>
<polygon fill="midnightblue" stroke="midnightblue" points="949.65,-24.5226 958.245,-18.328 947.663,-17.8105 949.65,-24.5226"/>
</g>
<!-- Node25&#45;&gt;Node4 -->
<g id="edge28" class="edge"><title>Node25&#45;&gt;Node4</title>
<path fill="none" stroke="midnightblue" d="M613.999,-248.7C535.79,-238.644 383.126,-219.016 300.097,-208.341"/>
<polygon fill="midnightblue" stroke="midnightblue" points="300.446,-204.857 290.081,-207.053 299.553,-211.8 300.446,-204.857"/>
</g>
<!-- Node25&#45;&gt;Node5 -->
<g id="edge32" class="edge"><title>Node25&#45;&gt;Node5</title>
<path fill="none" stroke="midnightblue" d="M655.109,-246.401C647.695,-237.827 636.884,-223.957 631,-210 603.974,-145.898 642.903,-112.985 603,-56 591.747,-39.93 572.771,-28.744 556.474,-21.544"/>
<polygon fill="midnightblue" stroke="midnightblue" points="557.346,-18.119 546.765,-17.568 554.693,-24.5968 557.346,-18.119"/>
</g>
<!-- Node25&#45;&gt;Node7 -->
<g id="edge33" class="edge"><title>Node25&#45;&gt;Node7</title>
<path fill="none" stroke="midnightblue" d="M712.271,-249.311C759.308,-242.746 825.285,-230.183 841,-210 882.181,-157.112 822.339,-184.412 751,-154 749.632,-153.417 748.235,-152.814 746.826,-152.199"/>
<polygon fill="midnightblue" stroke="midnightblue" points="748.11,-148.939 737.551,-148.076 745.267,-155.336 748.11,-148.939"/>
</g>
<!-- Node25&#45;&gt;Node11 -->
<g id="edge31" class="edge"><title>Node25&#45;&gt;Node11</title>
<path fill="none" stroke="midnightblue" d="M648.958,-246.467C635.371,-237.941 614.471,-224.106 598,-210 578.274,-193.106 558.065,-171.063 545.075,-156.156"/>
<polygon fill="midnightblue" stroke="midnightblue" points="547.491,-153.599 538.318,-148.297 542.183,-158.162 547.491,-153.599"/>
</g>
<!-- Node25&#45;&gt;Node18 -->
<g id="edge29" class="edge"><title>Node25&#45;&gt;Node18</title>
<path fill="none" stroke="midnightblue" d="M712.155,-252.005C754.332,-247.609 815.487,-236.762 862,-210 943.793,-162.938 1010.72,-67.9109 1036.07,-28.6194"/>
<polygon fill="midnightblue" stroke="midnightblue" points="1039.21,-30.2136 1041.6,-19.894 1033.29,-26.4649 1039.21,-30.2136"/>
</g>
<!-- Node26 -->
<g id="node26" class="node"><title>Node26</title>
<polygon fill="none" stroke="#bfbfbf" points="926.5,-190.5 926.5,-209.5 967.5,-209.5 967.5,-190.5 926.5,-190.5"/>
<text text-anchor="middle" x="947" y="-197.5" font-family="Helvetica,sans-Serif" font-size="10.00">ctime</text>
</g>
<!-- Node25&#45;&gt;Node26 -->
<g id="edge30" class="edge"><title>Node25&#45;&gt;Node26</title>
<path fill="none" stroke="midnightblue" d="M712.345,-247.172C762.735,-238.924 843.12,-225.059 912,-210 913.456,-209.682 914.943,-209.345 916.442,-208.996"/>
<polygon fill="midnightblue" stroke="midnightblue" points="917.447,-212.354 926.332,-206.581 915.787,-205.553 917.447,-212.354"/>
</g>
<!-- Node27 -->
<g id="node27" class="node"><title>Node27</title>
<polygon fill="none" stroke="#bfbfbf" points="986,-190.5 986,-209.5 1030,-209.5 1030,-190.5 986,-190.5"/>
<text text-anchor="middle" x="1008" y="-197.5" font-family="Helvetica,sans-Serif" font-size="10.00">thread</text>
</g>
<!-- Node25&#45;&gt;Node27 -->
<g id="edge34" class="edge"><title>Node25&#45;&gt;Node27</title>
<path fill="none" stroke="midnightblue" d="M712.144,-249.957C772.085,-243.359 876.608,-230.413 975.821,-209.76"/>
<polygon fill="midnightblue" stroke="midnightblue" points="976.652,-213.162 985.713,-207.672 975.206,-206.313 976.652,-213.162"/>
</g>
<!-- Node28 -->
<g id="node28" class="node"><title>Node28</title>
<polygon fill="none" stroke="#bfbfbf" points="640,-190.5 640,-209.5 686,-209.5 686,-190.5 640,-190.5"/>
<text text-anchor="middle" x="663" y="-197.5" font-family="Helvetica,sans-Serif" font-size="10.00">stdio.h</text>
</g>
<!-- Node25&#45;&gt;Node28 -->
<g id="edge35" class="edge"><title>Node25&#45;&gt;Node28</title>
<path fill="none" stroke="midnightblue" d="M663,-246.083C663,-239.006 663,-228.861 663,-219.986"/>
<polygon fill="midnightblue" stroke="midnightblue" points="666.5,-219.751 663,-209.751 659.5,-219.751 666.5,-219.751"/>
</g>
<!-- Node29 -->
<g id="node29" class="node"><title>Node29</title>
<polygon fill="none" stroke="#bfbfbf" points="704.5,-190.5 704.5,-209.5 753.5,-209.5 753.5,-190.5 704.5,-190.5"/>
<text text-anchor="middle" x="729" y="-197.5" font-family="Helvetica,sans-Serif" font-size="10.00">string.h</text>
</g>
<!-- Node25&#45;&gt;Node29 -->
<g id="edge36" class="edge"><title>Node25&#45;&gt;Node29</title>
<path fill="none" stroke="midnightblue" d="M673.604,-246.324C683.456,-238.263 698.351,-226.077 710.215,-216.369"/>
<polygon fill="midnightblue" stroke="midnightblue" points="712.68,-218.875 718.203,-209.834 708.247,-213.457 712.68,-218.875"/>
</g>
<!-- Node30 -->
<g id="node30" class="node"><title>Node30</title>
<polygon fill="none" stroke="#bfbfbf" points="772,-190.5 772,-209.5 832,-209.5 832,-190.5 772,-190.5"/>
<text text-anchor="middle" x="802" y="-197.5" font-family="Helvetica,sans-Serif" font-size="10.00">sys/stat.h</text>
</g>
<!-- Node25&#45;&gt;Node30 -->
<g id="edge37" class="edge"><title>Node25&#45;&gt;Node30</title>
<path fill="none" stroke="midnightblue" d="M685.025,-246.444C708.104,-237.478 744.562,-223.314 770.641,-213.183"/>
<polygon fill="midnightblue" stroke="midnightblue" points="772.024,-216.4 780.078,-209.516 769.489,-209.875 772.024,-216.4"/>
</g>
<!-- Node31 -->
<g id="node31" class="node"><title>Node31</title>
<polygon fill="none" stroke="#bfbfbf" points="346,-190.5 346,-209.5 414,-209.5 414,-190.5 346,-190.5"/>
<text text-anchor="middle" x="380" y="-197.5" font-family="Helvetica,sans-Serif" font-size="10.00">sys/types.h</text>
</g>
<!-- Node25&#45;&gt;Node31 -->
<g id="edge38" class="edge"><title>Node25&#45;&gt;Node31</title>
<path fill="none" stroke="midnightblue" d="M616.036,-246.495C569.789,-238.053 496.866,-224.561 424.464,-210.26"/>
<polygon fill="midnightblue" stroke="midnightblue" points="424.744,-206.747 414.254,-208.237 423.383,-213.614 424.744,-206.747"/>
</g>
<!-- Node32 -->
<g id="node32" class="node"><title>Node32</title>
<polygon fill="none" stroke="#bfbfbf" points="432.5,-190.5 432.5,-209.5 483.5,-209.5 483.5,-190.5 432.5,-190.5"/>
<text text-anchor="middle" x="458" y="-197.5" font-family="Helvetica,sans-Serif" font-size="10.00">unistd.h</text>
</g>
<!-- Node25&#45;&gt;Node32 -->
<g id="edge39" class="edge"><title>Node25&#45;&gt;Node32</title>
<path fill="none" stroke="midnightblue" d="M630.517,-246.444C593.104,-236.588 531.851,-220.453 493.291,-210.296"/>
<polygon fill="midnightblue" stroke="midnightblue" points="494.092,-206.888 483.53,-207.725 492.309,-213.657 494.092,-206.888"/>
</g>
<!-- Node33 -->
<g id="node33" class="node"><title>Node33</title>
<polygon fill="none" stroke="#bfbfbf" points="502,-190.5 502,-209.5 546,-209.5 546,-190.5 502,-190.5"/>
<text text-anchor="middle" x="524" y="-197.5" font-family="Helvetica,sans-Serif" font-size="10.00">fcntl.h</text>
</g>
<!-- Node25&#45;&gt;Node33 -->
<g id="edge40" class="edge"><title>Node25&#45;&gt;Node33</title>
<path fill="none" stroke="midnightblue" d="M640.975,-246.444C617.896,-237.478 581.438,-223.314 555.359,-213.183"/>
<polygon fill="midnightblue" stroke="midnightblue" points="556.511,-209.875 545.922,-209.516 553.976,-216.4 556.511,-209.875"/>
</g>
<!-- Node34&#45;&gt;Node3 -->
<g id="edge44" class="edge"><title>Node34&#45;&gt;Node3</title>
<path fill="none" stroke="midnightblue" d="M985.311,-440.668C854.063,-428.349 476.696,-390.273 167,-333 165.726,-332.764 164.438,-332.519 163.14,-332.264"/>
<polygon fill="midnightblue" stroke="midnightblue" points="163.583,-328.781 153.08,-330.17 162.156,-335.634 163.583,-328.781"/>
</g>
<!-- Node34&#45;&gt;Node5 -->
<g id="edge46" class="edge"><title>Node34&#45;&gt;Node5</title>
<path fill="none" stroke="midnightblue" d="M1055.95,-436.473C1095.43,-420.148 1172,-380.496 1172,-318.5 1172,-318.5 1172,-318.5 1172,-199 1172,6.67024 919.096,-149.021 723,-87 662.36,-67.8208 593.431,-39.7308 555.3,-23.6171"/>
<polygon fill="midnightblue" stroke="midnightblue" points="556.416,-20.2884 545.844,-19.5991 553.679,-26.731 556.416,-20.2884"/>
</g>
<!-- Node34&#45;&gt;Node8 -->
<g id="edge47" class="edge"><title>Node34&#45;&gt;Node8</title>
<path fill="none" stroke="midnightblue" d="M1079.33,-436.44C1118.62,-428.295 1170.92,-415.073 1186,-400 1212.7,-373.304 1210,-356.26 1210,-318.5 1210,-318.5 1210,-318.5 1210,-137.5 1210,-90.4972 1168.89,-48.0206 1143.52,-26.2789"/>
<polygon fill="midnightblue" stroke="midnightblue" points="1145.53,-23.4037 1135.6,-19.7239 1141.07,-28.7963 1145.53,-23.4037"/>
</g>
<!-- Node34&#45;&gt;Node22 -->
<g id="edge45" class="edge"><title>Node34&#45;&gt;Node22</title>
<path fill="none" stroke="midnightblue" d="M1078.54,-436.464C1123.29,-427.54 1187.97,-413.045 1210,-400 1252.62,-374.764 1286,-368.028 1286,-318.5 1286,-318.5 1286,-318.5 1286,-137.5 1286,-97.3496 1268.22,-52.9463 1256.99,-28.8892"/>
<polygon fill="midnightblue" stroke="midnightblue" points="1260.01,-27.1043 1252.51,-19.6255 1253.71,-30.1518 1260.01,-27.1043"/>
</g>
<!-- Node35 -->
<g id="node35" class="node"><title>Node35</title>
<g id="a_node35"><a xlink:href="pattern__formatter__impl_8h.html" target="_top" xlink:title="spdlog/details/pattern\l_formatter_impl.h">
<polygon fill="none" stroke="black" points="978,-369.5 978,-399.5 1088,-399.5 1088,-369.5 978,-369.5"/>
<text text-anchor="start" x="986" y="-387.5" font-family="Helvetica,sans-Serif" font-size="10.00">spdlog/details/pattern</text>
<text text-anchor="middle" x="1033" y="-376.5" font-family="Helvetica,sans-Serif" font-size="10.00">_formatter_impl.h</text>
</a>
</g>
</g>
<!-- Node34&#45;&gt;Node35 -->
<g id="edge48" class="edge"><title>Node34&#45;&gt;Node35</title>
<path fill="none" stroke="midnightblue" d="M1028.1,-436.475C1026.57,-429.471 1025.99,-419.192 1026.36,-409.696"/>
<polygon fill="midnightblue" stroke="midnightblue" points="1029.86,-409.77 1027.17,-399.523 1022.88,-409.212 1029.86,-409.77"/>
</g>
<!-- Node35&#45;&gt;Node3 -->
<g id="edge50" class="edge"><title>Node35&#45;&gt;Node3</title>
<path fill="none" stroke="midnightblue" d="M977.938,-383.691C840.372,-383.434 470.885,-378.208 167,-333 165.718,-332.809 164.423,-332.604 163.12,-332.387"/>
<polygon fill="midnightblue" stroke="midnightblue" points="163.497,-328.897 153.024,-330.502 162.212,-335.778 163.497,-328.897"/>
</g>
<!-- Node35&#45;&gt;Node5 -->
<g id="edge57" class="edge"><title>Node35&#45;&gt;Node5</title>
<path fill="none" stroke="midnightblue" d="M977.911,-378.399C827.556,-363.218 416.094,-312.85 337,-210 331.581,-202.954 331.217,-196.75 337,-190 404.891,-110.762 501.109,-233.238 569,-154 600.948,-116.712 562.083,-56.3216 539.701,-27.4258"/>
<polygon fill="midnightblue" stroke="midnightblue" points="542.362,-25.1496 533.381,-19.5297 536.897,-29.5239 542.362,-25.1496"/>
</g>
<!-- Node35&#45;&gt;Node7 -->
<g id="edge53" class="edge"><title>Node35&#45;&gt;Node7</title>
<path fill="none" stroke="midnightblue" d="M1039.15,-369.414C1053.47,-334.209 1084.49,-241.527 1039,-190 996.315,-141.647 813.076,-171.508 751,-154 748.854,-153.395 746.668,-152.666 744.497,-151.863"/>
<polygon fill="midnightblue" stroke="midnightblue" points="745.828,-148.626 735.251,-148.004 743.132,-155.086 745.828,-148.626"/>
</g>
<!-- Node35&#45;&gt;Node8 -->
<g id="edge55" class="edge"><title>Node35&#45;&gt;Node8</title>
<path fill="none" stroke="midnightblue" d="M1055.42,-369.357C1085.17,-348.641 1134,-307.024 1134,-257 1134,-257 1134,-257 1134,-137.5 1134,-99.0829 1129.36,-54.3067 1126.4,-29.6607"/>
<polygon fill="midnightblue" stroke="midnightblue" points="1129.85,-29.0629 1125.15,-19.571 1122.91,-29.9263 1129.85,-29.0629"/>
</g>
<!-- Node35&#45;&gt;Node13 -->
<g id="edge52" class="edge"><title>Node35&#45;&gt;Node13</title>
<path fill="none" stroke="midnightblue" d="M1048.26,-369.174C1057.06,-359.833 1067.28,-346.839 1072,-333 1092.52,-272.849 1112.57,-238.925 1072,-190 1045.39,-157.91 928.588,-146.073 858.259,-141.81"/>
<polygon fill="midnightblue" stroke="midnightblue" points="858.421,-138.313 848.236,-141.234 858.019,-145.302 858.421,-138.313"/>
</g>
<!-- Node35&#45;&gt;Node22 -->
<g id="edge60" class="edge"><title>Node35&#45;&gt;Node22</title>
<path fill="none" stroke="midnightblue" d="M1088.09,-375.472C1151.79,-362.712 1248,-331.165 1248,-257 1248,-257 1248,-257 1248,-137.5 1248,-99.2024 1248,-54.3829 1248,-29.6971"/>
<polygon fill="midnightblue" stroke="midnightblue" points="1251.5,-29.5894 1248,-19.5894 1244.5,-29.5895 1251.5,-29.5894"/>
</g>
<!-- Node35&#45;&gt;Node23 -->
<g id="edge59" class="edge"><title>Node35&#45;&gt;Node23</title>
<path fill="none" stroke="midnightblue" d="M978,-382.45C884.302,-379.68 688.207,-369.607 527,-333 370.294,-297.415 331.91,-279.456 187,-210 143.834,-189.31 121.155,-194.091 95,-154 69.8725,-115.484 71.0167,-58.6485 73.672,-29.5907"/>
<polygon fill="midnightblue" stroke="midnightblue" points="77.1575,-29.9133 74.7515,-19.5953 70.1979,-29.1616 77.1575,-29.9133"/>
</g>
<!-- Node35&#45;&gt;Node25 -->
<g id="edge51" class="edge"><title>Node35&#45;&gt;Node25</title>
<path fill="none" stroke="midnightblue" d="M991.99,-369.479C918.643,-344.402 766.269,-292.307 697.728,-268.873"/>
<polygon fill="midnightblue" stroke="midnightblue" points="698.837,-265.554 688.243,-265.63 696.573,-272.177 698.837,-265.554"/>
</g>
<!-- Node35&#45;&gt;Node26 -->
<g id="edge54" class="edge"><title>Node35&#45;&gt;Node26</title>
<path fill="none" stroke="midnightblue" d="M1026.39,-369.483C1011,-336.817 972.751,-255.647 955.582,-219.211"/>
<polygon fill="midnightblue" stroke="midnightblue" points="958.585,-217.373 951.156,-209.819 952.252,-220.357 958.585,-217.373"/>
</g>
<!-- Node35&#45;&gt;Node27 -->
<g id="edge58" class="edge"><title>Node35&#45;&gt;Node27</title>
<path fill="none" stroke="midnightblue" d="M1031.08,-369.483C1026.64,-337.097 1015.68,-257.037 1010.62,-220.159"/>
<polygon fill="midnightblue" stroke="midnightblue" points="1014.03,-219.251 1009.21,-209.819 1007.1,-220.201 1014.03,-219.251"/>
</g>
<!-- Node35&#45;&gt;Node34 -->
<g id="edge49" class="edge"><title>Node35&#45;&gt;Node34</title>
<path fill="none" stroke="midnightblue" d="M1038.83,-399.523C1039.87,-407.586 1040.03,-417.813 1039.3,-426.526"/>
<polygon fill="midnightblue" stroke="midnightblue" points="1035.83,-426.085 1037.9,-436.475 1042.76,-427.06 1035.83,-426.085"/>
</g>
<!-- Node35&#45;&gt;Node36 -->
<g id="edge56" class="edge"><title>Node35&#45;&gt;Node36</title>
<path fill="none" stroke="midnightblue" d="M1088.22,-371.654C1151.3,-358.122 1252.4,-336.434 1303.78,-325.412"/>
<polygon fill="midnightblue" stroke="midnightblue" points="1304.62,-328.812 1313.66,-323.292 1303.15,-321.968 1304.62,-328.812"/>
</g>
</g>
</svg>
