<?xml version="1.0" encoding="UTF-8" standalone="no"?>
<!DOCTYPE svg PUBLIC "-//W3C//DTD SVG 1.1//EN"
 "http://www.w3.org/Graphics/SVG/1.1/DTD/svg11.dtd">
<!-- Generated by graphviz version 2.36.0 (20140111.2315)
 -->
<!-- Title: spdlog::sinks::ostream_sink&lt; Mutex &gt; Pages: 1 -->
<svg width="122pt" height="464pt"
 viewBox="0.00 0.00 122.00 464.00" xmlns="http://www.w3.org/2000/svg" xmlns:xlink="http://www.w3.org/1999/xlink">
<g id="graph0" class="graph" transform="scale(1 1) rotate(0) translate(4 460)">
<title>spdlog::sinks::ostream_sink&lt; Mutex &gt;</title>
<!-- Node1 -->
<g id="node1" class="node"><title>Node1</title>
<polygon fill="#bfbfbf" stroke="black" points="-1,-1 -1,-135 115,-135 115,-1 -1,-1"/>
<text text-anchor="start" x="7" y="-123" font-family="Helvetica,sans-Serif" font-size="10.00">spdlog::sinks::ostream</text>
<text text-anchor="middle" x="57" y="-112" font-family="Helvetica,sans-Serif" font-size="10.00">_sink&lt; Mutex &gt;</text>
<polyline fill="none" stroke="black" points="-1,-105 115,-105 "/>
<text text-anchor="start" x="7" y="-93" font-family="Helvetica,sans-Serif" font-size="10.00"># _ostream</text>
<text text-anchor="start" x="7" y="-82" font-family="Helvetica,sans-Serif" font-size="10.00"># _force_flush</text>
<polyline fill="none" stroke="black" points="-1,-75 115,-75 "/>
<text text-anchor="start" x="7" y="-63" font-family="Helvetica,sans-Serif" font-size="10.00">+ ostream_sink()</text>
<text text-anchor="start" x="7" y="-52" font-family="Helvetica,sans-Serif" font-size="10.00">+ ostream_sink()</text>
<text text-anchor="start" x="7" y="-41" font-family="Helvetica,sans-Serif" font-size="10.00">+ operator=()</text>
<text text-anchor="start" x="7" y="-30" font-family="Helvetica,sans-Serif" font-size="10.00">+ ~ostream_sink()</text>
<text text-anchor="start" x="7" y="-19" font-family="Helvetica,sans-Serif" font-size="10.00"># _sink_it()</text>
<text text-anchor="start" x="7" y="-8" font-family="Helvetica,sans-Serif" font-size="10.00"># flush()</text>
</g>
<!-- Node2 -->
<g id="node2" class="node"><title>Node2</title>
<g id="a_node2"><a xlink:href="classspdlog_1_1sinks_1_1base__sink.html" target="_top" xlink:title="{spdlog::sinks::base\l_sink\&lt; Mutex \&gt;\n|# _mutex\l|+ base_sink()\l+ ~base_sink()\l+ base_sink()\l+ operator=()\l+ log()\l# _sink_it()\l}">
<polygon fill="none" stroke="black" points="6.5,-172.5 6.5,-295.5 107.5,-295.5 107.5,-172.5 6.5,-172.5"/>
<text text-anchor="start" x="14.5" y="-283.5" font-family="Helvetica,sans-Serif" font-size="10.00">spdlog::sinks::base</text>
<text text-anchor="middle" x="57" y="-272.5" font-family="Helvetica,sans-Serif" font-size="10.00">_sink&lt; Mutex &gt;</text>
<polyline fill="none" stroke="black" points="6.5,-265.5 107.5,-265.5 "/>
<text text-anchor="start" x="14.5" y="-253.5" font-family="Helvetica,sans-Serif" font-size="10.00"># _mutex</text>
<polyline fill="none" stroke="black" points="6.5,-246.5 107.5,-246.5 "/>
<text text-anchor="start" x="14.5" y="-234.5" font-family="Helvetica,sans-Serif" font-size="10.00">+ base_sink()</text>
<text text-anchor="start" x="14.5" y="-223.5" font-family="Helvetica,sans-Serif" font-size="10.00">+ ~base_sink()</text>
<text text-anchor="start" x="14.5" y="-212.5" font-family="Helvetica,sans-Serif" font-size="10.00">+ base_sink()</text>
<text text-anchor="start" x="14.5" y="-201.5" font-family="Helvetica,sans-Serif" font-size="10.00">+ operator=()</text>
<text text-anchor="start" x="14.5" y="-190.5" font-family="Helvetica,sans-Serif" font-size="10.00">+ log()</text>
<text text-anchor="start" x="14.5" y="-179.5" font-family="Helvetica,sans-Serif" font-size="10.00"># _sink_it()</text>
</a>
</g>
</g>
<!-- Node2&#45;&gt;Node1 -->
<g id="edge1" class="edge"><title>Node2&#45;&gt;Node1</title>
<path fill="none" stroke="midnightblue" d="M57,-162.317C57,-153.296 57,-144.088 57,-135.143"/>
<polygon fill="none" stroke="midnightblue" points="53.5001,-162.398 57,-172.398 60.5001,-162.398 53.5001,-162.398"/>
</g>
<!-- Node3 -->
<g id="node3" class="node"><title>Node3</title>
<g id="a_node3"><a xlink:href="classspdlog_1_1sinks_1_1sink.html" target="_top" xlink:title="{spdlog::sinks::sink\n||+ sink()\l+ ~sink()\l+ log()\l+ flush()\l+ should_log()\l+ set_level()\l+ level()\l}">
<polygon fill="none" stroke="black" points="8,-332.5 8,-455.5 106,-455.5 106,-332.5 8,-332.5"/>
<text text-anchor="middle" x="57" y="-443.5" font-family="Helvetica,sans-Serif" font-size="10.00">spdlog::sinks::sink</text>
<polyline fill="none" stroke="black" points="8,-436.5 106,-436.5 "/>
<text text-anchor="middle" x="57" y="-424.5" font-family="Helvetica,sans-Serif" font-size="10.00"> </text>
<polyline fill="none" stroke="black" points="8,-417.5 106,-417.5 "/>
<text text-anchor="start" x="16" y="-405.5" font-family="Helvetica,sans-Serif" font-size="10.00">+ sink()</text>
<text text-anchor="start" x="16" y="-394.5" font-family="Helvetica,sans-Serif" font-size="10.00">+ ~sink()</text>
<text text-anchor="start" x="16" y="-383.5" font-family="Helvetica,sans-Serif" font-size="10.00">+ log()</text>
<text text-anchor="start" x="16" y="-372.5" font-family="Helvetica,sans-Serif" font-size="10.00">+ flush()</text>
<text text-anchor="start" x="16" y="-361.5" font-family="Helvetica,sans-Serif" font-size="10.00">+ should_log()</text>
<text text-anchor="start" x="16" y="-350.5" font-family="Helvetica,sans-Serif" font-size="10.00">+ set_level()</text>
<text text-anchor="start" x="16" y="-339.5" font-family="Helvetica,sans-Serif" font-size="10.00">+ level()</text>
</a>
</g>
</g>
<!-- Node3&#45;&gt;Node2 -->
<g id="edge2" class="edge"><title>Node3&#45;&gt;Node2</title>
<path fill="none" stroke="midnightblue" d="M57,-322.116C57,-313.31 57,-304.368 57,-295.734"/>
<polygon fill="none" stroke="midnightblue" points="53.5001,-322.365 57,-332.365 60.5001,-322.365 53.5001,-322.365"/>
</g>
</g>
</svg>
