<?xml version="1.0" encoding="UTF-8" standalone="no"?>
<!DOCTYPE svg PUBLIC "-//W3C//DTD SVG 1.1//EN"
 "http://www.w3.org/Graphics/SVG/1.1/DTD/svg11.dtd">
<!-- Generated by graphviz version 2.36.0 (20140111.2315)
 -->
<!-- Title: spdlog::async_logger Pages: 1 -->
<svg width="219pt" height="652pt"
 viewBox="0.00 0.00 219.00 652.00" xmlns="http://www.w3.org/2000/svg" xmlns:xlink="http://www.w3.org/1999/xlink">
<g id="graph0" class="graph" transform="scale(1 1) rotate(0) translate(4 648)">
<title>spdlog::async_logger</title>
<!-- Node1 -->
<g id="node1" class="node"><title>Node1</title>
<polygon fill="#bfbfbf" stroke="black" points="44.5,-0.5 44.5,-123.5 153.5,-123.5 153.5,-0.5 44.5,-0.5"/>
<text text-anchor="middle" x="99" y="-111.5" font-family="Helvetica,sans-Serif" font-size="10.00">spdlog::async_logger</text>
<polyline fill="none" stroke="black" points="44.5,-104.5 153.5,-104.5 "/>
<text text-anchor="middle" x="99" y="-92.5" font-family="Helvetica,sans-Serif" font-size="10.00"> </text>
<polyline fill="none" stroke="black" points="44.5,-85.5 153.5,-85.5 "/>
<text text-anchor="start" x="52.5" y="-73.5" font-family="Helvetica,sans-Serif" font-size="10.00">+ async_logger()</text>
<text text-anchor="start" x="52.5" y="-62.5" font-family="Helvetica,sans-Serif" font-size="10.00">+ async_logger()</text>
<text text-anchor="start" x="52.5" y="-51.5" font-family="Helvetica,sans-Serif" font-size="10.00">+ async_logger()</text>
<text text-anchor="start" x="52.5" y="-40.5" font-family="Helvetica,sans-Serif" font-size="10.00">+ flush()</text>
<text text-anchor="start" x="52.5" y="-29.5" font-family="Helvetica,sans-Serif" font-size="10.00"># _sink_it()</text>
<text text-anchor="start" x="52.5" y="-18.5" font-family="Helvetica,sans-Serif" font-size="10.00"># _set_formatter()</text>
<text text-anchor="start" x="52.5" y="-7.5" font-family="Helvetica,sans-Serif" font-size="10.00"># _set_pattern()</text>
</g>
<!-- Node2 -->
<g id="node2" class="node"><title>Node2</title>
<g id="a_node2"><a xlink:href="classspdlog_1_1logger.html" target="_top" xlink:title="{spdlog::logger\n|# _formatter\l# _level\l# _flush_level\l# _err_handler\l# _last_err_time\l|+ logger()\l+ logger()\l+ logger()\l+ ~logger()\l+ logger()\l+ operator=()\l+ log()\l+ log()\l+ trace()\l+ debug()\land 22 more...\l# _sink_it()\l# _set_pattern()\l# _set_formatter()\l# _default_err_handler()\l# _should_flush_on()\l}">
<polygon fill="none" stroke="black" points="39.5,-163 39.5,-429 158.5,-429 158.5,-163 39.5,-163"/>
<text text-anchor="middle" x="99" y="-417" font-family="Helvetica,sans-Serif" font-size="10.00">spdlog::logger</text>
<polyline fill="none" stroke="black" points="39.5,-410 158.5,-410 "/>
<text text-anchor="start" x="47.5" y="-398" font-family="Helvetica,sans-Serif" font-size="10.00"># _formatter</text>
<text text-anchor="start" x="47.5" y="-387" font-family="Helvetica,sans-Serif" font-size="10.00"># _level</text>
<text text-anchor="start" x="47.5" y="-376" font-family="Helvetica,sans-Serif" font-size="10.00"># _flush_level</text>
<text text-anchor="start" x="47.5" y="-365" font-family="Helvetica,sans-Serif" font-size="10.00"># _err_handler</text>
<text text-anchor="start" x="47.5" y="-354" font-family="Helvetica,sans-Serif" font-size="10.00"># _last_err_time</text>
<polyline fill="none" stroke="black" points="39.5,-347 158.5,-347 "/>
<text text-anchor="start" x="47.5" y="-335" font-family="Helvetica,sans-Serif" font-size="10.00">+ logger()</text>
<text text-anchor="start" x="47.5" y="-324" font-family="Helvetica,sans-Serif" font-size="10.00">+ logger()</text>
<text text-anchor="start" x="47.5" y="-313" font-family="Helvetica,sans-Serif" font-size="10.00">+ logger()</text>
<text text-anchor="start" x="47.5" y="-302" font-family="Helvetica,sans-Serif" font-size="10.00">+ ~logger()</text>
<text text-anchor="start" x="47.5" y="-291" font-family="Helvetica,sans-Serif" font-size="10.00">+ logger()</text>
<text text-anchor="start" x="47.5" y="-280" font-family="Helvetica,sans-Serif" font-size="10.00">+ operator=()</text>
<text text-anchor="start" x="47.5" y="-269" font-family="Helvetica,sans-Serif" font-size="10.00">+ log()</text>
<text text-anchor="start" x="47.5" y="-258" font-family="Helvetica,sans-Serif" font-size="10.00">+ log()</text>
<text text-anchor="start" x="47.5" y="-247" font-family="Helvetica,sans-Serif" font-size="10.00">+ trace()</text>
<text text-anchor="start" x="47.5" y="-236" font-family="Helvetica,sans-Serif" font-size="10.00">+ debug()</text>
<text text-anchor="start" x="47.5" y="-225" font-family="Helvetica,sans-Serif" font-size="10.00">and 22 more...</text>
<text text-anchor="start" x="47.5" y="-214" font-family="Helvetica,sans-Serif" font-size="10.00"># _sink_it()</text>
<text text-anchor="start" x="47.5" y="-203" font-family="Helvetica,sans-Serif" font-size="10.00"># _set_pattern()</text>
<text text-anchor="start" x="47.5" y="-192" font-family="Helvetica,sans-Serif" font-size="10.00"># _set_formatter()</text>
<text text-anchor="start" x="47.5" y="-181" font-family="Helvetica,sans-Serif" font-size="10.00"># _default_err_handler()</text>
<text text-anchor="start" x="47.5" y="-170" font-family="Helvetica,sans-Serif" font-size="10.00"># _should_flush_on()</text>
</a>
</g>
</g>
<!-- Node2&#45;&gt;Node1 -->
<g id="edge1" class="edge"><title>Node2&#45;&gt;Node1</title>
<path fill="none" stroke="midnightblue" d="M99,-152.578C99,-142.502 99,-132.707 99,-123.52"/>
<polygon fill="none" stroke="midnightblue" points="95.5001,-152.735 99,-162.735 102.5,-152.735 95.5001,-152.735"/>
</g>
<!-- Node3 -->
<g id="node3" class="node"><title>Node3</title>
<polygon fill="none" stroke="#bfbfbf" points="0,-478.5 0,-535.5 116,-535.5 116,-478.5 0,-478.5"/>
<text text-anchor="middle" x="58" y="-523.5" font-family="Helvetica,sans-Serif" font-size="10.00">std::vector&lt; sink_ptr &gt;</text>
<polyline fill="none" stroke="#bfbfbf" points="0,-516.5 116,-516.5 "/>
<text text-anchor="start" x="8" y="-504.5" font-family="Helvetica,sans-Serif" font-size="10.00">+ elements</text>
<polyline fill="none" stroke="#bfbfbf" points="0,-497.5 116,-497.5 "/>
<text text-anchor="middle" x="58" y="-485.5" font-family="Helvetica,sans-Serif" font-size="10.00"> </text>
</g>
<!-- Node3&#45;&gt;Node2 -->
<g id="edge2" class="edge"><title>Node3&#45;&gt;Node2</title>
<path fill="none" stroke="#404040" d="M63.4445,-478.246C65.5036,-467.75 68.0145,-454.951 70.74,-441.057"/>
<polygon fill="none" stroke="#404040" points="70.7646,-440.931 67.9945,-434.273 73.0747,-429.156 75.8449,-435.813 70.7646,-440.931"/>
<text text-anchor="middle" x="87.5" y="-451.5" font-family="Helvetica,sans-Serif" font-size="10.00"> #_sinks</text>
</g>
<!-- Node4 -->
<g id="node4" class="node"><title>Node4</title>
<g id="a_node4"><a xlink:title="STL class. ">
<polygon fill="none" stroke="#bfbfbf" points="134,-478.5 134,-535.5 194,-535.5 194,-478.5 134,-478.5"/>
<text text-anchor="middle" x="164" y="-523.5" font-family="Helvetica,sans-Serif" font-size="10.00">std::string</text>
<polyline fill="none" stroke="#bfbfbf" points="134,-516.5 194,-516.5 "/>
<text text-anchor="middle" x="164" y="-504.5" font-family="Helvetica,sans-Serif" font-size="10.00"> </text>
<polyline fill="none" stroke="#bfbfbf" points="134,-497.5 194,-497.5 "/>
<text text-anchor="middle" x="164" y="-485.5" font-family="Helvetica,sans-Serif" font-size="10.00"> </text>
</a>
</g>
</g>
<!-- Node4&#45;&gt;Node2 -->
<g id="edge3" class="edge"><title>Node4&#45;&gt;Node2</title>
<path fill="none" stroke="#404040" d="M155.369,-478.246C152.071,-467.645 148.044,-454.694 143.673,-440.64"/>
<polygon fill="none" stroke="#404040" points="143.665,-440.614 138.063,-436.073 140.101,-429.156 145.702,-433.697 143.665,-440.614"/>
<text text-anchor="middle" x="167" y="-451.5" font-family="Helvetica,sans-Serif" font-size="10.00"> #_name</text>
</g>
<!-- Node5 -->
<g id="node5" class="node"><title>Node5</title>
<g id="a_node5"><a xlink:title="STL class. ">
<polygon fill="none" stroke="#bfbfbf" points="116.5,-575 116.5,-643 211.5,-643 211.5,-575 116.5,-575"/>
<text text-anchor="start" x="124.5" y="-631" font-family="Helvetica,sans-Serif" font-size="10.00">std::basic_string&lt;</text>
<text text-anchor="middle" x="164" y="-620" font-family="Helvetica,sans-Serif" font-size="10.00"> char &gt;</text>
<polyline fill="none" stroke="#bfbfbf" points="116.5,-613 211.5,-613 "/>
<text text-anchor="middle" x="164" y="-601" font-family="Helvetica,sans-Serif" font-size="10.00"> </text>
<polyline fill="none" stroke="#bfbfbf" points="116.5,-594 211.5,-594 "/>
<text text-anchor="middle" x="164" y="-582" font-family="Helvetica,sans-Serif" font-size="10.00"> </text>
</a>
</g>
</g>
<!-- Node5&#45;&gt;Node4 -->
<g id="edge4" class="edge"><title>Node5&#45;&gt;Node4</title>
<path fill="none" stroke="midnightblue" d="M164,-564.857C164,-554.952 164,-544.682 164,-535.64"/>
<polygon fill="none" stroke="midnightblue" points="160.5,-564.979 164,-574.979 167.5,-564.979 160.5,-564.979"/>
</g>
</g>
</svg>
