<?xml version="1.0" encoding="UTF-8" standalone="no"?>
<!DOCTYPE svg PUBLIC "-//W3C//DTD SVG 1.1//EN"
 "http://www.w3.org/Graphics/SVG/1.1/DTD/svg11.dtd">
<!-- Generated by graphviz version 2.36.0 (20140111.2315)
 -->
<!-- Title: spdlog::sinks::dist_sink&lt; Mutex &gt; Pages: 1 -->
<svg width="108pt" height="474pt"
 viewBox="0.00 0.00 108.00 474.00" xmlns="http://www.w3.org/2000/svg" xmlns:xlink="http://www.w3.org/1999/xlink">
<g id="graph0" class="graph" transform="scale(1 1) rotate(0) translate(4 470)">
<title>spdlog::sinks::dist_sink&lt; Mutex &gt;</title>
<!-- Node1 -->
<g id="node1" class="node"><title>Node1</title>
<polygon fill="#bfbfbf" stroke="black" points="2,-0.5 2,-145.5 98,-145.5 98,-0.5 2,-0.5"/>
<text text-anchor="start" x="10" y="-133.5" font-family="Helvetica,sans-Serif" font-size="10.00">spdlog::sinks::dist</text>
<text text-anchor="middle" x="50" y="-122.5" font-family="Helvetica,sans-Serif" font-size="10.00">_sink&lt; Mutex &gt;</text>
<polyline fill="none" stroke="black" points="2,-115.5 98,-115.5 "/>
<text text-anchor="start" x="10" y="-103.5" font-family="Helvetica,sans-Serif" font-size="10.00"># _sinks</text>
<polyline fill="none" stroke="black" points="2,-96.5 98,-96.5 "/>
<text text-anchor="start" x="10" y="-84.5" font-family="Helvetica,sans-Serif" font-size="10.00">+ dist_sink()</text>
<text text-anchor="start" x="10" y="-73.5" font-family="Helvetica,sans-Serif" font-size="10.00">+ dist_sink()</text>
<text text-anchor="start" x="10" y="-62.5" font-family="Helvetica,sans-Serif" font-size="10.00">+ operator=()</text>
<text text-anchor="start" x="10" y="-51.5" font-family="Helvetica,sans-Serif" font-size="10.00">+ ~dist_sink()</text>
<text text-anchor="start" x="10" y="-40.5" font-family="Helvetica,sans-Serif" font-size="10.00">+ flush()</text>
<text text-anchor="start" x="10" y="-29.5" font-family="Helvetica,sans-Serif" font-size="10.00">+ add_sink()</text>
<text text-anchor="start" x="10" y="-18.5" font-family="Helvetica,sans-Serif" font-size="10.00">+ remove_sink()</text>
<text text-anchor="start" x="10" y="-7.5" font-family="Helvetica,sans-Serif" font-size="10.00"># _sink_it()</text>
</g>
<!-- Node2 -->
<g id="node2" class="node"><title>Node2</title>
<g id="a_node2"><a xlink:href="classspdlog_1_1sinks_1_1base__sink.html" target="_top" xlink:title="{spdlog::sinks::base\l_sink\&lt; Mutex \&gt;\n|# _mutex\l|+ base_sink()\l+ ~base_sink()\l+ base_sink()\l+ operator=()\l+ log()\l# _sink_it()\l}">
<polygon fill="none" stroke="black" points="-0.5,-182.5 -0.5,-305.5 100.5,-305.5 100.5,-182.5 -0.5,-182.5"/>
<text text-anchor="start" x="7.5" y="-293.5" font-family="Helvetica,sans-Serif" font-size="10.00">spdlog::sinks::base</text>
<text text-anchor="middle" x="50" y="-282.5" font-family="Helvetica,sans-Serif" font-size="10.00">_sink&lt; Mutex &gt;</text>
<polyline fill="none" stroke="black" points="-0.5,-275.5 100.5,-275.5 "/>
<text text-anchor="start" x="7.5" y="-263.5" font-family="Helvetica,sans-Serif" font-size="10.00"># _mutex</text>
<polyline fill="none" stroke="black" points="-0.5,-256.5 100.5,-256.5 "/>
<text text-anchor="start" x="7.5" y="-244.5" font-family="Helvetica,sans-Serif" font-size="10.00">+ base_sink()</text>
<text text-anchor="start" x="7.5" y="-233.5" font-family="Helvetica,sans-Serif" font-size="10.00">+ ~base_sink()</text>
<text text-anchor="start" x="7.5" y="-222.5" font-family="Helvetica,sans-Serif" font-size="10.00">+ base_sink()</text>
<text text-anchor="start" x="7.5" y="-211.5" font-family="Helvetica,sans-Serif" font-size="10.00">+ operator=()</text>
<text text-anchor="start" x="7.5" y="-200.5" font-family="Helvetica,sans-Serif" font-size="10.00">+ log()</text>
<text text-anchor="start" x="7.5" y="-189.5" font-family="Helvetica,sans-Serif" font-size="10.00"># _sink_it()</text>
</a>
</g>
</g>
<!-- Node2&#45;&gt;Node1 -->
<g id="edge1" class="edge"><title>Node2&#45;&gt;Node1</title>
<path fill="none" stroke="midnightblue" d="M50,-172.254C50,-163.456 50,-154.454 50,-145.643"/>
<polygon fill="none" stroke="midnightblue" points="46.5001,-172.464 50,-182.464 53.5001,-172.465 46.5001,-172.464"/>
</g>
<!-- Node3 -->
<g id="node3" class="node"><title>Node3</title>
<g id="a_node3"><a xlink:href="classspdlog_1_1sinks_1_1sink.html" target="_top" xlink:title="{spdlog::sinks::sink\n||+ sink()\l+ ~sink()\l+ log()\l+ flush()\l+ should_log()\l+ set_level()\l+ level()\l}">
<polygon fill="none" stroke="black" points="1,-342.5 1,-465.5 99,-465.5 99,-342.5 1,-342.5"/>
<text text-anchor="middle" x="50" y="-453.5" font-family="Helvetica,sans-Serif" font-size="10.00">spdlog::sinks::sink</text>
<polyline fill="none" stroke="black" points="1,-446.5 99,-446.5 "/>
<text text-anchor="middle" x="50" y="-434.5" font-family="Helvetica,sans-Serif" font-size="10.00"> </text>
<polyline fill="none" stroke="black" points="1,-427.5 99,-427.5 "/>
<text text-anchor="start" x="9" y="-415.5" font-family="Helvetica,sans-Serif" font-size="10.00">+ sink()</text>
<text text-anchor="start" x="9" y="-404.5" font-family="Helvetica,sans-Serif" font-size="10.00">+ ~sink()</text>
<text text-anchor="start" x="9" y="-393.5" font-family="Helvetica,sans-Serif" font-size="10.00">+ log()</text>
<text text-anchor="start" x="9" y="-382.5" font-family="Helvetica,sans-Serif" font-size="10.00">+ flush()</text>
<text text-anchor="start" x="9" y="-371.5" font-family="Helvetica,sans-Serif" font-size="10.00">+ should_log()</text>
<text text-anchor="start" x="9" y="-360.5" font-family="Helvetica,sans-Serif" font-size="10.00">+ set_level()</text>
<text text-anchor="start" x="9" y="-349.5" font-family="Helvetica,sans-Serif" font-size="10.00">+ level()</text>
</a>
</g>
</g>
<!-- Node3&#45;&gt;Node2 -->
<g id="edge2" class="edge"><title>Node3&#45;&gt;Node2</title>
<path fill="none" stroke="midnightblue" d="M50,-332.116C50,-323.31 50,-314.368 50,-305.734"/>
<polygon fill="none" stroke="midnightblue" points="46.5001,-332.365 50,-342.365 53.5001,-332.365 46.5001,-332.365"/>
</g>
</g>
</svg>
