<?xml version="1.0" encoding="UTF-8" standalone="no"?>
<!DOCTYPE svg PUBLIC "-//W3C//DTD SVG 1.1//EN"
 "http://www.w3.org/Graphics/SVG/1.1/DTD/svg11.dtd">
<!-- Generated by graphviz version 2.38.0 (20140413.2041)
 -->
<!-- Title: XBot::KinematicChain Pages: 1 -->
<svg width="236pt" height="380pt"
 viewBox="0.00 0.00 235.50 380.00" xmlns="http://www.w3.org/2000/svg" xmlns:xlink="http://www.w3.org/1999/xlink">
<g id="graph0" class="graph" transform="scale(1 1) rotate(0) translate(4 376)">
<title>XBot::KinematicChain</title>
<!-- Node1 -->
<g id="node1" class="node"><title>Node1</title>
<polygon fill="#bfbfbf" stroke="black" points="43.5,-105.5 43.5,-371.5 174.5,-371.5 174.5,-105.5 43.5,-105.5"/>
<text text-anchor="middle" x="109" y="-359.5" font-family="Helvetica,sans-Serif" font-size="10.00">XBot::KinematicChain</text>
<polyline fill="none" stroke="black" points="43.5,-352.5 174.5,-352.5 "/>
<text text-anchor="start" x="51.5" y="-340.5" font-family="Helvetica,sans-Serif" font-size="10.00"># _joint_name_map</text>
<text text-anchor="start" x="51.5" y="-329.5" font-family="Helvetica,sans-Serif" font-size="10.00"># _joint_id_map</text>
<text text-anchor="start" x="51.5" y="-318.5" font-family="Helvetica,sans-Serif" font-size="10.00"># _joint_vector</text>
<text text-anchor="start" x="51.5" y="-307.5" font-family="Helvetica,sans-Serif" font-size="10.00"># _ft_vector</text>
<text text-anchor="start" x="51.5" y="-296.5" font-family="Helvetica,sans-Serif" font-size="10.00"># _ft_map</text>
<text text-anchor="start" x="51.5" y="-285.5" font-family="Helvetica,sans-Serif" font-size="10.00"># _imu_vector</text>
<text text-anchor="start" x="51.5" y="-274.5" font-family="Helvetica,sans-Serif" font-size="10.00"># _imu_map</text>
<polyline fill="none" stroke="black" points="43.5,-267.5 174.5,-267.5 "/>
<text text-anchor="start" x="51.5" y="-255.5" font-family="Helvetica,sans-Serif" font-size="10.00">+ KinematicChain()</text>
<text text-anchor="start" x="51.5" y="-244.5" font-family="Helvetica,sans-Serif" font-size="10.00">+ KinematicChain()</text>
<text text-anchor="start" x="51.5" y="-233.5" font-family="Helvetica,sans-Serif" font-size="10.00">+ KinematicChain()</text>
<text text-anchor="start" x="51.5" y="-222.5" font-family="Helvetica,sans-Serif" font-size="10.00">+ KinematicChain()</text>
<text text-anchor="start" x="51.5" y="-211.5" font-family="Helvetica,sans-Serif" font-size="10.00">+ operator=()</text>
<text text-anchor="start" x="51.5" y="-200.5" font-family="Helvetica,sans-Serif" font-size="10.00">+ getChainState()</text>
<text text-anchor="start" x="51.5" y="-189.5" font-family="Helvetica,sans-Serif" font-size="10.00">+ getChainState()</text>
<text text-anchor="start" x="51.5" y="-178.5" font-family="Helvetica,sans-Serif" font-size="10.00">+ getChainState()</text>
<text text-anchor="start" x="51.5" y="-167.5" font-family="Helvetica,sans-Serif" font-size="10.00">+ getForceTorque()</text>
<text text-anchor="start" x="51.5" y="-156.5" font-family="Helvetica,sans-Serif" font-size="10.00">+ getImu()</text>
<text text-anchor="start" x="51.5" y="-145.5" font-family="Helvetica,sans-Serif" font-size="10.00">and 141 more...</text>
<text text-anchor="start" x="51.5" y="-134.5" font-family="Helvetica,sans-Serif" font-size="10.00"># getJointInternal()</text>
<text text-anchor="start" x="51.5" y="-123.5" font-family="Helvetica,sans-Serif" font-size="10.00"># getForceTorqueInternal()</text>
<text text-anchor="start" x="51.5" y="-112.5" font-family="Helvetica,sans-Serif" font-size="10.00"># getImuInternal()</text>
</g>
<!-- Node2 -->
<g id="node2" class="node"><title>Node2</title>
<g id="a_node2"><a xlink:href="classXBot_1_1ModelChain.html" target="_top" xlink:title="Kinematic chain useful for a model abstraction. ">
<polygon fill="none" stroke="black" points="0,-6 0,-63 96,-63 96,-6 0,-6"/>
<text text-anchor="middle" x="48" y="-51" font-family="Helvetica,sans-Serif" font-size="10.00">XBot::ModelChain</text>
<polyline fill="none" stroke="black" points="0,-44 96,-44 "/>
<text text-anchor="middle" x="48" y="-32" font-family="Helvetica,sans-Serif" font-size="10.00"> </text>
<polyline fill="none" stroke="black" points="0,-25 96,-25 "/>
<text text-anchor="middle" x="48" y="-13" font-family="Helvetica,sans-Serif" font-size="10.00"> </text>
</a>
</g>
</g>
<!-- Node1&#45;&gt;Node2 -->
<g id="edge1" class="edge"><title>Node1&#45;&gt;Node2</title>
<path fill="none" stroke="midnightblue" d="M66.1061,-95.4578C62.4696,-83.4157 59.1164,-72.3115 56.3096,-63.017"/>
<polygon fill="none" stroke="midnightblue" points="62.8367,-96.7386 69.0782,-105.3 69.5378,-94.7149 62.8367,-96.7386"/>
</g>
<!-- Node3 -->
<g id="node3" class="node"><title>Node3</title>
<g id="a_node3"><a xlink:href="classXBot_1_1RobotChain.html" target="_top" xlink:title="Kinematic chain useful for a robot abstraction. ">
<polygon fill="none" stroke="black" points="114.5,-0.5 114.5,-68.5 227.5,-68.5 227.5,-0.5 114.5,-0.5"/>
<text text-anchor="middle" x="171" y="-56.5" font-family="Helvetica,sans-Serif" font-size="10.00">XBot::RobotChain</text>
<polyline fill="none" stroke="black" points="114.5,-49.5 227.5,-49.5 "/>
<text text-anchor="middle" x="171" y="-37.5" font-family="Helvetica,sans-Serif" font-size="10.00"> </text>
<polyline fill="none" stroke="black" points="114.5,-30.5 227.5,-30.5 "/>
<text text-anchor="start" x="122.5" y="-18.5" font-family="Helvetica,sans-Serif" font-size="10.00">+ RobotChain()</text>
<text text-anchor="start" x="122.5" y="-7.5" font-family="Helvetica,sans-Serif" font-size="10.00">+ setReferenceFrom()</text>
</a>
</g>
</g>
<!-- Node1&#45;&gt;Node3 -->
<g id="edge2" class="edge"><title>Node1&#45;&gt;Node3</title>
<path fill="none" stroke="midnightblue" d="M152.522,-95.7009C155.54,-85.8711 158.366,-76.6611 160.858,-68.5436"/>
<polygon fill="none" stroke="midnightblue" points="149.165,-94.713 149.576,-105.3 155.857,-96.767 149.165,-94.713"/>
</g>
</g>
</svg>
