<?xml version="1.0" encoding="UTF-8" standalone="no"?>
<!DOCTYPE svg PUBLIC "-//W3C//DTD SVG 1.1//EN"
 "http://www.w3.org/Graphics/SVG/1.1/DTD/svg11.dtd">
<!-- Generated by graphviz version 2.38.0 (20140413.2041)
 -->
<!-- Title: XBot::Logger Pages: 1 -->
<svg width="226pt" height="193pt"
 viewBox="0.00 0.00 225.50 193.00" xmlns="http://www.w3.org/2000/svg" xmlns:xlink="http://www.w3.org/1999/xlink">
<g id="graph0" class="graph" transform="scale(1 1) rotate(0) translate(4 189)">
<title>XBot::Logger</title>
<!-- Node1 -->
<g id="node1" class="node"><title>Node1</title>
<polygon fill="#bfbfbf" stroke="black" points="77,-94.5 77,-184.5 151,-184.5 151,-94.5 77,-94.5"/>
<text text-anchor="middle" x="114" y="-172.5" font-family="Helvetica,sans-Serif" font-size="10.00">XBot::Logger</text>
<polyline fill="none" stroke="black" points="77,-165.5 151,-165.5 "/>
<text text-anchor="start" x="85" y="-153.5" font-family="Helvetica,sans-Serif" font-size="10.00"># _ss_logger</text>
<polyline fill="none" stroke="black" points="77,-146.5 151,-146.5 "/>
<text text-anchor="start" x="85" y="-134.5" font-family="Helvetica,sans-Serif" font-size="10.00">+ info()</text>
<text text-anchor="start" x="85" y="-123.5" font-family="Helvetica,sans-Serif" font-size="10.00">+ warning()</text>
<text text-anchor="start" x="85" y="-112.5" font-family="Helvetica,sans-Serif" font-size="10.00">+ error()</text>
<text text-anchor="start" x="85" y="-101.5" font-family="Helvetica,sans-Serif" font-size="10.00">+ endl()</text>
</g>
<!-- Node2 -->
<g id="node2" class="node"><title>Node2</title>
<g id="a_node2"><a xlink:href="classXBot_1_1ConsoleLogger.html" target="_top" xlink:title="{XBot::ConsoleLogger\n||+ getLogger()\l}">
<polygon fill="none" stroke="black" points="0,-0.5 0,-57.5 110,-57.5 110,-0.5 0,-0.5"/>
<text text-anchor="middle" x="55" y="-45.5" font-family="Helvetica,sans-Serif" font-size="10.00">XBot::ConsoleLogger</text>
<polyline fill="none" stroke="black" points="0,-38.5 110,-38.5 "/>
<text text-anchor="middle" x="55" y="-26.5" font-family="Helvetica,sans-Serif" font-size="10.00"> </text>
<polyline fill="none" stroke="black" points="0,-19.5 110,-19.5 "/>
<text text-anchor="start" x="8" y="-7.5" font-family="Helvetica,sans-Serif" font-size="10.00">+ getLogger()</text>
</a>
</g>
</g>
<!-- Node1&#45;&gt;Node2 -->
<g id="edge1" class="edge"><title>Node1&#45;&gt;Node2</title>
<path fill="none" stroke="midnightblue" d="M85.2001,-85.5375C79.9409,-75.866 74.6521,-66.1399 70.0026,-57.5896"/>
<polygon fill="none" stroke="midnightblue" points="82.1504,-87.2558 90.0024,-94.3689 88.3,-83.9117 82.1504,-87.2558"/>
</g>
<!-- Node3 -->
<g id="node3" class="node"><title>Node3</title>
<g id="a_node3"><a xlink:href="classXBot_1_1FileLogger.html" target="_top" xlink:title="{XBot::FileLogger\n||+ getLogger()\l}">
<polygon fill="none" stroke="black" points="128.5,-0.5 128.5,-57.5 217.5,-57.5 217.5,-0.5 128.5,-0.5"/>
<text text-anchor="middle" x="173" y="-45.5" font-family="Helvetica,sans-Serif" font-size="10.00">XBot::FileLogger</text>
<polyline fill="none" stroke="black" points="128.5,-38.5 217.5,-38.5 "/>
<text text-anchor="middle" x="173" y="-26.5" font-family="Helvetica,sans-Serif" font-size="10.00"> </text>
<polyline fill="none" stroke="black" points="128.5,-19.5 217.5,-19.5 "/>
<text text-anchor="start" x="136.5" y="-7.5" font-family="Helvetica,sans-Serif" font-size="10.00">+ getLogger()</text>
</a>
</g>
</g>
<!-- Node1&#45;&gt;Node3 -->
<g id="edge2" class="edge"><title>Node1&#45;&gt;Node3</title>
<path fill="none" stroke="midnightblue" d="M142.8,-85.5375C148.059,-75.866 153.348,-66.1399 157.997,-57.5896"/>
<polygon fill="none" stroke="midnightblue" points="139.7,-83.9117 137.998,-94.3689 145.85,-87.2558 139.7,-83.9117"/>
</g>
</g>
</svg>
