<?xml version="1.0" encoding="UTF-8" standalone="no"?>
<!DOCTYPE svg PUBLIC "-//W3C//DTD SVG 1.1//EN"
 "http://www.w3.org/Graphics/SVG/1.1/DTD/svg11.dtd">
<!-- Generated by graphviz version 2.36.0 (20140111.2315)
 -->
<!-- Title: std::numeric_limits&lt; fmt::internal::DummyInt &gt; Pages: 1 -->
<svg width="146pt" height="206pt"
 viewBox="0.00 0.00 146.00 206.00" xmlns="http://www.w3.org/2000/svg" xmlns:xlink="http://www.w3.org/1999/xlink">
<g id="graph0" class="graph" transform="scale(1 1) rotate(0) translate(4 202)">
<title>std::numeric_limits&lt; fmt::internal::DummyInt &gt;</title>
<!-- Node1 -->
<g id="node1" class="node"><title>Node1</title>
<polygon fill="#bfbfbf" stroke="black" points="0,-1 0,-91 138,-91 138,-1 0,-1"/>
<text text-anchor="start" x="8" y="-79" font-family="Helvetica,sans-Serif" font-size="10.00">std::numeric_limits</text>
<text text-anchor="middle" x="69" y="-68" font-family="Helvetica,sans-Serif" font-size="10.00">&lt; fmt::internal::DummyInt &gt;</text>
<polyline fill="none" stroke="black" points="0,-61 138,-61 "/>
<text text-anchor="middle" x="69" y="-49" font-family="Helvetica,sans-Serif" font-size="10.00"> </text>
<polyline fill="none" stroke="black" points="0,-42 138,-42 "/>
<text text-anchor="start" x="8" y="-30" font-family="Helvetica,sans-Serif" font-size="10.00">+ isinfinity()</text>
<text text-anchor="start" x="8" y="-19" font-family="Helvetica,sans-Serif" font-size="10.00">+ isnotanumber()</text>
<text text-anchor="start" x="8" y="-8" font-family="Helvetica,sans-Serif" font-size="10.00">+ isnegative()</text>
</g>
<!-- Node2 -->
<g id="node2" class="node"><title>Node2</title>
<polygon fill="none" stroke="#bfbfbf" points="19.5,-129 19.5,-197 118.5,-197 118.5,-129 19.5,-129"/>
<text text-anchor="start" x="27.5" y="-185" font-family="Helvetica,sans-Serif" font-size="10.00">std::numeric_limits</text>
<text text-anchor="middle" x="69" y="-174" font-family="Helvetica,sans-Serif" font-size="10.00">&lt; int &gt;</text>
<polyline fill="none" stroke="#bfbfbf" points="19.5,-167 118.5,-167 "/>
<text text-anchor="middle" x="69" y="-155" font-family="Helvetica,sans-Serif" font-size="10.00"> </text>
<polyline fill="none" stroke="#bfbfbf" points="19.5,-148 118.5,-148 "/>
<text text-anchor="middle" x="69" y="-136" font-family="Helvetica,sans-Serif" font-size="10.00"> </text>
</g>
<!-- Node2&#45;&gt;Node1 -->
<g id="edge1" class="edge"><title>Node2&#45;&gt;Node1</title>
<path fill="none" stroke="midnightblue" d="M69,-118.555C69,-109.646 69,-100.257 69,-91.3181"/>
<polygon fill="none" stroke="midnightblue" points="65.5001,-118.737 69,-128.737 72.5001,-118.737 65.5001,-118.737"/>
</g>
</g>
</svg>
