<?xml version="1.0" encoding="UTF-8" standalone="no"?>
<!DOCTYPE svg PUBLIC "-//W3C//DTD SVG 1.1//EN"
 "http://www.w3.org/Graphics/SVG/1.1/DTD/svg11.dtd">
<!-- Generated by graphviz version 2.36.0 (20140111.2315)
 -->
<!-- Title: XBot::XBotInterface Pages: 1 -->
<svg width="1445pt" height="628pt"
 viewBox="0.00 0.00 1445.00 628.00" xmlns="http://www.w3.org/2000/svg" xmlns:xlink="http://www.w3.org/1999/xlink">
<g id="graph0" class="graph" transform="scale(1 1) rotate(0) translate(4 624)">
<title>XBot::XBotInterface</title>
<!-- Node1 -->
<g id="node1" class="node"><title>Node1</title>
<polygon fill="#bfbfbf" stroke="black" points="684.5,-0.5 684.5,-255.5 841.5,-255.5 841.5,-0.5 684.5,-0.5"/>
<text text-anchor="middle" x="763" y="-243.5" font-family="Helvetica,sans-Serif" font-size="10.00">XBot::XBotInterface</text>
<polyline fill="none" stroke="black" points="684.5,-236.5 841.5,-236.5 "/>
<text text-anchor="start" x="692.5" y="-224.5" font-family="Helvetica,sans-Serif" font-size="10.00"># _XBotModel</text>
<polyline fill="none" stroke="black" points="684.5,-217.5 841.5,-217.5 "/>
<text text-anchor="start" x="692.5" y="-205.5" font-family="Helvetica,sans-Serif" font-size="10.00">+ XBotInterface()</text>
<text text-anchor="start" x="692.5" y="-194.5" font-family="Helvetica,sans-Serif" font-size="10.00">+ XBotInterface()</text>
<text text-anchor="start" x="692.5" y="-183.5" font-family="Helvetica,sans-Serif" font-size="10.00">+ operator=()</text>
<text text-anchor="start" x="692.5" y="-172.5" font-family="Helvetica,sans-Serif" font-size="10.00">+ ~XBotInterface()</text>
<text text-anchor="start" x="692.5" y="-161.5" font-family="Helvetica,sans-Serif" font-size="10.00">+ init()</text>
<text text-anchor="start" x="692.5" y="-150.5" font-family="Helvetica,sans-Serif" font-size="10.00">+ getPathToConfig()</text>
<text text-anchor="start" x="692.5" y="-139.5" font-family="Helvetica,sans-Serif" font-size="10.00">+ getUrdf()</text>
<text text-anchor="start" x="692.5" y="-128.5" font-family="Helvetica,sans-Serif" font-size="10.00">+ getUrdfPath()</text>
<text text-anchor="start" x="692.5" y="-117.5" font-family="Helvetica,sans-Serif" font-size="10.00">+ getSrdf()</text>
<text text-anchor="start" x="692.5" y="-106.5" font-family="Helvetica,sans-Serif" font-size="10.00">+ getSrdfPath()</text>
<text text-anchor="start" x="692.5" y="-95.5" font-family="Helvetica,sans-Serif" font-size="10.00">and 124 more...</text>
<text text-anchor="start" x="692.5" y="-84.5" font-family="Helvetica,sans-Serif" font-size="10.00"># getJointByNameInternal()</text>
<text text-anchor="start" x="692.5" y="-73.5" font-family="Helvetica,sans-Serif" font-size="10.00"># getJointByIdInternal()</text>
<text text-anchor="start" x="692.5" y="-62.5" font-family="Helvetica,sans-Serif" font-size="10.00"># getJointByDofIndexInternal()</text>
<text text-anchor="start" x="692.5" y="-51.5" font-family="Helvetica,sans-Serif" font-size="10.00"># getForceTorqueInternal()</text>
<text text-anchor="start" x="692.5" y="-40.5" font-family="Helvetica,sans-Serif" font-size="10.00"># getImuInternal()</text>
<text text-anchor="start" x="692.5" y="-29.5" font-family="Helvetica,sans-Serif" font-size="10.00"># init_internal()</text>
<text text-anchor="start" x="692.5" y="-18.5" font-family="Helvetica,sans-Serif" font-size="10.00"># getModelOrderedChainName()</text>
<text text-anchor="start" x="692.5" y="-7.5" font-family="Helvetica,sans-Serif" font-size="10.00"># computeAbsolutePath()</text>
</g>
<!-- Node2 -->
<g id="node2" class="node"><title>Node2</title>
<polygon fill="none" stroke="#bfbfbf" points="-0.5,-320.5 -0.5,-399.5 132.5,-399.5 132.5,-320.5 -0.5,-320.5"/>
<text text-anchor="start" x="7.5" y="-387.5" font-family="Helvetica,sans-Serif" font-size="10.00">std::map&lt; std::string,</text>
<text text-anchor="start" x="7.5" y="-376.5" font-family="Helvetica,sans-Serif" font-size="10.00"> XBot::ForceTorqueSensor</text>
<text text-anchor="middle" x="66" y="-365.5" font-family="Helvetica,sans-Serif" font-size="10.00">::Ptr &gt;</text>
<polyline fill="none" stroke="#bfbfbf" points="-0.5,-358.5 132.5,-358.5 "/>
<text text-anchor="start" x="7.5" y="-346.5" font-family="Helvetica,sans-Serif" font-size="10.00">+ elements</text>
<polyline fill="none" stroke="#bfbfbf" points="-0.5,-339.5 132.5,-339.5 "/>
<text text-anchor="middle" x="66" y="-327.5" font-family="Helvetica,sans-Serif" font-size="10.00"> </text>
</g>
<!-- Node2&#45;&gt;Node1 -->
<g id="edge1" class="edge"><title>Node2&#45;&gt;Node1</title>
<path fill="none" stroke="#404040" d="M129.44,-320.412C133.652,-318.169 137.863,-316.011 142,-314 186.166,-292.529 198.41,-289.526 245,-274 393.012,-224.674 568.442,-177.976 672.472,-151.483"/>
<polygon fill="none" stroke="#404040" points="672.545,-151.464 677.376,-146.11 684.176,-148.511 679.345,-153.864 672.545,-151.464"/>
<text text-anchor="middle" x="267" y="-282.5" font-family="Helvetica,sans-Serif" font-size="10.00"> #_ft_map</text>
</g>
<!-- Node3 -->
<g id="node3" class="node"><title>Node3</title>
<g id="a_node3"><a xlink:title="STL class. ">
<polygon fill="none" stroke="#bfbfbf" points="377,-454.5 377,-511.5 437,-511.5 437,-454.5 377,-454.5"/>
<text text-anchor="middle" x="407" y="-499.5" font-family="Helvetica,sans-Serif" font-size="10.00">std::string</text>
<polyline fill="none" stroke="#bfbfbf" points="377,-492.5 437,-492.5 "/>
<text text-anchor="middle" x="407" y="-480.5" font-family="Helvetica,sans-Serif" font-size="10.00"> </text>
<polyline fill="none" stroke="#bfbfbf" points="377,-473.5 437,-473.5 "/>
<text text-anchor="middle" x="407" y="-461.5" font-family="Helvetica,sans-Serif" font-size="10.00"> </text>
</a>
</g>
</g>
<!-- Node3&#45;&gt;Node2 -->
<g id="edge2" class="edge"><title>Node3&#45;&gt;Node2</title>
<path fill="none" stroke="#404040" d="M376.732,-475.964C326.6,-465.389 223.752,-441.236 142,-406 141.155,-405.636 140.308,-405.264 139.459,-404.885"/>
<polygon fill="none" stroke="#404040" points="139.217,-404.769 132.079,-405.798 128.384,-399.606 135.522,-398.577 139.217,-404.769"/>
<text text-anchor="middle" x="236.5" y="-427.5" font-family="Helvetica,sans-Serif" font-size="10.00"> +keys</text>
</g>
<!-- Node5 -->
<g id="node5" class="node"><title>Node5</title>
<polygon fill="none" stroke="#bfbfbf" points="151,-326 151,-394 261,-394 261,-326 151,-326"/>
<text text-anchor="start" x="159" y="-382" font-family="Helvetica,sans-Serif" font-size="10.00">std::map&lt; std::string,</text>
<text text-anchor="middle" x="206" y="-371" font-family="Helvetica,sans-Serif" font-size="10.00"> int &gt;</text>
<polyline fill="none" stroke="#bfbfbf" points="151,-364 261,-364 "/>
<text text-anchor="start" x="159" y="-352" font-family="Helvetica,sans-Serif" font-size="10.00">+ elements</text>
<polyline fill="none" stroke="#bfbfbf" points="151,-345 261,-345 "/>
<text text-anchor="middle" x="206" y="-333" font-family="Helvetica,sans-Serif" font-size="10.00"> </text>
</g>
<!-- Node3&#45;&gt;Node5 -->
<g id="edge5" class="edge"><title>Node3&#45;&gt;Node5</title>
<path fill="none" stroke="#404040" d="M376.807,-466.439C348.69,-451.671 305.843,-428.454 270,-406 267.288,-404.301 264.533,-402.533 261.766,-400.724"/>
<polygon fill="none" stroke="#404040" points="261.73,-400.701 254.519,-400.698 251.748,-394.041 258.959,-394.044 261.73,-400.701"/>
<text text-anchor="middle" x="334.5" y="-427.5" font-family="Helvetica,sans-Serif" font-size="10.00"> +keys</text>
</g>
<!-- Node6 -->
<g id="node6" class="node"><title>Node6</title>
<polygon fill="none" stroke="#bfbfbf" points="279,-326 279,-394 401,-394 401,-326 279,-326"/>
<text text-anchor="start" x="287" y="-382" font-family="Helvetica,sans-Serif" font-size="10.00">std::map&lt; std::string,</text>
<text text-anchor="middle" x="340" y="-371" font-family="Helvetica,sans-Serif" font-size="10.00"> XBot::ImuSensor::Ptr &gt;</text>
<polyline fill="none" stroke="#bfbfbf" points="279,-364 401,-364 "/>
<text text-anchor="start" x="287" y="-352" font-family="Helvetica,sans-Serif" font-size="10.00">+ elements</text>
<polyline fill="none" stroke="#bfbfbf" points="279,-345 401,-345 "/>
<text text-anchor="middle" x="340" y="-333" font-family="Helvetica,sans-Serif" font-size="10.00"> </text>
</g>
<!-- Node3&#45;&gt;Node6 -->
<g id="edge7" class="edge"><title>Node3&#45;&gt;Node6</title>
<path fill="none" stroke="#404040" d="M391.629,-454.24C383.516,-439.588 373.372,-421.27 364.229,-404.757"/>
<polygon fill="none" stroke="#404040" points="364.21,-404.722 357.804,-401.411 358.397,-394.224 364.803,-397.535 364.21,-404.722"/>
<text text-anchor="middle" x="397.5" y="-427.5" font-family="Helvetica,sans-Serif" font-size="10.00"> +keys</text>
</g>
<!-- Node8 -->
<g id="node8" class="node"><title>Node8</title>
<polygon fill="none" stroke="#bfbfbf" points="419,-326 419,-394 529,-394 529,-326 419,-326"/>
<text text-anchor="start" x="427" y="-382" font-family="Helvetica,sans-Serif" font-size="10.00">std::map&lt; std::string,</text>
<text text-anchor="middle" x="474" y="-371" font-family="Helvetica,sans-Serif" font-size="10.00"> XBot::Hand::Ptr &gt;</text>
<polyline fill="none" stroke="#bfbfbf" points="419,-364 529,-364 "/>
<text text-anchor="start" x="427" y="-352" font-family="Helvetica,sans-Serif" font-size="10.00">+ elements</text>
<polyline fill="none" stroke="#bfbfbf" points="419,-345 529,-345 "/>
<text text-anchor="middle" x="474" y="-333" font-family="Helvetica,sans-Serif" font-size="10.00"> </text>
</g>
<!-- Node3&#45;&gt;Node8 -->
<g id="edge10" class="edge"><title>Node3&#45;&gt;Node8</title>
<path fill="none" stroke="#404040" d="M422.371,-454.24C430.484,-439.588 440.628,-421.27 449.771,-404.757"/>
<polygon fill="none" stroke="#404040" points="449.79,-404.722 449.197,-397.535 455.603,-394.224 456.196,-401.411 449.79,-404.722"/>
<text text-anchor="middle" x="454.5" y="-427.5" font-family="Helvetica,sans-Serif" font-size="10.00"> +keys</text>
</g>
<!-- Node13 -->
<g id="node13" class="node"><title>Node13</title>
<polygon fill="none" stroke="#bfbfbf" points="547.5,-331.5 547.5,-388.5 672.5,-388.5 672.5,-331.5 547.5,-331.5"/>
<text text-anchor="middle" x="610" y="-376.5" font-family="Helvetica,sans-Serif" font-size="10.00">std::vector&lt; std::string &gt;</text>
<polyline fill="none" stroke="#bfbfbf" points="547.5,-369.5 672.5,-369.5 "/>
<text text-anchor="middle" x="610" y="-357.5" font-family="Helvetica,sans-Serif" font-size="10.00"> </text>
<polyline fill="none" stroke="#bfbfbf" points="547.5,-350.5 672.5,-350.5 "/>
<text text-anchor="middle" x="610" y="-338.5" font-family="Helvetica,sans-Serif" font-size="10.00"> </text>
</g>
<!-- Node3&#45;&gt;Node13 -->
<g id="edge16" class="edge"><title>Node3&#45;&gt;Node13</title>
<path fill="none" stroke="#404040" d="M437.081,-464.922C463.74,-449.699 503.653,-426.689 538,-406 543.761,-402.53 549.755,-398.867 555.717,-395.191"/>
<polygon fill="none" stroke="#404040" points="556.156,-394.919 559.148,-388.359 566.355,-388.598 563.363,-395.159 556.156,-394.919"/>
<text text-anchor="middle" x="530.5" y="-427.5" font-family="Helvetica,sans-Serif" font-size="10.00"> +elements</text>
</g>
<!-- Node14 -->
<g id="node14" class="node"><title>Node14</title>
<polygon fill="none" stroke="#bfbfbf" points="691,-320.5 691,-399.5 835,-399.5 835,-320.5 691,-320.5"/>
<text text-anchor="start" x="699" y="-387.5" font-family="Helvetica,sans-Serif" font-size="10.00">std::map&lt; std::string,</text>
<text text-anchor="start" x="699" y="-376.5" font-family="Helvetica,sans-Serif" font-size="10.00"> XBot::XBot::KinematicChain</text>
<text text-anchor="middle" x="763" y="-365.5" font-family="Helvetica,sans-Serif" font-size="10.00">::Ptr &gt;</text>
<polyline fill="none" stroke="#bfbfbf" points="691,-358.5 835,-358.5 "/>
<text text-anchor="start" x="699" y="-346.5" font-family="Helvetica,sans-Serif" font-size="10.00">+ elements</text>
<polyline fill="none" stroke="#bfbfbf" points="691,-339.5 835,-339.5 "/>
<text text-anchor="middle" x="763" y="-327.5" font-family="Helvetica,sans-Serif" font-size="10.00"> </text>
</g>
<!-- Node3&#45;&gt;Node14 -->
<g id="edge18" class="edge"><title>Node3&#45;&gt;Node14</title>
<path fill="none" stroke="#404040" d="M437.349,-475.992C488.701,-465.298 595.487,-440.775 681,-406 682.203,-405.511 683.412,-405.008 684.623,-404.493"/>
<polygon fill="none" stroke="#404040" points="684.634,-404.488 688.467,-398.381 695.58,-399.57 691.746,-405.678 684.634,-404.488"/>
<text text-anchor="middle" x="646.5" y="-427.5" font-family="Helvetica,sans-Serif" font-size="10.00"> +keys</text>
</g>
<!-- Node4 -->
<g id="node4" class="node"><title>Node4</title>
<g id="a_node4"><a xlink:title="STL class. ">
<polygon fill="none" stroke="#bfbfbf" points="359.5,-551 359.5,-619 454.5,-619 454.5,-551 359.5,-551"/>
<text text-anchor="start" x="367.5" y="-607" font-family="Helvetica,sans-Serif" font-size="10.00">std::basic_string&lt;</text>
<text text-anchor="middle" x="407" y="-596" font-family="Helvetica,sans-Serif" font-size="10.00"> char &gt;</text>
<polyline fill="none" stroke="#bfbfbf" points="359.5,-589 454.5,-589 "/>
<text text-anchor="middle" x="407" y="-577" font-family="Helvetica,sans-Serif" font-size="10.00"> </text>
<polyline fill="none" stroke="#bfbfbf" points="359.5,-570 454.5,-570 "/>
<text text-anchor="middle" x="407" y="-558" font-family="Helvetica,sans-Serif" font-size="10.00"> </text>
</a>
</g>
</g>
<!-- Node4&#45;&gt;Node3 -->
<g id="edge3" class="edge"><title>Node4&#45;&gt;Node3</title>
<path fill="none" stroke="midnightblue" d="M407,-540.857C407,-530.952 407,-520.682 407,-511.64"/>
<polygon fill="none" stroke="midnightblue" points="403.5,-540.979 407,-550.979 410.5,-540.979 403.5,-540.979"/>
</g>
<!-- Node5&#45;&gt;Node1 -->
<g id="edge4" class="edge"><title>Node5&#45;&gt;Node1</title>
<path fill="none" stroke="#404040" d="M247.012,-325.906C269.838,-308.679 299.357,-288.29 328,-274 441.508,-217.373 582.246,-175.062 672.339,-151.185"/>
<polygon fill="none" stroke="#404040" points="672.554,-151.128 677.341,-145.735 684.16,-148.08 679.373,-153.473 672.554,-151.128"/>
<text text-anchor="middle" x="386" y="-282.5" font-family="Helvetica,sans-Serif" font-size="10.00"> #_joint_name_to_eigen_id</text>
</g>
<!-- Node6&#45;&gt;Node1 -->
<g id="edge6" class="edge"><title>Node6&#45;&gt;Node1</title>
<path fill="none" stroke="#404040" d="M390.521,-325.776C397.023,-321.721 403.632,-317.706 410,-314 498.025,-262.775 601.526,-209.296 673.606,-173.09"/>
<polygon fill="none" stroke="#404040" points="673.724,-173.03 677.296,-166.766 684.452,-167.653 680.881,-173.917 673.724,-173.03"/>
<text text-anchor="middle" x="504" y="-282.5" font-family="Helvetica,sans-Serif" font-size="10.00"> #_imu_map</text>
</g>
<!-- Node7 -->
<g id="node7" class="node"><title>Node7</title>
<polygon fill="none" stroke="#bfbfbf" points="853,-326 853,-394 953,-394 953,-326 853,-326"/>
<text text-anchor="middle" x="903" y="-382" font-family="Helvetica,sans-Serif" font-size="10.00">std::map&lt; int, int &gt;</text>
<polyline fill="none" stroke="#bfbfbf" points="853,-375 953,-375 "/>
<text text-anchor="start" x="861" y="-363" font-family="Helvetica,sans-Serif" font-size="10.00">+ keys</text>
<text text-anchor="start" x="861" y="-352" font-family="Helvetica,sans-Serif" font-size="10.00">+ elements</text>
<polyline fill="none" stroke="#bfbfbf" points="853,-345 953,-345 "/>
<text text-anchor="middle" x="903" y="-333" font-family="Helvetica,sans-Serif" font-size="10.00"> </text>
</g>
<!-- Node7&#45;&gt;Node1 -->
<g id="edge8" class="edge"><title>Node7&#45;&gt;Node1</title>
<path fill="none" stroke="#404040" d="M882.643,-325.556C872.614,-309.08 859.783,-288.001 846.268,-265.798"/>
<polygon fill="none" stroke="#404040" points="846.257,-265.78 839.721,-262.734 840.018,-255.529 846.554,-258.575 846.257,-265.78"/>
<text text-anchor="middle" x="912" y="-282.5" font-family="Helvetica,sans-Serif" font-size="10.00"> #_joint_id_to_eigen_id</text>
</g>
<!-- Node8&#45;&gt;Node1 -->
<g id="edge9" class="edge"><title>Node8&#45;&gt;Node1</title>
<path fill="none" stroke="#404040" d="M512.968,-325.981C531.869,-310.105 554.981,-290.899 576,-274 607.917,-248.34 643.333,-220.677 674.683,-196.462"/>
<polygon fill="none" stroke="#404040" points="674.772,-196.393 677.079,-189.561 684.273,-189.063 681.966,-195.895 674.772,-196.393"/>
<text text-anchor="middle" x="605.5" y="-282.5" font-family="Helvetica,sans-Serif" font-size="10.00"> #_hand_map</text>
</g>
<!-- Node9 -->
<g id="node9" class="node"><title>Node9</title>
<polygon fill="none" stroke="#bfbfbf" points="971,-326 971,-394 1071,-394 1071,-326 971,-326"/>
<text text-anchor="start" x="979" y="-382" font-family="Helvetica,sans-Serif" font-size="10.00">std::vector&lt; XBot::</text>
<text text-anchor="middle" x="1021" y="-371" font-family="Helvetica,sans-Serif" font-size="10.00">Joint::Ptr &gt;</text>
<polyline fill="none" stroke="#bfbfbf" points="971,-364 1071,-364 "/>
<text text-anchor="start" x="979" y="-352" font-family="Helvetica,sans-Serif" font-size="10.00">+ elements</text>
<polyline fill="none" stroke="#bfbfbf" points="971,-345 1071,-345 "/>
<text text-anchor="middle" x="1021" y="-333" font-family="Helvetica,sans-Serif" font-size="10.00"> </text>
</g>
<!-- Node9&#45;&gt;Node1 -->
<g id="edge11" class="edge"><title>Node9&#45;&gt;Node1</title>
<path fill="none" stroke="#404040" d="M1003.5,-325.848C993.78,-309.211 980.689,-289.38 966,-274 932.642,-239.073 889.826,-207.06 852.121,-182.051"/>
<polygon fill="none" stroke="#404040" points="851.675,-181.759 844.464,-181.819 841.635,-175.186 848.845,-175.126 851.675,-181.759"/>
<text text-anchor="middle" x="1035" y="-288" font-family="Helvetica,sans-Serif" font-size="10.00"> #_ordered_joint_vector</text>
<text text-anchor="middle" x="1035" y="-277" font-family="Helvetica,sans-Serif" font-size="10.00">#_joint_vector</text>
</g>
<!-- Node10 -->
<g id="node10" class="node"><title>Node10</title>
<polygon fill="none" stroke="#bfbfbf" points="1089,-320.5 1089,-399.5 1191,-399.5 1191,-320.5 1089,-320.5"/>
<text text-anchor="start" x="1097" y="-387.5" font-family="Helvetica,sans-Serif" font-size="10.00">std::map&lt; int, XBot</text>
<text text-anchor="middle" x="1140" y="-376.5" font-family="Helvetica,sans-Serif" font-size="10.00">::Hand::Ptr &gt;</text>
<polyline fill="none" stroke="#bfbfbf" points="1089,-369.5 1191,-369.5 "/>
<text text-anchor="start" x="1097" y="-357.5" font-family="Helvetica,sans-Serif" font-size="10.00">+ keys</text>
<text text-anchor="start" x="1097" y="-346.5" font-family="Helvetica,sans-Serif" font-size="10.00">+ elements</text>
<polyline fill="none" stroke="#bfbfbf" points="1089,-339.5 1191,-339.5 "/>
<text text-anchor="middle" x="1140" y="-327.5" font-family="Helvetica,sans-Serif" font-size="10.00"> </text>
</g>
<!-- Node10&#45;&gt;Node1 -->
<g id="edge12" class="edge"><title>Node10&#45;&gt;Node1</title>
<path fill="none" stroke="#404040" d="M1123.7,-320.256C1115.47,-304.308 1104.18,-286.648 1090,-274 1021.84,-213.217 924.074,-174.418 853.216,-152.404"/>
<polygon fill="none" stroke="#404040" points="853.122,-152.375 846.217,-154.456 841.641,-148.882 848.546,-146.802 853.122,-152.375"/>
<text text-anchor="middle" x="1144" y="-282.5" font-family="Helvetica,sans-Serif" font-size="10.00"> #_hand_id_map</text>
</g>
<!-- Node11 -->
<g id="node11" class="node"><title>Node11</title>
<polygon fill="none" stroke="#bfbfbf" points="1209,-320.5 1209,-399.5 1311,-399.5 1311,-320.5 1209,-320.5"/>
<text text-anchor="start" x="1217" y="-387.5" font-family="Helvetica,sans-Serif" font-size="10.00">std::map&lt; int, XBot</text>
<text text-anchor="middle" x="1260" y="-376.5" font-family="Helvetica,sans-Serif" font-size="10.00">::ImuSensor::Ptr &gt;</text>
<polyline fill="none" stroke="#bfbfbf" points="1209,-369.5 1311,-369.5 "/>
<text text-anchor="start" x="1217" y="-357.5" font-family="Helvetica,sans-Serif" font-size="10.00">+ keys</text>
<text text-anchor="start" x="1217" y="-346.5" font-family="Helvetica,sans-Serif" font-size="10.00">+ elements</text>
<polyline fill="none" stroke="#bfbfbf" points="1209,-339.5 1311,-339.5 "/>
<text text-anchor="middle" x="1260" y="-327.5" font-family="Helvetica,sans-Serif" font-size="10.00"> </text>
</g>
<!-- Node11&#45;&gt;Node1 -->
<g id="edge13" class="edge"><title>Node11&#45;&gt;Node1</title>
<path fill="none" stroke="#404040" d="M1232.44,-320.22C1219.32,-304.073 1202.47,-286.27 1184,-274 1081.25,-205.727 943.002,-166.227 853.444,-146.157"/>
<polygon fill="none" stroke="#404040" points="853.403,-146.149 846.684,-148.766 841.683,-143.571 848.402,-140.953 853.403,-146.149"/>
<text text-anchor="middle" x="1244.5" y="-282.5" font-family="Helvetica,sans-Serif" font-size="10.00"> #_imu_id_map</text>
</g>
<!-- Node12 -->
<g id="node12" class="node"><title>Node12</title>
<polygon fill="none" stroke="#bfbfbf" points="1329,-315 1329,-405 1437,-405 1437,-315 1329,-315"/>
<text text-anchor="start" x="1337" y="-393" font-family="Helvetica,sans-Serif" font-size="10.00">std::map&lt; int, XBot</text>
<text text-anchor="start" x="1337" y="-382" font-family="Helvetica,sans-Serif" font-size="10.00">::ForceTorqueSensor</text>
<text text-anchor="middle" x="1383" y="-371" font-family="Helvetica,sans-Serif" font-size="10.00">::Ptr &gt;</text>
<polyline fill="none" stroke="#bfbfbf" points="1329,-364 1437,-364 "/>
<text text-anchor="start" x="1337" y="-352" font-family="Helvetica,sans-Serif" font-size="10.00">+ keys</text>
<text text-anchor="start" x="1337" y="-341" font-family="Helvetica,sans-Serif" font-size="10.00">+ elements</text>
<polyline fill="none" stroke="#bfbfbf" points="1329,-334 1437,-334 "/>
<text text-anchor="middle" x="1383" y="-322" font-family="Helvetica,sans-Serif" font-size="10.00"> </text>
</g>
<!-- Node12&#45;&gt;Node1 -->
<g id="edge14" class="edge"><title>Node12&#45;&gt;Node1</title>
<path fill="none" stroke="#404040" d="M1338.77,-314.703C1322.11,-300.017 1302.26,-284.705 1282,-274 1142.21,-200.153 960.824,-160.617 853.669,-142.273"/>
<polygon fill="none" stroke="#404040" points="853.451,-142.236 846.87,-145.186 841.617,-140.246 848.198,-137.296 853.451,-142.236"/>
<text text-anchor="middle" x="1344.5" y="-282.5" font-family="Helvetica,sans-Serif" font-size="10.00"> #_ft_id_map</text>
</g>
<!-- Node13&#45;&gt;Node1 -->
<g id="edge15" class="edge"><title>Node13&#45;&gt;Node1</title>
<path fill="none" stroke="#404040" d="M621.131,-331.402C628.448,-314.369 638.731,-292.343 650,-274 658.188,-260.673 667.382,-247.135 676.897,-233.955"/>
<polygon fill="none" stroke="#404040" points="677.131,-233.634 677.451,-226.43 684.224,-223.955 683.904,-231.159 677.131,-233.634"/>
<text text-anchor="middle" x="704.5" y="-282.5" font-family="Helvetica,sans-Serif" font-size="10.00"> #_ordered_chain_names</text>
</g>
<!-- Node14&#45;&gt;Node1 -->
<g id="edge17" class="edge"><title>Node14&#45;&gt;Node1</title>
<path fill="none" stroke="#404040" d="M763,-320.244C763,-305.189 763,-286.961 763,-267.812"/>
<polygon fill="none" stroke="#404040" points="763,-267.791 759,-261.791 763,-255.791 767,-261.791 763,-267.791"/>
<text text-anchor="middle" x="793.5" y="-282.5" font-family="Helvetica,sans-Serif" font-size="10.00"> #_chain_map</text>
</g>
</g>
</svg>
