<?xml version="1.0" encoding="UTF-8" standalone="no"?>
<!DOCTYPE svg PUBLIC "-//W3C//DTD SVG 1.1//EN"
 "http://www.w3.org/Graphics/SVG/1.1/DTD/svg11.dtd">
<!-- Generated by graphviz version 2.38.0 (20140413.2041)
 -->
<!-- Title: XBot::SSConsoleLogger Pages: 1 -->
<svg width="140pt" height="471pt"
 viewBox="0.00 0.00 139.50 471.00" xmlns="http://www.w3.org/2000/svg" xmlns:xlink="http://www.w3.org/1999/xlink">
<g id="graph0" class="graph" transform="scale(1 1) rotate(0) translate(4 467)">
<title>XBot::SSConsoleLogger</title>
<!-- Node1 -->
<g id="node1" class="node"><title>Node1</title>
<polygon fill="#bfbfbf" stroke="black" points="0,-0.5 0,-57.5 123,-57.5 123,-0.5 0,-0.5"/>
<text text-anchor="middle" x="61.5" y="-45.5" font-family="Helvetica,sans-Serif" font-size="10.00">XBot::SSConsoleLogger</text>
<polyline fill="none" stroke="black" points="0,-38.5 123,-38.5 "/>
<text text-anchor="middle" x="61.5" y="-26.5" font-family="Helvetica,sans-Serif" font-size="10.00"> </text>
<polyline fill="none" stroke="black" points="0,-19.5 123,-19.5 "/>
<text text-anchor="start" x="8" y="-7.5" font-family="Helvetica,sans-Serif" font-size="10.00">+ SSConsoleLogger()</text>
</g>
<!-- Node2 -->
<g id="node2" class="node"><title>Node2</title>
<g id="a_node2"><a xlink:href="classXBot_1_1SSLogger.html" target="_top" xlink:title="String Stream Logger. ">
<polygon fill="none" stroke="black" points="9.5,-95.5 9.5,-240.5 113.5,-240.5 113.5,-95.5 9.5,-95.5"/>
<text text-anchor="middle" x="61.5" y="-228.5" font-family="Helvetica,sans-Serif" font-size="10.00">XBot::SSLogger</text>
<polyline fill="none" stroke="black" points="9.5,-221.5 113.5,-221.5 "/>
<text text-anchor="start" x="17.5" y="-209.5" font-family="Helvetica,sans-Serif" font-size="10.00"># _log_file_size</text>
<text text-anchor="start" x="17.5" y="-198.5" font-family="Helvetica,sans-Serif" font-size="10.00"># _log_max_files</text>
<polyline fill="none" stroke="black" points="9.5,-191.5 113.5,-191.5 "/>
<text text-anchor="start" x="17.5" y="-179.5" font-family="Helvetica,sans-Serif" font-size="10.00">+ SSLogger()</text>
<text text-anchor="start" x="17.5" y="-168.5" font-family="Helvetica,sans-Serif" font-size="10.00">+ setSeverityLevel()</text>
<text text-anchor="start" x="17.5" y="-157.5" font-family="Helvetica,sans-Serif" font-size="10.00">+ setHeader()</text>
<text text-anchor="start" x="17.5" y="-146.5" font-family="Helvetica,sans-Serif" font-size="10.00">+ log()</text>
<text text-anchor="start" x="17.5" y="-135.5" font-family="Helvetica,sans-Serif" font-size="10.00">+ endl()</text>
<text text-anchor="start" x="17.5" y="-124.5" font-family="Helvetica,sans-Serif" font-size="10.00"># info_internal()</text>
<text text-anchor="start" x="17.5" y="-113.5" font-family="Helvetica,sans-Serif" font-size="10.00"># warning_internal()</text>
<text text-anchor="start" x="17.5" y="-102.5" font-family="Helvetica,sans-Serif" font-size="10.00"># error_internal()</text>
</a>
</g>
</g>
<!-- Node2&#45;&gt;Node1 -->
<g id="edge1" class="edge"><title>Node2&#45;&gt;Node1</title>
<path fill="none" stroke="midnightblue" d="M61.5,-85.0423C61.5,-75.3063 61.5,-65.9479 61.5,-57.7962"/>
<polygon fill="none" stroke="midnightblue" points="58.0001,-85.2901 61.5,-95.2901 65.0001,-85.2901 58.0001,-85.2901"/>
</g>
<!-- Node3 -->
<g id="node3" class="node"><title>Node3</title>
<g id="a_node3"><a xlink:title="STL class. ">
<polygon fill="none" stroke="#bfbfbf" points="31.5,-299.5 31.5,-356.5 91.5,-356.5 91.5,-299.5 31.5,-299.5"/>
<text text-anchor="middle" x="61.5" y="-344.5" font-family="Helvetica,sans-Serif" font-size="10.00">std::string</text>
<polyline fill="none" stroke="#bfbfbf" points="31.5,-337.5 91.5,-337.5 "/>
<text text-anchor="middle" x="61.5" y="-325.5" font-family="Helvetica,sans-Serif" font-size="10.00"> </text>
<polyline fill="none" stroke="#bfbfbf" points="31.5,-318.5 91.5,-318.5 "/>
<text text-anchor="middle" x="61.5" y="-306.5" font-family="Helvetica,sans-Serif" font-size="10.00"> </text>
</a>
</g>
</g>
<!-- Node3&#45;&gt;Node2 -->
<g id="edge2" class="edge"><title>Node3&#45;&gt;Node2</title>
<path fill="none" stroke="#404040" d="M61.5,-299.479C61.5,-286.317 61.5,-269.778 61.5,-252.939"/>
<polygon fill="none" stroke="#404040" points="61.5001,-252.668 57.5,-246.668 61.5,-240.668 65.5,-246.668 61.5001,-252.668"/>
<text text-anchor="middle" x="96.5" y="-273" font-family="Helvetica,sans-Serif" font-size="10.00"> #_logger_name</text>
<text text-anchor="middle" x="96.5" y="-262" font-family="Helvetica,sans-Serif" font-size="10.00">#_log_filename</text>
</g>
<!-- Node4 -->
<g id="node4" class="node"><title>Node4</title>
<g id="a_node4"><a xlink:title="STL class. ">
<polygon fill="none" stroke="#bfbfbf" points="14,-394.5 14,-462.5 109,-462.5 109,-394.5 14,-394.5"/>
<text text-anchor="start" x="22" y="-450.5" font-family="Helvetica,sans-Serif" font-size="10.00">std::basic_string&lt;</text>
<text text-anchor="middle" x="61.5" y="-439.5" font-family="Helvetica,sans-Serif" font-size="10.00"> char &gt;</text>
<polyline fill="none" stroke="#bfbfbf" points="14,-432.5 109,-432.5 "/>
<text text-anchor="middle" x="61.5" y="-420.5" font-family="Helvetica,sans-Serif" font-size="10.00"> </text>
<polyline fill="none" stroke="#bfbfbf" points="14,-413.5 109,-413.5 "/>
<text text-anchor="middle" x="61.5" y="-401.5" font-family="Helvetica,sans-Serif" font-size="10.00"> </text>
</a>
</g>
</g>
<!-- Node4&#45;&gt;Node3 -->
<g id="edge3" class="edge"><title>Node4&#45;&gt;Node3</title>
<path fill="none" stroke="midnightblue" d="M61.5,-384.375C61.5,-374.94 61.5,-365.201 61.5,-356.571"/>
<polygon fill="none" stroke="midnightblue" points="58.0001,-384.427 61.5,-394.427 65.0001,-384.427 58.0001,-384.427"/>
</g>
</g>
</svg>
