<?xml version="1.0" encoding="UTF-8" standalone="no"?>
<!DOCTYPE svg PUBLIC "-//W3C//DTD SVG 1.1//EN"
 "http://www.w3.org/Graphics/SVG/1.1/DTD/svg11.dtd">
<!-- Generated by graphviz version 2.36.0 (20140111.2315)
 -->
<!-- Title: fmt::internal::MemoryBuffer&lt; T, SIZE, Allocator &gt; Pages: 1 -->
<svg width="167pt" height="348pt"
 viewBox="0.00 0.00 167.00 348.00" xmlns="http://www.w3.org/2000/svg" xmlns:xlink="http://www.w3.org/1999/xlink">
<g id="graph0" class="graph" transform="scale(1 1) rotate(0) translate(4 344)">
<title>fmt::internal::MemoryBuffer&lt; T, SIZE, Allocator &gt;</title>
<!-- Node1 -->
<g id="node1" class="node"><title>Node1</title>
<polygon fill="#bfbfbf" stroke="black" points="3,-0.5 3,-101.5 139,-101.5 139,-0.5 3,-0.5"/>
<text text-anchor="start" x="11" y="-89.5" font-family="Helvetica,sans-Serif" font-size="10.00">fmt::internal::MemoryBuffer</text>
<text text-anchor="middle" x="71" y="-78.5" font-family="Helvetica,sans-Serif" font-size="10.00">&lt; T, SIZE, Allocator &gt;</text>
<polyline fill="none" stroke="black" points="3,-71.5 139,-71.5 "/>
<text text-anchor="middle" x="71" y="-59.5" font-family="Helvetica,sans-Serif" font-size="10.00"> </text>
<polyline fill="none" stroke="black" points="3,-52.5 139,-52.5 "/>
<text text-anchor="start" x="11" y="-40.5" font-family="Helvetica,sans-Serif" font-size="10.00">+ MemoryBuffer()</text>
<text text-anchor="start" x="11" y="-29.5" font-family="Helvetica,sans-Serif" font-size="10.00">+ ~MemoryBuffer()</text>
<text text-anchor="start" x="11" y="-18.5" font-family="Helvetica,sans-Serif" font-size="10.00">+ get_allocator()</text>
<text text-anchor="start" x="11" y="-7.5" font-family="Helvetica,sans-Serif" font-size="10.00"># grow()</text>
</g>
<!-- Node2 -->
<g id="node2" class="node"><title>Node2</title>
<polygon fill="none" stroke="#bfbfbf" points="-0.5,-210.5 -0.5,-267.5 54.5,-267.5 54.5,-210.5 -0.5,-210.5"/>
<text text-anchor="middle" x="27" y="-255.5" font-family="Helvetica,sans-Serif" font-size="10.00">Allocator</text>
<polyline fill="none" stroke="#bfbfbf" points="-0.5,-248.5 54.5,-248.5 "/>
<text text-anchor="middle" x="27" y="-236.5" font-family="Helvetica,sans-Serif" font-size="10.00"> </text>
<polyline fill="none" stroke="#bfbfbf" points="-0.5,-229.5 54.5,-229.5 "/>
<text text-anchor="middle" x="27" y="-217.5" font-family="Helvetica,sans-Serif" font-size="10.00"> </text>
</g>
<!-- Node2&#45;&gt;Node1 -->
<g id="edge1" class="edge"><title>Node2&#45;&gt;Node1</title>
<path fill="none" stroke="#8b1a1a" d="M35.9373,-200.22C42.6511,-171.839 51.9093,-132.701 59.2264,-101.77"/>
<polygon fill="none" stroke="#8b1a1a" points="32.4834,-199.617 33.5872,-210.154 39.2954,-201.228 32.4834,-199.617"/>
</g>
<!-- Node3 -->
<g id="node3" class="node"><title>Node3</title>
<g id="a_node3"><a xlink:href="classfmt_1_1Buffer.html" target="_top" xlink:title="A buffer supporting a subset of std::vector&#39;s operations. ">
<polygon fill="none" stroke="black" points="72.5,-139 72.5,-339 159.5,-339 159.5,-139 72.5,-139"/>
<text text-anchor="middle" x="116" y="-327" font-family="Helvetica,sans-Serif" font-size="10.00">fmt::Buffer&lt; T &gt;</text>
<polyline fill="none" stroke="black" points="72.5,-320 159.5,-320 "/>
<text text-anchor="start" x="80.5" y="-308" font-family="Helvetica,sans-Serif" font-size="10.00"># ptr_</text>
<text text-anchor="start" x="80.5" y="-297" font-family="Helvetica,sans-Serif" font-size="10.00"># size_</text>
<text text-anchor="start" x="80.5" y="-286" font-family="Helvetica,sans-Serif" font-size="10.00"># capacity_</text>
<polyline fill="none" stroke="black" points="72.5,-279 159.5,-279 "/>
<text text-anchor="start" x="80.5" y="-267" font-family="Helvetica,sans-Serif" font-size="10.00">+ ~Buffer()</text>
<text text-anchor="start" x="80.5" y="-256" font-family="Helvetica,sans-Serif" font-size="10.00">+ size()</text>
<text text-anchor="start" x="80.5" y="-245" font-family="Helvetica,sans-Serif" font-size="10.00">+ capacity()</text>
<text text-anchor="start" x="80.5" y="-234" font-family="Helvetica,sans-Serif" font-size="10.00">+ resize()</text>
<text text-anchor="start" x="80.5" y="-223" font-family="Helvetica,sans-Serif" font-size="10.00">+ reserve()</text>
<text text-anchor="start" x="80.5" y="-212" font-family="Helvetica,sans-Serif" font-size="10.00">+ clear()</text>
<text text-anchor="start" x="80.5" y="-201" font-family="Helvetica,sans-Serif" font-size="10.00">+ push_back()</text>
<text text-anchor="start" x="80.5" y="-190" font-family="Helvetica,sans-Serif" font-size="10.00">+ append()</text>
<text text-anchor="start" x="80.5" y="-179" font-family="Helvetica,sans-Serif" font-size="10.00">+ operator[]()</text>
<text text-anchor="start" x="80.5" y="-168" font-family="Helvetica,sans-Serif" font-size="10.00">+ operator[]()</text>
<text text-anchor="start" x="80.5" y="-157" font-family="Helvetica,sans-Serif" font-size="10.00"># Buffer()</text>
<text text-anchor="start" x="80.5" y="-146" font-family="Helvetica,sans-Serif" font-size="10.00"># grow()</text>
</a>
</g>
</g>
<!-- Node3&#45;&gt;Node1 -->
<g id="edge2" class="edge"><title>Node3&#45;&gt;Node1</title>
<path fill="none" stroke="midnightblue" d="M89.5993,-128.877C87.3252,-119.478 85.106,-110.305 83.0384,-101.759"/>
<polygon fill="none" stroke="midnightblue" points="86.2315,-129.841 91.9849,-138.738 93.0352,-128.195 86.2315,-129.841"/>
</g>
</g>
</svg>
