<?xml version="1.0" encoding="UTF-8" standalone="no"?>
<!DOCTYPE svg PUBLIC "-//W3C//DTD SVG 1.1//EN"
 "http://www.w3.org/Graphics/SVG/1.1/DTD/svg11.dtd">
<!-- Generated by graphviz version 2.38.0 (20140413.2041)
 -->
<!-- Title: XBot::RobotChain Pages: 1 -->
<svg width="928pt" height="653pt"
 viewBox="0.00 0.00 927.50 653.00" xmlns="http://www.w3.org/2000/svg" xmlns:xlink="http://www.w3.org/1999/xlink">
<g id="graph0" class="graph" transform="scale(1 1) rotate(0) translate(4 649)">
<title>XBot::RobotChain</title>
<!-- Node1 -->
<g id="node1" class="node"><title>Node1</title>
<polygon fill="#bfbfbf" stroke="black" points="442,-0.5 442,-68.5 555,-68.5 555,-0.5 442,-0.5"/>
<text text-anchor="middle" x="498.5" y="-56.5" font-family="Helvetica,sans-Serif" font-size="10.00">XBot::RobotChain</text>
<polyline fill="none" stroke="black" points="442,-49.5 555,-49.5 "/>
<text text-anchor="middle" x="498.5" y="-37.5" font-family="Helvetica,sans-Serif" font-size="10.00"> </text>
<polyline fill="none" stroke="black" points="442,-30.5 555,-30.5 "/>
<text text-anchor="start" x="450" y="-18.5" font-family="Helvetica,sans-Serif" font-size="10.00">+ RobotChain()</text>
<text text-anchor="start" x="450" y="-7.5" font-family="Helvetica,sans-Serif" font-size="10.00">+ setReferenceFrom()</text>
</g>
<!-- Node2 -->
<g id="node2" class="node"><title>Node2</title>
<g id="a_node2"><a xlink:href="classXBot_1_1KinematicChain.html" target="_top" xlink:title="Kinematic chain abstraction as a set of joints and sensors. ">
<polygon fill="none" stroke="black" points="433,-106.5 433,-306.5 564,-306.5 564,-106.5 433,-106.5"/>
<text text-anchor="middle" x="498.5" y="-294.5" font-family="Helvetica,sans-Serif" font-size="10.00">XBot::KinematicChain</text>
<polyline fill="none" stroke="black" points="433,-287.5 564,-287.5 "/>
<text text-anchor="middle" x="498.5" y="-275.5" font-family="Helvetica,sans-Serif" font-size="10.00"> </text>
<polyline fill="none" stroke="black" points="433,-268.5 564,-268.5 "/>
<text text-anchor="start" x="441" y="-256.5" font-family="Helvetica,sans-Serif" font-size="10.00">+ KinematicChain()</text>
<text text-anchor="start" x="441" y="-245.5" font-family="Helvetica,sans-Serif" font-size="10.00">+ KinematicChain()</text>
<text text-anchor="start" x="441" y="-234.5" font-family="Helvetica,sans-Serif" font-size="10.00">+ KinematicChain()</text>
<text text-anchor="start" x="441" y="-223.5" font-family="Helvetica,sans-Serif" font-size="10.00">+ KinematicChain()</text>
<text text-anchor="start" x="441" y="-212.5" font-family="Helvetica,sans-Serif" font-size="10.00">+ operator=()</text>
<text text-anchor="start" x="441" y="-201.5" font-family="Helvetica,sans-Serif" font-size="10.00">+ getChainState()</text>
<text text-anchor="start" x="441" y="-190.5" font-family="Helvetica,sans-Serif" font-size="10.00">+ getChainState()</text>
<text text-anchor="start" x="441" y="-179.5" font-family="Helvetica,sans-Serif" font-size="10.00">+ getChainState()</text>
<text text-anchor="start" x="441" y="-168.5" font-family="Helvetica,sans-Serif" font-size="10.00">+ getForceTorque()</text>
<text text-anchor="start" x="441" y="-157.5" font-family="Helvetica,sans-Serif" font-size="10.00">+ getImu()</text>
<text text-anchor="start" x="441" y="-146.5" font-family="Helvetica,sans-Serif" font-size="10.00">and 141 more...</text>
<text text-anchor="start" x="441" y="-135.5" font-family="Helvetica,sans-Serif" font-size="10.00"># getJointInternal()</text>
<text text-anchor="start" x="441" y="-124.5" font-family="Helvetica,sans-Serif" font-size="10.00"># getForceTorqueInternal()</text>
<text text-anchor="start" x="441" y="-113.5" font-family="Helvetica,sans-Serif" font-size="10.00"># getImuInternal()</text>
</a>
</g>
</g>
<!-- Node2&#45;&gt;Node1 -->
<g id="edge1" class="edge"><title>Node2&#45;&gt;Node1</title>
<path fill="none" stroke="midnightblue" d="M498.5,-95.899C498.5,-86.2313 498.5,-77.0283 498.5,-68.852"/>
<polygon fill="none" stroke="midnightblue" points="495,-96.1184 498.5,-106.118 502,-96.1185 495,-96.1184"/>
</g>
<!-- Node3 -->
<g id="node3" class="node"><title>Node3</title>
<polygon fill="none" stroke="#bfbfbf" points="0,-354.5 0,-433.5 133,-433.5 133,-354.5 0,-354.5"/>
<text text-anchor="start" x="8" y="-421.5" font-family="Helvetica,sans-Serif" font-size="10.00">std::map&lt; std::string,</text>
<text text-anchor="start" x="8" y="-410.5" font-family="Helvetica,sans-Serif" font-size="10.00"> XBot::ForceTorqueSensor</text>
<text text-anchor="middle" x="66.5" y="-399.5" font-family="Helvetica,sans-Serif" font-size="10.00">::Ptr &gt;</text>
<polyline fill="none" stroke="#bfbfbf" points="0,-392.5 133,-392.5 "/>
<text text-anchor="start" x="8" y="-380.5" font-family="Helvetica,sans-Serif" font-size="10.00">+ elements</text>
<polyline fill="none" stroke="#bfbfbf" points="0,-373.5 133,-373.5 "/>
<text text-anchor="middle" x="66.5" y="-361.5" font-family="Helvetica,sans-Serif" font-size="10.00"> </text>
</g>
<!-- Node3&#45;&gt;Node2 -->
<g id="edge2" class="edge"><title>Node3&#45;&gt;Node2</title>
<path fill="none" stroke="#404040" d="M133.073,-358.439C136.249,-356.916 139.403,-355.429 142.5,-354 237.261,-310.282 348.868,-265.392 421.516,-237.024"/>
<polygon fill="none" stroke="#404040" points="421.651,-236.972 425.79,-231.067 432.833,-232.616 428.694,-238.521 421.651,-236.972"/>
<text text-anchor="middle" x="222.5" y="-328" font-family="Helvetica,sans-Serif" font-size="10.00"> #_ft_map</text>
</g>
<!-- Node4 -->
<g id="node4" class="node"><title>Node4</title>
<g id="a_node4"><a xlink:title="STL class. ">
<polygon fill="none" stroke="#bfbfbf" points="182.5,-481.5 182.5,-538.5 242.5,-538.5 242.5,-481.5 182.5,-481.5"/>
<text text-anchor="middle" x="212.5" y="-526.5" font-family="Helvetica,sans-Serif" font-size="10.00">std::string</text>
<polyline fill="none" stroke="#bfbfbf" points="182.5,-519.5 242.5,-519.5 "/>
<text text-anchor="middle" x="212.5" y="-507.5" font-family="Helvetica,sans-Serif" font-size="10.00"> </text>
<polyline fill="none" stroke="#bfbfbf" points="182.5,-500.5 242.5,-500.5 "/>
<text text-anchor="middle" x="212.5" y="-488.5" font-family="Helvetica,sans-Serif" font-size="10.00"> </text>
</a>
</g>
</g>
<!-- Node4&#45;&gt;Node3 -->
<g id="edge3" class="edge"><title>Node4&#45;&gt;Node3</title>
<path fill="none" stroke="#404040" d="M182.249,-485.379C165.886,-472.603 145.099,-456.372 125.669,-441.201"/>
<polygon fill="none" stroke="#404040" points="125.424,-441.009 118.233,-440.469 115.966,-433.624 123.156,-434.164 125.424,-441.009"/>
<text text-anchor="middle" x="169" y="-455" font-family="Helvetica,sans-Serif" font-size="10.00"> +keys</text>
</g>
<!-- Node6 -->
<g id="node6" class="node"><title>Node6</title>
<polygon fill="none" stroke="#bfbfbf" points="151.5,-360 151.5,-428 273.5,-428 273.5,-360 151.5,-360"/>
<text text-anchor="start" x="159.5" y="-416" font-family="Helvetica,sans-Serif" font-size="10.00">std::map&lt; std::string,</text>
<text text-anchor="middle" x="212.5" y="-405" font-family="Helvetica,sans-Serif" font-size="10.00"> XBot::ImuSensor::Ptr &gt;</text>
<polyline fill="none" stroke="#bfbfbf" points="151.5,-398 273.5,-398 "/>
<text text-anchor="start" x="159.5" y="-386" font-family="Helvetica,sans-Serif" font-size="10.00">+ elements</text>
<polyline fill="none" stroke="#bfbfbf" points="151.5,-379 273.5,-379 "/>
<text text-anchor="middle" x="212.5" y="-367" font-family="Helvetica,sans-Serif" font-size="10.00"> </text>
</g>
<!-- Node4&#45;&gt;Node6 -->
<g id="edge6" class="edge"><title>Node4&#45;&gt;Node6</title>
<path fill="none" stroke="#404040" d="M212.5,-481.404C212.5,-469.094 212.5,-454.264 212.5,-440.392"/>
<polygon fill="none" stroke="#404040" points="212.5,-440.021 208.5,-434.021 212.5,-428.021 216.5,-434.021 212.5,-440.021"/>
<text text-anchor="middle" x="228" y="-455" font-family="Helvetica,sans-Serif" font-size="10.00"> +keys</text>
</g>
<!-- Node7 -->
<g id="node7" class="node"><title>Node7</title>
<polygon fill="none" stroke="#bfbfbf" points="291.5,-360 291.5,-428 415.5,-428 415.5,-360 291.5,-360"/>
<text text-anchor="start" x="299.5" y="-416" font-family="Helvetica,sans-Serif" font-size="10.00">std::map&lt; std::string,</text>
<text text-anchor="middle" x="353.5" y="-405" font-family="Helvetica,sans-Serif" font-size="10.00"> XBot::XBot::Joint::Ptr &gt;</text>
<polyline fill="none" stroke="#bfbfbf" points="291.5,-398 415.5,-398 "/>
<text text-anchor="start" x="299.5" y="-386" font-family="Helvetica,sans-Serif" font-size="10.00">+ elements</text>
<polyline fill="none" stroke="#bfbfbf" points="291.5,-379 415.5,-379 "/>
<text text-anchor="middle" x="353.5" y="-367" font-family="Helvetica,sans-Serif" font-size="10.00"> </text>
</g>
<!-- Node4&#45;&gt;Node7 -->
<g id="edge8" class="edge"><title>Node4&#45;&gt;Node7</title>
<path fill="none" stroke="#404040" d="M242.748,-484.544C260.352,-470.311 282.991,-452.008 303.208,-435.662"/>
<polygon fill="none" stroke="#404040" points="303.27,-435.612 305.421,-428.729 312.602,-428.067 310.451,-434.95 303.27,-435.612"/>
<text text-anchor="middle" x="299" y="-455" font-family="Helvetica,sans-Serif" font-size="10.00"> +keys</text>
</g>
<!-- Node5 -->
<g id="node5" class="node"><title>Node5</title>
<g id="a_node5"><a xlink:title="STL class. ">
<polygon fill="none" stroke="#bfbfbf" points="165,-576.5 165,-644.5 260,-644.5 260,-576.5 165,-576.5"/>
<text text-anchor="start" x="173" y="-632.5" font-family="Helvetica,sans-Serif" font-size="10.00">std::basic_string&lt;</text>
<text text-anchor="middle" x="212.5" y="-621.5" font-family="Helvetica,sans-Serif" font-size="10.00"> char &gt;</text>
<polyline fill="none" stroke="#bfbfbf" points="165,-614.5 260,-614.5 "/>
<text text-anchor="middle" x="212.5" y="-602.5" font-family="Helvetica,sans-Serif" font-size="10.00"> </text>
<polyline fill="none" stroke="#bfbfbf" points="165,-595.5 260,-595.5 "/>
<text text-anchor="middle" x="212.5" y="-583.5" font-family="Helvetica,sans-Serif" font-size="10.00"> </text>
</a>
</g>
</g>
<!-- Node5&#45;&gt;Node4 -->
<g id="edge4" class="edge"><title>Node5&#45;&gt;Node4</title>
<path fill="none" stroke="midnightblue" d="M212.5,-566.375C212.5,-556.94 212.5,-547.201 212.5,-538.571"/>
<polygon fill="none" stroke="midnightblue" points="209,-566.427 212.5,-576.427 216,-566.427 209,-566.427"/>
</g>
<!-- Node6&#45;&gt;Node2 -->
<g id="edge5" class="edge"><title>Node6&#45;&gt;Node2</title>
<path fill="none" stroke="#404040" d="M263.631,-359.836C307.899,-331.124 372.536,-289.2 422.801,-256.598"/>
<polygon fill="none" stroke="#404040" points="422.906,-256.53 425.764,-249.909 432.974,-250 430.117,-256.621 422.906,-256.53"/>
<text text-anchor="middle" x="340.5" y="-328" font-family="Helvetica,sans-Serif" font-size="10.00"> #_imu_map</text>
</g>
<!-- Node7&#45;&gt;Node2 -->
<g id="edge7" class="edge"><title>Node7&#45;&gt;Node2</title>
<path fill="none" stroke="#404040" d="M379.423,-359.836C392.421,-343.208 408.882,-322.149 425.386,-301.035"/>
<polygon fill="none" stroke="#404040" points="425.57,-300.8 426.113,-293.61 432.96,-291.346 432.416,-298.537 425.57,-300.8"/>
<text text-anchor="middle" x="448" y="-328" font-family="Helvetica,sans-Serif" font-size="10.00"> #_joint_name_map</text>
</g>
<!-- Node8 -->
<g id="node8" class="node"><title>Node8</title>
<polygon fill="none" stroke="#bfbfbf" points="433.5,-360 433.5,-428 563.5,-428 563.5,-360 433.5,-360"/>
<text text-anchor="start" x="441.5" y="-416" font-family="Helvetica,sans-Serif" font-size="10.00">std::vector&lt; XBot::</text>
<text text-anchor="middle" x="498.5" y="-405" font-family="Helvetica,sans-Serif" font-size="10.00">ForceTorqueSensor::Ptr &gt;</text>
<polyline fill="none" stroke="#bfbfbf" points="433.5,-398 563.5,-398 "/>
<text text-anchor="start" x="441.5" y="-386" font-family="Helvetica,sans-Serif" font-size="10.00">+ elements</text>
<polyline fill="none" stroke="#bfbfbf" points="433.5,-379 563.5,-379 "/>
<text text-anchor="middle" x="498.5" y="-367" font-family="Helvetica,sans-Serif" font-size="10.00"> </text>
</g>
<!-- Node8&#45;&gt;Node2 -->
<g id="edge9" class="edge"><title>Node8&#45;&gt;Node2</title>
<path fill="none" stroke="#404040" d="M498.5,-359.836C498.5,-347.913 498.5,-333.711 498.5,-318.845"/>
<polygon fill="none" stroke="#404040" points="498.5,-318.811 494.5,-312.811 498.5,-306.811 502.5,-312.811 498.5,-318.811"/>
<text text-anchor="middle" x="524.5" y="-328" font-family="Helvetica,sans-Serif" font-size="10.00"> #_ft_vector</text>
</g>
<!-- Node9 -->
<g id="node9" class="node"><title>Node9</title>
<polygon fill="none" stroke="#bfbfbf" points="581.5,-354.5 581.5,-433.5 683.5,-433.5 683.5,-354.5 581.5,-354.5"/>
<text text-anchor="start" x="589.5" y="-421.5" font-family="Helvetica,sans-Serif" font-size="10.00">std::map&lt; int, XBot</text>
<text text-anchor="middle" x="632.5" y="-410.5" font-family="Helvetica,sans-Serif" font-size="10.00">::XBot::Joint::Ptr &gt;</text>
<polyline fill="none" stroke="#bfbfbf" points="581.5,-403.5 683.5,-403.5 "/>
<text text-anchor="start" x="589.5" y="-391.5" font-family="Helvetica,sans-Serif" font-size="10.00">+ keys</text>
<text text-anchor="start" x="589.5" y="-380.5" font-family="Helvetica,sans-Serif" font-size="10.00">+ elements</text>
<polyline fill="none" stroke="#bfbfbf" points="581.5,-373.5 683.5,-373.5 "/>
<text text-anchor="middle" x="632.5" y="-361.5" font-family="Helvetica,sans-Serif" font-size="10.00"> </text>
</g>
<!-- Node9&#45;&gt;Node2 -->
<g id="edge10" class="edge"><title>Node9&#45;&gt;Node2</title>
<path fill="none" stroke="#404040" d="M604.409,-354.113C594.622,-340.564 583.139,-324.669 571.413,-308.436"/>
<polygon fill="none" stroke="#404040" points="571.121,-308.031 564.365,-305.509 564.094,-298.303 570.85,-300.825 571.121,-308.031"/>
<text text-anchor="middle" x="624" y="-328" font-family="Helvetica,sans-Serif" font-size="10.00"> #_joint_id_map</text>
</g>
<!-- Node10 -->
<g id="node10" class="node"><title>Node10</title>
<polygon fill="none" stroke="#bfbfbf" points="701.5,-360 701.5,-428 801.5,-428 801.5,-360 701.5,-360"/>
<text text-anchor="start" x="709.5" y="-416" font-family="Helvetica,sans-Serif" font-size="10.00">std::vector&lt; XBot::</text>
<text text-anchor="middle" x="751.5" y="-405" font-family="Helvetica,sans-Serif" font-size="10.00">ImuSensor::Ptr &gt;</text>
<polyline fill="none" stroke="#bfbfbf" points="701.5,-398 801.5,-398 "/>
<text text-anchor="start" x="709.5" y="-386" font-family="Helvetica,sans-Serif" font-size="10.00">+ elements</text>
<polyline fill="none" stroke="#bfbfbf" points="701.5,-379 801.5,-379 "/>
<text text-anchor="middle" x="751.5" y="-367" font-family="Helvetica,sans-Serif" font-size="10.00"> </text>
</g>
<!-- Node10&#45;&gt;Node2 -->
<g id="edge11" class="edge"><title>Node10&#45;&gt;Node2</title>
<path fill="none" stroke="#404040" d="M708.697,-359.874C694.112,-348.7 677.662,-336.22 662.5,-325 633.914,-303.846 602.206,-280.99 574.349,-261.108"/>
<polygon fill="none" stroke="#404040" points="574.045,-260.892 566.837,-260.667 564.273,-253.927 571.48,-254.152 574.045,-260.892"/>
<text text-anchor="middle" x="708.5" y="-328" font-family="Helvetica,sans-Serif" font-size="10.00"> #_imu_vector</text>
</g>
<!-- Node11 -->
<g id="node11" class="node"><title>Node11</title>
<polygon fill="none" stroke="#bfbfbf" points="819.5,-360 819.5,-428 919.5,-428 919.5,-360 819.5,-360"/>
<text text-anchor="start" x="827.5" y="-416" font-family="Helvetica,sans-Serif" font-size="10.00">std::vector&lt; XBot::</text>
<text text-anchor="middle" x="869.5" y="-405" font-family="Helvetica,sans-Serif" font-size="10.00">XBot::Joint::Ptr &gt;</text>
<polyline fill="none" stroke="#bfbfbf" points="819.5,-398 919.5,-398 "/>
<text text-anchor="start" x="827.5" y="-386" font-family="Helvetica,sans-Serif" font-size="10.00">+ elements</text>
<polyline fill="none" stroke="#bfbfbf" points="819.5,-379 919.5,-379 "/>
<text text-anchor="middle" x="869.5" y="-367" font-family="Helvetica,sans-Serif" font-size="10.00"> </text>
</g>
<!-- Node11&#45;&gt;Node2 -->
<g id="edge12" class="edge"><title>Node11&#45;&gt;Node2</title>
<path fill="none" stroke="#404040" d="M820.578,-359.895C817.2,-357.847 813.819,-355.863 810.5,-354 732.601,-310.269 639.456,-267.722 575.336,-239.85"/>
<polygon fill="none" stroke="#404040" points="575.123,-239.757 568.028,-241.045 564.11,-234.991 571.206,-233.703 575.123,-239.757"/>
<text text-anchor="middle" x="801.5" y="-328" font-family="Helvetica,sans-Serif" font-size="10.00"> #_joint_vector</text>
</g>
</g>
</svg>
