<?xml version="1.0" encoding="UTF-8" standalone="no"?>
<!DOCTYPE svg PUBLIC "-//W3C//DTD SVG 1.1//EN"
 "http://www.w3.org/Graphics/SVG/1.1/DTD/svg11.dtd">
<!-- Generated by graphviz version 2.36.0 (20140111.2315)
 -->
<!-- Title: spdlog::sinks::sink Pages: 1 -->
<svg width="1187pt" height="746pt"
 viewBox="0.00 0.00 1187.00 746.00" xmlns="http://www.w3.org/2000/svg" xmlns:xlink="http://www.w3.org/1999/xlink">
<g id="graph0" class="graph" transform="scale(1 1) rotate(0) translate(4 742)">
<title>spdlog::sinks::sink</title>
<!-- Node1 -->
<g id="node1" class="node"><title>Node1</title>
<polygon fill="#bfbfbf" stroke="black" points="421,-614.5 421,-737.5 519,-737.5 519,-614.5 421,-614.5"/>
<text text-anchor="middle" x="470" y="-725.5" font-family="Helvetica,sans-Serif" font-size="10.00">spdlog::sinks::sink</text>
<polyline fill="none" stroke="black" points="421,-718.5 519,-718.5 "/>
<text text-anchor="middle" x="470" y="-706.5" font-family="Helvetica,sans-Serif" font-size="10.00"> </text>
<polyline fill="none" stroke="black" points="421,-699.5 519,-699.5 "/>
<text text-anchor="start" x="429" y="-687.5" font-family="Helvetica,sans-Serif" font-size="10.00">+ sink()</text>
<text text-anchor="start" x="429" y="-676.5" font-family="Helvetica,sans-Serif" font-size="10.00">+ ~sink()</text>
<text text-anchor="start" x="429" y="-665.5" font-family="Helvetica,sans-Serif" font-size="10.00">+ log()</text>
<text text-anchor="start" x="429" y="-654.5" font-family="Helvetica,sans-Serif" font-size="10.00">+ flush()</text>
<text text-anchor="start" x="429" y="-643.5" font-family="Helvetica,sans-Serif" font-size="10.00">+ should_log()</text>
<text text-anchor="start" x="429" y="-632.5" font-family="Helvetica,sans-Serif" font-size="10.00">+ set_level()</text>
<text text-anchor="start" x="429" y="-621.5" font-family="Helvetica,sans-Serif" font-size="10.00">+ level()</text>
</g>
<!-- Node2 -->
<g id="node2" class="node"><title>Node2</title>
<g id="a_node2"><a xlink:href="classspdlog_1_1sinks_1_1ansicolor__sink.html" target="_top" xlink:title="The ansi_color_sink is a decorator around another sink and prefixes the output with an ANSI escape se...">
<polygon fill="none" stroke="black" points="328.5,-322.5 328.5,-577.5 471.5,-577.5 471.5,-322.5 328.5,-322.5"/>
<text text-anchor="middle" x="400" y="-565.5" font-family="Helvetica,sans-Serif" font-size="10.00">spdlog::sinks::ansicolor_sink</text>
<polyline fill="none" stroke="black" points="328.5,-558.5 471.5,-558.5 "/>
<text text-anchor="start" x="336.5" y="-546.5" font-family="Helvetica,sans-Serif" font-size="10.00">+ reset</text>
<text text-anchor="start" x="336.5" y="-535.5" font-family="Helvetica,sans-Serif" font-size="10.00">+ bold</text>
<text text-anchor="start" x="336.5" y="-524.5" font-family="Helvetica,sans-Serif" font-size="10.00">+ dark</text>
<text text-anchor="start" x="336.5" y="-513.5" font-family="Helvetica,sans-Serif" font-size="10.00">+ underline</text>
<text text-anchor="start" x="336.5" y="-502.5" font-family="Helvetica,sans-Serif" font-size="10.00">+ blink</text>
<text text-anchor="start" x="336.5" y="-491.5" font-family="Helvetica,sans-Serif" font-size="10.00">+ reverse</text>
<text text-anchor="start" x="336.5" y="-480.5" font-family="Helvetica,sans-Serif" font-size="10.00">+ concealed</text>
<text text-anchor="start" x="336.5" y="-469.5" font-family="Helvetica,sans-Serif" font-size="10.00">+ grey</text>
<text text-anchor="start" x="336.5" y="-458.5" font-family="Helvetica,sans-Serif" font-size="10.00">+ red</text>
<text text-anchor="start" x="336.5" y="-447.5" font-family="Helvetica,sans-Serif" font-size="10.00">+ green</text>
<text text-anchor="start" x="336.5" y="-436.5" font-family="Helvetica,sans-Serif" font-size="10.00">and 13 more...</text>
<text text-anchor="start" x="336.5" y="-425.5" font-family="Helvetica,sans-Serif" font-size="10.00"># sink_</text>
<text text-anchor="start" x="336.5" y="-414.5" font-family="Helvetica,sans-Serif" font-size="10.00"># colors_</text>
<polyline fill="none" stroke="black" points="328.5,-407.5 471.5,-407.5 "/>
<text text-anchor="start" x="336.5" y="-395.5" font-family="Helvetica,sans-Serif" font-size="10.00">+ ansicolor_sink()</text>
<text text-anchor="start" x="336.5" y="-384.5" font-family="Helvetica,sans-Serif" font-size="10.00">+ ~ansicolor_sink()</text>
<text text-anchor="start" x="336.5" y="-373.5" font-family="Helvetica,sans-Serif" font-size="10.00">+ ansicolor_sink()</text>
<text text-anchor="start" x="336.5" y="-362.5" font-family="Helvetica,sans-Serif" font-size="10.00">+ operator=()</text>
<text text-anchor="start" x="336.5" y="-351.5" font-family="Helvetica,sans-Serif" font-size="10.00">+ log()</text>
<text text-anchor="start" x="336.5" y="-340.5" font-family="Helvetica,sans-Serif" font-size="10.00">+ flush()</text>
<text text-anchor="start" x="336.5" y="-329.5" font-family="Helvetica,sans-Serif" font-size="10.00">+ set_color()</text>
</a>
</g>
</g>
<!-- Node1&#45;&gt;Node2 -->
<g id="edge1" class="edge"><title>Node1&#45;&gt;Node2</title>
<path fill="none" stroke="midnightblue" d="M448.04,-604.729C445.318,-596.018 442.473,-586.915 439.586,-577.675"/>
<polygon fill="none" stroke="midnightblue" points="444.733,-605.882 451.057,-614.382 451.415,-603.794 444.733,-605.882"/>
</g>
<!-- Node3 -->
<g id="node3" class="node"><title>Node3</title>
<g id="a_node3"><a xlink:href="classspdlog_1_1sinks_1_1base__sink.html" target="_top" xlink:title="{spdlog::sinks::base\l_sink\&lt; Mutex \&gt;\n|# _mutex\l|+ base_sink()\l+ ~base_sink()\l+ base_sink()\l+ operator=()\l+ log()\l# _sink_it()\l}">
<polygon fill="none" stroke="black" points="489.5,-388.5 489.5,-511.5 590.5,-511.5 590.5,-388.5 489.5,-388.5"/>
<text text-anchor="start" x="497.5" y="-499.5" font-family="Helvetica,sans-Serif" font-size="10.00">spdlog::sinks::base</text>
<text text-anchor="middle" x="540" y="-488.5" font-family="Helvetica,sans-Serif" font-size="10.00">_sink&lt; Mutex &gt;</text>
<polyline fill="none" stroke="black" points="489.5,-481.5 590.5,-481.5 "/>
<text text-anchor="start" x="497.5" y="-469.5" font-family="Helvetica,sans-Serif" font-size="10.00"># _mutex</text>
<polyline fill="none" stroke="black" points="489.5,-462.5 590.5,-462.5 "/>
<text text-anchor="start" x="497.5" y="-450.5" font-family="Helvetica,sans-Serif" font-size="10.00">+ base_sink()</text>
<text text-anchor="start" x="497.5" y="-439.5" font-family="Helvetica,sans-Serif" font-size="10.00">+ ~base_sink()</text>
<text text-anchor="start" x="497.5" y="-428.5" font-family="Helvetica,sans-Serif" font-size="10.00">+ base_sink()</text>
<text text-anchor="start" x="497.5" y="-417.5" font-family="Helvetica,sans-Serif" font-size="10.00">+ operator=()</text>
<text text-anchor="start" x="497.5" y="-406.5" font-family="Helvetica,sans-Serif" font-size="10.00">+ log()</text>
<text text-anchor="start" x="497.5" y="-395.5" font-family="Helvetica,sans-Serif" font-size="10.00"># _sink_it()</text>
</a>
</g>
</g>
<!-- Node1&#45;&gt;Node3 -->
<g id="edge2" class="edge"><title>Node1&#45;&gt;Node3</title>
<path fill="none" stroke="midnightblue" d="M492.042,-604.466C501.354,-574.668 512.091,-540.309 521.042,-511.666"/>
<polygon fill="none" stroke="midnightblue" points="488.585,-603.794 488.943,-614.382 495.267,-605.882 488.585,-603.794"/>
</g>
<!-- Node4 -->
<g id="node4" class="node"><title>Node4</title>
<g id="a_node4"><a xlink:href="classspdlog_1_1sinks_1_1daily__file__sink.html" target="_top" xlink:title="{spdlog::sinks::daily\l_file_sink\&lt; Mutex \&gt;\n||+ daily_file_sink()\l+ flush()\l# _sink_it()\l}">
<polygon fill="none" stroke="black" points="-0.5,-151 -0.5,-241 102.5,-241 102.5,-151 -0.5,-151"/>
<text text-anchor="start" x="7.5" y="-229" font-family="Helvetica,sans-Serif" font-size="10.00">spdlog::sinks::daily</text>
<text text-anchor="middle" x="51" y="-218" font-family="Helvetica,sans-Serif" font-size="10.00">_file_sink&lt; Mutex &gt;</text>
<polyline fill="none" stroke="black" points="-0.5,-211 102.5,-211 "/>
<text text-anchor="middle" x="51" y="-199" font-family="Helvetica,sans-Serif" font-size="10.00"> </text>
<polyline fill="none" stroke="black" points="-0.5,-192 102.5,-192 "/>
<text text-anchor="start" x="7.5" y="-180" font-family="Helvetica,sans-Serif" font-size="10.00">+ daily_file_sink()</text>
<text text-anchor="start" x="7.5" y="-169" font-family="Helvetica,sans-Serif" font-size="10.00">+ flush()</text>
<text text-anchor="start" x="7.5" y="-158" font-family="Helvetica,sans-Serif" font-size="10.00"># _sink_it()</text>
</a>
</g>
</g>
<!-- Node3&#45;&gt;Node4 -->
<g id="edge3" class="edge"><title>Node3&#45;&gt;Node4</title>
<path fill="none" stroke="midnightblue" d="M521.733,-378.727C512.674,-357.206 499.366,-335.636 480,-322 345.63,-227.389 253.48,-369.606 112,-286 94.4216,-275.612 80.7537,-257.936 70.8529,-241.06"/>
<polygon fill="none" stroke="midnightblue" points="518.562,-380.228 525.481,-388.252 525.076,-377.665 518.562,-380.228"/>
</g>
<!-- Node5 -->
<g id="node5" class="node"><title>Node5</title>
<g id="a_node5"><a xlink:href="classspdlog_1_1sinks_1_1dist__sink.html" target="_top" xlink:title="{spdlog::sinks::dist\l_sink\&lt; Mutex \&gt;\n|# _sinks\l|+ dist_sink()\l+ dist_sink()\l+ operator=()\l+ ~dist_sink()\l+ flush()\l+ add_sink()\l+ remove_sink()\l# _sink_it()\l}">
<polygon fill="none" stroke="black" points="121,-123.5 121,-268.5 217,-268.5 217,-123.5 121,-123.5"/>
<text text-anchor="start" x="129" y="-256.5" font-family="Helvetica,sans-Serif" font-size="10.00">spdlog::sinks::dist</text>
<text text-anchor="middle" x="169" y="-245.5" font-family="Helvetica,sans-Serif" font-size="10.00">_sink&lt; Mutex &gt;</text>
<polyline fill="none" stroke="black" points="121,-238.5 217,-238.5 "/>
<text text-anchor="start" x="129" y="-226.5" font-family="Helvetica,sans-Serif" font-size="10.00"># _sinks</text>
<polyline fill="none" stroke="black" points="121,-219.5 217,-219.5 "/>
<text text-anchor="start" x="129" y="-207.5" font-family="Helvetica,sans-Serif" font-size="10.00">+ dist_sink()</text>
<text text-anchor="start" x="129" y="-196.5" font-family="Helvetica,sans-Serif" font-size="10.00">+ dist_sink()</text>
<text text-anchor="start" x="129" y="-185.5" font-family="Helvetica,sans-Serif" font-size="10.00">+ operator=()</text>
<text text-anchor="start" x="129" y="-174.5" font-family="Helvetica,sans-Serif" font-size="10.00">+ ~dist_sink()</text>
<text text-anchor="start" x="129" y="-163.5" font-family="Helvetica,sans-Serif" font-size="10.00">+ flush()</text>
<text text-anchor="start" x="129" y="-152.5" font-family="Helvetica,sans-Serif" font-size="10.00">+ add_sink()</text>
<text text-anchor="start" x="129" y="-141.5" font-family="Helvetica,sans-Serif" font-size="10.00">+ remove_sink()</text>
<text text-anchor="start" x="129" y="-130.5" font-family="Helvetica,sans-Serif" font-size="10.00"># _sink_it()</text>
</a>
</g>
</g>
<!-- Node3&#45;&gt;Node5 -->
<g id="edge4" class="edge"><title>Node3&#45;&gt;Node5</title>
<path fill="none" stroke="midnightblue" d="M521.264,-378.918C512.183,-357.528 498.981,-335.988 480,-322 388.216,-254.357 321.931,-347.621 226,-286 218.744,-281.339 212.231,-275.39 206.433,-268.782"/>
<polygon fill="none" stroke="midnightblue" points="518.08,-380.383 525.03,-388.38 524.584,-377.794 518.08,-380.383"/>
</g>
<!-- Node6 -->
<g id="node6" class="node"><title>Node6</title>
<g id="a_node6"><a xlink:href="classspdlog_1_1sinks_1_1null__sink.html" target="_top" xlink:title="{spdlog::sinks::null\l_sink\&lt; Mutex \&gt;\n||# _sink_it()\l# flush()\l}">
<polygon fill="none" stroke="black" points="235.5,-156.5 235.5,-235.5 330.5,-235.5 330.5,-156.5 235.5,-156.5"/>
<text text-anchor="start" x="243.5" y="-223.5" font-family="Helvetica,sans-Serif" font-size="10.00">spdlog::sinks::null</text>
<text text-anchor="middle" x="283" y="-212.5" font-family="Helvetica,sans-Serif" font-size="10.00">_sink&lt; Mutex &gt;</text>
<polyline fill="none" stroke="black" points="235.5,-205.5 330.5,-205.5 "/>
<text text-anchor="middle" x="283" y="-193.5" font-family="Helvetica,sans-Serif" font-size="10.00"> </text>
<polyline fill="none" stroke="black" points="235.5,-186.5 330.5,-186.5 "/>
<text text-anchor="start" x="243.5" y="-174.5" font-family="Helvetica,sans-Serif" font-size="10.00"># _sink_it()</text>
<text text-anchor="start" x="243.5" y="-163.5" font-family="Helvetica,sans-Serif" font-size="10.00"># flush()</text>
</a>
</g>
</g>
<!-- Node3&#45;&gt;Node6 -->
<g id="edge5" class="edge"><title>Node3&#45;&gt;Node6</title>
<path fill="none" stroke="midnightblue" d="M519.831,-378.963C510.711,-358.027 497.849,-336.748 480,-322 430.473,-281.077 392.048,-323.665 340,-286 322.46,-273.307 308.979,-253.406 299.542,-235.639"/>
<polygon fill="none" stroke="midnightblue" points="516.595,-380.297 523.638,-388.213 523.069,-377.633 516.595,-380.297"/>
</g>
<!-- Node7 -->
<g id="node7" class="node"><title>Node7</title>
<g id="a_node7"><a xlink:href="classspdlog_1_1sinks_1_1ostream__sink.html" target="_top" xlink:title="{spdlog::sinks::ostream\l_sink\&lt; Mutex \&gt;\n|# _ostream\l# _force_flush\l|+ ostream_sink()\l+ ostream_sink()\l+ operator=()\l+ ~ostream_sink()\l# _sink_it()\l# flush()\l}">
<polygon fill="none" stroke="black" points="349,-129 349,-263 465,-263 465,-129 349,-129"/>
<text text-anchor="start" x="357" y="-251" font-family="Helvetica,sans-Serif" font-size="10.00">spdlog::sinks::ostream</text>
<text text-anchor="middle" x="407" y="-240" font-family="Helvetica,sans-Serif" font-size="10.00">_sink&lt; Mutex &gt;</text>
<polyline fill="none" stroke="black" points="349,-233 465,-233 "/>
<text text-anchor="start" x="357" y="-221" font-family="Helvetica,sans-Serif" font-size="10.00"># _ostream</text>
<text text-anchor="start" x="357" y="-210" font-family="Helvetica,sans-Serif" font-size="10.00"># _force_flush</text>
<polyline fill="none" stroke="black" points="349,-203 465,-203 "/>
<text text-anchor="start" x="357" y="-191" font-family="Helvetica,sans-Serif" font-size="10.00">+ ostream_sink()</text>
<text text-anchor="start" x="357" y="-180" font-family="Helvetica,sans-Serif" font-size="10.00">+ ostream_sink()</text>
<text text-anchor="start" x="357" y="-169" font-family="Helvetica,sans-Serif" font-size="10.00">+ operator=()</text>
<text text-anchor="start" x="357" y="-158" font-family="Helvetica,sans-Serif" font-size="10.00">+ ~ostream_sink()</text>
<text text-anchor="start" x="357" y="-147" font-family="Helvetica,sans-Serif" font-size="10.00"># _sink_it()</text>
<text text-anchor="start" x="357" y="-136" font-family="Helvetica,sans-Serif" font-size="10.00"># flush()</text>
</a>
</g>
</g>
<!-- Node3&#45;&gt;Node7 -->
<g id="edge6" class="edge"><title>Node3&#45;&gt;Node7</title>
<path fill="none" stroke="midnightblue" d="M508.41,-379.303C499.542,-360.536 489.672,-340.354 480,-322 469.807,-302.657 458.112,-282.025 447.111,-263.213"/>
<polygon fill="none" stroke="midnightblue" points="505.258,-380.825 512.678,-388.388 511.594,-377.849 505.258,-380.825"/>
</g>
<!-- Node8 -->
<g id="node8" class="node"><title>Node8</title>
<g id="a_node8"><a xlink:href="classspdlog_1_1sinks_1_1rotating__file__sink.html" target="_top" xlink:title="{spdlog::sinks::rotating\l_file_sink\&lt; Mutex \&gt;\n||+ rotating_file_sink()\l+ flush()\l# _sink_it()\l}">
<polygon fill="none" stroke="black" points="483.5,-151 483.5,-241 596.5,-241 596.5,-151 483.5,-151"/>
<text text-anchor="start" x="491.5" y="-229" font-family="Helvetica,sans-Serif" font-size="10.00">spdlog::sinks::rotating</text>
<text text-anchor="middle" x="540" y="-218" font-family="Helvetica,sans-Serif" font-size="10.00">_file_sink&lt; Mutex &gt;</text>
<polyline fill="none" stroke="black" points="483.5,-211 596.5,-211 "/>
<text text-anchor="middle" x="540" y="-199" font-family="Helvetica,sans-Serif" font-size="10.00"> </text>
<polyline fill="none" stroke="black" points="483.5,-192 596.5,-192 "/>
<text text-anchor="start" x="491.5" y="-180" font-family="Helvetica,sans-Serif" font-size="10.00">+ rotating_file_sink()</text>
<text text-anchor="start" x="491.5" y="-169" font-family="Helvetica,sans-Serif" font-size="10.00">+ flush()</text>
<text text-anchor="start" x="491.5" y="-158" font-family="Helvetica,sans-Serif" font-size="10.00"># _sink_it()</text>
</a>
</g>
</g>
<!-- Node3&#45;&gt;Node8 -->
<g id="edge7" class="edge"><title>Node3&#45;&gt;Node8</title>
<path fill="none" stroke="midnightblue" d="M540,-378.269C540,-334.334 540,-279.219 540,-241.365"/>
<polygon fill="none" stroke="midnightblue" points="536.5,-378.319 540,-388.319 543.5,-378.319 536.5,-378.319"/>
</g>
<!-- Node9 -->
<g id="node9" class="node"><title>Node9</title>
<g id="a_node9"><a xlink:href="classspdlog_1_1sinks_1_1simple__file__sink.html" target="_top" xlink:title="{spdlog::sinks::simple\l_file_sink\&lt; Mutex \&gt;\n||+ simple_file_sink()\l+ flush()\l+ set_force_flush()\l# _sink_it()\l}">
<polygon fill="none" stroke="black" points="614.5,-145.5 614.5,-246.5 723.5,-246.5 723.5,-145.5 614.5,-145.5"/>
<text text-anchor="start" x="622.5" y="-234.5" font-family="Helvetica,sans-Serif" font-size="10.00">spdlog::sinks::simple</text>
<text text-anchor="middle" x="669" y="-223.5" font-family="Helvetica,sans-Serif" font-size="10.00">_file_sink&lt; Mutex &gt;</text>
<polyline fill="none" stroke="black" points="614.5,-216.5 723.5,-216.5 "/>
<text text-anchor="middle" x="669" y="-204.5" font-family="Helvetica,sans-Serif" font-size="10.00"> </text>
<polyline fill="none" stroke="black" points="614.5,-197.5 723.5,-197.5 "/>
<text text-anchor="start" x="622.5" y="-185.5" font-family="Helvetica,sans-Serif" font-size="10.00">+ simple_file_sink()</text>
<text text-anchor="start" x="622.5" y="-174.5" font-family="Helvetica,sans-Serif" font-size="10.00">+ flush()</text>
<text text-anchor="start" x="622.5" y="-163.5" font-family="Helvetica,sans-Serif" font-size="10.00">+ set_force_flush()</text>
<text text-anchor="start" x="622.5" y="-152.5" font-family="Helvetica,sans-Serif" font-size="10.00"># _sink_it()</text>
</a>
</g>
</g>
<!-- Node3&#45;&gt;Node9 -->
<g id="edge8" class="edge"><title>Node3&#45;&gt;Node9</title>
<path fill="none" stroke="midnightblue" d="M575.716,-379.228C597.276,-337.111 624.234,-284.45 643.618,-246.584"/>
<polygon fill="none" stroke="midnightblue" points="572.504,-377.823 571.063,-388.319 578.735,-381.012 572.504,-377.823"/>
</g>
<!-- Node10 -->
<g id="node10" class="node"><title>Node10</title>
<g id="a_node10"><a xlink:href="classspdlog_1_1sinks_1_1stderr__sink.html" target="_top" xlink:title="{spdlog::sinks::stderr\l_sink\&lt; Mutex \&gt;\n||+ stderr_sink()\l+ _sink_it()\l+ flush()\l+ instance()\l}">
<polygon fill="none" stroke="black" points="741.5,-145.5 741.5,-246.5 846.5,-246.5 846.5,-145.5 741.5,-145.5"/>
<text text-anchor="start" x="749.5" y="-234.5" font-family="Helvetica,sans-Serif" font-size="10.00">spdlog::sinks::stderr</text>
<text text-anchor="middle" x="794" y="-223.5" font-family="Helvetica,sans-Serif" font-size="10.00">_sink&lt; Mutex &gt;</text>
<polyline fill="none" stroke="black" points="741.5,-216.5 846.5,-216.5 "/>
<text text-anchor="middle" x="794" y="-204.5" font-family="Helvetica,sans-Serif" font-size="10.00"> </text>
<polyline fill="none" stroke="black" points="741.5,-197.5 846.5,-197.5 "/>
<text text-anchor="start" x="749.5" y="-185.5" font-family="Helvetica,sans-Serif" font-size="10.00">+ stderr_sink()</text>
<text text-anchor="start" x="749.5" y="-174.5" font-family="Helvetica,sans-Serif" font-size="10.00">+ _sink_it()</text>
<text text-anchor="start" x="749.5" y="-163.5" font-family="Helvetica,sans-Serif" font-size="10.00">+ flush()</text>
<text text-anchor="start" x="749.5" y="-152.5" font-family="Helvetica,sans-Serif" font-size="10.00">+ instance()</text>
</a>
</g>
</g>
<!-- Node3&#45;&gt;Node10 -->
<g id="edge9" class="edge"><title>Node3&#45;&gt;Node10</title>
<path fill="none" stroke="midnightblue" d="M598.911,-405.489C638.799,-374.527 691.418,-330.652 732,-286 742.892,-274.015 753.463,-260.039 762.699,-246.762"/>
<polygon fill="none" stroke="midnightblue" points="596.638,-402.822 590.856,-411.7 600.913,-408.365 596.638,-402.822"/>
</g>
<!-- Node11 -->
<g id="node11" class="node"><title>Node11</title>
<g id="a_node11"><a xlink:href="classspdlog_1_1sinks_1_1stdout__sink.html" target="_top" xlink:title="{spdlog::sinks::stdout\l_sink\&lt; Mutex \&gt;\n||+ stdout_sink()\l+ _sink_it()\l+ flush()\l+ instance()\l}">
<polygon fill="none" stroke="black" points="864.5,-145.5 864.5,-246.5 971.5,-246.5 971.5,-145.5 864.5,-145.5"/>
<text text-anchor="start" x="872.5" y="-234.5" font-family="Helvetica,sans-Serif" font-size="10.00">spdlog::sinks::stdout</text>
<text text-anchor="middle" x="918" y="-223.5" font-family="Helvetica,sans-Serif" font-size="10.00">_sink&lt; Mutex &gt;</text>
<polyline fill="none" stroke="black" points="864.5,-216.5 971.5,-216.5 "/>
<text text-anchor="middle" x="918" y="-204.5" font-family="Helvetica,sans-Serif" font-size="10.00"> </text>
<polyline fill="none" stroke="black" points="864.5,-197.5 971.5,-197.5 "/>
<text text-anchor="start" x="872.5" y="-185.5" font-family="Helvetica,sans-Serif" font-size="10.00">+ stdout_sink()</text>
<text text-anchor="start" x="872.5" y="-174.5" font-family="Helvetica,sans-Serif" font-size="10.00">+ _sink_it()</text>
<text text-anchor="start" x="872.5" y="-163.5" font-family="Helvetica,sans-Serif" font-size="10.00">+ flush()</text>
<text text-anchor="start" x="872.5" y="-152.5" font-family="Helvetica,sans-Serif" font-size="10.00">+ instance()</text>
</a>
</g>
</g>
<!-- Node3&#45;&gt;Node11 -->
<g id="edge10" class="edge"><title>Node3&#45;&gt;Node11</title>
<path fill="none" stroke="midnightblue" d="M600.155,-427.869C667.6,-402.046 777.637,-353.33 855,-286 867.852,-274.815 879.454,-260.494 889.096,-246.625"/>
<polygon fill="none" stroke="midnightblue" points="598.637,-424.701 590.521,-431.512 601.113,-431.248 598.637,-424.701"/>
</g>
<!-- Node12 -->
<g id="node12" class="node"><title>Node12</title>
<g id="a_node12"><a xlink:href="classspdlog_1_1sinks_1_1wincolor__sink.html" target="_top" xlink:title="{spdlog::sinks::wincolor\l_sink\&lt; Mutex \&gt;\n|+ BOLD\l+ RED\l+ CYAN\l+ WHITE\l+ YELLOW\l|+ wincolor_sink()\l+ ~wincolor_sink()\l+ wincolor_sink()\l+ operator=()\l+ _sink_it()\l+ flush()\l+ set_color()\l}">
<polygon fill="none" stroke="black" points="990,-107 990,-285 1106,-285 1106,-107 990,-107"/>
<text text-anchor="start" x="998" y="-273" font-family="Helvetica,sans-Serif" font-size="10.00">spdlog::sinks::wincolor</text>
<text text-anchor="middle" x="1048" y="-262" font-family="Helvetica,sans-Serif" font-size="10.00">_sink&lt; Mutex &gt;</text>
<polyline fill="none" stroke="black" points="990,-255 1106,-255 "/>
<text text-anchor="start" x="998" y="-243" font-family="Helvetica,sans-Serif" font-size="10.00">+ BOLD</text>
<text text-anchor="start" x="998" y="-232" font-family="Helvetica,sans-Serif" font-size="10.00">+ RED</text>
<text text-anchor="start" x="998" y="-221" font-family="Helvetica,sans-Serif" font-size="10.00">+ CYAN</text>
<text text-anchor="start" x="998" y="-210" font-family="Helvetica,sans-Serif" font-size="10.00">+ WHITE</text>
<text text-anchor="start" x="998" y="-199" font-family="Helvetica,sans-Serif" font-size="10.00">+ YELLOW</text>
<polyline fill="none" stroke="black" points="990,-192 1106,-192 "/>
<text text-anchor="start" x="998" y="-180" font-family="Helvetica,sans-Serif" font-size="10.00">+ wincolor_sink()</text>
<text text-anchor="start" x="998" y="-169" font-family="Helvetica,sans-Serif" font-size="10.00">+ ~wincolor_sink()</text>
<text text-anchor="start" x="998" y="-158" font-family="Helvetica,sans-Serif" font-size="10.00">+ wincolor_sink()</text>
<text text-anchor="start" x="998" y="-147" font-family="Helvetica,sans-Serif" font-size="10.00">+ operator=()</text>
<text text-anchor="start" x="998" y="-136" font-family="Helvetica,sans-Serif" font-size="10.00">+ _sink_it()</text>
<text text-anchor="start" x="998" y="-125" font-family="Helvetica,sans-Serif" font-size="10.00">+ flush()</text>
<text text-anchor="start" x="998" y="-114" font-family="Helvetica,sans-Serif" font-size="10.00">+ set_color()</text>
</a>
</g>
</g>
<!-- Node3&#45;&gt;Node12 -->
<g id="edge11" class="edge"><title>Node3&#45;&gt;Node12</title>
<path fill="none" stroke="midnightblue" d="M600.603,-437.802C690.53,-418.851 861.417,-373.66 980,-286 983.284,-283.573 986.486,-280.945 989.599,-278.165"/>
<polygon fill="none" stroke="midnightblue" points="599.658,-434.424 590.574,-439.878 601.076,-441.279 599.658,-434.424"/>
</g>
<!-- Node13 -->
<g id="node13" class="node"><title>Node13</title>
<g id="a_node13"><a xlink:href="classspdlog_1_1sinks_1_1wincolor__stderr__sink.html" target="_top" xlink:title="{spdlog::sinks::wincolor\l_stderr_sink\&lt; Mutex \&gt;\n||+ wincolor_stderr_sink()\l}">
<polygon fill="none" stroke="black" points="917.5,-1 917.5,-69 1038.5,-69 1038.5,-1 917.5,-1"/>
<text text-anchor="start" x="925.5" y="-57" font-family="Helvetica,sans-Serif" font-size="10.00">spdlog::sinks::wincolor</text>
<text text-anchor="middle" x="978" y="-46" font-family="Helvetica,sans-Serif" font-size="10.00">_stderr_sink&lt; Mutex &gt;</text>
<polyline fill="none" stroke="black" points="917.5,-39 1038.5,-39 "/>
<text text-anchor="middle" x="978" y="-27" font-family="Helvetica,sans-Serif" font-size="10.00"> </text>
<polyline fill="none" stroke="black" points="917.5,-20 1038.5,-20 "/>
<text text-anchor="start" x="925.5" y="-8" font-family="Helvetica,sans-Serif" font-size="10.00">+ wincolor_stderr_sink()</text>
</a>
</g>
</g>
<!-- Node12&#45;&gt;Node13 -->
<g id="edge12" class="edge"><title>Node12&#45;&gt;Node13</title>
<path fill="none" stroke="midnightblue" d="M1005.03,-97.3921C1000.63,-87.3964 996.404,-77.8041 992.658,-69.2938"/>
<polygon fill="none" stroke="midnightblue" points="1001.88,-98.9236 1009.11,-106.666 1008.28,-96.1031 1001.88,-98.9236"/>
</g>
<!-- Node14 -->
<g id="node14" class="node"><title>Node14</title>
<g id="a_node14"><a xlink:href="classspdlog_1_1sinks_1_1wincolor__stdout__sink.html" target="_top" xlink:title="{spdlog::sinks::wincolor\l_stdout_sink\&lt; Mutex \&gt;\n||+ wincolor_stdout_sink()\l}">
<polygon fill="none" stroke="black" points="1056.5,-1 1056.5,-69 1179.5,-69 1179.5,-1 1056.5,-1"/>
<text text-anchor="start" x="1064.5" y="-57" font-family="Helvetica,sans-Serif" font-size="10.00">spdlog::sinks::wincolor</text>
<text text-anchor="middle" x="1118" y="-46" font-family="Helvetica,sans-Serif" font-size="10.00">_stdout_sink&lt; Mutex &gt;</text>
<polyline fill="none" stroke="black" points="1056.5,-39 1179.5,-39 "/>
<text text-anchor="middle" x="1118" y="-27" font-family="Helvetica,sans-Serif" font-size="10.00"> </text>
<polyline fill="none" stroke="black" points="1056.5,-20 1179.5,-20 "/>
<text text-anchor="start" x="1064.5" y="-8" font-family="Helvetica,sans-Serif" font-size="10.00">+ wincolor_stdout_sink()</text>
</a>
</g>
</g>
<!-- Node12&#45;&gt;Node14 -->
<g id="edge13" class="edge"><title>Node12&#45;&gt;Node14</title>
<path fill="none" stroke="midnightblue" d="M1090.97,-97.3921C1095.37,-87.3964 1099.6,-77.8041 1103.34,-69.2938"/>
<polygon fill="none" stroke="midnightblue" points="1087.72,-96.1031 1086.89,-106.666 1094.12,-98.9236 1087.72,-96.1031"/>
</g>
</g>
</svg>
