<?xml version="1.0" encoding="UTF-8" standalone="no"?>
<!DOCTYPE svg PUBLIC "-//W3C//DTD SVG 1.1//EN"
 "http://www.w3.org/Graphics/SVG/1.1/DTD/svg11.dtd">
<!-- Generated by graphviz version 2.36.0 (20140111.2315)
 -->
<!-- Title: fmt::IntFormatSpec&lt; T, SpecT, Char &gt; Pages: 1 -->
<svg width="108pt" height="182pt"
 viewBox="0.00 0.00 108.00 182.00" xmlns="http://www.w3.org/2000/svg" xmlns:xlink="http://www.w3.org/1999/xlink">
<g id="graph0" class="graph" transform="scale(1 1) rotate(0) translate(4 178)">
<title>fmt::IntFormatSpec&lt; T, SpecT, Char &gt;</title>
<!-- Node1 -->
<g id="node1" class="node"><title>Node1</title>
<polygon fill="#bfbfbf" stroke="black" points="-1,-0.5 -1,-79.5 101,-79.5 101,-0.5 -1,-0.5"/>
<text text-anchor="start" x="7" y="-67.5" font-family="Helvetica,sans-Serif" font-size="10.00">fmt::IntFormatSpec</text>
<text text-anchor="middle" x="50" y="-56.5" font-family="Helvetica,sans-Serif" font-size="10.00">&lt; T, SpecT, Char &gt;</text>
<polyline fill="none" stroke="black" points="-1,-49.5 101,-49.5 "/>
<text text-anchor="middle" x="50" y="-37.5" font-family="Helvetica,sans-Serif" font-size="10.00"> </text>
<polyline fill="none" stroke="black" points="-1,-30.5 101,-30.5 "/>
<text text-anchor="start" x="7" y="-18.5" font-family="Helvetica,sans-Serif" font-size="10.00">+ IntFormatSpec()</text>
<text text-anchor="start" x="7" y="-7.5" font-family="Helvetica,sans-Serif" font-size="10.00">+ value()</text>
</g>
<!-- Node2 -->
<g id="node2" class="node"><title>Node2</title>
<polygon fill="none" stroke="#bfbfbf" points="27.5,-116.5 27.5,-173.5 72.5,-173.5 72.5,-116.5 27.5,-116.5"/>
<text text-anchor="middle" x="50" y="-161.5" font-family="Helvetica,sans-Serif" font-size="10.00">SpecT</text>
<polyline fill="none" stroke="#bfbfbf" points="27.5,-154.5 72.5,-154.5 "/>
<text text-anchor="middle" x="50" y="-142.5" font-family="Helvetica,sans-Serif" font-size="10.00"> </text>
<polyline fill="none" stroke="#bfbfbf" points="27.5,-135.5 72.5,-135.5 "/>
<text text-anchor="middle" x="50" y="-123.5" font-family="Helvetica,sans-Serif" font-size="10.00"> </text>
</g>
<!-- Node2&#45;&gt;Node1 -->
<g id="edge1" class="edge"><title>Node2&#45;&gt;Node1</title>
<path fill="none" stroke="midnightblue" d="M50,-106.156C50,-97.4733 50,-88.2318 50,-79.5205"/>
<polygon fill="none" stroke="midnightblue" points="46.5001,-106.398 50,-116.398 53.5001,-106.398 46.5001,-106.398"/>
</g>
</g>
</svg>
