<?xml version="1.0" encoding="UTF-8" standalone="no"?>
<!DOCTYPE svg PUBLIC "-//W3C//DTD SVG 1.1//EN"
 "http://www.w3.org/Graphics/SVG/1.1/DTD/svg11.dtd">
<!-- Generated by graphviz version 2.38.0 (20140413.2041)
 -->
<!-- Title: fmt::PrintfFormatter&lt; Char, ArgFormatter &gt; Pages: 1 -->
<svg width="147pt" height="237pt"
 viewBox="0.00 0.00 147.00 237.00" xmlns="http://www.w3.org/2000/svg" xmlns:xlink="http://www.w3.org/1999/xlink">
<g id="graph0" class="graph" transform="scale(1 1) rotate(0) translate(4 233)">
<title>fmt::PrintfFormatter&lt; Char, ArgFormatter &gt;</title>
<!-- Node1 -->
<g id="node1" class="node"><title>Node1</title>
<polygon fill="#bfbfbf" stroke="black" points="10,-0.5 10,-79.5 129,-79.5 129,-0.5 10,-0.5"/>
<text text-anchor="start" x="18" y="-67.5" font-family="Helvetica,sans-Serif" font-size="10.00">fmt::PrintfFormatter</text>
<text text-anchor="middle" x="69.5" y="-56.5" font-family="Helvetica,sans-Serif" font-size="10.00">&lt; Char, ArgFormatter &gt;</text>
<polyline fill="none" stroke="black" points="10,-49.5 129,-49.5 "/>
<text text-anchor="middle" x="69.5" y="-37.5" font-family="Helvetica,sans-Serif" font-size="10.00"> </text>
<polyline fill="none" stroke="black" points="10,-30.5 129,-30.5 "/>
<text text-anchor="start" x="18" y="-18.5" font-family="Helvetica,sans-Serif" font-size="10.00">+ PrintfFormatter()</text>
<text text-anchor="start" x="18" y="-7.5" font-family="Helvetica,sans-Serif" font-size="10.00">+ format()</text>
</g>
<!-- Node2 -->
<g id="node2" class="node"><title>Node2</title>
<g id="a_node2"><a xlink:href="classfmt_1_1internal_1_1FormatterBase.html" target="_top" xlink:title="{fmt::internal::FormatterBase\n||# args()\l# FormatterBase()\l# next_arg()\l# get_arg()\l# check_no_auto_index()\l# write()\l}">
<polygon fill="none" stroke="black" points="0,-116.5 0,-228.5 139,-228.5 139,-116.5 0,-116.5"/>
<text text-anchor="middle" x="69.5" y="-216.5" font-family="Helvetica,sans-Serif" font-size="10.00">fmt::internal::FormatterBase</text>
<polyline fill="none" stroke="black" points="0,-209.5 139,-209.5 "/>
<text text-anchor="middle" x="69.5" y="-197.5" font-family="Helvetica,sans-Serif" font-size="10.00"> </text>
<polyline fill="none" stroke="black" points="0,-190.5 139,-190.5 "/>
<text text-anchor="start" x="8" y="-178.5" font-family="Helvetica,sans-Serif" font-size="10.00"># args()</text>
<text text-anchor="start" x="8" y="-167.5" font-family="Helvetica,sans-Serif" font-size="10.00"># FormatterBase()</text>
<text text-anchor="start" x="8" y="-156.5" font-family="Helvetica,sans-Serif" font-size="10.00"># next_arg()</text>
<text text-anchor="start" x="8" y="-145.5" font-family="Helvetica,sans-Serif" font-size="10.00"># get_arg()</text>
<text text-anchor="start" x="8" y="-134.5" font-family="Helvetica,sans-Serif" font-size="10.00"># check_no_auto_index()</text>
<text text-anchor="start" x="8" y="-123.5" font-family="Helvetica,sans-Serif" font-size="10.00"># write()</text>
</a>
</g>
</g>
<!-- Node2&#45;&gt;Node1 -->
<g id="edge1" class="edge"><title>Node2&#45;&gt;Node1</title>
<path fill="none" stroke="#8b1a1a" d="M69.5,-106.056C69.5,-97.0806 69.5,-88.1097 69.5,-79.823"/>
<polygon fill="none" stroke="#8b1a1a" points="66.0001,-106.156 69.5,-116.156 73.0001,-106.156 66.0001,-106.156"/>
</g>
</g>
</svg>
