<?xml version="1.0" encoding="UTF-8" standalone="no"?>
<!DOCTYPE svg PUBLIC "-//W3C//DTD SVG 1.1//EN"
 "http://www.w3.org/Graphics/SVG/1.1/DTD/svg11.dtd">
<!-- Generated by graphviz version 2.36.0 (20140111.2315)
 -->
<!-- Title: XBot::KinematicChain Pages: 1 -->
<svg width="927pt" height="552pt"
 viewBox="0.00 0.00 927.00 552.00" xmlns="http://www.w3.org/2000/svg" xmlns:xlink="http://www.w3.org/1999/xlink">
<g id="graph0" class="graph" transform="scale(1 1) rotate(0) translate(4 548)">
<title>XBot::KinematicChain</title>
<!-- Node1 -->
<g id="node1" class="node"><title>Node1</title>
<polygon fill="#bfbfbf" stroke="black" points="432.5,-1 432.5,-201 563.5,-201 563.5,-1 432.5,-1"/>
<text text-anchor="middle" x="498" y="-189" font-family="Helvetica,sans-Serif" font-size="10.00">XBot::KinematicChain</text>
<polyline fill="none" stroke="black" points="432.5,-182 563.5,-182 "/>
<text text-anchor="middle" x="498" y="-170" font-family="Helvetica,sans-Serif" font-size="10.00"> </text>
<polyline fill="none" stroke="black" points="432.5,-163 563.5,-163 "/>
<text text-anchor="start" x="440.5" y="-151" font-family="Helvetica,sans-Serif" font-size="10.00">+ KinematicChain()</text>
<text text-anchor="start" x="440.5" y="-140" font-family="Helvetica,sans-Serif" font-size="10.00">+ KinematicChain()</text>
<text text-anchor="start" x="440.5" y="-129" font-family="Helvetica,sans-Serif" font-size="10.00">+ KinematicChain()</text>
<text text-anchor="start" x="440.5" y="-118" font-family="Helvetica,sans-Serif" font-size="10.00">+ KinematicChain()</text>
<text text-anchor="start" x="440.5" y="-107" font-family="Helvetica,sans-Serif" font-size="10.00">+ operator=()</text>
<text text-anchor="start" x="440.5" y="-96" font-family="Helvetica,sans-Serif" font-size="10.00">+ getChainState()</text>
<text text-anchor="start" x="440.5" y="-85" font-family="Helvetica,sans-Serif" font-size="10.00">+ getChainState()</text>
<text text-anchor="start" x="440.5" y="-74" font-family="Helvetica,sans-Serif" font-size="10.00">+ getChainState()</text>
<text text-anchor="start" x="440.5" y="-63" font-family="Helvetica,sans-Serif" font-size="10.00">+ getForceTorque()</text>
<text text-anchor="start" x="440.5" y="-52" font-family="Helvetica,sans-Serif" font-size="10.00">+ getImu()</text>
<text text-anchor="start" x="440.5" y="-41" font-family="Helvetica,sans-Serif" font-size="10.00">and 141 more...</text>
<text text-anchor="start" x="440.5" y="-30" font-family="Helvetica,sans-Serif" font-size="10.00"># getJointInternal()</text>
<text text-anchor="start" x="440.5" y="-19" font-family="Helvetica,sans-Serif" font-size="10.00"># getForceTorqueInternal()</text>
<text text-anchor="start" x="440.5" y="-8" font-family="Helvetica,sans-Serif" font-size="10.00"># getImuInternal()</text>
</g>
<!-- Node2 -->
<g id="node2" class="node"><title>Node2</title>
<polygon fill="none" stroke="#bfbfbf" points="-0.5,-250.5 -0.5,-329.5 132.5,-329.5 132.5,-250.5 -0.5,-250.5"/>
<text text-anchor="start" x="7.5" y="-317.5" font-family="Helvetica,sans-Serif" font-size="10.00">std::map&lt; std::string,</text>
<text text-anchor="start" x="7.5" y="-306.5" font-family="Helvetica,sans-Serif" font-size="10.00"> XBot::ForceTorqueSensor</text>
<text text-anchor="middle" x="66" y="-295.5" font-family="Helvetica,sans-Serif" font-size="10.00">::Ptr &gt;</text>
<polyline fill="none" stroke="#bfbfbf" points="-0.5,-288.5 132.5,-288.5 "/>
<text text-anchor="start" x="7.5" y="-276.5" font-family="Helvetica,sans-Serif" font-size="10.00">+ elements</text>
<polyline fill="none" stroke="#bfbfbf" points="-0.5,-269.5 132.5,-269.5 "/>
<text text-anchor="middle" x="66" y="-257.5" font-family="Helvetica,sans-Serif" font-size="10.00"> </text>
</g>
<!-- Node2&#45;&gt;Node1 -->
<g id="edge1" class="edge"><title>Node2&#45;&gt;Node1</title>
<path fill="none" stroke="#404040" d="M132.579,-254.453C135.753,-252.926 138.905,-251.434 142,-250 236.823,-206.046 348.416,-160.65 421.045,-131.923"/>
<polygon fill="none" stroke="#404040" points="421.196,-131.864 425.309,-125.941 432.358,-127.459 428.245,-133.382 421.196,-131.864"/>
<text text-anchor="middle" x="222" y="-223.5" font-family="Helvetica,sans-Serif" font-size="10.00"> #_ft_map</text>
</g>
<!-- Node3 -->
<g id="node3" class="node"><title>Node3</title>
<g id="a_node3"><a xlink:title="STL class. ">
<polygon fill="none" stroke="#bfbfbf" points="182,-378.5 182,-435.5 242,-435.5 242,-378.5 182,-378.5"/>
<text text-anchor="middle" x="212" y="-423.5" font-family="Helvetica,sans-Serif" font-size="10.00">std::string</text>
<polyline fill="none" stroke="#bfbfbf" points="182,-416.5 242,-416.5 "/>
<text text-anchor="middle" x="212" y="-404.5" font-family="Helvetica,sans-Serif" font-size="10.00"> </text>
<polyline fill="none" stroke="#bfbfbf" points="182,-397.5 242,-397.5 "/>
<text text-anchor="middle" x="212" y="-385.5" font-family="Helvetica,sans-Serif" font-size="10.00"> </text>
</a>
</g>
</g>
<!-- Node3&#45;&gt;Node2 -->
<g id="edge2" class="edge"><title>Node3&#45;&gt;Node2</title>
<path fill="none" stroke="#404040" d="M181.749,-382.172C165.168,-369.112 144.044,-352.473 124.393,-336.994"/>
<polygon fill="none" stroke="#404040" points="124.317,-336.935 117.129,-336.364 114.89,-329.509 122.079,-330.08 124.317,-336.935"/>
<text text-anchor="middle" x="168.5" y="-351.5" font-family="Helvetica,sans-Serif" font-size="10.00"> +keys</text>
</g>
<!-- Node5 -->
<g id="node5" class="node"><title>Node5</title>
<polygon fill="none" stroke="#bfbfbf" points="151,-256 151,-324 273,-324 273,-256 151,-256"/>
<text text-anchor="start" x="159" y="-312" font-family="Helvetica,sans-Serif" font-size="10.00">std::map&lt; std::string,</text>
<text text-anchor="middle" x="212" y="-301" font-family="Helvetica,sans-Serif" font-size="10.00"> XBot::ImuSensor::Ptr &gt;</text>
<polyline fill="none" stroke="#bfbfbf" points="151,-294 273,-294 "/>
<text text-anchor="start" x="159" y="-282" font-family="Helvetica,sans-Serif" font-size="10.00">+ elements</text>
<polyline fill="none" stroke="#bfbfbf" points="151,-275 273,-275 "/>
<text text-anchor="middle" x="212" y="-263" font-family="Helvetica,sans-Serif" font-size="10.00"> </text>
</g>
<!-- Node3&#45;&gt;Node5 -->
<g id="edge5" class="edge"><title>Node3&#45;&gt;Node5</title>
<path fill="none" stroke="#404040" d="M212,-378.455C212,-365.812 212,-350.488 212,-336.222"/>
<polygon fill="none" stroke="#404040" points="212,-336.052 208,-330.052 212,-324.052 216,-330.052 212,-336.052"/>
<text text-anchor="middle" x="227.5" y="-351.5" font-family="Helvetica,sans-Serif" font-size="10.00"> +keys</text>
</g>
<!-- Node6 -->
<g id="node6" class="node"><title>Node6</title>
<polygon fill="none" stroke="#bfbfbf" points="291,-256 291,-324 415,-324 415,-256 291,-256"/>
<text text-anchor="start" x="299" y="-312" font-family="Helvetica,sans-Serif" font-size="10.00">std::map&lt; std::string,</text>
<text text-anchor="middle" x="353" y="-301" font-family="Helvetica,sans-Serif" font-size="10.00"> XBot::XBot::Joint::Ptr &gt;</text>
<polyline fill="none" stroke="#bfbfbf" points="291,-294 415,-294 "/>
<text text-anchor="start" x="299" y="-282" font-family="Helvetica,sans-Serif" font-size="10.00">+ elements</text>
<polyline fill="none" stroke="#bfbfbf" points="291,-275 415,-275 "/>
<text text-anchor="middle" x="353" y="-263" font-family="Helvetica,sans-Serif" font-size="10.00"> </text>
</g>
<!-- Node3&#45;&gt;Node6 -->
<g id="edge7" class="edge"><title>Node3&#45;&gt;Node6</title>
<path fill="none" stroke="#404040" d="M242.248,-381.33C259.922,-366.915 282.67,-348.361 302.948,-331.822"/>
<polygon fill="none" stroke="#404040" points="303.068,-331.725 305.189,-324.833 312.367,-324.14 310.246,-331.032 303.068,-331.725"/>
<text text-anchor="middle" x="298.5" y="-351.5" font-family="Helvetica,sans-Serif" font-size="10.00"> +keys</text>
</g>
<!-- Node4 -->
<g id="node4" class="node"><title>Node4</title>
<g id="a_node4"><a xlink:title="STL class. ">
<polygon fill="none" stroke="#bfbfbf" points="164.5,-475 164.5,-543 259.5,-543 259.5,-475 164.5,-475"/>
<text text-anchor="start" x="172.5" y="-531" font-family="Helvetica,sans-Serif" font-size="10.00">std::basic_string&lt;</text>
<text text-anchor="middle" x="212" y="-520" font-family="Helvetica,sans-Serif" font-size="10.00"> char &gt;</text>
<polyline fill="none" stroke="#bfbfbf" points="164.5,-513 259.5,-513 "/>
<text text-anchor="middle" x="212" y="-501" font-family="Helvetica,sans-Serif" font-size="10.00"> </text>
<polyline fill="none" stroke="#bfbfbf" points="164.5,-494 259.5,-494 "/>
<text text-anchor="middle" x="212" y="-482" font-family="Helvetica,sans-Serif" font-size="10.00"> </text>
</a>
</g>
</g>
<!-- Node4&#45;&gt;Node3 -->
<g id="edge3" class="edge"><title>Node4&#45;&gt;Node3</title>
<path fill="none" stroke="midnightblue" d="M212,-464.857C212,-454.952 212,-444.682 212,-435.64"/>
<polygon fill="none" stroke="midnightblue" points="208.5,-464.979 212,-474.979 215.5,-464.979 208.5,-464.979"/>
</g>
<!-- Node5&#45;&gt;Node1 -->
<g id="edge4" class="edge"><title>Node5&#45;&gt;Node1</title>
<path fill="none" stroke="#404040" d="M262.473,-255.999C306.73,-227.061 371.71,-184.574 422.212,-151.554"/>
<polygon fill="none" stroke="#404040" points="422.388,-151.438 425.221,-144.807 432.432,-144.871 429.599,-151.503 422.388,-151.438"/>
<text text-anchor="middle" x="340" y="-223.5" font-family="Helvetica,sans-Serif" font-size="10.00"> #_imu_map</text>
</g>
<!-- Node6&#45;&gt;Node1 -->
<g id="edge6" class="edge"><title>Node6&#45;&gt;Node1</title>
<path fill="none" stroke="#404040" d="M378.589,-255.999C391.691,-239.102 408.375,-217.585 425.089,-196.031"/>
<polygon fill="none" stroke="#404040" points="425.145,-195.957 425.661,-188.765 432.499,-186.474 431.983,-193.667 425.145,-195.957"/>
<text text-anchor="middle" x="447.5" y="-223.5" font-family="Helvetica,sans-Serif" font-size="10.00"> #_joint_name_map</text>
</g>
<!-- Node7 -->
<g id="node7" class="node"><title>Node7</title>
<polygon fill="none" stroke="#bfbfbf" points="433,-256 433,-324 563,-324 563,-256 433,-256"/>
<text text-anchor="start" x="441" y="-312" font-family="Helvetica,sans-Serif" font-size="10.00">std::vector&lt; XBot::</text>
<text text-anchor="middle" x="498" y="-301" font-family="Helvetica,sans-Serif" font-size="10.00">ForceTorqueSensor::Ptr &gt;</text>
<polyline fill="none" stroke="#bfbfbf" points="433,-294 563,-294 "/>
<text text-anchor="start" x="441" y="-282" font-family="Helvetica,sans-Serif" font-size="10.00">+ elements</text>
<polyline fill="none" stroke="#bfbfbf" points="433,-275 563,-275 "/>
<text text-anchor="middle" x="498" y="-263" font-family="Helvetica,sans-Serif" font-size="10.00"> </text>
</g>
<!-- Node7&#45;&gt;Node1 -->
<g id="edge8" class="edge"><title>Node7&#45;&gt;Node1</title>
<path fill="none" stroke="#404040" d="M498,-255.999C498,-243.754 498,-229.083 498,-213.73"/>
<polygon fill="none" stroke="#404040" points="498,-213.305 494,-207.305 498,-201.305 502,-207.305 498,-213.305"/>
<text text-anchor="middle" x="524" y="-223.5" font-family="Helvetica,sans-Serif" font-size="10.00"> #_ft_vector</text>
</g>
<!-- Node8 -->
<g id="node8" class="node"><title>Node8</title>
<polygon fill="none" stroke="#bfbfbf" points="581,-250.5 581,-329.5 683,-329.5 683,-250.5 581,-250.5"/>
<text text-anchor="start" x="589" y="-317.5" font-family="Helvetica,sans-Serif" font-size="10.00">std::map&lt; int, XBot</text>
<text text-anchor="middle" x="632" y="-306.5" font-family="Helvetica,sans-Serif" font-size="10.00">::XBot::Joint::Ptr &gt;</text>
<polyline fill="none" stroke="#bfbfbf" points="581,-299.5 683,-299.5 "/>
<text text-anchor="start" x="589" y="-287.5" font-family="Helvetica,sans-Serif" font-size="10.00">+ keys</text>
<text text-anchor="start" x="589" y="-276.5" font-family="Helvetica,sans-Serif" font-size="10.00">+ elements</text>
<polyline fill="none" stroke="#bfbfbf" points="581,-269.5 683,-269.5 "/>
<text text-anchor="middle" x="632" y="-257.5" font-family="Helvetica,sans-Serif" font-size="10.00"> </text>
</g>
<!-- Node8&#45;&gt;Node1 -->
<g id="edge9" class="edge"><title>Node8&#45;&gt;Node1</title>
<path fill="none" stroke="#404040" d="M604.235,-250.253C594.302,-236.392 582.593,-220.052 570.643,-203.375"/>
<polygon fill="none" stroke="#404040" points="570.58,-203.288 563.834,-200.74 563.591,-193.533 570.337,-196.081 570.58,-203.288"/>
<text text-anchor="middle" x="623.5" y="-223.5" font-family="Helvetica,sans-Serif" font-size="10.00"> #_joint_id_map</text>
</g>
<!-- Node9 -->
<g id="node9" class="node"><title>Node9</title>
<polygon fill="none" stroke="#bfbfbf" points="701,-256 701,-324 801,-324 801,-256 701,-256"/>
<text text-anchor="start" x="709" y="-312" font-family="Helvetica,sans-Serif" font-size="10.00">std::vector&lt; XBot::</text>
<text text-anchor="middle" x="751" y="-301" font-family="Helvetica,sans-Serif" font-size="10.00">ImuSensor::Ptr &gt;</text>
<polyline fill="none" stroke="#bfbfbf" points="701,-294 801,-294 "/>
<text text-anchor="start" x="709" y="-282" font-family="Helvetica,sans-Serif" font-size="10.00">+ elements</text>
<polyline fill="none" stroke="#bfbfbf" points="701,-275 801,-275 "/>
<text text-anchor="middle" x="751" y="-263" font-family="Helvetica,sans-Serif" font-size="10.00"> </text>
</g>
<!-- Node9&#45;&gt;Node1 -->
<g id="edge10" class="edge"><title>Node9&#45;&gt;Node1</title>
<path fill="none" stroke="#404040" d="M708.683,-255.697C693.99,-244.266 677.35,-231.467 662,-220 633.469,-198.686 601.772,-175.718 573.909,-155.76"/>
<polygon fill="none" stroke="#404040" points="573.591,-155.532 566.383,-155.296 563.83,-148.552 571.037,-148.789 573.591,-155.532"/>
<text text-anchor="middle" x="708" y="-223.5" font-family="Helvetica,sans-Serif" font-size="10.00"> #_imu_vector</text>
</g>
<!-- Node10 -->
<g id="node10" class="node"><title>Node10</title>
<polygon fill="none" stroke="#bfbfbf" points="819,-256 819,-324 919,-324 919,-256 819,-256"/>
<text text-anchor="start" x="827" y="-312" font-family="Helvetica,sans-Serif" font-size="10.00">std::vector&lt; XBot::</text>
<text text-anchor="middle" x="869" y="-301" font-family="Helvetica,sans-Serif" font-size="10.00">XBot::Joint::Ptr &gt;</text>
<polyline fill="none" stroke="#bfbfbf" points="819,-294 919,-294 "/>
<text text-anchor="start" x="827" y="-282" font-family="Helvetica,sans-Serif" font-size="10.00">+ elements</text>
<polyline fill="none" stroke="#bfbfbf" points="819,-275 919,-275 "/>
<text text-anchor="middle" x="869" y="-263" font-family="Helvetica,sans-Serif" font-size="10.00"> </text>
</g>
<!-- Node10&#45;&gt;Node1 -->
<g id="edge11" class="edge"><title>Node10&#45;&gt;Node1</title>
<path fill="none" stroke="#404040" d="M820.069,-255.91C816.693,-253.859 813.315,-251.87 810,-250 732.043,-206.035 638.907,-163.017 574.806,-134.792"/>
<polygon fill="none" stroke="#404040" points="574.573,-134.69 567.472,-135.944 563.583,-129.871 570.685,-128.617 574.573,-134.69"/>
<text text-anchor="middle" x="810" y="-223.5" font-family="Helvetica,sans-Serif" font-size="10.00"> #_joint_vector</text>
</g>
</g>
</svg>
