<?xml version="1.0" encoding="UTF-8" standalone="no"?>
<!DOCTYPE svg PUBLIC "-//W3C//DTD SVG 1.1//EN"
 "http://www.w3.org/Graphics/SVG/1.1/DTD/svg11.dtd">
<!-- Generated by graphviz version 2.36.0 (20140111.2315)
 -->
<!-- Title: fmt::internal::FormatBuf&lt; Char &gt; Pages: 1 -->
<svg width="126pt" height="206pt"
 viewBox="0.00 0.00 126.00 206.00" xmlns="http://www.w3.org/2000/svg" xmlns:xlink="http://www.w3.org/1999/xlink">
<g id="graph0" class="graph" transform="scale(1 1) rotate(0) translate(4 202)">
<title>fmt::internal::FormatBuf&lt; Char &gt;</title>
<!-- Node1 -->
<g id="node1" class="node"><title>Node1</title>
<polygon fill="#bfbfbf" stroke="black" points="-1,-1 -1,-91 119,-91 119,-1 -1,-1"/>
<text text-anchor="start" x="7" y="-79" font-family="Helvetica,sans-Serif" font-size="10.00">fmt::internal::FormatBuf</text>
<text text-anchor="middle" x="59" y="-68" font-family="Helvetica,sans-Serif" font-size="10.00">&lt; Char &gt;</text>
<polyline fill="none" stroke="black" points="-1,-61 119,-61 "/>
<text text-anchor="middle" x="59" y="-49" font-family="Helvetica,sans-Serif" font-size="10.00"> </text>
<polyline fill="none" stroke="black" points="-1,-42 119,-42 "/>
<text text-anchor="start" x="7" y="-30" font-family="Helvetica,sans-Serif" font-size="10.00">+ FormatBuf()</text>
<text text-anchor="start" x="7" y="-19" font-family="Helvetica,sans-Serif" font-size="10.00">+ overflow()</text>
<text text-anchor="start" x="7" y="-8" font-family="Helvetica,sans-Serif" font-size="10.00">+ size()</text>
</g>
<!-- Node2 -->
<g id="node2" class="node"><title>Node2</title>
<polygon fill="none" stroke="#bfbfbf" points="5,-129 5,-197 113,-197 113,-129 5,-129"/>
<text text-anchor="start" x="13" y="-185" font-family="Helvetica,sans-Serif" font-size="10.00">std::basic_streambuf</text>
<text text-anchor="middle" x="59" y="-174" font-family="Helvetica,sans-Serif" font-size="10.00">&lt; Char &gt;</text>
<polyline fill="none" stroke="#bfbfbf" points="5,-167 113,-167 "/>
<text text-anchor="middle" x="59" y="-155" font-family="Helvetica,sans-Serif" font-size="10.00"> </text>
<polyline fill="none" stroke="#bfbfbf" points="5,-148 113,-148 "/>
<text text-anchor="middle" x="59" y="-136" font-family="Helvetica,sans-Serif" font-size="10.00"> </text>
</g>
<!-- Node2&#45;&gt;Node1 -->
<g id="edge1" class="edge"><title>Node2&#45;&gt;Node1</title>
<path fill="none" stroke="midnightblue" d="M59,-118.555C59,-109.646 59,-100.257 59,-91.3181"/>
<polygon fill="none" stroke="midnightblue" points="55.5001,-118.737 59,-128.737 62.5001,-118.737 55.5001,-118.737"/>
</g>
</g>
</svg>
