<?xml version="1.0" encoding="UTF-8" standalone="no"?>
<!DOCTYPE svg PUBLIC "-//W3C//DTD SVG 1.1//EN"
 "http://www.w3.org/Graphics/SVG/1.1/DTD/svg11.dtd">
<!-- Generated by graphviz version 2.36.0 (20140111.2315)
 -->
<!-- Title: XBot::SPDFileLogger Pages: 1 -->
<svg width="133pt" height="604pt"
 viewBox="0.00 0.00 133.00 604.00" xmlns="http://www.w3.org/2000/svg" xmlns:xlink="http://www.w3.org/1999/xlink">
<g id="graph0" class="graph" transform="scale(1 1) rotate(0) translate(4 600)">
<title>XBot::SPDFileLogger</title>
<!-- Node1 -->
<g id="node1" class="node"><title>Node1</title>
<polygon fill="#bfbfbf" stroke="black" points="0,-1 0,-91 110,-91 110,-1 0,-1"/>
<text text-anchor="middle" x="55" y="-79" font-family="Helvetica,sans-Serif" font-size="10.00">XBot::SPDFileLogger</text>
<polyline fill="none" stroke="black" points="0,-72 110,-72 "/>
<text text-anchor="middle" x="55" y="-60" font-family="Helvetica,sans-Serif" font-size="10.00"> </text>
<polyline fill="none" stroke="black" points="0,-53 110,-53 "/>
<text text-anchor="start" x="8" y="-41" font-family="Helvetica,sans-Serif" font-size="10.00">+ SPDFileLogger()</text>
<text text-anchor="start" x="8" y="-30" font-family="Helvetica,sans-Serif" font-size="10.00"># info_internal()</text>
<text text-anchor="start" x="8" y="-19" font-family="Helvetica,sans-Serif" font-size="10.00"># warning_internal()</text>
<text text-anchor="start" x="8" y="-8" font-family="Helvetica,sans-Serif" font-size="10.00"># error_internal()</text>
</g>
<!-- Node2 -->
<g id="node2" class="node"><title>Node2</title>
<g id="a_node2"><a xlink:href="classXBot_1_1SSFileLogger.html" target="_top" xlink:title="{XBot::SSFileLogger\n||+ SSFileLogger()\l}">
<polygon fill="none" stroke="black" points="3.5,-130.5 3.5,-187.5 106.5,-187.5 106.5,-130.5 3.5,-130.5"/>
<text text-anchor="middle" x="55" y="-175.5" font-family="Helvetica,sans-Serif" font-size="10.00">XBot::SSFileLogger</text>
<polyline fill="none" stroke="black" points="3.5,-168.5 106.5,-168.5 "/>
<text text-anchor="middle" x="55" y="-156.5" font-family="Helvetica,sans-Serif" font-size="10.00"> </text>
<polyline fill="none" stroke="black" points="3.5,-149.5 106.5,-149.5 "/>
<text text-anchor="start" x="11.5" y="-137.5" font-family="Helvetica,sans-Serif" font-size="10.00">+ SSFileLogger()</text>
</a>
</g>
</g>
<!-- Node2&#45;&gt;Node1 -->
<g id="edge1" class="edge"><title>Node2&#45;&gt;Node1</title>
<path fill="none" stroke="midnightblue" d="M55,-120.141C55,-110.828 55,-100.776 55,-91.1941"/>
<polygon fill="none" stroke="midnightblue" points="51.5001,-120.276 55,-130.276 58.5001,-120.276 51.5001,-120.276"/>
</g>
<!-- Node3 -->
<g id="node3" class="node"><title>Node3</title>
<g id="a_node3"><a xlink:href="classXBot_1_1SSLogger.html" target="_top" xlink:title="String Stream Logger. ">
<polygon fill="none" stroke="black" points="3,-226.5 3,-371.5 107,-371.5 107,-226.5 3,-226.5"/>
<text text-anchor="middle" x="55" y="-359.5" font-family="Helvetica,sans-Serif" font-size="10.00">XBot::SSLogger</text>
<polyline fill="none" stroke="black" points="3,-352.5 107,-352.5 "/>
<text text-anchor="start" x="11" y="-340.5" font-family="Helvetica,sans-Serif" font-size="10.00"># _log_file_size</text>
<text text-anchor="start" x="11" y="-329.5" font-family="Helvetica,sans-Serif" font-size="10.00"># _log_max_files</text>
<polyline fill="none" stroke="black" points="3,-322.5 107,-322.5 "/>
<text text-anchor="start" x="11" y="-310.5" font-family="Helvetica,sans-Serif" font-size="10.00">+ SSLogger()</text>
<text text-anchor="start" x="11" y="-299.5" font-family="Helvetica,sans-Serif" font-size="10.00">+ setSeverityLevel()</text>
<text text-anchor="start" x="11" y="-288.5" font-family="Helvetica,sans-Serif" font-size="10.00">+ setHeader()</text>
<text text-anchor="start" x="11" y="-277.5" font-family="Helvetica,sans-Serif" font-size="10.00">+ log()</text>
<text text-anchor="start" x="11" y="-266.5" font-family="Helvetica,sans-Serif" font-size="10.00">+ endl()</text>
<text text-anchor="start" x="11" y="-255.5" font-family="Helvetica,sans-Serif" font-size="10.00"># info_internal()</text>
<text text-anchor="start" x="11" y="-244.5" font-family="Helvetica,sans-Serif" font-size="10.00"># warning_internal()</text>
<text text-anchor="start" x="11" y="-233.5" font-family="Helvetica,sans-Serif" font-size="10.00"># error_internal()</text>
</a>
</g>
</g>
<!-- Node3&#45;&gt;Node2 -->
<g id="edge2" class="edge"><title>Node3&#45;&gt;Node2</title>
<path fill="none" stroke="midnightblue" d="M55,-215.918C55,-205.762 55,-195.999 55,-187.552"/>
<polygon fill="none" stroke="midnightblue" points="51.5001,-216.171 55,-226.171 58.5001,-216.171 51.5001,-216.171"/>
</g>
<!-- Node4 -->
<g id="node4" class="node"><title>Node4</title>
<g id="a_node4"><a xlink:title="STL class. ">
<polygon fill="none" stroke="#bfbfbf" points="25,-430.5 25,-487.5 85,-487.5 85,-430.5 25,-430.5"/>
<text text-anchor="middle" x="55" y="-475.5" font-family="Helvetica,sans-Serif" font-size="10.00">std::string</text>
<polyline fill="none" stroke="#bfbfbf" points="25,-468.5 85,-468.5 "/>
<text text-anchor="middle" x="55" y="-456.5" font-family="Helvetica,sans-Serif" font-size="10.00"> </text>
<polyline fill="none" stroke="#bfbfbf" points="25,-449.5 85,-449.5 "/>
<text text-anchor="middle" x="55" y="-437.5" font-family="Helvetica,sans-Serif" font-size="10.00"> </text>
</a>
</g>
</g>
<!-- Node4&#45;&gt;Node3 -->
<g id="edge3" class="edge"><title>Node4&#45;&gt;Node3</title>
<path fill="none" stroke="#404040" d="M55,-430.479C55,-417.317 55,-400.778 55,-383.939"/>
<polygon fill="none" stroke="#404040" points="55.0001,-383.668 51,-377.668 55,-371.668 59,-377.668 55.0001,-383.668"/>
<text text-anchor="middle" x="90" y="-404" font-family="Helvetica,sans-Serif" font-size="10.00"> #_logger_name</text>
<text text-anchor="middle" x="90" y="-393" font-family="Helvetica,sans-Serif" font-size="10.00">#_log_filename</text>
</g>
<!-- Node5 -->
<g id="node5" class="node"><title>Node5</title>
<g id="a_node5"><a xlink:title="STL class. ">
<polygon fill="none" stroke="#bfbfbf" points="7.5,-527 7.5,-595 102.5,-595 102.5,-527 7.5,-527"/>
<text text-anchor="start" x="15.5" y="-583" font-family="Helvetica,sans-Serif" font-size="10.00">std::basic_string&lt;</text>
<text text-anchor="middle" x="55" y="-572" font-family="Helvetica,sans-Serif" font-size="10.00"> char &gt;</text>
<polyline fill="none" stroke="#bfbfbf" points="7.5,-565 102.5,-565 "/>
<text text-anchor="middle" x="55" y="-553" font-family="Helvetica,sans-Serif" font-size="10.00"> </text>
<polyline fill="none" stroke="#bfbfbf" points="7.5,-546 102.5,-546 "/>
<text text-anchor="middle" x="55" y="-534" font-family="Helvetica,sans-Serif" font-size="10.00"> </text>
</a>
</g>
</g>
<!-- Node5&#45;&gt;Node4 -->
<g id="edge4" class="edge"><title>Node5&#45;&gt;Node4</title>
<path fill="none" stroke="midnightblue" d="M55,-516.857C55,-506.952 55,-496.682 55,-487.64"/>
<polygon fill="none" stroke="midnightblue" points="51.5001,-516.979 55,-526.979 58.5001,-516.979 51.5001,-516.979"/>
</g>
</g>
</svg>
