<?xml version="1.0" encoding="UTF-8" standalone="no"?>
<!DOCTYPE svg PUBLIC "-//W3C//DTD SVG 1.1//EN"
 "http://www.w3.org/Graphics/SVG/1.1/DTD/svg11.dtd">
<!-- Generated by graphviz version 2.38.0 (20140413.2041)
 -->
<!-- Title: fmt::StrFormatSpec&lt; Char &gt; Pages: 1 -->
<svg width="111pt" height="331pt"
 viewBox="0.00 0.00 111.00 331.00" xmlns="http://www.w3.org/2000/svg" xmlns:xlink="http://www.w3.org/1999/xlink">
<g id="graph0" class="graph" transform="scale(1 1) rotate(0) translate(4 327)">
<title>fmt::StrFormatSpec&lt; Char &gt;</title>
<!-- Node1 -->
<g id="node1" class="node"><title>Node1</title>
<polygon fill="#bfbfbf" stroke="black" points="0,-0.5 0,-79.5 103,-79.5 103,-0.5 0,-0.5"/>
<text text-anchor="start" x="8" y="-67.5" font-family="Helvetica,sans-Serif" font-size="10.00">fmt::StrFormatSpec</text>
<text text-anchor="middle" x="51.5" y="-56.5" font-family="Helvetica,sans-Serif" font-size="10.00">&lt; Char &gt;</text>
<polyline fill="none" stroke="black" points="0,-49.5 103,-49.5 "/>
<text text-anchor="middle" x="51.5" y="-37.5" font-family="Helvetica,sans-Serif" font-size="10.00"> </text>
<polyline fill="none" stroke="black" points="0,-30.5 103,-30.5 "/>
<text text-anchor="start" x="8" y="-18.5" font-family="Helvetica,sans-Serif" font-size="10.00">+ StrFormatSpec()</text>
<text text-anchor="start" x="8" y="-7.5" font-family="Helvetica,sans-Serif" font-size="10.00">+ str()</text>
</g>
<!-- Node2 -->
<g id="node2" class="node"><title>Node2</title>
<g id="a_node2"><a xlink:href="structfmt_1_1AlignSpec.html" target="_top" xlink:title="{fmt::AlignSpec\n|+ align_\l|+ AlignSpec()\l+ align()\l+ precision()\l}">
<polygon fill="none" stroke="black" points="11,-116.5 11,-195.5 92,-195.5 92,-116.5 11,-116.5"/>
<text text-anchor="middle" x="51.5" y="-183.5" font-family="Helvetica,sans-Serif" font-size="10.00">fmt::AlignSpec</text>
<polyline fill="none" stroke="black" points="11,-176.5 92,-176.5 "/>
<text text-anchor="start" x="19" y="-164.5" font-family="Helvetica,sans-Serif" font-size="10.00">+ align_</text>
<polyline fill="none" stroke="black" points="11,-157.5 92,-157.5 "/>
<text text-anchor="start" x="19" y="-145.5" font-family="Helvetica,sans-Serif" font-size="10.00">+ AlignSpec()</text>
<text text-anchor="start" x="19" y="-134.5" font-family="Helvetica,sans-Serif" font-size="10.00">+ align()</text>
<text text-anchor="start" x="19" y="-123.5" font-family="Helvetica,sans-Serif" font-size="10.00">+ precision()</text>
</a>
</g>
</g>
<!-- Node2&#45;&gt;Node1 -->
<g id="edge1" class="edge"><title>Node2&#45;&gt;Node1</title>
<path fill="none" stroke="midnightblue" d="M51.5,-106.146C51.5,-97.256 51.5,-88.0961 51.5,-79.5555"/>
<polygon fill="none" stroke="midnightblue" points="48.0001,-106.405 51.5,-116.405 55.0001,-106.405 48.0001,-106.405"/>
</g>
<!-- Node3 -->
<g id="node3" class="node"><title>Node3</title>
<g id="a_node3"><a xlink:href="structfmt_1_1WidthSpec.html" target="_top" xlink:title="{fmt::WidthSpec\n|+ width_\l+ fill_\l|+ WidthSpec()\l+ width()\l+ fill()\l}">
<polygon fill="none" stroke="black" points="9,-232.5 9,-322.5 94,-322.5 94,-232.5 9,-232.5"/>
<text text-anchor="middle" x="51.5" y="-310.5" font-family="Helvetica,sans-Serif" font-size="10.00">fmt::WidthSpec</text>
<polyline fill="none" stroke="black" points="9,-303.5 94,-303.5 "/>
<text text-anchor="start" x="17" y="-291.5" font-family="Helvetica,sans-Serif" font-size="10.00">+ width_</text>
<text text-anchor="start" x="17" y="-280.5" font-family="Helvetica,sans-Serif" font-size="10.00">+ fill_</text>
<polyline fill="none" stroke="black" points="9,-273.5 94,-273.5 "/>
<text text-anchor="start" x="17" y="-261.5" font-family="Helvetica,sans-Serif" font-size="10.00">+ WidthSpec()</text>
<text text-anchor="start" x="17" y="-250.5" font-family="Helvetica,sans-Serif" font-size="10.00">+ width()</text>
<text text-anchor="start" x="17" y="-239.5" font-family="Helvetica,sans-Serif" font-size="10.00">+ fill()</text>
</a>
</g>
</g>
<!-- Node3&#45;&gt;Node2 -->
<g id="edge2" class="edge"><title>Node3&#45;&gt;Node2</title>
<path fill="none" stroke="midnightblue" d="M51.5,-222.079C51.5,-213.234 51.5,-204.233 51.5,-195.858"/>
<polygon fill="none" stroke="midnightblue" points="48.0001,-222.342 51.5,-232.342 55.0001,-222.342 48.0001,-222.342"/>
</g>
</g>
</svg>
