<?xml version="1.0" encoding="UTF-8" standalone="no"?>
<!DOCTYPE svg PUBLIC "-//W3C//DTD SVG 1.1//EN"
 "http://www.w3.org/Graphics/SVG/1.1/DTD/svg11.dtd">
<!-- Generated by graphviz version 2.36.0 (20140111.2315)
 -->
<!-- Title: XBot::RobotInterface Pages: 1 -->
<svg width="1445pt" height="922pt"
 viewBox="0.00 0.00 1445.00 922.00" xmlns="http://www.w3.org/2000/svg" xmlns:xlink="http://www.w3.org/1999/xlink">
<g id="graph0" class="graph" transform="scale(1 1) rotate(0) translate(4 918)">
<title>XBot::RobotInterface</title>
<!-- Node1 -->
<g id="node1" class="node"><title>Node1</title>
<polygon fill="#bfbfbf" stroke="black" points="690.5,-0.5 690.5,-255.5 835.5,-255.5 835.5,-0.5 690.5,-0.5"/>
<text text-anchor="middle" x="763" y="-243.5" font-family="Helvetica,sans-Serif" font-size="10.00">XBot::RobotInterface</text>
<polyline fill="none" stroke="black" points="690.5,-236.5 835.5,-236.5 "/>
<text text-anchor="middle" x="763" y="-224.5" font-family="Helvetica,sans-Serif" font-size="10.00"> </text>
<polyline fill="none" stroke="black" points="690.5,-217.5 835.5,-217.5 "/>
<text text-anchor="start" x="698.5" y="-205.5" font-family="Helvetica,sans-Serif" font-size="10.00">+ RobotInterface()</text>
<text text-anchor="start" x="698.5" y="-194.5" font-family="Helvetica,sans-Serif" font-size="10.00">+ model()</text>
<text text-anchor="start" x="698.5" y="-183.5" font-family="Helvetica,sans-Serif" font-size="10.00">+ operator=()</text>
<text text-anchor="start" x="698.5" y="-172.5" font-family="Helvetica,sans-Serif" font-size="10.00">+ RobotInterface()</text>
<text text-anchor="start" x="698.5" y="-161.5" font-family="Helvetica,sans-Serif" font-size="10.00">+ getTime()</text>
<text text-anchor="start" x="698.5" y="-150.5" font-family="Helvetica,sans-Serif" font-size="10.00">+ isRunning()</text>
<text text-anchor="start" x="698.5" y="-139.5" font-family="Helvetica,sans-Serif" font-size="10.00">+ sense()</text>
<text text-anchor="start" x="698.5" y="-128.5" font-family="Helvetica,sans-Serif" font-size="10.00">+ move()</text>
<text text-anchor="start" x="698.5" y="-117.5" font-family="Helvetica,sans-Serif" font-size="10.00">+ operator()()</text>
<text text-anchor="start" x="698.5" y="-106.5" font-family="Helvetica,sans-Serif" font-size="10.00">+ chain()</text>
<text text-anchor="start" x="698.5" y="-95.5" font-family="Helvetica,sans-Serif" font-size="10.00">and 11 more...</text>
<text text-anchor="start" x="698.5" y="-84.5" font-family="Helvetica,sans-Serif" font-size="10.00">+ getRobot()</text>
<text text-anchor="start" x="698.5" y="-73.5" font-family="Helvetica,sans-Serif" font-size="10.00"># sense_internal()</text>
<text text-anchor="start" x="698.5" y="-62.5" font-family="Helvetica,sans-Serif" font-size="10.00"># read_sensors()</text>
<text text-anchor="start" x="698.5" y="-51.5" font-family="Helvetica,sans-Serif" font-size="10.00"># sense_hands()</text>
<text text-anchor="start" x="698.5" y="-40.5" font-family="Helvetica,sans-Serif" font-size="10.00"># move_internal()</text>
<text text-anchor="start" x="698.5" y="-29.5" font-family="Helvetica,sans-Serif" font-size="10.00"># move_hands()</text>
<text text-anchor="start" x="698.5" y="-18.5" font-family="Helvetica,sans-Serif" font-size="10.00"># init_robot()</text>
<text text-anchor="start" x="698.5" y="-7.5" font-family="Helvetica,sans-Serif" font-size="10.00"># set_control_mode_internal()</text>
</g>
<!-- Node2 -->
<g id="node2" class="node"><title>Node2</title>
<g id="a_node2"><a xlink:href="classXBot_1_1XBotInterface.html" target="_top" xlink:title="{XBot::XBotInterface\n|# _XBotModel\l|+ XBotInterface()\l+ XBotInterface()\l+ operator=()\l+ ~XBotInterface()\l+ init()\l+ getPathToConfig()\l+ getUrdf()\l+ getUrdfPath()\l+ getSrdf()\l+ getSrdfPath()\land 124 more...\l# getJointByNameInternal()\l# getJointByIdInternal()\l# getJointByDofIndexInternal()\l# getForceTorqueInternal()\l# getImuInternal()\l# init_internal()\l# getModelOrderedChainName()\l# computeAbsolutePath()\l}">
<polygon fill="none" stroke="black" points="684.5,-294.5 684.5,-549.5 841.5,-549.5 841.5,-294.5 684.5,-294.5"/>
<text text-anchor="middle" x="763" y="-537.5" font-family="Helvetica,sans-Serif" font-size="10.00">XBot::XBotInterface</text>
<polyline fill="none" stroke="black" points="684.5,-530.5 841.5,-530.5 "/>
<text text-anchor="start" x="692.5" y="-518.5" font-family="Helvetica,sans-Serif" font-size="10.00"># _XBotModel</text>
<polyline fill="none" stroke="black" points="684.5,-511.5 841.5,-511.5 "/>
<text text-anchor="start" x="692.5" y="-499.5" font-family="Helvetica,sans-Serif" font-size="10.00">+ XBotInterface()</text>
<text text-anchor="start" x="692.5" y="-488.5" font-family="Helvetica,sans-Serif" font-size="10.00">+ XBotInterface()</text>
<text text-anchor="start" x="692.5" y="-477.5" font-family="Helvetica,sans-Serif" font-size="10.00">+ operator=()</text>
<text text-anchor="start" x="692.5" y="-466.5" font-family="Helvetica,sans-Serif" font-size="10.00">+ ~XBotInterface()</text>
<text text-anchor="start" x="692.5" y="-455.5" font-family="Helvetica,sans-Serif" font-size="10.00">+ init()</text>
<text text-anchor="start" x="692.5" y="-444.5" font-family="Helvetica,sans-Serif" font-size="10.00">+ getPathToConfig()</text>
<text text-anchor="start" x="692.5" y="-433.5" font-family="Helvetica,sans-Serif" font-size="10.00">+ getUrdf()</text>
<text text-anchor="start" x="692.5" y="-422.5" font-family="Helvetica,sans-Serif" font-size="10.00">+ getUrdfPath()</text>
<text text-anchor="start" x="692.5" y="-411.5" font-family="Helvetica,sans-Serif" font-size="10.00">+ getSrdf()</text>
<text text-anchor="start" x="692.5" y="-400.5" font-family="Helvetica,sans-Serif" font-size="10.00">+ getSrdfPath()</text>
<text text-anchor="start" x="692.5" y="-389.5" font-family="Helvetica,sans-Serif" font-size="10.00">and 124 more...</text>
<text text-anchor="start" x="692.5" y="-378.5" font-family="Helvetica,sans-Serif" font-size="10.00"># getJointByNameInternal()</text>
<text text-anchor="start" x="692.5" y="-367.5" font-family="Helvetica,sans-Serif" font-size="10.00"># getJointByIdInternal()</text>
<text text-anchor="start" x="692.5" y="-356.5" font-family="Helvetica,sans-Serif" font-size="10.00"># getJointByDofIndexInternal()</text>
<text text-anchor="start" x="692.5" y="-345.5" font-family="Helvetica,sans-Serif" font-size="10.00"># getForceTorqueInternal()</text>
<text text-anchor="start" x="692.5" y="-334.5" font-family="Helvetica,sans-Serif" font-size="10.00"># getImuInternal()</text>
<text text-anchor="start" x="692.5" y="-323.5" font-family="Helvetica,sans-Serif" font-size="10.00"># init_internal()</text>
<text text-anchor="start" x="692.5" y="-312.5" font-family="Helvetica,sans-Serif" font-size="10.00"># getModelOrderedChainName()</text>
<text text-anchor="start" x="692.5" y="-301.5" font-family="Helvetica,sans-Serif" font-size="10.00"># computeAbsolutePath()</text>
</a>
</g>
</g>
<!-- Node2&#45;&gt;Node1 -->
<g id="edge1" class="edge"><title>Node2&#45;&gt;Node1</title>
<path fill="none" stroke="midnightblue" d="M763,-283.984C763,-274.545 763,-265.057 763,-255.676"/>
<polygon fill="none" stroke="midnightblue" points="759.5,-284.198 763,-294.198 766.5,-284.199 759.5,-284.198"/>
</g>
<!-- Node3 -->
<g id="node3" class="node"><title>Node3</title>
<polygon fill="none" stroke="#bfbfbf" points="-0.5,-614.5 -0.5,-693.5 132.5,-693.5 132.5,-614.5 -0.5,-614.5"/>
<text text-anchor="start" x="7.5" y="-681.5" font-family="Helvetica,sans-Serif" font-size="10.00">std::map&lt; std::string,</text>
<text text-anchor="start" x="7.5" y="-670.5" font-family="Helvetica,sans-Serif" font-size="10.00"> XBot::ForceTorqueSensor</text>
<text text-anchor="middle" x="66" y="-659.5" font-family="Helvetica,sans-Serif" font-size="10.00">::Ptr &gt;</text>
<polyline fill="none" stroke="#bfbfbf" points="-0.5,-652.5 132.5,-652.5 "/>
<text text-anchor="start" x="7.5" y="-640.5" font-family="Helvetica,sans-Serif" font-size="10.00">+ elements</text>
<polyline fill="none" stroke="#bfbfbf" points="-0.5,-633.5 132.5,-633.5 "/>
<text text-anchor="middle" x="66" y="-621.5" font-family="Helvetica,sans-Serif" font-size="10.00"> </text>
</g>
<!-- Node3&#45;&gt;Node2 -->
<g id="edge2" class="edge"><title>Node3&#45;&gt;Node2</title>
<path fill="none" stroke="#404040" d="M129.44,-614.412C133.652,-612.169 137.863,-610.011 142,-608 186.166,-586.529 198.41,-583.526 245,-568 393.012,-518.674 568.442,-471.976 672.472,-445.483"/>
<polygon fill="none" stroke="#404040" points="672.545,-445.464 677.376,-440.11 684.176,-442.511 679.345,-447.864 672.545,-445.464"/>
<text text-anchor="middle" x="267" y="-576.5" font-family="Helvetica,sans-Serif" font-size="10.00"> #_ft_map</text>
</g>
<!-- Node4 -->
<g id="node4" class="node"><title>Node4</title>
<g id="a_node4"><a xlink:title="STL class. ">
<polygon fill="none" stroke="#bfbfbf" points="377,-748.5 377,-805.5 437,-805.5 437,-748.5 377,-748.5"/>
<text text-anchor="middle" x="407" y="-793.5" font-family="Helvetica,sans-Serif" font-size="10.00">std::string</text>
<polyline fill="none" stroke="#bfbfbf" points="377,-786.5 437,-786.5 "/>
<text text-anchor="middle" x="407" y="-774.5" font-family="Helvetica,sans-Serif" font-size="10.00"> </text>
<polyline fill="none" stroke="#bfbfbf" points="377,-767.5 437,-767.5 "/>
<text text-anchor="middle" x="407" y="-755.5" font-family="Helvetica,sans-Serif" font-size="10.00"> </text>
</a>
</g>
</g>
<!-- Node4&#45;&gt;Node3 -->
<g id="edge3" class="edge"><title>Node4&#45;&gt;Node3</title>
<path fill="none" stroke="#404040" d="M376.732,-769.964C326.6,-759.389 223.752,-735.236 142,-700 141.155,-699.636 140.308,-699.264 139.459,-698.885"/>
<polygon fill="none" stroke="#404040" points="139.217,-698.769 132.079,-699.798 128.384,-693.606 135.522,-692.577 139.217,-698.769"/>
<text text-anchor="middle" x="236.5" y="-721.5" font-family="Helvetica,sans-Serif" font-size="10.00"> +keys</text>
</g>
<!-- Node6 -->
<g id="node6" class="node"><title>Node6</title>
<polygon fill="none" stroke="#bfbfbf" points="151,-620 151,-688 261,-688 261,-620 151,-620"/>
<text text-anchor="start" x="159" y="-676" font-family="Helvetica,sans-Serif" font-size="10.00">std::map&lt; std::string,</text>
<text text-anchor="middle" x="206" y="-665" font-family="Helvetica,sans-Serif" font-size="10.00"> int &gt;</text>
<polyline fill="none" stroke="#bfbfbf" points="151,-658 261,-658 "/>
<text text-anchor="start" x="159" y="-646" font-family="Helvetica,sans-Serif" font-size="10.00">+ elements</text>
<polyline fill="none" stroke="#bfbfbf" points="151,-639 261,-639 "/>
<text text-anchor="middle" x="206" y="-627" font-family="Helvetica,sans-Serif" font-size="10.00"> </text>
</g>
<!-- Node4&#45;&gt;Node6 -->
<g id="edge6" class="edge"><title>Node4&#45;&gt;Node6</title>
<path fill="none" stroke="#404040" d="M376.807,-760.439C348.69,-745.671 305.843,-722.454 270,-700 267.288,-698.301 264.533,-696.533 261.766,-694.724"/>
<polygon fill="none" stroke="#404040" points="261.73,-694.701 254.519,-694.698 251.748,-688.041 258.959,-688.044 261.73,-694.701"/>
<text text-anchor="middle" x="334.5" y="-721.5" font-family="Helvetica,sans-Serif" font-size="10.00"> +keys</text>
</g>
<!-- Node7 -->
<g id="node7" class="node"><title>Node7</title>
<polygon fill="none" stroke="#bfbfbf" points="279,-620 279,-688 401,-688 401,-620 279,-620"/>
<text text-anchor="start" x="287" y="-676" font-family="Helvetica,sans-Serif" font-size="10.00">std::map&lt; std::string,</text>
<text text-anchor="middle" x="340" y="-665" font-family="Helvetica,sans-Serif" font-size="10.00"> XBot::ImuSensor::Ptr &gt;</text>
<polyline fill="none" stroke="#bfbfbf" points="279,-658 401,-658 "/>
<text text-anchor="start" x="287" y="-646" font-family="Helvetica,sans-Serif" font-size="10.00">+ elements</text>
<polyline fill="none" stroke="#bfbfbf" points="279,-639 401,-639 "/>
<text text-anchor="middle" x="340" y="-627" font-family="Helvetica,sans-Serif" font-size="10.00"> </text>
</g>
<!-- Node4&#45;&gt;Node7 -->
<g id="edge8" class="edge"><title>Node4&#45;&gt;Node7</title>
<path fill="none" stroke="#404040" d="M391.629,-748.24C383.516,-733.588 373.372,-715.27 364.229,-698.757"/>
<polygon fill="none" stroke="#404040" points="364.21,-698.722 357.804,-695.411 358.397,-688.224 364.803,-691.535 364.21,-698.722"/>
<text text-anchor="middle" x="397.5" y="-721.5" font-family="Helvetica,sans-Serif" font-size="10.00"> +keys</text>
</g>
<!-- Node9 -->
<g id="node9" class="node"><title>Node9</title>
<polygon fill="none" stroke="#bfbfbf" points="419,-620 419,-688 529,-688 529,-620 419,-620"/>
<text text-anchor="start" x="427" y="-676" font-family="Helvetica,sans-Serif" font-size="10.00">std::map&lt; std::string,</text>
<text text-anchor="middle" x="474" y="-665" font-family="Helvetica,sans-Serif" font-size="10.00"> XBot::Hand::Ptr &gt;</text>
<polyline fill="none" stroke="#bfbfbf" points="419,-658 529,-658 "/>
<text text-anchor="start" x="427" y="-646" font-family="Helvetica,sans-Serif" font-size="10.00">+ elements</text>
<polyline fill="none" stroke="#bfbfbf" points="419,-639 529,-639 "/>
<text text-anchor="middle" x="474" y="-627" font-family="Helvetica,sans-Serif" font-size="10.00"> </text>
</g>
<!-- Node4&#45;&gt;Node9 -->
<g id="edge11" class="edge"><title>Node4&#45;&gt;Node9</title>
<path fill="none" stroke="#404040" d="M422.371,-748.24C430.484,-733.588 440.628,-715.27 449.771,-698.757"/>
<polygon fill="none" stroke="#404040" points="449.79,-698.722 449.197,-691.535 455.603,-688.224 456.196,-695.411 449.79,-698.722"/>
<text text-anchor="middle" x="454.5" y="-721.5" font-family="Helvetica,sans-Serif" font-size="10.00"> +keys</text>
</g>
<!-- Node14 -->
<g id="node14" class="node"><title>Node14</title>
<polygon fill="none" stroke="#bfbfbf" points="547.5,-625.5 547.5,-682.5 672.5,-682.5 672.5,-625.5 547.5,-625.5"/>
<text text-anchor="middle" x="610" y="-670.5" font-family="Helvetica,sans-Serif" font-size="10.00">std::vector&lt; std::string &gt;</text>
<polyline fill="none" stroke="#bfbfbf" points="547.5,-663.5 672.5,-663.5 "/>
<text text-anchor="middle" x="610" y="-651.5" font-family="Helvetica,sans-Serif" font-size="10.00"> </text>
<polyline fill="none" stroke="#bfbfbf" points="547.5,-644.5 672.5,-644.5 "/>
<text text-anchor="middle" x="610" y="-632.5" font-family="Helvetica,sans-Serif" font-size="10.00"> </text>
</g>
<!-- Node4&#45;&gt;Node14 -->
<g id="edge17" class="edge"><title>Node4&#45;&gt;Node14</title>
<path fill="none" stroke="#404040" d="M437.081,-758.922C463.74,-743.699 503.653,-720.689 538,-700 543.761,-696.53 549.755,-692.867 555.717,-689.191"/>
<polygon fill="none" stroke="#404040" points="556.156,-688.919 559.148,-682.359 566.355,-682.598 563.363,-689.159 556.156,-688.919"/>
<text text-anchor="middle" x="530.5" y="-721.5" font-family="Helvetica,sans-Serif" font-size="10.00"> +elements</text>
</g>
<!-- Node15 -->
<g id="node15" class="node"><title>Node15</title>
<polygon fill="none" stroke="#bfbfbf" points="691,-614.5 691,-693.5 835,-693.5 835,-614.5 691,-614.5"/>
<text text-anchor="start" x="699" y="-681.5" font-family="Helvetica,sans-Serif" font-size="10.00">std::map&lt; std::string,</text>
<text text-anchor="start" x="699" y="-670.5" font-family="Helvetica,sans-Serif" font-size="10.00"> XBot::XBot::KinematicChain</text>
<text text-anchor="middle" x="763" y="-659.5" font-family="Helvetica,sans-Serif" font-size="10.00">::Ptr &gt;</text>
<polyline fill="none" stroke="#bfbfbf" points="691,-652.5 835,-652.5 "/>
<text text-anchor="start" x="699" y="-640.5" font-family="Helvetica,sans-Serif" font-size="10.00">+ elements</text>
<polyline fill="none" stroke="#bfbfbf" points="691,-633.5 835,-633.5 "/>
<text text-anchor="middle" x="763" y="-621.5" font-family="Helvetica,sans-Serif" font-size="10.00"> </text>
</g>
<!-- Node4&#45;&gt;Node15 -->
<g id="edge19" class="edge"><title>Node4&#45;&gt;Node15</title>
<path fill="none" stroke="#404040" d="M437.349,-769.992C488.701,-759.298 595.487,-734.775 681,-700 682.203,-699.511 683.412,-699.008 684.623,-698.493"/>
<polygon fill="none" stroke="#404040" points="684.634,-698.488 688.467,-692.381 695.58,-693.57 691.746,-699.678 684.634,-698.488"/>
<text text-anchor="middle" x="646.5" y="-721.5" font-family="Helvetica,sans-Serif" font-size="10.00"> +keys</text>
</g>
<!-- Node5 -->
<g id="node5" class="node"><title>Node5</title>
<g id="a_node5"><a xlink:title="STL class. ">
<polygon fill="none" stroke="#bfbfbf" points="359.5,-845 359.5,-913 454.5,-913 454.5,-845 359.5,-845"/>
<text text-anchor="start" x="367.5" y="-901" font-family="Helvetica,sans-Serif" font-size="10.00">std::basic_string&lt;</text>
<text text-anchor="middle" x="407" y="-890" font-family="Helvetica,sans-Serif" font-size="10.00"> char &gt;</text>
<polyline fill="none" stroke="#bfbfbf" points="359.5,-883 454.5,-883 "/>
<text text-anchor="middle" x="407" y="-871" font-family="Helvetica,sans-Serif" font-size="10.00"> </text>
<polyline fill="none" stroke="#bfbfbf" points="359.5,-864 454.5,-864 "/>
<text text-anchor="middle" x="407" y="-852" font-family="Helvetica,sans-Serif" font-size="10.00"> </text>
</a>
</g>
</g>
<!-- Node5&#45;&gt;Node4 -->
<g id="edge4" class="edge"><title>Node5&#45;&gt;Node4</title>
<path fill="none" stroke="midnightblue" d="M407,-834.857C407,-824.952 407,-814.682 407,-805.64"/>
<polygon fill="none" stroke="midnightblue" points="403.5,-834.979 407,-844.979 410.5,-834.979 403.5,-834.979"/>
</g>
<!-- Node6&#45;&gt;Node2 -->
<g id="edge5" class="edge"><title>Node6&#45;&gt;Node2</title>
<path fill="none" stroke="#404040" d="M247.012,-619.906C269.838,-602.679 299.357,-582.29 328,-568 441.508,-511.373 582.246,-469.062 672.339,-445.185"/>
<polygon fill="none" stroke="#404040" points="672.554,-445.128 677.341,-439.735 684.16,-442.08 679.373,-447.473 672.554,-445.128"/>
<text text-anchor="middle" x="386" y="-576.5" font-family="Helvetica,sans-Serif" font-size="10.00"> #_joint_name_to_eigen_id</text>
</g>
<!-- Node7&#45;&gt;Node2 -->
<g id="edge7" class="edge"><title>Node7&#45;&gt;Node2</title>
<path fill="none" stroke="#404040" d="M390.521,-619.776C397.023,-615.721 403.632,-611.706 410,-608 498.025,-556.775 601.526,-503.296 673.606,-467.09"/>
<polygon fill="none" stroke="#404040" points="673.724,-467.03 677.296,-460.766 684.452,-461.653 680.881,-467.917 673.724,-467.03"/>
<text text-anchor="middle" x="504" y="-576.5" font-family="Helvetica,sans-Serif" font-size="10.00"> #_imu_map</text>
</g>
<!-- Node8 -->
<g id="node8" class="node"><title>Node8</title>
<polygon fill="none" stroke="#bfbfbf" points="853,-620 853,-688 953,-688 953,-620 853,-620"/>
<text text-anchor="middle" x="903" y="-676" font-family="Helvetica,sans-Serif" font-size="10.00">std::map&lt; int, int &gt;</text>
<polyline fill="none" stroke="#bfbfbf" points="853,-669 953,-669 "/>
<text text-anchor="start" x="861" y="-657" font-family="Helvetica,sans-Serif" font-size="10.00">+ keys</text>
<text text-anchor="start" x="861" y="-646" font-family="Helvetica,sans-Serif" font-size="10.00">+ elements</text>
<polyline fill="none" stroke="#bfbfbf" points="853,-639 953,-639 "/>
<text text-anchor="middle" x="903" y="-627" font-family="Helvetica,sans-Serif" font-size="10.00"> </text>
</g>
<!-- Node8&#45;&gt;Node2 -->
<g id="edge9" class="edge"><title>Node8&#45;&gt;Node2</title>
<path fill="none" stroke="#404040" d="M882.643,-619.556C872.614,-603.08 859.783,-582.001 846.268,-559.798"/>
<polygon fill="none" stroke="#404040" points="846.257,-559.78 839.721,-556.734 840.018,-549.529 846.554,-552.575 846.257,-559.78"/>
<text text-anchor="middle" x="912" y="-576.5" font-family="Helvetica,sans-Serif" font-size="10.00"> #_joint_id_to_eigen_id</text>
</g>
<!-- Node9&#45;&gt;Node2 -->
<g id="edge10" class="edge"><title>Node9&#45;&gt;Node2</title>
<path fill="none" stroke="#404040" d="M512.968,-619.981C531.869,-604.105 554.981,-584.899 576,-568 607.917,-542.34 643.333,-514.677 674.683,-490.462"/>
<polygon fill="none" stroke="#404040" points="674.772,-490.393 677.079,-483.561 684.273,-483.063 681.966,-489.895 674.772,-490.393"/>
<text text-anchor="middle" x="605.5" y="-576.5" font-family="Helvetica,sans-Serif" font-size="10.00"> #_hand_map</text>
</g>
<!-- Node10 -->
<g id="node10" class="node"><title>Node10</title>
<polygon fill="none" stroke="#bfbfbf" points="971,-620 971,-688 1071,-688 1071,-620 971,-620"/>
<text text-anchor="start" x="979" y="-676" font-family="Helvetica,sans-Serif" font-size="10.00">std::vector&lt; XBot::</text>
<text text-anchor="middle" x="1021" y="-665" font-family="Helvetica,sans-Serif" font-size="10.00">Joint::Ptr &gt;</text>
<polyline fill="none" stroke="#bfbfbf" points="971,-658 1071,-658 "/>
<text text-anchor="start" x="979" y="-646" font-family="Helvetica,sans-Serif" font-size="10.00">+ elements</text>
<polyline fill="none" stroke="#bfbfbf" points="971,-639 1071,-639 "/>
<text text-anchor="middle" x="1021" y="-627" font-family="Helvetica,sans-Serif" font-size="10.00"> </text>
</g>
<!-- Node10&#45;&gt;Node2 -->
<g id="edge12" class="edge"><title>Node10&#45;&gt;Node2</title>
<path fill="none" stroke="#404040" d="M1003.5,-619.848C993.78,-603.211 980.689,-583.38 966,-568 932.642,-533.073 889.826,-501.06 852.121,-476.051"/>
<polygon fill="none" stroke="#404040" points="851.675,-475.759 844.464,-475.819 841.635,-469.186 848.845,-469.126 851.675,-475.759"/>
<text text-anchor="middle" x="1035" y="-582" font-family="Helvetica,sans-Serif" font-size="10.00"> #_ordered_joint_vector</text>
<text text-anchor="middle" x="1035" y="-571" font-family="Helvetica,sans-Serif" font-size="10.00">#_joint_vector</text>
</g>
<!-- Node11 -->
<g id="node11" class="node"><title>Node11</title>
<polygon fill="none" stroke="#bfbfbf" points="1089,-614.5 1089,-693.5 1191,-693.5 1191,-614.5 1089,-614.5"/>
<text text-anchor="start" x="1097" y="-681.5" font-family="Helvetica,sans-Serif" font-size="10.00">std::map&lt; int, XBot</text>
<text text-anchor="middle" x="1140" y="-670.5" font-family="Helvetica,sans-Serif" font-size="10.00">::Hand::Ptr &gt;</text>
<polyline fill="none" stroke="#bfbfbf" points="1089,-663.5 1191,-663.5 "/>
<text text-anchor="start" x="1097" y="-651.5" font-family="Helvetica,sans-Serif" font-size="10.00">+ keys</text>
<text text-anchor="start" x="1097" y="-640.5" font-family="Helvetica,sans-Serif" font-size="10.00">+ elements</text>
<polyline fill="none" stroke="#bfbfbf" points="1089,-633.5 1191,-633.5 "/>
<text text-anchor="middle" x="1140" y="-621.5" font-family="Helvetica,sans-Serif" font-size="10.00"> </text>
</g>
<!-- Node11&#45;&gt;Node2 -->
<g id="edge13" class="edge"><title>Node11&#45;&gt;Node2</title>
<path fill="none" stroke="#404040" d="M1123.7,-614.256C1115.47,-598.308 1104.18,-580.648 1090,-568 1021.84,-507.217 924.074,-468.418 853.216,-446.404"/>
<polygon fill="none" stroke="#404040" points="853.122,-446.375 846.217,-448.456 841.641,-442.882 848.546,-440.802 853.122,-446.375"/>
<text text-anchor="middle" x="1144" y="-576.5" font-family="Helvetica,sans-Serif" font-size="10.00"> #_hand_id_map</text>
</g>
<!-- Node12 -->
<g id="node12" class="node"><title>Node12</title>
<polygon fill="none" stroke="#bfbfbf" points="1209,-614.5 1209,-693.5 1311,-693.5 1311,-614.5 1209,-614.5"/>
<text text-anchor="start" x="1217" y="-681.5" font-family="Helvetica,sans-Serif" font-size="10.00">std::map&lt; int, XBot</text>
<text text-anchor="middle" x="1260" y="-670.5" font-family="Helvetica,sans-Serif" font-size="10.00">::ImuSensor::Ptr &gt;</text>
<polyline fill="none" stroke="#bfbfbf" points="1209,-663.5 1311,-663.5 "/>
<text text-anchor="start" x="1217" y="-651.5" font-family="Helvetica,sans-Serif" font-size="10.00">+ keys</text>
<text text-anchor="start" x="1217" y="-640.5" font-family="Helvetica,sans-Serif" font-size="10.00">+ elements</text>
<polyline fill="none" stroke="#bfbfbf" points="1209,-633.5 1311,-633.5 "/>
<text text-anchor="middle" x="1260" y="-621.5" font-family="Helvetica,sans-Serif" font-size="10.00"> </text>
</g>
<!-- Node12&#45;&gt;Node2 -->
<g id="edge14" class="edge"><title>Node12&#45;&gt;Node2</title>
<path fill="none" stroke="#404040" d="M1232.44,-614.22C1219.32,-598.073 1202.47,-580.27 1184,-568 1081.25,-499.727 943.002,-460.227 853.444,-440.157"/>
<polygon fill="none" stroke="#404040" points="853.403,-440.149 846.684,-442.766 841.683,-437.571 848.402,-434.953 853.403,-440.149"/>
<text text-anchor="middle" x="1244.5" y="-576.5" font-family="Helvetica,sans-Serif" font-size="10.00"> #_imu_id_map</text>
</g>
<!-- Node13 -->
<g id="node13" class="node"><title>Node13</title>
<polygon fill="none" stroke="#bfbfbf" points="1329,-609 1329,-699 1437,-699 1437,-609 1329,-609"/>
<text text-anchor="start" x="1337" y="-687" font-family="Helvetica,sans-Serif" font-size="10.00">std::map&lt; int, XBot</text>
<text text-anchor="start" x="1337" y="-676" font-family="Helvetica,sans-Serif" font-size="10.00">::ForceTorqueSensor</text>
<text text-anchor="middle" x="1383" y="-665" font-family="Helvetica,sans-Serif" font-size="10.00">::Ptr &gt;</text>
<polyline fill="none" stroke="#bfbfbf" points="1329,-658 1437,-658 "/>
<text text-anchor="start" x="1337" y="-646" font-family="Helvetica,sans-Serif" font-size="10.00">+ keys</text>
<text text-anchor="start" x="1337" y="-635" font-family="Helvetica,sans-Serif" font-size="10.00">+ elements</text>
<polyline fill="none" stroke="#bfbfbf" points="1329,-628 1437,-628 "/>
<text text-anchor="middle" x="1383" y="-616" font-family="Helvetica,sans-Serif" font-size="10.00"> </text>
</g>
<!-- Node13&#45;&gt;Node2 -->
<g id="edge15" class="edge"><title>Node13&#45;&gt;Node2</title>
<path fill="none" stroke="#404040" d="M1338.77,-608.703C1322.11,-594.017 1302.26,-578.705 1282,-568 1142.21,-494.153 960.824,-454.617 853.669,-436.273"/>
<polygon fill="none" stroke="#404040" points="853.451,-436.236 846.87,-439.186 841.617,-434.246 848.198,-431.296 853.451,-436.236"/>
<text text-anchor="middle" x="1344.5" y="-576.5" font-family="Helvetica,sans-Serif" font-size="10.00"> #_ft_id_map</text>
</g>
<!-- Node14&#45;&gt;Node2 -->
<g id="edge16" class="edge"><title>Node14&#45;&gt;Node2</title>
<path fill="none" stroke="#404040" d="M621.131,-625.402C628.448,-608.369 638.731,-586.343 650,-568 658.188,-554.673 667.382,-541.135 676.897,-527.955"/>
<polygon fill="none" stroke="#404040" points="677.131,-527.634 677.451,-520.43 684.224,-517.955 683.904,-525.159 677.131,-527.634"/>
<text text-anchor="middle" x="704.5" y="-576.5" font-family="Helvetica,sans-Serif" font-size="10.00"> #_ordered_chain_names</text>
</g>
<!-- Node15&#45;&gt;Node2 -->
<g id="edge18" class="edge"><title>Node15&#45;&gt;Node2</title>
<path fill="none" stroke="#404040" d="M763,-614.244C763,-599.189 763,-580.961 763,-561.812"/>
<polygon fill="none" stroke="#404040" points="763,-561.791 759,-555.791 763,-549.791 767,-555.791 763,-561.791"/>
<text text-anchor="middle" x="793.5" y="-576.5" font-family="Helvetica,sans-Serif" font-size="10.00"> #_chain_map</text>
</g>
</g>
</svg>
