<?xml version="1.0" encoding="UTF-8" standalone="no"?>
<!DOCTYPE svg PUBLIC "-//W3C//DTD SVG 1.1//EN"
 "http://www.w3.org/Graphics/SVG/1.1/DTD/svg11.dtd">
<!-- Generated by graphviz version 2.38.0 (20140413.2041)
 -->
<!-- Title: fmt::internal::MakeValue&lt; Formatter &gt; Pages: 1 -->
<svg width="646pt" height="625pt"
 viewBox="0.00 0.00 646.00 625.00" xmlns="http://www.w3.org/2000/svg" xmlns:xlink="http://www.w3.org/1999/xlink">
<g id="graph0" class="graph" transform="scale(1 1) rotate(0) translate(4 621)">
<title>fmt::internal::MakeValue&lt; Formatter &gt;</title>
<!-- Node1 -->
<g id="node1" class="node"><title>Node1</title>
<polygon fill="#bfbfbf" stroke="black" points="246.5,-0.5 246.5,-211.5 369.5,-211.5 369.5,-0.5 246.5,-0.5"/>
<text text-anchor="start" x="254.5" y="-199.5" font-family="Helvetica,sans-Serif" font-size="10.00">fmt::internal::MakeValue</text>
<text text-anchor="middle" x="308" y="-188.5" font-family="Helvetica,sans-Serif" font-size="10.00">&lt; Formatter &gt;</text>
<polyline fill="none" stroke="black" points="246.5,-181.5 369.5,-181.5 "/>
<text text-anchor="middle" x="308" y="-169.5" font-family="Helvetica,sans-Serif" font-size="10.00"> </text>
<polyline fill="none" stroke="black" points="246.5,-162.5 369.5,-162.5 "/>
<text text-anchor="start" x="254.5" y="-150.5" font-family="Helvetica,sans-Serif" font-size="10.00">+ MakeValue()</text>
<text text-anchor="start" x="254.5" y="-139.5" font-family="Helvetica,sans-Serif" font-size="10.00">+ MakeValue()</text>
<text text-anchor="start" x="254.5" y="-128.5" font-family="Helvetica,sans-Serif" font-size="10.00">+ MakeValue()</text>
<text text-anchor="start" x="254.5" y="-117.5" font-family="Helvetica,sans-Serif" font-size="10.00">+ MakeValue()</text>
<text text-anchor="start" x="254.5" y="-106.5" font-family="Helvetica,sans-Serif" font-size="10.00">+ MakeValue()</text>
<text text-anchor="start" x="254.5" y="-95.5" font-family="Helvetica,sans-Serif" font-size="10.00">+ MakeValue()</text>
<text text-anchor="start" x="254.5" y="-84.5" font-family="Helvetica,sans-Serif" font-size="10.00">+ MakeValue()</text>
<text text-anchor="start" x="254.5" y="-73.5" font-family="Helvetica,sans-Serif" font-size="10.00">+ MakeValue()</text>
<text text-anchor="start" x="254.5" y="-62.5" font-family="Helvetica,sans-Serif" font-size="10.00">+ type()</text>
<text text-anchor="start" x="254.5" y="-51.5" font-family="Helvetica,sans-Serif" font-size="10.00">+ type()</text>
<text text-anchor="start" x="254.5" y="-40.5" font-family="Helvetica,sans-Serif" font-size="10.00">+ type()</text>
<text text-anchor="start" x="254.5" y="-29.5" font-family="Helvetica,sans-Serif" font-size="10.00">+ type()</text>
<text text-anchor="start" x="254.5" y="-18.5" font-family="Helvetica,sans-Serif" font-size="10.00">+ type()</text>
<text text-anchor="start" x="254.5" y="-7.5" font-family="Helvetica,sans-Serif" font-size="10.00">+ type()</text>
</g>
<!-- Node2 -->
<g id="node2" class="node"><title>Node2</title>
<g id="a_node2"><a xlink:href="structfmt_1_1internal_1_1Arg.html" target="_top" xlink:title="{fmt::internal::Arg\n|+ type\l|}">
<polygon fill="none" stroke="black" points="263.5,-249.5 263.5,-306.5 352.5,-306.5 352.5,-249.5 263.5,-249.5"/>
<text text-anchor="middle" x="308" y="-294.5" font-family="Helvetica,sans-Serif" font-size="10.00">fmt::internal::Arg</text>
<polyline fill="none" stroke="black" points="263.5,-287.5 352.5,-287.5 "/>
<text text-anchor="start" x="271.5" y="-275.5" font-family="Helvetica,sans-Serif" font-size="10.00">+ type</text>
<polyline fill="none" stroke="black" points="263.5,-268.5 352.5,-268.5 "/>
<text text-anchor="middle" x="308" y="-256.5" font-family="Helvetica,sans-Serif" font-size="10.00"> </text>
</a>
</g>
</g>
<!-- Node2&#45;&gt;Node1 -->
<g id="edge1" class="edge"><title>Node2&#45;&gt;Node1</title>
<path fill="none" stroke="midnightblue" d="M308,-239.194C308,-230.797 308,-221.5 308,-211.841"/>
<polygon fill="none" stroke="midnightblue" points="304.5,-239.308 308,-249.308 311.5,-239.308 304.5,-239.308"/>
</g>
<!-- Node3 -->
<g id="node3" class="node"><title>Node3</title>
<g id="a_node3"><a xlink:href="structfmt_1_1internal_1_1Value.html" target="_top" xlink:title="{fmt::internal::Value\n|+ int_value\l+ uint_value\l+ long_long_value\l+ ulong_long_value\l+ double_value\l+ long_double_value\l+ pointer\l+ @3\l|}">
<polygon fill="none" stroke="black" points="255,-344.5 255,-478.5 361,-478.5 361,-344.5 255,-344.5"/>
<text text-anchor="middle" x="308" y="-466.5" font-family="Helvetica,sans-Serif" font-size="10.00">fmt::internal::Value</text>
<polyline fill="none" stroke="black" points="255,-459.5 361,-459.5 "/>
<text text-anchor="start" x="263" y="-447.5" font-family="Helvetica,sans-Serif" font-size="10.00">+ int_value</text>
<text text-anchor="start" x="263" y="-436.5" font-family="Helvetica,sans-Serif" font-size="10.00">+ uint_value</text>
<text text-anchor="start" x="263" y="-425.5" font-family="Helvetica,sans-Serif" font-size="10.00">+ long_long_value</text>
<text text-anchor="start" x="263" y="-414.5" font-family="Helvetica,sans-Serif" font-size="10.00">+ ulong_long_value</text>
<text text-anchor="start" x="263" y="-403.5" font-family="Helvetica,sans-Serif" font-size="10.00">+ double_value</text>
<text text-anchor="start" x="263" y="-392.5" font-family="Helvetica,sans-Serif" font-size="10.00">+ long_double_value</text>
<text text-anchor="start" x="263" y="-381.5" font-family="Helvetica,sans-Serif" font-size="10.00">+ pointer</text>
<text text-anchor="start" x="263" y="-370.5" font-family="Helvetica,sans-Serif" font-size="10.00">+ @3</text>
<polyline fill="none" stroke="black" points="255,-363.5 361,-363.5 "/>
<text text-anchor="middle" x="308" y="-351.5" font-family="Helvetica,sans-Serif" font-size="10.00"> </text>
</a>
</g>
</g>
<!-- Node3&#45;&gt;Node2 -->
<g id="edge2" class="edge"><title>Node3&#45;&gt;Node2</title>
<path fill="none" stroke="midnightblue" d="M308,-334.117C308,-324.359 308,-314.922 308,-306.697"/>
<polygon fill="none" stroke="midnightblue" points="304.5,-334.365 308,-344.365 311.5,-334.365 304.5,-334.365"/>
</g>
<!-- Node4 -->
<g id="node4" class="node"><title>Node4</title>
<g id="a_node4"><a xlink:href="structfmt_1_1internal_1_1Value_1_1StringValue.html" target="_top" xlink:title="{fmt::internal::Value\l::StringValue\&lt; signed\l char \&gt;\n|+ value\l+ size\l|}">
<polygon fill="none" stroke="black" points="0,-526.5 0,-616.5 110,-616.5 110,-526.5 0,-526.5"/>
<text text-anchor="start" x="8" y="-604.5" font-family="Helvetica,sans-Serif" font-size="10.00">fmt::internal::Value</text>
<text text-anchor="start" x="8" y="-593.5" font-family="Helvetica,sans-Serif" font-size="10.00">::StringValue&lt; signed</text>
<text text-anchor="middle" x="55" y="-582.5" font-family="Helvetica,sans-Serif" font-size="10.00"> char &gt;</text>
<polyline fill="none" stroke="black" points="0,-575.5 110,-575.5 "/>
<text text-anchor="start" x="8" y="-563.5" font-family="Helvetica,sans-Serif" font-size="10.00">+ value</text>
<text text-anchor="start" x="8" y="-552.5" font-family="Helvetica,sans-Serif" font-size="10.00">+ size</text>
<polyline fill="none" stroke="black" points="0,-545.5 110,-545.5 "/>
<text text-anchor="middle" x="55" y="-533.5" font-family="Helvetica,sans-Serif" font-size="10.00"> </text>
</a>
</g>
</g>
<!-- Node4&#45;&gt;Node3 -->
<g id="edge3" class="edge"><title>Node4&#45;&gt;Node3</title>
<path fill="none" stroke="#404040" d="M110.349,-531.679C113.263,-529.741 116.159,-527.838 119,-526 160.095,-499.416 207.294,-471.07 244.244,-449.355"/>
<polygon fill="none" stroke="#404040" points="244.519,-449.195 247.673,-442.71 254.872,-443.127 251.718,-449.612 244.519,-449.195"/>
<text text-anchor="middle" x="179.5" y="-500" font-family="Helvetica,sans-Serif" font-size="10.00"> +sstring</text>
</g>
<!-- Node5 -->
<g id="node5" class="node"><title>Node5</title>
<g id="a_node5"><a xlink:href="structfmt_1_1internal_1_1Value_1_1CustomValue.html" target="_top" xlink:title="{fmt::internal::Value\l::CustomValue\n|+ value\l+ format\l|}">
<polygon fill="none" stroke="black" points="128.5,-532 128.5,-611 227.5,-611 227.5,-532 128.5,-532"/>
<text text-anchor="start" x="136.5" y="-599" font-family="Helvetica,sans-Serif" font-size="10.00">fmt::internal::Value</text>
<text text-anchor="middle" x="178" y="-588" font-family="Helvetica,sans-Serif" font-size="10.00">::CustomValue</text>
<polyline fill="none" stroke="black" points="128.5,-581 227.5,-581 "/>
<text text-anchor="start" x="136.5" y="-569" font-family="Helvetica,sans-Serif" font-size="10.00">+ value</text>
<text text-anchor="start" x="136.5" y="-558" font-family="Helvetica,sans-Serif" font-size="10.00">+ format</text>
<polyline fill="none" stroke="black" points="128.5,-551 227.5,-551 "/>
<text text-anchor="middle" x="178" y="-539" font-family="Helvetica,sans-Serif" font-size="10.00"> </text>
</a>
</g>
</g>
<!-- Node5&#45;&gt;Node3 -->
<g id="edge4" class="edge"><title>Node5&#45;&gt;Node3</title>
<path fill="none" stroke="#404040" d="M209.802,-531.849C221.006,-518.231 234.01,-502.426 246.816,-486.862"/>
<polygon fill="none" stroke="#404040" points="247.122,-486.491 247.845,-479.316 254.746,-477.224 254.023,-484.399 247.122,-486.491"/>
<text text-anchor="middle" x="257" y="-500" font-family="Helvetica,sans-Serif" font-size="10.00"> +custom</text>
</g>
<!-- Node6 -->
<g id="node6" class="node"><title>Node6</title>
<g id="a_node6"><a xlink:href="structfmt_1_1internal_1_1Value_1_1StringValue.html" target="_top" xlink:title="{fmt::internal::Value\l::StringValue\&lt; wchar_t \&gt;\n|+ value\l+ size\l|}">
<polygon fill="none" stroke="black" points="245.5,-532 245.5,-611 370.5,-611 370.5,-532 245.5,-532"/>
<text text-anchor="start" x="253.5" y="-599" font-family="Helvetica,sans-Serif" font-size="10.00">fmt::internal::Value</text>
<text text-anchor="middle" x="308" y="-588" font-family="Helvetica,sans-Serif" font-size="10.00">::StringValue&lt; wchar_t &gt;</text>
<polyline fill="none" stroke="black" points="245.5,-581 370.5,-581 "/>
<text text-anchor="start" x="253.5" y="-569" font-family="Helvetica,sans-Serif" font-size="10.00">+ value</text>
<text text-anchor="start" x="253.5" y="-558" font-family="Helvetica,sans-Serif" font-size="10.00">+ size</text>
<polyline fill="none" stroke="black" points="245.5,-551 370.5,-551 "/>
<text text-anchor="middle" x="308" y="-539" font-family="Helvetica,sans-Serif" font-size="10.00"> </text>
</a>
</g>
</g>
<!-- Node6&#45;&gt;Node3 -->
<g id="edge5" class="edge"><title>Node6&#45;&gt;Node3</title>
<path fill="none" stroke="#404040" d="M308,-531.849C308,-519.483 308,-505.315 308,-491.161"/>
<polygon fill="none" stroke="#404040" points="308,-490.772 304,-484.772 308,-478.772 312,-484.772 308,-490.772"/>
<text text-anchor="middle" x="328.5" y="-500" font-family="Helvetica,sans-Serif" font-size="10.00"> +wstring</text>
</g>
<!-- Node7 -->
<g id="node7" class="node"><title>Node7</title>
<g id="a_node7"><a xlink:href="structfmt_1_1internal_1_1Value_1_1StringValue.html" target="_top" xlink:title="{fmt::internal::Value\l::StringValue\&lt; unsigned\l char \&gt;\n|+ value\l+ size\l|}">
<polygon fill="none" stroke="black" points="388.5,-526.5 388.5,-616.5 509.5,-616.5 509.5,-526.5 388.5,-526.5"/>
<text text-anchor="start" x="396.5" y="-604.5" font-family="Helvetica,sans-Serif" font-size="10.00">fmt::internal::Value</text>
<text text-anchor="start" x="396.5" y="-593.5" font-family="Helvetica,sans-Serif" font-size="10.00">::StringValue&lt; unsigned</text>
<text text-anchor="middle" x="449" y="-582.5" font-family="Helvetica,sans-Serif" font-size="10.00"> char &gt;</text>
<polyline fill="none" stroke="black" points="388.5,-575.5 509.5,-575.5 "/>
<text text-anchor="start" x="396.5" y="-563.5" font-family="Helvetica,sans-Serif" font-size="10.00">+ value</text>
<text text-anchor="start" x="396.5" y="-552.5" font-family="Helvetica,sans-Serif" font-size="10.00">+ size</text>
<polyline fill="none" stroke="black" points="388.5,-545.5 509.5,-545.5 "/>
<text text-anchor="middle" x="449" y="-533.5" font-family="Helvetica,sans-Serif" font-size="10.00"> </text>
</a>
</g>
</g>
<!-- Node7&#45;&gt;Node3 -->
<g id="edge6" class="edge"><title>Node7&#45;&gt;Node3</title>
<path fill="none" stroke="#404040" d="M409.724,-526.488C397.122,-512.367 382.852,-496.377 369.072,-480.935"/>
<polygon fill="none" stroke="#404040" points="369.021,-480.879 362.042,-479.065 361.031,-471.925 368.011,-473.739 369.021,-480.879"/>
<text text-anchor="middle" x="411.5" y="-500" font-family="Helvetica,sans-Serif" font-size="10.00"> +ustring</text>
</g>
<!-- Node8 -->
<g id="node8" class="node"><title>Node8</title>
<g id="a_node8"><a xlink:href="structfmt_1_1internal_1_1Value_1_1StringValue.html" target="_top" xlink:title="{fmt::internal::Value\l::StringValue\&lt; char \&gt;\n|+ value\l+ size\l|}">
<polygon fill="none" stroke="black" points="528,-532 528,-611 638,-611 638,-532 528,-532"/>
<text text-anchor="start" x="536" y="-599" font-family="Helvetica,sans-Serif" font-size="10.00">fmt::internal::Value</text>
<text text-anchor="middle" x="583" y="-588" font-family="Helvetica,sans-Serif" font-size="10.00">::StringValue&lt; char &gt;</text>
<polyline fill="none" stroke="black" points="528,-581 638,-581 "/>
<text text-anchor="start" x="536" y="-569" font-family="Helvetica,sans-Serif" font-size="10.00">+ value</text>
<text text-anchor="start" x="536" y="-558" font-family="Helvetica,sans-Serif" font-size="10.00">+ size</text>
<polyline fill="none" stroke="black" points="528,-551 638,-551 "/>
<text text-anchor="middle" x="583" y="-539" font-family="Helvetica,sans-Serif" font-size="10.00"> </text>
</a>
</g>
</g>
<!-- Node8&#45;&gt;Node3 -->
<g id="edge7" class="edge"><title>Node8&#45;&gt;Node3</title>
<path fill="none" stroke="#404040" d="M527.941,-532.227C524.6,-530.085 521.269,-527.995 518,-526 469.999,-496.708 413.886,-466.581 371.745,-444.734"/>
<polygon fill="none" stroke="#404040" points="371.735,-444.729 364.568,-445.53 361.072,-439.223 368.239,-438.422 371.735,-444.729"/>
<text text-anchor="middle" x="502" y="-500" font-family="Helvetica,sans-Serif" font-size="10.00"> +string</text>
</g>
</g>
</svg>
