<?xml version="1.0" encoding="UTF-8" standalone="no"?>
<!DOCTYPE svg PUBLIC "-//W3C//DTD SVG 1.1//EN"
 "http://www.w3.org/Graphics/SVG/1.1/DTD/svg11.dtd">
<!-- Generated by graphviz version 2.38.0 (20140413.2041)
 -->
<!-- Title: fmt::internal::CharTraits&lt; char &gt; Pages: 1 -->
<svg width="128pt" height="204pt"
 viewBox="0.00 0.00 128.00 204.00" xmlns="http://www.w3.org/2000/svg" xmlns:xlink="http://www.w3.org/1999/xlink">
<g id="graph0" class="graph" transform="scale(1 1) rotate(0) translate(4 200)">
<title>fmt::internal::CharTraits&lt; char &gt;</title>
<!-- Node1 -->
<g id="node1" class="node"><title>Node1</title>
<polygon fill="#bfbfbf" stroke="black" points="-7.10543e-15,-0.5 -7.10543e-15,-90.5 120,-90.5 120,-0.5 -7.10543e-15,-0.5"/>
<text text-anchor="start" x="8" y="-78.5" font-family="Helvetica,sans-Serif" font-size="10.00">fmt::internal::CharTraits</text>
<text text-anchor="middle" x="60" y="-67.5" font-family="Helvetica,sans-Serif" font-size="10.00">&lt; char &gt;</text>
<polyline fill="none" stroke="black" points="-7.10543e-15,-60.5 120,-60.5 "/>
<text text-anchor="middle" x="60" y="-48.5" font-family="Helvetica,sans-Serif" font-size="10.00"> </text>
<polyline fill="none" stroke="black" points="-7.10543e-15,-41.5 120,-41.5 "/>
<text text-anchor="start" x="8" y="-29.5" font-family="Helvetica,sans-Serif" font-size="10.00">+ format_float()</text>
<text text-anchor="start" x="8" y="-18.5" font-family="Helvetica,sans-Serif" font-size="10.00">+ convert()</text>
<text text-anchor="start" x="8" y="-7.5" font-family="Helvetica,sans-Serif" font-size="10.00">+ format_float()</text>
</g>
<!-- Node2 -->
<g id="node2" class="node"><title>Node2</title>
<g id="a_node2"><a xlink:href="classfmt_1_1internal_1_1BasicCharTraits.html" target="_top" xlink:title="{fmt::internal::BasicChar\lTraits\&lt; char \&gt;\n||+ cast()\l}">
<polygon fill="none" stroke="black" points="-7.10543e-15,-127.5 -7.10543e-15,-195.5 120,-195.5 120,-127.5 -7.10543e-15,-127.5"/>
<text text-anchor="start" x="8" y="-183.5" font-family="Helvetica,sans-Serif" font-size="10.00">fmt::internal::BasicChar</text>
<text text-anchor="middle" x="60" y="-172.5" font-family="Helvetica,sans-Serif" font-size="10.00">Traits&lt; char &gt;</text>
<polyline fill="none" stroke="black" points="-7.10543e-15,-165.5 120,-165.5 "/>
<text text-anchor="middle" x="60" y="-153.5" font-family="Helvetica,sans-Serif" font-size="10.00"> </text>
<polyline fill="none" stroke="black" points="-7.10543e-15,-146.5 120,-146.5 "/>
<text text-anchor="start" x="8" y="-134.5" font-family="Helvetica,sans-Serif" font-size="10.00">+ cast()</text>
</a>
</g>
</g>
<!-- Node2&#45;&gt;Node1 -->
<g id="edge1" class="edge"><title>Node2&#45;&gt;Node1</title>
<path fill="none" stroke="midnightblue" d="M60,-116.972C60,-108.346 60,-99.2838 60,-90.6378"/>
<polygon fill="none" stroke="midnightblue" points="56.5001,-117.22 60,-127.22 63.5001,-117.22 56.5001,-117.22"/>
</g>
</g>
</svg>
