<?xml version="1.0" encoding="UTF-8" standalone="no"?>
<!DOCTYPE svg PUBLIC "-//W3C//DTD SVG 1.1//EN"
 "http://www.w3.org/Graphics/SVG/1.1/DTD/svg11.dtd">
<!-- Generated by graphviz version 2.36.0 (20140111.2315)
 -->
<!-- Title: fmt::BasicWriter&lt; Char &gt; Pages: 1 -->
<svg width="259pt" height="304pt"
 viewBox="0.00 0.00 259.00 304.00" xmlns="http://www.w3.org/2000/svg" xmlns:xlink="http://www.w3.org/1999/xlink">
<g id="graph0" class="graph" transform="scale(1 1) rotate(0) translate(4 300)">
<title>fmt::BasicWriter&lt; Char &gt;</title>
<!-- Node1 -->
<g id="node1" class="node"><title>Node1</title>
<polygon fill="#bfbfbf" stroke="black" points="58.5,-117 58.5,-295 185.5,-295 185.5,-117 58.5,-117"/>
<text text-anchor="middle" x="122" y="-283" font-family="Helvetica,sans-Serif" font-size="10.00">fmt::BasicWriter&lt; Char &gt;</text>
<polyline fill="none" stroke="black" points="58.5,-276 185.5,-276 "/>
<text text-anchor="middle" x="122" y="-264" font-family="Helvetica,sans-Serif" font-size="10.00"> </text>
<polyline fill="none" stroke="black" points="58.5,-257 185.5,-257 "/>
<text text-anchor="start" x="66.5" y="-245" font-family="Helvetica,sans-Serif" font-size="10.00">+ ~BasicWriter()</text>
<text text-anchor="start" x="66.5" y="-234" font-family="Helvetica,sans-Serif" font-size="10.00">+ size()</text>
<text text-anchor="start" x="66.5" y="-223" font-family="Helvetica,sans-Serif" font-size="10.00">+ data()</text>
<text text-anchor="start" x="66.5" y="-212" font-family="Helvetica,sans-Serif" font-size="10.00">+ c_str()</text>
<text text-anchor="start" x="66.5" y="-201" font-family="Helvetica,sans-Serif" font-size="10.00">+ str()</text>
<text text-anchor="start" x="66.5" y="-190" font-family="Helvetica,sans-Serif" font-size="10.00">+ write()</text>
<text text-anchor="start" x="66.5" y="-179" font-family="Helvetica,sans-Serif" font-size="10.00">+ operator&lt;&lt;()</text>
<text text-anchor="start" x="66.5" y="-168" font-family="Helvetica,sans-Serif" font-size="10.00">+ operator&lt;&lt;()</text>
<text text-anchor="start" x="66.5" y="-157" font-family="Helvetica,sans-Serif" font-size="10.00">+ operator&lt;&lt;()</text>
<text text-anchor="start" x="66.5" y="-146" font-family="Helvetica,sans-Serif" font-size="10.00">+ operator&lt;&lt;()</text>
<text text-anchor="start" x="66.5" y="-135" font-family="Helvetica,sans-Serif" font-size="10.00">and 14 more...</text>
<text text-anchor="start" x="66.5" y="-124" font-family="Helvetica,sans-Serif" font-size="10.00"># BasicWriter()</text>
</g>
<!-- Node2 -->
<g id="node2" class="node"><title>Node2</title>
<g id="a_node2"><a xlink:href="classfmt_1_1BasicArrayWriter.html" target="_top" xlink:title="This class template provides operations for formatting and writing data into a fixed&#45;size array...">
<polygon fill="none" stroke="black" points="-0.5,-0.5 -0.5,-79.5 110.5,-79.5 110.5,-0.5 -0.5,-0.5"/>
<text text-anchor="start" x="7.5" y="-67.5" font-family="Helvetica,sans-Serif" font-size="10.00">fmt::BasicArrayWriter</text>
<text text-anchor="middle" x="55" y="-56.5" font-family="Helvetica,sans-Serif" font-size="10.00">&lt; Char &gt;</text>
<polyline fill="none" stroke="black" points="-0.5,-49.5 110.5,-49.5 "/>
<text text-anchor="middle" x="55" y="-37.5" font-family="Helvetica,sans-Serif" font-size="10.00"> </text>
<polyline fill="none" stroke="black" points="-0.5,-30.5 110.5,-30.5 "/>
<text text-anchor="start" x="7.5" y="-18.5" font-family="Helvetica,sans-Serif" font-size="10.00">+ BasicArrayWriter()</text>
<text text-anchor="start" x="7.5" y="-7.5" font-family="Helvetica,sans-Serif" font-size="10.00">+ BasicArrayWriter()</text>
</a>
</g>
</g>
<!-- Node1&#45;&gt;Node2 -->
<g id="edge1" class="edge"><title>Node1&#45;&gt;Node2</title>
<path fill="none" stroke="midnightblue" d="M82.1027,-107.341C78.1213,-97.5955 74.2652,-88.1567 70.7707,-79.6029"/>
<polygon fill="none" stroke="midnightblue" points="78.9284,-108.826 85.9504,-116.759 85.4085,-106.178 78.9284,-108.826"/>
</g>
<!-- Node3 -->
<g id="node3" class="node"><title>Node3</title>
<g id="a_node3"><a xlink:href="classfmt_1_1BasicMemoryWriter.html" target="_top" xlink:title="This class template provides operations for formatting and writing data into a character stream...">
<polygon fill="none" stroke="black" points="128.5,-6 128.5,-74 251.5,-74 251.5,-6 128.5,-6"/>
<text text-anchor="start" x="136.5" y="-62" font-family="Helvetica,sans-Serif" font-size="10.00">fmt::BasicMemoryWriter</text>
<text text-anchor="middle" x="190" y="-51" font-family="Helvetica,sans-Serif" font-size="10.00">&lt; Char &gt;</text>
<polyline fill="none" stroke="black" points="128.5,-44 251.5,-44 "/>
<text text-anchor="middle" x="190" y="-32" font-family="Helvetica,sans-Serif" font-size="10.00"> </text>
<polyline fill="none" stroke="black" points="128.5,-25 251.5,-25 "/>
<text text-anchor="start" x="136.5" y="-13" font-family="Helvetica,sans-Serif" font-size="10.00">+ BasicMemoryWriter()</text>
</a>
</g>
</g>
<!-- Node1&#45;&gt;Node3 -->
<g id="edge2" class="edge"><title>Node1&#45;&gt;Node3</title>
<path fill="none" stroke="midnightblue" d="M162.542,-107.222C167.433,-95.4257 172.137,-84.0824 176.226,-74.2187"/>
<polygon fill="none" stroke="midnightblue" points="159.185,-106.181 158.588,-116.759 165.651,-108.862 159.185,-106.181"/>
</g>
</g>
</svg>
