<?xml version="1.0" encoding="UTF-8" standalone="no"?>
<!DOCTYPE svg PUBLIC "-//W3C//DTD SVG 1.1//EN"
 "http://www.w3.org/Graphics/SVG/1.1/DTD/svg11.dtd">
<!-- Generated by graphviz version 2.38.0 (20140413.2041)
 -->
<!-- Title: XBot::SPDFileLogger Pages: 1 -->
<svg width="133pt" height="599pt"
 viewBox="0.00 0.00 133.00 599.00" xmlns="http://www.w3.org/2000/svg" xmlns:xlink="http://www.w3.org/1999/xlink">
<g id="graph0" class="graph" transform="scale(1 1) rotate(0) translate(4 595)">
<title>XBot::SPDFileLogger</title>
<!-- Node1 -->
<g id="node1" class="node"><title>Node1</title>
<polygon fill="#bfbfbf" stroke="black" points="0,-0.5 0,-90.5 110,-90.5 110,-0.5 0,-0.5"/>
<text text-anchor="middle" x="55" y="-78.5" font-family="Helvetica,sans-Serif" font-size="10.00">XBot::SPDFileLogger</text>
<polyline fill="none" stroke="black" points="0,-71.5 110,-71.5 "/>
<text text-anchor="middle" x="55" y="-59.5" font-family="Helvetica,sans-Serif" font-size="10.00"> </text>
<polyline fill="none" stroke="black" points="0,-52.5 110,-52.5 "/>
<text text-anchor="start" x="8" y="-40.5" font-family="Helvetica,sans-Serif" font-size="10.00">+ SPDFileLogger()</text>
<text text-anchor="start" x="8" y="-29.5" font-family="Helvetica,sans-Serif" font-size="10.00"># info_internal()</text>
<text text-anchor="start" x="8" y="-18.5" font-family="Helvetica,sans-Serif" font-size="10.00"># warning_internal()</text>
<text text-anchor="start" x="8" y="-7.5" font-family="Helvetica,sans-Serif" font-size="10.00"># error_internal()</text>
</g>
<!-- Node2 -->
<g id="node2" class="node"><title>Node2</title>
<g id="a_node2"><a xlink:href="classXBot_1_1SSFileLogger.html" target="_top" xlink:title="{XBot::SSFileLogger\n||+ SSFileLogger()\l}">
<polygon fill="none" stroke="black" points="3.5,-128.5 3.5,-185.5 106.5,-185.5 106.5,-128.5 3.5,-128.5"/>
<text text-anchor="middle" x="55" y="-173.5" font-family="Helvetica,sans-Serif" font-size="10.00">XBot::SSFileLogger</text>
<polyline fill="none" stroke="black" points="3.5,-166.5 106.5,-166.5 "/>
<text text-anchor="middle" x="55" y="-154.5" font-family="Helvetica,sans-Serif" font-size="10.00"> </text>
<polyline fill="none" stroke="black" points="3.5,-147.5 106.5,-147.5 "/>
<text text-anchor="start" x="11.5" y="-135.5" font-family="Helvetica,sans-Serif" font-size="10.00">+ SSFileLogger()</text>
</a>
</g>
</g>
<!-- Node2&#45;&gt;Node1 -->
<g id="edge1" class="edge"><title>Node2&#45;&gt;Node1</title>
<path fill="none" stroke="midnightblue" d="M55,-118.312C55,-109.43 55,-99.8831 55,-90.7419"/>
<polygon fill="none" stroke="midnightblue" points="51.5001,-118.368 55,-128.369 58.5001,-118.369 51.5001,-118.368"/>
</g>
<!-- Node3 -->
<g id="node3" class="node"><title>Node3</title>
<g id="a_node3"><a xlink:href="classXBot_1_1SSLogger.html" target="_top" xlink:title="String Stream Logger. ">
<polygon fill="none" stroke="black" points="3,-223.5 3,-368.5 107,-368.5 107,-223.5 3,-223.5"/>
<text text-anchor="middle" x="55" y="-356.5" font-family="Helvetica,sans-Serif" font-size="10.00">XBot::SSLogger</text>
<polyline fill="none" stroke="black" points="3,-349.5 107,-349.5 "/>
<text text-anchor="start" x="11" y="-337.5" font-family="Helvetica,sans-Serif" font-size="10.00"># _log_file_size</text>
<text text-anchor="start" x="11" y="-326.5" font-family="Helvetica,sans-Serif" font-size="10.00"># _log_max_files</text>
<polyline fill="none" stroke="black" points="3,-319.5 107,-319.5 "/>
<text text-anchor="start" x="11" y="-307.5" font-family="Helvetica,sans-Serif" font-size="10.00">+ SSLogger()</text>
<text text-anchor="start" x="11" y="-296.5" font-family="Helvetica,sans-Serif" font-size="10.00">+ setSeverityLevel()</text>
<text text-anchor="start" x="11" y="-285.5" font-family="Helvetica,sans-Serif" font-size="10.00">+ setHeader()</text>
<text text-anchor="start" x="11" y="-274.5" font-family="Helvetica,sans-Serif" font-size="10.00">+ log()</text>
<text text-anchor="start" x="11" y="-263.5" font-family="Helvetica,sans-Serif" font-size="10.00">+ endl()</text>
<text text-anchor="start" x="11" y="-252.5" font-family="Helvetica,sans-Serif" font-size="10.00"># info_internal()</text>
<text text-anchor="start" x="11" y="-241.5" font-family="Helvetica,sans-Serif" font-size="10.00"># warning_internal()</text>
<text text-anchor="start" x="11" y="-230.5" font-family="Helvetica,sans-Serif" font-size="10.00"># error_internal()</text>
</a>
</g>
</g>
<!-- Node3&#45;&gt;Node2 -->
<g id="edge2" class="edge"><title>Node3&#45;&gt;Node2</title>
<path fill="none" stroke="midnightblue" d="M55,-213.042C55,-203.306 55,-193.948 55,-185.796"/>
<polygon fill="none" stroke="midnightblue" points="51.5001,-213.29 55,-223.29 58.5001,-213.29 51.5001,-213.29"/>
</g>
<!-- Node4 -->
<g id="node4" class="node"><title>Node4</title>
<g id="a_node4"><a xlink:title="STL class. ">
<polygon fill="none" stroke="#bfbfbf" points="25,-427.5 25,-484.5 85,-484.5 85,-427.5 25,-427.5"/>
<text text-anchor="middle" x="55" y="-472.5" font-family="Helvetica,sans-Serif" font-size="10.00">std::string</text>
<polyline fill="none" stroke="#bfbfbf" points="25,-465.5 85,-465.5 "/>
<text text-anchor="middle" x="55" y="-453.5" font-family="Helvetica,sans-Serif" font-size="10.00"> </text>
<polyline fill="none" stroke="#bfbfbf" points="25,-446.5 85,-446.5 "/>
<text text-anchor="middle" x="55" y="-434.5" font-family="Helvetica,sans-Serif" font-size="10.00"> </text>
</a>
</g>
</g>
<!-- Node4&#45;&gt;Node3 -->
<g id="edge3" class="edge"><title>Node4&#45;&gt;Node3</title>
<path fill="none" stroke="#404040" d="M55,-427.479C55,-414.317 55,-397.778 55,-380.939"/>
<polygon fill="none" stroke="#404040" points="55.0001,-380.668 51,-374.668 55,-368.668 59,-374.668 55.0001,-380.668"/>
<text text-anchor="middle" x="90" y="-401" font-family="Helvetica,sans-Serif" font-size="10.00"> #_logger_name</text>
<text text-anchor="middle" x="90" y="-390" font-family="Helvetica,sans-Serif" font-size="10.00">#_log_filename</text>
</g>
<!-- Node5 -->
<g id="node5" class="node"><title>Node5</title>
<g id="a_node5"><a xlink:title="STL class. ">
<polygon fill="none" stroke="#bfbfbf" points="7.5,-522.5 7.5,-590.5 102.5,-590.5 102.5,-522.5 7.5,-522.5"/>
<text text-anchor="start" x="15.5" y="-578.5" font-family="Helvetica,sans-Serif" font-size="10.00">std::basic_string&lt;</text>
<text text-anchor="middle" x="55" y="-567.5" font-family="Helvetica,sans-Serif" font-size="10.00"> char &gt;</text>
<polyline fill="none" stroke="#bfbfbf" points="7.5,-560.5 102.5,-560.5 "/>
<text text-anchor="middle" x="55" y="-548.5" font-family="Helvetica,sans-Serif" font-size="10.00"> </text>
<polyline fill="none" stroke="#bfbfbf" points="7.5,-541.5 102.5,-541.5 "/>
<text text-anchor="middle" x="55" y="-529.5" font-family="Helvetica,sans-Serif" font-size="10.00"> </text>
</a>
</g>
</g>
<!-- Node5&#45;&gt;Node4 -->
<g id="edge4" class="edge"><title>Node5&#45;&gt;Node4</title>
<path fill="none" stroke="midnightblue" d="M55,-512.375C55,-502.94 55,-493.201 55,-484.571"/>
<polygon fill="none" stroke="midnightblue" points="51.5001,-512.427 55,-522.427 58.5001,-512.427 51.5001,-512.427"/>
</g>
</g>
</svg>
