<?xml version="1.0" encoding="UTF-8" standalone="no"?>
<!DOCTYPE svg PUBLIC "-//W3C//DTD SVG 1.1//EN"
 "http://www.w3.org/Graphics/SVG/1.1/DTD/svg11.dtd">
<!-- Generated by graphviz version 2.36.0 (20140111.2315)
 -->
<!-- Title: spdlog::details::flag_formatter Pages: 1 -->
<svg width="3363pt" height="226pt"
 viewBox="0.00 0.00 3363.00 226.00" xmlns="http://www.w3.org/2000/svg" xmlns:xlink="http://www.w3.org/1999/xlink">
<g id="graph0" class="graph" transform="scale(1 1) rotate(0) translate(4 222)">
<title>spdlog::details::flag_formatter</title>
<!-- Node1 -->
<g id="node1" class="node"><title>Node1</title>
<polygon fill="#bfbfbf" stroke="black" points="1631.5,-138.5 1631.5,-217.5 1732.5,-217.5 1732.5,-138.5 1631.5,-138.5"/>
<text text-anchor="start" x="1639.5" y="-205.5" font-family="Helvetica,sans-Serif" font-size="10.00">spdlog::details::flag</text>
<text text-anchor="middle" x="1682" y="-194.5" font-family="Helvetica,sans-Serif" font-size="10.00">_formatter</text>
<polyline fill="none" stroke="black" points="1631.5,-187.5 1732.5,-187.5 "/>
<text text-anchor="middle" x="1682" y="-175.5" font-family="Helvetica,sans-Serif" font-size="10.00"> </text>
<polyline fill="none" stroke="black" points="1631.5,-168.5 1732.5,-168.5 "/>
<text text-anchor="start" x="1639.5" y="-156.5" font-family="Helvetica,sans-Serif" font-size="10.00">+ ~flag_formatter()</text>
<text text-anchor="start" x="1639.5" y="-145.5" font-family="Helvetica,sans-Serif" font-size="10.00">+ format()</text>
</g>
<!-- Node2 -->
<g id="node2" class="node"><title>Node2</title>
<g id="a_node2"><a xlink:href="classspdlog_1_1details_1_1a__formatter.html" target="_top" xlink:title="{spdlog::details::a\l_formatter\n||}">
<polygon fill="none" stroke="black" points="-0.5,-17 -0.5,-85 90.5,-85 90.5,-17 -0.5,-17"/>
<text text-anchor="start" x="7.5" y="-73" font-family="Helvetica,sans-Serif" font-size="10.00">spdlog::details::a</text>
<text text-anchor="middle" x="45" y="-62" font-family="Helvetica,sans-Serif" font-size="10.00">_formatter</text>
<polyline fill="none" stroke="black" points="-0.5,-55 90.5,-55 "/>
<text text-anchor="middle" x="45" y="-43" font-family="Helvetica,sans-Serif" font-size="10.00"> </text>
<polyline fill="none" stroke="black" points="-0.5,-36 90.5,-36 "/>
<text text-anchor="middle" x="45" y="-24" font-family="Helvetica,sans-Serif" font-size="10.00"> </text>
</a>
</g>
</g>
<!-- Node1&#45;&gt;Node2 -->
<g id="edge1" class="edge"><title>Node1&#45;&gt;Node2</title>
<path fill="none" stroke="midnightblue" d="M1621.12,-176.543C1347.95,-174.163 242.339,-160.941 100,-102 90.581,-98.0997 81.7376,-91.8451 74.0116,-85.0607"/>
<polygon fill="none" stroke="midnightblue" points="1621.22,-180.043 1631.25,-176.629 1621.28,-173.044 1621.22,-180.043"/>
</g>
<!-- Node3 -->
<g id="node3" class="node"><title>Node3</title>
<g id="a_node3"><a xlink:href="classspdlog_1_1details_1_1A__formatter.html" target="_top" xlink:title="{spdlog::details::A\l_formatter\n||}">
<polygon fill="none" stroke="black" points="109,-17 109,-85 201,-85 201,-17 109,-17"/>
<text text-anchor="start" x="117" y="-73" font-family="Helvetica,sans-Serif" font-size="10.00">spdlog::details::A</text>
<text text-anchor="middle" x="155" y="-62" font-family="Helvetica,sans-Serif" font-size="10.00">_formatter</text>
<polyline fill="none" stroke="black" points="109,-55 201,-55 "/>
<text text-anchor="middle" x="155" y="-43" font-family="Helvetica,sans-Serif" font-size="10.00"> </text>
<polyline fill="none" stroke="black" points="109,-36 201,-36 "/>
<text text-anchor="middle" x="155" y="-24" font-family="Helvetica,sans-Serif" font-size="10.00"> </text>
</a>
</g>
</g>
<!-- Node1&#45;&gt;Node3 -->
<g id="edge2" class="edge"><title>Node1&#45;&gt;Node3</title>
<path fill="none" stroke="midnightblue" d="M1621.13,-176.31C1359.98,-173.026 341.646,-156.786 210,-102 200.588,-98.083 191.747,-91.8221 184.021,-85.0368"/>
<polygon fill="none" stroke="midnightblue" points="1621.15,-179.811 1631.19,-176.435 1621.23,-172.811 1621.15,-179.811"/>
</g>
<!-- Node4 -->
<g id="node4" class="node"><title>Node4</title>
<g id="a_node4"><a xlink:href="classspdlog_1_1details_1_1aggregate__formatter.html" target="_top" xlink:title="{spdlog::details::aggregate\l_formatter\n||+ aggregate_formatter()\l+ add_ch()\l+ format()\l}">
<polygon fill="none" stroke="black" points="219,-6 219,-96 347,-96 347,-6 219,-6"/>
<text text-anchor="start" x="227" y="-84" font-family="Helvetica,sans-Serif" font-size="10.00">spdlog::details::aggregate</text>
<text text-anchor="middle" x="283" y="-73" font-family="Helvetica,sans-Serif" font-size="10.00">_formatter</text>
<polyline fill="none" stroke="black" points="219,-66 347,-66 "/>
<text text-anchor="middle" x="283" y="-54" font-family="Helvetica,sans-Serif" font-size="10.00"> </text>
<polyline fill="none" stroke="black" points="219,-47 347,-47 "/>
<text text-anchor="start" x="227" y="-35" font-family="Helvetica,sans-Serif" font-size="10.00">+ aggregate_formatter()</text>
<text text-anchor="start" x="227" y="-24" font-family="Helvetica,sans-Serif" font-size="10.00">+ add_ch()</text>
<text text-anchor="start" x="227" y="-13" font-family="Helvetica,sans-Serif" font-size="10.00">+ format()</text>
</a>
</g>
</g>
<!-- Node1&#45;&gt;Node4 -->
<g id="edge3" class="edge"><title>Node1&#45;&gt;Node4</title>
<path fill="none" stroke="midnightblue" d="M1621.02,-175.478C1376.78,-169.122 476.554,-143.094 356,-102 351.347,-100.414 346.717,-98.4432 342.176,-96.2087"/>
<polygon fill="none" stroke="midnightblue" points="1621.05,-178.98 1631.14,-175.74 1621.23,-171.982 1621.05,-178.98"/>
</g>
<!-- Node5 -->
<g id="node5" class="node"><title>Node5</title>
<g id="a_node5"><a xlink:href="classspdlog_1_1details_1_1B__formatter.html" target="_top" xlink:title="{spdlog::details::B\l_formatter\n||}">
<polygon fill="none" stroke="black" points="365,-17 365,-85 457,-85 457,-17 365,-17"/>
<text text-anchor="start" x="373" y="-73" font-family="Helvetica,sans-Serif" font-size="10.00">spdlog::details::B</text>
<text text-anchor="middle" x="411" y="-62" font-family="Helvetica,sans-Serif" font-size="10.00">_formatter</text>
<polyline fill="none" stroke="black" points="365,-55 457,-55 "/>
<text text-anchor="middle" x="411" y="-43" font-family="Helvetica,sans-Serif" font-size="10.00"> </text>
<polyline fill="none" stroke="black" points="365,-36 457,-36 "/>
<text text-anchor="middle" x="411" y="-24" font-family="Helvetica,sans-Serif" font-size="10.00"> </text>
</a>
</g>
</g>
<!-- Node1&#45;&gt;Node5 -->
<g id="edge4" class="edge"><title>Node1&#45;&gt;Node5</title>
<path fill="none" stroke="midnightblue" d="M1621.03,-175.606C1389.55,-169.992 572.859,-147.142 466,-102 456.728,-98.083 448,-91.9112 440.346,-85.2222"/>
<polygon fill="none" stroke="midnightblue" points="1621.2,-179.111 1631.28,-175.853 1621.37,-172.113 1621.2,-179.111"/>
</g>
<!-- Node6 -->
<g id="node6" class="node"><title>Node6</title>
<g id="a_node6"><a xlink:href="classspdlog_1_1details_1_1b__formatter.html" target="_top" xlink:title="{spdlog::details::b\l_formatter\n||}">
<polygon fill="none" stroke="black" points="475.5,-17 475.5,-85 566.5,-85 566.5,-17 475.5,-17"/>
<text text-anchor="start" x="483.5" y="-73" font-family="Helvetica,sans-Serif" font-size="10.00">spdlog::details::b</text>
<text text-anchor="middle" x="521" y="-62" font-family="Helvetica,sans-Serif" font-size="10.00">_formatter</text>
<polyline fill="none" stroke="black" points="475.5,-55 566.5,-55 "/>
<text text-anchor="middle" x="521" y="-43" font-family="Helvetica,sans-Serif" font-size="10.00"> </text>
<polyline fill="none" stroke="black" points="475.5,-36 566.5,-36 "/>
<text text-anchor="middle" x="521" y="-24" font-family="Helvetica,sans-Serif" font-size="10.00"> </text>
</a>
</g>
</g>
<!-- Node1&#45;&gt;Node6 -->
<g id="edge5" class="edge"><title>Node1&#45;&gt;Node6</title>
<path fill="none" stroke="midnightblue" d="M1621.13,-175.242C1403.42,-168.632 671.2,-143.503 575,-102 565.849,-98.0522 557.262,-91.8684 549.744,-85.1776"/>
<polygon fill="none" stroke="midnightblue" points="1621.31,-178.749 1631.41,-175.552 1621.52,-171.752 1621.31,-178.749"/>
</g>
<!-- Node7 -->
<g id="node7" class="node"><title>Node7</title>
<g id="a_node7"><a xlink:href="classspdlog_1_1details_1_1C__formatter.html" target="_top" xlink:title="{spdlog::details::C\l_formatter\n||}">
<polygon fill="none" stroke="black" points="584.5,-17 584.5,-85 677.5,-85 677.5,-17 584.5,-17"/>
<text text-anchor="start" x="592.5" y="-73" font-family="Helvetica,sans-Serif" font-size="10.00">spdlog::details::C</text>
<text text-anchor="middle" x="631" y="-62" font-family="Helvetica,sans-Serif" font-size="10.00">_formatter</text>
<polyline fill="none" stroke="black" points="584.5,-55 677.5,-55 "/>
<text text-anchor="middle" x="631" y="-43" font-family="Helvetica,sans-Serif" font-size="10.00"> </text>
<polyline fill="none" stroke="black" points="584.5,-36 677.5,-36 "/>
<text text-anchor="middle" x="631" y="-24" font-family="Helvetica,sans-Serif" font-size="10.00"> </text>
</a>
</g>
</g>
<!-- Node1&#45;&gt;Node7 -->
<g id="edge6" class="edge"><title>Node1&#45;&gt;Node7</title>
<path fill="none" stroke="midnightblue" d="M1621.38,-177.544C1432.26,-178.449 855.595,-175.004 686,-102 676.755,-98.0202 668.037,-91.8239 660.384,-85.1312"/>
<polygon fill="none" stroke="midnightblue" points="1621.44,-181.044 1631.42,-177.49 1621.4,-174.044 1621.44,-181.044"/>
</g>
<!-- Node8 -->
<g id="node8" class="node"><title>Node8</title>
<g id="a_node8"><a xlink:href="classspdlog_1_1details_1_1c__formatter.html" target="_top" xlink:title="{spdlog::details::c\l_formatter\n||}">
<polygon fill="none" stroke="black" points="695.5,-17 695.5,-85 786.5,-85 786.5,-17 695.5,-17"/>
<text text-anchor="start" x="703.5" y="-73" font-family="Helvetica,sans-Serif" font-size="10.00">spdlog::details::c</text>
<text text-anchor="middle" x="741" y="-62" font-family="Helvetica,sans-Serif" font-size="10.00">_formatter</text>
<polyline fill="none" stroke="black" points="695.5,-55 786.5,-55 "/>
<text text-anchor="middle" x="741" y="-43" font-family="Helvetica,sans-Serif" font-size="10.00"> </text>
<polyline fill="none" stroke="black" points="695.5,-36 786.5,-36 "/>
<text text-anchor="middle" x="741" y="-24" font-family="Helvetica,sans-Serif" font-size="10.00"> </text>
</a>
</g>
</g>
<!-- Node1&#45;&gt;Node8 -->
<g id="edge7" class="edge"><title>Node1&#45;&gt;Node8</title>
<path fill="none" stroke="midnightblue" d="M1621.32,-176.883C1446.49,-175.764 944.714,-166.836 796,-102 786.773,-97.9773 778.063,-91.7642 770.411,-85.069"/>
<polygon fill="none" stroke="midnightblue" points="1621.36,-180.383 1631.38,-176.941 1621.4,-173.383 1621.36,-180.383"/>
</g>
<!-- Node9 -->
<g id="node9" class="node"><title>Node9</title>
<g id="a_node9"><a xlink:href="classspdlog_1_1details_1_1ch__formatter.html" target="_top" xlink:title="{spdlog::details::ch\l_formatter\n||+ ch_formatter()\l+ format()\l}">
<polygon fill="none" stroke="black" points="805,-11.5 805,-90.5 901,-90.5 901,-11.5 805,-11.5"/>
<text text-anchor="start" x="813" y="-78.5" font-family="Helvetica,sans-Serif" font-size="10.00">spdlog::details::ch</text>
<text text-anchor="middle" x="853" y="-67.5" font-family="Helvetica,sans-Serif" font-size="10.00">_formatter</text>
<polyline fill="none" stroke="black" points="805,-60.5 901,-60.5 "/>
<text text-anchor="middle" x="853" y="-48.5" font-family="Helvetica,sans-Serif" font-size="10.00"> </text>
<polyline fill="none" stroke="black" points="805,-41.5 901,-41.5 "/>
<text text-anchor="start" x="813" y="-29.5" font-family="Helvetica,sans-Serif" font-size="10.00">+ ch_formatter()</text>
<text text-anchor="start" x="813" y="-18.5" font-family="Helvetica,sans-Serif" font-size="10.00">+ format()</text>
</a>
</g>
</g>
<!-- Node1&#45;&gt;Node9 -->
<g id="edge8" class="edge"><title>Node1&#45;&gt;Node9</title>
<path fill="none" stroke="midnightblue" d="M1621.37,-175.878C1462.53,-172.187 1037.73,-157.281 910,-102 903.235,-99.072 896.702,-95.0325 890.623,-90.5078"/>
<polygon fill="none" stroke="midnightblue" points="1621.37,-179.378 1631.44,-176.105 1621.53,-172.38 1621.37,-179.378"/>
</g>
<!-- Node10 -->
<g id="node10" class="node"><title>Node10</title>
<g id="a_node10"><a xlink:href="classspdlog_1_1details_1_1D__formatter.html" target="_top" xlink:title="{spdlog::details::D\l_formatter\n||}">
<polygon fill="none" stroke="black" points="919.5,-17 919.5,-85 1012.5,-85 1012.5,-17 919.5,-17"/>
<text text-anchor="start" x="927.5" y="-73" font-family="Helvetica,sans-Serif" font-size="10.00">spdlog::details::D</text>
<text text-anchor="middle" x="966" y="-62" font-family="Helvetica,sans-Serif" font-size="10.00">_formatter</text>
<polyline fill="none" stroke="black" points="919.5,-55 1012.5,-55 "/>
<text text-anchor="middle" x="966" y="-43" font-family="Helvetica,sans-Serif" font-size="10.00"> </text>
<polyline fill="none" stroke="black" points="919.5,-36 1012.5,-36 "/>
<text text-anchor="middle" x="966" y="-24" font-family="Helvetica,sans-Serif" font-size="10.00"> </text>
</a>
</g>
</g>
<!-- Node1&#45;&gt;Node10 -->
<g id="edge9" class="edge"><title>Node1&#45;&gt;Node10</title>
<path fill="none" stroke="midnightblue" d="M1620.76,-174.839C1478.04,-169.041 1127.35,-150.184 1021,-102 1011.95,-97.8994 1003.37,-91.742 995.791,-85.1363"/>
<polygon fill="none" stroke="midnightblue" points="1620.95,-178.349 1631.08,-175.25 1621.23,-171.354 1620.95,-178.349"/>
</g>
<!-- Node11 -->
<g id="node11" class="node"><title>Node11</title>
<g id="a_node11"><a xlink:href="classspdlog_1_1details_1_1d__formatter.html" target="_top" xlink:title="{spdlog::details::d\l_formatter\n||}">
<polygon fill="none" stroke="black" points="1030.5,-17 1030.5,-85 1121.5,-85 1121.5,-17 1030.5,-17"/>
<text text-anchor="start" x="1038.5" y="-73" font-family="Helvetica,sans-Serif" font-size="10.00">spdlog::details::d</text>
<text text-anchor="middle" x="1076" y="-62" font-family="Helvetica,sans-Serif" font-size="10.00">_formatter</text>
<polyline fill="none" stroke="black" points="1030.5,-55 1121.5,-55 "/>
<text text-anchor="middle" x="1076" y="-43" font-family="Helvetica,sans-Serif" font-size="10.00"> </text>
<polyline fill="none" stroke="black" points="1030.5,-36 1121.5,-36 "/>
<text text-anchor="middle" x="1076" y="-24" font-family="Helvetica,sans-Serif" font-size="10.00"> </text>
</a>
</g>
</g>
<!-- Node1&#45;&gt;Node11 -->
<g id="edge10" class="edge"><title>Node1&#45;&gt;Node11</title>
<path fill="none" stroke="midnightblue" d="M1621.21,-173.36C1496.49,-165.148 1216.13,-142.655 1130,-102 1121.22,-97.8552 1112.89,-91.7647 1105.52,-85.249"/>
<polygon fill="none" stroke="midnightblue" points="1621.15,-176.863 1631.35,-174.019 1621.6,-169.878 1621.15,-176.863"/>
</g>
<!-- Node12 -->
<g id="node12" class="node"><title>Node12</title>
<g id="a_node12"><a xlink:href="classspdlog_1_1details_1_1e__formatter.html" target="_top" xlink:title="{spdlog::details::e\l_formatter\n||}">
<polygon fill="none" stroke="black" points="1139.5,-17 1139.5,-85 1230.5,-85 1230.5,-17 1139.5,-17"/>
<text text-anchor="start" x="1147.5" y="-73" font-family="Helvetica,sans-Serif" font-size="10.00">spdlog::details::e</text>
<text text-anchor="middle" x="1185" y="-62" font-family="Helvetica,sans-Serif" font-size="10.00">_formatter</text>
<polyline fill="none" stroke="black" points="1139.5,-55 1230.5,-55 "/>
<text text-anchor="middle" x="1185" y="-43" font-family="Helvetica,sans-Serif" font-size="10.00"> </text>
<polyline fill="none" stroke="black" points="1139.5,-36 1230.5,-36 "/>
<text text-anchor="middle" x="1185" y="-24" font-family="Helvetica,sans-Serif" font-size="10.00"> </text>
</a>
</g>
</g>
<!-- Node1&#45;&gt;Node12 -->
<g id="edge11" class="edge"><title>Node1&#45;&gt;Node12</title>
<path fill="none" stroke="midnightblue" d="M1621.04,-177.294C1532.64,-175.433 1365.72,-163.187 1240,-102 1231.18,-97.7081 1222.75,-91.5577 1215.26,-85.0307"/>
<polygon fill="none" stroke="midnightblue" points="1621.1,-180.795 1631.16,-177.469 1621.22,-173.797 1621.1,-180.795"/>
</g>
<!-- Node13 -->
<g id="node13" class="node"><title>Node13</title>
<g id="a_node13"><a xlink:href="classspdlog_1_1details_1_1F__formatter.html" target="_top" xlink:title="{spdlog::details::F\l_formatter\n||}">
<polygon fill="none" stroke="black" points="1249,-17 1249,-85 1341,-85 1341,-17 1249,-17"/>
<text text-anchor="start" x="1257" y="-73" font-family="Helvetica,sans-Serif" font-size="10.00">spdlog::details::F</text>
<text text-anchor="middle" x="1295" y="-62" font-family="Helvetica,sans-Serif" font-size="10.00">_formatter</text>
<polyline fill="none" stroke="black" points="1249,-55 1341,-55 "/>
<text text-anchor="middle" x="1295" y="-43" font-family="Helvetica,sans-Serif" font-size="10.00"> </text>
<polyline fill="none" stroke="black" points="1249,-36 1341,-36 "/>
<text text-anchor="middle" x="1295" y="-24" font-family="Helvetica,sans-Serif" font-size="10.00"> </text>
</a>
</g>
</g>
<!-- Node1&#45;&gt;Node13 -->
<g id="edge12" class="edge"><title>Node1&#45;&gt;Node13</title>
<path fill="none" stroke="midnightblue" d="M1621.17,-172.623C1552.05,-165.586 1437.49,-147.55 1350,-102 1341.53,-97.5903 1333.36,-91.5522 1326.03,-85.1954"/>
<polygon fill="none" stroke="midnightblue" points="1621.16,-176.138 1631.45,-173.622 1621.83,-169.17 1621.16,-176.138"/>
</g>
<!-- Node14 -->
<g id="node14" class="node"><title>Node14</title>
<g id="a_node14"><a xlink:href="classspdlog_1_1details_1_1f__formatter.html" target="_top" xlink:title="{spdlog::details::f\l_formatter\n||}">
<polygon fill="none" stroke="black" points="1359.5,-17 1359.5,-85 1448.5,-85 1448.5,-17 1359.5,-17"/>
<text text-anchor="start" x="1367.5" y="-73" font-family="Helvetica,sans-Serif" font-size="10.00">spdlog::details::f</text>
<text text-anchor="middle" x="1404" y="-62" font-family="Helvetica,sans-Serif" font-size="10.00">_formatter</text>
<polyline fill="none" stroke="black" points="1359.5,-55 1448.5,-55 "/>
<text text-anchor="middle" x="1404" y="-43" font-family="Helvetica,sans-Serif" font-size="10.00"> </text>
<polyline fill="none" stroke="black" points="1359.5,-36 1448.5,-36 "/>
<text text-anchor="middle" x="1404" y="-24" font-family="Helvetica,sans-Serif" font-size="10.00"> </text>
</a>
</g>
</g>
<!-- Node1&#45;&gt;Node14 -->
<g id="edge13" class="edge"><title>Node1&#45;&gt;Node14</title>
<path fill="none" stroke="midnightblue" d="M1621.3,-164.364C1574.2,-152.813 1508.47,-132.781 1457,-102 1449.18,-97.325 1441.57,-91.3246 1434.67,-85.1142"/>
<polygon fill="none" stroke="midnightblue" points="1620.52,-167.776 1631.06,-166.701 1622.15,-160.968 1620.52,-167.776"/>
</g>
<!-- Node15 -->
<g id="node15" class="node"><title>Node15</title>
<g id="a_node15"><a xlink:href="classspdlog_1_1details_1_1full__formatter.html" target="_top" xlink:title="{spdlog::details::full\l_formatter\n||}">
<polygon fill="none" stroke="black" points="1466,-17 1466,-85 1564,-85 1564,-17 1466,-17"/>
<text text-anchor="start" x="1474" y="-73" font-family="Helvetica,sans-Serif" font-size="10.00">spdlog::details::full</text>
<text text-anchor="middle" x="1515" y="-62" font-family="Helvetica,sans-Serif" font-size="10.00">_formatter</text>
<polyline fill="none" stroke="black" points="1466,-55 1564,-55 "/>
<text text-anchor="middle" x="1515" y="-43" font-family="Helvetica,sans-Serif" font-size="10.00"> </text>
<polyline fill="none" stroke="black" points="1466,-36 1564,-36 "/>
<text text-anchor="middle" x="1515" y="-24" font-family="Helvetica,sans-Serif" font-size="10.00"> </text>
</a>
</g>
</g>
<!-- Node1&#45;&gt;Node15 -->
<g id="edge14" class="edge"><title>Node1&#45;&gt;Node15</title>
<path fill="none" stroke="midnightblue" d="M1622.67,-138.479C1605.98,-127.131 1588.03,-114.418 1572,-102 1565.24,-96.7591 1558.23,-90.9561 1551.55,-85.2145"/>
<polygon fill="none" stroke="midnightblue" points="1621.01,-141.584 1631.26,-144.28 1624.93,-135.783 1621.01,-141.584"/>
</g>
<!-- Node16 -->
<g id="node16" class="node"><title>Node16</title>
<g id="a_node16"><a xlink:href="classspdlog_1_1details_1_1H__formatter.html" target="_top" xlink:title="{spdlog::details::H\l_formatter\n||}">
<polygon fill="none" stroke="black" points="1581.5,-17 1581.5,-85 1674.5,-85 1674.5,-17 1581.5,-17"/>
<text text-anchor="start" x="1589.5" y="-73" font-family="Helvetica,sans-Serif" font-size="10.00">spdlog::details::H</text>
<text text-anchor="middle" x="1628" y="-62" font-family="Helvetica,sans-Serif" font-size="10.00">_formatter</text>
<polyline fill="none" stroke="black" points="1581.5,-55 1674.5,-55 "/>
<text text-anchor="middle" x="1628" y="-43" font-family="Helvetica,sans-Serif" font-size="10.00"> </text>
<polyline fill="none" stroke="black" points="1581.5,-36 1674.5,-36 "/>
<text text-anchor="middle" x="1628" y="-24" font-family="Helvetica,sans-Serif" font-size="10.00"> </text>
</a>
</g>
</g>
<!-- Node1&#45;&gt;Node16 -->
<g id="edge15" class="edge"><title>Node1&#45;&gt;Node16</title>
<path fill="none" stroke="midnightblue" d="M1661.28,-129.037C1654.94,-114.369 1648.12,-98.5711 1642.31,-85.1222"/>
<polygon fill="none" stroke="midnightblue" points="1658.18,-130.684 1665.36,-138.476 1664.6,-127.908 1658.18,-130.684"/>
</g>
<!-- Node17 -->
<g id="node17" class="node"><title>Node17</title>
<g id="a_node17"><a xlink:href="classspdlog_1_1details_1_1I__formatter.html" target="_top" xlink:title="{spdlog::details::I\l_formatter\n||}">
<polygon fill="none" stroke="black" points="1692.5,-17 1692.5,-85 1781.5,-85 1781.5,-17 1692.5,-17"/>
<text text-anchor="start" x="1700.5" y="-73" font-family="Helvetica,sans-Serif" font-size="10.00">spdlog::details::I</text>
<text text-anchor="middle" x="1737" y="-62" font-family="Helvetica,sans-Serif" font-size="10.00">_formatter</text>
<polyline fill="none" stroke="black" points="1692.5,-55 1781.5,-55 "/>
<text text-anchor="middle" x="1737" y="-43" font-family="Helvetica,sans-Serif" font-size="10.00"> </text>
<polyline fill="none" stroke="black" points="1692.5,-36 1781.5,-36 "/>
<text text-anchor="middle" x="1737" y="-24" font-family="Helvetica,sans-Serif" font-size="10.00"> </text>
</a>
</g>
</g>
<!-- Node1&#45;&gt;Node17 -->
<g id="edge16" class="edge"><title>Node1&#45;&gt;Node17</title>
<path fill="none" stroke="midnightblue" d="M1703.1,-129.037C1709.56,-114.369 1716.51,-98.5711 1722.43,-85.1222"/>
<polygon fill="none" stroke="midnightblue" points="1699.77,-127.913 1698.95,-138.476 1706.18,-130.732 1699.77,-127.913"/>
</g>
<!-- Node18 -->
<g id="node18" class="node"><title>Node18</title>
<g id="a_node18"><a xlink:href="classspdlog_1_1details_1_1level__formatter.html" target="_top" xlink:title="{spdlog::details::level\l_formatter\n||}">
<polygon fill="none" stroke="black" points="1799,-17 1799,-85 1905,-85 1905,-17 1799,-17"/>
<text text-anchor="start" x="1807" y="-73" font-family="Helvetica,sans-Serif" font-size="10.00">spdlog::details::level</text>
<text text-anchor="middle" x="1852" y="-62" font-family="Helvetica,sans-Serif" font-size="10.00">_formatter</text>
<polyline fill="none" stroke="black" points="1799,-55 1905,-55 "/>
<text text-anchor="middle" x="1852" y="-43" font-family="Helvetica,sans-Serif" font-size="10.00"> </text>
<polyline fill="none" stroke="black" points="1799,-36 1905,-36 "/>
<text text-anchor="middle" x="1852" y="-24" font-family="Helvetica,sans-Serif" font-size="10.00"> </text>
</a>
</g>
</g>
<!-- Node1&#45;&gt;Node18 -->
<g id="edge17" class="edge"><title>Node1&#45;&gt;Node18</title>
<path fill="none" stroke="midnightblue" d="M1740.83,-137.277C1756.94,-126.096 1774.29,-113.77 1790,-102 1797.08,-96.6948 1804.5,-90.9173 1811.64,-85.235"/>
<polygon fill="none" stroke="midnightblue" points="1738.77,-134.446 1732.54,-143.011 1742.75,-140.204 1738.77,-134.446"/>
</g>
<!-- Node19 -->
<g id="node19" class="node"><title>Node19</title>
<g id="a_node19"><a xlink:href="classspdlog_1_1details_1_1M__formatter.html" target="_top" xlink:title="{spdlog::details::M\l_formatter\n||}">
<polygon fill="none" stroke="black" points="1923,-17 1923,-85 2017,-85 2017,-17 1923,-17"/>
<text text-anchor="start" x="1931" y="-73" font-family="Helvetica,sans-Serif" font-size="10.00">spdlog::details::M</text>
<text text-anchor="middle" x="1970" y="-62" font-family="Helvetica,sans-Serif" font-size="10.00">_formatter</text>
<polyline fill="none" stroke="black" points="1923,-55 2017,-55 "/>
<text text-anchor="middle" x="1970" y="-43" font-family="Helvetica,sans-Serif" font-size="10.00"> </text>
<polyline fill="none" stroke="black" points="1923,-36 2017,-36 "/>
<text text-anchor="middle" x="1970" y="-24" font-family="Helvetica,sans-Serif" font-size="10.00"> </text>
</a>
</g>
</g>
<!-- Node1&#45;&gt;Node19 -->
<g id="edge18" class="edge"><title>Node1&#45;&gt;Node19</title>
<path fill="none" stroke="midnightblue" d="M1742.63,-164.46C1790.91,-152.83 1859.1,-132.645 1913,-102 1921.24,-97.3153 1929.35,-91.3107 1936.76,-85.0992"/>
<polygon fill="none" stroke="midnightblue" points="1741.57,-161.114 1732.64,-166.813 1743.17,-167.927 1741.57,-161.114"/>
</g>
<!-- Node20 -->
<g id="node20" class="node"><title>Node20</title>
<g id="a_node20"><a xlink:href="classspdlog_1_1details_1_1m__formatter.html" target="_top" xlink:title="{spdlog::details::m\l_formatter\n||}">
<polygon fill="none" stroke="black" points="2035,-17 2035,-85 2129,-85 2129,-17 2035,-17"/>
<text text-anchor="start" x="2043" y="-73" font-family="Helvetica,sans-Serif" font-size="10.00">spdlog::details::m</text>
<text text-anchor="middle" x="2082" y="-62" font-family="Helvetica,sans-Serif" font-size="10.00">_formatter</text>
<polyline fill="none" stroke="black" points="2035,-55 2129,-55 "/>
<text text-anchor="middle" x="2082" y="-43" font-family="Helvetica,sans-Serif" font-size="10.00"> </text>
<polyline fill="none" stroke="black" points="2035,-36 2129,-36 "/>
<text text-anchor="middle" x="2082" y="-24" font-family="Helvetica,sans-Serif" font-size="10.00"> </text>
</a>
</g>
</g>
<!-- Node1&#45;&gt;Node20 -->
<g id="edge19" class="edge"><title>Node1&#45;&gt;Node20</title>
<path fill="none" stroke="midnightblue" d="M1742.68,-173.132C1813.96,-166.532 1934.14,-148.863 2026,-102 2034.59,-97.6169 2042.89,-91.5899 2050.36,-85.2356"/>
<polygon fill="none" stroke="midnightblue" points="1742.18,-169.663 1732.53,-174.028 1742.79,-176.636 1742.18,-169.663"/>
</g>
<!-- Node21 -->
<g id="node21" class="node"><title>Node21</title>
<g id="a_node21"><a xlink:href="classspdlog_1_1details_1_1p__formatter.html" target="_top" xlink:title="{spdlog::details::p\l_formatter\n||}">
<polygon fill="none" stroke="black" points="2147.5,-17 2147.5,-85 2238.5,-85 2238.5,-17 2147.5,-17"/>
<text text-anchor="start" x="2155.5" y="-73" font-family="Helvetica,sans-Serif" font-size="10.00">spdlog::details::p</text>
<text text-anchor="middle" x="2193" y="-62" font-family="Helvetica,sans-Serif" font-size="10.00">_formatter</text>
<polyline fill="none" stroke="black" points="2147.5,-55 2238.5,-55 "/>
<text text-anchor="middle" x="2193" y="-43" font-family="Helvetica,sans-Serif" font-size="10.00"> </text>
<polyline fill="none" stroke="black" points="2147.5,-36 2238.5,-36 "/>
<text text-anchor="middle" x="2193" y="-24" font-family="Helvetica,sans-Serif" font-size="10.00"> </text>
</a>
</g>
</g>
<!-- Node1&#45;&gt;Node21 -->
<g id="edge20" class="edge"><title>Node1&#45;&gt;Node21</title>
<path fill="none" stroke="midnightblue" d="M1742.79,-177.739C1833.4,-176.537 2007.25,-165.227 2138,-102 2146.83,-97.7304 2155.26,-91.5892 2162.76,-85.0638"/>
<polygon fill="none" stroke="midnightblue" points="1742.65,-174.24 1732.69,-177.835 1742.72,-181.239 1742.65,-174.24"/>
</g>
<!-- Node22 -->
<g id="node22" class="node"><title>Node22</title>
<g id="a_node22"><a xlink:href="classspdlog_1_1details_1_1pid__formatter.html" target="_top" xlink:title="{spdlog::details::pid\l_formatter\n||}">
<polygon fill="none" stroke="black" points="2257,-17 2257,-85 2355,-85 2355,-17 2257,-17"/>
<text text-anchor="start" x="2265" y="-73" font-family="Helvetica,sans-Serif" font-size="10.00">spdlog::details::pid</text>
<text text-anchor="middle" x="2306" y="-62" font-family="Helvetica,sans-Serif" font-size="10.00">_formatter</text>
<polyline fill="none" stroke="black" points="2257,-55 2355,-55 "/>
<text text-anchor="middle" x="2306" y="-43" font-family="Helvetica,sans-Serif" font-size="10.00"> </text>
<polyline fill="none" stroke="black" points="2257,-36 2355,-36 "/>
<text text-anchor="middle" x="2306" y="-24" font-family="Helvetica,sans-Serif" font-size="10.00"> </text>
</a>
</g>
</g>
<!-- Node1&#45;&gt;Node22 -->
<g id="edge21" class="edge"><title>Node1&#45;&gt;Node22</title>
<path fill="none" stroke="midnightblue" d="M1743.13,-173.241C1870.04,-164.735 2157.7,-141.61 2247,-102 2256.45,-97.8081 2265.55,-91.6144 2273.66,-85.0023"/>
<polygon fill="none" stroke="midnightblue" points="1742.57,-169.771 1732.82,-173.924 1743.03,-176.755 1742.57,-169.771"/>
</g>
<!-- Node23 -->
<g id="node23" class="node"><title>Node23</title>
<g id="a_node23"><a xlink:href="classspdlog_1_1details_1_1r__formatter.html" target="_top" xlink:title="{spdlog::details::r\l_formatter\n||}">
<polygon fill="none" stroke="black" points="2372.5,-17 2372.5,-85 2461.5,-85 2461.5,-17 2372.5,-17"/>
<text text-anchor="start" x="2380.5" y="-73" font-family="Helvetica,sans-Serif" font-size="10.00">spdlog::details::r</text>
<text text-anchor="middle" x="2417" y="-62" font-family="Helvetica,sans-Serif" font-size="10.00">_formatter</text>
<polyline fill="none" stroke="black" points="2372.5,-55 2461.5,-55 "/>
<text text-anchor="middle" x="2417" y="-43" font-family="Helvetica,sans-Serif" font-size="10.00"> </text>
<polyline fill="none" stroke="black" points="2372.5,-36 2461.5,-36 "/>
<text text-anchor="middle" x="2417" y="-24" font-family="Helvetica,sans-Serif" font-size="10.00"> </text>
</a>
</g>
</g>
<!-- Node1&#45;&gt;Node23 -->
<g id="edge22" class="edge"><title>Node1&#45;&gt;Node23</title>
<path fill="none" stroke="midnightblue" d="M1743.09,-175.145C1888.87,-169.945 2253.11,-152.175 2363,-102 2371.95,-97.9138 2380.4,-91.7623 2387.84,-85.1575"/>
<polygon fill="none" stroke="midnightblue" points="1742.85,-171.651 1732.98,-175.497 1743.09,-178.646 1742.85,-171.651"/>
</g>
<!-- Node24 -->
<g id="node24" class="node"><title>Node24</title>
<g id="a_node24"><a xlink:href="classspdlog_1_1details_1_1R__formatter.html" target="_top" xlink:title="{spdlog::details::R\l_formatter\n||}">
<polygon fill="none" stroke="black" points="2479.5,-17 2479.5,-85 2572.5,-85 2572.5,-17 2479.5,-17"/>
<text text-anchor="start" x="2487.5" y="-73" font-family="Helvetica,sans-Serif" font-size="10.00">spdlog::details::R</text>
<text text-anchor="middle" x="2526" y="-62" font-family="Helvetica,sans-Serif" font-size="10.00">_formatter</text>
<polyline fill="none" stroke="black" points="2479.5,-55 2572.5,-55 "/>
<text text-anchor="middle" x="2526" y="-43" font-family="Helvetica,sans-Serif" font-size="10.00"> </text>
<polyline fill="none" stroke="black" points="2479.5,-36 2572.5,-36 "/>
<text text-anchor="middle" x="2526" y="-24" font-family="Helvetica,sans-Serif" font-size="10.00"> </text>
</a>
</g>
</g>
<!-- Node1&#45;&gt;Node24 -->
<g id="edge23" class="edge"><title>Node1&#45;&gt;Node24</title>
<path fill="none" stroke="midnightblue" d="M1742.76,-176.076C1904.05,-172.861 2339.53,-158.995 2470,-102 2479.32,-97.9302 2488.15,-91.6987 2495.94,-85.0006"/>
<polygon fill="none" stroke="midnightblue" points="1742.47,-172.581 1732.54,-176.273 1742.61,-179.58 1742.47,-172.581"/>
</g>
<!-- Node25 -->
<g id="node25" class="node"><title>Node25</title>
<g id="a_node25"><a xlink:href="classspdlog_1_1details_1_1S__formatter.html" target="_top" xlink:title="{spdlog::details::S\l_formatter\n||}">
<polygon fill="none" stroke="black" points="2591,-17 2591,-85 2683,-85 2683,-17 2591,-17"/>
<text text-anchor="start" x="2599" y="-73" font-family="Helvetica,sans-Serif" font-size="10.00">spdlog::details::S</text>
<text text-anchor="middle" x="2637" y="-62" font-family="Helvetica,sans-Serif" font-size="10.00">_formatter</text>
<polyline fill="none" stroke="black" points="2591,-55 2683,-55 "/>
<text text-anchor="middle" x="2637" y="-43" font-family="Helvetica,sans-Serif" font-size="10.00"> </text>
<polyline fill="none" stroke="black" points="2591,-36 2683,-36 "/>
<text text-anchor="middle" x="2637" y="-24" font-family="Helvetica,sans-Serif" font-size="10.00"> </text>
</a>
</g>
</g>
<!-- Node1&#45;&gt;Node25 -->
<g id="edge24" class="edge"><title>Node1&#45;&gt;Node25</title>
<path fill="none" stroke="midnightblue" d="M1742.92,-176.904C1919.66,-175.848 2429.61,-167.088 2581,-102 2590.34,-97.9846 2599.19,-91.7743 2606.97,-85.0795"/>
<polygon fill="none" stroke="midnightblue" points="1742.74,-173.405 1732.76,-176.958 1742.78,-180.404 1742.74,-173.405"/>
</g>
<!-- Node26 -->
<g id="node26" class="node"><title>Node26</title>
<g id="a_node26"><a xlink:href="classspdlog_1_1details_1_1short__level__formatter.html" target="_top" xlink:title="{spdlog::details::short\l_level_formatter\n||}">
<polygon fill="none" stroke="black" points="2701.5,-17 2701.5,-85 2808.5,-85 2808.5,-17 2701.5,-17"/>
<text text-anchor="start" x="2709.5" y="-73" font-family="Helvetica,sans-Serif" font-size="10.00">spdlog::details::short</text>
<text text-anchor="middle" x="2755" y="-62" font-family="Helvetica,sans-Serif" font-size="10.00">_level_formatter</text>
<polyline fill="none" stroke="black" points="2701.5,-55 2808.5,-55 "/>
<text text-anchor="middle" x="2755" y="-43" font-family="Helvetica,sans-Serif" font-size="10.00"> </text>
<polyline fill="none" stroke="black" points="2701.5,-36 2808.5,-36 "/>
<text text-anchor="middle" x="2755" y="-24" font-family="Helvetica,sans-Serif" font-size="10.00"> </text>
</a>
</g>
</g>
<!-- Node1&#45;&gt;Node26 -->
<g id="edge25" class="edge"><title>Node1&#45;&gt;Node26</title>
<path fill="none" stroke="midnightblue" d="M1742.94,-177.131C1933.77,-176.82 2517.52,-170.176 2692,-102 2702.14,-98.0362 2711.96,-91.8461 2720.7,-85.1543"/>
<polygon fill="none" stroke="midnightblue" points="1742.8,-173.631 1732.81,-177.143 1742.81,-180.631 1742.8,-173.631"/>
</g>
<!-- Node27 -->
<g id="node27" class="node"><title>Node27</title>
<g id="a_node27"><a xlink:href="classspdlog_1_1details_1_1T__formatter.html" target="_top" xlink:title="{spdlog::details::T\l_formatter\n||}">
<polygon fill="none" stroke="black" points="2827,-17 2827,-85 2919,-85 2919,-17 2827,-17"/>
<text text-anchor="start" x="2835" y="-73" font-family="Helvetica,sans-Serif" font-size="10.00">spdlog::details::T</text>
<text text-anchor="middle" x="2873" y="-62" font-family="Helvetica,sans-Serif" font-size="10.00">_formatter</text>
<polyline fill="none" stroke="black" points="2827,-55 2919,-55 "/>
<text text-anchor="middle" x="2873" y="-43" font-family="Helvetica,sans-Serif" font-size="10.00"> </text>
<polyline fill="none" stroke="black" points="2827,-36 2919,-36 "/>
<text text-anchor="middle" x="2873" y="-24" font-family="Helvetica,sans-Serif" font-size="10.00"> </text>
</a>
</g>
</g>
<!-- Node1&#45;&gt;Node27 -->
<g id="edge26" class="edge"><title>Node1&#45;&gt;Node27</title>
<path fill="none" stroke="midnightblue" d="M1742.92,-175.29C1964.21,-168.762 2717.74,-143.663 2817,-102 2826.37,-98.0653 2835.23,-91.8866 2843.02,-85.1966"/>
<polygon fill="none" stroke="midnightblue" points="1742.68,-171.795 1732.79,-175.587 1742.89,-178.792 1742.68,-171.795"/>
</g>
<!-- Node28 -->
<g id="node28" class="node"><title>Node28</title>
<g id="a_node28"><a xlink:href="classspdlog_1_1details_1_1t__formatter.html" target="_top" xlink:title="{spdlog::details::t\l_formatter\n||}">
<polygon fill="none" stroke="black" points="2937.5,-17 2937.5,-85 3026.5,-85 3026.5,-17 2937.5,-17"/>
<text text-anchor="start" x="2945.5" y="-73" font-family="Helvetica,sans-Serif" font-size="10.00">spdlog::details::t</text>
<text text-anchor="middle" x="2982" y="-62" font-family="Helvetica,sans-Serif" font-size="10.00">_formatter</text>
<polyline fill="none" stroke="black" points="2937.5,-55 3026.5,-55 "/>
<text text-anchor="middle" x="2982" y="-43" font-family="Helvetica,sans-Serif" font-size="10.00"> </text>
<polyline fill="none" stroke="black" points="2937.5,-36 3026.5,-36 "/>
<text text-anchor="middle" x="2982" y="-24" font-family="Helvetica,sans-Serif" font-size="10.00"> </text>
</a>
</g>
</g>
<!-- Node1&#45;&gt;Node28 -->
<g id="edge27" class="edge"><title>Node1&#45;&gt;Node28</title>
<path fill="none" stroke="midnightblue" d="M1742.95,-175.734C1978.06,-170.524 2818.45,-148.773 2928,-102 2937.17,-98.0867 2945.76,-91.9163 2953.28,-85.2276"/>
<polygon fill="none" stroke="midnightblue" points="1742.79,-172.237 1732.87,-175.956 1742.94,-179.235 1742.79,-172.237"/>
</g>
<!-- Node29 -->
<g id="node29" class="node"><title>Node29</title>
<g id="a_node29"><a xlink:href="classspdlog_1_1details_1_1v__formatter.html" target="_top" xlink:title="{spdlog::details::v\l_formatter\n||}">
<polygon fill="none" stroke="black" points="3044.5,-17 3044.5,-85 3135.5,-85 3135.5,-17 3044.5,-17"/>
<text text-anchor="start" x="3052.5" y="-73" font-family="Helvetica,sans-Serif" font-size="10.00">spdlog::details::v</text>
<text text-anchor="middle" x="3090" y="-62" font-family="Helvetica,sans-Serif" font-size="10.00">_formatter</text>
<polyline fill="none" stroke="black" points="3044.5,-55 3135.5,-55 "/>
<text text-anchor="middle" x="3090" y="-43" font-family="Helvetica,sans-Serif" font-size="10.00"> </text>
<polyline fill="none" stroke="black" points="3044.5,-36 3135.5,-36 "/>
<text text-anchor="middle" x="3090" y="-24" font-family="Helvetica,sans-Serif" font-size="10.00"> </text>
</a>
</g>
</g>
<!-- Node1&#45;&gt;Node29 -->
<g id="edge28" class="edge"><title>Node1&#45;&gt;Node29</title>
<path fill="none" stroke="midnightblue" d="M1743.15,-176.012C1991.21,-171.679 2914.94,-152.281 3035,-102 3044.4,-98.062 3053.24,-91.793 3060.97,-85.0067"/>
<polygon fill="none" stroke="midnightblue" points="1742.82,-172.517 1732.88,-176.189 1742.94,-179.516 1742.82,-172.517"/>
</g>
<!-- Node30 -->
<g id="node30" class="node"><title>Node30</title>
<g id="a_node30"><a xlink:href="classspdlog_1_1details_1_1Y__formatter.html" target="_top" xlink:title="{spdlog::details::Y\l_formatter\n||}">
<polygon fill="none" stroke="black" points="3154,-17 3154,-85 3246,-85 3246,-17 3154,-17"/>
<text text-anchor="start" x="3162" y="-73" font-family="Helvetica,sans-Serif" font-size="10.00">spdlog::details::Y</text>
<text text-anchor="middle" x="3200" y="-62" font-family="Helvetica,sans-Serif" font-size="10.00">_formatter</text>
<polyline fill="none" stroke="black" points="3154,-55 3246,-55 "/>
<text text-anchor="middle" x="3200" y="-43" font-family="Helvetica,sans-Serif" font-size="10.00"> </text>
<polyline fill="none" stroke="black" points="3154,-36 3246,-36 "/>
<text text-anchor="middle" x="3200" y="-24" font-family="Helvetica,sans-Serif" font-size="10.00"> </text>
</a>
</g>
</g>
<!-- Node1&#45;&gt;Node30 -->
<g id="edge29" class="edge"><title>Node1&#45;&gt;Node30</title>
<path fill="none" stroke="midnightblue" d="M1742.88,-176.258C2002.89,-172.766 3013.09,-155.822 3144,-102 3153.52,-98.0849 3162.5,-91.8246 3170.36,-85.0394"/>
<polygon fill="none" stroke="midnightblue" points="1742.81,-172.758 1732.86,-176.39 1742.9,-179.757 1742.81,-172.758"/>
</g>
<!-- Node31 -->
<g id="node31" class="node"><title>Node31</title>
<g id="a_node31"><a xlink:href="classspdlog_1_1details_1_1z__formatter.html" target="_top" xlink:title="{spdlog::details::z\l_formatter\n|+ cache_refresh\l|+ z_formatter()\l+ z_formatter()\l+ operator=()\l+ format()\l}">
<polygon fill="none" stroke="black" points="3264.5,-0.5 3264.5,-101.5 3355.5,-101.5 3355.5,-0.5 3264.5,-0.5"/>
<text text-anchor="start" x="3272.5" y="-89.5" font-family="Helvetica,sans-Serif" font-size="10.00">spdlog::details::z</text>
<text text-anchor="middle" x="3310" y="-78.5" font-family="Helvetica,sans-Serif" font-size="10.00">_formatter</text>
<polyline fill="none" stroke="black" points="3264.5,-71.5 3355.5,-71.5 "/>
<text text-anchor="start" x="3272.5" y="-59.5" font-family="Helvetica,sans-Serif" font-size="10.00">+ cache_refresh</text>
<polyline fill="none" stroke="black" points="3264.5,-52.5 3355.5,-52.5 "/>
<text text-anchor="start" x="3272.5" y="-40.5" font-family="Helvetica,sans-Serif" font-size="10.00">+ z_formatter()</text>
<text text-anchor="start" x="3272.5" y="-29.5" font-family="Helvetica,sans-Serif" font-size="10.00">+ z_formatter()</text>
<text text-anchor="start" x="3272.5" y="-18.5" font-family="Helvetica,sans-Serif" font-size="10.00">+ operator=()</text>
<text text-anchor="start" x="3272.5" y="-7.5" font-family="Helvetica,sans-Serif" font-size="10.00">+ format()</text>
</a>
</g>
</g>
<!-- Node1&#45;&gt;Node31 -->
<g id="edge30" class="edge"><title>Node1&#45;&gt;Node31</title>
<path fill="none" stroke="midnightblue" d="M1742.98,-176.524C2015.36,-174.07 3113.56,-160.593 3255,-102 3258.22,-100.667 3261.37,-99.0582 3264.43,-97.2477"/>
<polygon fill="none" stroke="midnightblue" points="1742.85,-173.025 1732.88,-176.613 1742.92,-180.024 1742.85,-173.025"/>
</g>
</g>
</svg>
