<?xml version="1.0" encoding="UTF-8" standalone="no"?>
<!DOCTYPE svg PUBLIC "-//W3C//DTD SVG 1.1//EN"
 "http://www.w3.org/Graphics/SVG/1.1/DTD/svg11.dtd">
<!-- Generated by graphviz version 2.38.0 (20140413.2041)
 -->
<!-- Title: XBot::FileLogger Pages: 1 -->
<svg width="97pt" height="193pt"
 viewBox="0.00 0.00 97.00 193.00" xmlns="http://www.w3.org/2000/svg" xmlns:xlink="http://www.w3.org/1999/xlink">
<g id="graph0" class="graph" transform="scale(1 1) rotate(0) translate(4 189)">
<title>XBot::FileLogger</title>
<!-- Node1 -->
<g id="node1" class="node"><title>Node1</title>
<polygon fill="#bfbfbf" stroke="black" points="-7.10543e-15,-0.5 -7.10543e-15,-57.5 89,-57.5 89,-0.5 -7.10543e-15,-0.5"/>
<text text-anchor="middle" x="44.5" y="-45.5" font-family="Helvetica,sans-Serif" font-size="10.00">XBot::FileLogger</text>
<polyline fill="none" stroke="black" points="-7.10543e-15,-38.5 89,-38.5 "/>
<text text-anchor="middle" x="44.5" y="-26.5" font-family="Helvetica,sans-Serif" font-size="10.00"> </text>
<polyline fill="none" stroke="black" points="-7.10543e-15,-19.5 89,-19.5 "/>
<text text-anchor="start" x="8" y="-7.5" font-family="Helvetica,sans-Serif" font-size="10.00">+ getLogger()</text>
</g>
<!-- Node2 -->
<g id="node2" class="node"><title>Node2</title>
<g id="a_node2"><a xlink:href="classXBot_1_1Logger.html" target="_top" xlink:title="{XBot::Logger\n|# _ss_logger\l|+ info()\l+ warning()\l+ error()\l+ endl()\l}">
<polygon fill="none" stroke="black" points="7.5,-94.5 7.5,-184.5 81.5,-184.5 81.5,-94.5 7.5,-94.5"/>
<text text-anchor="middle" x="44.5" y="-172.5" font-family="Helvetica,sans-Serif" font-size="10.00">XBot::Logger</text>
<polyline fill="none" stroke="black" points="7.5,-165.5 81.5,-165.5 "/>
<text text-anchor="start" x="15.5" y="-153.5" font-family="Helvetica,sans-Serif" font-size="10.00"># _ss_logger</text>
<polyline fill="none" stroke="black" points="7.5,-146.5 81.5,-146.5 "/>
<text text-anchor="start" x="15.5" y="-134.5" font-family="Helvetica,sans-Serif" font-size="10.00">+ info()</text>
<text text-anchor="start" x="15.5" y="-123.5" font-family="Helvetica,sans-Serif" font-size="10.00">+ warning()</text>
<text text-anchor="start" x="15.5" y="-112.5" font-family="Helvetica,sans-Serif" font-size="10.00">+ error()</text>
<text text-anchor="start" x="15.5" y="-101.5" font-family="Helvetica,sans-Serif" font-size="10.00">+ endl()</text>
</a>
</g>
</g>
<!-- Node2&#45;&gt;Node1 -->
<g id="edge1" class="edge"><title>Node2&#45;&gt;Node1</title>
<path fill="none" stroke="midnightblue" d="M44.5,-84.3531C44.5,-75.074 44.5,-65.7909 44.5,-57.5896"/>
<polygon fill="none" stroke="midnightblue" points="41.0001,-84.3689 44.5,-94.3689 48.0001,-84.3689 41.0001,-84.3689"/>
</g>
</g>
</svg>
