<?xml version="1.0" encoding="UTF-8" standalone="no"?>
<!DOCTYPE svg PUBLIC "-//W3C//DTD SVG 1.1//EN"
 "http://www.w3.org/Graphics/SVG/1.1/DTD/svg11.dtd">
<!-- Generated by graphviz version 2.36.0 (20140111.2315)
 -->
<!-- Title: XBot::ModelChain Pages: 1 -->
<svg width="927pt" height="648pt"
 viewBox="0.00 0.00 927.00 648.00" xmlns="http://www.w3.org/2000/svg" xmlns:xlink="http://www.w3.org/1999/xlink">
<g id="graph0" class="graph" transform="scale(1 1) rotate(0) translate(4 644)">
<title>XBot::ModelChain</title>
<!-- Node1 -->
<g id="node1" class="node"><title>Node1</title>
<polygon fill="#bfbfbf" stroke="black" points="450,-0.5 450,-57.5 546,-57.5 546,-0.5 450,-0.5"/>
<text text-anchor="middle" x="498" y="-45.5" font-family="Helvetica,sans-Serif" font-size="10.00">XBot::ModelChain</text>
<polyline fill="none" stroke="black" points="450,-38.5 546,-38.5 "/>
<text text-anchor="middle" x="498" y="-26.5" font-family="Helvetica,sans-Serif" font-size="10.00"> </text>
<polyline fill="none" stroke="black" points="450,-19.5 546,-19.5 "/>
<text text-anchor="middle" x="498" y="-7.5" font-family="Helvetica,sans-Serif" font-size="10.00"> </text>
</g>
<!-- Node2 -->
<g id="node2" class="node"><title>Node2</title>
<g id="a_node2"><a xlink:href="classXBot_1_1KinematicChain.html" target="_top" xlink:title="Kinematic chain abstraction as a set of joints and sensors. ">
<polygon fill="none" stroke="black" points="432.5,-97 432.5,-297 563.5,-297 563.5,-97 432.5,-97"/>
<text text-anchor="middle" x="498" y="-285" font-family="Helvetica,sans-Serif" font-size="10.00">XBot::KinematicChain</text>
<polyline fill="none" stroke="black" points="432.5,-278 563.5,-278 "/>
<text text-anchor="middle" x="498" y="-266" font-family="Helvetica,sans-Serif" font-size="10.00"> </text>
<polyline fill="none" stroke="black" points="432.5,-259 563.5,-259 "/>
<text text-anchor="start" x="440.5" y="-247" font-family="Helvetica,sans-Serif" font-size="10.00">+ KinematicChain()</text>
<text text-anchor="start" x="440.5" y="-236" font-family="Helvetica,sans-Serif" font-size="10.00">+ KinematicChain()</text>
<text text-anchor="start" x="440.5" y="-225" font-family="Helvetica,sans-Serif" font-size="10.00">+ KinematicChain()</text>
<text text-anchor="start" x="440.5" y="-214" font-family="Helvetica,sans-Serif" font-size="10.00">+ KinematicChain()</text>
<text text-anchor="start" x="440.5" y="-203" font-family="Helvetica,sans-Serif" font-size="10.00">+ operator=()</text>
<text text-anchor="start" x="440.5" y="-192" font-family="Helvetica,sans-Serif" font-size="10.00">+ getChainState()</text>
<text text-anchor="start" x="440.5" y="-181" font-family="Helvetica,sans-Serif" font-size="10.00">+ getChainState()</text>
<text text-anchor="start" x="440.5" y="-170" font-family="Helvetica,sans-Serif" font-size="10.00">+ getChainState()</text>
<text text-anchor="start" x="440.5" y="-159" font-family="Helvetica,sans-Serif" font-size="10.00">+ getForceTorque()</text>
<text text-anchor="start" x="440.5" y="-148" font-family="Helvetica,sans-Serif" font-size="10.00">+ getImu()</text>
<text text-anchor="start" x="440.5" y="-137" font-family="Helvetica,sans-Serif" font-size="10.00">and 141 more...</text>
<text text-anchor="start" x="440.5" y="-126" font-family="Helvetica,sans-Serif" font-size="10.00"># getJointInternal()</text>
<text text-anchor="start" x="440.5" y="-115" font-family="Helvetica,sans-Serif" font-size="10.00"># getForceTorqueInternal()</text>
<text text-anchor="start" x="440.5" y="-104" font-family="Helvetica,sans-Serif" font-size="10.00"># getImuInternal()</text>
</a>
</g>
</g>
<!-- Node2&#45;&gt;Node1 -->
<g id="edge1" class="edge"><title>Node2&#45;&gt;Node1</title>
<path fill="none" stroke="midnightblue" d="M498,-86.3704C498,-75.9157 498,-66.0915 498,-57.6649"/>
<polygon fill="none" stroke="midnightblue" points="494.5,-86.562 498,-96.5621 501.5,-86.5621 494.5,-86.562"/>
</g>
<!-- Node3 -->
<g id="node3" class="node"><title>Node3</title>
<polygon fill="none" stroke="#bfbfbf" points="-0.5,-346.5 -0.5,-425.5 132.5,-425.5 132.5,-346.5 -0.5,-346.5"/>
<text text-anchor="start" x="7.5" y="-413.5" font-family="Helvetica,sans-Serif" font-size="10.00">std::map&lt; std::string,</text>
<text text-anchor="start" x="7.5" y="-402.5" font-family="Helvetica,sans-Serif" font-size="10.00"> XBot::ForceTorqueSensor</text>
<text text-anchor="middle" x="66" y="-391.5" font-family="Helvetica,sans-Serif" font-size="10.00">::Ptr &gt;</text>
<polyline fill="none" stroke="#bfbfbf" points="-0.5,-384.5 132.5,-384.5 "/>
<text text-anchor="start" x="7.5" y="-372.5" font-family="Helvetica,sans-Serif" font-size="10.00">+ elements</text>
<polyline fill="none" stroke="#bfbfbf" points="-0.5,-365.5 132.5,-365.5 "/>
<text text-anchor="middle" x="66" y="-353.5" font-family="Helvetica,sans-Serif" font-size="10.00"> </text>
</g>
<!-- Node3&#45;&gt;Node2 -->
<g id="edge2" class="edge"><title>Node3&#45;&gt;Node2</title>
<path fill="none" stroke="#404040" d="M132.579,-350.453C135.753,-348.926 138.905,-347.434 142,-346 236.823,-302.046 348.416,-256.65 421.045,-227.923"/>
<polygon fill="none" stroke="#404040" points="421.196,-227.864 425.309,-221.941 432.358,-223.459 428.245,-229.382 421.196,-227.864"/>
<text text-anchor="middle" x="222" y="-319.5" font-family="Helvetica,sans-Serif" font-size="10.00"> #_ft_map</text>
</g>
<!-- Node4 -->
<g id="node4" class="node"><title>Node4</title>
<g id="a_node4"><a xlink:title="STL class. ">
<polygon fill="none" stroke="#bfbfbf" points="182,-474.5 182,-531.5 242,-531.5 242,-474.5 182,-474.5"/>
<text text-anchor="middle" x="212" y="-519.5" font-family="Helvetica,sans-Serif" font-size="10.00">std::string</text>
<polyline fill="none" stroke="#bfbfbf" points="182,-512.5 242,-512.5 "/>
<text text-anchor="middle" x="212" y="-500.5" font-family="Helvetica,sans-Serif" font-size="10.00"> </text>
<polyline fill="none" stroke="#bfbfbf" points="182,-493.5 242,-493.5 "/>
<text text-anchor="middle" x="212" y="-481.5" font-family="Helvetica,sans-Serif" font-size="10.00"> </text>
</a>
</g>
</g>
<!-- Node4&#45;&gt;Node3 -->
<g id="edge3" class="edge"><title>Node4&#45;&gt;Node3</title>
<path fill="none" stroke="#404040" d="M181.749,-478.172C165.168,-465.112 144.044,-448.473 124.393,-432.994"/>
<polygon fill="none" stroke="#404040" points="124.317,-432.935 117.129,-432.364 114.89,-425.509 122.079,-426.08 124.317,-432.935"/>
<text text-anchor="middle" x="168.5" y="-447.5" font-family="Helvetica,sans-Serif" font-size="10.00"> +keys</text>
</g>
<!-- Node6 -->
<g id="node6" class="node"><title>Node6</title>
<polygon fill="none" stroke="#bfbfbf" points="151,-352 151,-420 273,-420 273,-352 151,-352"/>
<text text-anchor="start" x="159" y="-408" font-family="Helvetica,sans-Serif" font-size="10.00">std::map&lt; std::string,</text>
<text text-anchor="middle" x="212" y="-397" font-family="Helvetica,sans-Serif" font-size="10.00"> XBot::ImuSensor::Ptr &gt;</text>
<polyline fill="none" stroke="#bfbfbf" points="151,-390 273,-390 "/>
<text text-anchor="start" x="159" y="-378" font-family="Helvetica,sans-Serif" font-size="10.00">+ elements</text>
<polyline fill="none" stroke="#bfbfbf" points="151,-371 273,-371 "/>
<text text-anchor="middle" x="212" y="-359" font-family="Helvetica,sans-Serif" font-size="10.00"> </text>
</g>
<!-- Node4&#45;&gt;Node6 -->
<g id="edge6" class="edge"><title>Node4&#45;&gt;Node6</title>
<path fill="none" stroke="#404040" d="M212,-474.455C212,-461.812 212,-446.488 212,-432.222"/>
<polygon fill="none" stroke="#404040" points="212,-432.052 208,-426.052 212,-420.052 216,-426.052 212,-432.052"/>
<text text-anchor="middle" x="227.5" y="-447.5" font-family="Helvetica,sans-Serif" font-size="10.00"> +keys</text>
</g>
<!-- Node7 -->
<g id="node7" class="node"><title>Node7</title>
<polygon fill="none" stroke="#bfbfbf" points="291,-352 291,-420 415,-420 415,-352 291,-352"/>
<text text-anchor="start" x="299" y="-408" font-family="Helvetica,sans-Serif" font-size="10.00">std::map&lt; std::string,</text>
<text text-anchor="middle" x="353" y="-397" font-family="Helvetica,sans-Serif" font-size="10.00"> XBot::XBot::Joint::Ptr &gt;</text>
<polyline fill="none" stroke="#bfbfbf" points="291,-390 415,-390 "/>
<text text-anchor="start" x="299" y="-378" font-family="Helvetica,sans-Serif" font-size="10.00">+ elements</text>
<polyline fill="none" stroke="#bfbfbf" points="291,-371 415,-371 "/>
<text text-anchor="middle" x="353" y="-359" font-family="Helvetica,sans-Serif" font-size="10.00"> </text>
</g>
<!-- Node4&#45;&gt;Node7 -->
<g id="edge8" class="edge"><title>Node4&#45;&gt;Node7</title>
<path fill="none" stroke="#404040" d="M242.248,-477.33C259.922,-462.915 282.67,-444.361 302.948,-427.822"/>
<polygon fill="none" stroke="#404040" points="303.068,-427.725 305.189,-420.833 312.367,-420.14 310.246,-427.032 303.068,-427.725"/>
<text text-anchor="middle" x="298.5" y="-447.5" font-family="Helvetica,sans-Serif" font-size="10.00"> +keys</text>
</g>
<!-- Node5 -->
<g id="node5" class="node"><title>Node5</title>
<g id="a_node5"><a xlink:title="STL class. ">
<polygon fill="none" stroke="#bfbfbf" points="164.5,-571 164.5,-639 259.5,-639 259.5,-571 164.5,-571"/>
<text text-anchor="start" x="172.5" y="-627" font-family="Helvetica,sans-Serif" font-size="10.00">std::basic_string&lt;</text>
<text text-anchor="middle" x="212" y="-616" font-family="Helvetica,sans-Serif" font-size="10.00"> char &gt;</text>
<polyline fill="none" stroke="#bfbfbf" points="164.5,-609 259.5,-609 "/>
<text text-anchor="middle" x="212" y="-597" font-family="Helvetica,sans-Serif" font-size="10.00"> </text>
<polyline fill="none" stroke="#bfbfbf" points="164.5,-590 259.5,-590 "/>
<text text-anchor="middle" x="212" y="-578" font-family="Helvetica,sans-Serif" font-size="10.00"> </text>
</a>
</g>
</g>
<!-- Node5&#45;&gt;Node4 -->
<g id="edge4" class="edge"><title>Node5&#45;&gt;Node4</title>
<path fill="none" stroke="midnightblue" d="M212,-560.857C212,-550.952 212,-540.682 212,-531.64"/>
<polygon fill="none" stroke="midnightblue" points="208.5,-560.979 212,-570.979 215.5,-560.979 208.5,-560.979"/>
</g>
<!-- Node6&#45;&gt;Node2 -->
<g id="edge5" class="edge"><title>Node6&#45;&gt;Node2</title>
<path fill="none" stroke="#404040" d="M262.473,-351.999C306.73,-323.061 371.71,-280.574 422.212,-247.554"/>
<polygon fill="none" stroke="#404040" points="422.388,-247.438 425.221,-240.807 432.432,-240.871 429.599,-247.503 422.388,-247.438"/>
<text text-anchor="middle" x="340" y="-319.5" font-family="Helvetica,sans-Serif" font-size="10.00"> #_imu_map</text>
</g>
<!-- Node7&#45;&gt;Node2 -->
<g id="edge7" class="edge"><title>Node7&#45;&gt;Node2</title>
<path fill="none" stroke="#404040" d="M378.589,-351.999C391.691,-335.102 408.375,-313.585 425.089,-292.031"/>
<polygon fill="none" stroke="#404040" points="425.145,-291.957 425.661,-284.765 432.499,-282.474 431.983,-289.667 425.145,-291.957"/>
<text text-anchor="middle" x="447.5" y="-319.5" font-family="Helvetica,sans-Serif" font-size="10.00"> #_joint_name_map</text>
</g>
<!-- Node8 -->
<g id="node8" class="node"><title>Node8</title>
<polygon fill="none" stroke="#bfbfbf" points="433,-352 433,-420 563,-420 563,-352 433,-352"/>
<text text-anchor="start" x="441" y="-408" font-family="Helvetica,sans-Serif" font-size="10.00">std::vector&lt; XBot::</text>
<text text-anchor="middle" x="498" y="-397" font-family="Helvetica,sans-Serif" font-size="10.00">ForceTorqueSensor::Ptr &gt;</text>
<polyline fill="none" stroke="#bfbfbf" points="433,-390 563,-390 "/>
<text text-anchor="start" x="441" y="-378" font-family="Helvetica,sans-Serif" font-size="10.00">+ elements</text>
<polyline fill="none" stroke="#bfbfbf" points="433,-371 563,-371 "/>
<text text-anchor="middle" x="498" y="-359" font-family="Helvetica,sans-Serif" font-size="10.00"> </text>
</g>
<!-- Node8&#45;&gt;Node2 -->
<g id="edge9" class="edge"><title>Node8&#45;&gt;Node2</title>
<path fill="none" stroke="#404040" d="M498,-351.999C498,-339.754 498,-325.083 498,-309.73"/>
<polygon fill="none" stroke="#404040" points="498,-309.305 494,-303.305 498,-297.305 502,-303.305 498,-309.305"/>
<text text-anchor="middle" x="524" y="-319.5" font-family="Helvetica,sans-Serif" font-size="10.00"> #_ft_vector</text>
</g>
<!-- Node9 -->
<g id="node9" class="node"><title>Node9</title>
<polygon fill="none" stroke="#bfbfbf" points="581,-346.5 581,-425.5 683,-425.5 683,-346.5 581,-346.5"/>
<text text-anchor="start" x="589" y="-413.5" font-family="Helvetica,sans-Serif" font-size="10.00">std::map&lt; int, XBot</text>
<text text-anchor="middle" x="632" y="-402.5" font-family="Helvetica,sans-Serif" font-size="10.00">::XBot::Joint::Ptr &gt;</text>
<polyline fill="none" stroke="#bfbfbf" points="581,-395.5 683,-395.5 "/>
<text text-anchor="start" x="589" y="-383.5" font-family="Helvetica,sans-Serif" font-size="10.00">+ keys</text>
<text text-anchor="start" x="589" y="-372.5" font-family="Helvetica,sans-Serif" font-size="10.00">+ elements</text>
<polyline fill="none" stroke="#bfbfbf" points="581,-365.5 683,-365.5 "/>
<text text-anchor="middle" x="632" y="-353.5" font-family="Helvetica,sans-Serif" font-size="10.00"> </text>
</g>
<!-- Node9&#45;&gt;Node2 -->
<g id="edge10" class="edge"><title>Node9&#45;&gt;Node2</title>
<path fill="none" stroke="#404040" d="M604.235,-346.253C594.302,-332.392 582.593,-316.052 570.643,-299.375"/>
<polygon fill="none" stroke="#404040" points="570.58,-299.288 563.834,-296.74 563.591,-289.533 570.337,-292.081 570.58,-299.288"/>
<text text-anchor="middle" x="623.5" y="-319.5" font-family="Helvetica,sans-Serif" font-size="10.00"> #_joint_id_map</text>
</g>
<!-- Node10 -->
<g id="node10" class="node"><title>Node10</title>
<polygon fill="none" stroke="#bfbfbf" points="701,-352 701,-420 801,-420 801,-352 701,-352"/>
<text text-anchor="start" x="709" y="-408" font-family="Helvetica,sans-Serif" font-size="10.00">std::vector&lt; XBot::</text>
<text text-anchor="middle" x="751" y="-397" font-family="Helvetica,sans-Serif" font-size="10.00">ImuSensor::Ptr &gt;</text>
<polyline fill="none" stroke="#bfbfbf" points="701,-390 801,-390 "/>
<text text-anchor="start" x="709" y="-378" font-family="Helvetica,sans-Serif" font-size="10.00">+ elements</text>
<polyline fill="none" stroke="#bfbfbf" points="701,-371 801,-371 "/>
<text text-anchor="middle" x="751" y="-359" font-family="Helvetica,sans-Serif" font-size="10.00"> </text>
</g>
<!-- Node10&#45;&gt;Node2 -->
<g id="edge11" class="edge"><title>Node10&#45;&gt;Node2</title>
<path fill="none" stroke="#404040" d="M708.683,-351.697C693.99,-340.266 677.35,-327.467 662,-316 633.469,-294.686 601.772,-271.718 573.909,-251.76"/>
<polygon fill="none" stroke="#404040" points="573.591,-251.532 566.383,-251.296 563.83,-244.552 571.037,-244.789 573.591,-251.532"/>
<text text-anchor="middle" x="708" y="-319.5" font-family="Helvetica,sans-Serif" font-size="10.00"> #_imu_vector</text>
</g>
<!-- Node11 -->
<g id="node11" class="node"><title>Node11</title>
<polygon fill="none" stroke="#bfbfbf" points="819,-352 819,-420 919,-420 919,-352 819,-352"/>
<text text-anchor="start" x="827" y="-408" font-family="Helvetica,sans-Serif" font-size="10.00">std::vector&lt; XBot::</text>
<text text-anchor="middle" x="869" y="-397" font-family="Helvetica,sans-Serif" font-size="10.00">XBot::Joint::Ptr &gt;</text>
<polyline fill="none" stroke="#bfbfbf" points="819,-390 919,-390 "/>
<text text-anchor="start" x="827" y="-378" font-family="Helvetica,sans-Serif" font-size="10.00">+ elements</text>
<polyline fill="none" stroke="#bfbfbf" points="819,-371 919,-371 "/>
<text text-anchor="middle" x="869" y="-359" font-family="Helvetica,sans-Serif" font-size="10.00"> </text>
</g>
<!-- Node11&#45;&gt;Node2 -->
<g id="edge12" class="edge"><title>Node11&#45;&gt;Node2</title>
<path fill="none" stroke="#404040" d="M820.069,-351.91C816.693,-349.859 813.315,-347.87 810,-346 732.043,-302.035 638.907,-259.017 574.806,-230.792"/>
<polygon fill="none" stroke="#404040" points="574.573,-230.69 567.472,-231.944 563.583,-225.871 570.685,-224.617 574.573,-230.69"/>
<text text-anchor="middle" x="810" y="-319.5" font-family="Helvetica,sans-Serif" font-size="10.00"> #_joint_vector</text>
</g>
</g>
</svg>
