<?xml version="1.0" encoding="UTF-8" standalone="no"?>
<!DOCTYPE svg PUBLIC "-//W3C//DTD SVG 1.1//EN"
 "http://www.w3.org/Graphics/SVG/1.1/DTD/svg11.dtd">
<!-- Generated by graphviz version 2.38.0 (20140413.2041)
 -->
<!-- Title: fmt::ArgList Pages: 1 -->
<svg width="646pt" height="536pt"
 viewBox="0.00 0.00 646.00 536.00" xmlns="http://www.w3.org/2000/svg" xmlns:xlink="http://www.w3.org/1999/xlink">
<g id="graph0" class="graph" transform="scale(1 1) rotate(0) translate(4 532)">
<title>fmt::ArgList</title>
<!-- Node1 -->
<g id="node1" class="node"><title>Node1</title>
<polygon fill="#bfbfbf" stroke="black" points="293.5,-0.5 293.5,-112.5 366.5,-112.5 366.5,-0.5 293.5,-0.5"/>
<text text-anchor="middle" x="330" y="-100.5" font-family="Helvetica,sans-Serif" font-size="10.00">fmt::ArgList</text>
<polyline fill="none" stroke="black" points="293.5,-93.5 366.5,-93.5 "/>
<text text-anchor="middle" x="330" y="-81.5" font-family="Helvetica,sans-Serif" font-size="10.00"> </text>
<polyline fill="none" stroke="black" points="293.5,-74.5 366.5,-74.5 "/>
<text text-anchor="start" x="301.5" y="-62.5" font-family="Helvetica,sans-Serif" font-size="10.00">+ ArgList()</text>
<text text-anchor="start" x="301.5" y="-51.5" font-family="Helvetica,sans-Serif" font-size="10.00">+ ArgList()</text>
<text text-anchor="start" x="301.5" y="-40.5" font-family="Helvetica,sans-Serif" font-size="10.00">+ ArgList()</text>
<text text-anchor="start" x="301.5" y="-29.5" font-family="Helvetica,sans-Serif" font-size="10.00">+ types()</text>
<text text-anchor="start" x="301.5" y="-18.5" font-family="Helvetica,sans-Serif" font-size="10.00">+ operator[]()</text>
<text text-anchor="start" x="301.5" y="-7.5" font-family="Helvetica,sans-Serif" font-size="10.00">+ type()</text>
</g>
<!-- Node2 -->
<g id="node2" class="node"><title>Node2</title>
<g id="a_node2"><a xlink:href="structfmt_1_1internal_1_1Value.html" target="_top" xlink:title="{fmt::internal::Value\n|+ int_value\l+ uint_value\l+ long_long_value\l+ ulong_long_value\l+ double_value\l+ long_double_value\l+ pointer\l+ @3\l|}">
<polygon fill="none" stroke="black" points="255,-255.5 255,-389.5 361,-389.5 361,-255.5 255,-255.5"/>
<text text-anchor="middle" x="308" y="-377.5" font-family="Helvetica,sans-Serif" font-size="10.00">fmt::internal::Value</text>
<polyline fill="none" stroke="black" points="255,-370.5 361,-370.5 "/>
<text text-anchor="start" x="263" y="-358.5" font-family="Helvetica,sans-Serif" font-size="10.00">+ int_value</text>
<text text-anchor="start" x="263" y="-347.5" font-family="Helvetica,sans-Serif" font-size="10.00">+ uint_value</text>
<text text-anchor="start" x="263" y="-336.5" font-family="Helvetica,sans-Serif" font-size="10.00">+ long_long_value</text>
<text text-anchor="start" x="263" y="-325.5" font-family="Helvetica,sans-Serif" font-size="10.00">+ ulong_long_value</text>
<text text-anchor="start" x="263" y="-314.5" font-family="Helvetica,sans-Serif" font-size="10.00">+ double_value</text>
<text text-anchor="start" x="263" y="-303.5" font-family="Helvetica,sans-Serif" font-size="10.00">+ long_double_value</text>
<text text-anchor="start" x="263" y="-292.5" font-family="Helvetica,sans-Serif" font-size="10.00">+ pointer</text>
<text text-anchor="start" x="263" y="-281.5" font-family="Helvetica,sans-Serif" font-size="10.00">+ @3</text>
<polyline fill="none" stroke="black" points="255,-274.5 361,-274.5 "/>
<text text-anchor="middle" x="308" y="-262.5" font-family="Helvetica,sans-Serif" font-size="10.00"> </text>
</a>
</g>
</g>
<!-- Node2&#45;&gt;Node1 -->
<g id="edge1" class="edge"><title>Node2&#45;&gt;Node1</title>
<path fill="none" stroke="#404040" d="M302.663,-255.288C301.358,-225.994 301.252,-191.184 305,-160 306.387,-148.46 308.623,-136.343 311.201,-124.644"/>
<polygon fill="none" stroke="#404040" points="311.273,-124.334 308.735,-117.584 313.99,-112.645 316.527,-119.395 311.273,-124.334"/>
<text text-anchor="middle" x="326.5" y="-186.5" font-family="Helvetica,sans-Serif" font-size="10.00"> +values_</text>
</g>
<!-- Node8 -->
<g id="node8" class="node"><title>Node8</title>
<g id="a_node8"><a xlink:href="structfmt_1_1internal_1_1Arg.html" target="_top" xlink:title="{fmt::internal::Arg\n|+ type\l|}">
<polygon fill="none" stroke="black" points="357.5,-160.5 357.5,-217.5 446.5,-217.5 446.5,-160.5 357.5,-160.5"/>
<text text-anchor="middle" x="402" y="-205.5" font-family="Helvetica,sans-Serif" font-size="10.00">fmt::internal::Arg</text>
<polyline fill="none" stroke="black" points="357.5,-198.5 446.5,-198.5 "/>
<text text-anchor="start" x="365.5" y="-186.5" font-family="Helvetica,sans-Serif" font-size="10.00">+ type</text>
<polyline fill="none" stroke="black" points="357.5,-179.5 446.5,-179.5 "/>
<text text-anchor="middle" x="402" y="-167.5" font-family="Helvetica,sans-Serif" font-size="10.00"> </text>
</a>
</g>
</g>
<!-- Node2&#45;&gt;Node8 -->
<g id="edge8" class="edge"><title>Node2&#45;&gt;Node8</title>
<path fill="none" stroke="midnightblue" d="M361.276,-246.97C368.72,-236.556 375.95,-226.442 382.201,-217.697"/>
<polygon fill="none" stroke="midnightblue" points="358.243,-245.194 355.275,-255.365 363.938,-249.265 358.243,-245.194"/>
</g>
<!-- Node3 -->
<g id="node3" class="node"><title>Node3</title>
<g id="a_node3"><a xlink:href="structfmt_1_1internal_1_1Value_1_1StringValue.html" target="_top" xlink:title="{fmt::internal::Value\l::StringValue\&lt; signed\l char \&gt;\n|+ value\l+ size\l|}">
<polygon fill="none" stroke="black" points="0,-437.5 0,-527.5 110,-527.5 110,-437.5 0,-437.5"/>
<text text-anchor="start" x="8" y="-515.5" font-family="Helvetica,sans-Serif" font-size="10.00">fmt::internal::Value</text>
<text text-anchor="start" x="8" y="-504.5" font-family="Helvetica,sans-Serif" font-size="10.00">::StringValue&lt; signed</text>
<text text-anchor="middle" x="55" y="-493.5" font-family="Helvetica,sans-Serif" font-size="10.00"> char &gt;</text>
<polyline fill="none" stroke="black" points="0,-486.5 110,-486.5 "/>
<text text-anchor="start" x="8" y="-474.5" font-family="Helvetica,sans-Serif" font-size="10.00">+ value</text>
<text text-anchor="start" x="8" y="-463.5" font-family="Helvetica,sans-Serif" font-size="10.00">+ size</text>
<polyline fill="none" stroke="black" points="0,-456.5 110,-456.5 "/>
<text text-anchor="middle" x="55" y="-444.5" font-family="Helvetica,sans-Serif" font-size="10.00"> </text>
</a>
</g>
</g>
<!-- Node3&#45;&gt;Node2 -->
<g id="edge2" class="edge"><title>Node3&#45;&gt;Node2</title>
<path fill="none" stroke="#404040" d="M110.349,-442.679C113.263,-440.741 116.159,-438.838 119,-437 160.095,-410.416 207.294,-382.07 244.244,-360.355"/>
<polygon fill="none" stroke="#404040" points="244.519,-360.195 247.673,-353.71 254.872,-354.127 251.718,-360.612 244.519,-360.195"/>
<text text-anchor="middle" x="179.5" y="-411" font-family="Helvetica,sans-Serif" font-size="10.00"> +sstring</text>
</g>
<!-- Node4 -->
<g id="node4" class="node"><title>Node4</title>
<g id="a_node4"><a xlink:href="structfmt_1_1internal_1_1Value_1_1CustomValue.html" target="_top" xlink:title="{fmt::internal::Value\l::CustomValue\n|+ value\l+ format\l|}">
<polygon fill="none" stroke="black" points="128.5,-443 128.5,-522 227.5,-522 227.5,-443 128.5,-443"/>
<text text-anchor="start" x="136.5" y="-510" font-family="Helvetica,sans-Serif" font-size="10.00">fmt::internal::Value</text>
<text text-anchor="middle" x="178" y="-499" font-family="Helvetica,sans-Serif" font-size="10.00">::CustomValue</text>
<polyline fill="none" stroke="black" points="128.5,-492 227.5,-492 "/>
<text text-anchor="start" x="136.5" y="-480" font-family="Helvetica,sans-Serif" font-size="10.00">+ value</text>
<text text-anchor="start" x="136.5" y="-469" font-family="Helvetica,sans-Serif" font-size="10.00">+ format</text>
<polyline fill="none" stroke="black" points="128.5,-462 227.5,-462 "/>
<text text-anchor="middle" x="178" y="-450" font-family="Helvetica,sans-Serif" font-size="10.00"> </text>
</a>
</g>
</g>
<!-- Node4&#45;&gt;Node2 -->
<g id="edge3" class="edge"><title>Node4&#45;&gt;Node2</title>
<path fill="none" stroke="#404040" d="M209.802,-442.849C221.006,-429.231 234.01,-413.426 246.816,-397.862"/>
<polygon fill="none" stroke="#404040" points="247.122,-397.491 247.845,-390.316 254.746,-388.224 254.023,-395.399 247.122,-397.491"/>
<text text-anchor="middle" x="257" y="-411" font-family="Helvetica,sans-Serif" font-size="10.00"> +custom</text>
</g>
<!-- Node5 -->
<g id="node5" class="node"><title>Node5</title>
<g id="a_node5"><a xlink:href="structfmt_1_1internal_1_1Value_1_1StringValue.html" target="_top" xlink:title="{fmt::internal::Value\l::StringValue\&lt; wchar_t \&gt;\n|+ value\l+ size\l|}">
<polygon fill="none" stroke="black" points="245.5,-443 245.5,-522 370.5,-522 370.5,-443 245.5,-443"/>
<text text-anchor="start" x="253.5" y="-510" font-family="Helvetica,sans-Serif" font-size="10.00">fmt::internal::Value</text>
<text text-anchor="middle" x="308" y="-499" font-family="Helvetica,sans-Serif" font-size="10.00">::StringValue&lt; wchar_t &gt;</text>
<polyline fill="none" stroke="black" points="245.5,-492 370.5,-492 "/>
<text text-anchor="start" x="253.5" y="-480" font-family="Helvetica,sans-Serif" font-size="10.00">+ value</text>
<text text-anchor="start" x="253.5" y="-469" font-family="Helvetica,sans-Serif" font-size="10.00">+ size</text>
<polyline fill="none" stroke="black" points="245.5,-462 370.5,-462 "/>
<text text-anchor="middle" x="308" y="-450" font-family="Helvetica,sans-Serif" font-size="10.00"> </text>
</a>
</g>
</g>
<!-- Node5&#45;&gt;Node2 -->
<g id="edge4" class="edge"><title>Node5&#45;&gt;Node2</title>
<path fill="none" stroke="#404040" d="M308,-442.849C308,-430.483 308,-416.315 308,-402.161"/>
<polygon fill="none" stroke="#404040" points="308,-401.772 304,-395.772 308,-389.772 312,-395.772 308,-401.772"/>
<text text-anchor="middle" x="328.5" y="-411" font-family="Helvetica,sans-Serif" font-size="10.00"> +wstring</text>
</g>
<!-- Node6 -->
<g id="node6" class="node"><title>Node6</title>
<g id="a_node6"><a xlink:href="structfmt_1_1internal_1_1Value_1_1StringValue.html" target="_top" xlink:title="{fmt::internal::Value\l::StringValue\&lt; unsigned\l char \&gt;\n|+ value\l+ size\l|}">
<polygon fill="none" stroke="black" points="388.5,-437.5 388.5,-527.5 509.5,-527.5 509.5,-437.5 388.5,-437.5"/>
<text text-anchor="start" x="396.5" y="-515.5" font-family="Helvetica,sans-Serif" font-size="10.00">fmt::internal::Value</text>
<text text-anchor="start" x="396.5" y="-504.5" font-family="Helvetica,sans-Serif" font-size="10.00">::StringValue&lt; unsigned</text>
<text text-anchor="middle" x="449" y="-493.5" font-family="Helvetica,sans-Serif" font-size="10.00"> char &gt;</text>
<polyline fill="none" stroke="black" points="388.5,-486.5 509.5,-486.5 "/>
<text text-anchor="start" x="396.5" y="-474.5" font-family="Helvetica,sans-Serif" font-size="10.00">+ value</text>
<text text-anchor="start" x="396.5" y="-463.5" font-family="Helvetica,sans-Serif" font-size="10.00">+ size</text>
<polyline fill="none" stroke="black" points="388.5,-456.5 509.5,-456.5 "/>
<text text-anchor="middle" x="449" y="-444.5" font-family="Helvetica,sans-Serif" font-size="10.00"> </text>
</a>
</g>
</g>
<!-- Node6&#45;&gt;Node2 -->
<g id="edge5" class="edge"><title>Node6&#45;&gt;Node2</title>
<path fill="none" stroke="#404040" d="M409.724,-437.488C397.122,-423.367 382.852,-407.377 369.072,-391.935"/>
<polygon fill="none" stroke="#404040" points="369.021,-391.879 362.042,-390.065 361.031,-382.925 368.011,-384.739 369.021,-391.879"/>
<text text-anchor="middle" x="411.5" y="-411" font-family="Helvetica,sans-Serif" font-size="10.00"> +ustring</text>
</g>
<!-- Node7 -->
<g id="node7" class="node"><title>Node7</title>
<g id="a_node7"><a xlink:href="structfmt_1_1internal_1_1Value_1_1StringValue.html" target="_top" xlink:title="{fmt::internal::Value\l::StringValue\&lt; char \&gt;\n|+ value\l+ size\l|}">
<polygon fill="none" stroke="black" points="528,-443 528,-522 638,-522 638,-443 528,-443"/>
<text text-anchor="start" x="536" y="-510" font-family="Helvetica,sans-Serif" font-size="10.00">fmt::internal::Value</text>
<text text-anchor="middle" x="583" y="-499" font-family="Helvetica,sans-Serif" font-size="10.00">::StringValue&lt; char &gt;</text>
<polyline fill="none" stroke="black" points="528,-492 638,-492 "/>
<text text-anchor="start" x="536" y="-480" font-family="Helvetica,sans-Serif" font-size="10.00">+ value</text>
<text text-anchor="start" x="536" y="-469" font-family="Helvetica,sans-Serif" font-size="10.00">+ size</text>
<polyline fill="none" stroke="black" points="528,-462 638,-462 "/>
<text text-anchor="middle" x="583" y="-450" font-family="Helvetica,sans-Serif" font-size="10.00"> </text>
</a>
</g>
</g>
<!-- Node7&#45;&gt;Node2 -->
<g id="edge6" class="edge"><title>Node7&#45;&gt;Node2</title>
<path fill="none" stroke="#404040" d="M527.941,-443.227C524.6,-441.085 521.269,-438.995 518,-437 469.999,-407.708 413.886,-377.581 371.745,-355.734"/>
<polygon fill="none" stroke="#404040" points="371.735,-355.729 364.568,-356.53 361.072,-350.223 368.239,-349.422 371.735,-355.729"/>
<text text-anchor="middle" x="502" y="-411" font-family="Helvetica,sans-Serif" font-size="10.00"> +string</text>
</g>
<!-- Node8&#45;&gt;Node1 -->
<g id="edge7" class="edge"><title>Node8&#45;&gt;Node1</title>
<path fill="none" stroke="#404040" d="M386.731,-160.324C380.672,-149.344 373.426,-136.209 366.17,-123.058"/>
<polygon fill="none" stroke="#404040" points="366.168,-123.055 359.768,-119.734 360.371,-112.548 366.772,-115.869 366.168,-123.055"/>
<text text-anchor="middle" x="392" y="-134" font-family="Helvetica,sans-Serif" font-size="10.00"> +args_</text>
</g>
</g>
</svg>
