<?xml version="1.0" encoding="UTF-8" standalone="no"?>
<!DOCTYPE svg PUBLIC "-//W3C//DTD SVG 1.1//EN"
 "http://www.w3.org/Graphics/SVG/1.1/DTD/svg11.dtd">
<!-- Generated by graphviz version 2.36.0 (20140111.2315)
 -->
<!-- Title: XBot::ModelInterface Pages: 1 -->
<svg width="1445pt" height="890pt"
 viewBox="0.00 0.00 1445.00 890.00" xmlns="http://www.w3.org/2000/svg" xmlns:xlink="http://www.w3.org/1999/xlink">
<g id="graph0" class="graph" transform="scale(1 1) rotate(0) translate(4 886)">
<title>XBot::ModelInterface</title>
<!-- Node1 -->
<g id="node1" class="node"><title>Node1</title>
<polygon fill="#bfbfbf" stroke="black" points="700.5,-1 700.5,-223 825.5,-223 825.5,-1 700.5,-1"/>
<text text-anchor="middle" x="763" y="-211" font-family="Helvetica,sans-Serif" font-size="10.00">XBot::ModelInterface</text>
<polyline fill="none" stroke="black" points="700.5,-204 825.5,-204 "/>
<text text-anchor="middle" x="763" y="-192" font-family="Helvetica,sans-Serif" font-size="10.00"> </text>
<polyline fill="none" stroke="black" points="700.5,-185 825.5,-185 "/>
<text text-anchor="start" x="708.5" y="-173" font-family="Helvetica,sans-Serif" font-size="10.00">+ ModelInterface()</text>
<text text-anchor="start" x="708.5" y="-162" font-family="Helvetica,sans-Serif" font-size="10.00">+ operator=()</text>
<text text-anchor="start" x="708.5" y="-151" font-family="Helvetica,sans-Serif" font-size="10.00">+ ModelInterface()</text>
<text text-anchor="start" x="708.5" y="-140" font-family="Helvetica,sans-Serif" font-size="10.00">+ chain()</text>
<text text-anchor="start" x="708.5" y="-129" font-family="Helvetica,sans-Serif" font-size="10.00">+ operator()()</text>
<text text-anchor="start" x="708.5" y="-118" font-family="Helvetica,sans-Serif" font-size="10.00">+ arm()</text>
<text text-anchor="start" x="708.5" y="-107" font-family="Helvetica,sans-Serif" font-size="10.00">+ leg()</text>
<text text-anchor="start" x="708.5" y="-96" font-family="Helvetica,sans-Serif" font-size="10.00">+ syncFrom()</text>
<text text-anchor="start" x="708.5" y="-85" font-family="Helvetica,sans-Serif" font-size="10.00">+ syncFrom_no_update()</text>
<text text-anchor="start" x="708.5" y="-74" font-family="Helvetica,sans-Serif" font-size="10.00">+ update()</text>
<text text-anchor="start" x="708.5" y="-63" font-family="Helvetica,sans-Serif" font-size="10.00">and 65 more...</text>
<text text-anchor="start" x="708.5" y="-52" font-family="Helvetica,sans-Serif" font-size="10.00">+ getModel()</text>
<text text-anchor="start" x="708.5" y="-41" font-family="Helvetica,sans-Serif" font-size="10.00"># init_internal()</text>
<text text-anchor="start" x="708.5" y="-30" font-family="Helvetica,sans-Serif" font-size="10.00"># init_model()</text>
<text text-anchor="start" x="708.5" y="-19" font-family="Helvetica,sans-Serif" font-size="10.00"># rotationEigenToKDL()</text>
<text text-anchor="start" x="708.5" y="-8" font-family="Helvetica,sans-Serif" font-size="10.00"># rotationKDLToEigen()</text>
</g>
<!-- Node2 -->
<g id="node2" class="node"><title>Node2</title>
<g id="a_node2"><a xlink:href="classXBot_1_1XBotInterface.html" target="_top" xlink:title="{XBot::XBotInterface\n|# _XBotModel\l|+ XBotInterface()\l+ XBotInterface()\l+ operator=()\l+ ~XBotInterface()\l+ init()\l+ getPathToConfig()\l+ getUrdf()\l+ getUrdfPath()\l+ getSrdf()\l+ getSrdfPath()\land 124 more...\l# getJointByNameInternal()\l# getJointByIdInternal()\l# getJointByDofIndexInternal()\l# getForceTorqueInternal()\l# getImuInternal()\l# init_internal()\l# getModelOrderedChainName()\l# computeAbsolutePath()\l}">
<polygon fill="none" stroke="black" points="684.5,-262.5 684.5,-517.5 841.5,-517.5 841.5,-262.5 684.5,-262.5"/>
<text text-anchor="middle" x="763" y="-505.5" font-family="Helvetica,sans-Serif" font-size="10.00">XBot::XBotInterface</text>
<polyline fill="none" stroke="black" points="684.5,-498.5 841.5,-498.5 "/>
<text text-anchor="start" x="692.5" y="-486.5" font-family="Helvetica,sans-Serif" font-size="10.00"># _XBotModel</text>
<polyline fill="none" stroke="black" points="684.5,-479.5 841.5,-479.5 "/>
<text text-anchor="start" x="692.5" y="-467.5" font-family="Helvetica,sans-Serif" font-size="10.00">+ XBotInterface()</text>
<text text-anchor="start" x="692.5" y="-456.5" font-family="Helvetica,sans-Serif" font-size="10.00">+ XBotInterface()</text>
<text text-anchor="start" x="692.5" y="-445.5" font-family="Helvetica,sans-Serif" font-size="10.00">+ operator=()</text>
<text text-anchor="start" x="692.5" y="-434.5" font-family="Helvetica,sans-Serif" font-size="10.00">+ ~XBotInterface()</text>
<text text-anchor="start" x="692.5" y="-423.5" font-family="Helvetica,sans-Serif" font-size="10.00">+ init()</text>
<text text-anchor="start" x="692.5" y="-412.5" font-family="Helvetica,sans-Serif" font-size="10.00">+ getPathToConfig()</text>
<text text-anchor="start" x="692.5" y="-401.5" font-family="Helvetica,sans-Serif" font-size="10.00">+ getUrdf()</text>
<text text-anchor="start" x="692.5" y="-390.5" font-family="Helvetica,sans-Serif" font-size="10.00">+ getUrdfPath()</text>
<text text-anchor="start" x="692.5" y="-379.5" font-family="Helvetica,sans-Serif" font-size="10.00">+ getSrdf()</text>
<text text-anchor="start" x="692.5" y="-368.5" font-family="Helvetica,sans-Serif" font-size="10.00">+ getSrdfPath()</text>
<text text-anchor="start" x="692.5" y="-357.5" font-family="Helvetica,sans-Serif" font-size="10.00">and 124 more...</text>
<text text-anchor="start" x="692.5" y="-346.5" font-family="Helvetica,sans-Serif" font-size="10.00"># getJointByNameInternal()</text>
<text text-anchor="start" x="692.5" y="-335.5" font-family="Helvetica,sans-Serif" font-size="10.00"># getJointByIdInternal()</text>
<text text-anchor="start" x="692.5" y="-324.5" font-family="Helvetica,sans-Serif" font-size="10.00"># getJointByDofIndexInternal()</text>
<text text-anchor="start" x="692.5" y="-313.5" font-family="Helvetica,sans-Serif" font-size="10.00"># getForceTorqueInternal()</text>
<text text-anchor="start" x="692.5" y="-302.5" font-family="Helvetica,sans-Serif" font-size="10.00"># getImuInternal()</text>
<text text-anchor="start" x="692.5" y="-291.5" font-family="Helvetica,sans-Serif" font-size="10.00"># init_internal()</text>
<text text-anchor="start" x="692.5" y="-280.5" font-family="Helvetica,sans-Serif" font-size="10.00"># getModelOrderedChainName()</text>
<text text-anchor="start" x="692.5" y="-269.5" font-family="Helvetica,sans-Serif" font-size="10.00"># computeAbsolutePath()</text>
</a>
</g>
</g>
<!-- Node2&#45;&gt;Node1 -->
<g id="edge1" class="edge"><title>Node2&#45;&gt;Node1</title>
<path fill="none" stroke="midnightblue" d="M763,-252.206C763,-242.502 763,-232.789 763,-223.26"/>
<polygon fill="none" stroke="midnightblue" points="759.5,-252.309 763,-262.309 766.5,-252.309 759.5,-252.309"/>
</g>
<!-- Node3 -->
<g id="node3" class="node"><title>Node3</title>
<polygon fill="none" stroke="#bfbfbf" points="-0.5,-582.5 -0.5,-661.5 132.5,-661.5 132.5,-582.5 -0.5,-582.5"/>
<text text-anchor="start" x="7.5" y="-649.5" font-family="Helvetica,sans-Serif" font-size="10.00">std::map&lt; std::string,</text>
<text text-anchor="start" x="7.5" y="-638.5" font-family="Helvetica,sans-Serif" font-size="10.00"> XBot::ForceTorqueSensor</text>
<text text-anchor="middle" x="66" y="-627.5" font-family="Helvetica,sans-Serif" font-size="10.00">::Ptr &gt;</text>
<polyline fill="none" stroke="#bfbfbf" points="-0.5,-620.5 132.5,-620.5 "/>
<text text-anchor="start" x="7.5" y="-608.5" font-family="Helvetica,sans-Serif" font-size="10.00">+ elements</text>
<polyline fill="none" stroke="#bfbfbf" points="-0.5,-601.5 132.5,-601.5 "/>
<text text-anchor="middle" x="66" y="-589.5" font-family="Helvetica,sans-Serif" font-size="10.00"> </text>
</g>
<!-- Node3&#45;&gt;Node2 -->
<g id="edge2" class="edge"><title>Node3&#45;&gt;Node2</title>
<path fill="none" stroke="#404040" d="M129.44,-582.412C133.652,-580.169 137.863,-578.011 142,-576 186.166,-554.529 198.41,-551.526 245,-536 393.012,-486.674 568.442,-439.976 672.472,-413.483"/>
<polygon fill="none" stroke="#404040" points="672.545,-413.464 677.376,-408.11 684.176,-410.511 679.345,-415.864 672.545,-413.464"/>
<text text-anchor="middle" x="267" y="-544.5" font-family="Helvetica,sans-Serif" font-size="10.00"> #_ft_map</text>
</g>
<!-- Node4 -->
<g id="node4" class="node"><title>Node4</title>
<g id="a_node4"><a xlink:title="STL class. ">
<polygon fill="none" stroke="#bfbfbf" points="377,-716.5 377,-773.5 437,-773.5 437,-716.5 377,-716.5"/>
<text text-anchor="middle" x="407" y="-761.5" font-family="Helvetica,sans-Serif" font-size="10.00">std::string</text>
<polyline fill="none" stroke="#bfbfbf" points="377,-754.5 437,-754.5 "/>
<text text-anchor="middle" x="407" y="-742.5" font-family="Helvetica,sans-Serif" font-size="10.00"> </text>
<polyline fill="none" stroke="#bfbfbf" points="377,-735.5 437,-735.5 "/>
<text text-anchor="middle" x="407" y="-723.5" font-family="Helvetica,sans-Serif" font-size="10.00"> </text>
</a>
</g>
</g>
<!-- Node4&#45;&gt;Node3 -->
<g id="edge3" class="edge"><title>Node4&#45;&gt;Node3</title>
<path fill="none" stroke="#404040" d="M376.732,-737.964C326.6,-727.389 223.752,-703.236 142,-668 141.155,-667.636 140.308,-667.264 139.459,-666.885"/>
<polygon fill="none" stroke="#404040" points="139.217,-666.769 132.079,-667.798 128.384,-661.606 135.522,-660.577 139.217,-666.769"/>
<text text-anchor="middle" x="236.5" y="-689.5" font-family="Helvetica,sans-Serif" font-size="10.00"> +keys</text>
</g>
<!-- Node6 -->
<g id="node6" class="node"><title>Node6</title>
<polygon fill="none" stroke="#bfbfbf" points="151,-588 151,-656 261,-656 261,-588 151,-588"/>
<text text-anchor="start" x="159" y="-644" font-family="Helvetica,sans-Serif" font-size="10.00">std::map&lt; std::string,</text>
<text text-anchor="middle" x="206" y="-633" font-family="Helvetica,sans-Serif" font-size="10.00"> int &gt;</text>
<polyline fill="none" stroke="#bfbfbf" points="151,-626 261,-626 "/>
<text text-anchor="start" x="159" y="-614" font-family="Helvetica,sans-Serif" font-size="10.00">+ elements</text>
<polyline fill="none" stroke="#bfbfbf" points="151,-607 261,-607 "/>
<text text-anchor="middle" x="206" y="-595" font-family="Helvetica,sans-Serif" font-size="10.00"> </text>
</g>
<!-- Node4&#45;&gt;Node6 -->
<g id="edge6" class="edge"><title>Node4&#45;&gt;Node6</title>
<path fill="none" stroke="#404040" d="M376.807,-728.439C348.69,-713.671 305.843,-690.454 270,-668 267.288,-666.301 264.533,-664.533 261.766,-662.724"/>
<polygon fill="none" stroke="#404040" points="261.73,-662.701 254.519,-662.698 251.748,-656.041 258.959,-656.044 261.73,-662.701"/>
<text text-anchor="middle" x="334.5" y="-689.5" font-family="Helvetica,sans-Serif" font-size="10.00"> +keys</text>
</g>
<!-- Node7 -->
<g id="node7" class="node"><title>Node7</title>
<polygon fill="none" stroke="#bfbfbf" points="279,-588 279,-656 401,-656 401,-588 279,-588"/>
<text text-anchor="start" x="287" y="-644" font-family="Helvetica,sans-Serif" font-size="10.00">std::map&lt; std::string,</text>
<text text-anchor="middle" x="340" y="-633" font-family="Helvetica,sans-Serif" font-size="10.00"> XBot::ImuSensor::Ptr &gt;</text>
<polyline fill="none" stroke="#bfbfbf" points="279,-626 401,-626 "/>
<text text-anchor="start" x="287" y="-614" font-family="Helvetica,sans-Serif" font-size="10.00">+ elements</text>
<polyline fill="none" stroke="#bfbfbf" points="279,-607 401,-607 "/>
<text text-anchor="middle" x="340" y="-595" font-family="Helvetica,sans-Serif" font-size="10.00"> </text>
</g>
<!-- Node4&#45;&gt;Node7 -->
<g id="edge8" class="edge"><title>Node4&#45;&gt;Node7</title>
<path fill="none" stroke="#404040" d="M391.629,-716.24C383.516,-701.588 373.372,-683.27 364.229,-666.757"/>
<polygon fill="none" stroke="#404040" points="364.21,-666.722 357.804,-663.411 358.397,-656.224 364.803,-659.535 364.21,-666.722"/>
<text text-anchor="middle" x="397.5" y="-689.5" font-family="Helvetica,sans-Serif" font-size="10.00"> +keys</text>
</g>
<!-- Node9 -->
<g id="node9" class="node"><title>Node9</title>
<polygon fill="none" stroke="#bfbfbf" points="419,-588 419,-656 529,-656 529,-588 419,-588"/>
<text text-anchor="start" x="427" y="-644" font-family="Helvetica,sans-Serif" font-size="10.00">std::map&lt; std::string,</text>
<text text-anchor="middle" x="474" y="-633" font-family="Helvetica,sans-Serif" font-size="10.00"> XBot::Hand::Ptr &gt;</text>
<polyline fill="none" stroke="#bfbfbf" points="419,-626 529,-626 "/>
<text text-anchor="start" x="427" y="-614" font-family="Helvetica,sans-Serif" font-size="10.00">+ elements</text>
<polyline fill="none" stroke="#bfbfbf" points="419,-607 529,-607 "/>
<text text-anchor="middle" x="474" y="-595" font-family="Helvetica,sans-Serif" font-size="10.00"> </text>
</g>
<!-- Node4&#45;&gt;Node9 -->
<g id="edge11" class="edge"><title>Node4&#45;&gt;Node9</title>
<path fill="none" stroke="#404040" d="M422.371,-716.24C430.484,-701.588 440.628,-683.27 449.771,-666.757"/>
<polygon fill="none" stroke="#404040" points="449.79,-666.722 449.197,-659.535 455.603,-656.224 456.196,-663.411 449.79,-666.722"/>
<text text-anchor="middle" x="454.5" y="-689.5" font-family="Helvetica,sans-Serif" font-size="10.00"> +keys</text>
</g>
<!-- Node14 -->
<g id="node14" class="node"><title>Node14</title>
<polygon fill="none" stroke="#bfbfbf" points="547.5,-593.5 547.5,-650.5 672.5,-650.5 672.5,-593.5 547.5,-593.5"/>
<text text-anchor="middle" x="610" y="-638.5" font-family="Helvetica,sans-Serif" font-size="10.00">std::vector&lt; std::string &gt;</text>
<polyline fill="none" stroke="#bfbfbf" points="547.5,-631.5 672.5,-631.5 "/>
<text text-anchor="middle" x="610" y="-619.5" font-family="Helvetica,sans-Serif" font-size="10.00"> </text>
<polyline fill="none" stroke="#bfbfbf" points="547.5,-612.5 672.5,-612.5 "/>
<text text-anchor="middle" x="610" y="-600.5" font-family="Helvetica,sans-Serif" font-size="10.00"> </text>
</g>
<!-- Node4&#45;&gt;Node14 -->
<g id="edge17" class="edge"><title>Node4&#45;&gt;Node14</title>
<path fill="none" stroke="#404040" d="M437.081,-726.922C463.74,-711.699 503.653,-688.689 538,-668 543.761,-664.53 549.755,-660.867 555.717,-657.191"/>
<polygon fill="none" stroke="#404040" points="556.156,-656.919 559.148,-650.359 566.355,-650.598 563.363,-657.159 556.156,-656.919"/>
<text text-anchor="middle" x="530.5" y="-689.5" font-family="Helvetica,sans-Serif" font-size="10.00"> +elements</text>
</g>
<!-- Node15 -->
<g id="node15" class="node"><title>Node15</title>
<polygon fill="none" stroke="#bfbfbf" points="691,-582.5 691,-661.5 835,-661.5 835,-582.5 691,-582.5"/>
<text text-anchor="start" x="699" y="-649.5" font-family="Helvetica,sans-Serif" font-size="10.00">std::map&lt; std::string,</text>
<text text-anchor="start" x="699" y="-638.5" font-family="Helvetica,sans-Serif" font-size="10.00"> XBot::XBot::KinematicChain</text>
<text text-anchor="middle" x="763" y="-627.5" font-family="Helvetica,sans-Serif" font-size="10.00">::Ptr &gt;</text>
<polyline fill="none" stroke="#bfbfbf" points="691,-620.5 835,-620.5 "/>
<text text-anchor="start" x="699" y="-608.5" font-family="Helvetica,sans-Serif" font-size="10.00">+ elements</text>
<polyline fill="none" stroke="#bfbfbf" points="691,-601.5 835,-601.5 "/>
<text text-anchor="middle" x="763" y="-589.5" font-family="Helvetica,sans-Serif" font-size="10.00"> </text>
</g>
<!-- Node4&#45;&gt;Node15 -->
<g id="edge19" class="edge"><title>Node4&#45;&gt;Node15</title>
<path fill="none" stroke="#404040" d="M437.349,-737.992C488.701,-727.298 595.487,-702.775 681,-668 682.203,-667.511 683.412,-667.008 684.623,-666.493"/>
<polygon fill="none" stroke="#404040" points="684.634,-666.488 688.467,-660.381 695.58,-661.57 691.746,-667.678 684.634,-666.488"/>
<text text-anchor="middle" x="646.5" y="-689.5" font-family="Helvetica,sans-Serif" font-size="10.00"> +keys</text>
</g>
<!-- Node5 -->
<g id="node5" class="node"><title>Node5</title>
<g id="a_node5"><a xlink:title="STL class. ">
<polygon fill="none" stroke="#bfbfbf" points="359.5,-813 359.5,-881 454.5,-881 454.5,-813 359.5,-813"/>
<text text-anchor="start" x="367.5" y="-869" font-family="Helvetica,sans-Serif" font-size="10.00">std::basic_string&lt;</text>
<text text-anchor="middle" x="407" y="-858" font-family="Helvetica,sans-Serif" font-size="10.00"> char &gt;</text>
<polyline fill="none" stroke="#bfbfbf" points="359.5,-851 454.5,-851 "/>
<text text-anchor="middle" x="407" y="-839" font-family="Helvetica,sans-Serif" font-size="10.00"> </text>
<polyline fill="none" stroke="#bfbfbf" points="359.5,-832 454.5,-832 "/>
<text text-anchor="middle" x="407" y="-820" font-family="Helvetica,sans-Serif" font-size="10.00"> </text>
</a>
</g>
</g>
<!-- Node5&#45;&gt;Node4 -->
<g id="edge4" class="edge"><title>Node5&#45;&gt;Node4</title>
<path fill="none" stroke="midnightblue" d="M407,-802.857C407,-792.952 407,-782.682 407,-773.64"/>
<polygon fill="none" stroke="midnightblue" points="403.5,-802.979 407,-812.979 410.5,-802.979 403.5,-802.979"/>
</g>
<!-- Node6&#45;&gt;Node2 -->
<g id="edge5" class="edge"><title>Node6&#45;&gt;Node2</title>
<path fill="none" stroke="#404040" d="M247.012,-587.906C269.838,-570.679 299.357,-550.29 328,-536 441.508,-479.373 582.246,-437.062 672.339,-413.185"/>
<polygon fill="none" stroke="#404040" points="672.554,-413.128 677.341,-407.735 684.16,-410.08 679.373,-415.473 672.554,-413.128"/>
<text text-anchor="middle" x="386" y="-544.5" font-family="Helvetica,sans-Serif" font-size="10.00"> #_joint_name_to_eigen_id</text>
</g>
<!-- Node7&#45;&gt;Node2 -->
<g id="edge7" class="edge"><title>Node7&#45;&gt;Node2</title>
<path fill="none" stroke="#404040" d="M390.521,-587.776C397.023,-583.721 403.632,-579.706 410,-576 498.025,-524.775 601.526,-471.296 673.606,-435.09"/>
<polygon fill="none" stroke="#404040" points="673.724,-435.03 677.296,-428.766 684.452,-429.653 680.881,-435.917 673.724,-435.03"/>
<text text-anchor="middle" x="504" y="-544.5" font-family="Helvetica,sans-Serif" font-size="10.00"> #_imu_map</text>
</g>
<!-- Node8 -->
<g id="node8" class="node"><title>Node8</title>
<polygon fill="none" stroke="#bfbfbf" points="853,-588 853,-656 953,-656 953,-588 853,-588"/>
<text text-anchor="middle" x="903" y="-644" font-family="Helvetica,sans-Serif" font-size="10.00">std::map&lt; int, int &gt;</text>
<polyline fill="none" stroke="#bfbfbf" points="853,-637 953,-637 "/>
<text text-anchor="start" x="861" y="-625" font-family="Helvetica,sans-Serif" font-size="10.00">+ keys</text>
<text text-anchor="start" x="861" y="-614" font-family="Helvetica,sans-Serif" font-size="10.00">+ elements</text>
<polyline fill="none" stroke="#bfbfbf" points="853,-607 953,-607 "/>
<text text-anchor="middle" x="903" y="-595" font-family="Helvetica,sans-Serif" font-size="10.00"> </text>
</g>
<!-- Node8&#45;&gt;Node2 -->
<g id="edge9" class="edge"><title>Node8&#45;&gt;Node2</title>
<path fill="none" stroke="#404040" d="M882.643,-587.556C872.614,-571.08 859.783,-550.001 846.268,-527.798"/>
<polygon fill="none" stroke="#404040" points="846.257,-527.78 839.721,-524.734 840.018,-517.529 846.554,-520.575 846.257,-527.78"/>
<text text-anchor="middle" x="912" y="-544.5" font-family="Helvetica,sans-Serif" font-size="10.00"> #_joint_id_to_eigen_id</text>
</g>
<!-- Node9&#45;&gt;Node2 -->
<g id="edge10" class="edge"><title>Node9&#45;&gt;Node2</title>
<path fill="none" stroke="#404040" d="M512.968,-587.981C531.869,-572.105 554.981,-552.899 576,-536 607.917,-510.34 643.333,-482.677 674.683,-458.462"/>
<polygon fill="none" stroke="#404040" points="674.772,-458.393 677.079,-451.561 684.273,-451.063 681.966,-457.895 674.772,-458.393"/>
<text text-anchor="middle" x="605.5" y="-544.5" font-family="Helvetica,sans-Serif" font-size="10.00"> #_hand_map</text>
</g>
<!-- Node10 -->
<g id="node10" class="node"><title>Node10</title>
<polygon fill="none" stroke="#bfbfbf" points="971,-588 971,-656 1071,-656 1071,-588 971,-588"/>
<text text-anchor="start" x="979" y="-644" font-family="Helvetica,sans-Serif" font-size="10.00">std::vector&lt; XBot::</text>
<text text-anchor="middle" x="1021" y="-633" font-family="Helvetica,sans-Serif" font-size="10.00">Joint::Ptr &gt;</text>
<polyline fill="none" stroke="#bfbfbf" points="971,-626 1071,-626 "/>
<text text-anchor="start" x="979" y="-614" font-family="Helvetica,sans-Serif" font-size="10.00">+ elements</text>
<polyline fill="none" stroke="#bfbfbf" points="971,-607 1071,-607 "/>
<text text-anchor="middle" x="1021" y="-595" font-family="Helvetica,sans-Serif" font-size="10.00"> </text>
</g>
<!-- Node10&#45;&gt;Node2 -->
<g id="edge12" class="edge"><title>Node10&#45;&gt;Node2</title>
<path fill="none" stroke="#404040" d="M1003.5,-587.848C993.78,-571.211 980.689,-551.38 966,-536 932.642,-501.073 889.826,-469.06 852.121,-444.051"/>
<polygon fill="none" stroke="#404040" points="851.675,-443.759 844.464,-443.819 841.635,-437.186 848.845,-437.126 851.675,-443.759"/>
<text text-anchor="middle" x="1035" y="-550" font-family="Helvetica,sans-Serif" font-size="10.00"> #_ordered_joint_vector</text>
<text text-anchor="middle" x="1035" y="-539" font-family="Helvetica,sans-Serif" font-size="10.00">#_joint_vector</text>
</g>
<!-- Node11 -->
<g id="node11" class="node"><title>Node11</title>
<polygon fill="none" stroke="#bfbfbf" points="1089,-582.5 1089,-661.5 1191,-661.5 1191,-582.5 1089,-582.5"/>
<text text-anchor="start" x="1097" y="-649.5" font-family="Helvetica,sans-Serif" font-size="10.00">std::map&lt; int, XBot</text>
<text text-anchor="middle" x="1140" y="-638.5" font-family="Helvetica,sans-Serif" font-size="10.00">::Hand::Ptr &gt;</text>
<polyline fill="none" stroke="#bfbfbf" points="1089,-631.5 1191,-631.5 "/>
<text text-anchor="start" x="1097" y="-619.5" font-family="Helvetica,sans-Serif" font-size="10.00">+ keys</text>
<text text-anchor="start" x="1097" y="-608.5" font-family="Helvetica,sans-Serif" font-size="10.00">+ elements</text>
<polyline fill="none" stroke="#bfbfbf" points="1089,-601.5 1191,-601.5 "/>
<text text-anchor="middle" x="1140" y="-589.5" font-family="Helvetica,sans-Serif" font-size="10.00"> </text>
</g>
<!-- Node11&#45;&gt;Node2 -->
<g id="edge13" class="edge"><title>Node11&#45;&gt;Node2</title>
<path fill="none" stroke="#404040" d="M1123.7,-582.256C1115.47,-566.308 1104.18,-548.648 1090,-536 1021.84,-475.217 924.074,-436.418 853.216,-414.404"/>
<polygon fill="none" stroke="#404040" points="853.122,-414.375 846.217,-416.456 841.641,-410.882 848.546,-408.802 853.122,-414.375"/>
<text text-anchor="middle" x="1144" y="-544.5" font-family="Helvetica,sans-Serif" font-size="10.00"> #_hand_id_map</text>
</g>
<!-- Node12 -->
<g id="node12" class="node"><title>Node12</title>
<polygon fill="none" stroke="#bfbfbf" points="1209,-582.5 1209,-661.5 1311,-661.5 1311,-582.5 1209,-582.5"/>
<text text-anchor="start" x="1217" y="-649.5" font-family="Helvetica,sans-Serif" font-size="10.00">std::map&lt; int, XBot</text>
<text text-anchor="middle" x="1260" y="-638.5" font-family="Helvetica,sans-Serif" font-size="10.00">::ImuSensor::Ptr &gt;</text>
<polyline fill="none" stroke="#bfbfbf" points="1209,-631.5 1311,-631.5 "/>
<text text-anchor="start" x="1217" y="-619.5" font-family="Helvetica,sans-Serif" font-size="10.00">+ keys</text>
<text text-anchor="start" x="1217" y="-608.5" font-family="Helvetica,sans-Serif" font-size="10.00">+ elements</text>
<polyline fill="none" stroke="#bfbfbf" points="1209,-601.5 1311,-601.5 "/>
<text text-anchor="middle" x="1260" y="-589.5" font-family="Helvetica,sans-Serif" font-size="10.00"> </text>
</g>
<!-- Node12&#45;&gt;Node2 -->
<g id="edge14" class="edge"><title>Node12&#45;&gt;Node2</title>
<path fill="none" stroke="#404040" d="M1232.44,-582.22C1219.32,-566.073 1202.47,-548.27 1184,-536 1081.25,-467.727 943.002,-428.227 853.444,-408.157"/>
<polygon fill="none" stroke="#404040" points="853.403,-408.149 846.684,-410.766 841.683,-405.571 848.402,-402.953 853.403,-408.149"/>
<text text-anchor="middle" x="1244.5" y="-544.5" font-family="Helvetica,sans-Serif" font-size="10.00"> #_imu_id_map</text>
</g>
<!-- Node13 -->
<g id="node13" class="node"><title>Node13</title>
<polygon fill="none" stroke="#bfbfbf" points="1329,-577 1329,-667 1437,-667 1437,-577 1329,-577"/>
<text text-anchor="start" x="1337" y="-655" font-family="Helvetica,sans-Serif" font-size="10.00">std::map&lt; int, XBot</text>
<text text-anchor="start" x="1337" y="-644" font-family="Helvetica,sans-Serif" font-size="10.00">::ForceTorqueSensor</text>
<text text-anchor="middle" x="1383" y="-633" font-family="Helvetica,sans-Serif" font-size="10.00">::Ptr &gt;</text>
<polyline fill="none" stroke="#bfbfbf" points="1329,-626 1437,-626 "/>
<text text-anchor="start" x="1337" y="-614" font-family="Helvetica,sans-Serif" font-size="10.00">+ keys</text>
<text text-anchor="start" x="1337" y="-603" font-family="Helvetica,sans-Serif" font-size="10.00">+ elements</text>
<polyline fill="none" stroke="#bfbfbf" points="1329,-596 1437,-596 "/>
<text text-anchor="middle" x="1383" y="-584" font-family="Helvetica,sans-Serif" font-size="10.00"> </text>
</g>
<!-- Node13&#45;&gt;Node2 -->
<g id="edge15" class="edge"><title>Node13&#45;&gt;Node2</title>
<path fill="none" stroke="#404040" d="M1338.77,-576.703C1322.11,-562.017 1302.26,-546.705 1282,-536 1142.21,-462.153 960.824,-422.617 853.669,-404.273"/>
<polygon fill="none" stroke="#404040" points="853.451,-404.236 846.87,-407.186 841.617,-402.246 848.198,-399.296 853.451,-404.236"/>
<text text-anchor="middle" x="1344.5" y="-544.5" font-family="Helvetica,sans-Serif" font-size="10.00"> #_ft_id_map</text>
</g>
<!-- Node14&#45;&gt;Node2 -->
<g id="edge16" class="edge"><title>Node14&#45;&gt;Node2</title>
<path fill="none" stroke="#404040" d="M621.131,-593.402C628.448,-576.369 638.731,-554.343 650,-536 658.188,-522.673 667.382,-509.135 676.897,-495.955"/>
<polygon fill="none" stroke="#404040" points="677.131,-495.634 677.451,-488.43 684.224,-485.955 683.904,-493.159 677.131,-495.634"/>
<text text-anchor="middle" x="704.5" y="-544.5" font-family="Helvetica,sans-Serif" font-size="10.00"> #_ordered_chain_names</text>
</g>
<!-- Node15&#45;&gt;Node2 -->
<g id="edge18" class="edge"><title>Node15&#45;&gt;Node2</title>
<path fill="none" stroke="#404040" d="M763,-582.244C763,-567.189 763,-548.961 763,-529.812"/>
<polygon fill="none" stroke="#404040" points="763,-529.791 759,-523.791 763,-517.791 767,-523.791 763,-529.791"/>
<text text-anchor="middle" x="793.5" y="-544.5" font-family="Helvetica,sans-Serif" font-size="10.00"> #_chain_map</text>
</g>
</g>
</svg>
