<?xml version="1.0" encoding="UTF-8" standalone="no"?>
<!DOCTYPE svg PUBLIC "-//W3C//DTD SVG 1.1//EN"
 "http://www.w3.org/Graphics/SVG/1.1/DTD/svg11.dtd">
<!-- Generated by graphviz version 2.38.0 (20140413.2041)
 -->
<!-- Title: XBot::ImuSensor Pages: 1 -->
<svg width="133pt" height="336pt"
 viewBox="0.00 0.00 133.00 336.00" xmlns="http://www.w3.org/2000/svg" xmlns:xlink="http://www.w3.org/1999/xlink">
<g id="graph0" class="graph" transform="scale(1 1) rotate(0) translate(4 332)">
<title>XBot::ImuSensor</title>
<!-- Node1 -->
<g id="node1" class="node"><title>Node1</title>
<polygon fill="#bfbfbf" stroke="black" points="-7.10543e-15,-0.5 -7.10543e-15,-156.5 125,-156.5 125,-0.5 -7.10543e-15,-0.5"/>
<text text-anchor="middle" x="62.5" y="-144.5" font-family="Helvetica,sans-Serif" font-size="10.00">XBot::ImuSensor</text>
<polyline fill="none" stroke="black" points="-7.10543e-15,-137.5 125,-137.5 "/>
<text text-anchor="middle" x="62.5" y="-125.5" font-family="Helvetica,sans-Serif" font-size="10.00"> </text>
<polyline fill="none" stroke="black" points="-7.10543e-15,-118.5 125,-118.5 "/>
<text text-anchor="start" x="8" y="-106.5" font-family="Helvetica,sans-Serif" font-size="10.00">+ ImuSensor()</text>
<text text-anchor="start" x="8" y="-95.5" font-family="Helvetica,sans-Serif" font-size="10.00">+ ImuSensor()</text>
<text text-anchor="start" x="8" y="-84.5" font-family="Helvetica,sans-Serif" font-size="10.00">+ getOrientation()</text>
<text text-anchor="start" x="8" y="-73.5" font-family="Helvetica,sans-Serif" font-size="10.00">+ getOrientation()</text>
<text text-anchor="start" x="8" y="-62.5" font-family="Helvetica,sans-Serif" font-size="10.00">+ getLinearAcceleration()</text>
<text text-anchor="start" x="8" y="-51.5" font-family="Helvetica,sans-Serif" font-size="10.00">+ getAngularVelocity()</text>
<text text-anchor="start" x="8" y="-40.5" font-family="Helvetica,sans-Serif" font-size="10.00">+ getImuData()</text>
<text text-anchor="start" x="8" y="-29.5" font-family="Helvetica,sans-Serif" font-size="10.00">+ getImuData()</text>
<text text-anchor="start" x="8" y="-18.5" font-family="Helvetica,sans-Serif" font-size="10.00">+ setImuData()</text>
<text text-anchor="start" x="8" y="-7.5" font-family="Helvetica,sans-Serif" font-size="10.00">+ setImuData()</text>
</g>
<!-- Node2 -->
<g id="node2" class="node"><title>Node2</title>
<g id="a_node2"><a xlink:href="classXBot_1_1GenericSensor.html" target="_top" xlink:title="Generic sensor abstraction. ">
<polygon fill="none" stroke="black" points="3.5,-193.5 3.5,-327.5 121.5,-327.5 121.5,-193.5 3.5,-193.5"/>
<text text-anchor="middle" x="62.5" y="-315.5" font-family="Helvetica,sans-Serif" font-size="10.00">XBot::GenericSensor</text>
<polyline fill="none" stroke="black" points="3.5,-308.5 121.5,-308.5 "/>
<text text-anchor="middle" x="62.5" y="-296.5" font-family="Helvetica,sans-Serif" font-size="10.00"> </text>
<polyline fill="none" stroke="black" points="3.5,-289.5 121.5,-289.5 "/>
<text text-anchor="start" x="11.5" y="-277.5" font-family="Helvetica,sans-Serif" font-size="10.00">+ GenericSensor()</text>
<text text-anchor="start" x="11.5" y="-266.5" font-family="Helvetica,sans-Serif" font-size="10.00">+ GenericSensor()</text>
<text text-anchor="start" x="11.5" y="-255.5" font-family="Helvetica,sans-Serif" font-size="10.00">+ getParentLinkName()</text>
<text text-anchor="start" x="11.5" y="-244.5" font-family="Helvetica,sans-Serif" font-size="10.00">+ getSensorName()</text>
<text text-anchor="start" x="11.5" y="-233.5" font-family="Helvetica,sans-Serif" font-size="10.00">+ getSensorId()</text>
<text text-anchor="start" x="11.5" y="-222.5" font-family="Helvetica,sans-Serif" font-size="10.00">+ getSensorPose()</text>
<text text-anchor="start" x="11.5" y="-211.5" font-family="Helvetica,sans-Serif" font-size="10.00">+ getTimestamp()</text>
<text text-anchor="start" x="11.5" y="-200.5" font-family="Helvetica,sans-Serif" font-size="10.00">+ setTimestamp()</text>
</a>
</g>
</g>
<!-- Node2&#45;&gt;Node1 -->
<g id="edge1" class="edge"><title>Node2&#45;&gt;Node1</title>
<path fill="none" stroke="midnightblue" d="M62.5,-183.299C62.5,-174.524 62.5,-165.57 62.5,-156.781"/>
<polygon fill="none" stroke="midnightblue" points="59.0001,-183.497 62.5,-193.497 66.0001,-183.497 59.0001,-183.497"/>
</g>
</g>
</svg>
