<?xml version="1.0" encoding="UTF-8" standalone="no"?>
<!DOCTYPE svg PUBLIC "-//W3C//DTD SVG 1.1//EN"
 "http://www.w3.org/Graphics/SVG/1.1/DTD/svg11.dtd">
<!-- Generated by graphviz version 2.38.0 (20140413.2041)
 -->
<!-- Title: fmt::FormatError Pages: 1 -->
<svg width="101pt" height="276pt"
 viewBox="0.00 0.00 101.00 276.00" xmlns="http://www.w3.org/2000/svg" xmlns:xlink="http://www.w3.org/1999/xlink">
<g id="graph0" class="graph" transform="scale(1 1) rotate(0) translate(4 272)">
<title>fmt::FormatError</title>
<!-- Node1 -->
<g id="node1" class="node"><title>Node1</title>
<polygon fill="#bfbfbf" stroke="black" points="2,-0.5 2,-79.5 91,-79.5 91,-0.5 2,-0.5"/>
<text text-anchor="middle" x="46.5" y="-67.5" font-family="Helvetica,sans-Serif" font-size="10.00">fmt::FormatError</text>
<polyline fill="none" stroke="black" points="2,-60.5 91,-60.5 "/>
<text text-anchor="middle" x="46.5" y="-48.5" font-family="Helvetica,sans-Serif" font-size="10.00"> </text>
<polyline fill="none" stroke="black" points="2,-41.5 91,-41.5 "/>
<text text-anchor="start" x="10" y="-29.5" font-family="Helvetica,sans-Serif" font-size="10.00">+ FormatError()</text>
<text text-anchor="start" x="10" y="-18.5" font-family="Helvetica,sans-Serif" font-size="10.00">+ FormatError()</text>
<text text-anchor="start" x="10" y="-7.5" font-family="Helvetica,sans-Serif" font-size="10.00">+ ~FormatError()</text>
</g>
<!-- Node2 -->
<g id="node2" class="node"><title>Node2</title>
<g id="a_node2"><a xlink:title="STL class. ">
<polygon fill="none" stroke="#bfbfbf" points="-7.10543e-15,-116.5 -7.10543e-15,-173.5 93,-173.5 93,-116.5 -7.10543e-15,-116.5"/>
<text text-anchor="middle" x="46.5" y="-161.5" font-family="Helvetica,sans-Serif" font-size="10.00">std::runtime_error</text>
<polyline fill="none" stroke="#bfbfbf" points="-7.10543e-15,-154.5 93,-154.5 "/>
<text text-anchor="middle" x="46.5" y="-142.5" font-family="Helvetica,sans-Serif" font-size="10.00"> </text>
<polyline fill="none" stroke="#bfbfbf" points="-7.10543e-15,-135.5 93,-135.5 "/>
<text text-anchor="middle" x="46.5" y="-123.5" font-family="Helvetica,sans-Serif" font-size="10.00"> </text>
</a>
</g>
</g>
<!-- Node2&#45;&gt;Node1 -->
<g id="edge1" class="edge"><title>Node2&#45;&gt;Node1</title>
<path fill="none" stroke="midnightblue" d="M46.5,-106.156C46.5,-97.4733 46.5,-88.2318 46.5,-79.5205"/>
<polygon fill="none" stroke="midnightblue" points="43.0001,-106.398 46.5,-116.398 50.0001,-106.398 43.0001,-106.398"/>
</g>
<!-- Node3 -->
<g id="node3" class="node"><title>Node3</title>
<g id="a_node3"><a xlink:title="STL class. ">
<polygon fill="none" stroke="#bfbfbf" points="7.5,-210.5 7.5,-267.5 85.5,-267.5 85.5,-210.5 7.5,-210.5"/>
<text text-anchor="middle" x="46.5" y="-255.5" font-family="Helvetica,sans-Serif" font-size="10.00">std::exception</text>
<polyline fill="none" stroke="#bfbfbf" points="7.5,-248.5 85.5,-248.5 "/>
<text text-anchor="middle" x="46.5" y="-236.5" font-family="Helvetica,sans-Serif" font-size="10.00"> </text>
<polyline fill="none" stroke="#bfbfbf" points="7.5,-229.5 85.5,-229.5 "/>
<text text-anchor="middle" x="46.5" y="-217.5" font-family="Helvetica,sans-Serif" font-size="10.00"> </text>
</a>
</g>
</g>
<!-- Node3&#45;&gt;Node2 -->
<g id="edge2" class="edge"><title>Node3&#45;&gt;Node2</title>
<path fill="none" stroke="midnightblue" d="M46.5,-200.209C46.5,-191.293 46.5,-181.951 46.5,-173.584"/>
<polygon fill="none" stroke="midnightblue" points="43.0001,-200.397 46.5,-210.397 50.0001,-200.397 43.0001,-200.397"/>
</g>
</g>
</svg>
