<?xml version="1.0" encoding="UTF-8" standalone="no"?>
<!DOCTYPE svg PUBLIC "-//W3C//DTD SVG 1.1//EN"
 "http://www.w3.org/Graphics/SVG/1.1/DTD/svg11.dtd">
<!-- Generated by graphviz version 2.36.0 (20140111.2315)
 -->
<!-- Title: fmt::internal::CharTraits&lt; char &gt; Pages: 1 -->
<svg width="126pt" height="206pt"
 viewBox="0.00 0.00 126.00 206.00" xmlns="http://www.w3.org/2000/svg" xmlns:xlink="http://www.w3.org/1999/xlink">
<g id="graph0" class="graph" transform="scale(1 1) rotate(0) translate(4 202)">
<title>fmt::internal::CharTraits&lt; char &gt;</title>
<!-- Node1 -->
<g id="node1" class="node"><title>Node1</title>
<polygon fill="#bfbfbf" stroke="black" points="-1,-1 -1,-91 119,-91 119,-1 -1,-1"/>
<text text-anchor="start" x="7" y="-79" font-family="Helvetica,sans-Serif" font-size="10.00">fmt::internal::CharTraits</text>
<text text-anchor="middle" x="59" y="-68" font-family="Helvetica,sans-Serif" font-size="10.00">&lt; char &gt;</text>
<polyline fill="none" stroke="black" points="-1,-61 119,-61 "/>
<text text-anchor="middle" x="59" y="-49" font-family="Helvetica,sans-Serif" font-size="10.00"> </text>
<polyline fill="none" stroke="black" points="-1,-42 119,-42 "/>
<text text-anchor="start" x="7" y="-30" font-family="Helvetica,sans-Serif" font-size="10.00">+ format_float()</text>
<text text-anchor="start" x="7" y="-19" font-family="Helvetica,sans-Serif" font-size="10.00">+ convert()</text>
<text text-anchor="start" x="7" y="-8" font-family="Helvetica,sans-Serif" font-size="10.00">+ format_float()</text>
</g>
<!-- Node2 -->
<g id="node2" class="node"><title>Node2</title>
<g id="a_node2"><a xlink:href="classfmt_1_1internal_1_1BasicCharTraits.html" target="_top" xlink:title="{fmt::internal::BasicChar\lTraits\&lt; char \&gt;\n||+ cast()\l}">
<polygon fill="none" stroke="black" points="-1,-129 -1,-197 119,-197 119,-129 -1,-129"/>
<text text-anchor="start" x="7" y="-185" font-family="Helvetica,sans-Serif" font-size="10.00">fmt::internal::BasicChar</text>
<text text-anchor="middle" x="59" y="-174" font-family="Helvetica,sans-Serif" font-size="10.00">Traits&lt; char &gt;</text>
<polyline fill="none" stroke="black" points="-1,-167 119,-167 "/>
<text text-anchor="middle" x="59" y="-155" font-family="Helvetica,sans-Serif" font-size="10.00"> </text>
<polyline fill="none" stroke="black" points="-1,-148 119,-148 "/>
<text text-anchor="start" x="7" y="-136" font-family="Helvetica,sans-Serif" font-size="10.00">+ cast()</text>
</a>
</g>
</g>
<!-- Node2&#45;&gt;Node1 -->
<g id="edge1" class="edge"><title>Node2&#45;&gt;Node1</title>
<path fill="none" stroke="midnightblue" d="M59,-118.555C59,-109.646 59,-100.257 59,-91.3181"/>
<polygon fill="none" stroke="midnightblue" points="55.5001,-118.737 59,-128.737 62.5001,-118.737 55.5001,-118.737"/>
</g>
</g>
</svg>
