<?xml version="1.0" encoding="UTF-8" standalone="no"?>
<!DOCTYPE svg PUBLIC "-//W3C//DTD SVG 1.1//EN"
 "http://www.w3.org/Graphics/SVG/1.1/DTD/svg11.dtd">
<!-- Generated by graphviz version 2.38.0 (20140413.2041)
 -->
<!-- Title: XBot::XBotInterface Pages: 1 -->
<svg width="1201pt" height="624pt"
 viewBox="0.00 0.00 1200.50 624.00" xmlns="http://www.w3.org/2000/svg" xmlns:xlink="http://www.w3.org/1999/xlink">
<g id="graph0" class="graph" transform="scale(1 1) rotate(0) translate(4 620)">
<title>XBot::XBotInterface</title>
<!-- Node1 -->
<g id="node1" class="node"><title>Node1</title>
<polygon fill="#bfbfbf" stroke="black" points="557,-0.5 557,-255.5 714,-255.5 714,-0.5 557,-0.5"/>
<text text-anchor="middle" x="635.5" y="-243.5" font-family="Helvetica,sans-Serif" font-size="10.00">XBot::XBotInterface</text>
<polyline fill="none" stroke="black" points="557,-236.5 714,-236.5 "/>
<text text-anchor="start" x="565" y="-224.5" font-family="Helvetica,sans-Serif" font-size="10.00"># _XBotModel</text>
<polyline fill="none" stroke="black" points="557,-217.5 714,-217.5 "/>
<text text-anchor="start" x="565" y="-205.5" font-family="Helvetica,sans-Serif" font-size="10.00">+ XBotInterface()</text>
<text text-anchor="start" x="565" y="-194.5" font-family="Helvetica,sans-Serif" font-size="10.00">+ XBotInterface()</text>
<text text-anchor="start" x="565" y="-183.5" font-family="Helvetica,sans-Serif" font-size="10.00">+ operator=()</text>
<text text-anchor="start" x="565" y="-172.5" font-family="Helvetica,sans-Serif" font-size="10.00">+ ~XBotInterface()</text>
<text text-anchor="start" x="565" y="-161.5" font-family="Helvetica,sans-Serif" font-size="10.00">+ init()</text>
<text text-anchor="start" x="565" y="-150.5" font-family="Helvetica,sans-Serif" font-size="10.00">+ getPathToConfig()</text>
<text text-anchor="start" x="565" y="-139.5" font-family="Helvetica,sans-Serif" font-size="10.00">+ getUrdf()</text>
<text text-anchor="start" x="565" y="-128.5" font-family="Helvetica,sans-Serif" font-size="10.00">+ getUrdfPath()</text>
<text text-anchor="start" x="565" y="-117.5" font-family="Helvetica,sans-Serif" font-size="10.00">+ getSrdf()</text>
<text text-anchor="start" x="565" y="-106.5" font-family="Helvetica,sans-Serif" font-size="10.00">+ getSrdfPath()</text>
<text text-anchor="start" x="565" y="-95.5" font-family="Helvetica,sans-Serif" font-size="10.00">and 122 more...</text>
<text text-anchor="start" x="565" y="-84.5" font-family="Helvetica,sans-Serif" font-size="10.00"># getJointByNameInternal()</text>
<text text-anchor="start" x="565" y="-73.5" font-family="Helvetica,sans-Serif" font-size="10.00"># getJointByIdInternal()</text>
<text text-anchor="start" x="565" y="-62.5" font-family="Helvetica,sans-Serif" font-size="10.00"># getJointByDofIndexInternal()</text>
<text text-anchor="start" x="565" y="-51.5" font-family="Helvetica,sans-Serif" font-size="10.00"># getForceTorqueInternal()</text>
<text text-anchor="start" x="565" y="-40.5" font-family="Helvetica,sans-Serif" font-size="10.00"># getImuInternal()</text>
<text text-anchor="start" x="565" y="-29.5" font-family="Helvetica,sans-Serif" font-size="10.00"># init_internal()</text>
<text text-anchor="start" x="565" y="-18.5" font-family="Helvetica,sans-Serif" font-size="10.00"># getModelOrderedChainName()</text>
<text text-anchor="start" x="565" y="-7.5" font-family="Helvetica,sans-Serif" font-size="10.00"># computeAbsolutePath()</text>
</g>
<!-- Node2 -->
<g id="node2" class="node"><title>Node2</title>
<polygon fill="none" stroke="#bfbfbf" points="0,-320 0,-399 133,-399 133,-320 0,-320"/>
<text text-anchor="start" x="8" y="-387" font-family="Helvetica,sans-Serif" font-size="10.00">std::map&lt; std::string,</text>
<text text-anchor="start" x="8" y="-376" font-family="Helvetica,sans-Serif" font-size="10.00"> XBot::ForceTorqueSensor</text>
<text text-anchor="middle" x="66.5" y="-365" font-family="Helvetica,sans-Serif" font-size="10.00">::Ptr &gt;</text>
<polyline fill="none" stroke="#bfbfbf" points="0,-358 133,-358 "/>
<text text-anchor="start" x="8" y="-346" font-family="Helvetica,sans-Serif" font-size="10.00">+ elements</text>
<polyline fill="none" stroke="#bfbfbf" points="0,-339 133,-339 "/>
<text text-anchor="middle" x="66.5" y="-327" font-family="Helvetica,sans-Serif" font-size="10.00"> </text>
</g>
<!-- Node2&#45;&gt;Node1 -->
<g id="edge1" class="edge"><title>Node2&#45;&gt;Node1</title>
<path fill="none" stroke="#404040" d="M131.334,-319.922C135.09,-317.88 138.831,-315.892 142.5,-314 277.129,-244.586 444.005,-187.528 544.99,-155.91"/>
<polygon fill="none" stroke="#404040" points="545.212,-155.841 549.752,-150.239 556.67,-152.275 552.129,-157.877 545.212,-155.841"/>
<text text-anchor="middle" x="242.5" y="-282.5" font-family="Helvetica,sans-Serif" font-size="10.00"> #_ft_map</text>
</g>
<!-- Node3 -->
<g id="node3" class="node"><title>Node3</title>
<g id="a_node3"><a xlink:title="STL class. ">
<polygon fill="none" stroke="#bfbfbf" points="310.5,-452.5 310.5,-509.5 370.5,-509.5 370.5,-452.5 310.5,-452.5"/>
<text text-anchor="middle" x="340.5" y="-497.5" font-family="Helvetica,sans-Serif" font-size="10.00">std::string</text>
<polyline fill="none" stroke="#bfbfbf" points="310.5,-490.5 370.5,-490.5 "/>
<text text-anchor="middle" x="340.5" y="-478.5" font-family="Helvetica,sans-Serif" font-size="10.00"> </text>
<polyline fill="none" stroke="#bfbfbf" points="310.5,-471.5 370.5,-471.5 "/>
<text text-anchor="middle" x="340.5" y="-459.5" font-family="Helvetica,sans-Serif" font-size="10.00"> </text>
</a>
</g>
</g>
<!-- Node3&#45;&gt;Node2 -->
<g id="edge2" class="edge"><title>Node3&#45;&gt;Node2</title>
<path fill="none" stroke="#404040" d="M310.332,-470.335C270.939,-457.319 200.206,-432.584 142.5,-405 142.259,-404.885 142.017,-404.769 141.775,-404.652"/>
<polygon fill="none" stroke="#404040" points="141.502,-404.515 134.344,-405.394 130.78,-399.126 137.937,-398.246 141.502,-404.515"/>
<text text-anchor="middle" x="223" y="-426" font-family="Helvetica,sans-Serif" font-size="10.00"> +keys</text>
</g>
<!-- Node5 -->
<g id="node5" class="node"><title>Node5</title>
<polygon fill="none" stroke="#bfbfbf" points="151.5,-325.5 151.5,-393.5 261.5,-393.5 261.5,-325.5 151.5,-325.5"/>
<text text-anchor="start" x="159.5" y="-381.5" font-family="Helvetica,sans-Serif" font-size="10.00">std::map&lt; std::string,</text>
<text text-anchor="middle" x="206.5" y="-370.5" font-family="Helvetica,sans-Serif" font-size="10.00"> int &gt;</text>
<polyline fill="none" stroke="#bfbfbf" points="151.5,-363.5 261.5,-363.5 "/>
<text text-anchor="start" x="159.5" y="-351.5" font-family="Helvetica,sans-Serif" font-size="10.00">+ elements</text>
<polyline fill="none" stroke="#bfbfbf" points="151.5,-344.5 261.5,-344.5 "/>
<text text-anchor="middle" x="206.5" y="-332.5" font-family="Helvetica,sans-Serif" font-size="10.00"> </text>
</g>
<!-- Node3&#45;&gt;Node5 -->
<g id="edge5" class="edge"><title>Node3&#45;&gt;Node5</title>
<path fill="none" stroke="#404040" d="M310.428,-453.182C293.452,-438.043 271.876,-418.802 252.788,-401.779"/>
<polygon fill="none" stroke="#404040" points="252.605,-401.616 245.464,-400.608 243.649,-393.629 250.789,-394.637 252.605,-401.616"/>
<text text-anchor="middle" x="302" y="-426" font-family="Helvetica,sans-Serif" font-size="10.00"> +keys</text>
</g>
<!-- Node6 -->
<g id="node6" class="node"><title>Node6</title>
<polygon fill="none" stroke="#bfbfbf" points="279.5,-325.5 279.5,-393.5 401.5,-393.5 401.5,-325.5 279.5,-325.5"/>
<text text-anchor="start" x="287.5" y="-381.5" font-family="Helvetica,sans-Serif" font-size="10.00">std::map&lt; std::string,</text>
<text text-anchor="middle" x="340.5" y="-370.5" font-family="Helvetica,sans-Serif" font-size="10.00"> XBot::ImuSensor::Ptr &gt;</text>
<polyline fill="none" stroke="#bfbfbf" points="279.5,-363.5 401.5,-363.5 "/>
<text text-anchor="start" x="287.5" y="-351.5" font-family="Helvetica,sans-Serif" font-size="10.00">+ elements</text>
<polyline fill="none" stroke="#bfbfbf" points="279.5,-344.5 401.5,-344.5 "/>
<text text-anchor="middle" x="340.5" y="-332.5" font-family="Helvetica,sans-Serif" font-size="10.00"> </text>
</g>
<!-- Node3&#45;&gt;Node6 -->
<g id="edge7" class="edge"><title>Node3&#45;&gt;Node6</title>
<path fill="none" stroke="#404040" d="M340.5,-452.284C340.5,-438.465 340.5,-421.401 340.5,-405.749"/>
<polygon fill="none" stroke="#404040" points="340.5,-405.589 336.5,-399.589 340.5,-393.589 344.5,-399.589 340.5,-405.589"/>
<text text-anchor="middle" x="356" y="-426" font-family="Helvetica,sans-Serif" font-size="10.00"> +keys</text>
</g>
<!-- Node11 -->
<g id="node11" class="node"><title>Node11</title>
<polygon fill="none" stroke="#bfbfbf" points="420,-331 420,-388 545,-388 545,-331 420,-331"/>
<text text-anchor="middle" x="482.5" y="-376" font-family="Helvetica,sans-Serif" font-size="10.00">std::vector&lt; std::string &gt;</text>
<polyline fill="none" stroke="#bfbfbf" points="420,-369 545,-369 "/>
<text text-anchor="middle" x="482.5" y="-357" font-family="Helvetica,sans-Serif" font-size="10.00"> </text>
<polyline fill="none" stroke="#bfbfbf" points="420,-350 545,-350 "/>
<text text-anchor="middle" x="482.5" y="-338" font-family="Helvetica,sans-Serif" font-size="10.00"> </text>
</g>
<!-- Node3&#45;&gt;Node11 -->
<g id="edge13" class="edge"><title>Node3&#45;&gt;Node11</title>
<path fill="none" stroke="#404040" d="M370.615,-454.657C390.917,-437.572 417.984,-414.793 440.411,-395.92"/>
<polygon fill="none" stroke="#404040" points="440.524,-395.825 442.539,-388.901 449.705,-388.099 447.69,-395.022 440.524,-395.825"/>
<text text-anchor="middle" x="432" y="-426" font-family="Helvetica,sans-Serif" font-size="10.00"> +elements</text>
</g>
<!-- Node12 -->
<g id="node12" class="node"><title>Node12</title>
<polygon fill="none" stroke="#bfbfbf" points="563.5,-320 563.5,-399 707.5,-399 707.5,-320 563.5,-320"/>
<text text-anchor="start" x="571.5" y="-387" font-family="Helvetica,sans-Serif" font-size="10.00">std::map&lt; std::string,</text>
<text text-anchor="start" x="571.5" y="-376" font-family="Helvetica,sans-Serif" font-size="10.00"> XBot::XBot::KinematicChain</text>
<text text-anchor="middle" x="635.5" y="-365" font-family="Helvetica,sans-Serif" font-size="10.00">::Ptr &gt;</text>
<polyline fill="none" stroke="#bfbfbf" points="563.5,-358 707.5,-358 "/>
<text text-anchor="start" x="571.5" y="-346" font-family="Helvetica,sans-Serif" font-size="10.00">+ elements</text>
<polyline fill="none" stroke="#bfbfbf" points="563.5,-339 707.5,-339 "/>
<text text-anchor="middle" x="635.5" y="-327" font-family="Helvetica,sans-Serif" font-size="10.00"> </text>
</g>
<!-- Node3&#45;&gt;Node12 -->
<g id="edge15" class="edge"><title>Node3&#45;&gt;Node12</title>
<path fill="none" stroke="#404040" d="M370.714,-471.027C412.534,-458.234 490.079,-433.161 553.5,-405 554.018,-404.77 554.537,-404.538 555.058,-404.304"/>
<polygon fill="none" stroke="#404040" points="555.223,-404.226 558.962,-398.06 566.092,-399.14 562.353,-405.306 555.223,-404.226"/>
<text text-anchor="middle" x="524" y="-426" font-family="Helvetica,sans-Serif" font-size="10.00"> +keys</text>
</g>
<!-- Node4 -->
<g id="node4" class="node"><title>Node4</title>
<g id="a_node4"><a xlink:title="STL class. ">
<polygon fill="none" stroke="#bfbfbf" points="293,-547.5 293,-615.5 388,-615.5 388,-547.5 293,-547.5"/>
<text text-anchor="start" x="301" y="-603.5" font-family="Helvetica,sans-Serif" font-size="10.00">std::basic_string&lt;</text>
<text text-anchor="middle" x="340.5" y="-592.5" font-family="Helvetica,sans-Serif" font-size="10.00"> char &gt;</text>
<polyline fill="none" stroke="#bfbfbf" points="293,-585.5 388,-585.5 "/>
<text text-anchor="middle" x="340.5" y="-573.5" font-family="Helvetica,sans-Serif" font-size="10.00"> </text>
<polyline fill="none" stroke="#bfbfbf" points="293,-566.5 388,-566.5 "/>
<text text-anchor="middle" x="340.5" y="-554.5" font-family="Helvetica,sans-Serif" font-size="10.00"> </text>
</a>
</g>
</g>
<!-- Node4&#45;&gt;Node3 -->
<g id="edge3" class="edge"><title>Node4&#45;&gt;Node3</title>
<path fill="none" stroke="midnightblue" d="M340.5,-537.375C340.5,-527.94 340.5,-518.201 340.5,-509.571"/>
<polygon fill="none" stroke="midnightblue" points="337,-537.427 340.5,-547.427 344,-537.427 337,-537.427"/>
</g>
<!-- Node5&#45;&gt;Node1 -->
<g id="edge4" class="edge"><title>Node5&#45;&gt;Node1</title>
<path fill="none" stroke="#404040" d="M241.48,-325.425C260.367,-308.657 284.651,-288.774 308.5,-274 384.233,-227.087 477.768,-187.22 545.375,-161.233"/>
<polygon fill="none" stroke="#404040" points="545.627,-161.137 549.809,-155.263 556.84,-156.864 552.658,-162.738 545.627,-161.137"/>
<text text-anchor="middle" x="366.5" y="-282.5" font-family="Helvetica,sans-Serif" font-size="10.00"> #_joint_name_to_eigen_id</text>
</g>
<!-- Node6&#45;&gt;Node1 -->
<g id="edge6" class="edge"><title>Node6&#45;&gt;Node1</title>
<path fill="none" stroke="#404040" d="M383.08,-325.374C425.829,-292.117 492.955,-239.896 547.241,-197.663"/>
<polygon fill="none" stroke="#404040" points="547.401,-197.538 549.68,-190.697 556.872,-190.17 554.593,-197.011 547.401,-197.538"/>
<text text-anchor="middle" x="471.5" y="-282.5" font-family="Helvetica,sans-Serif" font-size="10.00"> #_imu_map</text>
</g>
<!-- Node7 -->
<g id="node7" class="node"><title>Node7</title>
<polygon fill="none" stroke="#bfbfbf" points="725.5,-325.5 725.5,-393.5 825.5,-393.5 825.5,-325.5 725.5,-325.5"/>
<text text-anchor="middle" x="775.5" y="-381.5" font-family="Helvetica,sans-Serif" font-size="10.00">std::map&lt; int, int &gt;</text>
<polyline fill="none" stroke="#bfbfbf" points="725.5,-374.5 825.5,-374.5 "/>
<text text-anchor="start" x="733.5" y="-362.5" font-family="Helvetica,sans-Serif" font-size="10.00">+ keys</text>
<text text-anchor="start" x="733.5" y="-351.5" font-family="Helvetica,sans-Serif" font-size="10.00">+ elements</text>
<polyline fill="none" stroke="#bfbfbf" points="725.5,-344.5 825.5,-344.5 "/>
<text text-anchor="middle" x="775.5" y="-332.5" font-family="Helvetica,sans-Serif" font-size="10.00"> </text>
</g>
<!-- Node7&#45;&gt;Node1 -->
<g id="edge8" class="edge"><title>Node7&#45;&gt;Node1</title>
<path fill="none" stroke="#404040" d="M755.143,-325.129C745.192,-308.816 732.483,-287.982 719.083,-266.016"/>
<polygon fill="none" stroke="#404040" points="718.922,-265.753 712.383,-262.714 712.673,-255.508 719.212,-258.548 718.922,-265.753"/>
<text text-anchor="middle" x="784.5" y="-282.5" font-family="Helvetica,sans-Serif" font-size="10.00"> #_joint_id_to_eigen_id</text>
</g>
<!-- Node8 -->
<g id="node8" class="node"><title>Node8</title>
<polygon fill="none" stroke="#bfbfbf" points="843.5,-325.5 843.5,-393.5 943.5,-393.5 943.5,-325.5 843.5,-325.5"/>
<text text-anchor="start" x="851.5" y="-381.5" font-family="Helvetica,sans-Serif" font-size="10.00">std::vector&lt; XBot::</text>
<text text-anchor="middle" x="893.5" y="-370.5" font-family="Helvetica,sans-Serif" font-size="10.00">Joint::Ptr &gt;</text>
<polyline fill="none" stroke="#bfbfbf" points="843.5,-363.5 943.5,-363.5 "/>
<text text-anchor="start" x="851.5" y="-351.5" font-family="Helvetica,sans-Serif" font-size="10.00">+ elements</text>
<polyline fill="none" stroke="#bfbfbf" points="843.5,-344.5 943.5,-344.5 "/>
<text text-anchor="middle" x="893.5" y="-332.5" font-family="Helvetica,sans-Serif" font-size="10.00"> </text>
</g>
<!-- Node8&#45;&gt;Node1 -->
<g id="edge9" class="edge"><title>Node8&#45;&gt;Node1</title>
<path fill="none" stroke="#404040" d="M875.726,-325.139C866.021,-308.685 853.028,-289.17 838.5,-274 805.095,-239.118 762.273,-207.111 724.576,-182.094"/>
<polygon fill="none" stroke="#404040" points="724.13,-181.802 716.92,-181.86 714.092,-175.227 721.303,-175.168 724.13,-181.802"/>
<text text-anchor="middle" x="907.5" y="-288" font-family="Helvetica,sans-Serif" font-size="10.00"> #_ordered_joint_vector</text>
<text text-anchor="middle" x="907.5" y="-277" font-family="Helvetica,sans-Serif" font-size="10.00">#_joint_vector</text>
</g>
<!-- Node9 -->
<g id="node9" class="node"><title>Node9</title>
<polygon fill="none" stroke="#bfbfbf" points="964.5,-320 964.5,-399 1066.5,-399 1066.5,-320 964.5,-320"/>
<text text-anchor="start" x="972.5" y="-387" font-family="Helvetica,sans-Serif" font-size="10.00">std::map&lt; int, XBot</text>
<text text-anchor="middle" x="1015.5" y="-376" font-family="Helvetica,sans-Serif" font-size="10.00">::ImuSensor::Ptr &gt;</text>
<polyline fill="none" stroke="#bfbfbf" points="964.5,-369 1066.5,-369 "/>
<text text-anchor="start" x="972.5" y="-357" font-family="Helvetica,sans-Serif" font-size="10.00">+ keys</text>
<text text-anchor="start" x="972.5" y="-346" font-family="Helvetica,sans-Serif" font-size="10.00">+ elements</text>
<polyline fill="none" stroke="#bfbfbf" points="964.5,-339 1066.5,-339 "/>
<text text-anchor="middle" x="1015.5" y="-327" font-family="Helvetica,sans-Serif" font-size="10.00"> </text>
</g>
<!-- Node9&#45;&gt;Node1 -->
<g id="edge10" class="edge"><title>Node9&#45;&gt;Node1</title>
<path fill="none" stroke="#404040" d="M997.733,-319.997C988.921,-304.146 977.027,-286.587 962.5,-274 893.589,-214.289 796.158,-175.374 725.591,-153.042"/>
<polygon fill="none" stroke="#404040" points="725.525,-153.022 718.609,-155.064 714.064,-149.466 720.98,-147.423 725.525,-153.022"/>
<text text-anchor="middle" x="1015" y="-282.5" font-family="Helvetica,sans-Serif" font-size="10.00"> #_imu_id_map</text>
</g>
<!-- Node10 -->
<g id="node10" class="node"><title>Node10</title>
<polygon fill="none" stroke="#bfbfbf" points="1084.5,-314.5 1084.5,-404.5 1192.5,-404.5 1192.5,-314.5 1084.5,-314.5"/>
<text text-anchor="start" x="1092.5" y="-392.5" font-family="Helvetica,sans-Serif" font-size="10.00">std::map&lt; int, XBot</text>
<text text-anchor="start" x="1092.5" y="-381.5" font-family="Helvetica,sans-Serif" font-size="10.00">::ForceTorqueSensor</text>
<text text-anchor="middle" x="1138.5" y="-370.5" font-family="Helvetica,sans-Serif" font-size="10.00">::Ptr &gt;</text>
<polyline fill="none" stroke="#bfbfbf" points="1084.5,-363.5 1192.5,-363.5 "/>
<text text-anchor="start" x="1092.5" y="-351.5" font-family="Helvetica,sans-Serif" font-size="10.00">+ keys</text>
<text text-anchor="start" x="1092.5" y="-340.5" font-family="Helvetica,sans-Serif" font-size="10.00">+ elements</text>
<polyline fill="none" stroke="#bfbfbf" points="1084.5,-333.5 1192.5,-333.5 "/>
<text text-anchor="middle" x="1138.5" y="-321.5" font-family="Helvetica,sans-Serif" font-size="10.00"> </text>
</g>
<!-- Node10&#45;&gt;Node1 -->
<g id="edge11" class="edge"><title>Node10&#45;&gt;Node1</title>
<path fill="none" stroke="#404040" d="M1101,-314.471C1086.96,-300.044 1070.11,-284.93 1052.5,-274 949.31,-209.933 814.089,-169.622 726.031,-148.206"/>
<polygon fill="none" stroke="#404040" points="725.865,-148.166 719.098,-150.659 714.195,-145.372 720.961,-142.879 725.865,-148.166"/>
<text text-anchor="middle" x="1110" y="-282.5" font-family="Helvetica,sans-Serif" font-size="10.00"> #_ft_id_map</text>
</g>
<!-- Node11&#45;&gt;Node1 -->
<g id="edge12" class="edge"><title>Node11&#45;&gt;Node1</title>
<path fill="none" stroke="#404040" d="M493.821,-330.684C501.136,-313.806 511.349,-292.104 522.5,-274 530.703,-260.683 539.906,-247.15 549.426,-233.973"/>
<polygon fill="none" stroke="#404040" points="549.661,-233.652 549.983,-226.448 556.757,-223.975 556.435,-231.179 549.661,-233.652"/>
<text text-anchor="middle" x="577" y="-282.5" font-family="Helvetica,sans-Serif" font-size="10.00"> #_ordered_chain_names</text>
</g>
<!-- Node12&#45;&gt;Node1 -->
<g id="edge14" class="edge"><title>Node12&#45;&gt;Node1</title>
<path fill="none" stroke="#404040" d="M635.5,-319.828C635.5,-304.877 635.5,-286.789 635.5,-267.781"/>
<polygon fill="none" stroke="#404040" points="635.5,-267.515 631.5,-261.515 635.5,-255.515 639.5,-261.515 635.5,-267.515"/>
<text text-anchor="middle" x="666" y="-282.5" font-family="Helvetica,sans-Serif" font-size="10.00"> #_chain_map</text>
</g>
</g>
</svg>
