<?xml version="1.0" encoding="UTF-8" standalone="no"?>
<!DOCTYPE svg PUBLIC "-//W3C//DTD SVG 1.1//EN"
 "http://www.w3.org/Graphics/SVG/1.1/DTD/svg11.dtd">
<!-- Generated by graphviz version 2.38.0 (20140413.2041)
 -->
<!-- Title: fmt::internal::MemoryBuffer&lt; T, SIZE, Allocator &gt; Pages: 1 -->
<svg width="181pt" height="442pt"
 viewBox="0.00 0.00 180.50 442.00" xmlns="http://www.w3.org/2000/svg" xmlns:xlink="http://www.w3.org/1999/xlink">
<g id="graph0" class="graph" transform="scale(1 1) rotate(0) translate(4 438)">
<title>fmt::internal::MemoryBuffer&lt; T, SIZE, Allocator &gt;</title>
<!-- Node1 -->
<g id="node1" class="node"><title>Node1</title>
<polygon fill="#bfbfbf" stroke="black" points="0,-0.5 0,-101.5 136,-101.5 136,-0.5 0,-0.5"/>
<text text-anchor="start" x="8" y="-89.5" font-family="Helvetica,sans-Serif" font-size="10.00">fmt::internal::MemoryBuffer</text>
<text text-anchor="middle" x="68" y="-78.5" font-family="Helvetica,sans-Serif" font-size="10.00">&lt; T, SIZE, Allocator &gt;</text>
<polyline fill="none" stroke="black" points="0,-71.5 136,-71.5 "/>
<text text-anchor="middle" x="68" y="-59.5" font-family="Helvetica,sans-Serif" font-size="10.00"> </text>
<polyline fill="none" stroke="black" points="0,-52.5 136,-52.5 "/>
<text text-anchor="start" x="8" y="-40.5" font-family="Helvetica,sans-Serif" font-size="10.00">+ MemoryBuffer()</text>
<text text-anchor="start" x="8" y="-29.5" font-family="Helvetica,sans-Serif" font-size="10.00">+ ~MemoryBuffer()</text>
<text text-anchor="start" x="8" y="-18.5" font-family="Helvetica,sans-Serif" font-size="10.00">+ get_allocator()</text>
<text text-anchor="start" x="8" y="-7.5" font-family="Helvetica,sans-Serif" font-size="10.00"># grow()</text>
</g>
<!-- Node2 -->
<g id="node2" class="node"><title>Node2</title>
<polygon fill="none" stroke="#bfbfbf" points="12.5,-205.5 12.5,-262.5 67.5,-262.5 67.5,-205.5 12.5,-205.5"/>
<text text-anchor="middle" x="40" y="-250.5" font-family="Helvetica,sans-Serif" font-size="10.00">Allocator</text>
<polyline fill="none" stroke="#bfbfbf" points="12.5,-243.5 67.5,-243.5 "/>
<text text-anchor="middle" x="40" y="-231.5" font-family="Helvetica,sans-Serif" font-size="10.00"> </text>
<polyline fill="none" stroke="#bfbfbf" points="12.5,-224.5 67.5,-224.5 "/>
<text text-anchor="middle" x="40" y="-212.5" font-family="Helvetica,sans-Serif" font-size="10.00"> </text>
</g>
<!-- Node2&#45;&gt;Node1 -->
<g id="edge1" class="edge"><title>Node2&#45;&gt;Node1</title>
<path fill="none" stroke="#8b1a1a" d="M45.8977,-194.876C50.0864,-167.799 55.7507,-131.183 60.2963,-101.799"/>
<polygon fill="none" stroke="#8b1a1a" points="42.3836,-194.698 44.3136,-205.115 49.3014,-195.768 42.3836,-194.698"/>
</g>
<!-- Node3 -->
<g id="node3" class="node"><title>Node3</title>
<g id="a_node3"><a xlink:href="classfmt_1_1Buffer.html" target="_top" xlink:title="A buffer supporting a subset of std::vector&#39;s operations. ">
<polygon fill="none" stroke="black" points="85.5,-139.5 85.5,-328.5 172.5,-328.5 172.5,-139.5 85.5,-139.5"/>
<text text-anchor="middle" x="129" y="-316.5" font-family="Helvetica,sans-Serif" font-size="10.00">fmt::Buffer&lt; T &gt;</text>
<polyline fill="none" stroke="black" points="85.5,-309.5 172.5,-309.5 "/>
<text text-anchor="start" x="93.5" y="-297.5" font-family="Helvetica,sans-Serif" font-size="10.00"># size_</text>
<text text-anchor="start" x="93.5" y="-286.5" font-family="Helvetica,sans-Serif" font-size="10.00"># capacity_</text>
<polyline fill="none" stroke="black" points="85.5,-279.5 172.5,-279.5 "/>
<text text-anchor="start" x="93.5" y="-267.5" font-family="Helvetica,sans-Serif" font-size="10.00">+ ~Buffer()</text>
<text text-anchor="start" x="93.5" y="-256.5" font-family="Helvetica,sans-Serif" font-size="10.00">+ size()</text>
<text text-anchor="start" x="93.5" y="-245.5" font-family="Helvetica,sans-Serif" font-size="10.00">+ capacity()</text>
<text text-anchor="start" x="93.5" y="-234.5" font-family="Helvetica,sans-Serif" font-size="10.00">+ resize()</text>
<text text-anchor="start" x="93.5" y="-223.5" font-family="Helvetica,sans-Serif" font-size="10.00">+ reserve()</text>
<text text-anchor="start" x="93.5" y="-212.5" font-family="Helvetica,sans-Serif" font-size="10.00">+ clear()</text>
<text text-anchor="start" x="93.5" y="-201.5" font-family="Helvetica,sans-Serif" font-size="10.00">+ push_back()</text>
<text text-anchor="start" x="93.5" y="-190.5" font-family="Helvetica,sans-Serif" font-size="10.00">+ append()</text>
<text text-anchor="start" x="93.5" y="-179.5" font-family="Helvetica,sans-Serif" font-size="10.00">+ operator[]()</text>
<text text-anchor="start" x="93.5" y="-168.5" font-family="Helvetica,sans-Serif" font-size="10.00">+ operator[]()</text>
<text text-anchor="start" x="93.5" y="-157.5" font-family="Helvetica,sans-Serif" font-size="10.00"># Buffer()</text>
<text text-anchor="start" x="93.5" y="-146.5" font-family="Helvetica,sans-Serif" font-size="10.00"># grow()</text>
</a>
</g>
</g>
<!-- Node3&#45;&gt;Node1 -->
<g id="edge2" class="edge"><title>Node3&#45;&gt;Node1</title>
<path fill="none" stroke="midnightblue" d="M94.1685,-129.648C90.9257,-120.025 87.7496,-110.601 84.7908,-101.822"/>
<polygon fill="none" stroke="midnightblue" points="90.9175,-130.96 97.4279,-139.319 97.5509,-128.725 90.9175,-130.96"/>
</g>
<!-- Node4 -->
<g id="node4" class="node"><title>Node4</title>
<polygon fill="none" stroke="#bfbfbf" points="114.5,-376.5 114.5,-433.5 143.5,-433.5 143.5,-376.5 114.5,-376.5"/>
<text text-anchor="middle" x="129" y="-421.5" font-family="Helvetica,sans-Serif" font-size="10.00">T</text>
<polyline fill="none" stroke="#bfbfbf" points="114.5,-414.5 143.5,-414.5 "/>
<text text-anchor="middle" x="129" y="-402.5" font-family="Helvetica,sans-Serif" font-size="10.00"> </text>
<polyline fill="none" stroke="#bfbfbf" points="114.5,-395.5 143.5,-395.5 "/>
<text text-anchor="middle" x="129" y="-383.5" font-family="Helvetica,sans-Serif" font-size="10.00"> </text>
</g>
<!-- Node4&#45;&gt;Node3 -->
<g id="edge3" class="edge"><title>Node4&#45;&gt;Node3</title>
<path fill="none" stroke="#404040" d="M129,-376.471C129,-366.231 129,-353.901 129,-340.844"/>
<polygon fill="none" stroke="#404040" points="129,-340.687 125,-334.687 129,-328.687 133,-334.687 129,-340.687"/>
<text text-anchor="middle" x="141.5" y="-350" font-family="Helvetica,sans-Serif" font-size="10.00"> #ptr_</text>
</g>
</g>
</svg>
