<?xml version="1.0" encoding="UTF-8" standalone="no"?>
<!DOCTYPE svg PUBLIC "-//W3C//DTD SVG 1.1//EN"
 "http://www.w3.org/Graphics/SVG/1.1/DTD/svg11.dtd">
<!-- Generated by graphviz version 2.36.0 (20140111.2315)
 -->
<!-- Title: fmt::Buffer&lt; T &gt; Pages: 1 -->
<svg width="94pt" height="304pt"
 viewBox="0.00 0.00 94.00 304.00" xmlns="http://www.w3.org/2000/svg" xmlns:xlink="http://www.w3.org/1999/xlink">
<g id="graph0" class="graph" transform="scale(1 1) rotate(0) translate(4 300)">
<title>fmt::Buffer&lt; T &gt;</title>
<!-- Node1 -->
<g id="node1" class="node"><title>Node1</title>
<polygon fill="#bfbfbf" stroke="black" points="-0.5,-0.5 -0.5,-189.5 86.5,-189.5 86.5,-0.5 -0.5,-0.5"/>
<text text-anchor="middle" x="43" y="-177.5" font-family="Helvetica,sans-Serif" font-size="10.00">fmt::Buffer&lt; T &gt;</text>
<polyline fill="none" stroke="black" points="-0.5,-170.5 86.5,-170.5 "/>
<text text-anchor="start" x="7.5" y="-158.5" font-family="Helvetica,sans-Serif" font-size="10.00"># size_</text>
<text text-anchor="start" x="7.5" y="-147.5" font-family="Helvetica,sans-Serif" font-size="10.00"># capacity_</text>
<polyline fill="none" stroke="black" points="-0.5,-140.5 86.5,-140.5 "/>
<text text-anchor="start" x="7.5" y="-128.5" font-family="Helvetica,sans-Serif" font-size="10.00">+ ~Buffer()</text>
<text text-anchor="start" x="7.5" y="-117.5" font-family="Helvetica,sans-Serif" font-size="10.00">+ size()</text>
<text text-anchor="start" x="7.5" y="-106.5" font-family="Helvetica,sans-Serif" font-size="10.00">+ capacity()</text>
<text text-anchor="start" x="7.5" y="-95.5" font-family="Helvetica,sans-Serif" font-size="10.00">+ resize()</text>
<text text-anchor="start" x="7.5" y="-84.5" font-family="Helvetica,sans-Serif" font-size="10.00">+ reserve()</text>
<text text-anchor="start" x="7.5" y="-73.5" font-family="Helvetica,sans-Serif" font-size="10.00">+ clear()</text>
<text text-anchor="start" x="7.5" y="-62.5" font-family="Helvetica,sans-Serif" font-size="10.00">+ push_back()</text>
<text text-anchor="start" x="7.5" y="-51.5" font-family="Helvetica,sans-Serif" font-size="10.00">+ append()</text>
<text text-anchor="start" x="7.5" y="-40.5" font-family="Helvetica,sans-Serif" font-size="10.00">+ operator[]()</text>
<text text-anchor="start" x="7.5" y="-29.5" font-family="Helvetica,sans-Serif" font-size="10.00">+ operator[]()</text>
<text text-anchor="start" x="7.5" y="-18.5" font-family="Helvetica,sans-Serif" font-size="10.00"># Buffer()</text>
<text text-anchor="start" x="7.5" y="-7.5" font-family="Helvetica,sans-Serif" font-size="10.00"># grow()</text>
</g>
<!-- Node2 -->
<g id="node2" class="node"><title>Node2</title>
<polygon fill="none" stroke="#bfbfbf" points="28.5,-238.5 28.5,-295.5 57.5,-295.5 57.5,-238.5 28.5,-238.5"/>
<text text-anchor="middle" x="43" y="-283.5" font-family="Helvetica,sans-Serif" font-size="10.00">T</text>
<polyline fill="none" stroke="#bfbfbf" points="28.5,-276.5 57.5,-276.5 "/>
<text text-anchor="middle" x="43" y="-264.5" font-family="Helvetica,sans-Serif" font-size="10.00"> </text>
<polyline fill="none" stroke="#bfbfbf" points="28.5,-257.5 57.5,-257.5 "/>
<text text-anchor="middle" x="43" y="-245.5" font-family="Helvetica,sans-Serif" font-size="10.00"> </text>
</g>
<!-- Node2&#45;&gt;Node1 -->
<g id="edge1" class="edge"><title>Node2&#45;&gt;Node1</title>
<path fill="none" stroke="#404040" d="M43,-238.308C43,-227.757 43,-215 43,-201.51"/>
<polygon fill="none" stroke="#404040" points="43.0001,-201.504 39,-195.504 43,-189.504 47,-195.504 43.0001,-201.504"/>
<text text-anchor="middle" x="55.5" y="-211.5" font-family="Helvetica,sans-Serif" font-size="10.00"> #ptr_</text>
</g>
</g>
</svg>
