<?xml version="1.0" encoding="UTF-8" standalone="no"?>
<!DOCTYPE svg PUBLIC "-//W3C//DTD SVG 1.1//EN"
 "http://www.w3.org/Graphics/SVG/1.1/DTD/svg11.dtd">
<!-- Generated by graphviz version 2.36.0 (20140111.2315)
 -->
<!-- Title: fmt::PrintfFormatter&lt; Char, ArgFormatter &gt; Pages: 1 -->
<svg width="146pt" height="238pt"
 viewBox="0.00 0.00 146.00 238.00" xmlns="http://www.w3.org/2000/svg" xmlns:xlink="http://www.w3.org/1999/xlink">
<g id="graph0" class="graph" transform="scale(1 1) rotate(0) translate(4 234)">
<title>fmt::PrintfFormatter&lt; Char, ArgFormatter &gt;</title>
<!-- Node1 -->
<g id="node1" class="node"><title>Node1</title>
<polygon fill="#bfbfbf" stroke="black" points="9.5,-0.5 9.5,-79.5 128.5,-79.5 128.5,-0.5 9.5,-0.5"/>
<text text-anchor="start" x="17.5" y="-67.5" font-family="Helvetica,sans-Serif" font-size="10.00">fmt::PrintfFormatter</text>
<text text-anchor="middle" x="69" y="-56.5" font-family="Helvetica,sans-Serif" font-size="10.00">&lt; Char, ArgFormatter &gt;</text>
<polyline fill="none" stroke="black" points="9.5,-49.5 128.5,-49.5 "/>
<text text-anchor="middle" x="69" y="-37.5" font-family="Helvetica,sans-Serif" font-size="10.00"> </text>
<polyline fill="none" stroke="black" points="9.5,-30.5 128.5,-30.5 "/>
<text text-anchor="start" x="17.5" y="-18.5" font-family="Helvetica,sans-Serif" font-size="10.00">+ PrintfFormatter()</text>
<text text-anchor="start" x="17.5" y="-7.5" font-family="Helvetica,sans-Serif" font-size="10.00">+ format()</text>
</g>
<!-- Node2 -->
<g id="node2" class="node"><title>Node2</title>
<g id="a_node2"><a xlink:href="classfmt_1_1internal_1_1FormatterBase.html" target="_top" xlink:title="{fmt::internal::FormatterBase\n||# args()\l# FormatterBase()\l# next_arg()\l# get_arg()\l# check_no_auto_index()\l# write()\l}">
<polygon fill="none" stroke="black" points="-0.5,-117 -0.5,-229 138.5,-229 138.5,-117 -0.5,-117"/>
<text text-anchor="middle" x="69" y="-217" font-family="Helvetica,sans-Serif" font-size="10.00">fmt::internal::FormatterBase</text>
<polyline fill="none" stroke="black" points="-0.5,-210 138.5,-210 "/>
<text text-anchor="middle" x="69" y="-198" font-family="Helvetica,sans-Serif" font-size="10.00"> </text>
<polyline fill="none" stroke="black" points="-0.5,-191 138.5,-191 "/>
<text text-anchor="start" x="7.5" y="-179" font-family="Helvetica,sans-Serif" font-size="10.00"># args()</text>
<text text-anchor="start" x="7.5" y="-168" font-family="Helvetica,sans-Serif" font-size="10.00"># FormatterBase()</text>
<text text-anchor="start" x="7.5" y="-157" font-family="Helvetica,sans-Serif" font-size="10.00"># next_arg()</text>
<text text-anchor="start" x="7.5" y="-146" font-family="Helvetica,sans-Serif" font-size="10.00"># get_arg()</text>
<text text-anchor="start" x="7.5" y="-135" font-family="Helvetica,sans-Serif" font-size="10.00"># check_no_auto_index()</text>
<text text-anchor="start" x="7.5" y="-124" font-family="Helvetica,sans-Serif" font-size="10.00"># write()</text>
</a>
</g>
</g>
<!-- Node2&#45;&gt;Node1 -->
<g id="edge1" class="edge"><title>Node2&#45;&gt;Node1</title>
<path fill="none" stroke="#8b1a1a" d="M69,-106.537C69,-97.3924 69,-88.2465 69,-79.8127"/>
<polygon fill="none" stroke="#8b1a1a" points="65.5001,-106.824 69,-116.824 72.5001,-106.824 65.5001,-106.824"/>
</g>
</g>
</svg>
