<?xml version="1.0" encoding="UTF-8" standalone="no"?>
<!DOCTYPE svg PUBLIC "-//W3C//DTD SVG 1.1//EN"
 "http://www.w3.org/Graphics/SVG/1.1/DTD/svg11.dtd">
<!-- Generated by graphviz version 2.38.0 (20140413.2041)
 -->
<!-- Title: fmt::internal::MakeArg&lt; Formatter &gt; Pages: 1 -->
<svg width="121pt" height="408pt"
 viewBox="0.00 0.00 121.00 408.00" xmlns="http://www.w3.org/2000/svg" xmlns:xlink="http://www.w3.org/1999/xlink">
<g id="graph0" class="graph" transform="scale(1 1) rotate(0) translate(4 404)">
<title>fmt::internal::MakeArg&lt; Formatter &gt;</title>
<!-- Node1 -->
<g id="node1" class="node"><title>Node1</title>
<polygon fill="#bfbfbf" stroke="black" points="0,-0.5 0,-79.5 113,-79.5 113,-0.5 0,-0.5"/>
<text text-anchor="start" x="8" y="-67.5" font-family="Helvetica,sans-Serif" font-size="10.00">fmt::internal::MakeArg</text>
<text text-anchor="middle" x="56.5" y="-56.5" font-family="Helvetica,sans-Serif" font-size="10.00">&lt; Formatter &gt;</text>
<polyline fill="none" stroke="black" points="0,-49.5 113,-49.5 "/>
<text text-anchor="middle" x="56.5" y="-37.5" font-family="Helvetica,sans-Serif" font-size="10.00"> </text>
<polyline fill="none" stroke="black" points="0,-30.5 113,-30.5 "/>
<text text-anchor="start" x="8" y="-18.5" font-family="Helvetica,sans-Serif" font-size="10.00">+ MakeArg()</text>
<text text-anchor="start" x="8" y="-7.5" font-family="Helvetica,sans-Serif" font-size="10.00">+ MakeArg()</text>
</g>
<!-- Node2 -->
<g id="node2" class="node"><title>Node2</title>
<g id="a_node2"><a xlink:href="structfmt_1_1internal_1_1Arg.html" target="_top" xlink:title="{fmt::internal::Arg\n|+ type\l|}">
<polygon fill="none" stroke="black" points="12,-116.5 12,-173.5 101,-173.5 101,-116.5 12,-116.5"/>
<text text-anchor="middle" x="56.5" y="-161.5" font-family="Helvetica,sans-Serif" font-size="10.00">fmt::internal::Arg</text>
<polyline fill="none" stroke="black" points="12,-154.5 101,-154.5 "/>
<text text-anchor="start" x="20" y="-142.5" font-family="Helvetica,sans-Serif" font-size="10.00">+ type</text>
<polyline fill="none" stroke="black" points="12,-135.5 101,-135.5 "/>
<text text-anchor="middle" x="56.5" y="-123.5" font-family="Helvetica,sans-Serif" font-size="10.00"> </text>
</a>
</g>
</g>
<!-- Node2&#45;&gt;Node1 -->
<g id="edge1" class="edge"><title>Node2&#45;&gt;Node1</title>
<path fill="none" stroke="midnightblue" d="M56.5,-106.156C56.5,-97.4733 56.5,-88.2318 56.5,-79.5205"/>
<polygon fill="none" stroke="midnightblue" points="53.0001,-106.398 56.5,-116.398 60.0001,-106.398 53.0001,-106.398"/>
</g>
<!-- Node3 -->
<g id="node3" class="node"><title>Node3</title>
<g id="a_node3"><a xlink:href="structfmt_1_1internal_1_1Value.html" target="_top" xlink:title="{fmt::internal::Value\n|+ int_value\l+ uint_value\l+ long_long_value\l+ ulong_long_value\l+ double_value\l+ long_double_value\l+ pointer\l+ string\l+ sstring\l+ ustring\l+ wstring\l+ custom\l+ @3\l|}">
<polygon fill="none" stroke="black" points="3.5,-210.5 3.5,-399.5 109.5,-399.5 109.5,-210.5 3.5,-210.5"/>
<text text-anchor="middle" x="56.5" y="-387.5" font-family="Helvetica,sans-Serif" font-size="10.00">fmt::internal::Value</text>
<polyline fill="none" stroke="black" points="3.5,-380.5 109.5,-380.5 "/>
<text text-anchor="start" x="11.5" y="-368.5" font-family="Helvetica,sans-Serif" font-size="10.00">+ int_value</text>
<text text-anchor="start" x="11.5" y="-357.5" font-family="Helvetica,sans-Serif" font-size="10.00">+ uint_value</text>
<text text-anchor="start" x="11.5" y="-346.5" font-family="Helvetica,sans-Serif" font-size="10.00">+ long_long_value</text>
<text text-anchor="start" x="11.5" y="-335.5" font-family="Helvetica,sans-Serif" font-size="10.00">+ ulong_long_value</text>
<text text-anchor="start" x="11.5" y="-324.5" font-family="Helvetica,sans-Serif" font-size="10.00">+ double_value</text>
<text text-anchor="start" x="11.5" y="-313.5" font-family="Helvetica,sans-Serif" font-size="10.00">+ long_double_value</text>
<text text-anchor="start" x="11.5" y="-302.5" font-family="Helvetica,sans-Serif" font-size="10.00">+ pointer</text>
<text text-anchor="start" x="11.5" y="-291.5" font-family="Helvetica,sans-Serif" font-size="10.00">+ string</text>
<text text-anchor="start" x="11.5" y="-280.5" font-family="Helvetica,sans-Serif" font-size="10.00">+ sstring</text>
<text text-anchor="start" x="11.5" y="-269.5" font-family="Helvetica,sans-Serif" font-size="10.00">+ ustring</text>
<text text-anchor="start" x="11.5" y="-258.5" font-family="Helvetica,sans-Serif" font-size="10.00">+ wstring</text>
<text text-anchor="start" x="11.5" y="-247.5" font-family="Helvetica,sans-Serif" font-size="10.00">+ custom</text>
<text text-anchor="start" x="11.5" y="-236.5" font-family="Helvetica,sans-Serif" font-size="10.00">+ @3</text>
<polyline fill="none" stroke="black" points="3.5,-229.5 109.5,-229.5 "/>
<text text-anchor="middle" x="56.5" y="-217.5" font-family="Helvetica,sans-Serif" font-size="10.00"> </text>
</a>
</g>
</g>
<!-- Node3&#45;&gt;Node2 -->
<g id="edge2" class="edge"><title>Node3&#45;&gt;Node2</title>
<path fill="none" stroke="midnightblue" d="M56.5,-200.128C56.5,-190.563 56.5,-181.539 56.5,-173.702"/>
<polygon fill="none" stroke="midnightblue" points="53.0001,-200.265 56.5,-210.265 60.0001,-200.265 53.0001,-200.265"/>
</g>
</g>
</svg>
