<?xml version="1.0" encoding="UTF-8" standalone="no"?>
<!DOCTYPE svg PUBLIC "-//W3C//DTD SVG 1.1//EN"
 "http://www.w3.org/Graphics/SVG/1.1/DTD/svg11.dtd">
<!-- Generated by graphviz version 2.36.0 (20140111.2315)
 -->
<!-- Title: spdlog::sinks::ansicolor_sink Pages: 1 -->
<svg width="330pt" height="662pt"
 viewBox="0.00 0.00 330.00 662.00" xmlns="http://www.w3.org/2000/svg" xmlns:xlink="http://www.w3.org/1999/xlink">
<g id="graph0" class="graph" transform="scale(1 1) rotate(0) translate(4 658)">
<title>spdlog::sinks::ansicolor_sink</title>
<!-- Node1 -->
<g id="node1" class="node"><title>Node1</title>
<polygon fill="#bfbfbf" stroke="black" points="62.5,-1 62.5,-267 205.5,-267 205.5,-1 62.5,-1"/>
<text text-anchor="middle" x="134" y="-255" font-family="Helvetica,sans-Serif" font-size="10.00">spdlog::sinks::ansicolor_sink</text>
<polyline fill="none" stroke="black" points="62.5,-248 205.5,-248 "/>
<text text-anchor="start" x="70.5" y="-236" font-family="Helvetica,sans-Serif" font-size="10.00">+ reset</text>
<text text-anchor="start" x="70.5" y="-225" font-family="Helvetica,sans-Serif" font-size="10.00">+ bold</text>
<text text-anchor="start" x="70.5" y="-214" font-family="Helvetica,sans-Serif" font-size="10.00">+ dark</text>
<text text-anchor="start" x="70.5" y="-203" font-family="Helvetica,sans-Serif" font-size="10.00">+ blink</text>
<text text-anchor="start" x="70.5" y="-192" font-family="Helvetica,sans-Serif" font-size="10.00">+ concealed</text>
<text text-anchor="start" x="70.5" y="-181" font-family="Helvetica,sans-Serif" font-size="10.00">+ magenta</text>
<text text-anchor="start" x="70.5" y="-170" font-family="Helvetica,sans-Serif" font-size="10.00">+ cyan</text>
<text text-anchor="start" x="70.5" y="-159" font-family="Helvetica,sans-Serif" font-size="10.00">+ white</text>
<text text-anchor="start" x="70.5" y="-148" font-family="Helvetica,sans-Serif" font-size="10.00">+ on_grey</text>
<text text-anchor="start" x="70.5" y="-137" font-family="Helvetica,sans-Serif" font-size="10.00">+ on_red</text>
<text text-anchor="start" x="70.5" y="-126" font-family="Helvetica,sans-Serif" font-size="10.00">+ on_green</text>
<text text-anchor="start" x="70.5" y="-115" font-family="Helvetica,sans-Serif" font-size="10.00">+ on_yellow</text>
<text text-anchor="start" x="70.5" y="-104" font-family="Helvetica,sans-Serif" font-size="10.00">+ on_blue</text>
<text text-anchor="start" x="70.5" y="-93" font-family="Helvetica,sans-Serif" font-size="10.00"># sink_</text>
<polyline fill="none" stroke="black" points="62.5,-86 205.5,-86 "/>
<text text-anchor="start" x="70.5" y="-74" font-family="Helvetica,sans-Serif" font-size="10.00">+ ansicolor_sink()</text>
<text text-anchor="start" x="70.5" y="-63" font-family="Helvetica,sans-Serif" font-size="10.00">+ ~ansicolor_sink()</text>
<text text-anchor="start" x="70.5" y="-52" font-family="Helvetica,sans-Serif" font-size="10.00">+ ansicolor_sink()</text>
<text text-anchor="start" x="70.5" y="-41" font-family="Helvetica,sans-Serif" font-size="10.00">+ operator=()</text>
<text text-anchor="start" x="70.5" y="-30" font-family="Helvetica,sans-Serif" font-size="10.00">+ log()</text>
<text text-anchor="start" x="70.5" y="-19" font-family="Helvetica,sans-Serif" font-size="10.00">+ flush()</text>
<text text-anchor="start" x="70.5" y="-8" font-family="Helvetica,sans-Serif" font-size="10.00">+ set_color()</text>
</g>
<!-- Node2 -->
<g id="node2" class="node"><title>Node2</title>
<g id="a_node2"><a xlink:href="classspdlog_1_1sinks_1_1sink.html" target="_top" xlink:title="{spdlog::sinks::sink\n||+ sink()\l+ ~sink()\l+ log()\l+ flush()\l+ should_log()\l+ set_level()\l+ level()\l}">
<polygon fill="none" stroke="black" points="0,-316.5 0,-439.5 98,-439.5 98,-316.5 0,-316.5"/>
<text text-anchor="middle" x="49" y="-427.5" font-family="Helvetica,sans-Serif" font-size="10.00">spdlog::sinks::sink</text>
<polyline fill="none" stroke="black" points="0,-420.5 98,-420.5 "/>
<text text-anchor="middle" x="49" y="-408.5" font-family="Helvetica,sans-Serif" font-size="10.00"> </text>
<polyline fill="none" stroke="black" points="0,-401.5 98,-401.5 "/>
<text text-anchor="start" x="8" y="-389.5" font-family="Helvetica,sans-Serif" font-size="10.00">+ sink()</text>
<text text-anchor="start" x="8" y="-378.5" font-family="Helvetica,sans-Serif" font-size="10.00">+ ~sink()</text>
<text text-anchor="start" x="8" y="-367.5" font-family="Helvetica,sans-Serif" font-size="10.00">+ log()</text>
<text text-anchor="start" x="8" y="-356.5" font-family="Helvetica,sans-Serif" font-size="10.00">+ flush()</text>
<text text-anchor="start" x="8" y="-345.5" font-family="Helvetica,sans-Serif" font-size="10.00">+ should_log()</text>
<text text-anchor="start" x="8" y="-334.5" font-family="Helvetica,sans-Serif" font-size="10.00">+ set_level()</text>
<text text-anchor="start" x="8" y="-323.5" font-family="Helvetica,sans-Serif" font-size="10.00">+ level()</text>
</a>
</g>
</g>
<!-- Node2&#45;&gt;Node1 -->
<g id="edge1" class="edge"><title>Node2&#45;&gt;Node1</title>
<path fill="none" stroke="midnightblue" d="M73.7748,-306.465C78.1456,-294.021 82.8211,-280.709 87.5625,-267.21"/>
<polygon fill="none" stroke="midnightblue" points="70.3511,-305.651 70.3394,-316.246 76.9556,-307.971 70.3511,-305.651"/>
</g>
<!-- Node3 -->
<g id="node3" class="node"><title>Node3</title>
<g id="a_node3"><a xlink:title="STL class. ">
<polygon fill="none" stroke="#bfbfbf" points="120,-488.5 120,-545.5 180,-545.5 180,-488.5 120,-488.5"/>
<text text-anchor="middle" x="150" y="-533.5" font-family="Helvetica,sans-Serif" font-size="10.00">std::string</text>
<polyline fill="none" stroke="#bfbfbf" points="120,-526.5 180,-526.5 "/>
<text text-anchor="middle" x="150" y="-514.5" font-family="Helvetica,sans-Serif" font-size="10.00"> </text>
<polyline fill="none" stroke="#bfbfbf" points="120,-507.5 180,-507.5 "/>
<text text-anchor="middle" x="150" y="-495.5" font-family="Helvetica,sans-Serif" font-size="10.00"> </text>
</a>
</g>
</g>
<!-- Node3&#45;&gt;Node1 -->
<g id="edge2" class="edge"><title>Node3&#45;&gt;Node1</title>
<path fill="none" stroke="#404040" d="M147.024,-488.237C145.589,-473.857 143.972,-456.003 143,-440 139.818,-387.621 137.751,-330.11 136.413,-279.283"/>
<polygon fill="none" stroke="#404040" points="136.41,-279.189 132.259,-273.293 136.105,-267.193 140.256,-273.089 136.41,-279.189"/>
<text text-anchor="middle" x="173" y="-430.5" font-family="Helvetica,sans-Serif" font-size="10.00"> +reverse</text>
<text text-anchor="middle" x="173" y="-419.5" font-family="Helvetica,sans-Serif" font-size="10.00">+on_cyan</text>
<text text-anchor="middle" x="173" y="-408.5" font-family="Helvetica,sans-Serif" font-size="10.00">+yellow</text>
<text text-anchor="middle" x="173" y="-397.5" font-family="Helvetica,sans-Serif" font-size="10.00">+red</text>
<text text-anchor="middle" x="173" y="-386.5" font-family="Helvetica,sans-Serif" font-size="10.00">+underline</text>
<text text-anchor="middle" x="173" y="-375.5" font-family="Helvetica,sans-Serif" font-size="10.00">+blue</text>
<text text-anchor="middle" x="173" y="-364.5" font-family="Helvetica,sans-Serif" font-size="10.00">+green</text>
<text text-anchor="middle" x="173" y="-353.5" font-family="Helvetica,sans-Serif" font-size="10.00">+grey</text>
<text text-anchor="middle" x="173" y="-342.5" font-family="Helvetica,sans-Serif" font-size="10.00">+on_magenta</text>
<text text-anchor="middle" x="173" y="-331.5" font-family="Helvetica,sans-Serif" font-size="10.00">+on_white</text>
<text text-anchor="middle" x="173" y="-320.5" font-family="Helvetica,sans-Serif" font-size="10.00">...</text>
</g>
<!-- Node5 -->
<g id="node5" class="node"><title>Node5</title>
<polygon fill="none" stroke="#bfbfbf" points="212,-344 212,-412 322,-412 322,-344 212,-344"/>
<text text-anchor="start" x="220" y="-400" font-family="Helvetica,sans-Serif" font-size="10.00">std::map&lt; level::level</text>
<text text-anchor="middle" x="267" y="-389" font-family="Helvetica,sans-Serif" font-size="10.00">_enum, std::string &gt;</text>
<polyline fill="none" stroke="#bfbfbf" points="212,-382 322,-382 "/>
<text text-anchor="start" x="220" y="-370" font-family="Helvetica,sans-Serif" font-size="10.00">+ keys</text>
<polyline fill="none" stroke="#bfbfbf" points="212,-363 322,-363 "/>
<text text-anchor="middle" x="267" y="-351" font-family="Helvetica,sans-Serif" font-size="10.00"> </text>
</g>
<!-- Node3&#45;&gt;Node5 -->
<g id="edge5" class="edge"><title>Node3&#45;&gt;Node5</title>
<path fill="none" stroke="#404040" d="M173.677,-488.276C189.963,-469.206 211.911,-443.506 230.43,-421.821"/>
<polygon fill="none" stroke="#404040" points="230.604,-421.617 231.459,-414.457 238.397,-412.492 237.542,-419.652 230.604,-421.617"/>
<text text-anchor="middle" x="222.5" y="-461.5" font-family="Helvetica,sans-Serif" font-size="10.00"> +elements</text>
</g>
<!-- Node4 -->
<g id="node4" class="node"><title>Node4</title>
<g id="a_node4"><a xlink:title="STL class. ">
<polygon fill="none" stroke="#bfbfbf" points="102.5,-585 102.5,-653 197.5,-653 197.5,-585 102.5,-585"/>
<text text-anchor="start" x="110.5" y="-641" font-family="Helvetica,sans-Serif" font-size="10.00">std::basic_string&lt;</text>
<text text-anchor="middle" x="150" y="-630" font-family="Helvetica,sans-Serif" font-size="10.00"> char &gt;</text>
<polyline fill="none" stroke="#bfbfbf" points="102.5,-623 197.5,-623 "/>
<text text-anchor="middle" x="150" y="-611" font-family="Helvetica,sans-Serif" font-size="10.00"> </text>
<polyline fill="none" stroke="#bfbfbf" points="102.5,-604 197.5,-604 "/>
<text text-anchor="middle" x="150" y="-592" font-family="Helvetica,sans-Serif" font-size="10.00"> </text>
</a>
</g>
</g>
<!-- Node4&#45;&gt;Node3 -->
<g id="edge3" class="edge"><title>Node4&#45;&gt;Node3</title>
<path fill="none" stroke="midnightblue" d="M150,-574.857C150,-564.952 150,-554.682 150,-545.64"/>
<polygon fill="none" stroke="midnightblue" points="146.5,-574.979 150,-584.979 153.5,-574.979 146.5,-574.979"/>
</g>
<!-- Node5&#45;&gt;Node1 -->
<g id="edge4" class="edge"><title>Node5&#45;&gt;Node1</title>
<path fill="none" stroke="#404040" d="M248.786,-343.858C238.687,-325.484 225.366,-301.245 211.385,-275.806"/>
<polygon fill="none" stroke="#404040" points="211.355,-275.751 204.96,-272.419 205.575,-265.234 211.97,-268.566 211.355,-275.751"/>
<text text-anchor="middle" x="240" y="-289.5" font-family="Helvetica,sans-Serif" font-size="10.00"> #colors_</text>
</g>
</g>
</svg>
