<?xml version="1.0" encoding="UTF-8" standalone="no"?>
<!DOCTYPE svg PUBLIC "-//W3C//DTD SVG 1.1//EN"
 "http://www.w3.org/Graphics/SVG/1.1/DTD/svg11.dtd">
<!-- Generated by graphviz version 2.36.0 (20140111.2315)
 -->
<!-- Title: XBot::FileLogger Pages: 1 -->
<svg width="96pt" height="194pt"
 viewBox="0.00 0.00 96.00 194.00" xmlns="http://www.w3.org/2000/svg" xmlns:xlink="http://www.w3.org/1999/xlink">
<g id="graph0" class="graph" transform="scale(1 1) rotate(0) translate(4 190)">
<title>XBot::FileLogger</title>
<!-- Node1 -->
<g id="node1" class="node"><title>Node1</title>
<polygon fill="#bfbfbf" stroke="black" points="-0.5,-0.5 -0.5,-57.5 88.5,-57.5 88.5,-0.5 -0.5,-0.5"/>
<text text-anchor="middle" x="44" y="-45.5" font-family="Helvetica,sans-Serif" font-size="10.00">XBot::FileLogger</text>
<polyline fill="none" stroke="black" points="-0.5,-38.5 88.5,-38.5 "/>
<text text-anchor="middle" x="44" y="-26.5" font-family="Helvetica,sans-Serif" font-size="10.00"> </text>
<polyline fill="none" stroke="black" points="-0.5,-19.5 88.5,-19.5 "/>
<text text-anchor="start" x="7.5" y="-7.5" font-family="Helvetica,sans-Serif" font-size="10.00">+ getLogger()</text>
</g>
<!-- Node2 -->
<g id="node2" class="node"><title>Node2</title>
<g id="a_node2"><a xlink:href="classXBot_1_1Logger.html" target="_top" xlink:title="{XBot::Logger\n|# _ss_logger\l|+ info()\l+ warning()\l+ error()\l+ endl()\l}">
<polygon fill="none" stroke="black" points="7,-95 7,-185 81,-185 81,-95 7,-95"/>
<text text-anchor="middle" x="44" y="-173" font-family="Helvetica,sans-Serif" font-size="10.00">XBot::Logger</text>
<polyline fill="none" stroke="black" points="7,-166 81,-166 "/>
<text text-anchor="start" x="15" y="-154" font-family="Helvetica,sans-Serif" font-size="10.00"># _ss_logger</text>
<polyline fill="none" stroke="black" points="7,-147 81,-147 "/>
<text text-anchor="start" x="15" y="-135" font-family="Helvetica,sans-Serif" font-size="10.00">+ info()</text>
<text text-anchor="start" x="15" y="-124" font-family="Helvetica,sans-Serif" font-size="10.00">+ warning()</text>
<text text-anchor="start" x="15" y="-113" font-family="Helvetica,sans-Serif" font-size="10.00">+ error()</text>
<text text-anchor="start" x="15" y="-102" font-family="Helvetica,sans-Serif" font-size="10.00">+ endl()</text>
</a>
</g>
</g>
<!-- Node2&#45;&gt;Node1 -->
<g id="edge1" class="edge"><title>Node2&#45;&gt;Node1</title>
<path fill="none" stroke="midnightblue" d="M44,-84.792C44,-75.3496 44,-65.8956 44,-57.5636"/>
<polygon fill="none" stroke="midnightblue" points="40.5001,-84.9797 44,-94.9797 47.5001,-84.9798 40.5001,-84.9797"/>
</g>
</g>
</svg>
