<?xml version="1.0" encoding="UTF-8" standalone="no"?>
<!DOCTYPE svg PUBLIC "-//W3C//DTD SVG 1.1//EN"
 "http://www.w3.org/Graphics/SVG/1.1/DTD/svg11.dtd">
<!-- Generated by graphviz version 2.38.0 (20140413.2041)
 -->
<!-- Title: fmt::internal::FormatterBase Pages: 1 -->
<svg width="536pt" height="270pt"
 viewBox="0.00 0.00 535.50 270.00" xmlns="http://www.w3.org/2000/svg" xmlns:xlink="http://www.w3.org/1999/xlink">
<g id="graph0" class="graph" transform="scale(1 1) rotate(0) translate(4 266)">
<title>fmt::internal::FormatterBase</title>
<!-- Node1 -->
<g id="node1" class="node"><title>Node1</title>
<polygon fill="#bfbfbf" stroke="black" points="180.5,-149.5 180.5,-261.5 319.5,-261.5 319.5,-149.5 180.5,-149.5"/>
<text text-anchor="middle" x="250" y="-249.5" font-family="Helvetica,sans-Serif" font-size="10.00">fmt::internal::FormatterBase</text>
<polyline fill="none" stroke="black" points="180.5,-242.5 319.5,-242.5 "/>
<text text-anchor="middle" x="250" y="-230.5" font-family="Helvetica,sans-Serif" font-size="10.00"> </text>
<polyline fill="none" stroke="black" points="180.5,-223.5 319.5,-223.5 "/>
<text text-anchor="start" x="188.5" y="-211.5" font-family="Helvetica,sans-Serif" font-size="10.00"># args()</text>
<text text-anchor="start" x="188.5" y="-200.5" font-family="Helvetica,sans-Serif" font-size="10.00"># FormatterBase()</text>
<text text-anchor="start" x="188.5" y="-189.5" font-family="Helvetica,sans-Serif" font-size="10.00"># next_arg()</text>
<text text-anchor="start" x="188.5" y="-178.5" font-family="Helvetica,sans-Serif" font-size="10.00"># get_arg()</text>
<text text-anchor="start" x="188.5" y="-167.5" font-family="Helvetica,sans-Serif" font-size="10.00"># check_no_auto_index()</text>
<text text-anchor="start" x="188.5" y="-156.5" font-family="Helvetica,sans-Serif" font-size="10.00"># write()</text>
</g>
<!-- Node2 -->
<g id="node2" class="node"><title>Node2</title>
<g id="a_node2"><a xlink:href="classfmt_1_1BasicFormatter.html" target="_top" xlink:title="{fmt::BasicFormatter\l\&lt; Char, ArgFormatter\l\&lt; Char \&gt; \&gt;\n||+ BasicFormatter()\l+ writer()\l+ format()\l+ format()\l}">
<polygon fill="none" stroke="black" points="0,-0.5 0,-112.5 110,-112.5 110,-0.5 0,-0.5"/>
<text text-anchor="start" x="8" y="-100.5" font-family="Helvetica,sans-Serif" font-size="10.00">fmt::BasicFormatter</text>
<text text-anchor="start" x="8" y="-89.5" font-family="Helvetica,sans-Serif" font-size="10.00">&lt; Char, ArgFormatter</text>
<text text-anchor="middle" x="55" y="-78.5" font-family="Helvetica,sans-Serif" font-size="10.00">&lt; Char &gt; &gt;</text>
<polyline fill="none" stroke="black" points="0,-71.5 110,-71.5 "/>
<text text-anchor="middle" x="55" y="-59.5" font-family="Helvetica,sans-Serif" font-size="10.00"> </text>
<polyline fill="none" stroke="black" points="0,-52.5 110,-52.5 "/>
<text text-anchor="start" x="8" y="-40.5" font-family="Helvetica,sans-Serif" font-size="10.00">+ BasicFormatter()</text>
<text text-anchor="start" x="8" y="-29.5" font-family="Helvetica,sans-Serif" font-size="10.00">+ writer()</text>
<text text-anchor="start" x="8" y="-18.5" font-family="Helvetica,sans-Serif" font-size="10.00">+ format()</text>
<text text-anchor="start" x="8" y="-7.5" font-family="Helvetica,sans-Serif" font-size="10.00">+ format()</text>
</a>
</g>
</g>
<!-- Node1&#45;&gt;Node2 -->
<g id="edge1" class="edge"><title>Node1&#45;&gt;Node2</title>
<path fill="none" stroke="#8b1a1a" d="M171.78,-151.863C154.164,-139.46 135.735,-126.043 119,-113 116.1,-110.74 113.156,-108.392 110.204,-105.995"/>
<polygon fill="none" stroke="#8b1a1a" points="170.153,-154.996 180.352,-157.865 174.168,-149.262 170.153,-154.996"/>
</g>
<!-- Node3 -->
<g id="node3" class="node"><title>Node3</title>
<g id="a_node3"><a xlink:href="classfmt_1_1BasicFormatter.html" target="_top" xlink:title="{fmt::BasicFormatter\l\&lt; Char, Impl \&gt;\n||+ BasicFormatter()\l+ writer()\l+ format()\l+ format()\l}">
<polygon fill="none" stroke="black" points="128,-6 128,-107 232,-107 232,-6 128,-6"/>
<text text-anchor="start" x="136" y="-95" font-family="Helvetica,sans-Serif" font-size="10.00">fmt::BasicFormatter</text>
<text text-anchor="middle" x="180" y="-84" font-family="Helvetica,sans-Serif" font-size="10.00">&lt; Char, Impl &gt;</text>
<polyline fill="none" stroke="black" points="128,-77 232,-77 "/>
<text text-anchor="middle" x="180" y="-65" font-family="Helvetica,sans-Serif" font-size="10.00"> </text>
<polyline fill="none" stroke="black" points="128,-58 232,-58 "/>
<text text-anchor="start" x="136" y="-46" font-family="Helvetica,sans-Serif" font-size="10.00">+ BasicFormatter()</text>
<text text-anchor="start" x="136" y="-35" font-family="Helvetica,sans-Serif" font-size="10.00">+ writer()</text>
<text text-anchor="start" x="136" y="-24" font-family="Helvetica,sans-Serif" font-size="10.00">+ format()</text>
<text text-anchor="start" x="136" y="-13" font-family="Helvetica,sans-Serif" font-size="10.00">+ format()</text>
</a>
</g>
</g>
<!-- Node1&#45;&gt;Node3 -->
<g id="edge2" class="edge"><title>Node1&#45;&gt;Node3</title>
<path fill="none" stroke="#8b1a1a" d="M219.355,-140.145C214.089,-129.088 208.69,-117.75 203.645,-107.154"/>
<polygon fill="none" stroke="#8b1a1a" points="216.276,-141.821 223.735,-149.344 222.596,-138.811 216.276,-141.821"/>
</g>
<!-- Node4 -->
<g id="node4" class="node"><title>Node4</title>
<g id="a_node4"><a xlink:href="classfmt_1_1BasicFormatter.html" target="_top" xlink:title="This template formats data and writes the output to a writer. ">
<polygon fill="none" stroke="black" points="250,-6 250,-107 390,-107 390,-6 250,-6"/>
<text text-anchor="start" x="258" y="-95" font-family="Helvetica,sans-Serif" font-size="10.00">fmt::BasicFormatter</text>
<text text-anchor="middle" x="320" y="-84" font-family="Helvetica,sans-Serif" font-size="10.00">&lt; CharType, ArgFormatter &gt;</text>
<polyline fill="none" stroke="black" points="250,-77 390,-77 "/>
<text text-anchor="middle" x="320" y="-65" font-family="Helvetica,sans-Serif" font-size="10.00"> </text>
<polyline fill="none" stroke="black" points="250,-58 390,-58 "/>
<text text-anchor="start" x="258" y="-46" font-family="Helvetica,sans-Serif" font-size="10.00">+ BasicFormatter()</text>
<text text-anchor="start" x="258" y="-35" font-family="Helvetica,sans-Serif" font-size="10.00">+ writer()</text>
<text text-anchor="start" x="258" y="-24" font-family="Helvetica,sans-Serif" font-size="10.00">+ format()</text>
<text text-anchor="start" x="258" y="-13" font-family="Helvetica,sans-Serif" font-size="10.00">+ format()</text>
</a>
</g>
</g>
<!-- Node1&#45;&gt;Node4 -->
<g id="edge3" class="edge"><title>Node1&#45;&gt;Node4</title>
<path fill="none" stroke="#8b1a1a" d="M280.645,-140.145C285.911,-129.088 291.31,-117.75 296.355,-107.154"/>
<polygon fill="none" stroke="#8b1a1a" points="277.404,-138.811 276.265,-149.344 283.724,-141.821 277.404,-138.811"/>
</g>
<!-- Node5 -->
<g id="node5" class="node"><title>Node5</title>
<g id="a_node5"><a xlink:href="classfmt_1_1PrintfFormatter.html" target="_top" xlink:title="This template formats data and writes the output to a writer. ">
<polygon fill="none" stroke="black" points="408.5,-17 408.5,-96 527.5,-96 527.5,-17 408.5,-17"/>
<text text-anchor="start" x="416.5" y="-84" font-family="Helvetica,sans-Serif" font-size="10.00">fmt::PrintfFormatter</text>
<text text-anchor="middle" x="468" y="-73" font-family="Helvetica,sans-Serif" font-size="10.00">&lt; Char, ArgFormatter &gt;</text>
<polyline fill="none" stroke="black" points="408.5,-66 527.5,-66 "/>
<text text-anchor="middle" x="468" y="-54" font-family="Helvetica,sans-Serif" font-size="10.00"> </text>
<polyline fill="none" stroke="black" points="408.5,-47 527.5,-47 "/>
<text text-anchor="start" x="416.5" y="-35" font-family="Helvetica,sans-Serif" font-size="10.00">+ PrintfFormatter()</text>
<text text-anchor="start" x="416.5" y="-24" font-family="Helvetica,sans-Serif" font-size="10.00">+ format()</text>
</a>
</g>
</g>
<!-- Node1&#45;&gt;Node5 -->
<g id="edge4" class="edge"><title>Node1&#45;&gt;Node5</title>
<path fill="none" stroke="#8b1a1a" d="M328.533,-158.833C351.624,-144.725 376.67,-128.742 399,-113 406.413,-107.774 414.075,-102.009 421.476,-96.2305"/>
<polygon fill="none" stroke="#8b1a1a" points="326.518,-155.962 319.788,-164.144 330.152,-161.945 326.518,-155.962"/>
</g>
</g>
</svg>
