<?xml version="1.0" encoding="UTF-8" standalone="no"?>
<!DOCTYPE svg PUBLIC "-//W3C//DTD SVG 1.1//EN"
 "http://www.w3.org/Graphics/SVG/1.1/DTD/svg11.dtd">
<!-- Generated by graphviz version 2.38.0 (20140413.2041)
 -->
<!-- Title: fmt::BasicFormatter&lt; CharType, ArgFormatter &gt; Pages: 1 -->
<svg width="148pt" height="259pt"
 viewBox="0.00 0.00 148.00 259.00" xmlns="http://www.w3.org/2000/svg" xmlns:xlink="http://www.w3.org/1999/xlink">
<g id="graph0" class="graph" transform="scale(1 1) rotate(0) translate(4 255)">
<title>fmt::BasicFormatter&lt; CharType, ArgFormatter &gt;</title>
<!-- Node1 -->
<g id="node1" class="node"><title>Node1</title>
<polygon fill="#bfbfbf" stroke="black" points="0,-0.5 0,-101.5 140,-101.5 140,-0.5 0,-0.5"/>
<text text-anchor="start" x="8" y="-89.5" font-family="Helvetica,sans-Serif" font-size="10.00">fmt::BasicFormatter</text>
<text text-anchor="middle" x="70" y="-78.5" font-family="Helvetica,sans-Serif" font-size="10.00">&lt; CharType, ArgFormatter &gt;</text>
<polyline fill="none" stroke="black" points="0,-71.5 140,-71.5 "/>
<text text-anchor="middle" x="70" y="-59.5" font-family="Helvetica,sans-Serif" font-size="10.00"> </text>
<polyline fill="none" stroke="black" points="0,-52.5 140,-52.5 "/>
<text text-anchor="start" x="8" y="-40.5" font-family="Helvetica,sans-Serif" font-size="10.00">+ BasicFormatter()</text>
<text text-anchor="start" x="8" y="-29.5" font-family="Helvetica,sans-Serif" font-size="10.00">+ writer()</text>
<text text-anchor="start" x="8" y="-18.5" font-family="Helvetica,sans-Serif" font-size="10.00">+ format()</text>
<text text-anchor="start" x="8" y="-7.5" font-family="Helvetica,sans-Serif" font-size="10.00">+ format()</text>
</g>
<!-- Node2 -->
<g id="node2" class="node"><title>Node2</title>
<g id="a_node2"><a xlink:href="classfmt_1_1internal_1_1FormatterBase.html" target="_top" xlink:title="{fmt::internal::FormatterBase\n||# args()\l# FormatterBase()\l# next_arg()\l# get_arg()\l# check_no_auto_index()\l# write()\l}">
<polygon fill="none" stroke="black" points="0.5,-138.5 0.5,-250.5 139.5,-250.5 139.5,-138.5 0.5,-138.5"/>
<text text-anchor="middle" x="70" y="-238.5" font-family="Helvetica,sans-Serif" font-size="10.00">fmt::internal::FormatterBase</text>
<polyline fill="none" stroke="black" points="0.5,-231.5 139.5,-231.5 "/>
<text text-anchor="middle" x="70" y="-219.5" font-family="Helvetica,sans-Serif" font-size="10.00"> </text>
<polyline fill="none" stroke="black" points="0.5,-212.5 139.5,-212.5 "/>
<text text-anchor="start" x="8.5" y="-200.5" font-family="Helvetica,sans-Serif" font-size="10.00"># args()</text>
<text text-anchor="start" x="8.5" y="-189.5" font-family="Helvetica,sans-Serif" font-size="10.00"># FormatterBase()</text>
<text text-anchor="start" x="8.5" y="-178.5" font-family="Helvetica,sans-Serif" font-size="10.00"># next_arg()</text>
<text text-anchor="start" x="8.5" y="-167.5" font-family="Helvetica,sans-Serif" font-size="10.00"># get_arg()</text>
<text text-anchor="start" x="8.5" y="-156.5" font-family="Helvetica,sans-Serif" font-size="10.00"># check_no_auto_index()</text>
<text text-anchor="start" x="8.5" y="-145.5" font-family="Helvetica,sans-Serif" font-size="10.00"># write()</text>
</a>
</g>
</g>
<!-- Node2&#45;&gt;Node1 -->
<g id="edge1" class="edge"><title>Node2&#45;&gt;Node1</title>
<path fill="none" stroke="#8b1a1a" d="M70,-128.344C70,-119.375 70,-110.286 70,-101.658"/>
<polygon fill="none" stroke="#8b1a1a" points="66.5001,-128.387 70,-138.387 73.5001,-128.387 66.5001,-128.387"/>
</g>
</g>
</svg>
