<?xml version="1.0" encoding="UTF-8" standalone="no"?>
<!DOCTYPE svg PUBLIC "-//W3C//DTD SVG 1.1//EN"
 "http://www.w3.org/Graphics/SVG/1.1/DTD/svg11.dtd">
<!-- Generated by graphviz version 2.36.0 (20140111.2315)
 -->
<!-- Title: XBot::KinematicChain Pages: 1 -->
<svg width="235pt" height="382pt"
 viewBox="0.00 0.00 235.00 382.00" xmlns="http://www.w3.org/2000/svg" xmlns:xlink="http://www.w3.org/1999/xlink">
<g id="graph0" class="graph" transform="scale(1 1) rotate(0) translate(4 378)">
<title>XBot::KinematicChain</title>
<!-- Node1 -->
<g id="node1" class="node"><title>Node1</title>
<polygon fill="#bfbfbf" stroke="black" points="43.5,-107 43.5,-373 174.5,-373 174.5,-107 43.5,-107"/>
<text text-anchor="middle" x="109" y="-361" font-family="Helvetica,sans-Serif" font-size="10.00">XBot::KinematicChain</text>
<polyline fill="none" stroke="black" points="43.5,-354 174.5,-354 "/>
<text text-anchor="start" x="51.5" y="-342" font-family="Helvetica,sans-Serif" font-size="10.00"># _joint_name_map</text>
<text text-anchor="start" x="51.5" y="-331" font-family="Helvetica,sans-Serif" font-size="10.00"># _joint_id_map</text>
<text text-anchor="start" x="51.5" y="-320" font-family="Helvetica,sans-Serif" font-size="10.00"># _joint_vector</text>
<text text-anchor="start" x="51.5" y="-309" font-family="Helvetica,sans-Serif" font-size="10.00"># _ft_vector</text>
<text text-anchor="start" x="51.5" y="-298" font-family="Helvetica,sans-Serif" font-size="10.00"># _ft_map</text>
<text text-anchor="start" x="51.5" y="-287" font-family="Helvetica,sans-Serif" font-size="10.00"># _imu_vector</text>
<text text-anchor="start" x="51.5" y="-276" font-family="Helvetica,sans-Serif" font-size="10.00"># _imu_map</text>
<polyline fill="none" stroke="black" points="43.5,-269 174.5,-269 "/>
<text text-anchor="start" x="51.5" y="-257" font-family="Helvetica,sans-Serif" font-size="10.00">+ KinematicChain()</text>
<text text-anchor="start" x="51.5" y="-246" font-family="Helvetica,sans-Serif" font-size="10.00">+ KinematicChain()</text>
<text text-anchor="start" x="51.5" y="-235" font-family="Helvetica,sans-Serif" font-size="10.00">+ KinematicChain()</text>
<text text-anchor="start" x="51.5" y="-224" font-family="Helvetica,sans-Serif" font-size="10.00">+ KinematicChain()</text>
<text text-anchor="start" x="51.5" y="-213" font-family="Helvetica,sans-Serif" font-size="10.00">+ operator=()</text>
<text text-anchor="start" x="51.5" y="-202" font-family="Helvetica,sans-Serif" font-size="10.00">+ getChainState()</text>
<text text-anchor="start" x="51.5" y="-191" font-family="Helvetica,sans-Serif" font-size="10.00">+ getChainState()</text>
<text text-anchor="start" x="51.5" y="-180" font-family="Helvetica,sans-Serif" font-size="10.00">+ getChainState()</text>
<text text-anchor="start" x="51.5" y="-169" font-family="Helvetica,sans-Serif" font-size="10.00">+ getForceTorque()</text>
<text text-anchor="start" x="51.5" y="-158" font-family="Helvetica,sans-Serif" font-size="10.00">+ getImu()</text>
<text text-anchor="start" x="51.5" y="-147" font-family="Helvetica,sans-Serif" font-size="10.00">and 141 more...</text>
<text text-anchor="start" x="51.5" y="-136" font-family="Helvetica,sans-Serif" font-size="10.00"># getJointInternal()</text>
<text text-anchor="start" x="51.5" y="-125" font-family="Helvetica,sans-Serif" font-size="10.00"># getForceTorqueInternal()</text>
<text text-anchor="start" x="51.5" y="-114" font-family="Helvetica,sans-Serif" font-size="10.00"># getImuInternal()</text>
</g>
<!-- Node2 -->
<g id="node2" class="node"><title>Node2</title>
<g id="a_node2"><a xlink:href="classXBot_1_1ModelChain.html" target="_top" xlink:title="Kinematic chain useful for a model abstraction. ">
<polygon fill="none" stroke="black" points="0,-6.5 0,-63.5 96,-63.5 96,-6.5 0,-6.5"/>
<text text-anchor="middle" x="48" y="-51.5" font-family="Helvetica,sans-Serif" font-size="10.00">XBot::ModelChain</text>
<polyline fill="none" stroke="black" points="0,-44.5 96,-44.5 "/>
<text text-anchor="middle" x="48" y="-32.5" font-family="Helvetica,sans-Serif" font-size="10.00"> </text>
<polyline fill="none" stroke="black" points="0,-25.5 96,-25.5 "/>
<text text-anchor="middle" x="48" y="-13.5" font-family="Helvetica,sans-Serif" font-size="10.00"> </text>
</a>
</g>
</g>
<!-- Node1&#45;&gt;Node2 -->
<g id="edge1" class="edge"><title>Node1&#45;&gt;Node2</title>
<path fill="none" stroke="midnightblue" d="M66.4146,-97.2814C62.6638,-84.7992 59.2039,-73.2852 56.32,-63.688"/>
<polygon fill="none" stroke="midnightblue" points="63.105,-98.4298 69.3348,-107 69.8089,-96.4153 63.105,-98.4298"/>
</g>
<!-- Node3 -->
<g id="node3" class="node"><title>Node3</title>
<g id="a_node3"><a xlink:href="classXBot_1_1RobotChain.html" target="_top" xlink:title="Kinematic chain useful for a robot abstraction. ">
<polygon fill="none" stroke="black" points="114.5,-1 114.5,-69 227.5,-69 227.5,-1 114.5,-1"/>
<text text-anchor="middle" x="171" y="-57" font-family="Helvetica,sans-Serif" font-size="10.00">XBot::RobotChain</text>
<polyline fill="none" stroke="black" points="114.5,-50 227.5,-50 "/>
<text text-anchor="middle" x="171" y="-38" font-family="Helvetica,sans-Serif" font-size="10.00"> </text>
<polyline fill="none" stroke="black" points="114.5,-31 227.5,-31 "/>
<text text-anchor="start" x="122.5" y="-19" font-family="Helvetica,sans-Serif" font-size="10.00">+ RobotChain()</text>
<text text-anchor="start" x="122.5" y="-8" font-family="Helvetica,sans-Serif" font-size="10.00">+ setReferenceFrom()</text>
</a>
</g>
</g>
<!-- Node1&#45;&gt;Node3 -->
<g id="edge2" class="edge"><title>Node1&#45;&gt;Node3</title>
<path fill="none" stroke="midnightblue" d="M152.324,-97.1476C155.406,-87.0579 158.293,-77.6037 160.834,-69.2869"/>
<polygon fill="none" stroke="midnightblue" points="148.889,-96.4133 149.315,-107 155.584,-98.458 148.889,-96.4133"/>
</g>
</g>
</svg>
