<?xml version="1.0" encoding="UTF-8" standalone="no"?>
<!DOCTYPE svg PUBLIC "-//W3C//DTD SVG 1.1//EN"
 "http://www.w3.org/Graphics/SVG/1.1/DTD/svg11.dtd">
<!-- Generated by graphviz version 2.36.0 (20140111.2315)
 -->
<!-- Title: XBot::Logger Pages: 1 -->
<svg width="225pt" height="194pt"
 viewBox="0.00 0.00 225.00 194.00" xmlns="http://www.w3.org/2000/svg" xmlns:xlink="http://www.w3.org/1999/xlink">
<g id="graph0" class="graph" transform="scale(1 1) rotate(0) translate(4 190)">
<title>XBot::Logger</title>
<!-- Node1 -->
<g id="node1" class="node"><title>Node1</title>
<polygon fill="#bfbfbf" stroke="black" points="77,-95 77,-185 151,-185 151,-95 77,-95"/>
<text text-anchor="middle" x="114" y="-173" font-family="Helvetica,sans-Serif" font-size="10.00">XBot::Logger</text>
<polyline fill="none" stroke="black" points="77,-166 151,-166 "/>
<text text-anchor="start" x="85" y="-154" font-family="Helvetica,sans-Serif" font-size="10.00"># _ss_logger</text>
<polyline fill="none" stroke="black" points="77,-147 151,-147 "/>
<text text-anchor="start" x="85" y="-135" font-family="Helvetica,sans-Serif" font-size="10.00">+ info()</text>
<text text-anchor="start" x="85" y="-124" font-family="Helvetica,sans-Serif" font-size="10.00">+ warning()</text>
<text text-anchor="start" x="85" y="-113" font-family="Helvetica,sans-Serif" font-size="10.00">+ error()</text>
<text text-anchor="start" x="85" y="-102" font-family="Helvetica,sans-Serif" font-size="10.00">+ endl()</text>
</g>
<!-- Node2 -->
<g id="node2" class="node"><title>Node2</title>
<g id="a_node2"><a xlink:href="classXBot_1_1ConsoleLogger.html" target="_top" xlink:title="{XBot::ConsoleLogger\n||+ getLogger()\l}">
<polygon fill="none" stroke="black" points="0,-0.5 0,-57.5 110,-57.5 110,-0.5 0,-0.5"/>
<text text-anchor="middle" x="55" y="-45.5" font-family="Helvetica,sans-Serif" font-size="10.00">XBot::ConsoleLogger</text>
<polyline fill="none" stroke="black" points="0,-38.5 110,-38.5 "/>
<text text-anchor="middle" x="55" y="-26.5" font-family="Helvetica,sans-Serif" font-size="10.00"> </text>
<polyline fill="none" stroke="black" points="0,-19.5 110,-19.5 "/>
<text text-anchor="start" x="8" y="-7.5" font-family="Helvetica,sans-Serif" font-size="10.00">+ getLogger()</text>
</a>
</g>
</g>
<!-- Node1&#45;&gt;Node2 -->
<g id="edge1" class="edge"><title>Node1&#45;&gt;Node2</title>
<path fill="none" stroke="midnightblue" d="M85.3104,-85.9972C79.9837,-76.1563 74.6216,-66.2501 69.9198,-57.5636"/>
<polygon fill="none" stroke="midnightblue" points="82.3342,-87.8515 90.1725,-94.9797 88.4902,-84.5193 82.3342,-87.8515"/>
</g>
<!-- Node3 -->
<g id="node3" class="node"><title>Node3</title>
<g id="a_node3"><a xlink:href="classXBot_1_1FileLogger.html" target="_top" xlink:title="{XBot::FileLogger\n||+ getLogger()\l}">
<polygon fill="none" stroke="black" points="128.5,-0.5 128.5,-57.5 217.5,-57.5 217.5,-0.5 128.5,-0.5"/>
<text text-anchor="middle" x="173" y="-45.5" font-family="Helvetica,sans-Serif" font-size="10.00">XBot::FileLogger</text>
<polyline fill="none" stroke="black" points="128.5,-38.5 217.5,-38.5 "/>
<text text-anchor="middle" x="173" y="-26.5" font-family="Helvetica,sans-Serif" font-size="10.00"> </text>
<polyline fill="none" stroke="black" points="128.5,-19.5 217.5,-19.5 "/>
<text text-anchor="start" x="136.5" y="-7.5" font-family="Helvetica,sans-Serif" font-size="10.00">+ getLogger()</text>
</a>
</g>
</g>
<!-- Node1&#45;&gt;Node3 -->
<g id="edge2" class="edge"><title>Node1&#45;&gt;Node3</title>
<path fill="none" stroke="midnightblue" d="M142.69,-85.9972C148.016,-76.1563 153.378,-66.2501 158.08,-57.5636"/>
<polygon fill="none" stroke="midnightblue" points="139.51,-84.5193 137.827,-94.9797 145.666,-87.8515 139.51,-84.5193"/>
</g>
</g>
</svg>
