<?xml version="1.0" encoding="UTF-8" standalone="no"?>
<!DOCTYPE svg PUBLIC "-//W3C//DTD SVG 1.1//EN"
 "http://www.w3.org/Graphics/SVG/1.1/DTD/svg11.dtd">
<!-- Generated by graphviz version 2.36.0 (20140111.2315)
 -->
<!-- Title: XBot::RobotChain Pages: 1 -->
<svg width="927pt" height="660pt"
 viewBox="0.00 0.00 927.00 660.00" xmlns="http://www.w3.org/2000/svg" xmlns:xlink="http://www.w3.org/1999/xlink">
<g id="graph0" class="graph" transform="scale(1 1) rotate(0) translate(4 656)">
<title>XBot::RobotChain</title>
<!-- Node1 -->
<g id="node1" class="node"><title>Node1</title>
<polygon fill="#bfbfbf" stroke="black" points="441.5,-1 441.5,-69 554.5,-69 554.5,-1 441.5,-1"/>
<text text-anchor="middle" x="498" y="-57" font-family="Helvetica,sans-Serif" font-size="10.00">XBot::RobotChain</text>
<polyline fill="none" stroke="black" points="441.5,-50 554.5,-50 "/>
<text text-anchor="middle" x="498" y="-38" font-family="Helvetica,sans-Serif" font-size="10.00"> </text>
<polyline fill="none" stroke="black" points="441.5,-31 554.5,-31 "/>
<text text-anchor="start" x="449.5" y="-19" font-family="Helvetica,sans-Serif" font-size="10.00">+ RobotChain()</text>
<text text-anchor="start" x="449.5" y="-8" font-family="Helvetica,sans-Serif" font-size="10.00">+ setReferenceFrom()</text>
</g>
<!-- Node2 -->
<g id="node2" class="node"><title>Node2</title>
<g id="a_node2"><a xlink:href="classXBot_1_1KinematicChain.html" target="_top" xlink:title="Kinematic chain abstraction as a set of joints and sensors. ">
<polygon fill="none" stroke="black" points="432.5,-109 432.5,-309 563.5,-309 563.5,-109 432.5,-109"/>
<text text-anchor="middle" x="498" y="-297" font-family="Helvetica,sans-Serif" font-size="10.00">XBot::KinematicChain</text>
<polyline fill="none" stroke="black" points="432.5,-290 563.5,-290 "/>
<text text-anchor="middle" x="498" y="-278" font-family="Helvetica,sans-Serif" font-size="10.00"> </text>
<polyline fill="none" stroke="black" points="432.5,-271 563.5,-271 "/>
<text text-anchor="start" x="440.5" y="-259" font-family="Helvetica,sans-Serif" font-size="10.00">+ KinematicChain()</text>
<text text-anchor="start" x="440.5" y="-248" font-family="Helvetica,sans-Serif" font-size="10.00">+ KinematicChain()</text>
<text text-anchor="start" x="440.5" y="-237" font-family="Helvetica,sans-Serif" font-size="10.00">+ KinematicChain()</text>
<text text-anchor="start" x="440.5" y="-226" font-family="Helvetica,sans-Serif" font-size="10.00">+ KinematicChain()</text>
<text text-anchor="start" x="440.5" y="-215" font-family="Helvetica,sans-Serif" font-size="10.00">+ operator=()</text>
<text text-anchor="start" x="440.5" y="-204" font-family="Helvetica,sans-Serif" font-size="10.00">+ getChainState()</text>
<text text-anchor="start" x="440.5" y="-193" font-family="Helvetica,sans-Serif" font-size="10.00">+ getChainState()</text>
<text text-anchor="start" x="440.5" y="-182" font-family="Helvetica,sans-Serif" font-size="10.00">+ getChainState()</text>
<text text-anchor="start" x="440.5" y="-171" font-family="Helvetica,sans-Serif" font-size="10.00">+ getForceTorque()</text>
<text text-anchor="start" x="440.5" y="-160" font-family="Helvetica,sans-Serif" font-size="10.00">+ getImu()</text>
<text text-anchor="start" x="440.5" y="-149" font-family="Helvetica,sans-Serif" font-size="10.00">and 141 more...</text>
<text text-anchor="start" x="440.5" y="-138" font-family="Helvetica,sans-Serif" font-size="10.00"># getJointInternal()</text>
<text text-anchor="start" x="440.5" y="-127" font-family="Helvetica,sans-Serif" font-size="10.00"># getForceTorqueInternal()</text>
<text text-anchor="start" x="440.5" y="-116" font-family="Helvetica,sans-Serif" font-size="10.00"># getImuInternal()</text>
</a>
</g>
</g>
<!-- Node2&#45;&gt;Node1 -->
<g id="edge1" class="edge"><title>Node2&#45;&gt;Node1</title>
<path fill="none" stroke="midnightblue" d="M498,-98.6367C498,-88.0264 498,-77.9294 498,-69.0615"/>
<polygon fill="none" stroke="midnightblue" points="494.5,-98.9435 498,-108.943 501.5,-98.9435 494.5,-98.9435"/>
</g>
<!-- Node3 -->
<g id="node3" class="node"><title>Node3</title>
<polygon fill="none" stroke="#bfbfbf" points="-0.5,-358.5 -0.5,-437.5 132.5,-437.5 132.5,-358.5 -0.5,-358.5"/>
<text text-anchor="start" x="7.5" y="-425.5" font-family="Helvetica,sans-Serif" font-size="10.00">std::map&lt; std::string,</text>
<text text-anchor="start" x="7.5" y="-414.5" font-family="Helvetica,sans-Serif" font-size="10.00"> XBot::ForceTorqueSensor</text>
<text text-anchor="middle" x="66" y="-403.5" font-family="Helvetica,sans-Serif" font-size="10.00">::Ptr &gt;</text>
<polyline fill="none" stroke="#bfbfbf" points="-0.5,-396.5 132.5,-396.5 "/>
<text text-anchor="start" x="7.5" y="-384.5" font-family="Helvetica,sans-Serif" font-size="10.00">+ elements</text>
<polyline fill="none" stroke="#bfbfbf" points="-0.5,-377.5 132.5,-377.5 "/>
<text text-anchor="middle" x="66" y="-365.5" font-family="Helvetica,sans-Serif" font-size="10.00"> </text>
</g>
<!-- Node3&#45;&gt;Node2 -->
<g id="edge2" class="edge"><title>Node3&#45;&gt;Node2</title>
<path fill="none" stroke="#404040" d="M132.579,-362.453C135.753,-360.926 138.905,-359.434 142,-358 236.823,-314.046 348.416,-268.65 421.045,-239.923"/>
<polygon fill="none" stroke="#404040" points="421.196,-239.864 425.309,-233.941 432.358,-235.459 428.245,-241.382 421.196,-239.864"/>
<text text-anchor="middle" x="222" y="-331.5" font-family="Helvetica,sans-Serif" font-size="10.00"> #_ft_map</text>
</g>
<!-- Node4 -->
<g id="node4" class="node"><title>Node4</title>
<g id="a_node4"><a xlink:title="STL class. ">
<polygon fill="none" stroke="#bfbfbf" points="182,-486.5 182,-543.5 242,-543.5 242,-486.5 182,-486.5"/>
<text text-anchor="middle" x="212" y="-531.5" font-family="Helvetica,sans-Serif" font-size="10.00">std::string</text>
<polyline fill="none" stroke="#bfbfbf" points="182,-524.5 242,-524.5 "/>
<text text-anchor="middle" x="212" y="-512.5" font-family="Helvetica,sans-Serif" font-size="10.00"> </text>
<polyline fill="none" stroke="#bfbfbf" points="182,-505.5 242,-505.5 "/>
<text text-anchor="middle" x="212" y="-493.5" font-family="Helvetica,sans-Serif" font-size="10.00"> </text>
</a>
</g>
</g>
<!-- Node4&#45;&gt;Node3 -->
<g id="edge3" class="edge"><title>Node4&#45;&gt;Node3</title>
<path fill="none" stroke="#404040" d="M181.749,-490.172C165.168,-477.112 144.044,-460.473 124.393,-444.994"/>
<polygon fill="none" stroke="#404040" points="124.317,-444.935 117.129,-444.364 114.89,-437.509 122.079,-438.08 124.317,-444.935"/>
<text text-anchor="middle" x="168.5" y="-459.5" font-family="Helvetica,sans-Serif" font-size="10.00"> +keys</text>
</g>
<!-- Node6 -->
<g id="node6" class="node"><title>Node6</title>
<polygon fill="none" stroke="#bfbfbf" points="151,-364 151,-432 273,-432 273,-364 151,-364"/>
<text text-anchor="start" x="159" y="-420" font-family="Helvetica,sans-Serif" font-size="10.00">std::map&lt; std::string,</text>
<text text-anchor="middle" x="212" y="-409" font-family="Helvetica,sans-Serif" font-size="10.00"> XBot::ImuSensor::Ptr &gt;</text>
<polyline fill="none" stroke="#bfbfbf" points="151,-402 273,-402 "/>
<text text-anchor="start" x="159" y="-390" font-family="Helvetica,sans-Serif" font-size="10.00">+ elements</text>
<polyline fill="none" stroke="#bfbfbf" points="151,-383 273,-383 "/>
<text text-anchor="middle" x="212" y="-371" font-family="Helvetica,sans-Serif" font-size="10.00"> </text>
</g>
<!-- Node4&#45;&gt;Node6 -->
<g id="edge6" class="edge"><title>Node4&#45;&gt;Node6</title>
<path fill="none" stroke="#404040" d="M212,-486.455C212,-473.812 212,-458.488 212,-444.222"/>
<polygon fill="none" stroke="#404040" points="212,-444.052 208,-438.052 212,-432.052 216,-438.052 212,-444.052"/>
<text text-anchor="middle" x="227.5" y="-459.5" font-family="Helvetica,sans-Serif" font-size="10.00"> +keys</text>
</g>
<!-- Node7 -->
<g id="node7" class="node"><title>Node7</title>
<polygon fill="none" stroke="#bfbfbf" points="291,-364 291,-432 415,-432 415,-364 291,-364"/>
<text text-anchor="start" x="299" y="-420" font-family="Helvetica,sans-Serif" font-size="10.00">std::map&lt; std::string,</text>
<text text-anchor="middle" x="353" y="-409" font-family="Helvetica,sans-Serif" font-size="10.00"> XBot::XBot::Joint::Ptr &gt;</text>
<polyline fill="none" stroke="#bfbfbf" points="291,-402 415,-402 "/>
<text text-anchor="start" x="299" y="-390" font-family="Helvetica,sans-Serif" font-size="10.00">+ elements</text>
<polyline fill="none" stroke="#bfbfbf" points="291,-383 415,-383 "/>
<text text-anchor="middle" x="353" y="-371" font-family="Helvetica,sans-Serif" font-size="10.00"> </text>
</g>
<!-- Node4&#45;&gt;Node7 -->
<g id="edge8" class="edge"><title>Node4&#45;&gt;Node7</title>
<path fill="none" stroke="#404040" d="M242.248,-489.33C259.922,-474.915 282.67,-456.361 302.948,-439.822"/>
<polygon fill="none" stroke="#404040" points="303.068,-439.725 305.189,-432.833 312.367,-432.14 310.246,-439.032 303.068,-439.725"/>
<text text-anchor="middle" x="298.5" y="-459.5" font-family="Helvetica,sans-Serif" font-size="10.00"> +keys</text>
</g>
<!-- Node5 -->
<g id="node5" class="node"><title>Node5</title>
<g id="a_node5"><a xlink:title="STL class. ">
<polygon fill="none" stroke="#bfbfbf" points="164.5,-583 164.5,-651 259.5,-651 259.5,-583 164.5,-583"/>
<text text-anchor="start" x="172.5" y="-639" font-family="Helvetica,sans-Serif" font-size="10.00">std::basic_string&lt;</text>
<text text-anchor="middle" x="212" y="-628" font-family="Helvetica,sans-Serif" font-size="10.00"> char &gt;</text>
<polyline fill="none" stroke="#bfbfbf" points="164.5,-621 259.5,-621 "/>
<text text-anchor="middle" x="212" y="-609" font-family="Helvetica,sans-Serif" font-size="10.00"> </text>
<polyline fill="none" stroke="#bfbfbf" points="164.5,-602 259.5,-602 "/>
<text text-anchor="middle" x="212" y="-590" font-family="Helvetica,sans-Serif" font-size="10.00"> </text>
</a>
</g>
</g>
<!-- Node5&#45;&gt;Node4 -->
<g id="edge4" class="edge"><title>Node5&#45;&gt;Node4</title>
<path fill="none" stroke="midnightblue" d="M212,-572.857C212,-562.952 212,-552.682 212,-543.64"/>
<polygon fill="none" stroke="midnightblue" points="208.5,-572.979 212,-582.979 215.5,-572.979 208.5,-572.979"/>
</g>
<!-- Node6&#45;&gt;Node2 -->
<g id="edge5" class="edge"><title>Node6&#45;&gt;Node2</title>
<path fill="none" stroke="#404040" d="M262.473,-363.999C306.73,-335.061 371.71,-292.574 422.212,-259.554"/>
<polygon fill="none" stroke="#404040" points="422.388,-259.438 425.221,-252.807 432.432,-252.871 429.599,-259.503 422.388,-259.438"/>
<text text-anchor="middle" x="340" y="-331.5" font-family="Helvetica,sans-Serif" font-size="10.00"> #_imu_map</text>
</g>
<!-- Node7&#45;&gt;Node2 -->
<g id="edge7" class="edge"><title>Node7&#45;&gt;Node2</title>
<path fill="none" stroke="#404040" d="M378.589,-363.999C391.691,-347.102 408.375,-325.585 425.089,-304.031"/>
<polygon fill="none" stroke="#404040" points="425.145,-303.957 425.661,-296.765 432.499,-294.474 431.983,-301.667 425.145,-303.957"/>
<text text-anchor="middle" x="447.5" y="-331.5" font-family="Helvetica,sans-Serif" font-size="10.00"> #_joint_name_map</text>
</g>
<!-- Node8 -->
<g id="node8" class="node"><title>Node8</title>
<polygon fill="none" stroke="#bfbfbf" points="433,-364 433,-432 563,-432 563,-364 433,-364"/>
<text text-anchor="start" x="441" y="-420" font-family="Helvetica,sans-Serif" font-size="10.00">std::vector&lt; XBot::</text>
<text text-anchor="middle" x="498" y="-409" font-family="Helvetica,sans-Serif" font-size="10.00">ForceTorqueSensor::Ptr &gt;</text>
<polyline fill="none" stroke="#bfbfbf" points="433,-402 563,-402 "/>
<text text-anchor="start" x="441" y="-390" font-family="Helvetica,sans-Serif" font-size="10.00">+ elements</text>
<polyline fill="none" stroke="#bfbfbf" points="433,-383 563,-383 "/>
<text text-anchor="middle" x="498" y="-371" font-family="Helvetica,sans-Serif" font-size="10.00"> </text>
</g>
<!-- Node8&#45;&gt;Node2 -->
<g id="edge9" class="edge"><title>Node8&#45;&gt;Node2</title>
<path fill="none" stroke="#404040" d="M498,-363.999C498,-351.754 498,-337.083 498,-321.73"/>
<polygon fill="none" stroke="#404040" points="498,-321.305 494,-315.305 498,-309.305 502,-315.305 498,-321.305"/>
<text text-anchor="middle" x="524" y="-331.5" font-family="Helvetica,sans-Serif" font-size="10.00"> #_ft_vector</text>
</g>
<!-- Node9 -->
<g id="node9" class="node"><title>Node9</title>
<polygon fill="none" stroke="#bfbfbf" points="581,-358.5 581,-437.5 683,-437.5 683,-358.5 581,-358.5"/>
<text text-anchor="start" x="589" y="-425.5" font-family="Helvetica,sans-Serif" font-size="10.00">std::map&lt; int, XBot</text>
<text text-anchor="middle" x="632" y="-414.5" font-family="Helvetica,sans-Serif" font-size="10.00">::XBot::Joint::Ptr &gt;</text>
<polyline fill="none" stroke="#bfbfbf" points="581,-407.5 683,-407.5 "/>
<text text-anchor="start" x="589" y="-395.5" font-family="Helvetica,sans-Serif" font-size="10.00">+ keys</text>
<text text-anchor="start" x="589" y="-384.5" font-family="Helvetica,sans-Serif" font-size="10.00">+ elements</text>
<polyline fill="none" stroke="#bfbfbf" points="581,-377.5 683,-377.5 "/>
<text text-anchor="middle" x="632" y="-365.5" font-family="Helvetica,sans-Serif" font-size="10.00"> </text>
</g>
<!-- Node9&#45;&gt;Node2 -->
<g id="edge10" class="edge"><title>Node9&#45;&gt;Node2</title>
<path fill="none" stroke="#404040" d="M604.235,-358.253C594.302,-344.392 582.593,-328.052 570.643,-311.375"/>
<polygon fill="none" stroke="#404040" points="570.58,-311.288 563.834,-308.74 563.591,-301.533 570.337,-304.081 570.58,-311.288"/>
<text text-anchor="middle" x="623.5" y="-331.5" font-family="Helvetica,sans-Serif" font-size="10.00"> #_joint_id_map</text>
</g>
<!-- Node10 -->
<g id="node10" class="node"><title>Node10</title>
<polygon fill="none" stroke="#bfbfbf" points="701,-364 701,-432 801,-432 801,-364 701,-364"/>
<text text-anchor="start" x="709" y="-420" font-family="Helvetica,sans-Serif" font-size="10.00">std::vector&lt; XBot::</text>
<text text-anchor="middle" x="751" y="-409" font-family="Helvetica,sans-Serif" font-size="10.00">ImuSensor::Ptr &gt;</text>
<polyline fill="none" stroke="#bfbfbf" points="701,-402 801,-402 "/>
<text text-anchor="start" x="709" y="-390" font-family="Helvetica,sans-Serif" font-size="10.00">+ elements</text>
<polyline fill="none" stroke="#bfbfbf" points="701,-383 801,-383 "/>
<text text-anchor="middle" x="751" y="-371" font-family="Helvetica,sans-Serif" font-size="10.00"> </text>
</g>
<!-- Node10&#45;&gt;Node2 -->
<g id="edge11" class="edge"><title>Node10&#45;&gt;Node2</title>
<path fill="none" stroke="#404040" d="M708.683,-363.697C693.99,-352.266 677.35,-339.467 662,-328 633.469,-306.686 601.772,-283.718 573.909,-263.76"/>
<polygon fill="none" stroke="#404040" points="573.591,-263.532 566.383,-263.296 563.83,-256.552 571.037,-256.789 573.591,-263.532"/>
<text text-anchor="middle" x="708" y="-331.5" font-family="Helvetica,sans-Serif" font-size="10.00"> #_imu_vector</text>
</g>
<!-- Node11 -->
<g id="node11" class="node"><title>Node11</title>
<polygon fill="none" stroke="#bfbfbf" points="819,-364 819,-432 919,-432 919,-364 819,-364"/>
<text text-anchor="start" x="827" y="-420" font-family="Helvetica,sans-Serif" font-size="10.00">std::vector&lt; XBot::</text>
<text text-anchor="middle" x="869" y="-409" font-family="Helvetica,sans-Serif" font-size="10.00">XBot::Joint::Ptr &gt;</text>
<polyline fill="none" stroke="#bfbfbf" points="819,-402 919,-402 "/>
<text text-anchor="start" x="827" y="-390" font-family="Helvetica,sans-Serif" font-size="10.00">+ elements</text>
<polyline fill="none" stroke="#bfbfbf" points="819,-383 919,-383 "/>
<text text-anchor="middle" x="869" y="-371" font-family="Helvetica,sans-Serif" font-size="10.00"> </text>
</g>
<!-- Node11&#45;&gt;Node2 -->
<g id="edge12" class="edge"><title>Node11&#45;&gt;Node2</title>
<path fill="none" stroke="#404040" d="M820.069,-363.91C816.693,-361.859 813.315,-359.87 810,-358 732.043,-314.035 638.907,-271.017 574.806,-242.792"/>
<polygon fill="none" stroke="#404040" points="574.573,-242.69 567.472,-243.944 563.583,-237.871 570.685,-236.617 574.573,-242.69"/>
<text text-anchor="middle" x="810" y="-331.5" font-family="Helvetica,sans-Serif" font-size="10.00"> #_joint_vector</text>
</g>
</g>
</svg>
