<?xml version="1.0" encoding="UTF-8" standalone="no"?>
<!DOCTYPE svg PUBLIC "-//W3C//DTD SVG 1.1//EN"
 "http://www.w3.org/Graphics/SVG/1.1/DTD/svg11.dtd">
<!-- Generated by graphviz version 2.36.0 (20140111.2315)
 -->
<!-- Title: fmt::internal::CharTraits&lt; wchar_t &gt; Pages: 1 -->
<svg width="126pt" height="216pt"
 viewBox="0.00 0.00 126.00 216.00" xmlns="http://www.w3.org/2000/svg" xmlns:xlink="http://www.w3.org/1999/xlink">
<g id="graph0" class="graph" transform="scale(1 1) rotate(0) translate(4 212)">
<title>fmt::internal::CharTraits&lt; wchar_t &gt;</title>
<!-- Node1 -->
<g id="node1" class="node"><title>Node1</title>
<polygon fill="#bfbfbf" stroke="black" points="-1,-0.5 -1,-101.5 119,-101.5 119,-0.5 -1,-0.5"/>
<text text-anchor="start" x="7" y="-89.5" font-family="Helvetica,sans-Serif" font-size="10.00">fmt::internal::CharTraits</text>
<text text-anchor="middle" x="59" y="-78.5" font-family="Helvetica,sans-Serif" font-size="10.00">&lt; wchar_t &gt;</text>
<polyline fill="none" stroke="black" points="-1,-71.5 119,-71.5 "/>
<text text-anchor="middle" x="59" y="-59.5" font-family="Helvetica,sans-Serif" font-size="10.00"> </text>
<polyline fill="none" stroke="black" points="-1,-52.5 119,-52.5 "/>
<text text-anchor="start" x="7" y="-40.5" font-family="Helvetica,sans-Serif" font-size="10.00">+ format_float()</text>
<text text-anchor="start" x="7" y="-29.5" font-family="Helvetica,sans-Serif" font-size="10.00">+ convert()</text>
<text text-anchor="start" x="7" y="-18.5" font-family="Helvetica,sans-Serif" font-size="10.00">+ convert()</text>
<text text-anchor="start" x="7" y="-7.5" font-family="Helvetica,sans-Serif" font-size="10.00">+ format_float()</text>
</g>
<!-- Node2 -->
<g id="node2" class="node"><title>Node2</title>
<g id="a_node2"><a xlink:href="classfmt_1_1internal_1_1BasicCharTraits.html" target="_top" xlink:title="{fmt::internal::BasicChar\lTraits\&lt; wchar_t \&gt;\n||+ cast()\l}">
<polygon fill="none" stroke="black" points="-1,-139 -1,-207 119,-207 119,-139 -1,-139"/>
<text text-anchor="start" x="7" y="-195" font-family="Helvetica,sans-Serif" font-size="10.00">fmt::internal::BasicChar</text>
<text text-anchor="middle" x="59" y="-184" font-family="Helvetica,sans-Serif" font-size="10.00">Traits&lt; wchar_t &gt;</text>
<polyline fill="none" stroke="black" points="-1,-177 119,-177 "/>
<text text-anchor="middle" x="59" y="-165" font-family="Helvetica,sans-Serif" font-size="10.00"> </text>
<polyline fill="none" stroke="black" points="-1,-158 119,-158 "/>
<text text-anchor="start" x="7" y="-146" font-family="Helvetica,sans-Serif" font-size="10.00">+ cast()</text>
</a>
</g>
</g>
<!-- Node2&#45;&gt;Node1 -->
<g id="edge1" class="edge"><title>Node2&#45;&gt;Node1</title>
<path fill="none" stroke="midnightblue" d="M59,-128.831C59,-120.01 59,-110.661 59,-101.636"/>
<polygon fill="none" stroke="midnightblue" points="55.5001,-128.892 59,-138.892 62.5001,-128.892 55.5001,-128.892"/>
</g>
</g>
</svg>
