<?xml version="1.0" encoding="UTF-8" standalone="no"?>
<!DOCTYPE svg PUBLIC "-//W3C//DTD SVG 1.1//EN"
 "http://www.w3.org/Graphics/SVG/1.1/DTD/svg11.dtd">
<!-- Generated by graphviz version 2.38.0 (20140413.2041)
 -->
<!-- Title: XBot::SPDConsoleLogger Pages: 1 -->
<svg width="144pt" height="599pt"
 viewBox="0.00 0.00 143.50 599.00" xmlns="http://www.w3.org/2000/svg" xmlns:xlink="http://www.w3.org/1999/xlink">
<g id="graph0" class="graph" transform="scale(1 1) rotate(0) translate(4 595)">
<title>XBot::SPDConsoleLogger</title>
<!-- Node1 -->
<g id="node1" class="node"><title>Node1</title>
<polygon fill="#bfbfbf" stroke="black" points="0,-0.5 0,-90.5 131,-90.5 131,-0.5 0,-0.5"/>
<text text-anchor="middle" x="65.5" y="-78.5" font-family="Helvetica,sans-Serif" font-size="10.00">XBot::SPDConsoleLogger</text>
<polyline fill="none" stroke="black" points="0,-71.5 131,-71.5 "/>
<text text-anchor="middle" x="65.5" y="-59.5" font-family="Helvetica,sans-Serif" font-size="10.00"> </text>
<polyline fill="none" stroke="black" points="0,-52.5 131,-52.5 "/>
<text text-anchor="start" x="8" y="-40.5" font-family="Helvetica,sans-Serif" font-size="10.00">+ SPDConsoleLogger()</text>
<text text-anchor="start" x="8" y="-29.5" font-family="Helvetica,sans-Serif" font-size="10.00"># info_internal()</text>
<text text-anchor="start" x="8" y="-18.5" font-family="Helvetica,sans-Serif" font-size="10.00"># warning_internal()</text>
<text text-anchor="start" x="8" y="-7.5" font-family="Helvetica,sans-Serif" font-size="10.00"># error_internal()</text>
</g>
<!-- Node2 -->
<g id="node2" class="node"><title>Node2</title>
<g id="a_node2"><a xlink:href="classXBot_1_1SSConsoleLogger.html" target="_top" xlink:title="{XBot::SSConsoleLogger\n||+ SSConsoleLogger()\l}">
<polygon fill="none" stroke="black" points="4,-128.5 4,-185.5 127,-185.5 127,-128.5 4,-128.5"/>
<text text-anchor="middle" x="65.5" y="-173.5" font-family="Helvetica,sans-Serif" font-size="10.00">XBot::SSConsoleLogger</text>
<polyline fill="none" stroke="black" points="4,-166.5 127,-166.5 "/>
<text text-anchor="middle" x="65.5" y="-154.5" font-family="Helvetica,sans-Serif" font-size="10.00"> </text>
<polyline fill="none" stroke="black" points="4,-147.5 127,-147.5 "/>
<text text-anchor="start" x="12" y="-135.5" font-family="Helvetica,sans-Serif" font-size="10.00">+ SSConsoleLogger()</text>
</a>
</g>
</g>
<!-- Node2&#45;&gt;Node1 -->
<g id="edge1" class="edge"><title>Node2&#45;&gt;Node1</title>
<path fill="none" stroke="midnightblue" d="M65.5,-118.312C65.5,-109.43 65.5,-99.8831 65.5,-90.7419"/>
<polygon fill="none" stroke="midnightblue" points="62.0001,-118.368 65.5,-128.369 69.0001,-118.369 62.0001,-118.368"/>
</g>
<!-- Node3 -->
<g id="node3" class="node"><title>Node3</title>
<g id="a_node3"><a xlink:href="classXBot_1_1SSLogger.html" target="_top" xlink:title="String Stream Logger. ">
<polygon fill="none" stroke="black" points="13.5,-223.5 13.5,-368.5 117.5,-368.5 117.5,-223.5 13.5,-223.5"/>
<text text-anchor="middle" x="65.5" y="-356.5" font-family="Helvetica,sans-Serif" font-size="10.00">XBot::SSLogger</text>
<polyline fill="none" stroke="black" points="13.5,-349.5 117.5,-349.5 "/>
<text text-anchor="start" x="21.5" y="-337.5" font-family="Helvetica,sans-Serif" font-size="10.00"># _log_file_size</text>
<text text-anchor="start" x="21.5" y="-326.5" font-family="Helvetica,sans-Serif" font-size="10.00"># _log_max_files</text>
<polyline fill="none" stroke="black" points="13.5,-319.5 117.5,-319.5 "/>
<text text-anchor="start" x="21.5" y="-307.5" font-family="Helvetica,sans-Serif" font-size="10.00">+ SSLogger()</text>
<text text-anchor="start" x="21.5" y="-296.5" font-family="Helvetica,sans-Serif" font-size="10.00">+ setSeverityLevel()</text>
<text text-anchor="start" x="21.5" y="-285.5" font-family="Helvetica,sans-Serif" font-size="10.00">+ setHeader()</text>
<text text-anchor="start" x="21.5" y="-274.5" font-family="Helvetica,sans-Serif" font-size="10.00">+ log()</text>
<text text-anchor="start" x="21.5" y="-263.5" font-family="Helvetica,sans-Serif" font-size="10.00">+ endl()</text>
<text text-anchor="start" x="21.5" y="-252.5" font-family="Helvetica,sans-Serif" font-size="10.00"># info_internal()</text>
<text text-anchor="start" x="21.5" y="-241.5" font-family="Helvetica,sans-Serif" font-size="10.00"># warning_internal()</text>
<text text-anchor="start" x="21.5" y="-230.5" font-family="Helvetica,sans-Serif" font-size="10.00"># error_internal()</text>
</a>
</g>
</g>
<!-- Node3&#45;&gt;Node2 -->
<g id="edge2" class="edge"><title>Node3&#45;&gt;Node2</title>
<path fill="none" stroke="midnightblue" d="M65.5,-213.042C65.5,-203.306 65.5,-193.948 65.5,-185.796"/>
<polygon fill="none" stroke="midnightblue" points="62.0001,-213.29 65.5,-223.29 69.0001,-213.29 62.0001,-213.29"/>
</g>
<!-- Node4 -->
<g id="node4" class="node"><title>Node4</title>
<g id="a_node4"><a xlink:title="STL class. ">
<polygon fill="none" stroke="#bfbfbf" points="35.5,-427.5 35.5,-484.5 95.5,-484.5 95.5,-427.5 35.5,-427.5"/>
<text text-anchor="middle" x="65.5" y="-472.5" font-family="Helvetica,sans-Serif" font-size="10.00">std::string</text>
<polyline fill="none" stroke="#bfbfbf" points="35.5,-465.5 95.5,-465.5 "/>
<text text-anchor="middle" x="65.5" y="-453.5" font-family="Helvetica,sans-Serif" font-size="10.00"> </text>
<polyline fill="none" stroke="#bfbfbf" points="35.5,-446.5 95.5,-446.5 "/>
<text text-anchor="middle" x="65.5" y="-434.5" font-family="Helvetica,sans-Serif" font-size="10.00"> </text>
</a>
</g>
</g>
<!-- Node4&#45;&gt;Node3 -->
<g id="edge3" class="edge"><title>Node4&#45;&gt;Node3</title>
<path fill="none" stroke="#404040" d="M65.5,-427.479C65.5,-414.317 65.5,-397.778 65.5,-380.939"/>
<polygon fill="none" stroke="#404040" points="65.5001,-380.668 61.5,-374.668 65.5,-368.668 69.5,-374.668 65.5001,-380.668"/>
<text text-anchor="middle" x="100.5" y="-401" font-family="Helvetica,sans-Serif" font-size="10.00"> #_logger_name</text>
<text text-anchor="middle" x="100.5" y="-390" font-family="Helvetica,sans-Serif" font-size="10.00">#_log_filename</text>
</g>
<!-- Node5 -->
<g id="node5" class="node"><title>Node5</title>
<g id="a_node5"><a xlink:title="STL class. ">
<polygon fill="none" stroke="#bfbfbf" points="18,-522.5 18,-590.5 113,-590.5 113,-522.5 18,-522.5"/>
<text text-anchor="start" x="26" y="-578.5" font-family="Helvetica,sans-Serif" font-size="10.00">std::basic_string&lt;</text>
<text text-anchor="middle" x="65.5" y="-567.5" font-family="Helvetica,sans-Serif" font-size="10.00"> char &gt;</text>
<polyline fill="none" stroke="#bfbfbf" points="18,-560.5 113,-560.5 "/>
<text text-anchor="middle" x="65.5" y="-548.5" font-family="Helvetica,sans-Serif" font-size="10.00"> </text>
<polyline fill="none" stroke="#bfbfbf" points="18,-541.5 113,-541.5 "/>
<text text-anchor="middle" x="65.5" y="-529.5" font-family="Helvetica,sans-Serif" font-size="10.00"> </text>
</a>
</g>
</g>
<!-- Node5&#45;&gt;Node4 -->
<g id="edge4" class="edge"><title>Node5&#45;&gt;Node4</title>
<path fill="none" stroke="midnightblue" d="M65.5,-512.375C65.5,-502.94 65.5,-493.201 65.5,-484.571"/>
<polygon fill="none" stroke="midnightblue" points="62.0001,-512.427 65.5,-522.427 69.0001,-512.427 62.0001,-512.427"/>
</g>
</g>
</svg>
