<?xml version="1.0" encoding="UTF-8" standalone="no"?>
<!DOCTYPE svg PUBLIC "-//W3C//DTD SVG 1.1//EN"
 "http://www.w3.org/Graphics/SVG/1.1/DTD/svg11.dtd">
<!-- Generated by graphviz version 2.36.0 (20140111.2315)
 -->
<!-- Title: spdlog::details::level_formatter Pages: 1 -->
<svg width="112pt" height="194pt"
 viewBox="0.00 0.00 112.00 194.00" xmlns="http://www.w3.org/2000/svg" xmlns:xlink="http://www.w3.org/1999/xlink">
<g id="graph0" class="graph" transform="scale(1 1) rotate(0) translate(4 190)">
<title>spdlog::details::level_formatter</title>
<!-- Node1 -->
<g id="node1" class="node"><title>Node1</title>
<polygon fill="#bfbfbf" stroke="black" points="-1,-1 -1,-69 105,-69 105,-1 -1,-1"/>
<text text-anchor="start" x="7" y="-57" font-family="Helvetica,sans-Serif" font-size="10.00">spdlog::details::level</text>
<text text-anchor="middle" x="52" y="-46" font-family="Helvetica,sans-Serif" font-size="10.00">_formatter</text>
<polyline fill="none" stroke="black" points="-1,-39 105,-39 "/>
<text text-anchor="middle" x="52" y="-27" font-family="Helvetica,sans-Serif" font-size="10.00"> </text>
<polyline fill="none" stroke="black" points="-1,-20 105,-20 "/>
<text text-anchor="middle" x="52" y="-8" font-family="Helvetica,sans-Serif" font-size="10.00"> </text>
</g>
<!-- Node2 -->
<g id="node2" class="node"><title>Node2</title>
<g id="a_node2"><a xlink:href="classspdlog_1_1details_1_1flag__formatter.html" target="_top" xlink:title="{spdlog::details::flag\l_formatter\n||+ ~flag_formatter()\l+ format()\l}">
<polygon fill="none" stroke="black" points="1.5,-106.5 1.5,-185.5 102.5,-185.5 102.5,-106.5 1.5,-106.5"/>
<text text-anchor="start" x="9.5" y="-173.5" font-family="Helvetica,sans-Serif" font-size="10.00">spdlog::details::flag</text>
<text text-anchor="middle" x="52" y="-162.5" font-family="Helvetica,sans-Serif" font-size="10.00">_formatter</text>
<polyline fill="none" stroke="black" points="1.5,-155.5 102.5,-155.5 "/>
<text text-anchor="middle" x="52" y="-143.5" font-family="Helvetica,sans-Serif" font-size="10.00"> </text>
<polyline fill="none" stroke="black" points="1.5,-136.5 102.5,-136.5 "/>
<text text-anchor="start" x="9.5" y="-124.5" font-family="Helvetica,sans-Serif" font-size="10.00">+ ~flag_formatter()</text>
<text text-anchor="start" x="9.5" y="-113.5" font-family="Helvetica,sans-Serif" font-size="10.00">+ format()</text>
</a>
</g>
</g>
<!-- Node2&#45;&gt;Node1 -->
<g id="edge1" class="edge"><title>Node2&#45;&gt;Node1</title>
<path fill="none" stroke="midnightblue" d="M52,-96.125C52,-87.0164 52,-77.6961 52,-69.1962"/>
<polygon fill="none" stroke="midnightblue" points="48.5001,-96.2637 52,-106.264 55.5001,-96.2638 48.5001,-96.2637"/>
</g>
</g>
</svg>
