<?xml version="1.0" encoding="UTF-8" standalone="no"?>
<!DOCTYPE svg PUBLIC "-//W3C//DTD SVG 1.1//EN"
 "http://www.w3.org/Graphics/SVG/1.1/DTD/svg11.dtd">
<!-- Generated by graphviz version 2.36.0 (20140111.2315)
 -->
<!-- Title: XBot::MatLogger Pages: 1 -->
<svg width="319pt" height="858pt"
 viewBox="0.00 0.00 319.09 858.00" xmlns="http://www.w3.org/2000/svg" xmlns:xlink="http://www.w3.org/1999/xlink">
<g id="graph0" class="graph" transform="scale(1 1) rotate(0) translate(4 854)">
<title>XBot::MatLogger</title>
<!-- Node1 -->
<g id="node1" class="node"><title>Node1</title>
<polygon fill="#bfbfbf" stroke="black" points="41.0884,-0.5 41.0884,-233.5 163.088,-233.5 163.088,-0.5 41.0884,-0.5"/>
<text text-anchor="middle" x="102.088" y="-221.5" font-family="Helvetica,sans-Serif" font-size="10.00">XBot::MatLogger</text>
<polyline fill="none" stroke="black" points="41.0884,-214.5 163.088,-214.5 "/>
<text text-anchor="middle" x="102.088" y="-202.5" font-family="Helvetica,sans-Serif" font-size="10.00"> </text>
<polyline fill="none" stroke="black" points="41.0884,-195.5 163.088,-195.5 "/>
<text text-anchor="start" x="49.0884" y="-183.5" font-family="Helvetica,sans-Serif" font-size="10.00">+ log()</text>
<text text-anchor="start" x="49.0884" y="-172.5" font-family="Helvetica,sans-Serif" font-size="10.00">+ log()</text>
<text text-anchor="start" x="49.0884" y="-161.5" font-family="Helvetica,sans-Serif" font-size="10.00">+ createScalarVariable()</text>
<text text-anchor="start" x="49.0884" y="-150.5" font-family="Helvetica,sans-Serif" font-size="10.00">+ createVectorVariable()</text>
<text text-anchor="start" x="49.0884" y="-139.5" font-family="Helvetica,sans-Serif" font-size="10.00">+ createMatrixVariable()</text>
<text text-anchor="start" x="49.0884" y="-128.5" font-family="Helvetica,sans-Serif" font-size="10.00">+ add()</text>
<text text-anchor="start" x="49.0884" y="-117.5" font-family="Helvetica,sans-Serif" font-size="10.00">+ add()</text>
<text text-anchor="start" x="49.0884" y="-106.5" font-family="Helvetica,sans-Serif" font-size="10.00">+ add()</text>
<text text-anchor="start" x="49.0884" y="-95.5" font-family="Helvetica,sans-Serif" font-size="10.00">+ add()</text>
<text text-anchor="start" x="49.0884" y="-84.5" font-family="Helvetica,sans-Serif" font-size="10.00">+ add()</text>
<text text-anchor="start" x="49.0884" y="-73.5" font-family="Helvetica,sans-Serif" font-size="10.00">+ add()</text>
<text text-anchor="start" x="49.0884" y="-62.5" font-family="Helvetica,sans-Serif" font-size="10.00">+ add()</text>
<text text-anchor="start" x="49.0884" y="-51.5" font-family="Helvetica,sans-Serif" font-size="10.00">+ add()</text>
<text text-anchor="start" x="49.0884" y="-40.5" font-family="Helvetica,sans-Serif" font-size="10.00">+ flush()</text>
<text text-anchor="start" x="49.0884" y="-29.5" font-family="Helvetica,sans-Serif" font-size="10.00">+ ~MatLogger()</text>
<text text-anchor="start" x="49.0884" y="-18.5" font-family="Helvetica,sans-Serif" font-size="10.00">+ getLogger()</text>
<text text-anchor="start" x="49.0884" y="-7.5" font-family="Helvetica,sans-Serif" font-size="10.00"># MatLogger()</text>
</g>
<!-- Node2 -->
<g id="node2" class="node"><title>Node2</title>
<polygon fill="none" stroke="#bfbfbf" points="34.5884,-282.5 34.5884,-361.5 169.588,-361.5 169.588,-282.5 34.5884,-282.5"/>
<text text-anchor="start" x="42.5884" y="-349.5" font-family="Helvetica,sans-Serif" font-size="10.00">std::unordered_map</text>
<text text-anchor="start" x="42.5884" y="-338.5" font-family="Helvetica,sans-Serif" font-size="10.00">&lt; std::string, XBot</text>
<text text-anchor="middle" x="102.088" y="-327.5" font-family="Helvetica,sans-Serif" font-size="10.00">::MatLogger::VariableInfo &gt;</text>
<polyline fill="none" stroke="#bfbfbf" points="34.5884,-320.5 169.588,-320.5 "/>
<text text-anchor="middle" x="102.088" y="-308.5" font-family="Helvetica,sans-Serif" font-size="10.00"> </text>
<polyline fill="none" stroke="#bfbfbf" points="34.5884,-301.5 169.588,-301.5 "/>
<text text-anchor="middle" x="102.088" y="-289.5" font-family="Helvetica,sans-Serif" font-size="10.00"> </text>
</g>
<!-- Node2&#45;&gt;Node1 -->
<g id="edge1" class="edge"><title>Node2&#45;&gt;Node1</title>
<path fill="none" stroke="#404040" d="M102.088,-282.339C102.088,-271.418 102.088,-258.897 102.088,-245.744"/>
<polygon fill="none" stroke="#404040" points="102.088,-245.515 98.0884,-239.515 102.088,-233.515 106.088,-239.515 102.088,-245.515"/>
<text text-anchor="middle" x="137.088" y="-255.5" font-family="Helvetica,sans-Serif" font-size="10.00"> #_var_idx_map</text>
</g>
<!-- Node3 -->
<g id="node3" class="node"><title>Node3</title>
<g id="a_node3"><a xlink:href="structXBot_1_1MatLogger_1_1VariableInfo.html" target="_top" xlink:title="{XBot::MatLogger::VariableInfo\n|+ interleave\l+ count\l+ type\l+ data\l+ rows\l+ cols\l+ buffer_capacity\l+ head\l+ tail\l+ empty\l|+ rearrange()\l}">
<polygon fill="none" stroke="black" points="101.088,-479 101.088,-635 249.088,-635 249.088,-479 101.088,-479"/>
<text text-anchor="middle" x="175.088" y="-623" font-family="Helvetica,sans-Serif" font-size="10.00">XBot::MatLogger::VariableInfo</text>
<polyline fill="none" stroke="black" points="101.088,-616 249.088,-616 "/>
<text text-anchor="start" x="109.088" y="-604" font-family="Helvetica,sans-Serif" font-size="10.00">+ interleave</text>
<text text-anchor="start" x="109.088" y="-593" font-family="Helvetica,sans-Serif" font-size="10.00">+ count</text>
<text text-anchor="start" x="109.088" y="-582" font-family="Helvetica,sans-Serif" font-size="10.00">+ type</text>
<text text-anchor="start" x="109.088" y="-571" font-family="Helvetica,sans-Serif" font-size="10.00">+ data</text>
<text text-anchor="start" x="109.088" y="-560" font-family="Helvetica,sans-Serif" font-size="10.00">+ rows</text>
<text text-anchor="start" x="109.088" y="-549" font-family="Helvetica,sans-Serif" font-size="10.00">+ cols</text>
<text text-anchor="start" x="109.088" y="-538" font-family="Helvetica,sans-Serif" font-size="10.00">+ buffer_capacity</text>
<text text-anchor="start" x="109.088" y="-527" font-family="Helvetica,sans-Serif" font-size="10.00">+ head</text>
<text text-anchor="start" x="109.088" y="-516" font-family="Helvetica,sans-Serif" font-size="10.00">+ tail</text>
<text text-anchor="start" x="109.088" y="-505" font-family="Helvetica,sans-Serif" font-size="10.00">+ empty</text>
<polyline fill="none" stroke="black" points="101.088,-498 249.088,-498 "/>
<text text-anchor="start" x="109.088" y="-486" font-family="Helvetica,sans-Serif" font-size="10.00">+ rearrange()</text>
</a>
</g>
</g>
<!-- Node3&#45;&gt;Node2 -->
<g id="edge2" class="edge"><title>Node3&#45;&gt;Node2</title>
<path fill="none" stroke="#404040" d="M150.882,-478.738C140,-444.005 127.467,-404.004 117.828,-373.239"/>
<polygon fill="none" stroke="#404040" points="117.741,-372.961 112.13,-368.431 114.154,-361.509 119.764,-366.039 117.741,-372.961"/>
<text text-anchor="middle" x="167.588" y="-417.5" font-family="Helvetica,sans-Serif" font-size="10.00"> +elements</text>
</g>
<!-- Node4 -->
<g id="node4" class="node"><title>Node4</title>
<g id="a_node4"><a xlink:title="STL class. ">
<polygon fill="none" stroke="#bfbfbf" points="61.0884,-684.5 61.0884,-741.5 121.088,-741.5 121.088,-684.5 61.0884,-684.5"/>
<text text-anchor="middle" x="91.0884" y="-729.5" font-family="Helvetica,sans-Serif" font-size="10.00">std::string</text>
<polyline fill="none" stroke="#bfbfbf" points="61.0884,-722.5 121.088,-722.5 "/>
<text text-anchor="middle" x="91.0884" y="-710.5" font-family="Helvetica,sans-Serif" font-size="10.00"> </text>
<polyline fill="none" stroke="#bfbfbf" points="61.0884,-703.5 121.088,-703.5 "/>
<text text-anchor="middle" x="91.0884" y="-691.5" font-family="Helvetica,sans-Serif" font-size="10.00"> </text>
</a>
</g>
</g>
<!-- Node4&#45;&gt;Node1 -->
<g id="edge8" class="edge"><title>Node4&#45;&gt;Node1</title>
<path fill="none" stroke="#404040" d="M72.5977,-684.185C68.9438,-678.28 65.2616,-672.011 62.0884,-666 55.3047,-653.149 53.7919,-649.749 49.0884,-636 11.6965,-526.697 -8.08198,-494.879 4.08838,-380 8.78116,-335.704 10.8638,-324.212 25.0884,-282 29.2027,-269.791 33.9717,-257.29 39.0805,-244.903"/>
<polygon fill="none" stroke="#404040" points="39.1962,-244.629 37.8418,-237.546 43.8588,-233.572 45.2132,-240.654 39.1962,-244.629"/>
<text text-anchor="middle" x="32.0884" y="-417.5" font-family="Helvetica,sans-Serif" font-size="10.00"> #_file_name</text>
</g>
<!-- Node4&#45;&gt;Node2 -->
<g id="edge5" class="edge"><title>Node4&#45;&gt;Node2</title>
<path fill="none" stroke="#404040" d="M77.2193,-684.247C70.9471,-670.171 64.2429,-652.583 61.0884,-636 47.9656,-567.015 52.0341,-547.636 61.0884,-478 65.7095,-442.459 76.0542,-403.458 85.1958,-373.469"/>
<polygon fill="none" stroke="#404040" points="85.318,-373.077 83.2839,-366.158 88.8877,-361.62 90.9218,-368.538 85.318,-373.077"/>
<text text-anchor="middle" x="76.5884" y="-554.5" font-family="Helvetica,sans-Serif" font-size="10.00"> +keys</text>
</g>
<!-- Node4&#45;&gt;Node3 -->
<g id="edge3" class="edge"><title>Node4&#45;&gt;Node3</title>
<path fill="none" stroke="#404040" d="M106.106,-684.468C112.16,-673.368 119.512,-659.89 127.13,-645.923"/>
<polygon fill="none" stroke="#404040" points="127.245,-645.713 126.607,-638.53 132.991,-635.178 133.63,-642.361 127.245,-645.713"/>
<text text-anchor="middle" x="138.088" y="-657.5" font-family="Helvetica,sans-Serif" font-size="10.00"> +name</text>
</g>
<!-- Node6 -->
<g id="node6" class="node"><title>Node6</title>
<polygon fill="none" stroke="#bfbfbf" points="203.588,-380.5 203.588,-459.5 306.588,-459.5 306.588,-380.5 203.588,-380.5"/>
<text text-anchor="start" x="211.588" y="-447.5" font-family="Helvetica,sans-Serif" font-size="10.00">std::unordered_map</text>
<text text-anchor="start" x="211.588" y="-436.5" font-family="Helvetica,sans-Serif" font-size="10.00">&lt; std::string, Eigen</text>
<text text-anchor="middle" x="255.088" y="-425.5" font-family="Helvetica,sans-Serif" font-size="10.00">::MatrixXd &gt;</text>
<polyline fill="none" stroke="#bfbfbf" points="203.588,-418.5 306.588,-418.5 "/>
<text text-anchor="start" x="211.588" y="-406.5" font-family="Helvetica,sans-Serif" font-size="10.00">+ elements</text>
<polyline fill="none" stroke="#bfbfbf" points="203.588,-399.5 306.588,-399.5 "/>
<text text-anchor="middle" x="255.088" y="-387.5" font-family="Helvetica,sans-Serif" font-size="10.00"> </text>
</g>
<!-- Node4&#45;&gt;Node6 -->
<g id="edge7" class="edge"><title>Node4&#45;&gt;Node6</title>
<path fill="none" stroke="#404040" d="M121.268,-708.126C160.575,-701.283 227.833,-683.01 258.088,-636 289.523,-587.157 281.638,-518.263 270.617,-471.735"/>
<polygon fill="none" stroke="#404040" points="270.549,-471.463 265.202,-466.624 267.613,-459.828 272.959,-464.667 270.549,-471.463"/>
<text text-anchor="middle" x="258.588" y="-657.5" font-family="Helvetica,sans-Serif" font-size="10.00"> +keys</text>
</g>
<!-- Node5 -->
<g id="node5" class="node"><title>Node5</title>
<g id="a_node5"><a xlink:title="STL class. ">
<polygon fill="none" stroke="#bfbfbf" points="43.5884,-781 43.5884,-849 138.588,-849 138.588,-781 43.5884,-781"/>
<text text-anchor="start" x="51.5884" y="-837" font-family="Helvetica,sans-Serif" font-size="10.00">std::basic_string&lt;</text>
<text text-anchor="middle" x="91.0884" y="-826" font-family="Helvetica,sans-Serif" font-size="10.00"> char &gt;</text>
<polyline fill="none" stroke="#bfbfbf" points="43.5884,-819 138.588,-819 "/>
<text text-anchor="middle" x="91.0884" y="-807" font-family="Helvetica,sans-Serif" font-size="10.00"> </text>
<polyline fill="none" stroke="#bfbfbf" points="43.5884,-800 138.588,-800 "/>
<text text-anchor="middle" x="91.0884" y="-788" font-family="Helvetica,sans-Serif" font-size="10.00"> </text>
</a>
</g>
</g>
<!-- Node5&#45;&gt;Node4 -->
<g id="edge4" class="edge"><title>Node5&#45;&gt;Node4</title>
<path fill="none" stroke="midnightblue" d="M91.0884,-770.857C91.0884,-760.952 91.0884,-750.682 91.0884,-741.64"/>
<polygon fill="none" stroke="midnightblue" points="87.5885,-770.979 91.0884,-780.979 94.5885,-770.979 87.5885,-770.979"/>
</g>
<!-- Node6&#45;&gt;Node1 -->
<g id="edge6" class="edge"><title>Node6&#45;&gt;Node1</title>
<path fill="none" stroke="#404040" d="M237.568,-380.194C221.991,-346.132 198.307,-295.394 176.088,-252 173.772,-247.476 171.389,-242.88 168.961,-238.248"/>
<polygon fill="none" stroke="#404040" points="168.832,-238.003 162.493,-234.566 163.229,-227.392 169.568,-230.83 168.832,-238.003"/>
<text text-anchor="middle" x="270.088" y="-319.5" font-family="Helvetica,sans-Serif" font-size="10.00"> #_single_var_map</text>
</g>
</g>
</svg>
