<?xml version="1.0" encoding="UTF-8" standalone="no"?>
<!DOCTYPE svg PUBLIC "-//W3C//DTD SVG 1.1//EN"
 "http://www.w3.org/Graphics/SVG/1.1/DTD/svg11.dtd">
<!-- Generated by graphviz version 2.38.0 (20140413.2041)
 -->
<!-- Title: spdlog::async_logger Pages: 1 -->
<svg width="220pt" height="647pt"
 viewBox="0.00 0.00 219.50 647.00" xmlns="http://www.w3.org/2000/svg" xmlns:xlink="http://www.w3.org/1999/xlink">
<g id="graph0" class="graph" transform="scale(1 1) rotate(0) translate(4 643)">
<title>spdlog::async_logger</title>
<!-- Node1 -->
<g id="node1" class="node"><title>Node1</title>
<polygon fill="#bfbfbf" stroke="black" points="44.5,-0.5 44.5,-123.5 153.5,-123.5 153.5,-0.5 44.5,-0.5"/>
<text text-anchor="middle" x="99" y="-111.5" font-family="Helvetica,sans-Serif" font-size="10.00">spdlog::async_logger</text>
<polyline fill="none" stroke="black" points="44.5,-104.5 153.5,-104.5 "/>
<text text-anchor="middle" x="99" y="-92.5" font-family="Helvetica,sans-Serif" font-size="10.00"> </text>
<polyline fill="none" stroke="black" points="44.5,-85.5 153.5,-85.5 "/>
<text text-anchor="start" x="52.5" y="-73.5" font-family="Helvetica,sans-Serif" font-size="10.00">+ async_logger()</text>
<text text-anchor="start" x="52.5" y="-62.5" font-family="Helvetica,sans-Serif" font-size="10.00">+ async_logger()</text>
<text text-anchor="start" x="52.5" y="-51.5" font-family="Helvetica,sans-Serif" font-size="10.00">+ async_logger()</text>
<text text-anchor="start" x="52.5" y="-40.5" font-family="Helvetica,sans-Serif" font-size="10.00">+ flush()</text>
<text text-anchor="start" x="52.5" y="-29.5" font-family="Helvetica,sans-Serif" font-size="10.00"># _sink_it()</text>
<text text-anchor="start" x="52.5" y="-18.5" font-family="Helvetica,sans-Serif" font-size="10.00"># _set_formatter()</text>
<text text-anchor="start" x="52.5" y="-7.5" font-family="Helvetica,sans-Serif" font-size="10.00"># _set_pattern()</text>
</g>
<!-- Node2 -->
<g id="node2" class="node"><title>Node2</title>
<g id="a_node2"><a xlink:href="classspdlog_1_1logger.html" target="_top" xlink:title="{spdlog::logger\n|# _formatter\l# _level\l# _flush_level\l# _err_handler\l# _last_err_time\l|+ logger()\l+ logger()\l+ logger()\l+ ~logger()\l+ logger()\l+ operator=()\l+ log()\l+ log()\l+ trace()\l+ debug()\land 22 more...\l# _sink_it()\l# _set_pattern()\l# _set_formatter()\l# _default_err_handler()\l# _should_flush_on()\l}">
<polygon fill="none" stroke="black" points="39.5,-161.5 39.5,-427.5 158.5,-427.5 158.5,-161.5 39.5,-161.5"/>
<text text-anchor="middle" x="99" y="-415.5" font-family="Helvetica,sans-Serif" font-size="10.00">spdlog::logger</text>
<polyline fill="none" stroke="black" points="39.5,-408.5 158.5,-408.5 "/>
<text text-anchor="start" x="47.5" y="-396.5" font-family="Helvetica,sans-Serif" font-size="10.00"># _formatter</text>
<text text-anchor="start" x="47.5" y="-385.5" font-family="Helvetica,sans-Serif" font-size="10.00"># _level</text>
<text text-anchor="start" x="47.5" y="-374.5" font-family="Helvetica,sans-Serif" font-size="10.00"># _flush_level</text>
<text text-anchor="start" x="47.5" y="-363.5" font-family="Helvetica,sans-Serif" font-size="10.00"># _err_handler</text>
<text text-anchor="start" x="47.5" y="-352.5" font-family="Helvetica,sans-Serif" font-size="10.00"># _last_err_time</text>
<polyline fill="none" stroke="black" points="39.5,-345.5 158.5,-345.5 "/>
<text text-anchor="start" x="47.5" y="-333.5" font-family="Helvetica,sans-Serif" font-size="10.00">+ logger()</text>
<text text-anchor="start" x="47.5" y="-322.5" font-family="Helvetica,sans-Serif" font-size="10.00">+ logger()</text>
<text text-anchor="start" x="47.5" y="-311.5" font-family="Helvetica,sans-Serif" font-size="10.00">+ logger()</text>
<text text-anchor="start" x="47.5" y="-300.5" font-family="Helvetica,sans-Serif" font-size="10.00">+ ~logger()</text>
<text text-anchor="start" x="47.5" y="-289.5" font-family="Helvetica,sans-Serif" font-size="10.00">+ logger()</text>
<text text-anchor="start" x="47.5" y="-278.5" font-family="Helvetica,sans-Serif" font-size="10.00">+ operator=()</text>
<text text-anchor="start" x="47.5" y="-267.5" font-family="Helvetica,sans-Serif" font-size="10.00">+ log()</text>
<text text-anchor="start" x="47.5" y="-256.5" font-family="Helvetica,sans-Serif" font-size="10.00">+ log()</text>
<text text-anchor="start" x="47.5" y="-245.5" font-family="Helvetica,sans-Serif" font-size="10.00">+ trace()</text>
<text text-anchor="start" x="47.5" y="-234.5" font-family="Helvetica,sans-Serif" font-size="10.00">+ debug()</text>
<text text-anchor="start" x="47.5" y="-223.5" font-family="Helvetica,sans-Serif" font-size="10.00">and 22 more...</text>
<text text-anchor="start" x="47.5" y="-212.5" font-family="Helvetica,sans-Serif" font-size="10.00"># _sink_it()</text>
<text text-anchor="start" x="47.5" y="-201.5" font-family="Helvetica,sans-Serif" font-size="10.00"># _set_pattern()</text>
<text text-anchor="start" x="47.5" y="-190.5" font-family="Helvetica,sans-Serif" font-size="10.00"># _set_formatter()</text>
<text text-anchor="start" x="47.5" y="-179.5" font-family="Helvetica,sans-Serif" font-size="10.00"># _default_err_handler()</text>
<text text-anchor="start" x="47.5" y="-168.5" font-family="Helvetica,sans-Serif" font-size="10.00"># _should_flush_on()</text>
</a>
</g>
</g>
<!-- Node2&#45;&gt;Node1 -->
<g id="edge1" class="edge"><title>Node2&#45;&gt;Node1</title>
<path fill="none" stroke="midnightblue" d="M99,-151.378C99,-141.82 99,-132.523 99,-123.771"/>
<polygon fill="none" stroke="midnightblue" points="95.5001,-151.421 99,-161.421 102.5,-151.421 95.5001,-151.421"/>
</g>
<!-- Node3 -->
<g id="node3" class="node"><title>Node3</title>
<polygon fill="none" stroke="#bfbfbf" points="0,-475.5 0,-532.5 116,-532.5 116,-475.5 0,-475.5"/>
<text text-anchor="middle" x="58" y="-520.5" font-family="Helvetica,sans-Serif" font-size="10.00">std::vector&lt; sink_ptr &gt;</text>
<polyline fill="none" stroke="#bfbfbf" points="0,-513.5 116,-513.5 "/>
<text text-anchor="start" x="8" y="-501.5" font-family="Helvetica,sans-Serif" font-size="10.00">+ elements</text>
<polyline fill="none" stroke="#bfbfbf" points="0,-494.5 116,-494.5 "/>
<text text-anchor="middle" x="58" y="-482.5" font-family="Helvetica,sans-Serif" font-size="10.00"> </text>
</g>
<!-- Node3&#45;&gt;Node2 -->
<g id="edge2" class="edge"><title>Node3&#45;&gt;Node2</title>
<path fill="none" stroke="#404040" d="M63.4445,-475.446C65.4494,-465.299 67.8824,-452.985 70.5249,-439.612"/>
<polygon fill="none" stroke="#404040" points="70.5693,-439.387 67.8083,-432.725 72.8955,-427.614 75.6565,-434.276 70.5693,-439.387"/>
<text text-anchor="middle" x="87.5" y="-449" font-family="Helvetica,sans-Serif" font-size="10.00"> #_sinks</text>
</g>
<!-- Node4 -->
<g id="node4" class="node"><title>Node4</title>
<g id="a_node4"><a xlink:title="STL class. ">
<polygon fill="none" stroke="#bfbfbf" points="134,-475.5 134,-532.5 194,-532.5 194,-475.5 134,-475.5"/>
<text text-anchor="middle" x="164" y="-520.5" font-family="Helvetica,sans-Serif" font-size="10.00">std::string</text>
<polyline fill="none" stroke="#bfbfbf" points="134,-513.5 194,-513.5 "/>
<text text-anchor="middle" x="164" y="-501.5" font-family="Helvetica,sans-Serif" font-size="10.00"> </text>
<polyline fill="none" stroke="#bfbfbf" points="134,-494.5 194,-494.5 "/>
<text text-anchor="middle" x="164" y="-482.5" font-family="Helvetica,sans-Serif" font-size="10.00"> </text>
</a>
</g>
</g>
<!-- Node4&#45;&gt;Node2 -->
<g id="edge3" class="edge"><title>Node4&#45;&gt;Node2</title>
<path fill="none" stroke="#404040" d="M155.369,-475.446C152.158,-465.197 148.255,-452.736 144.016,-439.206"/>
<polygon fill="none" stroke="#404040" points="143.972,-439.066 138.362,-434.536 140.385,-427.614 145.996,-432.144 143.972,-439.066"/>
<text text-anchor="middle" x="167" y="-449" font-family="Helvetica,sans-Serif" font-size="10.00"> #_name</text>
</g>
<!-- Node5 -->
<g id="node5" class="node"><title>Node5</title>
<g id="a_node5"><a xlink:title="STL class. ">
<polygon fill="none" stroke="#bfbfbf" points="116.5,-570.5 116.5,-638.5 211.5,-638.5 211.5,-570.5 116.5,-570.5"/>
<text text-anchor="start" x="124.5" y="-626.5" font-family="Helvetica,sans-Serif" font-size="10.00">std::basic_string&lt;</text>
<text text-anchor="middle" x="164" y="-615.5" font-family="Helvetica,sans-Serif" font-size="10.00"> char &gt;</text>
<polyline fill="none" stroke="#bfbfbf" points="116.5,-608.5 211.5,-608.5 "/>
<text text-anchor="middle" x="164" y="-596.5" font-family="Helvetica,sans-Serif" font-size="10.00"> </text>
<polyline fill="none" stroke="#bfbfbf" points="116.5,-589.5 211.5,-589.5 "/>
<text text-anchor="middle" x="164" y="-577.5" font-family="Helvetica,sans-Serif" font-size="10.00"> </text>
</a>
</g>
</g>
<!-- Node5&#45;&gt;Node4 -->
<g id="edge4" class="edge"><title>Node5&#45;&gt;Node4</title>
<path fill="none" stroke="midnightblue" d="M164,-560.375C164,-550.94 164,-541.201 164,-532.571"/>
<polygon fill="none" stroke="midnightblue" points="160.5,-560.427 164,-570.427 167.5,-560.427 160.5,-560.427"/>
</g>
</g>
</svg>
