<?xml version="1.0" encoding="UTF-8" standalone="no"?>
<!DOCTYPE svg PUBLIC "-//W3C//DTD SVG 1.1//EN"
 "http://www.w3.org/Graphics/SVG/1.1/DTD/svg11.dtd">
<!-- Generated by graphviz version 2.38.0 (20140413.2041)
 -->
<!-- Title: XBot::RobotInterface Pages: 1 -->
<svg width="1201pt" height="895pt"
 viewBox="0.00 0.00 1200.50 895.00" xmlns="http://www.w3.org/2000/svg" xmlns:xlink="http://www.w3.org/1999/xlink">
<g id="graph0" class="graph" transform="scale(1 1) rotate(0) translate(4 891)">
<title>XBot::RobotInterface</title>
<!-- Node1 -->
<g id="node1" class="node"><title>Node1</title>
<polygon fill="#bfbfbf" stroke="black" points="563,-0.5 563,-233.5 708,-233.5 708,-0.5 563,-0.5"/>
<text text-anchor="middle" x="635.5" y="-221.5" font-family="Helvetica,sans-Serif" font-size="10.00">XBot::RobotInterface</text>
<polyline fill="none" stroke="black" points="563,-214.5 708,-214.5 "/>
<text text-anchor="middle" x="635.5" y="-202.5" font-family="Helvetica,sans-Serif" font-size="10.00"> </text>
<polyline fill="none" stroke="black" points="563,-195.5 708,-195.5 "/>
<text text-anchor="start" x="571" y="-183.5" font-family="Helvetica,sans-Serif" font-size="10.00">+ RobotInterface()</text>
<text text-anchor="start" x="571" y="-172.5" font-family="Helvetica,sans-Serif" font-size="10.00">+ model()</text>
<text text-anchor="start" x="571" y="-161.5" font-family="Helvetica,sans-Serif" font-size="10.00">+ operator=()</text>
<text text-anchor="start" x="571" y="-150.5" font-family="Helvetica,sans-Serif" font-size="10.00">+ RobotInterface()</text>
<text text-anchor="start" x="571" y="-139.5" font-family="Helvetica,sans-Serif" font-size="10.00">+ getTime()</text>
<text text-anchor="start" x="571" y="-128.5" font-family="Helvetica,sans-Serif" font-size="10.00">+ isRunning()</text>
<text text-anchor="start" x="571" y="-117.5" font-family="Helvetica,sans-Serif" font-size="10.00">+ sense()</text>
<text text-anchor="start" x="571" y="-106.5" font-family="Helvetica,sans-Serif" font-size="10.00">+ move()</text>
<text text-anchor="start" x="571" y="-95.5" font-family="Helvetica,sans-Serif" font-size="10.00">+ operator()()</text>
<text text-anchor="start" x="571" y="-84.5" font-family="Helvetica,sans-Serif" font-size="10.00">+ chain()</text>
<text text-anchor="start" x="571" y="-73.5" font-family="Helvetica,sans-Serif" font-size="10.00">and 11 more...</text>
<text text-anchor="start" x="571" y="-62.5" font-family="Helvetica,sans-Serif" font-size="10.00">+ getRobot()</text>
<text text-anchor="start" x="571" y="-51.5" font-family="Helvetica,sans-Serif" font-size="10.00"># sense_internal()</text>
<text text-anchor="start" x="571" y="-40.5" font-family="Helvetica,sans-Serif" font-size="10.00"># move_internal()</text>
<text text-anchor="start" x="571" y="-29.5" font-family="Helvetica,sans-Serif" font-size="10.00"># read_sensors()</text>
<text text-anchor="start" x="571" y="-18.5" font-family="Helvetica,sans-Serif" font-size="10.00"># init_robot()</text>
<text text-anchor="start" x="571" y="-7.5" font-family="Helvetica,sans-Serif" font-size="10.00"># set_control_mode_internal()</text>
</g>
<!-- Node2 -->
<g id="node2" class="node"><title>Node2</title>
<g id="a_node2"><a xlink:href="classXBot_1_1XBotInterface.html" target="_top" xlink:title="{XBot::XBotInterface\n|# _XBotModel\l|+ XBotInterface()\l+ XBotInterface()\l+ operator=()\l+ ~XBotInterface()\l+ init()\l+ getPathToConfig()\l+ getUrdf()\l+ getUrdfPath()\l+ getSrdf()\l+ getSrdfPath()\land 122 more...\l# getJointByNameInternal()\l# getJointByIdInternal()\l# getJointByDofIndexInternal()\l# getForceTorqueInternal()\l# getImuInternal()\l# init_internal()\l# getModelOrderedChainName()\l# computeAbsolutePath()\l}">
<polygon fill="none" stroke="black" points="557,-271.5 557,-526.5 714,-526.5 714,-271.5 557,-271.5"/>
<text text-anchor="middle" x="635.5" y="-514.5" font-family="Helvetica,sans-Serif" font-size="10.00">XBot::XBotInterface</text>
<polyline fill="none" stroke="black" points="557,-507.5 714,-507.5 "/>
<text text-anchor="start" x="565" y="-495.5" font-family="Helvetica,sans-Serif" font-size="10.00"># _XBotModel</text>
<polyline fill="none" stroke="black" points="557,-488.5 714,-488.5 "/>
<text text-anchor="start" x="565" y="-476.5" font-family="Helvetica,sans-Serif" font-size="10.00">+ XBotInterface()</text>
<text text-anchor="start" x="565" y="-465.5" font-family="Helvetica,sans-Serif" font-size="10.00">+ XBotInterface()</text>
<text text-anchor="start" x="565" y="-454.5" font-family="Helvetica,sans-Serif" font-size="10.00">+ operator=()</text>
<text text-anchor="start" x="565" y="-443.5" font-family="Helvetica,sans-Serif" font-size="10.00">+ ~XBotInterface()</text>
<text text-anchor="start" x="565" y="-432.5" font-family="Helvetica,sans-Serif" font-size="10.00">+ init()</text>
<text text-anchor="start" x="565" y="-421.5" font-family="Helvetica,sans-Serif" font-size="10.00">+ getPathToConfig()</text>
<text text-anchor="start" x="565" y="-410.5" font-family="Helvetica,sans-Serif" font-size="10.00">+ getUrdf()</text>
<text text-anchor="start" x="565" y="-399.5" font-family="Helvetica,sans-Serif" font-size="10.00">+ getUrdfPath()</text>
<text text-anchor="start" x="565" y="-388.5" font-family="Helvetica,sans-Serif" font-size="10.00">+ getSrdf()</text>
<text text-anchor="start" x="565" y="-377.5" font-family="Helvetica,sans-Serif" font-size="10.00">+ getSrdfPath()</text>
<text text-anchor="start" x="565" y="-366.5" font-family="Helvetica,sans-Serif" font-size="10.00">and 122 more...</text>
<text text-anchor="start" x="565" y="-355.5" font-family="Helvetica,sans-Serif" font-size="10.00"># getJointByNameInternal()</text>
<text text-anchor="start" x="565" y="-344.5" font-family="Helvetica,sans-Serif" font-size="10.00"># getJointByIdInternal()</text>
<text text-anchor="start" x="565" y="-333.5" font-family="Helvetica,sans-Serif" font-size="10.00"># getJointByDofIndexInternal()</text>
<text text-anchor="start" x="565" y="-322.5" font-family="Helvetica,sans-Serif" font-size="10.00"># getForceTorqueInternal()</text>
<text text-anchor="start" x="565" y="-311.5" font-family="Helvetica,sans-Serif" font-size="10.00"># getImuInternal()</text>
<text text-anchor="start" x="565" y="-300.5" font-family="Helvetica,sans-Serif" font-size="10.00"># init_internal()</text>
<text text-anchor="start" x="565" y="-289.5" font-family="Helvetica,sans-Serif" font-size="10.00"># getModelOrderedChainName()</text>
<text text-anchor="start" x="565" y="-278.5" font-family="Helvetica,sans-Serif" font-size="10.00"># computeAbsolutePath()</text>
</a>
</g>
</g>
<!-- Node2&#45;&gt;Node1 -->
<g id="edge1" class="edge"><title>Node2&#45;&gt;Node1</title>
<path fill="none" stroke="midnightblue" d="M635.5,-260.877C635.5,-251.802 635.5,-242.711 635.5,-233.756"/>
<polygon fill="none" stroke="midnightblue" points="632,-261.108 635.5,-271.108 639,-261.108 632,-261.108"/>
</g>
<!-- Node3 -->
<g id="node3" class="node"><title>Node3</title>
<polygon fill="none" stroke="#bfbfbf" points="0,-591 0,-670 133,-670 133,-591 0,-591"/>
<text text-anchor="start" x="8" y="-658" font-family="Helvetica,sans-Serif" font-size="10.00">std::map&lt; std::string,</text>
<text text-anchor="start" x="8" y="-647" font-family="Helvetica,sans-Serif" font-size="10.00"> XBot::ForceTorqueSensor</text>
<text text-anchor="middle" x="66.5" y="-636" font-family="Helvetica,sans-Serif" font-size="10.00">::Ptr &gt;</text>
<polyline fill="none" stroke="#bfbfbf" points="0,-629 133,-629 "/>
<text text-anchor="start" x="8" y="-617" font-family="Helvetica,sans-Serif" font-size="10.00">+ elements</text>
<polyline fill="none" stroke="#bfbfbf" points="0,-610 133,-610 "/>
<text text-anchor="middle" x="66.5" y="-598" font-family="Helvetica,sans-Serif" font-size="10.00"> </text>
</g>
<!-- Node3&#45;&gt;Node2 -->
<g id="edge2" class="edge"><title>Node3&#45;&gt;Node2</title>
<path fill="none" stroke="#404040" d="M131.334,-590.922C135.09,-588.88 138.831,-586.892 142.5,-585 277.129,-515.586 444.005,-458.528 544.99,-426.91"/>
<polygon fill="none" stroke="#404040" points="545.212,-426.841 549.752,-421.239 556.67,-423.275 552.129,-428.877 545.212,-426.841"/>
<text text-anchor="middle" x="242.5" y="-553.5" font-family="Helvetica,sans-Serif" font-size="10.00"> #_ft_map</text>
</g>
<!-- Node4 -->
<g id="node4" class="node"><title>Node4</title>
<g id="a_node4"><a xlink:title="STL class. ">
<polygon fill="none" stroke="#bfbfbf" points="310.5,-723.5 310.5,-780.5 370.5,-780.5 370.5,-723.5 310.5,-723.5"/>
<text text-anchor="middle" x="340.5" y="-768.5" font-family="Helvetica,sans-Serif" font-size="10.00">std::string</text>
<polyline fill="none" stroke="#bfbfbf" points="310.5,-761.5 370.5,-761.5 "/>
<text text-anchor="middle" x="340.5" y="-749.5" font-family="Helvetica,sans-Serif" font-size="10.00"> </text>
<polyline fill="none" stroke="#bfbfbf" points="310.5,-742.5 370.5,-742.5 "/>
<text text-anchor="middle" x="340.5" y="-730.5" font-family="Helvetica,sans-Serif" font-size="10.00"> </text>
</a>
</g>
</g>
<!-- Node4&#45;&gt;Node3 -->
<g id="edge3" class="edge"><title>Node4&#45;&gt;Node3</title>
<path fill="none" stroke="#404040" d="M310.332,-741.335C270.939,-728.319 200.206,-703.584 142.5,-676 142.259,-675.885 142.017,-675.769 141.775,-675.652"/>
<polygon fill="none" stroke="#404040" points="141.502,-675.515 134.344,-676.394 130.78,-670.126 137.937,-669.246 141.502,-675.515"/>
<text text-anchor="middle" x="223" y="-697" font-family="Helvetica,sans-Serif" font-size="10.00"> +keys</text>
</g>
<!-- Node6 -->
<g id="node6" class="node"><title>Node6</title>
<polygon fill="none" stroke="#bfbfbf" points="151.5,-596.5 151.5,-664.5 261.5,-664.5 261.5,-596.5 151.5,-596.5"/>
<text text-anchor="start" x="159.5" y="-652.5" font-family="Helvetica,sans-Serif" font-size="10.00">std::map&lt; std::string,</text>
<text text-anchor="middle" x="206.5" y="-641.5" font-family="Helvetica,sans-Serif" font-size="10.00"> int &gt;</text>
<polyline fill="none" stroke="#bfbfbf" points="151.5,-634.5 261.5,-634.5 "/>
<text text-anchor="start" x="159.5" y="-622.5" font-family="Helvetica,sans-Serif" font-size="10.00">+ elements</text>
<polyline fill="none" stroke="#bfbfbf" points="151.5,-615.5 261.5,-615.5 "/>
<text text-anchor="middle" x="206.5" y="-603.5" font-family="Helvetica,sans-Serif" font-size="10.00"> </text>
</g>
<!-- Node4&#45;&gt;Node6 -->
<g id="edge6" class="edge"><title>Node4&#45;&gt;Node6</title>
<path fill="none" stroke="#404040" d="M310.428,-724.182C293.452,-709.043 271.876,-689.802 252.788,-672.779"/>
<polygon fill="none" stroke="#404040" points="252.605,-672.616 245.464,-671.608 243.649,-664.629 250.789,-665.637 252.605,-672.616"/>
<text text-anchor="middle" x="302" y="-697" font-family="Helvetica,sans-Serif" font-size="10.00"> +keys</text>
</g>
<!-- Node7 -->
<g id="node7" class="node"><title>Node7</title>
<polygon fill="none" stroke="#bfbfbf" points="279.5,-596.5 279.5,-664.5 401.5,-664.5 401.5,-596.5 279.5,-596.5"/>
<text text-anchor="start" x="287.5" y="-652.5" font-family="Helvetica,sans-Serif" font-size="10.00">std::map&lt; std::string,</text>
<text text-anchor="middle" x="340.5" y="-641.5" font-family="Helvetica,sans-Serif" font-size="10.00"> XBot::ImuSensor::Ptr &gt;</text>
<polyline fill="none" stroke="#bfbfbf" points="279.5,-634.5 401.5,-634.5 "/>
<text text-anchor="start" x="287.5" y="-622.5" font-family="Helvetica,sans-Serif" font-size="10.00">+ elements</text>
<polyline fill="none" stroke="#bfbfbf" points="279.5,-615.5 401.5,-615.5 "/>
<text text-anchor="middle" x="340.5" y="-603.5" font-family="Helvetica,sans-Serif" font-size="10.00"> </text>
</g>
<!-- Node4&#45;&gt;Node7 -->
<g id="edge8" class="edge"><title>Node4&#45;&gt;Node7</title>
<path fill="none" stroke="#404040" d="M340.5,-723.284C340.5,-709.465 340.5,-692.401 340.5,-676.749"/>
<polygon fill="none" stroke="#404040" points="340.5,-676.589 336.5,-670.589 340.5,-664.589 344.5,-670.589 340.5,-676.589"/>
<text text-anchor="middle" x="356" y="-697" font-family="Helvetica,sans-Serif" font-size="10.00"> +keys</text>
</g>
<!-- Node12 -->
<g id="node12" class="node"><title>Node12</title>
<polygon fill="none" stroke="#bfbfbf" points="420,-602 420,-659 545,-659 545,-602 420,-602"/>
<text text-anchor="middle" x="482.5" y="-647" font-family="Helvetica,sans-Serif" font-size="10.00">std::vector&lt; std::string &gt;</text>
<polyline fill="none" stroke="#bfbfbf" points="420,-640 545,-640 "/>
<text text-anchor="middle" x="482.5" y="-628" font-family="Helvetica,sans-Serif" font-size="10.00"> </text>
<polyline fill="none" stroke="#bfbfbf" points="420,-621 545,-621 "/>
<text text-anchor="middle" x="482.5" y="-609" font-family="Helvetica,sans-Serif" font-size="10.00"> </text>
</g>
<!-- Node4&#45;&gt;Node12 -->
<g id="edge14" class="edge"><title>Node4&#45;&gt;Node12</title>
<path fill="none" stroke="#404040" d="M370.615,-725.657C390.917,-708.572 417.984,-685.793 440.411,-666.92"/>
<polygon fill="none" stroke="#404040" points="440.524,-666.825 442.539,-659.901 449.705,-659.099 447.69,-666.022 440.524,-666.825"/>
<text text-anchor="middle" x="432" y="-697" font-family="Helvetica,sans-Serif" font-size="10.00"> +elements</text>
</g>
<!-- Node13 -->
<g id="node13" class="node"><title>Node13</title>
<polygon fill="none" stroke="#bfbfbf" points="563.5,-591 563.5,-670 707.5,-670 707.5,-591 563.5,-591"/>
<text text-anchor="start" x="571.5" y="-658" font-family="Helvetica,sans-Serif" font-size="10.00">std::map&lt; std::string,</text>
<text text-anchor="start" x="571.5" y="-647" font-family="Helvetica,sans-Serif" font-size="10.00"> XBot::XBot::KinematicChain</text>
<text text-anchor="middle" x="635.5" y="-636" font-family="Helvetica,sans-Serif" font-size="10.00">::Ptr &gt;</text>
<polyline fill="none" stroke="#bfbfbf" points="563.5,-629 707.5,-629 "/>
<text text-anchor="start" x="571.5" y="-617" font-family="Helvetica,sans-Serif" font-size="10.00">+ elements</text>
<polyline fill="none" stroke="#bfbfbf" points="563.5,-610 707.5,-610 "/>
<text text-anchor="middle" x="635.5" y="-598" font-family="Helvetica,sans-Serif" font-size="10.00"> </text>
</g>
<!-- Node4&#45;&gt;Node13 -->
<g id="edge16" class="edge"><title>Node4&#45;&gt;Node13</title>
<path fill="none" stroke="#404040" d="M370.714,-742.027C412.534,-729.234 490.079,-704.161 553.5,-676 554.018,-675.77 554.537,-675.538 555.058,-675.304"/>
<polygon fill="none" stroke="#404040" points="555.223,-675.226 558.962,-669.06 566.092,-670.14 562.353,-676.306 555.223,-675.226"/>
<text text-anchor="middle" x="524" y="-697" font-family="Helvetica,sans-Serif" font-size="10.00"> +keys</text>
</g>
<!-- Node5 -->
<g id="node5" class="node"><title>Node5</title>
<g id="a_node5"><a xlink:title="STL class. ">
<polygon fill="none" stroke="#bfbfbf" points="293,-818.5 293,-886.5 388,-886.5 388,-818.5 293,-818.5"/>
<text text-anchor="start" x="301" y="-874.5" font-family="Helvetica,sans-Serif" font-size="10.00">std::basic_string&lt;</text>
<text text-anchor="middle" x="340.5" y="-863.5" font-family="Helvetica,sans-Serif" font-size="10.00"> char &gt;</text>
<polyline fill="none" stroke="#bfbfbf" points="293,-856.5 388,-856.5 "/>
<text text-anchor="middle" x="340.5" y="-844.5" font-family="Helvetica,sans-Serif" font-size="10.00"> </text>
<polyline fill="none" stroke="#bfbfbf" points="293,-837.5 388,-837.5 "/>
<text text-anchor="middle" x="340.5" y="-825.5" font-family="Helvetica,sans-Serif" font-size="10.00"> </text>
</a>
</g>
</g>
<!-- Node5&#45;&gt;Node4 -->
<g id="edge4" class="edge"><title>Node5&#45;&gt;Node4</title>
<path fill="none" stroke="midnightblue" d="M340.5,-808.375C340.5,-798.94 340.5,-789.201 340.5,-780.571"/>
<polygon fill="none" stroke="midnightblue" points="337,-808.427 340.5,-818.427 344,-808.427 337,-808.427"/>
</g>
<!-- Node6&#45;&gt;Node2 -->
<g id="edge5" class="edge"><title>Node6&#45;&gt;Node2</title>
<path fill="none" stroke="#404040" d="M241.48,-596.425C260.367,-579.657 284.651,-559.774 308.5,-545 384.233,-498.087 477.768,-458.22 545.375,-432.233"/>
<polygon fill="none" stroke="#404040" points="545.627,-432.137 549.809,-426.263 556.84,-427.864 552.658,-433.738 545.627,-432.137"/>
<text text-anchor="middle" x="366.5" y="-553.5" font-family="Helvetica,sans-Serif" font-size="10.00"> #_joint_name_to_eigen_id</text>
</g>
<!-- Node7&#45;&gt;Node2 -->
<g id="edge7" class="edge"><title>Node7&#45;&gt;Node2</title>
<path fill="none" stroke="#404040" d="M383.08,-596.374C425.829,-563.117 492.955,-510.896 547.241,-468.663"/>
<polygon fill="none" stroke="#404040" points="547.401,-468.538 549.68,-461.697 556.872,-461.17 554.593,-468.011 547.401,-468.538"/>
<text text-anchor="middle" x="471.5" y="-553.5" font-family="Helvetica,sans-Serif" font-size="10.00"> #_imu_map</text>
</g>
<!-- Node8 -->
<g id="node8" class="node"><title>Node8</title>
<polygon fill="none" stroke="#bfbfbf" points="725.5,-596.5 725.5,-664.5 825.5,-664.5 825.5,-596.5 725.5,-596.5"/>
<text text-anchor="middle" x="775.5" y="-652.5" font-family="Helvetica,sans-Serif" font-size="10.00">std::map&lt; int, int &gt;</text>
<polyline fill="none" stroke="#bfbfbf" points="725.5,-645.5 825.5,-645.5 "/>
<text text-anchor="start" x="733.5" y="-633.5" font-family="Helvetica,sans-Serif" font-size="10.00">+ keys</text>
<text text-anchor="start" x="733.5" y="-622.5" font-family="Helvetica,sans-Serif" font-size="10.00">+ elements</text>
<polyline fill="none" stroke="#bfbfbf" points="725.5,-615.5 825.5,-615.5 "/>
<text text-anchor="middle" x="775.5" y="-603.5" font-family="Helvetica,sans-Serif" font-size="10.00"> </text>
</g>
<!-- Node8&#45;&gt;Node2 -->
<g id="edge9" class="edge"><title>Node8&#45;&gt;Node2</title>
<path fill="none" stroke="#404040" d="M755.143,-596.129C745.192,-579.816 732.483,-558.982 719.083,-537.016"/>
<polygon fill="none" stroke="#404040" points="718.922,-536.753 712.383,-533.714 712.673,-526.508 719.212,-529.548 718.922,-536.753"/>
<text text-anchor="middle" x="784.5" y="-553.5" font-family="Helvetica,sans-Serif" font-size="10.00"> #_joint_id_to_eigen_id</text>
</g>
<!-- Node9 -->
<g id="node9" class="node"><title>Node9</title>
<polygon fill="none" stroke="#bfbfbf" points="843.5,-596.5 843.5,-664.5 943.5,-664.5 943.5,-596.5 843.5,-596.5"/>
<text text-anchor="start" x="851.5" y="-652.5" font-family="Helvetica,sans-Serif" font-size="10.00">std::vector&lt; XBot::</text>
<text text-anchor="middle" x="893.5" y="-641.5" font-family="Helvetica,sans-Serif" font-size="10.00">Joint::Ptr &gt;</text>
<polyline fill="none" stroke="#bfbfbf" points="843.5,-634.5 943.5,-634.5 "/>
<text text-anchor="start" x="851.5" y="-622.5" font-family="Helvetica,sans-Serif" font-size="10.00">+ elements</text>
<polyline fill="none" stroke="#bfbfbf" points="843.5,-615.5 943.5,-615.5 "/>
<text text-anchor="middle" x="893.5" y="-603.5" font-family="Helvetica,sans-Serif" font-size="10.00"> </text>
</g>
<!-- Node9&#45;&gt;Node2 -->
<g id="edge10" class="edge"><title>Node9&#45;&gt;Node2</title>
<path fill="none" stroke="#404040" d="M875.726,-596.139C866.021,-579.685 853.028,-560.17 838.5,-545 805.095,-510.118 762.273,-478.111 724.576,-453.094"/>
<polygon fill="none" stroke="#404040" points="724.13,-452.802 716.92,-452.86 714.092,-446.227 721.303,-446.168 724.13,-452.802"/>
<text text-anchor="middle" x="907.5" y="-559" font-family="Helvetica,sans-Serif" font-size="10.00"> #_ordered_joint_vector</text>
<text text-anchor="middle" x="907.5" y="-548" font-family="Helvetica,sans-Serif" font-size="10.00">#_joint_vector</text>
</g>
<!-- Node10 -->
<g id="node10" class="node"><title>Node10</title>
<polygon fill="none" stroke="#bfbfbf" points="964.5,-591 964.5,-670 1066.5,-670 1066.5,-591 964.5,-591"/>
<text text-anchor="start" x="972.5" y="-658" font-family="Helvetica,sans-Serif" font-size="10.00">std::map&lt; int, XBot</text>
<text text-anchor="middle" x="1015.5" y="-647" font-family="Helvetica,sans-Serif" font-size="10.00">::ImuSensor::Ptr &gt;</text>
<polyline fill="none" stroke="#bfbfbf" points="964.5,-640 1066.5,-640 "/>
<text text-anchor="start" x="972.5" y="-628" font-family="Helvetica,sans-Serif" font-size="10.00">+ keys</text>
<text text-anchor="start" x="972.5" y="-617" font-family="Helvetica,sans-Serif" font-size="10.00">+ elements</text>
<polyline fill="none" stroke="#bfbfbf" points="964.5,-610 1066.5,-610 "/>
<text text-anchor="middle" x="1015.5" y="-598" font-family="Helvetica,sans-Serif" font-size="10.00"> </text>
</g>
<!-- Node10&#45;&gt;Node2 -->
<g id="edge11" class="edge"><title>Node10&#45;&gt;Node2</title>
<path fill="none" stroke="#404040" d="M997.733,-590.997C988.921,-575.146 977.027,-557.587 962.5,-545 893.589,-485.289 796.158,-446.374 725.591,-424.042"/>
<polygon fill="none" stroke="#404040" points="725.525,-424.022 718.609,-426.064 714.064,-420.466 720.98,-418.423 725.525,-424.022"/>
<text text-anchor="middle" x="1015" y="-553.5" font-family="Helvetica,sans-Serif" font-size="10.00"> #_imu_id_map</text>
</g>
<!-- Node11 -->
<g id="node11" class="node"><title>Node11</title>
<polygon fill="none" stroke="#bfbfbf" points="1084.5,-585.5 1084.5,-675.5 1192.5,-675.5 1192.5,-585.5 1084.5,-585.5"/>
<text text-anchor="start" x="1092.5" y="-663.5" font-family="Helvetica,sans-Serif" font-size="10.00">std::map&lt; int, XBot</text>
<text text-anchor="start" x="1092.5" y="-652.5" font-family="Helvetica,sans-Serif" font-size="10.00">::ForceTorqueSensor</text>
<text text-anchor="middle" x="1138.5" y="-641.5" font-family="Helvetica,sans-Serif" font-size="10.00">::Ptr &gt;</text>
<polyline fill="none" stroke="#bfbfbf" points="1084.5,-634.5 1192.5,-634.5 "/>
<text text-anchor="start" x="1092.5" y="-622.5" font-family="Helvetica,sans-Serif" font-size="10.00">+ keys</text>
<text text-anchor="start" x="1092.5" y="-611.5" font-family="Helvetica,sans-Serif" font-size="10.00">+ elements</text>
<polyline fill="none" stroke="#bfbfbf" points="1084.5,-604.5 1192.5,-604.5 "/>
<text text-anchor="middle" x="1138.5" y="-592.5" font-family="Helvetica,sans-Serif" font-size="10.00"> </text>
</g>
<!-- Node11&#45;&gt;Node2 -->
<g id="edge12" class="edge"><title>Node11&#45;&gt;Node2</title>
<path fill="none" stroke="#404040" d="M1101,-585.471C1086.96,-571.044 1070.11,-555.93 1052.5,-545 949.31,-480.933 814.089,-440.622 726.031,-419.206"/>
<polygon fill="none" stroke="#404040" points="725.865,-419.166 719.098,-421.659 714.195,-416.372 720.961,-413.879 725.865,-419.166"/>
<text text-anchor="middle" x="1110" y="-553.5" font-family="Helvetica,sans-Serif" font-size="10.00"> #_ft_id_map</text>
</g>
<!-- Node12&#45;&gt;Node2 -->
<g id="edge13" class="edge"><title>Node12&#45;&gt;Node2</title>
<path fill="none" stroke="#404040" d="M493.821,-601.684C501.136,-584.806 511.349,-563.104 522.5,-545 530.703,-531.683 539.906,-518.15 549.426,-504.973"/>
<polygon fill="none" stroke="#404040" points="549.661,-504.652 549.983,-497.448 556.757,-494.975 556.435,-502.179 549.661,-504.652"/>
<text text-anchor="middle" x="577" y="-553.5" font-family="Helvetica,sans-Serif" font-size="10.00"> #_ordered_chain_names</text>
</g>
<!-- Node13&#45;&gt;Node2 -->
<g id="edge15" class="edge"><title>Node13&#45;&gt;Node2</title>
<path fill="none" stroke="#404040" d="M635.5,-590.828C635.5,-575.877 635.5,-557.789 635.5,-538.781"/>
<polygon fill="none" stroke="#404040" points="635.5,-538.515 631.5,-532.515 635.5,-526.515 639.5,-532.515 635.5,-538.515"/>
<text text-anchor="middle" x="666" y="-553.5" font-family="Helvetica,sans-Serif" font-size="10.00"> #_chain_map</text>
</g>
</g>
</svg>
