<?xml version="1.0" encoding="UTF-8" standalone="no"?>
<!DOCTYPE svg PUBLIC "-//W3C//DTD SVG 1.1//EN"
 "http://www.w3.org/Graphics/SVG/1.1/DTD/svg11.dtd">
<!-- Generated by graphviz version 2.36.0 (20140111.2315)
 -->
<!-- Title: spdlog::logger Pages: 1 -->
<svg width="219pt" height="490pt"
 viewBox="0.00 0.00 219.00 490.00" xmlns="http://www.w3.org/2000/svg" xmlns:xlink="http://www.w3.org/1999/xlink">
<g id="graph0" class="graph" transform="scale(1 1) rotate(0) translate(4 486)">
<title>spdlog::logger</title>
<!-- Node1 -->
<g id="node1" class="node"><title>Node1</title>
<polygon fill="#bfbfbf" stroke="black" points="39.5,-1 39.5,-267 158.5,-267 158.5,-1 39.5,-1"/>
<text text-anchor="middle" x="99" y="-255" font-family="Helvetica,sans-Serif" font-size="10.00">spdlog::logger</text>
<polyline fill="none" stroke="black" points="39.5,-248 158.5,-248 "/>
<text text-anchor="start" x="47.5" y="-236" font-family="Helvetica,sans-Serif" font-size="10.00"># _formatter</text>
<text text-anchor="start" x="47.5" y="-225" font-family="Helvetica,sans-Serif" font-size="10.00"># _level</text>
<text text-anchor="start" x="47.5" y="-214" font-family="Helvetica,sans-Serif" font-size="10.00"># _flush_level</text>
<text text-anchor="start" x="47.5" y="-203" font-family="Helvetica,sans-Serif" font-size="10.00"># _err_handler</text>
<text text-anchor="start" x="47.5" y="-192" font-family="Helvetica,sans-Serif" font-size="10.00"># _last_err_time</text>
<polyline fill="none" stroke="black" points="39.5,-185 158.5,-185 "/>
<text text-anchor="start" x="47.5" y="-173" font-family="Helvetica,sans-Serif" font-size="10.00">+ logger()</text>
<text text-anchor="start" x="47.5" y="-162" font-family="Helvetica,sans-Serif" font-size="10.00">+ logger()</text>
<text text-anchor="start" x="47.5" y="-151" font-family="Helvetica,sans-Serif" font-size="10.00">+ logger()</text>
<text text-anchor="start" x="47.5" y="-140" font-family="Helvetica,sans-Serif" font-size="10.00">+ ~logger()</text>
<text text-anchor="start" x="47.5" y="-129" font-family="Helvetica,sans-Serif" font-size="10.00">+ logger()</text>
<text text-anchor="start" x="47.5" y="-118" font-family="Helvetica,sans-Serif" font-size="10.00">+ operator=()</text>
<text text-anchor="start" x="47.5" y="-107" font-family="Helvetica,sans-Serif" font-size="10.00">+ log()</text>
<text text-anchor="start" x="47.5" y="-96" font-family="Helvetica,sans-Serif" font-size="10.00">+ log()</text>
<text text-anchor="start" x="47.5" y="-85" font-family="Helvetica,sans-Serif" font-size="10.00">+ trace()</text>
<text text-anchor="start" x="47.5" y="-74" font-family="Helvetica,sans-Serif" font-size="10.00">+ debug()</text>
<text text-anchor="start" x="47.5" y="-63" font-family="Helvetica,sans-Serif" font-size="10.00">and 22 more...</text>
<text text-anchor="start" x="47.5" y="-52" font-family="Helvetica,sans-Serif" font-size="10.00"># _sink_it()</text>
<text text-anchor="start" x="47.5" y="-41" font-family="Helvetica,sans-Serif" font-size="10.00"># _set_pattern()</text>
<text text-anchor="start" x="47.5" y="-30" font-family="Helvetica,sans-Serif" font-size="10.00"># _set_formatter()</text>
<text text-anchor="start" x="47.5" y="-19" font-family="Helvetica,sans-Serif" font-size="10.00"># _default_err_handler()</text>
<text text-anchor="start" x="47.5" y="-8" font-family="Helvetica,sans-Serif" font-size="10.00"># _should_flush_on()</text>
</g>
<!-- Node2 -->
<g id="node2" class="node"><title>Node2</title>
<polygon fill="none" stroke="#bfbfbf" points="0,-316.5 0,-373.5 116,-373.5 116,-316.5 0,-316.5"/>
<text text-anchor="middle" x="58" y="-361.5" font-family="Helvetica,sans-Serif" font-size="10.00">std::vector&lt; sink_ptr &gt;</text>
<polyline fill="none" stroke="#bfbfbf" points="0,-354.5 116,-354.5 "/>
<text text-anchor="start" x="8" y="-342.5" font-family="Helvetica,sans-Serif" font-size="10.00">+ elements</text>
<polyline fill="none" stroke="#bfbfbf" points="0,-335.5 116,-335.5 "/>
<text text-anchor="middle" x="58" y="-323.5" font-family="Helvetica,sans-Serif" font-size="10.00"> </text>
</g>
<!-- Node2&#45;&gt;Node1 -->
<g id="edge1" class="edge"><title>Node2&#45;&gt;Node1</title>
<path fill="none" stroke="#404040" d="M63.4445,-316.246C65.5036,-305.75 68.0145,-292.951 70.74,-279.057"/>
<polygon fill="none" stroke="#404040" points="70.7646,-278.931 67.9945,-272.273 73.0747,-267.156 75.8449,-273.813 70.7646,-278.931"/>
<text text-anchor="middle" x="87.5" y="-289.5" font-family="Helvetica,sans-Serif" font-size="10.00"> #_sinks</text>
</g>
<!-- Node3 -->
<g id="node3" class="node"><title>Node3</title>
<g id="a_node3"><a xlink:title="STL class. ">
<polygon fill="none" stroke="#bfbfbf" points="134,-316.5 134,-373.5 194,-373.5 194,-316.5 134,-316.5"/>
<text text-anchor="middle" x="164" y="-361.5" font-family="Helvetica,sans-Serif" font-size="10.00">std::string</text>
<polyline fill="none" stroke="#bfbfbf" points="134,-354.5 194,-354.5 "/>
<text text-anchor="middle" x="164" y="-342.5" font-family="Helvetica,sans-Serif" font-size="10.00"> </text>
<polyline fill="none" stroke="#bfbfbf" points="134,-335.5 194,-335.5 "/>
<text text-anchor="middle" x="164" y="-323.5" font-family="Helvetica,sans-Serif" font-size="10.00"> </text>
</a>
</g>
</g>
<!-- Node3&#45;&gt;Node1 -->
<g id="edge2" class="edge"><title>Node3&#45;&gt;Node1</title>
<path fill="none" stroke="#404040" d="M155.369,-316.246C152.071,-305.645 148.044,-292.694 143.673,-278.64"/>
<polygon fill="none" stroke="#404040" points="143.665,-278.614 138.063,-274.073 140.101,-267.156 145.702,-271.697 143.665,-278.614"/>
<text text-anchor="middle" x="167" y="-289.5" font-family="Helvetica,sans-Serif" font-size="10.00"> #_name</text>
</g>
<!-- Node4 -->
<g id="node4" class="node"><title>Node4</title>
<g id="a_node4"><a xlink:title="STL class. ">
<polygon fill="none" stroke="#bfbfbf" points="116.5,-413 116.5,-481 211.5,-481 211.5,-413 116.5,-413"/>
<text text-anchor="start" x="124.5" y="-469" font-family="Helvetica,sans-Serif" font-size="10.00">std::basic_string&lt;</text>
<text text-anchor="middle" x="164" y="-458" font-family="Helvetica,sans-Serif" font-size="10.00"> char &gt;</text>
<polyline fill="none" stroke="#bfbfbf" points="116.5,-451 211.5,-451 "/>
<text text-anchor="middle" x="164" y="-439" font-family="Helvetica,sans-Serif" font-size="10.00"> </text>
<polyline fill="none" stroke="#bfbfbf" points="116.5,-432 211.5,-432 "/>
<text text-anchor="middle" x="164" y="-420" font-family="Helvetica,sans-Serif" font-size="10.00"> </text>
</a>
</g>
</g>
<!-- Node4&#45;&gt;Node3 -->
<g id="edge3" class="edge"><title>Node4&#45;&gt;Node3</title>
<path fill="none" stroke="midnightblue" d="M164,-402.857C164,-392.952 164,-382.682 164,-373.64"/>
<polygon fill="none" stroke="midnightblue" points="160.5,-402.979 164,-412.979 167.5,-402.979 160.5,-402.979"/>
</g>
</g>
</svg>
