<?xml version="1.0" encoding="UTF-8" standalone="no"?>
<!DOCTYPE svg PUBLIC "-//W3C//DTD SVG 1.1//EN"
 "http://www.w3.org/Graphics/SVG/1.1/DTD/svg11.dtd">
<!-- Generated by graphviz version 2.36.0 (20140111.2315)
 -->
<!-- Title: spdlog::sinks::base_sink&lt; Mutex &gt; Pages: 1 -->
<svg width="1188pt" height="614pt"
 viewBox="0.00 0.00 1188.00 614.00" xmlns="http://www.w3.org/2000/svg" xmlns:xlink="http://www.w3.org/1999/xlink">
<g id="graph0" class="graph" transform="scale(1 1) rotate(0) translate(4 610)">
<title>spdlog::sinks::base_sink&lt; Mutex &gt;</title>
<!-- Node1 -->
<g id="node1" class="node"><title>Node1</title>
<polygon fill="#bfbfbf" stroke="black" points="489.5,-322.5 489.5,-445.5 590.5,-445.5 590.5,-322.5 489.5,-322.5"/>
<text text-anchor="start" x="497.5" y="-433.5" font-family="Helvetica,sans-Serif" font-size="10.00">spdlog::sinks::base</text>
<text text-anchor="middle" x="540" y="-422.5" font-family="Helvetica,sans-Serif" font-size="10.00">_sink&lt; Mutex &gt;</text>
<polyline fill="none" stroke="black" points="489.5,-415.5 590.5,-415.5 "/>
<text text-anchor="start" x="497.5" y="-403.5" font-family="Helvetica,sans-Serif" font-size="10.00"># _mutex</text>
<polyline fill="none" stroke="black" points="489.5,-396.5 590.5,-396.5 "/>
<text text-anchor="start" x="497.5" y="-384.5" font-family="Helvetica,sans-Serif" font-size="10.00">+ base_sink()</text>
<text text-anchor="start" x="497.5" y="-373.5" font-family="Helvetica,sans-Serif" font-size="10.00">+ ~base_sink()</text>
<text text-anchor="start" x="497.5" y="-362.5" font-family="Helvetica,sans-Serif" font-size="10.00">+ base_sink()</text>
<text text-anchor="start" x="497.5" y="-351.5" font-family="Helvetica,sans-Serif" font-size="10.00">+ operator=()</text>
<text text-anchor="start" x="497.5" y="-340.5" font-family="Helvetica,sans-Serif" font-size="10.00">+ log()</text>
<text text-anchor="start" x="497.5" y="-329.5" font-family="Helvetica,sans-Serif" font-size="10.00"># _sink_it()</text>
</g>
<!-- Node3 -->
<g id="node3" class="node"><title>Node3</title>
<g id="a_node3"><a xlink:href="classspdlog_1_1sinks_1_1daily__file__sink.html" target="_top" xlink:title="{spdlog::sinks::daily\l_file_sink\&lt; Mutex \&gt;\n||+ daily_file_sink()\l+ flush()\l# _sink_it()\l}">
<polygon fill="none" stroke="black" points="-0.5,-151 -0.5,-241 102.5,-241 102.5,-151 -0.5,-151"/>
<text text-anchor="start" x="7.5" y="-229" font-family="Helvetica,sans-Serif" font-size="10.00">spdlog::sinks::daily</text>
<text text-anchor="middle" x="51" y="-218" font-family="Helvetica,sans-Serif" font-size="10.00">_file_sink&lt; Mutex &gt;</text>
<polyline fill="none" stroke="black" points="-0.5,-211 102.5,-211 "/>
<text text-anchor="middle" x="51" y="-199" font-family="Helvetica,sans-Serif" font-size="10.00"> </text>
<polyline fill="none" stroke="black" points="-0.5,-192 102.5,-192 "/>
<text text-anchor="start" x="7.5" y="-180" font-family="Helvetica,sans-Serif" font-size="10.00">+ daily_file_sink()</text>
<text text-anchor="start" x="7.5" y="-169" font-family="Helvetica,sans-Serif" font-size="10.00">+ flush()</text>
<text text-anchor="start" x="7.5" y="-158" font-family="Helvetica,sans-Serif" font-size="10.00"># _sink_it()</text>
</a>
</g>
</g>
<!-- Node1&#45;&gt;Node3 -->
<g id="edge2" class="edge"><title>Node1&#45;&gt;Node3</title>
<path fill="none" stroke="midnightblue" d="M479.053,-382.789C390.742,-379.669 225.389,-362.977 112,-286 95.5717,-274.847 82.2898,-257.672 72.3653,-241.373"/>
<polygon fill="none" stroke="midnightblue" points="479.07,-386.291 489.173,-383.099 479.285,-379.295 479.07,-386.291"/>
</g>
<!-- Node4 -->
<g id="node4" class="node"><title>Node4</title>
<g id="a_node4"><a xlink:href="classspdlog_1_1sinks_1_1dist__sink.html" target="_top" xlink:title="{spdlog::sinks::dist\l_sink\&lt; Mutex \&gt;\n|# _sinks\l|+ dist_sink()\l+ dist_sink()\l+ operator=()\l+ ~dist_sink()\l+ flush()\l+ add_sink()\l+ remove_sink()\l# _sink_it()\l}">
<polygon fill="none" stroke="black" points="121,-123.5 121,-268.5 217,-268.5 217,-123.5 121,-123.5"/>
<text text-anchor="start" x="129" y="-256.5" font-family="Helvetica,sans-Serif" font-size="10.00">spdlog::sinks::dist</text>
<text text-anchor="middle" x="169" y="-245.5" font-family="Helvetica,sans-Serif" font-size="10.00">_sink&lt; Mutex &gt;</text>
<polyline fill="none" stroke="black" points="121,-238.5 217,-238.5 "/>
<text text-anchor="start" x="129" y="-226.5" font-family="Helvetica,sans-Serif" font-size="10.00"># _sinks</text>
<polyline fill="none" stroke="black" points="121,-219.5 217,-219.5 "/>
<text text-anchor="start" x="129" y="-207.5" font-family="Helvetica,sans-Serif" font-size="10.00">+ dist_sink()</text>
<text text-anchor="start" x="129" y="-196.5" font-family="Helvetica,sans-Serif" font-size="10.00">+ dist_sink()</text>
<text text-anchor="start" x="129" y="-185.5" font-family="Helvetica,sans-Serif" font-size="10.00">+ operator=()</text>
<text text-anchor="start" x="129" y="-174.5" font-family="Helvetica,sans-Serif" font-size="10.00">+ ~dist_sink()</text>
<text text-anchor="start" x="129" y="-163.5" font-family="Helvetica,sans-Serif" font-size="10.00">+ flush()</text>
<text text-anchor="start" x="129" y="-152.5" font-family="Helvetica,sans-Serif" font-size="10.00">+ add_sink()</text>
<text text-anchor="start" x="129" y="-141.5" font-family="Helvetica,sans-Serif" font-size="10.00">+ remove_sink()</text>
<text text-anchor="start" x="129" y="-130.5" font-family="Helvetica,sans-Serif" font-size="10.00"># _sink_it()</text>
</a>
</g>
</g>
<!-- Node1&#45;&gt;Node4 -->
<g id="edge3" class="edge"><title>Node1&#45;&gt;Node4</title>
<path fill="none" stroke="midnightblue" d="M479.365,-376.806C411.629,-367.239 301.583,-343.505 226,-286 219.429,-281 213.407,-275.009 207.943,-268.528"/>
<polygon fill="none" stroke="midnightblue" points="479.073,-380.298 489.452,-378.17 480.012,-373.361 479.073,-380.298"/>
</g>
<!-- Node5 -->
<g id="node5" class="node"><title>Node5</title>
<g id="a_node5"><a xlink:href="classspdlog_1_1sinks_1_1null__sink.html" target="_top" xlink:title="{spdlog::sinks::null\l_sink\&lt; Mutex \&gt;\n||# _sink_it()\l# flush()\l}">
<polygon fill="none" stroke="black" points="235.5,-156.5 235.5,-235.5 330.5,-235.5 330.5,-156.5 235.5,-156.5"/>
<text text-anchor="start" x="243.5" y="-223.5" font-family="Helvetica,sans-Serif" font-size="10.00">spdlog::sinks::null</text>
<text text-anchor="middle" x="283" y="-212.5" font-family="Helvetica,sans-Serif" font-size="10.00">_sink&lt; Mutex &gt;</text>
<polyline fill="none" stroke="black" points="235.5,-205.5 330.5,-205.5 "/>
<text text-anchor="middle" x="283" y="-193.5" font-family="Helvetica,sans-Serif" font-size="10.00"> </text>
<polyline fill="none" stroke="black" points="235.5,-186.5 330.5,-186.5 "/>
<text text-anchor="start" x="243.5" y="-174.5" font-family="Helvetica,sans-Serif" font-size="10.00"># _sink_it()</text>
<text text-anchor="start" x="243.5" y="-163.5" font-family="Helvetica,sans-Serif" font-size="10.00"># flush()</text>
</a>
</g>
</g>
<!-- Node1&#45;&gt;Node5 -->
<g id="edge4" class="edge"><title>Node1&#45;&gt;Node5</title>
<path fill="none" stroke="midnightblue" d="M479.67,-363.69C437.097,-347.839 380.634,-322.1 340,-286 324.225,-271.986 311.121,-252.602 301.47,-235.502"/>
<polygon fill="none" stroke="midnightblue" points="478.485,-366.983 489.079,-367.117 480.88,-360.406 478.485,-366.983"/>
</g>
<!-- Node6 -->
<g id="node6" class="node"><title>Node6</title>
<g id="a_node6"><a xlink:href="classspdlog_1_1sinks_1_1ostream__sink.html" target="_top" xlink:title="{spdlog::sinks::ostream\l_sink\&lt; Mutex \&gt;\n|# _ostream\l# _force_flush\l|+ ostream_sink()\l+ ostream_sink()\l+ operator=()\l+ ~ostream_sink()\l# _sink_it()\l# flush()\l}">
<polygon fill="none" stroke="black" points="349,-129 349,-263 465,-263 465,-129 349,-129"/>
<text text-anchor="start" x="357" y="-251" font-family="Helvetica,sans-Serif" font-size="10.00">spdlog::sinks::ostream</text>
<text text-anchor="middle" x="407" y="-240" font-family="Helvetica,sans-Serif" font-size="10.00">_sink&lt; Mutex &gt;</text>
<polyline fill="none" stroke="black" points="349,-233 465,-233 "/>
<text text-anchor="start" x="357" y="-221" font-family="Helvetica,sans-Serif" font-size="10.00"># _ostream</text>
<text text-anchor="start" x="357" y="-210" font-family="Helvetica,sans-Serif" font-size="10.00"># _force_flush</text>
<polyline fill="none" stroke="black" points="349,-203 465,-203 "/>
<text text-anchor="start" x="357" y="-191" font-family="Helvetica,sans-Serif" font-size="10.00">+ ostream_sink()</text>
<text text-anchor="start" x="357" y="-180" font-family="Helvetica,sans-Serif" font-size="10.00">+ ostream_sink()</text>
<text text-anchor="start" x="357" y="-169" font-family="Helvetica,sans-Serif" font-size="10.00">+ operator=()</text>
<text text-anchor="start" x="357" y="-158" font-family="Helvetica,sans-Serif" font-size="10.00">+ ~ostream_sink()</text>
<text text-anchor="start" x="357" y="-147" font-family="Helvetica,sans-Serif" font-size="10.00"># _sink_it()</text>
<text text-anchor="start" x="357" y="-136" font-family="Helvetica,sans-Serif" font-size="10.00"># flush()</text>
</a>
</g>
</g>
<!-- Node1&#45;&gt;Node6 -->
<g id="edge5" class="edge"><title>Node1&#45;&gt;Node6</title>
<path fill="none" stroke="midnightblue" d="M490.504,-313.78C478.629,-297.172 465.977,-279.48 454.209,-263.021"/>
<polygon fill="none" stroke="midnightblue" points="487.971,-316.255 496.635,-322.354 493.665,-312.184 487.971,-316.255"/>
</g>
<!-- Node7 -->
<g id="node7" class="node"><title>Node7</title>
<g id="a_node7"><a xlink:href="classspdlog_1_1sinks_1_1rotating__file__sink.html" target="_top" xlink:title="{spdlog::sinks::rotating\l_file_sink\&lt; Mutex \&gt;\n||+ rotating_file_sink()\l+ flush()\l# _sink_it()\l}">
<polygon fill="none" stroke="black" points="483.5,-151 483.5,-241 596.5,-241 596.5,-151 483.5,-151"/>
<text text-anchor="start" x="491.5" y="-229" font-family="Helvetica,sans-Serif" font-size="10.00">spdlog::sinks::rotating</text>
<text text-anchor="middle" x="540" y="-218" font-family="Helvetica,sans-Serif" font-size="10.00">_file_sink&lt; Mutex &gt;</text>
<polyline fill="none" stroke="black" points="483.5,-211 596.5,-211 "/>
<text text-anchor="middle" x="540" y="-199" font-family="Helvetica,sans-Serif" font-size="10.00"> </text>
<polyline fill="none" stroke="black" points="483.5,-192 596.5,-192 "/>
<text text-anchor="start" x="491.5" y="-180" font-family="Helvetica,sans-Serif" font-size="10.00">+ rotating_file_sink()</text>
<text text-anchor="start" x="491.5" y="-169" font-family="Helvetica,sans-Serif" font-size="10.00">+ flush()</text>
<text text-anchor="start" x="491.5" y="-158" font-family="Helvetica,sans-Serif" font-size="10.00"># _sink_it()</text>
</a>
</g>
</g>
<!-- Node1&#45;&gt;Node7 -->
<g id="edge6" class="edge"><title>Node1&#45;&gt;Node7</title>
<path fill="none" stroke="midnightblue" d="M540,-312.248C540,-288.321 540,-262.308 540,-241.06"/>
<polygon fill="none" stroke="midnightblue" points="536.5,-312.354 540,-322.354 543.5,-312.354 536.5,-312.354"/>
</g>
<!-- Node8 -->
<g id="node8" class="node"><title>Node8</title>
<g id="a_node8"><a xlink:href="classspdlog_1_1sinks_1_1simple__file__sink.html" target="_top" xlink:title="{spdlog::sinks::simple\l_file_sink\&lt; Mutex \&gt;\n||+ simple_file_sink()\l+ flush()\l+ set_force_flush()\l# _sink_it()\l}">
<polygon fill="none" stroke="black" points="614.5,-145.5 614.5,-246.5 723.5,-246.5 723.5,-145.5 614.5,-145.5"/>
<text text-anchor="start" x="622.5" y="-234.5" font-family="Helvetica,sans-Serif" font-size="10.00">spdlog::sinks::simple</text>
<text text-anchor="middle" x="669" y="-223.5" font-family="Helvetica,sans-Serif" font-size="10.00">_file_sink&lt; Mutex &gt;</text>
<polyline fill="none" stroke="black" points="614.5,-216.5 723.5,-216.5 "/>
<text text-anchor="middle" x="669" y="-204.5" font-family="Helvetica,sans-Serif" font-size="10.00"> </text>
<polyline fill="none" stroke="black" points="614.5,-197.5 723.5,-197.5 "/>
<text text-anchor="start" x="622.5" y="-185.5" font-family="Helvetica,sans-Serif" font-size="10.00">+ simple_file_sink()</text>
<text text-anchor="start" x="622.5" y="-174.5" font-family="Helvetica,sans-Serif" font-size="10.00">+ flush()</text>
<text text-anchor="start" x="622.5" y="-163.5" font-family="Helvetica,sans-Serif" font-size="10.00">+ set_force_flush()</text>
<text text-anchor="start" x="622.5" y="-152.5" font-family="Helvetica,sans-Serif" font-size="10.00"># _sink_it()</text>
</a>
</g>
</g>
<!-- Node1&#45;&gt;Node8 -->
<g id="edge7" class="edge"><title>Node1&#45;&gt;Node8</title>
<path fill="none" stroke="midnightblue" d="M587.916,-313.912C603.389,-291.602 620.228,-267.322 634.531,-246.7"/>
<polygon fill="none" stroke="midnightblue" points="584.884,-312.142 582.061,-322.354 590.636,-316.132 584.884,-312.142"/>
</g>
<!-- Node9 -->
<g id="node9" class="node"><title>Node9</title>
<g id="a_node9"><a xlink:href="classspdlog_1_1sinks_1_1stderr__sink.html" target="_top" xlink:title="{spdlog::sinks::stderr\l_sink\&lt; Mutex \&gt;\n||+ stderr_sink()\l+ _sink_it()\l+ flush()\l+ instance()\l}">
<polygon fill="none" stroke="black" points="741.5,-145.5 741.5,-246.5 846.5,-246.5 846.5,-145.5 741.5,-145.5"/>
<text text-anchor="start" x="749.5" y="-234.5" font-family="Helvetica,sans-Serif" font-size="10.00">spdlog::sinks::stderr</text>
<text text-anchor="middle" x="794" y="-223.5" font-family="Helvetica,sans-Serif" font-size="10.00">_sink&lt; Mutex &gt;</text>
<polyline fill="none" stroke="black" points="741.5,-216.5 846.5,-216.5 "/>
<text text-anchor="middle" x="794" y="-204.5" font-family="Helvetica,sans-Serif" font-size="10.00"> </text>
<polyline fill="none" stroke="black" points="741.5,-197.5 846.5,-197.5 "/>
<text text-anchor="start" x="749.5" y="-185.5" font-family="Helvetica,sans-Serif" font-size="10.00">+ stderr_sink()</text>
<text text-anchor="start" x="749.5" y="-174.5" font-family="Helvetica,sans-Serif" font-size="10.00">+ _sink_it()</text>
<text text-anchor="start" x="749.5" y="-163.5" font-family="Helvetica,sans-Serif" font-size="10.00">+ flush()</text>
<text text-anchor="start" x="749.5" y="-152.5" font-family="Helvetica,sans-Serif" font-size="10.00">+ instance()</text>
</a>
</g>
</g>
<!-- Node1&#45;&gt;Node9 -->
<g id="edge8" class="edge"><title>Node1&#45;&gt;Node9</title>
<path fill="none" stroke="midnightblue" d="M600.022,-361.689C640.379,-345.317 693.104,-319.777 732,-286 744.796,-274.888 756.258,-260.589 765.742,-246.717"/>
<polygon fill="none" stroke="midnightblue" points="598.566,-358.502 590.567,-365.45 601.153,-365.006 598.566,-358.502"/>
</g>
<!-- Node10 -->
<g id="node10" class="node"><title>Node10</title>
<g id="a_node10"><a xlink:href="classspdlog_1_1sinks_1_1stdout__sink.html" target="_top" xlink:title="{spdlog::sinks::stdout\l_sink\&lt; Mutex \&gt;\n||+ stdout_sink()\l+ _sink_it()\l+ flush()\l+ instance()\l}">
<polygon fill="none" stroke="black" points="864.5,-145.5 864.5,-246.5 971.5,-246.5 971.5,-145.5 864.5,-145.5"/>
<text text-anchor="start" x="872.5" y="-234.5" font-family="Helvetica,sans-Serif" font-size="10.00">spdlog::sinks::stdout</text>
<text text-anchor="middle" x="918" y="-223.5" font-family="Helvetica,sans-Serif" font-size="10.00">_sink&lt; Mutex &gt;</text>
<polyline fill="none" stroke="black" points="864.5,-216.5 971.5,-216.5 "/>
<text text-anchor="middle" x="918" y="-204.5" font-family="Helvetica,sans-Serif" font-size="10.00"> </text>
<polyline fill="none" stroke="black" points="864.5,-197.5 971.5,-197.5 "/>
<text text-anchor="start" x="872.5" y="-185.5" font-family="Helvetica,sans-Serif" font-size="10.00">+ stdout_sink()</text>
<text text-anchor="start" x="872.5" y="-174.5" font-family="Helvetica,sans-Serif" font-size="10.00">+ _sink_it()</text>
<text text-anchor="start" x="872.5" y="-163.5" font-family="Helvetica,sans-Serif" font-size="10.00">+ flush()</text>
<text text-anchor="start" x="872.5" y="-152.5" font-family="Helvetica,sans-Serif" font-size="10.00">+ instance()</text>
</a>
</g>
</g>
<!-- Node1&#45;&gt;Node10 -->
<g id="edge9" class="edge"><title>Node1&#45;&gt;Node10</title>
<path fill="none" stroke="midnightblue" d="M600.633,-376.161C668.171,-366.022 777.966,-341.786 855,-286 869.259,-275.674 881.473,-261.105 891.245,-246.738"/>
<polygon fill="none" stroke="midnightblue" points="599.973,-372.72 590.576,-377.613 600.973,-379.648 599.973,-372.72"/>
</g>
<!-- Node11 -->
<g id="node11" class="node"><title>Node11</title>
<g id="a_node11"><a xlink:href="classspdlog_1_1sinks_1_1wincolor__sink.html" target="_top" xlink:title="{spdlog::sinks::wincolor\l_sink\&lt; Mutex \&gt;\n|+ BOLD\l+ RED\l+ CYAN\l+ WHITE\l+ YELLOW\l|+ wincolor_sink()\l+ ~wincolor_sink()\l+ wincolor_sink()\l+ operator=()\l+ _sink_it()\l+ flush()\l+ set_color()\l}">
<polygon fill="none" stroke="black" points="990,-107 990,-285 1106,-285 1106,-107 990,-107"/>
<text text-anchor="start" x="998" y="-273" font-family="Helvetica,sans-Serif" font-size="10.00">spdlog::sinks::wincolor</text>
<text text-anchor="middle" x="1048" y="-262" font-family="Helvetica,sans-Serif" font-size="10.00">_sink&lt; Mutex &gt;</text>
<polyline fill="none" stroke="black" points="990,-255 1106,-255 "/>
<text text-anchor="start" x="998" y="-243" font-family="Helvetica,sans-Serif" font-size="10.00">+ BOLD</text>
<text text-anchor="start" x="998" y="-232" font-family="Helvetica,sans-Serif" font-size="10.00">+ RED</text>
<text text-anchor="start" x="998" y="-221" font-family="Helvetica,sans-Serif" font-size="10.00">+ CYAN</text>
<text text-anchor="start" x="998" y="-210" font-family="Helvetica,sans-Serif" font-size="10.00">+ WHITE</text>
<text text-anchor="start" x="998" y="-199" font-family="Helvetica,sans-Serif" font-size="10.00">+ YELLOW</text>
<polyline fill="none" stroke="black" points="990,-192 1106,-192 "/>
<text text-anchor="start" x="998" y="-180" font-family="Helvetica,sans-Serif" font-size="10.00">+ wincolor_sink()</text>
<text text-anchor="start" x="998" y="-169" font-family="Helvetica,sans-Serif" font-size="10.00">+ ~wincolor_sink()</text>
<text text-anchor="start" x="998" y="-158" font-family="Helvetica,sans-Serif" font-size="10.00">+ wincolor_sink()</text>
<text text-anchor="start" x="998" y="-147" font-family="Helvetica,sans-Serif" font-size="10.00">+ operator=()</text>
<text text-anchor="start" x="998" y="-136" font-family="Helvetica,sans-Serif" font-size="10.00">+ _sink_it()</text>
<text text-anchor="start" x="998" y="-125" font-family="Helvetica,sans-Serif" font-size="10.00">+ flush()</text>
<text text-anchor="start" x="998" y="-114" font-family="Helvetica,sans-Serif" font-size="10.00">+ set_color()</text>
</a>
</g>
</g>
<!-- Node1&#45;&gt;Node11 -->
<g id="edge10" class="edge"><title>Node1&#45;&gt;Node11</title>
<path fill="none" stroke="midnightblue" d="M600.753,-382.491C690.509,-379.054 860.766,-362.034 980,-286 983.279,-283.909 986.461,-281.601 989.54,-279.124"/>
<polygon fill="none" stroke="midnightblue" points="600.617,-378.994 590.742,-382.83 600.855,-385.989 600.617,-378.994"/>
</g>
<!-- Node2 -->
<g id="node2" class="node"><title>Node2</title>
<g id="a_node2"><a xlink:href="classspdlog_1_1sinks_1_1sink.html" target="_top" xlink:title="{spdlog::sinks::sink\n||+ sink()\l+ ~sink()\l+ log()\l+ flush()\l+ should_log()\l+ set_level()\l+ level()\l}">
<polygon fill="none" stroke="black" points="491,-482.5 491,-605.5 589,-605.5 589,-482.5 491,-482.5"/>
<text text-anchor="middle" x="540" y="-593.5" font-family="Helvetica,sans-Serif" font-size="10.00">spdlog::sinks::sink</text>
<polyline fill="none" stroke="black" points="491,-586.5 589,-586.5 "/>
<text text-anchor="middle" x="540" y="-574.5" font-family="Helvetica,sans-Serif" font-size="10.00"> </text>
<polyline fill="none" stroke="black" points="491,-567.5 589,-567.5 "/>
<text text-anchor="start" x="499" y="-555.5" font-family="Helvetica,sans-Serif" font-size="10.00">+ sink()</text>
<text text-anchor="start" x="499" y="-544.5" font-family="Helvetica,sans-Serif" font-size="10.00">+ ~sink()</text>
<text text-anchor="start" x="499" y="-533.5" font-family="Helvetica,sans-Serif" font-size="10.00">+ log()</text>
<text text-anchor="start" x="499" y="-522.5" font-family="Helvetica,sans-Serif" font-size="10.00">+ flush()</text>
<text text-anchor="start" x="499" y="-511.5" font-family="Helvetica,sans-Serif" font-size="10.00">+ should_log()</text>
<text text-anchor="start" x="499" y="-500.5" font-family="Helvetica,sans-Serif" font-size="10.00">+ set_level()</text>
<text text-anchor="start" x="499" y="-489.5" font-family="Helvetica,sans-Serif" font-size="10.00">+ level()</text>
</a>
</g>
</g>
<!-- Node2&#45;&gt;Node1 -->
<g id="edge1" class="edge"><title>Node2&#45;&gt;Node1</title>
<path fill="none" stroke="midnightblue" d="M540,-472.116C540,-463.31 540,-454.368 540,-445.734"/>
<polygon fill="none" stroke="midnightblue" points="536.5,-472.365 540,-482.365 543.5,-472.365 536.5,-472.365"/>
</g>
<!-- Node12 -->
<g id="node12" class="node"><title>Node12</title>
<g id="a_node12"><a xlink:href="classspdlog_1_1sinks_1_1wincolor__stderr__sink.html" target="_top" xlink:title="{spdlog::sinks::wincolor\l_stderr_sink\&lt; Mutex \&gt;\n||+ wincolor_stderr_sink()\l}">
<polygon fill="none" stroke="black" points="917.5,-1 917.5,-69 1038.5,-69 1038.5,-1 917.5,-1"/>
<text text-anchor="start" x="925.5" y="-57" font-family="Helvetica,sans-Serif" font-size="10.00">spdlog::sinks::wincolor</text>
<text text-anchor="middle" x="978" y="-46" font-family="Helvetica,sans-Serif" font-size="10.00">_stderr_sink&lt; Mutex &gt;</text>
<polyline fill="none" stroke="black" points="917.5,-39 1038.5,-39 "/>
<text text-anchor="middle" x="978" y="-27" font-family="Helvetica,sans-Serif" font-size="10.00"> </text>
<polyline fill="none" stroke="black" points="917.5,-20 1038.5,-20 "/>
<text text-anchor="start" x="925.5" y="-8" font-family="Helvetica,sans-Serif" font-size="10.00">+ wincolor_stderr_sink()</text>
</a>
</g>
</g>
<!-- Node11&#45;&gt;Node12 -->
<g id="edge11" class="edge"><title>Node11&#45;&gt;Node12</title>
<path fill="none" stroke="midnightblue" d="M1005.03,-97.3921C1000.63,-87.3964 996.404,-77.8041 992.658,-69.2938"/>
<polygon fill="none" stroke="midnightblue" points="1001.88,-98.9236 1009.11,-106.666 1008.28,-96.1031 1001.88,-98.9236"/>
</g>
<!-- Node13 -->
<g id="node13" class="node"><title>Node13</title>
<g id="a_node13"><a xlink:href="classspdlog_1_1sinks_1_1wincolor__stdout__sink.html" target="_top" xlink:title="{spdlog::sinks::wincolor\l_stdout_sink\&lt; Mutex \&gt;\n||+ wincolor_stdout_sink()\l}">
<polygon fill="none" stroke="black" points="1056.5,-1 1056.5,-69 1179.5,-69 1179.5,-1 1056.5,-1"/>
<text text-anchor="start" x="1064.5" y="-57" font-family="Helvetica,sans-Serif" font-size="10.00">spdlog::sinks::wincolor</text>
<text text-anchor="middle" x="1118" y="-46" font-family="Helvetica,sans-Serif" font-size="10.00">_stdout_sink&lt; Mutex &gt;</text>
<polyline fill="none" stroke="black" points="1056.5,-39 1179.5,-39 "/>
<text text-anchor="middle" x="1118" y="-27" font-family="Helvetica,sans-Serif" font-size="10.00"> </text>
<polyline fill="none" stroke="black" points="1056.5,-20 1179.5,-20 "/>
<text text-anchor="start" x="1064.5" y="-8" font-family="Helvetica,sans-Serif" font-size="10.00">+ wincolor_stdout_sink()</text>
</a>
</g>
</g>
<!-- Node11&#45;&gt;Node13 -->
<g id="edge12" class="edge"><title>Node11&#45;&gt;Node13</title>
<path fill="none" stroke="midnightblue" d="M1090.97,-97.3921C1095.37,-87.3964 1099.6,-77.8041 1103.34,-69.2938"/>
<polygon fill="none" stroke="midnightblue" points="1087.72,-96.1031 1086.89,-106.666 1094.12,-98.9236 1087.72,-96.1031"/>
</g>
</g>
</svg>
