<?xml version="1.0" encoding="UTF-8" standalone="no"?>
<!DOCTYPE svg PUBLIC "-//W3C//DTD SVG 1.1//EN"
 "http://www.w3.org/Graphics/SVG/1.1/DTD/svg11.dtd">
<!-- Generated by graphviz version 2.36.0 (20140111.2315)
 -->
<!-- Title: fmt::ArgList Pages: 1 -->
<svg width="646pt" height="542pt"
 viewBox="0.00 0.00 646.00 542.00" xmlns="http://www.w3.org/2000/svg" xmlns:xlink="http://www.w3.org/1999/xlink">
<g id="graph0" class="graph" transform="scale(1 1) rotate(0) translate(4 538)">
<title>fmt::ArgList</title>
<!-- Node1 -->
<g id="node1" class="node"><title>Node1</title>
<polygon fill="#bfbfbf" stroke="black" points="293.5,-1 293.5,-113 366.5,-113 366.5,-1 293.5,-1"/>
<text text-anchor="middle" x="330" y="-101" font-family="Helvetica,sans-Serif" font-size="10.00">fmt::ArgList</text>
<polyline fill="none" stroke="black" points="293.5,-94 366.5,-94 "/>
<text text-anchor="middle" x="330" y="-82" font-family="Helvetica,sans-Serif" font-size="10.00"> </text>
<polyline fill="none" stroke="black" points="293.5,-75 366.5,-75 "/>
<text text-anchor="start" x="301.5" y="-63" font-family="Helvetica,sans-Serif" font-size="10.00">+ ArgList()</text>
<text text-anchor="start" x="301.5" y="-52" font-family="Helvetica,sans-Serif" font-size="10.00">+ ArgList()</text>
<text text-anchor="start" x="301.5" y="-41" font-family="Helvetica,sans-Serif" font-size="10.00">+ ArgList()</text>
<text text-anchor="start" x="301.5" y="-30" font-family="Helvetica,sans-Serif" font-size="10.00">+ types()</text>
<text text-anchor="start" x="301.5" y="-19" font-family="Helvetica,sans-Serif" font-size="10.00">+ operator[]()</text>
<text text-anchor="start" x="301.5" y="-8" font-family="Helvetica,sans-Serif" font-size="10.00">+ type()</text>
</g>
<!-- Node2 -->
<g id="node2" class="node"><title>Node2</title>
<g id="a_node2"><a xlink:href="structfmt_1_1internal_1_1Value.html" target="_top" xlink:title="{fmt::internal::Value\n|+ int_value\l+ uint_value\l+ long_long_value\l+ ulong_long_value\l+ double_value\l+ long_double_value\l+ pointer\l+ @3\l|}">
<polygon fill="none" stroke="black" points="255,-259 255,-393 361,-393 361,-259 255,-259"/>
<text text-anchor="middle" x="308" y="-381" font-family="Helvetica,sans-Serif" font-size="10.00">fmt::internal::Value</text>
<polyline fill="none" stroke="black" points="255,-374 361,-374 "/>
<text text-anchor="start" x="263" y="-362" font-family="Helvetica,sans-Serif" font-size="10.00">+ int_value</text>
<text text-anchor="start" x="263" y="-351" font-family="Helvetica,sans-Serif" font-size="10.00">+ uint_value</text>
<text text-anchor="start" x="263" y="-340" font-family="Helvetica,sans-Serif" font-size="10.00">+ long_long_value</text>
<text text-anchor="start" x="263" y="-329" font-family="Helvetica,sans-Serif" font-size="10.00">+ ulong_long_value</text>
<text text-anchor="start" x="263" y="-318" font-family="Helvetica,sans-Serif" font-size="10.00">+ double_value</text>
<text text-anchor="start" x="263" y="-307" font-family="Helvetica,sans-Serif" font-size="10.00">+ long_double_value</text>
<text text-anchor="start" x="263" y="-296" font-family="Helvetica,sans-Serif" font-size="10.00">+ pointer</text>
<text text-anchor="start" x="263" y="-285" font-family="Helvetica,sans-Serif" font-size="10.00">+ @3</text>
<polyline fill="none" stroke="black" points="255,-278 361,-278 "/>
<text text-anchor="middle" x="308" y="-266" font-family="Helvetica,sans-Serif" font-size="10.00"> </text>
</a>
</g>
</g>
<!-- Node2&#45;&gt;Node1 -->
<g id="edge1" class="edge"><title>Node2&#45;&gt;Node1</title>
<path fill="none" stroke="#404040" d="M302.714,-258.97C301.38,-229.241 301.236,-193.761 305,-162 306.426,-149.967 308.749,-137.312 311.419,-125.133"/>
<polygon fill="none" stroke="#404040" points="311.486,-124.847 308.938,-118.101 314.185,-113.154 316.733,-119.9 311.486,-124.847"/>
<text text-anchor="middle" x="326.5" y="-188.5" font-family="Helvetica,sans-Serif" font-size="10.00"> +values_</text>
</g>
<!-- Node8 -->
<g id="node8" class="node"><title>Node8</title>
<g id="a_node8"><a xlink:href="structfmt_1_1internal_1_1Arg.html" target="_top" xlink:title="{fmt::internal::Arg\n|+ type\l|}">
<polygon fill="none" stroke="black" points="357.5,-162.5 357.5,-219.5 446.5,-219.5 446.5,-162.5 357.5,-162.5"/>
<text text-anchor="middle" x="402" y="-207.5" font-family="Helvetica,sans-Serif" font-size="10.00">fmt::internal::Arg</text>
<polyline fill="none" stroke="black" points="357.5,-200.5 446.5,-200.5 "/>
<text text-anchor="start" x="365.5" y="-188.5" font-family="Helvetica,sans-Serif" font-size="10.00">+ type</text>
<polyline fill="none" stroke="black" points="357.5,-181.5 446.5,-181.5 "/>
<text text-anchor="middle" x="402" y="-169.5" font-family="Helvetica,sans-Serif" font-size="10.00"> </text>
</a>
</g>
</g>
<!-- Node2&#45;&gt;Node8 -->
<g id="edge8" class="edge"><title>Node2&#45;&gt;Node8</title>
<path fill="none" stroke="midnightblue" d="M360.665,-250.485C368.399,-239.542 375.925,-228.893 382.389,-219.747"/>
<polygon fill="none" stroke="midnightblue" points="357.638,-248.703 354.725,-258.89 363.355,-252.743 357.638,-248.703"/>
</g>
<!-- Node3 -->
<g id="node3" class="node"><title>Node3</title>
<g id="a_node3"><a xlink:href="structfmt_1_1internal_1_1Value_1_1StringValue.html" target="_top" xlink:title="{fmt::internal::Value\l::StringValue\&lt; signed\l char \&gt;\n|+ value\l+ size\l|}">
<polygon fill="none" stroke="black" points="0,-443 0,-533 110,-533 110,-443 0,-443"/>
<text text-anchor="start" x="8" y="-521" font-family="Helvetica,sans-Serif" font-size="10.00">fmt::internal::Value</text>
<text text-anchor="start" x="8" y="-510" font-family="Helvetica,sans-Serif" font-size="10.00">::StringValue&lt; signed</text>
<text text-anchor="middle" x="55" y="-499" font-family="Helvetica,sans-Serif" font-size="10.00"> char &gt;</text>
<polyline fill="none" stroke="black" points="0,-492 110,-492 "/>
<text text-anchor="start" x="8" y="-480" font-family="Helvetica,sans-Serif" font-size="10.00">+ value</text>
<text text-anchor="start" x="8" y="-469" font-family="Helvetica,sans-Serif" font-size="10.00">+ size</text>
<polyline fill="none" stroke="black" points="0,-462 110,-462 "/>
<text text-anchor="middle" x="55" y="-450" font-family="Helvetica,sans-Serif" font-size="10.00"> </text>
</a>
</g>
</g>
<!-- Node3&#45;&gt;Node2 -->
<g id="edge2" class="edge"><title>Node3&#45;&gt;Node2</title>
<path fill="none" stroke="#404040" d="M110.349,-447.747C113.263,-445.786 116.159,-443.86 119,-442 160.092,-415.094 207.29,-386.374 244.242,-364.365"/>
<polygon fill="none" stroke="#404040" points="244.552,-364.18 247.668,-357.677 254.869,-358.052 251.754,-364.555 244.552,-364.18"/>
<text text-anchor="middle" x="185.5" y="-415.5" font-family="Helvetica,sans-Serif" font-size="10.00"> +sstring</text>
</g>
<!-- Node4 -->
<g id="node4" class="node"><title>Node4</title>
<g id="a_node4"><a xlink:href="structfmt_1_1internal_1_1Value_1_1CustomValue.html" target="_top" xlink:title="{fmt::internal::Value\l::CustomValue\n|+ value\l+ format\l|}">
<polygon fill="none" stroke="black" points="128.5,-448.5 128.5,-527.5 227.5,-527.5 227.5,-448.5 128.5,-448.5"/>
<text text-anchor="start" x="136.5" y="-515.5" font-family="Helvetica,sans-Serif" font-size="10.00">fmt::internal::Value</text>
<text text-anchor="middle" x="178" y="-504.5" font-family="Helvetica,sans-Serif" font-size="10.00">::CustomValue</text>
<polyline fill="none" stroke="black" points="128.5,-497.5 227.5,-497.5 "/>
<text text-anchor="start" x="136.5" y="-485.5" font-family="Helvetica,sans-Serif" font-size="10.00">+ value</text>
<text text-anchor="start" x="136.5" y="-474.5" font-family="Helvetica,sans-Serif" font-size="10.00">+ format</text>
<polyline fill="none" stroke="black" points="128.5,-467.5 227.5,-467.5 "/>
<text text-anchor="middle" x="178" y="-455.5" font-family="Helvetica,sans-Serif" font-size="10.00"> </text>
</a>
</g>
</g>
<!-- Node4&#45;&gt;Node2 -->
<g id="edge3" class="edge"><title>Node4&#45;&gt;Node2</title>
<path fill="none" stroke="#404040" d="M209.469,-448.268C220.839,-434.275 234.094,-417.962 247.126,-401.922"/>
<polygon fill="none" stroke="#404040" points="247.191,-401.842 247.87,-394.663 254.758,-392.529 254.079,-399.708 247.191,-401.842"/>
<text text-anchor="middle" x="257" y="-415.5" font-family="Helvetica,sans-Serif" font-size="10.00"> +custom</text>
</g>
<!-- Node5 -->
<g id="node5" class="node"><title>Node5</title>
<g id="a_node5"><a xlink:href="structfmt_1_1internal_1_1Value_1_1StringValue.html" target="_top" xlink:title="{fmt::internal::Value\l::StringValue\&lt; wchar_t \&gt;\n|+ value\l+ size\l|}">
<polygon fill="none" stroke="black" points="245.5,-448.5 245.5,-527.5 370.5,-527.5 370.5,-448.5 245.5,-448.5"/>
<text text-anchor="start" x="253.5" y="-515.5" font-family="Helvetica,sans-Serif" font-size="10.00">fmt::internal::Value</text>
<text text-anchor="middle" x="308" y="-504.5" font-family="Helvetica,sans-Serif" font-size="10.00">::StringValue&lt; wchar_t &gt;</text>
<polyline fill="none" stroke="black" points="245.5,-497.5 370.5,-497.5 "/>
<text text-anchor="start" x="253.5" y="-485.5" font-family="Helvetica,sans-Serif" font-size="10.00">+ value</text>
<text text-anchor="start" x="253.5" y="-474.5" font-family="Helvetica,sans-Serif" font-size="10.00">+ size</text>
<polyline fill="none" stroke="black" points="245.5,-467.5 370.5,-467.5 "/>
<text text-anchor="middle" x="308" y="-455.5" font-family="Helvetica,sans-Serif" font-size="10.00"> </text>
</a>
</g>
</g>
<!-- Node5&#45;&gt;Node2 -->
<g id="edge4" class="edge"><title>Node5&#45;&gt;Node2</title>
<path fill="none" stroke="#404040" d="M308,-448.268C308,-435.335 308,-420.42 308,-405.57"/>
<polygon fill="none" stroke="#404040" points="308,-405.157 304,-399.157 308,-393.157 312,-399.157 308,-405.157"/>
<text text-anchor="middle" x="328.5" y="-415.5" font-family="Helvetica,sans-Serif" font-size="10.00"> +wstring</text>
</g>
<!-- Node6 -->
<g id="node6" class="node"><title>Node6</title>
<g id="a_node6"><a xlink:href="structfmt_1_1internal_1_1Value_1_1StringValue.html" target="_top" xlink:title="{fmt::internal::Value\l::StringValue\&lt; unsigned\l char \&gt;\n|+ value\l+ size\l|}">
<polygon fill="none" stroke="black" points="388.5,-443 388.5,-533 509.5,-533 509.5,-443 388.5,-443"/>
<text text-anchor="start" x="396.5" y="-521" font-family="Helvetica,sans-Serif" font-size="10.00">fmt::internal::Value</text>
<text text-anchor="start" x="396.5" y="-510" font-family="Helvetica,sans-Serif" font-size="10.00">::StringValue&lt; unsigned</text>
<text text-anchor="middle" x="449" y="-499" font-family="Helvetica,sans-Serif" font-size="10.00"> char &gt;</text>
<polyline fill="none" stroke="black" points="388.5,-492 509.5,-492 "/>
<text text-anchor="start" x="396.5" y="-480" font-family="Helvetica,sans-Serif" font-size="10.00">+ value</text>
<text text-anchor="start" x="396.5" y="-469" font-family="Helvetica,sans-Serif" font-size="10.00">+ size</text>
<polyline fill="none" stroke="black" points="388.5,-462 509.5,-462 "/>
<text text-anchor="middle" x="449" y="-450" font-family="Helvetica,sans-Serif" font-size="10.00"> </text>
</a>
</g>
</g>
<!-- Node6&#45;&gt;Node2 -->
<g id="edge5" class="edge"><title>Node6&#45;&gt;Node2</title>
<path fill="none" stroke="#404040" d="M410.098,-442.856C397.424,-428.474 383.032,-412.142 369.134,-396.372"/>
<polygon fill="none" stroke="#404040" points="368.959,-396.173 361.991,-394.316 361.025,-387.17 367.993,-389.027 368.959,-396.173"/>
<text text-anchor="middle" x="411.5" y="-415.5" font-family="Helvetica,sans-Serif" font-size="10.00"> +ustring</text>
</g>
<!-- Node7 -->
<g id="node7" class="node"><title>Node7</title>
<g id="a_node7"><a xlink:href="structfmt_1_1internal_1_1Value_1_1StringValue.html" target="_top" xlink:title="{fmt::internal::Value\l::StringValue\&lt; char \&gt;\n|+ value\l+ size\l|}">
<polygon fill="none" stroke="black" points="528,-448.5 528,-527.5 638,-527.5 638,-448.5 528,-448.5"/>
<text text-anchor="start" x="536" y="-515.5" font-family="Helvetica,sans-Serif" font-size="10.00">fmt::internal::Value</text>
<text text-anchor="middle" x="583" y="-504.5" font-family="Helvetica,sans-Serif" font-size="10.00">::StringValue&lt; char &gt;</text>
<polyline fill="none" stroke="black" points="528,-497.5 638,-497.5 "/>
<text text-anchor="start" x="536" y="-485.5" font-family="Helvetica,sans-Serif" font-size="10.00">+ value</text>
<text text-anchor="start" x="536" y="-474.5" font-family="Helvetica,sans-Serif" font-size="10.00">+ size</text>
<polyline fill="none" stroke="black" points="528,-467.5 638,-467.5 "/>
<text text-anchor="middle" x="583" y="-455.5" font-family="Helvetica,sans-Serif" font-size="10.00"> </text>
</a>
</g>
</g>
<!-- Node7&#45;&gt;Node2 -->
<g id="edge6" class="edge"><title>Node7&#45;&gt;Node2</title>
<path fill="none" stroke="#404040" d="M527.943,-448.303C524.602,-446.135 521.27,-444.019 518,-442 470.013,-412.362 413.899,-381.835 371.754,-359.687"/>
<polygon fill="none" stroke="#404040" points="371.712,-359.665 364.541,-360.426 361.081,-354.1 368.252,-353.339 371.712,-359.665"/>
<text text-anchor="middle" x="502" y="-415.5" font-family="Helvetica,sans-Serif" font-size="10.00"> +string</text>
</g>
<!-- Node8&#45;&gt;Node1 -->
<g id="edge7" class="edge"><title>Node8&#45;&gt;Node1</title>
<path fill="none" stroke="#404040" d="M386.906,-162.328C380.757,-151.054 373.362,-137.496 365.968,-123.942"/>
<polygon fill="none" stroke="#404040" points="365.809,-123.651 359.425,-120.299 360.063,-113.116 366.448,-116.468 365.809,-123.651"/>
<text text-anchor="middle" x="394" y="-135.5" font-family="Helvetica,sans-Serif" font-size="10.00"> +args_</text>
</g>
</g>
</svg>
