<?xml version="1.0" encoding="UTF-8" standalone="no"?>
<!DOCTYPE svg PUBLIC "-//W3C//DTD SVG 1.1//EN"
 "http://www.w3.org/Graphics/SVG/1.1/DTD/svg11.dtd">
<!-- Generated by graphviz version 2.38.0 (20140413.2041)
 -->
<!-- Title: XBot::KinematicChain Pages: 1 -->
<svg width="928pt" height="547pt"
 viewBox="0.00 0.00 927.50 547.00" xmlns="http://www.w3.org/2000/svg" xmlns:xlink="http://www.w3.org/1999/xlink">
<g id="graph0" class="graph" transform="scale(1 1) rotate(0) translate(4 543)">
<title>XBot::KinematicChain</title>
<!-- Node1 -->
<g id="node1" class="node"><title>Node1</title>
<polygon fill="#bfbfbf" stroke="black" points="433,-0.5 433,-200.5 564,-200.5 564,-0.5 433,-0.5"/>
<text text-anchor="middle" x="498.5" y="-188.5" font-family="Helvetica,sans-Serif" font-size="10.00">XBot::KinematicChain</text>
<polyline fill="none" stroke="black" points="433,-181.5 564,-181.5 "/>
<text text-anchor="middle" x="498.5" y="-169.5" font-family="Helvetica,sans-Serif" font-size="10.00"> </text>
<polyline fill="none" stroke="black" points="433,-162.5 564,-162.5 "/>
<text text-anchor="start" x="441" y="-150.5" font-family="Helvetica,sans-Serif" font-size="10.00">+ KinematicChain()</text>
<text text-anchor="start" x="441" y="-139.5" font-family="Helvetica,sans-Serif" font-size="10.00">+ KinematicChain()</text>
<text text-anchor="start" x="441" y="-128.5" font-family="Helvetica,sans-Serif" font-size="10.00">+ KinematicChain()</text>
<text text-anchor="start" x="441" y="-117.5" font-family="Helvetica,sans-Serif" font-size="10.00">+ KinematicChain()</text>
<text text-anchor="start" x="441" y="-106.5" font-family="Helvetica,sans-Serif" font-size="10.00">+ operator=()</text>
<text text-anchor="start" x="441" y="-95.5" font-family="Helvetica,sans-Serif" font-size="10.00">+ getChainState()</text>
<text text-anchor="start" x="441" y="-84.5" font-family="Helvetica,sans-Serif" font-size="10.00">+ getChainState()</text>
<text text-anchor="start" x="441" y="-73.5" font-family="Helvetica,sans-Serif" font-size="10.00">+ getChainState()</text>
<text text-anchor="start" x="441" y="-62.5" font-family="Helvetica,sans-Serif" font-size="10.00">+ getForceTorque()</text>
<text text-anchor="start" x="441" y="-51.5" font-family="Helvetica,sans-Serif" font-size="10.00">+ getImu()</text>
<text text-anchor="start" x="441" y="-40.5" font-family="Helvetica,sans-Serif" font-size="10.00">and 141 more...</text>
<text text-anchor="start" x="441" y="-29.5" font-family="Helvetica,sans-Serif" font-size="10.00"># getJointInternal()</text>
<text text-anchor="start" x="441" y="-18.5" font-family="Helvetica,sans-Serif" font-size="10.00"># getForceTorqueInternal()</text>
<text text-anchor="start" x="441" y="-7.5" font-family="Helvetica,sans-Serif" font-size="10.00"># getImuInternal()</text>
</g>
<!-- Node2 -->
<g id="node2" class="node"><title>Node2</title>
<polygon fill="none" stroke="#bfbfbf" points="0,-248.5 0,-327.5 133,-327.5 133,-248.5 0,-248.5"/>
<text text-anchor="start" x="8" y="-315.5" font-family="Helvetica,sans-Serif" font-size="10.00">std::map&lt; std::string,</text>
<text text-anchor="start" x="8" y="-304.5" font-family="Helvetica,sans-Serif" font-size="10.00"> XBot::ForceTorqueSensor</text>
<text text-anchor="middle" x="66.5" y="-293.5" font-family="Helvetica,sans-Serif" font-size="10.00">::Ptr &gt;</text>
<polyline fill="none" stroke="#bfbfbf" points="0,-286.5 133,-286.5 "/>
<text text-anchor="start" x="8" y="-274.5" font-family="Helvetica,sans-Serif" font-size="10.00">+ elements</text>
<polyline fill="none" stroke="#bfbfbf" points="0,-267.5 133,-267.5 "/>
<text text-anchor="middle" x="66.5" y="-255.5" font-family="Helvetica,sans-Serif" font-size="10.00"> </text>
</g>
<!-- Node2&#45;&gt;Node1 -->
<g id="edge1" class="edge"><title>Node2&#45;&gt;Node1</title>
<path fill="none" stroke="#404040" d="M133.073,-252.439C136.249,-250.916 139.403,-249.429 142.5,-248 237.261,-204.282 348.868,-159.392 421.516,-131.024"/>
<polygon fill="none" stroke="#404040" points="421.651,-130.972 425.79,-125.067 432.833,-126.616 428.694,-132.521 421.651,-130.972"/>
<text text-anchor="middle" x="222.5" y="-222" font-family="Helvetica,sans-Serif" font-size="10.00"> #_ft_map</text>
</g>
<!-- Node3 -->
<g id="node3" class="node"><title>Node3</title>
<g id="a_node3"><a xlink:title="STL class. ">
<polygon fill="none" stroke="#bfbfbf" points="182.5,-375.5 182.5,-432.5 242.5,-432.5 242.5,-375.5 182.5,-375.5"/>
<text text-anchor="middle" x="212.5" y="-420.5" font-family="Helvetica,sans-Serif" font-size="10.00">std::string</text>
<polyline fill="none" stroke="#bfbfbf" points="182.5,-413.5 242.5,-413.5 "/>
<text text-anchor="middle" x="212.5" y="-401.5" font-family="Helvetica,sans-Serif" font-size="10.00"> </text>
<polyline fill="none" stroke="#bfbfbf" points="182.5,-394.5 242.5,-394.5 "/>
<text text-anchor="middle" x="212.5" y="-382.5" font-family="Helvetica,sans-Serif" font-size="10.00"> </text>
</a>
</g>
</g>
<!-- Node3&#45;&gt;Node2 -->
<g id="edge2" class="edge"><title>Node3&#45;&gt;Node2</title>
<path fill="none" stroke="#404040" d="M182.249,-379.379C165.886,-366.603 145.099,-350.372 125.669,-335.201"/>
<polygon fill="none" stroke="#404040" points="125.424,-335.009 118.233,-334.469 115.966,-327.624 123.156,-328.164 125.424,-335.009"/>
<text text-anchor="middle" x="169" y="-349" font-family="Helvetica,sans-Serif" font-size="10.00"> +keys</text>
</g>
<!-- Node5 -->
<g id="node5" class="node"><title>Node5</title>
<polygon fill="none" stroke="#bfbfbf" points="151.5,-254 151.5,-322 273.5,-322 273.5,-254 151.5,-254"/>
<text text-anchor="start" x="159.5" y="-310" font-family="Helvetica,sans-Serif" font-size="10.00">std::map&lt; std::string,</text>
<text text-anchor="middle" x="212.5" y="-299" font-family="Helvetica,sans-Serif" font-size="10.00"> XBot::ImuSensor::Ptr &gt;</text>
<polyline fill="none" stroke="#bfbfbf" points="151.5,-292 273.5,-292 "/>
<text text-anchor="start" x="159.5" y="-280" font-family="Helvetica,sans-Serif" font-size="10.00">+ elements</text>
<polyline fill="none" stroke="#bfbfbf" points="151.5,-273 273.5,-273 "/>
<text text-anchor="middle" x="212.5" y="-261" font-family="Helvetica,sans-Serif" font-size="10.00"> </text>
</g>
<!-- Node3&#45;&gt;Node5 -->
<g id="edge5" class="edge"><title>Node3&#45;&gt;Node5</title>
<path fill="none" stroke="#404040" d="M212.5,-375.404C212.5,-363.094 212.5,-348.264 212.5,-334.392"/>
<polygon fill="none" stroke="#404040" points="212.5,-334.021 208.5,-328.021 212.5,-322.021 216.5,-328.021 212.5,-334.021"/>
<text text-anchor="middle" x="228" y="-349" font-family="Helvetica,sans-Serif" font-size="10.00"> +keys</text>
</g>
<!-- Node6 -->
<g id="node6" class="node"><title>Node6</title>
<polygon fill="none" stroke="#bfbfbf" points="291.5,-254 291.5,-322 415.5,-322 415.5,-254 291.5,-254"/>
<text text-anchor="start" x="299.5" y="-310" font-family="Helvetica,sans-Serif" font-size="10.00">std::map&lt; std::string,</text>
<text text-anchor="middle" x="353.5" y="-299" font-family="Helvetica,sans-Serif" font-size="10.00"> XBot::XBot::Joint::Ptr &gt;</text>
<polyline fill="none" stroke="#bfbfbf" points="291.5,-292 415.5,-292 "/>
<text text-anchor="start" x="299.5" y="-280" font-family="Helvetica,sans-Serif" font-size="10.00">+ elements</text>
<polyline fill="none" stroke="#bfbfbf" points="291.5,-273 415.5,-273 "/>
<text text-anchor="middle" x="353.5" y="-261" font-family="Helvetica,sans-Serif" font-size="10.00"> </text>
</g>
<!-- Node3&#45;&gt;Node6 -->
<g id="edge7" class="edge"><title>Node3&#45;&gt;Node6</title>
<path fill="none" stroke="#404040" d="M242.748,-378.544C260.352,-364.311 282.991,-346.008 303.208,-329.662"/>
<polygon fill="none" stroke="#404040" points="303.27,-329.612 305.421,-322.729 312.602,-322.067 310.451,-328.95 303.27,-329.612"/>
<text text-anchor="middle" x="299" y="-349" font-family="Helvetica,sans-Serif" font-size="10.00"> +keys</text>
</g>
<!-- Node4 -->
<g id="node4" class="node"><title>Node4</title>
<g id="a_node4"><a xlink:title="STL class. ">
<polygon fill="none" stroke="#bfbfbf" points="165,-470.5 165,-538.5 260,-538.5 260,-470.5 165,-470.5"/>
<text text-anchor="start" x="173" y="-526.5" font-family="Helvetica,sans-Serif" font-size="10.00">std::basic_string&lt;</text>
<text text-anchor="middle" x="212.5" y="-515.5" font-family="Helvetica,sans-Serif" font-size="10.00"> char &gt;</text>
<polyline fill="none" stroke="#bfbfbf" points="165,-508.5 260,-508.5 "/>
<text text-anchor="middle" x="212.5" y="-496.5" font-family="Helvetica,sans-Serif" font-size="10.00"> </text>
<polyline fill="none" stroke="#bfbfbf" points="165,-489.5 260,-489.5 "/>
<text text-anchor="middle" x="212.5" y="-477.5" font-family="Helvetica,sans-Serif" font-size="10.00"> </text>
</a>
</g>
</g>
<!-- Node4&#45;&gt;Node3 -->
<g id="edge3" class="edge"><title>Node4&#45;&gt;Node3</title>
<path fill="none" stroke="midnightblue" d="M212.5,-460.375C212.5,-450.94 212.5,-441.201 212.5,-432.571"/>
<polygon fill="none" stroke="midnightblue" points="209,-460.427 212.5,-470.427 216,-460.427 209,-460.427"/>
</g>
<!-- Node5&#45;&gt;Node1 -->
<g id="edge4" class="edge"><title>Node5&#45;&gt;Node1</title>
<path fill="none" stroke="#404040" d="M263.631,-253.836C307.899,-225.124 372.536,-183.2 422.801,-150.598"/>
<polygon fill="none" stroke="#404040" points="422.906,-150.53 425.764,-143.909 432.974,-144 430.117,-150.621 422.906,-150.53"/>
<text text-anchor="middle" x="340.5" y="-222" font-family="Helvetica,sans-Serif" font-size="10.00"> #_imu_map</text>
</g>
<!-- Node6&#45;&gt;Node1 -->
<g id="edge6" class="edge"><title>Node6&#45;&gt;Node1</title>
<path fill="none" stroke="#404040" d="M379.423,-253.836C392.421,-237.208 408.882,-216.149 425.386,-195.035"/>
<polygon fill="none" stroke="#404040" points="425.57,-194.8 426.113,-187.61 432.96,-185.346 432.416,-192.537 425.57,-194.8"/>
<text text-anchor="middle" x="448" y="-222" font-family="Helvetica,sans-Serif" font-size="10.00"> #_joint_name_map</text>
</g>
<!-- Node7 -->
<g id="node7" class="node"><title>Node7</title>
<polygon fill="none" stroke="#bfbfbf" points="433.5,-254 433.5,-322 563.5,-322 563.5,-254 433.5,-254"/>
<text text-anchor="start" x="441.5" y="-310" font-family="Helvetica,sans-Serif" font-size="10.00">std::vector&lt; XBot::</text>
<text text-anchor="middle" x="498.5" y="-299" font-family="Helvetica,sans-Serif" font-size="10.00">ForceTorqueSensor::Ptr &gt;</text>
<polyline fill="none" stroke="#bfbfbf" points="433.5,-292 563.5,-292 "/>
<text text-anchor="start" x="441.5" y="-280" font-family="Helvetica,sans-Serif" font-size="10.00">+ elements</text>
<polyline fill="none" stroke="#bfbfbf" points="433.5,-273 563.5,-273 "/>
<text text-anchor="middle" x="498.5" y="-261" font-family="Helvetica,sans-Serif" font-size="10.00"> </text>
</g>
<!-- Node7&#45;&gt;Node1 -->
<g id="edge8" class="edge"><title>Node7&#45;&gt;Node1</title>
<path fill="none" stroke="#404040" d="M498.5,-253.836C498.5,-241.913 498.5,-227.711 498.5,-212.845"/>
<polygon fill="none" stroke="#404040" points="498.5,-212.811 494.5,-206.811 498.5,-200.811 502.5,-206.811 498.5,-212.811"/>
<text text-anchor="middle" x="524.5" y="-222" font-family="Helvetica,sans-Serif" font-size="10.00"> #_ft_vector</text>
</g>
<!-- Node8 -->
<g id="node8" class="node"><title>Node8</title>
<polygon fill="none" stroke="#bfbfbf" points="581.5,-248.5 581.5,-327.5 683.5,-327.5 683.5,-248.5 581.5,-248.5"/>
<text text-anchor="start" x="589.5" y="-315.5" font-family="Helvetica,sans-Serif" font-size="10.00">std::map&lt; int, XBot</text>
<text text-anchor="middle" x="632.5" y="-304.5" font-family="Helvetica,sans-Serif" font-size="10.00">::XBot::Joint::Ptr &gt;</text>
<polyline fill="none" stroke="#bfbfbf" points="581.5,-297.5 683.5,-297.5 "/>
<text text-anchor="start" x="589.5" y="-285.5" font-family="Helvetica,sans-Serif" font-size="10.00">+ keys</text>
<text text-anchor="start" x="589.5" y="-274.5" font-family="Helvetica,sans-Serif" font-size="10.00">+ elements</text>
<polyline fill="none" stroke="#bfbfbf" points="581.5,-267.5 683.5,-267.5 "/>
<text text-anchor="middle" x="632.5" y="-255.5" font-family="Helvetica,sans-Serif" font-size="10.00"> </text>
</g>
<!-- Node8&#45;&gt;Node1 -->
<g id="edge9" class="edge"><title>Node8&#45;&gt;Node1</title>
<path fill="none" stroke="#404040" d="M604.409,-248.113C594.622,-234.564 583.139,-218.669 571.413,-202.436"/>
<polygon fill="none" stroke="#404040" points="571.121,-202.031 564.365,-199.509 564.094,-192.303 570.85,-194.825 571.121,-202.031"/>
<text text-anchor="middle" x="624" y="-222" font-family="Helvetica,sans-Serif" font-size="10.00"> #_joint_id_map</text>
</g>
<!-- Node9 -->
<g id="node9" class="node"><title>Node9</title>
<polygon fill="none" stroke="#bfbfbf" points="701.5,-254 701.5,-322 801.5,-322 801.5,-254 701.5,-254"/>
<text text-anchor="start" x="709.5" y="-310" font-family="Helvetica,sans-Serif" font-size="10.00">std::vector&lt; XBot::</text>
<text text-anchor="middle" x="751.5" y="-299" font-family="Helvetica,sans-Serif" font-size="10.00">ImuSensor::Ptr &gt;</text>
<polyline fill="none" stroke="#bfbfbf" points="701.5,-292 801.5,-292 "/>
<text text-anchor="start" x="709.5" y="-280" font-family="Helvetica,sans-Serif" font-size="10.00">+ elements</text>
<polyline fill="none" stroke="#bfbfbf" points="701.5,-273 801.5,-273 "/>
<text text-anchor="middle" x="751.5" y="-261" font-family="Helvetica,sans-Serif" font-size="10.00"> </text>
</g>
<!-- Node9&#45;&gt;Node1 -->
<g id="edge10" class="edge"><title>Node9&#45;&gt;Node1</title>
<path fill="none" stroke="#404040" d="M708.697,-253.874C694.112,-242.7 677.662,-230.22 662.5,-219 633.914,-197.846 602.206,-174.99 574.349,-155.108"/>
<polygon fill="none" stroke="#404040" points="574.045,-154.892 566.837,-154.667 564.273,-147.927 571.48,-148.152 574.045,-154.892"/>
<text text-anchor="middle" x="708.5" y="-222" font-family="Helvetica,sans-Serif" font-size="10.00"> #_imu_vector</text>
</g>
<!-- Node10 -->
<g id="node10" class="node"><title>Node10</title>
<polygon fill="none" stroke="#bfbfbf" points="819.5,-254 819.5,-322 919.5,-322 919.5,-254 819.5,-254"/>
<text text-anchor="start" x="827.5" y="-310" font-family="Helvetica,sans-Serif" font-size="10.00">std::vector&lt; XBot::</text>
<text text-anchor="middle" x="869.5" y="-299" font-family="Helvetica,sans-Serif" font-size="10.00">XBot::Joint::Ptr &gt;</text>
<polyline fill="none" stroke="#bfbfbf" points="819.5,-292 919.5,-292 "/>
<text text-anchor="start" x="827.5" y="-280" font-family="Helvetica,sans-Serif" font-size="10.00">+ elements</text>
<polyline fill="none" stroke="#bfbfbf" points="819.5,-273 919.5,-273 "/>
<text text-anchor="middle" x="869.5" y="-261" font-family="Helvetica,sans-Serif" font-size="10.00"> </text>
</g>
<!-- Node10&#45;&gt;Node1 -->
<g id="edge11" class="edge"><title>Node10&#45;&gt;Node1</title>
<path fill="none" stroke="#404040" d="M820.578,-253.895C817.2,-251.847 813.819,-249.863 810.5,-248 732.601,-204.269 639.456,-161.722 575.336,-133.85"/>
<polygon fill="none" stroke="#404040" points="575.123,-133.757 568.028,-135.045 564.11,-128.991 571.206,-127.703 575.123,-133.757"/>
<text text-anchor="middle" x="801.5" y="-222" font-family="Helvetica,sans-Serif" font-size="10.00"> #_joint_vector</text>
</g>
</g>
</svg>
