<?xml version="1.0" encoding="UTF-8" standalone="no"?>
<!DOCTYPE svg PUBLIC "-//W3C//DTD SVG 1.1//EN"
 "http://www.w3.org/Graphics/SVG/1.1/DTD/svg11.dtd">
<!-- Generated by graphviz version 2.38.0 (20140413.2041)
 -->
<!-- Title: spdlog::details::ch_formatter Pages: 1 -->
<svg width="109pt" height="204pt"
 viewBox="0.00 0.00 109.00 204.00" xmlns="http://www.w3.org/2000/svg" xmlns:xlink="http://www.w3.org/1999/xlink">
<g id="graph0" class="graph" transform="scale(1 1) rotate(0) translate(4 200)">
<title>spdlog::details::ch_formatter</title>
<!-- Node1 -->
<g id="node1" class="node"><title>Node1</title>
<polygon fill="#bfbfbf" stroke="black" points="2.5,-0.5 2.5,-79.5 98.5,-79.5 98.5,-0.5 2.5,-0.5"/>
<text text-anchor="start" x="10.5" y="-67.5" font-family="Helvetica,sans-Serif" font-size="10.00">spdlog::details::ch</text>
<text text-anchor="middle" x="50.5" y="-56.5" font-family="Helvetica,sans-Serif" font-size="10.00">_formatter</text>
<polyline fill="none" stroke="black" points="2.5,-49.5 98.5,-49.5 "/>
<text text-anchor="middle" x="50.5" y="-37.5" font-family="Helvetica,sans-Serif" font-size="10.00"> </text>
<polyline fill="none" stroke="black" points="2.5,-30.5 98.5,-30.5 "/>
<text text-anchor="start" x="10.5" y="-18.5" font-family="Helvetica,sans-Serif" font-size="10.00">+ ch_formatter()</text>
<text text-anchor="start" x="10.5" y="-7.5" font-family="Helvetica,sans-Serif" font-size="10.00">+ format()</text>
</g>
<!-- Node2 -->
<g id="node2" class="node"><title>Node2</title>
<g id="a_node2"><a xlink:href="classspdlog_1_1details_1_1flag__formatter.html" target="_top" xlink:title="{spdlog::details::flag\l_formatter\n||+ ~flag_formatter()\l+ format()\l}">
<polygon fill="none" stroke="black" points="0,-116.5 0,-195.5 101,-195.5 101,-116.5 0,-116.5"/>
<text text-anchor="start" x="8" y="-183.5" font-family="Helvetica,sans-Serif" font-size="10.00">spdlog::details::flag</text>
<text text-anchor="middle" x="50.5" y="-172.5" font-family="Helvetica,sans-Serif" font-size="10.00">_formatter</text>
<polyline fill="none" stroke="black" points="0,-165.5 101,-165.5 "/>
<text text-anchor="middle" x="50.5" y="-153.5" font-family="Helvetica,sans-Serif" font-size="10.00"> </text>
<polyline fill="none" stroke="black" points="0,-146.5 101,-146.5 "/>
<text text-anchor="start" x="8" y="-134.5" font-family="Helvetica,sans-Serif" font-size="10.00">+ ~flag_formatter()</text>
<text text-anchor="start" x="8" y="-123.5" font-family="Helvetica,sans-Serif" font-size="10.00">+ format()</text>
</a>
</g>
</g>
<!-- Node2&#45;&gt;Node1 -->
<g id="edge1" class="edge"><title>Node2&#45;&gt;Node1</title>
<path fill="none" stroke="midnightblue" d="M50.5,-106.146C50.5,-97.256 50.5,-88.0961 50.5,-79.5555"/>
<polygon fill="none" stroke="midnightblue" points="47.0001,-106.405 50.5,-116.405 54.0001,-106.405 47.0001,-106.405"/>
</g>
</g>
</svg>
