<?xml version="1.0" encoding="UTF-8" standalone="no"?>
<!DOCTYPE svg PUBLIC "-//W3C//DTD SVG 1.1//EN"
 "http://www.w3.org/Graphics/SVG/1.1/DTD/svg11.dtd">
<!-- Generated by graphviz version 2.36.0 (20140111.2315)
 -->
<!-- Title: fmt::internal::FormatterBase Pages: 1 -->
<svg width="535pt" height="272pt"
 viewBox="0.00 0.00 535.00 272.00" xmlns="http://www.w3.org/2000/svg" xmlns:xlink="http://www.w3.org/1999/xlink">
<g id="graph0" class="graph" transform="scale(1 1) rotate(0) translate(4 268)">
<title>fmt::internal::FormatterBase</title>
<!-- Node1 -->
<g id="node1" class="node"><title>Node1</title>
<polygon fill="#bfbfbf" stroke="black" points="180.5,-151 180.5,-263 319.5,-263 319.5,-151 180.5,-151"/>
<text text-anchor="middle" x="250" y="-251" font-family="Helvetica,sans-Serif" font-size="10.00">fmt::internal::FormatterBase</text>
<polyline fill="none" stroke="black" points="180.5,-244 319.5,-244 "/>
<text text-anchor="middle" x="250" y="-232" font-family="Helvetica,sans-Serif" font-size="10.00"> </text>
<polyline fill="none" stroke="black" points="180.5,-225 319.5,-225 "/>
<text text-anchor="start" x="188.5" y="-213" font-family="Helvetica,sans-Serif" font-size="10.00"># args()</text>
<text text-anchor="start" x="188.5" y="-202" font-family="Helvetica,sans-Serif" font-size="10.00"># FormatterBase()</text>
<text text-anchor="start" x="188.5" y="-191" font-family="Helvetica,sans-Serif" font-size="10.00"># next_arg()</text>
<text text-anchor="start" x="188.5" y="-180" font-family="Helvetica,sans-Serif" font-size="10.00"># get_arg()</text>
<text text-anchor="start" x="188.5" y="-169" font-family="Helvetica,sans-Serif" font-size="10.00"># check_no_auto_index()</text>
<text text-anchor="start" x="188.5" y="-158" font-family="Helvetica,sans-Serif" font-size="10.00"># write()</text>
</g>
<!-- Node2 -->
<g id="node2" class="node"><title>Node2</title>
<g id="a_node2"><a xlink:href="classfmt_1_1BasicFormatter.html" target="_top" xlink:title="{fmt::BasicFormatter\l\&lt; Char, ArgFormatter\l\&lt; Char \&gt; \&gt;\n||+ BasicFormatter()\l+ writer()\l+ format()\l+ format()\l}">
<polygon fill="none" stroke="black" points="0,-1 0,-113 110,-113 110,-1 0,-1"/>
<text text-anchor="start" x="8" y="-101" font-family="Helvetica,sans-Serif" font-size="10.00">fmt::BasicFormatter</text>
<text text-anchor="start" x="8" y="-90" font-family="Helvetica,sans-Serif" font-size="10.00">&lt; Char, ArgFormatter</text>
<text text-anchor="middle" x="55" y="-79" font-family="Helvetica,sans-Serif" font-size="10.00">&lt; Char &gt; &gt;</text>
<polyline fill="none" stroke="black" points="0,-72 110,-72 "/>
<text text-anchor="middle" x="55" y="-60" font-family="Helvetica,sans-Serif" font-size="10.00"> </text>
<polyline fill="none" stroke="black" points="0,-53 110,-53 "/>
<text text-anchor="start" x="8" y="-41" font-family="Helvetica,sans-Serif" font-size="10.00">+ BasicFormatter()</text>
<text text-anchor="start" x="8" y="-30" font-family="Helvetica,sans-Serif" font-size="10.00">+ writer()</text>
<text text-anchor="start" x="8" y="-19" font-family="Helvetica,sans-Serif" font-size="10.00">+ format()</text>
<text text-anchor="start" x="8" y="-8" font-family="Helvetica,sans-Serif" font-size="10.00">+ format()</text>
</a>
</g>
</g>
<!-- Node1&#45;&gt;Node2 -->
<g id="edge1" class="edge"><title>Node1&#45;&gt;Node2</title>
<path fill="none" stroke="#8b1a1a" d="M171.757,-153.092C154.142,-140.62 135.72,-127.125 119,-114 116.097,-111.721 113.15,-109.353 110.196,-106.935"/>
<polygon fill="none" stroke="#8b1a1a" points="170.137,-156.231 180.329,-159.126 174.166,-150.507 170.137,-156.231"/>
</g>
<!-- Node3 -->
<g id="node3" class="node"><title>Node3</title>
<g id="a_node3"><a xlink:href="classfmt_1_1BasicFormatter.html" target="_top" xlink:title="{fmt::BasicFormatter\l\&lt; Char, Impl \&gt;\n||+ BasicFormatter()\l+ writer()\l+ format()\l+ format()\l}">
<polygon fill="none" stroke="black" points="128,-6.5 128,-107.5 232,-107.5 232,-6.5 128,-6.5"/>
<text text-anchor="start" x="136" y="-95.5" font-family="Helvetica,sans-Serif" font-size="10.00">fmt::BasicFormatter</text>
<text text-anchor="middle" x="180" y="-84.5" font-family="Helvetica,sans-Serif" font-size="10.00">&lt; Char, Impl &gt;</text>
<polyline fill="none" stroke="black" points="128,-77.5 232,-77.5 "/>
<text text-anchor="middle" x="180" y="-65.5" font-family="Helvetica,sans-Serif" font-size="10.00"> </text>
<polyline fill="none" stroke="black" points="128,-58.5 232,-58.5 "/>
<text text-anchor="start" x="136" y="-46.5" font-family="Helvetica,sans-Serif" font-size="10.00">+ BasicFormatter()</text>
<text text-anchor="start" x="136" y="-35.5" font-family="Helvetica,sans-Serif" font-size="10.00">+ writer()</text>
<text text-anchor="start" x="136" y="-24.5" font-family="Helvetica,sans-Serif" font-size="10.00">+ format()</text>
<text text-anchor="start" x="136" y="-13.5" font-family="Helvetica,sans-Serif" font-size="10.00">+ format()</text>
</a>
</g>
</g>
<!-- Node1&#45;&gt;Node3 -->
<g id="edge2" class="edge"><title>Node1&#45;&gt;Node3</title>
<path fill="none" stroke="#8b1a1a" d="M219.652,-141.835C214.258,-130.432 208.715,-118.712 203.546,-107.784"/>
<polygon fill="none" stroke="#8b1a1a" points="216.495,-143.347 223.935,-150.89 222.823,-140.354 216.495,-143.347"/>
</g>
<!-- Node4 -->
<g id="node4" class="node"><title>Node4</title>
<g id="a_node4"><a xlink:href="classfmt_1_1BasicFormatter.html" target="_top" xlink:title="This template formats data and writes the output to a writer. ">
<polygon fill="none" stroke="black" points="250,-6.5 250,-107.5 390,-107.5 390,-6.5 250,-6.5"/>
<text text-anchor="start" x="258" y="-95.5" font-family="Helvetica,sans-Serif" font-size="10.00">fmt::BasicFormatter</text>
<text text-anchor="middle" x="320" y="-84.5" font-family="Helvetica,sans-Serif" font-size="10.00">&lt; CharType, ArgFormatter &gt;</text>
<polyline fill="none" stroke="black" points="250,-77.5 390,-77.5 "/>
<text text-anchor="middle" x="320" y="-65.5" font-family="Helvetica,sans-Serif" font-size="10.00"> </text>
<polyline fill="none" stroke="black" points="250,-58.5 390,-58.5 "/>
<text text-anchor="start" x="258" y="-46.5" font-family="Helvetica,sans-Serif" font-size="10.00">+ BasicFormatter()</text>
<text text-anchor="start" x="258" y="-35.5" font-family="Helvetica,sans-Serif" font-size="10.00">+ writer()</text>
<text text-anchor="start" x="258" y="-24.5" font-family="Helvetica,sans-Serif" font-size="10.00">+ format()</text>
<text text-anchor="start" x="258" y="-13.5" font-family="Helvetica,sans-Serif" font-size="10.00">+ format()</text>
</a>
</g>
</g>
<!-- Node1&#45;&gt;Node4 -->
<g id="edge3" class="edge"><title>Node1&#45;&gt;Node4</title>
<path fill="none" stroke="#8b1a1a" d="M280.348,-141.835C285.742,-130.432 291.285,-118.712 296.454,-107.784"/>
<polygon fill="none" stroke="#8b1a1a" points="277.177,-140.354 276.065,-150.89 283.505,-143.347 277.177,-140.354"/>
</g>
<!-- Node5 -->
<g id="node5" class="node"><title>Node5</title>
<g id="a_node5"><a xlink:href="classfmt_1_1PrintfFormatter.html" target="_top" xlink:title="This template formats data and writes the output to a writer. ">
<polygon fill="none" stroke="black" points="408.5,-17.5 408.5,-96.5 527.5,-96.5 527.5,-17.5 408.5,-17.5"/>
<text text-anchor="start" x="416.5" y="-84.5" font-family="Helvetica,sans-Serif" font-size="10.00">fmt::PrintfFormatter</text>
<text text-anchor="middle" x="468" y="-73.5" font-family="Helvetica,sans-Serif" font-size="10.00">&lt; Char, ArgFormatter &gt;</text>
<polyline fill="none" stroke="black" points="408.5,-66.5 527.5,-66.5 "/>
<text text-anchor="middle" x="468" y="-54.5" font-family="Helvetica,sans-Serif" font-size="10.00"> </text>
<polyline fill="none" stroke="black" points="408.5,-47.5 527.5,-47.5 "/>
<text text-anchor="start" x="416.5" y="-35.5" font-family="Helvetica,sans-Serif" font-size="10.00">+ PrintfFormatter()</text>
<text text-anchor="start" x="416.5" y="-24.5" font-family="Helvetica,sans-Serif" font-size="10.00">+ format()</text>
</a>
</g>
</g>
<!-- Node1&#45;&gt;Node5 -->
<g id="edge4" class="edge"><title>Node1&#45;&gt;Node5</title>
<path fill="none" stroke="#8b1a1a" d="M328.558,-160.101C351.651,-145.916 376.69,-129.842 399,-114 406.548,-108.641 414.347,-102.717 421.867,-96.7888"/>
<polygon fill="none" stroke="#8b1a1a" points="326.524,-157.242 319.813,-165.441 330.172,-163.217 326.524,-157.242"/>
</g>
</g>
</svg>
