<?xml version="1.0" encoding="UTF-8" standalone="no"?>
<!DOCTYPE svg PUBLIC "-//W3C//DTD SVG 1.1//EN"
 "http://www.w3.org/Graphics/SVG/1.1/DTD/svg11.dtd">
<!-- Generated by graphviz version 2.36.0 (20140111.2315)
 -->
<!-- Title: fmt::internal::MemoryBuffer&lt; T, SIZE, Allocator &gt; Pages: 1 -->
<svg width="180pt" height="444pt"
 viewBox="0.00 0.00 180.00 444.00" xmlns="http://www.w3.org/2000/svg" xmlns:xlink="http://www.w3.org/1999/xlink">
<g id="graph0" class="graph" transform="scale(1 1) rotate(0) translate(4 440)">
<title>fmt::internal::MemoryBuffer&lt; T, SIZE, Allocator &gt;</title>
<!-- Node1 -->
<g id="node1" class="node"><title>Node1</title>
<polygon fill="#bfbfbf" stroke="black" points="0,-0.5 0,-101.5 136,-101.5 136,-0.5 0,-0.5"/>
<text text-anchor="start" x="8" y="-89.5" font-family="Helvetica,sans-Serif" font-size="10.00">fmt::internal::MemoryBuffer</text>
<text text-anchor="middle" x="68" y="-78.5" font-family="Helvetica,sans-Serif" font-size="10.00">&lt; T, SIZE, Allocator &gt;</text>
<polyline fill="none" stroke="black" points="0,-71.5 136,-71.5 "/>
<text text-anchor="middle" x="68" y="-59.5" font-family="Helvetica,sans-Serif" font-size="10.00"> </text>
<polyline fill="none" stroke="black" points="0,-52.5 136,-52.5 "/>
<text text-anchor="start" x="8" y="-40.5" font-family="Helvetica,sans-Serif" font-size="10.00">+ MemoryBuffer()</text>
<text text-anchor="start" x="8" y="-29.5" font-family="Helvetica,sans-Serif" font-size="10.00">+ ~MemoryBuffer()</text>
<text text-anchor="start" x="8" y="-18.5" font-family="Helvetica,sans-Serif" font-size="10.00">+ get_allocator()</text>
<text text-anchor="start" x="8" y="-7.5" font-family="Helvetica,sans-Serif" font-size="10.00"># grow()</text>
</g>
<!-- Node2 -->
<g id="node2" class="node"><title>Node2</title>
<polygon fill="none" stroke="#bfbfbf" points="12.5,-206.5 12.5,-263.5 67.5,-263.5 67.5,-206.5 12.5,-206.5"/>
<text text-anchor="middle" x="40" y="-251.5" font-family="Helvetica,sans-Serif" font-size="10.00">Allocator</text>
<polyline fill="none" stroke="#bfbfbf" points="12.5,-244.5 67.5,-244.5 "/>
<text text-anchor="middle" x="40" y="-232.5" font-family="Helvetica,sans-Serif" font-size="10.00"> </text>
<polyline fill="none" stroke="#bfbfbf" points="12.5,-225.5 67.5,-225.5 "/>
<text text-anchor="middle" x="40" y="-213.5" font-family="Helvetica,sans-Serif" font-size="10.00"> </text>
</g>
<!-- Node2&#45;&gt;Node1 -->
<g id="edge1" class="edge"><title>Node2&#45;&gt;Node1</title>
<path fill="none" stroke="#8b1a1a" d="M45.7899,-196.366C50.0126,-168.918 55.7764,-131.454 60.374,-101.569"/>
<polygon fill="none" stroke="#8b1a1a" points="42.314,-195.942 44.2526,-206.358 49.2326,-197.007 42.314,-195.942"/>
</g>
<!-- Node3 -->
<g id="node3" class="node"><title>Node3</title>
<g id="a_node3"><a xlink:href="classfmt_1_1Buffer.html" target="_top" xlink:title="A buffer supporting a subset of std::vector&#39;s operations. ">
<polygon fill="none" stroke="black" points="85.5,-140.5 85.5,-329.5 172.5,-329.5 172.5,-140.5 85.5,-140.5"/>
<text text-anchor="middle" x="129" y="-317.5" font-family="Helvetica,sans-Serif" font-size="10.00">fmt::Buffer&lt; T &gt;</text>
<polyline fill="none" stroke="black" points="85.5,-310.5 172.5,-310.5 "/>
<text text-anchor="start" x="93.5" y="-298.5" font-family="Helvetica,sans-Serif" font-size="10.00"># size_</text>
<text text-anchor="start" x="93.5" y="-287.5" font-family="Helvetica,sans-Serif" font-size="10.00"># capacity_</text>
<polyline fill="none" stroke="black" points="85.5,-280.5 172.5,-280.5 "/>
<text text-anchor="start" x="93.5" y="-268.5" font-family="Helvetica,sans-Serif" font-size="10.00">+ ~Buffer()</text>
<text text-anchor="start" x="93.5" y="-257.5" font-family="Helvetica,sans-Serif" font-size="10.00">+ size()</text>
<text text-anchor="start" x="93.5" y="-246.5" font-family="Helvetica,sans-Serif" font-size="10.00">+ capacity()</text>
<text text-anchor="start" x="93.5" y="-235.5" font-family="Helvetica,sans-Serif" font-size="10.00">+ resize()</text>
<text text-anchor="start" x="93.5" y="-224.5" font-family="Helvetica,sans-Serif" font-size="10.00">+ reserve()</text>
<text text-anchor="start" x="93.5" y="-213.5" font-family="Helvetica,sans-Serif" font-size="10.00">+ clear()</text>
<text text-anchor="start" x="93.5" y="-202.5" font-family="Helvetica,sans-Serif" font-size="10.00">+ push_back()</text>
<text text-anchor="start" x="93.5" y="-191.5" font-family="Helvetica,sans-Serif" font-size="10.00">+ append()</text>
<text text-anchor="start" x="93.5" y="-180.5" font-family="Helvetica,sans-Serif" font-size="10.00">+ operator[]()</text>
<text text-anchor="start" x="93.5" y="-169.5" font-family="Helvetica,sans-Serif" font-size="10.00">+ operator[]()</text>
<text text-anchor="start" x="93.5" y="-158.5" font-family="Helvetica,sans-Serif" font-size="10.00"># Buffer()</text>
<text text-anchor="start" x="93.5" y="-147.5" font-family="Helvetica,sans-Serif" font-size="10.00"># grow()</text>
</a>
</g>
</g>
<!-- Node3&#45;&gt;Node1 -->
<g id="edge2" class="edge"><title>Node3&#45;&gt;Node1</title>
<path fill="none" stroke="midnightblue" d="M94.3924,-130.745C91.0558,-120.789 87.786,-111.034 84.7467,-101.966"/>
<polygon fill="none" stroke="midnightblue" points="91.11,-131.965 97.6066,-140.334 97.7472,-129.74 91.11,-131.965"/>
</g>
<!-- Node4 -->
<g id="node4" class="node"><title>Node4</title>
<polygon fill="none" stroke="#bfbfbf" points="114.5,-378.5 114.5,-435.5 143.5,-435.5 143.5,-378.5 114.5,-378.5"/>
<text text-anchor="middle" x="129" y="-423.5" font-family="Helvetica,sans-Serif" font-size="10.00">T</text>
<polyline fill="none" stroke="#bfbfbf" points="114.5,-416.5 143.5,-416.5 "/>
<text text-anchor="middle" x="129" y="-404.5" font-family="Helvetica,sans-Serif" font-size="10.00"> </text>
<polyline fill="none" stroke="#bfbfbf" points="114.5,-397.5 143.5,-397.5 "/>
<text text-anchor="middle" x="129" y="-385.5" font-family="Helvetica,sans-Serif" font-size="10.00"> </text>
</g>
<!-- Node4&#45;&gt;Node3 -->
<g id="edge3" class="edge"><title>Node4&#45;&gt;Node3</title>
<path fill="none" stroke="#404040" d="M129,-378.308C129,-367.757 129,-355 129,-341.51"/>
<polygon fill="none" stroke="#404040" points="129,-341.504 125,-335.504 129,-329.504 133,-335.504 129,-341.504"/>
<text text-anchor="middle" x="141.5" y="-351.5" font-family="Helvetica,sans-Serif" font-size="10.00"> #ptr_</text>
</g>
</g>
</svg>
