<?xml version="1.0" encoding="UTF-8" standalone="no"?>
<!DOCTYPE svg PUBLIC "-//W3C//DTD SVG 1.1//EN"
 "http://www.w3.org/Graphics/SVG/1.1/DTD/svg11.dtd">
<!-- Generated by graphviz version 2.38.0 (20140413.2041)
 -->
<!-- Title: spdlog::details::flag_formatter Pages: 1 -->
<svg width="3364pt" height="226pt"
 viewBox="0.00 0.00 3364.00 226.00" xmlns="http://www.w3.org/2000/svg" xmlns:xlink="http://www.w3.org/1999/xlink">
<g id="graph0" class="graph" transform="scale(1 1) rotate(0) translate(4 222)">
<title>spdlog::details::flag_formatter</title>
<!-- Node1 -->
<g id="node1" class="node"><title>Node1</title>
<polygon fill="#bfbfbf" stroke="black" points="1632,-138.5 1632,-217.5 1733,-217.5 1733,-138.5 1632,-138.5"/>
<text text-anchor="start" x="1640" y="-205.5" font-family="Helvetica,sans-Serif" font-size="10.00">spdlog::details::flag</text>
<text text-anchor="middle" x="1682.5" y="-194.5" font-family="Helvetica,sans-Serif" font-size="10.00">_formatter</text>
<polyline fill="none" stroke="black" points="1632,-187.5 1733,-187.5 "/>
<text text-anchor="middle" x="1682.5" y="-175.5" font-family="Helvetica,sans-Serif" font-size="10.00"> </text>
<polyline fill="none" stroke="black" points="1632,-168.5 1733,-168.5 "/>
<text text-anchor="start" x="1640" y="-156.5" font-family="Helvetica,sans-Serif" font-size="10.00">+ ~flag_formatter()</text>
<text text-anchor="start" x="1640" y="-145.5" font-family="Helvetica,sans-Serif" font-size="10.00">+ format()</text>
</g>
<!-- Node2 -->
<g id="node2" class="node"><title>Node2</title>
<g id="a_node2"><a xlink:href="classspdlog_1_1details_1_1a__formatter.html" target="_top" xlink:title="{spdlog::details::a\l_formatter\n||}">
<polygon fill="none" stroke="black" points="0,-17 0,-85 91,-85 91,-17 0,-17"/>
<text text-anchor="start" x="8" y="-73" font-family="Helvetica,sans-Serif" font-size="10.00">spdlog::details::a</text>
<text text-anchor="middle" x="45.5" y="-62" font-family="Helvetica,sans-Serif" font-size="10.00">_formatter</text>
<polyline fill="none" stroke="black" points="0,-55 91,-55 "/>
<text text-anchor="middle" x="45.5" y="-43" font-family="Helvetica,sans-Serif" font-size="10.00"> </text>
<polyline fill="none" stroke="black" points="0,-36 91,-36 "/>
<text text-anchor="middle" x="45.5" y="-24" font-family="Helvetica,sans-Serif" font-size="10.00"> </text>
</a>
</g>
</g>
<!-- Node1&#45;&gt;Node2 -->
<g id="edge1" class="edge"><title>Node1&#45;&gt;Node2</title>
<path fill="none" stroke="midnightblue" d="M1621.62,-176.543C1348.45,-174.163 242.839,-160.941 100.5,-102 91.081,-98.0997 82.2376,-91.8451 74.5116,-85.0607"/>
<polygon fill="none" stroke="midnightblue" points="1621.72,-180.043 1631.75,-176.629 1621.78,-173.044 1621.72,-180.043"/>
</g>
<!-- Node3 -->
<g id="node3" class="node"><title>Node3</title>
<g id="a_node3"><a xlink:href="classspdlog_1_1details_1_1A__formatter.html" target="_top" xlink:title="{spdlog::details::A\l_formatter\n||}">
<polygon fill="none" stroke="black" points="109.5,-17 109.5,-85 201.5,-85 201.5,-17 109.5,-17"/>
<text text-anchor="start" x="117.5" y="-73" font-family="Helvetica,sans-Serif" font-size="10.00">spdlog::details::A</text>
<text text-anchor="middle" x="155.5" y="-62" font-family="Helvetica,sans-Serif" font-size="10.00">_formatter</text>
<polyline fill="none" stroke="black" points="109.5,-55 201.5,-55 "/>
<text text-anchor="middle" x="155.5" y="-43" font-family="Helvetica,sans-Serif" font-size="10.00"> </text>
<polyline fill="none" stroke="black" points="109.5,-36 201.5,-36 "/>
<text text-anchor="middle" x="155.5" y="-24" font-family="Helvetica,sans-Serif" font-size="10.00"> </text>
</a>
</g>
</g>
<!-- Node1&#45;&gt;Node3 -->
<g id="edge2" class="edge"><title>Node1&#45;&gt;Node3</title>
<path fill="none" stroke="midnightblue" d="M1621.63,-176.31C1360.48,-173.026 342.146,-156.786 210.5,-102 201.088,-98.083 192.247,-91.8221 184.521,-85.0368"/>
<polygon fill="none" stroke="midnightblue" points="1621.65,-179.811 1631.69,-176.435 1621.73,-172.811 1621.65,-179.811"/>
</g>
<!-- Node4 -->
<g id="node4" class="node"><title>Node4</title>
<g id="a_node4"><a xlink:href="classspdlog_1_1details_1_1aggregate__formatter.html" target="_top" xlink:title="{spdlog::details::aggregate\l_formatter\n||+ aggregate_formatter()\l+ add_ch()\l+ format()\l}">
<polygon fill="none" stroke="black" points="219.5,-6 219.5,-96 347.5,-96 347.5,-6 219.5,-6"/>
<text text-anchor="start" x="227.5" y="-84" font-family="Helvetica,sans-Serif" font-size="10.00">spdlog::details::aggregate</text>
<text text-anchor="middle" x="283.5" y="-73" font-family="Helvetica,sans-Serif" font-size="10.00">_formatter</text>
<polyline fill="none" stroke="black" points="219.5,-66 347.5,-66 "/>
<text text-anchor="middle" x="283.5" y="-54" font-family="Helvetica,sans-Serif" font-size="10.00"> </text>
<polyline fill="none" stroke="black" points="219.5,-47 347.5,-47 "/>
<text text-anchor="start" x="227.5" y="-35" font-family="Helvetica,sans-Serif" font-size="10.00">+ aggregate_formatter()</text>
<text text-anchor="start" x="227.5" y="-24" font-family="Helvetica,sans-Serif" font-size="10.00">+ add_ch()</text>
<text text-anchor="start" x="227.5" y="-13" font-family="Helvetica,sans-Serif" font-size="10.00">+ format()</text>
</a>
</g>
</g>
<!-- Node1&#45;&gt;Node4 -->
<g id="edge3" class="edge"><title>Node1&#45;&gt;Node4</title>
<path fill="none" stroke="midnightblue" d="M1621.52,-175.478C1377.28,-169.122 477.054,-143.094 356.5,-102 351.847,-100.414 347.217,-98.4432 342.676,-96.2087"/>
<polygon fill="none" stroke="midnightblue" points="1621.55,-178.98 1631.64,-175.74 1621.73,-171.982 1621.55,-178.98"/>
</g>
<!-- Node5 -->
<g id="node5" class="node"><title>Node5</title>
<g id="a_node5"><a xlink:href="classspdlog_1_1details_1_1B__formatter.html" target="_top" xlink:title="{spdlog::details::B\l_formatter\n||}">
<polygon fill="none" stroke="black" points="365.5,-17 365.5,-85 457.5,-85 457.5,-17 365.5,-17"/>
<text text-anchor="start" x="373.5" y="-73" font-family="Helvetica,sans-Serif" font-size="10.00">spdlog::details::B</text>
<text text-anchor="middle" x="411.5" y="-62" font-family="Helvetica,sans-Serif" font-size="10.00">_formatter</text>
<polyline fill="none" stroke="black" points="365.5,-55 457.5,-55 "/>
<text text-anchor="middle" x="411.5" y="-43" font-family="Helvetica,sans-Serif" font-size="10.00"> </text>
<polyline fill="none" stroke="black" points="365.5,-36 457.5,-36 "/>
<text text-anchor="middle" x="411.5" y="-24" font-family="Helvetica,sans-Serif" font-size="10.00"> </text>
</a>
</g>
</g>
<!-- Node1&#45;&gt;Node5 -->
<g id="edge4" class="edge"><title>Node1&#45;&gt;Node5</title>
<path fill="none" stroke="midnightblue" d="M1621.53,-175.606C1390.05,-169.992 573.359,-147.142 466.5,-102 457.228,-98.083 448.5,-91.9112 440.846,-85.2222"/>
<polygon fill="none" stroke="midnightblue" points="1621.7,-179.111 1631.78,-175.853 1621.87,-172.113 1621.7,-179.111"/>
</g>
<!-- Node6 -->
<g id="node6" class="node"><title>Node6</title>
<g id="a_node6"><a xlink:href="classspdlog_1_1details_1_1b__formatter.html" target="_top" xlink:title="{spdlog::details::b\l_formatter\n||}">
<polygon fill="none" stroke="black" points="476,-17 476,-85 567,-85 567,-17 476,-17"/>
<text text-anchor="start" x="484" y="-73" font-family="Helvetica,sans-Serif" font-size="10.00">spdlog::details::b</text>
<text text-anchor="middle" x="521.5" y="-62" font-family="Helvetica,sans-Serif" font-size="10.00">_formatter</text>
<polyline fill="none" stroke="black" points="476,-55 567,-55 "/>
<text text-anchor="middle" x="521.5" y="-43" font-family="Helvetica,sans-Serif" font-size="10.00"> </text>
<polyline fill="none" stroke="black" points="476,-36 567,-36 "/>
<text text-anchor="middle" x="521.5" y="-24" font-family="Helvetica,sans-Serif" font-size="10.00"> </text>
</a>
</g>
</g>
<!-- Node1&#45;&gt;Node6 -->
<g id="edge5" class="edge"><title>Node1&#45;&gt;Node6</title>
<path fill="none" stroke="midnightblue" d="M1621.63,-175.242C1403.92,-168.632 671.7,-143.503 575.5,-102 566.349,-98.0522 557.762,-91.8684 550.244,-85.1776"/>
<polygon fill="none" stroke="midnightblue" points="1621.81,-178.749 1631.91,-175.552 1622.02,-171.752 1621.81,-178.749"/>
</g>
<!-- Node7 -->
<g id="node7" class="node"><title>Node7</title>
<g id="a_node7"><a xlink:href="classspdlog_1_1details_1_1C__formatter.html" target="_top" xlink:title="{spdlog::details::C\l_formatter\n||}">
<polygon fill="none" stroke="black" points="585,-17 585,-85 678,-85 678,-17 585,-17"/>
<text text-anchor="start" x="593" y="-73" font-family="Helvetica,sans-Serif" font-size="10.00">spdlog::details::C</text>
<text text-anchor="middle" x="631.5" y="-62" font-family="Helvetica,sans-Serif" font-size="10.00">_formatter</text>
<polyline fill="none" stroke="black" points="585,-55 678,-55 "/>
<text text-anchor="middle" x="631.5" y="-43" font-family="Helvetica,sans-Serif" font-size="10.00"> </text>
<polyline fill="none" stroke="black" points="585,-36 678,-36 "/>
<text text-anchor="middle" x="631.5" y="-24" font-family="Helvetica,sans-Serif" font-size="10.00"> </text>
</a>
</g>
</g>
<!-- Node1&#45;&gt;Node7 -->
<g id="edge6" class="edge"><title>Node1&#45;&gt;Node7</title>
<path fill="none" stroke="midnightblue" d="M1621.88,-177.544C1432.76,-178.449 856.095,-175.004 686.5,-102 677.255,-98.0202 668.537,-91.8239 660.884,-85.1312"/>
<polygon fill="none" stroke="midnightblue" points="1621.94,-181.044 1631.92,-177.49 1621.9,-174.044 1621.94,-181.044"/>
</g>
<!-- Node8 -->
<g id="node8" class="node"><title>Node8</title>
<g id="a_node8"><a xlink:href="classspdlog_1_1details_1_1c__formatter.html" target="_top" xlink:title="{spdlog::details::c\l_formatter\n||}">
<polygon fill="none" stroke="black" points="696,-17 696,-85 787,-85 787,-17 696,-17"/>
<text text-anchor="start" x="704" y="-73" font-family="Helvetica,sans-Serif" font-size="10.00">spdlog::details::c</text>
<text text-anchor="middle" x="741.5" y="-62" font-family="Helvetica,sans-Serif" font-size="10.00">_formatter</text>
<polyline fill="none" stroke="black" points="696,-55 787,-55 "/>
<text text-anchor="middle" x="741.5" y="-43" font-family="Helvetica,sans-Serif" font-size="10.00"> </text>
<polyline fill="none" stroke="black" points="696,-36 787,-36 "/>
<text text-anchor="middle" x="741.5" y="-24" font-family="Helvetica,sans-Serif" font-size="10.00"> </text>
</a>
</g>
</g>
<!-- Node1&#45;&gt;Node8 -->
<g id="edge7" class="edge"><title>Node1&#45;&gt;Node8</title>
<path fill="none" stroke="midnightblue" d="M1621.82,-176.883C1446.99,-175.764 945.214,-166.836 796.5,-102 787.273,-97.9773 778.563,-91.7642 770.911,-85.069"/>
<polygon fill="none" stroke="midnightblue" points="1621.86,-180.383 1631.88,-176.941 1621.9,-173.383 1621.86,-180.383"/>
</g>
<!-- Node9 -->
<g id="node9" class="node"><title>Node9</title>
<g id="a_node9"><a xlink:href="classspdlog_1_1details_1_1ch__formatter.html" target="_top" xlink:title="{spdlog::details::ch\l_formatter\n||+ ch_formatter()\l+ format()\l}">
<polygon fill="none" stroke="black" points="805.5,-11.5 805.5,-90.5 901.5,-90.5 901.5,-11.5 805.5,-11.5"/>
<text text-anchor="start" x="813.5" y="-78.5" font-family="Helvetica,sans-Serif" font-size="10.00">spdlog::details::ch</text>
<text text-anchor="middle" x="853.5" y="-67.5" font-family="Helvetica,sans-Serif" font-size="10.00">_formatter</text>
<polyline fill="none" stroke="black" points="805.5,-60.5 901.5,-60.5 "/>
<text text-anchor="middle" x="853.5" y="-48.5" font-family="Helvetica,sans-Serif" font-size="10.00"> </text>
<polyline fill="none" stroke="black" points="805.5,-41.5 901.5,-41.5 "/>
<text text-anchor="start" x="813.5" y="-29.5" font-family="Helvetica,sans-Serif" font-size="10.00">+ ch_formatter()</text>
<text text-anchor="start" x="813.5" y="-18.5" font-family="Helvetica,sans-Serif" font-size="10.00">+ format()</text>
</a>
</g>
</g>
<!-- Node1&#45;&gt;Node9 -->
<g id="edge8" class="edge"><title>Node1&#45;&gt;Node9</title>
<path fill="none" stroke="midnightblue" d="M1621.87,-175.878C1463.03,-172.187 1038.23,-157.281 910.5,-102 903.735,-99.072 897.202,-95.0325 891.123,-90.5078"/>
<polygon fill="none" stroke="midnightblue" points="1621.87,-179.378 1631.94,-176.105 1622.03,-172.38 1621.87,-179.378"/>
</g>
<!-- Node10 -->
<g id="node10" class="node"><title>Node10</title>
<g id="a_node10"><a xlink:href="classspdlog_1_1details_1_1D__formatter.html" target="_top" xlink:title="{spdlog::details::D\l_formatter\n||}">
<polygon fill="none" stroke="black" points="920,-17 920,-85 1013,-85 1013,-17 920,-17"/>
<text text-anchor="start" x="928" y="-73" font-family="Helvetica,sans-Serif" font-size="10.00">spdlog::details::D</text>
<text text-anchor="middle" x="966.5" y="-62" font-family="Helvetica,sans-Serif" font-size="10.00">_formatter</text>
<polyline fill="none" stroke="black" points="920,-55 1013,-55 "/>
<text text-anchor="middle" x="966.5" y="-43" font-family="Helvetica,sans-Serif" font-size="10.00"> </text>
<polyline fill="none" stroke="black" points="920,-36 1013,-36 "/>
<text text-anchor="middle" x="966.5" y="-24" font-family="Helvetica,sans-Serif" font-size="10.00"> </text>
</a>
</g>
</g>
<!-- Node1&#45;&gt;Node10 -->
<g id="edge9" class="edge"><title>Node1&#45;&gt;Node10</title>
<path fill="none" stroke="midnightblue" d="M1621.26,-174.839C1478.54,-169.041 1127.85,-150.184 1021.5,-102 1012.45,-97.8994 1003.87,-91.742 996.291,-85.1363"/>
<polygon fill="none" stroke="midnightblue" points="1621.45,-178.349 1631.58,-175.25 1621.73,-171.354 1621.45,-178.349"/>
</g>
<!-- Node11 -->
<g id="node11" class="node"><title>Node11</title>
<g id="a_node11"><a xlink:href="classspdlog_1_1details_1_1d__formatter.html" target="_top" xlink:title="{spdlog::details::d\l_formatter\n||}">
<polygon fill="none" stroke="black" points="1031,-17 1031,-85 1122,-85 1122,-17 1031,-17"/>
<text text-anchor="start" x="1039" y="-73" font-family="Helvetica,sans-Serif" font-size="10.00">spdlog::details::d</text>
<text text-anchor="middle" x="1076.5" y="-62" font-family="Helvetica,sans-Serif" font-size="10.00">_formatter</text>
<polyline fill="none" stroke="black" points="1031,-55 1122,-55 "/>
<text text-anchor="middle" x="1076.5" y="-43" font-family="Helvetica,sans-Serif" font-size="10.00"> </text>
<polyline fill="none" stroke="black" points="1031,-36 1122,-36 "/>
<text text-anchor="middle" x="1076.5" y="-24" font-family="Helvetica,sans-Serif" font-size="10.00"> </text>
</a>
</g>
</g>
<!-- Node1&#45;&gt;Node11 -->
<g id="edge10" class="edge"><title>Node1&#45;&gt;Node11</title>
<path fill="none" stroke="midnightblue" d="M1621.71,-173.36C1496.99,-165.148 1216.63,-142.655 1130.5,-102 1121.72,-97.8552 1113.39,-91.7647 1106.02,-85.249"/>
<polygon fill="none" stroke="midnightblue" points="1621.65,-176.863 1631.85,-174.019 1622.1,-169.878 1621.65,-176.863"/>
</g>
<!-- Node12 -->
<g id="node12" class="node"><title>Node12</title>
<g id="a_node12"><a xlink:href="classspdlog_1_1details_1_1e__formatter.html" target="_top" xlink:title="{spdlog::details::e\l_formatter\n||}">
<polygon fill="none" stroke="black" points="1140,-17 1140,-85 1231,-85 1231,-17 1140,-17"/>
<text text-anchor="start" x="1148" y="-73" font-family="Helvetica,sans-Serif" font-size="10.00">spdlog::details::e</text>
<text text-anchor="middle" x="1185.5" y="-62" font-family="Helvetica,sans-Serif" font-size="10.00">_formatter</text>
<polyline fill="none" stroke="black" points="1140,-55 1231,-55 "/>
<text text-anchor="middle" x="1185.5" y="-43" font-family="Helvetica,sans-Serif" font-size="10.00"> </text>
<polyline fill="none" stroke="black" points="1140,-36 1231,-36 "/>
<text text-anchor="middle" x="1185.5" y="-24" font-family="Helvetica,sans-Serif" font-size="10.00"> </text>
</a>
</g>
</g>
<!-- Node1&#45;&gt;Node12 -->
<g id="edge11" class="edge"><title>Node1&#45;&gt;Node12</title>
<path fill="none" stroke="midnightblue" d="M1621.54,-177.294C1533.14,-175.433 1366.22,-163.187 1240.5,-102 1231.68,-97.7081 1223.25,-91.5577 1215.76,-85.0307"/>
<polygon fill="none" stroke="midnightblue" points="1621.6,-180.795 1631.66,-177.469 1621.72,-173.797 1621.6,-180.795"/>
</g>
<!-- Node13 -->
<g id="node13" class="node"><title>Node13</title>
<g id="a_node13"><a xlink:href="classspdlog_1_1details_1_1F__formatter.html" target="_top" xlink:title="{spdlog::details::F\l_formatter\n||}">
<polygon fill="none" stroke="black" points="1249.5,-17 1249.5,-85 1341.5,-85 1341.5,-17 1249.5,-17"/>
<text text-anchor="start" x="1257.5" y="-73" font-family="Helvetica,sans-Serif" font-size="10.00">spdlog::details::F</text>
<text text-anchor="middle" x="1295.5" y="-62" font-family="Helvetica,sans-Serif" font-size="10.00">_formatter</text>
<polyline fill="none" stroke="black" points="1249.5,-55 1341.5,-55 "/>
<text text-anchor="middle" x="1295.5" y="-43" font-family="Helvetica,sans-Serif" font-size="10.00"> </text>
<polyline fill="none" stroke="black" points="1249.5,-36 1341.5,-36 "/>
<text text-anchor="middle" x="1295.5" y="-24" font-family="Helvetica,sans-Serif" font-size="10.00"> </text>
</a>
</g>
</g>
<!-- Node1&#45;&gt;Node13 -->
<g id="edge12" class="edge"><title>Node1&#45;&gt;Node13</title>
<path fill="none" stroke="midnightblue" d="M1621.67,-172.623C1552.55,-165.586 1437.99,-147.55 1350.5,-102 1342.03,-97.5903 1333.86,-91.5522 1326.53,-85.1954"/>
<polygon fill="none" stroke="midnightblue" points="1621.66,-176.138 1631.95,-173.622 1622.33,-169.17 1621.66,-176.138"/>
</g>
<!-- Node14 -->
<g id="node14" class="node"><title>Node14</title>
<g id="a_node14"><a xlink:href="classspdlog_1_1details_1_1f__formatter.html" target="_top" xlink:title="{spdlog::details::f\l_formatter\n||}">
<polygon fill="none" stroke="black" points="1360,-17 1360,-85 1449,-85 1449,-17 1360,-17"/>
<text text-anchor="start" x="1368" y="-73" font-family="Helvetica,sans-Serif" font-size="10.00">spdlog::details::f</text>
<text text-anchor="middle" x="1404.5" y="-62" font-family="Helvetica,sans-Serif" font-size="10.00">_formatter</text>
<polyline fill="none" stroke="black" points="1360,-55 1449,-55 "/>
<text text-anchor="middle" x="1404.5" y="-43" font-family="Helvetica,sans-Serif" font-size="10.00"> </text>
<polyline fill="none" stroke="black" points="1360,-36 1449,-36 "/>
<text text-anchor="middle" x="1404.5" y="-24" font-family="Helvetica,sans-Serif" font-size="10.00"> </text>
</a>
</g>
</g>
<!-- Node1&#45;&gt;Node14 -->
<g id="edge13" class="edge"><title>Node1&#45;&gt;Node14</title>
<path fill="none" stroke="midnightblue" d="M1621.8,-164.364C1574.7,-152.813 1508.97,-132.781 1457.5,-102 1449.68,-97.325 1442.07,-91.3246 1435.17,-85.1142"/>
<polygon fill="none" stroke="midnightblue" points="1621.02,-167.776 1631.56,-166.701 1622.65,-160.968 1621.02,-167.776"/>
</g>
<!-- Node15 -->
<g id="node15" class="node"><title>Node15</title>
<g id="a_node15"><a xlink:href="classspdlog_1_1details_1_1full__formatter.html" target="_top" xlink:title="{spdlog::details::full\l_formatter\n||}">
<polygon fill="none" stroke="black" points="1466.5,-17 1466.5,-85 1564.5,-85 1564.5,-17 1466.5,-17"/>
<text text-anchor="start" x="1474.5" y="-73" font-family="Helvetica,sans-Serif" font-size="10.00">spdlog::details::full</text>
<text text-anchor="middle" x="1515.5" y="-62" font-family="Helvetica,sans-Serif" font-size="10.00">_formatter</text>
<polyline fill="none" stroke="black" points="1466.5,-55 1564.5,-55 "/>
<text text-anchor="middle" x="1515.5" y="-43" font-family="Helvetica,sans-Serif" font-size="10.00"> </text>
<polyline fill="none" stroke="black" points="1466.5,-36 1564.5,-36 "/>
<text text-anchor="middle" x="1515.5" y="-24" font-family="Helvetica,sans-Serif" font-size="10.00"> </text>
</a>
</g>
</g>
<!-- Node1&#45;&gt;Node15 -->
<g id="edge14" class="edge"><title>Node1&#45;&gt;Node15</title>
<path fill="none" stroke="midnightblue" d="M1623.17,-138.479C1606.48,-127.131 1588.53,-114.418 1572.5,-102 1565.74,-96.7591 1558.73,-90.9561 1552.05,-85.2145"/>
<polygon fill="none" stroke="midnightblue" points="1621.51,-141.584 1631.76,-144.28 1625.43,-135.783 1621.51,-141.584"/>
</g>
<!-- Node16 -->
<g id="node16" class="node"><title>Node16</title>
<g id="a_node16"><a xlink:href="classspdlog_1_1details_1_1H__formatter.html" target="_top" xlink:title="{spdlog::details::H\l_formatter\n||}">
<polygon fill="none" stroke="black" points="1582,-17 1582,-85 1675,-85 1675,-17 1582,-17"/>
<text text-anchor="start" x="1590" y="-73" font-family="Helvetica,sans-Serif" font-size="10.00">spdlog::details::H</text>
<text text-anchor="middle" x="1628.5" y="-62" font-family="Helvetica,sans-Serif" font-size="10.00">_formatter</text>
<polyline fill="none" stroke="black" points="1582,-55 1675,-55 "/>
<text text-anchor="middle" x="1628.5" y="-43" font-family="Helvetica,sans-Serif" font-size="10.00"> </text>
<polyline fill="none" stroke="black" points="1582,-36 1675,-36 "/>
<text text-anchor="middle" x="1628.5" y="-24" font-family="Helvetica,sans-Serif" font-size="10.00"> </text>
</a>
</g>
</g>
<!-- Node1&#45;&gt;Node16 -->
<g id="edge15" class="edge"><title>Node1&#45;&gt;Node16</title>
<path fill="none" stroke="midnightblue" d="M1661.78,-129.037C1655.44,-114.369 1648.62,-98.5711 1642.81,-85.1222"/>
<polygon fill="none" stroke="midnightblue" points="1658.68,-130.684 1665.86,-138.476 1665.1,-127.908 1658.68,-130.684"/>
</g>
<!-- Node17 -->
<g id="node17" class="node"><title>Node17</title>
<g id="a_node17"><a xlink:href="classspdlog_1_1details_1_1I__formatter.html" target="_top" xlink:title="{spdlog::details::I\l_formatter\n||}">
<polygon fill="none" stroke="black" points="1693,-17 1693,-85 1782,-85 1782,-17 1693,-17"/>
<text text-anchor="start" x="1701" y="-73" font-family="Helvetica,sans-Serif" font-size="10.00">spdlog::details::I</text>
<text text-anchor="middle" x="1737.5" y="-62" font-family="Helvetica,sans-Serif" font-size="10.00">_formatter</text>
<polyline fill="none" stroke="black" points="1693,-55 1782,-55 "/>
<text text-anchor="middle" x="1737.5" y="-43" font-family="Helvetica,sans-Serif" font-size="10.00"> </text>
<polyline fill="none" stroke="black" points="1693,-36 1782,-36 "/>
<text text-anchor="middle" x="1737.5" y="-24" font-family="Helvetica,sans-Serif" font-size="10.00"> </text>
</a>
</g>
</g>
<!-- Node1&#45;&gt;Node17 -->
<g id="edge16" class="edge"><title>Node1&#45;&gt;Node17</title>
<path fill="none" stroke="midnightblue" d="M1703.6,-129.037C1710.06,-114.369 1717.01,-98.5711 1722.93,-85.1222"/>
<polygon fill="none" stroke="midnightblue" points="1700.27,-127.913 1699.45,-138.476 1706.68,-130.732 1700.27,-127.913"/>
</g>
<!-- Node18 -->
<g id="node18" class="node"><title>Node18</title>
<g id="a_node18"><a xlink:href="classspdlog_1_1details_1_1level__formatter.html" target="_top" xlink:title="{spdlog::details::level\l_formatter\n||}">
<polygon fill="none" stroke="black" points="1799.5,-17 1799.5,-85 1905.5,-85 1905.5,-17 1799.5,-17"/>
<text text-anchor="start" x="1807.5" y="-73" font-family="Helvetica,sans-Serif" font-size="10.00">spdlog::details::level</text>
<text text-anchor="middle" x="1852.5" y="-62" font-family="Helvetica,sans-Serif" font-size="10.00">_formatter</text>
<polyline fill="none" stroke="black" points="1799.5,-55 1905.5,-55 "/>
<text text-anchor="middle" x="1852.5" y="-43" font-family="Helvetica,sans-Serif" font-size="10.00"> </text>
<polyline fill="none" stroke="black" points="1799.5,-36 1905.5,-36 "/>
<text text-anchor="middle" x="1852.5" y="-24" font-family="Helvetica,sans-Serif" font-size="10.00"> </text>
</a>
</g>
</g>
<!-- Node1&#45;&gt;Node18 -->
<g id="edge17" class="edge"><title>Node1&#45;&gt;Node18</title>
<path fill="none" stroke="midnightblue" d="M1741.49,-137.745C1757.88,-126.477 1775.55,-113.99 1791.5,-102 1798.61,-96.6514 1806.05,-90.7955 1813.18,-85.0347"/>
<polygon fill="none" stroke="midnightblue" points="1739.32,-134.982 1733.05,-143.516 1743.28,-140.76 1739.32,-134.982"/>
</g>
<!-- Node19 -->
<g id="node19" class="node"><title>Node19</title>
<g id="a_node19"><a xlink:href="classspdlog_1_1details_1_1M__formatter.html" target="_top" xlink:title="{spdlog::details::M\l_formatter\n||}">
<polygon fill="none" stroke="black" points="1923.5,-17 1923.5,-85 2017.5,-85 2017.5,-17 1923.5,-17"/>
<text text-anchor="start" x="1931.5" y="-73" font-family="Helvetica,sans-Serif" font-size="10.00">spdlog::details::M</text>
<text text-anchor="middle" x="1970.5" y="-62" font-family="Helvetica,sans-Serif" font-size="10.00">_formatter</text>
<polyline fill="none" stroke="black" points="1923.5,-55 2017.5,-55 "/>
<text text-anchor="middle" x="1970.5" y="-43" font-family="Helvetica,sans-Serif" font-size="10.00"> </text>
<polyline fill="none" stroke="black" points="1923.5,-36 2017.5,-36 "/>
<text text-anchor="middle" x="1970.5" y="-24" font-family="Helvetica,sans-Serif" font-size="10.00"> </text>
</a>
</g>
</g>
<!-- Node1&#45;&gt;Node19 -->
<g id="edge18" class="edge"><title>Node1&#45;&gt;Node19</title>
<path fill="none" stroke="midnightblue" d="M1743.46,-164.636C1792,-153.105 1860.51,-132.968 1914.5,-102 1922.64,-97.331 1930.63,-91.3332 1937.91,-85.1234"/>
<polygon fill="none" stroke="midnightblue" points="1742.37,-161.296 1733.42,-166.967 1743.96,-168.115 1742.37,-161.296"/>
</g>
<!-- Node20 -->
<g id="node20" class="node"><title>Node20</title>
<g id="a_node20"><a xlink:href="classspdlog_1_1details_1_1m__formatter.html" target="_top" xlink:title="{spdlog::details::m\l_formatter\n||}">
<polygon fill="none" stroke="black" points="2035.5,-17 2035.5,-85 2129.5,-85 2129.5,-17 2035.5,-17"/>
<text text-anchor="start" x="2043.5" y="-73" font-family="Helvetica,sans-Serif" font-size="10.00">spdlog::details::m</text>
<text text-anchor="middle" x="2082.5" y="-62" font-family="Helvetica,sans-Serif" font-size="10.00">_formatter</text>
<polyline fill="none" stroke="black" points="2035.5,-55 2129.5,-55 "/>
<text text-anchor="middle" x="2082.5" y="-43" font-family="Helvetica,sans-Serif" font-size="10.00"> </text>
<polyline fill="none" stroke="black" points="2035.5,-36 2129.5,-36 "/>
<text text-anchor="middle" x="2082.5" y="-24" font-family="Helvetica,sans-Serif" font-size="10.00"> </text>
</a>
</g>
</g>
<!-- Node1&#45;&gt;Node20 -->
<g id="edge19" class="edge"><title>Node1&#45;&gt;Node20</title>
<path fill="none" stroke="midnightblue" d="M1743.18,-173.132C1814.46,-166.532 1934.64,-148.863 2026.5,-102 2035.09,-97.6169 2043.39,-91.5899 2050.86,-85.2356"/>
<polygon fill="none" stroke="midnightblue" points="1742.68,-169.663 1733.03,-174.028 1743.29,-176.636 1742.68,-169.663"/>
</g>
<!-- Node21 -->
<g id="node21" class="node"><title>Node21</title>
<g id="a_node21"><a xlink:href="classspdlog_1_1details_1_1p__formatter.html" target="_top" xlink:title="{spdlog::details::p\l_formatter\n||}">
<polygon fill="none" stroke="black" points="2148,-17 2148,-85 2239,-85 2239,-17 2148,-17"/>
<text text-anchor="start" x="2156" y="-73" font-family="Helvetica,sans-Serif" font-size="10.00">spdlog::details::p</text>
<text text-anchor="middle" x="2193.5" y="-62" font-family="Helvetica,sans-Serif" font-size="10.00">_formatter</text>
<polyline fill="none" stroke="black" points="2148,-55 2239,-55 "/>
<text text-anchor="middle" x="2193.5" y="-43" font-family="Helvetica,sans-Serif" font-size="10.00"> </text>
<polyline fill="none" stroke="black" points="2148,-36 2239,-36 "/>
<text text-anchor="middle" x="2193.5" y="-24" font-family="Helvetica,sans-Serif" font-size="10.00"> </text>
</a>
</g>
</g>
<!-- Node1&#45;&gt;Node21 -->
<g id="edge20" class="edge"><title>Node1&#45;&gt;Node21</title>
<path fill="none" stroke="midnightblue" d="M1743.29,-177.739C1833.9,-176.537 2007.75,-165.227 2138.5,-102 2147.33,-97.7304 2155.76,-91.5892 2163.26,-85.0638"/>
<polygon fill="none" stroke="midnightblue" points="1743.15,-174.24 1733.19,-177.835 1743.22,-181.239 1743.15,-174.24"/>
</g>
<!-- Node22 -->
<g id="node22" class="node"><title>Node22</title>
<g id="a_node22"><a xlink:href="classspdlog_1_1details_1_1pid__formatter.html" target="_top" xlink:title="{spdlog::details::pid\l_formatter\n||}">
<polygon fill="none" stroke="black" points="2257.5,-17 2257.5,-85 2355.5,-85 2355.5,-17 2257.5,-17"/>
<text text-anchor="start" x="2265.5" y="-73" font-family="Helvetica,sans-Serif" font-size="10.00">spdlog::details::pid</text>
<text text-anchor="middle" x="2306.5" y="-62" font-family="Helvetica,sans-Serif" font-size="10.00">_formatter</text>
<polyline fill="none" stroke="black" points="2257.5,-55 2355.5,-55 "/>
<text text-anchor="middle" x="2306.5" y="-43" font-family="Helvetica,sans-Serif" font-size="10.00"> </text>
<polyline fill="none" stroke="black" points="2257.5,-36 2355.5,-36 "/>
<text text-anchor="middle" x="2306.5" y="-24" font-family="Helvetica,sans-Serif" font-size="10.00"> </text>
</a>
</g>
</g>
<!-- Node1&#45;&gt;Node22 -->
<g id="edge21" class="edge"><title>Node1&#45;&gt;Node22</title>
<path fill="none" stroke="midnightblue" d="M1743.77,-173.309C1870.95,-164.934 2159.21,-142.046 2248.5,-102 2257.84,-97.8109 2266.81,-91.6183 2274.78,-85.0065"/>
<polygon fill="none" stroke="midnightblue" points="1743.18,-169.84 1733.43,-173.981 1743.64,-176.825 1743.18,-169.84"/>
</g>
<!-- Node23 -->
<g id="node23" class="node"><title>Node23</title>
<g id="a_node23"><a xlink:href="classspdlog_1_1details_1_1r__formatter.html" target="_top" xlink:title="{spdlog::details::r\l_formatter\n||}">
<polygon fill="none" stroke="black" points="2373,-17 2373,-85 2462,-85 2462,-17 2373,-17"/>
<text text-anchor="start" x="2381" y="-73" font-family="Helvetica,sans-Serif" font-size="10.00">spdlog::details::r</text>
<text text-anchor="middle" x="2417.5" y="-62" font-family="Helvetica,sans-Serif" font-size="10.00">_formatter</text>
<polyline fill="none" stroke="black" points="2373,-55 2462,-55 "/>
<text text-anchor="middle" x="2417.5" y="-43" font-family="Helvetica,sans-Serif" font-size="10.00"> </text>
<polyline fill="none" stroke="black" points="2373,-36 2462,-36 "/>
<text text-anchor="middle" x="2417.5" y="-24" font-family="Helvetica,sans-Serif" font-size="10.00"> </text>
</a>
</g>
</g>
<!-- Node1&#45;&gt;Node23 -->
<g id="edge22" class="edge"><title>Node1&#45;&gt;Node23</title>
<path fill="none" stroke="midnightblue" d="M1743.18,-175.236C1888.89,-170.225 2254.55,-152.812 2364.5,-102 2373.34,-97.9138 2381.66,-91.7623 2388.97,-85.1575"/>
<polygon fill="none" stroke="midnightblue" points="1742.96,-171.742 1733.08,-175.576 1743.19,-178.738 1742.96,-171.742"/>
</g>
<!-- Node24 -->
<g id="node24" class="node"><title>Node24</title>
<g id="a_node24"><a xlink:href="classspdlog_1_1details_1_1R__formatter.html" target="_top" xlink:title="{spdlog::details::R\l_formatter\n||}">
<polygon fill="none" stroke="black" points="2480,-17 2480,-85 2573,-85 2573,-17 2480,-17"/>
<text text-anchor="start" x="2488" y="-73" font-family="Helvetica,sans-Serif" font-size="10.00">spdlog::details::R</text>
<text text-anchor="middle" x="2526.5" y="-62" font-family="Helvetica,sans-Serif" font-size="10.00">_formatter</text>
<polyline fill="none" stroke="black" points="2480,-55 2573,-55 "/>
<text text-anchor="middle" x="2526.5" y="-43" font-family="Helvetica,sans-Serif" font-size="10.00"> </text>
<polyline fill="none" stroke="black" points="2480,-36 2573,-36 "/>
<text text-anchor="middle" x="2526.5" y="-24" font-family="Helvetica,sans-Serif" font-size="10.00"> </text>
</a>
</g>
</g>
<!-- Node1&#45;&gt;Node24 -->
<g id="edge23" class="edge"><title>Node1&#45;&gt;Node24</title>
<path fill="none" stroke="midnightblue" d="M1743.37,-176.147C1904.93,-173.108 2341.12,-159.644 2471.5,-102 2480.59,-97.9819 2489.18,-91.8575 2496.76,-85.2574"/>
<polygon fill="none" stroke="midnightblue" points="1743.06,-172.652 1733.13,-176.332 1743.19,-179.651 1743.06,-172.652"/>
</g>
<!-- Node25 -->
<g id="node25" class="node"><title>Node25</title>
<g id="a_node25"><a xlink:href="classspdlog_1_1details_1_1S__formatter.html" target="_top" xlink:title="{spdlog::details::S\l_formatter\n||}">
<polygon fill="none" stroke="black" points="2591.5,-17 2591.5,-85 2683.5,-85 2683.5,-17 2591.5,-17"/>
<text text-anchor="start" x="2599.5" y="-73" font-family="Helvetica,sans-Serif" font-size="10.00">spdlog::details::S</text>
<text text-anchor="middle" x="2637.5" y="-62" font-family="Helvetica,sans-Serif" font-size="10.00">_formatter</text>
<polyline fill="none" stroke="black" points="2591.5,-55 2683.5,-55 "/>
<text text-anchor="middle" x="2637.5" y="-43" font-family="Helvetica,sans-Serif" font-size="10.00"> </text>
<polyline fill="none" stroke="black" points="2591.5,-36 2683.5,-36 "/>
<text text-anchor="middle" x="2637.5" y="-24" font-family="Helvetica,sans-Serif" font-size="10.00"> </text>
</a>
</g>
</g>
<!-- Node1&#45;&gt;Node25 -->
<g id="edge24" class="edge"><title>Node1&#45;&gt;Node25</title>
<path fill="none" stroke="midnightblue" d="M1743.21,-176.976C1919.93,-176.122 2431.15,-167.87 2582.5,-102 2591.73,-97.9834 2600.44,-91.7726 2608.09,-85.0777"/>
<polygon fill="none" stroke="midnightblue" points="1743.03,-173.477 1733.05,-177.019 1743.06,-180.476 1743.03,-173.477"/>
</g>
<!-- Node26 -->
<g id="node26" class="node"><title>Node26</title>
<g id="a_node26"><a xlink:href="classspdlog_1_1details_1_1short__level__formatter.html" target="_top" xlink:title="{spdlog::details::short\l_level_formatter\n||}">
<polygon fill="none" stroke="black" points="2702,-17 2702,-85 2809,-85 2809,-17 2702,-17"/>
<text text-anchor="start" x="2710" y="-73" font-family="Helvetica,sans-Serif" font-size="10.00">spdlog::details::short</text>
<text text-anchor="middle" x="2755.5" y="-62" font-family="Helvetica,sans-Serif" font-size="10.00">_level_formatter</text>
<polyline fill="none" stroke="black" points="2702,-55 2809,-55 "/>
<text text-anchor="middle" x="2755.5" y="-43" font-family="Helvetica,sans-Serif" font-size="10.00"> </text>
<polyline fill="none" stroke="black" points="2702,-36 2809,-36 "/>
<text text-anchor="middle" x="2755.5" y="-24" font-family="Helvetica,sans-Serif" font-size="10.00"> </text>
</a>
</g>
</g>
<!-- Node1&#45;&gt;Node26 -->
<g id="edge25" class="edge"><title>Node1&#45;&gt;Node26</title>
<path fill="none" stroke="midnightblue" d="M1743.44,-177.131C1934.27,-176.82 2518.02,-170.176 2692.5,-102 2702.64,-98.0362 2712.46,-91.8461 2721.2,-85.1543"/>
<polygon fill="none" stroke="midnightblue" points="1743.3,-173.631 1733.31,-177.143 1743.31,-180.631 1743.3,-173.631"/>
</g>
<!-- Node27 -->
<g id="node27" class="node"><title>Node27</title>
<g id="a_node27"><a xlink:href="classspdlog_1_1details_1_1T__formatter.html" target="_top" xlink:title="{spdlog::details::T\l_formatter\n||}">
<polygon fill="none" stroke="black" points="2827.5,-17 2827.5,-85 2919.5,-85 2919.5,-17 2827.5,-17"/>
<text text-anchor="start" x="2835.5" y="-73" font-family="Helvetica,sans-Serif" font-size="10.00">spdlog::details::T</text>
<text text-anchor="middle" x="2873.5" y="-62" font-family="Helvetica,sans-Serif" font-size="10.00">_formatter</text>
<polyline fill="none" stroke="black" points="2827.5,-55 2919.5,-55 "/>
<text text-anchor="middle" x="2873.5" y="-43" font-family="Helvetica,sans-Serif" font-size="10.00"> </text>
<polyline fill="none" stroke="black" points="2827.5,-36 2919.5,-36 "/>
<text text-anchor="middle" x="2873.5" y="-24" font-family="Helvetica,sans-Serif" font-size="10.00"> </text>
</a>
</g>
</g>
<!-- Node1&#45;&gt;Node27 -->
<g id="edge26" class="edge"><title>Node1&#45;&gt;Node27</title>
<path fill="none" stroke="midnightblue" d="M1743.49,-175.322C1965.02,-168.904 2719.34,-144.141 2818.5,-102 2827.76,-98.063 2836.49,-91.8833 2844.14,-85.1932"/>
<polygon fill="none" stroke="midnightblue" points="1743.24,-171.827 1733.35,-175.613 1743.44,-178.824 1743.24,-171.827"/>
</g>
<!-- Node28 -->
<g id="node28" class="node"><title>Node28</title>
<g id="a_node28"><a xlink:href="classspdlog_1_1details_1_1t__formatter.html" target="_top" xlink:title="{spdlog::details::t\l_formatter\n||}">
<polygon fill="none" stroke="black" points="2938,-17 2938,-85 3027,-85 3027,-17 2938,-17"/>
<text text-anchor="start" x="2946" y="-73" font-family="Helvetica,sans-Serif" font-size="10.00">spdlog::details::t</text>
<text text-anchor="middle" x="2982.5" y="-62" font-family="Helvetica,sans-Serif" font-size="10.00">_formatter</text>
<polyline fill="none" stroke="black" points="2938,-55 3027,-55 "/>
<text text-anchor="middle" x="2982.5" y="-43" font-family="Helvetica,sans-Serif" font-size="10.00"> </text>
<polyline fill="none" stroke="black" points="2938,-36 3027,-36 "/>
<text text-anchor="middle" x="2982.5" y="-24" font-family="Helvetica,sans-Serif" font-size="10.00"> </text>
</a>
</g>
</g>
<!-- Node1&#45;&gt;Node28 -->
<g id="edge27" class="edge"><title>Node1&#45;&gt;Node28</title>
<path fill="none" stroke="midnightblue" d="M1743.45,-175.734C1978.56,-170.524 2818.95,-148.773 2928.5,-102 2937.67,-98.0867 2946.26,-91.9163 2953.78,-85.2276"/>
<polygon fill="none" stroke="midnightblue" points="1743.29,-172.237 1733.37,-175.956 1743.44,-179.235 1743.29,-172.237"/>
</g>
<!-- Node29 -->
<g id="node29" class="node"><title>Node29</title>
<g id="a_node29"><a xlink:href="classspdlog_1_1details_1_1v__formatter.html" target="_top" xlink:title="{spdlog::details::v\l_formatter\n||}">
<polygon fill="none" stroke="black" points="3045,-17 3045,-85 3136,-85 3136,-17 3045,-17"/>
<text text-anchor="start" x="3053" y="-73" font-family="Helvetica,sans-Serif" font-size="10.00">spdlog::details::v</text>
<text text-anchor="middle" x="3090.5" y="-62" font-family="Helvetica,sans-Serif" font-size="10.00">_formatter</text>
<polyline fill="none" stroke="black" points="3045,-55 3136,-55 "/>
<text text-anchor="middle" x="3090.5" y="-43" font-family="Helvetica,sans-Serif" font-size="10.00"> </text>
<polyline fill="none" stroke="black" points="3045,-36 3136,-36 "/>
<text text-anchor="middle" x="3090.5" y="-24" font-family="Helvetica,sans-Serif" font-size="10.00"> </text>
</a>
</g>
</g>
<!-- Node1&#45;&gt;Node29 -->
<g id="edge28" class="edge"><title>Node1&#45;&gt;Node29</title>
<path fill="none" stroke="midnightblue" d="M1743.29,-176.051C1990.97,-171.858 2916.51,-152.893 3036.5,-102 3045.79,-98.0587 3054.49,-91.7885 3062.08,-85.002"/>
<polygon fill="none" stroke="midnightblue" points="1742.98,-172.556 1733.04,-176.223 1743.1,-179.555 1742.98,-172.556"/>
</g>
<!-- Node30 -->
<g id="node30" class="node"><title>Node30</title>
<g id="a_node30"><a xlink:href="classspdlog_1_1details_1_1Y__formatter.html" target="_top" xlink:title="{spdlog::details::Y\l_formatter\n||}">
<polygon fill="none" stroke="black" points="3154.5,-17 3154.5,-85 3246.5,-85 3246.5,-17 3154.5,-17"/>
<text text-anchor="start" x="3162.5" y="-73" font-family="Helvetica,sans-Serif" font-size="10.00">spdlog::details::Y</text>
<text text-anchor="middle" x="3200.5" y="-62" font-family="Helvetica,sans-Serif" font-size="10.00">_formatter</text>
<polyline fill="none" stroke="black" points="3154.5,-55 3246.5,-55 "/>
<text text-anchor="middle" x="3200.5" y="-43" font-family="Helvetica,sans-Serif" font-size="10.00"> </text>
<polyline fill="none" stroke="black" points="3154.5,-36 3246.5,-36 "/>
<text text-anchor="middle" x="3200.5" y="-24" font-family="Helvetica,sans-Serif" font-size="10.00"> </text>
</a>
</g>
</g>
<!-- Node1&#45;&gt;Node30 -->
<g id="edge29" class="edge"><title>Node1&#45;&gt;Node30</title>
<path fill="none" stroke="midnightblue" d="M1743.38,-176.29C2003.56,-172.929 3014.73,-156.446 3145.5,-102 3154.91,-98.0816 3163.75,-91.82 3171.48,-85.0347"/>
<polygon fill="none" stroke="midnightblue" points="1742.96,-172.795 1733,-176.422 1743.05,-179.794 1742.96,-172.795"/>
</g>
<!-- Node31 -->
<g id="node31" class="node"><title>Node31</title>
<g id="a_node31"><a xlink:href="classspdlog_1_1details_1_1z__formatter.html" target="_top" xlink:title="{spdlog::details::z\l_formatter\n|+ cache_refresh\l|+ z_formatter()\l+ z_formatter()\l+ operator=()\l+ format()\l}">
<polygon fill="none" stroke="black" points="3265,-0.5 3265,-101.5 3356,-101.5 3356,-0.5 3265,-0.5"/>
<text text-anchor="start" x="3273" y="-89.5" font-family="Helvetica,sans-Serif" font-size="10.00">spdlog::details::z</text>
<text text-anchor="middle" x="3310.5" y="-78.5" font-family="Helvetica,sans-Serif" font-size="10.00">_formatter</text>
<polyline fill="none" stroke="black" points="3265,-71.5 3356,-71.5 "/>
<text text-anchor="start" x="3273" y="-59.5" font-family="Helvetica,sans-Serif" font-size="10.00">+ cache_refresh</text>
<polyline fill="none" stroke="black" points="3265,-52.5 3356,-52.5 "/>
<text text-anchor="start" x="3273" y="-40.5" font-family="Helvetica,sans-Serif" font-size="10.00">+ z_formatter()</text>
<text text-anchor="start" x="3273" y="-29.5" font-family="Helvetica,sans-Serif" font-size="10.00">+ z_formatter()</text>
<text text-anchor="start" x="3273" y="-18.5" font-family="Helvetica,sans-Serif" font-size="10.00">+ operator=()</text>
<text text-anchor="start" x="3273" y="-7.5" font-family="Helvetica,sans-Serif" font-size="10.00">+ format()</text>
</a>
</g>
</g>
<!-- Node1&#45;&gt;Node31 -->
<g id="edge30" class="edge"><title>Node1&#45;&gt;Node31</title>
<path fill="none" stroke="midnightblue" d="M1743.48,-176.524C2015.86,-174.07 3114.06,-160.593 3255.5,-102 3258.72,-100.667 3261.87,-99.0582 3264.93,-97.2477"/>
<polygon fill="none" stroke="midnightblue" points="1743.35,-173.025 1733.38,-176.613 1743.42,-180.024 1743.35,-173.025"/>
</g>
</g>
</svg>
