<?xml version="1.0" encoding="UTF-8" standalone="no"?>
<!DOCTYPE svg PUBLIC "-//W3C//DTD SVG 1.1//EN"
 "http://www.w3.org/Graphics/SVG/1.1/DTD/svg11.dtd">
<!-- Generated by graphviz version 2.36.0 (20140111.2315)
 -->
<!-- Title: XBot::SSFileLogger Pages: 1 -->
<svg width="118pt" height="398pt"
 viewBox="0.00 0.00 118.00 398.00" xmlns="http://www.w3.org/2000/svg" xmlns:xlink="http://www.w3.org/1999/xlink">
<g id="graph0" class="graph" transform="scale(1 1) rotate(0) translate(4 394)">
<title>XBot::SSFileLogger</title>
<!-- Node1 -->
<g id="node1" class="node"><title>Node1</title>
<polygon fill="#bfbfbf" stroke="black" points="3.5,-128.5 3.5,-185.5 106.5,-185.5 106.5,-128.5 3.5,-128.5"/>
<text text-anchor="middle" x="55" y="-173.5" font-family="Helvetica,sans-Serif" font-size="10.00">XBot::SSFileLogger</text>
<polyline fill="none" stroke="black" points="3.5,-166.5 106.5,-166.5 "/>
<text text-anchor="middle" x="55" y="-154.5" font-family="Helvetica,sans-Serif" font-size="10.00"> </text>
<polyline fill="none" stroke="black" points="3.5,-147.5 106.5,-147.5 "/>
<text text-anchor="start" x="11.5" y="-135.5" font-family="Helvetica,sans-Serif" font-size="10.00">+ SSFileLogger()</text>
</g>
<!-- Node3 -->
<g id="node3" class="node"><title>Node3</title>
<g id="a_node3"><a xlink:href="classXBot_1_1SPDFileLogger.html" target="_top" xlink:title="{XBot::SPDFileLogger\n||+ SPDFileLogger()\l# info_internal()\l# warning_internal()\l# error_internal()\l}">
<polygon fill="none" stroke="black" points="0,-1 0,-91 110,-91 110,-1 0,-1"/>
<text text-anchor="middle" x="55" y="-79" font-family="Helvetica,sans-Serif" font-size="10.00">XBot::SPDFileLogger</text>
<polyline fill="none" stroke="black" points="0,-72 110,-72 "/>
<text text-anchor="middle" x="55" y="-60" font-family="Helvetica,sans-Serif" font-size="10.00"> </text>
<polyline fill="none" stroke="black" points="0,-53 110,-53 "/>
<text text-anchor="start" x="8" y="-41" font-family="Helvetica,sans-Serif" font-size="10.00">+ SPDFileLogger()</text>
<text text-anchor="start" x="8" y="-30" font-family="Helvetica,sans-Serif" font-size="10.00"># info_internal()</text>
<text text-anchor="start" x="8" y="-19" font-family="Helvetica,sans-Serif" font-size="10.00"># warning_internal()</text>
<text text-anchor="start" x="8" y="-8" font-family="Helvetica,sans-Serif" font-size="10.00"># error_internal()</text>
</a>
</g>
</g>
<!-- Node1&#45;&gt;Node3 -->
<g id="edge2" class="edge"><title>Node1&#45;&gt;Node3</title>
<path fill="none" stroke="midnightblue" d="M55,-118.484C55,-109.643 55,-100.139 55,-91.0399"/>
<polygon fill="none" stroke="midnightblue" points="51.5001,-118.495 55,-128.495 58.5001,-118.495 51.5001,-118.495"/>
</g>
<!-- Node2 -->
<g id="node2" class="node"><title>Node2</title>
<g id="a_node2"><a xlink:href="classXBot_1_1SSLogger.html" target="_top" xlink:title="String Stream Logger. ">
<polygon fill="none" stroke="black" points="3,-222.5 3,-389.5 107,-389.5 107,-222.5 3,-222.5"/>
<text text-anchor="middle" x="55" y="-377.5" font-family="Helvetica,sans-Serif" font-size="10.00">XBot::SSLogger</text>
<polyline fill="none" stroke="black" points="3,-370.5 107,-370.5 "/>
<text text-anchor="start" x="11" y="-358.5" font-family="Helvetica,sans-Serif" font-size="10.00"># _logger_name</text>
<text text-anchor="start" x="11" y="-347.5" font-family="Helvetica,sans-Serif" font-size="10.00"># _log_filename</text>
<text text-anchor="start" x="11" y="-336.5" font-family="Helvetica,sans-Serif" font-size="10.00"># _log_file_size</text>
<text text-anchor="start" x="11" y="-325.5" font-family="Helvetica,sans-Serif" font-size="10.00"># _log_max_files</text>
<polyline fill="none" stroke="black" points="3,-318.5 107,-318.5 "/>
<text text-anchor="start" x="11" y="-306.5" font-family="Helvetica,sans-Serif" font-size="10.00">+ SSLogger()</text>
<text text-anchor="start" x="11" y="-295.5" font-family="Helvetica,sans-Serif" font-size="10.00">+ setSeverityLevel()</text>
<text text-anchor="start" x="11" y="-284.5" font-family="Helvetica,sans-Serif" font-size="10.00">+ setHeader()</text>
<text text-anchor="start" x="11" y="-273.5" font-family="Helvetica,sans-Serif" font-size="10.00">+ log()</text>
<text text-anchor="start" x="11" y="-262.5" font-family="Helvetica,sans-Serif" font-size="10.00">+ endl()</text>
<text text-anchor="start" x="11" y="-251.5" font-family="Helvetica,sans-Serif" font-size="10.00"># info_internal()</text>
<text text-anchor="start" x="11" y="-240.5" font-family="Helvetica,sans-Serif" font-size="10.00"># warning_internal()</text>
<text text-anchor="start" x="11" y="-229.5" font-family="Helvetica,sans-Serif" font-size="10.00"># error_internal()</text>
</a>
</g>
</g>
<!-- Node2&#45;&gt;Node1 -->
<g id="edge1" class="edge"><title>Node2&#45;&gt;Node1</title>
<path fill="none" stroke="midnightblue" d="M55,-212.36C55,-202.786 55,-193.677 55,-185.748"/>
<polygon fill="none" stroke="midnightblue" points="51.5001,-212.476 55,-222.476 58.5001,-212.476 51.5001,-212.476"/>
</g>
</g>
</svg>
