<?xml version="1.0" encoding="UTF-8" standalone="no"?>
<!DOCTYPE svg PUBLIC "-//W3C//DTD SVG 1.1//EN"
 "http://www.w3.org/Graphics/SVG/1.1/DTD/svg11.dtd">
<!-- Generated by graphviz version 2.36.0 (20140111.2315)
 -->
<!-- Title: spdlog::formatter Pages: 1 -->
<svg width="132pt" height="206pt"
 viewBox="0.00 0.00 132.00 206.00" xmlns="http://www.w3.org/2000/svg" xmlns:xlink="http://www.w3.org/1999/xlink">
<g id="graph0" class="graph" transform="scale(1 1) rotate(0) translate(4 202)">
<title>spdlog::formatter</title>
<!-- Node1 -->
<g id="node1" class="node"><title>Node1</title>
<polygon fill="#bfbfbf" stroke="black" points="17,-129 17,-197 107,-197 107,-129 17,-129"/>
<text text-anchor="middle" x="62" y="-185" font-family="Helvetica,sans-Serif" font-size="10.00">spdlog::formatter</text>
<polyline fill="none" stroke="black" points="17,-178 107,-178 "/>
<text text-anchor="middle" x="62" y="-166" font-family="Helvetica,sans-Serif" font-size="10.00"> </text>
<polyline fill="none" stroke="black" points="17,-159 107,-159 "/>
<text text-anchor="start" x="25" y="-147" font-family="Helvetica,sans-Serif" font-size="10.00">+ ~formatter()</text>
<text text-anchor="start" x="25" y="-136" font-family="Helvetica,sans-Serif" font-size="10.00">+ format()</text>
</g>
<!-- Node2 -->
<g id="node2" class="node"><title>Node2</title>
<g id="a_node2"><a xlink:href="classspdlog_1_1pattern__formatter.html" target="_top" xlink:title="{spdlog::pattern_formatter\n||+ pattern_formatter()\l+ pattern_formatter()\l+ operator=()\l+ format()\l}">
<polygon fill="none" stroke="black" points="-0.5,-1 -0.5,-91 124.5,-91 124.5,-1 -0.5,-1"/>
<text text-anchor="middle" x="62" y="-79" font-family="Helvetica,sans-Serif" font-size="10.00">spdlog::pattern_formatter</text>
<polyline fill="none" stroke="black" points="-0.5,-72 124.5,-72 "/>
<text text-anchor="middle" x="62" y="-60" font-family="Helvetica,sans-Serif" font-size="10.00"> </text>
<polyline fill="none" stroke="black" points="-0.5,-53 124.5,-53 "/>
<text text-anchor="start" x="7.5" y="-41" font-family="Helvetica,sans-Serif" font-size="10.00">+ pattern_formatter()</text>
<text text-anchor="start" x="7.5" y="-30" font-family="Helvetica,sans-Serif" font-size="10.00">+ pattern_formatter()</text>
<text text-anchor="start" x="7.5" y="-19" font-family="Helvetica,sans-Serif" font-size="10.00">+ operator=()</text>
<text text-anchor="start" x="7.5" y="-8" font-family="Helvetica,sans-Serif" font-size="10.00">+ format()</text>
</a>
</g>
</g>
<!-- Node1&#45;&gt;Node2 -->
<g id="edge1" class="edge"><title>Node1&#45;&gt;Node2</title>
<path fill="none" stroke="midnightblue" d="M62,-118.555C62,-109.646 62,-100.257 62,-91.3181"/>
<polygon fill="none" stroke="midnightblue" points="58.5001,-118.737 62,-128.737 65.5001,-118.737 58.5001,-118.737"/>
</g>
</g>
</svg>
