<?xml version="1.0" encoding="UTF-8" standalone="no"?>
<!DOCTYPE svg PUBLIC "-//W3C//DTD SVG 1.1//EN"
 "http://www.w3.org/Graphics/SVG/1.1/DTD/svg11.dtd">
<!-- Generated by graphviz version 2.36.0 (20140111.2315)
 -->
<!-- Title: XBot::ConsoleLogger Pages: 1 -->
<svg width="118pt" height="194pt"
 viewBox="0.00 0.00 118.00 194.00" xmlns="http://www.w3.org/2000/svg" xmlns:xlink="http://www.w3.org/1999/xlink">
<g id="graph0" class="graph" transform="scale(1 1) rotate(0) translate(4 190)">
<title>XBot::ConsoleLogger</title>
<!-- Node1 -->
<g id="node1" class="node"><title>Node1</title>
<polygon fill="#bfbfbf" stroke="black" points="0,-0.5 0,-57.5 110,-57.5 110,-0.5 0,-0.5"/>
<text text-anchor="middle" x="55" y="-45.5" font-family="Helvetica,sans-Serif" font-size="10.00">XBot::ConsoleLogger</text>
<polyline fill="none" stroke="black" points="0,-38.5 110,-38.5 "/>
<text text-anchor="middle" x="55" y="-26.5" font-family="Helvetica,sans-Serif" font-size="10.00"> </text>
<polyline fill="none" stroke="black" points="0,-19.5 110,-19.5 "/>
<text text-anchor="start" x="8" y="-7.5" font-family="Helvetica,sans-Serif" font-size="10.00">+ getLogger()</text>
</g>
<!-- Node2 -->
<g id="node2" class="node"><title>Node2</title>
<g id="a_node2"><a xlink:href="classXBot_1_1Logger.html" target="_top" xlink:title="{XBot::Logger\n|# _ss_logger\l|+ info()\l+ warning()\l+ error()\l+ endl()\l}">
<polygon fill="none" stroke="black" points="18,-95 18,-185 92,-185 92,-95 18,-95"/>
<text text-anchor="middle" x="55" y="-173" font-family="Helvetica,sans-Serif" font-size="10.00">XBot::Logger</text>
<polyline fill="none" stroke="black" points="18,-166 92,-166 "/>
<text text-anchor="start" x="26" y="-154" font-family="Helvetica,sans-Serif" font-size="10.00"># _ss_logger</text>
<polyline fill="none" stroke="black" points="18,-147 92,-147 "/>
<text text-anchor="start" x="26" y="-135" font-family="Helvetica,sans-Serif" font-size="10.00">+ info()</text>
<text text-anchor="start" x="26" y="-124" font-family="Helvetica,sans-Serif" font-size="10.00">+ warning()</text>
<text text-anchor="start" x="26" y="-113" font-family="Helvetica,sans-Serif" font-size="10.00">+ error()</text>
<text text-anchor="start" x="26" y="-102" font-family="Helvetica,sans-Serif" font-size="10.00">+ endl()</text>
</a>
</g>
</g>
<!-- Node2&#45;&gt;Node1 -->
<g id="edge1" class="edge"><title>Node2&#45;&gt;Node1</title>
<path fill="none" stroke="midnightblue" d="M55,-84.792C55,-75.3496 55,-65.8956 55,-57.5636"/>
<polygon fill="none" stroke="midnightblue" points="51.5001,-84.9797 55,-94.9797 58.5001,-84.9798 51.5001,-84.9797"/>
</g>
</g>
</svg>
