<?xml version="1.0" encoding="UTF-8" standalone="no"?>
<!DOCTYPE svg PUBLIC "-//W3C//DTD SVG 1.1//EN"
 "http://www.w3.org/Graphics/SVG/1.1/DTD/svg11.dtd">
<!-- Generated by graphviz version 2.36.0 (20140111.2315)
 -->
<!-- Title: fmt::internal::RuntimeError Pages: 1 -->
<svg width="140pt" height="404pt"
 viewBox="0.00 0.00 140.00 404.00" xmlns="http://www.w3.org/2000/svg" xmlns:xlink="http://www.w3.org/1999/xlink">
<g id="graph0" class="graph" transform="scale(1 1) rotate(0) translate(4 400)">
<title>fmt::internal::RuntimeError</title>
<!-- Node1 -->
<g id="node1" class="node"><title>Node1</title>
<polygon fill="#bfbfbf" stroke="black" points="0,-128.5 0,-207.5 132,-207.5 132,-128.5 0,-128.5"/>
<text text-anchor="middle" x="66" y="-195.5" font-family="Helvetica,sans-Serif" font-size="10.00">fmt::internal::RuntimeError</text>
<polyline fill="none" stroke="black" points="0,-188.5 132,-188.5 "/>
<text text-anchor="middle" x="66" y="-176.5" font-family="Helvetica,sans-Serif" font-size="10.00"> </text>
<polyline fill="none" stroke="black" points="0,-169.5 132,-169.5 "/>
<text text-anchor="start" x="8" y="-157.5" font-family="Helvetica,sans-Serif" font-size="10.00"># RuntimeError()</text>
<text text-anchor="start" x="8" y="-146.5" font-family="Helvetica,sans-Serif" font-size="10.00"># RuntimeError()</text>
<text text-anchor="start" x="8" y="-135.5" font-family="Helvetica,sans-Serif" font-size="10.00"># ~RuntimeError()</text>
</g>
<!-- Node4 -->
<g id="node4" class="node"><title>Node4</title>
<g id="a_node4"><a xlink:href="classfmt_1_1SystemError.html" target="_top" xlink:title="An error returned by an operating system or a language runtime, for example a file opening error...">
<polygon fill="none" stroke="black" points="20,-1 20,-91 112,-91 112,-1 20,-1"/>
<text text-anchor="middle" x="66" y="-79" font-family="Helvetica,sans-Serif" font-size="10.00">fmt::SystemError</text>
<polyline fill="none" stroke="black" points="20,-72 112,-72 "/>
<text text-anchor="start" x="28" y="-60" font-family="Helvetica,sans-Serif" font-size="10.00"># error_code_</text>
<polyline fill="none" stroke="black" points="20,-53 112,-53 "/>
<text text-anchor="start" x="28" y="-41" font-family="Helvetica,sans-Serif" font-size="10.00">+ SystemError()</text>
<text text-anchor="start" x="28" y="-30" font-family="Helvetica,sans-Serif" font-size="10.00">+ ~SystemError()</text>
<text text-anchor="start" x="28" y="-19" font-family="Helvetica,sans-Serif" font-size="10.00">+ error_code()</text>
<text text-anchor="start" x="28" y="-8" font-family="Helvetica,sans-Serif" font-size="10.00"># SystemError()</text>
</a>
</g>
</g>
<!-- Node1&#45;&gt;Node4 -->
<g id="edge3" class="edge"><title>Node1&#45;&gt;Node4</title>
<path fill="none" stroke="midnightblue" d="M66,-118.176C66,-109.318 66,-100.123 66,-91.4012"/>
<polygon fill="none" stroke="midnightblue" points="62.5001,-118.371 66,-128.371 69.5001,-118.371 62.5001,-118.371"/>
</g>
<!-- Node2 -->
<g id="node2" class="node"><title>Node2</title>
<g id="a_node2"><a xlink:title="STL class. ">
<polygon fill="none" stroke="#bfbfbf" points="19.5,-244.5 19.5,-301.5 112.5,-301.5 112.5,-244.5 19.5,-244.5"/>
<text text-anchor="middle" x="66" y="-289.5" font-family="Helvetica,sans-Serif" font-size="10.00">std::runtime_error</text>
<polyline fill="none" stroke="#bfbfbf" points="19.5,-282.5 112.5,-282.5 "/>
<text text-anchor="middle" x="66" y="-270.5" font-family="Helvetica,sans-Serif" font-size="10.00"> </text>
<polyline fill="none" stroke="#bfbfbf" points="19.5,-263.5 112.5,-263.5 "/>
<text text-anchor="middle" x="66" y="-251.5" font-family="Helvetica,sans-Serif" font-size="10.00"> </text>
</a>
</g>
</g>
<!-- Node2&#45;&gt;Node1 -->
<g id="edge1" class="edge"><title>Node2&#45;&gt;Node1</title>
<path fill="none" stroke="midnightblue" d="M66,-234.156C66,-225.473 66,-216.232 66,-207.52"/>
<polygon fill="none" stroke="midnightblue" points="62.5001,-234.398 66,-244.398 69.5001,-234.398 62.5001,-234.398"/>
</g>
<!-- Node3 -->
<g id="node3" class="node"><title>Node3</title>
<g id="a_node3"><a xlink:title="STL class. ">
<polygon fill="none" stroke="#bfbfbf" points="27,-338.5 27,-395.5 105,-395.5 105,-338.5 27,-338.5"/>
<text text-anchor="middle" x="66" y="-383.5" font-family="Helvetica,sans-Serif" font-size="10.00">std::exception</text>
<polyline fill="none" stroke="#bfbfbf" points="27,-376.5 105,-376.5 "/>
<text text-anchor="middle" x="66" y="-364.5" font-family="Helvetica,sans-Serif" font-size="10.00"> </text>
<polyline fill="none" stroke="#bfbfbf" points="27,-357.5 105,-357.5 "/>
<text text-anchor="middle" x="66" y="-345.5" font-family="Helvetica,sans-Serif" font-size="10.00"> </text>
</a>
</g>
</g>
<!-- Node3&#45;&gt;Node2 -->
<g id="edge2" class="edge"><title>Node3&#45;&gt;Node2</title>
<path fill="none" stroke="midnightblue" d="M66,-328.209C66,-319.293 66,-309.951 66,-301.584"/>
<polygon fill="none" stroke="midnightblue" points="62.5001,-328.397 66,-338.397 69.5001,-328.397 62.5001,-328.397"/>
</g>
</g>
</svg>
