<?xml version="1.0" encoding="UTF-8" standalone="no"?>
<!DOCTYPE svg PUBLIC "-//W3C//DTD SVG 1.1//EN"
 "http://www.w3.org/Graphics/SVG/1.1/DTD/svg11.dtd">
<!-- Generated by graphviz version 2.36.0 (20140111.2315)
 -->
<!-- Title: /home/lucamuratore/advr&#45;superbuild/external/XBotInterface/include/spdlog/common.h Pages: 1 -->
<svg width="763pt" height="254pt"
 viewBox="0.00 0.00 763.00 254.00" xmlns="http://www.w3.org/2000/svg" xmlns:xlink="http://www.w3.org/1999/xlink">
<g id="graph0" class="graph" transform="scale(1 1) rotate(0) translate(4 250)">
<title>/home/lucamuratore/advr&#45;superbuild/external/XBotInterface/include/spdlog/common.h</title>
<!-- Node1 -->
<g id="node1" class="node"><title>Node1</title>
<polygon fill="#bfbfbf" stroke="black" points="261.5,-193 261.5,-245 406.5,-245 406.5,-193 261.5,-193"/>
<text text-anchor="start" x="269.5" y="-233" font-family="Helvetica,sans-Serif" font-size="10.00">/home/lucamuratore</text>
<text text-anchor="start" x="269.5" y="-222" font-family="Helvetica,sans-Serif" font-size="10.00">/advr&#45;superbuild/external</text>
<text text-anchor="start" x="269.5" y="-211" font-family="Helvetica,sans-Serif" font-size="10.00">/XBotInterface/include/spdlog</text>
<text text-anchor="middle" x="334" y="-200" font-family="Helvetica,sans-Serif" font-size="10.00">/common.h</text>
</g>
<!-- Node2 -->
<g id="node2" class="node"><title>Node2</title>
<polygon fill="none" stroke="#bfbfbf" points="-0.5,-0.5 -0.5,-19.5 40.5,-19.5 40.5,-0.5 -0.5,-0.5"/>
<text text-anchor="middle" x="20" y="-7.5" font-family="Helvetica,sans-Serif" font-size="10.00">string</text>
</g>
<!-- Node1&#45;&gt;Node2 -->
<g id="edge1" class="edge"><title>Node1&#45;&gt;Node2</title>
<path fill="none" stroke="midnightblue" d="M261.395,-216.831C206.637,-212.317 132.715,-198.006 83,-156 43.7883,-122.869 28.2449,-60.7527 22.7159,-29.6881"/>
<polygon fill="midnightblue" stroke="midnightblue" points="26.1616,-29.0705 21.1067,-19.7593 19.2518,-30.1905 26.1616,-29.0705"/>
</g>
<!-- Node3 -->
<g id="node3" class="node"><title>Node3</title>
<polygon fill="none" stroke="#bfbfbf" points="219.5,-130.5 219.5,-149.5 292.5,-149.5 292.5,-130.5 219.5,-130.5"/>
<text text-anchor="middle" x="256" y="-137.5" font-family="Helvetica,sans-Serif" font-size="10.00">initializer_list</text>
</g>
<!-- Node1&#45;&gt;Node3 -->
<g id="edge2" class="edge"><title>Node1&#45;&gt;Node3</title>
<path fill="none" stroke="midnightblue" d="M308.46,-192.787C296.422,-180.904 282.434,-167.096 271.931,-156.727"/>
<polygon fill="midnightblue" stroke="midnightblue" points="274.244,-154.092 264.669,-149.558 269.327,-159.074 274.244,-154.092"/>
</g>
<!-- Node4 -->
<g id="node4" class="node"><title>Node4</title>
<polygon fill="none" stroke="#bfbfbf" points="311,-130.5 311,-149.5 357,-149.5 357,-130.5 311,-130.5"/>
<text text-anchor="middle" x="334" y="-137.5" font-family="Helvetica,sans-Serif" font-size="10.00">chrono</text>
</g>
<!-- Node1&#45;&gt;Node4 -->
<g id="edge3" class="edge"><title>Node1&#45;&gt;Node4</title>
<path fill="none" stroke="midnightblue" d="M334,-192.787C334,-182.069 334,-169.785 334,-159.871"/>
<polygon fill="midnightblue" stroke="midnightblue" points="337.5,-159.558 334,-149.558 330.5,-159.558 337.5,-159.558"/>
</g>
<!-- Node5 -->
<g id="node5" class="node"><title>Node5</title>
<polygon fill="none" stroke="#bfbfbf" points="59,-0.5 59,-19.5 111,-19.5 111,-0.5 59,-0.5"/>
<text text-anchor="middle" x="85" y="-7.5" font-family="Helvetica,sans-Serif" font-size="10.00">memory</text>
</g>
<!-- Node1&#45;&gt;Node5 -->
<g id="edge4" class="edge"><title>Node1&#45;&gt;Node5</title>
<path fill="none" stroke="midnightblue" d="M261.213,-207.327C201.902,-197.075 124.699,-179.653 104,-156 73.0141,-120.592 76.9338,-60.46 81.4598,-29.9566"/>
<polygon fill="midnightblue" stroke="midnightblue" points="84.9558,-30.2701 83.1525,-19.8299 78.0516,-29.116 84.9558,-30.2701"/>
</g>
<!-- Node6 -->
<g id="node6" class="node"><title>Node6</title>
<polygon fill="none" stroke="#bfbfbf" points="448,-62.5 448,-81.5 494,-81.5 494,-62.5 448,-62.5"/>
<text text-anchor="middle" x="471" y="-69.5" font-family="Helvetica,sans-Serif" font-size="10.00">atomic</text>
</g>
<!-- Node1&#45;&gt;Node6 -->
<g id="edge5" class="edge"><title>Node1&#45;&gt;Node6</title>
<path fill="none" stroke="midnightblue" d="M406.643,-204.662C434.098,-195.707 462.637,-180.793 479,-156 491.799,-136.608 485.404,-108.907 478.853,-90.938"/>
<polygon fill="midnightblue" stroke="midnightblue" points="482.088,-89.6012 475.121,-81.6191 475.589,-92.2036 482.088,-89.6012"/>
</g>
<!-- Node7 -->
<g id="node7" class="node"><title>Node7</title>
<polygon fill="none" stroke="#bfbfbf" points="527.5,-130.5 527.5,-149.5 586.5,-149.5 586.5,-130.5 527.5,-130.5"/>
<text text-anchor="middle" x="557" y="-137.5" font-family="Helvetica,sans-Serif" font-size="10.00">exception</text>
</g>
<!-- Node1&#45;&gt;Node7 -->
<g id="edge6" class="edge"><title>Node1&#45;&gt;Node7</title>
<path fill="none" stroke="midnightblue" d="M406.71,-192.894C445.535,-179.488 491.529,-163.607 522.318,-152.975"/>
<polygon fill="midnightblue" stroke="midnightblue" points="523.834,-156.155 532.144,-149.583 521.549,-149.538 523.834,-156.155"/>
</g>
<!-- Node8 -->
<g id="node8" class="node"><title>Node8</title>
<polygon fill="none" stroke="#bfbfbf" points="604.5,-130.5 604.5,-149.5 663.5,-149.5 663.5,-130.5 604.5,-130.5"/>
<text text-anchor="middle" x="634" y="-137.5" font-family="Helvetica,sans-Serif" font-size="10.00">functional</text>
</g>
<!-- Node1&#45;&gt;Node8 -->
<g id="edge7" class="edge"><title>Node1&#45;&gt;Node8</title>
<path fill="none" stroke="midnightblue" d="M406.71,-203.462C459.463,-192.255 532.268,-175.419 595,-156 597.794,-155.135 600.675,-154.171 603.546,-153.16"/>
<polygon fill="midnightblue" stroke="midnightblue" points="604.964,-156.367 613.131,-149.618 602.538,-149.801 604.964,-156.367"/>
</g>
<!-- Node9 -->
<g id="node9" class="node"><title>Node9</title>
<g id="a_node9"><a xlink:href="null__mutex_8h.html" target="_top" xlink:title="spdlog/details/null\l_mutex.h">
<polygon fill="none" stroke="black" points="375.5,-125 375.5,-155 470.5,-155 470.5,-125 375.5,-125"/>
<text text-anchor="start" x="383.5" y="-143" font-family="Helvetica,sans-Serif" font-size="10.00">spdlog/details/null</text>
<text text-anchor="middle" x="423" y="-132" font-family="Helvetica,sans-Serif" font-size="10.00">_mutex.h</text>
</a>
</g>
</g>
<!-- Node1&#45;&gt;Node9 -->
<g id="edge8" class="edge"><title>Node1&#45;&gt;Node9</title>
<path fill="none" stroke="midnightblue" d="M363.142,-192.787C374.809,-182.693 388.082,-171.21 399.159,-161.627"/>
<polygon fill="midnightblue" stroke="midnightblue" points="401.51,-164.22 406.783,-155.031 396.93,-158.927 401.51,-164.22"/>
</g>
<!-- Node10 -->
<g id="node10" class="node"><title>Node10</title>
<g id="a_node10"><a xlink:href="fmt_8h.html" target="_top" xlink:title="spdlog/fmt/fmt.h">
<polygon fill="none" stroke="black" points="113,-130.5 113,-149.5 201,-149.5 201,-130.5 113,-130.5"/>
<text text-anchor="middle" x="157" y="-137.5" font-family="Helvetica,sans-Serif" font-size="10.00">spdlog/fmt/fmt.h</text>
</a>
</g>
</g>
<!-- Node1&#45;&gt;Node10 -->
<g id="edge10" class="edge"><title>Node1&#45;&gt;Node10</title>
<path fill="none" stroke="midnightblue" d="M276.044,-192.787C245.915,-179.681 210.404,-164.232 186.056,-153.64"/>
<polygon fill="midnightblue" stroke="midnightblue" points="187.238,-150.337 176.672,-149.558 184.445,-156.756 187.238,-150.337"/>
</g>
<!-- Node9&#45;&gt;Node6 -->
<g id="edge9" class="edge"><title>Node9&#45;&gt;Node6</title>
<path fill="none" stroke="midnightblue" d="M433.415,-124.679C440.825,-114.49 450.812,-100.759 458.628,-90.0112"/>
<polygon fill="midnightblue" stroke="midnightblue" points="461.528,-91.9743 464.579,-81.8283 455.867,-87.8571 461.528,-91.9743"/>
</g>
<!-- Node11 -->
<g id="node11" class="node"><title>Node11</title>
<g id="a_node11"><a xlink:href="format_8h.html" target="_top" xlink:title="spdlog/fmt/bundled\l/format.h">
<polygon fill="none" stroke="black" points="302.5,-57 302.5,-87 401.5,-87 401.5,-57 302.5,-57"/>
<text text-anchor="start" x="310.5" y="-75" font-family="Helvetica,sans-Serif" font-size="10.00">spdlog/fmt/bundled</text>
<text text-anchor="middle" x="352" y="-64" font-family="Helvetica,sans-Serif" font-size="10.00">/format.h</text>
</a>
</g>
</g>
<!-- Node10&#45;&gt;Node11 -->
<g id="edge11" class="edge"><title>Node10&#45;&gt;Node11</title>
<path fill="none" stroke="midnightblue" d="M182.493,-130.372C212.345,-120.268 262.544,-103.277 300.586,-90.4016"/>
<polygon fill="midnightblue" stroke="midnightblue" points="302.12,-93.5775 310.47,-87.0562 299.876,-86.947 302.12,-93.5775"/>
</g>
<!-- Node11&#45;&gt;Node2 -->
<g id="edge20" class="edge"><title>Node11&#45;&gt;Node2</title>
<path fill="none" stroke="midnightblue" d="M302.455,-64.5588C244.374,-56.5812 145.104,-41.6205 50.5817,-19.8711"/>
<polygon fill="midnightblue" stroke="midnightblue" points="51.0998,-16.3981 40.5663,-17.5365 49.5107,-23.2153 51.0998,-16.3981"/>
</g>
<!-- Node11&#45;&gt;Node5 -->
<g id="edge18" class="edge"><title>Node11&#45;&gt;Node5</title>
<path fill="none" stroke="midnightblue" d="M302.102,-60.5633C257.247,-51.0613 189.317,-36.3764 121.371,-20.268"/>
<polygon fill="midnightblue" stroke="midnightblue" points="121.887,-16.7932 111.349,-17.8815 120.266,-23.6029 121.887,-16.7932"/>
</g>
<!-- Node12 -->
<g id="node12" class="node"><title>Node12</title>
<polygon fill="none" stroke="#bfbfbf" points="394.5,-0.5 394.5,-19.5 443.5,-19.5 443.5,-0.5 394.5,-0.5"/>
<text text-anchor="middle" x="419" y="-7.5" font-family="Helvetica,sans-Serif" font-size="10.00">cassert</text>
</g>
<!-- Node11&#45;&gt;Node12 -->
<g id="edge12" class="edge"><title>Node11&#45;&gt;Node12</title>
<path fill="none" stroke="midnightblue" d="M367.878,-56.7808C378.015,-47.7026 391.162,-35.9291 401.585,-26.5951"/>
<polygon fill="midnightblue" stroke="midnightblue" points="404.136,-29.0091 409.251,-19.7305 399.466,-23.7944 404.136,-29.0091"/>
</g>
<!-- Node13 -->
<g id="node13" class="node"><title>Node13</title>
<polygon fill="none" stroke="#bfbfbf" points="461.5,-0.5 461.5,-19.5 508.5,-19.5 508.5,-0.5 461.5,-0.5"/>
<text text-anchor="middle" x="485" y="-7.5" font-family="Helvetica,sans-Serif" font-size="10.00">clocale</text>
</g>
<!-- Node11&#45;&gt;Node13 -->
<g id="edge13" class="edge"><title>Node11&#45;&gt;Node13</title>
<path fill="none" stroke="midnightblue" d="M383.183,-56.9327C405.421,-46.9004 435.082,-33.5193 456.652,-23.7888"/>
<polygon fill="midnightblue" stroke="midnightblue" points="458.261,-26.9027 465.937,-19.6 455.382,-20.5219 458.261,-26.9027"/>
</g>
<!-- Node14 -->
<g id="node14" class="node"><title>Node14</title>
<polygon fill="none" stroke="#bfbfbf" points="527,-0.5 527,-19.5 571,-19.5 571,-0.5 527,-0.5"/>
<text text-anchor="middle" x="549" y="-7.5" font-family="Helvetica,sans-Serif" font-size="10.00">cmath</text>
</g>
<!-- Node11&#45;&gt;Node14 -->
<g id="edge14" class="edge"><title>Node11&#45;&gt;Node14</title>
<path fill="none" stroke="midnightblue" d="M398.188,-56.9327C434.72,-45.806 484.777,-30.5602 517.007,-20.744"/>
<polygon fill="midnightblue" stroke="midnightblue" points="518.259,-24.0215 526.805,-17.7598 516.219,-17.3252 518.259,-24.0215"/>
</g>
<!-- Node15 -->
<g id="node15" class="node"><title>Node15</title>
<polygon fill="none" stroke="#bfbfbf" points="589.5,-0.5 589.5,-19.5 632.5,-19.5 632.5,-0.5 589.5,-0.5"/>
<text text-anchor="middle" x="611" y="-7.5" font-family="Helvetica,sans-Serif" font-size="10.00">cstdio</text>
</g>
<!-- Node11&#45;&gt;Node15 -->
<g id="edge15" class="edge"><title>Node11&#45;&gt;Node15</title>
<path fill="none" stroke="midnightblue" d="M401.776,-60.6132C447.888,-50.8026 518.301,-35.3428 579,-20 579.21,-19.947 579.42,-19.8936 579.632,-19.8398"/>
<polygon fill="midnightblue" stroke="midnightblue" points="580.587,-23.2073 589.353,-17.2563 578.79,-16.4421 580.587,-23.2073"/>
</g>
<!-- Node16 -->
<g id="node16" class="node"><title>Node16</title>
<polygon fill="none" stroke="#bfbfbf" points="651,-0.5 651,-19.5 697,-19.5 697,-0.5 651,-0.5"/>
<text text-anchor="middle" x="674" y="-7.5" font-family="Helvetica,sans-Serif" font-size="10.00">cstring</text>
</g>
<!-- Node11&#45;&gt;Node16 -->
<g id="edge16" class="edge"><title>Node11&#45;&gt;Node16</title>
<path fill="none" stroke="midnightblue" d="M401.773,-62.3386C481.325,-48.4778 629.41,-22.5974 641,-20 641.101,-19.9773 641.203,-19.9544 641.305,-19.9315"/>
<polygon fill="midnightblue" stroke="midnightblue" points="642.105,-23.339 650.988,-17.5648 640.443,-16.5391 642.105,-23.339"/>
</g>
<!-- Node17 -->
<g id="node17" class="node"><title>Node17</title>
<polygon fill="none" stroke="#bfbfbf" points="715,-0.5 715,-19.5 755,-19.5 755,-0.5 715,-0.5"/>
<text text-anchor="middle" x="735" y="-7.5" font-family="Helvetica,sans-Serif" font-size="10.00">limits</text>
</g>
<!-- Node11&#45;&gt;Node17 -->
<g id="edge17" class="edge"><title>Node11&#45;&gt;Node17</title>
<path fill="none" stroke="midnightblue" d="M401.637,-62.1181C413.84,-60.024 426.88,-57.8612 439,-56 554.117,-38.3216 587.28,-45.4169 704.726,-19.9559"/>
<polygon fill="midnightblue" stroke="midnightblue" points="705.821,-23.2987 714.834,-17.7301 704.315,-16.4624 705.821,-23.2987"/>
</g>
<!-- Node18 -->
<g id="node18" class="node"><title>Node18</title>
<polygon fill="none" stroke="#bfbfbf" points="129.5,-0.5 129.5,-19.5 188.5,-19.5 188.5,-0.5 129.5,-0.5"/>
<text text-anchor="middle" x="159" y="-7.5" font-family="Helvetica,sans-Serif" font-size="10.00">stdexcept</text>
</g>
<!-- Node11&#45;&gt;Node18 -->
<g id="edge19" class="edge"><title>Node11&#45;&gt;Node18</title>
<path fill="none" stroke="midnightblue" d="M306.75,-56.9327C273.071,-46.4624 227.658,-32.3445 196.107,-22.5358"/>
<polygon fill="midnightblue" stroke="midnightblue" points="196.971,-19.1392 186.382,-19.5127 194.893,-25.8236 196.971,-19.1392"/>
</g>
<!-- Node19 -->
<g id="node19" class="node"><title>Node19</title>
<polygon fill="none" stroke="#bfbfbf" points="207,-0.5 207,-19.5 251,-19.5 251,-0.5 207,-0.5"/>
<text text-anchor="middle" x="229" y="-7.5" font-family="Helvetica,sans-Serif" font-size="10.00">vector</text>
</g>
<!-- Node11&#45;&gt;Node19 -->
<g id="edge21" class="edge"><title>Node11&#45;&gt;Node19</title>
<path fill="none" stroke="midnightblue" d="M323.162,-56.9327C302.781,-46.9907 275.658,-33.7601 255.758,-24.0526"/>
<polygon fill="midnightblue" stroke="midnightblue" points="257.152,-20.8386 246.63,-19.6 254.083,-27.13 257.152,-20.8386"/>
</g>
<!-- Node20 -->
<g id="node20" class="node"><title>Node20</title>
<polygon fill="none" stroke="#bfbfbf" points="269,-0.5 269,-19.5 309,-19.5 309,-0.5 269,-0.5"/>
<text text-anchor="middle" x="289" y="-7.5" font-family="Helvetica,sans-Serif" font-size="10.00">utility</text>
</g>
<!-- Node11&#45;&gt;Node20 -->
<g id="edge22" class="edge"><title>Node11&#45;&gt;Node20</title>
<path fill="none" stroke="midnightblue" d="M337.07,-56.7808C327.632,-47.7925 315.42,-36.162 305.667,-26.8731"/>
<polygon fill="midnightblue" stroke="midnightblue" points="307.822,-24.0926 298.167,-19.7305 302.995,-29.1616 307.822,-24.0926"/>
</g>
<!-- Node21 -->
<g id="node21" class="node"><title>Node21</title>
<polygon fill="none" stroke="#bfbfbf" points="327.5,-0.5 327.5,-19.5 376.5,-19.5 376.5,-0.5 327.5,-0.5"/>
<text text-anchor="middle" x="352" y="-7.5" font-family="Helvetica,sans-Serif" font-size="10.00">stdint.h</text>
</g>
<!-- Node11&#45;&gt;Node21 -->
<g id="edge23" class="edge"><title>Node11&#45;&gt;Node21</title>
<path fill="none" stroke="midnightblue" d="M352,-56.7808C352,-48.7812 352,-38.6887 352,-30.0168"/>
<polygon fill="midnightblue" stroke="midnightblue" points="355.5,-29.7305 352,-19.7305 348.5,-29.7306 355.5,-29.7305"/>
</g>
</g>
</svg>
