<?xml version="1.0" encoding="UTF-8" standalone="no"?>
<!DOCTYPE svg PUBLIC "-//W3C//DTD SVG 1.1//EN"
 "http://www.w3.org/Graphics/SVG/1.1/DTD/svg11.dtd">
<!-- Generated by graphviz version 2.38.0 (20140413.2041)
 -->
<!-- Title: /home/lucamuratore/advr&#45;superbuild/external/XBotInterface/include/spdlog/common.h Pages: 1 -->
<svg width="764pt" height="251pt"
 viewBox="0.00 0.00 763.50 251.00" xmlns="http://www.w3.org/2000/svg" xmlns:xlink="http://www.w3.org/1999/xlink">
<g id="graph0" class="graph" transform="scale(1 1) rotate(0) translate(4 247)">
<title>/home/lucamuratore/advr&#45;superbuild/external/XBotInterface/include/spdlog/common.h</title>
<!-- Node1 -->
<g id="node1" class="node"><title>Node1</title>
<polygon fill="#bfbfbf" stroke="black" points="262,-190.5 262,-242.5 407,-242.5 407,-190.5 262,-190.5"/>
<text text-anchor="start" x="270" y="-230.5" font-family="Helvetica,sans-Serif" font-size="10.00">/home/lucamuratore</text>
<text text-anchor="start" x="270" y="-219.5" font-family="Helvetica,sans-Serif" font-size="10.00">/advr&#45;superbuild/external</text>
<text text-anchor="start" x="270" y="-208.5" font-family="Helvetica,sans-Serif" font-size="10.00">/XBotInterface/include/spdlog</text>
<text text-anchor="middle" x="334.5" y="-197.5" font-family="Helvetica,sans-Serif" font-size="10.00">/common.h</text>
</g>
<!-- Node2 -->
<g id="node2" class="node"><title>Node2</title>
<polygon fill="none" stroke="#bfbfbf" points="0,-0.5 0,-19.5 41,-19.5 41,-0.5 0,-0.5"/>
<text text-anchor="middle" x="20.5" y="-7.5" font-family="Helvetica,sans-Serif" font-size="10.00">string</text>
</g>
<!-- Node1&#45;&gt;Node2 -->
<g id="edge1" class="edge"><title>Node1&#45;&gt;Node2</title>
<path fill="none" stroke="midnightblue" d="M261.964,-214.423C207.244,-209.989 133.338,-195.813 83.5,-154 44.7992,-121.531 29.0665,-60.6372 23.3648,-29.849"/>
<polygon fill="midnightblue" stroke="midnightblue" points="26.7583,-28.9239 21.6438,-19.6453 19.8558,-30.0882 26.7583,-28.9239"/>
</g>
<!-- Node3 -->
<g id="node3" class="node"><title>Node3</title>
<polygon fill="none" stroke="#bfbfbf" points="220,-129 220,-148 293,-148 293,-129 220,-129"/>
<text text-anchor="middle" x="256.5" y="-136" font-family="Helvetica,sans-Serif" font-size="10.00">initializer_list</text>
</g>
<!-- Node1&#45;&gt;Node3 -->
<g id="edge2" class="edge"><title>Node1&#45;&gt;Node3</title>
<path fill="none" stroke="midnightblue" d="M308.527,-190.193C296.661,-178.632 282.978,-165.299 272.623,-155.209"/>
<polygon fill="midnightblue" stroke="midnightblue" points="275.043,-152.681 265.438,-148.209 270.158,-157.694 275.043,-152.681"/>
</g>
<!-- Node4 -->
<g id="node4" class="node"><title>Node4</title>
<polygon fill="none" stroke="#bfbfbf" points="311.5,-129 311.5,-148 357.5,-148 357.5,-129 311.5,-129"/>
<text text-anchor="middle" x="334.5" y="-136" font-family="Helvetica,sans-Serif" font-size="10.00">chrono</text>
</g>
<!-- Node1&#45;&gt;Node4 -->
<g id="edge3" class="edge"><title>Node1&#45;&gt;Node4</title>
<path fill="none" stroke="midnightblue" d="M334.5,-190.193C334.5,-179.765 334.5,-167.896 334.5,-158.266"/>
<polygon fill="midnightblue" stroke="midnightblue" points="338,-158.209 334.5,-148.209 331,-158.209 338,-158.209"/>
</g>
<!-- Node5 -->
<g id="node5" class="node"><title>Node5</title>
<polygon fill="none" stroke="#bfbfbf" points="59.5,-0.5 59.5,-19.5 111.5,-19.5 111.5,-0.5 59.5,-0.5"/>
<text text-anchor="middle" x="85.5" y="-7.5" font-family="Helvetica,sans-Serif" font-size="10.00">memory</text>
</g>
<!-- Node1&#45;&gt;Node5 -->
<g id="edge4" class="edge"><title>Node1&#45;&gt;Node5</title>
<path fill="none" stroke="midnightblue" d="M261.73,-204.982C202.429,-194.856 125.233,-177.6 104.5,-154 73.8675,-119.131 77.6289,-59.8055 82.0405,-29.7066"/>
<polygon fill="midnightblue" stroke="midnightblue" points="85.5145,-30.1509 83.6928,-19.7138 78.6083,-29.0089 85.5145,-30.1509"/>
</g>
<!-- Node6 -->
<g id="node6" class="node"><title>Node6</title>
<polygon fill="none" stroke="#bfbfbf" points="448.5,-62 448.5,-81 494.5,-81 494.5,-62 448.5,-62"/>
<text text-anchor="middle" x="471.5" y="-69" font-family="Helvetica,sans-Serif" font-size="10.00">atomic</text>
</g>
<!-- Node1&#45;&gt;Node6 -->
<g id="edge5" class="edge"><title>Node1&#45;&gt;Node6</title>
<path fill="none" stroke="midnightblue" d="M407.233,-202.66C434.989,-193.834 463.919,-178.977 480.5,-154 492.953,-135.241 486.582,-108.55 479.894,-90.8904"/>
<polygon fill="midnightblue" stroke="midnightblue" points="482.937,-89.0932 475.854,-81.2133 476.477,-91.7899 482.937,-89.0932"/>
</g>
<!-- Node7 -->
<g id="node7" class="node"><title>Node7</title>
<polygon fill="none" stroke="#bfbfbf" points="528,-129 528,-148 587,-148 587,-129 528,-129"/>
<text text-anchor="middle" x="557.5" y="-136" font-family="Helvetica,sans-Serif" font-size="10.00">exception</text>
</g>
<!-- Node1&#45;&gt;Node7 -->
<g id="edge6" class="edge"><title>Node1&#45;&gt;Node7</title>
<path fill="none" stroke="midnightblue" d="M407.21,-190.72C445.921,-177.527 491.759,-161.905 522.546,-151.413"/>
<polygon fill="midnightblue" stroke="midnightblue" points="524.041,-154.601 532.377,-148.062 521.783,-147.975 524.041,-154.601"/>
</g>
<!-- Node8 -->
<g id="node8" class="node"><title>Node8</title>
<polygon fill="none" stroke="#bfbfbf" points="605,-129 605,-148 664,-148 664,-129 605,-129"/>
<text text-anchor="middle" x="634.5" y="-136" font-family="Helvetica,sans-Serif" font-size="10.00">functional</text>
</g>
<!-- Node1&#45;&gt;Node8 -->
<g id="edge7" class="edge"><title>Node1&#45;&gt;Node8</title>
<path fill="none" stroke="midnightblue" d="M407.2,-201.17C460.173,-190.068 533.404,-173.348 596.5,-154 598.922,-153.257 601.411,-152.438 603.902,-151.578"/>
<polygon fill="midnightblue" stroke="midnightblue" points="605.168,-154.842 613.371,-148.137 602.777,-148.263 605.168,-154.842"/>
</g>
<!-- Node9 -->
<g id="node9" class="node"><title>Node9</title>
<g id="a_node9"><a xlink:href="null__mutex_8h.html" target="_top" xlink:title="spdlog/details/null\l_mutex.h">
<polygon fill="none" stroke="black" points="376,-123.5 376,-153.5 471,-153.5 471,-123.5 376,-123.5"/>
<text text-anchor="start" x="384" y="-141.5" font-family="Helvetica,sans-Serif" font-size="10.00">spdlog/details/null</text>
<text text-anchor="middle" x="423.5" y="-130.5" font-family="Helvetica,sans-Serif" font-size="10.00">_mutex.h</text>
</a>
</g>
</g>
<!-- Node1&#45;&gt;Node9 -->
<g id="edge8" class="edge"><title>Node1&#45;&gt;Node9</title>
<path fill="none" stroke="midnightblue" d="M364.136,-190.193C375.499,-180.49 388.323,-169.539 399.137,-160.304"/>
<polygon fill="midnightblue" stroke="midnightblue" points="401.625,-162.782 406.957,-153.627 397.079,-157.459 401.625,-162.782"/>
</g>
<!-- Node10 -->
<g id="node10" class="node"><title>Node10</title>
<g id="a_node10"><a xlink:href="fmt_8h.html" target="_top" xlink:title="spdlog/fmt/fmt.h">
<polygon fill="none" stroke="black" points="113.5,-129 113.5,-148 201.5,-148 201.5,-129 113.5,-129"/>
<text text-anchor="middle" x="157.5" y="-136" font-family="Helvetica,sans-Serif" font-size="10.00">spdlog/fmt/fmt.h</text>
</a>
</g>
</g>
<!-- Node1&#45;&gt;Node10 -->
<g id="edge10" class="edge"><title>Node1&#45;&gt;Node10</title>
<path fill="none" stroke="midnightblue" d="M276.053,-190.404C246.139,-177.56 211.028,-162.484 186.82,-152.089"/>
<polygon fill="midnightblue" stroke="midnightblue" points="188.047,-148.807 177.478,-148.078 185.285,-155.239 188.047,-148.807"/>
</g>
<!-- Node9&#45;&gt;Node6 -->
<g id="edge9" class="edge"><title>Node9&#45;&gt;Node6</title>
<path fill="none" stroke="midnightblue" d="M433.915,-123.396C441.325,-113.361 451.312,-99.8382 459.128,-89.2535"/>
<polygon fill="midnightblue" stroke="midnightblue" points="461.954,-91.3181 465.079,-81.1945 456.323,-87.1597 461.954,-91.3181"/>
</g>
<!-- Node11 -->
<g id="node11" class="node"><title>Node11</title>
<g id="a_node11"><a xlink:href="format_8h.html" target="_top" xlink:title="spdlog/fmt/bundled\l/format.h">
<polygon fill="none" stroke="black" points="303,-56.5 303,-86.5 402,-86.5 402,-56.5 303,-56.5"/>
<text text-anchor="start" x="311" y="-74.5" font-family="Helvetica,sans-Serif" font-size="10.00">spdlog/fmt/bundled</text>
<text text-anchor="middle" x="352.5" y="-63.5" font-family="Helvetica,sans-Serif" font-size="10.00">/format.h</text>
</a>
</g>
</g>
<!-- Node10&#45;&gt;Node11 -->
<g id="edge11" class="edge"><title>Node10&#45;&gt;Node11</title>
<path fill="none" stroke="midnightblue" d="M183.394,-128.869C213.162,-118.946 262.775,-102.408 300.585,-89.8051"/>
<polygon fill="midnightblue" stroke="midnightblue" points="302.036,-93.0108 310.416,-86.5281 299.822,-86.37 302.036,-93.0108"/>
</g>
<!-- Node11&#45;&gt;Node2 -->
<g id="edge20" class="edge"><title>Node11&#45;&gt;Node2</title>
<path fill="none" stroke="midnightblue" d="M302.953,-64.1643C244.869,-56.3052 145.597,-41.5308 51.0801,-19.8668"/>
<polygon fill="midnightblue" stroke="midnightblue" points="51.5979,-16.394 41.0653,-17.5409 50.0142,-23.2125 51.5979,-16.394"/>
</g>
<!-- Node11&#45;&gt;Node5 -->
<g id="edge18" class="edge"><title>Node11&#45;&gt;Node5</title>
<path fill="none" stroke="midnightblue" d="M302.596,-60.2001C257.737,-50.8144 189.805,-36.2895 121.868,-20.2625"/>
<polygon fill="midnightblue" stroke="midnightblue" points="122.385,-16.7881 111.847,-17.8874 120.77,-23.5994 122.385,-16.7881"/>
</g>
<!-- Node12 -->
<g id="node12" class="node"><title>Node12</title>
<polygon fill="none" stroke="#bfbfbf" points="395,-0.5 395,-19.5 444,-19.5 444,-0.5 395,-0.5"/>
<text text-anchor="middle" x="419.5" y="-7.5" font-family="Helvetica,sans-Serif" font-size="10.00">cassert</text>
</g>
<!-- Node11&#45;&gt;Node12 -->
<g id="edge12" class="edge"><title>Node11&#45;&gt;Node12</title>
<path fill="none" stroke="midnightblue" d="M368.378,-56.3993C378.515,-47.3967 391.662,-35.7214 402.085,-26.4652"/>
<polygon fill="midnightblue" stroke="midnightblue" points="404.598,-28.915 409.751,-19.6578 399.95,-23.681 404.598,-28.915"/>
</g>
<!-- Node13 -->
<g id="node13" class="node"><title>Node13</title>
<polygon fill="none" stroke="#bfbfbf" points="462,-0.5 462,-19.5 509,-19.5 509,-0.5 462,-0.5"/>
<text text-anchor="middle" x="485.5" y="-7.5" font-family="Helvetica,sans-Serif" font-size="10.00">clocale</text>
</g>
<!-- Node11&#45;&gt;Node13 -->
<g id="edge13" class="edge"><title>Node11&#45;&gt;Node13</title>
<path fill="none" stroke="midnightblue" d="M384.019,-56.3993C406.135,-46.5054 435.467,-33.3832 456.906,-23.7919"/>
<polygon fill="midnightblue" stroke="midnightblue" points="458.448,-26.9364 466.147,-19.6578 455.59,-20.5466 458.448,-26.9364"/>
</g>
<!-- Node14 -->
<g id="node14" class="node"><title>Node14</title>
<polygon fill="none" stroke="#bfbfbf" points="527.5,-0.5 527.5,-19.5 571.5,-19.5 571.5,-0.5 527.5,-0.5"/>
<text text-anchor="middle" x="549.5" y="-7.5" font-family="Helvetica,sans-Serif" font-size="10.00">cmath</text>
</g>
<!-- Node11&#45;&gt;Node14 -->
<g id="edge14" class="edge"><title>Node11&#45;&gt;Node14</title>
<path fill="none" stroke="midnightblue" d="M399.186,-56.3993C435.736,-45.3601 485.593,-30.3019 517.671,-20.6134"/>
<polygon fill="midnightblue" stroke="midnightblue" points="518.861,-23.9103 527.422,-17.6684 516.837,-17.2092 518.861,-23.9103"/>
</g>
<!-- Node15 -->
<g id="node15" class="node"><title>Node15</title>
<polygon fill="none" stroke="#bfbfbf" points="590,-0.5 590,-19.5 633,-19.5 633,-0.5 590,-0.5"/>
<text text-anchor="middle" x="611.5" y="-7.5" font-family="Helvetica,sans-Serif" font-size="10.00">cstdio</text>
</g>
<!-- Node11&#45;&gt;Node15 -->
<g id="edge15" class="edge"><title>Node11&#45;&gt;Node15</title>
<path fill="none" stroke="midnightblue" d="M402.087,-60.4809C446.248,-51.341 512.818,-37.0332 579.961,-20.0051"/>
<polygon fill="midnightblue" stroke="midnightblue" points="581.047,-23.3402 589.869,-17.4733 579.313,-16.5581 581.047,-23.3402"/>
</g>
<!-- Node16 -->
<g id="node16" class="node"><title>Node16</title>
<polygon fill="none" stroke="#bfbfbf" points="651.5,-0.5 651.5,-19.5 697.5,-19.5 697.5,-0.5 651.5,-0.5"/>
<text text-anchor="middle" x="674.5" y="-7.5" font-family="Helvetica,sans-Serif" font-size="10.00">cstring</text>
</g>
<!-- Node11&#45;&gt;Node16 -->
<g id="edge16" class="edge"><title>Node11&#45;&gt;Node16</title>
<path fill="none" stroke="midnightblue" d="M402.039,-62.1566C472.365,-50.2729 596.809,-29.0874 641.519,-19.9242"/>
<polygon fill="midnightblue" stroke="midnightblue" points="642.463,-23.3012 651.5,-17.7709 640.986,-16.4587 642.463,-23.3012"/>
</g>
<!-- Node17 -->
<g id="node17" class="node"><title>Node17</title>
<polygon fill="none" stroke="#bfbfbf" points="715.5,-0.5 715.5,-19.5 755.5,-19.5 755.5,-0.5 715.5,-0.5"/>
<text text-anchor="middle" x="735.5" y="-7.5" font-family="Helvetica,sans-Serif" font-size="10.00">limits</text>
</g>
<!-- Node11&#45;&gt;Node17 -->
<g id="edge17" class="edge"><title>Node11&#45;&gt;Node17</title>
<path fill="none" stroke="midnightblue" d="M402.146,-61.9517C414.348,-59.9262 427.387,-57.8256 439.5,-56 554.666,-38.6432 587.783,-45.4345 705.226,-19.9566"/>
<polygon fill="midnightblue" stroke="midnightblue" points="706.321,-23.2993 715.334,-17.7301 704.815,-16.4632 706.321,-23.2993"/>
</g>
<!-- Node18 -->
<g id="node18" class="node"><title>Node18</title>
<polygon fill="none" stroke="#bfbfbf" points="130,-0.5 130,-19.5 189,-19.5 189,-0.5 130,-0.5"/>
<text text-anchor="middle" x="159.5" y="-7.5" font-family="Helvetica,sans-Serif" font-size="10.00">stdexcept</text>
</g>
<!-- Node11&#45;&gt;Node18 -->
<g id="edge19" class="edge"><title>Node11&#45;&gt;Node18</title>
<path fill="none" stroke="midnightblue" d="M306.762,-56.3993C273.267,-46.0733 228.366,-32.2309 196.984,-22.5559"/>
<polygon fill="midnightblue" stroke="midnightblue" points="197.889,-19.1724 187.301,-19.5709 195.827,-25.8617 197.889,-19.1724"/>
</g>
<!-- Node19 -->
<g id="node19" class="node"><title>Node19</title>
<polygon fill="none" stroke="#bfbfbf" points="207.5,-0.5 207.5,-19.5 251.5,-19.5 251.5,-0.5 207.5,-0.5"/>
<text text-anchor="middle" x="229.5" y="-7.5" font-family="Helvetica,sans-Serif" font-size="10.00">vector</text>
</g>
<!-- Node11&#45;&gt;Node19 -->
<g id="edge21" class="edge"><title>Node11&#45;&gt;Node19</title>
<path fill="none" stroke="midnightblue" d="M323.351,-56.3993C303.082,-46.5945 276.259,-33.6194 256.481,-24.052"/>
<polygon fill="midnightblue" stroke="midnightblue" points="257.924,-20.8618 247.398,-19.6578 254.876,-27.1632 257.924,-20.8618"/>
</g>
<!-- Node20 -->
<g id="node20" class="node"><title>Node20</title>
<polygon fill="none" stroke="#bfbfbf" points="269.5,-0.5 269.5,-19.5 309.5,-19.5 309.5,-0.5 269.5,-0.5"/>
<text text-anchor="middle" x="289.5" y="-7.5" font-family="Helvetica,sans-Serif" font-size="10.00">utility</text>
</g>
<!-- Node11&#45;&gt;Node20 -->
<g id="edge22" class="edge"><title>Node11&#45;&gt;Node20</title>
<path fill="none" stroke="midnightblue" d="M337.57,-56.3993C328.132,-47.4859 315.92,-35.9523 306.167,-26.7408"/>
<polygon fill="midnightblue" stroke="midnightblue" points="308.34,-23.9795 298.667,-19.6578 303.534,-29.0686 308.34,-23.9795"/>
</g>
<!-- Node21 -->
<g id="node21" class="node"><title>Node21</title>
<polygon fill="none" stroke="#bfbfbf" points="328,-0.5 328,-19.5 377,-19.5 377,-0.5 328,-0.5"/>
<text text-anchor="middle" x="352.5" y="-7.5" font-family="Helvetica,sans-Serif" font-size="10.00">stdint.h</text>
</g>
<!-- Node11&#45;&gt;Node21 -->
<g id="edge23" class="edge"><title>Node11&#45;&gt;Node21</title>
<path fill="none" stroke="midnightblue" d="M352.5,-56.3993C352.5,-48.4664 352.5,-38.458 352.5,-29.8583"/>
<polygon fill="midnightblue" stroke="midnightblue" points="356,-29.6577 352.5,-19.6578 349,-29.6578 356,-29.6577"/>
</g>
</g>
</svg>
