<?xml version="1.0" encoding="UTF-8" standalone="no"?>
<!DOCTYPE svg PUBLIC "-//W3C//DTD SVG 1.1//EN"
 "http://www.w3.org/Graphics/SVG/1.1/DTD/svg11.dtd">
<!-- Generated by graphviz version 2.36.0 (20140111.2315)
 -->
<!-- Title: /home/lucamuratore/advr&#45;superbuild/external/XBotInterface/include/spdlog Pages: 1 -->
<svg width="182pt" height="255pt"
 viewBox="0.00 0.00 182.00 255.00" xmlns="http://www.w3.org/2000/svg" xmlns:xlink="http://www.w3.org/1999/xlink">
<g id="graph0" class="graph" transform="scale(1 1) rotate(0) translate(4 251)">
<title>/home/lucamuratore/advr&#45;superbuild/external/XBotInterface/include/spdlog</title>
<g id="clust1" class="cluster"><title>clusterdir_d44c64559bbebec7f509842c48db8b23</title>
<g id="a_clust1"><a xlink:href="dir_d44c64559bbebec7f509842c48db8b23.html" target="_top" xlink:title="include">
<polygon fill="#ddddee" stroke="black" points="8,-8 8,-239 166,-239 166,-8 8,-8"/>
<text text-anchor="middle" x="87" y="-227" font-family="Helvetica,sans-Serif" font-size="10.00">include</text>
</a>
</g>
</g>
<g id="clust2" class="cluster"><title>clusterdir_b5d6932b38e3b6255ff026dc1638d727</title>
<g id="a_clust2"><a xlink:href="dir_b5d6932b38e3b6255ff026dc1638d727.html" target="_top">
<polygon fill="#eeeeff" stroke="black" points="16,-16 16,-212 158,-212 158,-16 16,-16"/>
</a>
</g>
</g>
<!-- dir_b5d6932b38e3b6255ff026dc1638d727 -->
<g id="node1" class="node"><title>dir_b5d6932b38e3b6255ff026dc1638d727</title>
<text text-anchor="middle" x="123" y="-183.5" font-family="Helvetica,sans-Serif" font-size="10.00">spdlog</text>
</g>
<!-- dir_570ae315e5a5850b03a02e4fcf9141b2 -->
<g id="node2" class="node"><title>dir_570ae315e5a5850b03a02e4fcf9141b2</title>
<g id="a_node2"><a xlink:href="dir_570ae315e5a5850b03a02e4fcf9141b2.html" target="_top" xlink:title="details">
<polygon fill="white" stroke="black" points="78,-204 24,-204 24,-168 78,-168 78,-204"/>
<text text-anchor="middle" x="51" y="-183.5" font-family="Helvetica,sans-Serif" font-size="10.00">details</text>
</a>
</g>
</g>
<!-- dir_986203541a9a02922cf121e53a7d4395 -->
<g id="node3" class="node"><title>dir_986203541a9a02922cf121e53a7d4395</title>
<g id="a_node3"><a xlink:href="dir_986203541a9a02922cf121e53a7d4395.html" target="_top" xlink:title="fmt">
<polygon fill="white" stroke="red" points="88,-60 34,-60 34,-24 88,-24 88,-60"/>
<text text-anchor="middle" x="61" y="-39.5" font-family="Helvetica,sans-Serif" font-size="10.00">fmt</text>
</a>
</g>
</g>
<!-- dir_570ae315e5a5850b03a02e4fcf9141b2&#45;&gt;dir_986203541a9a02922cf121e53a7d4395 -->
<g id="edge4" class="edge"><title>dir_570ae315e5a5850b03a02e4fcf9141b2&#45;&gt;dir_986203541a9a02922cf121e53a7d4395</title>
<path fill="none" stroke="black" d="M43.787,-167.834C37.185,-149.834 29.2506,-120.774 35,-96 37.0983,-86.9586 40.9658,-77.6814 45.0881,-69.4668"/>
<polygon fill="black" stroke="black" points="48.3142,-70.8566 49.9538,-60.3894 42.1446,-67.5496 48.3142,-70.8566"/>
<g id="a_edge4&#45;headlabel"><a xlink:href="dir_000004_000005.html" target="_top" xlink:title="1">
<text text-anchor="middle" x="49.1185" y="-72.8661" font-family="Helvetica,sans-Serif" font-size="10.00">1</text>
</a>
</g>
</g>
<!-- dir_25b3cfa3e9cc43408fe30061a1573dca -->
<g id="node4" class="node"><title>dir_25b3cfa3e9cc43408fe30061a1573dca</title>
<g id="a_node4"><a xlink:href="dir_25b3cfa3e9cc43408fe30061a1573dca.html" target="_top" xlink:title="sinks">
<polygon fill="white" stroke="black" points="98,-132 44,-132 44,-96 98,-96 98,-132"/>
<text text-anchor="middle" x="71" y="-111.5" font-family="Helvetica,sans-Serif" font-size="10.00">sinks</text>
</a>
</g>
</g>
<!-- dir_570ae315e5a5850b03a02e4fcf9141b2&#45;&gt;dir_25b3cfa3e9cc43408fe30061a1573dca -->
<g id="edge3" class="edge"><title>dir_570ae315e5a5850b03a02e4fcf9141b2&#45;&gt;dir_25b3cfa3e9cc43408fe30061a1573dca</title>
<path fill="none" stroke="black" d="M50.0281,-167.697C51.4673,-159.813 53.9655,-150.304 56.8435,-141.546"/>
<polygon fill="black" stroke="black" points="60.1483,-142.699 60.218,-132.104 53.5566,-140.343 60.1483,-142.699"/>
<g id="a_edge3&#45;headlabel"><a xlink:href="dir_000004_000007.html" target="_top" xlink:title="5">
<text text-anchor="middle" x="61.6122" y="-144.539" font-family="Helvetica,sans-Serif" font-size="10.00">5</text>
</a>
</g>
</g>
<!-- dir_25b3cfa3e9cc43408fe30061a1573dca&#45;&gt;dir_570ae315e5a5850b03a02e4fcf9141b2 -->
<g id="edge2" class="edge"><title>dir_25b3cfa3e9cc43408fe30061a1573dca&#45;&gt;dir_570ae315e5a5850b03a02e4fcf9141b2</title>
<path fill="none" stroke="black" d="M72.0081,-132.104C70.5868,-139.96 68.1008,-149.462 65.2293,-158.232"/>
<polygon fill="black" stroke="black" points="61.9164,-157.102 61.8595,-167.697 68.5109,-159.45 61.9164,-157.102"/>
<g id="a_edge2&#45;headlabel"><a xlink:href="dir_000007_000004.html" target="_top" xlink:title="10">
<text text-anchor="middle" x="60.4472" y="-150.263" font-family="Helvetica,sans-Serif" font-size="10.00">10</text>
</a>
</g>
</g>
<!-- dir_25b3cfa3e9cc43408fe30061a1573dca&#45;&gt;dir_986203541a9a02922cf121e53a7d4395 -->
<g id="edge1" class="edge"><title>dir_25b3cfa3e9cc43408fe30061a1573dca&#45;&gt;dir_986203541a9a02922cf121e53a7d4395</title>
<path fill="none" stroke="black" d="M68.5281,-95.6966C67.4261,-87.9827 66.1018,-78.7125 64.8732,-70.1124"/>
<polygon fill="black" stroke="black" points="68.3226,-69.5088 63.4435,-60.1043 61.393,-70.4988 68.3226,-69.5088"/>
<g id="a_edge1&#45;headlabel"><a xlink:href="dir_000007_000005.html" target="_top" xlink:title="1">
<text text-anchor="middle" x="71.6416" y="-70.1658" font-family="Helvetica,sans-Serif" font-size="10.00">1</text>
</a>
</g>
</g>
</g>
</svg>
