<?xml version="1.0" encoding="UTF-8" standalone="no"?>
<!DOCTYPE svg PUBLIC "-//W3C//DTD SVG 1.1//EN"
 "http://www.w3.org/Graphics/SVG/1.1/DTD/svg11.dtd">
<!-- Generated by graphviz version 2.36.0 (20140111.2315)
 -->
<!-- Title: /home/lucamuratore/advr&#45;superbuild/external/XBotInterface/include/spdlog/sinks/dist_sink.h Pages: 1 -->
<svg width="1592pt" height="614pt"
 viewBox="0.00 0.00 1592.00 614.00" xmlns="http://www.w3.org/2000/svg" xmlns:xlink="http://www.w3.org/1999/xlink">
<g id="graph0" class="graph" transform="scale(1 1) rotate(0) translate(4 610)">
<title>/home/lucamuratore/advr&#45;superbuild/external/XBotInterface/include/spdlog/sinks/dist_sink.h</title>
<!-- Node1 -->
<g id="node1" class="node"><title>Node1</title>
<polygon fill="#bfbfbf" stroke="black" points="1185.5,-553 1185.5,-605 1330.5,-605 1330.5,-553 1185.5,-553"/>
<text text-anchor="start" x="1193.5" y="-593" font-family="Helvetica,sans-Serif" font-size="10.00">/home/lucamuratore</text>
<text text-anchor="start" x="1193.5" y="-582" font-family="Helvetica,sans-Serif" font-size="10.00">/advr&#45;superbuild/external</text>
<text text-anchor="start" x="1193.5" y="-571" font-family="Helvetica,sans-Serif" font-size="10.00">/XBotInterface/include/spdlog</text>
<text text-anchor="middle" x="1258" y="-560" font-family="Helvetica,sans-Serif" font-size="10.00">/sinks/dist_sink.h</text>
</g>
<!-- Node2 -->
<g id="node2" class="node"><title>Node2</title>
<g id="a_node2"><a xlink:href="log__msg_8h.html" target="_top" xlink:title="spdlog/details/log\l_msg.h">
<polygon fill="none" stroke="black" points="316,-305 316,-335 408,-335 408,-305 316,-305"/>
<text text-anchor="start" x="324" y="-323" font-family="Helvetica,sans-Serif" font-size="10.00">spdlog/details/log</text>
<text text-anchor="middle" x="362" y="-312" font-family="Helvetica,sans-Serif" font-size="10.00">_msg.h</text>
</a>
</g>
</g>
<!-- Node1&#45;&gt;Node2 -->
<g id="edge1" class="edge"><title>Node1&#45;&gt;Node2</title>
<path fill="none" stroke="midnightblue" d="M1185.4,-562.785C1129.6,-550.826 1050.69,-533.342 982,-516 803.417,-470.911 758.041,-461.32 583,-404 520.768,-383.621 450.13,-356.349 405.821,-338.726"/>
<polygon fill="midnightblue" stroke="midnightblue" points="407.091,-335.465 396.506,-335.009 404.497,-341.966 407.091,-335.465"/>
</g>
<!-- Node7 -->
<g id="node7" class="node"><title>Node7</title>
<polygon fill="none" stroke="#bfbfbf" points="1230,-0.5 1230,-19.5 1282,-19.5 1282,-0.5 1230,-0.5"/>
<text text-anchor="middle" x="1256" y="-7.5" font-family="Helvetica,sans-Serif" font-size="10.00">memory</text>
</g>
<!-- Node1&#45;&gt;Node7 -->
<g id="edge70" class="edge"><title>Node1&#45;&gt;Node7</title>
<path fill="none" stroke="midnightblue" d="M1330.78,-563.786C1389.37,-547.619 1462,-514.726 1462,-451 1462,-451 1462,-451 1462,-139 1462,-59.9558 1351.22,-28.0081 1292.14,-16.5898"/>
<polygon fill="midnightblue" stroke="midnightblue" points="1292.56,-13.1083 1282.09,-14.7494 1291.3,-19.9938 1292.56,-13.1083"/>
</g>
<!-- Node11 -->
<g id="node11" class="node"><title>Node11</title>
<g id="a_node11"><a xlink:href="null__mutex_8h.html" target="_top" xlink:title="spdlog/details/null\l_mutex.h">
<polygon fill="none" stroke="black" points="104.5,-125 104.5,-155 199.5,-155 199.5,-125 104.5,-125"/>
<text text-anchor="start" x="112.5" y="-143" font-family="Helvetica,sans-Serif" font-size="10.00">spdlog/details/null</text>
<text text-anchor="middle" x="152" y="-132" font-family="Helvetica,sans-Serif" font-size="10.00">_mutex.h</text>
</a>
</g>
</g>
<!-- Node1&#45;&gt;Node11 -->
<g id="edge42" class="edge"><title>Node1&#45;&gt;Node11</title>
<path fill="none" stroke="midnightblue" d="M1185.39,-578.341C917.488,-578.656 0,-570.978 0,-451 0,-451 0,-451 0,-257 0,-207.363 51.8574,-176.136 94.9929,-158.747"/>
<polygon fill="midnightblue" stroke="midnightblue" points="96.2574,-162.011 104.323,-155.141 93.7339,-155.482 96.2574,-162.011"/>
</g>
<!-- Node21 -->
<g id="node21" class="node"><title>Node21</title>
<polygon fill="none" stroke="#bfbfbf" points="1329,-0.5 1329,-19.5 1373,-19.5 1373,-0.5 1329,-0.5"/>
<text text-anchor="middle" x="1351" y="-7.5" font-family="Helvetica,sans-Serif" font-size="10.00">vector</text>
</g>
<!-- Node1&#45;&gt;Node21 -->
<g id="edge71" class="edge"><title>Node1&#45;&gt;Node21</title>
<path fill="none" stroke="midnightblue" d="M1330.61,-570.516C1401.89,-558.68 1500,-528.34 1500,-451 1500,-451 1500,-451 1500,-139 1500,-77.6514 1426.42,-39.3166 1382.68,-21.9457"/>
<polygon fill="midnightblue" stroke="midnightblue" points="1383.9,-18.6656 1373.31,-18.3632 1381.4,-25.204 1383.9,-18.6656"/>
</g>
<!-- Node33 -->
<g id="node33" class="node"><title>Node33</title>
<g id="a_node33"><a xlink:href="base__sink_8h.html" target="_top" xlink:title="spdlog/sinks/base_sink.h">
<polygon fill="none" stroke="black" points="1029.5,-496.5 1029.5,-515.5 1156.5,-515.5 1156.5,-496.5 1029.5,-496.5"/>
<text text-anchor="middle" x="1093" y="-503.5" font-family="Helvetica,sans-Serif" font-size="10.00">spdlog/sinks/base_sink.h</text>
</a>
</g>
</g>
<!-- Node1&#45;&gt;Node33 -->
<g id="edge43" class="edge"><title>Node1&#45;&gt;Node33</title>
<path fill="none" stroke="midnightblue" d="M1199.83,-552.968C1173.6,-541.681 1143.76,-528.844 1122.3,-519.61"/>
<polygon fill="midnightblue" stroke="midnightblue" points="1123.65,-516.377 1113.08,-515.639 1120.88,-522.807 1123.65,-516.377"/>
</g>
<!-- Node34 -->
<g id="node34" class="node"><title>Node34</title>
<g id="a_node34"><a xlink:href="sink_8h.html" target="_top" xlink:title="spdlog/sinks/sink.h">
<polygon fill="none" stroke="black" points="869.5,-440.5 869.5,-459.5 970.5,-459.5 970.5,-440.5 869.5,-440.5"/>
<text text-anchor="middle" x="920" y="-447.5" font-family="Helvetica,sans-Serif" font-size="10.00">spdlog/sinks/sink.h</text>
</a>
</g>
</g>
<!-- Node1&#45;&gt;Node34 -->
<g id="edge67" class="edge"><title>Node1&#45;&gt;Node34</title>
<path fill="none" stroke="midnightblue" d="M1185.43,-565.412C1137.21,-555.537 1073.22,-539.489 1020,-516 989.609,-502.588 958.036,-480.459 938.698,-465.805"/>
<polygon fill="midnightblue" stroke="midnightblue" points="940.779,-462.99 930.722,-459.657 936.505,-468.534 940.779,-462.99"/>
</g>
<!-- Node37 -->
<g id="node37" class="node"><title>Node37</title>
<polygon fill="none" stroke="#bfbfbf" points="1376,-310.5 1376,-329.5 1420,-329.5 1420,-310.5 1376,-310.5"/>
<text text-anchor="middle" x="1398" y="-317.5" font-family="Helvetica,sans-Serif" font-size="10.00">mutex</text>
</g>
<!-- Node1&#45;&gt;Node37 -->
<g id="edge69" class="edge"><title>Node1&#45;&gt;Node37</title>
<path fill="none" stroke="midnightblue" d="M1282.92,-552.816C1312.74,-521.04 1361.68,-463.339 1386,-404 1394.52,-383.202 1397.13,-357.305 1397.86,-340.022"/>
<polygon fill="midnightblue" stroke="midnightblue" points="1401.37,-339.684 1398.11,-329.602 1394.37,-339.514 1401.37,-339.684"/>
</g>
<!-- Node38 -->
<g id="node38" class="node"><title>Node38</title>
<polygon fill="none" stroke="#bfbfbf" points="1528,-496.5 1528,-515.5 1584,-515.5 1584,-496.5 1528,-496.5"/>
<text text-anchor="middle" x="1556" y="-503.5" font-family="Helvetica,sans-Serif" font-size="10.00">algorithm</text>
</g>
<!-- Node1&#45;&gt;Node38 -->
<g id="edge68" class="edge"><title>Node1&#45;&gt;Node38</title>
<path fill="none" stroke="midnightblue" d="M1330.52,-560.722C1389.74,-546.611 1471.09,-527.23 1518.15,-516.018"/>
<polygon fill="midnightblue" stroke="midnightblue" points="1519.02,-519.409 1527.94,-513.687 1517.4,-512.6 1519.02,-519.409"/>
</g>
<!-- Node3 -->
<g id="node3" class="node"><title>Node3</title>
<g id="a_node3"><a xlink:href="common_8h.html" target="_top" xlink:title="spdlog/common.h">
<polygon fill="none" stroke="black" points="242,-192.5 242,-211.5 336,-211.5 336,-192.5 242,-192.5"/>
<text text-anchor="middle" x="289" y="-199.5" font-family="Helvetica,sans-Serif" font-size="10.00">spdlog/common.h</text>
</a>
</g>
</g>
<!-- Node2&#45;&gt;Node3 -->
<g id="edge2" class="edge"><title>Node2&#45;&gt;Node3</title>
<path fill="none" stroke="midnightblue" d="M353.049,-304.776C339.657,-283.496 314.436,-243.418 299.96,-220.415"/>
<polygon fill="midnightblue" stroke="midnightblue" points="302.768,-218.306 294.479,-211.707 296.843,-222.035 302.768,-218.306"/>
</g>
<!-- Node4 -->
<g id="node4" class="node"><title>Node4</title>
<polygon fill="none" stroke="#bfbfbf" points="810.5,-0.5 810.5,-19.5 851.5,-19.5 851.5,-0.5 810.5,-0.5"/>
<text text-anchor="middle" x="831" y="-7.5" font-family="Helvetica,sans-Serif" font-size="10.00">string</text>
</g>
<!-- Node2&#45;&gt;Node4 -->
<g id="edge40" class="edge"><title>Node2&#45;&gt;Node4</title>
<path fill="none" stroke="midnightblue" d="M369.411,-304.778C383.543,-278.93 416.738,-223.969 459,-192 493.688,-165.76 510.403,-173.995 550,-156 647.02,-111.91 758.481,-51.3083 806.692,-24.5899"/>
<polygon fill="midnightblue" stroke="midnightblue" points="808.69,-27.4838 815.731,-19.5666 805.29,-21.3653 808.69,-27.4838"/>
</g>
<!-- Node22 -->
<g id="node22" class="node"><title>Node22</title>
<polygon fill="none" stroke="#bfbfbf" points="56,-0.5 56,-19.5 96,-19.5 96,-0.5 56,-0.5"/>
<text text-anchor="middle" x="76" y="-7.5" font-family="Helvetica,sans-Serif" font-size="10.00">utility</text>
</g>
<!-- Node2&#45;&gt;Node22 -->
<g id="edge41" class="edge"><title>Node2&#45;&gt;Node22</title>
<path fill="none" stroke="midnightblue" d="M315.923,-312.357C226.472,-298.16 38,-261.327 38,-203 38,-203 38,-203 38,-139 38,-98.2307 55.9354,-53.0653 67.1626,-28.7866"/>
<polygon fill="midnightblue" stroke="midnightblue" points="70.335,-30.2655 71.4917,-19.734 64.0199,-27.2455 70.335,-30.2655"/>
</g>
<!-- Node24 -->
<g id="node24" class="node"><title>Node24</title>
<g id="a_node24"><a xlink:href="os_8h.html" target="_top" xlink:title="spdlog/details/os.h">
<polygon fill="none" stroke="black" points="741,-248.5 741,-267.5 839,-267.5 839,-248.5 741,-248.5"/>
<text text-anchor="middle" x="790" y="-255.5" font-family="Helvetica,sans-Serif" font-size="10.00">spdlog/details/os.h</text>
</a>
</g>
</g>
<!-- Node2&#45;&gt;Node24 -->
<g id="edge26" class="edge"><title>Node2&#45;&gt;Node24</title>
<path fill="none" stroke="midnightblue" d="M408.21,-312.522C486.31,-301.573 644.311,-279.424 730.55,-267.334"/>
<polygon fill="midnightblue" stroke="midnightblue" points="731.283,-270.766 740.701,-265.911 730.312,-263.833 731.283,-270.766"/>
</g>
<!-- Node3&#45;&gt;Node4 -->
<g id="edge3" class="edge"><title>Node3&#45;&gt;Node4</title>
<path fill="none" stroke="midnightblue" d="M336.12,-200.996C385.281,-198.991 462.991,-190.032 520,-156 569.351,-126.539 552.673,-85.5016 602,-56 665.096,-18.2635 753.796,-11.4144 800.105,-10.6254"/>
<polygon fill="midnightblue" stroke="midnightblue" points="800.42,-14.123 810.39,-10.5397 800.361,-7.12325 800.42,-14.123"/>
</g>
<!-- Node5 -->
<g id="node5" class="node"><title>Node5</title>
<polygon fill="none" stroke="#bfbfbf" points="294.5,-130.5 294.5,-149.5 367.5,-149.5 367.5,-130.5 294.5,-130.5"/>
<text text-anchor="middle" x="331" y="-137.5" font-family="Helvetica,sans-Serif" font-size="10.00">initializer_list</text>
</g>
<!-- Node3&#45;&gt;Node5 -->
<g id="edge4" class="edge"><title>Node3&#45;&gt;Node5</title>
<path fill="none" stroke="midnightblue" d="M295.018,-192.403C301.318,-183.403 311.371,-169.041 319.252,-157.782"/>
<polygon fill="midnightblue" stroke="midnightblue" points="322.126,-159.78 324.994,-149.581 316.392,-155.766 322.126,-159.78"/>
</g>
<!-- Node6 -->
<g id="node6" class="node"><title>Node6</title>
<polygon fill="none" stroke="#bfbfbf" points="972,-130.5 972,-149.5 1018,-149.5 1018,-130.5 972,-130.5"/>
<text text-anchor="middle" x="995" y="-137.5" font-family="Helvetica,sans-Serif" font-size="10.00">chrono</text>
</g>
<!-- Node3&#45;&gt;Node6 -->
<g id="edge5" class="edge"><title>Node3&#45;&gt;Node6</title>
<path fill="none" stroke="midnightblue" d="M336.053,-198.508C462.953,-191.652 810.313,-171.96 924,-156 936.448,-154.252 949.978,-151.589 961.855,-148.988"/>
<polygon fill="midnightblue" stroke="midnightblue" points="962.815,-152.36 971.799,-146.744 961.274,-145.531 962.815,-152.36"/>
</g>
<!-- Node3&#45;&gt;Node7 -->
<g id="edge6" class="edge"><title>Node3&#45;&gt;Node7</title>
<path fill="none" stroke="midnightblue" d="M336.232,-193.321C388.574,-184.703 475.449,-170.079 550,-156 807.358,-107.398 1115.84,-41.3387 1219.8,-18.8598"/>
<polygon fill="midnightblue" stroke="midnightblue" points="1220.74,-22.2367 1229.77,-16.7005 1219.26,-15.3951 1220.74,-22.2367"/>
</g>
<!-- Node8 -->
<g id="node8" class="node"><title>Node8</title>
<polygon fill="none" stroke="#bfbfbf" points="238,-62.5 238,-81.5 284,-81.5 284,-62.5 238,-62.5"/>
<text text-anchor="middle" x="261" y="-69.5" font-family="Helvetica,sans-Serif" font-size="10.00">atomic</text>
</g>
<!-- Node3&#45;&gt;Node8 -->
<g id="edge7" class="edge"><title>Node3&#45;&gt;Node8</title>
<path fill="none" stroke="midnightblue" d="M324.013,-192.445C342.934,-185.844 364.684,-174.594 376,-156 383.394,-143.851 383.755,-135.922 376,-124 358.049,-96.4017 321.364,-83.622 294.233,-77.7786"/>
<polygon fill="midnightblue" stroke="midnightblue" points="294.845,-74.3321 284.361,-75.8622 293.511,-81.2038 294.845,-74.3321"/>
</g>
<!-- Node9 -->
<g id="node9" class="node"><title>Node9</title>
<polygon fill="none" stroke="#bfbfbf" points="217.5,-130.5 217.5,-149.5 276.5,-149.5 276.5,-130.5 217.5,-130.5"/>
<text text-anchor="middle" x="247" y="-137.5" font-family="Helvetica,sans-Serif" font-size="10.00">exception</text>
</g>
<!-- Node3&#45;&gt;Node9 -->
<g id="edge8" class="edge"><title>Node3&#45;&gt;Node9</title>
<path fill="none" stroke="midnightblue" d="M282.982,-192.403C276.682,-183.403 266.629,-169.041 258.748,-157.782"/>
<polygon fill="midnightblue" stroke="midnightblue" points="261.608,-155.766 253.006,-149.581 255.874,-159.78 261.608,-155.766"/>
</g>
<!-- Node10 -->
<g id="node10" class="node"><title>Node10</title>
<polygon fill="none" stroke="#bfbfbf" points="856.5,-130.5 856.5,-149.5 915.5,-149.5 915.5,-130.5 856.5,-130.5"/>
<text text-anchor="middle" x="886" y="-137.5" font-family="Helvetica,sans-Serif" font-size="10.00">functional</text>
</g>
<!-- Node3&#45;&gt;Node10 -->
<g id="edge9" class="edge"><title>Node3&#45;&gt;Node10</title>
<path fill="none" stroke="midnightblue" d="M336.274,-198.658C451.76,-192.696 745.804,-175.989 842,-156 846.178,-155.132 850.507,-153.982 854.747,-152.705"/>
<polygon fill="midnightblue" stroke="midnightblue" points="855.945,-155.996 864.364,-149.564 853.771,-149.342 855.945,-155.996"/>
</g>
<!-- Node3&#45;&gt;Node11 -->
<g id="edge10" class="edge"><title>Node3&#45;&gt;Node11</title>
<path fill="none" stroke="midnightblue" d="M269.371,-192.403C249.624,-183.755 218.569,-170.155 193.363,-159.115"/>
<polygon fill="midnightblue" stroke="midnightblue" points="194.589,-155.831 184.024,-155.025 191.78,-162.243 194.589,-155.831"/>
</g>
<!-- Node12 -->
<g id="node12" class="node"><title>Node12</title>
<g id="a_node12"><a xlink:href="fmt_8h.html" target="_top" xlink:title="spdlog/fmt/fmt.h">
<polygon fill="none" stroke="black" points="424,-130.5 424,-149.5 512,-149.5 512,-130.5 424,-130.5"/>
<text text-anchor="middle" x="468" y="-137.5" font-family="Helvetica,sans-Serif" font-size="10.00">spdlog/fmt/fmt.h</text>
</a>
</g>
</g>
<!-- Node3&#45;&gt;Node12 -->
<g id="edge12" class="edge"><title>Node3&#45;&gt;Node12</title>
<path fill="none" stroke="midnightblue" d="M314.646,-192.403C345.617,-182.022 397.873,-164.506 432.651,-152.849"/>
<polygon fill="midnightblue" stroke="midnightblue" points="434.032,-156.077 442.401,-149.581 431.807,-149.44 434.032,-156.077"/>
</g>
<!-- Node11&#45;&gt;Node8 -->
<g id="edge11" class="edge"><title>Node11&#45;&gt;Node8</title>
<path fill="none" stroke="midnightblue" d="M175.383,-124.841C193.899,-113.63 219.62,-98.0556 238.028,-86.9096"/>
<polygon fill="midnightblue" stroke="midnightblue" points="239.92,-89.8554 246.662,-81.6819 236.295,-83.8675 239.92,-89.8554"/>
</g>
<!-- Node13 -->
<g id="node13" class="node"><title>Node13</title>
<g id="a_node13"><a xlink:href="format_8h.html" target="_top" xlink:title="spdlog/fmt/bundled\l/format.h">
<polygon fill="none" stroke="black" points="412.5,-57 412.5,-87 511.5,-87 511.5,-57 412.5,-57"/>
<text text-anchor="start" x="420.5" y="-75" font-family="Helvetica,sans-Serif" font-size="10.00">spdlog/fmt/bundled</text>
<text text-anchor="middle" x="462" y="-64" font-family="Helvetica,sans-Serif" font-size="10.00">/format.h</text>
</a>
</g>
</g>
<!-- Node12&#45;&gt;Node13 -->
<g id="edge13" class="edge"><title>Node12&#45;&gt;Node13</title>
<path fill="none" stroke="midnightblue" d="M467.216,-130.372C466.452,-121.971 465.256,-108.811 464.201,-97.2126"/>
<polygon fill="midnightblue" stroke="midnightblue" points="467.68,-96.8235 463.289,-87.1815 460.709,-97.4573 467.68,-96.8235"/>
</g>
<!-- Node13&#45;&gt;Node4 -->
<g id="edge22" class="edge"><title>Node13&#45;&gt;Node4</title>
<path fill="none" stroke="midnightblue" d="M511.765,-62.9081C589.126,-50.3292 735.975,-26.4512 799.932,-16.0517"/>
<polygon fill="midnightblue" stroke="midnightblue" points="800.862,-19.4466 810.17,-14.3869 799.738,-12.5373 800.862,-19.4466"/>
</g>
<!-- Node13&#45;&gt;Node7 -->
<g id="edge20" class="edge"><title>Node13&#45;&gt;Node7</title>
<path fill="none" stroke="midnightblue" d="M511.668,-67.2467C658.947,-56.1174 1090.99,-23.4692 1219.52,-13.7564"/>
<polygon fill="midnightblue" stroke="midnightblue" points="1219.92,-17.2362 1229.63,-12.9926 1219.4,-10.2561 1219.92,-17.2362"/>
</g>
<!-- Node14 -->
<g id="node14" class="node"><title>Node14</title>
<polygon fill="none" stroke="#bfbfbf" points="504.5,-0.5 504.5,-19.5 553.5,-19.5 553.5,-0.5 504.5,-0.5"/>
<text text-anchor="middle" x="529" y="-7.5" font-family="Helvetica,sans-Serif" font-size="10.00">cassert</text>
</g>
<!-- Node13&#45;&gt;Node14 -->
<g id="edge14" class="edge"><title>Node13&#45;&gt;Node14</title>
<path fill="none" stroke="midnightblue" d="M477.878,-56.7808C488.015,-47.7026 501.162,-35.9291 511.585,-26.5951"/>
<polygon fill="midnightblue" stroke="midnightblue" points="514.136,-29.0091 519.251,-19.7305 509.466,-23.7944 514.136,-29.0091"/>
</g>
<!-- Node15 -->
<g id="node15" class="node"><title>Node15</title>
<polygon fill="none" stroke="#bfbfbf" points="571.5,-0.5 571.5,-19.5 618.5,-19.5 618.5,-0.5 571.5,-0.5"/>
<text text-anchor="middle" x="595" y="-7.5" font-family="Helvetica,sans-Serif" font-size="10.00">clocale</text>
</g>
<!-- Node13&#45;&gt;Node15 -->
<g id="edge15" class="edge"><title>Node13&#45;&gt;Node15</title>
<path fill="none" stroke="midnightblue" d="M493.183,-56.9327C515.421,-46.9004 545.082,-33.5193 566.652,-23.7888"/>
<polygon fill="midnightblue" stroke="midnightblue" points="568.261,-26.9027 575.937,-19.6 565.382,-20.5219 568.261,-26.9027"/>
</g>
<!-- Node16 -->
<g id="node16" class="node"><title>Node16</title>
<polygon fill="none" stroke="#bfbfbf" points="176,-0.5 176,-19.5 220,-19.5 220,-0.5 176,-0.5"/>
<text text-anchor="middle" x="198" y="-7.5" font-family="Helvetica,sans-Serif" font-size="10.00">cmath</text>
</g>
<!-- Node13&#45;&gt;Node16 -->
<g id="edge16" class="edge"><title>Node13&#45;&gt;Node16</title>
<path fill="none" stroke="midnightblue" d="M412.23,-61.1141C367.118,-51.927 298.602,-37.4121 230.365,-20.2237"/>
<polygon fill="midnightblue" stroke="midnightblue" points="230.856,-16.7374 220.302,-17.6686 229.133,-23.5221 230.856,-16.7374"/>
</g>
<!-- Node17 -->
<g id="node17" class="node"><title>Node17</title>
<polygon fill="none" stroke="#bfbfbf" points="636.5,-0.5 636.5,-19.5 679.5,-19.5 679.5,-0.5 636.5,-0.5"/>
<text text-anchor="middle" x="658" y="-7.5" font-family="Helvetica,sans-Serif" font-size="10.00">cstdio</text>
</g>
<!-- Node13&#45;&gt;Node17 -->
<g id="edge17" class="edge"><title>Node13&#45;&gt;Node17</title>
<path fill="none" stroke="midnightblue" d="M507.953,-56.9327C544.504,-45.7435 594.663,-30.3888 626.708,-20.579"/>
<polygon fill="midnightblue" stroke="midnightblue" points="627.899,-23.8751 636.436,-17.6012 625.849,-17.1817 627.899,-23.8751"/>
</g>
<!-- Node18 -->
<g id="node18" class="node"><title>Node18</title>
<polygon fill="none" stroke="#bfbfbf" points="238,-0.5 238,-19.5 284,-19.5 284,-0.5 238,-0.5"/>
<text text-anchor="middle" x="261" y="-7.5" font-family="Helvetica,sans-Serif" font-size="10.00">cstring</text>
</g>
<!-- Node13&#45;&gt;Node18 -->
<g id="edge18" class="edge"><title>Node13&#45;&gt;Node18</title>
<path fill="none" stroke="midnightblue" d="M414.874,-56.9327C377.649,-45.8207 326.661,-30.6002 293.772,-20.7827"/>
<polygon fill="midnightblue" stroke="midnightblue" points="294.765,-17.4265 284.181,-17.9198 292.762,-24.134 294.765,-17.4265"/>
</g>
<!-- Node19 -->
<g id="node19" class="node"><title>Node19</title>
<polygon fill="none" stroke="#bfbfbf" points="302,-0.5 302,-19.5 342,-19.5 342,-0.5 302,-0.5"/>
<text text-anchor="middle" x="322" y="-7.5" font-family="Helvetica,sans-Serif" font-size="10.00">limits</text>
</g>
<!-- Node13&#45;&gt;Node19 -->
<g id="edge19" class="edge"><title>Node13&#45;&gt;Node19</title>
<path fill="none" stroke="midnightblue" d="M429.176,-56.9327C405.662,-46.8552 374.263,-33.3986 351.534,-23.6575"/>
<polygon fill="midnightblue" stroke="midnightblue" points="352.637,-20.3223 342.067,-19.6 349.879,-26.7563 352.637,-20.3223"/>
</g>
<!-- Node20 -->
<g id="node20" class="node"><title>Node20</title>
<polygon fill="none" stroke="#bfbfbf" points="360.5,-0.5 360.5,-19.5 419.5,-19.5 419.5,-0.5 360.5,-0.5"/>
<text text-anchor="middle" x="390" y="-7.5" font-family="Helvetica,sans-Serif" font-size="10.00">stdexcept</text>
</g>
<!-- Node13&#45;&gt;Node20 -->
<g id="edge21" class="edge"><title>Node13&#45;&gt;Node20</title>
<path fill="none" stroke="midnightblue" d="M444.937,-56.7808C433.935,-47.6127 419.635,-35.6957 408.382,-26.3186"/>
<polygon fill="midnightblue" stroke="midnightblue" points="410.4,-23.4436 400.477,-19.7305 405.918,-28.8212 410.4,-23.4436"/>
</g>
<!-- Node13&#45;&gt;Node21 -->
<g id="edge23" class="edge"><title>Node13&#45;&gt;Node21</title>
<path fill="none" stroke="midnightblue" d="M511.649,-69.4605C640.544,-65.1357 996.315,-51.1057 1291,-20 1300.03,-19.0463 1309.79,-17.7137 1318.76,-16.3657"/>
<polygon fill="midnightblue" stroke="midnightblue" points="1319.49,-19.7941 1328.83,-14.7979 1318.41,-12.8773 1319.49,-19.7941"/>
</g>
<!-- Node13&#45;&gt;Node22 -->
<g id="edge24" class="edge"><title>Node13&#45;&gt;Node22</title>
<path fill="none" stroke="midnightblue" d="M412.327,-63.2789C331.318,-50.6867 173.127,-26.0975 106.618,-15.7592"/>
<polygon fill="midnightblue" stroke="midnightblue" points="106.81,-12.2472 96.3914,-14.1697 105.735,-19.1642 106.81,-12.2472"/>
</g>
<!-- Node23 -->
<g id="node23" class="node"><title>Node23</title>
<polygon fill="none" stroke="#bfbfbf" points="437.5,-0.5 437.5,-19.5 486.5,-19.5 486.5,-0.5 437.5,-0.5"/>
<text text-anchor="middle" x="462" y="-7.5" font-family="Helvetica,sans-Serif" font-size="10.00">stdint.h</text>
</g>
<!-- Node13&#45;&gt;Node23 -->
<g id="edge25" class="edge"><title>Node13&#45;&gt;Node23</title>
<path fill="none" stroke="midnightblue" d="M462,-56.7808C462,-48.7812 462,-38.6887 462,-30.0168"/>
<polygon fill="midnightblue" stroke="midnightblue" points="465.5,-29.7305 462,-19.7305 458.5,-29.7306 465.5,-29.7305"/>
</g>
<!-- Node24&#45;&gt;Node3 -->
<g id="edge27" class="edge"><title>Node24&#45;&gt;Node3</title>
<path fill="none" stroke="midnightblue" d="M740.591,-251.674C647.247,-241.613 445.476,-219.866 346.338,-209.18"/>
<polygon fill="midnightblue" stroke="midnightblue" points="346.525,-205.68 336.207,-208.088 345.775,-212.64 346.525,-205.68"/>
</g>
<!-- Node24&#45;&gt;Node4 -->
<g id="edge31" class="edge"><title>Node24&#45;&gt;Node4</title>
<path fill="none" stroke="midnightblue" d="M839.212,-254.272C868.988,-249.777 904.802,-238.699 924,-212 968.868,-149.602 886.975,-62.1067 848.915,-26.7459"/>
<polygon fill="midnightblue" stroke="midnightblue" points="850.861,-23.7848 841.106,-19.6508 846.154,-28.9659 850.861,-23.7848"/>
</g>
<!-- Node24&#45;&gt;Node6 -->
<g id="edge32" class="edge"><title>Node24&#45;&gt;Node6</title>
<path fill="none" stroke="midnightblue" d="M839.235,-254.275C875.506,-249.969 924.201,-239.112 958,-212 974.562,-198.715 984.532,-176.006 989.881,-159.849"/>
<polygon fill="midnightblue" stroke="midnightblue" points="993.343,-160.491 992.87,-149.906 986.639,-158.475 993.343,-160.491"/>
</g>
<!-- Node24&#45;&gt;Node10 -->
<g id="edge30" class="edge"><title>Node24&#45;&gt;Node10</title>
<path fill="none" stroke="midnightblue" d="M797.216,-248.281C813.208,-228.957 851.846,-182.269 872.48,-157.336"/>
<polygon fill="midnightblue" stroke="midnightblue" points="875.282,-159.44 878.962,-149.505 869.889,-154.977 875.282,-159.44"/>
</g>
<!-- Node24&#45;&gt;Node17 -->
<g id="edge28" class="edge"><title>Node24&#45;&gt;Node17</title>
<path fill="none" stroke="midnightblue" d="M740.928,-257.85C657.852,-258.122 495,-253.226 459,-212 453.153,-205.305 454.592,-199.719 459,-192 474.61,-164.662 496.097,-176.486 520,-156 563.641,-118.598 561.158,-96.44 602,-56 613.049,-45.0595 626.618,-34.1025 637.632,-25.7397"/>
<polygon fill="midnightblue" stroke="midnightblue" points="639.892,-28.4204 645.82,-19.639 635.71,-22.8071 639.892,-28.4204"/>
</g>
<!-- Node25 -->
<g id="node25" class="node"><title>Node25</title>
<polygon fill="none" stroke="#bfbfbf" points="1010.5,-192.5 1010.5,-211.5 1051.5,-211.5 1051.5,-192.5 1010.5,-192.5"/>
<text text-anchor="middle" x="1031" y="-199.5" font-family="Helvetica,sans-Serif" font-size="10.00">ctime</text>
</g>
<!-- Node24&#45;&gt;Node25 -->
<g id="edge29" class="edge"><title>Node24&#45;&gt;Node25</title>
<path fill="none" stroke="midnightblue" d="M831.14,-248.476C872.793,-239.737 939.016,-225.546 996,-212 997.45,-211.655 998.932,-211.297 1000.43,-210.931"/>
<polygon fill="midnightblue" stroke="midnightblue" points="1001.45,-214.282 1010.3,-208.456 999.752,-207.492 1001.45,-214.282"/>
</g>
<!-- Node26 -->
<g id="node26" class="node"><title>Node26</title>
<polygon fill="none" stroke="#bfbfbf" points="1070,-192.5 1070,-211.5 1114,-211.5 1114,-192.5 1070,-192.5"/>
<text text-anchor="middle" x="1092" y="-199.5" font-family="Helvetica,sans-Serif" font-size="10.00">thread</text>
</g>
<!-- Node24&#45;&gt;Node26 -->
<g id="edge33" class="edge"><title>Node24&#45;&gt;Node26</title>
<path fill="none" stroke="midnightblue" d="M839.086,-250.461C891.361,-243.131 976.667,-230.124 1059.83,-211.808"/>
<polygon fill="midnightblue" stroke="midnightblue" points="1060.7,-215.2 1069.7,-209.607 1059.18,-208.368 1060.7,-215.2"/>
</g>
<!-- Node27 -->
<g id="node27" class="node"><title>Node27</title>
<polygon fill="none" stroke="#bfbfbf" points="468,-192.5 468,-211.5 514,-211.5 514,-192.5 468,-192.5"/>
<text text-anchor="middle" x="491" y="-199.5" font-family="Helvetica,sans-Serif" font-size="10.00">stdio.h</text>
</g>
<!-- Node24&#45;&gt;Node27 -->
<g id="edge34" class="edge"><title>Node24&#45;&gt;Node27</title>
<path fill="none" stroke="midnightblue" d="M740.973,-250.347C689.285,-242.974 605.333,-229.984 524.221,-212.085"/>
<polygon fill="midnightblue" stroke="midnightblue" points="524.868,-208.643 514.345,-209.878 523.341,-215.475 524.868,-208.643"/>
</g>
<!-- Node28 -->
<g id="node28" class="node"><title>Node28</title>
<polygon fill="none" stroke="#bfbfbf" points="532.5,-192.5 532.5,-211.5 581.5,-211.5 581.5,-192.5 532.5,-192.5"/>
<text text-anchor="middle" x="557" y="-199.5" font-family="Helvetica,sans-Serif" font-size="10.00">string.h</text>
</g>
<!-- Node24&#45;&gt;Node28 -->
<g id="edge35" class="edge"><title>Node24&#45;&gt;Node28</title>
<path fill="none" stroke="midnightblue" d="M750.256,-248.458C712.059,-240.15 652.477,-226.932 591.629,-212.087"/>
<polygon fill="midnightblue" stroke="midnightblue" points="592.402,-208.673 581.856,-209.691 590.735,-215.471 592.402,-208.673"/>
</g>
<!-- Node29 -->
<g id="node29" class="node"><title>Node29</title>
<polygon fill="none" stroke="#bfbfbf" points="600,-192.5 600,-211.5 660,-211.5 660,-192.5 600,-192.5"/>
<text text-anchor="middle" x="630" y="-199.5" font-family="Helvetica,sans-Serif" font-size="10.00">sys/stat.h</text>
</g>
<!-- Node24&#45;&gt;Node29 -->
<g id="edge36" class="edge"><title>Node24&#45;&gt;Node29</title>
<path fill="none" stroke="midnightblue" d="M764.648,-248.444C737.731,-239.359 695.004,-224.939 664.913,-214.783"/>
<polygon fill="midnightblue" stroke="midnightblue" points="665.828,-211.398 655.234,-211.516 663.59,-218.031 665.828,-211.398"/>
</g>
<!-- Node30 -->
<g id="node30" class="node"><title>Node30</title>
<polygon fill="none" stroke="#bfbfbf" points="678,-192.5 678,-211.5 746,-211.5 746,-192.5 678,-192.5"/>
<text text-anchor="middle" x="712" y="-199.5" font-family="Helvetica,sans-Serif" font-size="10.00">sys/types.h</text>
</g>
<!-- Node24&#45;&gt;Node30 -->
<g id="edge37" class="edge"><title>Node24&#45;&gt;Node30</title>
<path fill="none" stroke="midnightblue" d="M777.468,-248.324C765.414,-239.979 746.973,-227.212 732.731,-217.352"/>
<polygon fill="midnightblue" stroke="midnightblue" points="734.715,-214.469 724.501,-211.655 730.731,-220.224 734.715,-214.469"/>
</g>
<!-- Node31 -->
<g id="node31" class="node"><title>Node31</title>
<polygon fill="none" stroke="#bfbfbf" points="764.5,-192.5 764.5,-211.5 815.5,-211.5 815.5,-192.5 764.5,-192.5"/>
<text text-anchor="middle" x="790" y="-199.5" font-family="Helvetica,sans-Serif" font-size="10.00">unistd.h</text>
</g>
<!-- Node24&#45;&gt;Node31 -->
<g id="edge38" class="edge"><title>Node24&#45;&gt;Node31</title>
<path fill="none" stroke="midnightblue" d="M790,-248.083C790,-241.006 790,-230.861 790,-221.986"/>
<polygon fill="midnightblue" stroke="midnightblue" points="793.5,-221.751 790,-211.751 786.5,-221.751 793.5,-221.751"/>
</g>
<!-- Node32 -->
<g id="node32" class="node"><title>Node32</title>
<polygon fill="none" stroke="#bfbfbf" points="872,-192.5 872,-211.5 916,-211.5 916,-192.5 872,-192.5"/>
<text text-anchor="middle" x="894" y="-199.5" font-family="Helvetica,sans-Serif" font-size="10.00">fcntl.h</text>
</g>
<!-- Node24&#45;&gt;Node32 -->
<g id="edge39" class="edge"><title>Node24&#45;&gt;Node32</title>
<path fill="none" stroke="midnightblue" d="M806.709,-248.324C823.312,-239.703 849.002,-226.364 868.22,-216.386"/>
<polygon fill="midnightblue" stroke="midnightblue" points="870.07,-219.369 877.332,-211.655 866.844,-213.156 870.07,-219.369"/>
</g>
<!-- Node33&#45;&gt;Node2 -->
<g id="edge65" class="edge"><title>Node33&#45;&gt;Node2</title>
<path fill="none" stroke="midnightblue" d="M1080.97,-496.463C1060.83,-482.566 1018.6,-455.091 979,-440 743.676,-350.317 668.936,-385.427 422,-336 420.727,-335.745 419.44,-335.481 418.143,-335.209"/>
<polygon fill="midnightblue" stroke="midnightblue" points="418.607,-331.727 408.088,-332.991 417.099,-338.563 418.607,-331.727"/>
</g>
<!-- Node33&#45;&gt;Node3 -->
<g id="edge64" class="edge"><title>Node33&#45;&gt;Node3</title>
<path fill="none" stroke="midnightblue" d="M1029.48,-500.701C860.059,-487.85 403.772,-443.728 307,-336 278.671,-304.464 281.516,-250.578 285.534,-222.038"/>
<polygon fill="midnightblue" stroke="midnightblue" points="289.047,-222.239 287.183,-211.809 282.136,-221.124 289.047,-222.239"/>
</g>
<!-- Node33&#45;&gt;Node34 -->
<g id="edge44" class="edge"><title>Node33&#45;&gt;Node34</title>
<path fill="none" stroke="midnightblue" d="M1065.59,-496.444C1036.23,-487.28 989.481,-472.688 956.904,-462.519"/>
<polygon fill="midnightblue" stroke="midnightblue" points="957.873,-459.155 947.284,-459.516 955.787,-465.837 957.873,-459.155"/>
</g>
<!-- Node35 -->
<g id="node35" class="node"><title>Node35</title>
<g id="a_node35"><a xlink:href="formatter_8h.html" target="_top" xlink:title="spdlog/formatter.h">
<polygon fill="none" stroke="black" points="1072.5,-440.5 1072.5,-459.5 1167.5,-459.5 1167.5,-440.5 1072.5,-440.5"/>
<text text-anchor="middle" x="1120" y="-447.5" font-family="Helvetica,sans-Serif" font-size="10.00">spdlog/formatter.h</text>
</a>
</g>
</g>
<!-- Node33&#45;&gt;Node35 -->
<g id="edge46" class="edge"><title>Node33&#45;&gt;Node35</title>
<path fill="none" stroke="midnightblue" d="M1097.46,-496.083C1101.15,-488.691 1106.52,-477.953 1111.09,-468.811"/>
<polygon fill="midnightblue" stroke="midnightblue" points="1114.28,-470.261 1115.62,-459.751 1108.02,-467.13 1114.28,-470.261"/>
</g>
<!-- Node33&#45;&gt;Node37 -->
<g id="edge66" class="edge"><title>Node33&#45;&gt;Node37</title>
<path fill="none" stroke="midnightblue" d="M1152.6,-496.464C1212.41,-485.029 1303.81,-459.352 1362,-404 1380.37,-386.527 1389.89,-358.091 1394.41,-339.463"/>
<polygon fill="midnightblue" stroke="midnightblue" points="1397.86,-340.068 1396.57,-329.552 1391.02,-338.576 1397.86,-340.068"/>
</g>
<!-- Node34&#45;&gt;Node2 -->
<g id="edge45" class="edge"><title>Node34&#45;&gt;Node2</title>
<path fill="none" stroke="midnightblue" d="M881.19,-440.496C797.279,-422.045 592.753,-376.712 422,-336 420.737,-335.699 419.459,-335.393 418.171,-335.083"/>
<polygon fill="midnightblue" stroke="midnightblue" points="418.707,-331.611 408.163,-332.649 417.053,-338.413 418.707,-331.611"/>
</g>
<!-- Node35&#45;&gt;Node2 -->
<g id="edge47" class="edge"><title>Node35&#45;&gt;Node2</title>
<path fill="none" stroke="midnightblue" d="M1107.66,-440.471C1094.72,-431.492 1073.83,-416.898 1056,-404 1036.7,-390.037 1035.38,-380.175 1013,-372 889.414,-326.845 552.042,-356.041 422,-336 420.717,-335.802 419.421,-335.59 418.116,-335.364"/>
<polygon fill="midnightblue" stroke="midnightblue" points="418.496,-331.873 408.013,-333.412 417.168,-338.746 418.496,-331.873"/>
</g>
<!-- Node35&#45;&gt;Node4 -->
<g id="edge49" class="edge"><title>Node35&#45;&gt;Node4</title>
<path fill="none" stroke="midnightblue" d="M1141.48,-440.36C1156.39,-433.09 1175.11,-421.117 1184,-404 1227.7,-319.847 1199.51,-278.199 1160,-192 1123.05,-111.387 1094.83,-92.4725 1014,-56 963.243,-33.0979 899.088,-20.7577 861.786,-15.0585"/>
<polygon fill="midnightblue" stroke="midnightblue" points="861.964,-11.5474 851.563,-13.5611 860.95,-18.4735 861.964,-11.5474"/>
</g>
<!-- Node35&#45;&gt;Node7 -->
<g id="edge50" class="edge"><title>Node35&#45;&gt;Node7</title>
<path fill="none" stroke="midnightblue" d="M1167.64,-442.569C1211.41,-435.566 1271.62,-422.795 1286,-404 1375.43,-287.105 1293.41,-89.2162 1264.91,-28.9487"/>
<polygon fill="midnightblue" stroke="midnightblue" points="1267.9,-27.1081 1260.4,-19.6287 1261.6,-30.1552 1267.9,-27.1081"/>
</g>
<!-- Node35&#45;&gt;Node21 -->
<g id="edge48" class="edge"><title>Node35&#45;&gt;Node21</title>
<path fill="none" stroke="midnightblue" d="M1167.67,-442.857C1216.57,-435.667 1288.32,-422.364 1309,-404 1365.26,-354.045 1355.95,-101.299 1352.13,-29.8426"/>
<polygon fill="midnightblue" stroke="midnightblue" points="1355.61,-29.447 1351.55,-19.6606 1348.62,-29.8422 1355.61,-29.447"/>
</g>
<!-- Node36 -->
<g id="node36" class="node"><title>Node36</title>
<g id="a_node36"><a xlink:href="pattern__formatter__impl_8h.html" target="_top" xlink:title="spdlog/details/pattern\l_formatter_impl.h">
<polygon fill="none" stroke="black" points="1065,-373 1065,-403 1175,-403 1175,-373 1065,-373"/>
<text text-anchor="start" x="1073" y="-391" font-family="Helvetica,sans-Serif" font-size="10.00">spdlog/details/pattern</text>
<text text-anchor="middle" x="1120" y="-380" font-family="Helvetica,sans-Serif" font-size="10.00">_formatter_impl.h</text>
</a>
</g>
</g>
<!-- Node35&#45;&gt;Node36 -->
<g id="edge51" class="edge"><title>Node35&#45;&gt;Node36</title>
<path fill="none" stroke="midnightblue" d="M1115.1,-440.403C1113.57,-433.341 1112.99,-422.975 1113.36,-413.399"/>
<polygon fill="midnightblue" stroke="midnightblue" points="1116.87,-413.386 1114.17,-403.141 1109.89,-412.832 1116.87,-413.386"/>
</g>
<!-- Node36&#45;&gt;Node2 -->
<g id="edge53" class="edge"><title>Node36&#45;&gt;Node2</title>
<path fill="none" stroke="midnightblue" d="M1064.77,-374.196C1060.13,-373.363 1055.49,-372.613 1051,-372 773.558,-334.142 698.824,-378.142 422,-336 420.716,-335.805 419.42,-335.594 418.115,-335.371"/>
<polygon fill="midnightblue" stroke="midnightblue" points="418.491,-331.879 408.011,-333.429 417.171,-338.753 418.491,-331.879"/>
</g>
<!-- Node36&#45;&gt;Node4 -->
<g id="edge60" class="edge"><title>Node36&#45;&gt;Node4</title>
<path fill="none" stroke="midnightblue" d="M1128.72,-372.882C1134.31,-362.969 1141.05,-349.179 1144,-336 1157.96,-273.528 1174.09,-246.798 1141,-192 1077.22,-86.3792 926.686,-35.8711 861.726,-18.4018"/>
<polygon fill="midnightblue" stroke="midnightblue" points="862.262,-14.9245 851.702,-15.7876 860.495,-21.698 862.262,-14.9245"/>
</g>
<!-- Node36&#45;&gt;Node6 -->
<g id="edge56" class="edge"><title>Node36&#45;&gt;Node6</title>
<path fill="none" stroke="midnightblue" d="M1125.09,-372.962C1136.56,-338.631 1160.59,-249.077 1122,-192 1101.17,-161.186 1058.33,-148.987 1028.18,-144.159"/>
<polygon fill="midnightblue" stroke="midnightblue" points="1028.49,-140.669 1018.1,-142.741 1027.52,-147.601 1028.49,-140.669"/>
</g>
<!-- Node36&#45;&gt;Node7 -->
<g id="edge58" class="edge"><title>Node36&#45;&gt;Node7</title>
<path fill="none" stroke="midnightblue" d="M1138.9,-372.867C1150.08,-363.559 1163.65,-350.452 1172,-336 1232.73,-230.922 1250.24,-81.734 1254.66,-29.7358"/>
<polygon fill="midnightblue" stroke="midnightblue" points="1258.16,-29.9103 1255.45,-19.6668 1251.18,-29.3617 1258.16,-29.9103"/>
</g>
<!-- Node36&#45;&gt;Node12 -->
<g id="edge55" class="edge"><title>Node36&#45;&gt;Node12</title>
<path fill="none" stroke="midnightblue" d="M1064.56,-374.573C1020.63,-364.581 957.752,-349.956 903,-336 701.558,-284.655 578.013,-377.336 452,-212 440.202,-196.521 448.394,-173.965 456.791,-158.452"/>
<polygon fill="midnightblue" stroke="midnightblue" points="459.811,-160.223 461.87,-149.83 453.779,-156.67 459.811,-160.223"/>
</g>
<!-- Node36&#45;&gt;Node21 -->
<g id="edge63" class="edge"><title>Node36&#45;&gt;Node21</title>
<path fill="none" stroke="midnightblue" d="M1147.25,-372.872C1162.5,-363.913 1181,-351.163 1194,-336 1279.48,-236.288 1330.23,-82.001 1345.82,-29.3387"/>
<polygon fill="midnightblue" stroke="midnightblue" points="1349.19,-30.2789 1348.61,-19.6999 1342.47,-28.3305 1349.19,-30.2789"/>
</g>
<!-- Node36&#45;&gt;Node22 -->
<g id="edge62" class="edge"><title>Node36&#45;&gt;Node22</title>
<path fill="none" stroke="midnightblue" d="M1064.7,-374.575C1059.41,-373.611 1054.11,-372.73 1049,-372 838.53,-341.961 779.798,-380.942 572,-336 461.264,-312.05 164.266,-245.656 95,-156 66.2338,-118.766 69.1594,-59.4519 72.9673,-29.5391"/>
<polygon fill="midnightblue" stroke="midnightblue" points="76.434,-30.0205 74.4057,-19.6217 69.5065,-29.0158 76.434,-30.0205"/>
</g>
<!-- Node36&#45;&gt;Node24 -->
<g id="edge54" class="edge"><title>Node36&#45;&gt;Node24</title>
<path fill="none" stroke="midnightblue" d="M1083.74,-372.936C1018.71,-347.713 883.32,-295.197 821.731,-271.308"/>
<polygon fill="midnightblue" stroke="midnightblue" points="822.745,-267.947 812.156,-267.594 820.213,-274.473 822.745,-267.947"/>
</g>
<!-- Node36&#45;&gt;Node25 -->
<g id="edge57" class="edge"><title>Node36&#45;&gt;Node25</title>
<path fill="none" stroke="midnightblue" d="M1113.16,-372.867C1097.23,-339.933 1057.65,-258.096 1039.88,-221.361"/>
<polygon fill="midnightblue" stroke="midnightblue" points="1042.81,-219.369 1035.3,-211.891 1036.5,-222.417 1042.81,-219.369"/>
</g>
<!-- Node36&#45;&gt;Node26 -->
<g id="edge61" class="edge"><title>Node36&#45;&gt;Node26</title>
<path fill="none" stroke="midnightblue" d="M1115.45,-372.856C1112.35,-362.7 1108.38,-348.632 1106,-336 1098.43,-295.835 1094.65,-248.018 1093.03,-222.066"/>
<polygon fill="midnightblue" stroke="midnightblue" points="1096.5,-221.565 1092.43,-211.786 1089.52,-221.973 1096.5,-221.565"/>
</g>
<!-- Node36&#45;&gt;Node35 -->
<g id="edge52" class="edge"><title>Node36&#45;&gt;Node35</title>
<path fill="none" stroke="midnightblue" d="M1125.83,-403.141C1126.87,-411.272 1127.03,-421.585 1126.3,-430.371"/>
<polygon fill="midnightblue" stroke="midnightblue" points="1122.81,-430.016 1124.9,-440.403 1129.75,-430.982 1122.81,-430.016"/>
</g>
<!-- Node36&#45;&gt;Node37 -->
<g id="edge59" class="edge"><title>Node36&#45;&gt;Node37</title>
<path fill="none" stroke="midnightblue" d="M1175.26,-373.882C1232.37,-360.321 1319.57,-339.62 1366.11,-328.57"/>
<polygon fill="midnightblue" stroke="midnightblue" points="1367.02,-331.952 1375.94,-326.236 1365.41,-325.141 1367.02,-331.952"/>
</g>
</g>
</svg>
