<?xml version="1.0" encoding="UTF-8" standalone="no"?>
<!DOCTYPE svg PUBLIC "-//W3C//DTD SVG 1.1//EN"
 "http://www.w3.org/Graphics/SVG/1.1/DTD/svg11.dtd">
<!-- Generated by graphviz version 2.38.0 (20140413.2041)
 -->
<!-- Title: /home/lucamuratore/advr&#45;superbuild/external/XBotInterface/include/spdlog/sinks/dist_sink.h Pages: 1 -->
<svg width="1592pt" height="609pt"
 viewBox="0.00 0.00 1592.00 609.00" xmlns="http://www.w3.org/2000/svg" xmlns:xlink="http://www.w3.org/1999/xlink">
<g id="graph0" class="graph" transform="scale(1 1) rotate(0) translate(4 605)">
<title>/home/lucamuratore/advr&#45;superbuild/external/XBotInterface/include/spdlog/sinks/dist_sink.h</title>
<!-- Node1 -->
<g id="node1" class="node"><title>Node1</title>
<polygon fill="#bfbfbf" stroke="black" points="1185.5,-548.5 1185.5,-600.5 1330.5,-600.5 1330.5,-548.5 1185.5,-548.5"/>
<text text-anchor="start" x="1193.5" y="-588.5" font-family="Helvetica,sans-Serif" font-size="10.00">/home/lucamuratore</text>
<text text-anchor="start" x="1193.5" y="-577.5" font-family="Helvetica,sans-Serif" font-size="10.00">/advr&#45;superbuild/external</text>
<text text-anchor="start" x="1193.5" y="-566.5" font-family="Helvetica,sans-Serif" font-size="10.00">/XBotInterface/include/spdlog</text>
<text text-anchor="middle" x="1258" y="-555.5" font-family="Helvetica,sans-Serif" font-size="10.00">/sinks/dist_sink.h</text>
</g>
<!-- Node2 -->
<g id="node2" class="node"><title>Node2</title>
<g id="a_node2"><a xlink:href="log__msg_8h.html" target="_top" xlink:title="spdlog/details/log\l_msg.h">
<polygon fill="none" stroke="black" points="316,-302.5 316,-332.5 408,-332.5 408,-302.5 316,-302.5"/>
<text text-anchor="start" x="324" y="-320.5" font-family="Helvetica,sans-Serif" font-size="10.00">spdlog/details/log</text>
<text text-anchor="middle" x="362" y="-309.5" font-family="Helvetica,sans-Serif" font-size="10.00">_msg.h</text>
</a>
</g>
</g>
<!-- Node1&#45;&gt;Node2 -->
<g id="edge1" class="edge"><title>Node1&#45;&gt;Node2</title>
<path fill="none" stroke="midnightblue" d="M1185.4,-558.45C1129.59,-546.61 1050.68,-529.276 982,-512 803.378,-467.065 758.211,-456.798 583,-400 521.208,-379.969 451.012,-353.418 406.632,-336.15"/>
<polygon fill="midnightblue" stroke="midnightblue" points="407.881,-332.881 397.293,-332.505 405.336,-339.402 407.881,-332.881"/>
</g>
<!-- Node7 -->
<g id="node7" class="node"><title>Node7</title>
<polygon fill="none" stroke="#bfbfbf" points="1230,-0.5 1230,-19.5 1282,-19.5 1282,-0.5 1230,-0.5"/>
<text text-anchor="middle" x="1256" y="-7.5" font-family="Helvetica,sans-Serif" font-size="10.00">memory</text>
</g>
<!-- Node1&#45;&gt;Node7 -->
<g id="edge70" class="edge"><title>Node1&#45;&gt;Node7</title>
<path fill="none" stroke="midnightblue" d="M1330.78,-559.431C1389.37,-543.385 1462,-510.656 1462,-447 1462,-447 1462,-447 1462,-137.5 1462,-58.7127 1351.22,-27.4517 1292.14,-16.3815"/>
<polygon fill="midnightblue" stroke="midnightblue" points="1292.55,-12.8995 1282.09,-14.5999 1291.33,-19.792 1292.55,-12.8995"/>
</g>
<!-- Node11 -->
<g id="node11" class="node"><title>Node11</title>
<g id="a_node11"><a xlink:href="null__mutex_8h.html" target="_top" xlink:title="spdlog/details/null\l_mutex.h">
<polygon fill="none" stroke="black" points="104.5,-123.5 104.5,-153.5 199.5,-153.5 199.5,-123.5 104.5,-123.5"/>
<text text-anchor="start" x="112.5" y="-141.5" font-family="Helvetica,sans-Serif" font-size="10.00">spdlog/details/null</text>
<text text-anchor="middle" x="152" y="-130.5" font-family="Helvetica,sans-Serif" font-size="10.00">_mutex.h</text>
</a>
</g>
</g>
<!-- Node1&#45;&gt;Node11 -->
<g id="edge42" class="edge"><title>Node1&#45;&gt;Node11</title>
<path fill="none" stroke="midnightblue" d="M1185.39,-573.87C917.488,-574.29 0,-566.973 0,-447 0,-447 0,-447 0,-255 0,-205.546 51.6402,-174.503 94.7215,-157.209"/>
<polygon fill="midnightblue" stroke="midnightblue" points="96.2442,-160.374 104.323,-153.52 93.7333,-153.84 96.2442,-160.374"/>
</g>
<!-- Node21 -->
<g id="node21" class="node"><title>Node21</title>
<polygon fill="none" stroke="#bfbfbf" points="1329,-0.5 1329,-19.5 1373,-19.5 1373,-0.5 1329,-0.5"/>
<text text-anchor="middle" x="1351" y="-7.5" font-family="Helvetica,sans-Serif" font-size="10.00">vector</text>
</g>
<!-- Node1&#45;&gt;Node21 -->
<g id="edge71" class="edge"><title>Node1&#45;&gt;Node21</title>
<path fill="none" stroke="midnightblue" d="M1330.61,-566.14C1401.89,-554.429 1500,-524.275 1500,-447 1500,-447 1500,-447 1500,-137.5 1500,-76.4556 1426.42,-38.7382 1382.68,-21.7075"/>
<polygon fill="midnightblue" stroke="midnightblue" points="1383.9,-18.4282 1373.31,-18.1972 1381.44,-24.9832 1383.9,-18.4282"/>
</g>
<!-- Node33 -->
<g id="node33" class="node"><title>Node33</title>
<g id="a_node33"><a xlink:href="base__sink_8h.html" target="_top" xlink:title="spdlog/sinks/base_sink.h">
<polygon fill="none" stroke="black" points="1029.5,-492.5 1029.5,-511.5 1156.5,-511.5 1156.5,-492.5 1029.5,-492.5"/>
<text text-anchor="middle" x="1093" y="-499.5" font-family="Helvetica,sans-Serif" font-size="10.00">spdlog/sinks/base_sink.h</text>
</a>
</g>
</g>
<!-- Node1&#45;&gt;Node33 -->
<g id="edge43" class="edge"><title>Node1&#45;&gt;Node33</title>
<path fill="none" stroke="midnightblue" d="M1199.36,-548.446C1173.29,-537.308 1143.75,-524.683 1122.42,-515.572"/>
<polygon fill="midnightblue" stroke="midnightblue" points="1123.53,-512.238 1112.96,-511.527 1120.78,-518.675 1123.53,-512.238"/>
</g>
<!-- Node34 -->
<g id="node34" class="node"><title>Node34</title>
<g id="a_node34"><a xlink:href="sink_8h.html" target="_top" xlink:title="spdlog/sinks/sink.h">
<polygon fill="none" stroke="black" points="869.5,-436.5 869.5,-455.5 970.5,-455.5 970.5,-436.5 869.5,-436.5"/>
<text text-anchor="middle" x="920" y="-443.5" font-family="Helvetica,sans-Serif" font-size="10.00">spdlog/sinks/sink.h</text>
</a>
</g>
</g>
<!-- Node1&#45;&gt;Node34 -->
<g id="edge67" class="edge"><title>Node1&#45;&gt;Node34</title>
<path fill="none" stroke="midnightblue" d="M1185.42,-561.095C1137.21,-551.335 1073.22,-535.424 1020,-512 989.596,-498.618 958.026,-476.481 938.693,-461.818"/>
<polygon fill="midnightblue" stroke="midnightblue" points="940.774,-459.003 930.719,-455.665 936.497,-464.545 940.774,-459.003"/>
</g>
<!-- Node37 -->
<g id="node37" class="node"><title>Node37</title>
<polygon fill="none" stroke="#bfbfbf" points="1376,-308 1376,-327 1420,-327 1420,-308 1376,-308"/>
<text text-anchor="middle" x="1398" y="-315" font-family="Helvetica,sans-Serif" font-size="10.00">mutex</text>
</g>
<!-- Node1&#45;&gt;Node37 -->
<g id="edge69" class="edge"><title>Node1&#45;&gt;Node37</title>
<path fill="none" stroke="midnightblue" d="M1282.9,-548.392C1312.69,-516.712 1361.61,-459.18 1386,-400 1394.32,-379.802 1396.99,-354.691 1397.78,-337.721"/>
<polygon fill="midnightblue" stroke="midnightblue" points="1401.29,-337.531 1398.08,-327.434 1394.29,-337.329 1401.29,-337.531"/>
</g>
<!-- Node38 -->
<g id="node38" class="node"><title>Node38</title>
<polygon fill="none" stroke="#bfbfbf" points="1528,-492.5 1528,-511.5 1584,-511.5 1584,-492.5 1528,-492.5"/>
<text text-anchor="middle" x="1556" y="-499.5" font-family="Helvetica,sans-Serif" font-size="10.00">algorithm</text>
</g>
<!-- Node1&#45;&gt;Node38 -->
<g id="edge68" class="edge"><title>Node1&#45;&gt;Node38</title>
<path fill="none" stroke="midnightblue" d="M1330.52,-556.344C1389.74,-542.332 1471.09,-523.088 1518.15,-511.954"/>
<polygon fill="midnightblue" stroke="midnightblue" points="1519.01,-515.348 1527.94,-509.64 1517.4,-508.536 1519.01,-515.348"/>
</g>
<!-- Node3 -->
<g id="node3" class="node"><title>Node3</title>
<g id="a_node3"><a xlink:href="common_8h.html" target="_top" xlink:title="spdlog/common.h">
<polygon fill="none" stroke="black" points="242,-190.5 242,-209.5 336,-209.5 336,-190.5 242,-190.5"/>
<text text-anchor="middle" x="289" y="-197.5" font-family="Helvetica,sans-Serif" font-size="10.00">spdlog/common.h</text>
</a>
</g>
</g>
<!-- Node2&#45;&gt;Node3 -->
<g id="edge2" class="edge"><title>Node2&#45;&gt;Node3</title>
<path fill="none" stroke="midnightblue" d="M353.049,-302.337C339.657,-281.149 314.436,-241.244 299.96,-218.34"/>
<polygon fill="midnightblue" stroke="midnightblue" points="302.781,-216.253 294.479,-209.669 296.864,-219.993 302.781,-216.253"/>
</g>
<!-- Node4 -->
<g id="node4" class="node"><title>Node4</title>
<polygon fill="none" stroke="#bfbfbf" points="810.5,-0.5 810.5,-19.5 851.5,-19.5 851.5,-0.5 810.5,-0.5"/>
<text text-anchor="middle" x="831" y="-7.5" font-family="Helvetica,sans-Serif" font-size="10.00">string</text>
</g>
<!-- Node2&#45;&gt;Node4 -->
<g id="edge40" class="edge"><title>Node2&#45;&gt;Node4</title>
<path fill="none" stroke="midnightblue" d="M369.414,-302.32C383.551,-276.551 416.754,-221.771 459,-190 494.092,-163.609 510.955,-172.007 551,-154 647.407,-110.648 758.187,-51.0527 806.424,-24.598"/>
<polygon fill="midnightblue" stroke="midnightblue" points="808.403,-27.5043 815.478,-19.6184 805.03,-21.3708 808.403,-27.5043"/>
</g>
<!-- Node22 -->
<g id="node22" class="node"><title>Node22</title>
<polygon fill="none" stroke="#bfbfbf" points="56,-0.5 56,-19.5 96,-19.5 96,-0.5 56,-0.5"/>
<text text-anchor="middle" x="76" y="-7.5" font-family="Helvetica,sans-Serif" font-size="10.00">utility</text>
</g>
<!-- Node2&#45;&gt;Node22 -->
<g id="edge41" class="edge"><title>Node2&#45;&gt;Node22</title>
<path fill="none" stroke="midnightblue" d="M315.923,-309.923C226.472,-295.856 38,-259.299 38,-201 38,-201 38,-201 38,-137.5 38,-97.3496 55.7757,-52.9463 67.0118,-28.8892"/>
<polygon fill="midnightblue" stroke="midnightblue" points="70.289,-30.1518 71.4917,-19.6255 63.9871,-27.1043 70.289,-30.1518"/>
</g>
<!-- Node24 -->
<g id="node24" class="node"><title>Node24</title>
<g id="a_node24"><a xlink:href="os_8h.html" target="_top" xlink:title="spdlog/details/os.h">
<polygon fill="none" stroke="black" points="741,-246.5 741,-265.5 839,-265.5 839,-246.5 741,-246.5"/>
<text text-anchor="middle" x="790" y="-253.5" font-family="Helvetica,sans-Serif" font-size="10.00">spdlog/details/os.h</text>
</a>
</g>
</g>
<!-- Node2&#45;&gt;Node24 -->
<g id="edge26" class="edge"><title>Node2&#45;&gt;Node24</title>
<path fill="none" stroke="midnightblue" d="M408.21,-310.076C486.31,-299.219 644.311,-277.253 730.55,-265.265"/>
<polygon fill="midnightblue" stroke="midnightblue" points="731.278,-268.697 740.701,-263.854 730.314,-261.764 731.278,-268.697"/>
</g>
<!-- Node3&#45;&gt;Node4 -->
<g id="edge3" class="edge"><title>Node3&#45;&gt;Node4</title>
<path fill="none" stroke="midnightblue" d="M336.296,-198.999C385.645,-196.997 463.673,-188.04 521,-154 569.587,-125.15 553.448,-84.9099 602,-56 665.169,-18.3863 753.839,-11.4859 800.124,-10.6567"/>
<polygon fill="midnightblue" stroke="midnightblue" points="800.436,-14.154 810.403,-10.5616 800.371,-7.15432 800.436,-14.154"/>
</g>
<!-- Node5 -->
<g id="node5" class="node"><title>Node5</title>
<polygon fill="none" stroke="#bfbfbf" points="294.5,-129 294.5,-148 367.5,-148 367.5,-129 294.5,-129"/>
<text text-anchor="middle" x="331" y="-136" font-family="Helvetica,sans-Serif" font-size="10.00">initializer_list</text>
</g>
<!-- Node3&#45;&gt;Node5 -->
<g id="edge4" class="edge"><title>Node3&#45;&gt;Node5</title>
<path fill="none" stroke="midnightblue" d="M295.018,-190.475C301.255,-181.638 311.173,-167.589 319.018,-156.475"/>
<polygon fill="midnightblue" stroke="midnightblue" points="322.086,-158.197 324.994,-148.009 316.367,-154.16 322.086,-158.197"/>
</g>
<!-- Node6 -->
<g id="node6" class="node"><title>Node6</title>
<polygon fill="none" stroke="#bfbfbf" points="972,-129 972,-148 1018,-148 1018,-129 972,-129"/>
<text text-anchor="middle" x="995" y="-136" font-family="Helvetica,sans-Serif" font-size="10.00">chrono</text>
</g>
<!-- Node3&#45;&gt;Node6 -->
<g id="edge5" class="edge"><title>Node3&#45;&gt;Node6</title>
<path fill="none" stroke="midnightblue" d="M336.048,-196.467C462.933,-189.507 810.259,-169.577 924,-154 936.436,-152.297 949.963,-149.719 961.842,-147.206"/>
<polygon fill="midnightblue" stroke="midnightblue" points="962.762,-150.588 971.788,-145.039 961.272,-143.749 962.762,-150.588"/>
</g>
<!-- Node3&#45;&gt;Node7 -->
<g id="edge6" class="edge"><title>Node3&#45;&gt;Node7</title>
<path fill="none" stroke="midnightblue" d="M336.408,-191.297C388.946,-182.658 476.15,-168.016 551,-154 807.94,-105.887 1116.02,-40.8541 1219.84,-18.7333"/>
<polygon fill="midnightblue" stroke="midnightblue" points="1220.76,-22.1172 1229.81,-16.6085 1219.3,-15.2711 1220.76,-22.1172"/>
</g>
<!-- Node8 -->
<g id="node8" class="node"><title>Node8</title>
<polygon fill="none" stroke="#bfbfbf" points="238,-62 238,-81 284,-81 284,-62 238,-62"/>
<text text-anchor="middle" x="261" y="-69" font-family="Helvetica,sans-Serif" font-size="10.00">atomic</text>
</g>
<!-- Node3&#45;&gt;Node8 -->
<g id="edge7" class="edge"><title>Node3&#45;&gt;Node8</title>
<path fill="none" stroke="midnightblue" d="M324.013,-190.445C342.934,-183.844 364.684,-172.594 376,-154 383.163,-142.231 383.533,-134.536 376,-123 358.027,-95.4786 321.347,-82.8586 294.222,-77.1335"/>
<polygon fill="midnightblue" stroke="midnightblue" points="294.83,-73.6865 284.353,-75.2602 293.525,-80.5637 294.83,-73.6865"/>
</g>
<!-- Node9 -->
<g id="node9" class="node"><title>Node9</title>
<polygon fill="none" stroke="#bfbfbf" points="217.5,-129 217.5,-148 276.5,-148 276.5,-129 217.5,-129"/>
<text text-anchor="middle" x="247" y="-136" font-family="Helvetica,sans-Serif" font-size="10.00">exception</text>
</g>
<!-- Node3&#45;&gt;Node9 -->
<g id="edge8" class="edge"><title>Node3&#45;&gt;Node9</title>
<path fill="none" stroke="midnightblue" d="M282.982,-190.475C276.745,-181.638 266.827,-167.589 258.982,-156.475"/>
<polygon fill="midnightblue" stroke="midnightblue" points="261.633,-154.16 253.006,-148.009 255.914,-158.197 261.633,-154.16"/>
</g>
<!-- Node10 -->
<g id="node10" class="node"><title>Node10</title>
<polygon fill="none" stroke="#bfbfbf" points="856.5,-129 856.5,-148 915.5,-148 915.5,-129 856.5,-129"/>
<text text-anchor="middle" x="886" y="-136" font-family="Helvetica,sans-Serif" font-size="10.00">functional</text>
</g>
<!-- Node3&#45;&gt;Node10 -->
<g id="edge9" class="edge"><title>Node3&#45;&gt;Node10</title>
<path fill="none" stroke="midnightblue" d="M336.261,-196.598C451.719,-190.496 745.703,-173.497 842,-154 845.88,-153.214 849.894,-152.195 853.848,-151.061"/>
<polygon fill="midnightblue" stroke="midnightblue" points="854.934,-154.388 863.44,-148.072 852.852,-147.705 854.934,-154.388"/>
</g>
<!-- Node3&#45;&gt;Node11 -->
<g id="edge10" class="edge"><title>Node3&#45;&gt;Node11</title>
<path fill="none" stroke="midnightblue" d="M269.371,-190.475C249.689,-181.927 218.776,-168.501 193.614,-157.573"/>
<polygon fill="midnightblue" stroke="midnightblue" points="194.855,-154.296 184.288,-153.523 192.066,-160.717 194.855,-154.296"/>
</g>
<!-- Node12 -->
<g id="node12" class="node"><title>Node12</title>
<g id="a_node12"><a xlink:href="fmt_8h.html" target="_top" xlink:title="spdlog/fmt/fmt.h">
<polygon fill="none" stroke="black" points="424,-129 424,-148 512,-148 512,-129 424,-129"/>
<text text-anchor="middle" x="468" y="-136" font-family="Helvetica,sans-Serif" font-size="10.00">spdlog/fmt/fmt.h</text>
</a>
</g>
</g>
<!-- Node3&#45;&gt;Node12 -->
<g id="edge12" class="edge"><title>Node3&#45;&gt;Node12</title>
<path fill="none" stroke="midnightblue" d="M314.646,-190.475C345.617,-180.18 397.873,-162.81 432.651,-151.25"/>
<polygon fill="midnightblue" stroke="midnightblue" points="434.016,-154.485 442.401,-148.009 431.808,-147.842 434.016,-154.485"/>
</g>
<!-- Node11&#45;&gt;Node8 -->
<g id="edge11" class="edge"><title>Node11&#45;&gt;Node8</title>
<path fill="none" stroke="midnightblue" d="M175.651,-123.396C194.184,-112.344 219.814,-97.0607 238.14,-86.1319"/>
<polygon fill="midnightblue" stroke="midnightblue" points="239.938,-89.1349 246.734,-81.007 236.353,-83.1227 239.938,-89.1349"/>
</g>
<!-- Node13 -->
<g id="node13" class="node"><title>Node13</title>
<g id="a_node13"><a xlink:href="format_8h.html" target="_top" xlink:title="spdlog/fmt/bundled\l/format.h">
<polygon fill="none" stroke="black" points="412.5,-56.5 412.5,-86.5 511.5,-86.5 511.5,-56.5 412.5,-56.5"/>
<text text-anchor="start" x="420.5" y="-74.5" font-family="Helvetica,sans-Serif" font-size="10.00">spdlog/fmt/bundled</text>
<text text-anchor="middle" x="462" y="-63.5" font-family="Helvetica,sans-Serif" font-size="10.00">/format.h</text>
</a>
</g>
</g>
<!-- Node12&#45;&gt;Node13 -->
<g id="edge13" class="edge"><title>Node12&#45;&gt;Node13</title>
<path fill="none" stroke="midnightblue" d="M467.191,-128.734C466.435,-120.541 465.27,-107.923 464.235,-96.7136"/>
<polygon fill="midnightblue" stroke="midnightblue" points="467.705,-96.2249 463.301,-86.589 460.735,-96.8684 467.705,-96.2249"/>
</g>
<!-- Node13&#45;&gt;Node4 -->
<g id="edge22" class="edge"><title>Node13&#45;&gt;Node4</title>
<path fill="none" stroke="midnightblue" d="M511.765,-62.4756C589.126,-50.0014 735.975,-26.3225 799.932,-16.0096"/>
<polygon fill="midnightblue" stroke="midnightblue" points="800.855,-19.406 810.17,-14.3587 799.741,-12.4953 800.855,-19.406"/>
</g>
<!-- Node13&#45;&gt;Node7 -->
<g id="edge20" class="edge"><title>Node13&#45;&gt;Node7</title>
<path fill="none" stroke="midnightblue" d="M511.668,-66.778C658.947,-55.7414 1090.99,-23.3653 1219.52,-13.7334"/>
<polygon fill="midnightblue" stroke="midnightblue" points="1219.92,-17.2135 1229.63,-12.976 1219.4,-10.2331 1219.92,-17.2135"/>
</g>
<!-- Node14 -->
<g id="node14" class="node"><title>Node14</title>
<polygon fill="none" stroke="#bfbfbf" points="504.5,-0.5 504.5,-19.5 553.5,-19.5 553.5,-0.5 504.5,-0.5"/>
<text text-anchor="middle" x="529" y="-7.5" font-family="Helvetica,sans-Serif" font-size="10.00">cassert</text>
</g>
<!-- Node13&#45;&gt;Node14 -->
<g id="edge14" class="edge"><title>Node13&#45;&gt;Node14</title>
<path fill="none" stroke="midnightblue" d="M477.878,-56.3993C488.015,-47.3967 501.162,-35.7214 511.585,-26.4652"/>
<polygon fill="midnightblue" stroke="midnightblue" points="514.098,-28.915 519.251,-19.6578 509.45,-23.681 514.098,-28.915"/>
</g>
<!-- Node15 -->
<g id="node15" class="node"><title>Node15</title>
<polygon fill="none" stroke="#bfbfbf" points="571.5,-0.5 571.5,-19.5 618.5,-19.5 618.5,-0.5 571.5,-0.5"/>
<text text-anchor="middle" x="595" y="-7.5" font-family="Helvetica,sans-Serif" font-size="10.00">clocale</text>
</g>
<!-- Node13&#45;&gt;Node15 -->
<g id="edge15" class="edge"><title>Node13&#45;&gt;Node15</title>
<path fill="none" stroke="midnightblue" d="M493.519,-56.3993C515.635,-46.5054 544.967,-33.3832 566.406,-23.7919"/>
<polygon fill="midnightblue" stroke="midnightblue" points="567.948,-26.9364 575.647,-19.6578 565.09,-20.5466 567.948,-26.9364"/>
</g>
<!-- Node16 -->
<g id="node16" class="node"><title>Node16</title>
<polygon fill="none" stroke="#bfbfbf" points="176,-0.5 176,-19.5 220,-19.5 220,-0.5 176,-0.5"/>
<text text-anchor="middle" x="198" y="-7.5" font-family="Helvetica,sans-Serif" font-size="10.00">cmath</text>
</g>
<!-- Node13&#45;&gt;Node16 -->
<g id="edge16" class="edge"><title>Node13&#45;&gt;Node16</title>
<path fill="none" stroke="midnightblue" d="M412.225,-60.7496C367.109,-51.6789 298.591,-37.3248 230.362,-20.2178"/>
<polygon fill="midnightblue" stroke="midnightblue" points="230.854,-16.7319 220.301,-17.6741 229.138,-23.5184 230.854,-16.7319"/>
</g>
<!-- Node17 -->
<g id="node17" class="node"><title>Node17</title>
<polygon fill="none" stroke="#bfbfbf" points="636.5,-0.5 636.5,-19.5 679.5,-19.5 679.5,-0.5 636.5,-0.5"/>
<text text-anchor="middle" x="658" y="-7.5" font-family="Helvetica,sans-Serif" font-size="10.00">cstdio</text>
</g>
<!-- Node13&#45;&gt;Node17 -->
<g id="edge17" class="edge"><title>Node13&#45;&gt;Node17</title>
<path fill="none" stroke="midnightblue" d="M508.449,-56.3993C544.916,-45.3291 594.696,-30.2173 626.601,-20.5319"/>
<polygon fill="midnightblue" stroke="midnightblue" points="627.74,-23.8439 636.292,-17.59 625.706,-17.1458 627.74,-23.8439"/>
</g>
<!-- Node18 -->
<g id="node18" class="node"><title>Node18</title>
<polygon fill="none" stroke="#bfbfbf" points="238,-0.5 238,-19.5 284,-19.5 284,-0.5 238,-0.5"/>
<text text-anchor="middle" x="261" y="-7.5" font-family="Helvetica,sans-Serif" font-size="10.00">cstring</text>
</g>
<!-- Node13&#45;&gt;Node18 -->
<g id="edge18" class="edge"><title>Node13&#45;&gt;Node18</title>
<path fill="none" stroke="midnightblue" d="M414.62,-56.4747C377.546,-45.5 326.938,-30.5189 294.114,-20.8023"/>
<polygon fill="midnightblue" stroke="midnightblue" points="294.703,-17.3267 284.121,-17.8442 292.716,-24.0388 294.703,-17.3267"/>
</g>
<!-- Node19 -->
<g id="node19" class="node"><title>Node19</title>
<polygon fill="none" stroke="#bfbfbf" points="302,-0.5 302,-19.5 342,-19.5 342,-0.5 302,-0.5"/>
<text text-anchor="middle" x="322" y="-7.5" font-family="Helvetica,sans-Serif" font-size="10.00">limits</text>
</g>
<!-- Node13&#45;&gt;Node19 -->
<g id="edge19" class="edge"><title>Node13&#45;&gt;Node19</title>
<path fill="none" stroke="midnightblue" d="M428.822,-56.3993C405.437,-46.4608 374.388,-33.2649 351.794,-23.6625"/>
<polygon fill="midnightblue" stroke="midnightblue" points="352.944,-20.3481 342.371,-19.6578 350.206,-26.7904 352.944,-20.3481"/>
</g>
<!-- Node20 -->
<g id="node20" class="node"><title>Node20</title>
<polygon fill="none" stroke="#bfbfbf" points="360.5,-0.5 360.5,-19.5 419.5,-19.5 419.5,-0.5 360.5,-0.5"/>
<text text-anchor="middle" x="390" y="-7.5" font-family="Helvetica,sans-Serif" font-size="10.00">stdexcept</text>
</g>
<!-- Node13&#45;&gt;Node20 -->
<g id="edge21" class="edge"><title>Node13&#45;&gt;Node20</title>
<path fill="none" stroke="midnightblue" d="M444.937,-56.3993C433.935,-47.3076 419.635,-35.4899 408.382,-26.1909"/>
<polygon fill="midnightblue" stroke="midnightblue" points="410.415,-23.33 400.477,-19.6578 405.956,-28.726 410.415,-23.33"/>
</g>
<!-- Node13&#45;&gt;Node21 -->
<g id="edge23" class="edge"><title>Node13&#45;&gt;Node21</title>
<path fill="none" stroke="midnightblue" d="M511.649,-69.0007C640.545,-64.7781 996.316,-51.016 1291,-20 1300.03,-19.0491 1309.79,-17.7173 1318.76,-16.3692"/>
<polygon fill="midnightblue" stroke="midnightblue" points="1319.49,-19.7976 1328.83,-14.8011 1318.41,-12.8809 1319.49,-19.7976"/>
</g>
<!-- Node13&#45;&gt;Node22 -->
<g id="edge24" class="edge"><title>Node13&#45;&gt;Node22</title>
<path fill="none" stroke="midnightblue" d="M412.327,-62.8432C331.318,-50.356 173.127,-25.9717 106.618,-15.7196"/>
<polygon fill="midnightblue" stroke="midnightblue" points="106.808,-12.2076 96.3914,-14.1432 105.741,-19.1259 106.808,-12.2076"/>
</g>
<!-- Node23 -->
<g id="node23" class="node"><title>Node23</title>
<polygon fill="none" stroke="#bfbfbf" points="437.5,-0.5 437.5,-19.5 486.5,-19.5 486.5,-0.5 437.5,-0.5"/>
<text text-anchor="middle" x="462" y="-7.5" font-family="Helvetica,sans-Serif" font-size="10.00">stdint.h</text>
</g>
<!-- Node13&#45;&gt;Node23 -->
<g id="edge25" class="edge"><title>Node13&#45;&gt;Node23</title>
<path fill="none" stroke="midnightblue" d="M462,-56.3993C462,-48.4664 462,-38.458 462,-29.8583"/>
<polygon fill="midnightblue" stroke="midnightblue" points="465.5,-29.6577 462,-19.6578 458.5,-29.6578 465.5,-29.6577"/>
</g>
<!-- Node24&#45;&gt;Node3 -->
<g id="edge27" class="edge"><title>Node24&#45;&gt;Node3</title>
<path fill="none" stroke="midnightblue" d="M740.591,-249.674C647.247,-239.613 445.476,-217.866 346.338,-207.18"/>
<polygon fill="midnightblue" stroke="midnightblue" points="346.525,-203.68 336.207,-206.088 345.775,-210.64 346.525,-203.68"/>
</g>
<!-- Node24&#45;&gt;Node4 -->
<g id="edge31" class="edge"><title>Node24&#45;&gt;Node4</title>
<path fill="none" stroke="midnightblue" d="M839.233,-252.429C869.293,-248.009 905.571,-236.956 925,-210 969.656,-148.043 887.272,-61.5193 849.008,-26.5633"/>
<polygon fill="midnightblue" stroke="midnightblue" points="850.947,-23.602 841.157,-19.5499 846.283,-28.8223 850.947,-23.602"/>
</g>
<!-- Node24&#45;&gt;Node6 -->
<g id="edge32" class="edge"><title>Node24&#45;&gt;Node6</title>
<path fill="none" stroke="midnightblue" d="M839.212,-252.246C875.471,-247.925 924.161,-237.063 958,-210 974.489,-196.812 984.474,-174.262 989.846,-158.218"/>
<polygon fill="midnightblue" stroke="midnightblue" points="993.287,-158.93 992.851,-148.345 986.591,-156.892 993.287,-158.93"/>
</g>
<!-- Node24&#45;&gt;Node10 -->
<g id="edge30" class="edge"><title>Node24&#45;&gt;Node10</title>
<path fill="none" stroke="midnightblue" d="M797.216,-246.319C813.13,-227.172 851.47,-181.044 872.177,-156.131"/>
<polygon fill="midnightblue" stroke="midnightblue" points="875,-158.21 878.701,-148.282 869.617,-153.735 875,-158.21"/>
</g>
<!-- Node24&#45;&gt;Node17 -->
<g id="edge28" class="edge"><title>Node24&#45;&gt;Node17</title>
<path fill="none" stroke="midnightblue" d="M740.928,-255.85C657.852,-256.122 495,-251.226 459,-210 453.153,-203.305 454.565,-197.703 459,-190 474.898,-162.385 496.692,-174.602 521,-154 564.107,-117.464 561.769,-95.6802 602,-56 613.071,-45.081 626.64,-34.1245 637.649,-25.7567"/>
<polygon fill="midnightblue" stroke="midnightblue" points="639.91,-28.4364 645.832,-19.651 635.724,-22.826 639.91,-28.4364"/>
</g>
<!-- Node25 -->
<g id="node25" class="node"><title>Node25</title>
<polygon fill="none" stroke="#bfbfbf" points="1010.5,-190.5 1010.5,-209.5 1051.5,-209.5 1051.5,-190.5 1010.5,-190.5"/>
<text text-anchor="middle" x="1031" y="-197.5" font-family="Helvetica,sans-Serif" font-size="10.00">ctime</text>
</g>
<!-- Node24&#45;&gt;Node25 -->
<g id="edge29" class="edge"><title>Node24&#45;&gt;Node25</title>
<path fill="none" stroke="midnightblue" d="M831.14,-246.476C872.793,-237.737 939.016,-223.546 996,-210 997.45,-209.655 998.932,-209.297 1000.43,-208.931"/>
<polygon fill="midnightblue" stroke="midnightblue" points="1001.45,-212.282 1010.3,-206.456 999.752,-205.492 1001.45,-212.282"/>
</g>
<!-- Node26 -->
<g id="node26" class="node"><title>Node26</title>
<polygon fill="none" stroke="#bfbfbf" points="1070,-190.5 1070,-209.5 1114,-209.5 1114,-190.5 1070,-190.5"/>
<text text-anchor="middle" x="1092" y="-197.5" font-family="Helvetica,sans-Serif" font-size="10.00">thread</text>
</g>
<!-- Node24&#45;&gt;Node26 -->
<g id="edge33" class="edge"><title>Node24&#45;&gt;Node26</title>
<path fill="none" stroke="midnightblue" d="M839.086,-248.461C891.361,-241.131 976.667,-228.124 1059.83,-209.808"/>
<polygon fill="midnightblue" stroke="midnightblue" points="1060.7,-213.2 1069.7,-207.607 1059.18,-206.368 1060.7,-213.2"/>
</g>
<!-- Node27 -->
<g id="node27" class="node"><title>Node27</title>
<polygon fill="none" stroke="#bfbfbf" points="468,-190.5 468,-209.5 514,-209.5 514,-190.5 468,-190.5"/>
<text text-anchor="middle" x="491" y="-197.5" font-family="Helvetica,sans-Serif" font-size="10.00">stdio.h</text>
</g>
<!-- Node24&#45;&gt;Node27 -->
<g id="edge34" class="edge"><title>Node24&#45;&gt;Node27</title>
<path fill="none" stroke="midnightblue" d="M740.973,-248.347C689.285,-240.974 605.333,-227.984 524.221,-210.085"/>
<polygon fill="midnightblue" stroke="midnightblue" points="524.868,-206.643 514.345,-207.878 523.341,-213.475 524.868,-206.643"/>
</g>
<!-- Node28 -->
<g id="node28" class="node"><title>Node28</title>
<polygon fill="none" stroke="#bfbfbf" points="532.5,-190.5 532.5,-209.5 581.5,-209.5 581.5,-190.5 532.5,-190.5"/>
<text text-anchor="middle" x="557" y="-197.5" font-family="Helvetica,sans-Serif" font-size="10.00">string.h</text>
</g>
<!-- Node24&#45;&gt;Node28 -->
<g id="edge35" class="edge"><title>Node24&#45;&gt;Node28</title>
<path fill="none" stroke="midnightblue" d="M750.256,-246.458C712.059,-238.15 652.477,-224.932 591.629,-210.087"/>
<polygon fill="midnightblue" stroke="midnightblue" points="592.402,-206.673 581.856,-207.691 590.735,-213.471 592.402,-206.673"/>
</g>
<!-- Node29 -->
<g id="node29" class="node"><title>Node29</title>
<polygon fill="none" stroke="#bfbfbf" points="600,-190.5 600,-209.5 660,-209.5 660,-190.5 600,-190.5"/>
<text text-anchor="middle" x="630" y="-197.5" font-family="Helvetica,sans-Serif" font-size="10.00">sys/stat.h</text>
</g>
<!-- Node24&#45;&gt;Node29 -->
<g id="edge36" class="edge"><title>Node24&#45;&gt;Node29</title>
<path fill="none" stroke="midnightblue" d="M764.648,-246.444C737.731,-237.359 695.004,-222.939 664.913,-212.783"/>
<polygon fill="midnightblue" stroke="midnightblue" points="665.828,-209.398 655.234,-209.516 663.59,-216.031 665.828,-209.398"/>
</g>
<!-- Node30 -->
<g id="node30" class="node"><title>Node30</title>
<polygon fill="none" stroke="#bfbfbf" points="678,-190.5 678,-209.5 746,-209.5 746,-190.5 678,-190.5"/>
<text text-anchor="middle" x="712" y="-197.5" font-family="Helvetica,sans-Serif" font-size="10.00">sys/types.h</text>
</g>
<!-- Node24&#45;&gt;Node30 -->
<g id="edge37" class="edge"><title>Node24&#45;&gt;Node30</title>
<path fill="none" stroke="midnightblue" d="M777.468,-246.324C765.414,-237.979 746.973,-225.212 732.731,-215.352"/>
<polygon fill="midnightblue" stroke="midnightblue" points="734.715,-212.469 724.501,-209.655 730.731,-218.224 734.715,-212.469"/>
</g>
<!-- Node31 -->
<g id="node31" class="node"><title>Node31</title>
<polygon fill="none" stroke="#bfbfbf" points="764.5,-190.5 764.5,-209.5 815.5,-209.5 815.5,-190.5 764.5,-190.5"/>
<text text-anchor="middle" x="790" y="-197.5" font-family="Helvetica,sans-Serif" font-size="10.00">unistd.h</text>
</g>
<!-- Node24&#45;&gt;Node31 -->
<g id="edge38" class="edge"><title>Node24&#45;&gt;Node31</title>
<path fill="none" stroke="midnightblue" d="M790,-246.083C790,-239.006 790,-228.861 790,-219.986"/>
<polygon fill="midnightblue" stroke="midnightblue" points="793.5,-219.751 790,-209.751 786.5,-219.751 793.5,-219.751"/>
</g>
<!-- Node32 -->
<g id="node32" class="node"><title>Node32</title>
<polygon fill="none" stroke="#bfbfbf" points="872,-190.5 872,-209.5 916,-209.5 916,-190.5 872,-190.5"/>
<text text-anchor="middle" x="894" y="-197.5" font-family="Helvetica,sans-Serif" font-size="10.00">fcntl.h</text>
</g>
<!-- Node24&#45;&gt;Node32 -->
<g id="edge39" class="edge"><title>Node24&#45;&gt;Node32</title>
<path fill="none" stroke="midnightblue" d="M806.709,-246.324C823.312,-237.703 849.002,-224.364 868.22,-214.386"/>
<polygon fill="midnightblue" stroke="midnightblue" points="870.07,-217.369 877.332,-209.655 866.844,-211.156 870.07,-217.369"/>
</g>
<!-- Node33&#45;&gt;Node2 -->
<g id="edge65" class="edge"><title>Node33&#45;&gt;Node2</title>
<path fill="none" stroke="midnightblue" d="M1080.98,-492.45C1060.85,-478.533 1018.62,-451.031 979,-436 743.618,-346.699 669.048,-381.441 422,-333 420.728,-332.751 419.443,-332.492 418.147,-332.227"/>
<polygon fill="midnightblue" stroke="midnightblue" points="418.611,-328.747 408.099,-330.069 417.141,-335.591 418.611,-328.747"/>
</g>
<!-- Node33&#45;&gt;Node3 -->
<g id="edge64" class="edge"><title>Node33&#45;&gt;Node3</title>
<path fill="none" stroke="midnightblue" d="M1029.5,-496.769C860.139,-484.101 403.985,-440.486 307,-333 278.811,-301.759 281.597,-248.254 285.569,-219.909"/>
<polygon fill="midnightblue" stroke="midnightblue" points="289.071,-220.178 287.201,-209.75 282.159,-219.068 289.071,-220.178"/>
</g>
<!-- Node33&#45;&gt;Node34 -->
<g id="edge44" class="edge"><title>Node33&#45;&gt;Node34</title>
<path fill="none" stroke="midnightblue" d="M1065.59,-492.444C1036.23,-483.28 989.481,-468.688 956.904,-458.519"/>
<polygon fill="midnightblue" stroke="midnightblue" points="957.873,-455.155 947.284,-455.516 955.787,-461.837 957.873,-455.155"/>
</g>
<!-- Node35 -->
<g id="node35" class="node"><title>Node35</title>
<g id="a_node35"><a xlink:href="formatter_8h.html" target="_top" xlink:title="spdlog/formatter.h">
<polygon fill="none" stroke="black" points="1072.5,-436.5 1072.5,-455.5 1167.5,-455.5 1167.5,-436.5 1072.5,-436.5"/>
<text text-anchor="middle" x="1120" y="-443.5" font-family="Helvetica,sans-Serif" font-size="10.00">spdlog/formatter.h</text>
</a>
</g>
</g>
<!-- Node33&#45;&gt;Node35 -->
<g id="edge46" class="edge"><title>Node33&#45;&gt;Node35</title>
<path fill="none" stroke="midnightblue" d="M1097.46,-492.083C1101.15,-484.691 1106.52,-473.953 1111.09,-464.811"/>
<polygon fill="midnightblue" stroke="midnightblue" points="1114.28,-466.261 1115.62,-455.751 1108.02,-463.13 1114.28,-466.261"/>
</g>
<!-- Node33&#45;&gt;Node37 -->
<g id="edge66" class="edge"><title>Node33&#45;&gt;Node37</title>
<path fill="none" stroke="midnightblue" d="M1151.96,-492.49C1211.71,-481.044 1303.44,-455.328 1362,-400 1379.96,-383.03 1389.52,-355.503 1394.18,-337.203"/>
<polygon fill="midnightblue" stroke="midnightblue" points="1397.6,-337.939 1396.42,-327.41 1390.78,-336.375 1397.6,-337.939"/>
</g>
<!-- Node34&#45;&gt;Node2 -->
<g id="edge45" class="edge"><title>Node34&#45;&gt;Node2</title>
<path fill="none" stroke="midnightblue" d="M881.209,-436.496C797.335,-418.061 592.876,-372.86 422,-333 420.738,-332.706 419.461,-332.407 418.174,-332.104"/>
<polygon fill="midnightblue" stroke="midnightblue" points="418.708,-328.634 408.17,-329.736 417.095,-335.446 418.708,-328.634"/>
</g>
<!-- Node35&#45;&gt;Node2 -->
<g id="edge47" class="edge"><title>Node35&#45;&gt;Node2</title>
<path fill="none" stroke="midnightblue" d="M1107.7,-436.416C1094.79,-427.393 1073.92,-412.762 1056,-400 1036.81,-386.335 1035.19,-376.918 1013,-369 889.076,-324.782 552.119,-352.53 422,-333 420.718,-332.808 419.424,-332.601 418.121,-332.382"/>
<polygon fill="midnightblue" stroke="midnightblue" points="418.5,-328.892 408.026,-330.49 417.21,-335.772 418.5,-328.892"/>
</g>
<!-- Node35&#45;&gt;Node4 -->
<g id="edge49" class="edge"><title>Node35&#45;&gt;Node4</title>
<path fill="none" stroke="midnightblue" d="M1141.48,-436.36C1156.39,-429.09 1175.11,-417.117 1184,-400 1227.3,-316.631 1199.02,-275.453 1160,-190 1123.69,-110.475 1095.77,-91.7708 1016,-56 964.529,-32.9193 899.471,-20.6135 861.813,-14.9738"/>
<polygon fill="midnightblue" stroke="midnightblue" points="861.897,-11.4501 851.501,-13.4945 860.903,-18.3792 861.897,-11.4501"/>
</g>
<!-- Node35&#45;&gt;Node7 -->
<g id="edge50" class="edge"><title>Node35&#45;&gt;Node7</title>
<path fill="none" stroke="midnightblue" d="M1167.64,-438.569C1211.41,-431.566 1271.62,-418.795 1286,-400 1374.52,-284.288 1293.12,-88.4179 1264.84,-28.7655"/>
<polygon fill="midnightblue" stroke="midnightblue" points="1267.88,-27.0127 1260.37,-19.5406 1261.58,-30.0659 1267.88,-27.0127"/>
</g>
<!-- Node35&#45;&gt;Node21 -->
<g id="edge48" class="edge"><title>Node35&#45;&gt;Node21</title>
<path fill="none" stroke="midnightblue" d="M1167.62,-445.43C1209.33,-443.312 1269.19,-433.883 1308,-400 1364.12,-351 1355.65,-100.507 1352.06,-29.6784"/>
<polygon fill="midnightblue" stroke="midnightblue" points="1355.55,-29.3836 1351.52,-19.5854 1348.56,-29.7584 1355.55,-29.3836"/>
</g>
<!-- Node36 -->
<g id="node36" class="node"><title>Node36</title>
<g id="a_node36"><a xlink:href="pattern__formatter__impl_8h.html" target="_top" xlink:title="spdlog/details/pattern\l_formatter_impl.h">
<polygon fill="none" stroke="black" points="1065,-369.5 1065,-399.5 1175,-399.5 1175,-369.5 1065,-369.5"/>
<text text-anchor="start" x="1073" y="-387.5" font-family="Helvetica,sans-Serif" font-size="10.00">spdlog/details/pattern</text>
<text text-anchor="middle" x="1120" y="-376.5" font-family="Helvetica,sans-Serif" font-size="10.00">_formatter_impl.h</text>
</a>
</g>
</g>
<!-- Node35&#45;&gt;Node36 -->
<g id="edge51" class="edge"><title>Node35&#45;&gt;Node36</title>
<path fill="none" stroke="midnightblue" d="M1115.1,-436.475C1113.57,-429.471 1112.99,-419.192 1113.36,-409.696"/>
<polygon fill="midnightblue" stroke="midnightblue" points="1116.86,-409.77 1114.17,-399.523 1109.88,-409.212 1116.86,-409.77"/>
</g>
<!-- Node36&#45;&gt;Node2 -->
<g id="edge53" class="edge"><title>Node36&#45;&gt;Node2</title>
<path fill="none" stroke="midnightblue" d="M1064.76,-371.131C1060.12,-370.324 1055.49,-369.597 1051,-369 773.428,-332.104 698.987,-374.054 422,-333 420.718,-332.81 419.423,-332.606 418.12,-332.389"/>
<polygon fill="midnightblue" stroke="midnightblue" points="418.495,-328.898 408.023,-330.507 417.213,-335.78 418.495,-328.898"/>
</g>
<!-- Node36&#45;&gt;Node4 -->
<g id="edge60" class="edge"><title>Node36&#45;&gt;Node4</title>
<path fill="none" stroke="midnightblue" d="M1128.96,-369.103C1134.5,-359.326 1141.1,-345.878 1144,-333 1157.98,-270.996 1174.65,-244.534 1142,-190 1078.64,-84.1808 927.279,-34.9774 861.922,-18.1096"/>
<polygon fill="midnightblue" stroke="midnightblue" points="862.386,-14.6181 851.836,-15.5889 860.689,-21.4092 862.386,-14.6181"/>
</g>
<!-- Node36&#45;&gt;Node6 -->
<g id="edge56" class="edge"><title>Node36&#45;&gt;Node6</title>
<path fill="none" stroke="midnightblue" d="M1125.27,-369.303C1137,-335.02 1161.37,-246.387 1123,-190 1101.9,-158.994 1058.54,-147.025 1028.16,-142.405"/>
<polygon fill="midnightblue" stroke="midnightblue" points="1028.39,-138.904 1018.01,-141.058 1027.47,-145.843 1028.39,-138.904"/>
</g>
<!-- Node36&#45;&gt;Node7 -->
<g id="edge58" class="edge"><title>Node36&#45;&gt;Node7</title>
<path fill="none" stroke="midnightblue" d="M1139.15,-369.325C1150.28,-360.134 1163.7,-347.244 1172,-333 1232.57,-229.047 1250.18,-81.1392 1254.65,-29.5791"/>
<polygon fill="midnightblue" stroke="midnightblue" points="1258.14,-29.8421 1255.44,-19.5946 1251.16,-29.2833 1258.14,-29.8421"/>
</g>
<!-- Node36&#45;&gt;Node12 -->
<g id="edge55" class="edge"><title>Node36&#45;&gt;Node12</title>
<path fill="none" stroke="midnightblue" d="M1064.73,-370.449C1022.77,-360.451 963.671,-346.179 912,-333 706.938,-280.698 580.874,-377.861 452,-210 440.338,-194.81 448.261,-172.684 456.566,-157.285"/>
<polygon fill="midnightblue" stroke="midnightblue" points="459.813,-158.669 461.877,-148.277 453.783,-155.114 459.813,-158.669"/>
</g>
<!-- Node36&#45;&gt;Node21 -->
<g id="edge63" class="edge"><title>Node36&#45;&gt;Node21</title>
<path fill="none" stroke="midnightblue" d="M1147.59,-369.338C1162.77,-360.489 1181.08,-347.944 1194,-333 1279.07,-234.591 1329.93,-82.049 1345.7,-29.5158"/>
<polygon fill="midnightblue" stroke="midnightblue" points="1349.14,-30.2091 1348.6,-19.6281 1342.43,-28.2368 1349.14,-30.2091"/>
</g>
<!-- Node36&#45;&gt;Node22 -->
<g id="edge62" class="edge"><title>Node36&#45;&gt;Node22</title>
<path fill="none" stroke="midnightblue" d="M1064.69,-371.501C1059.4,-370.566 1054.11,-369.711 1049,-369 837.547,-339.582 778.688,-378.023 570,-333 459.735,-309.211 164.045,-243.203 95,-154 66.7159,-117.458 69.3327,-59.3079 73.0002,-29.6789"/>
<polygon fill="midnightblue" stroke="midnightblue" points="76.5042,-29.8978 74.4464,-19.5047 69.5738,-28.9126 76.5042,-29.8978"/>
</g>
<!-- Node36&#45;&gt;Node24 -->
<g id="edge54" class="edge"><title>Node36&#45;&gt;Node24</title>
<path fill="none" stroke="midnightblue" d="M1083.42,-369.479C1018.41,-344.556 883.773,-292.946 822.109,-269.309"/>
<polygon fill="midnightblue" stroke="midnightblue" points="823.104,-265.942 812.514,-265.63 820.599,-272.478 823.104,-265.942"/>
</g>
<!-- Node36&#45;&gt;Node25 -->
<g id="edge57" class="edge"><title>Node36&#45;&gt;Node25</title>
<path fill="none" stroke="midnightblue" d="M1113.16,-369.483C1097.23,-336.817 1057.65,-255.647 1039.88,-219.211"/>
<polygon fill="midnightblue" stroke="midnightblue" points="1042.83,-217.273 1035.3,-209.819 1036.54,-220.341 1042.83,-217.273"/>
</g>
<!-- Node36&#45;&gt;Node26 -->
<g id="edge61" class="edge"><title>Node36&#45;&gt;Node26</title>
<path fill="none" stroke="midnightblue" d="M1115.45,-369.498C1112.34,-359.443 1108.38,-345.513 1106,-333 1098.42,-293.147 1094.64,-245.685 1093.02,-219.925"/>
<polygon fill="midnightblue" stroke="midnightblue" points="1096.51,-219.5 1092.43,-209.721 1089.52,-219.909 1096.51,-219.5"/>
</g>
<!-- Node36&#45;&gt;Node35 -->
<g id="edge52" class="edge"><title>Node36&#45;&gt;Node35</title>
<path fill="none" stroke="midnightblue" d="M1125.83,-399.523C1126.87,-407.586 1127.03,-417.813 1126.3,-426.526"/>
<polygon fill="midnightblue" stroke="midnightblue" points="1122.83,-426.085 1124.9,-436.475 1129.76,-427.06 1122.83,-426.085"/>
</g>
<!-- Node36&#45;&gt;Node37 -->
<g id="edge59" class="edge"><title>Node36&#45;&gt;Node37</title>
<path fill="none" stroke="midnightblue" d="M1175.26,-370.58C1232.37,-357.225 1319.57,-336.838 1366.11,-325.956"/>
<polygon fill="midnightblue" stroke="midnightblue" points="1367,-329.342 1375.94,-323.657 1365.41,-322.526 1367,-329.342"/>
</g>
</g>
</svg>
