<?xml version="1.0" encoding="UTF-8" standalone="no"?>
<!DOCTYPE svg PUBLIC "-//W3C//DTD SVG 1.1//EN"
 "http://www.w3.org/Graphics/SVG/1.1/DTD/svg11.dtd">
<!-- Generated by graphviz version 2.38.0 (20140413.2041)
 -->
<!-- Title: /home/lucamuratore/advr&#45;superbuild/external/XBotInterface/include/spdlog/sinks/file_sinks.h Pages: 1 -->
<svg width="1703pt" height="609pt"
 viewBox="0.00 0.00 1703.00 609.00" xmlns="http://www.w3.org/2000/svg" xmlns:xlink="http://www.w3.org/1999/xlink">
<g id="graph0" class="graph" transform="scale(1 1) rotate(0) translate(4 605)">
<title>/home/lucamuratore/advr&#45;superbuild/external/XBotInterface/include/spdlog/sinks/file_sinks.h</title>
<!-- Node1 -->
<g id="node1" class="node"><title>Node1</title>
<polygon fill="#bfbfbf" stroke="black" points="1304.5,-548.5 1304.5,-600.5 1449.5,-600.5 1449.5,-548.5 1304.5,-548.5"/>
<text text-anchor="start" x="1312.5" y="-588.5" font-family="Helvetica,sans-Serif" font-size="10.00">/home/lucamuratore</text>
<text text-anchor="start" x="1312.5" y="-577.5" font-family="Helvetica,sans-Serif" font-size="10.00">/advr&#45;superbuild/external</text>
<text text-anchor="start" x="1312.5" y="-566.5" font-family="Helvetica,sans-Serif" font-size="10.00">/XBotInterface/include/spdlog</text>
<text text-anchor="middle" x="1377" y="-555.5" font-family="Helvetica,sans-Serif" font-size="10.00">/sinks/file_sinks.h</text>
</g>
<!-- Node2 -->
<g id="node2" class="node"><title>Node2</title>
<g id="a_node2"><a xlink:href="base__sink_8h.html" target="_top" xlink:title="spdlog/sinks/base_sink.h">
<polygon fill="none" stroke="black" points="506.5,-492.5 506.5,-511.5 633.5,-511.5 633.5,-492.5 506.5,-492.5"/>
<text text-anchor="middle" x="570" y="-499.5" font-family="Helvetica,sans-Serif" font-size="10.00">spdlog/sinks/base_sink.h</text>
</a>
</g>
</g>
<!-- Node1&#45;&gt;Node2 -->
<g id="edge1" class="edge"><title>Node1&#45;&gt;Node2</title>
<path fill="none" stroke="midnightblue" d="M1304.32,-567.15C1151.41,-553.792 797.889,-522.909 643.91,-509.457"/>
<polygon fill="midnightblue" stroke="midnightblue" points="643.884,-505.941 633.617,-508.558 643.274,-512.915 643.884,-505.941"/>
</g>
<!-- Node6 -->
<g id="node6" class="node"><title>Node6</title>
<polygon fill="none" stroke="#bfbfbf" points="996.5,-0.5 996.5,-19.5 1037.5,-19.5 1037.5,-0.5 996.5,-0.5"/>
<text text-anchor="middle" x="1017" y="-7.5" font-family="Helvetica,sans-Serif" font-size="10.00">string</text>
</g>
<!-- Node1&#45;&gt;Node6 -->
<g id="edge80" class="edge"><title>Node1&#45;&gt;Node6</title>
<path fill="none" stroke="midnightblue" d="M1449.7,-557.726C1505.48,-540.848 1573,-507.851 1573,-447 1573,-447 1573,-447 1573,-137.5 1573,-28.9026 1164.61,-13.5334 1047.84,-11.3585"/>
<polygon fill="midnightblue" stroke="midnightblue" points="1047.84,-7.85797 1037.78,-11.1909 1047.72,-14.857 1047.84,-7.85797"/>
</g>
<!-- Node8 -->
<g id="node8" class="node"><title>Node8</title>
<polygon fill="none" stroke="#bfbfbf" points="900,-129 900,-148 946,-148 946,-129 900,-129"/>
<text text-anchor="middle" x="923" y="-136" font-family="Helvetica,sans-Serif" font-size="10.00">chrono</text>
</g>
<!-- Node1&#45;&gt;Node8 -->
<g id="edge76" class="edge"><title>Node1&#45;&gt;Node8</title>
<path fill="none" stroke="midnightblue" d="M1393.37,-548.483C1407.95,-523.753 1427,-484.312 1427,-447 1427,-447 1427,-447 1427,-383.5 1427,-272.753 1372.1,-232.901 1270,-190 1140.09,-135.415 1090.82,-191.534 955,-154 952.851,-153.406 950.662,-152.686 948.49,-151.888"/>
<polygon fill="midnightblue" stroke="midnightblue" points="949.819,-148.65 939.241,-148.039 947.129,-155.113 949.819,-148.65"/>
</g>
<!-- Node13 -->
<g id="node13" class="node"><title>Node13</title>
<g id="a_node13"><a xlink:href="null__mutex_8h.html" target="_top" xlink:title="spdlog/details/null\l_mutex.h">
<polygon fill="none" stroke="black" points="964.5,-123.5 964.5,-153.5 1059.5,-153.5 1059.5,-123.5 964.5,-123.5"/>
<text text-anchor="start" x="972.5" y="-141.5" font-family="Helvetica,sans-Serif" font-size="10.00">spdlog/details/null</text>
<text text-anchor="middle" x="1012" y="-130.5" font-family="Helvetica,sans-Serif" font-size="10.00">_mutex.h</text>
</a>
</g>
</g>
<!-- Node1&#45;&gt;Node13 -->
<g id="edge65" class="edge"><title>Node1&#45;&gt;Node13</title>
<path fill="none" stroke="midnightblue" d="M1408.61,-548.385C1420.02,-538.074 1432.22,-525.409 1441,-512 1457.86,-486.233 1465,-477.795 1465,-447 1465,-447 1465,-447 1465,-383.5 1465,-292.344 1474.59,-237.841 1397,-190 1343.49,-157.007 1163.6,-145.283 1069.88,-141.35"/>
<polygon fill="midnightblue" stroke="midnightblue" points="1069.84,-137.846 1059.71,-140.94 1069.56,-144.84 1069.84,-137.846"/>
</g>
<!-- Node14 -->
<g id="node14" class="node"><title>Node14</title>
<g id="a_node14"><a xlink:href="fmt_8h.html" target="_top" xlink:title="spdlog/fmt/fmt.h">
<polygon fill="none" stroke="black" points="225,-129 225,-148 313,-148 313,-129 225,-129"/>
<text text-anchor="middle" x="269" y="-136" font-family="Helvetica,sans-Serif" font-size="10.00">spdlog/fmt/fmt.h</text>
</a>
</g>
</g>
<!-- Node1&#45;&gt;Node14 -->
<g id="edge74" class="edge"><title>Node1&#45;&gt;Node14</title>
<path fill="none" stroke="midnightblue" d="M1304.31,-571.249C1102.17,-564.655 536.26,-543.815 353,-512 265.421,-496.796 236.856,-502.336 161,-456 94.1001,-415.135 41.8387,-373.035 75,-302 109.542,-228.007 196.187,-175.8 241.071,-152.747"/>
<polygon fill="midnightblue" stroke="midnightblue" points="242.872,-155.759 250.24,-148.146 239.732,-149.503 242.872,-155.759"/>
</g>
<!-- Node19 -->
<g id="node19" class="node"><title>Node19</title>
<polygon fill="none" stroke="#bfbfbf" points="1458.5,-0.5 1458.5,-19.5 1501.5,-19.5 1501.5,-0.5 1458.5,-0.5"/>
<text text-anchor="middle" x="1480" y="-7.5" font-family="Helvetica,sans-Serif" font-size="10.00">cstdio</text>
</g>
<!-- Node1&#45;&gt;Node19 -->
<g id="edge77" class="edge"><title>Node1&#45;&gt;Node19</title>
<path fill="none" stroke="midnightblue" d="M1449.52,-568.541C1494.2,-561.902 1549.86,-546.672 1587,-512 1609.51,-490.986 1611,-477.795 1611,-447 1611,-447 1611,-447 1611,-137.5 1611,-99.7399 1612.17,-84.1495 1587,-56 1567.46,-34.1453 1535.58,-22.5976 1511.69,-16.7"/>
<polygon fill="midnightblue" stroke="midnightblue" points="1512.2,-13.2273 1501.67,-14.4379 1510.65,-20.0553 1512.2,-13.2273"/>
</g>
<!-- Node27 -->
<g id="node27" class="node"><title>Node27</title>
<polygon fill="none" stroke="#bfbfbf" points="633.5,-190.5 633.5,-209.5 674.5,-209.5 674.5,-190.5 633.5,-190.5"/>
<text text-anchor="middle" x="654" y="-197.5" font-family="Helvetica,sans-Serif" font-size="10.00">ctime</text>
</g>
<!-- Node1&#45;&gt;Node27 -->
<g id="edge78" class="edge"><title>Node1&#45;&gt;Node27</title>
<path fill="none" stroke="midnightblue" d="M1304.44,-572.028C1154,-567.005 822,-544.837 822,-447 822,-447 822,-447 822,-383.5 822,-346.306 824.064,-332.654 803,-302 773.279,-258.749 718.439,-228.782 684.221,-213.281"/>
<polygon fill="midnightblue" stroke="midnightblue" points="685.298,-209.931 674.735,-209.114 682.483,-216.34 685.298,-209.931"/>
</g>
<!-- Node37 -->
<g id="node37" class="node"><title>Node37</title>
<polygon fill="none" stroke="#bfbfbf" points="84,-308 84,-327 128,-327 128,-308 84,-308"/>
<text text-anchor="middle" x="106" y="-315" font-family="Helvetica,sans-Serif" font-size="10.00">mutex</text>
</g>
<!-- Node1&#45;&gt;Node37 -->
<g id="edge79" class="edge"><title>Node1&#45;&gt;Node37</title>
<path fill="none" stroke="midnightblue" d="M1304.24,-571.351C1081.86,-563.972 414.125,-535.582 214,-456 170.573,-438.731 152.12,-438.06 125,-400 111.79,-381.461 107.633,-355.087 106.396,-337.412"/>
<polygon fill="midnightblue" stroke="midnightblue" points="109.883,-337.057 105.938,-327.224 102.89,-337.37 109.883,-337.057"/>
</g>
<!-- Node38 -->
<g id="node38" class="node"><title>Node38</title>
<g id="a_node38"><a xlink:href="file__helper_8h.html" target="_top" xlink:title="spdlog/details/file\l_helper.h">
<polygon fill="none" stroke="black" points="1224,-369.5 1224,-399.5 1316,-399.5 1316,-369.5 1224,-369.5"/>
<text text-anchor="start" x="1232" y="-387.5" font-family="Helvetica,sans-Serif" font-size="10.00">spdlog/details/file</text>
<text text-anchor="middle" x="1270" y="-376.5" font-family="Helvetica,sans-Serif" font-size="10.00">_helper.h</text>
</a>
</g>
</g>
<!-- Node1&#45;&gt;Node38 -->
<g id="edge66" class="edge"><title>Node1&#45;&gt;Node38</title>
<path fill="none" stroke="midnightblue" d="M1362.57,-548.145C1341.71,-511.5 1303.44,-444.251 1283.26,-408.794"/>
<polygon fill="midnightblue" stroke="midnightblue" points="1286.06,-406.648 1278.08,-399.688 1279.98,-410.111 1286.06,-406.648"/>
</g>
<!-- Node39 -->
<g id="node39" class="node"><title>Node39</title>
<polygon fill="none" stroke="#bfbfbf" points="1355,-308 1355,-327 1399,-327 1399,-308 1355,-308"/>
<text text-anchor="middle" x="1377" y="-315" font-family="Helvetica,sans-Serif" font-size="10.00">cerrno</text>
</g>
<!-- Node1&#45;&gt;Node39 -->
<g id="edge81" class="edge"><title>Node1&#45;&gt;Node39</title>
<path fill="none" stroke="midnightblue" d="M1377,-548.117C1377,-496.895 1377,-382.215 1377,-337.172"/>
<polygon fill="midnightblue" stroke="midnightblue" points="1380.5,-337.08 1377,-327.08 1373.5,-337.08 1380.5,-337.08"/>
</g>
<!-- Node40 -->
<g id="node40" class="node"><title>Node40</title>
<polygon fill="none" stroke="#bfbfbf" points="1639,-492.5 1639,-511.5 1695,-511.5 1695,-492.5 1639,-492.5"/>
<text text-anchor="middle" x="1667" y="-499.5" font-family="Helvetica,sans-Serif" font-size="10.00">algorithm</text>
</g>
<!-- Node1&#45;&gt;Node40 -->
<g id="edge75" class="edge"><title>Node1&#45;&gt;Node40</title>
<path fill="none" stroke="midnightblue" d="M1449.8,-555.801C1506.74,-541.96 1583.61,-523.272 1628.98,-512.242"/>
<polygon fill="midnightblue" stroke="midnightblue" points="1629.82,-515.64 1638.71,-509.877 1628.17,-508.838 1629.82,-515.64"/>
</g>
<!-- Node3 -->
<g id="node3" class="node"><title>Node3</title>
<g id="a_node3"><a xlink:href="sink_8h.html" target="_top" xlink:title="spdlog/sinks/sink.h">
<polygon fill="none" stroke="black" points="567.5,-436.5 567.5,-455.5 668.5,-455.5 668.5,-436.5 567.5,-436.5"/>
<text text-anchor="middle" x="618" y="-443.5" font-family="Helvetica,sans-Serif" font-size="10.00">spdlog/sinks/sink.h</text>
</a>
</g>
</g>
<!-- Node2&#45;&gt;Node3 -->
<g id="edge2" class="edge"><title>Node2&#45;&gt;Node3</title>
<path fill="none" stroke="midnightblue" d="M577.926,-492.083C584.846,-484.298 595.065,-472.801 603.452,-463.367"/>
<polygon fill="midnightblue" stroke="midnightblue" points="606.194,-465.55 610.221,-455.751 600.962,-460.9 606.194,-465.55"/>
</g>
<!-- Node4 -->
<g id="node4" class="node"><title>Node4</title>
<g id="a_node4"><a xlink:href="log__msg_8h.html" target="_top" xlink:title="spdlog/details/log\l_msg.h">
<polygon fill="none" stroke="black" points="702,-302.5 702,-332.5 794,-332.5 794,-302.5 702,-302.5"/>
<text text-anchor="start" x="710" y="-320.5" font-family="Helvetica,sans-Serif" font-size="10.00">spdlog/details/log</text>
<text text-anchor="middle" x="748" y="-309.5" font-family="Helvetica,sans-Serif" font-size="10.00">_msg.h</text>
</a>
</g>
</g>
<!-- Node2&#45;&gt;Node4 -->
<g id="edge63" class="edge"><title>Node2&#45;&gt;Node4</title>
<path fill="none" stroke="midnightblue" d="M606.483,-492.494C628.995,-485.715 657.244,-474.262 677,-456 711.237,-424.352 731.683,-372.426 741.302,-342.258"/>
<polygon fill="midnightblue" stroke="midnightblue" points="744.69,-343.149 744.258,-332.563 737.994,-341.108 744.69,-343.149"/>
</g>
<!-- Node5 -->
<g id="node5" class="node"><title>Node5</title>
<g id="a_node5"><a xlink:href="common_8h.html" target="_top" xlink:title="spdlog/common.h">
<polygon fill="none" stroke="black" points="483,-190.5 483,-209.5 577,-209.5 577,-190.5 483,-190.5"/>
<text text-anchor="middle" x="530" y="-197.5" font-family="Helvetica,sans-Serif" font-size="10.00">spdlog/common.h</text>
</a>
</g>
</g>
<!-- Node2&#45;&gt;Node5 -->
<g id="edge62" class="edge"><title>Node2&#45;&gt;Node5</title>
<path fill="none" stroke="midnightblue" d="M563.527,-492.24C550.425,-473.615 522,-428.278 522,-385.5 522,-385.5 522,-385.5 522,-316.5 522,-282.282 525.538,-242.497 527.908,-219.682"/>
<polygon fill="midnightblue" stroke="midnightblue" points="531.394,-219.997 528.987,-209.679 524.435,-219.246 531.394,-219.997"/>
</g>
<!-- Node35 -->
<g id="node35" class="node"><title>Node35</title>
<g id="a_node35"><a xlink:href="formatter_8h.html" target="_top" xlink:title="spdlog/formatter.h">
<polygon fill="none" stroke="black" points="331.5,-436.5 331.5,-455.5 426.5,-455.5 426.5,-436.5 331.5,-436.5"/>
<text text-anchor="middle" x="379" y="-443.5" font-family="Helvetica,sans-Serif" font-size="10.00">spdlog/formatter.h</text>
</a>
</g>
</g>
<!-- Node2&#45;&gt;Node35 -->
<g id="edge44" class="edge"><title>Node2&#45;&gt;Node35</title>
<path fill="none" stroke="midnightblue" d="M539.735,-492.444C507.045,-483.201 454.818,-468.436 418.817,-458.257"/>
<polygon fill="midnightblue" stroke="midnightblue" points="419.698,-454.869 409.123,-455.516 417.794,-461.605 419.698,-454.869"/>
</g>
<!-- Node2&#45;&gt;Node37 -->
<g id="edge64" class="edge"><title>Node2&#45;&gt;Node37</title>
<path fill="none" stroke="midnightblue" d="M506.19,-501.589C417.902,-499.139 257.776,-482.52 155,-400 134.133,-383.246 120.047,-355.035 112.52,-336.592"/>
<polygon fill="midnightblue" stroke="midnightblue" points="115.785,-335.33 108.928,-327.254 109.251,-337.844 115.785,-335.33"/>
</g>
<!-- Node3&#45;&gt;Node4 -->
<g id="edge3" class="edge"><title>Node3&#45;&gt;Node4</title>
<path fill="none" stroke="midnightblue" d="M626.935,-436.305C647.156,-416.629 696.919,-368.206 725.96,-339.946"/>
<polygon fill="midnightblue" stroke="midnightblue" points="728.488,-342.37 733.214,-332.888 723.606,-337.354 728.488,-342.37"/>
</g>
<!-- Node4&#45;&gt;Node5 -->
<g id="edge4" class="edge"><title>Node4&#45;&gt;Node5</title>
<path fill="none" stroke="midnightblue" d="M721.269,-302.337C678.761,-279.816 596.343,-236.15 554.969,-214.229"/>
<polygon fill="midnightblue" stroke="midnightblue" points="556.56,-211.111 546.085,-209.522 553.283,-217.297 556.56,-211.111"/>
</g>
<!-- Node4&#45;&gt;Node6 -->
<g id="edge42" class="edge"><title>Node4&#45;&gt;Node6</title>
<path fill="none" stroke="midnightblue" d="M794.332,-314.271C910.647,-307.61 1209.96,-283.522 1270,-210 1320.28,-148.421 1250.11,-91.5504 1179,-56 1136,-34.5049 1081.29,-22.0432 1047.72,-15.8877"/>
<polygon fill="midnightblue" stroke="midnightblue" points="1048.07,-12.3943 1037.61,-14.1073 1046.85,-19.2882 1048.07,-12.3943"/>
</g>
<!-- Node24 -->
<g id="node24" class="node"><title>Node24</title>
<polygon fill="none" stroke="#bfbfbf" points="593,-0.5 593,-19.5 633,-19.5 633,-0.5 593,-0.5"/>
<text text-anchor="middle" x="613" y="-7.5" font-family="Helvetica,sans-Serif" font-size="10.00">utility</text>
</g>
<!-- Node4&#45;&gt;Node24 -->
<g id="edge43" class="edge"><title>Node4&#45;&gt;Node24</title>
<path fill="none" stroke="midnightblue" d="M701.896,-308.232C619.384,-292.113 455,-253.422 455,-201 455,-201 455,-201 455,-137.5 455,-103.792 543.739,-49.5598 588.211,-24.4979"/>
<polygon fill="midnightblue" stroke="midnightblue" points="589.949,-27.536 596.981,-19.6107 586.542,-21.4213 589.949,-27.536"/>
</g>
<!-- Node26 -->
<g id="node26" class="node"><title>Node26</title>
<g id="a_node26"><a xlink:href="os_8h.html" target="_top" xlink:title="spdlog/details/os.h">
<polygon fill="none" stroke="black" points="888,-246.5 888,-265.5 986,-265.5 986,-246.5 888,-246.5"/>
<text text-anchor="middle" x="937" y="-253.5" font-family="Helvetica,sans-Serif" font-size="10.00">spdlog/details/os.h</text>
</a>
</g>
</g>
<!-- Node4&#45;&gt;Node26 -->
<g id="edge28" class="edge"><title>Node4&#45;&gt;Node26</title>
<path fill="none" stroke="midnightblue" d="M792.79,-302.399C825.449,-292.118 869.18,-278.351 899.893,-268.682"/>
<polygon fill="midnightblue" stroke="midnightblue" points="901.287,-271.912 909.775,-265.571 899.185,-265.235 901.287,-271.912"/>
</g>
<!-- Node5&#45;&gt;Node6 -->
<g id="edge5" class="edge"><title>Node5&#45;&gt;Node6</title>
<path fill="none" stroke="midnightblue" d="M568.593,-190.461C606.811,-181.475 662.133,-166.875 680,-154 723.218,-122.859 703.92,-84.3788 749,-56 788.077,-31.3998 924.086,-18.1099 985.944,-13.2168"/>
<polygon fill="midnightblue" stroke="midnightblue" points="986.545,-16.681 996.248,-12.4256 986.009,-9.70158 986.545,-16.681"/>
</g>
<!-- Node7 -->
<g id="node7" class="node"><title>Node7</title>
<polygon fill="none" stroke="#bfbfbf" points="521.5,-129 521.5,-148 594.5,-148 594.5,-129 521.5,-129"/>
<text text-anchor="middle" x="558" y="-136" font-family="Helvetica,sans-Serif" font-size="10.00">initializer_list</text>
</g>
<!-- Node5&#45;&gt;Node7 -->
<g id="edge6" class="edge"><title>Node5&#45;&gt;Node7</title>
<path fill="none" stroke="midnightblue" d="M534.012,-190.475C538.087,-181.815 544.518,-168.149 549.696,-157.145"/>
<polygon fill="midnightblue" stroke="midnightblue" points="552.905,-158.548 553.996,-148.009 546.571,-155.567 552.905,-158.548"/>
</g>
<!-- Node5&#45;&gt;Node8 -->
<g id="edge7" class="edge"><title>Node5&#45;&gt;Node8</title>
<path fill="none" stroke="midnightblue" d="M577.273,-191.912C581.909,-191.251 586.545,-190.603 591,-190 720.578,-172.456 755.84,-184.474 883,-154 886.062,-153.266 889.213,-152.375 892.339,-151.399"/>
<polygon fill="midnightblue" stroke="midnightblue" points="893.756,-154.614 902.097,-148.081 891.503,-147.986 893.756,-154.614"/>
</g>
<!-- Node9 -->
<g id="node9" class="node"><title>Node9</title>
<polygon fill="none" stroke="#bfbfbf" points="62,-0.5 62,-19.5 114,-19.5 114,-0.5 62,-0.5"/>
<text text-anchor="middle" x="88" y="-7.5" font-family="Helvetica,sans-Serif" font-size="10.00">memory</text>
</g>
<!-- Node5&#45;&gt;Node9 -->
<g id="edge8" class="edge"><title>Node5&#45;&gt;Node9</title>
<path fill="none" stroke="midnightblue" d="M505.575,-190.406C445.173,-169.008 290.198,-113.191 242,-87 221.299,-75.7511 219.62,-67.3962 199,-56 174.744,-42.5943 145.659,-30.9502 123.347,-22.867"/>
<polygon fill="midnightblue" stroke="midnightblue" points="124.519,-19.5691 113.924,-19.5182 122.175,-26.1649 124.519,-19.5691"/>
</g>
<!-- Node10 -->
<g id="node10" class="node"><title>Node10</title>
<polygon fill="none" stroke="#bfbfbf" points="758,-62 758,-81 804,-81 804,-62 758,-62"/>
<text text-anchor="middle" x="781" y="-69" font-family="Helvetica,sans-Serif" font-size="10.00">atomic</text>
</g>
<!-- Node5&#45;&gt;Node10 -->
<g id="edge9" class="edge"><title>Node5&#45;&gt;Node10</title>
<path fill="none" stroke="midnightblue" d="M577.123,-191.191C635.292,-181.208 728.152,-164.02 741,-154 761.156,-138.281 771.827,-109.772 776.942,-90.9846"/>
<polygon fill="midnightblue" stroke="midnightblue" points="780.355,-91.763 779.341,-81.2168 773.557,-90.0934 780.355,-91.763"/>
</g>
<!-- Node11 -->
<g id="node11" class="node"><title>Node11</title>
<polygon fill="none" stroke="#bfbfbf" points="612.5,-129 612.5,-148 671.5,-148 671.5,-129 612.5,-129"/>
<text text-anchor="middle" x="642" y="-136" font-family="Helvetica,sans-Serif" font-size="10.00">exception</text>
</g>
<!-- Node5&#45;&gt;Node11 -->
<g id="edge10" class="edge"><title>Node5&#45;&gt;Node11</title>
<path fill="none" stroke="midnightblue" d="M546.047,-190.475C564.593,-180.622 595.34,-164.288 617.022,-152.77"/>
<polygon fill="midnightblue" stroke="midnightblue" points="618.794,-155.792 625.983,-148.009 615.51,-149.61 618.794,-155.792"/>
</g>
<!-- Node12 -->
<g id="node12" class="node"><title>Node12</title>
<polygon fill="none" stroke="#bfbfbf" points="815.5,-129 815.5,-148 874.5,-148 874.5,-129 815.5,-129"/>
<text text-anchor="middle" x="845" y="-136" font-family="Helvetica,sans-Serif" font-size="10.00">functional</text>
</g>
<!-- Node5&#45;&gt;Node12 -->
<g id="edge11" class="edge"><title>Node5&#45;&gt;Node12</title>
<path fill="none" stroke="midnightblue" d="M577.091,-191.793C628.778,-183.641 714.111,-169.472 787,-154 792.919,-152.744 799.15,-151.308 805.244,-149.839"/>
<polygon fill="midnightblue" stroke="midnightblue" points="806.419,-153.154 815.291,-147.362 804.744,-146.357 806.419,-153.154"/>
</g>
<!-- Node5&#45;&gt;Node13 -->
<g id="edge12" class="edge"><title>Node5&#45;&gt;Node13</title>
<path fill="none" stroke="midnightblue" d="M577.257,-194.383C674.188,-184.862 891.067,-163.269 954.266,-153.806"/>
<polygon fill="midnightblue" stroke="midnightblue" points="954.907,-157.248 964.215,-152.186 953.782,-150.339 954.907,-157.248"/>
</g>
<!-- Node5&#45;&gt;Node14 -->
<g id="edge14" class="edge"><title>Node5&#45;&gt;Node14</title>
<path fill="none" stroke="midnightblue" d="M489.87,-190.436C448.867,-181.609 383.392,-167.297 327,-154 322.261,-152.883 317.312,-151.688 312.388,-150.482"/>
<polygon fill="midnightblue" stroke="midnightblue" points="312.941,-147.013 302.393,-148.011 311.261,-153.809 312.941,-147.013"/>
</g>
<!-- Node13&#45;&gt;Node10 -->
<g id="edge13" class="edge"><title>Node13&#45;&gt;Node10</title>
<path fill="none" stroke="midnightblue" d="M964.417,-124.111C919.462,-111.461 853.219,-92.8212 813.859,-81.7459"/>
<polygon fill="midnightblue" stroke="midnightblue" points="814.797,-78.3741 804.223,-79.0345 812.901,-85.1124 814.797,-78.3741"/>
</g>
<!-- Node15 -->
<g id="node15" class="node"><title>Node15</title>
<g id="a_node15"><a xlink:href="format_8h.html" target="_top" xlink:title="spdlog/fmt/bundled\l/format.h">
<polygon fill="none" stroke="black" points="251.5,-56.5 251.5,-86.5 350.5,-86.5 350.5,-56.5 251.5,-56.5"/>
<text text-anchor="start" x="259.5" y="-74.5" font-family="Helvetica,sans-Serif" font-size="10.00">spdlog/fmt/bundled</text>
<text text-anchor="middle" x="301" y="-63.5" font-family="Helvetica,sans-Serif" font-size="10.00">/format.h</text>
</a>
</g>
</g>
<!-- Node14&#45;&gt;Node15 -->
<g id="edge15" class="edge"><title>Node14&#45;&gt;Node15</title>
<path fill="none" stroke="midnightblue" d="M273.316,-128.734C277.474,-120.287 283.948,-107.138 289.589,-95.6778"/>
<polygon fill="midnightblue" stroke="midnightblue" points="292.787,-97.1066 294.064,-86.589 286.507,-94.0148 292.787,-97.1066"/>
</g>
<!-- Node15&#45;&gt;Node6 -->
<g id="edge24" class="edge"><title>Node15&#45;&gt;Node6</title>
<path fill="none" stroke="midnightblue" d="M350.72,-62.7406C367.316,-60.3352 385.928,-57.8369 403,-56 626.129,-31.9919 896.278,-17.0946 986.222,-12.5131"/>
<polygon fill="midnightblue" stroke="midnightblue" points="986.471,-16.0051 996.282,-12.0056 986.119,-9.01396 986.471,-16.0051"/>
</g>
<!-- Node15&#45;&gt;Node9 -->
<g id="edge22" class="edge"><title>Node15&#45;&gt;Node9</title>
<path fill="none" stroke="midnightblue" d="M251.33,-56.625C212.282,-45.7173 158.82,-30.783 123.858,-21.0166"/>
<polygon fill="midnightblue" stroke="midnightblue" points="124.65,-17.6039 114.077,-18.2844 122.766,-24.3458 124.65,-17.6039"/>
</g>
<!-- Node16 -->
<g id="node16" class="node"><title>Node16</title>
<polygon fill="none" stroke="#bfbfbf" points="276.5,-0.5 276.5,-19.5 325.5,-19.5 325.5,-0.5 276.5,-0.5"/>
<text text-anchor="middle" x="301" y="-7.5" font-family="Helvetica,sans-Serif" font-size="10.00">cassert</text>
</g>
<!-- Node15&#45;&gt;Node16 -->
<g id="edge16" class="edge"><title>Node15&#45;&gt;Node16</title>
<path fill="none" stroke="midnightblue" d="M301,-56.3993C301,-48.4664 301,-38.458 301,-29.8583"/>
<polygon fill="midnightblue" stroke="midnightblue" points="304.5,-29.6577 301,-19.6578 297.5,-29.6578 304.5,-29.6577"/>
</g>
<!-- Node17 -->
<g id="node17" class="node"><title>Node17</title>
<polygon fill="none" stroke="#bfbfbf" points="343.5,-0.5 343.5,-19.5 390.5,-19.5 390.5,-0.5 343.5,-0.5"/>
<text text-anchor="middle" x="367" y="-7.5" font-family="Helvetica,sans-Serif" font-size="10.00">clocale</text>
</g>
<!-- Node15&#45;&gt;Node17 -->
<g id="edge17" class="edge"><title>Node15&#45;&gt;Node17</title>
<path fill="none" stroke="midnightblue" d="M316.641,-56.3993C326.627,-47.3967 339.578,-35.7214 349.845,-26.4652"/>
<polygon fill="midnightblue" stroke="midnightblue" points="352.313,-28.9533 357.396,-19.6578 347.625,-23.7541 352.313,-28.9533"/>
</g>
<!-- Node18 -->
<g id="node18" class="node"><title>Node18</title>
<polygon fill="none" stroke="#bfbfbf" points="409,-0.5 409,-19.5 453,-19.5 453,-0.5 409,-0.5"/>
<text text-anchor="middle" x="431" y="-7.5" font-family="Helvetica,sans-Serif" font-size="10.00">cmath</text>
</g>
<!-- Node15&#45;&gt;Node18 -->
<g id="edge18" class="edge"><title>Node15&#45;&gt;Node18</title>
<path fill="none" stroke="midnightblue" d="M331.808,-56.3993C353.328,-46.55 381.837,-33.5014 402.768,-23.9217"/>
<polygon fill="midnightblue" stroke="midnightblue" points="404.448,-27.0021 412.084,-19.6578 401.534,-20.6371 404.448,-27.0021"/>
</g>
<!-- Node15&#45;&gt;Node19 -->
<g id="edge19" class="edge"><title>Node15&#45;&gt;Node19</title>
<path fill="none" stroke="midnightblue" d="M350.532,-68.0003C549.197,-57.9744 1285.35,-20.8232 1448.04,-12.6129"/>
<polygon fill="midnightblue" stroke="midnightblue" points="1448.52,-16.0932 1458.33,-12.0935 1448.17,-9.10207 1448.52,-16.0932"/>
</g>
<!-- Node20 -->
<g id="node20" class="node"><title>Node20</title>
<polygon fill="none" stroke="#bfbfbf" points="471,-0.5 471,-19.5 517,-19.5 517,-0.5 471,-0.5"/>
<text text-anchor="middle" x="494" y="-7.5" font-family="Helvetica,sans-Serif" font-size="10.00">cstring</text>
</g>
<!-- Node15&#45;&gt;Node20 -->
<g id="edge20" class="edge"><title>Node15&#45;&gt;Node20</title>
<path fill="none" stroke="midnightblue" d="M346.738,-56.3993C381.943,-45.5461 429.748,-30.8084 461.213,-21.1078"/>
<polygon fill="midnightblue" stroke="midnightblue" points="462.294,-24.4374 470.819,-18.1466 460.231,-17.7481 462.294,-24.4374"/>
</g>
<!-- Node21 -->
<g id="node21" class="node"><title>Node21</title>
<polygon fill="none" stroke="#bfbfbf" points="535,-0.5 535,-19.5 575,-19.5 575,-0.5 535,-0.5"/>
<text text-anchor="middle" x="555" y="-7.5" font-family="Helvetica,sans-Serif" font-size="10.00">limits</text>
</g>
<!-- Node15&#45;&gt;Node21 -->
<g id="edge21" class="edge"><title>Node15&#45;&gt;Node21</title>
<path fill="none" stroke="midnightblue" d="M350.611,-59.2455C355.473,-58.147 360.332,-57.0507 365,-56 433.459,-40.5911 453.453,-38.9971 524.843,-20.1501"/>
<polygon fill="midnightblue" stroke="midnightblue" points="526.016,-23.4598 534.779,-17.5044 524.215,-16.6955 526.016,-23.4598"/>
</g>
<!-- Node22 -->
<g id="node22" class="node"><title>Node22</title>
<polygon fill="none" stroke="#bfbfbf" points="132.5,-0.5 132.5,-19.5 191.5,-19.5 191.5,-0.5 132.5,-0.5"/>
<text text-anchor="middle" x="162" y="-7.5" font-family="Helvetica,sans-Serif" font-size="10.00">stdexcept</text>
</g>
<!-- Node15&#45;&gt;Node22 -->
<g id="edge23" class="edge"><title>Node15&#45;&gt;Node22</title>
<path fill="none" stroke="midnightblue" d="M268.059,-56.3993C244.841,-46.4608 214.014,-33.2649 191.581,-23.6625"/>
<polygon fill="midnightblue" stroke="midnightblue" points="192.796,-20.3754 182.226,-19.6578 190.042,-26.8106 192.796,-20.3754"/>
</g>
<!-- Node23 -->
<g id="node23" class="node"><title>Node23</title>
<polygon fill="none" stroke="#bfbfbf" points="0,-0.5 0,-19.5 44,-19.5 44,-0.5 0,-0.5"/>
<text text-anchor="middle" x="22" y="-7.5" font-family="Helvetica,sans-Serif" font-size="10.00">vector</text>
</g>
<!-- Node15&#45;&gt;Node23 -->
<g id="edge25" class="edge"><title>Node15&#45;&gt;Node23</title>
<path fill="none" stroke="midnightblue" d="M251.328,-61.621C203.229,-52.7464 128.063,-38.1506 54.2269,-20.1525"/>
<polygon fill="midnightblue" stroke="midnightblue" points="54.8389,-16.6988 44.2923,-17.708 53.1663,-23.4961 54.8389,-16.6988"/>
</g>
<!-- Node15&#45;&gt;Node24 -->
<g id="edge26" class="edge"><title>Node15&#45;&gt;Node24</title>
<path fill="none" stroke="midnightblue" d="M350.552,-58.9655C355.426,-57.9236 360.304,-56.9171 365,-56 458.691,-37.703 486.24,-42.3382 582.923,-19.9793"/>
<polygon fill="midnightblue" stroke="midnightblue" points="583.883,-23.3492 592.817,-17.654 582.281,-16.5348 583.883,-23.3492"/>
</g>
<!-- Node25 -->
<g id="node25" class="node"><title>Node25</title>
<polygon fill="none" stroke="#bfbfbf" points="209.5,-0.5 209.5,-19.5 258.5,-19.5 258.5,-0.5 209.5,-0.5"/>
<text text-anchor="middle" x="234" y="-7.5" font-family="Helvetica,sans-Serif" font-size="10.00">stdint.h</text>
</g>
<!-- Node15&#45;&gt;Node25 -->
<g id="edge27" class="edge"><title>Node15&#45;&gt;Node25</title>
<path fill="none" stroke="midnightblue" d="M285.122,-56.3993C274.985,-47.3967 261.838,-35.7214 251.415,-26.4652"/>
<polygon fill="midnightblue" stroke="midnightblue" points="253.55,-23.681 243.749,-19.6578 248.902,-28.915 253.55,-23.681"/>
</g>
<!-- Node26&#45;&gt;Node5 -->
<g id="edge29" class="edge"><title>Node26&#45;&gt;Node5</title>
<path fill="none" stroke="midnightblue" d="M887.906,-248.486C812.178,-238.439 667.245,-219.209 586.996,-208.562"/>
<polygon fill="midnightblue" stroke="midnightblue" points="587.438,-205.09 577.065,-207.244 586.517,-212.029 587.438,-205.09"/>
</g>
<!-- Node26&#45;&gt;Node6 -->
<g id="edge33" class="edge"><title>Node26&#45;&gt;Node6</title>
<path fill="none" stroke="midnightblue" d="M986.269,-255.405C1065.68,-254.89 1216.48,-248.689 1250,-210 1322.01,-126.892 1125.8,-48.2449 1047.59,-21.0449"/>
<polygon fill="midnightblue" stroke="midnightblue" points="1048.39,-17.6223 1037.8,-17.6966 1046.13,-24.2454 1048.39,-17.6223"/>
</g>
<!-- Node26&#45;&gt;Node8 -->
<g id="edge34" class="edge"><title>Node26&#45;&gt;Node8</title>
<path fill="none" stroke="midnightblue" d="M935.948,-246.319C933.698,-227.757 928.374,-183.839 925.3,-158.473"/>
<polygon fill="midnightblue" stroke="midnightblue" points="928.742,-157.788 924.064,-148.282 921.793,-158.631 928.742,-157.788"/>
</g>
<!-- Node26&#45;&gt;Node12 -->
<g id="edge32" class="edge"><title>Node26&#45;&gt;Node12</title>
<path fill="none" stroke="midnightblue" d="M930.085,-246.319C914.834,-227.172 878.092,-181.044 858.247,-156.131"/>
<polygon fill="midnightblue" stroke="midnightblue" points="860.963,-153.923 851.995,-148.282 855.488,-158.285 860.963,-153.923"/>
</g>
<!-- Node26&#45;&gt;Node19 -->
<g id="edge30" class="edge"><title>Node26&#45;&gt;Node19</title>
<path fill="none" stroke="midnightblue" d="M986.132,-252.066C1066.21,-246.671 1220.87,-233.518 1270,-210 1361.44,-166.235 1439.22,-67.7943 1468.05,-28.0867"/>
<polygon fill="midnightblue" stroke="midnightblue" points="1471.06,-29.8991 1474.02,-19.7276 1465.36,-25.8301 1471.06,-29.8991"/>
</g>
<!-- Node26&#45;&gt;Node27 -->
<g id="edge31" class="edge"><title>Node26&#45;&gt;Node27</title>
<path fill="none" stroke="midnightblue" d="M887.68,-247.953C838.538,-240.547 760.793,-227.789 684.368,-209.844"/>
<polygon fill="midnightblue" stroke="midnightblue" points="685.111,-206.422 674.572,-207.512 683.49,-213.232 685.111,-206.422"/>
</g>
<!-- Node28 -->
<g id="node28" class="node"><title>Node28</title>
<polygon fill="none" stroke="#bfbfbf" points="693,-190.5 693,-209.5 737,-209.5 737,-190.5 693,-190.5"/>
<text text-anchor="middle" x="715" y="-197.5" font-family="Helvetica,sans-Serif" font-size="10.00">thread</text>
</g>
<!-- Node26&#45;&gt;Node28 -->
<g id="edge35" class="edge"><title>Node26&#45;&gt;Node28</title>
<path fill="none" stroke="midnightblue" d="M898.079,-246.443C861.497,-238.265 804.993,-225.285 747.329,-210.254"/>
<polygon fill="midnightblue" stroke="midnightblue" points="747.874,-206.779 737.313,-207.626 746.097,-213.55 747.874,-206.779"/>
</g>
<!-- Node29 -->
<g id="node29" class="node"><title>Node29</title>
<polygon fill="none" stroke="#bfbfbf" points="963,-190.5 963,-209.5 1009,-209.5 1009,-190.5 963,-190.5"/>
<text text-anchor="middle" x="986" y="-197.5" font-family="Helvetica,sans-Serif" font-size="10.00">stdio.h</text>
</g>
<!-- Node26&#45;&gt;Node29 -->
<g id="edge36" class="edge"><title>Node26&#45;&gt;Node29</title>
<path fill="none" stroke="midnightblue" d="M945.091,-246.083C952.155,-238.298 962.588,-226.801 971.149,-217.367"/>
<polygon fill="midnightblue" stroke="midnightblue" points="973.931,-219.509 978.059,-209.751 968.747,-214.805 973.931,-219.509"/>
</g>
<!-- Node30 -->
<g id="node30" class="node"><title>Node30</title>
<polygon fill="none" stroke="#bfbfbf" points="1027.5,-190.5 1027.5,-209.5 1076.5,-209.5 1076.5,-190.5 1027.5,-190.5"/>
<text text-anchor="middle" x="1052" y="-197.5" font-family="Helvetica,sans-Serif" font-size="10.00">string.h</text>
</g>
<!-- Node26&#45;&gt;Node30 -->
<g id="edge37" class="edge"><title>Node26&#45;&gt;Node30</title>
<path fill="none" stroke="midnightblue" d="M955.222,-246.444C973.896,-237.675 1003.16,-223.935 1024.62,-213.858"/>
<polygon fill="midnightblue" stroke="midnightblue" points="1026.3,-216.935 1033.86,-209.516 1023.32,-210.599 1026.3,-216.935"/>
</g>
<!-- Node31 -->
<g id="node31" class="node"><title>Node31</title>
<polygon fill="none" stroke="#bfbfbf" points="1095,-190.5 1095,-209.5 1155,-209.5 1155,-190.5 1095,-190.5"/>
<text text-anchor="middle" x="1125" y="-197.5" font-family="Helvetica,sans-Serif" font-size="10.00">sys/stat.h</text>
</g>
<!-- Node26&#45;&gt;Node31 -->
<g id="edge38" class="edge"><title>Node26&#45;&gt;Node31</title>
<path fill="none" stroke="midnightblue" d="M966.789,-246.444C998.829,-237.241 1049.93,-222.562 1085.35,-212.388"/>
<polygon fill="midnightblue" stroke="midnightblue" points="1086.71,-215.641 1095.35,-209.516 1084.77,-208.913 1086.71,-215.641"/>
</g>
<!-- Node32 -->
<g id="node32" class="node"><title>Node32</title>
<polygon fill="none" stroke="#bfbfbf" points="1173,-190.5 1173,-209.5 1241,-209.5 1241,-190.5 1173,-190.5"/>
<text text-anchor="middle" x="1207" y="-197.5" font-family="Helvetica,sans-Serif" font-size="10.00">sys/types.h</text>
</g>
<!-- Node26&#45;&gt;Node32 -->
<g id="edge39" class="edge"><title>Node26&#45;&gt;Node32</title>
<path fill="none" stroke="midnightblue" d="M980.969,-246.427C1024.57,-237.893 1093.57,-224.304 1162.56,-210.277"/>
<polygon fill="midnightblue" stroke="midnightblue" points="1163.64,-213.63 1172.74,-208.205 1162.24,-206.771 1163.64,-213.63"/>
</g>
<!-- Node33 -->
<g id="node33" class="node"><title>Node33</title>
<polygon fill="none" stroke="#bfbfbf" points="755.5,-190.5 755.5,-209.5 806.5,-209.5 806.5,-190.5 755.5,-190.5"/>
<text text-anchor="middle" x="781" y="-197.5" font-family="Helvetica,sans-Serif" font-size="10.00">unistd.h</text>
</g>
<!-- Node26&#45;&gt;Node33 -->
<g id="edge40" class="edge"><title>Node26&#45;&gt;Node33</title>
<path fill="none" stroke="midnightblue" d="M912.281,-246.444C886.152,-237.399 844.741,-223.064 815.424,-212.916"/>
<polygon fill="midnightblue" stroke="midnightblue" points="816.198,-209.48 805.603,-209.516 813.908,-216.095 816.198,-209.48"/>
</g>
<!-- Node34 -->
<g id="node34" class="node"><title>Node34</title>
<polygon fill="none" stroke="#bfbfbf" points="825,-190.5 825,-209.5 869,-209.5 869,-190.5 825,-190.5"/>
<text text-anchor="middle" x="847" y="-197.5" font-family="Helvetica,sans-Serif" font-size="10.00">fcntl.h</text>
</g>
<!-- Node26&#45;&gt;Node34 -->
<g id="edge41" class="edge"><title>Node26&#45;&gt;Node34</title>
<path fill="none" stroke="midnightblue" d="M922.54,-246.324C908.5,-237.9 886.952,-224.971 870.457,-215.074"/>
<polygon fill="midnightblue" stroke="midnightblue" points="871.8,-211.798 861.424,-209.655 868.198,-217.801 871.8,-211.798"/>
</g>
<!-- Node35&#45;&gt;Node4 -->
<g id="edge45" class="edge"><title>Node35&#45;&gt;Node4</title>
<path fill="none" stroke="midnightblue" d="M404.073,-436.405C464.118,-415.82 617.113,-363.371 697.269,-335.892"/>
<polygon fill="midnightblue" stroke="midnightblue" points="698.816,-339.061 707.141,-332.507 696.546,-332.439 698.816,-339.061"/>
</g>
<!-- Node35&#45;&gt;Node6 -->
<g id="edge47" class="edge"><title>Node35&#45;&gt;Node6</title>
<path fill="none" stroke="midnightblue" d="M357.517,-436.36C342.608,-429.09 323.889,-417.117 315,-400 308.65,-387.773 311.026,-382.192 315,-369 352.83,-243.418 383.694,-214.15 478,-123 518.888,-83.4808 533.162,-74.3032 587,-56 661.2,-30.7747 900.457,-16.7605 986.127,-12.4517"/>
<polygon fill="midnightblue" stroke="midnightblue" points="986.437,-15.9407 996.252,-11.9519 986.091,-8.94925 986.437,-15.9407"/>
</g>
<!-- Node35&#45;&gt;Node9 -->
<g id="edge48" class="edge"><title>Node35&#45;&gt;Node9</title>
<path fill="none" stroke="midnightblue" d="M331.318,-439.043C282.929,-432.051 212.456,-418.951 193,-400 138.177,-346.598 100.36,-100.279 90.532,-29.8545"/>
<polygon fill="midnightblue" stroke="midnightblue" points="93.9784,-29.2239 89.1527,-19.7919 87.0432,-30.1746 93.9784,-29.2239"/>
</g>
<!-- Node35&#45;&gt;Node23 -->
<g id="edge46" class="edge"><title>Node35&#45;&gt;Node23</title>
<path fill="none" stroke="midnightblue" d="M331.434,-441.933C233.407,-432.77 18,-396.736 18,-257 18,-257 18,-257 18,-137.5 18,-99.1832 19.856,-54.3706 21.0395,-29.6913"/>
<polygon fill="midnightblue" stroke="midnightblue" points="24.5409,-29.7477 21.5411,-19.5865 17.5495,-29.4006 24.5409,-29.7477"/>
</g>
<!-- Node36 -->
<g id="node36" class="node"><title>Node36</title>
<g id="a_node36"><a xlink:href="pattern__formatter__impl_8h.html" target="_top" xlink:title="spdlog/details/pattern\l_formatter_impl.h">
<polygon fill="none" stroke="black" points="324,-369.5 324,-399.5 434,-399.5 434,-369.5 324,-369.5"/>
<text text-anchor="start" x="332" y="-387.5" font-family="Helvetica,sans-Serif" font-size="10.00">spdlog/details/pattern</text>
<text text-anchor="middle" x="379" y="-376.5" font-family="Helvetica,sans-Serif" font-size="10.00">_formatter_impl.h</text>
</a>
</g>
</g>
<!-- Node35&#45;&gt;Node36 -->
<g id="edge49" class="edge"><title>Node35&#45;&gt;Node36</title>
<path fill="none" stroke="midnightblue" d="M374.099,-436.475C372.572,-429.471 371.991,-419.192 372.356,-409.696"/>
<polygon fill="midnightblue" stroke="midnightblue" points="375.861,-409.77 373.17,-399.523 368.883,-409.212 375.861,-409.77"/>
</g>
<!-- Node36&#45;&gt;Node4 -->
<g id="edge51" class="edge"><title>Node36&#45;&gt;Node4</title>
<path fill="none" stroke="midnightblue" d="M434.207,-375.756C496.2,-366.763 599.69,-350.861 688,-333 689.27,-332.743 690.555,-332.478 691.848,-332.206"/>
<polygon fill="midnightblue" stroke="midnightblue" points="692.867,-335.566 701.89,-330.013 691.373,-328.728 692.867,-335.566"/>
</g>
<!-- Node36&#45;&gt;Node6 -->
<g id="edge58" class="edge"><title>Node36&#45;&gt;Node6</title>
<path fill="none" stroke="midnightblue" d="M381.979,-369.408C391.969,-325.704 428.462,-191.301 512,-123 586.3,-62.2528 888.557,-24.87 986.329,-14.1827"/>
<polygon fill="midnightblue" stroke="midnightblue" points="986.873,-17.6445 996.44,-13.0935 986.123,-10.6848 986.873,-17.6445"/>
</g>
<!-- Node36&#45;&gt;Node8 -->
<g id="edge54" class="edge"><title>Node36&#45;&gt;Node8</title>
<path fill="none" stroke="midnightblue" d="M394.495,-369.457C439.699,-328.788 571.53,-212.388 624,-190 730.894,-144.39 770.195,-181.957 883,-154 886.056,-153.243 889.203,-152.335 892.327,-151.349"/>
<polygon fill="midnightblue" stroke="midnightblue" points="893.75,-154.562 902.082,-148.018 891.487,-147.938 893.75,-154.562"/>
</g>
<!-- Node36&#45;&gt;Node9 -->
<g id="edge56" class="edge"><title>Node36&#45;&gt;Node9</title>
<path fill="none" stroke="midnightblue" d="M356.629,-369.292C343.048,-359.996 325.903,-347.007 313,-333 213.85,-225.37 228.053,-168.943 135,-56 126.222,-45.3455 115.114,-34.6088 105.902,-26.2964"/>
<polygon fill="midnightblue" stroke="midnightblue" points="108.214,-23.6692 98.3998,-19.6784 103.584,-28.9186 108.214,-23.6692"/>
</g>
<!-- Node36&#45;&gt;Node14 -->
<g id="edge53" class="edge"><title>Node36&#45;&gt;Node14</title>
<path fill="none" stroke="midnightblue" d="M362.699,-369.447C352.639,-360.018 340.143,-346.83 332,-333 297.386,-274.212 279.146,-194.015 272.272,-158.156"/>
<polygon fill="midnightblue" stroke="midnightblue" points="275.684,-157.357 270.433,-148.155 268.799,-158.623 275.684,-157.357"/>
</g>
<!-- Node36&#45;&gt;Node23 -->
<g id="edge61" class="edge"><title>Node36&#45;&gt;Node23</title>
<path fill="none" stroke="midnightblue" d="M344.068,-369.3C324.889,-360.517 301.346,-348.048 283,-333 165.393,-236.535 64.0592,-79.8419 32.3058,-28.1469"/>
<polygon fill="midnightblue" stroke="midnightblue" points="35.2355,-26.2284 27.0477,-19.5045 29.2553,-29.8668 35.2355,-26.2284"/>
</g>
<!-- Node36&#45;&gt;Node24 -->
<g id="edge60" class="edge"><title>Node36&#45;&gt;Node24</title>
<path fill="none" stroke="midnightblue" d="M374.797,-369.467C360.793,-319.559 321.073,-148.696 403,-56 455.249,3.11622 500.897,-36.8618 582.883,-19.8631"/>
<polygon fill="midnightblue" stroke="midnightblue" points="583.843,-23.2334 592.795,-17.5663 582.263,-16.4141 583.843,-23.2334"/>
</g>
<!-- Node36&#45;&gt;Node26 -->
<g id="edge52" class="edge"><title>Node36&#45;&gt;Node26</title>
<path fill="none" stroke="midnightblue" d="M434.28,-376.113C501.88,-366.575 611.997,-349.266 650,-333 671.659,-323.729 671.332,-311.251 693,-302 752.856,-276.445 827.052,-265.38 877.811,-260.603"/>
<polygon fill="midnightblue" stroke="midnightblue" points="878.304,-264.073 887.956,-259.702 877.685,-257.1 878.304,-264.073"/>
</g>
<!-- Node36&#45;&gt;Node27 -->
<g id="edge55" class="edge"><title>Node36&#45;&gt;Node27</title>
<path fill="none" stroke="midnightblue" d="M434.245,-380.323C476.161,-375.45 533.317,-363.269 574,-333 613.652,-303.498 637.694,-247.99 648.036,-219.262"/>
<polygon fill="midnightblue" stroke="midnightblue" points="651.392,-220.267 651.334,-209.673 644.772,-217.991 651.392,-220.267"/>
</g>
<!-- Node36&#45;&gt;Node28 -->
<g id="edge59" class="edge"><title>Node36&#45;&gt;Node28</title>
<path fill="none" stroke="midnightblue" d="M434.206,-380.808C481.917,-376.304 551.167,-364.385 603,-333 650.834,-304.036 688.3,-247.446 705.2,-218.687"/>
<polygon fill="midnightblue" stroke="midnightblue" points="708.376,-220.185 710.304,-209.767 702.3,-216.708 708.376,-220.185"/>
</g>
<!-- Node36&#45;&gt;Node35 -->
<g id="edge50" class="edge"><title>Node36&#45;&gt;Node35</title>
<path fill="none" stroke="midnightblue" d="M384.83,-399.523C385.873,-407.586 386.029,-417.813 385.299,-426.526"/>
<polygon fill="midnightblue" stroke="midnightblue" points="381.827,-426.085 383.901,-436.475 388.759,-427.06 381.827,-426.085"/>
</g>
<!-- Node36&#45;&gt;Node37 -->
<g id="edge57" class="edge"><title>Node36&#45;&gt;Node37</title>
<path fill="none" stroke="midnightblue" d="M323.754,-370.346C267.96,-357.062 183.689,-336.997 138.071,-326.136"/>
<polygon fill="midnightblue" stroke="midnightblue" points="138.684,-322.684 128.146,-323.773 137.063,-329.494 138.684,-322.684"/>
</g>
<!-- Node38&#45;&gt;Node4 -->
<g id="edge68" class="edge"><title>Node38&#45;&gt;Node4</title>
<path fill="none" stroke="midnightblue" d="M1223.83,-378.435C1145.88,-369.785 983.223,-351.32 846,-333 832.551,-331.204 818.084,-329.139 804.504,-327.139"/>
<polygon fill="midnightblue" stroke="midnightblue" points="804.729,-323.635 794.324,-325.629 803.702,-330.559 804.729,-323.635"/>
</g>
<!-- Node38&#45;&gt;Node6 -->
<g id="edge71" class="edge"><title>Node38&#45;&gt;Node6</title>
<path fill="none" stroke="midnightblue" d="M1273.23,-369.221C1277.85,-351.564 1287.86,-321.464 1306,-302 1371.47,-231.749 1497,-297.027 1497,-201 1497,-201 1497,-201 1497,-137.5 1497,-44.1846 1153.5,-18.2222 1047.66,-12.4377"/>
<polygon fill="midnightblue" stroke="midnightblue" points="1047.79,-8.93976 1037.62,-11.9112 1047.43,-15.9302 1047.79,-8.93976"/>
</g>
<!-- Node38&#45;&gt;Node8 -->
<g id="edge69" class="edge"><title>Node38&#45;&gt;Node8</title>
<path fill="none" stroke="midnightblue" d="M1270.7,-369.453C1272.39,-329.303 1274.84,-215.305 1250,-190 1203.73,-142.873 1018.59,-171.834 955,-154 952.853,-153.398 950.666,-152.672 948.495,-151.87"/>
<polygon fill="midnightblue" stroke="midnightblue" points="949.825,-148.632 939.249,-148.014 947.131,-155.093 949.825,-148.632"/>
</g>
<!-- Node38&#45;&gt;Node19 -->
<g id="edge70" class="edge"><title>Node38&#45;&gt;Node19</title>
<path fill="none" stroke="midnightblue" d="M1279.17,-369.217C1291.87,-350.685 1316.58,-318.751 1346,-302 1411.23,-264.864 1454.37,-315.264 1511,-266 1534.23,-245.788 1535,-231.795 1535,-201 1535,-201 1535,-201 1535,-137.5 1535,-99.7399 1527.25,-90.0858 1511,-56 1506.26,-46.0634 1499.45,-35.8898 1493.42,-27.7353"/>
<polygon fill="midnightblue" stroke="midnightblue" points="1496.18,-25.5853 1487.32,-19.7861 1490.63,-29.849 1496.18,-25.5853"/>
</g>
<!-- Node38&#45;&gt;Node26 -->
<g id="edge67" class="edge"><title>Node38&#45;&gt;Node26</title>
<path fill="none" stroke="midnightblue" d="M1233.09,-369.479C1167.48,-344.556 1031.63,-292.946 969.401,-269.309"/>
<polygon fill="midnightblue" stroke="midnightblue" points="970.31,-265.91 959.719,-265.63 967.824,-272.453 970.31,-265.91"/>
</g>
<!-- Node38&#45;&gt;Node28 -->
<g id="edge72" class="edge"><title>Node38&#45;&gt;Node28</title>
<path fill="none" stroke="midnightblue" d="M1223.7,-374.018C1180.86,-364.858 1115.61,-349.913 1060,-333 977.933,-308.039 959.099,-296.694 879,-266 832.348,-248.123 778.56,-226.637 745.673,-213.399"/>
<polygon fill="midnightblue" stroke="midnightblue" points="746.752,-210.061 736.169,-209.569 744.136,-216.553 746.752,-210.061"/>
</g>
<!-- Node38&#45;&gt;Node39 -->
<g id="edge73" class="edge"><title>Node38&#45;&gt;Node39</title>
<path fill="none" stroke="midnightblue" d="M1293.22,-369.396C1311.33,-358.395 1336.34,-343.2 1354.31,-332.282"/>
<polygon fill="midnightblue" stroke="midnightblue" points="1356.27,-335.19 1363,-327.007 1352.63,-329.208 1356.27,-335.19"/>
</g>
</g>
</svg>
