<?xml version="1.0" encoding="UTF-8" standalone="no"?>
<!DOCTYPE svg PUBLIC "-//W3C//DTD SVG 1.1//EN"
 "http://www.w3.org/Graphics/SVG/1.1/DTD/svg11.dtd">
<!-- Generated by graphviz version 2.36.0 (20140111.2315)
 -->
<!-- Title: /home/lucamuratore/advr&#45;superbuild/external/XBotInterface/include/spdlog/details/file_helper.h Pages: 1 -->
<svg width="1568pt" height="434pt"
 viewBox="0.00 0.00 1568.00 434.00" xmlns="http://www.w3.org/2000/svg" xmlns:xlink="http://www.w3.org/1999/xlink">
<g id="graph0" class="graph" transform="scale(1 1) rotate(0) translate(4 430)">
<title>/home/lucamuratore/advr&#45;superbuild/external/XBotInterface/include/spdlog/details/file_helper.h</title>
<!-- Node1 -->
<g id="node1" class="node"><title>Node1</title>
<polygon fill="#bfbfbf" stroke="black" points="1327.5,-373 1327.5,-425 1472.5,-425 1472.5,-373 1327.5,-373"/>
<text text-anchor="start" x="1335.5" y="-413" font-family="Helvetica,sans-Serif" font-size="10.00">/home/lucamuratore</text>
<text text-anchor="start" x="1335.5" y="-402" font-family="Helvetica,sans-Serif" font-size="10.00">/advr&#45;superbuild/external</text>
<text text-anchor="start" x="1335.5" y="-391" font-family="Helvetica,sans-Serif" font-size="10.00">/XBotInterface/include/spdlog</text>
<text text-anchor="middle" x="1400" y="-380" font-family="Helvetica,sans-Serif" font-size="10.00">/details/file_helper.h</text>
</g>
<!-- Node2 -->
<g id="node2" class="node"><title>Node2</title>
<g id="a_node2"><a xlink:href="os_8h.html" target="_top" xlink:title="spdlog/details/os.h">
<polygon fill="none" stroke="black" points="1051,-248.5 1051,-267.5 1149,-267.5 1149,-248.5 1051,-248.5"/>
<text text-anchor="middle" x="1100" y="-255.5" font-family="Helvetica,sans-Serif" font-size="10.00">spdlog/details/os.h</text>
</a>
</g>
</g>
<!-- Node1&#45;&gt;Node2 -->
<g id="edge1" class="edge"><title>Node1&#45;&gt;Node2</title>
<path fill="none" stroke="midnightblue" d="M1346.02,-372.989C1281.81,-343.239 1177.1,-294.725 1127.6,-271.787"/>
<polygon fill="midnightblue" stroke="midnightblue" points="1129.01,-268.582 1118.46,-267.554 1126.06,-274.934 1129.01,-268.582"/>
</g>
<!-- Node4 -->
<g id="node4" class="node"><title>Node4</title>
<polygon fill="none" stroke="#bfbfbf" points="652.5,-0.5 652.5,-19.5 693.5,-19.5 693.5,-0.5 652.5,-0.5"/>
<text text-anchor="middle" x="673" y="-7.5" font-family="Helvetica,sans-Serif" font-size="10.00">string</text>
</g>
<!-- Node1&#45;&gt;Node4 -->
<g id="edge45" class="edge"><title>Node1&#45;&gt;Node4</title>
<path fill="none" stroke="midnightblue" d="M1327.2,-397.269C1158.78,-394.772 746.884,-383.812 618,-336 507.074,-294.85 418.546,-235.89 457,-124 469.454,-87.7626 478.087,-77.2082 510,-56 558.513,-23.7607 581.788,-35.4808 642.681,-19.8963"/>
<polygon fill="midnightblue" stroke="midnightblue" points="643.629,-23.2657 652.365,-17.2707 641.797,-16.5096 643.629,-23.2657"/>
</g>
<!-- Node6 -->
<g id="node6" class="node"><title>Node6</title>
<polygon fill="none" stroke="#bfbfbf" points="1216,-130.5 1216,-149.5 1262,-149.5 1262,-130.5 1216,-130.5"/>
<text text-anchor="middle" x="1239" y="-137.5" font-family="Helvetica,sans-Serif" font-size="10.00">chrono</text>
</g>
<!-- Node1&#45;&gt;Node6 -->
<g id="edge43" class="edge"><title>Node1&#45;&gt;Node6</title>
<path fill="none" stroke="midnightblue" d="M1414.34,-372.853C1436.18,-330.812 1471.17,-245.6 1430,-192 1410.91,-167.148 1321.88,-151.801 1272.39,-145.044"/>
<polygon fill="midnightblue" stroke="midnightblue" points="1272.55,-141.535 1262.18,-143.695 1271.64,-148.475 1272.55,-141.535"/>
</g>
<!-- Node17 -->
<g id="node17" class="node"><title>Node17</title>
<polygon fill="none" stroke="#bfbfbf" points="1166.5,-0.5 1166.5,-19.5 1209.5,-19.5 1209.5,-0.5 1166.5,-0.5"/>
<text text-anchor="middle" x="1188" y="-7.5" font-family="Helvetica,sans-Serif" font-size="10.00">cstdio</text>
</g>
<!-- Node1&#45;&gt;Node17 -->
<g id="edge44" class="edge"><title>Node1&#45;&gt;Node17</title>
<path fill="none" stroke="midnightblue" d="M1428.33,-372.814C1454.05,-347.035 1488,-304.413 1488,-259 1488,-259 1488,-259 1488,-139 1488,-23.264 1296.77,-10.7422 1219.67,-10.3975"/>
<polygon fill="midnightblue" stroke="midnightblue" points="1219.57,-6.89766 1209.58,-10.4203 1219.58,-13.8976 1219.57,-6.89766"/>
</g>
<!-- Node25 -->
<g id="node25" class="node"><title>Node25</title>
<polygon fill="none" stroke="#bfbfbf" points="1378,-192.5 1378,-211.5 1422,-211.5 1422,-192.5 1378,-192.5"/>
<text text-anchor="middle" x="1400" y="-199.5" font-family="Helvetica,sans-Serif" font-size="10.00">thread</text>
</g>
<!-- Node1&#45;&gt;Node25 -->
<g id="edge46" class="edge"><title>Node1&#45;&gt;Node25</title>
<path fill="none" stroke="midnightblue" d="M1400,-372.906C1400,-333.352 1400,-257.374 1400,-221.995"/>
<polygon fill="midnightblue" stroke="midnightblue" points="1403.5,-221.664 1400,-211.664 1396.5,-221.664 1403.5,-221.664"/>
</g>
<!-- Node32 -->
<g id="node32" class="node"><title>Node32</title>
<g id="a_node32"><a xlink:href="log__msg_8h.html" target="_top" xlink:title="spdlog/details/log\l_msg.h">
<polygon fill="none" stroke="black" points="627,-305 627,-335 719,-335 719,-305 627,-305"/>
<text text-anchor="start" x="635" y="-323" font-family="Helvetica,sans-Serif" font-size="10.00">spdlog/details/log</text>
<text text-anchor="middle" x="673" y="-312" font-family="Helvetica,sans-Serif" font-size="10.00">_msg.h</text>
</a>
</g>
</g>
<!-- Node1&#45;&gt;Node32 -->
<g id="edge38" class="edge"><title>Node1&#45;&gt;Node32</title>
<path fill="none" stroke="midnightblue" d="M1327.3,-390.3C1182.35,-374.947 860.094,-340.816 729.55,-326.99"/>
<polygon fill="midnightblue" stroke="midnightblue" points="729.687,-323.484 719.374,-325.912 728.949,-330.446 729.687,-323.484"/>
</g>
<!-- Node33 -->
<g id="node33" class="node"><title>Node33</title>
<polygon fill="none" stroke="#bfbfbf" points="1516,-310.5 1516,-329.5 1560,-329.5 1560,-310.5 1516,-310.5"/>
<text text-anchor="middle" x="1538" y="-317.5" font-family="Helvetica,sans-Serif" font-size="10.00">cerrno</text>
</g>
<!-- Node1&#45;&gt;Node33 -->
<g id="edge47" class="edge"><title>Node1&#45;&gt;Node33</title>
<path fill="none" stroke="midnightblue" d="M1445.19,-372.787C1468.05,-360.03 1494.89,-345.054 1513.81,-334.498"/>
<polygon fill="midnightblue" stroke="midnightblue" points="1515.64,-337.487 1522.66,-329.558 1512.22,-331.374 1515.64,-337.487"/>
</g>
<!-- Node3 -->
<g id="node3" class="node"><title>Node3</title>
<g id="a_node3"><a xlink:href="common_8h.html" target="_top" xlink:title="spdlog/common.h">
<polygon fill="none" stroke="black" points="626,-192.5 626,-211.5 720,-211.5 720,-192.5 626,-192.5"/>
<text text-anchor="middle" x="673" y="-199.5" font-family="Helvetica,sans-Serif" font-size="10.00">spdlog/common.h</text>
</a>
</g>
</g>
<!-- Node2&#45;&gt;Node3 -->
<g id="edge2" class="edge"><title>Node2&#45;&gt;Node3</title>
<path fill="none" stroke="midnightblue" d="M1050.82,-251.335C980.508,-243.15 847.245,-227.314 734,-212 732.747,-211.831 731.48,-211.658 730.202,-211.482"/>
<polygon fill="midnightblue" stroke="midnightblue" points="730.662,-208.012 720.273,-210.09 729.69,-214.944 730.662,-208.012"/>
</g>
<!-- Node2&#45;&gt;Node4 -->
<g id="edge29" class="edge"><title>Node2&#45;&gt;Node4</title>
<path fill="none" stroke="midnightblue" d="M1050.97,-257.896C967.494,-258.256 803.278,-253.511 767,-212 690.863,-124.882 1073.25,-222.156 1012,-124 978.279,-69.9637 780.545,-29.9111 703.609,-16.1755"/>
<polygon fill="midnightblue" stroke="midnightblue" points="704.039,-12.6975 693.584,-14.4133 702.827,-19.5918 704.039,-12.6975"/>
</g>
<!-- Node2&#45;&gt;Node6 -->
<g id="edge30" class="edge"><title>Node2&#45;&gt;Node6</title>
<path fill="none" stroke="midnightblue" d="M1133.56,-248.471C1155.21,-241.575 1182.79,-229.999 1202,-212 1217.49,-197.482 1227.67,-175.011 1233.36,-159.247"/>
<polygon fill="midnightblue" stroke="midnightblue" points="1236.74,-160.179 1236.59,-149.585 1230.1,-157.958 1236.74,-160.179"/>
</g>
<!-- Node10 -->
<g id="node10" class="node"><title>Node10</title>
<polygon fill="none" stroke="#bfbfbf" points="944.5,-130.5 944.5,-149.5 1003.5,-149.5 1003.5,-130.5 944.5,-130.5"/>
<text text-anchor="middle" x="974" y="-137.5" font-family="Helvetica,sans-Serif" font-size="10.00">functional</text>
</g>
<!-- Node2&#45;&gt;Node10 -->
<g id="edge28" class="edge"><title>Node2&#45;&gt;Node10</title>
<path fill="none" stroke="midnightblue" d="M1109.4,-248.437C1122.51,-235.44 1143.28,-210.312 1130,-192 1103.74,-155.784 1051.01,-144.807 1014.16,-141.734"/>
<polygon fill="midnightblue" stroke="midnightblue" points="1013.96,-138.213 1003.75,-141.038 1013.5,-145.197 1013.96,-138.213"/>
</g>
<!-- Node2&#45;&gt;Node17 -->
<g id="edge26" class="edge"><title>Node2&#45;&gt;Node17</title>
<path fill="none" stroke="midnightblue" d="M1112.86,-248.198C1123.69,-240.08 1138.7,-227.034 1147,-212 1180.38,-151.504 1186.71,-67.2641 1187.82,-30.011"/>
<polygon fill="midnightblue" stroke="midnightblue" points="1191.33,-29.7238 1188.03,-19.6565 1184.33,-29.5854 1191.33,-29.7238"/>
</g>
<!-- Node24 -->
<g id="node24" class="node"><title>Node24</title>
<polygon fill="none" stroke="#bfbfbf" points="1254.5,-192.5 1254.5,-211.5 1295.5,-211.5 1295.5,-192.5 1254.5,-192.5"/>
<text text-anchor="middle" x="1275" y="-199.5" font-family="Helvetica,sans-Serif" font-size="10.00">ctime</text>
</g>
<!-- Node2&#45;&gt;Node24 -->
<g id="edge27" class="edge"><title>Node2&#45;&gt;Node24</title>
<path fill="none" stroke="midnightblue" d="M1127.73,-248.444C1159.61,-238.606 1211.77,-222.512 1244.69,-212.352"/>
<polygon fill="midnightblue" stroke="midnightblue" points="1245.73,-215.696 1254.25,-209.403 1243.66,-209.007 1245.73,-215.696"/>
</g>
<!-- Node2&#45;&gt;Node25 -->
<g id="edge31" class="edge"><title>Node2&#45;&gt;Node25</title>
<path fill="none" stroke="midnightblue" d="M1149.42,-250.499C1201.52,-243.252 1286.13,-230.37 1367.79,-212.062"/>
<polygon fill="midnightblue" stroke="midnightblue" points="1368.75,-215.432 1377.73,-209.803 1367.2,-208.606 1368.75,-215.432"/>
</g>
<!-- Node26 -->
<g id="node26" class="node"><title>Node26</title>
<polygon fill="none" stroke="#bfbfbf" points="1314,-192.5 1314,-211.5 1360,-211.5 1360,-192.5 1314,-192.5"/>
<text text-anchor="middle" x="1337" y="-199.5" font-family="Helvetica,sans-Serif" font-size="10.00">stdio.h</text>
</g>
<!-- Node2&#45;&gt;Node26 -->
<g id="edge32" class="edge"><title>Node2&#45;&gt;Node26</title>
<path fill="none" stroke="midnightblue" d="M1141.55,-248.459C1182.88,-239.818 1248.01,-225.802 1304,-212 1304.1,-211.975 1304.2,-211.95 1304.3,-211.925"/>
<polygon fill="midnightblue" stroke="midnightblue" points="1305.15,-215.322 1313.96,-209.439 1303.4,-208.543 1305.15,-215.322"/>
</g>
<!-- Node27 -->
<g id="node27" class="node"><title>Node27</title>
<polygon fill="none" stroke="#bfbfbf" points="776.5,-192.5 776.5,-211.5 825.5,-211.5 825.5,-192.5 776.5,-192.5"/>
<text text-anchor="middle" x="801" y="-199.5" font-family="Helvetica,sans-Serif" font-size="10.00">string.h</text>
</g>
<!-- Node2&#45;&gt;Node27 -->
<g id="edge33" class="edge"><title>Node2&#45;&gt;Node27</title>
<path fill="none" stroke="midnightblue" d="M1050.9,-250.024C999.6,-242.431 916.595,-229.292 835.675,-211.979"/>
<polygon fill="midnightblue" stroke="midnightblue" points="836.334,-208.541 825.82,-209.848 834.854,-215.383 836.334,-208.541"/>
</g>
<!-- Node28 -->
<g id="node28" class="node"><title>Node28</title>
<polygon fill="none" stroke="#bfbfbf" points="844,-192.5 844,-211.5 904,-211.5 904,-192.5 844,-192.5"/>
<text text-anchor="middle" x="874" y="-199.5" font-family="Helvetica,sans-Serif" font-size="10.00">sys/stat.h</text>
</g>
<!-- Node2&#45;&gt;Node28 -->
<g id="edge34" class="edge"><title>Node2&#45;&gt;Node28</title>
<path fill="none" stroke="midnightblue" d="M1064.19,-248.444C1023.28,-238.67 956.528,-222.719 913.963,-212.549"/>
<polygon fill="midnightblue" stroke="midnightblue" points="914.758,-209.14 904.218,-210.22 913.131,-215.949 914.758,-209.14"/>
</g>
<!-- Node29 -->
<g id="node29" class="node"><title>Node29</title>
<polygon fill="none" stroke="#bfbfbf" points="922,-192.5 922,-211.5 990,-211.5 990,-192.5 922,-192.5"/>
<text text-anchor="middle" x="956" y="-199.5" font-family="Helvetica,sans-Serif" font-size="10.00">sys/types.h</text>
</g>
<!-- Node2&#45;&gt;Node29 -->
<g id="edge35" class="edge"><title>Node2&#45;&gt;Node29</title>
<path fill="none" stroke="midnightblue" d="M1077.18,-248.444C1053.17,-239.438 1015.17,-225.189 988.131,-215.049"/>
<polygon fill="midnightblue" stroke="midnightblue" points="989.303,-211.751 978.71,-211.516 986.845,-218.305 989.303,-211.751"/>
</g>
<!-- Node30 -->
<g id="node30" class="node"><title>Node30</title>
<polygon fill="none" stroke="#bfbfbf" points="1008.5,-192.5 1008.5,-211.5 1059.5,-211.5 1059.5,-192.5 1008.5,-192.5"/>
<text text-anchor="middle" x="1034" y="-199.5" font-family="Helvetica,sans-Serif" font-size="10.00">unistd.h</text>
</g>
<!-- Node2&#45;&gt;Node30 -->
<g id="edge36" class="edge"><title>Node2&#45;&gt;Node30</title>
<path fill="none" stroke="midnightblue" d="M1089.4,-248.324C1079.54,-240.263 1064.65,-228.077 1052.78,-218.369"/>
<polygon fill="midnightblue" stroke="midnightblue" points="1054.75,-215.457 1044.8,-211.834 1050.32,-220.875 1054.75,-215.457"/>
</g>
<!-- Node31 -->
<g id="node31" class="node"><title>Node31</title>
<polygon fill="none" stroke="#bfbfbf" points="1078,-192.5 1078,-211.5 1122,-211.5 1122,-192.5 1078,-192.5"/>
<text text-anchor="middle" x="1100" y="-199.5" font-family="Helvetica,sans-Serif" font-size="10.00">fcntl.h</text>
</g>
<!-- Node2&#45;&gt;Node31 -->
<g id="edge37" class="edge"><title>Node2&#45;&gt;Node31</title>
<path fill="none" stroke="midnightblue" d="M1100,-248.083C1100,-241.006 1100,-230.861 1100,-221.986"/>
<polygon fill="midnightblue" stroke="midnightblue" points="1103.5,-221.751 1100,-211.751 1096.5,-221.751 1103.5,-221.751"/>
</g>
<!-- Node3&#45;&gt;Node4 -->
<g id="edge3" class="edge"><title>Node3&#45;&gt;Node4</title>
<path fill="none" stroke="midnightblue" d="M673,-192.342C673,-163.472 673,-70.0477 673,-29.7671"/>
<polygon fill="midnightblue" stroke="midnightblue" points="676.5,-29.7084 673,-19.7085 669.5,-29.7085 676.5,-29.7084"/>
</g>
<!-- Node5 -->
<g id="node5" class="node"><title>Node5</title>
<polygon fill="none" stroke="#bfbfbf" points="701.5,-130.5 701.5,-149.5 774.5,-149.5 774.5,-130.5 701.5,-130.5"/>
<text text-anchor="middle" x="738" y="-137.5" font-family="Helvetica,sans-Serif" font-size="10.00">initializer_list</text>
</g>
<!-- Node3&#45;&gt;Node5 -->
<g id="edge4" class="edge"><title>Node3&#45;&gt;Node5</title>
<path fill="none" stroke="midnightblue" d="M682.313,-192.403C692.449,-183.047 708.864,-167.895 721.252,-156.46"/>
<polygon fill="midnightblue" stroke="midnightblue" points="723.73,-158.935 728.704,-149.581 718.982,-153.792 723.73,-158.935"/>
</g>
<!-- Node3&#45;&gt;Node6 -->
<g id="edge5" class="edge"><title>Node3&#45;&gt;Node6</title>
<path fill="none" stroke="midnightblue" d="M720.283,-195.988C831.938,-184.151 1109.76,-154.7 1205.75,-144.525"/>
<polygon fill="midnightblue" stroke="midnightblue" points="1206.19,-147.998 1215.76,-143.463 1205.45,-141.037 1206.19,-147.998"/>
</g>
<!-- Node7 -->
<g id="node7" class="node"><title>Node7</title>
<polygon fill="none" stroke="#bfbfbf" points="58,-0.5 58,-19.5 110,-19.5 110,-0.5 58,-0.5"/>
<text text-anchor="middle" x="84" y="-7.5" font-family="Helvetica,sans-Serif" font-size="10.00">memory</text>
</g>
<!-- Node3&#45;&gt;Node7 -->
<g id="edge6" class="edge"><title>Node3&#45;&gt;Node7</title>
<path fill="none" stroke="midnightblue" d="M627.047,-192.481C585.638,-184.41 523.265,-171.274 470,-156 382.98,-131.046 357.872,-130.61 278,-88 256.982,-76.787 256.296,-66.6761 235,-56 224.58,-50.7762 161.097,-32.5601 119.83,-20.9681"/>
<polygon fill="midnightblue" stroke="midnightblue" points="120.691,-17.5746 110.118,-18.2468 118.803,-24.315 120.691,-17.5746"/>
</g>
<!-- Node8 -->
<g id="node8" class="node"><title>Node8</title>
<polygon fill="none" stroke="#bfbfbf" points="818,-62.5 818,-81.5 864,-81.5 864,-62.5 818,-62.5"/>
<text text-anchor="middle" x="841" y="-69.5" font-family="Helvetica,sans-Serif" font-size="10.00">atomic</text>
</g>
<!-- Node3&#45;&gt;Node8 -->
<g id="edge7" class="edge"><title>Node3&#45;&gt;Node8</title>
<path fill="none" stroke="midnightblue" d="M707.394,-192.467C730.535,-185.472 760.763,-173.785 783,-156 805.356,-138.12 822.739,-109.403 832.43,-90.8703"/>
<polygon fill="midnightblue" stroke="midnightblue" points="835.647,-92.2632 837.005,-81.7558 829.391,-89.1229 835.647,-92.2632"/>
</g>
<!-- Node9 -->
<g id="node9" class="node"><title>Node9</title>
<polygon fill="none" stroke="#bfbfbf" points="585.5,-130.5 585.5,-149.5 644.5,-149.5 644.5,-130.5 585.5,-130.5"/>
<text text-anchor="middle" x="615" y="-137.5" font-family="Helvetica,sans-Serif" font-size="10.00">exception</text>
</g>
<!-- Node3&#45;&gt;Node9 -->
<g id="edge8" class="edge"><title>Node3&#45;&gt;Node9</title>
<path fill="none" stroke="midnightblue" d="M664.69,-192.403C655.732,-183.136 641.277,-168.183 630.261,-156.788"/>
<polygon fill="midnightblue" stroke="midnightblue" points="632.761,-154.338 623.295,-149.581 627.728,-159.203 632.761,-154.338"/>
</g>
<!-- Node3&#45;&gt;Node10 -->
<g id="edge9" class="edge"><title>Node3&#45;&gt;Node10</title>
<path fill="none" stroke="midnightblue" d="M720.117,-194.049C784.201,-184.399 895.398,-166.902 935,-156 938.147,-155.134 941.393,-154.108 944.606,-153.007"/>
<polygon fill="midnightblue" stroke="midnightblue" points="945.829,-156.286 954.012,-149.556 943.418,-149.714 945.829,-156.286"/>
</g>
<!-- Node11 -->
<g id="node11" class="node"><title>Node11</title>
<g id="a_node11"><a xlink:href="null__mutex_8h.html" target="_top" xlink:title="spdlog/details/null\l_mutex.h">
<polygon fill="none" stroke="black" points="831.5,-125 831.5,-155 926.5,-155 926.5,-125 831.5,-125"/>
<text text-anchor="start" x="839.5" y="-143" font-family="Helvetica,sans-Serif" font-size="10.00">spdlog/details/null</text>
<text text-anchor="middle" x="879" y="-132" font-family="Helvetica,sans-Serif" font-size="10.00">_mutex.h</text>
</a>
</g>
</g>
<!-- Node3&#45;&gt;Node11 -->
<g id="edge10" class="edge"><title>Node3&#45;&gt;Node11</title>
<path fill="none" stroke="midnightblue" d="M702.515,-192.403C733.357,-183.42 782.541,-169.095 821.162,-157.846"/>
<polygon fill="midnightblue" stroke="midnightblue" points="822.62,-161.067 831.242,-154.91 820.662,-154.346 822.62,-161.067"/>
</g>
<!-- Node12 -->
<g id="node12" class="node"><title>Node12</title>
<g id="a_node12"><a xlink:href="fmt_8h.html" target="_top" xlink:title="spdlog/fmt/fmt.h">
<polygon fill="none" stroke="black" points="479,-130.5 479,-149.5 567,-149.5 567,-130.5 479,-130.5"/>
<text text-anchor="middle" x="523" y="-137.5" font-family="Helvetica,sans-Serif" font-size="10.00">spdlog/fmt/fmt.h</text>
</a>
</g>
</g>
<!-- Node3&#45;&gt;Node12 -->
<g id="edge12" class="edge"><title>Node3&#45;&gt;Node12</title>
<path fill="none" stroke="midnightblue" d="M651.509,-192.403C625.89,-182.156 582.89,-164.956 553.755,-153.302"/>
<polygon fill="midnightblue" stroke="midnightblue" points="555.036,-150.045 544.451,-149.581 552.436,-156.544 555.036,-150.045"/>
</g>
<!-- Node11&#45;&gt;Node8 -->
<g id="edge11" class="edge"><title>Node11&#45;&gt;Node8</title>
<path fill="none" stroke="midnightblue" d="M870.755,-124.679C865.006,-114.694 857.298,-101.307 851.168,-90.6596"/>
<polygon fill="midnightblue" stroke="midnightblue" points="854.106,-88.7481 846.083,-81.8283 848.039,-92.2409 854.106,-88.7481"/>
</g>
<!-- Node13 -->
<g id="node13" class="node"><title>Node13</title>
<g id="a_node13"><a xlink:href="format_8h.html" target="_top" xlink:title="spdlog/fmt/bundled\l/format.h">
<polygon fill="none" stroke="black" points="287.5,-57 287.5,-87 386.5,-87 386.5,-57 287.5,-57"/>
<text text-anchor="start" x="295.5" y="-75" font-family="Helvetica,sans-Serif" font-size="10.00">spdlog/fmt/bundled</text>
<text text-anchor="middle" x="337" y="-64" font-family="Helvetica,sans-Serif" font-size="10.00">/format.h</text>
</a>
</g>
</g>
<!-- Node12&#45;&gt;Node13 -->
<g id="edge13" class="edge"><title>Node12&#45;&gt;Node13</title>
<path fill="none" stroke="midnightblue" d="M498.684,-130.372C470.21,-120.268 422.327,-103.277 386.041,-90.4016"/>
<polygon fill="midnightblue" stroke="midnightblue" points="387.208,-87.1019 376.613,-87.0562 384.867,-93.6989 387.208,-87.1019"/>
</g>
<!-- Node13&#45;&gt;Node4 -->
<g id="edge22" class="edge"><title>Node13&#45;&gt;Node4</title>
<path fill="none" stroke="midnightblue" d="M386.528,-58.9661C391.406,-57.9089 396.292,-56.9003 401,-56 504.675,-36.1743 535.102,-43.2336 642.507,-19.7975"/>
<polygon fill="midnightblue" stroke="midnightblue" points="643.442,-23.1751 652.446,-17.5906 641.925,-16.3415 643.442,-23.1751"/>
</g>
<!-- Node13&#45;&gt;Node7 -->
<g id="edge20" class="edge"><title>Node13&#45;&gt;Node7</title>
<path fill="none" stroke="midnightblue" d="M287.386,-59.3688C282.525,-58.2301 277.667,-57.0924 273,-56 207.635,-40.6999 188.921,-37.0692 120.371,-20.3"/>
<polygon fill="midnightblue" stroke="midnightblue" points="120.904,-16.8269 110.358,-17.844 119.236,-23.6254 120.904,-16.8269"/>
</g>
<!-- Node14 -->
<g id="node14" class="node"><title>Node14</title>
<polygon fill="none" stroke="#bfbfbf" points="585.5,-0.5 585.5,-19.5 634.5,-19.5 634.5,-0.5 585.5,-0.5"/>
<text text-anchor="middle" x="610" y="-7.5" font-family="Helvetica,sans-Serif" font-size="10.00">cassert</text>
</g>
<!-- Node13&#45;&gt;Node14 -->
<g id="edge14" class="edge"><title>Node13&#45;&gt;Node14</title>
<path fill="none" stroke="midnightblue" d="M386.584,-59.2377C391.451,-58.1256 396.319,-57.0299 401,-56 475.522,-39.6049 497.038,-38.252 575.322,-20.0524"/>
<polygon fill="midnightblue" stroke="midnightblue" points="576.22,-23.4368 585.158,-17.7473 574.623,-16.6215 576.22,-23.4368"/>
</g>
<!-- Node15 -->
<g id="node15" class="node"><title>Node15</title>
<polygon fill="none" stroke="#bfbfbf" points="128.5,-0.5 128.5,-19.5 175.5,-19.5 175.5,-0.5 128.5,-0.5"/>
<text text-anchor="middle" x="152" y="-7.5" font-family="Helvetica,sans-Serif" font-size="10.00">clocale</text>
</g>
<!-- Node13&#45;&gt;Node15 -->
<g id="edge15" class="edge"><title>Node13&#45;&gt;Node15</title>
<path fill="none" stroke="midnightblue" d="M293.626,-56.9327C260.523,-46.1965 215.594,-31.6252 185.291,-21.7971"/>
<polygon fill="midnightblue" stroke="midnightblue" points="186.205,-18.4141 175.613,-18.6583 184.046,-25.0727 186.205,-18.4141"/>
</g>
<!-- Node16 -->
<g id="node16" class="node"><title>Node16</title>
<polygon fill="none" stroke="#bfbfbf" points="194,-0.5 194,-19.5 238,-19.5 238,-0.5 194,-0.5"/>
<text text-anchor="middle" x="216" y="-7.5" font-family="Helvetica,sans-Serif" font-size="10.00">cmath</text>
</g>
<!-- Node13&#45;&gt;Node16 -->
<g id="edge16" class="edge"><title>Node13&#45;&gt;Node16</title>
<path fill="none" stroke="midnightblue" d="M308.631,-56.9327C288.581,-46.9907 261.899,-33.7601 242.323,-24.0526"/>
<polygon fill="midnightblue" stroke="midnightblue" points="243.857,-20.9069 233.343,-19.6 240.748,-27.1782 243.857,-20.9069"/>
</g>
<!-- Node13&#45;&gt;Node17 -->
<g id="edge17" class="edge"><title>Node13&#45;&gt;Node17</title>
<path fill="none" stroke="midnightblue" d="M386.744,-67.4928C543.92,-56.411 1027.1,-22.3443 1156.08,-13.2508"/>
<polygon fill="midnightblue" stroke="midnightblue" points="1156.7,-16.7153 1166.43,-12.5206 1156.21,-9.73262 1156.7,-16.7153"/>
</g>
<!-- Node18 -->
<g id="node18" class="node"><title>Node18</title>
<polygon fill="none" stroke="#bfbfbf" points="256,-0.5 256,-19.5 302,-19.5 302,-0.5 256,-0.5"/>
<text text-anchor="middle" x="279" y="-7.5" font-family="Helvetica,sans-Serif" font-size="10.00">cstring</text>
</g>
<!-- Node13&#45;&gt;Node18 -->
<g id="edge18" class="edge"><title>Node13&#45;&gt;Node18</title>
<path fill="none" stroke="midnightblue" d="M323.255,-56.7808C314.653,-47.8824 303.548,-36.3943 294.614,-27.1524"/>
<polygon fill="midnightblue" stroke="midnightblue" points="296.906,-24.4879 287.44,-19.7305 291.873,-29.353 296.906,-24.4879"/>
</g>
<!-- Node19 -->
<g id="node19" class="node"><title>Node19</title>
<polygon fill="none" stroke="#bfbfbf" points="320,-0.5 320,-19.5 360,-19.5 360,-0.5 320,-0.5"/>
<text text-anchor="middle" x="340" y="-7.5" font-family="Helvetica,sans-Serif" font-size="10.00">limits</text>
</g>
<!-- Node13&#45;&gt;Node19 -->
<g id="edge19" class="edge"><title>Node13&#45;&gt;Node19</title>
<path fill="none" stroke="midnightblue" d="M337.711,-56.7808C338.115,-48.6913 338.627,-38.4617 339.064,-29.725"/>
<polygon fill="midnightblue" stroke="midnightblue" points="342.56,-29.8929 339.563,-19.7305 335.568,-29.5432 342.56,-29.8929"/>
</g>
<!-- Node20 -->
<g id="node20" class="node"><title>Node20</title>
<polygon fill="none" stroke="#bfbfbf" points="378.5,-0.5 378.5,-19.5 437.5,-19.5 437.5,-0.5 378.5,-0.5"/>
<text text-anchor="middle" x="408" y="-7.5" font-family="Helvetica,sans-Serif" font-size="10.00">stdexcept</text>
</g>
<!-- Node13&#45;&gt;Node20 -->
<g id="edge21" class="edge"><title>Node13&#45;&gt;Node20</title>
<path fill="none" stroke="midnightblue" d="M353.826,-56.7808C364.675,-47.6127 378.777,-35.6957 389.873,-26.3186"/>
<polygon fill="midnightblue" stroke="midnightblue" points="392.29,-28.8585 397.669,-19.7305 387.772,-23.5119 392.29,-28.8585"/>
</g>
<!-- Node21 -->
<g id="node21" class="node"><title>Node21</title>
<polygon fill="none" stroke="#bfbfbf" points="456,-0.5 456,-19.5 500,-19.5 500,-0.5 456,-0.5"/>
<text text-anchor="middle" x="478" y="-7.5" font-family="Helvetica,sans-Serif" font-size="10.00">vector</text>
</g>
<!-- Node13&#45;&gt;Node21 -->
<g id="edge23" class="edge"><title>Node13&#45;&gt;Node21</title>
<path fill="none" stroke="midnightblue" d="M370.058,-56.9327C393.847,-46.81 425.647,-33.2779 448.562,-23.5267"/>
<polygon fill="midnightblue" stroke="midnightblue" points="449.959,-26.7362 457.79,-19.6 447.218,-20.2951 449.959,-26.7362"/>
</g>
<!-- Node22 -->
<g id="node22" class="node"><title>Node22</title>
<polygon fill="none" stroke="#bfbfbf" points="0,-0.5 0,-19.5 40,-19.5 40,-0.5 0,-0.5"/>
<text text-anchor="middle" x="20" y="-7.5" font-family="Helvetica,sans-Serif" font-size="10.00">utility</text>
</g>
<!-- Node13&#45;&gt;Node22 -->
<g id="edge24" class="edge"><title>Node13&#45;&gt;Node22</title>
<path fill="none" stroke="midnightblue" d="M287.373,-62.9864C221.506,-52.2252 107.701,-33.1678 50.2404,-20.007"/>
<polygon fill="midnightblue" stroke="midnightblue" points="50.7291,-16.5258 40.1911,-17.6215 49.1123,-23.3366 50.7291,-16.5258"/>
</g>
<!-- Node23 -->
<g id="node23" class="node"><title>Node23</title>
<polygon fill="none" stroke="#bfbfbf" points="518.5,-0.5 518.5,-19.5 567.5,-19.5 567.5,-0.5 518.5,-0.5"/>
<text text-anchor="middle" x="543" y="-7.5" font-family="Helvetica,sans-Serif" font-size="10.00">stdint.h</text>
</g>
<!-- Node13&#45;&gt;Node23 -->
<g id="edge25" class="edge"><title>Node13&#45;&gt;Node23</title>
<path fill="none" stroke="midnightblue" d="M385.298,-56.9327C423.126,-45.9148 474.821,-30.8579 508.552,-21.0334"/>
<polygon fill="midnightblue" stroke="midnightblue" points="509.786,-24.3196 518.408,-18.1627 507.828,-17.5988 509.786,-24.3196"/>
</g>
<!-- Node32&#45;&gt;Node2 -->
<g id="edge40" class="edge"><title>Node32&#45;&gt;Node2</title>
<path fill="none" stroke="midnightblue" d="M719.102,-312.522C797.019,-301.573 954.652,-279.424 1040.69,-267.334"/>
<polygon fill="midnightblue" stroke="midnightblue" points="1041.4,-270.769 1050.82,-265.911 1040.43,-263.837 1041.4,-270.769"/>
</g>
<!-- Node32&#45;&gt;Node3 -->
<g id="edge39" class="edge"><title>Node32&#45;&gt;Node3</title>
<path fill="none" stroke="midnightblue" d="M673,-304.776C673,-283.971 673,-245.198 673,-221.981"/>
<polygon fill="midnightblue" stroke="midnightblue" points="676.5,-221.707 673,-211.707 669.5,-221.707 676.5,-221.707"/>
</g>
<!-- Node32&#45;&gt;Node4 -->
<g id="edge41" class="edge"><title>Node32&#45;&gt;Node4</title>
<path fill="none" stroke="midnightblue" d="M635.416,-304.944C564.403,-276.113 421.77,-206.046 470,-124 489.395,-91.0063 591.585,-44.8339 643.163,-23.1515"/>
<polygon fill="midnightblue" stroke="midnightblue" points="644.584,-26.3512 652.469,-19.2746 641.892,-19.8895 644.584,-26.3512"/>
</g>
<!-- Node32&#45;&gt;Node22 -->
<g id="edge42" class="edge"><title>Node32&#45;&gt;Node22</title>
<path fill="none" stroke="midnightblue" d="M627.041,-304.984C597.503,-295.532 558.524,-282.225 525,-268 334.289,-187.076 115.601,-65.3744 44.0254,-24.7492"/>
<polygon fill="midnightblue" stroke="midnightblue" points="45.3427,-21.4718 34.9204,-19.5675 41.8804,-27.5556 45.3427,-21.4718"/>
</g>
</g>
</svg>
