<?xml version="1.0" encoding="UTF-8" standalone="no"?>
<!DOCTYPE svg PUBLIC "-//W3C//DTD SVG 1.1//EN"
 "http://www.w3.org/Graphics/SVG/1.1/DTD/svg11.dtd">
<!-- Generated by graphviz version 2.36.0 (20140111.2315)
 -->
<!-- Title: /home/lucamuratore/advr&#45;superbuild/external/XBotInterface/include/spdlog/sinks/file_sinks.h Pages: 1 -->
<svg width="1703pt" height="614pt"
 viewBox="0.00 0.00 1703.00 614.00" xmlns="http://www.w3.org/2000/svg" xmlns:xlink="http://www.w3.org/1999/xlink">
<g id="graph0" class="graph" transform="scale(1 1) rotate(0) translate(4 610)">
<title>/home/lucamuratore/advr&#45;superbuild/external/XBotInterface/include/spdlog/sinks/file_sinks.h</title>
<!-- Node1 -->
<g id="node1" class="node"><title>Node1</title>
<polygon fill="#bfbfbf" stroke="black" points="1304.5,-553 1304.5,-605 1449.5,-605 1449.5,-553 1304.5,-553"/>
<text text-anchor="start" x="1312.5" y="-593" font-family="Helvetica,sans-Serif" font-size="10.00">/home/lucamuratore</text>
<text text-anchor="start" x="1312.5" y="-582" font-family="Helvetica,sans-Serif" font-size="10.00">/advr&#45;superbuild/external</text>
<text text-anchor="start" x="1312.5" y="-571" font-family="Helvetica,sans-Serif" font-size="10.00">/XBotInterface/include/spdlog</text>
<text text-anchor="middle" x="1377" y="-560" font-family="Helvetica,sans-Serif" font-size="10.00">/sinks/file_sinks.h</text>
</g>
<!-- Node2 -->
<g id="node2" class="node"><title>Node2</title>
<g id="a_node2"><a xlink:href="base__sink_8h.html" target="_top" xlink:title="spdlog/sinks/base_sink.h">
<polygon fill="none" stroke="black" points="506.5,-496.5 506.5,-515.5 633.5,-515.5 633.5,-496.5 506.5,-496.5"/>
<text text-anchor="middle" x="570" y="-503.5" font-family="Helvetica,sans-Serif" font-size="10.00">spdlog/sinks/base_sink.h</text>
</a>
</g>
</g>
<!-- Node1&#45;&gt;Node2 -->
<g id="edge1" class="edge"><title>Node1&#45;&gt;Node2</title>
<path fill="none" stroke="midnightblue" d="M1304.32,-571.605C1151.41,-558.152 797.889,-527.05 643.91,-513.503"/>
<polygon fill="midnightblue" stroke="midnightblue" points="643.885,-509.987 633.617,-512.597 643.272,-516.96 643.885,-509.987"/>
</g>
<!-- Node6 -->
<g id="node6" class="node"><title>Node6</title>
<polygon fill="none" stroke="#bfbfbf" points="996.5,-0.5 996.5,-19.5 1037.5,-19.5 1037.5,-0.5 996.5,-0.5"/>
<text text-anchor="middle" x="1017" y="-7.5" font-family="Helvetica,sans-Serif" font-size="10.00">string</text>
</g>
<!-- Node1&#45;&gt;Node6 -->
<g id="edge80" class="edge"><title>Node1&#45;&gt;Node6</title>
<path fill="none" stroke="midnightblue" d="M1449.7,-562.077C1505.48,-545.079 1573,-511.921 1573,-451 1573,-451 1573,-451 1573,-139 1573,-30.3389 1164.61,-13.9134 1047.84,-11.4378"/>
<polygon fill="midnightblue" stroke="midnightblue" points="1047.85,-7.93726 1037.78,-11.2443 1047.71,-14.936 1047.85,-7.93726"/>
</g>
<!-- Node8 -->
<g id="node8" class="node"><title>Node8</title>
<polygon fill="none" stroke="#bfbfbf" points="900,-130.5 900,-149.5 946,-149.5 946,-130.5 900,-130.5"/>
<text text-anchor="middle" x="923" y="-137.5" font-family="Helvetica,sans-Serif" font-size="10.00">chrono</text>
</g>
<!-- Node1&#45;&gt;Node8 -->
<g id="edge76" class="edge"><title>Node1&#45;&gt;Node8</title>
<path fill="none" stroke="midnightblue" d="M1393.37,-552.875C1407.95,-528.041 1427,-488.439 1427,-451 1427,-451 1427,-451 1427,-387 1427,-275.734 1372.5,-235.284 1270,-192 1140.19,-137.183 1090.58,-194.408 955,-156 952.659,-155.337 950.275,-154.519 947.919,-153.611"/>
<polygon fill="midnightblue" stroke="midnightblue" points="949.124,-150.318 938.559,-149.529 946.326,-156.735 949.124,-150.318"/>
</g>
<!-- Node13 -->
<g id="node13" class="node"><title>Node13</title>
<g id="a_node13"><a xlink:href="null__mutex_8h.html" target="_top" xlink:title="spdlog/details/null\l_mutex.h">
<polygon fill="none" stroke="black" points="964.5,-125 964.5,-155 1059.5,-155 1059.5,-125 964.5,-125"/>
<text text-anchor="start" x="972.5" y="-143" font-family="Helvetica,sans-Serif" font-size="10.00">spdlog/details/null</text>
<text text-anchor="middle" x="1012" y="-132" font-family="Helvetica,sans-Serif" font-size="10.00">_mutex.h</text>
</a>
</g>
</g>
<!-- Node1&#45;&gt;Node13 -->
<g id="edge65" class="edge"><title>Node1&#45;&gt;Node13</title>
<path fill="none" stroke="midnightblue" d="M1408.27,-552.798C1433.57,-529.389 1465,-492.041 1465,-451 1465,-451 1465,-451 1465,-387 1465,-295.215 1475.1,-240.221 1397,-192 1343.5,-158.967 1163.6,-146.996 1069.88,-142.932"/>
<polygon fill="midnightblue" stroke="midnightblue" points="1069.85,-139.427 1059.71,-142.507 1069.56,-146.421 1069.85,-139.427"/>
</g>
<!-- Node14 -->
<g id="node14" class="node"><title>Node14</title>
<g id="a_node14"><a xlink:href="fmt_8h.html" target="_top" xlink:title="spdlog/fmt/fmt.h">
<polygon fill="none" stroke="black" points="225,-130.5 225,-149.5 313,-149.5 313,-130.5 225,-130.5"/>
<text text-anchor="middle" x="269" y="-137.5" font-family="Helvetica,sans-Serif" font-size="10.00">spdlog/fmt/fmt.h</text>
</a>
</g>
</g>
<!-- Node1&#45;&gt;Node14 -->
<g id="edge74" class="edge"><title>Node1&#45;&gt;Node14</title>
<path fill="none" stroke="midnightblue" d="M1304.23,-578.515C1073.66,-578.983 362.98,-571.166 167,-460 96.9868,-420.286 41.0062,-376.962 75,-304 109.617,-229.701 196.615,-177.208 241.405,-154.138"/>
<polygon fill="midnightblue" stroke="midnightblue" points="243.187,-157.16 250.546,-149.538 240.04,-150.907 243.187,-157.16"/>
</g>
<!-- Node19 -->
<g id="node19" class="node"><title>Node19</title>
<polygon fill="none" stroke="#bfbfbf" points="1458.5,-0.5 1458.5,-19.5 1501.5,-19.5 1501.5,-0.5 1458.5,-0.5"/>
<text text-anchor="middle" x="1480" y="-7.5" font-family="Helvetica,sans-Serif" font-size="10.00">cstdio</text>
</g>
<!-- Node1&#45;&gt;Node19 -->
<g id="edge77" class="edge"><title>Node1&#45;&gt;Node19</title>
<path fill="none" stroke="midnightblue" d="M1449.53,-572.851C1494.22,-566.098 1549.87,-550.735 1587,-516 1609.49,-494.962 1611,-481.795 1611,-451 1611,-451 1611,-451 1611,-139 1611,-100.6 1612.52,-84.6893 1587,-56 1567.51,-34.0975 1535.62,-22.5563 1511.72,-16.6733"/>
<polygon fill="midnightblue" stroke="midnightblue" points="1512.22,-13.1989 1501.69,-14.418 1510.68,-20.0281 1512.22,-13.1989"/>
</g>
<!-- Node27 -->
<g id="node27" class="node"><title>Node27</title>
<polygon fill="none" stroke="#bfbfbf" points="633.5,-192.5 633.5,-211.5 674.5,-211.5 674.5,-192.5 633.5,-192.5"/>
<text text-anchor="middle" x="654" y="-199.5" font-family="Helvetica,sans-Serif" font-size="10.00">ctime</text>
</g>
<!-- Node1&#45;&gt;Node27 -->
<g id="edge78" class="edge"><title>Node1&#45;&gt;Node27</title>
<path fill="none" stroke="midnightblue" d="M1304.44,-576.466C1154,-571.313 822,-548.856 822,-451 822,-451 822,-451 822,-387 822,-349.157 824.37,-335.232 803,-304 773.366,-260.69 718.498,-230.741 684.252,-215.26"/>
<polygon fill="midnightblue" stroke="midnightblue" points="685.321,-211.907 674.757,-211.099 682.511,-218.319 685.321,-211.907"/>
</g>
<!-- Node37 -->
<g id="node37" class="node"><title>Node37</title>
<polygon fill="none" stroke="#bfbfbf" points="84,-310.5 84,-329.5 128,-329.5 128,-310.5 84,-310.5"/>
<text text-anchor="middle" x="106" y="-317.5" font-family="Helvetica,sans-Serif" font-size="10.00">mutex</text>
</g>
<!-- Node1&#45;&gt;Node37 -->
<g id="edge79" class="edge"><title>Node1&#45;&gt;Node37</title>
<path fill="none" stroke="midnightblue" d="M1304.48,-576.367C1153.52,-572.205 794.766,-558.339 497,-516 379.972,-499.36 348.522,-499.185 237,-460 184.494,-441.551 159.389,-447.757 125,-404 110.545,-385.607 106.701,-358.237 105.872,-340.018"/>
<polygon fill="midnightblue" stroke="midnightblue" points="109.367,-339.717 105.68,-329.785 102.369,-339.849 109.367,-339.717"/>
</g>
<!-- Node38 -->
<g id="node38" class="node"><title>Node38</title>
<g id="a_node38"><a xlink:href="file__helper_8h.html" target="_top" xlink:title="spdlog/details/file\l_helper.h">
<polygon fill="none" stroke="black" points="1224,-373 1224,-403 1316,-403 1316,-373 1224,-373"/>
<text text-anchor="start" x="1232" y="-391" font-family="Helvetica,sans-Serif" font-size="10.00">spdlog/details/file</text>
<text text-anchor="middle" x="1270" y="-380" font-family="Helvetica,sans-Serif" font-size="10.00">_helper.h</text>
</a>
</g>
</g>
<!-- Node1&#45;&gt;Node38 -->
<g id="edge66" class="edge"><title>Node1&#45;&gt;Node38</title>
<path fill="none" stroke="midnightblue" d="M1362.79,-552.902C1341.92,-516.032 1303.26,-447.747 1283.06,-412.069"/>
<polygon fill="midnightblue" stroke="midnightblue" points="1286.09,-410.31 1278.11,-403.332 1279.99,-413.758 1286.09,-410.31"/>
</g>
<!-- Node39 -->
<g id="node39" class="node"><title>Node39</title>
<polygon fill="none" stroke="#bfbfbf" points="1355,-310.5 1355,-329.5 1399,-329.5 1399,-310.5 1355,-310.5"/>
<text text-anchor="middle" x="1377" y="-317.5" font-family="Helvetica,sans-Serif" font-size="10.00">cerrno</text>
</g>
<!-- Node1&#45;&gt;Node39 -->
<g id="edge81" class="edge"><title>Node1&#45;&gt;Node39</title>
<path fill="none" stroke="midnightblue" d="M1377,-552.89C1377,-501.534 1377,-385.499 1377,-339.904"/>
<polygon fill="midnightblue" stroke="midnightblue" points="1380.5,-339.688 1377,-329.688 1373.5,-339.688 1380.5,-339.688"/>
</g>
<!-- Node40 -->
<g id="node40" class="node"><title>Node40</title>
<polygon fill="none" stroke="#bfbfbf" points="1639,-496.5 1639,-515.5 1695,-515.5 1695,-496.5 1639,-496.5"/>
<text text-anchor="middle" x="1667" y="-503.5" font-family="Helvetica,sans-Serif" font-size="10.00">algorithm</text>
</g>
<!-- Node1&#45;&gt;Node40 -->
<g id="edge75" class="edge"><title>Node1&#45;&gt;Node40</title>
<path fill="none" stroke="midnightblue" d="M1449.8,-560.175C1506.74,-546.236 1583.61,-527.416 1628.98,-516.308"/>
<polygon fill="midnightblue" stroke="midnightblue" points="1629.83,-519.703 1638.71,-513.925 1628.17,-512.904 1629.83,-519.703"/>
</g>
<!-- Node3 -->
<g id="node3" class="node"><title>Node3</title>
<g id="a_node3"><a xlink:href="sink_8h.html" target="_top" xlink:title="spdlog/sinks/sink.h">
<polygon fill="none" stroke="black" points="567.5,-440.5 567.5,-459.5 668.5,-459.5 668.5,-440.5 567.5,-440.5"/>
<text text-anchor="middle" x="618" y="-447.5" font-family="Helvetica,sans-Serif" font-size="10.00">spdlog/sinks/sink.h</text>
</a>
</g>
</g>
<!-- Node2&#45;&gt;Node3 -->
<g id="edge2" class="edge"><title>Node2&#45;&gt;Node3</title>
<path fill="none" stroke="midnightblue" d="M577.926,-496.083C584.846,-488.298 595.065,-476.801 603.452,-467.367"/>
<polygon fill="midnightblue" stroke="midnightblue" points="606.194,-469.55 610.221,-459.751 600.962,-464.9 606.194,-469.55"/>
</g>
<!-- Node4 -->
<g id="node4" class="node"><title>Node4</title>
<g id="a_node4"><a xlink:href="log__msg_8h.html" target="_top" xlink:title="spdlog/details/log\l_msg.h">
<polygon fill="none" stroke="black" points="702,-305 702,-335 794,-335 794,-305 702,-305"/>
<text text-anchor="start" x="710" y="-323" font-family="Helvetica,sans-Serif" font-size="10.00">spdlog/details/log</text>
<text text-anchor="middle" x="748" y="-312" font-family="Helvetica,sans-Serif" font-size="10.00">_msg.h</text>
</a>
</g>
</g>
<!-- Node2&#45;&gt;Node4 -->
<g id="edge63" class="edge"><title>Node2&#45;&gt;Node4</title>
<path fill="none" stroke="midnightblue" d="M606.764,-496.448C629.245,-489.671 657.358,-478.237 677,-460 711.461,-428.003 731.828,-375.512 741.372,-345.016"/>
<polygon fill="midnightblue" stroke="midnightblue" points="744.791,-345.799 744.303,-335.216 738.085,-343.794 744.791,-345.799"/>
</g>
<!-- Node5 -->
<g id="node5" class="node"><title>Node5</title>
<g id="a_node5"><a xlink:href="common_8h.html" target="_top" xlink:title="spdlog/common.h">
<polygon fill="none" stroke="black" points="483,-192.5 483,-211.5 577,-211.5 577,-192.5 483,-192.5"/>
<text text-anchor="middle" x="530" y="-199.5" font-family="Helvetica,sans-Serif" font-size="10.00">spdlog/common.h</text>
</a>
</g>
</g>
<!-- Node2&#45;&gt;Node5 -->
<g id="edge62" class="edge"><title>Node2&#45;&gt;Node5</title>
<path fill="none" stroke="midnightblue" d="M563.725,-496.48C550.714,-477.946 522,-432.154 522,-389 522,-389 522,-389 522,-319 522,-284.634 525.538,-244.678 527.908,-221.763"/>
<polygon fill="midnightblue" stroke="midnightblue" points="531.399,-222.033 528.987,-211.717 524.439,-221.286 531.399,-222.033"/>
</g>
<!-- Node35 -->
<g id="node35" class="node"><title>Node35</title>
<g id="a_node35"><a xlink:href="formatter_8h.html" target="_top" xlink:title="spdlog/formatter.h">
<polygon fill="none" stroke="black" points="331.5,-440.5 331.5,-459.5 426.5,-459.5 426.5,-440.5 331.5,-440.5"/>
<text text-anchor="middle" x="379" y="-447.5" font-family="Helvetica,sans-Serif" font-size="10.00">spdlog/formatter.h</text>
</a>
</g>
</g>
<!-- Node2&#45;&gt;Node35 -->
<g id="edge44" class="edge"><title>Node2&#45;&gt;Node35</title>
<path fill="none" stroke="midnightblue" d="M539.735,-496.444C507.045,-487.201 454.818,-472.436 418.817,-462.257"/>
<polygon fill="midnightblue" stroke="midnightblue" points="419.698,-458.869 409.123,-459.516 417.794,-465.605 419.698,-458.869"/>
</g>
<!-- Node2&#45;&gt;Node37 -->
<g id="edge64" class="edge"><title>Node2&#45;&gt;Node37</title>
<path fill="none" stroke="midnightblue" d="M507.551,-496.451C405.487,-481.408 208.888,-447.623 155,-404 133.809,-386.846 119.744,-357.907 112.318,-339.132"/>
<polygon fill="midnightblue" stroke="midnightblue" points="115.558,-337.804 108.79,-329.653 108.998,-340.246 115.558,-337.804"/>
</g>
<!-- Node3&#45;&gt;Node4 -->
<g id="edge3" class="edge"><title>Node3&#45;&gt;Node4</title>
<path fill="none" stroke="midnightblue" d="M626.935,-440.202C647.262,-420.188 697.438,-370.784 726.413,-342.255"/>
<polygon fill="midnightblue" stroke="midnightblue" points="728.966,-344.653 733.636,-335.143 724.055,-339.665 728.966,-344.653"/>
</g>
<!-- Node4&#45;&gt;Node5 -->
<g id="edge4" class="edge"><title>Node4&#45;&gt;Node5</title>
<path fill="none" stroke="midnightblue" d="M721.269,-304.776C678.761,-282.157 596.343,-238.302 554.969,-216.286"/>
<polygon fill="midnightblue" stroke="midnightblue" points="556.558,-213.167 546.085,-211.559 553.269,-219.347 556.558,-213.167"/>
</g>
<!-- Node4&#45;&gt;Node6 -->
<g id="edge42" class="edge"><title>Node4&#45;&gt;Node6</title>
<path fill="none" stroke="midnightblue" d="M794.334,-316.725C910.656,-309.948 1209.99,-285.563 1270,-212 1321.17,-149.277 1248.48,-92.0399 1176,-56 1133.93,-35.0813 1080.61,-22.5105 1047.66,-16.168"/>
<polygon fill="midnightblue" stroke="midnightblue" points="1048.18,-12.7061 1037.71,-14.325 1046.91,-19.5888 1048.18,-12.7061"/>
</g>
<!-- Node24 -->
<g id="node24" class="node"><title>Node24</title>
<polygon fill="none" stroke="#bfbfbf" points="593,-0.5 593,-19.5 633,-19.5 633,-0.5 593,-0.5"/>
<text text-anchor="middle" x="613" y="-7.5" font-family="Helvetica,sans-Serif" font-size="10.00">utility</text>
</g>
<!-- Node4&#45;&gt;Node24 -->
<g id="edge43" class="edge"><title>Node4&#45;&gt;Node24</title>
<path fill="none" stroke="midnightblue" d="M701.896,-310.659C619.384,-294.409 455,-255.453 455,-203 455,-203 455,-203 455,-139 455,-105.053 544.172,-49.8711 588.535,-24.5186"/>
<polygon fill="midnightblue" stroke="midnightblue" points="590.289,-27.5473 597.273,-19.5798 586.845,-21.4533 590.289,-27.5473"/>
</g>
<!-- Node26 -->
<g id="node26" class="node"><title>Node26</title>
<g id="a_node26"><a xlink:href="os_8h.html" target="_top" xlink:title="spdlog/details/os.h">
<polygon fill="none" stroke="black" points="888,-248.5 888,-267.5 986,-267.5 986,-248.5 888,-248.5"/>
<text text-anchor="middle" x="937" y="-255.5" font-family="Helvetica,sans-Serif" font-size="10.00">spdlog/details/os.h</text>
</a>
</g>
</g>
<!-- Node4&#45;&gt;Node26 -->
<g id="edge28" class="edge"><title>Node4&#45;&gt;Node26</title>
<path fill="none" stroke="midnightblue" d="M792.312,-304.933C825.151,-294.508 869.38,-280.467 900.26,-270.663"/>
<polygon fill="midnightblue" stroke="midnightblue" points="901.713,-273.874 910.185,-267.513 899.595,-267.203 901.713,-273.874"/>
</g>
<!-- Node5&#45;&gt;Node6 -->
<g id="edge5" class="edge"><title>Node5&#45;&gt;Node6</title>
<path fill="none" stroke="midnightblue" d="M568.618,-192.496C606.856,-183.537 662.194,-168.959 680,-156 723.659,-124.225 703.44,-84.9835 749,-56 787.96,-31.2149 924.031,-18.0229 985.925,-13.186"/>
<polygon fill="midnightblue" stroke="midnightblue" points="986.527,-16.6505 996.234,-12.4045 985.998,-9.67051 986.527,-16.6505"/>
</g>
<!-- Node7 -->
<g id="node7" class="node"><title>Node7</title>
<polygon fill="none" stroke="#bfbfbf" points="521.5,-130.5 521.5,-149.5 594.5,-149.5 594.5,-130.5 521.5,-130.5"/>
<text text-anchor="middle" x="558" y="-137.5" font-family="Helvetica,sans-Serif" font-size="10.00">initializer_list</text>
</g>
<!-- Node5&#45;&gt;Node7 -->
<g id="edge6" class="edge"><title>Node5&#45;&gt;Node7</title>
<path fill="none" stroke="midnightblue" d="M534.012,-192.403C538.087,-183.671 544.518,-169.889 549.696,-158.794"/>
<polygon fill="midnightblue" stroke="midnightblue" points="552.938,-160.123 553.996,-149.581 546.595,-157.162 552.938,-160.123"/>
</g>
<!-- Node5&#45;&gt;Node8 -->
<g id="edge7" class="edge"><title>Node5&#45;&gt;Node8</title>
<path fill="none" stroke="midnightblue" d="M577.273,-193.912C581.909,-193.251 586.545,-192.603 591,-192 720.578,-174.456 756.01,-187.173 883,-156 886.417,-155.161 889.941,-154.118 893.415,-152.976"/>
<polygon fill="midnightblue" stroke="midnightblue" points="894.7,-156.233 902.944,-149.578 892.349,-149.64 894.7,-156.233"/>
</g>
<!-- Node9 -->
<g id="node9" class="node"><title>Node9</title>
<polygon fill="none" stroke="#bfbfbf" points="62,-0.5 62,-19.5 114,-19.5 114,-0.5 62,-0.5"/>
<text text-anchor="middle" x="88" y="-7.5" font-family="Helvetica,sans-Serif" font-size="10.00">memory</text>
</g>
<!-- Node5&#45;&gt;Node9 -->
<g id="edge8" class="edge"><title>Node5&#45;&gt;Node9</title>
<path fill="none" stroke="midnightblue" d="M505.553,-192.357C445.099,-170.834 290.015,-114.659 242,-88 221.172,-76.4363 219.762,-67.6807 199,-56 175.112,-42.5605 146.395,-31.0306 124.156,-23.0069"/>
<polygon fill="midnightblue" stroke="midnightblue" points="125.029,-19.6034 114.435,-19.5728 122.698,-26.2037 125.029,-19.6034"/>
</g>
<!-- Node10 -->
<g id="node10" class="node"><title>Node10</title>
<polygon fill="none" stroke="#bfbfbf" points="758,-62.5 758,-81.5 804,-81.5 804,-62.5 758,-62.5"/>
<text text-anchor="middle" x="781" y="-69.5" font-family="Helvetica,sans-Serif" font-size="10.00">atomic</text>
</g>
<!-- Node5&#45;&gt;Node10 -->
<g id="edge9" class="edge"><title>Node5&#45;&gt;Node10</title>
<path fill="none" stroke="midnightblue" d="M577.134,-193.205C635.315,-183.237 728.188,-166.066 741,-156 761.504,-139.892 772.114,-110.645 777.117,-91.5227"/>
<polygon fill="midnightblue" stroke="midnightblue" points="780.566,-92.1452 779.447,-81.6096 773.752,-90.5434 780.566,-92.1452"/>
</g>
<!-- Node11 -->
<g id="node11" class="node"><title>Node11</title>
<polygon fill="none" stroke="#bfbfbf" points="612.5,-130.5 612.5,-149.5 671.5,-149.5 671.5,-130.5 612.5,-130.5"/>
<text text-anchor="middle" x="642" y="-137.5" font-family="Helvetica,sans-Serif" font-size="10.00">exception</text>
</g>
<!-- Node5&#45;&gt;Node11 -->
<g id="edge10" class="edge"><title>Node5&#45;&gt;Node11</title>
<path fill="none" stroke="midnightblue" d="M546.047,-192.403C564.593,-182.468 595.34,-165.997 617.022,-154.381"/>
<polygon fill="midnightblue" stroke="midnightblue" points="618.821,-157.388 625.983,-149.581 615.515,-151.218 618.821,-157.388"/>
</g>
<!-- Node12 -->
<g id="node12" class="node"><title>Node12</title>
<polygon fill="none" stroke="#bfbfbf" points="815.5,-130.5 815.5,-149.5 874.5,-149.5 874.5,-130.5 815.5,-130.5"/>
<text text-anchor="middle" x="845" y="-137.5" font-family="Helvetica,sans-Serif" font-size="10.00">functional</text>
</g>
<!-- Node5&#45;&gt;Node12 -->
<g id="edge11" class="edge"><title>Node5&#45;&gt;Node12</title>
<path fill="none" stroke="midnightblue" d="M577.115,-193.906C628.824,-185.852 714.174,-171.767 787,-156 792.926,-154.717 799.161,-153.241 805.256,-151.725"/>
<polygon fill="midnightblue" stroke="midnightblue" points="806.478,-155.026 815.304,-149.166 804.75,-148.242 806.478,-155.026"/>
</g>
<!-- Node5&#45;&gt;Node13 -->
<g id="edge12" class="edge"><title>Node5&#45;&gt;Node13</title>
<path fill="none" stroke="midnightblue" d="M577.261,-196.405C674.2,-186.925 891.092,-165.41 954.279,-155.788"/>
<polygon fill="midnightblue" stroke="midnightblue" points="954.934,-159.227 964.225,-154.135 953.786,-152.322 954.934,-159.227"/>
</g>
<!-- Node5&#45;&gt;Node14 -->
<g id="edge14" class="edge"><title>Node5&#45;&gt;Node14</title>
<path fill="none" stroke="midnightblue" d="M489.463,-192.45C448.418,-183.69 383.162,-169.483 327,-156 321.885,-154.772 316.527,-153.444 311.222,-152.103"/>
<polygon fill="midnightblue" stroke="midnightblue" points="311.718,-148.617 301.163,-149.531 309.984,-155.399 311.718,-148.617"/>
</g>
<!-- Node13&#45;&gt;Node10 -->
<g id="edge13" class="edge"><title>Node13&#45;&gt;Node10</title>
<path fill="none" stroke="midnightblue" d="M964.417,-125.405C919.462,-112.561 853.219,-93.6339 813.859,-82.3881"/>
<polygon fill="midnightblue" stroke="midnightblue" points="814.799,-79.017 804.223,-79.635 812.876,-85.7477 814.799,-79.017"/>
</g>
<!-- Node15 -->
<g id="node15" class="node"><title>Node15</title>
<g id="a_node15"><a xlink:href="format_8h.html" target="_top" xlink:title="spdlog/fmt/bundled\l/format.h">
<polygon fill="none" stroke="black" points="251.5,-57 251.5,-87 350.5,-87 350.5,-57 251.5,-57"/>
<text text-anchor="start" x="259.5" y="-75" font-family="Helvetica,sans-Serif" font-size="10.00">spdlog/fmt/bundled</text>
<text text-anchor="middle" x="301" y="-64" font-family="Helvetica,sans-Serif" font-size="10.00">/format.h</text>
</a>
</g>
</g>
<!-- Node14&#45;&gt;Node15 -->
<g id="edge15" class="edge"><title>Node14&#45;&gt;Node15</title>
<path fill="none" stroke="midnightblue" d="M273.183,-130.372C277.339,-121.8 283.898,-108.272 289.604,-96.5045"/>
<polygon fill="midnightblue" stroke="midnightblue" points="292.911,-97.7066 294.124,-87.1815 286.612,-94.6526 292.911,-97.7066"/>
</g>
<!-- Node15&#45;&gt;Node6 -->
<g id="edge24" class="edge"><title>Node15&#45;&gt;Node6</title>
<path fill="none" stroke="midnightblue" d="M350.711,-62.9483C367.307,-60.4584 385.92,-57.8792 403,-56 626.071,-31.4563 896.257,-16.9019 986.216,-12.4611"/>
<polygon fill="midnightblue" stroke="midnightblue" points="986.461,-15.9535 996.278,-11.9697 986.119,-8.96179 986.461,-15.9535"/>
</g>
<!-- Node15&#45;&gt;Node9 -->
<g id="edge22" class="edge"><title>Node15&#45;&gt;Node9</title>
<path fill="none" stroke="midnightblue" d="M251.33,-57.0084C212.282,-46.009 158.82,-30.9492 123.858,-21.1008"/>
<polygon fill="midnightblue" stroke="midnightblue" points="124.651,-17.6881 114.077,-18.3456 122.753,-24.4259 124.651,-17.6881"/>
</g>
<!-- Node16 -->
<g id="node16" class="node"><title>Node16</title>
<polygon fill="none" stroke="#bfbfbf" points="276.5,-0.5 276.5,-19.5 325.5,-19.5 325.5,-0.5 276.5,-0.5"/>
<text text-anchor="middle" x="301" y="-7.5" font-family="Helvetica,sans-Serif" font-size="10.00">cassert</text>
</g>
<!-- Node15&#45;&gt;Node16 -->
<g id="edge16" class="edge"><title>Node15&#45;&gt;Node16</title>
<path fill="none" stroke="midnightblue" d="M301,-56.7808C301,-48.7812 301,-38.6887 301,-30.0168"/>
<polygon fill="midnightblue" stroke="midnightblue" points="304.5,-29.7305 301,-19.7305 297.5,-29.7306 304.5,-29.7305"/>
</g>
<!-- Node17 -->
<g id="node17" class="node"><title>Node17</title>
<polygon fill="none" stroke="#bfbfbf" points="343.5,-0.5 343.5,-19.5 390.5,-19.5 390.5,-0.5 343.5,-0.5"/>
<text text-anchor="middle" x="367" y="-7.5" font-family="Helvetica,sans-Serif" font-size="10.00">clocale</text>
</g>
<!-- Node15&#45;&gt;Node17 -->
<g id="edge17" class="edge"><title>Node15&#45;&gt;Node17</title>
<path fill="none" stroke="midnightblue" d="M316.641,-56.7808C326.627,-47.7026 339.578,-35.9291 349.845,-26.5951"/>
<polygon fill="midnightblue" stroke="midnightblue" points="352.351,-29.0471 357.396,-19.7305 347.643,-23.8675 352.351,-29.0471"/>
</g>
<!-- Node18 -->
<g id="node18" class="node"><title>Node18</title>
<polygon fill="none" stroke="#bfbfbf" points="409,-0.5 409,-19.5 453,-19.5 453,-0.5 409,-0.5"/>
<text text-anchor="middle" x="431" y="-7.5" font-family="Helvetica,sans-Serif" font-size="10.00">cmath</text>
</g>
<!-- Node15&#45;&gt;Node18 -->
<g id="edge18" class="edge"><title>Node15&#45;&gt;Node18</title>
<path fill="none" stroke="midnightblue" d="M331.479,-56.9327C353.118,-46.9455 381.947,-33.6397 403.006,-23.9205"/>
<polygon fill="midnightblue" stroke="midnightblue" points="404.754,-26.9685 412.367,-19.6 401.82,-20.6128 404.754,-26.9685"/>
</g>
<!-- Node15&#45;&gt;Node19 -->
<g id="edge19" class="edge"><title>Node15&#45;&gt;Node19</title>
<path fill="none" stroke="midnightblue" d="M350.532,-68.4793C549.197,-58.3691 1285.35,-20.9057 1448.04,-12.6265"/>
<polygon fill="midnightblue" stroke="midnightblue" points="1448.52,-16.1065 1458.33,-12.1027 1448.17,-9.11556 1448.52,-16.1065"/>
</g>
<!-- Node20 -->
<g id="node20" class="node"><title>Node20</title>
<polygon fill="none" stroke="#bfbfbf" points="471,-0.5 471,-19.5 517,-19.5 517,-0.5 471,-0.5"/>
<text text-anchor="middle" x="494" y="-7.5" font-family="Helvetica,sans-Serif" font-size="10.00">cstring</text>
</g>
<!-- Node15&#45;&gt;Node20 -->
<g id="edge20" class="edge"><title>Node15&#45;&gt;Node20</title>
<path fill="none" stroke="midnightblue" d="M346.25,-56.9327C381.538,-45.9623 429.706,-30.9876 461.316,-21.1608"/>
<polygon fill="midnightblue" stroke="midnightblue" points="462.45,-24.4737 470.96,-18.1627 460.372,-17.7892 462.45,-24.4737"/>
</g>
<!-- Node21 -->
<g id="node21" class="node"><title>Node21</title>
<polygon fill="none" stroke="#bfbfbf" points="535,-0.5 535,-19.5 575,-19.5 575,-0.5 535,-0.5"/>
<text text-anchor="middle" x="555" y="-7.5" font-family="Helvetica,sans-Serif" font-size="10.00">limits</text>
</g>
<!-- Node15&#45;&gt;Node21 -->
<g id="edge21" class="edge"><title>Node15&#45;&gt;Node21</title>
<path fill="none" stroke="midnightblue" d="M350.603,-59.3216C355.466,-58.1924 360.328,-57.0699 365,-56 433.402,-40.3372 453.448,-38.9753 524.843,-20.1487"/>
<polygon fill="midnightblue" stroke="midnightblue" points="526.016,-23.4586 534.779,-17.5044 524.215,-16.694 526.016,-23.4586"/>
</g>
<!-- Node22 -->
<g id="node22" class="node"><title>Node22</title>
<polygon fill="none" stroke="#bfbfbf" points="132.5,-0.5 132.5,-19.5 191.5,-19.5 191.5,-0.5 132.5,-0.5"/>
<text text-anchor="middle" x="162" y="-7.5" font-family="Helvetica,sans-Serif" font-size="10.00">stdexcept</text>
</g>
<!-- Node15&#45;&gt;Node22 -->
<g id="edge23" class="edge"><title>Node15&#45;&gt;Node22</title>
<path fill="none" stroke="midnightblue" d="M268.411,-56.9327C245.064,-46.8552 213.89,-33.3986 191.323,-23.6575"/>
<polygon fill="midnightblue" stroke="midnightblue" points="192.492,-20.3498 181.923,-19.6 189.717,-26.7766 192.492,-20.3498"/>
</g>
<!-- Node23 -->
<g id="node23" class="node"><title>Node23</title>
<polygon fill="none" stroke="#bfbfbf" points="0,-0.5 0,-19.5 44,-19.5 44,-0.5 0,-0.5"/>
<text text-anchor="middle" x="22" y="-7.5" font-family="Helvetica,sans-Serif" font-size="10.00">vector</text>
</g>
<!-- Node15&#45;&gt;Node23 -->
<g id="edge25" class="edge"><title>Node15&#45;&gt;Node23</title>
<path fill="none" stroke="midnightblue" d="M251.332,-61.9935C203.237,-53.0015 128.073,-38.2385 54.2294,-20.1579"/>
<polygon fill="midnightblue" stroke="midnightblue" points="54.8412,-16.7039 44.2936,-17.7027 53.1619,-23.4995 54.8412,-16.7039"/>
</g>
<!-- Node15&#45;&gt;Node24 -->
<g id="edge26" class="edge"><title>Node15&#45;&gt;Node24</title>
<path fill="none" stroke="midnightblue" d="M350.543,-59.0413C355.418,-57.9689 360.299,-56.9361 365,-56 458.622,-37.3556 486.236,-42.3158 582.923,-19.9782"/>
<polygon fill="midnightblue" stroke="midnightblue" points="583.882,-23.3482 592.817,-17.654 582.281,-16.5337 583.882,-23.3482"/>
</g>
<!-- Node25 -->
<g id="node25" class="node"><title>Node25</title>
<polygon fill="none" stroke="#bfbfbf" points="209.5,-0.5 209.5,-19.5 258.5,-19.5 258.5,-0.5 209.5,-0.5"/>
<text text-anchor="middle" x="234" y="-7.5" font-family="Helvetica,sans-Serif" font-size="10.00">stdint.h</text>
</g>
<!-- Node15&#45;&gt;Node25 -->
<g id="edge27" class="edge"><title>Node15&#45;&gt;Node25</title>
<path fill="none" stroke="midnightblue" d="M285.122,-56.7808C274.985,-47.7026 261.838,-35.9291 251.415,-26.5951"/>
<polygon fill="midnightblue" stroke="midnightblue" points="253.534,-23.7944 243.749,-19.7305 248.864,-29.0091 253.534,-23.7944"/>
</g>
<!-- Node26&#45;&gt;Node5 -->
<g id="edge29" class="edge"><title>Node26&#45;&gt;Node5</title>
<path fill="none" stroke="midnightblue" d="M887.906,-250.486C812.178,-240.439 667.245,-221.209 586.996,-210.562"/>
<polygon fill="midnightblue" stroke="midnightblue" points="587.438,-207.09 577.065,-209.244 586.517,-214.029 587.438,-207.09"/>
</g>
<!-- Node26&#45;&gt;Node6 -->
<g id="edge33" class="edge"><title>Node26&#45;&gt;Node6</title>
<path fill="none" stroke="midnightblue" d="M986.269,-257.405C1065.68,-256.89 1216.48,-250.689 1250,-212 1322.32,-128.539 1125.92,-48.8048 1047.62,-21.1995"/>
<polygon fill="midnightblue" stroke="midnightblue" points="1048.42,-17.7717 1037.82,-17.8008 1046.12,-24.385 1048.42,-17.7717"/>
</g>
<!-- Node26&#45;&gt;Node8 -->
<g id="edge34" class="edge"><title>Node26&#45;&gt;Node8</title>
<path fill="none" stroke="midnightblue" d="M935.948,-248.281C933.687,-229.547 928.322,-185.098 925.255,-159.682"/>
<polygon fill="midnightblue" stroke="midnightblue" points="928.7,-159.013 924.026,-149.505 921.75,-159.852 928.7,-159.013"/>
</g>
<!-- Node26&#45;&gt;Node12 -->
<g id="edge32" class="edge"><title>Node26&#45;&gt;Node12</title>
<path fill="none" stroke="midnightblue" d="M930.085,-248.281C914.826,-229.041 878.054,-182.677 858.216,-157.664"/>
<polygon fill="midnightblue" stroke="midnightblue" points="860.701,-155.165 851.745,-149.505 855.217,-159.515 860.701,-155.165"/>
</g>
<!-- Node26&#45;&gt;Node19 -->
<g id="edge30" class="edge"><title>Node26&#45;&gt;Node19</title>
<path fill="none" stroke="midnightblue" d="M986.145,-254.093C1066.24,-248.737 1220.92,-235.641 1270,-212 1361.95,-167.704 1439.69,-67.9461 1468.27,-28.0056"/>
<polygon fill="midnightblue" stroke="midnightblue" points="1471.15,-30.0063 1474.04,-19.8154 1465.42,-25.9748 1471.15,-30.0063"/>
</g>
<!-- Node26&#45;&gt;Node27 -->
<g id="edge31" class="edge"><title>Node26&#45;&gt;Node27</title>
<path fill="none" stroke="midnightblue" d="M887.68,-249.953C838.538,-242.547 760.793,-229.789 684.368,-211.844"/>
<polygon fill="midnightblue" stroke="midnightblue" points="685.111,-208.422 674.572,-209.512 683.49,-215.232 685.111,-208.422"/>
</g>
<!-- Node28 -->
<g id="node28" class="node"><title>Node28</title>
<polygon fill="none" stroke="#bfbfbf" points="693,-192.5 693,-211.5 737,-211.5 737,-192.5 693,-192.5"/>
<text text-anchor="middle" x="715" y="-199.5" font-family="Helvetica,sans-Serif" font-size="10.00">thread</text>
</g>
<!-- Node26&#45;&gt;Node28 -->
<g id="edge35" class="edge"><title>Node26&#45;&gt;Node28</title>
<path fill="none" stroke="midnightblue" d="M898.079,-248.443C861.497,-240.265 804.993,-227.285 747.329,-212.254"/>
<polygon fill="midnightblue" stroke="midnightblue" points="747.874,-208.779 737.313,-209.626 746.097,-215.55 747.874,-208.779"/>
</g>
<!-- Node29 -->
<g id="node29" class="node"><title>Node29</title>
<polygon fill="none" stroke="#bfbfbf" points="963,-192.5 963,-211.5 1009,-211.5 1009,-192.5 963,-192.5"/>
<text text-anchor="middle" x="986" y="-199.5" font-family="Helvetica,sans-Serif" font-size="10.00">stdio.h</text>
</g>
<!-- Node26&#45;&gt;Node29 -->
<g id="edge36" class="edge"><title>Node26&#45;&gt;Node29</title>
<path fill="none" stroke="midnightblue" d="M945.091,-248.083C952.155,-240.298 962.588,-228.801 971.149,-219.367"/>
<polygon fill="midnightblue" stroke="midnightblue" points="973.931,-221.509 978.059,-211.751 968.747,-216.805 973.931,-221.509"/>
</g>
<!-- Node30 -->
<g id="node30" class="node"><title>Node30</title>
<polygon fill="none" stroke="#bfbfbf" points="1027.5,-192.5 1027.5,-211.5 1076.5,-211.5 1076.5,-192.5 1027.5,-192.5"/>
<text text-anchor="middle" x="1052" y="-199.5" font-family="Helvetica,sans-Serif" font-size="10.00">string.h</text>
</g>
<!-- Node26&#45;&gt;Node30 -->
<g id="edge37" class="edge"><title>Node26&#45;&gt;Node30</title>
<path fill="none" stroke="midnightblue" d="M955.222,-248.444C973.896,-239.675 1003.16,-225.935 1024.62,-215.858"/>
<polygon fill="midnightblue" stroke="midnightblue" points="1026.3,-218.935 1033.86,-211.516 1023.32,-212.599 1026.3,-218.935"/>
</g>
<!-- Node31 -->
<g id="node31" class="node"><title>Node31</title>
<polygon fill="none" stroke="#bfbfbf" points="1095,-192.5 1095,-211.5 1155,-211.5 1155,-192.5 1095,-192.5"/>
<text text-anchor="middle" x="1125" y="-199.5" font-family="Helvetica,sans-Serif" font-size="10.00">sys/stat.h</text>
</g>
<!-- Node26&#45;&gt;Node31 -->
<g id="edge38" class="edge"><title>Node26&#45;&gt;Node31</title>
<path fill="none" stroke="midnightblue" d="M966.789,-248.444C998.829,-239.241 1049.93,-224.562 1085.35,-214.388"/>
<polygon fill="midnightblue" stroke="midnightblue" points="1086.71,-217.641 1095.35,-211.516 1084.77,-210.913 1086.71,-217.641"/>
</g>
<!-- Node32 -->
<g id="node32" class="node"><title>Node32</title>
<polygon fill="none" stroke="#bfbfbf" points="1173,-192.5 1173,-211.5 1241,-211.5 1241,-192.5 1173,-192.5"/>
<text text-anchor="middle" x="1207" y="-199.5" font-family="Helvetica,sans-Serif" font-size="10.00">sys/types.h</text>
</g>
<!-- Node26&#45;&gt;Node32 -->
<g id="edge39" class="edge"><title>Node26&#45;&gt;Node32</title>
<path fill="none" stroke="midnightblue" d="M980.339,-248.44C1025.84,-239.437 1099.47,-224.822 1163,-212 1163.1,-211.98 1163.2,-211.959 1163.3,-211.939"/>
<polygon fill="midnightblue" stroke="midnightblue" points="1163.79,-215.412 1172.89,-209.995 1162.4,-208.551 1163.79,-215.412"/>
</g>
<!-- Node33 -->
<g id="node33" class="node"><title>Node33</title>
<polygon fill="none" stroke="#bfbfbf" points="755.5,-192.5 755.5,-211.5 806.5,-211.5 806.5,-192.5 755.5,-192.5"/>
<text text-anchor="middle" x="781" y="-199.5" font-family="Helvetica,sans-Serif" font-size="10.00">unistd.h</text>
</g>
<!-- Node26&#45;&gt;Node33 -->
<g id="edge40" class="edge"><title>Node26&#45;&gt;Node33</title>
<path fill="none" stroke="midnightblue" d="M912.281,-248.444C886.152,-239.399 844.741,-225.064 815.424,-214.916"/>
<polygon fill="midnightblue" stroke="midnightblue" points="816.198,-211.48 805.603,-211.516 813.908,-218.095 816.198,-211.48"/>
</g>
<!-- Node34 -->
<g id="node34" class="node"><title>Node34</title>
<polygon fill="none" stroke="#bfbfbf" points="825,-192.5 825,-211.5 869,-211.5 869,-192.5 825,-192.5"/>
<text text-anchor="middle" x="847" y="-199.5" font-family="Helvetica,sans-Serif" font-size="10.00">fcntl.h</text>
</g>
<!-- Node26&#45;&gt;Node34 -->
<g id="edge41" class="edge"><title>Node26&#45;&gt;Node34</title>
<path fill="none" stroke="midnightblue" d="M922.54,-248.324C908.5,-239.9 886.952,-226.971 870.457,-217.074"/>
<polygon fill="midnightblue" stroke="midnightblue" points="871.8,-213.798 861.424,-211.655 868.198,-219.801 871.8,-213.798"/>
</g>
<!-- Node35&#45;&gt;Node4 -->
<g id="edge45" class="edge"><title>Node35&#45;&gt;Node4</title>
<path fill="none" stroke="midnightblue" d="M403.784,-440.403C463.677,-419.627 617.245,-366.357 697.473,-338.527"/>
<polygon fill="midnightblue" stroke="midnightblue" points="699.051,-341.684 707.352,-335.1 696.757,-335.071 699.051,-341.684"/>
</g>
<!-- Node35&#45;&gt;Node6 -->
<g id="edge47" class="edge"><title>Node35&#45;&gt;Node6</title>
<path fill="none" stroke="midnightblue" d="M357.517,-440.36C342.608,-433.09 323.889,-421.117 315,-404 308.445,-391.378 310.923,-385.625 315,-372 352.809,-245.637 383.827,-216.351 478,-124 518.498,-84.2853 532.394,-74.54 586,-56 660.321,-30.2957 900.687,-16.5633 986.337,-12.3915"/>
<polygon fill="midnightblue" stroke="midnightblue" points="986.631,-15.8815 996.453,-11.9084 986.297,-8.88946 986.631,-15.8815"/>
</g>
<!-- Node35&#45;&gt;Node9 -->
<g id="edge48" class="edge"><title>Node35&#45;&gt;Node9</title>
<path fill="none" stroke="midnightblue" d="M331.308,-443.053C282.912,-436.069 212.431,-422.976 193,-404 137.6,-349.898 100.066,-100.109 90.4404,-29.5868"/>
<polygon fill="midnightblue" stroke="midnightblue" points="93.8913,-28.9868 89.0941,-19.5403 86.9533,-29.9166 93.8913,-28.9868"/>
</g>
<!-- Node35&#45;&gt;Node23 -->
<g id="edge46" class="edge"><title>Node35&#45;&gt;Node23</title>
<path fill="none" stroke="midnightblue" d="M331.434,-445.719C233.407,-436.108 18,-399.055 18,-259 18,-259 18,-259 18,-139 18,-100.229 19.856,-54.8852 21.0395,-29.9131"/>
<polygon fill="midnightblue" stroke="midnightblue" points="24.5468,-29.8479 21.5411,-19.6884 17.5552,-29.5048 24.5468,-29.8479"/>
</g>
<!-- Node36 -->
<g id="node36" class="node"><title>Node36</title>
<g id="a_node36"><a xlink:href="pattern__formatter__impl_8h.html" target="_top" xlink:title="spdlog/details/pattern\l_formatter_impl.h">
<polygon fill="none" stroke="black" points="324,-373 324,-403 434,-403 434,-373 324,-373"/>
<text text-anchor="start" x="332" y="-391" font-family="Helvetica,sans-Serif" font-size="10.00">spdlog/details/pattern</text>
<text text-anchor="middle" x="379" y="-380" font-family="Helvetica,sans-Serif" font-size="10.00">_formatter_impl.h</text>
</a>
</g>
</g>
<!-- Node35&#45;&gt;Node36 -->
<g id="edge49" class="edge"><title>Node35&#45;&gt;Node36</title>
<path fill="none" stroke="midnightblue" d="M374.099,-440.403C372.572,-433.341 371.991,-422.975 372.356,-413.399"/>
<polygon fill="midnightblue" stroke="midnightblue" points="375.868,-413.386 373.17,-403.141 368.89,-412.832 375.868,-413.386"/>
</g>
<!-- Node36&#45;&gt;Node4 -->
<g id="edge51" class="edge"><title>Node36&#45;&gt;Node4</title>
<path fill="none" stroke="midnightblue" d="M434.23,-379.27C496.244,-370.27 599.753,-354.282 688,-336 689.272,-335.737 690.557,-335.465 691.852,-335.185"/>
<polygon fill="midnightblue" stroke="midnightblue" points="692.91,-338.535 701.899,-332.927 691.375,-331.705 692.91,-338.535"/>
</g>
<!-- Node36&#45;&gt;Node6 -->
<g id="edge58" class="edge"><title>Node36&#45;&gt;Node6</title>
<path fill="none" stroke="midnightblue" d="M381.956,-372.8C391.879,-328.756 428.196,-193.272 512,-124 586.004,-62.8292 888.459,-25.033 986.305,-14.2208"/>
<polygon fill="midnightblue" stroke="midnightblue" points="986.862,-17.681 996.424,-13.1188 986.104,-10.7222 986.862,-17.681"/>
</g>
<!-- Node36&#45;&gt;Node8 -->
<g id="edge54" class="edge"><title>Node36&#45;&gt;Node8</title>
<path fill="none" stroke="midnightblue" d="M394.484,-372.847C439.658,-331.861 571.416,-214.554 624,-192 730.808,-146.189 770.35,-184.577 883,-156 886.41,-155.135 889.93,-154.075 893.402,-152.923"/>
<polygon fill="midnightblue" stroke="midnightblue" points="894.691,-156.179 902.928,-149.515 892.333,-149.588 894.691,-156.179"/>
</g>
<!-- Node36&#45;&gt;Node9 -->
<g id="edge56" class="edge"><title>Node36&#45;&gt;Node9</title>
<path fill="none" stroke="midnightblue" d="M356.922,-372.847C343.288,-363.438 325.98,-350.228 313,-336 213.613,-227.063 228.489,-170.038 135,-56 126.248,-45.324 115.142,-34.5865 105.923,-26.2788"/>
<polygon fill="midnightblue" stroke="midnightblue" points="108.233,-23.6488 98.4146,-19.6663 103.606,-28.9021 108.233,-23.6488"/>
</g>
<!-- Node36&#45;&gt;Node14 -->
<g id="edge53" class="edge"><title>Node36&#45;&gt;Node14</title>
<path fill="none" stroke="midnightblue" d="M362.695,-372.785C352.632,-363.253 340.136,-349.933 332,-336 297.356,-276.675 279.131,-195.898 272.266,-159.786"/>
<polygon fill="midnightblue" stroke="midnightblue" points="275.667,-158.925 270.431,-149.715 268.781,-160.181 275.667,-158.925"/>
</g>
<!-- Node36&#45;&gt;Node23 -->
<g id="edge61" class="edge"><title>Node36&#45;&gt;Node23</title>
<path fill="none" stroke="midnightblue" d="M344.504,-372.841C325.237,-363.951 301.466,-351.28 283,-336 165.149,-238.484 63.9741,-80.4301 32.2835,-28.2928"/>
<polygon fill="midnightblue" stroke="midnightblue" points="35.1925,-26.3387 27.0362,-19.5766 29.1954,-29.9491 35.1925,-26.3387"/>
</g>
<!-- Node36&#45;&gt;Node24 -->
<g id="edge60" class="edge"><title>Node36&#45;&gt;Node24</title>
<path fill="none" stroke="midnightblue" d="M374.739,-372.819C360.539,-322.384 320.238,-149.713 403,-56 455.226,3.13635 500.896,-36.8603 582.883,-19.863"/>
<polygon fill="midnightblue" stroke="midnightblue" points="583.843,-23.2333 592.795,-17.5663 582.263,-16.414 583.843,-23.2333"/>
</g>
<!-- Node36&#45;&gt;Node26 -->
<g id="edge52" class="edge"><title>Node36&#45;&gt;Node26</title>
<path fill="none" stroke="midnightblue" d="M434.027,-379.633C501.644,-370.066 612.069,-352.617 650,-336 671.82,-326.441 671.162,-313.519 693,-304 752.661,-277.993 826.892,-267.01 877.713,-262.375"/>
<polygon fill="midnightblue" stroke="midnightblue" points="878.206,-265.846 887.87,-261.505 877.608,-258.871 878.206,-265.846"/>
</g>
<!-- Node36&#45;&gt;Node27 -->
<g id="edge55" class="edge"><title>Node36&#45;&gt;Node27</title>
<path fill="none" stroke="midnightblue" d="M434.28,-383.699C476.215,-378.728 533.379,-366.405 574,-336 613.787,-306.22 637.769,-250.315 648.068,-221.387"/>
<polygon fill="midnightblue" stroke="midnightblue" points="651.445,-222.326 651.35,-211.732 644.818,-220.074 651.445,-222.326"/>
</g>
<!-- Node36&#45;&gt;Node28 -->
<g id="edge59" class="edge"><title>Node36&#45;&gt;Node28</title>
<path fill="none" stroke="midnightblue" d="M434.176,-378.569C490.998,-369.165 575.074,-353.021 603,-336 650.96,-306.768 688.368,-249.771 705.228,-220.81"/>
<polygon fill="midnightblue" stroke="midnightblue" points="708.434,-222.253 710.319,-211.827 702.344,-218.802 708.434,-222.253"/>
</g>
<!-- Node36&#45;&gt;Node35 -->
<g id="edge50" class="edge"><title>Node36&#45;&gt;Node35</title>
<path fill="none" stroke="midnightblue" d="M384.83,-403.141C385.873,-411.272 386.029,-421.585 385.299,-430.371"/>
<polygon fill="midnightblue" stroke="midnightblue" points="381.815,-430.016 383.901,-440.403 388.748,-430.982 381.815,-430.016"/>
</g>
<!-- Node36&#45;&gt;Node37 -->
<g id="edge57" class="edge"><title>Node36&#45;&gt;Node37</title>
<path fill="none" stroke="midnightblue" d="M323.754,-373.644C267.96,-360.155 183.689,-339.782 138.071,-328.753"/>
<polygon fill="midnightblue" stroke="midnightblue" points="138.688,-325.302 128.146,-326.354 137.043,-332.106 138.688,-325.302"/>
</g>
<!-- Node38&#45;&gt;Node4 -->
<g id="edge68" class="edge"><title>Node38&#45;&gt;Node4</title>
<path fill="none" stroke="midnightblue" d="M1223.82,-381.938C1145.85,-373.281 983.185,-354.744 846,-336 832.546,-334.162 818.078,-332.032 804.498,-329.965"/>
<polygon fill="midnightblue" stroke="midnightblue" points="804.733,-326.46 794.318,-328.402 803.671,-333.379 804.733,-326.46"/>
</g>
<!-- Node38&#45;&gt;Node6 -->
<g id="edge71" class="edge"><title>Node38&#45;&gt;Node6</title>
<path fill="none" stroke="midnightblue" d="M1272.88,-372.767C1277.15,-354.826 1286.7,-323.928 1305,-304 1370.21,-232.979 1497,-299.42 1497,-203 1497,-203 1497,-203 1497,-139 1497,-45.6124 1153.5,-18.6265 1047.66,-12.5283"/>
<polygon fill="midnightblue" stroke="midnightblue" points="1047.8,-9.03076 1037.62,-11.9721 1047.42,-16.02 1047.8,-9.03076"/>
</g>
<!-- Node38&#45;&gt;Node8 -->
<g id="edge69" class="edge"><title>Node38&#45;&gt;Node8</title>
<path fill="none" stroke="midnightblue" d="M1270.72,-372.845C1272.45,-332.385 1275.02,-217.509 1250,-192 1203.75,-144.855 1018.47,-174.244 955,-156 952.662,-155.328 950.28,-154.504 947.924,-153.592"/>
<polygon fill="midnightblue" stroke="midnightblue" points="949.131,-150.299 938.566,-149.504 946.329,-156.714 949.131,-150.299"/>
</g>
<!-- Node38&#45;&gt;Node19 -->
<g id="edge70" class="edge"><title>Node38&#45;&gt;Node19</title>
<path fill="none" stroke="midnightblue" d="M1278.89,-372.774C1291.45,-353.949 1316.19,-321.149 1346,-304 1411.06,-266.568 1454.37,-317.264 1511,-268 1534.23,-247.788 1535,-233.795 1535,-203 1535,-203 1535,-203 1535,-139 1535,-100.6 1527.44,-90.7039 1511,-56 1506.29,-46.0518 1499.48,-35.8771 1493.44,-27.7249"/>
<polygon fill="midnightblue" stroke="midnightblue" points="1496.2,-25.5714 1487.33,-19.7792 1490.65,-29.8394 1496.2,-25.5714"/>
</g>
<!-- Node38&#45;&gt;Node26 -->
<g id="edge67" class="edge"><title>Node38&#45;&gt;Node26</title>
<path fill="none" stroke="midnightblue" d="M1233.41,-372.936C1167.79,-347.713 1031.17,-295.197 969.019,-271.308"/>
<polygon fill="midnightblue" stroke="midnightblue" points="969.947,-267.915 959.357,-267.594 967.435,-274.449 969.947,-267.915"/>
</g>
<!-- Node38&#45;&gt;Node28 -->
<g id="edge72" class="edge"><title>Node38&#45;&gt;Node28</title>
<path fill="none" stroke="midnightblue" d="M1223.75,-378.298C1179.06,-369.406 1109.69,-354.325 1051,-336 972.534,-311.5 955.431,-298.255 879,-268 832.676,-249.663 779.004,-228.384 746.027,-215.306"/>
<polygon fill="midnightblue" stroke="midnightblue" points="747.074,-211.957 736.488,-211.524 744.494,-218.464 747.074,-211.957"/>
</g>
<!-- Node38&#45;&gt;Node39 -->
<g id="edge73" class="edge"><title>Node38&#45;&gt;Node39</title>
<path fill="none" stroke="midnightblue" d="M1292.95,-372.841C1311.05,-361.681 1336.15,-346.198 1354.2,-335.063"/>
<polygon fill="midnightblue" stroke="midnightblue" points="1356.25,-337.911 1362.92,-329.682 1352.58,-331.953 1356.25,-337.911"/>
</g>
</g>
</svg>
