<?xml version="1.0" encoding="UTF-8" standalone="no"?>
<!DOCTYPE svg PUBLIC "-//W3C//DTD SVG 1.1//EN"
 "http://www.w3.org/Graphics/SVG/1.1/DTD/svg11.dtd">
<!-- Generated by graphviz version 2.36.0 (20140111.2315)
 -->
<!-- Title: /home/lucamuratore/advr&#45;superbuild/external/XBotInterface/include/XBotInterface/ForceTorqueSensor.h Pages: 1 -->
<svg width="569pt" height="186pt"
 viewBox="0.00 0.00 569.00 186.00" xmlns="http://www.w3.org/2000/svg" xmlns:xlink="http://www.w3.org/1999/xlink">
<g id="graph0" class="graph" transform="scale(1 1) rotate(0) translate(4 182)">
<title>/home/lucamuratore/advr&#45;superbuild/external/XBotInterface/include/XBotInterface/ForceTorqueSensor.h</title>
<!-- Node1 -->
<g id="node1" class="node"><title>Node1</title>
<polygon fill="#bfbfbf" stroke="black" points="204,-125 204,-177 380,-177 380,-125 204,-125"/>
<text text-anchor="start" x="212" y="-165" font-family="Helvetica,sans-Serif" font-size="10.00">/home/lucamuratore</text>
<text text-anchor="start" x="212" y="-154" font-family="Helvetica,sans-Serif" font-size="10.00">/advr&#45;superbuild/external</text>
<text text-anchor="start" x="212" y="-143" font-family="Helvetica,sans-Serif" font-size="10.00">/XBotInterface/include/XBotInterface</text>
<text text-anchor="middle" x="292" y="-132" font-family="Helvetica,sans-Serif" font-size="10.00">/ForceTorqueSensor.h</text>
</g>
<!-- Node2 -->
<g id="node2" class="node"><title>Node2</title>
<polygon fill="none" stroke="#bfbfbf" points="-0.5,-6.5 -0.5,-25.5 40.5,-25.5 40.5,-6.5 -0.5,-6.5"/>
<text text-anchor="middle" x="20" y="-13.5" font-family="Helvetica,sans-Serif" font-size="10.00">string</text>
</g>
<!-- Node1&#45;&gt;Node2 -->
<g id="edge1" class="edge"><title>Node1&#45;&gt;Node2</title>
<path fill="none" stroke="midnightblue" d="M209.225,-124.943C180.581,-114.989 148.726,-102.444 121,-88 90.1744,-71.9411 57.8743,-47.7376 38.3371,-32.1519"/>
<polygon fill="midnightblue" stroke="midnightblue" points="40.2854,-29.2262 30.3097,-25.6575 35.8826,-34.6682 40.2854,-29.2262"/>
</g>
<!-- Node3 -->
<g id="node3" class="node"><title>Node3</title>
<polygon fill="none" stroke="#bfbfbf" points="59,-6.5 59,-25.5 111,-25.5 111,-6.5 59,-6.5"/>
<text text-anchor="middle" x="85" y="-13.5" font-family="Helvetica,sans-Serif" font-size="10.00">memory</text>
</g>
<!-- Node1&#45;&gt;Node3 -->
<g id="edge2" class="edge"><title>Node1&#45;&gt;Node3</title>
<path fill="none" stroke="midnightblue" d="M213.584,-124.855C190.286,-115.352 165.528,-103.098 145,-88 124.76,-73.1134 106.947,-50.074 96.0946,-34.304"/>
<polygon fill="midnightblue" stroke="midnightblue" points="98.7314,-31.9486 90.2777,-25.5622 92.9037,-35.8265 98.7314,-31.9486"/>
</g>
<!-- Node4 -->
<g id="node4" class="node"><title>Node4</title>
<polygon fill="none" stroke="#bfbfbf" points="129,-6.5 129,-25.5 183,-25.5 183,-6.5 129,-6.5"/>
<text text-anchor="middle" x="156" y="-13.5" font-family="Helvetica,sans-Serif" font-size="10.00">iostream</text>
</g>
<!-- Node1&#45;&gt;Node4 -->
<g id="edge3" class="edge"><title>Node1&#45;&gt;Node4</title>
<path fill="none" stroke="midnightblue" d="M203.892,-127.773C184.609,-118.659 166.534,-105.88 155,-88 144.998,-72.4952 147.033,-50.8509 150.449,-35.546"/>
<polygon fill="midnightblue" stroke="midnightblue" points="153.88,-36.2611 153.029,-25.7006 147.109,-34.4872 153.88,-36.2611"/>
</g>
<!-- Node5 -->
<g id="node5" class="node"><title>Node5</title>
<polygon fill="none" stroke="#bfbfbf" points="448,-68.5 448,-87.5 512,-87.5 512,-68.5 448,-68.5"/>
<text text-anchor="middle" x="480" y="-75.5" font-family="Helvetica,sans-Serif" font-size="10.00">kdl/kdl.hpp</text>
</g>
<!-- Node1&#45;&gt;Node5 -->
<g id="edge4" class="edge"><title>Node1&#45;&gt;Node5</title>
<path fill="none" stroke="midnightblue" d="M358.282,-124.968C388.572,-113.529 423.079,-100.497 447.597,-91.2373"/>
<polygon fill="midnightblue" stroke="midnightblue" points="449.007,-94.4463 457.125,-87.6389 446.534,-87.8977 449.007,-94.4463"/>
</g>
<!-- Node6 -->
<g id="node6" class="node"><title>Node6</title>
<polygon fill="none" stroke="#bfbfbf" points="201,-1 201,-31 325,-31 325,-1 201,-1"/>
<text text-anchor="start" x="209" y="-19" font-family="Helvetica,sans-Serif" font-size="10.00">eigen_conversions/eigen</text>
<text text-anchor="middle" x="263" y="-8" font-family="Helvetica,sans-Serif" font-size="10.00">_kdl.h</text>
</g>
<!-- Node1&#45;&gt;Node6 -->
<g id="edge5" class="edge"><title>Node1&#45;&gt;Node6</title>
<path fill="none" stroke="midnightblue" d="M313.077,-124.915C324.186,-108.512 333.847,-86.7327 325,-68 319.071,-55.4464 308.37,-44.9407 297.507,-36.7898"/>
<polygon fill="midnightblue" stroke="midnightblue" points="299.448,-33.8763 289.245,-31.0208 295.44,-39.6156 299.448,-33.8763"/>
</g>
<!-- Node7 -->
<g id="node7" class="node"><title>Node7</title>
<polygon fill="none" stroke="#bfbfbf" points="343.5,-6.5 343.5,-25.5 430.5,-25.5 430.5,-6.5 343.5,-6.5"/>
<text text-anchor="middle" x="387" y="-13.5" font-family="Helvetica,sans-Serif" font-size="10.00">Eigen/Geometry</text>
</g>
<!-- Node1&#45;&gt;Node7 -->
<g id="edge6" class="edge"><title>Node1&#45;&gt;Node7</title>
<path fill="none" stroke="midnightblue" d="M312.814,-124.774C321.738,-113.678 332.129,-100.378 341,-88 353.774,-70.1771 367.294,-48.9946 376.345,-34.4328"/>
<polygon fill="midnightblue" stroke="midnightblue" points="379.324,-36.2702 381.595,-25.9216 373.366,-32.5953 379.324,-36.2702"/>
</g>
<!-- Node8 -->
<g id="node8" class="node"><title>Node8</title>
<polygon fill="none" stroke="#bfbfbf" points="448.5,-6.5 448.5,-25.5 561.5,-25.5 561.5,-6.5 448.5,-6.5"/>
<text text-anchor="middle" x="505" y="-13.5" font-family="Helvetica,sans-Serif" font-size="10.00">srdfdom_advr/model.h</text>
</g>
<!-- Node1&#45;&gt;Node8 -->
<g id="edge7" class="edge"><title>Node1&#45;&gt;Node8</title>
<path fill="none" stroke="midnightblue" d="M332.064,-124.984C376.535,-97.2155 446.738,-53.3799 482.478,-31.0629"/>
<polygon fill="midnightblue" stroke="midnightblue" points="484.563,-33.8877 491.191,-25.6224 480.855,-27.9501 484.563,-33.8877"/>
</g>
<!-- Node9 -->
<g id="node9" class="node"><title>Node9</title>
<g id="a_node9"><a xlink:href="GenericSensor_8h.html" target="_top" xlink:title="XBotInterface/GenericSensor.h">
<polygon fill="none" stroke="black" points="164,-68.5 164,-87.5 316,-87.5 316,-68.5 164,-68.5"/>
<text text-anchor="middle" x="240" y="-75.5" font-family="Helvetica,sans-Serif" font-size="10.00">XBotInterface/GenericSensor.h</text>
</a>
</g>
</g>
<!-- Node1&#45;&gt;Node9 -->
<g id="edge8" class="edge"><title>Node1&#45;&gt;Node9</title>
<path fill="none" stroke="midnightblue" d="M273.52,-124.768C266.501,-115.183 258.681,-104.506 252.361,-95.8768"/>
<polygon fill="midnightblue" stroke="midnightblue" points="255.146,-93.7568 246.414,-87.7572 249.499,-97.8929 255.146,-93.7568"/>
</g>
<!-- Node9&#45;&gt;Node2 -->
<g id="edge9" class="edge"><title>Node9&#45;&gt;Node2</title>
<path fill="none" stroke="midnightblue" d="M190.276,-68.4895C151.402,-61.0608 96.3643,-48.8246 50,-32 48.3442,-31.3991 46.6608,-30.7308 44.9794,-30.0194"/>
<polygon fill="midnightblue" stroke="midnightblue" points="46.1218,-26.6906 35.5789,-25.6428 43.1673,-33.0365 46.1218,-26.6906"/>
</g>
<!-- Node9&#45;&gt;Node3 -->
<g id="edge10" class="edge"><title>Node9&#45;&gt;Node3</title>
<path fill="none" stroke="midnightblue" d="M215.968,-68.358C191.652,-59.5271 153.036,-45.2653 120,-32 118.114,-31.2425 116.175,-30.4506 114.225,-29.6434"/>
<polygon fill="midnightblue" stroke="midnightblue" points="115.13,-26.2268 104.556,-25.5694 112.412,-32.6776 115.13,-26.2268"/>
</g>
<!-- Node9&#45;&gt;Node4 -->
<g id="edge11" class="edge"><title>Node9&#45;&gt;Node4</title>
<path fill="none" stroke="midnightblue" d="M227.965,-68.4035C214.492,-58.7797 192.434,-43.0242 176.285,-31.4891"/>
<polygon fill="midnightblue" stroke="midnightblue" points="178.185,-28.5449 168.013,-25.5806 174.116,-34.2411 178.185,-28.5449"/>
</g>
<!-- Node9&#45;&gt;Node6 -->
<g id="edge13" class="edge"><title>Node9&#45;&gt;Node6</title>
<path fill="none" stroke="midnightblue" d="M243.295,-68.4035C246.061,-61.1886 250.148,-50.5277 253.883,-40.7823"/>
<polygon fill="midnightblue" stroke="midnightblue" points="257.268,-41.7311 257.579,-31.1408 250.732,-39.2255 257.268,-41.7311"/>
</g>
<!-- Node9&#45;&gt;Node7 -->
<g id="edge12" class="edge"><title>Node9&#45;&gt;Node7</title>
<path fill="none" stroke="midnightblue" d="M261.062,-68.4035C286.059,-58.2004 327.942,-41.1055 356.487,-29.4544"/>
<polygon fill="midnightblue" stroke="midnightblue" points="358.042,-32.6001 365.978,-25.5806 355.396,-26.1192 358.042,-32.6001"/>
</g>
<!-- Node9&#45;&gt;Node8 -->
<g id="edge14" class="edge"><title>Node9&#45;&gt;Node8</title>
<path fill="none" stroke="midnightblue" d="M277.782,-68.4691C317.813,-59.4275 382.865,-44.7258 439,-32 444.873,-30.6686 451.04,-29.269 457.147,-27.8821"/>
<polygon fill="midnightblue" stroke="midnightblue" points="458.331,-31.2024 467.307,-25.574 456.78,-24.3763 458.331,-31.2024"/>
</g>
</g>
</svg>
