<?xml version="1.0" encoding="UTF-8" standalone="no"?>
<!DOCTYPE svg PUBLIC "-//W3C//DTD SVG 1.1//EN"
 "http://www.w3.org/Graphics/SVG/1.1/DTD/svg11.dtd">
<!-- Generated by graphviz version 2.36.0 (20140111.2315)
 -->
<!-- Title: /home/lucamuratore/advr&#45;superbuild/external/XBotInterface/include/spdlog/fmt/bundled/format.cc Pages: 1 -->
<svg width="765pt" height="174pt"
 viewBox="0.00 0.00 765.00 174.00" xmlns="http://www.w3.org/2000/svg" xmlns:xlink="http://www.w3.org/1999/xlink">
<g id="graph0" class="graph" transform="scale(1 1) rotate(0) translate(4 170)">
<title>/home/lucamuratore/advr&#45;superbuild/external/XBotInterface/include/spdlog/fmt/bundled/format.cc</title>
<!-- Node1 -->
<g id="node1" class="node"><title>Node1</title>
<polygon fill="#bfbfbf" stroke="black" points="433.5,-113 433.5,-165 578.5,-165 578.5,-113 433.5,-113"/>
<text text-anchor="start" x="441.5" y="-153" font-family="Helvetica,sans-Serif" font-size="10.00">/home/lucamuratore</text>
<text text-anchor="start" x="441.5" y="-142" font-family="Helvetica,sans-Serif" font-size="10.00">/advr&#45;superbuild/external</text>
<text text-anchor="start" x="441.5" y="-131" font-family="Helvetica,sans-Serif" font-size="10.00">/XBotInterface/include/spdlog</text>
<text text-anchor="middle" x="506" y="-120" font-family="Helvetica,sans-Serif" font-size="10.00">/fmt/bundled/format.cc</text>
</g>
<!-- Node2 -->
<g id="node2" class="node"><title>Node2</title>
<g id="a_node2"><a xlink:href="format_8h.html" target="_top" xlink:title="format.h">
<polygon fill="none" stroke="black" points="313.5,-56.5 313.5,-75.5 366.5,-75.5 366.5,-56.5 313.5,-56.5"/>
<text text-anchor="middle" x="340" y="-63.5" font-family="Helvetica,sans-Serif" font-size="10.00">format.h</text>
</a>
</g>
</g>
<!-- Node1&#45;&gt;Node2 -->
<g id="edge1" class="edge"><title>Node1&#45;&gt;Node2</title>
<path fill="none" stroke="midnightblue" d="M447.475,-112.968C421.086,-101.681 391.072,-88.8441 369.482,-79.6097"/>
<polygon fill="midnightblue" stroke="midnightblue" points="370.769,-76.3534 360.198,-75.6389 368.016,-82.7895 370.769,-76.3534"/>
</g>
<!-- Node5 -->
<g id="node5" class="node"><title>Node5</title>
<polygon fill="none" stroke="#bfbfbf" points="0,-0.5 0,-19.5 44,-19.5 44,-0.5 0,-0.5"/>
<text text-anchor="middle" x="22" y="-7.5" font-family="Helvetica,sans-Serif" font-size="10.00">cmath</text>
</g>
<!-- Node1&#45;&gt;Node5 -->
<g id="edge18" class="edge"><title>Node1&#45;&gt;Node5</title>
<path fill="none" stroke="midnightblue" d="M433.476,-119.514C344.102,-96.631 187.657,-56.2383 54,-20 53.899,-19.9726 53.7979,-19.9452 53.6966,-19.9177"/>
<polygon fill="midnightblue" stroke="midnightblue" points="54.5893,-16.5333 44.0189,-17.2515 52.7301,-23.2819 54.5893,-16.5333"/>
</g>
<!-- Node15 -->
<g id="node15" class="node"><title>Node15</title>
<polygon fill="none" stroke="#bfbfbf" points="384.5,-56.5 384.5,-75.5 433.5,-75.5 433.5,-56.5 384.5,-56.5"/>
<text text-anchor="middle" x="409" y="-63.5" font-family="Helvetica,sans-Serif" font-size="10.00">string.h</text>
</g>
<!-- Node1&#45;&gt;Node15 -->
<g id="edge14" class="edge"><title>Node1&#45;&gt;Node15</title>
<path fill="none" stroke="midnightblue" d="M471.801,-112.968C457.581,-102.559 441.558,-90.8313 429.257,-81.827"/>
<polygon fill="midnightblue" stroke="midnightblue" points="431.172,-78.8917 421.036,-75.8095 427.038,-84.5403 431.172,-78.8917"/>
</g>
<!-- Node16 -->
<g id="node16" class="node"><title>Node16</title>
<polygon fill="none" stroke="#bfbfbf" points="452,-56.5 452,-75.5 498,-75.5 498,-56.5 452,-56.5"/>
<text text-anchor="middle" x="475" y="-63.5" font-family="Helvetica,sans-Serif" font-size="10.00">cctype</text>
</g>
<!-- Node1&#45;&gt;Node16 -->
<g id="edge15" class="edge"><title>Node1&#45;&gt;Node16</title>
<path fill="none" stroke="midnightblue" d="M494.983,-112.768C490.975,-103.587 486.528,-93.4034 482.849,-84.9775"/>
<polygon fill="midnightblue" stroke="midnightblue" points="486.033,-83.5212 478.824,-75.7572 479.617,-86.3222 486.033,-83.5212"/>
</g>
<!-- Node17 -->
<g id="node17" class="node"><title>Node17</title>
<polygon fill="none" stroke="#bfbfbf" points="516,-56.5 516,-75.5 560,-75.5 560,-56.5 516,-56.5"/>
<text text-anchor="middle" x="538" y="-63.5" font-family="Helvetica,sans-Serif" font-size="10.00">cerrno</text>
</g>
<!-- Node1&#45;&gt;Node17 -->
<g id="edge16" class="edge"><title>Node1&#45;&gt;Node17</title>
<path fill="none" stroke="midnightblue" d="M517.372,-112.768C521.51,-103.587 526.1,-93.4034 529.897,-84.9775"/>
<polygon fill="midnightblue" stroke="midnightblue" points="533.135,-86.3121 534.053,-75.7572 526.753,-83.4358 533.135,-86.3121"/>
</g>
<!-- Node18 -->
<g id="node18" class="node"><title>Node18</title>
<polygon fill="none" stroke="#bfbfbf" points="578.5,-56.5 578.5,-75.5 623.5,-75.5 623.5,-56.5 578.5,-56.5"/>
<text text-anchor="middle" x="601" y="-63.5" font-family="Helvetica,sans-Serif" font-size="10.00">climits</text>
</g>
<!-- Node1&#45;&gt;Node18 -->
<g id="edge17" class="edge"><title>Node1&#45;&gt;Node18</title>
<path fill="none" stroke="midnightblue" d="M539.493,-112.968C553.421,-102.559 569.113,-90.8313 581.161,-81.827"/>
<polygon fill="midnightblue" stroke="midnightblue" points="583.298,-84.5996 589.213,-75.8095 579.107,-78.9925 583.298,-84.5996"/>
</g>
<!-- Node19 -->
<g id="node19" class="node"><title>Node19</title>
<polygon fill="none" stroke="#bfbfbf" points="641.5,-56.5 641.5,-75.5 690.5,-75.5 690.5,-56.5 641.5,-56.5"/>
<text text-anchor="middle" x="666" y="-63.5" font-family="Helvetica,sans-Serif" font-size="10.00">cstdarg</text>
</g>
<!-- Node1&#45;&gt;Node19 -->
<g id="edge19" class="edge"><title>Node1&#45;&gt;Node19</title>
<path fill="none" stroke="midnightblue" d="M562.41,-112.968C587.73,-101.732 616.513,-88.9597 637.302,-79.7347"/>
<polygon fill="midnightblue" stroke="midnightblue" points="638.811,-82.8942 646.532,-75.6389 635.972,-76.4959 638.811,-82.8942"/>
</g>
<!-- Node20 -->
<g id="node20" class="node"><title>Node20</title>
<polygon fill="none" stroke="#bfbfbf" points="708.5,-56.5 708.5,-75.5 757.5,-75.5 757.5,-56.5 708.5,-56.5"/>
<text text-anchor="middle" x="733" y="-63.5" font-family="Helvetica,sans-Serif" font-size="10.00">cstddef</text>
</g>
<!-- Node1&#45;&gt;Node20 -->
<g id="edge20" class="edge"><title>Node1&#45;&gt;Node20</title>
<path fill="none" stroke="midnightblue" d="M578.761,-115.242C619.015,-102.652 667.151,-87.596 698.817,-77.6917"/>
<polygon fill="midnightblue" stroke="midnightblue" points="699.989,-80.9924 708.488,-74.6668 697.899,-74.3116 699.989,-80.9924"/>
</g>
<!-- Node3 -->
<g id="node3" class="node"><title>Node3</title>
<polygon fill="none" stroke="#bfbfbf" points="62.5,-0.5 62.5,-19.5 111.5,-19.5 111.5,-0.5 62.5,-0.5"/>
<text text-anchor="middle" x="87" y="-7.5" font-family="Helvetica,sans-Serif" font-size="10.00">cassert</text>
</g>
<!-- Node2&#45;&gt;Node3 -->
<g id="edge2" class="edge"><title>Node2&#45;&gt;Node3</title>
<path fill="none" stroke="midnightblue" d="M313.262,-60.0076C273.675,-52.5079 196.927,-37.5563 121.93,-20.1122"/>
<polygon fill="midnightblue" stroke="midnightblue" points="122.377,-16.6222 111.842,-17.7479 120.78,-23.4376 122.377,-16.6222"/>
</g>
<!-- Node4 -->
<g id="node4" class="node"><title>Node4</title>
<polygon fill="none" stroke="#bfbfbf" points="129.5,-0.5 129.5,-19.5 176.5,-19.5 176.5,-0.5 129.5,-0.5"/>
<text text-anchor="middle" x="153" y="-7.5" font-family="Helvetica,sans-Serif" font-size="10.00">clocale</text>
</g>
<!-- Node2&#45;&gt;Node4 -->
<g id="edge3" class="edge"><title>Node2&#45;&gt;Node4</title>
<path fill="none" stroke="midnightblue" d="M313.207,-57.2631C279.791,-47.6133 222.653,-31.1138 186.412,-20.6484"/>
<polygon fill="midnightblue" stroke="midnightblue" points="187.36,-17.2792 176.782,-17.8674 185.418,-24.0044 187.36,-17.2792"/>
</g>
<!-- Node2&#45;&gt;Node5 -->
<g id="edge4" class="edge"><title>Node2&#45;&gt;Node5</title>
<path fill="none" stroke="midnightblue" d="M313.387,-61.8797C264.195,-55.8842 155.596,-41.585 54.0933,-19.768"/>
<polygon fill="midnightblue" stroke="midnightblue" points="54.8108,-16.3423 44.2949,-17.6332 53.3206,-23.1819 54.8108,-16.3423"/>
</g>
<!-- Node6 -->
<g id="node6" class="node"><title>Node6</title>
<polygon fill="none" stroke="#bfbfbf" points="194.5,-0.5 194.5,-19.5 237.5,-19.5 237.5,-0.5 194.5,-0.5"/>
<text text-anchor="middle" x="216" y="-7.5" font-family="Helvetica,sans-Serif" font-size="10.00">cstdio</text>
</g>
<!-- Node2&#45;&gt;Node6 -->
<g id="edge5" class="edge"><title>Node2&#45;&gt;Node6</title>
<path fill="none" stroke="midnightblue" d="M320.352,-56.4435C300.035,-47.5961 268.097,-33.6875 244.902,-23.5865"/>
<polygon fill="midnightblue" stroke="midnightblue" points="246.122,-20.3002 235.556,-19.5164 243.327,-26.7181 246.122,-20.3002"/>
</g>
<!-- Node7 -->
<g id="node7" class="node"><title>Node7</title>
<polygon fill="none" stroke="#bfbfbf" points="256,-0.5 256,-19.5 302,-19.5 302,-0.5 256,-0.5"/>
<text text-anchor="middle" x="279" y="-7.5" font-family="Helvetica,sans-Serif" font-size="10.00">cstring</text>
</g>
<!-- Node2&#45;&gt;Node7 -->
<g id="edge6" class="edge"><title>Node2&#45;&gt;Node7</title>
<path fill="none" stroke="midnightblue" d="M330.199,-56.324C321.182,-48.3414 307.594,-36.3128 296.682,-26.6529"/>
<polygon fill="midnightblue" stroke="midnightblue" points="298.787,-23.8416 288.979,-19.8339 294.147,-29.083 298.787,-23.8416"/>
</g>
<!-- Node8 -->
<g id="node8" class="node"><title>Node8</title>
<polygon fill="none" stroke="#bfbfbf" points="320,-0.5 320,-19.5 360,-19.5 360,-0.5 320,-0.5"/>
<text text-anchor="middle" x="340" y="-7.5" font-family="Helvetica,sans-Serif" font-size="10.00">limits</text>
</g>
<!-- Node2&#45;&gt;Node8 -->
<g id="edge7" class="edge"><title>Node2&#45;&gt;Node8</title>
<path fill="none" stroke="midnightblue" d="M340,-56.083C340,-49.0059 340,-38.8611 340,-29.9865"/>
<polygon fill="midnightblue" stroke="midnightblue" points="343.5,-29.751 340,-19.7511 336.5,-29.7511 343.5,-29.751"/>
</g>
<!-- Node9 -->
<g id="node9" class="node"><title>Node9</title>
<polygon fill="none" stroke="#bfbfbf" points="378,-0.5 378,-19.5 430,-19.5 430,-0.5 378,-0.5"/>
<text text-anchor="middle" x="404" y="-7.5" font-family="Helvetica,sans-Serif" font-size="10.00">memory</text>
</g>
<!-- Node2&#45;&gt;Node9 -->
<g id="edge8" class="edge"><title>Node2&#45;&gt;Node9</title>
<path fill="none" stroke="midnightblue" d="M350.283,-56.324C359.836,-48.2631 374.28,-36.0765 385.784,-26.3695"/>
<polygon fill="midnightblue" stroke="midnightblue" points="388.144,-28.9577 393.53,-19.8339 383.63,-23.6076 388.144,-28.9577"/>
</g>
<!-- Node10 -->
<g id="node10" class="node"><title>Node10</title>
<polygon fill="none" stroke="#bfbfbf" points="448.5,-0.5 448.5,-19.5 507.5,-19.5 507.5,-0.5 448.5,-0.5"/>
<text text-anchor="middle" x="478" y="-7.5" font-family="Helvetica,sans-Serif" font-size="10.00">stdexcept</text>
</g>
<!-- Node2&#45;&gt;Node10 -->
<g id="edge9" class="edge"><title>Node2&#45;&gt;Node10</title>
<path fill="none" stroke="midnightblue" d="M361.867,-56.4435C384.779,-47.4776 420.975,-33.314 446.866,-23.1827"/>
<polygon fill="midnightblue" stroke="midnightblue" points="448.199,-26.4198 456.236,-19.5164 445.648,-19.9011 448.199,-26.4198"/>
</g>
<!-- Node11 -->
<g id="node11" class="node"><title>Node11</title>
<polygon fill="none" stroke="#bfbfbf" points="525.5,-0.5 525.5,-19.5 566.5,-19.5 566.5,-0.5 525.5,-0.5"/>
<text text-anchor="middle" x="546" y="-7.5" font-family="Helvetica,sans-Serif" font-size="10.00">string</text>
</g>
<!-- Node2&#45;&gt;Node11 -->
<g id="edge10" class="edge"><title>Node2&#45;&gt;Node11</title>
<path fill="none" stroke="midnightblue" d="M366.618,-58.3372C405.142,-48.6719 475.416,-30.9523 515.605,-20.0042"/>
<polygon fill="midnightblue" stroke="midnightblue" points="516.666,-23.3422 525.376,-17.3089 514.805,-16.5943 516.666,-23.3422"/>
</g>
<!-- Node12 -->
<g id="node12" class="node"><title>Node12</title>
<polygon fill="none" stroke="#bfbfbf" points="585,-0.5 585,-19.5 629,-19.5 629,-0.5 585,-0.5"/>
<text text-anchor="middle" x="607" y="-7.5" font-family="Helvetica,sans-Serif" font-size="10.00">vector</text>
</g>
<!-- Node2&#45;&gt;Node12 -->
<g id="edge11" class="edge"><title>Node2&#45;&gt;Node12</title>
<path fill="none" stroke="midnightblue" d="M366.691,-58.119C369.822,-57.3736 372.977,-56.6506 376,-56 460.779,-37.7549 485.682,-39.9994 574.698,-19.8598"/>
<polygon fill="midnightblue" stroke="midnightblue" points="575.726,-23.215 584.69,-17.5671 574.161,-16.3923 575.726,-23.215"/>
</g>
<!-- Node13 -->
<g id="node13" class="node"><title>Node13</title>
<polygon fill="none" stroke="#bfbfbf" points="647,-0.5 647,-19.5 687,-19.5 687,-0.5 647,-0.5"/>
<text text-anchor="middle" x="667" y="-7.5" font-family="Helvetica,sans-Serif" font-size="10.00">utility</text>
</g>
<!-- Node2&#45;&gt;Node13 -->
<g id="edge12" class="edge"><title>Node2&#45;&gt;Node13</title>
<path fill="none" stroke="midnightblue" d="M366.665,-57.9933C369.801,-57.2705 372.964,-56.5871 376,-56 490.968,-33.7674 522.579,-44.8981 637,-20 637.1,-19.9783 637.199,-19.9565 637.299,-19.9345"/>
<polygon fill="midnightblue" stroke="midnightblue" points="637.946,-23.3814 646.778,-17.5287 636.224,-16.5965 637.946,-23.3814"/>
</g>
<!-- Node14 -->
<g id="node14" class="node"><title>Node14</title>
<polygon fill="none" stroke="#bfbfbf" points="705.5,-0.5 705.5,-19.5 754.5,-19.5 754.5,-0.5 705.5,-0.5"/>
<text text-anchor="middle" x="730" y="-7.5" font-family="Helvetica,sans-Serif" font-size="10.00">stdint.h</text>
</g>
<!-- Node2&#45;&gt;Node14 -->
<g id="edge13" class="edge"><title>Node2&#45;&gt;Node14</title>
<path fill="none" stroke="midnightblue" d="M366.651,-57.918C369.789,-57.2086 372.957,-56.5491 376,-56 513.682,-31.1589 553.553,-45.6938 695.28,-19.8568"/>
<polygon fill="midnightblue" stroke="midnightblue" points="696.021,-23.2791 705.213,-18.0109 694.742,-16.3969 696.021,-23.2791"/>
</g>
</g>
</svg>
