<?xml version="1.0" encoding="UTF-8" standalone="no"?>
<!DOCTYPE svg PUBLIC "-//W3C//DTD SVG 1.1//EN"
 "http://www.w3.org/Graphics/SVG/1.1/DTD/svg11.dtd">
<!-- Generated by graphviz version 2.36.0 (20140111.2315)
 -->
<!-- Title: /home/lucamuratore/advr&#45;superbuild/external/XBotInterface/include/spdlog/formatter.h Pages: 1 -->
<svg width="1202pt" height="502pt"
 viewBox="0.00 0.00 1202.00 502.00" xmlns="http://www.w3.org/2000/svg" xmlns:xlink="http://www.w3.org/1999/xlink">
<g id="graph0" class="graph" transform="scale(1 1) rotate(0) translate(4 498)">
<title>/home/lucamuratore/advr&#45;superbuild/external/XBotInterface/include/spdlog/formatter.h</title>
<!-- Node1 -->
<g id="node1" class="node"><title>Node1</title>
<polygon fill="#bfbfbf" stroke="black" points="340.5,-441 340.5,-493 485.5,-493 485.5,-441 340.5,-441"/>
<text text-anchor="start" x="348.5" y="-481" font-family="Helvetica,sans-Serif" font-size="10.00">/home/lucamuratore</text>
<text text-anchor="start" x="348.5" y="-470" font-family="Helvetica,sans-Serif" font-size="10.00">/advr&#45;superbuild/external</text>
<text text-anchor="start" x="348.5" y="-459" font-family="Helvetica,sans-Serif" font-size="10.00">/XBotInterface/include/spdlog</text>
<text text-anchor="middle" x="413" y="-448" font-family="Helvetica,sans-Serif" font-size="10.00">/formatter.h</text>
</g>
<!-- Node2 -->
<g id="node2" class="node"><title>Node2</title>
<g id="a_node2"><a xlink:href="log__msg_8h.html" target="_top" xlink:title="spdlog/details/log\l_msg.h">
<polygon fill="none" stroke="black" points="193,-305 193,-335 285,-335 285,-305 193,-305"/>
<text text-anchor="start" x="201" y="-323" font-family="Helvetica,sans-Serif" font-size="10.00">spdlog/details/log</text>
<text text-anchor="middle" x="239" y="-312" font-family="Helvetica,sans-Serif" font-size="10.00">_msg.h</text>
</a>
</g>
</g>
<!-- Node1&#45;&gt;Node2 -->
<g id="edge1" class="edge"><title>Node1&#45;&gt;Node2</title>
<path fill="none" stroke="midnightblue" d="M382.692,-440.743C348.906,-412.588 294.917,-367.597 263.626,-341.522"/>
<polygon fill="midnightblue" stroke="midnightblue" points="265.735,-338.723 255.812,-335.01 261.254,-344.101 265.735,-338.723"/>
</g>
<!-- Node4 -->
<g id="node4" class="node"><title>Node4</title>
<polygon fill="none" stroke="#bfbfbf" points="74.5,-0.5 74.5,-19.5 115.5,-19.5 115.5,-0.5 74.5,-0.5"/>
<text text-anchor="middle" x="95" y="-7.5" font-family="Helvetica,sans-Serif" font-size="10.00">string</text>
</g>
<!-- Node1&#45;&gt;Node4 -->
<g id="edge43" class="edge"><title>Node1&#45;&gt;Node4</title>
<path fill="none" stroke="midnightblue" d="M340.115,-455.713C221.55,-436.91 0,-392.243 0,-321 0,-321 0,-321 0,-139 0,-89.8063 45.8058,-47.2138 73.8039,-25.7745"/>
<polygon fill="midnightblue" stroke="midnightblue" points="76.228,-28.335 82.1879,-19.5754 72.0663,-22.7065 76.228,-28.335"/>
</g>
<!-- Node7 -->
<g id="node7" class="node"><title>Node7</title>
<polygon fill="none" stroke="#bfbfbf" points="1017,-0.5 1017,-19.5 1069,-19.5 1069,-0.5 1017,-0.5"/>
<text text-anchor="middle" x="1043" y="-7.5" font-family="Helvetica,sans-Serif" font-size="10.00">memory</text>
</g>
<!-- Node1&#45;&gt;Node7 -->
<g id="edge44" class="edge"><title>Node1&#45;&gt;Node7</title>
<path fill="none" stroke="midnightblue" d="M485.792,-466.279C665.918,-465.014 1118,-449.082 1118,-321 1118,-321 1118,-321 1118,-139 1118,-93.1514 1081.74,-49.1742 1059.64,-26.6347"/>
<polygon fill="midnightblue" stroke="midnightblue" points="1062.08,-24.1203 1052.5,-19.5884 1057.16,-29.1032 1062.08,-24.1203"/>
</g>
<!-- Node21 -->
<g id="node21" class="node"><title>Node21</title>
<polygon fill="none" stroke="#bfbfbf" points="1134,-0.5 1134,-19.5 1178,-19.5 1178,-0.5 1134,-0.5"/>
<text text-anchor="middle" x="1156" y="-7.5" font-family="Helvetica,sans-Serif" font-size="10.00">vector</text>
</g>
<!-- Node1&#45;&gt;Node21 -->
<g id="edge42" class="edge"><title>Node1&#45;&gt;Node21</title>
<path fill="none" stroke="midnightblue" d="M485.508,-463.637C633.196,-458.097 963.886,-441.772 1070,-404 1132.48,-381.76 1194,-387.318 1194,-321 1194,-321 1194,-321 1194,-139 1194,-98.2307 1176.06,-53.0653 1164.84,-28.7866"/>
<polygon fill="midnightblue" stroke="midnightblue" points="1167.98,-27.2455 1160.51,-19.734 1161.67,-30.2655 1167.98,-27.2455"/>
</g>
<!-- Node33 -->
<g id="node33" class="node"><title>Node33</title>
<g id="a_node33"><a xlink:href="pattern__formatter__impl_8h.html" target="_top" xlink:title="spdlog/details/pattern\l_formatter_impl.h">
<polygon fill="none" stroke="black" points="358,-373 358,-403 468,-403 468,-373 358,-373"/>
<text text-anchor="start" x="366" y="-391" font-family="Helvetica,sans-Serif" font-size="10.00">spdlog/details/pattern</text>
<text text-anchor="middle" x="413" y="-380" font-family="Helvetica,sans-Serif" font-size="10.00">_formatter_impl.h</text>
</a>
</g>
</g>
<!-- Node1&#45;&gt;Node33 -->
<g id="edge45" class="edge"><title>Node1&#45;&gt;Node33</title>
<path fill="none" stroke="midnightblue" d="M406.621,-440.787C406.107,-431.932 406.127,-422.007 406.68,-413.234"/>
<polygon fill="midnightblue" stroke="midnightblue" points="410.167,-413.536 407.619,-403.252 403.198,-412.88 410.167,-413.536"/>
</g>
<!-- Node3 -->
<g id="node3" class="node"><title>Node3</title>
<g id="a_node3"><a xlink:href="common_8h.html" target="_top" xlink:title="spdlog/common.h">
<polygon fill="none" stroke="black" points="180,-192.5 180,-211.5 274,-211.5 274,-192.5 180,-192.5"/>
<text text-anchor="middle" x="227" y="-199.5" font-family="Helvetica,sans-Serif" font-size="10.00">spdlog/common.h</text>
</a>
</g>
</g>
<!-- Node2&#45;&gt;Node3 -->
<g id="edge2" class="edge"><title>Node2&#45;&gt;Node3</title>
<path fill="none" stroke="midnightblue" d="M237.529,-304.776C235.366,-283.876 231.329,-244.844 228.931,-221.664"/>
<polygon fill="midnightblue" stroke="midnightblue" points="232.411,-221.294 227.901,-211.707 225.448,-222.014 232.411,-221.294"/>
</g>
<!-- Node2&#45;&gt;Node4 -->
<g id="edge40" class="edge"><title>Node2&#45;&gt;Node4</title>
<path fill="none" stroke="midnightblue" d="M223.187,-304.633C195.274,-278.238 137.699,-218.935 111,-156 98.8748,-127.418 98.5794,-118.841 95,-88 92.7157,-68.3182 93.0765,-45.6153 93.7853,-29.9874"/>
<polygon fill="midnightblue" stroke="midnightblue" points="97.3029,-29.76 94.357,-19.5829 90.3135,-29.3758 97.3029,-29.76"/>
</g>
<!-- Node22 -->
<g id="node22" class="node"><title>Node22</title>
<polygon fill="none" stroke="#bfbfbf" points="922,-0.5 922,-19.5 962,-19.5 962,-0.5 922,-0.5"/>
<text text-anchor="middle" x="942" y="-7.5" font-family="Helvetica,sans-Serif" font-size="10.00">utility</text>
</g>
<!-- Node2&#45;&gt;Node22 -->
<g id="edge41" class="edge"><title>Node2&#45;&gt;Node22</title>
<path fill="none" stroke="midnightblue" d="M285.316,-311.243C300.207,-308.826 316.787,-306.215 332,-304 467.968,-284.204 942,-340.401 942,-203 942,-203 942,-203 942,-139 942,-100.248 942,-54.8973 942,-29.9188"/>
<polygon fill="midnightblue" stroke="midnightblue" points="945.5,-29.6912 942,-19.6913 938.5,-29.6913 945.5,-29.6912"/>
</g>
<!-- Node24 -->
<g id="node24" class="node"><title>Node24</title>
<g id="a_node24"><a xlink:href="os_8h.html" target="_top" xlink:title="spdlog/details/os.h">
<polygon fill="none" stroke="black" points="503,-248.5 503,-267.5 601,-267.5 601,-248.5 503,-248.5"/>
<text text-anchor="middle" x="552" y="-255.5" font-family="Helvetica,sans-Serif" font-size="10.00">spdlog/details/os.h</text>
</a>
</g>
</g>
<!-- Node2&#45;&gt;Node24 -->
<g id="edge26" class="edge"><title>Node2&#45;&gt;Node24</title>
<path fill="none" stroke="midnightblue" d="M285.184,-310.147C341.769,-299.3 437.5,-280.949 497.596,-269.429"/>
<polygon fill="midnightblue" stroke="midnightblue" points="498.491,-272.821 507.653,-267.501 497.173,-265.946 498.491,-272.821"/>
</g>
<!-- Node3&#45;&gt;Node4 -->
<g id="edge3" class="edge"><title>Node3&#45;&gt;Node4</title>
<path fill="none" stroke="midnightblue" d="M235.271,-192.184C247.913,-177.586 269.343,-147.659 257,-124 229.336,-70.974 164.171,-37.7498 125.445,-21.9587"/>
<polygon fill="midnightblue" stroke="midnightblue" points="126.329,-18.5455 115.742,-18.1413 123.766,-25.0595 126.329,-18.5455"/>
</g>
<!-- Node5 -->
<g id="node5" class="node"><title>Node5</title>
<polygon fill="none" stroke="#bfbfbf" points="534.5,-130.5 534.5,-149.5 607.5,-149.5 607.5,-130.5 534.5,-130.5"/>
<text text-anchor="middle" x="571" y="-137.5" font-family="Helvetica,sans-Serif" font-size="10.00">initializer_list</text>
</g>
<!-- Node3&#45;&gt;Node5 -->
<g id="edge4" class="edge"><title>Node3&#45;&gt;Node5</title>
<path fill="none" stroke="midnightblue" d="M274.049,-193.408C277.078,-192.929 280.081,-192.456 283,-192 388.264,-175.547 415.989,-179.084 520,-156 524.761,-154.943 529.73,-153.684 534.617,-152.35"/>
<polygon fill="midnightblue" stroke="midnightblue" points="535.786,-155.656 544.444,-149.55 533.867,-148.925 535.786,-155.656"/>
</g>
<!-- Node6 -->
<g id="node6" class="node"><title>Node6</title>
<polygon fill="none" stroke="#bfbfbf" points="752,-130.5 752,-149.5 798,-149.5 798,-130.5 752,-130.5"/>
<text text-anchor="middle" x="775" y="-137.5" font-family="Helvetica,sans-Serif" font-size="10.00">chrono</text>
</g>
<!-- Node3&#45;&gt;Node6 -->
<g id="edge5" class="edge"><title>Node3&#45;&gt;Node6</title>
<path fill="none" stroke="midnightblue" d="M274.015,-193.163C277.052,-192.744 280.067,-192.351 283,-192 484.416,-167.886 540.583,-202.652 738,-156 741.071,-155.274 744.221,-154.332 747.323,-153.274"/>
<polygon fill="midnightblue" stroke="midnightblue" points="748.821,-156.448 756.92,-149.618 746.329,-149.907 748.821,-156.448"/>
</g>
<!-- Node3&#45;&gt;Node7 -->
<g id="edge6" class="edge"><title>Node3&#45;&gt;Node7</title>
<path fill="none" stroke="midnightblue" d="M274.028,-193.261C277.062,-192.818 280.072,-192.393 283,-192 430.537,-172.183 470.646,-188.127 616,-156 769.737,-122.021 945.447,-51.943 1013.73,-23.4536"/>
<polygon fill="midnightblue" stroke="midnightblue" points="1015.14,-26.6569 1023.01,-19.5613 1012.43,-20.2018 1015.14,-26.6569"/>
</g>
<!-- Node8 -->
<g id="node8" class="node"><title>Node8</title>
<polygon fill="none" stroke="#bfbfbf" points="501,-62.5 501,-81.5 547,-81.5 547,-62.5 501,-62.5"/>
<text text-anchor="middle" x="524" y="-69.5" font-family="Helvetica,sans-Serif" font-size="10.00">atomic</text>
</g>
<!-- Node3&#45;&gt;Node8 -->
<g id="edge7" class="edge"><title>Node3&#45;&gt;Node8</title>
<path fill="none" stroke="midnightblue" d="M274.155,-193.376C347.702,-181.407 481.809,-159.231 486,-156 506.46,-140.228 516.271,-110.889 520.7,-91.6557"/>
<polygon fill="midnightblue" stroke="midnightblue" points="524.166,-92.1744 522.725,-81.678 517.305,-90.782 524.166,-92.1744"/>
</g>
<!-- Node9 -->
<g id="node9" class="node"><title>Node9</title>
<polygon fill="none" stroke="#bfbfbf" points="418.5,-130.5 418.5,-149.5 477.5,-149.5 477.5,-130.5 418.5,-130.5"/>
<text text-anchor="middle" x="448" y="-137.5" font-family="Helvetica,sans-Serif" font-size="10.00">exception</text>
</g>
<!-- Node3&#45;&gt;Node9 -->
<g id="edge8" class="edge"><title>Node3&#45;&gt;Node9</title>
<path fill="none" stroke="midnightblue" d="M267.883,-192.425C305.036,-184.271 361.185,-171.042 409,-156 411.79,-155.122 414.668,-154.149 417.537,-153.132"/>
<polygon fill="midnightblue" stroke="midnightblue" points="418.959,-156.338 427.12,-149.582 416.527,-149.774 418.959,-156.338"/>
</g>
<!-- Node10 -->
<g id="node10" class="node"><title>Node10</title>
<polygon fill="none" stroke="#bfbfbf" points="816.5,-130.5 816.5,-149.5 875.5,-149.5 875.5,-130.5 816.5,-130.5"/>
<text text-anchor="middle" x="846" y="-137.5" font-family="Helvetica,sans-Serif" font-size="10.00">functional</text>
</g>
<!-- Node3&#45;&gt;Node10 -->
<g id="edge9" class="edge"><title>Node3&#45;&gt;Node10</title>
<path fill="none" stroke="midnightblue" d="M274.011,-193.127C277.049,-192.717 280.065,-192.336 283,-192 514.923,-165.452 579.081,-206.461 807,-156 810.433,-155.24 813.964,-154.23 817.433,-153.092"/>
<polygon fill="midnightblue" stroke="midnightblue" points="818.709,-156.352 826.912,-149.647 816.318,-149.773 818.709,-156.352"/>
</g>
<!-- Node11 -->
<g id="node11" class="node"><title>Node11</title>
<g id="a_node11"><a xlink:href="null__mutex_8h.html" target="_top" xlink:title="spdlog/details/null\l_mutex.h">
<polygon fill="none" stroke="black" points="305.5,-125 305.5,-155 400.5,-155 400.5,-125 305.5,-125"/>
<text text-anchor="start" x="313.5" y="-143" font-family="Helvetica,sans-Serif" font-size="10.00">spdlog/details/null</text>
<text text-anchor="middle" x="353" y="-132" font-family="Helvetica,sans-Serif" font-size="10.00">_mutex.h</text>
</a>
</g>
</g>
<!-- Node3&#45;&gt;Node11 -->
<g id="edge10" class="edge"><title>Node3&#45;&gt;Node11</title>
<path fill="none" stroke="midnightblue" d="M245.053,-192.403C262.995,-183.86 291.086,-170.483 314.114,-159.517"/>
<polygon fill="midnightblue" stroke="midnightblue" points="315.78,-162.6 323.304,-155.141 312.771,-156.28 315.78,-162.6"/>
</g>
<!-- Node12 -->
<g id="node12" class="node"><title>Node12</title>
<g id="a_node12"><a xlink:href="fmt_8h.html" target="_top" xlink:title="spdlog/fmt/fmt.h">
<polygon fill="none" stroke="black" points="161,-130.5 161,-149.5 249,-149.5 249,-130.5 161,-130.5"/>
<text text-anchor="middle" x="205" y="-137.5" font-family="Helvetica,sans-Serif" font-size="10.00">spdlog/fmt/fmt.h</text>
</a>
</g>
</g>
<!-- Node3&#45;&gt;Node12 -->
<g id="edge12" class="edge"><title>Node3&#45;&gt;Node12</title>
<path fill="none" stroke="midnightblue" d="M223.848,-192.403C220.679,-183.76 215.696,-170.17 211.649,-159.134"/>
<polygon fill="midnightblue" stroke="midnightblue" points="214.875,-157.764 208.146,-149.581 208.303,-160.174 214.875,-157.764"/>
</g>
<!-- Node11&#45;&gt;Node8 -->
<g id="edge11" class="edge"><title>Node11&#45;&gt;Node8</title>
<path fill="none" stroke="midnightblue" d="M393.455,-124.923C421.12,-115.084 458.521,-101.363 491,-88 492.64,-87.3251 494.32,-86.6169 496.01,-85.891"/>
<polygon fill="midnightblue" stroke="midnightblue" points="497.873,-88.8939 505.602,-81.6477 495.041,-82.4922 497.873,-88.8939"/>
</g>
<!-- Node13 -->
<g id="node13" class="node"><title>Node13</title>
<g id="a_node13"><a xlink:href="format_8h.html" target="_top" xlink:title="spdlog/fmt/bundled\l/format.h">
<polygon fill="none" stroke="black" points="383.5,-57 383.5,-87 482.5,-87 482.5,-57 383.5,-57"/>
<text text-anchor="start" x="391.5" y="-75" font-family="Helvetica,sans-Serif" font-size="10.00">spdlog/fmt/bundled</text>
<text text-anchor="middle" x="433" y="-64" font-family="Helvetica,sans-Serif" font-size="10.00">/format.h</text>
</a>
</g>
</g>
<!-- Node12&#45;&gt;Node13 -->
<g id="edge13" class="edge"><title>Node12&#45;&gt;Node13</title>
<path fill="none" stroke="midnightblue" d="M234.807,-130.372C270.156,-120.139 329.908,-102.842 374.582,-89.9105"/>
<polygon fill="midnightblue" stroke="midnightblue" points="375.81,-93.1989 384.442,-87.0562 373.863,-86.4749 375.81,-93.1989"/>
</g>
<!-- Node13&#45;&gt;Node4 -->
<g id="edge22" class="edge"><title>Node13&#45;&gt;Node4</title>
<path fill="none" stroke="midnightblue" d="M383.49,-62.2112C312.715,-49.6477 184.699,-26.9228 125.967,-16.497"/>
<polygon fill="midnightblue" stroke="midnightblue" points="126.294,-13.0004 115.836,-14.6986 125.07,-19.8927 126.294,-13.0004"/>
</g>
<!-- Node13&#45;&gt;Node7 -->
<g id="edge20" class="edge"><title>Node13&#45;&gt;Node7</title>
<path fill="none" stroke="midnightblue" d="M482.765,-57.6999C485.878,-57.0691 488.975,-56.4943 492,-56 702.694,-21.5681 758.571,-41.2465 971,-20 982.612,-18.8386 995.249,-17.3391 1006.65,-15.8984"/>
<polygon fill="midnightblue" stroke="midnightblue" points="1007.23,-19.3521 1016.7,-14.6032 1006.34,-12.4095 1007.23,-19.3521"/>
</g>
<!-- Node14 -->
<g id="node14" class="node"><title>Node14</title>
<polygon fill="none" stroke="#bfbfbf" points="615.5,-0.5 615.5,-19.5 664.5,-19.5 664.5,-0.5 615.5,-0.5"/>
<text text-anchor="middle" x="640" y="-7.5" font-family="Helvetica,sans-Serif" font-size="10.00">cassert</text>
</g>
<!-- Node13&#45;&gt;Node14 -->
<g id="edge14" class="edge"><title>Node13&#45;&gt;Node14</title>
<path fill="none" stroke="midnightblue" d="M481.532,-56.9327C519.544,-45.9148 571.49,-30.8579 605.385,-21.0334"/>
<polygon fill="midnightblue" stroke="midnightblue" points="606.658,-24.3084 615.289,-18.1627 604.71,-17.5851 606.658,-24.3084"/>
</g>
<!-- Node15 -->
<g id="node15" class="node"><title>Node15</title>
<polygon fill="none" stroke="#bfbfbf" points="221.5,-0.5 221.5,-19.5 268.5,-19.5 268.5,-0.5 221.5,-0.5"/>
<text text-anchor="middle" x="245" y="-7.5" font-family="Helvetica,sans-Serif" font-size="10.00">clocale</text>
</g>
<!-- Node13&#45;&gt;Node15 -->
<g id="edge15" class="edge"><title>Node13&#45;&gt;Node15</title>
<path fill="none" stroke="midnightblue" d="M388.922,-56.9327C355.185,-46.1654 309.361,-31.5407 278.564,-21.7118"/>
<polygon fill="midnightblue" stroke="midnightblue" points="279.325,-18.281 268.734,-18.5748 277.197,-24.9496 279.325,-18.281"/>
</g>
<!-- Node16 -->
<g id="node16" class="node"><title>Node16</title>
<polygon fill="none" stroke="#bfbfbf" points="287,-0.5 287,-19.5 331,-19.5 331,-0.5 287,-0.5"/>
<text text-anchor="middle" x="309" y="-7.5" font-family="Helvetica,sans-Serif" font-size="10.00">cmath</text>
</g>
<!-- Node13&#45;&gt;Node16 -->
<g id="edge16" class="edge"><title>Node13&#45;&gt;Node16</title>
<path fill="none" stroke="midnightblue" d="M403.928,-56.9327C383.381,-46.9907 356.037,-33.7601 335.975,-24.0526"/>
<polygon fill="midnightblue" stroke="midnightblue" points="337.299,-20.8051 326.773,-19.6 334.251,-27.1063 337.299,-20.8051"/>
</g>
<!-- Node17 -->
<g id="node17" class="node"><title>Node17</title>
<polygon fill="none" stroke="#bfbfbf" points="700.5,-0.5 700.5,-19.5 743.5,-19.5 743.5,-0.5 700.5,-0.5"/>
<text text-anchor="middle" x="722" y="-7.5" font-family="Helvetica,sans-Serif" font-size="10.00">cstdio</text>
</g>
<!-- Node13&#45;&gt;Node17 -->
<g id="edge17" class="edge"><title>Node13&#45;&gt;Node17</title>
<path fill="none" stroke="midnightblue" d="M482.526,-58.1954C485.728,-57.4336 488.907,-56.6953 492,-56 529.402,-47.5934 636.361,-27.1809 690.212,-16.992"/>
<polygon fill="midnightblue" stroke="midnightblue" points="691.061,-20.3934 700.237,-15.0971 689.761,-13.5152 691.061,-20.3934"/>
</g>
<!-- Node18 -->
<g id="node18" class="node"><title>Node18</title>
<polygon fill="none" stroke="#bfbfbf" points="349,-0.5 349,-19.5 395,-19.5 395,-0.5 349,-0.5"/>
<text text-anchor="middle" x="372" y="-7.5" font-family="Helvetica,sans-Serif" font-size="10.00">cstring</text>
</g>
<!-- Node13&#45;&gt;Node18 -->
<g id="edge18" class="edge"><title>Node13&#45;&gt;Node18</title>
<path fill="none" stroke="midnightblue" d="M418.544,-56.7808C409.406,-47.7925 397.581,-36.162 388.138,-26.8731"/>
<polygon fill="midnightblue" stroke="midnightblue" points="390.46,-24.2477 380.876,-19.7305 385.551,-29.2382 390.46,-24.2477"/>
</g>
<!-- Node19 -->
<g id="node19" class="node"><title>Node19</title>
<polygon fill="none" stroke="#bfbfbf" points="413,-0.5 413,-19.5 453,-19.5 453,-0.5 413,-0.5"/>
<text text-anchor="middle" x="433" y="-7.5" font-family="Helvetica,sans-Serif" font-size="10.00">limits</text>
</g>
<!-- Node13&#45;&gt;Node19 -->
<g id="edge19" class="edge"><title>Node13&#45;&gt;Node19</title>
<path fill="none" stroke="midnightblue" d="M433,-56.7808C433,-48.7812 433,-38.6887 433,-30.0168"/>
<polygon fill="midnightblue" stroke="midnightblue" points="436.5,-29.7305 433,-19.7305 429.5,-29.7306 436.5,-29.7305"/>
</g>
<!-- Node20 -->
<g id="node20" class="node"><title>Node20</title>
<polygon fill="none" stroke="#bfbfbf" points="471.5,-0.5 471.5,-19.5 530.5,-19.5 530.5,-0.5 471.5,-0.5"/>
<text text-anchor="middle" x="501" y="-7.5" font-family="Helvetica,sans-Serif" font-size="10.00">stdexcept</text>
</g>
<!-- Node13&#45;&gt;Node20 -->
<g id="edge21" class="edge"><title>Node13&#45;&gt;Node20</title>
<path fill="none" stroke="midnightblue" d="M449.115,-56.7808C459.404,-47.7026 472.747,-35.9291 483.326,-26.5951"/>
<polygon fill="midnightblue" stroke="midnightblue" points="485.923,-28.9712 491.105,-19.7305 481.291,-23.7223 485.923,-28.9712"/>
</g>
<!-- Node13&#45;&gt;Node21 -->
<g id="edge23" class="edge"><title>Node13&#45;&gt;Node21</title>
<path fill="none" stroke="midnightblue" d="M482.757,-57.6511C485.873,-57.0325 488.972,-56.4737 492,-56 749.801,-15.6756 818.077,-42.963 1078,-20 1093.04,-18.6712 1109.67,-16.8074 1123.69,-15.1204"/>
<polygon fill="midnightblue" stroke="midnightblue" points="1124.34,-18.5671 1133.84,-13.8765 1123.49,-11.6191 1124.34,-18.5671"/>
</g>
<!-- Node13&#45;&gt;Node22 -->
<g id="edge24" class="edge"><title>Node13&#45;&gt;Node22</title>
<path fill="none" stroke="midnightblue" d="M482.78,-57.7877C485.89,-57.1352 488.981,-56.5316 492,-56 648.292,-28.4765 838.307,-16.3629 911.364,-12.4832"/>
<polygon fill="midnightblue" stroke="midnightblue" points="911.864,-15.9621 921.669,-11.9499 911.502,-8.97148 911.864,-15.9621"/>
</g>
<!-- Node23 -->
<g id="node23" class="node"><title>Node23</title>
<polygon fill="none" stroke="#bfbfbf" points="548.5,-0.5 548.5,-19.5 597.5,-19.5 597.5,-0.5 548.5,-0.5"/>
<text text-anchor="middle" x="573" y="-7.5" font-family="Helvetica,sans-Serif" font-size="10.00">stdint.h</text>
</g>
<!-- Node13&#45;&gt;Node23 -->
<g id="edge25" class="edge"><title>Node13&#45;&gt;Node23</title>
<path fill="none" stroke="midnightblue" d="M465.824,-56.9327C489.338,-46.8552 520.737,-33.3986 543.466,-23.6575"/>
<polygon fill="midnightblue" stroke="midnightblue" points="545.121,-26.7563 552.933,-19.6 542.363,-20.3223 545.121,-26.7563"/>
</g>
<!-- Node24&#45;&gt;Node3 -->
<g id="edge27" class="edge"><title>Node24&#45;&gt;Node3</title>
<path fill="none" stroke="midnightblue" d="M502.992,-248.857C444.285,-239.103 346.103,-222.789 284.043,-212.478"/>
<polygon fill="midnightblue" stroke="midnightblue" points="284.466,-209 274.028,-210.814 283.319,-215.906 284.466,-209"/>
</g>
<!-- Node24&#45;&gt;Node4 -->
<g id="edge31" class="edge"><title>Node24&#45;&gt;Node4</title>
<path fill="none" stroke="midnightblue" d="M502.981,-257.356C411.981,-257.044 221.575,-251.531 171,-212 112.554,-166.317 99.05,-70.3383 95.9334,-29.755"/>
<polygon fill="midnightblue" stroke="midnightblue" points="99.4192,-29.4183 95.2909,-19.6609 92.4333,-29.863 99.4192,-29.4183"/>
</g>
<!-- Node24&#45;&gt;Node6 -->
<g id="edge32" class="edge"><title>Node24&#45;&gt;Node6</title>
<path fill="none" stroke="midnightblue" d="M601.06,-255.605C667.859,-252.554 782.104,-242.845 808,-212 821.843,-195.511 805.924,-172.247 791.772,-156.903"/>
<polygon fill="midnightblue" stroke="midnightblue" points="794.196,-154.376 784.699,-149.679 789.194,-159.273 794.196,-154.376"/>
</g>
<!-- Node24&#45;&gt;Node10 -->
<g id="edge30" class="edge"><title>Node24&#45;&gt;Node10</title>
<path fill="none" stroke="midnightblue" d="M601.038,-255.038C670.452,-251.266 792.547,-240.653 825,-212 839.732,-198.993 844.358,-176.197 845.694,-159.945"/>
<polygon fill="midnightblue" stroke="midnightblue" points="849.211,-159.654 846.183,-149.501 842.219,-159.326 849.211,-159.654"/>
</g>
<!-- Node24&#45;&gt;Node17 -->
<g id="edge28" class="edge"><title>Node24&#45;&gt;Node17</title>
<path fill="none" stroke="midnightblue" d="M601.236,-254.203C674.071,-249.282 806.215,-237.123 846,-212 871.432,-195.94 875.166,-184.752 884,-156 905.038,-87.5296 805.865,-40.8932 753.143,-21.3452"/>
<polygon fill="midnightblue" stroke="midnightblue" points="754.167,-17.9941 743.573,-17.9046 751.799,-24.5814 754.167,-17.9941"/>
</g>
<!-- Node25 -->
<g id="node25" class="node"><title>Node25</title>
<polygon fill="none" stroke="#bfbfbf" points="292.5,-192.5 292.5,-211.5 333.5,-211.5 333.5,-192.5 292.5,-192.5"/>
<text text-anchor="middle" x="313" y="-199.5" font-family="Helvetica,sans-Serif" font-size="10.00">ctime</text>
</g>
<!-- Node24&#45;&gt;Node25 -->
<g id="edge29" class="edge"><title>Node24&#45;&gt;Node25</title>
<path fill="none" stroke="midnightblue" d="M514.13,-248.444C466.95,-237.784 387.252,-219.777 343.691,-209.934"/>
<polygon fill="midnightblue" stroke="midnightblue" points="344.216,-206.465 333.691,-207.675 342.674,-213.293 344.216,-206.465"/>
</g>
<!-- Node26 -->
<g id="node26" class="node"><title>Node26</title>
<polygon fill="none" stroke="#bfbfbf" points="970,-192.5 970,-211.5 1014,-211.5 1014,-192.5 970,-192.5"/>
<text text-anchor="middle" x="992" y="-199.5" font-family="Helvetica,sans-Serif" font-size="10.00">thread</text>
</g>
<!-- Node24&#45;&gt;Node26 -->
<g id="edge33" class="edge"><title>Node24&#45;&gt;Node26</title>
<path fill="none" stroke="midnightblue" d="M601.193,-250.963C692.004,-239.818 883.639,-216.299 959.802,-206.952"/>
<polygon fill="midnightblue" stroke="midnightblue" points="960.261,-210.422 969.761,-205.729 959.409,-203.474 960.261,-210.422"/>
</g>
<!-- Node27 -->
<g id="node27" class="node"><title>Node27</title>
<polygon fill="none" stroke="#bfbfbf" points="390,-192.5 390,-211.5 436,-211.5 436,-192.5 390,-192.5"/>
<text text-anchor="middle" x="413" y="-199.5" font-family="Helvetica,sans-Serif" font-size="10.00">stdio.h</text>
</g>
<!-- Node24&#45;&gt;Node27 -->
<g id="edge34" class="edge"><title>Node24&#45;&gt;Node27</title>
<path fill="none" stroke="midnightblue" d="M529.975,-248.444C506.896,-239.478 470.438,-225.314 444.359,-215.183"/>
<polygon fill="midnightblue" stroke="midnightblue" points="445.511,-211.875 434.922,-211.516 442.976,-218.4 445.511,-211.875"/>
</g>
<!-- Node28 -->
<g id="node28" class="node"><title>Node28</title>
<polygon fill="none" stroke="#bfbfbf" points="454.5,-192.5 454.5,-211.5 503.5,-211.5 503.5,-192.5 454.5,-192.5"/>
<text text-anchor="middle" x="479" y="-199.5" font-family="Helvetica,sans-Serif" font-size="10.00">string.h</text>
</g>
<!-- Node24&#45;&gt;Node28 -->
<g id="edge35" class="edge"><title>Node24&#45;&gt;Node28</title>
<path fill="none" stroke="midnightblue" d="M540.271,-248.324C529.163,-240.107 512.258,-227.602 499.017,-217.807"/>
<polygon fill="midnightblue" stroke="midnightblue" points="501.063,-214.967 490.942,-211.834 496.9,-220.595 501.063,-214.967"/>
</g>
<!-- Node29 -->
<g id="node29" class="node"><title>Node29</title>
<polygon fill="none" stroke="#bfbfbf" points="522,-192.5 522,-211.5 582,-211.5 582,-192.5 522,-192.5"/>
<text text-anchor="middle" x="552" y="-199.5" font-family="Helvetica,sans-Serif" font-size="10.00">sys/stat.h</text>
</g>
<!-- Node24&#45;&gt;Node29 -->
<g id="edge36" class="edge"><title>Node24&#45;&gt;Node29</title>
<path fill="none" stroke="midnightblue" d="M552,-248.083C552,-241.006 552,-230.861 552,-221.986"/>
<polygon fill="midnightblue" stroke="midnightblue" points="555.5,-221.751 552,-211.751 548.5,-221.751 555.5,-221.751"/>
</g>
<!-- Node30 -->
<g id="node30" class="node"><title>Node30</title>
<polygon fill="none" stroke="#bfbfbf" points="600,-192.5 600,-211.5 668,-211.5 668,-192.5 600,-192.5"/>
<text text-anchor="middle" x="634" y="-199.5" font-family="Helvetica,sans-Serif" font-size="10.00">sys/types.h</text>
</g>
<!-- Node24&#45;&gt;Node30 -->
<g id="edge37" class="edge"><title>Node24&#45;&gt;Node30</title>
<path fill="none" stroke="midnightblue" d="M565.175,-248.324C577.847,-239.979 597.233,-227.212 612.206,-217.352"/>
<polygon fill="midnightblue" stroke="midnightblue" points="614.431,-220.078 620.858,-211.655 610.581,-214.231 614.431,-220.078"/>
</g>
<!-- Node31 -->
<g id="node31" class="node"><title>Node31</title>
<polygon fill="none" stroke="#bfbfbf" points="686.5,-192.5 686.5,-211.5 737.5,-211.5 737.5,-192.5 686.5,-192.5"/>
<text text-anchor="middle" x="712" y="-199.5" font-family="Helvetica,sans-Serif" font-size="10.00">unistd.h</text>
</g>
<!-- Node24&#45;&gt;Node31 -->
<g id="edge38" class="edge"><title>Node24&#45;&gt;Node31</title>
<path fill="none" stroke="midnightblue" d="M577.352,-248.444C604.269,-239.359 646.996,-224.939 677.087,-214.783"/>
<polygon fill="midnightblue" stroke="midnightblue" points="678.41,-218.031 686.766,-211.516 676.172,-211.398 678.41,-218.031"/>
</g>
<!-- Node32 -->
<g id="node32" class="node"><title>Node32</title>
<polygon fill="none" stroke="#bfbfbf" points="756,-192.5 756,-211.5 800,-211.5 800,-192.5 756,-192.5"/>
<text text-anchor="middle" x="778" y="-199.5" font-family="Helvetica,sans-Serif" font-size="10.00">fcntl.h</text>
</g>
<!-- Node24&#45;&gt;Node32 -->
<g id="edge39" class="edge"><title>Node24&#45;&gt;Node32</title>
<path fill="none" stroke="midnightblue" d="M591.145,-248.478C628.348,-240.254 686.089,-227.171 745.688,-211.982"/>
<polygon fill="midnightblue" stroke="midnightblue" points="746.839,-215.301 755.656,-209.426 745.1,-208.52 746.839,-215.301"/>
</g>
<!-- Node33&#45;&gt;Node1 -->
<g id="edge46" class="edge"><title>Node33&#45;&gt;Node1</title>
<path fill="none" stroke="midnightblue" d="M418.381,-403.252C419.4,-410.969 419.85,-420.877 419.731,-430.529"/>
<polygon fill="midnightblue" stroke="midnightblue" points="416.224,-430.673 419.379,-440.787 423.22,-430.913 416.224,-430.673"/>
</g>
<!-- Node33&#45;&gt;Node2 -->
<g id="edge47" class="edge"><title>Node33&#45;&gt;Node2</title>
<path fill="none" stroke="midnightblue" d="M375.673,-372.841C349.322,-362.846 313.828,-349.383 285.615,-338.682"/>
<polygon fill="midnightblue" stroke="midnightblue" points="286.558,-335.296 275.967,-335.022 284.075,-341.841 286.558,-335.296"/>
</g>
<!-- Node33&#45;&gt;Node4 -->
<g id="edge54" class="edge"><title>Node33&#45;&gt;Node4</title>
<path fill="none" stroke="midnightblue" d="M357.667,-379.855C253.355,-364.829 38,-325.729 38,-259 38,-259 38,-259 38,-139 38,-96.0494 65.1139,-51.4573 81.9409,-27.9188"/>
<polygon fill="midnightblue" stroke="midnightblue" points="84.8788,-29.8325 88.0107,-19.7111 79.2506,-25.6703 84.8788,-29.8325"/>
</g>
<!-- Node33&#45;&gt;Node6 -->
<g id="edge50" class="edge"><title>Node33&#45;&gt;Node6</title>
<path fill="none" stroke="midnightblue" d="M409.418,-372.902C398.789,-330.398 368.91,-205.581 381,-192 426.968,-140.366 621.598,-166.011 690,-156 707.107,-153.496 726.059,-150.203 741.718,-147.34"/>
<polygon fill="midnightblue" stroke="midnightblue" points="742.775,-150.704 751.97,-145.441 741.5,-143.821 742.775,-150.704"/>
</g>
<!-- Node33&#45;&gt;Node7 -->
<g id="edge52" class="edge"><title>Node33&#45;&gt;Node7</title>
<path fill="none" stroke="midnightblue" d="M468.365,-386.899C595.977,-385.919 907.027,-379.047 1001,-336 1045.58,-315.581 1080,-308.03 1080,-259 1080,-259 1080,-259 1080,-139 1080,-98.4982 1062.69,-53.5225 1051.75,-29.1386"/>
<polygon fill="midnightblue" stroke="midnightblue" points="1054.78,-27.3426 1047.39,-19.7476 1048.43,-30.2914 1054.78,-27.3426"/>
</g>
<!-- Node33&#45;&gt;Node12 -->
<g id="edge49" class="edge"><title>Node33&#45;&gt;Node12</title>
<path fill="none" stroke="midnightblue" d="M357.957,-382.059C297.73,-375.439 206.699,-361.464 184,-336 141.24,-288.032 152.378,-253.503 171,-192 174.872,-179.212 183.125,-166.699 190.53,-157.268"/>
<polygon fill="midnightblue" stroke="midnightblue" points="193.242,-159.482 196.942,-149.554 187.858,-155.007 193.242,-159.482"/>
</g>
<!-- Node33&#45;&gt;Node21 -->
<g id="edge57" class="edge"><title>Node33&#45;&gt;Node21</title>
<path fill="none" stroke="midnightblue" d="M468.137,-386.248C601.885,-383.836 940.32,-374.045 1046,-336 1102.15,-315.786 1156,-318.676 1156,-259 1156,-259 1156,-259 1156,-139 1156,-100.248 1156,-54.8973 1156,-29.9188"/>
<polygon fill="midnightblue" stroke="midnightblue" points="1159.5,-29.6912 1156,-19.6913 1152.5,-29.6913 1159.5,-29.6912"/>
</g>
<!-- Node33&#45;&gt;Node22 -->
<g id="edge56" class="edge"><title>Node33&#45;&gt;Node22</title>
<path fill="none" stroke="midnightblue" d="M468.268,-387.418C621.756,-387.103 1042,-375.594 1042,-259 1042,-259 1042,-259 1042,-139 1042,-88.9099 993.858,-46.7073 964.38,-25.5613"/>
<polygon fill="midnightblue" stroke="midnightblue" points="966.118,-22.5075 955.905,-19.6893 962.131,-28.2614 966.118,-22.5075"/>
</g>
<!-- Node33&#45;&gt;Node24 -->
<g id="edge48" class="edge"><title>Node33&#45;&gt;Node24</title>
<path fill="none" stroke="midnightblue" d="M428.407,-372.813C454.67,-348.627 507.905,-299.605 535.133,-274.532"/>
<polygon fill="midnightblue" stroke="midnightblue" points="537.704,-276.922 542.689,-267.574 532.962,-271.773 537.704,-276.922"/>
</g>
<!-- Node33&#45;&gt;Node25 -->
<g id="edge51" class="edge"><title>Node33&#45;&gt;Node25</title>
<path fill="none" stroke="midnightblue" d="M377.066,-372.86C360.714,-364.572 342.67,-352.452 332,-336 309.122,-300.727 309.041,-249.19 310.997,-221.778"/>
<polygon fill="midnightblue" stroke="midnightblue" points="314.5,-221.896 311.899,-211.625 307.528,-221.276 314.5,-221.896"/>
</g>
<!-- Node33&#45;&gt;Node26 -->
<g id="edge55" class="edge"><title>Node33&#45;&gt;Node26</title>
<path fill="none" stroke="midnightblue" d="M468.016,-380.742C590.002,-365.96 878.516,-325.735 956,-268 971.482,-256.464 981.166,-236.199 986.54,-221.355"/>
<polygon fill="midnightblue" stroke="midnightblue" points="989.914,-222.299 989.713,-211.706 983.264,-220.113 989.914,-222.299"/>
</g>
<!-- Node34 -->
<g id="node34" class="node"><title>Node34</title>
<polygon fill="none" stroke="#bfbfbf" points="341,-310.5 341,-329.5 385,-329.5 385,-310.5 341,-310.5"/>
<text text-anchor="middle" x="363" y="-317.5" font-family="Helvetica,sans-Serif" font-size="10.00">mutex</text>
</g>
<!-- Node33&#45;&gt;Node34 -->
<g id="edge53" class="edge"><title>Node33&#45;&gt;Node34</title>
<path fill="none" stroke="midnightblue" d="M402.151,-372.679C394.432,-362.49 384.029,-348.759 375.887,-338.011"/>
<polygon fill="midnightblue" stroke="midnightblue" points="378.517,-335.686 369.688,-329.828 372.937,-339.913 378.517,-335.686"/>
</g>
</g>
</svg>
