<?xml version="1.0" encoding="UTF-8" standalone="no"?>
<!DOCTYPE svg PUBLIC "-//W3C//DTD SVG 1.1//EN"
 "http://www.w3.org/Graphics/SVG/1.1/DTD/svg11.dtd">
<!-- Generated by graphviz version 2.36.0 (20140111.2315)
 -->
<!-- Title: /home/lucamuratore/advr&#45;superbuild/external/XBotInterface/include/spdlog/fmt/bundled/format.h Pages: 1 -->
<svg width="762pt" height="118pt"
 viewBox="0.00 0.00 762.00 118.00" xmlns="http://www.w3.org/2000/svg" xmlns:xlink="http://www.w3.org/1999/xlink">
<g id="graph0" class="graph" transform="scale(1 1) rotate(0) translate(4 114)">
<title>/home/lucamuratore/advr&#45;superbuild/external/XBotInterface/include/spdlog/fmt/bundled/format.h</title>
<!-- Node1 -->
<g id="node1" class="node"><title>Node1</title>
<polygon fill="#bfbfbf" stroke="black" points="299.5,-57 299.5,-109 444.5,-109 444.5,-57 299.5,-57"/>
<text text-anchor="start" x="307.5" y="-97" font-family="Helvetica,sans-Serif" font-size="10.00">/home/lucamuratore</text>
<text text-anchor="start" x="307.5" y="-86" font-family="Helvetica,sans-Serif" font-size="10.00">/advr&#45;superbuild/external</text>
<text text-anchor="start" x="307.5" y="-75" font-family="Helvetica,sans-Serif" font-size="10.00">/XBotInterface/include/spdlog</text>
<text text-anchor="middle" x="372" y="-64" font-family="Helvetica,sans-Serif" font-size="10.00">/fmt/bundled/format.h</text>
</g>
<!-- Node2 -->
<g id="node2" class="node"><title>Node2</title>
<polygon fill="none" stroke="#bfbfbf" points="-0.5,-0.5 -0.5,-19.5 48.5,-19.5 48.5,-0.5 -0.5,-0.5"/>
<text text-anchor="middle" x="24" y="-7.5" font-family="Helvetica,sans-Serif" font-size="10.00">cassert</text>
</g>
<!-- Node1&#45;&gt;Node2 -->
<g id="edge1" class="edge"><title>Node1&#45;&gt;Node2</title>
<path fill="none" stroke="midnightblue" d="M299.432,-69.2488C237.696,-58.0499 146.498,-40.6814 58.6779,-20.2808"/>
<polygon fill="midnightblue" stroke="midnightblue" points="59.3519,-16.844 48.8175,-17.9739 57.7572,-23.66 59.3519,-16.844"/>
</g>
<!-- Node3 -->
<g id="node3" class="node"><title>Node3</title>
<polygon fill="none" stroke="#bfbfbf" points="66.5,-0.5 66.5,-19.5 113.5,-19.5 113.5,-0.5 66.5,-0.5"/>
<text text-anchor="middle" x="90" y="-7.5" font-family="Helvetica,sans-Serif" font-size="10.00">clocale</text>
</g>
<!-- Node1&#45;&gt;Node3 -->
<g id="edge2" class="edge"><title>Node1&#45;&gt;Node3</title>
<path fill="none" stroke="midnightblue" d="M299.435,-64.3824C252.134,-52.7934 188.815,-37.0835 123.8,-20.1666"/>
<polygon fill="midnightblue" stroke="midnightblue" points="124.336,-16.6893 113.776,-17.5521 122.569,-23.4627 124.336,-16.6893"/>
</g>
<!-- Node4 -->
<g id="node4" class="node"><title>Node4</title>
<polygon fill="none" stroke="#bfbfbf" points="132,-0.5 132,-19.5 176,-19.5 176,-0.5 132,-0.5"/>
<text text-anchor="middle" x="154" y="-7.5" font-family="Helvetica,sans-Serif" font-size="10.00">cmath</text>
</g>
<!-- Node1&#45;&gt;Node4 -->
<g id="edge3" class="edge"><title>Node1&#45;&gt;Node4</title>
<path fill="none" stroke="midnightblue" d="M299.409,-58.358C261.074,-45.8726 215.949,-31.1762 186.253,-21.5045"/>
<polygon fill="midnightblue" stroke="midnightblue" points="187.022,-18.0738 176.429,-18.3049 184.854,-24.7297 187.022,-18.0738"/>
</g>
<!-- Node5 -->
<g id="node5" class="node"><title>Node5</title>
<polygon fill="none" stroke="#bfbfbf" points="194.5,-0.5 194.5,-19.5 237.5,-19.5 237.5,-0.5 194.5,-0.5"/>
<text text-anchor="middle" x="216" y="-7.5" font-family="Helvetica,sans-Serif" font-size="10.00">cstdio</text>
</g>
<!-- Node1&#45;&gt;Node5 -->
<g id="edge4" class="edge"><title>Node1&#45;&gt;Node5</title>
<path fill="none" stroke="midnightblue" d="M317,-56.9681C292.425,-45.783 264.503,-33.0753 244.256,-23.8601"/>
<polygon fill="midnightblue" stroke="midnightblue" points="245.533,-20.5958 234.981,-19.6389 242.633,-26.967 245.533,-20.5958"/>
</g>
<!-- Node6 -->
<g id="node6" class="node"><title>Node6</title>
<polygon fill="none" stroke="#bfbfbf" points="256,-0.5 256,-19.5 302,-19.5 302,-0.5 256,-0.5"/>
<text text-anchor="middle" x="279" y="-7.5" font-family="Helvetica,sans-Serif" font-size="10.00">cstring</text>
</g>
<!-- Node1&#45;&gt;Node6 -->
<g id="edge5" class="edge"><title>Node1&#45;&gt;Node6</title>
<path fill="none" stroke="midnightblue" d="M339.212,-56.9681C325.71,-46.6601 310.514,-35.0589 298.766,-26.09"/>
<polygon fill="midnightblue" stroke="midnightblue" points="300.612,-23.0958 290.539,-19.8095 296.364,-28.6597 300.612,-23.0958"/>
</g>
<!-- Node7 -->
<g id="node7" class="node"><title>Node7</title>
<polygon fill="none" stroke="#bfbfbf" points="320,-0.5 320,-19.5 360,-19.5 360,-0.5 320,-0.5"/>
<text text-anchor="middle" x="340" y="-7.5" font-family="Helvetica,sans-Serif" font-size="10.00">limits</text>
</g>
<!-- Node1&#45;&gt;Node7 -->
<g id="edge6" class="edge"><title>Node1&#45;&gt;Node7</title>
<path fill="none" stroke="midnightblue" d="M360.628,-56.7681C356.49,-47.587 351.9,-37.4034 348.103,-28.9775"/>
<polygon fill="midnightblue" stroke="midnightblue" points="351.247,-27.4358 343.947,-19.7572 344.865,-30.3121 351.247,-27.4358"/>
</g>
<!-- Node8 -->
<g id="node8" class="node"><title>Node8</title>
<polygon fill="none" stroke="#bfbfbf" points="378,-0.5 378,-19.5 430,-19.5 430,-0.5 378,-0.5"/>
<text text-anchor="middle" x="404" y="-7.5" font-family="Helvetica,sans-Serif" font-size="10.00">memory</text>
</g>
<!-- Node1&#45;&gt;Node8 -->
<g id="edge7" class="edge"><title>Node1&#45;&gt;Node8</title>
<path fill="none" stroke="midnightblue" d="M383.372,-56.7681C387.51,-47.587 392.1,-37.4034 395.897,-28.9775"/>
<polygon fill="midnightblue" stroke="midnightblue" points="399.135,-30.3121 400.053,-19.7572 392.753,-27.4358 399.135,-30.3121"/>
</g>
<!-- Node9 -->
<g id="node9" class="node"><title>Node9</title>
<polygon fill="none" stroke="#bfbfbf" points="448.5,-0.5 448.5,-19.5 507.5,-19.5 507.5,-0.5 448.5,-0.5"/>
<text text-anchor="middle" x="478" y="-7.5" font-family="Helvetica,sans-Serif" font-size="10.00">stdexcept</text>
</g>
<!-- Node1&#45;&gt;Node9 -->
<g id="edge8" class="edge"><title>Node1&#45;&gt;Node9</title>
<path fill="none" stroke="midnightblue" d="M409.372,-56.9681C425.16,-46.3931 442.98,-34.457 456.504,-25.3984"/>
<polygon fill="midnightblue" stroke="midnightblue" points="458.742,-28.112 465.103,-19.6389 454.846,-22.2961 458.742,-28.112"/>
</g>
<!-- Node10 -->
<g id="node10" class="node"><title>Node10</title>
<polygon fill="none" stroke="#bfbfbf" points="525.5,-0.5 525.5,-19.5 566.5,-19.5 566.5,-0.5 525.5,-0.5"/>
<text text-anchor="middle" x="546" y="-7.5" font-family="Helvetica,sans-Serif" font-size="10.00">string</text>
</g>
<!-- Node1&#45;&gt;Node10 -->
<g id="edge9" class="edge"><title>Node1&#45;&gt;Node10</title>
<path fill="none" stroke="midnightblue" d="M433.346,-56.9681C461.301,-45.5609 493.138,-32.5701 515.819,-23.3154"/>
<polygon fill="midnightblue" stroke="midnightblue" points="517.307,-26.4882 525.244,-19.4695 514.662,-20.007 517.307,-26.4882"/>
</g>
<!-- Node11 -->
<g id="node11" class="node"><title>Node11</title>
<polygon fill="none" stroke="#bfbfbf" points="585,-0.5 585,-19.5 629,-19.5 629,-0.5 585,-0.5"/>
<text text-anchor="middle" x="607" y="-7.5" font-family="Helvetica,sans-Serif" font-size="10.00">vector</text>
</g>
<!-- Node1&#45;&gt;Node11 -->
<g id="edge10" class="edge"><title>Node1&#45;&gt;Node11</title>
<path fill="none" stroke="midnightblue" d="M444.746,-60.0214C488.48,-46.8082 541.939,-30.6568 575.237,-20.5964"/>
<polygon fill="midnightblue" stroke="midnightblue" points="576.331,-23.9224 584.891,-17.6798 574.306,-17.2216 576.331,-23.9224"/>
</g>
<!-- Node12 -->
<g id="node12" class="node"><title>Node12</title>
<polygon fill="none" stroke="#bfbfbf" points="647,-0.5 647,-19.5 687,-19.5 687,-0.5 647,-0.5"/>
<text text-anchor="middle" x="667" y="-7.5" font-family="Helvetica,sans-Serif" font-size="10.00">utility</text>
</g>
<!-- Node1&#45;&gt;Node12 -->
<g id="edge11" class="edge"><title>Node1&#45;&gt;Node12</title>
<path fill="none" stroke="midnightblue" d="M444.564,-66.289C497.99,-54.4147 572.286,-37.2598 637,-20 637.099,-19.9737 637.197,-19.9474 637.296,-19.9209"/>
<polygon fill="midnightblue" stroke="midnightblue" points="638.037,-23.3484 646.715,-17.27 636.141,-16.6101 638.037,-23.3484"/>
</g>
<!-- Node13 -->
<g id="node13" class="node"><title>Node13</title>
<polygon fill="none" stroke="#bfbfbf" points="705.5,-0.5 705.5,-19.5 754.5,-19.5 754.5,-0.5 705.5,-0.5"/>
<text text-anchor="middle" x="730" y="-7.5" font-family="Helvetica,sans-Serif" font-size="10.00">stdint.h</text>
</g>
<!-- Node1&#45;&gt;Node13 -->
<g id="edge12" class="edge"><title>Node1&#45;&gt;Node13</title>
<path fill="none" stroke="midnightblue" d="M444.685,-69.5861C508.297,-58.3795 603.376,-40.8046 695.409,-20.0072"/>
<polygon fill="midnightblue" stroke="midnightblue" points="696.193,-23.4184 705.167,-17.7872 694.64,-16.5928 696.193,-23.4184"/>
</g>
</g>
</svg>
