<?xml version="1.0" encoding="UTF-8" standalone="no"?>
<!DOCTYPE svg PUBLIC "-//W3C//DTD SVG 1.1//EN"
 "http://www.w3.org/Graphics/SVG/1.1/DTD/svg11.dtd">
<!-- Generated by graphviz version 2.36.0 (20140111.2315)
 -->
<!-- Title: /home/lucamuratore/advr&#45;superbuild/external/XBotInterface/include/spdlog/formatter.h Pages: 1 -->
<svg width="1535pt" height="1052pt"
 viewBox="0.00 0.00 1535.00 1052.00" xmlns="http://www.w3.org/2000/svg" xmlns:xlink="http://www.w3.org/1999/xlink">
<g id="graph0" class="graph" transform="scale(1 1) rotate(0) translate(4 1048)">
<title>/home/lucamuratore/advr&#45;superbuild/external/XBotInterface/include/spdlog/formatter.h</title>
<!-- Node1 -->
<g id="node1" class="node"><title>Node1</title>
<polygon fill="#bfbfbf" stroke="black" points="735.5,-991 735.5,-1043 880.5,-1043 880.5,-991 735.5,-991"/>
<text text-anchor="start" x="743.5" y="-1031" font-family="Helvetica,sans-Serif" font-size="10.00">/home/lucamuratore</text>
<text text-anchor="start" x="743.5" y="-1020" font-family="Helvetica,sans-Serif" font-size="10.00">/advr&#45;superbuild/external</text>
<text text-anchor="start" x="743.5" y="-1009" font-family="Helvetica,sans-Serif" font-size="10.00">/XBotInterface/include/spdlog</text>
<text text-anchor="middle" x="808" y="-998" font-family="Helvetica,sans-Serif" font-size="10.00">/formatter.h</text>
</g>
<!-- Node2 -->
<g id="node2" class="node"><title>Node2</title>
<g id="a_node2"><a xlink:href="async__log__helper_8h.html" target="_top" xlink:title="/home/lucamuratore\l/advr&#45;superbuild/external\l/XBotInterface/include/spdlog\l/details/async_log_helper.h">
<polygon fill="none" stroke="black" points="244.5,-901 244.5,-953 389.5,-953 389.5,-901 244.5,-901"/>
<text text-anchor="start" x="252.5" y="-941" font-family="Helvetica,sans-Serif" font-size="10.00">/home/lucamuratore</text>
<text text-anchor="start" x="252.5" y="-930" font-family="Helvetica,sans-Serif" font-size="10.00">/advr&#45;superbuild/external</text>
<text text-anchor="start" x="252.5" y="-919" font-family="Helvetica,sans-Serif" font-size="10.00">/XBotInterface/include/spdlog</text>
<text text-anchor="middle" x="317" y="-908" font-family="Helvetica,sans-Serif" font-size="10.00">/details/async_log_helper.h</text>
</a>
</g>
</g>
<!-- Node1&#45;&gt;Node2 -->
<g id="edge1" class="edge"><title>Node1&#45;&gt;Node2</title>
<path fill="none" stroke="midnightblue" d="M725.247,-1001.17C631.231,-984.318 479.27,-957.083 389.661,-941.023"/>
<polygon fill="midnightblue" stroke="midnightblue" points="724.826,-1004.65 735.287,-1002.97 726.061,-997.759 724.826,-1004.65"/>
</g>
<!-- Node21 -->
<g id="node21" class="node"><title>Node21</title>
<g id="a_node21"><a xlink:href="pattern__formatter__impl_8h.html" target="_top" xlink:title="/home/lucamuratore\l/advr&#45;superbuild/external\l/XBotInterface/include/spdlog\l/details/pattern_formatter_impl.h">
<polygon fill="none" stroke="black" points="814.5,-901 814.5,-953 971.5,-953 971.5,-901 814.5,-901"/>
<text text-anchor="start" x="822.5" y="-941" font-family="Helvetica,sans-Serif" font-size="10.00">/home/lucamuratore</text>
<text text-anchor="start" x="822.5" y="-930" font-family="Helvetica,sans-Serif" font-size="10.00">/advr&#45;superbuild/external</text>
<text text-anchor="start" x="822.5" y="-919" font-family="Helvetica,sans-Serif" font-size="10.00">/XBotInterface/include/spdlog</text>
<text text-anchor="middle" x="893" y="-908" font-family="Helvetica,sans-Serif" font-size="10.00">/details/pattern_formatter_impl.h</text>
</a>
</g>
</g>
<!-- Node1&#45;&gt;Node21 -->
<g id="edge24" class="edge"><title>Node1&#45;&gt;Node21</title>
<path fill="none" stroke="midnightblue" d="M833.187,-983.139C842.434,-973.196 852.953,-962.441 862.601,-953.092"/>
<polygon fill="midnightblue" stroke="midnightblue" points="830.574,-980.809 826.4,-990.547 835.736,-985.538 830.574,-980.809"/>
</g>
<!-- Node22 -->
<g id="node22" class="node"><title>Node22</title>
<g id="a_node22"><a xlink:href="base__sink_8h.html" target="_top" xlink:title="/home/lucamuratore\l/advr&#45;superbuild/external\l/XBotInterface/include/spdlog\l/sinks/base_sink.h">
<polygon fill="none" stroke="black" points="651.5,-901 651.5,-953 796.5,-953 796.5,-901 651.5,-901"/>
<text text-anchor="start" x="659.5" y="-941" font-family="Helvetica,sans-Serif" font-size="10.00">/home/lucamuratore</text>
<text text-anchor="start" x="659.5" y="-930" font-family="Helvetica,sans-Serif" font-size="10.00">/advr&#45;superbuild/external</text>
<text text-anchor="start" x="659.5" y="-919" font-family="Helvetica,sans-Serif" font-size="10.00">/XBotInterface/include/spdlog</text>
<text text-anchor="middle" x="724" y="-908" font-family="Helvetica,sans-Serif" font-size="10.00">/sinks/base_sink.h</text>
</a>
</g>
</g>
<!-- Node1&#45;&gt;Node22 -->
<g id="edge26" class="edge"><title>Node1&#45;&gt;Node22</title>
<path fill="none" stroke="midnightblue" d="M776.632,-983.139C767.141,-973.196 756.875,-962.441 747.952,-953.092"/>
<polygon fill="midnightblue" stroke="midnightblue" points="774.267,-985.73 783.704,-990.547 779.331,-980.896 774.267,-985.73"/>
</g>
<!-- Node3 -->
<g id="node3" class="node"><title>Node3</title>
<g id="a_node3"><a xlink:href="async__logger__impl_8h.html" target="_top" xlink:title="/home/lucamuratore\l/advr&#45;superbuild/external\l/XBotInterface/include/spdlog\l/details/async_logger_impl.h">
<polygon fill="none" stroke="black" points="-0.5,-811 -0.5,-863 144.5,-863 144.5,-811 -0.5,-811"/>
<text text-anchor="start" x="7.5" y="-851" font-family="Helvetica,sans-Serif" font-size="10.00">/home/lucamuratore</text>
<text text-anchor="start" x="7.5" y="-840" font-family="Helvetica,sans-Serif" font-size="10.00">/advr&#45;superbuild/external</text>
<text text-anchor="start" x="7.5" y="-829" font-family="Helvetica,sans-Serif" font-size="10.00">/XBotInterface/include/spdlog</text>
<text text-anchor="middle" x="72" y="-818" font-family="Helvetica,sans-Serif" font-size="10.00">/details/async_logger_impl.h</text>
</a>
</g>
</g>
<!-- Node2&#45;&gt;Node3 -->
<g id="edge2" class="edge"><title>Node2&#45;&gt;Node3</title>
<path fill="none" stroke="midnightblue" d="M237.697,-897.516C206.866,-886.442 171.848,-873.864 141.972,-863.133"/>
<polygon fill="midnightblue" stroke="midnightblue" points="236.526,-900.814 247.121,-900.901 238.893,-894.226 236.526,-900.814"/>
</g>
<!-- Node4 -->
<g id="node4" class="node"><title>Node4</title>
<g id="a_node4"><a xlink:href="async__logger_8h.html" target="_top" xlink:title="/home/lucamuratore\l/advr&#45;superbuild/external\l/XBotInterface/include/spdlog\l/async_logger.h">
<polygon fill="none" stroke="black" points="14.5,-721 14.5,-773 159.5,-773 159.5,-721 14.5,-721"/>
<text text-anchor="start" x="22.5" y="-761" font-family="Helvetica,sans-Serif" font-size="10.00">/home/lucamuratore</text>
<text text-anchor="start" x="22.5" y="-750" font-family="Helvetica,sans-Serif" font-size="10.00">/advr&#45;superbuild/external</text>
<text text-anchor="start" x="22.5" y="-739" font-family="Helvetica,sans-Serif" font-size="10.00">/XBotInterface/include/spdlog</text>
<text text-anchor="middle" x="87" y="-728" font-family="Helvetica,sans-Serif" font-size="10.00">/async_logger.h</text>
</a>
</g>
</g>
<!-- Node3&#45;&gt;Node4 -->
<g id="edge3" class="edge"><title>Node3&#45;&gt;Node4</title>
<path fill="none" stroke="midnightblue" d="M71.4159,-800.489C72.7337,-791.309 74.5441,-781.616 76.5605,-773.092"/>
<polygon fill="midnightblue" stroke="midnightblue" points="67.9263,-800.188 70.1526,-810.547 74.8717,-801.061 67.9263,-800.188"/>
</g>
<!-- Node4&#45;&gt;Node3 -->
<g id="edge4" class="edge"><title>Node4&#45;&gt;Node3</title>
<path fill="none" stroke="midnightblue" d="M87.6395,-783.123C86.3356,-792.289 84.5351,-801.99 82.5246,-810.547"/>
<polygon fill="midnightblue" stroke="midnightblue" points="91.126,-783.447 88.8853,-773.092 84.1794,-782.584 91.126,-783.447"/>
</g>
<!-- Node5 -->
<g id="node5" class="node"><title>Node5</title>
<g id="a_node5"><a xlink:href="registry_8h.html" target="_top" xlink:title="/home/lucamuratore\l/advr&#45;superbuild/external\l/XBotInterface/include/spdlog\l/details/registry.h">
<polygon fill="none" stroke="black" points="100.5,-631 100.5,-683 245.5,-683 245.5,-631 100.5,-631"/>
<text text-anchor="start" x="108.5" y="-671" font-family="Helvetica,sans-Serif" font-size="10.00">/home/lucamuratore</text>
<text text-anchor="start" x="108.5" y="-660" font-family="Helvetica,sans-Serif" font-size="10.00">/advr&#45;superbuild/external</text>
<text text-anchor="start" x="108.5" y="-649" font-family="Helvetica,sans-Serif" font-size="10.00">/XBotInterface/include/spdlog</text>
<text text-anchor="middle" x="173" y="-638" font-family="Helvetica,sans-Serif" font-size="10.00">/details/registry.h</text>
</a>
</g>
</g>
<!-- Node4&#45;&gt;Node5 -->
<g id="edge5" class="edge"><title>Node4&#45;&gt;Node5</title>
<path fill="none" stroke="midnightblue" d="M119.115,-713.139C128.831,-703.196 139.342,-692.441 148.478,-683.092"/>
<polygon fill="midnightblue" stroke="midnightblue" points="116.361,-710.949 111.875,-720.547 121.367,-715.841 116.361,-710.949"/>
</g>
<!-- Node6 -->
<g id="node6" class="node"><title>Node6</title>
<g id="a_node6"><a xlink:href="spdlog__impl_8h.html" target="_top" xlink:title="/home/lucamuratore\l/advr&#45;superbuild/external\l/XBotInterface/include/spdlog\l/details/spdlog_impl.h">
<polygon fill="none" stroke="black" points="914.5,-541 914.5,-593 1059.5,-593 1059.5,-541 914.5,-541"/>
<text text-anchor="start" x="922.5" y="-581" font-family="Helvetica,sans-Serif" font-size="10.00">/home/lucamuratore</text>
<text text-anchor="start" x="922.5" y="-570" font-family="Helvetica,sans-Serif" font-size="10.00">/advr&#45;superbuild/external</text>
<text text-anchor="start" x="922.5" y="-559" font-family="Helvetica,sans-Serif" font-size="10.00">/XBotInterface/include/spdlog</text>
<text text-anchor="middle" x="987" y="-548" font-family="Helvetica,sans-Serif" font-size="10.00">/details/spdlog_impl.h</text>
</a>
</g>
</g>
<!-- Node5&#45;&gt;Node6 -->
<g id="edge6" class="edge"><title>Node5&#45;&gt;Node6</title>
<path fill="none" stroke="midnightblue" d="M255.833,-647.045C415.463,-629.788 763.254,-592.189 914.422,-575.846"/>
<polygon fill="midnightblue" stroke="midnightblue" points="255.161,-643.597 245.595,-648.152 255.913,-650.557 255.161,-643.597"/>
</g>
<!-- Node7 -->
<g id="node7" class="node"><title>Node7</title>
<g id="a_node7"><a xlink:href="spdlog_8h.html" target="_top" xlink:title="/home/lucamuratore\l/advr&#45;superbuild/external\l/XBotInterface/include/spdlog\l/spdlog.h">
<polygon fill="none" stroke="black" points="914.5,-451 914.5,-503 1059.5,-503 1059.5,-451 914.5,-451"/>
<text text-anchor="start" x="922.5" y="-491" font-family="Helvetica,sans-Serif" font-size="10.00">/home/lucamuratore</text>
<text text-anchor="start" x="922.5" y="-480" font-family="Helvetica,sans-Serif" font-size="10.00">/advr&#45;superbuild/external</text>
<text text-anchor="start" x="922.5" y="-469" font-family="Helvetica,sans-Serif" font-size="10.00">/XBotInterface/include/spdlog</text>
<text text-anchor="middle" x="987" y="-458" font-family="Helvetica,sans-Serif" font-size="10.00">/spdlog.h</text>
</a>
</g>
</g>
<!-- Node6&#45;&gt;Node7 -->
<g id="edge7" class="edge"><title>Node6&#45;&gt;Node7</title>
<path fill="none" stroke="midnightblue" d="M980.363,-530.489C980.116,-521.309 980.274,-511.616 980.838,-503.092"/>
<polygon fill="midnightblue" stroke="midnightblue" points="976.869,-530.714 980.814,-540.547 983.862,-530.4 976.869,-530.714"/>
</g>
<!-- Node7&#45;&gt;Node6 -->
<g id="edge8" class="edge"><title>Node7&#45;&gt;Node6</title>
<path fill="none" stroke="midnightblue" d="M993.626,-513.123C993.885,-522.289 993.738,-531.99 993.186,-540.547"/>
<polygon fill="midnightblue" stroke="midnightblue" points="997.121,-512.92 993.162,-503.092 990.128,-513.243 997.121,-512.92"/>
</g>
<!-- Node8 -->
<g id="node8" class="node"><title>Node8</title>
<g id="a_node8"><a xlink:href="Logger_8hpp.html" target="_top" xlink:title="/home/lucamuratore\l/advr&#45;superbuild/external\l/XBotInterface/include/XBotInterface\l/Logger.hpp">
<polygon fill="none" stroke="black" points="899,-361 899,-413 1075,-413 1075,-361 899,-361"/>
<text text-anchor="start" x="907" y="-401" font-family="Helvetica,sans-Serif" font-size="10.00">/home/lucamuratore</text>
<text text-anchor="start" x="907" y="-390" font-family="Helvetica,sans-Serif" font-size="10.00">/advr&#45;superbuild/external</text>
<text text-anchor="start" x="907" y="-379" font-family="Helvetica,sans-Serif" font-size="10.00">/XBotInterface/include/XBotInterface</text>
<text text-anchor="middle" x="987" y="-368" font-family="Helvetica,sans-Serif" font-size="10.00">/Logger.hpp</text>
</a>
</g>
</g>
<!-- Node7&#45;&gt;Node8 -->
<g id="edge9" class="edge"><title>Node7&#45;&gt;Node8</title>
<path fill="none" stroke="midnightblue" d="M987,-440.489C987,-431.309 987,-421.616 987,-413.092"/>
<polygon fill="midnightblue" stroke="midnightblue" points="983.5,-440.547 987,-450.547 990.5,-440.547 983.5,-440.547"/>
</g>
<!-- Node9 -->
<g id="node9" class="node"><title>Node9</title>
<g id="a_node9"><a xlink:href="ConfigHelper_8h.html" target="_top" xlink:title="/home/lucamuratore\l/advr&#45;superbuild/external\l/XBotInterface/include/XBotInterface\l/ConfigHelper.h">
<polygon fill="none" stroke="black" points="725,-271 725,-323 901,-323 901,-271 725,-271"/>
<text text-anchor="start" x="733" y="-311" font-family="Helvetica,sans-Serif" font-size="10.00">/home/lucamuratore</text>
<text text-anchor="start" x="733" y="-300" font-family="Helvetica,sans-Serif" font-size="10.00">/advr&#45;superbuild/external</text>
<text text-anchor="start" x="733" y="-289" font-family="Helvetica,sans-Serif" font-size="10.00">/XBotInterface/include/XBotInterface</text>
<text text-anchor="middle" x="813" y="-278" font-family="Helvetica,sans-Serif" font-size="10.00">/ConfigHelper.h</text>
</a>
</g>
</g>
<!-- Node8&#45;&gt;Node9 -->
<g id="edge10" class="edge"><title>Node8&#45;&gt;Node9</title>
<path fill="none" stroke="midnightblue" d="M928.175,-356.249C906.857,-345.468 883.009,-333.407 862.568,-323.069"/>
<polygon fill="midnightblue" stroke="midnightblue" points="926.635,-359.393 937.139,-360.783 929.795,-353.146 926.635,-359.393"/>
</g>
<!-- Node11 -->
<g id="node11" class="node"><title>Node11</title>
<g id="a_node11"><a xlink:href="StateMachine_8h.html" target="_top" xlink:title="/home/lucamuratore\l/advr&#45;superbuild/external\l/XBotInterface/include/XBotInterface\l/StateMachine.h">
<polygon fill="none" stroke="black" points="801,-1 801,-53 977,-53 977,-1 801,-1"/>
<text text-anchor="start" x="809" y="-41" font-family="Helvetica,sans-Serif" font-size="10.00">/home/lucamuratore</text>
<text text-anchor="start" x="809" y="-30" font-family="Helvetica,sans-Serif" font-size="10.00">/advr&#45;superbuild/external</text>
<text text-anchor="start" x="809" y="-19" font-family="Helvetica,sans-Serif" font-size="10.00">/XBotInterface/include/XBotInterface</text>
<text text-anchor="middle" x="889" y="-8" font-family="Helvetica,sans-Serif" font-size="10.00">/StateMachine.h</text>
</a>
</g>
</g>
<!-- Node8&#45;&gt;Node11 -->
<g id="edge12" class="edge"><title>Node8&#45;&gt;Node11</title>
<path fill="none" stroke="midnightblue" d="M962.739,-352.352C957.215,-343.469 951.847,-333.657 948,-324 928.17,-274.226 902.372,-115.088 892.795,-53.0746"/>
<polygon fill="midnightblue" stroke="midnightblue" points="959.891,-354.394 968.265,-360.886 965.767,-350.589 959.891,-354.394"/>
</g>
<!-- Node12 -->
<g id="node12" class="node"><title>Node12</title>
<g id="a_node12"><a xlink:href="XBotInterface_8h.html" target="_top" xlink:title="/home/lucamuratore\l/advr&#45;superbuild/external\l/XBotInterface/include/XBotInterface\l/XBotInterface.h">
<polygon fill="none" stroke="black" points="957,-271 957,-323 1133,-323 1133,-271 957,-271"/>
<text text-anchor="start" x="965" y="-311" font-family="Helvetica,sans-Serif" font-size="10.00">/home/lucamuratore</text>
<text text-anchor="start" x="965" y="-300" font-family="Helvetica,sans-Serif" font-size="10.00">/advr&#45;superbuild/external</text>
<text text-anchor="start" x="965" y="-289" font-family="Helvetica,sans-Serif" font-size="10.00">/XBotInterface/include/XBotInterface</text>
<text text-anchor="middle" x="1045" y="-278" font-family="Helvetica,sans-Serif" font-size="10.00">/XBotInterface.h</text>
</a>
</g>
</g>
<!-- Node8&#45;&gt;Node12 -->
<g id="edge13" class="edge"><title>Node8&#45;&gt;Node12</title>
<path fill="none" stroke="midnightblue" d="M1009.43,-351.965C1015.77,-342.354 1022.54,-332.074 1028.46,-323.092"/>
<polygon fill="midnightblue" stroke="midnightblue" points="1006.36,-350.271 1003.78,-360.547 1012.2,-354.123 1006.36,-350.271"/>
</g>
<!-- Node20 -->
<g id="node20" class="node"><title>Node20</title>
<g id="a_node20"><a xlink:href="Logger_8cpp.html" target="_top" xlink:title="/home/lucamuratore\l/advr&#45;superbuild/external\l/XBotInterface/src/Logger.cpp">
<polygon fill="none" stroke="black" points="1151.5,-276.5 1151.5,-317.5 1298.5,-317.5 1298.5,-276.5 1151.5,-276.5"/>
<text text-anchor="start" x="1159.5" y="-305.5" font-family="Helvetica,sans-Serif" font-size="10.00">/home/lucamuratore</text>
<text text-anchor="start" x="1159.5" y="-294.5" font-family="Helvetica,sans-Serif" font-size="10.00">/advr&#45;superbuild/external</text>
<text text-anchor="middle" x="1225" y="-283.5" font-family="Helvetica,sans-Serif" font-size="10.00">/XBotInterface/src/Logger.cpp</text>
</a>
</g>
</g>
<!-- Node8&#45;&gt;Node20 -->
<g id="edge23" class="edge"><title>Node8&#45;&gt;Node20</title>
<path fill="none" stroke="midnightblue" d="M1064.65,-357.288C1099.85,-344.273 1140.56,-329.22 1172.16,-317.538"/>
<polygon fill="midnightblue" stroke="midnightblue" points="1063.05,-354.15 1054.88,-360.901 1065.48,-360.715 1063.05,-354.15"/>
</g>
<!-- Node10 -->
<g id="node10" class="node"><title>Node10</title>
<g id="a_node10"><a xlink:href="ConfigHelper_8cpp.html" target="_top" xlink:title="/home/lucamuratore\l/advr&#45;superbuild/external\l/XBotInterface/src/ConfigHelper.cpp">
<polygon fill="none" stroke="black" points="725.5,-186.5 725.5,-227.5 900.5,-227.5 900.5,-186.5 725.5,-186.5"/>
<text text-anchor="start" x="733.5" y="-215.5" font-family="Helvetica,sans-Serif" font-size="10.00">/home/lucamuratore</text>
<text text-anchor="start" x="733.5" y="-204.5" font-family="Helvetica,sans-Serif" font-size="10.00">/advr&#45;superbuild/external</text>
<text text-anchor="middle" x="813" y="-193.5" font-family="Helvetica,sans-Serif" font-size="10.00">/XBotInterface/src/ConfigHelper.cpp</text>
</a>
</g>
</g>
<!-- Node9&#45;&gt;Node10 -->
<g id="edge11" class="edge"><title>Node9&#45;&gt;Node10</title>
<path fill="none" stroke="midnightblue" d="M813,-260.515C813,-249.257 813,-237.227 813,-227.525"/>
<polygon fill="midnightblue" stroke="midnightblue" points="809.5,-260.547 813,-270.547 816.5,-260.547 809.5,-260.547"/>
</g>
<!-- Node13 -->
<g id="node13" class="node"><title>Node13</title>
<g id="a_node13"><a xlink:href="ModelInterface_8h.html" target="_top" xlink:title="/home/lucamuratore\l/advr&#45;superbuild/external\l/XBotInterface/include/XBotInterface\l/ModelInterface.h">
<polygon fill="none" stroke="black" points="1073,-181 1073,-233 1249,-233 1249,-181 1073,-181"/>
<text text-anchor="start" x="1081" y="-221" font-family="Helvetica,sans-Serif" font-size="10.00">/home/lucamuratore</text>
<text text-anchor="start" x="1081" y="-210" font-family="Helvetica,sans-Serif" font-size="10.00">/advr&#45;superbuild/external</text>
<text text-anchor="start" x="1081" y="-199" font-family="Helvetica,sans-Serif" font-size="10.00">/XBotInterface/include/XBotInterface</text>
<text text-anchor="middle" x="1161" y="-188" font-family="Helvetica,sans-Serif" font-size="10.00">/ModelInterface.h</text>
</a>
</g>
</g>
<!-- Node12&#45;&gt;Node13 -->
<g id="edge14" class="edge"><title>Node12&#45;&gt;Node13</title>
<path fill="none" stroke="midnightblue" d="M1086.48,-264.534C1100.03,-254.254 1114.89,-242.979 1127.75,-233.221"/>
<polygon fill="midnightblue" stroke="midnightblue" points="1084.09,-261.95 1078.24,-270.783 1088.32,-267.527 1084.09,-261.95"/>
</g>
<!-- Node14 -->
<g id="node14" class="node"><title>Node14</title>
<g id="a_node14"><a xlink:href="RobotInterface_8h.html" target="_top" xlink:title="/home/lucamuratore\l/advr&#45;superbuild/external\l/XBotInterface/include/XBotInterface\l/RobotInterface.h">
<polygon fill="none" stroke="black" points="957,-91 957,-143 1133,-143 1133,-91 957,-91"/>
<text text-anchor="start" x="965" y="-131" font-family="Helvetica,sans-Serif" font-size="10.00">/home/lucamuratore</text>
<text text-anchor="start" x="965" y="-120" font-family="Helvetica,sans-Serif" font-size="10.00">/advr&#45;superbuild/external</text>
<text text-anchor="start" x="965" y="-109" font-family="Helvetica,sans-Serif" font-size="10.00">/XBotInterface/include/XBotInterface</text>
<text text-anchor="middle" x="1045" y="-98" font-family="Helvetica,sans-Serif" font-size="10.00">/RobotInterface.h</text>
</a>
</g>
</g>
<!-- Node12&#45;&gt;Node14 -->
<g id="edge21" class="edge"><title>Node12&#45;&gt;Node14</title>
<path fill="none" stroke="midnightblue" d="M1045,-260.717C1045,-226.052 1045,-174.016 1045,-143.285"/>
<polygon fill="midnightblue" stroke="midnightblue" points="1041.5,-260.874 1045,-270.874 1048.5,-260.875 1041.5,-260.874"/>
</g>
<!-- Node19 -->
<g id="node19" class="node"><title>Node19</title>
<g id="a_node19"><a xlink:href="XBotInterface_8cpp.html" target="_top" xlink:title="/home/lucamuratore\l/advr&#45;superbuild/external\l/XBotInterface/src/XBotInterface.cpp">
<polygon fill="none" stroke="black" points="1267,-186.5 1267,-227.5 1445,-227.5 1445,-186.5 1267,-186.5"/>
<text text-anchor="start" x="1275" y="-215.5" font-family="Helvetica,sans-Serif" font-size="10.00">/home/lucamuratore</text>
<text text-anchor="start" x="1275" y="-204.5" font-family="Helvetica,sans-Serif" font-size="10.00">/advr&#45;superbuild/external</text>
<text text-anchor="middle" x="1356" y="-193.5" font-family="Helvetica,sans-Serif" font-size="10.00">/XBotInterface/src/XBotInterface.cpp</text>
</a>
</g>
</g>
<!-- Node12&#45;&gt;Node19 -->
<g id="edge22" class="edge"><title>Node12&#45;&gt;Node19</title>
<path fill="none" stroke="midnightblue" d="M1143.14,-268.231C1189.91,-254.998 1244.72,-239.486 1287.02,-227.519"/>
<polygon fill="midnightblue" stroke="midnightblue" points="1141.96,-264.928 1133.29,-271.018 1143.86,-271.663 1141.96,-264.928"/>
</g>
<!-- Node13&#45;&gt;Node14 -->
<g id="edge15" class="edge"><title>Node13&#45;&gt;Node14</title>
<path fill="none" stroke="midnightblue" d="M1119.52,-174.534C1105.97,-164.254 1091.11,-152.979 1078.25,-143.221"/>
<polygon fill="midnightblue" stroke="midnightblue" points="1117.68,-177.527 1127.76,-180.783 1121.91,-171.95 1117.68,-177.527"/>
</g>
<!-- Node17 -->
<g id="node17" class="node"><title>Node17</title>
<g id="a_node17"><a xlink:href="Utils_8h.html" target="_top" xlink:title="/home/lucamuratore\l/advr&#45;superbuild/external\l/XBotInterface/include/XBotInterface\l/Utils.h">
<polygon fill="none" stroke="black" points="1351,-91 1351,-143 1527,-143 1527,-91 1351,-91"/>
<text text-anchor="start" x="1359" y="-131" font-family="Helvetica,sans-Serif" font-size="10.00">/home/lucamuratore</text>
<text text-anchor="start" x="1359" y="-120" font-family="Helvetica,sans-Serif" font-size="10.00">/advr&#45;superbuild/external</text>
<text text-anchor="start" x="1359" y="-109" font-family="Helvetica,sans-Serif" font-size="10.00">/XBotInterface/include/XBotInterface</text>
<text text-anchor="middle" x="1439" y="-98" font-family="Helvetica,sans-Serif" font-size="10.00">/Utils.h</text>
</a>
</g>
</g>
<!-- Node13&#45;&gt;Node17 -->
<g id="edge19" class="edge"><title>Node13&#45;&gt;Node17</title>
<path fill="none" stroke="midnightblue" d="M1250.08,-177.802C1285.28,-166.659 1325.41,-153.956 1359.6,-143.133"/>
<polygon fill="midnightblue" stroke="midnightblue" points="1248.77,-174.546 1240.29,-180.901 1250.88,-181.219 1248.77,-174.546"/>
</g>
<!-- Node18 -->
<g id="node18" class="node"><title>Node18</title>
<g id="a_node18"><a xlink:href="ModelInterface_8cpp.html" target="_top" xlink:title="/home/lucamuratore\l/advr&#45;superbuild/external\l/XBotInterface/src/ModelInterface.cpp">
<polygon fill="none" stroke="black" points="1151,-96.5 1151,-137.5 1333,-137.5 1333,-96.5 1151,-96.5"/>
<text text-anchor="start" x="1159" y="-125.5" font-family="Helvetica,sans-Serif" font-size="10.00">/home/lucamuratore</text>
<text text-anchor="start" x="1159" y="-114.5" font-family="Helvetica,sans-Serif" font-size="10.00">/advr&#45;superbuild/external</text>
<text text-anchor="middle" x="1242" y="-103.5" font-family="Helvetica,sans-Serif" font-size="10.00">/XBotInterface/src/ModelInterface.cpp</text>
</a>
</g>
</g>
<!-- Node13&#45;&gt;Node18 -->
<g id="edge20" class="edge"><title>Node13&#45;&gt;Node18</title>
<path fill="none" stroke="midnightblue" d="M1191.45,-172.914C1202.43,-160.988 1214.46,-147.92 1224.03,-137.525"/>
<polygon fill="midnightblue" stroke="midnightblue" points="1188.63,-170.819 1184.43,-180.547 1193.78,-175.559 1188.63,-170.819"/>
</g>
<!-- Node14&#45;&gt;Node11 -->
<g id="edge16" class="edge"><title>Node14&#45;&gt;Node11</title>
<path fill="none" stroke="midnightblue" d="M991.491,-85.8154C972.575,-75.1451 951.521,-63.2684 933.44,-53.0687"/>
<polygon fill="midnightblue" stroke="midnightblue" points="989.867,-88.9179 1000.3,-90.7827 993.307,-82.821 989.867,-88.9179"/>
</g>
<!-- Node15 -->
<g id="node15" class="node"><title>Node15</title>
<g id="a_node15"><a xlink:href="main__test_8cpp.html" target="_top" xlink:title="/home/lucamuratore\l/advr&#45;superbuild/external\l/XBotInterface/src/main\l_test.cpp">
<polygon fill="none" stroke="black" points="1195.5,-1 1195.5,-53 1318.5,-53 1318.5,-1 1195.5,-1"/>
<text text-anchor="start" x="1203.5" y="-41" font-family="Helvetica,sans-Serif" font-size="10.00">/home/lucamuratore</text>
<text text-anchor="start" x="1203.5" y="-30" font-family="Helvetica,sans-Serif" font-size="10.00">/advr&#45;superbuild/external</text>
<text text-anchor="start" x="1203.5" y="-19" font-family="Helvetica,sans-Serif" font-size="10.00">/XBotInterface/src/main</text>
<text text-anchor="middle" x="1257" y="-8" font-family="Helvetica,sans-Serif" font-size="10.00">_test.cpp</text>
</a>
</g>
</g>
<!-- Node14&#45;&gt;Node15 -->
<g id="edge17" class="edge"><title>Node14&#45;&gt;Node15</title>
<path fill="none" stroke="midnightblue" d="M1115,-86.9416C1141.34,-76.0085 1171.05,-63.6787 1196.45,-53.1328"/>
<polygon fill="midnightblue" stroke="midnightblue" points="1113.36,-83.8341 1105.47,-90.9005 1116.04,-90.2992 1113.36,-83.8341"/>
</g>
<!-- Node16 -->
<g id="node16" class="node"><title>Node16</title>
<g id="a_node16"><a xlink:href="RobotInterface_8cpp.html" target="_top" xlink:title="/home/lucamuratore\l/advr&#45;superbuild/external\l/XBotInterface/src/RobotInterface.cpp">
<polygon fill="none" stroke="black" points="995,-6.5 995,-47.5 1177,-47.5 1177,-6.5 995,-6.5"/>
<text text-anchor="start" x="1003" y="-35.5" font-family="Helvetica,sans-Serif" font-size="10.00">/home/lucamuratore</text>
<text text-anchor="start" x="1003" y="-24.5" font-family="Helvetica,sans-Serif" font-size="10.00">/advr&#45;superbuild/external</text>
<text text-anchor="middle" x="1086" y="-13.5" font-family="Helvetica,sans-Serif" font-size="10.00">/XBotInterface/src/RobotInterface.cpp</text>
</a>
</g>
</g>
<!-- Node14&#45;&gt;Node16 -->
<g id="edge18" class="edge"><title>Node14&#45;&gt;Node16</title>
<path fill="none" stroke="midnightblue" d="M1061.21,-81.203C1066.55,-69.7495 1072.29,-57.425 1076.9,-47.5249"/>
<polygon fill="midnightblue" stroke="midnightblue" points="1057.91,-80.0041 1056.86,-90.5468 1064.25,-82.9604 1057.91,-80.0041"/>
</g>
<!-- Node21&#45;&gt;Node1 -->
<g id="edge25" class="edge"><title>Node21&#45;&gt;Node1</title>
<path fill="none" stroke="midnightblue" d="M868.169,-960.479C858.955,-970.4 848.442,-981.162 838.772,-990.547"/>
<polygon fill="midnightblue" stroke="midnightblue" points="870.758,-962.833 874.926,-953.092 865.593,-958.108 870.758,-962.833"/>
</g>
<!-- Node23 -->
<g id="node23" class="node"><title>Node23</title>
<g id="a_node23"><a xlink:href="logger_8h.html" target="_top" xlink:title="/home/lucamuratore\l/advr&#45;superbuild/external\l/XBotInterface/include/spdlog\l/logger.h">
<polygon fill="none" stroke="black" points="162.5,-811 162.5,-863 307.5,-863 307.5,-811 162.5,-811"/>
<text text-anchor="start" x="170.5" y="-851" font-family="Helvetica,sans-Serif" font-size="10.00">/home/lucamuratore</text>
<text text-anchor="start" x="170.5" y="-840" font-family="Helvetica,sans-Serif" font-size="10.00">/advr&#45;superbuild/external</text>
<text text-anchor="start" x="170.5" y="-829" font-family="Helvetica,sans-Serif" font-size="10.00">/XBotInterface/include/spdlog</text>
<text text-anchor="middle" x="235" y="-818" font-family="Helvetica,sans-Serif" font-size="10.00">/logger.h</text>
</a>
</g>
</g>
<!-- Node22&#45;&gt;Node23 -->
<g id="edge27" class="edge"><title>Node22&#45;&gt;Node23</title>
<path fill="none" stroke="midnightblue" d="M641.353,-917.368C558.405,-907.788 427.314,-890.146 316,-864 313.268,-863.358 310.496,-862.669 307.704,-861.942"/>
<polygon fill="midnightblue" stroke="midnightblue" points="641.144,-920.867 651.476,-918.525 641.938,-913.912 641.144,-920.867"/>
</g>
<!-- Node25 -->
<g id="node25" class="node"><title>Node25</title>
<g id="a_node25"><a xlink:href="ansicolor__sink_8h.html" target="_top" xlink:title="/home/lucamuratore\l/advr&#45;superbuild/external\l/XBotInterface/include/spdlog\l/sinks/ansicolor_sink.h">
<polygon fill="none" stroke="black" points="1100.5,-631 1100.5,-683 1245.5,-683 1245.5,-631 1100.5,-631"/>
<text text-anchor="start" x="1108.5" y="-671" font-family="Helvetica,sans-Serif" font-size="10.00">/home/lucamuratore</text>
<text text-anchor="start" x="1108.5" y="-660" font-family="Helvetica,sans-Serif" font-size="10.00">/advr&#45;superbuild/external</text>
<text text-anchor="start" x="1108.5" y="-649" font-family="Helvetica,sans-Serif" font-size="10.00">/XBotInterface/include/spdlog</text>
<text text-anchor="middle" x="1173" y="-638" font-family="Helvetica,sans-Serif" font-size="10.00">/sinks/ansicolor_sink.h</text>
</a>
</g>
</g>
<!-- Node22&#45;&gt;Node25 -->
<g id="edge33" class="edge"><title>Node22&#45;&gt;Node25</title>
<path fill="none" stroke="midnightblue" d="M806.509,-900.113C895.976,-886.357 1094.86,-913.682 1150,-864 1200.66,-818.353 1188.92,-727.408 1179.41,-683.239"/>
<polygon fill="midnightblue" stroke="midnightblue" points="805.884,-896.669 796.667,-901.893 807.13,-903.557 805.884,-896.669"/>
</g>
<!-- Node26 -->
<g id="node26" class="node"><title>Node26</title>
<g id="a_node26"><a xlink:href="dist__sink_8h.html" target="_top" xlink:title="/home/lucamuratore\l/advr&#45;superbuild/external\l/XBotInterface/include/spdlog\l/sinks/dist_sink.h">
<polygon fill="none" stroke="black" points="325.5,-811 325.5,-863 470.5,-863 470.5,-811 325.5,-811"/>
<text text-anchor="start" x="333.5" y="-851" font-family="Helvetica,sans-Serif" font-size="10.00">/home/lucamuratore</text>
<text text-anchor="start" x="333.5" y="-840" font-family="Helvetica,sans-Serif" font-size="10.00">/advr&#45;superbuild/external</text>
<text text-anchor="start" x="333.5" y="-829" font-family="Helvetica,sans-Serif" font-size="10.00">/XBotInterface/include/spdlog</text>
<text text-anchor="middle" x="398" y="-818" font-family="Helvetica,sans-Serif" font-size="10.00">/sinks/dist_sink.h</text>
</a>
</g>
</g>
<!-- Node22&#45;&gt;Node26 -->
<g id="edge35" class="edge"><title>Node22&#45;&gt;Node26</title>
<path fill="none" stroke="midnightblue" d="M641.357,-906.455C593.695,-894.842 532.747,-879.41 479,-864 476.303,-863.227 473.559,-862.425 470.792,-861.603"/>
<polygon fill="midnightblue" stroke="midnightblue" points="640.774,-909.915 651.318,-908.874 642.426,-903.113 640.774,-909.915"/>
</g>
<!-- Node27 -->
<g id="node27" class="node"><title>Node27</title>
<g id="a_node27"><a xlink:href="file__sinks_8h.html" target="_top" xlink:title="/home/lucamuratore\l/advr&#45;superbuild/external\l/XBotInterface/include/spdlog\l/sinks/file_sinks.h">
<polygon fill="none" stroke="black" points="1015.5,-721 1015.5,-773 1160.5,-773 1160.5,-721 1015.5,-721"/>
<text text-anchor="start" x="1023.5" y="-761" font-family="Helvetica,sans-Serif" font-size="10.00">/home/lucamuratore</text>
<text text-anchor="start" x="1023.5" y="-750" font-family="Helvetica,sans-Serif" font-size="10.00">/advr&#45;superbuild/external</text>
<text text-anchor="start" x="1023.5" y="-739" font-family="Helvetica,sans-Serif" font-size="10.00">/XBotInterface/include/spdlog</text>
<text text-anchor="middle" x="1088" y="-728" font-family="Helvetica,sans-Serif" font-size="10.00">/sinks/file_sinks.h</text>
</a>
</g>
</g>
<!-- Node22&#45;&gt;Node27 -->
<g id="edge36" class="edge"><title>Node22&#45;&gt;Node27</title>
<path fill="none" stroke="midnightblue" d="M806.563,-900.131C892.14,-887.269 1084.27,-916.171 1131,-864 1154.07,-838.242 1131.12,-799.002 1110.9,-773.426"/>
<polygon fill="midnightblue" stroke="midnightblue" points="805.891,-896.695 796.671,-901.915 807.134,-903.584 805.891,-896.695"/>
</g>
<!-- Node28 -->
<g id="node28" class="node"><title>Node28</title>
<g id="a_node28"><a xlink:href="null__sink_8h.html" target="_top" xlink:title="/home/lucamuratore\l/advr&#45;superbuild/external\l/XBotInterface/include/spdlog\l/sinks/null_sink.h">
<polygon fill="none" stroke="black" points="488.5,-811 488.5,-863 633.5,-863 633.5,-811 488.5,-811"/>
<text text-anchor="start" x="496.5" y="-851" font-family="Helvetica,sans-Serif" font-size="10.00">/home/lucamuratore</text>
<text text-anchor="start" x="496.5" y="-840" font-family="Helvetica,sans-Serif" font-size="10.00">/advr&#45;superbuild/external</text>
<text text-anchor="start" x="496.5" y="-829" font-family="Helvetica,sans-Serif" font-size="10.00">/XBotInterface/include/spdlog</text>
<text text-anchor="middle" x="561" y="-818" font-family="Helvetica,sans-Serif" font-size="10.00">/sinks/null_sink.h</text>
</a>
</g>
</g>
<!-- Node22&#45;&gt;Node28 -->
<g id="edge38" class="edge"><title>Node22&#45;&gt;Node28</title>
<path fill="none" stroke="midnightblue" d="M668.358,-895.96C648.525,-885.253 626.412,-873.315 607.434,-863.069"/>
<polygon fill="midnightblue" stroke="midnightblue" points="666.828,-899.112 677.291,-900.783 670.154,-892.952 666.828,-899.112"/>
</g>
<!-- Node29 -->
<g id="node29" class="node"><title>Node29</title>
<g id="a_node29"><a xlink:href="ostream__sink_8h.html" target="_top" xlink:title="/home/lucamuratore\l/advr&#45;superbuild/external\l/XBotInterface/include/spdlog\l/sinks/ostream_sink.h">
<polygon fill="none" stroke="black" points="651.5,-811 651.5,-863 796.5,-863 796.5,-811 651.5,-811"/>
<text text-anchor="start" x="659.5" y="-851" font-family="Helvetica,sans-Serif" font-size="10.00">/home/lucamuratore</text>
<text text-anchor="start" x="659.5" y="-840" font-family="Helvetica,sans-Serif" font-size="10.00">/advr&#45;superbuild/external</text>
<text text-anchor="start" x="659.5" y="-829" font-family="Helvetica,sans-Serif" font-size="10.00">/XBotInterface/include/spdlog</text>
<text text-anchor="middle" x="724" y="-818" font-family="Helvetica,sans-Serif" font-size="10.00">/sinks/ostream_sink.h</text>
</a>
</g>
</g>
<!-- Node22&#45;&gt;Node29 -->
<g id="edge39" class="edge"><title>Node22&#45;&gt;Node29</title>
<path fill="none" stroke="midnightblue" d="M724,-890.489C724,-881.309 724,-871.616 724,-863.092"/>
<polygon fill="midnightblue" stroke="midnightblue" points="720.5,-890.547 724,-900.547 727.5,-890.547 720.5,-890.547"/>
</g>
<!-- Node30 -->
<g id="node30" class="node"><title>Node30</title>
<g id="a_node30"><a xlink:href="stdout__sinks_8h.html" target="_top" xlink:title="/home/lucamuratore\l/advr&#45;superbuild/external\l/XBotInterface/include/spdlog\l/sinks/stdout_sinks.h">
<polygon fill="none" stroke="black" points="977.5,-811 977.5,-863 1122.5,-863 1122.5,-811 977.5,-811"/>
<text text-anchor="start" x="985.5" y="-851" font-family="Helvetica,sans-Serif" font-size="10.00">/home/lucamuratore</text>
<text text-anchor="start" x="985.5" y="-840" font-family="Helvetica,sans-Serif" font-size="10.00">/advr&#45;superbuild/external</text>
<text text-anchor="start" x="985.5" y="-829" font-family="Helvetica,sans-Serif" font-size="10.00">/XBotInterface/include/spdlog</text>
<text text-anchor="middle" x="1050" y="-818" font-family="Helvetica,sans-Serif" font-size="10.00">/sinks/stdout_sinks.h</text>
</a>
</g>
</g>
<!-- Node22&#45;&gt;Node30 -->
<g id="edge40" class="edge"><title>Node22&#45;&gt;Node30</title>
<path fill="none" stroke="midnightblue" d="M806.732,-899.631C878.411,-880.824 899.424,-882.405 968,-864 971.029,-863.187 974.113,-862.332 977.222,-861.449"/>
<polygon fill="midnightblue" stroke="midnightblue" points="805.522,-896.331 796.762,-902.291 807.327,-903.095 805.522,-896.331"/>
</g>
<!-- Node31 -->
<g id="node31" class="node"><title>Node31</title>
<g id="a_node31"><a xlink:href="wincolor__sink_8h.html" target="_top" xlink:title="/home/lucamuratore\l/advr&#45;superbuild/external\l/XBotInterface/include/spdlog\l/sinks/wincolor_sink.h">
<polygon fill="none" stroke="black" points="814.5,-811 814.5,-863 959.5,-863 959.5,-811 814.5,-811"/>
<text text-anchor="start" x="822.5" y="-851" font-family="Helvetica,sans-Serif" font-size="10.00">/home/lucamuratore</text>
<text text-anchor="start" x="822.5" y="-840" font-family="Helvetica,sans-Serif" font-size="10.00">/advr&#45;superbuild/external</text>
<text text-anchor="start" x="822.5" y="-829" font-family="Helvetica,sans-Serif" font-size="10.00">/XBotInterface/include/spdlog</text>
<text text-anchor="middle" x="887" y="-818" font-family="Helvetica,sans-Serif" font-size="10.00">/sinks/wincolor_sink.h</text>
</a>
</g>
</g>
<!-- Node22&#45;&gt;Node31 -->
<g id="edge43" class="edge"><title>Node22&#45;&gt;Node31</title>
<path fill="none" stroke="midnightblue" d="M779.642,-895.96C799.475,-885.253 821.588,-873.315 840.566,-863.069"/>
<polygon fill="midnightblue" stroke="midnightblue" points="777.846,-892.952 770.709,-900.783 781.172,-899.112 777.846,-892.952"/>
</g>
<!-- Node23&#45;&gt;Node4 -->
<g id="edge28" class="edge"><title>Node23&#45;&gt;Node4</title>
<path fill="none" stroke="midnightblue" d="M183.991,-805.67C166.109,-795.038 146.237,-783.222 129.161,-773.069"/>
<polygon fill="midnightblue" stroke="midnightblue" points="182.205,-808.68 192.589,-810.783 185.783,-802.664 182.205,-808.68"/>
</g>
<!-- Node23&#45;&gt;Node5 -->
<g id="edge31" class="edge"><title>Node23&#45;&gt;Node5</title>
<path fill="none" stroke="midnightblue" d="M222.866,-801.164C210.792,-766.501 192.557,-714.149 181.807,-683.285"/>
<polygon fill="midnightblue" stroke="midnightblue" points="219.654,-802.582 226.248,-810.874 226.264,-800.28 219.654,-802.582"/>
</g>
<!-- Node23&#45;&gt;Node7 -->
<g id="edge32" class="edge"><title>Node23&#45;&gt;Node7</title>
<path fill="none" stroke="midnightblue" d="M244.629,-801.059C253.366,-775.39 268.67,-741.397 293,-720 477.571,-557.682 777.305,-502.621 914.397,-485.307"/>
<polygon fill="midnightblue" stroke="midnightblue" points="241.228,-800.2 241.49,-810.792 247.89,-802.349 241.228,-800.2"/>
</g>
<!-- Node24 -->
<g id="node24" class="node"><title>Node24</title>
<g id="a_node24"><a xlink:href="logger__impl_8h.html" target="_top" xlink:title="/home/lucamuratore\l/advr&#45;superbuild/external\l/XBotInterface/include/spdlog\l/details/logger_impl.h">
<polygon fill="none" stroke="black" points="302.5,-721 302.5,-773 447.5,-773 447.5,-721 302.5,-721"/>
<text text-anchor="start" x="310.5" y="-761" font-family="Helvetica,sans-Serif" font-size="10.00">/home/lucamuratore</text>
<text text-anchor="start" x="310.5" y="-750" font-family="Helvetica,sans-Serif" font-size="10.00">/advr&#45;superbuild/external</text>
<text text-anchor="start" x="310.5" y="-739" font-family="Helvetica,sans-Serif" font-size="10.00">/XBotInterface/include/spdlog</text>
<text text-anchor="middle" x="375" y="-728" font-family="Helvetica,sans-Serif" font-size="10.00">/details/logger_impl.h</text>
</a>
</g>
</g>
<!-- Node23&#45;&gt;Node24 -->
<g id="edge29" class="edge"><title>Node23&#45;&gt;Node24</title>
<path fill="none" stroke="midnightblue" d="M277.699,-805.089C293.924,-794.609 312.437,-783.038 328.957,-773.069"/>
<polygon fill="midnightblue" stroke="midnightblue" points="275.421,-802.396 268.948,-810.783 279.239,-808.263 275.421,-802.396"/>
</g>
<!-- Node24&#45;&gt;Node23 -->
<g id="edge30" class="edge"><title>Node24&#45;&gt;Node23</title>
<path fill="none" stroke="midnightblue" d="M332.334,-778.89C316.182,-789.324 297.757,-800.841 281.289,-810.783"/>
<polygon fill="midnightblue" stroke="midnightblue" points="334.573,-781.608 341.047,-773.221 330.756,-775.741 334.573,-781.608"/>
</g>
<!-- Node25&#45;&gt;Node6 -->
<g id="edge34" class="edge"><title>Node25&#45;&gt;Node6</title>
<path fill="none" stroke="midnightblue" d="M1110.42,-626.394C1087.56,-615.576 1061.93,-603.453 1039.99,-593.069"/>
<polygon fill="midnightblue" stroke="midnightblue" points="1109.16,-629.67 1119.7,-630.783 1112.16,-623.342 1109.16,-629.67"/>
</g>
<!-- Node27&#45;&gt;Node6 -->
<g id="edge37" class="edge"><title>Node27&#45;&gt;Node6</title>
<path fill="none" stroke="midnightblue" d="M1068.74,-712.053C1049.08,-677.401 1019.01,-624.414 1001.35,-593.285"/>
<polygon fill="midnightblue" stroke="midnightblue" points="1065.76,-713.904 1073.74,-720.874 1071.85,-710.45 1065.76,-713.904"/>
</g>
<!-- Node30&#45;&gt;Node6 -->
<g id="edge42" class="edge"><title>Node30&#45;&gt;Node6</title>
<path fill="none" stroke="midnightblue" d="M1021.65,-802.777C1015.49,-793.936 1009.72,-784.037 1006,-774 983.055,-712.026 983.278,-632.72 985.219,-593.012"/>
<polygon fill="midnightblue" stroke="midnightblue" points="1018.88,-804.913 1027.62,-810.9 1024.52,-800.768 1018.88,-804.913"/>
</g>
<!-- Node30&#45;&gt;Node24 -->
<g id="edge41" class="edge"><title>Node30&#45;&gt;Node24</title>
<path fill="none" stroke="midnightblue" d="M967.343,-810.051C775.491,-770.918 558.514,-756.25 447.845,-750.86"/>
<polygon fill="midnightblue" stroke="midnightblue" points="966.825,-813.518 977.326,-812.115 968.242,-806.663 966.825,-813.518"/>
</g>
</g>
</svg>
