<?xml version="1.0" encoding="UTF-8" standalone="no"?>
<!DOCTYPE svg PUBLIC "-//W3C//DTD SVG 1.1//EN"
 "http://www.w3.org/Graphics/SVG/1.1/DTD/svg11.dtd">
<!-- Generated by graphviz version 2.36.0 (20140111.2315)
 -->
<!-- Title: /home/lucamuratore/advr&#45;superbuild/external/XBotInterface/src/GenericSensor.cpp Pages: 1 -->
<svg width="570pt" height="174pt"
 viewBox="0.00 0.00 570.00 174.00" xmlns="http://www.w3.org/2000/svg" xmlns:xlink="http://www.w3.org/1999/xlink">
<g id="graph0" class="graph" transform="scale(1 1) rotate(0) translate(4 170)">
<title>/home/lucamuratore/advr&#45;superbuild/external/XBotInterface/src/GenericSensor.cpp</title>
<!-- Node1 -->
<g id="node1" class="node"><title>Node1</title>
<polygon fill="#bfbfbf" stroke="black" points="109,-124.5 109,-165.5 291,-165.5 291,-124.5 109,-124.5"/>
<text text-anchor="start" x="117" y="-153.5" font-family="Helvetica,sans-Serif" font-size="10.00">/home/lucamuratore</text>
<text text-anchor="start" x="117" y="-142.5" font-family="Helvetica,sans-Serif" font-size="10.00">/advr&#45;superbuild/external</text>
<text text-anchor="middle" x="200" y="-131.5" font-family="Helvetica,sans-Serif" font-size="10.00">/XBotInterface/src/GenericSensor.cpp</text>
</g>
<!-- Node2 -->
<g id="node2" class="node"><title>Node2</title>
<g id="a_node2"><a xlink:href="GenericSensor_8h.html" target="_top" xlink:title="XBotInterface/GenericSensor.h">
<polygon fill="none" stroke="black" points="124,-68.5 124,-87.5 276,-87.5 276,-68.5 124,-68.5"/>
<text text-anchor="middle" x="200" y="-75.5" font-family="Helvetica,sans-Serif" font-size="10.00">XBotInterface/GenericSensor.h</text>
</a>
</g>
</g>
<!-- Node1&#45;&gt;Node2 -->
<g id="edge1" class="edge"><title>Node1&#45;&gt;Node2</title>
<path fill="none" stroke="midnightblue" d="M200,-124.498C200,-116.065 200,-106.235 200,-97.874"/>
<polygon fill="midnightblue" stroke="midnightblue" points="203.5,-97.6525 200,-87.6525 196.5,-97.6525 203.5,-97.6525"/>
</g>
<!-- Node3 -->
<g id="node3" class="node"><title>Node3</title>
<polygon fill="none" stroke="#bfbfbf" points="-0.5,-6.5 -0.5,-25.5 40.5,-25.5 40.5,-6.5 -0.5,-6.5"/>
<text text-anchor="middle" x="20" y="-13.5" font-family="Helvetica,sans-Serif" font-size="10.00">string</text>
</g>
<!-- Node2&#45;&gt;Node3 -->
<g id="edge2" class="edge"><title>Node2&#45;&gt;Node3</title>
<path fill="none" stroke="midnightblue" d="M165.472,-68.4553C134.695,-60.4136 88.6683,-47.335 50,-32 48.3998,-31.3654 46.7691,-30.6773 45.1363,-29.9566"/>
<polygon fill="midnightblue" stroke="midnightblue" points="46.4958,-26.7279 35.9594,-25.6166 43.5031,-33.0559 46.4958,-26.7279"/>
</g>
<!-- Node4 -->
<g id="node4" class="node"><title>Node4</title>
<polygon fill="none" stroke="#bfbfbf" points="59,-6.5 59,-25.5 111,-25.5 111,-6.5 59,-6.5"/>
<text text-anchor="middle" x="85" y="-13.5" font-family="Helvetica,sans-Serif" font-size="10.00">memory</text>
</g>
<!-- Node2&#45;&gt;Node4 -->
<g id="edge3" class="edge"><title>Node2&#45;&gt;Node4</title>
<path fill="none" stroke="midnightblue" d="M183.523,-68.4035C164.395,-58.4232 132.627,-41.8487 110.348,-30.2253"/>
<polygon fill="midnightblue" stroke="midnightblue" points="111.931,-27.1033 101.446,-25.5806 108.693,-33.3094 111.931,-27.1033"/>
</g>
<!-- Node5 -->
<g id="node5" class="node"><title>Node5</title>
<polygon fill="none" stroke="#bfbfbf" points="129,-6.5 129,-25.5 183,-25.5 183,-6.5 129,-6.5"/>
<text text-anchor="middle" x="156" y="-13.5" font-family="Helvetica,sans-Serif" font-size="10.00">iostream</text>
</g>
<!-- Node2&#45;&gt;Node5 -->
<g id="edge4" class="edge"><title>Node2&#45;&gt;Node5</title>
<path fill="none" stroke="midnightblue" d="M193.696,-68.4035C187.096,-59.4034 176.563,-45.0408 168.307,-33.7824"/>
<polygon fill="midnightblue" stroke="midnightblue" points="171.029,-31.5749 162.292,-25.5806 165.384,-35.7144 171.029,-31.5749"/>
</g>
<!-- Node6 -->
<g id="node6" class="node"><title>Node6</title>
<polygon fill="none" stroke="#bfbfbf" points="201.5,-6.5 201.5,-25.5 288.5,-25.5 288.5,-6.5 201.5,-6.5"/>
<text text-anchor="middle" x="245" y="-13.5" font-family="Helvetica,sans-Serif" font-size="10.00">Eigen/Geometry</text>
</g>
<!-- Node2&#45;&gt;Node6 -->
<g id="edge5" class="edge"><title>Node2&#45;&gt;Node6</title>
<path fill="none" stroke="midnightblue" d="M206.447,-68.4035C213.197,-59.4034 223.969,-45.0408 232.413,-33.7824"/>
<polygon fill="midnightblue" stroke="midnightblue" points="235.365,-35.6806 238.565,-25.5806 229.765,-31.4806 235.365,-35.6806"/>
</g>
<!-- Node7 -->
<g id="node7" class="node"><title>Node7</title>
<polygon fill="none" stroke="#bfbfbf" points="307,-1 307,-31 431,-31 431,-1 307,-1"/>
<text text-anchor="start" x="315" y="-19" font-family="Helvetica,sans-Serif" font-size="10.00">eigen_conversions/eigen</text>
<text text-anchor="middle" x="369" y="-8" font-family="Helvetica,sans-Serif" font-size="10.00">_kdl.h</text>
</g>
<!-- Node2&#45;&gt;Node7 -->
<g id="edge6" class="edge"><title>Node2&#45;&gt;Node7</title>
<path fill="none" stroke="midnightblue" d="M224.214,-68.4035C249.11,-59.5644 288.576,-45.553 320.02,-34.3895"/>
<polygon fill="midnightblue" stroke="midnightblue" points="321.243,-37.6694 329.495,-31.0253 318.901,-31.0728 321.243,-37.6694"/>
</g>
<!-- Node8 -->
<g id="node8" class="node"><title>Node8</title>
<polygon fill="none" stroke="#bfbfbf" points="449.5,-6.5 449.5,-25.5 562.5,-25.5 562.5,-6.5 449.5,-6.5"/>
<text text-anchor="middle" x="506" y="-13.5" font-family="Helvetica,sans-Serif" font-size="10.00">srdfdom_advr/model.h</text>
</g>
<!-- Node2&#45;&gt;Node8 -->
<g id="edge7" class="edge"><title>Node2&#45;&gt;Node8</title>
<path fill="none" stroke="midnightblue" d="M248.161,-68.4307C296.496,-59.7132 373.041,-45.5889 439,-32 445.359,-30.6899 452.045,-29.2582 458.631,-27.8161"/>
<polygon fill="midnightblue" stroke="midnightblue" points="459.83,-31.1355 468.838,-25.5571 458.317,-24.3009 459.83,-31.1355"/>
</g>
</g>
</svg>
