<?xml version="1.0" encoding="UTF-8" standalone="no"?>
<!DOCTYPE svg PUBLIC "-//W3C//DTD SVG 1.1//EN"
 "http://www.w3.org/Graphics/SVG/1.1/DTD/svg11.dtd">
<!-- Generated by graphviz version 2.36.0 (20140111.2315)
 -->
<!-- Title: /home/lucamuratore/advr&#45;superbuild/external/XBotInterface/include/XBotInterface/GenericSensor.h Pages: 1 -->
<svg width="570pt" height="130pt"
 viewBox="0.00 0.00 570.00 130.00" xmlns="http://www.w3.org/2000/svg" xmlns:xlink="http://www.w3.org/1999/xlink">
<g id="graph0" class="graph" transform="scale(1 1) rotate(0) translate(4 126)">
<title>/home/lucamuratore/advr&#45;superbuild/external/XBotInterface/include/XBotInterface/GenericSensor.h</title>
<!-- Node1 -->
<g id="node1" class="node"><title>Node1</title>
<polygon fill="#bfbfbf" stroke="black" points="112,-69 112,-121 288,-121 288,-69 112,-69"/>
<text text-anchor="start" x="120" y="-109" font-family="Helvetica,sans-Serif" font-size="10.00">/home/lucamuratore</text>
<text text-anchor="start" x="120" y="-98" font-family="Helvetica,sans-Serif" font-size="10.00">/advr&#45;superbuild/external</text>
<text text-anchor="start" x="120" y="-87" font-family="Helvetica,sans-Serif" font-size="10.00">/XBotInterface/include/XBotInterface</text>
<text text-anchor="middle" x="200" y="-76" font-family="Helvetica,sans-Serif" font-size="10.00">/GenericSensor.h</text>
</g>
<!-- Node2 -->
<g id="node2" class="node"><title>Node2</title>
<polygon fill="none" stroke="#bfbfbf" points="-0.5,-6.5 -0.5,-25.5 40.5,-25.5 40.5,-6.5 -0.5,-6.5"/>
<text text-anchor="middle" x="20" y="-13.5" font-family="Helvetica,sans-Serif" font-size="10.00">string</text>
</g>
<!-- Node1&#45;&gt;Node2 -->
<g id="edge1" class="edge"><title>Node1&#45;&gt;Node2</title>
<path fill="none" stroke="midnightblue" d="M136.436,-68.9026C109.576,-57.9944 78.0748,-44.801 50,-32 48.6423,-31.3809 47.2558,-30.7355 45.8599,-30.0752"/>
<polygon fill="midnightblue" stroke="midnightblue" points="47.2396,-26.8542 36.7165,-25.6234 44.1753,-33.1479 47.2396,-26.8542"/>
</g>
<!-- Node3 -->
<g id="node3" class="node"><title>Node3</title>
<polygon fill="none" stroke="#bfbfbf" points="59,-6.5 59,-25.5 111,-25.5 111,-6.5 59,-6.5"/>
<text text-anchor="middle" x="85" y="-13.5" font-family="Helvetica,sans-Serif" font-size="10.00">memory</text>
</g>
<!-- Node1&#45;&gt;Node3 -->
<g id="edge2" class="edge"><title>Node1&#45;&gt;Node3</title>
<path fill="none" stroke="midnightblue" d="M162.345,-68.7873C143.727,-56.3214 121.945,-41.7371 106.249,-31.2278"/>
<polygon fill="midnightblue" stroke="midnightblue" points="108.038,-28.2131 97.781,-25.5577 104.143,-34.0297 108.038,-28.2131"/>
</g>
<!-- Node4 -->
<g id="node4" class="node"><title>Node4</title>
<polygon fill="none" stroke="#bfbfbf" points="129,-6.5 129,-25.5 183,-25.5 183,-6.5 129,-6.5"/>
<text text-anchor="middle" x="156" y="-13.5" font-family="Helvetica,sans-Serif" font-size="10.00">iostream</text>
</g>
<!-- Node1&#45;&gt;Node4 -->
<g id="edge3" class="edge"><title>Node1&#45;&gt;Node4</title>
<path fill="none" stroke="midnightblue" d="M185.593,-68.7873C179.135,-57.4865 171.683,-44.4447 165.872,-34.276"/>
<polygon fill="midnightblue" stroke="midnightblue" points="168.89,-32.5036 160.89,-25.5577 162.813,-35.9767 168.89,-32.5036"/>
</g>
<!-- Node5 -->
<g id="node5" class="node"><title>Node5</title>
<polygon fill="none" stroke="#bfbfbf" points="201.5,-6.5 201.5,-25.5 288.5,-25.5 288.5,-6.5 201.5,-6.5"/>
<text text-anchor="middle" x="245" y="-13.5" font-family="Helvetica,sans-Serif" font-size="10.00">Eigen/Geometry</text>
</g>
<!-- Node1&#45;&gt;Node5 -->
<g id="edge4" class="edge"><title>Node1&#45;&gt;Node5</title>
<path fill="none" stroke="midnightblue" d="M214.735,-68.7873C221.339,-57.4865 228.961,-44.4447 234.904,-34.276"/>
<polygon fill="midnightblue" stroke="midnightblue" points="237.975,-35.9574 239.999,-25.5577 231.931,-32.4254 237.975,-35.9574"/>
</g>
<!-- Node6 -->
<g id="node6" class="node"><title>Node6</title>
<polygon fill="none" stroke="#bfbfbf" points="307,-1 307,-31 431,-31 431,-1 307,-1"/>
<text text-anchor="start" x="315" y="-19" font-family="Helvetica,sans-Serif" font-size="10.00">eigen_conversions/eigen</text>
<text text-anchor="middle" x="369" y="-8" font-family="Helvetica,sans-Serif" font-size="10.00">_kdl.h</text>
</g>
<!-- Node1&#45;&gt;Node6 -->
<g id="edge5" class="edge"><title>Node1&#45;&gt;Node6</title>
<path fill="none" stroke="midnightblue" d="M255.337,-68.7873C279.32,-57.8603 306.875,-45.3056 328.847,-35.2945"/>
<polygon fill="midnightblue" stroke="midnightblue" points="330.557,-38.3619 338.205,-31.0307 327.654,-31.9919 330.557,-38.3619"/>
</g>
<!-- Node7 -->
<g id="node7" class="node"><title>Node7</title>
<polygon fill="none" stroke="#bfbfbf" points="449.5,-6.5 449.5,-25.5 562.5,-25.5 562.5,-6.5 449.5,-6.5"/>
<text text-anchor="middle" x="506" y="-13.5" font-family="Helvetica,sans-Serif" font-size="10.00">srdfdom_advr/model.h</text>
</g>
<!-- Node1&#45;&gt;Node7 -->
<g id="edge6" class="edge"><title>Node1&#45;&gt;Node7</title>
<path fill="none" stroke="midnightblue" d="M288.097,-71.8317C345.22,-57.4577 417.158,-39.3555 462.38,-27.9763"/>
<polygon fill="midnightblue" stroke="midnightblue" points="463.32,-31.3488 472.164,-25.5143 461.612,-24.5605 463.32,-31.3488"/>
</g>
</g>
</svg>
