<?xml version="1.0" encoding="UTF-8" standalone="no"?>
<!DOCTYPE svg PUBLIC "-//W3C//DTD SVG 1.1//EN"
 "http://www.w3.org/Graphics/SVG/1.1/DTD/svg11.dtd">
<!-- Generated by graphviz version 2.38.0 (20140413.2041)
 -->
<!-- Title: /home/lucamuratore/advr&#45;superbuild/external/XBotInterface/include/XBotInterface/GenericSensor.h Pages: 1 -->
<svg width="571pt" height="128pt"
 viewBox="0.00 0.00 571.00 128.00" xmlns="http://www.w3.org/2000/svg" xmlns:xlink="http://www.w3.org/1999/xlink">
<g id="graph0" class="graph" transform="scale(1 1) rotate(0) translate(4 124)">
<title>/home/lucamuratore/advr&#45;superbuild/external/XBotInterface/include/XBotInterface/GenericSensor.h</title>
<!-- Node1 -->
<g id="node1" class="node"><title>Node1</title>
<polygon fill="#bfbfbf" stroke="black" points="112.5,-67.5 112.5,-119.5 288.5,-119.5 288.5,-67.5 112.5,-67.5"/>
<text text-anchor="start" x="120.5" y="-107.5" font-family="Helvetica,sans-Serif" font-size="10.00">/home/lucamuratore</text>
<text text-anchor="start" x="120.5" y="-96.5" font-family="Helvetica,sans-Serif" font-size="10.00">/advr&#45;superbuild/external</text>
<text text-anchor="start" x="120.5" y="-85.5" font-family="Helvetica,sans-Serif" font-size="10.00">/XBotInterface/include/XBotInterface</text>
<text text-anchor="middle" x="200.5" y="-74.5" font-family="Helvetica,sans-Serif" font-size="10.00">/GenericSensor.h</text>
</g>
<!-- Node2 -->
<g id="node2" class="node"><title>Node2</title>
<polygon fill="none" stroke="#bfbfbf" points="0,-6 0,-25 41,-25 41,-6 0,-6"/>
<text text-anchor="middle" x="20.5" y="-13" font-family="Helvetica,sans-Serif" font-size="10.00">string</text>
</g>
<!-- Node1&#45;&gt;Node2 -->
<g id="edge1" class="edge"><title>Node1&#45;&gt;Node2</title>
<path fill="none" stroke="midnightblue" d="M137.005,-67.4671C110.156,-56.6241 78.645,-43.5574 50.5,-31 49.3411,-30.4829 48.1605,-29.948 46.9704,-29.4021"/>
<polygon fill="midnightblue" stroke="midnightblue" points="48.4039,-26.2085 37.8656,-25.1155 45.4222,-32.5417 48.4039,-26.2085"/>
</g>
<!-- Node3 -->
<g id="node3" class="node"><title>Node3</title>
<polygon fill="none" stroke="#bfbfbf" points="59.5,-6 59.5,-25 111.5,-25 111.5,-6 59.5,-6"/>
<text text-anchor="middle" x="85.5" y="-13" font-family="Helvetica,sans-Serif" font-size="10.00">memory</text>
</g>
<!-- Node1&#45;&gt;Node3 -->
<g id="edge2" class="edge"><title>Node1&#45;&gt;Node3</title>
<path fill="none" stroke="midnightblue" d="M162.526,-67.4041C144.041,-55.1878 122.5,-40.9524 106.906,-30.6467"/>
<polygon fill="midnightblue" stroke="midnightblue" points="108.752,-27.6715 98.4797,-25.0779 104.893,-33.5114 108.752,-27.6715"/>
</g>
<!-- Node4 -->
<g id="node4" class="node"><title>Node4</title>
<polygon fill="none" stroke="#bfbfbf" points="129.5,-6 129.5,-25 183.5,-25 183.5,-6 129.5,-6"/>
<text text-anchor="middle" x="156.5" y="-13" font-family="Helvetica,sans-Serif" font-size="10.00">iostream</text>
</g>
<!-- Node1&#45;&gt;Node4 -->
<g id="edge3" class="edge"><title>Node1&#45;&gt;Node4</title>
<path fill="none" stroke="midnightblue" d="M185.849,-67.1931C179.549,-56.3116 172.341,-43.8612 166.645,-34.0224"/>
<polygon fill="midnightblue" stroke="midnightblue" points="169.581,-32.1095 161.542,-25.2089 163.523,-35.6168 169.581,-32.1095"/>
</g>
<!-- Node5 -->
<g id="node5" class="node"><title>Node5</title>
<polygon fill="none" stroke="#bfbfbf" points="202,-6 202,-25 289,-25 289,-6 202,-6"/>
<text text-anchor="middle" x="245.5" y="-13" font-family="Helvetica,sans-Serif" font-size="10.00">Eigen/Geometry</text>
</g>
<!-- Node1&#45;&gt;Node5 -->
<g id="edge4" class="edge"><title>Node1&#45;&gt;Node5</title>
<path fill="none" stroke="midnightblue" d="M215.484,-67.1931C221.927,-56.3116 229.299,-43.8612 235.125,-34.0224"/>
<polygon fill="midnightblue" stroke="midnightblue" points="238.26,-35.5969 240.343,-25.2089 232.237,-32.0304 238.26,-35.5969"/>
</g>
<!-- Node6 -->
<g id="node6" class="node"><title>Node6</title>
<polygon fill="none" stroke="#bfbfbf" points="307.5,-0.5 307.5,-30.5 431.5,-30.5 431.5,-0.5 307.5,-0.5"/>
<text text-anchor="start" x="315.5" y="-18.5" font-family="Helvetica,sans-Serif" font-size="10.00">eigen_conversions/eigen</text>
<text text-anchor="middle" x="369.5" y="-7.5" font-family="Helvetica,sans-Serif" font-size="10.00">_kdl.h</text>
</g>
<!-- Node1&#45;&gt;Node6 -->
<g id="edge5" class="edge"><title>Node1&#45;&gt;Node6</title>
<path fill="none" stroke="midnightblue" d="M256.305,-67.4041C279.923,-56.7831 306.934,-44.636 328.646,-34.872"/>
<polygon fill="midnightblue" stroke="midnightblue" points="330.224,-38.0001 337.909,-30.7066 327.353,-31.6159 330.224,-38.0001"/>
</g>
<!-- Node7 -->
<g id="node7" class="node"><title>Node7</title>
<polygon fill="none" stroke="#bfbfbf" points="450,-6 450,-25 563,-25 563,-6 450,-6"/>
<text text-anchor="middle" x="506.5" y="-13" font-family="Helvetica,sans-Serif" font-size="10.00">srdfdom_advr/model.h</text>
</g>
<!-- Node1&#45;&gt;Node7 -->
<g id="edge6" class="edge"><title>Node1&#45;&gt;Node7</title>
<path fill="none" stroke="midnightblue" d="M288.597,-70.6196C345.392,-56.5139 416.832,-38.7705 462.098,-27.528"/>
<polygon fill="midnightblue" stroke="midnightblue" points="463.04,-30.9005 471.901,-25.0932 461.352,-24.1069 463.04,-30.9005"/>
</g>
</g>
</svg>
