<?xml version="1.0" encoding="UTF-8" standalone="no"?>
<!DOCTYPE svg PUBLIC "-//W3C//DTD SVG 1.1//EN"
 "http://www.w3.org/Graphics/SVG/1.1/DTD/svg11.dtd">
<!-- Generated by graphviz version 2.36.0 (20140111.2315)
 -->
<!-- Title: /home/lucamuratore/advr&#45;superbuild/external/XBotInterface/src/Hand.cpp Pages: 1 -->
<svg width="191pt" height="162pt"
 viewBox="0.00 0.00 191.00 162.00" xmlns="http://www.w3.org/2000/svg" xmlns:xlink="http://www.w3.org/1999/xlink">
<g id="graph0" class="graph" transform="scale(1 1) rotate(0) translate(4 158)">
<title>/home/lucamuratore/advr&#45;superbuild/external/XBotInterface/src/Hand.cpp</title>
<!-- Node1 -->
<g id="node1" class="node"><title>Node1</title>
<polygon fill="#bfbfbf" stroke="black" points="14.5,-112.5 14.5,-153.5 155.5,-153.5 155.5,-112.5 14.5,-112.5"/>
<text text-anchor="start" x="22.5" y="-141.5" font-family="Helvetica,sans-Serif" font-size="10.00">/home/lucamuratore</text>
<text text-anchor="start" x="22.5" y="-130.5" font-family="Helvetica,sans-Serif" font-size="10.00">/advr&#45;superbuild/external</text>
<text text-anchor="middle" x="85" y="-119.5" font-family="Helvetica,sans-Serif" font-size="10.00">/XBotInterface/src/Hand.cpp</text>
</g>
<!-- Node2 -->
<g id="node2" class="node"><title>Node2</title>
<g id="a_node2"><a xlink:href="Hand_8h.html" target="_top" xlink:title="XBotInterface/Hand.h">
<polygon fill="none" stroke="black" points="29.5,-56.5 29.5,-75.5 140.5,-75.5 140.5,-56.5 29.5,-56.5"/>
<text text-anchor="middle" x="85" y="-63.5" font-family="Helvetica,sans-Serif" font-size="10.00">XBotInterface/Hand.h</text>
</a>
</g>
</g>
<!-- Node1&#45;&gt;Node2 -->
<g id="edge1" class="edge"><title>Node1&#45;&gt;Node2</title>
<path fill="none" stroke="midnightblue" d="M85,-112.498C85,-104.065 85,-94.2351 85,-85.874"/>
<polygon fill="midnightblue" stroke="midnightblue" points="88.5001,-85.6525 85,-75.6525 81.5001,-85.6525 88.5001,-85.6525"/>
</g>
<!-- Node3 -->
<g id="node3" class="node"><title>Node3</title>
<polygon fill="none" stroke="#bfbfbf" points="-0.5,-0.5 -0.5,-19.5 40.5,-19.5 40.5,-0.5 -0.5,-0.5"/>
<text text-anchor="middle" x="20" y="-7.5" font-family="Helvetica,sans-Serif" font-size="10.00">string</text>
</g>
<!-- Node2&#45;&gt;Node3 -->
<g id="edge2" class="edge"><title>Node2&#45;&gt;Node3</title>
<path fill="none" stroke="midnightblue" d="M74.5566,-56.324C64.8538,-48.2631 50.1847,-36.0765 38.5003,-26.3695"/>
<polygon fill="midnightblue" stroke="midnightblue" points="40.5619,-23.532 30.6334,-19.8339 36.0887,-28.9163 40.5619,-23.532"/>
</g>
<!-- Node4 -->
<g id="node4" class="node"><title>Node4</title>
<polygon fill="none" stroke="#bfbfbf" points="59,-0.5 59,-19.5 111,-19.5 111,-0.5 59,-0.5"/>
<text text-anchor="middle" x="85" y="-7.5" font-family="Helvetica,sans-Serif" font-size="10.00">memory</text>
</g>
<!-- Node2&#45;&gt;Node4 -->
<g id="edge3" class="edge"><title>Node2&#45;&gt;Node4</title>
<path fill="none" stroke="midnightblue" d="M85,-56.083C85,-49.0059 85,-38.8611 85,-29.9865"/>
<polygon fill="midnightblue" stroke="midnightblue" points="88.5001,-29.751 85,-19.7511 81.5001,-29.7511 88.5001,-29.751"/>
</g>
<!-- Node5 -->
<g id="node5" class="node"><title>Node5</title>
<polygon fill="none" stroke="#bfbfbf" points="129,-0.5 129,-19.5 183,-19.5 183,-0.5 129,-0.5"/>
<text text-anchor="middle" x="156" y="-7.5" font-family="Helvetica,sans-Serif" font-size="10.00">iostream</text>
</g>
<!-- Node2&#45;&gt;Node5 -->
<g id="edge4" class="edge"><title>Node2&#45;&gt;Node5</title>
<path fill="none" stroke="midnightblue" d="M96.4074,-56.324C107.109,-48.1849 123.341,-35.8395 136.163,-26.0874"/>
<polygon fill="midnightblue" stroke="midnightblue" points="138.544,-28.6734 144.385,-19.8339 134.307,-23.1018 138.544,-28.6734"/>
</g>
</g>
</svg>
