<?xml version="1.0" encoding="UTF-8" standalone="no"?>
<!DOCTYPE svg PUBLIC "-//W3C//DTD SVG 1.1//EN"
 "http://www.w3.org/Graphics/SVG/1.1/DTD/svg11.dtd">
<!-- Generated by graphviz version 2.38.0 (20140413.2041)
 -->
<!-- Title: /home/lucamuratore/advr&#45;superbuild/external/XBotInterface/include/XBotInterface/ImuSensor.h Pages: 1 -->
<svg width="570pt" height="184pt"
 viewBox="0.00 0.00 570.00 184.00" xmlns="http://www.w3.org/2000/svg" xmlns:xlink="http://www.w3.org/1999/xlink">
<g id="graph0" class="graph" transform="scale(1 1) rotate(0) translate(4 180)">
<title>/home/lucamuratore/advr&#45;superbuild/external/XBotInterface/include/XBotInterface/ImuSensor.h</title>
<!-- Node1 -->
<g id="node1" class="node"><title>Node1</title>
<polygon fill="#bfbfbf" stroke="black" points="264.5,-123.5 264.5,-175.5 440.5,-175.5 440.5,-123.5 264.5,-123.5"/>
<text text-anchor="start" x="272.5" y="-163.5" font-family="Helvetica,sans-Serif" font-size="10.00">/home/lucamuratore</text>
<text text-anchor="start" x="272.5" y="-152.5" font-family="Helvetica,sans-Serif" font-size="10.00">/advr&#45;superbuild/external</text>
<text text-anchor="start" x="272.5" y="-141.5" font-family="Helvetica,sans-Serif" font-size="10.00">/XBotInterface/include/XBotInterface</text>
<text text-anchor="middle" x="352.5" y="-130.5" font-family="Helvetica,sans-Serif" font-size="10.00">/ImuSensor.h</text>
</g>
<!-- Node2 -->
<g id="node2" class="node"><title>Node2</title>
<g id="a_node2"><a xlink:href="GenericSensor_8h.html" target="_top" xlink:title="XBotInterface/GenericSensor.h">
<polygon fill="none" stroke="black" points="187.5,-67.5 187.5,-86.5 339.5,-86.5 339.5,-67.5 187.5,-67.5"/>
<text text-anchor="middle" x="263.5" y="-74.5" font-family="Helvetica,sans-Serif" font-size="10.00">XBotInterface/GenericSensor.h</text>
</a>
</g>
</g>
<!-- Node1&#45;&gt;Node2 -->
<g id="edge1" class="edge"><title>Node1&#45;&gt;Node2</title>
<path fill="none" stroke="midnightblue" d="M320.871,-123.446C308.098,-113.328 293.776,-101.983 282.638,-93.1596"/>
<polygon fill="midnightblue" stroke="midnightblue" points="284.489,-90.1613 274.477,-86.6955 280.143,-95.6483 284.489,-90.1613"/>
</g>
<!-- Node6 -->
<g id="node6" class="node"><title>Node6</title>
<polygon fill="none" stroke="#bfbfbf" points="475,-6 475,-25 562,-25 562,-6 475,-6"/>
<text text-anchor="middle" x="518.5" y="-13" font-family="Helvetica,sans-Serif" font-size="10.00">Eigen/Geometry</text>
</g>
<!-- Node1&#45;&gt;Node6 -->
<g id="edge8" class="edge"><title>Node1&#45;&gt;Node6</title>
<path fill="none" stroke="midnightblue" d="M384.114,-123.361C418.385,-96.1098 471.925,-53.5359 499.96,-31.2423"/>
<polygon fill="midnightblue" stroke="midnightblue" points="502.144,-33.9775 507.793,-25.0141 497.787,-28.4985 502.144,-33.9775"/>
</g>
<!-- Node3 -->
<g id="node3" class="node"><title>Node3</title>
<polygon fill="none" stroke="#bfbfbf" points="0,-6 0,-25 41,-25 41,-6 0,-6"/>
<text text-anchor="middle" x="20.5" y="-13" font-family="Helvetica,sans-Serif" font-size="10.00">string</text>
</g>
<!-- Node2&#45;&gt;Node3 -->
<g id="edge2" class="edge"><title>Node2&#45;&gt;Node3</title>
<path fill="none" stroke="midnightblue" d="M204.617,-67.4992C161.268,-60.2991 101.287,-48.3514 50.5,-31 48.8817,-30.4471 47.2371,-29.8286 45.5939,-29.1669"/>
<polygon fill="midnightblue" stroke="midnightblue" points="46.9483,-25.9387 36.3898,-25.0625 44.0974,-32.3318 46.9483,-25.9387"/>
</g>
<!-- Node4 -->
<g id="node4" class="node"><title>Node4</title>
<polygon fill="none" stroke="#bfbfbf" points="59.5,-6 59.5,-25 111.5,-25 111.5,-6 59.5,-6"/>
<text text-anchor="middle" x="85.5" y="-13" font-family="Helvetica,sans-Serif" font-size="10.00">memory</text>
</g>
<!-- Node2&#45;&gt;Node4 -->
<g id="edge3" class="edge"><title>Node2&#45;&gt;Node4</title>
<path fill="none" stroke="midnightblue" d="M233.666,-67.4444C204.56,-58.9023 159.146,-45.055 120.5,-31 118.646,-30.3256 116.745,-29.6101 114.835,-28.8725"/>
<polygon fill="midnightblue" stroke="midnightblue" points="115.955,-25.551 105.371,-25.0869 113.356,-32.0504 115.955,-25.551"/>
</g>
<!-- Node5 -->
<g id="node5" class="node"><title>Node5</title>
<polygon fill="none" stroke="#bfbfbf" points="129.5,-6 129.5,-25 183.5,-25 183.5,-6 129.5,-6"/>
<text text-anchor="middle" x="156.5" y="-13" font-family="Helvetica,sans-Serif" font-size="10.00">iostream</text>
</g>
<!-- Node2&#45;&gt;Node5 -->
<g id="edge4" class="edge"><title>Node2&#45;&gt;Node5</title>
<path fill="none" stroke="midnightblue" d="M248.17,-67.4751C230.53,-57.6664 201.34,-41.4346 180.642,-29.925"/>
<polygon fill="midnightblue" stroke="midnightblue" points="182.243,-26.8102 171.802,-25.0091 178.841,-32.9279 182.243,-26.8102"/>
</g>
<!-- Node2&#45;&gt;Node6 -->
<g id="edge5" class="edge"><title>Node2&#45;&gt;Node6</title>
<path fill="none" stroke="midnightblue" d="M305.254,-67.4301C346.402,-58.8232 410.993,-44.8805 466.5,-31 470.591,-29.9768 474.851,-28.8654 479.094,-27.7282"/>
<polygon fill="midnightblue" stroke="midnightblue" points="480.15,-31.0682 488.875,-25.0578 478.306,-24.3154 480.15,-31.0682"/>
</g>
<!-- Node7 -->
<g id="node7" class="node"><title>Node7</title>
<polygon fill="none" stroke="#bfbfbf" points="201.5,-0.5 201.5,-30.5 325.5,-30.5 325.5,-0.5 201.5,-0.5"/>
<text text-anchor="start" x="209.5" y="-18.5" font-family="Helvetica,sans-Serif" font-size="10.00">eigen_conversions/eigen</text>
<text text-anchor="middle" x="263.5" y="-7.5" font-family="Helvetica,sans-Serif" font-size="10.00">_kdl.h</text>
</g>
<!-- Node2&#45;&gt;Node7 -->
<g id="edge6" class="edge"><title>Node2&#45;&gt;Node7</title>
<path fill="none" stroke="midnightblue" d="M263.5,-67.4751C263.5,-60.471 263.5,-50.1919 263.5,-40.6956"/>
<polygon fill="midnightblue" stroke="midnightblue" points="267,-40.5229 263.5,-30.523 260,-40.523 267,-40.5229"/>
</g>
<!-- Node8 -->
<g id="node8" class="node"><title>Node8</title>
<polygon fill="none" stroke="#bfbfbf" points="344,-6 344,-25 457,-25 457,-6 344,-6"/>
<text text-anchor="middle" x="400.5" y="-13" font-family="Helvetica,sans-Serif" font-size="10.00">srdfdom_advr/model.h</text>
</g>
<!-- Node2&#45;&gt;Node8 -->
<g id="edge7" class="edge"><title>Node2&#45;&gt;Node8</title>
<path fill="none" stroke="midnightblue" d="M283.129,-67.4751C306.324,-57.4013 345.119,-40.5525 371.713,-29.0023"/>
<polygon fill="midnightblue" stroke="midnightblue" points="373.13,-32.203 380.908,-25.0091 370.341,-25.7824 373.13,-32.203"/>
</g>
</g>
</svg>
