<?xml version="1.0" encoding="UTF-8" standalone="no"?>
<!DOCTYPE svg PUBLIC "-//W3C//DTD SVG 1.1//EN"
 "http://www.w3.org/Graphics/SVG/1.1/DTD/svg11.dtd">
<!-- Generated by graphviz version 2.36.0 (20140111.2315)
 -->
<!-- Title: /home/lucamuratore/advr&#45;superbuild/external/XBotInterface/include/XBotInterface/ImuSensor.h Pages: 1 -->
<svg width="569pt" height="186pt"
 viewBox="0.00 0.00 569.00 186.00" xmlns="http://www.w3.org/2000/svg" xmlns:xlink="http://www.w3.org/1999/xlink">
<g id="graph0" class="graph" transform="scale(1 1) rotate(0) translate(4 182)">
<title>/home/lucamuratore/advr&#45;superbuild/external/XBotInterface/include/XBotInterface/ImuSensor.h</title>
<!-- Node1 -->
<g id="node1" class="node"><title>Node1</title>
<polygon fill="#bfbfbf" stroke="black" points="264,-125 264,-177 440,-177 440,-125 264,-125"/>
<text text-anchor="start" x="272" y="-165" font-family="Helvetica,sans-Serif" font-size="10.00">/home/lucamuratore</text>
<text text-anchor="start" x="272" y="-154" font-family="Helvetica,sans-Serif" font-size="10.00">/advr&#45;superbuild/external</text>
<text text-anchor="start" x="272" y="-143" font-family="Helvetica,sans-Serif" font-size="10.00">/XBotInterface/include/XBotInterface</text>
<text text-anchor="middle" x="352" y="-132" font-family="Helvetica,sans-Serif" font-size="10.00">/ImuSensor.h</text>
</g>
<!-- Node2 -->
<g id="node2" class="node"><title>Node2</title>
<g id="a_node2"><a xlink:href="GenericSensor_8h.html" target="_top" xlink:title="XBotInterface/GenericSensor.h">
<polygon fill="none" stroke="black" points="187,-68.5 187,-87.5 339,-87.5 339,-68.5 187,-68.5"/>
<text text-anchor="middle" x="263" y="-75.5" font-family="Helvetica,sans-Serif" font-size="10.00">XBotInterface/GenericSensor.h</text>
</a>
</g>
</g>
<!-- Node1&#45;&gt;Node2 -->
<g id="edge1" class="edge"><title>Node1&#45;&gt;Node2</title>
<path fill="none" stroke="midnightblue" d="M320.622,-124.968C307.701,-114.66 293.158,-103.059 281.916,-94.09"/>
<polygon fill="midnightblue" stroke="midnightblue" points="284.043,-91.3098 274.043,-87.8095 279.678,-96.7819 284.043,-91.3098"/>
</g>
<!-- Node6 -->
<g id="node6" class="node"><title>Node6</title>
<polygon fill="none" stroke="#bfbfbf" points="474.5,-6.5 474.5,-25.5 561.5,-25.5 561.5,-6.5 474.5,-6.5"/>
<text text-anchor="middle" x="518" y="-13.5" font-family="Helvetica,sans-Serif" font-size="10.00">Eigen/Geometry</text>
</g>
<!-- Node1&#45;&gt;Node6 -->
<g id="edge8" class="edge"><title>Node1&#45;&gt;Node6</title>
<path fill="none" stroke="midnightblue" d="M383.223,-124.984C417.439,-97.57 471.2,-54.4964 499.368,-31.9281"/>
<polygon fill="midnightblue" stroke="midnightblue" points="501.623,-34.6066 507.238,-25.6224 497.246,-29.1437 501.623,-34.6066"/>
</g>
<!-- Node3 -->
<g id="node3" class="node"><title>Node3</title>
<polygon fill="none" stroke="#bfbfbf" points="-0.5,-6.5 -0.5,-25.5 40.5,-25.5 40.5,-6.5 -0.5,-6.5"/>
<text text-anchor="middle" x="20" y="-13.5" font-family="Helvetica,sans-Serif" font-size="10.00">string</text>
</g>
<!-- Node2&#45;&gt;Node3 -->
<g id="edge2" class="edge"><title>Node2&#45;&gt;Node3</title>
<path fill="none" stroke="midnightblue" d="M202.666,-68.4751C159.397,-61.35 100.134,-49.505 50,-32 48.1446,-31.3522 46.2569,-30.6144 44.3778,-29.8217"/>
<polygon fill="midnightblue" stroke="midnightblue" points="45.7845,-26.6159 35.2422,-25.5625 42.8266,-32.9603 45.7845,-26.6159"/>
</g>
<!-- Node4 -->
<g id="node4" class="node"><title>Node4</title>
<polygon fill="none" stroke="#bfbfbf" points="59,-6.5 59,-25.5 111,-25.5 111,-6.5 59,-6.5"/>
<text text-anchor="middle" x="85" y="-13.5" font-family="Helvetica,sans-Serif" font-size="10.00">memory</text>
</g>
<!-- Node2&#45;&gt;Node4 -->
<g id="edge3" class="edge"><title>Node2&#45;&gt;Node4</title>
<path fill="none" stroke="midnightblue" d="M232.852,-68.4668C203.706,-59.9942 158.438,-46.2439 120,-32 117.885,-31.2161 115.711,-30.3746 113.533,-29.5049"/>
<polygon fill="midnightblue" stroke="midnightblue" points="114.694,-26.1976 104.116,-25.6017 112.014,-32.6641 114.694,-26.1976"/>
</g>
<!-- Node5 -->
<g id="node5" class="node"><title>Node5</title>
<polygon fill="none" stroke="#bfbfbf" points="129,-6.5 129,-25.5 183,-25.5 183,-6.5 129,-6.5"/>
<text text-anchor="middle" x="156" y="-13.5" font-family="Helvetica,sans-Serif" font-size="10.00">iostream</text>
</g>
<!-- Node2&#45;&gt;Node5 -->
<g id="edge4" class="edge"><title>Node2&#45;&gt;Node5</title>
<path fill="none" stroke="midnightblue" d="M247.67,-68.4035C230.03,-58.5123 200.84,-42.1442 180.142,-30.5378"/>
<polygon fill="midnightblue" stroke="midnightblue" points="181.736,-27.4188 171.302,-25.5806 178.312,-33.5244 181.736,-27.4188"/>
</g>
<!-- Node2&#45;&gt;Node6 -->
<g id="edge5" class="edge"><title>Node2&#45;&gt;Node6</title>
<path fill="none" stroke="midnightblue" d="M304.557,-68.4608C345.51,-59.8769 409.788,-45.9511 465,-32 469.624,-30.8316 474.458,-29.5491 479.245,-28.2413"/>
<polygon fill="midnightblue" stroke="midnightblue" points="480.225,-31.6017 488.921,-25.5499 478.349,-24.8577 480.225,-31.6017"/>
</g>
<!-- Node7 -->
<g id="node7" class="node"><title>Node7</title>
<polygon fill="none" stroke="#bfbfbf" points="201,-1 201,-31 325,-31 325,-1 201,-1"/>
<text text-anchor="start" x="209" y="-19" font-family="Helvetica,sans-Serif" font-size="10.00">eigen_conversions/eigen</text>
<text text-anchor="middle" x="263" y="-8" font-family="Helvetica,sans-Serif" font-size="10.00">_kdl.h</text>
</g>
<!-- Node2&#45;&gt;Node7 -->
<g id="edge6" class="edge"><title>Node2&#45;&gt;Node7</title>
<path fill="none" stroke="midnightblue" d="M263,-68.4035C263,-61.3405 263,-50.975 263,-41.399"/>
<polygon fill="midnightblue" stroke="midnightblue" points="266.5,-41.1408 263,-31.1408 259.5,-41.1408 266.5,-41.1408"/>
</g>
<!-- Node8 -->
<g id="node8" class="node"><title>Node8</title>
<polygon fill="none" stroke="#bfbfbf" points="343.5,-6.5 343.5,-25.5 456.5,-25.5 456.5,-6.5 343.5,-6.5"/>
<text text-anchor="middle" x="400" y="-13.5" font-family="Helvetica,sans-Serif" font-size="10.00">srdfdom_advr/model.h</text>
</g>
<!-- Node2&#45;&gt;Node8 -->
<g id="edge7" class="edge"><title>Node2&#45;&gt;Node8</title>
<path fill="none" stroke="midnightblue" d="M282.629,-68.4035C305.824,-58.245 344.619,-41.2547 371.213,-29.6074"/>
<polygon fill="midnightblue" stroke="midnightblue" points="372.652,-32.7984 380.408,-25.5806 369.843,-26.3863 372.652,-32.7984"/>
</g>
</g>
</svg>
