<?xml version="1.0" encoding="UTF-8" standalone="no"?>
<!DOCTYPE svg PUBLIC "-//W3C//DTD SVG 1.1//EN"
 "http://www.w3.org/Graphics/SVG/1.1/DTD/svg11.dtd">
<!-- Generated by graphviz version 2.36.0 (20140111.2315)
 -->
<!-- Title: Graphical Class Hierarchy Pages: 1 -->
<svg width="464pt" height="87pt"
 viewBox="0.00 0.00 464.00 87.00" xmlns="http://www.w3.org/2000/svg" xmlns:xlink="http://www.w3.org/1999/xlink">
<g id="graph0" class="graph" transform="scale(1 1) rotate(0) translate(4 83)">
<title>Graphical Class Hierarchy</title>
<!-- Node1 -->
<g id="node1" class="node"><title>Node1</title>
<g id="a_node1"><a xlink:href="classfmt_1_1ArgVisitor.html" target="_top" xlink:title="fmt::ArgVisitor\&lt; Impl,\l void \&gt;">
<polygon fill="none" stroke="black" points="0,-24 0,-54 110,-54 110,-24 0,-24"/>
<text text-anchor="start" x="8" y="-42" font-family="Helvetica,sans-Serif" font-size="10.00">fmt::ArgVisitor&lt; Impl,</text>
<text text-anchor="middle" x="55" y="-31" font-family="Helvetica,sans-Serif" font-size="10.00"> void &gt;</text>
</a>
</g>
</g>
<!-- Node2 -->
<g id="node2" class="node"><title>Node2</title>
<g id="a_node2"><a xlink:href="classfmt_1_1internal_1_1ArgFormatterBase.html" target="_top" xlink:title="fmt::internal::ArgFormatter\lBase\&lt; Impl, Char \&gt;">
<polygon fill="none" stroke="black" points="146.5,-24 146.5,-54 277.5,-54 277.5,-24 146.5,-24"/>
<text text-anchor="start" x="154.5" y="-42" font-family="Helvetica,sans-Serif" font-size="10.00">fmt::internal::ArgFormatter</text>
<text text-anchor="middle" x="212" y="-31" font-family="Helvetica,sans-Serif" font-size="10.00">Base&lt; Impl, Char &gt;</text>
</a>
</g>
</g>
<!-- Node1&#45;&gt;Node2 -->
<g id="edge1" class="edge"><title>Node1&#45;&gt;Node2</title>
<path fill="none" stroke="midnightblue" d="M120.24,-39C128.895,-39 137.777,-39 146.437,-39"/>
<polygon fill="midnightblue" stroke="midnightblue" points="120.212,-35.5001 110.211,-39 120.211,-42.5001 120.212,-35.5001"/>
</g>
<!-- Node3 -->
<g id="node3" class="node"><title>Node3</title>
<g id="a_node3"><a xlink:href="classfmt_1_1BasicArgFormatter.html" target="_top" xlink:title="An argument formatter based on the curiously recurring template pattern &lt;http://en.wikipedia.org/wiki/Curiously_recurring_template_pattern&gt;_. ">
<polygon fill="none" stroke="black" points="325.5,-49 325.5,-79 444.5,-79 444.5,-49 325.5,-49"/>
<text text-anchor="start" x="333.5" y="-67" font-family="Helvetica,sans-Serif" font-size="10.00">fmt::BasicArgFormatter</text>
<text text-anchor="middle" x="385" y="-56" font-family="Helvetica,sans-Serif" font-size="10.00">&lt; Impl, Char &gt;</text>
</a>
</g>
</g>
<!-- Node2&#45;&gt;Node3 -->
<g id="edge2" class="edge"><title>Node2&#45;&gt;Node3</title>
<path fill="none" stroke="midnightblue" d="M287.695,-49.9203C300.335,-51.7683 313.295,-53.6631 325.447,-55.4396"/>
<polygon fill="midnightblue" stroke="midnightblue" points="288.049,-46.4349 277.648,-48.4514 287.036,-53.3613 288.049,-46.4349"/>
</g>
<!-- Node4 -->
<g id="node4" class="node"><title>Node4</title>
<g id="a_node4"><a xlink:href="classfmt_1_1BasicPrintfArgFormatter.html" target="_top" xlink:title="A printf argument formatter based on the curiously recurring template pattern &lt;http://en.wikipedia.org/wiki/Curiously_recurring_template_pattern&gt;_. ">
<polygon fill="none" stroke="black" points="314,-0 314,-30 456,-30 456,-0 314,-0"/>
<text text-anchor="start" x="322" y="-18" font-family="Helvetica,sans-Serif" font-size="10.00">fmt::BasicPrintfArgFormatter</text>
<text text-anchor="middle" x="385" y="-7" font-family="Helvetica,sans-Serif" font-size="10.00">&lt; Impl, Char &gt;</text>
</a>
</g>
</g>
<!-- Node2&#45;&gt;Node4 -->
<g id="edge3" class="edge"><title>Node2&#45;&gt;Node4</title>
<path fill="none" stroke="midnightblue" d="M287.735,-28.5108C296.406,-27.2939 305.227,-26.0559 313.833,-24.848"/>
<polygon fill="midnightblue" stroke="midnightblue" points="287.064,-25.0706 277.648,-29.9266 288.037,-32.0027 287.064,-25.0706"/>
</g>
</g>
</svg>
