<?xml version="1.0" encoding="UTF-8" standalone="no"?>
<!DOCTYPE svg PUBLIC "-//W3C//DTD SVG 1.1//EN"
 "http://www.w3.org/Graphics/SVG/1.1/DTD/svg11.dtd">
<!-- Generated by graphviz version 2.36.0 (20140111.2315)
 -->
<!-- Title: Graphical Class Hierarchy Pages: 1 -->
<svg width="424pt" height="66pt"
 viewBox="0.00 0.00 424.00 66.00" xmlns="http://www.w3.org/2000/svg" xmlns:xlink="http://www.w3.org/1999/xlink">
<g id="graph0" class="graph" transform="scale(1 1) rotate(0) translate(4 62)">
<title>Graphical Class Hierarchy</title>
<!-- Node1 -->
<g id="node1" class="node"><title>Node1</title>
<g id="a_node1"><a xlink:href="classXBot_1_1SSLogger.html" target="_top" xlink:title="String Stream Logger. ">
<polygon fill="none" stroke="black" points="0.5,-19.5 0.5,-38.5 87.5,-38.5 87.5,-19.5 0.5,-19.5"/>
<text text-anchor="middle" x="44" y="-26.5" font-family="Helvetica,sans-Serif" font-size="10.00">XBot::SSLogger</text>
</a>
</g>
</g>
<!-- Node2 -->
<g id="node2" class="node"><title>Node2</title>
<g id="a_node2"><a xlink:href="classXBot_1_1SSConsoleLogger.html" target="_top" xlink:title="XBot::SSConsoleLogger">
<polygon fill="none" stroke="black" points="124.5,-38.5 124.5,-57.5 247.5,-57.5 247.5,-38.5 124.5,-38.5"/>
<text text-anchor="middle" x="186" y="-45.5" font-family="Helvetica,sans-Serif" font-size="10.00">XBot::SSConsoleLogger</text>
</a>
</g>
</g>
<!-- Node1&#45;&gt;Node2 -->
<g id="edge1" class="edge"><title>Node1&#45;&gt;Node2</title>
<path fill="none" stroke="midnightblue" d="M97.7799,-36.163C106.489,-37.345 115.578,-38.5784 124.459,-39.7837"/>
<polygon fill="midnightblue" stroke="midnightblue" points="98.1452,-32.6806 87.7653,-34.8039 97.2038,-39.617 98.1452,-32.6806"/>
</g>
<!-- Node4 -->
<g id="node4" class="node"><title>Node4</title>
<g id="a_node4"><a xlink:href="classXBot_1_1SSFileLogger.html" target="_top" xlink:title="XBot::SSFileLogger">
<polygon fill="none" stroke="black" points="134.5,-0.5 134.5,-19.5 237.5,-19.5 237.5,-0.5 134.5,-0.5"/>
<text text-anchor="middle" x="186" y="-7.5" font-family="Helvetica,sans-Serif" font-size="10.00">XBot::SSFileLogger</text>
</a>
</g>
</g>
<!-- Node1&#45;&gt;Node4 -->
<g id="edge3" class="edge"><title>Node1&#45;&gt;Node4</title>
<path fill="none" stroke="midnightblue" d="M98.0226,-21.8041C109.942,-20.1864 122.561,-18.4739 134.379,-16.8699"/>
<polygon fill="midnightblue" stroke="midnightblue" points="97.2038,-18.383 87.7653,-23.1961 98.1452,-25.3194 97.2038,-18.383"/>
</g>
<!-- Node3 -->
<g id="node3" class="node"><title>Node3</title>
<g id="a_node3"><a xlink:href="classXBot_1_1SPDConsoleLogger.html" target="_top" xlink:title="XBot::SPDConsoleLogger">
<polygon fill="none" stroke="black" points="284.5,-38.5 284.5,-57.5 415.5,-57.5 415.5,-38.5 284.5,-38.5"/>
<text text-anchor="middle" x="350" y="-45.5" font-family="Helvetica,sans-Serif" font-size="10.00">XBot::SPDConsoleLogger</text>
</a>
</g>
</g>
<!-- Node2&#45;&gt;Node3 -->
<g id="edge2" class="edge"><title>Node2&#45;&gt;Node3</title>
<path fill="none" stroke="midnightblue" d="M257.982,-48C266.754,-48 275.684,-48 284.354,-48"/>
<polygon fill="midnightblue" stroke="midnightblue" points="257.784,-44.5001 247.784,-48 257.784,-51.5001 257.784,-44.5001"/>
</g>
<!-- Node5 -->
<g id="node5" class="node"><title>Node5</title>
<g id="a_node5"><a xlink:href="classXBot_1_1SPDFileLogger.html" target="_top" xlink:title="XBot::SPDFileLogger">
<polygon fill="none" stroke="black" points="295,-0.5 295,-19.5 405,-19.5 405,-0.5 295,-0.5"/>
<text text-anchor="middle" x="350" y="-7.5" font-family="Helvetica,sans-Serif" font-size="10.00">XBot::SPDFileLogger</text>
</a>
</g>
</g>
<!-- Node4&#45;&gt;Node5 -->
<g id="edge4" class="edge"><title>Node4&#45;&gt;Node5</title>
<path fill="none" stroke="midnightblue" d="M248.21,-10C263.5,-10 279.792,-10 294.721,-10"/>
<polygon fill="midnightblue" stroke="midnightblue" points="247.813,-6.5001 237.813,-10 247.813,-13.5001 247.813,-6.5001"/>
</g>
</g>
</svg>
