<?xml version="1.0" encoding="UTF-8" standalone="no"?>
<!DOCTYPE svg PUBLIC "-//W3C//DTD SVG 1.1//EN"
 "http://www.w3.org/Graphics/SVG/1.1/DTD/svg11.dtd">
<!-- Generated by graphviz version 2.36.0 (20140111.2315)
 -->
<!-- Title: Graphical Class Hierarchy Pages: 1 -->
<svg width="352pt" height="126pt"
 viewBox="0.00 0.00 352.00 126.00" xmlns="http://www.w3.org/2000/svg" xmlns:xlink="http://www.w3.org/1999/xlink">
<g id="graph0" class="graph" transform="scale(1 1) rotate(0) translate(4 122)">
<title>Graphical Class Hierarchy</title>
<!-- Node1 -->
<g id="node1" class="node"><title>Node1</title>
<g id="a_node1"><a xlink:href="structfmt_1_1WidthSpec.html" target="_top" xlink:title="fmt::WidthSpec">
<polygon fill="none" stroke="black" points="0.5,-49.5 0.5,-68.5 85.5,-68.5 85.5,-49.5 0.5,-49.5"/>
<text text-anchor="middle" x="43" y="-56.5" font-family="Helvetica,sans-Serif" font-size="10.00">fmt::WidthSpec</text>
</a>
</g>
</g>
<!-- Node2 -->
<g id="node2" class="node"><title>Node2</title>
<g id="a_node2"><a xlink:href="structfmt_1_1AlignSpec.html" target="_top" xlink:title="fmt::AlignSpec">
<polygon fill="none" stroke="black" points="122.5,-49.5 122.5,-68.5 203.5,-68.5 203.5,-49.5 122.5,-49.5"/>
<text text-anchor="middle" x="163" y="-56.5" font-family="Helvetica,sans-Serif" font-size="10.00">fmt::AlignSpec</text>
</a>
</g>
</g>
<!-- Node1&#45;&gt;Node2 -->
<g id="edge1" class="edge"><title>Node1&#45;&gt;Node2</title>
<path fill="none" stroke="midnightblue" d="M95.8785,-59C104.76,-59 113.859,-59 122.356,-59"/>
<polygon fill="midnightblue" stroke="midnightblue" points="95.6024,-55.5001 85.6024,-59 95.6024,-62.5001 95.6024,-55.5001"/>
</g>
<!-- Node3 -->
<g id="node3" class="node"><title>Node3</title>
<g id="a_node3"><a xlink:href="structfmt_1_1AlignTypeSpec.html" target="_top" xlink:title="fmt::AlignTypeSpec\l\&lt; TYPE \&gt;">
<polygon fill="none" stroke="black" points="240.5,-88 240.5,-118 343.5,-118 343.5,-88 240.5,-88"/>
<text text-anchor="start" x="248.5" y="-106" font-family="Helvetica,sans-Serif" font-size="10.00">fmt::AlignTypeSpec</text>
<text text-anchor="middle" x="292" y="-95" font-family="Helvetica,sans-Serif" font-size="10.00">&lt; TYPE &gt;</text>
</a>
</g>
</g>
<!-- Node2&#45;&gt;Node3 -->
<g id="edge2" class="edge"><title>Node2&#45;&gt;Node3</title>
<path fill="none" stroke="midnightblue" d="M201.201,-71.8884C215.713,-76.9163 232.452,-82.7155 247.516,-87.9346"/>
<polygon fill="midnightblue" stroke="midnightblue" points="202.152,-68.5139 191.557,-68.5473 199.86,-75.1282 202.152,-68.5139"/>
</g>
<!-- Node4 -->
<g id="node4" class="node"><title>Node4</title>
<g id="a_node4"><a xlink:href="structfmt_1_1FormatSpec.html" target="_top" xlink:title="fmt::FormatSpec">
<polygon fill="none" stroke="black" points="247,-49.5 247,-68.5 337,-68.5 337,-49.5 247,-49.5"/>
<text text-anchor="middle" x="292" y="-56.5" font-family="Helvetica,sans-Serif" font-size="10.00">fmt::FormatSpec</text>
</a>
</g>
</g>
<!-- Node2&#45;&gt;Node4 -->
<g id="edge3" class="edge"><title>Node2&#45;&gt;Node4</title>
<path fill="none" stroke="midnightblue" d="M214.028,-59C224.882,-59 236.285,-59 246.891,-59"/>
<polygon fill="midnightblue" stroke="midnightblue" points="213.835,-55.5001 203.835,-59 213.835,-62.5001 213.835,-55.5001"/>
</g>
<!-- Node5 -->
<g id="node5" class="node"><title>Node5</title>
<g id="a_node5"><a xlink:href="classfmt_1_1StrFormatSpec.html" target="_top" xlink:title="fmt::StrFormatSpec\l\&lt; Char \&gt;">
<polygon fill="none" stroke="black" points="240.5,-0 240.5,-30 343.5,-30 343.5,-0 240.5,-0"/>
<text text-anchor="start" x="248.5" y="-18" font-family="Helvetica,sans-Serif" font-size="10.00">fmt::StrFormatSpec</text>
<text text-anchor="middle" x="292" y="-7" font-family="Helvetica,sans-Serif" font-size="10.00">&lt; Char &gt;</text>
</a>
</g>
</g>
<!-- Node2&#45;&gt;Node5 -->
<g id="edge4" class="edge"><title>Node2&#45;&gt;Node5</title>
<path fill="none" stroke="midnightblue" d="M201.201,-46.1116C215.713,-41.0837 232.452,-35.2845 247.516,-30.0654"/>
<polygon fill="midnightblue" stroke="midnightblue" points="199.86,-42.8718 191.557,-49.4527 202.152,-49.4861 199.86,-42.8718"/>
</g>
</g>
</svg>
