<?xml version="1.0" encoding="UTF-8" standalone="no"?>
<!DOCTYPE svg PUBLIC "-//W3C//DTD SVG 1.1//EN"
 "http://www.w3.org/Graphics/SVG/1.1/DTD/svg11.dtd">
<!-- Generated by graphviz version 2.38.0 (20140413.2041)
 -->
<!-- Title: Graphical Class Hierarchy Pages: 1 -->
<svg width="421pt" height="66pt"
 viewBox="0.00 0.00 421.00 66.00" xmlns="http://www.w3.org/2000/svg" xmlns:xlink="http://www.w3.org/1999/xlink">
<g id="graph0" class="graph" transform="scale(1 1) rotate(0) translate(4 62)">
<title>Graphical Class Hierarchy</title>
<!-- Node1 -->
<g id="node1" class="node"><title>Node1</title>
<g id="a_node1"><a xlink:href="classXBot_1_1SSLogger.html" target="_top" xlink:title="String Stream Logger. ">
<polygon fill="none" stroke="black" points="0,-19.5 0,-38.5 87,-38.5 87,-19.5 0,-19.5"/>
<text text-anchor="middle" x="43.5" y="-26.5" font-family="Helvetica,sans-Serif" font-size="10.00">XBot::SSLogger</text>
</a>
</g>
</g>
<!-- Node2 -->
<g id="node2" class="node"><title>Node2</title>
<g id="a_node2"><a xlink:href="classXBot_1_1SSConsoleLogger.html" target="_top" xlink:title="XBot::SSConsoleLogger">
<polygon fill="none" stroke="black" points="123,-38.5 123,-57.5 246,-57.5 246,-38.5 123,-38.5"/>
<text text-anchor="middle" x="184.5" y="-45.5" font-family="Helvetica,sans-Serif" font-size="10.00">XBot::SSConsoleLogger</text>
</a>
</g>
</g>
<!-- Node1&#45;&gt;Node2 -->
<g id="edge1" class="edge"><title>Node1&#45;&gt;Node2</title>
<path fill="none" stroke="midnightblue" d="M97.3324,-36.2217C105.693,-37.3645 114.396,-38.5541 122.917,-39.7189"/>
<polygon fill="midnightblue" stroke="midnightblue" points="97.7207,-32.7423 87.3388,-34.8557 96.7726,-39.6778 97.7207,-32.7423"/>
</g>
<!-- Node4 -->
<g id="node4" class="node"><title>Node4</title>
<g id="a_node4"><a xlink:href="classXBot_1_1SSFileLogger.html" target="_top" xlink:title="XBot::SSFileLogger">
<polygon fill="none" stroke="black" points="133,-0.5 133,-19.5 236,-19.5 236,-0.5 133,-0.5"/>
<text text-anchor="middle" x="184.5" y="-7.5" font-family="Helvetica,sans-Serif" font-size="10.00">XBot::SSFileLogger</text>
</a>
</g>
</g>
<!-- Node1&#45;&gt;Node4 -->
<g id="edge3" class="edge"><title>Node1&#45;&gt;Node4</title>
<path fill="none" stroke="midnightblue" d="M97.3383,-21.7775C108.95,-20.1903 121.222,-18.5129 132.749,-16.9371"/>
<polygon fill="midnightblue" stroke="midnightblue" points="96.7726,-18.3222 87.3388,-23.1443 97.7207,-25.2577 96.7726,-18.3222"/>
</g>
<!-- Node3 -->
<g id="node3" class="node"><title>Node3</title>
<g id="a_node3"><a xlink:href="classXBot_1_1SPDConsoleLogger.html" target="_top" xlink:title="XBot::SPDConsoleLogger">
<polygon fill="none" stroke="black" points="282,-38.5 282,-57.5 413,-57.5 413,-38.5 282,-38.5"/>
<text text-anchor="middle" x="347.5" y="-45.5" font-family="Helvetica,sans-Serif" font-size="10.00">XBot::SPDConsoleLogger</text>
</a>
</g>
</g>
<!-- Node2&#45;&gt;Node3 -->
<g id="edge2" class="edge"><title>Node2&#45;&gt;Node3</title>
<path fill="none" stroke="midnightblue" d="M256.525,-48C264.931,-48 273.476,-48 281.787,-48"/>
<polygon fill="midnightblue" stroke="midnightblue" points="256.367,-44.5001 246.367,-48 256.367,-51.5001 256.367,-44.5001"/>
</g>
<!-- Node5 -->
<g id="node5" class="node"><title>Node5</title>
<g id="a_node5"><a xlink:href="classXBot_1_1SPDFileLogger.html" target="_top" xlink:title="XBot::SPDFileLogger">
<polygon fill="none" stroke="black" points="292.5,-0.5 292.5,-19.5 402.5,-19.5 402.5,-0.5 292.5,-0.5"/>
<text text-anchor="middle" x="347.5" y="-7.5" font-family="Helvetica,sans-Serif" font-size="10.00">XBot::SPDFileLogger</text>
</a>
</g>
</g>
<!-- Node4&#45;&gt;Node5 -->
<g id="edge4" class="edge"><title>Node4&#45;&gt;Node5</title>
<path fill="none" stroke="midnightblue" d="M246.651,-10C261.657,-10 277.618,-10 292.273,-10"/>
<polygon fill="midnightblue" stroke="midnightblue" points="246.441,-6.5001 236.441,-10 246.441,-13.5001 246.441,-6.5001"/>
</g>
</g>
</svg>
