<?xml version="1.0" encoding="UTF-8" standalone="no"?>
<!DOCTYPE svg PUBLIC "-//W3C//DTD SVG 1.1//EN"
 "http://www.w3.org/Graphics/SVG/1.1/DTD/svg11.dtd">
<!-- Generated by graphviz version 2.38.0 (20140413.2041)
 -->
<!-- Title: Graphical Class Hierarchy Pages: 1 -->
<svg width="289pt" height="147pt"
 viewBox="0.00 0.00 289.00 147.00" xmlns="http://www.w3.org/2000/svg" xmlns:xlink="http://www.w3.org/1999/xlink">
<g id="graph0" class="graph" transform="scale(1 1) rotate(0) translate(4 143)">
<title>Graphical Class Hierarchy</title>
<!-- Node1 -->
<g id="node1" class="node"><title>Node1</title>
<polygon fill="none" stroke="#bfbfbf" points="23.5,-68 23.5,-87 78.5,-87 78.5,-68 23.5,-68"/>
<text text-anchor="middle" x="51" y="-75" font-family="Helvetica,sans-Serif" font-size="10.00">Allocator</text>
</g>
<!-- Node2 -->
<g id="node2" class="node"><title>Node2</title>
<g id="a_node2"><a xlink:href="classfmt_1_1internal_1_1MemoryBuffer.html" target="_top" xlink:title="fmt::internal::MemoryBuffer\l\&lt; T, SIZE, Allocator \&gt;">
<polygon fill="none" stroke="black" points="141.5,-108.5 141.5,-138.5 277.5,-138.5 277.5,-108.5 141.5,-108.5"/>
<text text-anchor="start" x="149.5" y="-126.5" font-family="Helvetica,sans-Serif" font-size="10.00">fmt::internal::MemoryBuffer</text>
<text text-anchor="middle" x="209.5" y="-115.5" font-family="Helvetica,sans-Serif" font-size="10.00">&lt; T, SIZE, Allocator &gt;</text>
</a>
</g>
</g>
<!-- Node1&#45;&gt;Node2 -->
<g id="edge1" class="edge"><title>Node1&#45;&gt;Node2</title>
<path fill="none" stroke="#8b1a1a" d="M88.1573,-88.1277C108.715,-94.1702 134.791,-101.835 157.41,-108.483"/>
<polygon fill="#8b1a1a" stroke="#8b1a1a" points="89.1293,-84.7654 78.5481,-85.3033 87.1552,-91.4813 89.1293,-84.7654"/>
</g>
<!-- Node3 -->
<g id="node3" class="node"><title>Node3</title>
<g id="a_node3"><a xlink:href="classfmt_1_1internal_1_1MemoryBuffer.html" target="_top" xlink:title="fmt::internal::MemoryBuffer\l\&lt; Char, internal::INLINE\l_BUFFER_SIZE, Allocator \&gt;">
<polygon fill="none" stroke="black" points="138,-49 138,-90 281,-90 281,-49 138,-49"/>
<text text-anchor="start" x="146" y="-78" font-family="Helvetica,sans-Serif" font-size="10.00">fmt::internal::MemoryBuffer</text>
<text text-anchor="start" x="146" y="-67" font-family="Helvetica,sans-Serif" font-size="10.00">&lt; Char, internal::INLINE</text>
<text text-anchor="middle" x="209.5" y="-56" font-family="Helvetica,sans-Serif" font-size="10.00">_BUFFER_SIZE, Allocator &gt;</text>
</a>
</g>
</g>
<!-- Node1&#45;&gt;Node3 -->
<g id="edge2" class="edge"><title>Node1&#45;&gt;Node3</title>
<path fill="none" stroke="#8b1a1a" d="M88.7353,-75.6222C103.46,-74.8695 120.944,-73.9757 137.94,-73.1069"/>
<polygon fill="#8b1a1a" stroke="#8b1a1a" points="88.3563,-72.1369 78.5481,-76.1429 88.7138,-79.1277 88.3563,-72.1369"/>
</g>
<!-- Node4 -->
<g id="node4" class="node"><title>Node4</title>
<g id="a_node4"><a xlink:href="classfmt_1_1Buffer.html" target="_top" xlink:title="A buffer supporting a subset of std::vector&#39;s operations. ">
<polygon fill="none" stroke="black" points="7.5,-114 7.5,-133 94.5,-133 94.5,-114 7.5,-114"/>
<text text-anchor="middle" x="51" y="-121" font-family="Helvetica,sans-Serif" font-size="10.00">fmt::Buffer&lt; T &gt;</text>
</a>
</g>
</g>
<!-- Node4&#45;&gt;Node2 -->
<g id="edge3" class="edge"><title>Node4&#45;&gt;Node2</title>
<path fill="none" stroke="midnightblue" d="M104.827,-123.5C116.563,-123.5 129.155,-123.5 141.378,-123.5"/>
<polygon fill="midnightblue" stroke="midnightblue" points="104.764,-120 94.7643,-123.5 104.764,-127 104.764,-120"/>
</g>
<!-- Node5 -->
<g id="node5" class="node"><title>Node5</title>
<g id="a_node5"><a xlink:href="classfmt_1_1Buffer.html" target="_top" xlink:title="fmt::Buffer\&lt; Char \&gt;">
<polygon fill="none" stroke="black" points="0,-22 0,-41 102,-41 102,-22 0,-22"/>
<text text-anchor="middle" x="51" y="-29" font-family="Helvetica,sans-Serif" font-size="10.00">fmt::Buffer&lt; Char &gt;</text>
</a>
</g>
</g>
<!-- Node5&#45;&gt;Node3 -->
<g id="edge5" class="edge"><title>Node5&#45;&gt;Node3</title>
<path fill="none" stroke="midnightblue" d="M101.409,-43.497C113.018,-46.3158 125.611,-49.3737 137.947,-52.369"/>
<polygon fill="midnightblue" stroke="midnightblue" points="102.035,-40.0475 91.4916,-41.089 100.383,-46.8498 102.035,-40.0475"/>
</g>
<!-- Node6 -->
<g id="node6" class="node"><title>Node6</title>
<g id="a_node6"><a xlink:href="classfmt_1_1internal_1_1FixedBuffer.html" target="_top" xlink:title="fmt::internal::FixedBuffer\l\&lt; Char \&gt;">
<polygon fill="none" stroke="black" points="147,-0.5 147,-30.5 272,-30.5 272,-0.5 147,-0.5"/>
<text text-anchor="start" x="155" y="-18.5" font-family="Helvetica,sans-Serif" font-size="10.00">fmt::internal::FixedBuffer</text>
<text text-anchor="middle" x="209.5" y="-7.5" font-family="Helvetica,sans-Serif" font-size="10.00">&lt; Char &gt;</text>
</a>
</g>
</g>
<!-- Node5&#45;&gt;Node6 -->
<g id="edge4" class="edge"><title>Node5&#45;&gt;Node6</title>
<path fill="none" stroke="midnightblue" d="M112.572,-25.3073C123.861,-24.1532 135.669,-22.946 146.986,-21.789"/>
<polygon fill="midnightblue" stroke="midnightblue" points="111.971,-21.8504 102.379,-26.3494 112.683,-28.8141 111.971,-21.8504"/>
</g>
</g>
</svg>
