<?xml version="1.0" encoding="UTF-8" standalone="no"?>
<!DOCTYPE svg PUBLIC "-//W3C//DTD SVG 1.1//EN"
 "http://www.w3.org/Graphics/SVG/1.1/DTD/svg11.dtd">
<!-- Generated by graphviz version 2.36.0 (20140111.2315)
 -->
<!-- Title: Graphical Class Hierarchy Pages: 1 -->
<svg width="514pt" height="85pt"
 viewBox="0.00 0.00 514.00 85.00" xmlns="http://www.w3.org/2000/svg" xmlns:xlink="http://www.w3.org/1999/xlink">
<g id="graph0" class="graph" transform="scale(1 1) rotate(0) translate(4 81)">
<title>Graphical Class Hierarchy</title>
<!-- Node1 -->
<g id="node1" class="node"><title>Node1</title>
<g id="a_node1"><a xlink:title="STL class. ">
<polygon fill="none" stroke="#bfbfbf" points="0,-38.5 0,-57.5 78,-57.5 78,-38.5 0,-38.5"/>
<text text-anchor="middle" x="39" y="-45.5" font-family="Helvetica,sans-Serif" font-size="10.00">std::exception</text>
</a>
</g>
</g>
<!-- Node2 -->
<g id="node2" class="node"><title>Node2</title>
<g id="a_node2"><a xlink:href="classspdlog_1_1spdlog__ex.html" target="_top" xlink:title="spdlog::spdlog_ex">
<polygon fill="none" stroke="black" points="114.5,-57.5 114.5,-76.5 209.5,-76.5 209.5,-57.5 114.5,-57.5"/>
<text text-anchor="middle" x="162" y="-64.5" font-family="Helvetica,sans-Serif" font-size="10.00">spdlog::spdlog_ex</text>
</a>
</g>
</g>
<!-- Node1&#45;&gt;Node2 -->
<g id="edge1" class="edge"><title>Node1&#45;&gt;Node2</title>
<path fill="none" stroke="midnightblue" d="M88.2326,-55.5737C96.8811,-56.9317 105.879,-58.3446 114.478,-59.6949"/>
<polygon fill="midnightblue" stroke="midnightblue" points="88.7071,-52.1054 78.2852,-54.0117 87.6211,-59.0207 88.7071,-52.1054"/>
</g>
<!-- Node3 -->
<g id="node3" class="node"><title>Node3</title>
<g id="a_node3"><a xlink:title="STL class. ">
<polygon fill="none" stroke="#bfbfbf" points="115.5,-19.5 115.5,-38.5 208.5,-38.5 208.5,-19.5 115.5,-19.5"/>
<text text-anchor="middle" x="162" y="-26.5" font-family="Helvetica,sans-Serif" font-size="10.00">std::runtime_error</text>
</a>
</g>
</g>
<!-- Node1&#45;&gt;Node3 -->
<g id="edge2" class="edge"><title>Node1&#45;&gt;Node3</title>
<path fill="none" stroke="midnightblue" d="M88.1884,-40.4332C97.1404,-39.0275 106.468,-37.5629 115.341,-36.1695"/>
<polygon fill="midnightblue" stroke="midnightblue" points="87.6211,-36.9793 78.2852,-41.9883 88.7071,-43.8946 87.6211,-36.9793"/>
</g>
<!-- Node4 -->
<g id="node4" class="node"><title>Node4</title>
<g id="a_node4"><a xlink:href="classfmt_1_1FormatError.html" target="_top" xlink:title="A formatting error such as invalid format string. ">
<polygon fill="none" stroke="black" points="267.5,-38.5 267.5,-57.5 356.5,-57.5 356.5,-38.5 267.5,-38.5"/>
<text text-anchor="middle" x="312" y="-45.5" font-family="Helvetica,sans-Serif" font-size="10.00">fmt::FormatError</text>
</a>
</g>
</g>
<!-- Node3&#45;&gt;Node4 -->
<g id="edge3" class="edge"><title>Node3&#45;&gt;Node4</title>
<path fill="none" stroke="midnightblue" d="M218.927,-36.1798C234.937,-38.2352 252.15,-40.445 267.311,-42.3913"/>
<polygon fill="midnightblue" stroke="midnightblue" points="218.977,-32.6576 208.613,-34.8557 218.085,-39.6006 218.977,-32.6576"/>
</g>
<!-- Node5 -->
<g id="node5" class="node"><title>Node5</title>
<g id="a_node5"><a xlink:href="classfmt_1_1internal_1_1RuntimeError.html" target="_top" xlink:title="fmt::internal::RuntimeError">
<polygon fill="none" stroke="black" points="246,-0.5 246,-19.5 378,-19.5 378,-0.5 246,-0.5"/>
<text text-anchor="middle" x="312" y="-7.5" font-family="Helvetica,sans-Serif" font-size="10.00">fmt::internal::RuntimeError</text>
</a>
</g>
</g>
<!-- Node3&#45;&gt;Node5 -->
<g id="edge4" class="edge"><title>Node3&#45;&gt;Node5</title>
<path fill="none" stroke="midnightblue" d="M218.81,-21.8352C227.67,-20.6977 236.901,-19.5127 245.951,-18.3508"/>
<polygon fill="midnightblue" stroke="midnightblue" points="218.085,-18.3994 208.613,-23.1443 218.977,-25.3424 218.085,-18.3994"/>
</g>
<!-- Node6 -->
<g id="node6" class="node"><title>Node6</title>
<g id="a_node6"><a xlink:href="classfmt_1_1SystemError.html" target="_top" xlink:title="An error returned by an operating system or a language runtime, for example a file opening error...">
<polygon fill="none" stroke="black" points="414,-0.5 414,-19.5 506,-19.5 506,-0.5 414,-0.5"/>
<text text-anchor="middle" x="460" y="-7.5" font-family="Helvetica,sans-Serif" font-size="10.00">fmt::SystemError</text>
</a>
</g>
</g>
<!-- Node5&#45;&gt;Node6 -->
<g id="edge5" class="edge"><title>Node5&#45;&gt;Node6</title>
<path fill="none" stroke="midnightblue" d="M388.472,-10C397.133,-10 405.747,-10 413.826,-10"/>
<polygon fill="midnightblue" stroke="midnightblue" points="388.314,-6.5001 378.313,-10 388.313,-13.5001 388.314,-6.5001"/>
</g>
</g>
</svg>
