<?xml version="1.0" encoding="UTF-8" standalone="no"?>
<!DOCTYPE svg PUBLIC "-//W3C//DTD SVG 1.1//EN"
 "http://www.w3.org/Graphics/SVG/1.1/DTD/svg11.dtd">
<!-- Generated by graphviz version 2.36.0 (20140111.2315)
 -->
<!-- Title: Graphical Class Hierarchy Pages: 1 -->
<svg width="258pt" height="66pt"
 viewBox="0.00 0.00 258.00 66.00" xmlns="http://www.w3.org/2000/svg" xmlns:xlink="http://www.w3.org/1999/xlink">
<g id="graph0" class="graph" transform="scale(1 1) rotate(0) translate(4 62)">
<title>Graphical Class Hierarchy</title>
<!-- Node1 -->
<g id="node1" class="node"><title>Node1</title>
<g id="a_node1"><a xlink:href="classXBot_1_1XBotInterface.html" target="_top" xlink:title="XBot::XBotInterface">
<polygon fill="none" stroke="black" points="0,-19.5 0,-38.5 104,-38.5 104,-19.5 0,-19.5"/>
<text text-anchor="middle" x="52" y="-26.5" font-family="Helvetica,sans-Serif" font-size="10.00">XBot::XBotInterface</text>
</a>
</g>
</g>
<!-- Node2 -->
<g id="node2" class="node"><title>Node2</title>
<g id="a_node2"><a xlink:href="classXBot_1_1ModelInterface.html" target="_top" xlink:title="ModelInterface is an abstraction layer for a kinematic/dynamic model of a robot. ">
<polygon fill="none" stroke="black" points="140.5,-38.5 140.5,-57.5 249.5,-57.5 249.5,-38.5 140.5,-38.5"/>
<text text-anchor="middle" x="195" y="-45.5" font-family="Helvetica,sans-Serif" font-size="10.00">XBot::ModelInterface</text>
</a>
</g>
</g>
<!-- Node1&#45;&gt;Node2 -->
<g id="edge1" class="edge"><title>Node1&#45;&gt;Node2</title>
<path fill="none" stroke="midnightblue" d="M114.284,-37.2582C122.886,-38.4173 131.675,-39.6015 140.125,-40.7403"/>
<polygon fill="midnightblue" stroke="midnightblue" points="114.681,-33.7801 104.303,-35.9132 113.746,-40.7174 114.681,-33.7801"/>
</g>
<!-- Node3 -->
<g id="node3" class="node"><title>Node3</title>
<g id="a_node3"><a xlink:href="classXBot_1_1RobotInterface.html" target="_top" xlink:title="XBot::RobotInterface">
<polygon fill="none" stroke="black" points="140.5,-0.5 140.5,-19.5 249.5,-19.5 249.5,-0.5 140.5,-0.5"/>
<text text-anchor="middle" x="195" y="-7.5" font-family="Helvetica,sans-Serif" font-size="10.00">XBot::RobotInterface</text>
</a>
</g>
</g>
<!-- Node1&#45;&gt;Node3 -->
<g id="edge2" class="edge"><title>Node1&#45;&gt;Node3</title>
<path fill="none" stroke="midnightblue" d="M114.284,-20.7418C122.886,-19.5827 131.675,-18.3985 140.125,-17.2597"/>
<polygon fill="midnightblue" stroke="midnightblue" points="113.746,-17.2826 104.303,-22.0868 114.681,-24.2199 113.746,-17.2826"/>
</g>
</g>
</svg>
