<?xml version="1.0" encoding="UTF-8" standalone="no"?>
<!DOCTYPE svg PUBLIC "-//W3C//DTD SVG 1.1//EN"
 "http://www.w3.org/Graphics/SVG/1.1/DTD/svg11.dtd">
<!-- Generated by graphviz version 2.36.0 (20140111.2315)
 -->
<!-- Title: Graphical Class Hierarchy Pages: 1 -->
<svg width="296pt" height="87pt"
 viewBox="0.00 0.00 296.00 87.00" xmlns="http://www.w3.org/2000/svg" xmlns:xlink="http://www.w3.org/1999/xlink">
<g id="graph0" class="graph" transform="scale(1 1) rotate(0) translate(4 83)">
<title>Graphical Class Hierarchy</title>
<!-- Node1 -->
<g id="node1" class="node"><title>Node1</title>
<g id="a_node1"><a xlink:href="classfmt_1_1BasicWriter.html" target="_top" xlink:title="This template provides operations for formatting and writing data into a character stream...">
<polygon fill="none" stroke="black" points="0.5,-29.5 0.5,-48.5 127.5,-48.5 127.5,-29.5 0.5,-29.5"/>
<text text-anchor="middle" x="64" y="-36.5" font-family="Helvetica,sans-Serif" font-size="10.00">fmt::BasicWriter&lt; Char &gt;</text>
</a>
</g>
</g>
<!-- Node2 -->
<g id="node2" class="node"><title>Node2</title>
<g id="a_node2"><a xlink:href="classfmt_1_1BasicArrayWriter.html" target="_top" xlink:title="This class template provides operations for formatting and writing data into a fixed&#45;size array...">
<polygon fill="none" stroke="black" points="170.5,-49 170.5,-79 281.5,-79 281.5,-49 170.5,-49"/>
<text text-anchor="start" x="178.5" y="-67" font-family="Helvetica,sans-Serif" font-size="10.00">fmt::BasicArrayWriter</text>
<text text-anchor="middle" x="226" y="-56" font-family="Helvetica,sans-Serif" font-size="10.00">&lt; Char &gt;</text>
</a>
</g>
</g>
<!-- Node1&#45;&gt;Node2 -->
<g id="edge1" class="edge"><title>Node1&#45;&gt;Node2</title>
<path fill="none" stroke="midnightblue" d="M135.963,-50.088C147.464,-51.885 159.218,-53.7215 170.256,-55.4463"/>
<polygon fill="midnightblue" stroke="midnightblue" points="136.366,-46.6086 125.946,-48.5227 135.285,-53.5246 136.366,-46.6086"/>
</g>
<!-- Node3 -->
<g id="node3" class="node"><title>Node3</title>
<g id="a_node3"><a xlink:href="classfmt_1_1BasicMemoryWriter.html" target="_top" xlink:title="This class template provides operations for formatting and writing data into a character stream...">
<polygon fill="none" stroke="black" points="164.5,-0 164.5,-30 287.5,-30 287.5,-0 164.5,-0"/>
<text text-anchor="start" x="172.5" y="-18" font-family="Helvetica,sans-Serif" font-size="10.00">fmt::BasicMemoryWriter</text>
<text text-anchor="middle" x="226" y="-7" font-family="Helvetica,sans-Serif" font-size="10.00">&lt; Char, Allocator &gt;</text>
</a>
</g>
</g>
<!-- Node1&#45;&gt;Node3 -->
<g id="edge2" class="edge"><title>Node1&#45;&gt;Node3</title>
<path fill="none" stroke="midnightblue" d="M137.787,-28.0819C146.72,-26.742 155.774,-25.3839 164.498,-24.0752"/>
<polygon fill="midnightblue" stroke="midnightblue" points="137.147,-24.6387 127.777,-29.5834 138.186,-31.5612 137.147,-24.6387"/>
</g>
</g>
</svg>
