<?xml version="1.0" encoding="UTF-8" standalone="no"?>
<!DOCTYPE svg PUBLIC "-//W3C//DTD SVG 1.1//EN"
 "http://www.w3.org/Graphics/SVG/1.1/DTD/svg11.dtd">
<!-- Generated by graphviz version 2.38.0 (20140413.2041)
 -->
<!-- Title: Graphical Class Hierarchy Pages: 1 -->
<svg width="257pt" height="66pt"
 viewBox="0.00 0.00 257.00 66.00" xmlns="http://www.w3.org/2000/svg" xmlns:xlink="http://www.w3.org/1999/xlink">
<g id="graph0" class="graph" transform="scale(1 1) rotate(0) translate(4 62)">
<title>Graphical Class Hierarchy</title>
<!-- Node1 -->
<g id="node1" class="node"><title>Node1</title>
<g id="a_node1"><a xlink:href="classXBot_1_1XBotInterface.html" target="_top" xlink:title="XBot::XBotInterface">
<polygon fill="none" stroke="black" points="0,-19.5 0,-38.5 104,-38.5 104,-19.5 0,-19.5"/>
<text text-anchor="middle" x="52" y="-26.5" font-family="Helvetica,sans-Serif" font-size="10.00">XBot::XBotInterface</text>
</a>
</g>
</g>
<!-- Node2 -->
<g id="node2" class="node"><title>Node2</title>
<g id="a_node2"><a xlink:href="classXBot_1_1ModelInterface.html" target="_top" xlink:title="ModelInterface is an abstraction layer for a kinematic/dynamic model of a robot. ">
<polygon fill="none" stroke="black" points="140,-38.5 140,-57.5 249,-57.5 249,-38.5 140,-38.5"/>
<text text-anchor="middle" x="194.5" y="-45.5" font-family="Helvetica,sans-Serif" font-size="10.00">XBot::ModelInterface</text>
</a>
</g>
</g>
<!-- Node1&#45;&gt;Node2 -->
<g id="edge1" class="edge"><title>Node1&#45;&gt;Node2</title>
<path fill="none" stroke="midnightblue" d="M114.067,-37.2582C122.638,-38.4173 131.396,-39.6015 139.816,-40.7403"/>
<polygon fill="midnightblue" stroke="midnightblue" points="114.5,-33.785 104.121,-35.9132 113.562,-40.7218 114.5,-33.785"/>
</g>
<!-- Node3 -->
<g id="node3" class="node"><title>Node3</title>
<g id="a_node3"><a xlink:href="classXBot_1_1RobotInterface.html" target="_top" xlink:title="XBot::RobotInterface">
<polygon fill="none" stroke="black" points="140,-0.5 140,-19.5 249,-19.5 249,-0.5 140,-0.5"/>
<text text-anchor="middle" x="194.5" y="-7.5" font-family="Helvetica,sans-Serif" font-size="10.00">XBot::RobotInterface</text>
</a>
</g>
</g>
<!-- Node1&#45;&gt;Node3 -->
<g id="edge2" class="edge"><title>Node1&#45;&gt;Node3</title>
<path fill="none" stroke="midnightblue" d="M114.067,-20.7418C122.638,-19.5827 131.396,-18.3985 139.816,-17.2597"/>
<polygon fill="midnightblue" stroke="midnightblue" points="113.562,-17.2782 104.121,-22.0868 114.5,-24.215 113.562,-17.2782"/>
</g>
</g>
</svg>
