<?xml version="1.0" encoding="UTF-8" standalone="no"?>
<!DOCTYPE svg PUBLIC "-//W3C//DTD SVG 1.1//EN"
 "http://www.w3.org/Graphics/SVG/1.1/DTD/svg11.dtd">
<!-- Generated by graphviz version 2.36.0 (20140111.2315)
 -->
<!-- Title: Graphical Class Hierarchy Pages: 1 -->
<svg width="572pt" height="136pt"
 viewBox="0.00 0.00 572.00 136.00" xmlns="http://www.w3.org/2000/svg" xmlns:xlink="http://www.w3.org/1999/xlink">
<g id="graph0" class="graph" transform="scale(1 1) rotate(0) translate(4 132)">
<title>Graphical Class Hierarchy</title>
<!-- Node1 -->
<g id="node1" class="node"><title>Node1</title>
<g id="a_node1"><a xlink:href="structfmt_1_1internal_1_1Value.html" target="_top" xlink:title="fmt::internal::Value">
<polygon fill="none" stroke="black" points="0.5,-54.5 0.5,-73.5 99.5,-73.5 99.5,-54.5 0.5,-54.5"/>
<text text-anchor="middle" x="50" y="-61.5" font-family="Helvetica,sans-Serif" font-size="10.00">fmt::internal::Value</text>
</a>
</g>
</g>
<!-- Node2 -->
<g id="node2" class="node"><title>Node2</title>
<g id="a_node2"><a xlink:href="structfmt_1_1internal_1_1Arg.html" target="_top" xlink:title="fmt::internal::Arg">
<polygon fill="none" stroke="black" points="136.5,-54.5 136.5,-73.5 225.5,-73.5 225.5,-54.5 136.5,-54.5"/>
<text text-anchor="middle" x="181" y="-61.5" font-family="Helvetica,sans-Serif" font-size="10.00">fmt::internal::Arg</text>
</a>
</g>
</g>
<!-- Node1&#45;&gt;Node2 -->
<g id="edge1" class="edge"><title>Node1&#45;&gt;Node2</title>
<path fill="none" stroke="midnightblue" d="M110.026,-64C118.852,-64 127.814,-64 136.248,-64"/>
<polygon fill="midnightblue" stroke="midnightblue" points="109.769,-60.5001 99.7694,-64 109.769,-67.5001 109.769,-60.5001"/>
</g>
<!-- Node3 -->
<g id="node3" class="node"><title>Node3</title>
<g id="a_node3"><a xlink:href="classfmt_1_1internal_1_1MakeArg.html" target="_top" xlink:title="fmt::internal::MakeArg\l\&lt; Formatter \&gt;">
<polygon fill="none" stroke="black" points="267.5,-98 267.5,-128 380.5,-128 380.5,-98 267.5,-98"/>
<text text-anchor="start" x="275.5" y="-116" font-family="Helvetica,sans-Serif" font-size="10.00">fmt::internal::MakeArg</text>
<text text-anchor="middle" x="324" y="-105" font-family="Helvetica,sans-Serif" font-size="10.00">&lt; Formatter &gt;</text>
</a>
</g>
</g>
<!-- Node2&#45;&gt;Node3 -->
<g id="edge2" class="edge"><title>Node2&#45;&gt;Node3</title>
<path fill="none" stroke="midnightblue" d="M219.116,-76.8986C237.716,-83.3622 260.346,-91.2265 279.73,-97.963"/>
<polygon fill="midnightblue" stroke="midnightblue" points="220.116,-73.5406 209.521,-73.564 217.818,-80.1527 220.116,-73.5406"/>
</g>
<!-- Node4 -->
<g id="node4" class="node"><title>Node4</title>
<g id="a_node4"><a xlink:href="classfmt_1_1internal_1_1MakeValue.html" target="_top" xlink:title="fmt::internal::MakeValue\l\&lt; Formatter \&gt;">
<polygon fill="none" stroke="black" points="262.5,-49 262.5,-79 385.5,-79 385.5,-49 262.5,-49"/>
<text text-anchor="start" x="270.5" y="-67" font-family="Helvetica,sans-Serif" font-size="10.00">fmt::internal::MakeValue</text>
<text text-anchor="middle" x="324" y="-56" font-family="Helvetica,sans-Serif" font-size="10.00">&lt; Formatter &gt;</text>
</a>
</g>
</g>
<!-- Node2&#45;&gt;Node4 -->
<g id="edge3" class="edge"><title>Node2&#45;&gt;Node4</title>
<path fill="none" stroke="midnightblue" d="M236.11,-64C244.698,-64 253.631,-64 262.358,-64"/>
<polygon fill="midnightblue" stroke="midnightblue" points="235.84,-60.5001 225.84,-64 235.84,-67.5001 235.84,-60.5001"/>
</g>
<!-- Node5 -->
<g id="node5" class="node"><title>Node5</title>
<g id="a_node5"><a xlink:href="structfmt_1_1internal_1_1NamedArg.html" target="_top" xlink:title="fmt::internal::NamedArg\l\&lt; Char \&gt;">
<polygon fill="none" stroke="black" points="263.5,-0 263.5,-30 384.5,-30 384.5,-0 263.5,-0"/>
<text text-anchor="start" x="271.5" y="-18" font-family="Helvetica,sans-Serif" font-size="10.00">fmt::internal::NamedArg</text>
<text text-anchor="middle" x="324" y="-7" font-family="Helvetica,sans-Serif" font-size="10.00">&lt; Char &gt;</text>
</a>
</g>
</g>
<!-- Node2&#45;&gt;Node5 -->
<g id="edge4" class="edge"><title>Node2&#45;&gt;Node5</title>
<path fill="none" stroke="midnightblue" d="M219.116,-51.1014C237.716,-44.6378 260.346,-36.7735 279.73,-30.037"/>
<polygon fill="midnightblue" stroke="midnightblue" points="217.818,-47.8473 209.521,-54.436 220.116,-54.4594 217.818,-47.8473"/>
</g>
<!-- Node6 -->
<g id="node6" class="node"><title>Node6</title>
<g id="a_node6"><a xlink:href="structfmt_1_1internal_1_1NamedArgWithType.html" target="_top" xlink:title="fmt::internal::NamedArgWith\lType\&lt; Char, T \&gt;">
<polygon fill="none" stroke="black" points="422.5,-0 422.5,-30 563.5,-30 563.5,-0 422.5,-0"/>
<text text-anchor="start" x="430.5" y="-18" font-family="Helvetica,sans-Serif" font-size="10.00">fmt::internal::NamedArgWith</text>
<text text-anchor="middle" x="493" y="-7" font-family="Helvetica,sans-Serif" font-size="10.00">Type&lt; Char, T &gt;</text>
</a>
</g>
</g>
<!-- Node5&#45;&gt;Node6 -->
<g id="edge5" class="edge"><title>Node5&#45;&gt;Node6</title>
<path fill="none" stroke="midnightblue" d="M394.94,-15C404.008,-15 413.295,-15 422.358,-15"/>
<polygon fill="midnightblue" stroke="midnightblue" points="394.819,-11.5001 384.819,-15 394.819,-18.5001 394.819,-11.5001"/>
</g>
</g>
</svg>
