<?xml version="1.0" encoding="UTF-8" standalone="no"?>
<!DOCTYPE svg PUBLIC "-//W3C//DTD SVG 1.1//EN"
 "http://www.w3.org/Graphics/SVG/1.1/DTD/svg11.dtd">
<!-- Generated by graphviz version 2.36.0 (20140111.2315)
 -->
<!-- Title: Graphical Class Hierarchy Pages: 1 -->
<svg width="284pt" height="66pt"
 viewBox="0.00 0.00 284.00 66.00" xmlns="http://www.w3.org/2000/svg" xmlns:xlink="http://www.w3.org/1999/xlink">
<g id="graph0" class="graph" transform="scale(1 1) rotate(0) translate(4 62)">
<title>Graphical Class Hierarchy</title>
<!-- Node1 -->
<g id="node1" class="node"><title>Node1</title>
<g id="a_node1"><a xlink:href="classXBot_1_1GenericSensor.html" target="_top" xlink:title="Generic sensor abstraction. ">
<polygon fill="none" stroke="black" points="0.5,-19.5 0.5,-38.5 109.5,-38.5 109.5,-19.5 0.5,-19.5"/>
<text text-anchor="middle" x="55" y="-26.5" font-family="Helvetica,sans-Serif" font-size="10.00">XBot::GenericSensor</text>
</a>
</g>
</g>
<!-- Node2 -->
<g id="node2" class="node"><title>Node2</title>
<g id="a_node2"><a xlink:href="classXBot_1_1ForceTorqueSensor.html" target="_top" xlink:title="Force &#45; Torque sensor abstraction: ">
<polygon fill="none" stroke="black" points="146,-38.5 146,-57.5 276,-57.5 276,-38.5 146,-38.5"/>
<text text-anchor="middle" x="211" y="-45.5" font-family="Helvetica,sans-Serif" font-size="10.00">XBot::ForceTorqueSensor</text>
</a>
</g>
</g>
<!-- Node1&#45;&gt;Node2 -->
<g id="edge1" class="edge"><title>Node1&#45;&gt;Node2</title>
<path fill="none" stroke="midnightblue" d="M119.826,-36.8746C128.425,-37.9355 137.25,-39.0243 145.854,-40.0859"/>
<polygon fill="midnightblue" stroke="midnightblue" points="120.215,-33.3962 109.862,-35.6453 119.358,-40.3435 120.215,-33.3962"/>
</g>
<!-- Node3 -->
<g id="node3" class="node"><title>Node3</title>
<g id="a_node3"><a xlink:href="classXBot_1_1ImuSensor.html" target="_top" xlink:title="XBot::ImuSensor">
<polygon fill="none" stroke="black" points="165,-0.5 165,-19.5 257,-19.5 257,-0.5 165,-0.5"/>
<text text-anchor="middle" x="211" y="-7.5" font-family="Helvetica,sans-Serif" font-size="10.00">XBot::ImuSensor</text>
</a>
</g>
</g>
<!-- Node1&#45;&gt;Node3 -->
<g id="edge2" class="edge"><title>Node1&#45;&gt;Node3</title>
<path fill="none" stroke="midnightblue" d="M120.127,-21.0882C135.152,-19.2345 150.851,-17.2977 164.845,-15.571"/>
<polygon fill="midnightblue" stroke="midnightblue" points="119.358,-17.6565 109.862,-22.3547 120.215,-24.6038 119.358,-17.6565"/>
</g>
</g>
</svg>
