<?xml version="1.0" encoding="UTF-8" standalone="no"?>
<!DOCTYPE svg PUBLIC "-//W3C//DTD SVG 1.1//EN"
 "http://www.w3.org/Graphics/SVG/1.1/DTD/svg11.dtd">
<!-- Generated by graphviz version 2.38.0 (20140413.2041)
 -->
<!-- Title: Graphical Class Hierarchy Pages: 1 -->
<svg width="349pt" height="127pt"
 viewBox="0.00 0.00 349.00 127.00" xmlns="http://www.w3.org/2000/svg" xmlns:xlink="http://www.w3.org/1999/xlink">
<g id="graph0" class="graph" transform="scale(1 1) rotate(0) translate(4 123)">
<title>Graphical Class Hierarchy</title>
<!-- Node1 -->
<g id="node1" class="node"><title>Node1</title>
<g id="a_node1"><a xlink:href="structfmt_1_1WidthSpec.html" target="_top" xlink:title="fmt::WidthSpec">
<polygon fill="none" stroke="black" points="0,-50 0,-69 85,-69 85,-50 0,-50"/>
<text text-anchor="middle" x="42.5" y="-57" font-family="Helvetica,sans-Serif" font-size="10.00">fmt::WidthSpec</text>
</a>
</g>
</g>
<!-- Node2 -->
<g id="node2" class="node"><title>Node2</title>
<g id="a_node2"><a xlink:href="structfmt_1_1AlignSpec.html" target="_top" xlink:title="fmt::AlignSpec">
<polygon fill="none" stroke="black" points="121,-50 121,-69 202,-69 202,-50 121,-50"/>
<text text-anchor="middle" x="161.5" y="-57" font-family="Helvetica,sans-Serif" font-size="10.00">fmt::AlignSpec</text>
</a>
</g>
</g>
<!-- Node1&#45;&gt;Node2 -->
<g id="edge1" class="edge"><title>Node1&#45;&gt;Node2</title>
<path fill="none" stroke="midnightblue" d="M95.2967,-59.5C103.791,-59.5 112.476,-59.5 120.624,-59.5"/>
<polygon fill="midnightblue" stroke="midnightblue" points="95.0793,-56.0001 85.0793,-59.5 95.0792,-63.0001 95.0793,-56.0001"/>
</g>
<!-- Node3 -->
<g id="node3" class="node"><title>Node3</title>
<g id="a_node3"><a xlink:href="structfmt_1_1AlignTypeSpec.html" target="_top" xlink:title="fmt::AlignTypeSpec\l\&lt; TYPE \&gt;">
<polygon fill="none" stroke="black" points="238,-88.5 238,-118.5 341,-118.5 341,-88.5 238,-88.5"/>
<text text-anchor="start" x="246" y="-106.5" font-family="Helvetica,sans-Serif" font-size="10.00">fmt::AlignTypeSpec</text>
<text text-anchor="middle" x="289.5" y="-95.5" font-family="Helvetica,sans-Serif" font-size="10.00">&lt; TYPE &gt;</text>
</a>
</g>
</g>
<!-- Node2&#45;&gt;Node3 -->
<g id="edge2" class="edge"><title>Node2&#45;&gt;Node3</title>
<path fill="none" stroke="midnightblue" d="M199.408,-72.3884C213.806,-77.4163 230.413,-83.2155 245.358,-88.4346"/>
<polygon fill="midnightblue" stroke="midnightblue" points="200.435,-69.0399 189.84,-69.0473 198.127,-75.6486 200.435,-69.0399"/>
</g>
<!-- Node4 -->
<g id="node4" class="node"><title>Node4</title>
<g id="a_node4"><a xlink:href="structfmt_1_1FormatSpec.html" target="_top" xlink:title="fmt::FormatSpec">
<polygon fill="none" stroke="black" points="244.5,-50 244.5,-69 334.5,-69 334.5,-50 244.5,-50"/>
<text text-anchor="middle" x="289.5" y="-57" font-family="Helvetica,sans-Serif" font-size="10.00">fmt::FormatSpec</text>
</a>
</g>
</g>
<!-- Node2&#45;&gt;Node4 -->
<g id="edge3" class="edge"><title>Node2&#45;&gt;Node4</title>
<path fill="none" stroke="midnightblue" d="M212.024,-59.5C222.674,-59.5 233.863,-59.5 244.294,-59.5"/>
<polygon fill="midnightblue" stroke="midnightblue" points="212.022,-56.0001 202.021,-59.5 212.021,-63.0001 212.022,-56.0001"/>
</g>
<!-- Node5 -->
<g id="node5" class="node"><title>Node5</title>
<g id="a_node5"><a xlink:href="classfmt_1_1StrFormatSpec.html" target="_top" xlink:title="fmt::StrFormatSpec\l\&lt; Char \&gt;">
<polygon fill="none" stroke="black" points="238,-0.5 238,-30.5 341,-30.5 341,-0.5 238,-0.5"/>
<text text-anchor="start" x="246" y="-18.5" font-family="Helvetica,sans-Serif" font-size="10.00">fmt::StrFormatSpec</text>
<text text-anchor="middle" x="289.5" y="-7.5" font-family="Helvetica,sans-Serif" font-size="10.00">&lt; Char &gt;</text>
</a>
</g>
</g>
<!-- Node2&#45;&gt;Node5 -->
<g id="edge4" class="edge"><title>Node2&#45;&gt;Node5</title>
<path fill="none" stroke="midnightblue" d="M199.408,-46.6116C213.806,-41.5837 230.413,-35.7845 245.358,-30.5654"/>
<polygon fill="midnightblue" stroke="midnightblue" points="198.127,-43.3514 189.84,-49.9527 200.435,-49.9601 198.127,-43.3514"/>
</g>
</g>
</svg>
