<?xml version="1.0" encoding="UTF-8" standalone="no"?>
<!DOCTYPE svg PUBLIC "-//W3C//DTD SVG 1.1//EN"
 "http://www.w3.org/Graphics/SVG/1.1/DTD/svg11.dtd">
<!-- Generated by graphviz version 2.38.0 (20140413.2041)
 -->
<!-- Title: Graphical Class Hierarchy Pages: 1 -->
<svg width="294pt" height="88pt"
 viewBox="0.00 0.00 294.00 88.00" xmlns="http://www.w3.org/2000/svg" xmlns:xlink="http://www.w3.org/1999/xlink">
<g id="graph0" class="graph" transform="scale(1 1) rotate(0) translate(4 84)">
<title>Graphical Class Hierarchy</title>
<!-- Node1 -->
<g id="node1" class="node"><title>Node1</title>
<g id="a_node1"><a xlink:href="classfmt_1_1BasicWriter.html" target="_top" xlink:title="This template provides operations for formatting and writing data into a character stream...">
<polygon fill="none" stroke="black" points="0,-30 0,-49 127,-49 127,-30 0,-30"/>
<text text-anchor="middle" x="63.5" y="-37" font-family="Helvetica,sans-Serif" font-size="10.00">fmt::BasicWriter&lt; Char &gt;</text>
</a>
</g>
</g>
<!-- Node2 -->
<g id="node2" class="node"><title>Node2</title>
<g id="a_node2"><a xlink:href="classfmt_1_1BasicArrayWriter.html" target="_top" xlink:title="This class template provides operations for formatting and writing data into a fixed&#45;size array...">
<polygon fill="none" stroke="black" points="169,-49.5 169,-79.5 280,-79.5 280,-49.5 169,-49.5"/>
<text text-anchor="start" x="177" y="-67.5" font-family="Helvetica,sans-Serif" font-size="10.00">fmt::BasicArrayWriter</text>
<text text-anchor="middle" x="224.5" y="-56.5" font-family="Helvetica,sans-Serif" font-size="10.00">&lt; Char &gt;</text>
</a>
</g>
</g>
<!-- Node1&#45;&gt;Node2 -->
<g id="edge1" class="edge"><title>Node1&#45;&gt;Node2</title>
<path fill="none" stroke="midnightblue" d="M134.959,-50.5784C146.318,-52.3644 157.926,-54.1897 168.84,-55.9057"/>
<polygon fill="midnightblue" stroke="midnightblue" points="135.487,-47.1186 125.065,-49.0227 134.4,-54.0336 135.487,-47.1186"/>
</g>
<!-- Node3 -->
<g id="node3" class="node"><title>Node3</title>
<g id="a_node3"><a xlink:href="classfmt_1_1BasicMemoryWriter.html" target="_top" xlink:title="This class template provides operations for formatting and writing data into a character stream...">
<polygon fill="none" stroke="black" points="163,-0.5 163,-30.5 286,-30.5 286,-0.5 163,-0.5"/>
<text text-anchor="start" x="171" y="-18.5" font-family="Helvetica,sans-Serif" font-size="10.00">fmt::BasicMemoryWriter</text>
<text text-anchor="middle" x="224.5" y="-7.5" font-family="Helvetica,sans-Serif" font-size="10.00">&lt; Char, Allocator &gt;</text>
</a>
</g>
</g>
<!-- Node1&#45;&gt;Node3 -->
<g id="edge2" class="edge"><title>Node1&#45;&gt;Node3</title>
<path fill="none" stroke="midnightblue" d="M137.324,-28.5076C145.89,-27.2147 154.56,-25.9061 162.932,-24.6424"/>
<polygon fill="midnightblue" stroke="midnightblue" points="136.707,-25.0612 127.341,-30.0146 137.751,-31.9828 136.707,-25.0612"/>
</g>
</g>
</svg>
