<?xml version="1.0" encoding="UTF-8" standalone="no"?>
<!DOCTYPE svg PUBLIC "-//W3C//DTD SVG 1.1//EN"
 "http://www.w3.org/Graphics/SVG/1.1/DTD/svg11.dtd">
<!-- Generated by graphviz version 2.38.0 (20140413.2041)
 -->
<!-- Title: Graphical Class Hierarchy Pages: 1 -->
<svg width="253pt" height="66pt"
 viewBox="0.00 0.00 253.00 66.00" xmlns="http://www.w3.org/2000/svg" xmlns:xlink="http://www.w3.org/1999/xlink">
<g id="graph0" class="graph" transform="scale(1 1) rotate(0) translate(4 62)">
<title>Graphical Class Hierarchy</title>
<!-- Node1 -->
<g id="node1" class="node"><title>Node1</title>
<g id="a_node1"><a xlink:href="classXBot_1_1KinematicChain.html" target="_top" xlink:title="Kinematic chain abstraction as a set of joints and sensors. ">
<polygon fill="none" stroke="black" points="0,-19.5 0,-38.5 113,-38.5 113,-19.5 0,-19.5"/>
<text text-anchor="middle" x="56.5" y="-26.5" font-family="Helvetica,sans-Serif" font-size="10.00">XBot::KinematicChain</text>
</a>
</g>
</g>
<!-- Node2 -->
<g id="node2" class="node"><title>Node2</title>
<g id="a_node2"><a xlink:href="classXBot_1_1ModelChain.html" target="_top" xlink:title="Kinematic chain useful for a model abstraction. ">
<polygon fill="none" stroke="black" points="149,-38.5 149,-57.5 245,-57.5 245,-38.5 149,-38.5"/>
<text text-anchor="middle" x="197" y="-45.5" font-family="Helvetica,sans-Serif" font-size="10.00">XBot::ModelChain</text>
</a>
</g>
</g>
<!-- Node1&#45;&gt;Node2 -->
<g id="edge1" class="edge"><title>Node1&#45;&gt;Node2</title>
<path fill="none" stroke="midnightblue" d="M123.168,-38.0087C131.858,-39.2007 140.623,-40.4031 148.914,-41.5405"/>
<polygon fill="midnightblue" stroke="midnightblue" points="123.418,-34.5102 113.035,-36.6185 122.467,-41.4453 123.418,-34.5102"/>
</g>
<!-- Node3 -->
<g id="node3" class="node"><title>Node3</title>
<g id="a_node3"><a xlink:href="classXBot_1_1RobotChain.html" target="_top" xlink:title="Kinematic chain useful for a robot abstraction. ">
<polygon fill="none" stroke="black" points="149,-0.5 149,-19.5 245,-19.5 245,-0.5 149,-0.5"/>
<text text-anchor="middle" x="197" y="-7.5" font-family="Helvetica,sans-Serif" font-size="10.00">XBot::RobotChain</text>
</a>
</g>
</g>
<!-- Node1&#45;&gt;Node3 -->
<g id="edge2" class="edge"><title>Node1&#45;&gt;Node3</title>
<path fill="none" stroke="midnightblue" d="M123.168,-19.9913C131.858,-18.7993 140.623,-17.5969 148.914,-16.4595"/>
<polygon fill="midnightblue" stroke="midnightblue" points="122.467,-16.5547 113.035,-21.3815 123.418,-23.4898 122.467,-16.5547"/>
</g>
</g>
</svg>
