<?xml version="1.0" encoding="UTF-8" standalone="no"?>
<!DOCTYPE svg PUBLIC "-//W3C//DTD SVG 1.1//EN"
 "http://www.w3.org/Graphics/SVG/1.1/DTD/svg11.dtd">
<!-- Generated by graphviz version 2.38.0 (20140413.2041)
 -->
<!-- Title: Graphical Class Hierarchy Pages: 1 -->
<svg width="323pt" height="197pt"
 viewBox="0.00 0.00 323.00 196.50" xmlns="http://www.w3.org/2000/svg" xmlns:xlink="http://www.w3.org/1999/xlink">
<g id="graph0" class="graph" transform="scale(1 1) rotate(0) translate(4 192.5)">
<title>Graphical Class Hierarchy</title>
<!-- Node1 -->
<g id="node1" class="node"><title>Node1</title>
<g id="a_node1"><a xlink:href="classfmt_1_1internal_1_1FormatterBase.html" target="_top" xlink:title="fmt::internal::FormatterBase">
<polygon fill="none" stroke="black" points="0,-79 0,-98 139,-98 139,-79 0,-79"/>
<text text-anchor="middle" x="69.5" y="-86" font-family="Helvetica,sans-Serif" font-size="10.00">fmt::internal::FormatterBase</text>
</a>
</g>
</g>
<!-- Node2 -->
<g id="node2" class="node"><title>Node2</title>
<g id="a_node2"><a xlink:href="classfmt_1_1BasicFormatter.html" target="_top" xlink:title="fmt::BasicFormatter\l\&lt; Char, ArgFormatter\l\&lt; Char \&gt; \&gt;">
<polygon fill="none" stroke="black" points="190,-147 190,-188 300,-188 300,-147 190,-147"/>
<text text-anchor="start" x="198" y="-176" font-family="Helvetica,sans-Serif" font-size="10.00">fmt::BasicFormatter</text>
<text text-anchor="start" x="198" y="-165" font-family="Helvetica,sans-Serif" font-size="10.00">&lt; Char, ArgFormatter</text>
<text text-anchor="middle" x="245" y="-154" font-family="Helvetica,sans-Serif" font-size="10.00">&lt; Char &gt; &gt;</text>
</a>
</g>
</g>
<!-- Node1&#45;&gt;Node2 -->
<g id="edge1" class="edge"><title>Node1&#45;&gt;Node2</title>
<path fill="none" stroke="#8b1a1a" d="M99.0001,-102.595C119.912,-112.825 149.066,-126.854 175,-138.5 181.164,-141.268 187.671,-144.108 194.127,-146.877"/>
<polygon fill="#8b1a1a" stroke="#8b1a1a" points="100.532,-99.4485 90.0132,-98.1846 97.4482,-105.732 100.532,-99.4485"/>
</g>
<!-- Node3 -->
<g id="node3" class="node"><title>Node3</title>
<g id="a_node3"><a xlink:href="classfmt_1_1BasicFormatter.html" target="_top" xlink:title="fmt::BasicFormatter\l\&lt; Char, Impl \&gt;">
<polygon fill="none" stroke="black" points="193,-98.5 193,-128.5 297,-128.5 297,-98.5 193,-98.5"/>
<text text-anchor="start" x="201" y="-116.5" font-family="Helvetica,sans-Serif" font-size="10.00">fmt::BasicFormatter</text>
<text text-anchor="middle" x="245" y="-105.5" font-family="Helvetica,sans-Serif" font-size="10.00">&lt; Char, Impl &gt;</text>
</a>
</g>
</g>
<!-- Node1&#45;&gt;Node3 -->
<g id="edge2" class="edge"><title>Node1&#45;&gt;Node3</title>
<path fill="none" stroke="#8b1a1a" d="M146.764,-99.489C162.383,-101.74 178.462,-104.057 192.937,-106.142"/>
<polygon fill="#8b1a1a" stroke="#8b1a1a" points="146.985,-95.9848 136.588,-98.0227 145.986,-102.913 146.985,-95.9848"/>
</g>
<!-- Node4 -->
<g id="node4" class="node"><title>Node4</title>
<g id="a_node4"><a xlink:href="classfmt_1_1BasicFormatter.html" target="_top" xlink:title="This template formats data and writes the output to a writer. ">
<polygon fill="none" stroke="black" points="175,-49.5 175,-79.5 315,-79.5 315,-49.5 175,-49.5"/>
<text text-anchor="start" x="183" y="-67.5" font-family="Helvetica,sans-Serif" font-size="10.00">fmt::BasicFormatter</text>
<text text-anchor="middle" x="245" y="-56.5" font-family="Helvetica,sans-Serif" font-size="10.00">&lt; CharType, ArgFormatter &gt;</text>
</a>
</g>
</g>
<!-- Node1&#45;&gt;Node4 -->
<g id="edge3" class="edge"><title>Node1&#45;&gt;Node4</title>
<path fill="none" stroke="#8b1a1a" d="M149.072,-77.6313C157.65,-76.4447 166.336,-75.2432 174.789,-74.0738"/>
<polygon fill="#8b1a1a" stroke="#8b1a1a" points="148.498,-74.1773 139.072,-79.0146 149.457,-81.1112 148.498,-74.1773"/>
</g>
<!-- Node5 -->
<g id="node5" class="node"><title>Node5</title>
<g id="a_node5"><a xlink:href="classfmt_1_1PrintfFormatter.html" target="_top" xlink:title="This template formats data and writes the output to a writer. ">
<polygon fill="none" stroke="black" points="185.5,-0.5 185.5,-30.5 304.5,-30.5 304.5,-0.5 185.5,-0.5"/>
<text text-anchor="start" x="193.5" y="-18.5" font-family="Helvetica,sans-Serif" font-size="10.00">fmt::PrintfFormatter</text>
<text text-anchor="middle" x="245" y="-7.5" font-family="Helvetica,sans-Serif" font-size="10.00">&lt; Char, ArgFormatter &gt;</text>
</a>
</g>
</g>
<!-- Node1&#45;&gt;Node5 -->
<g id="edge4" class="edge"><title>Node1&#45;&gt;Node5</title>
<path fill="none" stroke="#8b1a1a" d="M99.1759,-74.5482C120.016,-64.6011 149.007,-51.1573 175,-40.5 183.252,-37.1166 192.15,-33.7143 200.724,-30.5564"/>
<polygon fill="#8b1a1a" stroke="#8b1a1a" points="97.4323,-71.5027 89.9323,-78.9861 100.462,-77.8131 97.4323,-71.5027"/>
</g>
</g>
</svg>
