<?xml version="1.0" encoding="UTF-8" standalone="no"?>
<!DOCTYPE svg PUBLIC "-//W3C//DTD SVG 1.1//EN"
 "http://www.w3.org/Graphics/SVG/1.1/DTD/svg11.dtd">
<!-- Generated by graphviz version 2.36.0 (20140111.2315)
 -->
<!-- Title: Graphical Class Hierarchy Pages: 1 -->
<svg width="324pt" height="196pt"
 viewBox="0.00 0.00 324.00 196.00" xmlns="http://www.w3.org/2000/svg" xmlns:xlink="http://www.w3.org/1999/xlink">
<g id="graph0" class="graph" transform="scale(1 1) rotate(0) translate(4 192)">
<title>Graphical Class Hierarchy</title>
<!-- Node1 -->
<g id="node1" class="node"><title>Node1</title>
<g id="a_node1"><a xlink:href="classfmt_1_1internal_1_1FormatterBase.html" target="_top" xlink:title="fmt::internal::FormatterBase">
<polygon fill="none" stroke="black" points="0.5,-78.5 0.5,-97.5 139.5,-97.5 139.5,-78.5 0.5,-78.5"/>
<text text-anchor="middle" x="70" y="-85.5" font-family="Helvetica,sans-Serif" font-size="10.00">fmt::internal::FormatterBase</text>
</a>
</g>
</g>
<!-- Node2 -->
<g id="node2" class="node"><title>Node2</title>
<g id="a_node2"><a xlink:href="classfmt_1_1BasicFormatter.html" target="_top" xlink:title="fmt::BasicFormatter\l\&lt; Char, ArgFormatter\l\&lt; Char \&gt; \&gt;">
<polygon fill="none" stroke="black" points="191,-146.5 191,-187.5 301,-187.5 301,-146.5 191,-146.5"/>
<text text-anchor="start" x="199" y="-175.5" font-family="Helvetica,sans-Serif" font-size="10.00">fmt::BasicFormatter</text>
<text text-anchor="start" x="199" y="-164.5" font-family="Helvetica,sans-Serif" font-size="10.00">&lt; Char, ArgFormatter</text>
<text text-anchor="middle" x="246" y="-153.5" font-family="Helvetica,sans-Serif" font-size="10.00">&lt; Char &gt; &gt;</text>
</a>
</g>
</g>
<!-- Node1&#45;&gt;Node2 -->
<g id="edge1" class="edge"><title>Node1&#45;&gt;Node2</title>
<path fill="none" stroke="#8b1a1a" d="M100.105,-101.835C121.128,-111.766 150.235,-125.389 176,-137 182.788,-140.059 189.974,-143.243 197.044,-146.345"/>
<polygon fill="#8b1a1a" stroke="#8b1a1a" points="101.592,-98.6666 91.0564,-97.5524 98.598,-104.994 101.592,-98.6666"/>
</g>
<!-- Node3 -->
<g id="node3" class="node"><title>Node3</title>
<g id="a_node3"><a xlink:href="classfmt_1_1BasicFormatter.html" target="_top" xlink:title="fmt::BasicFormatter\l\&lt; Char, Impl \&gt;">
<polygon fill="none" stroke="black" points="194,-98 194,-128 298,-128 298,-98 194,-98"/>
<text text-anchor="start" x="202" y="-116" font-family="Helvetica,sans-Serif" font-size="10.00">fmt::BasicFormatter</text>
<text text-anchor="middle" x="246" y="-105" font-family="Helvetica,sans-Serif" font-size="10.00">&lt; Char, Impl &gt;</text>
</a>
</g>
</g>
<!-- Node1&#45;&gt;Node3 -->
<g id="edge2" class="edge"><title>Node1&#45;&gt;Node3</title>
<path fill="none" stroke="#8b1a1a" d="M147.484,-98.989C163.148,-101.24 179.274,-103.557 193.789,-105.642"/>
<polygon fill="#8b1a1a" stroke="#8b1a1a" points="147.674,-95.4806 137.278,-97.5227 146.679,-102.409 147.674,-95.4806"/>
</g>
<!-- Node4 -->
<g id="node4" class="node"><title>Node4</title>
<g id="a_node4"><a xlink:href="classfmt_1_1BasicFormatter.html" target="_top" xlink:title="This template formats data and writes the output to a writer. ">
<polygon fill="none" stroke="black" points="176,-49 176,-79 316,-79 316,-49 176,-49"/>
<text text-anchor="start" x="184" y="-67" font-family="Helvetica,sans-Serif" font-size="10.00">fmt::BasicFormatter</text>
<text text-anchor="middle" x="246" y="-56" font-family="Helvetica,sans-Serif" font-size="10.00">&lt; CharType, ArgFormatter &gt;</text>
</a>
</g>
</g>
<!-- Node1&#45;&gt;Node4 -->
<g id="edge3" class="edge"><title>Node1&#45;&gt;Node4</title>
<path fill="none" stroke="#8b1a1a" d="M149.88,-77.12C158.553,-75.9238 167.334,-74.7125 175.875,-73.5345"/>
<polygon fill="#8b1a1a" stroke="#8b1a1a" points="149.197,-73.6809 139.769,-78.5146 150.154,-80.6153 149.197,-73.6809"/>
</g>
<!-- Node5 -->
<g id="node5" class="node"><title>Node5</title>
<g id="a_node5"><a xlink:href="classfmt_1_1PrintfFormatter.html" target="_top" xlink:title="This template formats data and writes the output to a writer. ">
<polygon fill="none" stroke="black" points="186.5,-0 186.5,-30 305.5,-30 305.5,-0 186.5,-0"/>
<text text-anchor="start" x="194.5" y="-18" font-family="Helvetica,sans-Serif" font-size="10.00">fmt::PrintfFormatter</text>
<text text-anchor="middle" x="246" y="-7" font-family="Helvetica,sans-Serif" font-size="10.00">&lt; Char, ArgFormatter &gt;</text>
</a>
</g>
</g>
<!-- Node1&#45;&gt;Node5 -->
<g id="edge4" class="edge"><title>Node1&#45;&gt;Node5</title>
<path fill="none" stroke="#8b1a1a" d="M99.8204,-74.0594C120.763,-64.1178 149.894,-50.6758 176,-40 184.255,-36.6241 193.155,-33.2252 201.729,-30.0682"/>
<polygon fill="#8b1a1a" stroke="#8b1a1a" points="98.0471,-71.0276 90.5308,-78.4946 101.063,-77.3446 98.0471,-71.0276"/>
</g>
</g>
</svg>
