<?xml version="1.0" encoding="UTF-8" standalone="no"?>
<!DOCTYPE svg PUBLIC "-//W3C//DTD SVG 1.1//EN"
 "http://www.w3.org/Graphics/SVG/1.1/DTD/svg11.dtd">
<!-- Generated by graphviz version 2.36.0 (20140111.2315)
 -->
<!-- Title: Graphical Class Hierarchy Pages: 1 -->
<svg width="640pt" height="48pt"
 viewBox="0.00 0.00 640.00 48.00" xmlns="http://www.w3.org/2000/svg" xmlns:xlink="http://www.w3.org/1999/xlink">
<g id="graph0" class="graph" transform="scale(1 1) rotate(0) translate(4 44)">
<title>Graphical Class Hierarchy</title>
<!-- Node1 -->
<g id="node1" class="node"><title>Node1</title>
<g id="a_node1"><a xlink:href="classfmt_1_1ArgVisitor.html" target="_top" xlink:title="fmt::ArgVisitor\&lt; PrintfArg\lFormatter\&lt; Char \&gt;, void \&gt;">
<polygon fill="none" stroke="black" points="0.5,-5 0.5,-35 131.5,-35 131.5,-5 0.5,-5"/>
<text text-anchor="start" x="8.5" y="-23" font-family="Helvetica,sans-Serif" font-size="10.00">fmt::ArgVisitor&lt; PrintfArg</text>
<text text-anchor="middle" x="66" y="-12" font-family="Helvetica,sans-Serif" font-size="10.00">Formatter&lt; Char &gt;, void &gt;</text>
</a>
</g>
</g>
<!-- Node2 -->
<g id="node2" class="node"><title>Node2</title>
<g id="a_node2"><a xlink:href="classfmt_1_1internal_1_1ArgFormatterBase.html" target="_top" xlink:title="fmt::internal::ArgFormatter\lBase\&lt; PrintfArgFormatter\l\&lt; Char \&gt;, Char \&gt;">
<polygon fill="none" stroke="black" points="168.5,0.5 168.5,-40.5 299.5,-40.5 299.5,0.5 168.5,0.5"/>
<text text-anchor="start" x="176.5" y="-28.5" font-family="Helvetica,sans-Serif" font-size="10.00">fmt::internal::ArgFormatter</text>
<text text-anchor="start" x="176.5" y="-17.5" font-family="Helvetica,sans-Serif" font-size="10.00">Base&lt; PrintfArgFormatter</text>
<text text-anchor="middle" x="234" y="-6.5" font-family="Helvetica,sans-Serif" font-size="10.00">&lt; Char &gt;, Char &gt;</text>
</a>
</g>
</g>
<!-- Node1&#45;&gt;Node2 -->
<g id="edge1" class="edge"><title>Node1&#45;&gt;Node2</title>
<path fill="none" stroke="midnightblue" d="M141.898,-20C150.693,-20 159.609,-20 168.248,-20"/>
<polygon fill="midnightblue" stroke="midnightblue" points="141.655,-16.5001 131.655,-20 141.655,-23.5001 141.655,-16.5001"/>
</g>
<!-- Node3 -->
<g id="node3" class="node"><title>Node3</title>
<g id="a_node3"><a xlink:href="classfmt_1_1BasicPrintfArgFormatter.html" target="_top" xlink:title="fmt::BasicPrintfArgFormatter\l\&lt; PrintfArgFormatter\&lt; Char\l \&gt;, Char \&gt;">
<polygon fill="none" stroke="black" points="336,0.5 336,-40.5 478,-40.5 478,0.5 336,0.5"/>
<text text-anchor="start" x="344" y="-28.5" font-family="Helvetica,sans-Serif" font-size="10.00">fmt::BasicPrintfArgFormatter</text>
<text text-anchor="start" x="344" y="-17.5" font-family="Helvetica,sans-Serif" font-size="10.00">&lt; PrintfArgFormatter&lt; Char</text>
<text text-anchor="middle" x="407" y="-6.5" font-family="Helvetica,sans-Serif" font-size="10.00"> &gt;, Char &gt;</text>
</a>
</g>
</g>
<!-- Node2&#45;&gt;Node3 -->
<g id="edge2" class="edge"><title>Node2&#45;&gt;Node3</title>
<path fill="none" stroke="midnightblue" d="M309.735,-20C318.406,-20 327.227,-20 335.833,-20"/>
<polygon fill="midnightblue" stroke="midnightblue" points="309.648,-16.5001 299.648,-20 309.648,-23.5001 309.648,-16.5001"/>
</g>
<!-- Node4 -->
<g id="node4" class="node"><title>Node4</title>
<g id="a_node4"><a xlink:href="classfmt_1_1PrintfArgFormatter.html" target="_top" xlink:title="The default printf argument formatter. ">
<polygon fill="none" stroke="black" points="514.5,-5 514.5,-35 631.5,-35 631.5,-5 514.5,-5"/>
<text text-anchor="start" x="522.5" y="-23" font-family="Helvetica,sans-Serif" font-size="10.00">fmt::PrintfArgFormatter</text>
<text text-anchor="middle" x="573" y="-12" font-family="Helvetica,sans-Serif" font-size="10.00">&lt; Char &gt;</text>
</a>
</g>
</g>
<!-- Node3&#45;&gt;Node4 -->
<g id="edge3" class="edge"><title>Node3&#45;&gt;Node4</title>
<path fill="none" stroke="midnightblue" d="M488.297,-20C497.077,-20 505.883,-20 514.312,-20"/>
<polygon fill="midnightblue" stroke="midnightblue" points="488.026,-16.5001 478.026,-20 488.026,-23.5001 488.026,-16.5001"/>
</g>
</g>
</svg>
