<?xml version="1.0" encoding="UTF-8" standalone="no"?>
<!DOCTYPE svg PUBLIC "-//W3C//DTD SVG 1.1//EN"
 "http://www.w3.org/Graphics/SVG/1.1/DTD/svg11.dtd">
<!-- Generated by graphviz version 2.38.0 (20140413.2041)
 -->
<!-- Title: Graphical Class Hierarchy Pages: 1 -->
<svg width="616pt" height="466pt"
 viewBox="0.00 0.00 616.00 465.50" xmlns="http://www.w3.org/2000/svg" xmlns:xlink="http://www.w3.org/1999/xlink">
<g id="graph0" class="graph" transform="scale(1 1) rotate(0) translate(4 461.5)">
<title>Graphical Class Hierarchy</title>
<!-- Node1 -->
<g id="node1" class="node"><title>Node1</title>
<g id="a_node1"><a xlink:href="classspdlog_1_1sinks_1_1sink.html" target="_top" xlink:title="spdlog::sinks::sink">
<polygon fill="none" stroke="black" points="0,-248 0,-267 98,-267 98,-248 0,-248"/>
<text text-anchor="middle" x="49" y="-255" font-family="Helvetica,sans-Serif" font-size="10.00">spdlog::sinks::sink</text>
</a>
</g>
</g>
<!-- Node2 -->
<g id="node2" class="node"><title>Node2</title>
<g id="a_node2"><a xlink:href="classspdlog_1_1sinks_1_1ansicolor__sink.html" target="_top" xlink:title="The ansi_color_sink is a decorator around another sink and prefixes the output with an ANSI escape se...">
<polygon fill="none" stroke="black" points="134,-270 134,-289 277,-289 277,-270 134,-270"/>
<text text-anchor="middle" x="205.5" y="-277" font-family="Helvetica,sans-Serif" font-size="10.00">spdlog::sinks::ansicolor_sink</text>
</a>
</g>
</g>
<!-- Node1&#45;&gt;Node2 -->
<g id="edge1" class="edge"><title>Node1&#45;&gt;Node2</title>
<path fill="none" stroke="midnightblue" d="M107.98,-265.756C117.699,-267.14 127.852,-268.586 137.769,-269.998"/>
<polygon fill="midnightblue" stroke="midnightblue" points="108.431,-262.285 98.0379,-264.34 107.445,-269.215 108.431,-262.285"/>
</g>
<!-- Node3 -->
<g id="node3" class="node"><title>Node3</title>
<g id="a_node3"><a xlink:href="classspdlog_1_1sinks_1_1base__sink.html" target="_top" xlink:title="spdlog::sinks::base\l_sink\&lt; Mutex \&gt;">
<polygon fill="none" stroke="black" points="155,-220.5 155,-250.5 256,-250.5 256,-220.5 155,-220.5"/>
<text text-anchor="start" x="163" y="-238.5" font-family="Helvetica,sans-Serif" font-size="10.00">spdlog::sinks::base</text>
<text text-anchor="middle" x="205.5" y="-227.5" font-family="Helvetica,sans-Serif" font-size="10.00">_sink&lt; Mutex &gt;</text>
</a>
</g>
</g>
<!-- Node1&#45;&gt;Node3 -->
<g id="edge2" class="edge"><title>Node1&#45;&gt;Node3</title>
<path fill="none" stroke="midnightblue" d="M107.993,-249.242C123.425,-247.045 139.953,-244.691 154.891,-242.564"/>
<polygon fill="midnightblue" stroke="midnightblue" points="107.445,-245.785 98.0379,-250.66 108.431,-252.715 107.445,-245.785"/>
</g>
<!-- Node4 -->
<g id="node4" class="node"><title>Node4</title>
<g id="a_node4"><a xlink:href="classspdlog_1_1sinks_1_1daily__file__sink.html" target="_top" xlink:title="spdlog::sinks::daily\l_file_sink\&lt; Mutex, FileName\lCalc \&gt;">
<polygon fill="none" stroke="black" points="313,-416 313,-457 455,-457 455,-416 313,-416"/>
<text text-anchor="start" x="321" y="-445" font-family="Helvetica,sans-Serif" font-size="10.00">spdlog::sinks::daily</text>
<text text-anchor="start" x="321" y="-434" font-family="Helvetica,sans-Serif" font-size="10.00">_file_sink&lt; Mutex, FileName</text>
<text text-anchor="middle" x="384" y="-423" font-family="Helvetica,sans-Serif" font-size="10.00">Calc &gt;</text>
</a>
</g>
</g>
<!-- Node3&#45;&gt;Node4 -->
<g id="edge3" class="edge"><title>Node3&#45;&gt;Node4</title>
<path fill="none" stroke="midnightblue" d="M265.065,-250.711C269.48,-253.451 273.55,-256.684 277,-260.5 322.111,-310.394 269.201,-356.45 313,-407.5 315.655,-410.595 318.694,-413.365 321.984,-415.845"/>
<polygon fill="midnightblue" stroke="midnightblue" points="266.694,-247.614 256.219,-246.027 263.418,-253.8 266.694,-247.614"/>
</g>
<!-- Node5 -->
<g id="node5" class="node"><title>Node5</title>
<g id="a_node5"><a xlink:href="classspdlog_1_1sinks_1_1dist__sink.html" target="_top" xlink:title="spdlog::sinks::dist\l_sink\&lt; Mutex \&gt;">
<polygon fill="none" stroke="black" points="336,-367.5 336,-397.5 432,-397.5 432,-367.5 336,-367.5"/>
<text text-anchor="start" x="344" y="-385.5" font-family="Helvetica,sans-Serif" font-size="10.00">spdlog::sinks::dist</text>
<text text-anchor="middle" x="384" y="-374.5" font-family="Helvetica,sans-Serif" font-size="10.00">_sink&lt; Mutex &gt;</text>
</a>
</g>
</g>
<!-- Node3&#45;&gt;Node5 -->
<g id="edge4" class="edge"><title>Node3&#45;&gt;Node5</title>
<path fill="none" stroke="midnightblue" d="M265.167,-251.463C269.47,-254.04 273.491,-257.03 277,-260.5 309.995,-293.125 279.834,-326.048 313,-358.5 319.336,-364.7 327.342,-369.301 335.657,-372.715"/>
<polygon fill="midnightblue" stroke="midnightblue" points="266.502,-248.213 256.011,-246.732 263.289,-254.432 266.502,-248.213"/>
</g>
<!-- Node6 -->
<g id="node6" class="node"><title>Node6</title>
<g id="a_node6"><a xlink:href="classspdlog_1_1sinks_1_1null__sink.html" target="_top" xlink:title="spdlog::sinks::null\l_sink\&lt; Mutex \&gt;">
<polygon fill="none" stroke="black" points="336.5,-318.5 336.5,-348.5 431.5,-348.5 431.5,-318.5 336.5,-318.5"/>
<text text-anchor="start" x="344.5" y="-336.5" font-family="Helvetica,sans-Serif" font-size="10.00">spdlog::sinks::null</text>
<text text-anchor="middle" x="384" y="-325.5" font-family="Helvetica,sans-Serif" font-size="10.00">_sink&lt; Mutex &gt;</text>
</a>
</g>
</g>
<!-- Node3&#45;&gt;Node6 -->
<g id="edge5" class="edge"><title>Node3&#45;&gt;Node6</title>
<path fill="none" stroke="midnightblue" d="M265.36,-253.224C269.454,-255.396 273.384,-257.814 277,-260.5 298.692,-276.616 291.224,-293.498 313,-309.5 319.936,-314.597 328.037,-318.67 336.217,-321.906"/>
<polygon fill="midnightblue" stroke="midnightblue" points="266.731,-250 256.198,-248.852 263.716,-256.318 266.731,-250"/>
</g>
<!-- Node7 -->
<g id="node7" class="node"><title>Node7</title>
<g id="a_node7"><a xlink:href="classspdlog_1_1sinks_1_1ostream__sink.html" target="_top" xlink:title="spdlog::sinks::ostream\l_sink\&lt; Mutex \&gt;">
<polygon fill="none" stroke="black" points="326,-269.5 326,-299.5 442,-299.5 442,-269.5 326,-269.5"/>
<text text-anchor="start" x="334" y="-287.5" font-family="Helvetica,sans-Serif" font-size="10.00">spdlog::sinks::ostream</text>
<text text-anchor="middle" x="384" y="-276.5" font-family="Helvetica,sans-Serif" font-size="10.00">_sink&lt; Mutex &gt;</text>
</a>
</g>
</g>
<!-- Node3&#45;&gt;Node7 -->
<g id="edge6" class="edge"><title>Node3&#45;&gt;Node7</title>
<path fill="none" stroke="midnightblue" d="M265.913,-251.994C286.251,-257.64 308.885,-263.924 328.79,-269.45"/>
<polygon fill="midnightblue" stroke="midnightblue" points="266.707,-248.582 256.135,-249.28 264.834,-255.327 266.707,-248.582"/>
</g>
<!-- Node8 -->
<g id="node8" class="node"><title>Node8</title>
<g id="a_node8"><a xlink:href="classspdlog_1_1sinks_1_1rotating__file__sink.html" target="_top" xlink:title="spdlog::sinks::rotating\l_file_sink\&lt; Mutex \&gt;">
<polygon fill="none" stroke="black" points="327.5,-220.5 327.5,-250.5 440.5,-250.5 440.5,-220.5 327.5,-220.5"/>
<text text-anchor="start" x="335.5" y="-238.5" font-family="Helvetica,sans-Serif" font-size="10.00">spdlog::sinks::rotating</text>
<text text-anchor="middle" x="384" y="-227.5" font-family="Helvetica,sans-Serif" font-size="10.00">_file_sink&lt; Mutex &gt;</text>
</a>
</g>
</g>
<!-- Node3&#45;&gt;Node8 -->
<g id="edge7" class="edge"><title>Node3&#45;&gt;Node8</title>
<path fill="none" stroke="midnightblue" d="M266.23,-235.5C285.953,-235.5 307.804,-235.5 327.22,-235.5"/>
<polygon fill="midnightblue" stroke="midnightblue" points="266.135,-232 256.135,-235.5 266.135,-239 266.135,-232"/>
</g>
<!-- Node9 -->
<g id="node9" class="node"><title>Node9</title>
<g id="a_node9"><a xlink:href="classspdlog_1_1sinks_1_1simple__file__sink.html" target="_top" xlink:title="spdlog::sinks::simple\l_file_sink\&lt; Mutex \&gt;">
<polygon fill="none" stroke="black" points="329.5,-171.5 329.5,-201.5 438.5,-201.5 438.5,-171.5 329.5,-171.5"/>
<text text-anchor="start" x="337.5" y="-189.5" font-family="Helvetica,sans-Serif" font-size="10.00">spdlog::sinks::simple</text>
<text text-anchor="middle" x="384" y="-178.5" font-family="Helvetica,sans-Serif" font-size="10.00">_file_sink&lt; Mutex &gt;</text>
</a>
</g>
</g>
<!-- Node3&#45;&gt;Node9 -->
<g id="edge8" class="edge"><title>Node3&#45;&gt;Node9</title>
<path fill="none" stroke="midnightblue" d="M266.003,-218.981C286.531,-213.282 309.389,-206.936 329.415,-201.376"/>
<polygon fill="midnightblue" stroke="midnightblue" points="264.834,-215.673 256.135,-221.72 266.707,-222.418 264.834,-215.673"/>
</g>
<!-- Node10 -->
<g id="node10" class="node"><title>Node10</title>
<g id="a_node10"><a xlink:href="classspdlog_1_1sinks_1_1stderr__sink.html" target="_top" xlink:title="spdlog::sinks::stderr\l_sink\&lt; Mutex \&gt;">
<polygon fill="none" stroke="black" points="331.5,-122.5 331.5,-152.5 436.5,-152.5 436.5,-122.5 331.5,-122.5"/>
<text text-anchor="start" x="339.5" y="-140.5" font-family="Helvetica,sans-Serif" font-size="10.00">spdlog::sinks::stderr</text>
<text text-anchor="middle" x="384" y="-129.5" font-family="Helvetica,sans-Serif" font-size="10.00">_sink&lt; Mutex &gt;</text>
</a>
</g>
</g>
<!-- Node3&#45;&gt;Node10 -->
<g id="edge9" class="edge"><title>Node3&#45;&gt;Node10</title>
<path fill="none" stroke="midnightblue" d="M233.248,-214.281C254.087,-198.48 284.221,-177.189 313,-162.5 320.126,-158.863 327.906,-155.521 335.606,-152.544"/>
<polygon fill="midnightblue" stroke="midnightblue" points="230.99,-211.601 225.191,-220.468 235.254,-217.153 230.99,-211.601"/>
</g>
<!-- Node11 -->
<g id="node11" class="node"><title>Node11</title>
<g id="a_node11"><a xlink:href="classspdlog_1_1sinks_1_1stdout__sink.html" target="_top" xlink:title="spdlog::sinks::stdout\l_sink\&lt; Mutex \&gt;">
<polygon fill="none" stroke="black" points="330.5,-73.5 330.5,-103.5 437.5,-103.5 437.5,-73.5 330.5,-73.5"/>
<text text-anchor="start" x="338.5" y="-91.5" font-family="Helvetica,sans-Serif" font-size="10.00">spdlog::sinks::stdout</text>
<text text-anchor="middle" x="384" y="-80.5" font-family="Helvetica,sans-Serif" font-size="10.00">_sink&lt; Mutex &gt;</text>
</a>
</g>
</g>
<!-- Node3&#45;&gt;Node11 -->
<g id="edge10" class="edge"><title>Node3&#45;&gt;Node11</title>
<path fill="none" stroke="midnightblue" d="M221.761,-211.595C240.294,-184.329 273.963,-140.097 313,-113.5 318.546,-109.722 324.726,-106.447 331.056,-103.627"/>
<polygon fill="midnightblue" stroke="midnightblue" points="218.7,-209.877 216.071,-220.141 224.526,-213.757 218.7,-209.877"/>
</g>
<!-- Node12 -->
<g id="node12" class="node"><title>Node12</title>
<g id="a_node12"><a xlink:href="classspdlog_1_1sinks_1_1wincolor__sink.html" target="_top" xlink:title="spdlog::sinks::wincolor\l_sink\&lt; Mutex \&gt;">
<polygon fill="none" stroke="black" points="326,-24.5 326,-54.5 442,-54.5 442,-24.5 326,-24.5"/>
<text text-anchor="start" x="334" y="-42.5" font-family="Helvetica,sans-Serif" font-size="10.00">spdlog::sinks::wincolor</text>
<text text-anchor="middle" x="384" y="-31.5" font-family="Helvetica,sans-Serif" font-size="10.00">_sink&lt; Mutex &gt;</text>
</a>
</g>
</g>
<!-- Node3&#45;&gt;Node12 -->
<g id="edge11" class="edge"><title>Node3&#45;&gt;Node12</title>
<path fill="none" stroke="midnightblue" d="M215.654,-210.847C230.557,-173.945 263.468,-104.423 313,-64.5 317.722,-60.6938 323.07,-57.4426 328.654,-54.6708"/>
<polygon fill="midnightblue" stroke="midnightblue" points="212.324,-209.751 211.929,-220.339 218.84,-212.308 212.324,-209.751"/>
</g>
<!-- Node13 -->
<g id="node13" class="node"><title>Node13</title>
<g id="a_node13"><a xlink:href="classspdlog_1_1sinks_1_1wincolor__stderr__sink.html" target="_top" xlink:title="spdlog::sinks::wincolor\l_stderr_sink\&lt; Mutex \&gt;">
<polygon fill="none" stroke="black" points="491.5,-49.5 491.5,-79.5 607.5,-79.5 607.5,-49.5 491.5,-49.5"/>
<text text-anchor="start" x="499.5" y="-67.5" font-family="Helvetica,sans-Serif" font-size="10.00">spdlog::sinks::wincolor</text>
<text text-anchor="middle" x="549.5" y="-56.5" font-family="Helvetica,sans-Serif" font-size="10.00">_stderr_sink&lt; Mutex &gt;</text>
</a>
</g>
</g>
<!-- Node12&#45;&gt;Node13 -->
<g id="edge12" class="edge"><title>Node12&#45;&gt;Node13</title>
<path fill="none" stroke="midnightblue" d="M452.423,-49.8093C465.354,-51.7866 478.779,-53.8393 491.348,-55.7612"/>
<polygon fill="midnightblue" stroke="midnightblue" points="452.599,-46.2956 442.184,-48.2438 451.54,-53.2151 452.599,-46.2956"/>
</g>
<!-- Node14 -->
<g id="node14" class="node"><title>Node14</title>
<g id="a_node14"><a xlink:href="classspdlog_1_1sinks_1_1wincolor__stdout__sink.html" target="_top" xlink:title="spdlog::sinks::wincolor\l_stdout_sink\&lt; Mutex \&gt;">
<polygon fill="none" stroke="black" points="491,-0.5 491,-30.5 608,-30.5 608,-0.5 491,-0.5"/>
<text text-anchor="start" x="499" y="-18.5" font-family="Helvetica,sans-Serif" font-size="10.00">spdlog::sinks::wincolor</text>
<text text-anchor="middle" x="549.5" y="-7.5" font-family="Helvetica,sans-Serif" font-size="10.00">_stdout_sink&lt; Mutex &gt;</text>
</a>
</g>
</g>
<!-- Node12&#45;&gt;Node14 -->
<g id="edge13" class="edge"><title>Node12&#45;&gt;Node14</title>
<path fill="none" stroke="midnightblue" d="M452.303,-29.6206C465.082,-27.7449 478.347,-25.7978 490.795,-23.9705"/>
<polygon fill="midnightblue" stroke="midnightblue" points="451.57,-26.1907 442.184,-31.106 452.587,-33.1164 451.57,-26.1907"/>
</g>
</g>
</svg>
