<?xml version="1.0" encoding="UTF-8" standalone="no"?>
<!DOCTYPE svg PUBLIC "-//W3C//DTD SVG 1.1//EN"
 "http://www.w3.org/Graphics/SVG/1.1/DTD/svg11.dtd">
<!-- Generated by graphviz version 2.38.0 (20140413.2041)
 -->
<!-- Title: Graphical Class Hierarchy Pages: 1 -->
<svg width="283pt" height="66pt"
 viewBox="0.00 0.00 283.00 66.00" xmlns="http://www.w3.org/2000/svg" xmlns:xlink="http://www.w3.org/1999/xlink">
<g id="graph0" class="graph" transform="scale(1 1) rotate(0) translate(4 62)">
<title>Graphical Class Hierarchy</title>
<!-- Node1 -->
<g id="node1" class="node"><title>Node1</title>
<g id="a_node1"><a xlink:href="classXBot_1_1GenericSensor.html" target="_top" xlink:title="Generic sensor abstraction. ">
<polygon fill="none" stroke="black" points="0,-19.5 0,-38.5 109,-38.5 109,-19.5 0,-19.5"/>
<text text-anchor="middle" x="54.5" y="-26.5" font-family="Helvetica,sans-Serif" font-size="10.00">XBot::GenericSensor</text>
</a>
</g>
</g>
<!-- Node2 -->
<g id="node2" class="node"><title>Node2</title>
<g id="a_node2"><a xlink:href="classXBot_1_1ForceTorqueSensor.html" target="_top" xlink:title="Force &#45; Torque sensor abstraction: ">
<polygon fill="none" stroke="black" points="145,-38.5 145,-57.5 275,-57.5 275,-38.5 145,-38.5"/>
<text text-anchor="middle" x="210" y="-45.5" font-family="Helvetica,sans-Serif" font-size="10.00">XBot::ForceTorqueSensor</text>
</a>
</g>
</g>
<!-- Node1&#45;&gt;Node2 -->
<g id="edge1" class="edge"><title>Node1&#45;&gt;Node2</title>
<path fill="none" stroke="midnightblue" d="M119.321,-36.8996C127.739,-37.9416 136.371,-39.01 144.795,-40.0528"/>
<polygon fill="midnightblue" stroke="midnightblue" points="119.541,-33.4003 109.187,-35.6453 118.681,-40.3473 119.541,-33.4003"/>
</g>
<!-- Node3 -->
<g id="node3" class="node"><title>Node3</title>
<g id="a_node3"><a xlink:href="classXBot_1_1ImuSensor.html" target="_top" xlink:title="XBot::ImuSensor">
<polygon fill="none" stroke="black" points="164,-0.5 164,-19.5 256,-19.5 256,-0.5 164,-0.5"/>
<text text-anchor="middle" x="210" y="-7.5" font-family="Helvetica,sans-Serif" font-size="10.00">XBot::ImuSensor</text>
</a>
</g>
</g>
<!-- Node1&#45;&gt;Node3 -->
<g id="edge2" class="edge"><title>Node1&#45;&gt;Node3</title>
<path fill="none" stroke="midnightblue" d="M119.369,-21.0944C134.271,-19.2498 149.841,-17.3226 163.743,-15.6019"/>
<polygon fill="midnightblue" stroke="midnightblue" points="118.681,-17.6527 109.187,-22.3547 119.541,-24.5997 118.681,-17.6527"/>
</g>
</g>
</svg>
