<?xml version="1.0" encoding="UTF-8" standalone="no"?>
<!DOCTYPE svg PUBLIC "-//W3C//DTD SVG 1.1//EN"
 "http://www.w3.org/Graphics/SVG/1.1/DTD/svg11.dtd">
<!-- Generated by graphviz version 2.36.0 (20140111.2315)
 -->
<!-- Title: Graphical Class Hierarchy Pages: 1 -->
<svg width="618pt" height="465pt"
 viewBox="0.00 0.00 618.00 465.00" xmlns="http://www.w3.org/2000/svg" xmlns:xlink="http://www.w3.org/1999/xlink">
<g id="graph0" class="graph" transform="scale(1 1) rotate(0) translate(4 461)">
<title>Graphical Class Hierarchy</title>
<!-- Node1 -->
<g id="node1" class="node"><title>Node1</title>
<g id="a_node1"><a xlink:href="classspdlog_1_1sinks_1_1sink.html" target="_top" xlink:title="spdlog::sinks::sink">
<polygon fill="none" stroke="black" points="0,-247.5 0,-266.5 98,-266.5 98,-247.5 0,-247.5"/>
<text text-anchor="middle" x="49" y="-254.5" font-family="Helvetica,sans-Serif" font-size="10.00">spdlog::sinks::sink</text>
</a>
</g>
</g>
<!-- Node2 -->
<g id="node2" class="node"><title>Node2</title>
<g id="a_node2"><a xlink:href="classspdlog_1_1sinks_1_1ansicolor__sink.html" target="_top" xlink:title="The ansi_color_sink is a decorator around another sink and prefixes the output with an ANSI escape se...">
<polygon fill="none" stroke="black" points="134.5,-269.5 134.5,-288.5 277.5,-288.5 277.5,-269.5 134.5,-269.5"/>
<text text-anchor="middle" x="206" y="-276.5" font-family="Helvetica,sans-Serif" font-size="10.00">spdlog::sinks::ansicolor_sink</text>
</a>
</g>
</g>
<!-- Node1&#45;&gt;Node2 -->
<g id="edge1" class="edge"><title>Node1&#45;&gt;Node2</title>
<path fill="none" stroke="midnightblue" d="M108.168,-265.256C117.918,-266.64 128.104,-268.086 138.053,-269.498"/>
<polygon fill="midnightblue" stroke="midnightblue" points="108.586,-261.78 98.1933,-263.84 107.602,-268.711 108.586,-261.78"/>
</g>
<!-- Node3 -->
<g id="node3" class="node"><title>Node3</title>
<g id="a_node3"><a xlink:href="classspdlog_1_1sinks_1_1base__sink.html" target="_top" xlink:title="spdlog::sinks::base\l_sink\&lt; Mutex \&gt;">
<polygon fill="none" stroke="black" points="155.5,-220 155.5,-250 256.5,-250 256.5,-220 155.5,-220"/>
<text text-anchor="start" x="163.5" y="-238" font-family="Helvetica,sans-Serif" font-size="10.00">spdlog::sinks::base</text>
<text text-anchor="middle" x="206" y="-227" font-family="Helvetica,sans-Serif" font-size="10.00">_sink&lt; Mutex &gt;</text>
</a>
</g>
</g>
<!-- Node1&#45;&gt;Node3 -->
<g id="edge2" class="edge"><title>Node1&#45;&gt;Node3</title>
<path fill="none" stroke="midnightblue" d="M108.231,-248.735C123.791,-246.526 140.458,-244.161 155.499,-242.026"/>
<polygon fill="midnightblue" stroke="midnightblue" points="107.602,-245.289 98.1933,-250.16 108.586,-252.22 107.602,-245.289"/>
</g>
<!-- Node4 -->
<g id="node4" class="node"><title>Node4</title>
<g id="a_node4"><a xlink:href="classspdlog_1_1sinks_1_1daily__file__sink.html" target="_top" xlink:title="spdlog::sinks::daily\l_file_sink\&lt; Mutex, FileName\lCalc \&gt;">
<polygon fill="none" stroke="black" points="314,-415.5 314,-456.5 456,-456.5 456,-415.5 314,-415.5"/>
<text text-anchor="start" x="322" y="-444.5" font-family="Helvetica,sans-Serif" font-size="10.00">spdlog::sinks::daily</text>
<text text-anchor="start" x="322" y="-433.5" font-family="Helvetica,sans-Serif" font-size="10.00">_file_sink&lt; Mutex, FileName</text>
<text text-anchor="middle" x="385" y="-422.5" font-family="Helvetica,sans-Serif" font-size="10.00">Calc &gt;</text>
</a>
</g>
</g>
<!-- Node3&#45;&gt;Node4 -->
<g id="edge3" class="edge"><title>Node3&#45;&gt;Node4</title>
<path fill="none" stroke="midnightblue" d="M265.765,-250.047C270.293,-252.822 274.468,-256.108 278,-260 322.916,-309.489 270.75,-355.049 314,-406 316.995,-409.528 320.479,-412.652 324.263,-415.417"/>
<polygon fill="midnightblue" stroke="midnightblue" points="267.182,-246.839 256.697,-245.318 263.944,-253.046 267.182,-246.839"/>
</g>
<!-- Node5 -->
<g id="node5" class="node"><title>Node5</title>
<g id="a_node5"><a xlink:href="classspdlog_1_1sinks_1_1dist__sink.html" target="_top" xlink:title="spdlog::sinks::dist\l_sink\&lt; Mutex \&gt;">
<polygon fill="none" stroke="black" points="337,-367 337,-397 433,-397 433,-367 337,-367"/>
<text text-anchor="start" x="345" y="-385" font-family="Helvetica,sans-Serif" font-size="10.00">spdlog::sinks::dist</text>
<text text-anchor="middle" x="385" y="-374" font-family="Helvetica,sans-Serif" font-size="10.00">_sink&lt; Mutex &gt;</text>
</a>
</g>
</g>
<!-- Node3&#45;&gt;Node5 -->
<g id="edge4" class="edge"><title>Node3&#45;&gt;Node5</title>
<path fill="none" stroke="midnightblue" d="M266.068,-250.936C270.405,-253.519 274.459,-256.518 278,-260 310.788,-292.241 281.284,-324.686 314,-357 320.335,-363.257 328.34,-367.958 336.655,-371.486"/>
<polygon fill="midnightblue" stroke="midnightblue" points="267.337,-247.654 256.843,-246.198 264.139,-253.88 267.337,-247.654"/>
</g>
<!-- Node6 -->
<g id="node6" class="node"><title>Node6</title>
<g id="a_node6"><a xlink:href="classspdlog_1_1sinks_1_1null__sink.html" target="_top" xlink:title="spdlog::sinks::null\l_sink\&lt; Mutex \&gt;">
<polygon fill="none" stroke="black" points="337.5,-318 337.5,-348 432.5,-348 432.5,-318 337.5,-318"/>
<text text-anchor="start" x="345.5" y="-336" font-family="Helvetica,sans-Serif" font-size="10.00">spdlog::sinks::null</text>
<text text-anchor="middle" x="385" y="-325" font-family="Helvetica,sans-Serif" font-size="10.00">_sink&lt; Mutex &gt;</text>
</a>
</g>
</g>
<!-- Node3&#45;&gt;Node6 -->
<g id="edge5" class="edge"><title>Node3&#45;&gt;Node6</title>
<path fill="none" stroke="midnightblue" d="M265.7,-252.45C270.026,-254.692 274.184,-257.2 278,-260 299.501,-275.773 292.534,-292.179 314,-308 320.96,-313.13 329.071,-317.287 337.255,-320.629"/>
<polygon fill="midnightblue" stroke="midnightblue" points="267.18,-249.278 256.639,-248.211 264.214,-255.619 267.18,-249.278"/>
</g>
<!-- Node7 -->
<g id="node7" class="node"><title>Node7</title>
<g id="a_node7"><a xlink:href="classspdlog_1_1sinks_1_1ostream__sink.html" target="_top" xlink:title="spdlog::sinks::ostream\l_sink\&lt; Mutex \&gt;">
<polygon fill="none" stroke="black" points="327,-269 327,-299 443,-299 443,-269 327,-269"/>
<text text-anchor="start" x="335" y="-287" font-family="Helvetica,sans-Serif" font-size="10.00">spdlog::sinks::ostream</text>
<text text-anchor="middle" x="385" y="-276" font-family="Helvetica,sans-Serif" font-size="10.00">_sink&lt; Mutex &gt;</text>
</a>
</g>
</g>
<!-- Node3&#45;&gt;Node7 -->
<g id="edge6" class="edge"><title>Node3&#45;&gt;Node7</title>
<path fill="none" stroke="midnightblue" d="M266.581,-251.494C286.977,-257.14 309.675,-263.424 329.637,-268.95"/>
<polygon fill="midnightblue" stroke="midnightblue" points="267.347,-248.075 256.775,-248.78 265.479,-254.821 267.347,-248.075"/>
</g>
<!-- Node8 -->
<g id="node8" class="node"><title>Node8</title>
<g id="a_node8"><a xlink:href="classspdlog_1_1sinks_1_1rotating__file__sink.html" target="_top" xlink:title="spdlog::sinks::rotating\l_file_sink\&lt; Mutex \&gt;">
<polygon fill="none" stroke="black" points="328.5,-220 328.5,-250 441.5,-250 441.5,-220 328.5,-220"/>
<text text-anchor="start" x="336.5" y="-238" font-family="Helvetica,sans-Serif" font-size="10.00">spdlog::sinks::rotating</text>
<text text-anchor="middle" x="385" y="-227" font-family="Helvetica,sans-Serif" font-size="10.00">_file_sink&lt; Mutex &gt;</text>
</a>
</g>
</g>
<!-- Node3&#45;&gt;Node8 -->
<g id="edge7" class="edge"><title>Node3&#45;&gt;Node8</title>
<path fill="none" stroke="midnightblue" d="M266.947,-235C286.82,-235 308.844,-235 328.377,-235"/>
<polygon fill="midnightblue" stroke="midnightblue" points="266.775,-231.5 256.775,-235 266.775,-238.5 266.775,-231.5"/>
</g>
<!-- Node9 -->
<g id="node9" class="node"><title>Node9</title>
<g id="a_node9"><a xlink:href="classspdlog_1_1sinks_1_1simple__file__sink.html" target="_top" xlink:title="spdlog::sinks::simple\l_file_sink\&lt; Mutex \&gt;">
<polygon fill="none" stroke="black" points="330.5,-171 330.5,-201 439.5,-201 439.5,-171 330.5,-171"/>
<text text-anchor="start" x="338.5" y="-189" font-family="Helvetica,sans-Serif" font-size="10.00">spdlog::sinks::simple</text>
<text text-anchor="middle" x="385" y="-178" font-family="Helvetica,sans-Serif" font-size="10.00">_file_sink&lt; Mutex &gt;</text>
</a>
</g>
</g>
<!-- Node3&#45;&gt;Node9 -->
<g id="edge8" class="edge"><title>Node3&#45;&gt;Node9</title>
<path fill="none" stroke="midnightblue" d="M266.671,-218.481C287.258,-212.782 310.18,-206.436 330.263,-200.876"/>
<polygon fill="midnightblue" stroke="midnightblue" points="265.479,-215.179 256.775,-221.22 267.347,-221.925 265.479,-215.179"/>
</g>
<!-- Node10 -->
<g id="node10" class="node"><title>Node10</title>
<g id="a_node10"><a xlink:href="classspdlog_1_1sinks_1_1stderr__sink.html" target="_top" xlink:title="spdlog::sinks::stderr\l_sink\&lt; Mutex \&gt;">
<polygon fill="none" stroke="black" points="332.5,-122 332.5,-152 437.5,-152 437.5,-122 332.5,-122"/>
<text text-anchor="start" x="340.5" y="-140" font-family="Helvetica,sans-Serif" font-size="10.00">spdlog::sinks::stderr</text>
<text text-anchor="middle" x="385" y="-129" font-family="Helvetica,sans-Serif" font-size="10.00">_sink&lt; Mutex &gt;</text>
</a>
</g>
</g>
<!-- Node3&#45;&gt;Node10 -->
<g id="edge9" class="edge"><title>Node3&#45;&gt;Node10</title>
<path fill="none" stroke="midnightblue" d="M233.889,-213.79C254.834,-197.993 285.113,-176.705 314,-162 321.13,-158.37 328.912,-155.032 336.613,-152.058"/>
<polygon fill="midnightblue" stroke="midnightblue" points="231.613,-211.124 225.791,-219.975 235.862,-216.687 231.613,-211.124"/>
</g>
<!-- Node11 -->
<g id="node11" class="node"><title>Node11</title>
<g id="a_node11"><a xlink:href="classspdlog_1_1sinks_1_1stdout__sink.html" target="_top" xlink:title="spdlog::sinks::stdout\l_sink\&lt; Mutex \&gt;">
<polygon fill="none" stroke="black" points="331.5,-73 331.5,-103 438.5,-103 438.5,-73 331.5,-73"/>
<text text-anchor="start" x="339.5" y="-91" font-family="Helvetica,sans-Serif" font-size="10.00">spdlog::sinks::stdout</text>
<text text-anchor="middle" x="385" y="-80" font-family="Helvetica,sans-Serif" font-size="10.00">_sink&lt; Mutex &gt;</text>
</a>
</g>
</g>
<!-- Node3&#45;&gt;Node11 -->
<g id="edge10" class="edge"><title>Node3&#45;&gt;Node11</title>
<path fill="none" stroke="midnightblue" d="M222.359,-211.098C241.003,-183.835 274.853,-139.605 314,-113 319.55,-109.228 325.733,-105.957 332.064,-103.139"/>
<polygon fill="midnightblue" stroke="midnightblue" points="219.292,-209.387 216.633,-219.643 225.107,-213.283 219.292,-209.387"/>
</g>
<!-- Node12 -->
<g id="node12" class="node"><title>Node12</title>
<g id="a_node12"><a xlink:href="classspdlog_1_1sinks_1_1wincolor__sink.html" target="_top" xlink:title="spdlog::sinks::wincolor\l_sink\&lt; Mutex \&gt;">
<polygon fill="none" stroke="black" points="327,-24 327,-54 443,-54 443,-24 327,-24"/>
<text text-anchor="start" x="335" y="-42" font-family="Helvetica,sans-Serif" font-size="10.00">spdlog::sinks::wincolor</text>
<text text-anchor="middle" x="385" y="-31" font-family="Helvetica,sans-Serif" font-size="10.00">_sink&lt; Mutex &gt;</text>
</a>
</g>
</g>
<!-- Node3&#45;&gt;Node12 -->
<g id="edge11" class="edge"><title>Node3&#45;&gt;Node12</title>
<path fill="none" stroke="midnightblue" d="M216.228,-210.347C231.242,-173.445 264.361,-103.924 314,-64 318.827,-60.1179 324.304,-56.8127 330.019,-54.0045"/>
<polygon fill="midnightblue" stroke="midnightblue" points="212.897,-209.252 212.475,-219.839 219.407,-211.826 212.897,-209.252"/>
</g>
<!-- Node13 -->
<g id="node13" class="node"><title>Node13</title>
<g id="a_node13"><a xlink:href="classspdlog_1_1sinks_1_1wincolor__stderr__sink.html" target="_top" xlink:title="spdlog::sinks::wincolor\l_stderr_sink\&lt; Mutex \&gt;">
<polygon fill="none" stroke="black" points="493,-49 493,-79 609,-79 609,-49 493,-49"/>
<text text-anchor="start" x="501" y="-67" font-family="Helvetica,sans-Serif" font-size="10.00">spdlog::sinks::wincolor</text>
<text text-anchor="middle" x="551" y="-56" font-family="Helvetica,sans-Serif" font-size="10.00">_stderr_sink&lt; Mutex &gt;</text>
</a>
</g>
</g>
<!-- Node12&#45;&gt;Node13 -->
<g id="edge12" class="edge"><title>Node12&#45;&gt;Node13</title>
<path fill="none" stroke="midnightblue" d="M453.302,-49.2595C466.468,-51.2665 480.157,-53.3532 492.95,-55.3034"/>
<polygon fill="midnightblue" stroke="midnightblue" points="453.773,-45.7908 443.359,-47.7438 452.718,-52.7109 453.773,-45.7908"/>
</g>
<!-- Node14 -->
<g id="node14" class="node"><title>Node14</title>
<g id="a_node14"><a xlink:href="classspdlog_1_1sinks_1_1wincolor__stdout__sink.html" target="_top" xlink:title="spdlog::sinks::wincolor\l_stdout_sink\&lt; Mutex \&gt;">
<polygon fill="none" stroke="black" points="492.5,-0 492.5,-30 609.5,-30 609.5,-0 492.5,-0"/>
<text text-anchor="start" x="500.5" y="-18" font-family="Helvetica,sans-Serif" font-size="10.00">spdlog::sinks::wincolor</text>
<text text-anchor="middle" x="551" y="-7" font-family="Helvetica,sans-Serif" font-size="10.00">_stdout_sink&lt; Mutex &gt;</text>
</a>
</g>
</g>
<!-- Node12&#45;&gt;Node14 -->
<g id="edge13" class="edge"><title>Node12&#45;&gt;Node14</title>
<path fill="none" stroke="midnightblue" d="M453.569,-29.1118C466.463,-27.2249 479.849,-25.266 492.396,-23.4299"/>
<polygon fill="midnightblue" stroke="midnightblue" points="452.747,-25.6948 443.359,-30.606 453.761,-32.621 452.747,-25.6948"/>
</g>
</g>
</svg>
