<?xml version="1.0" encoding="UTF-8" standalone="no"?>
<!DOCTYPE svg PUBLIC "-//W3C//DTD SVG 1.1//EN"
 "http://www.w3.org/Graphics/SVG/1.1/DTD/svg11.dtd">
<!-- Generated by graphviz version 2.36.0 (20140111.2315)
 -->
<!-- Title: /home/lucamuratore/advr&#45;superbuild/external/XBotInterface/src/Joint.cpp Pages: 1 -->
<svg width="1009pt" height="286pt"
 viewBox="0.00 0.00 1008.51 286.00" xmlns="http://www.w3.org/2000/svg" xmlns:xlink="http://www.w3.org/1999/xlink">
<g id="graph0" class="graph" transform="scale(1 1) rotate(0) translate(4 282)">
<title>/home/lucamuratore/advr&#45;superbuild/external/XBotInterface/src/Joint.cpp</title>
<!-- Node1 -->
<g id="node1" class="node"><title>Node1</title>
<polygon fill="#bfbfbf" stroke="black" points="354.5,-236.5 354.5,-277.5 493.5,-277.5 493.5,-236.5 354.5,-236.5"/>
<text text-anchor="start" x="362.5" y="-265.5" font-family="Helvetica,sans-Serif" font-size="10.00">/home/lucamuratore</text>
<text text-anchor="start" x="362.5" y="-254.5" font-family="Helvetica,sans-Serif" font-size="10.00">/advr&#45;superbuild/external</text>
<text text-anchor="middle" x="424" y="-243.5" font-family="Helvetica,sans-Serif" font-size="10.00">/XBotInterface/src/Joint.cpp</text>
</g>
<!-- Node2 -->
<g id="node2" class="node"><title>Node2</title>
<g id="a_node2"><a xlink:href="Joint_8h.html" target="_top" xlink:title="XBotInterface/Joint.h">
<polygon fill="none" stroke="black" points="369.5,-180.5 369.5,-199.5 478.5,-199.5 478.5,-180.5 369.5,-180.5"/>
<text text-anchor="middle" x="424" y="-187.5" font-family="Helvetica,sans-Serif" font-size="10.00">XBotInterface/Joint.h</text>
</a>
</g>
</g>
<!-- Node1&#45;&gt;Node2 -->
<g id="edge1" class="edge"><title>Node1&#45;&gt;Node2</title>
<path fill="none" stroke="midnightblue" d="M424,-236.498C424,-228.065 424,-218.235 424,-209.874"/>
<polygon fill="midnightblue" stroke="midnightblue" points="427.5,-209.652 424,-199.652 420.5,-209.653 427.5,-209.652"/>
</g>
<!-- Node3 -->
<g id="node3" class="node"><title>Node3</title>
<polygon fill="none" stroke="#bfbfbf" points="461.5,-0.5 461.5,-19.5 502.5,-19.5 502.5,-0.5 461.5,-0.5"/>
<text text-anchor="middle" x="482" y="-7.5" font-family="Helvetica,sans-Serif" font-size="10.00">string</text>
</g>
<!-- Node2&#45;&gt;Node3 -->
<g id="edge2" class="edge"><title>Node2&#45;&gt;Node3</title>
<path fill="none" stroke="midnightblue" d="M445.808,-180.447C460.945,-173.221 479.955,-161.264 489,-144 508.335,-107.098 496.986,-56.2584 488.567,-29.3796"/>
<polygon fill="midnightblue" stroke="midnightblue" points="491.832,-28.1075 485.342,-19.7333 485.194,-30.3271 491.832,-28.1075"/>
</g>
<!-- Node4 -->
<g id="node4" class="node"><title>Node4</title>
<polygon fill="none" stroke="#bfbfbf" points="0,-0.5 0,-19.5 52,-19.5 52,-0.5 0,-0.5"/>
<text text-anchor="middle" x="26" y="-7.5" font-family="Helvetica,sans-Serif" font-size="10.00">memory</text>
</g>
<!-- Node2&#45;&gt;Node4 -->
<g id="edge3" class="edge"><title>Node2&#45;&gt;Node4</title>
<path fill="none" stroke="midnightblue" d="M369.436,-186.158C270.091,-180.46 67.7844,-166.25 45,-144 14.3576,-114.076 17.8984,-58.6518 22.3497,-29.7051"/>
<polygon fill="midnightblue" stroke="midnightblue" points="25.8246,-30.1512 24.0926,-19.6989 18.9284,-28.95 25.8246,-30.1512"/>
</g>
<!-- Node5 -->
<g id="node5" class="node"><title>Node5</title>
<polygon fill="none" stroke="#bfbfbf" points="532,-62.5 532,-81.5 586,-81.5 586,-62.5 532,-62.5"/>
<text text-anchor="middle" x="559" y="-69.5" font-family="Helvetica,sans-Serif" font-size="10.00">iostream</text>
</g>
<!-- Node2&#45;&gt;Node5 -->
<g id="edge4" class="edge"><title>Node2&#45;&gt;Node5</title>
<path fill="none" stroke="midnightblue" d="M456.182,-180.47C477.285,-173.525 504.325,-161.895 523,-144 538.242,-129.394 548.112,-106.94 553.594,-91.2043"/>
<polygon fill="midnightblue" stroke="midnightblue" points="556.965,-92.1537 556.7,-81.5622 550.302,-90.0072 556.965,-92.1537"/>
</g>
<!-- Node6 -->
<g id="node6" class="node"><title>Node6</title>
<polygon fill="none" stroke="#bfbfbf" points="367.5,-124.5 367.5,-143.5 480.5,-143.5 480.5,-124.5 367.5,-124.5"/>
<text text-anchor="middle" x="424" y="-131.5" font-family="Helvetica,sans-Serif" font-size="10.00">srdfdom_advr/model.h</text>
</g>
<!-- Node2&#45;&gt;Node6 -->
<g id="edge5" class="edge"><title>Node2&#45;&gt;Node6</title>
<path fill="none" stroke="midnightblue" d="M424,-180.083C424,-173.006 424,-162.861 424,-153.986"/>
<polygon fill="midnightblue" stroke="midnightblue" points="427.5,-153.751 424,-143.751 420.5,-153.751 427.5,-153.751"/>
</g>
<!-- Node7 -->
<g id="node7" class="node"><title>Node7</title>
<g id="a_node7"><a xlink:href="SyncFlags_8h.html" target="_top" xlink:title="XBotInterface/SyncFlags.h">
<polygon fill="none" stroke="black" points="54,-124.5 54,-143.5 188,-143.5 188,-124.5 54,-124.5"/>
<text text-anchor="middle" x="121" y="-131.5" font-family="Helvetica,sans-Serif" font-size="10.00">XBotInterface/SyncFlags.h</text>
</a>
</g>
</g>
<!-- Node2&#45;&gt;Node7 -->
<g id="edge6" class="edge"><title>Node2&#45;&gt;Node7</title>
<path fill="none" stroke="midnightblue" d="M375.989,-180.444C322.466,-170.905 235.935,-155.483 178.755,-145.293"/>
<polygon fill="midnightblue" stroke="midnightblue" points="179.246,-141.825 168.787,-143.516 178.017,-148.717 179.246,-141.825"/>
</g>
<!-- Node13 -->
<g id="node13" class="node"><title>Node13</title>
<g id="a_node13"><a xlink:href="table__printer_8h.html" target="_top" xlink:title="bprinter/table_printer.h">
<polygon fill="none" stroke="black" points="738.5,-124.5 738.5,-143.5 851.5,-143.5 851.5,-124.5 738.5,-124.5"/>
<text text-anchor="middle" x="795" y="-131.5" font-family="Helvetica,sans-Serif" font-size="10.00">bprinter/table_printer.h</text>
</a>
</g>
</g>
<!-- Node2&#45;&gt;Node13 -->
<g id="edge14" class="edge"><title>Node2&#45;&gt;Node13</title>
<path fill="none" stroke="midnightblue" d="M478.742,-181.032C545.022,-171.385 656.615,-155.142 727.978,-144.755"/>
<polygon fill="midnightblue" stroke="midnightblue" points="728.813,-148.171 738.205,-143.267 727.805,-141.244 728.813,-148.171"/>
</g>
<!-- Node19 -->
<g id="node19" class="node"><title>Node19</title>
<g id="a_node19"><a xlink:href="ControlMode_8h.html" target="_top" xlink:title="XBotInterface/ControlMode.h">
<polygon fill="none" stroke="black" points="206.5,-124.5 206.5,-143.5 349.5,-143.5 349.5,-124.5 206.5,-124.5"/>
<text text-anchor="middle" x="278" y="-131.5" font-family="Helvetica,sans-Serif" font-size="10.00">XBotInterface/ControlMode.h</text>
</a>
</g>
</g>
<!-- Node2&#45;&gt;Node19 -->
<g id="edge22" class="edge"><title>Node2&#45;&gt;Node19</title>
<path fill="none" stroke="midnightblue" d="M400.866,-180.444C376.518,-171.438 337.993,-157.189 310.577,-147.049"/>
<polygon fill="midnightblue" stroke="midnightblue" points="311.619,-143.703 301.026,-143.516 309.191,-150.268 311.619,-143.703"/>
</g>
<!-- Node8 -->
<g id="node8" class="node"><title>Node8</title>
<g id="a_node8"><a xlink:href="TypedefAndEnums_8h.html" target="_top" xlink:title="XBotInterface/TypedefAnd\lEnums.h">
<polygon fill="none" stroke="black" points="145,-57 145,-87 277,-87 277,-57 145,-57"/>
<text text-anchor="start" x="153" y="-75" font-family="Helvetica,sans-Serif" font-size="10.00">XBotInterface/TypedefAnd</text>
<text text-anchor="middle" x="211" y="-64" font-family="Helvetica,sans-Serif" font-size="10.00">Enums.h</text>
</a>
</g>
</g>
<!-- Node7&#45;&gt;Node8 -->
<g id="edge7" class="edge"><title>Node7&#45;&gt;Node8</title>
<path fill="none" stroke="midnightblue" d="M133.895,-124.403C146.198,-116.201 165.182,-103.545 181.234,-92.8441"/>
<polygon fill="midnightblue" stroke="midnightblue" points="183.41,-95.6 189.789,-87.1408 179.527,-89.7757 183.41,-95.6"/>
</g>
<!-- Node8&#45;&gt;Node3 -->
<g id="edge10" class="edge"><title>Node8&#45;&gt;Node3</title>
<path fill="none" stroke="midnightblue" d="M274.537,-56.9327C330.325,-44.5812 409.04,-27.1536 451.683,-17.7122"/>
<polygon fill="midnightblue" stroke="midnightblue" points="452.456,-21.1261 461.462,-15.5471 450.942,-14.2916 452.456,-21.1261"/>
</g>
<!-- Node8&#45;&gt;Node4 -->
<g id="edge11" class="edge"><title>Node8&#45;&gt;Node4</title>
<path fill="none" stroke="midnightblue" d="M167.626,-56.9327C135.482,-46.5077 92.189,-32.4667 61.9623,-22.6635"/>
<polygon fill="midnightblue" stroke="midnightblue" points="62.8395,-19.2685 52.2475,-19.5127 60.6799,-25.9271 62.8395,-19.2685"/>
</g>
<!-- Node9 -->
<g id="node9" class="node"><title>Node9</title>
<polygon fill="none" stroke="#bfbfbf" points="390.5,-0.5 390.5,-19.5 425.5,-19.5 425.5,-0.5 390.5,-0.5"/>
<text text-anchor="middle" x="408" y="-7.5" font-family="Helvetica,sans-Serif" font-size="10.00">map</text>
</g>
<!-- Node8&#45;&gt;Node9 -->
<g id="edge8" class="edge"><title>Node8&#45;&gt;Node9</title>
<path fill="none" stroke="midnightblue" d="M259.115,-56.9877C291.024,-47.5989 334.04,-34.7593 380.629,-20.0495"/>
<polygon fill="midnightblue" stroke="midnightblue" points="381.831,-23.3403 390.306,-16.9831 379.716,-16.6672 381.831,-23.3403"/>
</g>
<!-- Node10 -->
<g id="node10" class="node"><title>Node10</title>
<polygon fill="none" stroke="#bfbfbf" points="70.5,-0.5 70.5,-19.5 153.5,-19.5 153.5,-0.5 70.5,-0.5"/>
<text text-anchor="middle" x="112" y="-7.5" font-family="Helvetica,sans-Serif" font-size="10.00">unordered_map</text>
</g>
<!-- Node8&#45;&gt;Node10 -->
<g id="edge9" class="edge"><title>Node8&#45;&gt;Node10</title>
<path fill="none" stroke="midnightblue" d="M187.789,-56.9327C171.832,-47.2619 150.741,-34.4793 134.86,-24.8546"/>
<polygon fill="midnightblue" stroke="midnightblue" points="136.556,-21.7899 126.19,-19.6 132.928,-27.7763 136.556,-21.7899"/>
</g>
<!-- Node11 -->
<g id="node11" class="node"><title>Node11</title>
<polygon fill="none" stroke="#bfbfbf" points="172,-0.5 172,-19.5 250,-19.5 250,-0.5 172,-0.5"/>
<text text-anchor="middle" x="211" y="-7.5" font-family="Helvetica,sans-Serif" font-size="10.00">boost/any.hpp</text>
</g>
<!-- Node8&#45;&gt;Node11 -->
<g id="edge12" class="edge"><title>Node8&#45;&gt;Node11</title>
<path fill="none" stroke="midnightblue" d="M211,-56.7808C211,-48.7812 211,-38.6887 211,-30.0168"/>
<polygon fill="midnightblue" stroke="midnightblue" points="214.5,-29.7305 211,-19.7305 207.5,-29.7306 214.5,-29.7305"/>
</g>
<!-- Node12 -->
<g id="node12" class="node"><title>Node12</title>
<polygon fill="none" stroke="#bfbfbf" points="268,-0.5 268,-19.5 372,-19.5 372,-0.5 268,-0.5"/>
<text text-anchor="middle" x="320" y="-7.5" font-family="Helvetica,sans-Serif" font-size="10.00">eigen3/Eigen/Dense</text>
</g>
<!-- Node8&#45;&gt;Node12 -->
<g id="edge13" class="edge"><title>Node8&#45;&gt;Node12</title>
<path fill="none" stroke="midnightblue" d="M236.556,-56.9327C254.288,-47.1715 277.78,-34.2401 295.32,-24.5856"/>
<polygon fill="midnightblue" stroke="midnightblue" points="297.304,-27.4885 304.377,-19.6 293.928,-21.3562 297.304,-27.4885"/>
</g>
<!-- Node13&#45;&gt;Node3 -->
<g id="edge18" class="edge"><title>Node13&#45;&gt;Node3</title>
<path fill="none" stroke="midnightblue" d="M851.676,-129.104C923.629,-122.139 1033.5,-103.522 990,-56 957.703,-20.7154 617.938,-12.9353 512.817,-11.3672"/>
<polygon fill="midnightblue" stroke="midnightblue" points="512.611,-7.8641 502.563,-11.2232 512.512,-14.8634 512.611,-7.8641"/>
</g>
<!-- Node13&#45;&gt;Node5 -->
<g id="edge15" class="edge"><title>Node13&#45;&gt;Node5</title>
<path fill="none" stroke="midnightblue" d="M746.284,-124.492C705.394,-116.77 645.703,-104.133 595,-88 592.427,-87.1814 589.783,-86.2539 587.151,-85.2712"/>
<polygon fill="midnightblue" stroke="midnightblue" points="588.413,-82.0066 577.827,-81.5671 585.828,-88.512 588.413,-82.0066"/>
</g>
<!-- Node14 -->
<g id="node14" class="node"><title>Node14</title>
<polygon fill="none" stroke="#bfbfbf" points="738,-62.5 738,-81.5 788,-81.5 788,-62.5 738,-62.5"/>
<text text-anchor="middle" x="763" y="-69.5" font-family="Helvetica,sans-Serif" font-size="10.00">iomanip</text>
</g>
<!-- Node13&#45;&gt;Node14 -->
<g id="edge16" class="edge"><title>Node13&#45;&gt;Node14</title>
<path fill="none" stroke="midnightblue" d="M790.415,-124.403C785.71,-115.582 778.257,-101.608 772.309,-90.4548"/>
<polygon fill="midnightblue" stroke="midnightblue" points="775.37,-88.7571 767.576,-81.5806 769.194,-92.0512 775.37,-88.7571"/>
</g>
<!-- Node15 -->
<g id="node15" class="node"><title>Node15</title>
<polygon fill="none" stroke="#bfbfbf" points="806,-62.5 806,-81.5 850,-81.5 850,-62.5 806,-62.5"/>
<text text-anchor="middle" x="828" y="-69.5" font-family="Helvetica,sans-Serif" font-size="10.00">vector</text>
</g>
<!-- Node13&#45;&gt;Node15 -->
<g id="edge17" class="edge"><title>Node13&#45;&gt;Node15</title>
<path fill="none" stroke="midnightblue" d="M799.728,-124.403C804.58,-115.582 812.266,-101.608 818.4,-90.4548"/>
<polygon fill="midnightblue" stroke="midnightblue" points="821.528,-92.0295 823.281,-81.5806 815.395,-88.656 821.528,-92.0295"/>
</g>
<!-- Node16 -->
<g id="node16" class="node"><title>Node16</title>
<polygon fill="none" stroke="#bfbfbf" points="868,-62.5 868,-81.5 920,-81.5 920,-62.5 868,-62.5"/>
<text text-anchor="middle" x="894" y="-69.5" font-family="Helvetica,sans-Serif" font-size="10.00">sstream</text>
</g>
<!-- Node13&#45;&gt;Node16 -->
<g id="edge19" class="edge"><title>Node13&#45;&gt;Node16</title>
<path fill="none" stroke="midnightblue" d="M809.184,-124.403C825.358,-114.601 852.026,-98.4385 871.143,-86.8526"/>
<polygon fill="midnightblue" stroke="midnightblue" points="873.104,-89.7569 879.842,-81.5806 869.476,-83.7705 873.104,-89.7569"/>
</g>
<!-- Node17 -->
<g id="node17" class="node"><title>Node17</title>
<polygon fill="none" stroke="#bfbfbf" points="938,-62.5 938,-81.5 982,-81.5 982,-62.5 938,-62.5"/>
<text text-anchor="middle" x="960" y="-69.5" font-family="Helvetica,sans-Serif" font-size="10.00">cmath</text>
</g>
<!-- Node13&#45;&gt;Node17 -->
<g id="edge20" class="edge"><title>Node13&#45;&gt;Node17</title>
<path fill="none" stroke="midnightblue" d="M823.877,-124.465C851.278,-116.094 893.439,-102.506 929,-88 930.599,-87.3479 932.231,-86.6521 933.869,-85.9307"/>
<polygon fill="midnightblue" stroke="midnightblue" points="935.517,-89.0246 943.12,-81.6459 932.575,-82.6728 935.517,-89.0246"/>
</g>
<!-- Node18 -->
<g id="node18" class="node"><title>Node18</title>
<g id="a_node18"><a xlink:href="table__printer_8tpp_8h.html" target="_top" xlink:title="impl/table_printer.tpp.h">
<polygon fill="none" stroke="black" points="604,-62.5 604,-81.5 720,-81.5 720,-62.5 604,-62.5"/>
<text text-anchor="middle" x="662" y="-69.5" font-family="Helvetica,sans-Serif" font-size="10.00">impl/table_printer.tpp.h</text>
</a>
</g>
</g>
<!-- Node13&#45;&gt;Node18 -->
<g id="edge21" class="edge"><title>Node13&#45;&gt;Node18</title>
<path fill="none" stroke="midnightblue" d="M775.944,-124.403C753.525,-114.29 716.095,-97.4036 690.287,-85.761"/>
<polygon fill="midnightblue" stroke="midnightblue" points="691.575,-82.5025 681.02,-81.5806 688.696,-88.8832 691.575,-82.5025"/>
</g>
<!-- Node19&#45;&gt;Node3 -->
<g id="edge23" class="edge"><title>Node19&#45;&gt;Node3</title>
<path fill="none" stroke="midnightblue" d="M292.345,-124.421C327.167,-103.596 416.421,-50.219 458.883,-24.8247"/>
<polygon fill="midnightblue" stroke="midnightblue" points="460.885,-27.7058 467.671,-19.5693 457.292,-21.6981 460.885,-27.7058"/>
</g>
</g>
</svg>
