<?xml version="1.0" encoding="UTF-8" standalone="no"?>
<!DOCTYPE svg PUBLIC "-//W3C//DTD SVG 1.1//EN"
 "http://www.w3.org/Graphics/SVG/1.1/DTD/svg11.dtd">
<!-- Generated by graphviz version 2.38.0 (20140413.2041)
 -->
<!-- Title: /home/lucamuratore/advr&#45;superbuild/external/XBotInterface/src/KinematicChain.cpp Pages: 1 -->
<svg width="1506pt" height="352pt"
 viewBox="0.00 0.00 1505.50 352.00" xmlns="http://www.w3.org/2000/svg" xmlns:xlink="http://www.w3.org/1999/xlink">
<g id="graph0" class="graph" transform="scale(1 1) rotate(0) translate(4 348)">
<title>/home/lucamuratore/advr&#45;superbuild/external/XBotInterface/src/KinematicChain.cpp</title>
<!-- Node1 -->
<g id="node1" class="node"><title>Node1</title>
<polygon fill="#bfbfbf" stroke="black" points="156.5,-302.5 156.5,-343.5 343.5,-343.5 343.5,-302.5 156.5,-302.5"/>
<text text-anchor="start" x="164.5" y="-331.5" font-family="Helvetica,sans-Serif" font-size="10.00">/home/lucamuratore</text>
<text text-anchor="start" x="164.5" y="-320.5" font-family="Helvetica,sans-Serif" font-size="10.00">/advr&#45;superbuild/external</text>
<text text-anchor="middle" x="250" y="-309.5" font-family="Helvetica,sans-Serif" font-size="10.00">/XBotInterface/src/KinematicChain.cpp</text>
</g>
<!-- Node2 -->
<g id="node2" class="node"><title>Node2</title>
<g id="a_node2"><a xlink:href="KinematicChain_8h.html" target="_top" xlink:title="XBotInterface/KinematicChain.h">
<polygon fill="none" stroke="black" points="371.5,-246.5 371.5,-265.5 528.5,-265.5 528.5,-246.5 371.5,-246.5"/>
<text text-anchor="middle" x="450" y="-253.5" font-family="Helvetica,sans-Serif" font-size="10.00">XBotInterface/KinematicChain.h</text>
</a>
</g>
</g>
<!-- Node1&#45;&gt;Node2 -->
<g id="edge1" class="edge"><title>Node1&#45;&gt;Node2</title>
<path fill="none" stroke="midnightblue" d="M310.007,-302.498C343.869,-291.493 385.057,-278.106 413.961,-268.713"/>
<polygon fill="midnightblue" stroke="midnightblue" points="415.211,-271.987 423.64,-265.567 413.048,-265.329 415.211,-271.987"/>
</g>
<!-- Node8 -->
<g id="node8" class="node"><title>Node8</title>
<polygon fill="none" stroke="#bfbfbf" points="0,-0.5 0,-19.5 104,-19.5 104,-0.5 0,-0.5"/>
<text text-anchor="middle" x="52" y="-7.5" font-family="Helvetica,sans-Serif" font-size="10.00">eigen3/Eigen/Dense</text>
</g>
<!-- Node1&#45;&gt;Node8 -->
<g id="edge50" class="edge"><title>Node1&#45;&gt;Node8</title>
<path fill="none" stroke="midnightblue" d="M162.277,-302.478C108.54,-284.761 50,-252.402 50,-195.5 50,-195.5 50,-195.5 50,-132 50,-95.7088 50.9106,-53.3034 51.5029,-29.5574"/>
<polygon fill="midnightblue" stroke="midnightblue" points="55.003,-29.5949 51.7627,-19.5077 48.0053,-29.4139 55.003,-29.5949"/>
</g>
<!-- Node3 -->
<g id="node3" class="node"><title>Node3</title>
<polygon fill="none" stroke="#bfbfbf" points="951.5,-0.5 951.5,-19.5 992.5,-19.5 992.5,-0.5 951.5,-0.5"/>
<text text-anchor="middle" x="972" y="-7.5" font-family="Helvetica,sans-Serif" font-size="10.00">string</text>
</g>
<!-- Node2&#45;&gt;Node3 -->
<g id="edge2" class="edge"><title>Node2&#45;&gt;Node3</title>
<path fill="none" stroke="midnightblue" d="M528.794,-253.476C733.491,-249.174 1271.52,-235.557 1348,-210 1427.83,-183.322 1464.05,-166.394 1492,-87 1496.57,-74.0039 1501.31,-66.1537 1492,-56 1458.84,-19.8451 1109.66,-12.6573 1002.86,-11.3007"/>
<polygon fill="midnightblue" stroke="midnightblue" points="1002.78,-7.79957 992.736,-11.1806 1002.69,-14.7991 1002.78,-7.79957"/>
</g>
<!-- Node4 -->
<g id="node4" class="node"><title>Node4</title>
<polygon fill="none" stroke="#bfbfbf" points="380,-62 380,-81 424,-81 424,-62 380,-62"/>
<text text-anchor="middle" x="402" y="-69" font-family="Helvetica,sans-Serif" font-size="10.00">vector</text>
</g>
<!-- Node2&#45;&gt;Node4 -->
<g id="edge3" class="edge"><title>Node2&#45;&gt;Node4</title>
<path fill="none" stroke="midnightblue" d="M449.873,-246.401C449.321,-224.961 446.4,-167.651 431,-123 426.945,-111.244 420.092,-99.1269 414.066,-89.7095"/>
<polygon fill="midnightblue" stroke="midnightblue" points="416.916,-87.6748 408.45,-81.3054 411.096,-91.5644 416.916,-87.6748"/>
</g>
<!-- Node5 -->
<g id="node5" class="node"><title>Node5</title>
<polygon fill="none" stroke="#bfbfbf" points="122.5,-0.5 122.5,-19.5 157.5,-19.5 157.5,-0.5 122.5,-0.5"/>
<text text-anchor="middle" x="140" y="-7.5" font-family="Helvetica,sans-Serif" font-size="10.00">map</text>
</g>
<!-- Node2&#45;&gt;Node5 -->
<g id="edge4" class="edge"><title>Node2&#45;&gt;Node5</title>
<path fill="none" stroke="midnightblue" d="M397.458,-246.487C364.631,-239.725 322.243,-228.293 288,-210 214.058,-170.499 182.447,-162.003 145,-87 136.064,-69.1028 135.944,-45.8179 137.34,-29.7628"/>
<polygon fill="midnightblue" stroke="midnightblue" points="140.851,-29.8657 138.52,-19.5304 133.897,-29.0633 140.851,-29.8657"/>
</g>
<!-- Node6 -->
<g id="node6" class="node"><title>Node6</title>
<polygon fill="none" stroke="#bfbfbf" points="373,-0.5 373,-19.5 425,-19.5 425,-0.5 373,-0.5"/>
<text text-anchor="middle" x="399" y="-7.5" font-family="Helvetica,sans-Serif" font-size="10.00">memory</text>
</g>
<!-- Node2&#45;&gt;Node6 -->
<g id="edge5" class="edge"><title>Node2&#45;&gt;Node6</title>
<path fill="none" stroke="midnightblue" d="M399.898,-246.433C373.613,-239.935 342.154,-228.79 319,-210 292.071,-188.146 288.221,-176.433 279,-143 276.637,-134.431 275.457,-131.152 279,-123 298.472,-78.1902 345.684,-43.1663 374.747,-24.9186"/>
<polygon fill="midnightblue" stroke="midnightblue" points="376.769,-27.785 383.487,-19.5924 373.127,-21.8075 376.769,-27.785"/>
</g>
<!-- Node7 -->
<g id="node7" class="node"><title>Node7</title>
<polygon fill="none" stroke="#bfbfbf" points="814,-62 814,-81 868,-81 868,-62 814,-62"/>
<text text-anchor="middle" x="841" y="-69" font-family="Helvetica,sans-Serif" font-size="10.00">iostream</text>
</g>
<!-- Node2&#45;&gt;Node7 -->
<g id="edge6" class="edge"><title>Node2&#45;&gt;Node7</title>
<path fill="none" stroke="midnightblue" d="M465.7,-246.439C506.005,-224.605 616.659,-165.567 712,-123 743.937,-108.741 781.216,-94.3864 807.463,-84.6457"/>
<polygon fill="midnightblue" stroke="midnightblue" points="808.777,-87.8918 816.948,-81.1482 806.355,-81.324 808.777,-87.8918"/>
</g>
<!-- Node2&#45;&gt;Node8 -->
<g id="edge7" class="edge"><title>Node2&#45;&gt;Node8</title>
<path fill="none" stroke="midnightblue" d="M371.358,-250.865C326.477,-245.737 270.477,-234.487 226,-210 145.206,-165.518 84.0314,-68.2362 61.4643,-28.4673"/>
<polygon fill="midnightblue" stroke="midnightblue" points="64.4879,-26.7029 56.5702,-19.6629 58.3696,-30.1038 64.4879,-26.7029"/>
</g>
<!-- Node9 -->
<g id="node9" class="node"><title>Node9</title>
<g id="a_node9"><a xlink:href="Joint_8h.html" target="_top" xlink:title="XBotInterface/Joint.h">
<polygon fill="none" stroke="black" points="686.5,-185 686.5,-204 795.5,-204 795.5,-185 686.5,-185"/>
<text text-anchor="middle" x="741" y="-192" font-family="Helvetica,sans-Serif" font-size="10.00">XBotInterface/Joint.h</text>
</a>
</g>
</g>
<!-- Node2&#45;&gt;Node9 -->
<g id="edge8" class="edge"><title>Node2&#45;&gt;Node9</title>
<path fill="none" stroke="midnightblue" d="M492.577,-246.463C537.281,-237.478 609.608,-222.879 672,-210 678.058,-208.75 684.412,-207.428 690.711,-206.112"/>
<polygon fill="midnightblue" stroke="midnightblue" points="691.441,-209.535 700.511,-204.059 690.006,-202.683 691.441,-209.535"/>
</g>
<!-- Node21 -->
<g id="node21" class="node"><title>Node21</title>
<polygon fill="none" stroke="#bfbfbf" points="328,-185 328,-204 422,-204 422,-185 328,-185"/>
<text text-anchor="middle" x="375" y="-192" font-family="Helvetica,sans-Serif" font-size="10.00">XBotCoreModel.h</text>
</g>
<!-- Node2&#45;&gt;Node21 -->
<g id="edge31" class="edge"><title>Node2&#45;&gt;Node21</title>
<path fill="none" stroke="midnightblue" d="M439.254,-246.475C427.447,-237.108 408.257,-221.884 393.918,-210.508"/>
<polygon fill="midnightblue" stroke="midnightblue" points="395.735,-207.482 385.726,-204.009 391.385,-212.966 395.735,-207.482"/>
</g>
<!-- Node22 -->
<g id="node22" class="node"><title>Node22</title>
<g id="a_node22"><a xlink:href="ForceTorqueSensor_8h.html" target="_top" xlink:title="XBotInterface/ForceTorque\lSensor.h">
<polygon fill="none" stroke="black" points="1041,-179.5 1041,-209.5 1175,-209.5 1175,-179.5 1041,-179.5"/>
<text text-anchor="start" x="1049" y="-197.5" font-family="Helvetica,sans-Serif" font-size="10.00">XBotInterface/ForceTorque</text>
<text text-anchor="middle" x="1108" y="-186.5" font-family="Helvetica,sans-Serif" font-size="10.00">Sensor.h</text>
</a>
</g>
</g>
<!-- Node2&#45;&gt;Node22 -->
<g id="edge32" class="edge"><title>Node2&#45;&gt;Node22</title>
<path fill="none" stroke="midnightblue" d="M528.717,-247.882C655.755,-236.394 904.467,-213.905 1030.64,-202.496"/>
<polygon fill="midnightblue" stroke="midnightblue" points="1030.97,-205.98 1040.61,-201.594 1030.34,-199.009 1030.97,-205.98"/>
</g>
<!-- Node27 -->
<g id="node27" class="node"><title>Node27</title>
<g id="a_node27"><a xlink:href="ImuSensor_8h.html" target="_top" xlink:title="XBotInterface/ImuSensor.h">
<polygon fill="none" stroke="black" points="1204.5,-185 1204.5,-204 1339.5,-204 1339.5,-185 1204.5,-185"/>
<text text-anchor="middle" x="1272" y="-192" font-family="Helvetica,sans-Serif" font-size="10.00">XBotInterface/ImuSensor.h</text>
</a>
</g>
</g>
<!-- Node2&#45;&gt;Node27 -->
<g id="edge47" class="edge"><title>Node2&#45;&gt;Node27</title>
<path fill="none" stroke="midnightblue" d="M528.71,-252.81C663.33,-248.476 946.285,-236.801 1184,-210 1194.26,-208.843 1205.15,-207.305 1215.64,-205.663"/>
<polygon fill="midnightblue" stroke="midnightblue" points="1216.22,-209.113 1225.54,-204.066 1215.11,-202.203 1216.22,-209.113"/>
</g>
<!-- Node9&#45;&gt;Node3 -->
<g id="edge9" class="edge"><title>Node9&#45;&gt;Node3</title>
<path fill="none" stroke="midnightblue" d="M795.896,-189.475C833.121,-184.113 881.315,-171.69 914,-143 948.543,-112.678 963.373,-57.9414 968.997,-29.4152"/>
<polygon fill="midnightblue" stroke="midnightblue" points="972.444,-30.0216 970.774,-19.5591 965.555,-28.7791 972.444,-30.0216"/>
</g>
<!-- Node9&#45;&gt;Node6 -->
<g id="edge10" class="edge"><title>Node9&#45;&gt;Node6</title>
<path fill="none" stroke="midnightblue" d="M688.73,-184.974C640.849,-176.517 568.313,-162.072 507,-143 475.791,-133.292 389.187,-114.157 371,-87 358.589,-68.4671 372.308,-43.7218 384.541,-27.5784"/>
<polygon fill="midnightblue" stroke="midnightblue" points="387.437,-29.5635 391.009,-19.5889 381.997,-25.1591 387.437,-29.5635"/>
</g>
<!-- Node9&#45;&gt;Node7 -->
<g id="edge11" class="edge"><title>Node9&#45;&gt;Node7</title>
<path fill="none" stroke="midnightblue" d="M733.859,-184.548C723.52,-170.421 706.971,-142.556 720,-123 725.155,-115.263 773.01,-96.8339 806.965,-84.5108"/>
<polygon fill="midnightblue" stroke="midnightblue" points="808.337,-87.737 816.56,-81.0561 805.965,-81.1509 808.337,-87.737"/>
</g>
<!-- Node10 -->
<g id="node10" class="node"><title>Node10</title>
<polygon fill="none" stroke="#bfbfbf" points="1000.5,-62 1000.5,-81 1113.5,-81 1113.5,-62 1000.5,-62"/>
<text text-anchor="middle" x="1057" y="-69" font-family="Helvetica,sans-Serif" font-size="10.00">srdfdom_advr/model.h</text>
</g>
<!-- Node9&#45;&gt;Node10 -->
<g id="edge12" class="edge"><title>Node9&#45;&gt;Node10</title>
<path fill="none" stroke="midnightblue" d="M795.627,-191.15C847.386,-186.932 925.922,-175.243 986,-143 1010.54,-129.831 1032.19,-105.509 1044.94,-89.1662"/>
<polygon fill="midnightblue" stroke="midnightblue" points="1047.85,-91.1217 1051.07,-81.0294 1042.26,-86.9082 1047.85,-91.1217"/>
</g>
<!-- Node11 -->
<g id="node11" class="node"><title>Node11</title>
<g id="a_node11"><a xlink:href="SyncFlags_8h.html" target="_top" xlink:title="XBotInterface/SyncFlags.h">
<polygon fill="none" stroke="black" points="288,-123.5 288,-142.5 422,-142.5 422,-123.5 288,-123.5"/>
<text text-anchor="middle" x="355" y="-130.5" font-family="Helvetica,sans-Serif" font-size="10.00">XBotInterface/SyncFlags.h</text>
</a>
</g>
</g>
<!-- Node9&#45;&gt;Node11 -->
<g id="edge13" class="edge"><title>Node9&#45;&gt;Node11</title>
<path fill="none" stroke="midnightblue" d="M686.106,-185.038C616.131,-174.252 495.295,-155.626 420.56,-144.106"/>
<polygon fill="midnightblue" stroke="midnightblue" points="420.747,-140.593 410.33,-142.529 419.68,-147.512 420.747,-140.593"/>
</g>
<!-- Node15 -->
<g id="node15" class="node"><title>Node15</title>
<g id="a_node15"><a xlink:href="table__printer_8h.html" target="_top" xlink:title="bprinter/table_printer.h">
<polygon fill="none" stroke="black" points="516.5,-123.5 516.5,-142.5 629.5,-142.5 629.5,-123.5 516.5,-123.5"/>
<text text-anchor="middle" x="573" y="-130.5" font-family="Helvetica,sans-Serif" font-size="10.00">bprinter/table_printer.h</text>
</a>
</g>
</g>
<!-- Node9&#45;&gt;Node15 -->
<g id="edge21" class="edge"><title>Node9&#45;&gt;Node15</title>
<path fill="none" stroke="midnightblue" d="M716.93,-184.975C687.987,-174.725 639.238,-157.459 606.598,-145.899"/>
<polygon fill="midnightblue" stroke="midnightblue" points="607.62,-142.548 597.026,-142.509 605.283,-149.147 607.62,-142.548"/>
</g>
<!-- Node20 -->
<g id="node20" class="node"><title>Node20</title>
<g id="a_node20"><a xlink:href="ControlMode_8h.html" target="_top" xlink:title="XBotInterface/ControlMode.h">
<polygon fill="none" stroke="black" points="762.5,-123.5 762.5,-142.5 905.5,-142.5 905.5,-123.5 762.5,-123.5"/>
<text text-anchor="middle" x="834" y="-130.5" font-family="Helvetica,sans-Serif" font-size="10.00">XBotInterface/ControlMode.h</text>
</a>
</g>
</g>
<!-- Node9&#45;&gt;Node20 -->
<g id="edge29" class="edge"><title>Node9&#45;&gt;Node20</title>
<path fill="none" stroke="midnightblue" d="M754.325,-184.975C769.38,-175.343 794.116,-159.517 812.037,-148.052"/>
<polygon fill="midnightblue" stroke="midnightblue" points="814.163,-150.847 820.7,-142.509 810.39,-144.95 814.163,-150.847"/>
</g>
<!-- Node12 -->
<g id="node12" class="node"><title>Node12</title>
<g id="a_node12"><a xlink:href="TypedefAndEnums_8h.html" target="_top" xlink:title="XBotInterface/TypedefAnd\lEnums.h">
<polygon fill="none" stroke="black" points="154,-56.5 154,-86.5 286,-86.5 286,-56.5 154,-56.5"/>
<text text-anchor="start" x="162" y="-74.5" font-family="Helvetica,sans-Serif" font-size="10.00">XBotInterface/TypedefAnd</text>
<text text-anchor="middle" x="220" y="-63.5" font-family="Helvetica,sans-Serif" font-size="10.00">Enums.h</text>
</a>
</g>
</g>
<!-- Node11&#45;&gt;Node12 -->
<g id="edge14" class="edge"><title>Node11&#45;&gt;Node12</title>
<path fill="none" stroke="midnightblue" d="M335.658,-123.475C316.263,-114.927 285.801,-101.501 261.007,-90.5734"/>
<polygon fill="midnightblue" stroke="midnightblue" points="262.379,-87.3534 251.817,-86.523 259.556,-93.7588 262.379,-87.3534"/>
</g>
<!-- Node12&#45;&gt;Node3 -->
<g id="edge17" class="edge"><title>Node12&#45;&gt;Node3</title>
<path fill="none" stroke="midnightblue" d="M286.125,-63.847C312.516,-61.271 343.185,-58.3765 371,-56 589.421,-37.3378 852.87,-19.0817 941.349,-13.0667"/>
<polygon fill="midnightblue" stroke="midnightblue" points="941.751,-16.5475 951.491,-12.3788 941.277,-9.56359 941.751,-16.5475"/>
</g>
<!-- Node12&#45;&gt;Node5 -->
<g id="edge15" class="edge"><title>Node12&#45;&gt;Node5</title>
<path fill="none" stroke="midnightblue" d="M201.041,-56.3993C188.577,-47.1293 172.303,-35.0254 159.693,-25.6469"/>
<polygon fill="midnightblue" stroke="midnightblue" points="161.753,-22.8173 151.641,-19.6578 157.576,-28.4341 161.753,-22.8173"/>
</g>
<!-- Node12&#45;&gt;Node6 -->
<g id="edge18" class="edge"><title>Node12&#45;&gt;Node6</title>
<path fill="none" stroke="midnightblue" d="M262.421,-56.3993C293.216,-46.1627 334.409,-32.4703 363.476,-22.8082"/>
<polygon fill="midnightblue" stroke="midnightblue" points="364.83,-26.0466 373.215,-19.5709 362.622,-19.404 364.83,-26.0466"/>
</g>
<!-- Node12&#45;&gt;Node8 -->
<g id="edge20" class="edge"><title>Node12&#45;&gt;Node8</title>
<path fill="none" stroke="midnightblue" d="M180.186,-56.3993C151.495,-46.238 113.19,-32.6716 85.9447,-23.0221"/>
<polygon fill="midnightblue" stroke="midnightblue" points="87.0403,-19.6971 76.4455,-19.6578 84.7033,-26.2955 87.0403,-19.6971"/>
</g>
<!-- Node13 -->
<g id="node13" class="node"><title>Node13</title>
<polygon fill="none" stroke="#bfbfbf" points="175.5,-0.5 175.5,-19.5 258.5,-19.5 258.5,-0.5 175.5,-0.5"/>
<text text-anchor="middle" x="217" y="-7.5" font-family="Helvetica,sans-Serif" font-size="10.00">unordered_map</text>
</g>
<!-- Node12&#45;&gt;Node13 -->
<g id="edge16" class="edge"><title>Node12&#45;&gt;Node13</title>
<path fill="none" stroke="midnightblue" d="M219.289,-56.3993C218.889,-48.4664 218.384,-38.458 217.951,-29.8583"/>
<polygon fill="midnightblue" stroke="midnightblue" points="221.436,-29.4688 217.437,-19.6578 214.445,-29.8214 221.436,-29.4688"/>
</g>
<!-- Node14 -->
<g id="node14" class="node"><title>Node14</title>
<polygon fill="none" stroke="#bfbfbf" points="277,-0.5 277,-19.5 355,-19.5 355,-0.5 277,-0.5"/>
<text text-anchor="middle" x="316" y="-7.5" font-family="Helvetica,sans-Serif" font-size="10.00">boost/any.hpp</text>
</g>
<!-- Node12&#45;&gt;Node14 -->
<g id="edge19" class="edge"><title>Node12&#45;&gt;Node14</title>
<path fill="none" stroke="midnightblue" d="M242.751,-56.3993C257.995,-46.9511 277.989,-34.5589 293.236,-25.1089"/>
<polygon fill="midnightblue" stroke="midnightblue" points="295.375,-27.9009 302.031,-19.6578 291.687,-21.951 295.375,-27.9009"/>
</g>
<!-- Node15&#45;&gt;Node3 -->
<g id="edge25" class="edge"><title>Node15&#45;&gt;Node3</title>
<path fill="none" stroke="midnightblue" d="M620.742,-123.497C669.529,-114.352 741.625,-99.4496 767,-87 786.568,-77.3998 785.605,-65.9439 805,-56 849.556,-33.1565 906.922,-20.9794 941.506,-15.2653"/>
<polygon fill="midnightblue" stroke="midnightblue" points="942.135,-18.7094 951.468,-13.6948 941.045,-11.7948 942.135,-18.7094"/>
</g>
<!-- Node15&#45;&gt;Node4 -->
<g id="edge24" class="edge"><title>Node15&#45;&gt;Node4</title>
<path fill="none" stroke="midnightblue" d="M542.572,-123.43C513.949,-115.085 470.07,-101.56 433,-87 431.583,-86.4434 430.139,-85.8529 428.687,-85.241"/>
<polygon fill="midnightblue" stroke="midnightblue" points="429.77,-81.8917 419.211,-81.0214 426.922,-88.2864 429.77,-81.8917"/>
</g>
<!-- Node15&#45;&gt;Node7 -->
<g id="edge22" class="edge"><title>Node15&#45;&gt;Node7</title>
<path fill="none" stroke="midnightblue" d="M627.635,-123.446C673.938,-115.656 741.883,-102.948 800,-87 802.962,-86.1871 806.019,-85.2663 809.065,-84.2925"/>
<polygon fill="midnightblue" stroke="midnightblue" points="810.271,-87.5795 818.629,-81.0682 808.034,-80.9463 810.271,-87.5795"/>
</g>
<!-- Node16 -->
<g id="node16" class="node"><title>Node16</title>
<polygon fill="none" stroke="#bfbfbf" points="708,-62 708,-81 758,-81 758,-62 708,-62"/>
<text text-anchor="middle" x="733" y="-69" font-family="Helvetica,sans-Serif" font-size="10.00">iomanip</text>
</g>
<!-- Node15&#45;&gt;Node16 -->
<g id="edge23" class="edge"><title>Node15&#45;&gt;Node16</title>
<path fill="none" stroke="midnightblue" d="M598.267,-123.476C623.825,-114.737 664.391,-100.546 699,-87 700.602,-86.3729 702.242,-85.7181 703.893,-85.0482"/>
<polygon fill="midnightblue" stroke="midnightblue" points="705.415,-88.2061 713.306,-81.136 702.729,-81.7421 705.415,-88.2061"/>
</g>
<!-- Node17 -->
<g id="node17" class="node"><title>Node17</title>
<polygon fill="none" stroke="#bfbfbf" points="442,-62 442,-81 494,-81 494,-62 442,-62"/>
<text text-anchor="middle" x="468" y="-69" font-family="Helvetica,sans-Serif" font-size="10.00">sstream</text>
</g>
<!-- Node15&#45;&gt;Node17 -->
<g id="edge26" class="edge"><title>Node15&#45;&gt;Node17</title>
<path fill="none" stroke="midnightblue" d="M557.956,-123.475C540.725,-113.711 512.26,-97.5807 491.966,-86.0808"/>
<polygon fill="midnightblue" stroke="midnightblue" points="493.442,-82.8942 483.016,-81.0091 489.991,-88.9843 493.442,-82.8942"/>
</g>
<!-- Node18 -->
<g id="node18" class="node"><title>Node18</title>
<polygon fill="none" stroke="#bfbfbf" points="512,-62 512,-81 556,-81 556,-62 512,-62"/>
<text text-anchor="middle" x="534" y="-69" font-family="Helvetica,sans-Serif" font-size="10.00">cmath</text>
</g>
<!-- Node15&#45;&gt;Node18 -->
<g id="edge27" class="edge"><title>Node15&#45;&gt;Node18</title>
<path fill="none" stroke="midnightblue" d="M567.412,-123.475C561.62,-114.638 552.411,-100.589 545.126,-89.475"/>
<polygon fill="midnightblue" stroke="midnightblue" points="547.987,-87.4539 539.577,-81.0091 542.132,-91.2913 547.987,-87.4539"/>
</g>
<!-- Node19 -->
<g id="node19" class="node"><title>Node19</title>
<g id="a_node19"><a xlink:href="table__printer_8tpp_8h.html" target="_top" xlink:title="impl/table_printer.tpp.h">
<polygon fill="none" stroke="black" points="574,-62 574,-81 690,-81 690,-62 574,-62"/>
<text text-anchor="middle" x="632" y="-69" font-family="Helvetica,sans-Serif" font-size="10.00">impl/table_printer.tpp.h</text>
</a>
</g>
</g>
<!-- Node15&#45;&gt;Node19 -->
<g id="edge28" class="edge"><title>Node15&#45;&gt;Node19</title>
<path fill="none" stroke="midnightblue" d="M581.453,-123.475C590.566,-114.285 605.27,-99.4563 616.476,-88.156"/>
<polygon fill="midnightblue" stroke="midnightblue" points="619.007,-90.5744 623.562,-81.0091 614.036,-85.6455 619.007,-90.5744"/>
</g>
<!-- Node20&#45;&gt;Node3 -->
<g id="edge30" class="edge"><title>Node20&#45;&gt;Node3</title>
<path fill="none" stroke="midnightblue" d="M843.925,-123.298C867.099,-102.978 925.027,-52.1863 954.372,-26.4566"/>
<polygon fill="midnightblue" stroke="midnightblue" points="956.954,-28.8476 962.165,-19.6232 952.339,-23.5843 956.954,-28.8476"/>
</g>
<!-- Node22&#45;&gt;Node3 -->
<g id="edge33" class="edge"><title>Node22&#45;&gt;Node3</title>
<path fill="none" stroke="midnightblue" d="M1175.25,-182.018C1246.99,-169.447 1351.17,-150.129 1357,-143 1362.63,-136.118 1359.41,-131.556 1357,-123 1347.53,-89.3969 1345.28,-75.0109 1316,-56 1264.6,-22.6281 1077.56,-13.8769 1002.99,-11.691"/>
<polygon fill="midnightblue" stroke="midnightblue" points="1002.93,-8.18802 992.836,-11.4139 1002.74,-15.1854 1002.93,-8.18802"/>
</g>
<!-- Node22&#45;&gt;Node6 -->
<g id="edge34" class="edge"><title>Node22&#45;&gt;Node6</title>
<path fill="none" stroke="midnightblue" d="M1090.49,-179.28C1053.63,-150.235 964.185,-84.4467 877,-56 794.893,-29.2103 532.49,-16.3051 435.493,-12.3604"/>
<polygon fill="midnightblue" stroke="midnightblue" points="435.431,-8.85526 425.3,-11.9543 435.153,-15.8497 435.431,-8.85526"/>
</g>
<!-- Node22&#45;&gt;Node7 -->
<g id="edge35" class="edge"><title>Node22&#45;&gt;Node7</title>
<path fill="none" stroke="midnightblue" d="M1040.88,-193.963C948.53,-193.004 789.518,-185.08 753,-143 747.174,-136.287 748.545,-130.692 753,-123 759.643,-111.529 788.889,-96.0922 811.866,-85.3166"/>
<polygon fill="midnightblue" stroke="midnightblue" points="813.619,-88.3632 821.246,-81.009 810.698,-82.0019 813.619,-88.3632"/>
</g>
<!-- Node22&#45;&gt;Node10 -->
<g id="edge39" class="edge"><title>Node22&#45;&gt;Node10</title>
<path fill="none" stroke="midnightblue" d="M1093.06,-179.474C1084,-170.056 1073.05,-156.87 1067,-143 1059.82,-126.55 1057.57,-106.082 1056.96,-91.4458"/>
<polygon fill="midnightblue" stroke="midnightblue" points="1060.46,-91.0777 1056.77,-81.1457 1053.46,-91.2102 1060.46,-91.0777"/>
</g>
<!-- Node23 -->
<g id="node23" class="node"><title>Node23</title>
<polygon fill="none" stroke="#bfbfbf" points="1076,-123.5 1076,-142.5 1140,-142.5 1140,-123.5 1076,-123.5"/>
<text text-anchor="middle" x="1108" y="-130.5" font-family="Helvetica,sans-Serif" font-size="10.00">kdl/kdl.hpp</text>
</g>
<!-- Node22&#45;&gt;Node23 -->
<g id="edge36" class="edge"><title>Node22&#45;&gt;Node23</title>
<path fill="none" stroke="midnightblue" d="M1108,-179.399C1108,-171.466 1108,-161.458 1108,-152.858"/>
<polygon fill="midnightblue" stroke="midnightblue" points="1111.5,-152.658 1108,-142.658 1104.5,-152.658 1111.5,-152.658"/>
</g>
<!-- Node24 -->
<g id="node24" class="node"><title>Node24</title>
<polygon fill="none" stroke="#bfbfbf" points="1132,-56.5 1132,-86.5 1256,-86.5 1256,-56.5 1132,-56.5"/>
<text text-anchor="start" x="1140" y="-74.5" font-family="Helvetica,sans-Serif" font-size="10.00">eigen_conversions/eigen</text>
<text text-anchor="middle" x="1194" y="-63.5" font-family="Helvetica,sans-Serif" font-size="10.00">_kdl.h</text>
</g>
<!-- Node22&#45;&gt;Node24 -->
<g id="edge37" class="edge"><title>Node22&#45;&gt;Node24</title>
<path fill="none" stroke="midnightblue" d="M1120.29,-179.258C1128.68,-169.326 1139.88,-155.638 1149,-143 1160.22,-127.448 1171.84,-109.179 1180.46,-95.1354"/>
<polygon fill="midnightblue" stroke="midnightblue" points="1183.45,-96.9507 1185.66,-86.5879 1177.47,-93.3137 1183.45,-96.9507"/>
</g>
<!-- Node25 -->
<g id="node25" class="node"><title>Node25</title>
<polygon fill="none" stroke="#bfbfbf" points="1396.5,-62 1396.5,-81 1483.5,-81 1483.5,-62 1396.5,-62"/>
<text text-anchor="middle" x="1440" y="-69" font-family="Helvetica,sans-Serif" font-size="10.00">Eigen/Geometry</text>
</g>
<!-- Node22&#45;&gt;Node25 -->
<g id="edge38" class="edge"><title>Node22&#45;&gt;Node25</title>
<path fill="none" stroke="midnightblue" d="M1175.21,-182.107C1257.17,-168.123 1385.44,-145.894 1390,-143 1409.93,-130.348 1424.25,-106.616 1432.33,-90.2038"/>
<polygon fill="midnightblue" stroke="midnightblue" points="1435.52,-91.6404 1436.54,-81.0952 1429.17,-88.7002 1435.52,-91.6404"/>
</g>
<!-- Node26 -->
<g id="node26" class="node"><title>Node26</title>
<g id="a_node26"><a xlink:href="GenericSensor_8h.html" target="_top" xlink:title="XBotInterface/GenericSensor.h">
<polygon fill="none" stroke="black" points="1196,-123.5 1196,-142.5 1348,-142.5 1348,-123.5 1196,-123.5"/>
<text text-anchor="middle" x="1272" y="-130.5" font-family="Helvetica,sans-Serif" font-size="10.00">XBotInterface/GenericSensor.h</text>
</a>
</g>
</g>
<!-- Node22&#45;&gt;Node26 -->
<g id="edge40" class="edge"><title>Node22&#45;&gt;Node26</title>
<path fill="none" stroke="midnightblue" d="M1146.87,-179.399C1174.75,-169.283 1211.94,-155.791 1238.51,-146.149"/>
<polygon fill="midnightblue" stroke="midnightblue" points="1239.93,-149.359 1248.14,-142.658 1237.54,-142.778 1239.93,-149.359"/>
</g>
<!-- Node26&#45;&gt;Node3 -->
<g id="edge41" class="edge"><title>Node26&#45;&gt;Node3</title>
<path fill="none" stroke="midnightblue" d="M1279.76,-123.433C1292.65,-108.164 1315.41,-75.9753 1298,-56 1259.81,-12.1745 1076.35,-9.58866 1002.7,-10.3716"/>
<polygon fill="midnightblue" stroke="midnightblue" points="1002.61,-6.8724 992.658,-10.5071 1002.7,-13.8718 1002.61,-6.8724"/>
</g>
<!-- Node26&#45;&gt;Node6 -->
<g id="edge42" class="edge"><title>Node26&#45;&gt;Node6</title>
<path fill="none" stroke="midnightblue" d="M1274.35,-123.43C1278.11,-107.563 1283.34,-73.6265 1265,-56 1234.66,-26.8442 596.585,-14.2888 435.62,-11.5786"/>
<polygon fill="midnightblue" stroke="midnightblue" points="435.35,-8.07369 425.293,-11.4073 435.233,-15.0727 435.35,-8.07369"/>
</g>
<!-- Node26&#45;&gt;Node7 -->
<g id="edge43" class="edge"><title>Node26&#45;&gt;Node7</title>
<path fill="none" stroke="midnightblue" d="M1210.25,-123.475C1119.51,-110.949 952.89,-87.9466 878.54,-77.6824"/>
<polygon fill="midnightblue" stroke="midnightblue" points="878.645,-74.1637 868.26,-76.2632 877.687,-81.098 878.645,-74.1637"/>
</g>
<!-- Node26&#45;&gt;Node10 -->
<g id="edge46" class="edge"><title>Node26&#45;&gt;Node10</title>
<path fill="none" stroke="midnightblue" d="M1241.2,-123.475C1203.44,-113.026 1139.34,-95.2868 1097.59,-83.7332"/>
<polygon fill="midnightblue" stroke="midnightblue" points="1098.32,-80.3031 1087.75,-81.0091 1096.45,-87.0496 1098.32,-80.3031"/>
</g>
<!-- Node26&#45;&gt;Node24 -->
<g id="edge45" class="edge"><title>Node26&#45;&gt;Node24</title>
<path fill="none" stroke="midnightblue" d="M1260.82,-123.475C1250.36,-115.492 1234.32,-103.254 1220.57,-92.7703"/>
<polygon fill="midnightblue" stroke="midnightblue" points="1222.46,-89.8053 1212.38,-86.523 1218.21,-95.3708 1222.46,-89.8053"/>
</g>
<!-- Node26&#45;&gt;Node25 -->
<g id="edge44" class="edge"><title>Node26&#45;&gt;Node25</title>
<path fill="none" stroke="midnightblue" d="M1296.07,-123.475C1325.01,-113.225 1373.76,-95.9593 1406.4,-84.3994"/>
<polygon fill="midnightblue" stroke="midnightblue" points="1407.72,-87.6468 1415.97,-81.0091 1405.38,-81.0484 1407.72,-87.6468"/>
</g>
<!-- Node27&#45;&gt;Node25 -->
<g id="edge49" class="edge"><title>Node27&#45;&gt;Node25</title>
<path fill="none" stroke="midnightblue" d="M1339.57,-187.524C1370.87,-181.227 1405.93,-168.513 1428,-143 1440.29,-128.795 1442.24,-106.759 1441.79,-91.1081"/>
<polygon fill="midnightblue" stroke="midnightblue" points="1445.27,-90.7991 1441.14,-81.0435 1438.29,-91.247 1445.27,-90.7991"/>
</g>
<!-- Node27&#45;&gt;Node26 -->
<g id="edge48" class="edge"><title>Node27&#45;&gt;Node26</title>
<path fill="none" stroke="midnightblue" d="M1272,-184.975C1272,-176.58 1272,-163.481 1272,-152.663"/>
<polygon fill="midnightblue" stroke="midnightblue" points="1275.5,-152.509 1272,-142.509 1268.5,-152.509 1275.5,-152.509"/>
</g>
</g>
</svg>
