<?xml version="1.0" encoding="UTF-8" standalone="no"?>
<!DOCTYPE svg PUBLIC "-//W3C//DTD SVG 1.1//EN"
 "http://www.w3.org/Graphics/SVG/1.1/DTD/svg11.dtd">
<!-- Generated by graphviz version 2.36.0 (20140111.2315)
 -->
<!-- Title: /home/lucamuratore/advr&#45;superbuild/external/XBotInterface/src/KinematicChain.cpp Pages: 1 -->
<svg width="1506pt" height="354pt"
 viewBox="0.00 0.00 1505.68 354.00" xmlns="http://www.w3.org/2000/svg" xmlns:xlink="http://www.w3.org/1999/xlink">
<g id="graph0" class="graph" transform="scale(1 1) rotate(0) translate(4 350)">
<title>/home/lucamuratore/advr&#45;superbuild/external/XBotInterface/src/KinematicChain.cpp</title>
<!-- Node1 -->
<g id="node1" class="node"><title>Node1</title>
<polygon fill="#bfbfbf" stroke="black" points="156.5,-304.5 156.5,-345.5 343.5,-345.5 343.5,-304.5 156.5,-304.5"/>
<text text-anchor="start" x="164.5" y="-333.5" font-family="Helvetica,sans-Serif" font-size="10.00">/home/lucamuratore</text>
<text text-anchor="start" x="164.5" y="-322.5" font-family="Helvetica,sans-Serif" font-size="10.00">/advr&#45;superbuild/external</text>
<text text-anchor="middle" x="250" y="-311.5" font-family="Helvetica,sans-Serif" font-size="10.00">/XBotInterface/src/KinematicChain.cpp</text>
</g>
<!-- Node2 -->
<g id="node2" class="node"><title>Node2</title>
<g id="a_node2"><a xlink:href="KinematicChain_8h.html" target="_top" xlink:title="XBotInterface/KinematicChain.h">
<polygon fill="none" stroke="black" points="371.5,-248.5 371.5,-267.5 528.5,-267.5 528.5,-248.5 371.5,-248.5"/>
<text text-anchor="middle" x="450" y="-255.5" font-family="Helvetica,sans-Serif" font-size="10.00">XBotInterface/KinematicChain.h</text>
</a>
</g>
</g>
<!-- Node1&#45;&gt;Node2 -->
<g id="edge1" class="edge"><title>Node1&#45;&gt;Node2</title>
<path fill="none" stroke="midnightblue" d="M310.007,-304.498C343.869,-293.493 385.057,-280.106 413.961,-270.713"/>
<polygon fill="midnightblue" stroke="midnightblue" points="415.211,-273.987 423.64,-267.567 413.048,-267.329 415.211,-273.987"/>
</g>
<!-- Node8 -->
<g id="node8" class="node"><title>Node8</title>
<polygon fill="none" stroke="#bfbfbf" points="0,-0.5 0,-19.5 104,-19.5 104,-0.5 0,-0.5"/>
<text text-anchor="middle" x="52" y="-7.5" font-family="Helvetica,sans-Serif" font-size="10.00">eigen3/Eigen/Dense</text>
</g>
<!-- Node1&#45;&gt;Node8 -->
<g id="edge50" class="edge"><title>Node1&#45;&gt;Node8</title>
<path fill="none" stroke="midnightblue" d="M162.859,-304.491C108.963,-286.701 50,-254.172 50,-197 50,-197 50,-197 50,-133 50,-96.409 50.9106,-53.653 51.5029,-29.7108"/>
<polygon fill="midnightblue" stroke="midnightblue" points="55.0051,-29.6645 51.7627,-19.5781 48.0074,-29.485 55.0051,-29.6645"/>
</g>
<!-- Node3 -->
<g id="node3" class="node"><title>Node3</title>
<polygon fill="none" stroke="#bfbfbf" points="951.5,-0.5 951.5,-19.5 992.5,-19.5 992.5,-0.5 951.5,-0.5"/>
<text text-anchor="middle" x="972" y="-7.5" font-family="Helvetica,sans-Serif" font-size="10.00">string</text>
</g>
<!-- Node2&#45;&gt;Node3 -->
<g id="edge2" class="edge"><title>Node2&#45;&gt;Node3</title>
<path fill="none" stroke="midnightblue" d="M528.804,-255.505C733.525,-251.276 1271.61,-237.821 1348,-212 1428.01,-184.955 1463.96,-167.667 1492,-88 1496.72,-74.5846 1501.61,-66.4812 1492,-56 1458.84,-19.8451 1109.66,-12.6573 1002.86,-11.3007"/>
<polygon fill="midnightblue" stroke="midnightblue" points="1002.78,-7.79957 992.736,-11.1806 1002.69,-14.7991 1002.78,-7.79957"/>
</g>
<!-- Node4 -->
<g id="node4" class="node"><title>Node4</title>
<polygon fill="none" stroke="#bfbfbf" points="380,-62.5 380,-81.5 424,-81.5 424,-62.5 380,-62.5"/>
<text text-anchor="middle" x="402" y="-69.5" font-family="Helvetica,sans-Serif" font-size="10.00">vector</text>
</g>
<!-- Node2&#45;&gt;Node4 -->
<g id="edge3" class="edge"><title>Node2&#45;&gt;Node4</title>
<path fill="none" stroke="midnightblue" d="M449.872,-248.34C449.319,-226.747 446.395,-169.023 431,-124 426.897,-112.001 419.926,-99.6107 413.847,-90.0476"/>
<polygon fill="midnightblue" stroke="midnightblue" points="416.65,-87.9424 408.204,-81.546 410.818,-91.8134 416.65,-87.9424"/>
</g>
<!-- Node5 -->
<g id="node5" class="node"><title>Node5</title>
<polygon fill="none" stroke="#bfbfbf" points="122.5,-0.5 122.5,-19.5 157.5,-19.5 157.5,-0.5 122.5,-0.5"/>
<text text-anchor="middle" x="140" y="-7.5" font-family="Helvetica,sans-Serif" font-size="10.00">map</text>
</g>
<!-- Node2&#45;&gt;Node5 -->
<g id="edge4" class="edge"><title>Node2&#45;&gt;Node5</title>
<path fill="none" stroke="midnightblue" d="M397.062,-248.458C364.277,-241.704 322.077,-230.293 288,-212 213.881,-172.213 182.394,-163.354 145,-88 135.991,-69.8464 135.884,-46.2589 137.303,-29.9992"/>
<polygon fill="midnightblue" stroke="midnightblue" points="140.829,-29.973 138.501,-19.6371 133.876,-29.169 140.829,-29.973"/>
</g>
<!-- Node6 -->
<g id="node6" class="node"><title>Node6</title>
<polygon fill="none" stroke="#bfbfbf" points="373,-0.5 373,-19.5 425,-19.5 425,-0.5 373,-0.5"/>
<text text-anchor="middle" x="399" y="-7.5" font-family="Helvetica,sans-Serif" font-size="10.00">memory</text>
</g>
<!-- Node2&#45;&gt;Node6 -->
<g id="edge5" class="edge"><title>Node2&#45;&gt;Node6</title>
<path fill="none" stroke="midnightblue" d="M399.85,-248.493C373.549,-242.012 342.093,-230.865 319,-212 291.846,-189.817 288.213,-177.831 279,-144 276.665,-135.423 275.475,-132.16 279,-124 298.454,-78.9602 345.672,-43.5659 374.741,-25.0986"/>
<polygon fill="midnightblue" stroke="midnightblue" points="376.809,-27.9352 383.483,-19.7067 373.135,-21.9772 376.809,-27.9352"/>
</g>
<!-- Node7 -->
<g id="node7" class="node"><title>Node7</title>
<polygon fill="none" stroke="#bfbfbf" points="814,-62.5 814,-81.5 868,-81.5 868,-62.5 814,-62.5"/>
<text text-anchor="middle" x="841" y="-69.5" font-family="Helvetica,sans-Serif" font-size="10.00">iostream</text>
</g>
<!-- Node2&#45;&gt;Node7 -->
<g id="edge6" class="edge"><title>Node2&#45;&gt;Node7</title>
<path fill="none" stroke="midnightblue" d="M465.699,-248.38C506.001,-226.394 616.649,-166.938 712,-124 744.128,-109.533 781.668,-94.9436 807.94,-85.0976"/>
<polygon fill="midnightblue" stroke="midnightblue" points="809.273,-88.3362 817.423,-81.5664 806.83,-81.7763 809.273,-88.3362"/>
</g>
<!-- Node2&#45;&gt;Node8 -->
<g id="edge7" class="edge"><title>Node2&#45;&gt;Node8</title>
<path fill="none" stroke="midnightblue" d="M371.29,-252.989C326.386,-247.902 270.386,-236.652 226,-212 144.91,-166.964 83.9045,-68.7654 61.4234,-28.628"/>
<polygon fill="midnightblue" stroke="midnightblue" points="64.4272,-26.8265 56.5491,-19.7423 58.2899,-30.1931 64.4272,-26.8265"/>
</g>
<!-- Node9 -->
<g id="node9" class="node"><title>Node9</title>
<g id="a_node9"><a xlink:href="Joint_8h.html" target="_top" xlink:title="XBotInterface/Joint.h">
<polygon fill="none" stroke="black" points="686.5,-186.5 686.5,-205.5 795.5,-205.5 795.5,-186.5 686.5,-186.5"/>
<text text-anchor="middle" x="741" y="-193.5" font-family="Helvetica,sans-Serif" font-size="10.00">XBotInterface/Joint.h</text>
</a>
</g>
</g>
<!-- Node2&#45;&gt;Node9 -->
<g id="edge8" class="edge"><title>Node2&#45;&gt;Node9</title>
<path fill="none" stroke="midnightblue" d="M493.01,-248.468C537.76,-239.547 609.845,-225.055 672,-212 678.61,-210.612 685.57,-209.126 692.424,-207.65"/>
<polygon fill="midnightblue" stroke="midnightblue" points="693.303,-211.041 702.337,-205.505 691.823,-204.199 693.303,-211.041"/>
</g>
<!-- Node21 -->
<g id="node21" class="node"><title>Node21</title>
<polygon fill="none" stroke="#bfbfbf" points="328,-186.5 328,-205.5 422,-205.5 422,-186.5 328,-186.5"/>
<text text-anchor="middle" x="375" y="-193.5" font-family="Helvetica,sans-Serif" font-size="10.00">XBotCoreModel.h</text>
</g>
<!-- Node2&#45;&gt;Node21 -->
<g id="edge31" class="edge"><title>Node2&#45;&gt;Node21</title>
<path fill="none" stroke="midnightblue" d="M439.254,-248.403C427.447,-238.958 408.257,-223.606 393.918,-212.134"/>
<polygon fill="midnightblue" stroke="midnightblue" points="395.721,-209.095 385.726,-205.581 391.348,-214.561 395.721,-209.095"/>
</g>
<!-- Node22 -->
<g id="node22" class="node"><title>Node22</title>
<g id="a_node22"><a xlink:href="ForceTorqueSensor_8h.html" target="_top" xlink:title="XBotInterface/ForceTorque\lSensor.h">
<polygon fill="none" stroke="black" points="1041,-181 1041,-211 1175,-211 1175,-181 1041,-181"/>
<text text-anchor="start" x="1049" y="-199" font-family="Helvetica,sans-Serif" font-size="10.00">XBotInterface/ForceTorque</text>
<text text-anchor="middle" x="1108" y="-188" font-family="Helvetica,sans-Serif" font-size="10.00">Sensor.h</text>
</a>
</g>
</g>
<!-- Node2&#45;&gt;Node22 -->
<g id="edge32" class="edge"><title>Node2&#45;&gt;Node22</title>
<path fill="none" stroke="midnightblue" d="M528.717,-249.822C655.755,-238.238 904.467,-215.559 1030.64,-204.054"/>
<polygon fill="midnightblue" stroke="midnightblue" points="1030.97,-207.539 1040.61,-203.145 1030.34,-200.567 1030.97,-207.539"/>
</g>
<!-- Node27 -->
<g id="node27" class="node"><title>Node27</title>
<g id="a_node27"><a xlink:href="ImuSensor_8h.html" target="_top" xlink:title="XBotInterface/ImuSensor.h">
<polygon fill="none" stroke="black" points="1204.5,-186.5 1204.5,-205.5 1339.5,-205.5 1339.5,-186.5 1204.5,-186.5"/>
<text text-anchor="middle" x="1272" y="-193.5" font-family="Helvetica,sans-Serif" font-size="10.00">XBotInterface/ImuSensor.h</text>
</a>
</g>
</g>
<!-- Node2&#45;&gt;Node27 -->
<g id="edge47" class="edge"><title>Node2&#45;&gt;Node27</title>
<path fill="none" stroke="midnightblue" d="M528.726,-254.952C663.37,-250.828 946.36,-239.457 1184,-212 1194.84,-210.747 1206.38,-209.048 1217.41,-207.243"/>
<polygon fill="midnightblue" stroke="midnightblue" points="1218.09,-210.679 1227.37,-205.566 1216.92,-203.777 1218.09,-210.679"/>
</g>
<!-- Node9&#45;&gt;Node3 -->
<g id="edge9" class="edge"><title>Node9&#45;&gt;Node3</title>
<path fill="none" stroke="midnightblue" d="M795.527,-190.886C832.822,-185.452 881.25,-172.905 914,-144 948.68,-113.391 963.45,-58.2646 969.029,-29.5409"/>
<polygon fill="midnightblue" stroke="midnightblue" points="972.489,-30.0749 970.791,-19.6171 965.597,-28.8517 972.489,-30.0749"/>
</g>
<!-- Node9&#45;&gt;Node6 -->
<g id="edge10" class="edge"><title>Node9&#45;&gt;Node6</title>
<path fill="none" stroke="midnightblue" d="M689.66,-186.5C641.795,-177.945 568.717,-163.267 507,-144 475.801,-134.26 389.187,-115.157 371,-88 358.445,-69.2522 372.199,-44.1744 384.479,-27.8091"/>
<polygon fill="midnightblue" stroke="midnightblue" points="387.449,-29.7006 390.973,-19.7092 381.987,-25.3219 387.449,-29.7006"/>
</g>
<!-- Node9&#45;&gt;Node7 -->
<g id="edge11" class="edge"><title>Node9&#45;&gt;Node7</title>
<path fill="none" stroke="midnightblue" d="M734.183,-186.446C723.855,-172.374 706.779,-143.921 720,-124 722.665,-119.985 774.605,-99.0215 809.56,-85.252"/>
<polygon fill="midnightblue" stroke="midnightblue" points="810.885,-88.492 818.914,-81.5791 808.326,-81.9764 810.885,-88.492"/>
</g>
<!-- Node10 -->
<g id="node10" class="node"><title>Node10</title>
<polygon fill="none" stroke="#bfbfbf" points="1000.5,-62.5 1000.5,-81.5 1113.5,-81.5 1113.5,-62.5 1000.5,-62.5"/>
<text text-anchor="middle" x="1057" y="-69.5" font-family="Helvetica,sans-Serif" font-size="10.00">srdfdom_advr/model.h</text>
</g>
<!-- Node9&#45;&gt;Node10 -->
<g id="edge12" class="edge"><title>Node9&#45;&gt;Node10</title>
<path fill="none" stroke="midnightblue" d="M795.656,-192.564C847.436,-188.258 925.987,-176.421 986,-144 1010.59,-130.717 1032.22,-106.227 1044.96,-89.7757"/>
<polygon fill="midnightblue" stroke="midnightblue" points="1047.9,-91.6898 1051.09,-81.5851 1042.3,-87.498 1047.9,-91.6898"/>
</g>
<!-- Node11 -->
<g id="node11" class="node"><title>Node11</title>
<g id="a_node11"><a xlink:href="SyncFlags_8h.html" target="_top" xlink:title="XBotInterface/SyncFlags.h">
<polygon fill="none" stroke="black" points="288,-124.5 288,-143.5 422,-143.5 422,-124.5 288,-124.5"/>
<text text-anchor="middle" x="355" y="-131.5" font-family="Helvetica,sans-Serif" font-size="10.00">XBotInterface/SyncFlags.h</text>
</a>
</g>
</g>
<!-- Node9&#45;&gt;Node11 -->
<g id="edge13" class="edge"><title>Node9&#45;&gt;Node11</title>
<path fill="none" stroke="midnightblue" d="M686.106,-186.467C615.933,-175.559 494.608,-156.701 419.924,-145.092"/>
<polygon fill="midnightblue" stroke="midnightblue" points="420.124,-141.581 409.705,-143.503 419.049,-148.498 420.124,-141.581"/>
</g>
<!-- Node15 -->
<g id="node15" class="node"><title>Node15</title>
<g id="a_node15"><a xlink:href="table__printer_8h.html" target="_top" xlink:title="bprinter/table_printer.h">
<polygon fill="none" stroke="black" points="516.5,-124.5 516.5,-143.5 629.5,-143.5 629.5,-124.5 516.5,-124.5"/>
<text text-anchor="middle" x="573" y="-131.5" font-family="Helvetica,sans-Serif" font-size="10.00">bprinter/table_printer.h</text>
</a>
</g>
</g>
<!-- Node9&#45;&gt;Node15 -->
<g id="edge21" class="edge"><title>Node9&#45;&gt;Node15</title>
<path fill="none" stroke="midnightblue" d="M716.93,-186.403C687.987,-176.067 639.238,-158.656 606.598,-146.999"/>
<polygon fill="midnightblue" stroke="midnightblue" points="607.62,-143.648 597.026,-143.581 605.266,-150.24 607.62,-143.648"/>
</g>
<!-- Node20 -->
<g id="node20" class="node"><title>Node20</title>
<g id="a_node20"><a xlink:href="ControlMode_8h.html" target="_top" xlink:title="XBotInterface/ControlMode.h">
<polygon fill="none" stroke="black" points="762.5,-124.5 762.5,-143.5 905.5,-143.5 905.5,-124.5 762.5,-124.5"/>
<text text-anchor="middle" x="834" y="-131.5" font-family="Helvetica,sans-Serif" font-size="10.00">XBotInterface/ControlMode.h</text>
</a>
</g>
</g>
<!-- Node9&#45;&gt;Node20 -->
<g id="edge29" class="edge"><title>Node9&#45;&gt;Node20</title>
<path fill="none" stroke="midnightblue" d="M754.325,-186.403C769.38,-176.691 794.116,-160.732 812.037,-149.17"/>
<polygon fill="midnightblue" stroke="midnightblue" points="814.195,-151.943 820.7,-143.581 810.4,-146.061 814.195,-151.943"/>
</g>
<!-- Node12 -->
<g id="node12" class="node"><title>Node12</title>
<g id="a_node12"><a xlink:href="TypedefAndEnums_8h.html" target="_top" xlink:title="XBotInterface/TypedefAnd\lEnums.h">
<polygon fill="none" stroke="black" points="154,-57 154,-87 286,-87 286,-57 154,-57"/>
<text text-anchor="start" x="162" y="-75" font-family="Helvetica,sans-Serif" font-size="10.00">XBotInterface/TypedefAnd</text>
<text text-anchor="middle" x="220" y="-64" font-family="Helvetica,sans-Serif" font-size="10.00">Enums.h</text>
</a>
</g>
</g>
<!-- Node11&#45;&gt;Node12 -->
<g id="edge14" class="edge"><title>Node11&#45;&gt;Node12</title>
<path fill="none" stroke="midnightblue" d="M335.658,-124.403C316.199,-115.755 285.598,-102.155 260.759,-91.1152"/>
<polygon fill="midnightblue" stroke="midnightblue" points="262.117,-87.8884 251.557,-87.0253 259.274,-94.2851 262.117,-87.8884"/>
</g>
<!-- Node12&#45;&gt;Node3 -->
<g id="edge17" class="edge"><title>Node12&#45;&gt;Node3</title>
<path fill="none" stroke="midnightblue" d="M286.12,-64.081C312.51,-61.4111 343.18,-58.4229 371,-56 589.39,-36.9796 852.858,-18.9516 941.346,-13.0312"/>
<polygon fill="midnightblue" stroke="midnightblue" points="941.744,-16.5125 951.489,-12.3544 941.278,-9.52806 941.744,-16.5125"/>
</g>
<!-- Node12&#45;&gt;Node5 -->
<g id="edge15" class="edge"><title>Node12&#45;&gt;Node5</title>
<path fill="none" stroke="midnightblue" d="M201.041,-56.7808C188.577,-47.4329 172.303,-35.2273 159.693,-25.77"/>
<polygon fill="midnightblue" stroke="midnightblue" points="161.741,-22.9306 151.641,-19.7305 157.541,-28.5306 161.741,-22.9306"/>
</g>
<!-- Node12&#45;&gt;Node6 -->
<g id="edge18" class="edge"><title>Node12&#45;&gt;Node6</title>
<path fill="none" stroke="midnightblue" d="M261.968,-56.9327C292.933,-46.553 334.594,-32.5887 363.822,-22.7916"/>
<polygon fill="midnightblue" stroke="midnightblue" points="365.235,-26.0095 373.604,-19.5127 363.01,-19.3724 365.235,-26.0095"/>
</g>
<!-- Node12&#45;&gt;Node8 -->
<g id="edge20" class="edge"><title>Node12&#45;&gt;Node8</title>
<path fill="none" stroke="midnightblue" d="M180.611,-56.9327C151.762,-46.6292 113.022,-32.7935 85.6222,-23.0079"/>
<polygon fill="midnightblue" stroke="midnightblue" points="86.6747,-19.6674 76.0801,-19.6 84.3203,-26.2596 86.6747,-19.6674"/>
</g>
<!-- Node13 -->
<g id="node13" class="node"><title>Node13</title>
<polygon fill="none" stroke="#bfbfbf" points="175.5,-0.5 175.5,-19.5 258.5,-19.5 258.5,-0.5 175.5,-0.5"/>
<text text-anchor="middle" x="217" y="-7.5" font-family="Helvetica,sans-Serif" font-size="10.00">unordered_map</text>
</g>
<!-- Node12&#45;&gt;Node13 -->
<g id="edge16" class="edge"><title>Node12&#45;&gt;Node13</title>
<path fill="none" stroke="midnightblue" d="M219.289,-56.7808C218.885,-48.6913 218.373,-38.4617 217.936,-29.725"/>
<polygon fill="midnightblue" stroke="midnightblue" points="221.432,-29.5432 217.437,-19.7305 214.44,-29.8929 221.432,-29.5432"/>
</g>
<!-- Node14 -->
<g id="node14" class="node"><title>Node14</title>
<polygon fill="none" stroke="#bfbfbf" points="277,-0.5 277,-19.5 355,-19.5 355,-0.5 277,-0.5"/>
<text text-anchor="middle" x="316" y="-7.5" font-family="Helvetica,sans-Serif" font-size="10.00">boost/any.hpp</text>
</g>
<!-- Node12&#45;&gt;Node14 -->
<g id="edge19" class="edge"><title>Node12&#45;&gt;Node14</title>
<path fill="none" stroke="midnightblue" d="M242.751,-56.7808C258.087,-47.1958 278.23,-34.6062 293.511,-25.0555"/>
<polygon fill="midnightblue" stroke="midnightblue" points="295.686,-27.8237 302.311,-19.5557 291.976,-21.8877 295.686,-27.8237"/>
</g>
<!-- Node15&#45;&gt;Node3 -->
<g id="edge25" class="edge"><title>Node15&#45;&gt;Node3</title>
<path fill="none" stroke="midnightblue" d="M621.229,-124.49C670.041,-115.404 741.8,-100.608 767,-88 786.746,-78.1205 785.431,-66.2262 805,-56 849.376,-32.8097 906.797,-20.7376 941.44,-15.1389"/>
<polygon fill="midnightblue" stroke="midnightblue" points="942.069,-18.5834 951.421,-13.604 941.005,-11.6647 942.069,-18.5834"/>
</g>
<!-- Node15&#45;&gt;Node4 -->
<g id="edge24" class="edge"><title>Node15&#45;&gt;Node4</title>
<path fill="none" stroke="midnightblue" d="M542.252,-124.462C513.592,-116.189 469.855,-102.756 433,-88 431.359,-87.343 429.684,-86.6378 428.004,-85.9041"/>
<polygon fill="midnightblue" stroke="midnightblue" points="429.086,-82.5485 418.54,-81.5306 426.149,-88.9028 429.086,-82.5485"/>
</g>
<!-- Node15&#45;&gt;Node7 -->
<g id="edge22" class="edge"><title>Node15&#45;&gt;Node7</title>
<path fill="none" stroke="midnightblue" d="M628.609,-124.453C674.916,-116.747 742.357,-104.153 800,-88 803.211,-87.1001 806.53,-86.0665 809.824,-84.9716"/>
<polygon fill="midnightblue" stroke="midnightblue" points="811.224,-88.1896 819.501,-81.5759 808.906,-81.5844 811.224,-88.1896"/>
</g>
<!-- Node16 -->
<g id="node16" class="node"><title>Node16</title>
<polygon fill="none" stroke="#bfbfbf" points="708,-62.5 708,-81.5 758,-81.5 758,-62.5 708,-62.5"/>
<text text-anchor="middle" x="733" y="-69.5" font-family="Helvetica,sans-Serif" font-size="10.00">iomanip</text>
</g>
<!-- Node15&#45;&gt;Node16 -->
<g id="edge23" class="edge"><title>Node15&#45;&gt;Node16</title>
<path fill="none" stroke="midnightblue" d="M598.065,-124.467C623.42,-115.721 663.664,-101.524 698,-88 699.891,-87.255 701.833,-86.4725 703.787,-85.6724"/>
<polygon fill="midnightblue" stroke="midnightblue" points="705.594,-88.7099 713.463,-81.6155 702.887,-82.2543 705.594,-88.7099"/>
</g>
<!-- Node17 -->
<g id="node17" class="node"><title>Node17</title>
<polygon fill="none" stroke="#bfbfbf" points="442,-62.5 442,-81.5 494,-81.5 494,-62.5 442,-62.5"/>
<text text-anchor="middle" x="468" y="-69.5" font-family="Helvetica,sans-Serif" font-size="10.00">sstream</text>
</g>
<!-- Node15&#45;&gt;Node17 -->
<g id="edge26" class="edge"><title>Node15&#45;&gt;Node17</title>
<path fill="none" stroke="midnightblue" d="M557.956,-124.403C540.725,-114.557 512.26,-98.2915 491.966,-86.6949"/>
<polygon fill="midnightblue" stroke="midnightblue" points="493.435,-83.5032 483.016,-81.5806 489.962,-89.5809 493.435,-83.5032"/>
</g>
<!-- Node18 -->
<g id="node18" class="node"><title>Node18</title>
<polygon fill="none" stroke="#bfbfbf" points="512,-62.5 512,-81.5 556,-81.5 556,-62.5 512,-62.5"/>
<text text-anchor="middle" x="534" y="-69.5" font-family="Helvetica,sans-Serif" font-size="10.00">cmath</text>
</g>
<!-- Node15&#45;&gt;Node18 -->
<g id="edge27" class="edge"><title>Node15&#45;&gt;Node18</title>
<path fill="none" stroke="midnightblue" d="M567.412,-124.403C561.62,-115.493 552.411,-101.325 545.126,-90.1177"/>
<polygon fill="midnightblue" stroke="midnightblue" points="547.962,-88.0576 539.577,-81.5806 542.093,-91.8725 547.962,-88.0576"/>
</g>
<!-- Node19 -->
<g id="node19" class="node"><title>Node19</title>
<g id="a_node19"><a xlink:href="table__printer_8tpp_8h.html" target="_top" xlink:title="impl/table_printer.tpp.h">
<polygon fill="none" stroke="black" points="574,-62.5 574,-81.5 690,-81.5 690,-62.5 574,-62.5"/>
<text text-anchor="middle" x="632" y="-69.5" font-family="Helvetica,sans-Serif" font-size="10.00">impl/table_printer.tpp.h</text>
</a>
</g>
</g>
<!-- Node15&#45;&gt;Node19 -->
<g id="edge28" class="edge"><title>Node15&#45;&gt;Node19</title>
<path fill="none" stroke="midnightblue" d="M581.453,-124.403C590.566,-115.136 605.27,-100.183 616.476,-88.7876"/>
<polygon fill="midnightblue" stroke="midnightblue" points="619.047,-91.1649 623.562,-81.5806 614.055,-86.2569 619.047,-91.1649"/>
</g>
<!-- Node20&#45;&gt;Node3 -->
<g id="edge30" class="edge"><title>Node20&#45;&gt;Node3</title>
<path fill="none" stroke="midnightblue" d="M843.925,-124.226C867.099,-103.739 925.027,-52.5266 954.372,-26.5844"/>
<polygon fill="midnightblue" stroke="midnightblue" points="956.991,-28.9401 962.165,-19.6944 952.355,-23.6956 956.991,-28.9401"/>
</g>
<!-- Node22&#45;&gt;Node3 -->
<g id="edge33" class="edge"><title>Node22&#45;&gt;Node3</title>
<path fill="none" stroke="midnightblue" d="M1175.25,-183.382C1246.99,-170.666 1351.18,-151.137 1357,-144 1362.62,-137.113 1359.38,-132.564 1357,-124 1347.54,-90 1345.54,-75.3149 1316,-56 1264.71,-22.4594 1077.6,-13.8077 1003.01,-11.6697"/>
<polygon fill="midnightblue" stroke="midnightblue" points="1002.94,-8.16665 992.846,-11.3993 1002.75,-15.1642 1002.94,-8.16665"/>
</g>
<!-- Node22&#45;&gt;Node6 -->
<g id="edge34" class="edge"><title>Node22&#45;&gt;Node6</title>
<path fill="none" stroke="midnightblue" d="M1090.8,-180.845C1054.17,-151.593 964.589,-84.8103 877,-56 794.862,-28.9827 531.904,-16.2006 435.162,-12.3255"/>
<polygon fill="midnightblue" stroke="midnightblue" points="435.131,-8.82167 425.001,-11.927 434.856,-15.8163 435.131,-8.82167"/>
</g>
<!-- Node22&#45;&gt;Node7 -->
<g id="edge35" class="edge"><title>Node22&#45;&gt;Node7</title>
<path fill="none" stroke="midnightblue" d="M1040.88,-195.364C948.516,-194.268 789.496,-186.114 753,-144 747.179,-137.283 748.562,-131.702 753,-124 759.664,-112.436 789.144,-96.7451 812.17,-85.834"/>
<polygon fill="midnightblue" stroke="midnightblue" points="813.648,-89.0066 821.243,-81.6196 810.699,-82.658 813.648,-89.0066"/>
</g>
<!-- Node22&#45;&gt;Node10 -->
<g id="edge39" class="edge"><title>Node22&#45;&gt;Node10</title>
<path fill="none" stroke="midnightblue" d="M1093.06,-180.81C1084,-171.289 1073.05,-157.97 1067,-144 1059.82,-127.414 1057.57,-106.804 1056.96,-92.0698"/>
<polygon fill="midnightblue" stroke="midnightblue" points="1060.46,-91.6341 1056.77,-81.7015 1053.46,-91.7654 1060.46,-91.6341"/>
</g>
<!-- Node23 -->
<g id="node23" class="node"><title>Node23</title>
<polygon fill="none" stroke="#bfbfbf" points="1076,-124.5 1076,-143.5 1140,-143.5 1140,-124.5 1076,-124.5"/>
<text text-anchor="middle" x="1108" y="-131.5" font-family="Helvetica,sans-Serif" font-size="10.00">kdl/kdl.hpp</text>
</g>
<!-- Node22&#45;&gt;Node23 -->
<g id="edge36" class="edge"><title>Node22&#45;&gt;Node23</title>
<path fill="none" stroke="midnightblue" d="M1108,-180.781C1108,-172.781 1108,-162.689 1108,-154.017"/>
<polygon fill="midnightblue" stroke="midnightblue" points="1111.5,-153.73 1108,-143.731 1104.5,-153.731 1111.5,-153.73"/>
</g>
<!-- Node24 -->
<g id="node24" class="node"><title>Node24</title>
<polygon fill="none" stroke="#bfbfbf" points="1132,-57 1132,-87 1256,-87 1256,-57 1132,-57"/>
<text text-anchor="start" x="1140" y="-75" font-family="Helvetica,sans-Serif" font-size="10.00">eigen_conversions/eigen</text>
<text text-anchor="middle" x="1194" y="-64" font-family="Helvetica,sans-Serif" font-size="10.00">_kdl.h</text>
</g>
<!-- Node22&#45;&gt;Node24 -->
<g id="edge37" class="edge"><title>Node22&#45;&gt;Node24</title>
<path fill="none" stroke="midnightblue" d="M1120.29,-180.609C1128.68,-170.574 1139.88,-156.75 1149,-144 1160.21,-128.325 1171.83,-109.926 1180.46,-95.7866"/>
<polygon fill="midnightblue" stroke="midnightblue" points="1183.48,-97.5503 1185.66,-87.1812 1177.49,-93.9306 1183.48,-97.5503"/>
</g>
<!-- Node25 -->
<g id="node25" class="node"><title>Node25</title>
<polygon fill="none" stroke="#bfbfbf" points="1396.5,-62.5 1396.5,-81.5 1483.5,-81.5 1483.5,-62.5 1396.5,-62.5"/>
<text text-anchor="middle" x="1440" y="-69.5" font-family="Helvetica,sans-Serif" font-size="10.00">Eigen/Geometry</text>
</g>
<!-- Node22&#45;&gt;Node25 -->
<g id="edge38" class="edge"><title>Node22&#45;&gt;Node25</title>
<path fill="none" stroke="midnightblue" d="M1175.21,-183.165C1257.89,-168.559 1387.72,-145.458 1390,-144 1410,-131.238 1424.3,-107.342 1432.36,-90.8202"/>
<polygon fill="midnightblue" stroke="midnightblue" points="1435.57,-92.2001 1436.56,-81.6512 1429.21,-89.2831 1435.57,-92.2001"/>
</g>
<!-- Node26 -->
<g id="node26" class="node"><title>Node26</title>
<g id="a_node26"><a xlink:href="GenericSensor_8h.html" target="_top" xlink:title="XBotInterface/GenericSensor.h">
<polygon fill="none" stroke="black" points="1196,-124.5 1196,-143.5 1348,-143.5 1348,-124.5 1196,-124.5"/>
<text text-anchor="middle" x="1272" y="-131.5" font-family="Helvetica,sans-Serif" font-size="10.00">XBotInterface/GenericSensor.h</text>
</a>
</g>
</g>
<!-- Node22&#45;&gt;Node26 -->
<g id="edge40" class="edge"><title>Node22&#45;&gt;Node26</title>
<path fill="none" stroke="midnightblue" d="M1146.45,-180.933C1174.49,-170.674 1212.1,-156.915 1238.83,-147.137"/>
<polygon fill="midnightblue" stroke="midnightblue" points="1240.3,-150.323 1248.49,-143.6 1237.9,-143.749 1240.3,-150.323"/>
</g>
<!-- Node26&#45;&gt;Node3 -->
<g id="edge41" class="edge"><title>Node26&#45;&gt;Node3</title>
<path fill="none" stroke="midnightblue" d="M1279.81,-124.315C1292.76,-108.836 1315.61,-76.2108 1298,-56 1259.81,-12.1745 1076.35,-9.58866 1002.7,-10.3716"/>
<polygon fill="midnightblue" stroke="midnightblue" points="1002.61,-6.8724 992.658,-10.5071 1002.7,-13.8718 1002.61,-6.8724"/>
</g>
<!-- Node26&#45;&gt;Node6 -->
<g id="edge42" class="edge"><title>Node26&#45;&gt;Node6</title>
<path fill="none" stroke="midnightblue" d="M1274.26,-124.301C1277.86,-108.198 1282.71,-73.7705 1264,-56 1233.52,-27.0543 596.315,-14.342 435.569,-11.5887"/>
<polygon fill="midnightblue" stroke="midnightblue" points="435.314,-8.08394 425.257,-11.4146 435.196,-15.0829 435.314,-8.08394"/>
</g>
<!-- Node26&#45;&gt;Node7 -->
<g id="edge43" class="edge"><title>Node26&#45;&gt;Node7</title>
<path fill="none" stroke="midnightblue" d="M1210.71,-124.467C1120.11,-111.855 953.149,-88.6124 878.63,-78.2385"/>
<polygon fill="midnightblue" stroke="midnightblue" points="878.713,-74.7164 868.326,-76.804 877.748,-81.6495 878.713,-74.7164"/>
</g>
<!-- Node26&#45;&gt;Node10 -->
<g id="edge46" class="edge"><title>Node26&#45;&gt;Node10</title>
<path fill="none" stroke="midnightblue" d="M1241.2,-124.403C1203.44,-113.866 1139.34,-95.9783 1097.59,-84.3276"/>
<polygon fill="midnightblue" stroke="midnightblue" points="1098.32,-80.8975 1087.75,-81.5806 1096.44,-87.6398 1098.32,-80.8975"/>
</g>
<!-- Node26&#45;&gt;Node24 -->
<g id="edge45" class="edge"><title>Node26&#45;&gt;Node24</title>
<path fill="none" stroke="midnightblue" d="M1260.82,-124.403C1250.36,-116.353 1234.32,-104.013 1220.57,-93.4406"/>
<polygon fill="midnightblue" stroke="midnightblue" points="1222.44,-90.4638 1212.38,-87.1408 1218.18,-96.0121 1222.44,-90.4638"/>
</g>
<!-- Node26&#45;&gt;Node25 -->
<g id="edge44" class="edge"><title>Node26&#45;&gt;Node25</title>
<path fill="none" stroke="midnightblue" d="M1296.07,-124.403C1325.01,-114.067 1373.76,-96.6564 1406.4,-84.9994"/>
<polygon fill="midnightblue" stroke="midnightblue" points="1407.73,-88.2401 1415.97,-81.5806 1405.38,-81.6479 1407.73,-88.2401"/>
</g>
<!-- Node27&#45;&gt;Node25 -->
<g id="edge49" class="edge"><title>Node27&#45;&gt;Node25</title>
<path fill="none" stroke="midnightblue" d="M1339.59,-188.806C1370.9,-182.408 1405.96,-169.581 1428,-144 1440.34,-129.672 1442.29,-107.484 1441.82,-91.7289"/>
<polygon fill="midnightblue" stroke="midnightblue" points="1445.3,-91.3502 1441.16,-81.5983 1438.31,-91.8043 1445.3,-91.3502"/>
</g>
<!-- Node27&#45;&gt;Node26 -->
<g id="edge48" class="edge"><title>Node27&#45;&gt;Node26</title>
<path fill="none" stroke="midnightblue" d="M1272,-186.403C1272,-177.938 1272,-164.728 1272,-153.82"/>
<polygon fill="midnightblue" stroke="midnightblue" points="1275.5,-153.581 1272,-143.581 1268.5,-153.581 1275.5,-153.581"/>
</g>
</g>
</svg>
