<?xml version="1.0" encoding="UTF-8" standalone="no"?>
<!DOCTYPE svg PUBLIC "-//W3C//DTD SVG 1.1//EN"
 "http://www.w3.org/Graphics/SVG/1.1/DTD/svg11.dtd">
<!-- Generated by graphviz version 2.36.0 (20140111.2315)
 -->
<!-- Title: /home/lucamuratore/advr&#45;superbuild/external/XBotInterface/include/XBotInterface/KinematicChain.h Pages: 1 -->
<svg width="804pt" height="422pt"
 viewBox="0.00 0.00 804.00 422.00" xmlns="http://www.w3.org/2000/svg" xmlns:xlink="http://www.w3.org/1999/xlink">
<g id="graph0" class="graph" transform="scale(1 1) rotate(0) translate(4 418)">
<title>/home/lucamuratore/advr&#45;superbuild/external/XBotInterface/include/XBotInterface/KinematicChain.h</title>
<!-- Node1 -->
<g id="node1" class="node"><title>Node1</title>
<polygon fill="#bfbfbf" stroke="black" points="288,-361 288,-413 464,-413 464,-361 288,-361"/>
<text text-anchor="start" x="296" y="-401" font-family="Helvetica,sans-Serif" font-size="10.00">/home/lucamuratore</text>
<text text-anchor="start" x="296" y="-390" font-family="Helvetica,sans-Serif" font-size="10.00">/advr&#45;superbuild/external</text>
<text text-anchor="start" x="296" y="-379" font-family="Helvetica,sans-Serif" font-size="10.00">/XBotInterface/include/XBotInterface</text>
<text text-anchor="middle" x="376" y="-368" font-family="Helvetica,sans-Serif" font-size="10.00">/KinematicChain.h</text>
</g>
<!-- Node2 -->
<g id="node2" class="node"><title>Node2</title>
<g id="a_node2"><a xlink:href="ModelChain_8h.html" target="_top" xlink:title="/home/lucamuratore\l/advr&#45;superbuild/external\l/XBotInterface/include/XBotInterface\l/ModelChain.h">
<polygon fill="none" stroke="black" points="191,-271 191,-323 367,-323 367,-271 191,-271"/>
<text text-anchor="start" x="199" y="-311" font-family="Helvetica,sans-Serif" font-size="10.00">/home/lucamuratore</text>
<text text-anchor="start" x="199" y="-300" font-family="Helvetica,sans-Serif" font-size="10.00">/advr&#45;superbuild/external</text>
<text text-anchor="start" x="199" y="-289" font-family="Helvetica,sans-Serif" font-size="10.00">/XBotInterface/include/XBotInterface</text>
<text text-anchor="middle" x="279" y="-278" font-family="Helvetica,sans-Serif" font-size="10.00">/ModelChain.h</text>
</a>
</g>
</g>
<!-- Node1&#45;&gt;Node2 -->
<g id="edge1" class="edge"><title>Node1&#45;&gt;Node2</title>
<path fill="none" stroke="midnightblue" d="M340.673,-353.951C329.516,-343.829 317.354,-332.795 306.8,-323.221"/>
<polygon fill="midnightblue" stroke="midnightblue" points="338.446,-356.656 348.204,-360.783 343.149,-351.471 338.446,-356.656"/>
</g>
<!-- Node10 -->
<g id="node10" class="node"><title>Node10</title>
<g id="a_node10"><a xlink:href="RobotChain_8h.html" target="_top" xlink:title="/home/lucamuratore\l/advr&#45;superbuild/external\l/XBotInterface/include/XBotInterface\l/RobotChain.h">
<polygon fill="none" stroke="black" points="0,-181 0,-233 176,-233 176,-181 0,-181"/>
<text text-anchor="start" x="8" y="-221" font-family="Helvetica,sans-Serif" font-size="10.00">/home/lucamuratore</text>
<text text-anchor="start" x="8" y="-210" font-family="Helvetica,sans-Serif" font-size="10.00">/advr&#45;superbuild/external</text>
<text text-anchor="start" x="8" y="-199" font-family="Helvetica,sans-Serif" font-size="10.00">/XBotInterface/include/XBotInterface</text>
<text text-anchor="middle" x="88" y="-188" font-family="Helvetica,sans-Serif" font-size="10.00">/RobotChain.h</text>
</a>
</g>
</g>
<!-- Node1&#45;&gt;Node10 -->
<g id="edge13" class="edge"><title>Node1&#45;&gt;Node10</title>
<path fill="none" stroke="midnightblue" d="M277.64,-366.478C245.328,-357.06 210.439,-343.438 182,-324 147.118,-300.159 118.547,-259.65 102.393,-233.365"/>
<polygon fill="midnightblue" stroke="midnightblue" points="277.001,-369.934 287.575,-369.268 278.893,-363.195 277.001,-369.934"/>
</g>
<!-- Node13 -->
<g id="node13" class="node"><title>Node13</title>
<g id="a_node13"><a xlink:href="XBotInterface_8h.html" target="_top" xlink:title="/home/lucamuratore\l/advr&#45;superbuild/external\l/XBotInterface/include/XBotInterface\l/XBotInterface.h">
<polygon fill="none" stroke="black" points="385,-271 385,-323 561,-323 561,-271 385,-271"/>
<text text-anchor="start" x="393" y="-311" font-family="Helvetica,sans-Serif" font-size="10.00">/home/lucamuratore</text>
<text text-anchor="start" x="393" y="-300" font-family="Helvetica,sans-Serif" font-size="10.00">/advr&#45;superbuild/external</text>
<text text-anchor="start" x="393" y="-289" font-family="Helvetica,sans-Serif" font-size="10.00">/XBotInterface/include/XBotInterface</text>
<text text-anchor="middle" x="473" y="-278" font-family="Helvetica,sans-Serif" font-size="10.00">/XBotInterface.h</text>
</a>
</g>
</g>
<!-- Node1&#45;&gt;Node13 -->
<g id="edge14" class="edge"><title>Node1&#45;&gt;Node13</title>
<path fill="none" stroke="midnightblue" d="M411.327,-353.951C422.484,-343.829 434.646,-332.795 445.2,-323.221"/>
<polygon fill="midnightblue" stroke="midnightblue" points="408.851,-351.471 403.796,-360.783 413.554,-356.656 408.851,-351.471"/>
</g>
<!-- Node15 -->
<g id="node15" class="node"><title>Node15</title>
<g id="a_node15"><a xlink:href="KinematicChain_8cpp.html" target="_top" xlink:title="/home/lucamuratore\l/advr&#45;superbuild/external\l/XBotInterface/src/KinematicChain.cpp">
<polygon fill="none" stroke="black" points="578.5,-276.5 578.5,-317.5 765.5,-317.5 765.5,-276.5 578.5,-276.5"/>
<text text-anchor="start" x="586.5" y="-305.5" font-family="Helvetica,sans-Serif" font-size="10.00">/home/lucamuratore</text>
<text text-anchor="start" x="586.5" y="-294.5" font-family="Helvetica,sans-Serif" font-size="10.00">/advr&#45;superbuild/external</text>
<text text-anchor="middle" x="672" y="-283.5" font-family="Helvetica,sans-Serif" font-size="10.00">/XBotInterface/src/KinematicChain.cpp</text>
</a>
</g>
</g>
<!-- Node1&#45;&gt;Node15 -->
<g id="edge18" class="edge"><title>Node1&#45;&gt;Node15</title>
<path fill="none" stroke="midnightblue" d="M470.058,-358.037C514.403,-344.853 566.232,-329.444 606.28,-317.538"/>
<polygon fill="midnightblue" stroke="midnightblue" points="469.014,-354.696 460.426,-360.901 471.008,-361.406 469.014,-354.696"/>
</g>
<!-- Node3 -->
<g id="node3" class="node"><title>Node3</title>
<g id="a_node3"><a xlink:href="ModelInterface_8h.html" target="_top" xlink:title="/home/lucamuratore\l/advr&#45;superbuild/external\l/XBotInterface/include/XBotInterface\l/ModelInterface.h">
<polygon fill="none" stroke="black" points="420,-181 420,-233 596,-233 596,-181 420,-181"/>
<text text-anchor="start" x="428" y="-221" font-family="Helvetica,sans-Serif" font-size="10.00">/home/lucamuratore</text>
<text text-anchor="start" x="428" y="-210" font-family="Helvetica,sans-Serif" font-size="10.00">/advr&#45;superbuild/external</text>
<text text-anchor="start" x="428" y="-199" font-family="Helvetica,sans-Serif" font-size="10.00">/XBotInterface/include/XBotInterface</text>
<text text-anchor="middle" x="508" y="-188" font-family="Helvetica,sans-Serif" font-size="10.00">/ModelInterface.h</text>
</a>
</g>
</g>
<!-- Node2&#45;&gt;Node3 -->
<g id="edge2" class="edge"><title>Node2&#45;&gt;Node3</title>
<path fill="none" stroke="midnightblue" d="M353.87,-267.229C382.506,-256.225 414.914,-243.771 442.598,-233.133"/>
<polygon fill="midnightblue" stroke="midnightblue" points="352.395,-264.046 344.316,-270.901 354.906,-270.58 352.395,-264.046"/>
</g>
<!-- Node2&#45;&gt;Node10 -->
<g id="edge9" class="edge"><title>Node2&#45;&gt;Node10</title>
<path fill="none" stroke="midnightblue" d="M215.305,-266.654C191.731,-255.792 165.238,-243.586 142.55,-233.133"/>
<polygon fill="midnightblue" stroke="midnightblue" points="213.976,-269.895 224.523,-270.901 216.905,-263.537 213.976,-269.895"/>
</g>
<!-- Node12 -->
<g id="node12" class="node"><title>Node12</title>
<g id="a_node12"><a xlink:href="ModelChain_8cpp.html" target="_top" xlink:title="/home/lucamuratore\l/advr&#45;superbuild/external\l/XBotInterface/src/ModelChain.cpp">
<polygon fill="none" stroke="black" points="194,-186.5 194,-227.5 364,-227.5 364,-186.5 194,-186.5"/>
<text text-anchor="start" x="202" y="-215.5" font-family="Helvetica,sans-Serif" font-size="10.00">/home/lucamuratore</text>
<text text-anchor="start" x="202" y="-204.5" font-family="Helvetica,sans-Serif" font-size="10.00">/advr&#45;superbuild/external</text>
<text text-anchor="middle" x="279" y="-193.5" font-family="Helvetica,sans-Serif" font-size="10.00">/XBotInterface/src/ModelChain.cpp</text>
</a>
</g>
</g>
<!-- Node2&#45;&gt;Node12 -->
<g id="edge12" class="edge"><title>Node2&#45;&gt;Node12</title>
<path fill="none" stroke="midnightblue" d="M279,-260.515C279,-249.257 279,-237.227 279,-227.525"/>
<polygon fill="midnightblue" stroke="midnightblue" points="275.5,-260.547 279,-270.547 282.5,-260.547 275.5,-260.547"/>
</g>
<!-- Node4 -->
<g id="node4" class="node"><title>Node4</title>
<g id="a_node4"><a xlink:href="RobotInterface_8h.html" target="_top" xlink:title="/home/lucamuratore\l/advr&#45;superbuild/external\l/XBotInterface/include/XBotInterface\l/RobotInterface.h">
<polygon fill="none" stroke="black" points="226,-91 226,-143 402,-143 402,-91 226,-91"/>
<text text-anchor="start" x="234" y="-131" font-family="Helvetica,sans-Serif" font-size="10.00">/home/lucamuratore</text>
<text text-anchor="start" x="234" y="-120" font-family="Helvetica,sans-Serif" font-size="10.00">/advr&#45;superbuild/external</text>
<text text-anchor="start" x="234" y="-109" font-family="Helvetica,sans-Serif" font-size="10.00">/XBotInterface/include/XBotInterface</text>
<text text-anchor="middle" x="314" y="-98" font-family="Helvetica,sans-Serif" font-size="10.00">/RobotInterface.h</text>
</a>
</g>
</g>
<!-- Node3&#45;&gt;Node4 -->
<g id="edge3" class="edge"><title>Node3&#45;&gt;Node4</title>
<path fill="none" stroke="midnightblue" d="M443.304,-176.654C419.36,-165.792 392.451,-153.586 369.406,-143.133"/>
<polygon fill="midnightblue" stroke="midnightblue" points="442.114,-179.957 452.667,-180.901 445.006,-173.582 442.114,-179.957"/>
</g>
<!-- Node8 -->
<g id="node8" class="node"><title>Node8</title>
<g id="a_node8"><a xlink:href="Utils_8h.html" target="_top" xlink:title="/home/lucamuratore\l/advr&#45;superbuild/external\l/XBotInterface/include/XBotInterface\l/Utils.h">
<polygon fill="none" stroke="black" points="420,-91 420,-143 596,-143 596,-91 420,-91"/>
<text text-anchor="start" x="428" y="-131" font-family="Helvetica,sans-Serif" font-size="10.00">/home/lucamuratore</text>
<text text-anchor="start" x="428" y="-120" font-family="Helvetica,sans-Serif" font-size="10.00">/advr&#45;superbuild/external</text>
<text text-anchor="start" x="428" y="-109" font-family="Helvetica,sans-Serif" font-size="10.00">/XBotInterface/include/XBotInterface</text>
<text text-anchor="middle" x="508" y="-98" font-family="Helvetica,sans-Serif" font-size="10.00">/Utils.h</text>
</a>
</g>
</g>
<!-- Node3&#45;&gt;Node8 -->
<g id="edge7" class="edge"><title>Node3&#45;&gt;Node8</title>
<path fill="none" stroke="midnightblue" d="M508,-170.489C508,-161.309 508,-151.616 508,-143.092"/>
<polygon fill="midnightblue" stroke="midnightblue" points="504.5,-170.547 508,-180.547 511.5,-170.547 504.5,-170.547"/>
</g>
<!-- Node9 -->
<g id="node9" class="node"><title>Node9</title>
<g id="a_node9"><a xlink:href="ModelInterface_8cpp.html" target="_top" xlink:title="/home/lucamuratore\l/advr&#45;superbuild/external\l/XBotInterface/src/ModelInterface.cpp">
<polygon fill="none" stroke="black" points="614,-96.5 614,-137.5 796,-137.5 796,-96.5 614,-96.5"/>
<text text-anchor="start" x="622" y="-125.5" font-family="Helvetica,sans-Serif" font-size="10.00">/home/lucamuratore</text>
<text text-anchor="start" x="622" y="-114.5" font-family="Helvetica,sans-Serif" font-size="10.00">/advr&#45;superbuild/external</text>
<text text-anchor="middle" x="705" y="-103.5" font-family="Helvetica,sans-Serif" font-size="10.00">/XBotInterface/src/ModelInterface.cpp</text>
</a>
</g>
</g>
<!-- Node3&#45;&gt;Node9 -->
<g id="edge8" class="edge"><title>Node3&#45;&gt;Node9</title>
<path fill="none" stroke="midnightblue" d="M573.398,-176.787C602.274,-163.888 635.445,-149.07 661.261,-137.538"/>
<polygon fill="midnightblue" stroke="midnightblue" points="571.892,-173.626 564.189,-180.901 574.747,-180.018 571.892,-173.626"/>
</g>
<!-- Node5 -->
<g id="node5" class="node"><title>Node5</title>
<g id="a_node5"><a xlink:href="StateMachine_8h.html" target="_top" xlink:title="/home/lucamuratore\l/advr&#45;superbuild/external\l/XBotInterface/include/XBotInterface\l/StateMachine.h">
<polygon fill="none" stroke="black" points="58,-1 58,-53 234,-53 234,-1 58,-1"/>
<text text-anchor="start" x="66" y="-41" font-family="Helvetica,sans-Serif" font-size="10.00">/home/lucamuratore</text>
<text text-anchor="start" x="66" y="-30" font-family="Helvetica,sans-Serif" font-size="10.00">/advr&#45;superbuild/external</text>
<text text-anchor="start" x="66" y="-19" font-family="Helvetica,sans-Serif" font-size="10.00">/XBotInterface/include/XBotInterface</text>
<text text-anchor="middle" x="146" y="-8" font-family="Helvetica,sans-Serif" font-size="10.00">/StateMachine.h</text>
</a>
</g>
</g>
<!-- Node4&#45;&gt;Node5 -->
<g id="edge4" class="edge"><title>Node4&#45;&gt;Node5</title>
<path fill="none" stroke="midnightblue" d="M256.927,-86.1047C236.415,-75.3602 213.507,-63.3607 193.858,-53.0687"/>
<polygon fill="midnightblue" stroke="midnightblue" points="255.376,-89.243 265.858,-90.7827 258.624,-83.0422 255.376,-89.243"/>
</g>
<!-- Node6 -->
<g id="node6" class="node"><title>Node6</title>
<g id="a_node6"><a xlink:href="main__test_8cpp.html" target="_top" xlink:title="/home/lucamuratore\l/advr&#45;superbuild/external\l/XBotInterface/src/main\l_test.cpp">
<polygon fill="none" stroke="black" points="252.5,-1 252.5,-53 375.5,-53 375.5,-1 252.5,-1"/>
<text text-anchor="start" x="260.5" y="-41" font-family="Helvetica,sans-Serif" font-size="10.00">/home/lucamuratore</text>
<text text-anchor="start" x="260.5" y="-30" font-family="Helvetica,sans-Serif" font-size="10.00">/advr&#45;superbuild/external</text>
<text text-anchor="start" x="260.5" y="-19" font-family="Helvetica,sans-Serif" font-size="10.00">/XBotInterface/src/main</text>
<text text-anchor="middle" x="314" y="-8" font-family="Helvetica,sans-Serif" font-size="10.00">_test.cpp</text>
</a>
</g>
</g>
<!-- Node4&#45;&gt;Node6 -->
<g id="edge5" class="edge"><title>Node4&#45;&gt;Node6</title>
<path fill="none" stroke="midnightblue" d="M314,-80.4892C314,-71.3088 314,-61.616 314,-53.0921"/>
<polygon fill="midnightblue" stroke="midnightblue" points="310.5,-80.5467 314,-90.5468 317.5,-80.5468 310.5,-80.5467"/>
</g>
<!-- Node7 -->
<g id="node7" class="node"><title>Node7</title>
<g id="a_node7"><a xlink:href="RobotInterface_8cpp.html" target="_top" xlink:title="/home/lucamuratore\l/advr&#45;superbuild/external\l/XBotInterface/src/RobotInterface.cpp">
<polygon fill="none" stroke="black" points="394,-6.5 394,-47.5 576,-47.5 576,-6.5 394,-6.5"/>
<text text-anchor="start" x="402" y="-35.5" font-family="Helvetica,sans-Serif" font-size="10.00">/home/lucamuratore</text>
<text text-anchor="start" x="402" y="-24.5" font-family="Helvetica,sans-Serif" font-size="10.00">/advr&#45;superbuild/external</text>
<text text-anchor="middle" x="485" y="-13.5" font-family="Helvetica,sans-Serif" font-size="10.00">/XBotInterface/src/RobotInterface.cpp</text>
</a>
</g>
</g>
<!-- Node4&#45;&gt;Node7 -->
<g id="edge6" class="edge"><title>Node4&#45;&gt;Node7</title>
<path fill="none" stroke="midnightblue" d="M371.936,-86.1848C396.659,-73.4622 424.824,-58.9678 446.859,-47.6283"/>
<polygon fill="midnightblue" stroke="midnightblue" points="370.292,-83.0948 363.002,-90.7827 373.495,-89.3189 370.292,-83.0948"/>
</g>
<!-- Node10&#45;&gt;Node4 -->
<g id="edge10" class="edge"><title>Node10&#45;&gt;Node4</title>
<path fill="none" stroke="midnightblue" d="M161.889,-177.229C190.15,-166.225 222.133,-153.771 249.454,-143.133"/>
<polygon fill="midnightblue" stroke="midnightblue" points="160.509,-174.011 152.46,-180.901 163.049,-180.533 160.509,-174.011"/>
</g>
<!-- Node11 -->
<g id="node11" class="node"><title>Node11</title>
<g id="a_node11"><a xlink:href="RobotChain_8cpp.html" target="_top" xlink:title="/home/lucamuratore\l/advr&#45;superbuild/external\l/XBotInterface/src/RobotChain.cpp">
<polygon fill="none" stroke="black" points="3,-96.5 3,-137.5 173,-137.5 173,-96.5 3,-96.5"/>
<text text-anchor="start" x="11" y="-125.5" font-family="Helvetica,sans-Serif" font-size="10.00">/home/lucamuratore</text>
<text text-anchor="start" x="11" y="-114.5" font-family="Helvetica,sans-Serif" font-size="10.00">/advr&#45;superbuild/external</text>
<text text-anchor="middle" x="88" y="-103.5" font-family="Helvetica,sans-Serif" font-size="10.00">/XBotInterface/src/RobotChain.cpp</text>
</a>
</g>
</g>
<!-- Node10&#45;&gt;Node11 -->
<g id="edge11" class="edge"><title>Node10&#45;&gt;Node11</title>
<path fill="none" stroke="midnightblue" d="M88,-170.515C88,-159.257 88,-147.227 88,-137.525"/>
<polygon fill="midnightblue" stroke="midnightblue" points="84.5001,-170.547 88,-180.547 91.5001,-170.547 84.5001,-170.547"/>
</g>
<!-- Node13&#45;&gt;Node3 -->
<g id="edge15" class="edge"><title>Node13&#45;&gt;Node3</title>
<path fill="none" stroke="midnightblue" d="M486.888,-261.081C490.609,-251.726 494.557,-241.799 498.02,-233.092"/>
<polygon fill="midnightblue" stroke="midnightblue" points="483.567,-259.961 483.123,-270.547 490.071,-262.548 483.567,-259.961"/>
</g>
<!-- Node13&#45;&gt;Node4 -->
<g id="edge16" class="edge"><title>Node13&#45;&gt;Node4</title>
<path fill="none" stroke="midnightblue" d="M438.44,-263.546C429.19,-254.305 419.427,-244.02 411,-234 392.11,-211.541 391.61,-202.691 373,-180 362.635,-167.362 350.284,-154.138 339.568,-143.164"/>
<polygon fill="midnightblue" stroke="midnightblue" points="436.132,-266.186 445.713,-270.709 441.044,-261.198 436.132,-266.186"/>
</g>
<!-- Node14 -->
<g id="node14" class="node"><title>Node14</title>
<g id="a_node14"><a xlink:href="XBotInterface_8cpp.html" target="_top" xlink:title="/home/lucamuratore\l/advr&#45;superbuild/external\l/XBotInterface/src/XBotInterface.cpp">
<polygon fill="none" stroke="black" points="614,-186.5 614,-227.5 792,-227.5 792,-186.5 614,-186.5"/>
<text text-anchor="start" x="622" y="-215.5" font-family="Helvetica,sans-Serif" font-size="10.00">/home/lucamuratore</text>
<text text-anchor="start" x="622" y="-204.5" font-family="Helvetica,sans-Serif" font-size="10.00">/advr&#45;superbuild/external</text>
<text text-anchor="middle" x="703" y="-193.5" font-family="Helvetica,sans-Serif" font-size="10.00">/XBotInterface/src/XBotInterface.cpp</text>
</a>
</g>
</g>
<!-- Node13&#45;&gt;Node14 -->
<g id="edge17" class="edge"><title>Node13&#45;&gt;Node14</title>
<path fill="none" stroke="midnightblue" d="M548.042,-267.288C582.059,-254.273 621.403,-239.22 651.934,-227.538"/>
<polygon fill="midnightblue" stroke="midnightblue" points="546.69,-264.058 538.601,-270.901 549.191,-270.596 546.69,-264.058"/>
</g>
</g>
</svg>
