<?xml version="1.0" encoding="UTF-8" standalone="no"?>
<!DOCTYPE svg PUBLIC "-//W3C//DTD SVG 1.1//EN"
 "http://www.w3.org/Graphics/SVG/1.1/DTD/svg11.dtd">
<!-- Generated by graphviz version 2.36.0 (20140111.2315)
 -->
<!-- Title: /home/lucamuratore/advr&#45;superbuild/external/XBotInterface/include/spdlog/details/log_msg.h Pages: 1 -->
<svg width="1516pt" height="1232pt"
 viewBox="0.00 0.00 1516.00 1232.00" xmlns="http://www.w3.org/2000/svg" xmlns:xlink="http://www.w3.org/1999/xlink">
<g id="graph0" class="graph" transform="scale(1 1) rotate(0) translate(4 1228)">
<title>/home/lucamuratore/advr&#45;superbuild/external/XBotInterface/include/spdlog/details/log_msg.h</title>
<!-- Node1 -->
<g id="node1" class="node"><title>Node1</title>
<polygon fill="#bfbfbf" stroke="black" points="814.5,-1171 814.5,-1223 959.5,-1223 959.5,-1171 814.5,-1171"/>
<text text-anchor="start" x="822.5" y="-1211" font-family="Helvetica,sans-Serif" font-size="10.00">/home/lucamuratore</text>
<text text-anchor="start" x="822.5" y="-1200" font-family="Helvetica,sans-Serif" font-size="10.00">/advr&#45;superbuild/external</text>
<text text-anchor="start" x="822.5" y="-1189" font-family="Helvetica,sans-Serif" font-size="10.00">/XBotInterface/include/spdlog</text>
<text text-anchor="middle" x="887" y="-1178" font-family="Helvetica,sans-Serif" font-size="10.00">/details/log_msg.h</text>
</g>
<!-- Node2 -->
<g id="node2" class="node"><title>Node2</title>
<g id="a_node2"><a xlink:href="async__log__helper_8h.html" target="_top" xlink:title="/home/lucamuratore\l/advr&#45;superbuild/external\l/XBotInterface/include/spdlog\l/details/async_log_helper.h">
<polygon fill="none" stroke="black" points="601.5,-901 601.5,-953 746.5,-953 746.5,-901 601.5,-901"/>
<text text-anchor="start" x="609.5" y="-941" font-family="Helvetica,sans-Serif" font-size="10.00">/home/lucamuratore</text>
<text text-anchor="start" x="609.5" y="-930" font-family="Helvetica,sans-Serif" font-size="10.00">/advr&#45;superbuild/external</text>
<text text-anchor="start" x="609.5" y="-919" font-family="Helvetica,sans-Serif" font-size="10.00">/XBotInterface/include/spdlog</text>
<text text-anchor="middle" x="674" y="-908" font-family="Helvetica,sans-Serif" font-size="10.00">/details/async_log_helper.h</text>
</a>
</g>
</g>
<!-- Node1&#45;&gt;Node2 -->
<g id="edge1" class="edge"><title>Node1&#45;&gt;Node2</title>
<path fill="none" stroke="midnightblue" d="M804.33,-1185.99C741.303,-1176.46 662.019,-1159.72 642,-1134 600.425,-1080.59 636.663,-995.292 659.218,-953.189"/>
<polygon fill="midnightblue" stroke="midnightblue" points="803.892,-1189.47 814.295,-1187.46 804.912,-1182.54 803.892,-1189.47"/>
</g>
<!-- Node21 -->
<g id="node21" class="node"><title>Node21</title>
<g id="a_node21"><a xlink:href="file__helper_8h.html" target="_top" xlink:title="/home/lucamuratore\l/advr&#45;superbuild/external\l/XBotInterface/include/spdlog\l/details/file_helper.h">
<polygon fill="none" stroke="black" points="1016.5,-1081 1016.5,-1133 1161.5,-1133 1161.5,-1081 1016.5,-1081"/>
<text text-anchor="start" x="1024.5" y="-1121" font-family="Helvetica,sans-Serif" font-size="10.00">/home/lucamuratore</text>
<text text-anchor="start" x="1024.5" y="-1110" font-family="Helvetica,sans-Serif" font-size="10.00">/advr&#45;superbuild/external</text>
<text text-anchor="start" x="1024.5" y="-1099" font-family="Helvetica,sans-Serif" font-size="10.00">/XBotInterface/include/spdlog</text>
<text text-anchor="middle" x="1089" y="-1088" font-family="Helvetica,sans-Serif" font-size="10.00">/details/file_helper.h</text>
</a>
</g>
</g>
<!-- Node1&#45;&gt;Node21 -->
<g id="edge24" class="edge"><title>Node1&#45;&gt;Node21</title>
<path fill="none" stroke="midnightblue" d="M954.033,-1166.8C979.047,-1155.9 1007.21,-1143.63 1031.31,-1133.13"/>
<polygon fill="midnightblue" stroke="midnightblue" points="952.385,-1163.7 944.615,-1170.9 955.18,-1170.12 952.385,-1163.7"/>
</g>
<!-- Node23 -->
<g id="node23" class="node"><title>Node23</title>
<g id="a_node23"><a xlink:href="pattern__formatter__impl_8h.html" target="_top" xlink:title="/home/lucamuratore\l/advr&#45;superbuild/external\l/XBotInterface/include/spdlog\l/details/pattern_formatter_impl.h">
<polygon fill="none" stroke="black" points="651.5,-1081 651.5,-1133 808.5,-1133 808.5,-1081 651.5,-1081"/>
<text text-anchor="start" x="659.5" y="-1121" font-family="Helvetica,sans-Serif" font-size="10.00">/home/lucamuratore</text>
<text text-anchor="start" x="659.5" y="-1110" font-family="Helvetica,sans-Serif" font-size="10.00">/advr&#45;superbuild/external</text>
<text text-anchor="start" x="659.5" y="-1099" font-family="Helvetica,sans-Serif" font-size="10.00">/XBotInterface/include/spdlog</text>
<text text-anchor="middle" x="730" y="-1088" font-family="Helvetica,sans-Serif" font-size="10.00">/details/pattern_formatter_impl.h</text>
</a>
</g>
</g>
<!-- Node1&#45;&gt;Node23 -->
<g id="edge27" class="edge"><title>Node1&#45;&gt;Node23</title>
<path fill="none" stroke="midnightblue" d="M833.148,-1165.82C814.111,-1155.15 792.922,-1143.27 774.725,-1133.07"/>
<polygon fill="midnightblue" stroke="midnightblue" points="831.576,-1168.95 842.01,-1170.78 834.998,-1162.84 831.576,-1168.95"/>
</g>
<!-- Node24 -->
<g id="node24" class="node"><title>Node24</title>
<g id="a_node24"><a xlink:href="formatter_8h.html" target="_top" xlink:title="/home/lucamuratore\l/advr&#45;superbuild/external\l/XBotInterface/include/spdlog\l/formatter.h">
<polygon fill="none" stroke="black" points="651.5,-991 651.5,-1043 796.5,-1043 796.5,-991 651.5,-991"/>
<text text-anchor="start" x="659.5" y="-1031" font-family="Helvetica,sans-Serif" font-size="10.00">/home/lucamuratore</text>
<text text-anchor="start" x="659.5" y="-1020" font-family="Helvetica,sans-Serif" font-size="10.00">/advr&#45;superbuild/external</text>
<text text-anchor="start" x="659.5" y="-1009" font-family="Helvetica,sans-Serif" font-size="10.00">/XBotInterface/include/spdlog</text>
<text text-anchor="middle" x="724" y="-998" font-family="Helvetica,sans-Serif" font-size="10.00">/formatter.h</text>
</a>
</g>
</g>
<!-- Node1&#45;&gt;Node24 -->
<g id="edge48" class="edge"><title>Node1&#45;&gt;Node24</title>
<path fill="none" stroke="midnightblue" d="M871.417,-1161.78C859.06,-1137.14 840.06,-1104.12 817,-1080 803.457,-1065.83 786.125,-1053.19 770.101,-1043.08"/>
<polygon fill="midnightblue" stroke="midnightblue" points="868.282,-1163.33 875.823,-1170.77 874.569,-1160.25 868.282,-1163.33"/>
</g>
<!-- Node25 -->
<g id="node25" class="node"><title>Node25</title>
<g id="a_node25"><a xlink:href="base__sink_8h.html" target="_top" xlink:title="/home/lucamuratore\l/advr&#45;superbuild/external\l/XBotInterface/include/spdlog\l/sinks/base_sink.h">
<polygon fill="none" stroke="black" points="814.5,-901 814.5,-953 959.5,-953 959.5,-901 814.5,-901"/>
<text text-anchor="start" x="822.5" y="-941" font-family="Helvetica,sans-Serif" font-size="10.00">/home/lucamuratore</text>
<text text-anchor="start" x="822.5" y="-930" font-family="Helvetica,sans-Serif" font-size="10.00">/advr&#45;superbuild/external</text>
<text text-anchor="start" x="822.5" y="-919" font-family="Helvetica,sans-Serif" font-size="10.00">/XBotInterface/include/spdlog</text>
<text text-anchor="middle" x="887" y="-908" font-family="Helvetica,sans-Serif" font-size="10.00">/sinks/base_sink.h</text>
</a>
</g>
</g>
<!-- Node1&#45;&gt;Node25 -->
<g id="edge49" class="edge"><title>Node1&#45;&gt;Node25</title>
<path fill="none" stroke="midnightblue" d="M910.967,-1162.69C930.654,-1133.14 957.017,-1087.96 968,-1044 973.817,-1020.72 978.628,-1011.52 968,-990 960.628,-975.074 947.749,-962.751 934.401,-953.13"/>
<polygon fill="midnightblue" stroke="midnightblue" points="908.07,-1160.73 905.354,-1170.97 913.863,-1164.65 908.07,-1160.73"/>
</g>
<!-- Node29 -->
<g id="node29" class="node"><title>Node29</title>
<g id="a_node29"><a xlink:href="dist__sink_8h.html" target="_top" xlink:title="/home/lucamuratore\l/advr&#45;superbuild/external\l/XBotInterface/include/spdlog\l/sinks/dist_sink.h">
<polygon fill="none" stroke="black" points="1179.5,-811 1179.5,-863 1324.5,-863 1324.5,-811 1179.5,-811"/>
<text text-anchor="start" x="1187.5" y="-851" font-family="Helvetica,sans-Serif" font-size="10.00">/home/lucamuratore</text>
<text text-anchor="start" x="1187.5" y="-840" font-family="Helvetica,sans-Serif" font-size="10.00">/advr&#45;superbuild/external</text>
<text text-anchor="start" x="1187.5" y="-829" font-family="Helvetica,sans-Serif" font-size="10.00">/XBotInterface/include/spdlog</text>
<text text-anchor="middle" x="1252" y="-818" font-family="Helvetica,sans-Serif" font-size="10.00">/sinks/dist_sink.h</text>
</a>
</g>
</g>
<!-- Node1&#45;&gt;Node29 -->
<g id="edge50" class="edge"><title>Node1&#45;&gt;Node29</title>
<path fill="none" stroke="midnightblue" d="M969.887,-1187.34C1042.76,-1178.08 1141.53,-1160.96 1170,-1134 1247.64,-1060.49 1253.96,-920.558 1253.06,-863.339"/>
<polygon fill="midnightblue" stroke="midnightblue" points="969.278,-1183.89 959.786,-1188.6 970.142,-1190.84 969.278,-1183.89"/>
</g>
<!-- Node34 -->
<g id="node34" class="node"><title>Node34</title>
<g id="a_node34"><a xlink:href="sink_8h.html" target="_top" xlink:title="/home/lucamuratore\l/advr&#45;superbuild/external\l/XBotInterface/include/spdlog\l/sinks/sink.h">
<polygon fill="none" stroke="black" points="814.5,-991 814.5,-1043 959.5,-1043 959.5,-991 814.5,-991"/>
<text text-anchor="start" x="822.5" y="-1031" font-family="Helvetica,sans-Serif" font-size="10.00">/home/lucamuratore</text>
<text text-anchor="start" x="822.5" y="-1020" font-family="Helvetica,sans-Serif" font-size="10.00">/advr&#45;superbuild/external</text>
<text text-anchor="start" x="822.5" y="-1009" font-family="Helvetica,sans-Serif" font-size="10.00">/XBotInterface/include/spdlog</text>
<text text-anchor="middle" x="887" y="-998" font-family="Helvetica,sans-Serif" font-size="10.00">/sinks/sink.h</text>
</a>
</g>
</g>
<!-- Node1&#45;&gt;Node34 -->
<g id="edge51" class="edge"><title>Node1&#45;&gt;Node34</title>
<path fill="none" stroke="midnightblue" d="M887,-1160.72C887,-1126.05 887,-1074.02 887,-1043.29"/>
<polygon fill="midnightblue" stroke="midnightblue" points="883.5,-1160.87 887,-1170.87 890.5,-1160.87 883.5,-1160.87"/>
</g>
<!-- Node3 -->
<g id="node3" class="node"><title>Node3</title>
<g id="a_node3"><a xlink:href="async__logger__impl_8h.html" target="_top" xlink:title="/home/lucamuratore\l/advr&#45;superbuild/external\l/XBotInterface/include/spdlog\l/details/async_logger_impl.h">
<polygon fill="none" stroke="black" points="-0.5,-811 -0.5,-863 144.5,-863 144.5,-811 -0.5,-811"/>
<text text-anchor="start" x="7.5" y="-851" font-family="Helvetica,sans-Serif" font-size="10.00">/home/lucamuratore</text>
<text text-anchor="start" x="7.5" y="-840" font-family="Helvetica,sans-Serif" font-size="10.00">/advr&#45;superbuild/external</text>
<text text-anchor="start" x="7.5" y="-829" font-family="Helvetica,sans-Serif" font-size="10.00">/XBotInterface/include/spdlog</text>
<text text-anchor="middle" x="72" y="-818" font-family="Helvetica,sans-Serif" font-size="10.00">/details/async_logger_impl.h</text>
</a>
</g>
</g>
<!-- Node2&#45;&gt;Node3 -->
<g id="edge2" class="edge"><title>Node2&#45;&gt;Node3</title>
<path fill="none" stroke="midnightblue" d="M591.141,-921.069C487.667,-913.787 305.672,-897.263 153,-864 150.258,-863.403 147.477,-862.751 144.678,-862.056"/>
<polygon fill="midnightblue" stroke="midnightblue" points="590.994,-924.567 601.212,-921.766 591.478,-917.584 590.994,-924.567"/>
</g>
<!-- Node4 -->
<g id="node4" class="node"><title>Node4</title>
<g id="a_node4"><a xlink:href="async__logger_8h.html" target="_top" xlink:title="/home/lucamuratore\l/advr&#45;superbuild/external\l/XBotInterface/include/spdlog\l/async_logger.h">
<polygon fill="none" stroke="black" points="15.5,-721 15.5,-773 160.5,-773 160.5,-721 15.5,-721"/>
<text text-anchor="start" x="23.5" y="-761" font-family="Helvetica,sans-Serif" font-size="10.00">/home/lucamuratore</text>
<text text-anchor="start" x="23.5" y="-750" font-family="Helvetica,sans-Serif" font-size="10.00">/advr&#45;superbuild/external</text>
<text text-anchor="start" x="23.5" y="-739" font-family="Helvetica,sans-Serif" font-size="10.00">/XBotInterface/include/spdlog</text>
<text text-anchor="middle" x="88" y="-728" font-family="Helvetica,sans-Serif" font-size="10.00">/async_logger.h</text>
</a>
</g>
</g>
<!-- Node3&#45;&gt;Node4 -->
<g id="edge3" class="edge"><title>Node3&#45;&gt;Node4</title>
<path fill="none" stroke="midnightblue" d="M71.8194,-800.489C73.2416,-791.309 75.1621,-781.616 77.2754,-773.092"/>
<polygon fill="midnightblue" stroke="midnightblue" points="68.3313,-800.164 70.4419,-810.547 75.2666,-801.114 68.3313,-800.164"/>
</g>
<!-- Node4&#45;&gt;Node3 -->
<g id="edge4" class="edge"><title>Node4&#45;&gt;Node3</title>
<path fill="none" stroke="midnightblue" d="M88.2404,-783.123C86.8324,-792.289 84.9216,-801.99 82.8139,-810.547"/>
<polygon fill="midnightblue" stroke="midnightblue" points="91.725,-783.472 89.6002,-773.092 84.7885,-782.531 91.725,-783.472"/>
</g>
<!-- Node5 -->
<g id="node5" class="node"><title>Node5</title>
<g id="a_node5"><a xlink:href="registry_8h.html" target="_top" xlink:title="/home/lucamuratore\l/advr&#45;superbuild/external\l/XBotInterface/include/spdlog\l/details/registry.h">
<polygon fill="none" stroke="black" points="248.5,-631 248.5,-683 393.5,-683 393.5,-631 248.5,-631"/>
<text text-anchor="start" x="256.5" y="-671" font-family="Helvetica,sans-Serif" font-size="10.00">/home/lucamuratore</text>
<text text-anchor="start" x="256.5" y="-660" font-family="Helvetica,sans-Serif" font-size="10.00">/advr&#45;superbuild/external</text>
<text text-anchor="start" x="256.5" y="-649" font-family="Helvetica,sans-Serif" font-size="10.00">/XBotInterface/include/spdlog</text>
<text text-anchor="middle" x="321" y="-638" font-family="Helvetica,sans-Serif" font-size="10.00">/details/registry.h</text>
</a>
</g>
</g>
<!-- Node4&#45;&gt;Node5 -->
<g id="edge5" class="edge"><title>Node4&#45;&gt;Node5</title>
<path fill="none" stroke="midnightblue" d="M164.178,-717.229C193.314,-706.225 226.288,-693.771 254.455,-683.133"/>
<polygon fill="midnightblue" stroke="midnightblue" points="162.575,-714.093 154.457,-720.901 165.048,-720.641 162.575,-714.093"/>
</g>
<!-- Node6 -->
<g id="node6" class="node"><title>Node6</title>
<g id="a_node6"><a xlink:href="spdlog__impl_8h.html" target="_top" xlink:title="/home/lucamuratore\l/advr&#45;superbuild/external\l/XBotInterface/include/spdlog\l/details/spdlog_impl.h">
<polygon fill="none" stroke="black" points="814.5,-541 814.5,-593 959.5,-593 959.5,-541 814.5,-541"/>
<text text-anchor="start" x="822.5" y="-581" font-family="Helvetica,sans-Serif" font-size="10.00">/home/lucamuratore</text>
<text text-anchor="start" x="822.5" y="-570" font-family="Helvetica,sans-Serif" font-size="10.00">/advr&#45;superbuild/external</text>
<text text-anchor="start" x="822.5" y="-559" font-family="Helvetica,sans-Serif" font-size="10.00">/XBotInterface/include/spdlog</text>
<text text-anchor="middle" x="887" y="-548" font-family="Helvetica,sans-Serif" font-size="10.00">/details/spdlog_impl.h</text>
</a>
</g>
</g>
<!-- Node5&#45;&gt;Node6 -->
<g id="edge6" class="edge"><title>Node5&#45;&gt;Node6</title>
<path fill="none" stroke="midnightblue" d="M403.665,-643.148C514.367,-625.936 709.015,-595.673 814.36,-579.294"/>
<polygon fill="midnightblue" stroke="midnightblue" points="402.891,-639.726 393.547,-644.721 403.966,-646.643 402.891,-639.726"/>
</g>
<!-- Node7 -->
<g id="node7" class="node"><title>Node7</title>
<g id="a_node7"><a xlink:href="spdlog_8h.html" target="_top" xlink:title="/home/lucamuratore\l/advr&#45;superbuild/external\l/XBotInterface/include/spdlog\l/spdlog.h">
<polygon fill="none" stroke="black" points="814.5,-451 814.5,-503 959.5,-503 959.5,-451 814.5,-451"/>
<text text-anchor="start" x="822.5" y="-491" font-family="Helvetica,sans-Serif" font-size="10.00">/home/lucamuratore</text>
<text text-anchor="start" x="822.5" y="-480" font-family="Helvetica,sans-Serif" font-size="10.00">/advr&#45;superbuild/external</text>
<text text-anchor="start" x="822.5" y="-469" font-family="Helvetica,sans-Serif" font-size="10.00">/XBotInterface/include/spdlog</text>
<text text-anchor="middle" x="887" y="-458" font-family="Helvetica,sans-Serif" font-size="10.00">/spdlog.h</text>
</a>
</g>
</g>
<!-- Node6&#45;&gt;Node7 -->
<g id="edge7" class="edge"><title>Node6&#45;&gt;Node7</title>
<path fill="none" stroke="midnightblue" d="M880.363,-530.489C880.116,-521.309 880.274,-511.616 880.838,-503.092"/>
<polygon fill="midnightblue" stroke="midnightblue" points="876.869,-530.714 880.814,-540.547 883.862,-530.4 876.869,-530.714"/>
</g>
<!-- Node7&#45;&gt;Node6 -->
<g id="edge8" class="edge"><title>Node7&#45;&gt;Node6</title>
<path fill="none" stroke="midnightblue" d="M893.626,-513.123C893.885,-522.289 893.738,-531.99 893.186,-540.547"/>
<polygon fill="midnightblue" stroke="midnightblue" points="897.121,-512.92 893.162,-503.092 890.128,-513.243 897.121,-512.92"/>
</g>
<!-- Node8 -->
<g id="node8" class="node"><title>Node8</title>
<g id="a_node8"><a xlink:href="Logger_8hpp.html" target="_top" xlink:title="/home/lucamuratore\l/advr&#45;superbuild/external\l/XBotInterface/include/XBotInterface\l/Logger.hpp">
<polygon fill="none" stroke="black" points="799,-361 799,-413 975,-413 975,-361 799,-361"/>
<text text-anchor="start" x="807" y="-401" font-family="Helvetica,sans-Serif" font-size="10.00">/home/lucamuratore</text>
<text text-anchor="start" x="807" y="-390" font-family="Helvetica,sans-Serif" font-size="10.00">/advr&#45;superbuild/external</text>
<text text-anchor="start" x="807" y="-379" font-family="Helvetica,sans-Serif" font-size="10.00">/XBotInterface/include/XBotInterface</text>
<text text-anchor="middle" x="887" y="-368" font-family="Helvetica,sans-Serif" font-size="10.00">/Logger.hpp</text>
</a>
</g>
</g>
<!-- Node7&#45;&gt;Node8 -->
<g id="edge9" class="edge"><title>Node7&#45;&gt;Node8</title>
<path fill="none" stroke="midnightblue" d="M887,-440.489C887,-431.309 887,-421.616 887,-413.092"/>
<polygon fill="midnightblue" stroke="midnightblue" points="883.5,-440.547 887,-450.547 890.5,-440.547 883.5,-440.547"/>
</g>
<!-- Node9 -->
<g id="node9" class="node"><title>Node9</title>
<g id="a_node9"><a xlink:href="ConfigHelper_8h.html" target="_top" xlink:title="/home/lucamuratore\l/advr&#45;superbuild/external\l/XBotInterface/include/XBotInterface\l/ConfigHelper.h">
<polygon fill="none" stroke="black" points="625,-271 625,-323 801,-323 801,-271 625,-271"/>
<text text-anchor="start" x="633" y="-311" font-family="Helvetica,sans-Serif" font-size="10.00">/home/lucamuratore</text>
<text text-anchor="start" x="633" y="-300" font-family="Helvetica,sans-Serif" font-size="10.00">/advr&#45;superbuild/external</text>
<text text-anchor="start" x="633" y="-289" font-family="Helvetica,sans-Serif" font-size="10.00">/XBotInterface/include/XBotInterface</text>
<text text-anchor="middle" x="713" y="-278" font-family="Helvetica,sans-Serif" font-size="10.00">/ConfigHelper.h</text>
</a>
</g>
</g>
<!-- Node8&#45;&gt;Node9 -->
<g id="edge10" class="edge"><title>Node8&#45;&gt;Node9</title>
<path fill="none" stroke="midnightblue" d="M828.175,-356.249C806.857,-345.468 783.009,-333.407 762.568,-323.069"/>
<polygon fill="midnightblue" stroke="midnightblue" points="826.635,-359.393 837.139,-360.783 829.795,-353.146 826.635,-359.393"/>
</g>
<!-- Node11 -->
<g id="node11" class="node"><title>Node11</title>
<g id="a_node11"><a xlink:href="StateMachine_8h.html" target="_top" xlink:title="/home/lucamuratore\l/advr&#45;superbuild/external\l/XBotInterface/include/XBotInterface\l/StateMachine.h">
<polygon fill="none" stroke="black" points="741,-1 741,-53 917,-53 917,-1 741,-1"/>
<text text-anchor="start" x="749" y="-41" font-family="Helvetica,sans-Serif" font-size="10.00">/home/lucamuratore</text>
<text text-anchor="start" x="749" y="-30" font-family="Helvetica,sans-Serif" font-size="10.00">/advr&#45;superbuild/external</text>
<text text-anchor="start" x="749" y="-19" font-family="Helvetica,sans-Serif" font-size="10.00">/XBotInterface/include/XBotInterface</text>
<text text-anchor="middle" x="829" y="-8" font-family="Helvetica,sans-Serif" font-size="10.00">/StateMachine.h</text>
</a>
</g>
</g>
<!-- Node8&#45;&gt;Node11 -->
<g id="edge12" class="edge"><title>Node8&#45;&gt;Node11</title>
<path fill="none" stroke="midnightblue" d="M862.36,-352.352C857.051,-343.527 852.106,-333.743 849,-324 818.333,-227.819 822.901,-105.405 826.727,-53.3074"/>
<polygon fill="midnightblue" stroke="midnightblue" points="859.421,-354.253 867.736,-360.819 865.331,-350.501 859.421,-354.253"/>
</g>
<!-- Node12 -->
<g id="node12" class="node"><title>Node12</title>
<g id="a_node12"><a xlink:href="XBotInterface_8h.html" target="_top" xlink:title="/home/lucamuratore\l/advr&#45;superbuild/external\l/XBotInterface/include/XBotInterface\l/XBotInterface.h">
<polygon fill="none" stroke="black" points="858,-271 858,-323 1034,-323 1034,-271 858,-271"/>
<text text-anchor="start" x="866" y="-311" font-family="Helvetica,sans-Serif" font-size="10.00">/home/lucamuratore</text>
<text text-anchor="start" x="866" y="-300" font-family="Helvetica,sans-Serif" font-size="10.00">/advr&#45;superbuild/external</text>
<text text-anchor="start" x="866" y="-289" font-family="Helvetica,sans-Serif" font-size="10.00">/XBotInterface/include/XBotInterface</text>
<text text-anchor="middle" x="946" y="-278" font-family="Helvetica,sans-Serif" font-size="10.00">/XBotInterface.h</text>
</a>
</g>
</g>
<!-- Node8&#45;&gt;Node12 -->
<g id="edge13" class="edge"><title>Node8&#45;&gt;Node12</title>
<path fill="none" stroke="midnightblue" d="M909.819,-351.965C916.262,-342.354 923.155,-332.074 929.177,-323.092"/>
<polygon fill="midnightblue" stroke="midnightblue" points="906.727,-350.292 904.065,-360.547 912.541,-354.19 906.727,-350.292"/>
</g>
<!-- Node20 -->
<g id="node20" class="node"><title>Node20</title>
<g id="a_node20"><a xlink:href="Logger_8cpp.html" target="_top" xlink:title="/home/lucamuratore\l/advr&#45;superbuild/external\l/XBotInterface/src/Logger.cpp">
<polygon fill="none" stroke="black" points="1052.5,-276.5 1052.5,-317.5 1199.5,-317.5 1199.5,-276.5 1052.5,-276.5"/>
<text text-anchor="start" x="1060.5" y="-305.5" font-family="Helvetica,sans-Serif" font-size="10.00">/home/lucamuratore</text>
<text text-anchor="start" x="1060.5" y="-294.5" font-family="Helvetica,sans-Serif" font-size="10.00">/advr&#45;superbuild/external</text>
<text text-anchor="middle" x="1126" y="-283.5" font-family="Helvetica,sans-Serif" font-size="10.00">/XBotInterface/src/Logger.cpp</text>
</a>
</g>
</g>
<!-- Node8&#45;&gt;Node20 -->
<g id="edge23" class="edge"><title>Node8&#45;&gt;Node20</title>
<path fill="none" stroke="midnightblue" d="M964.979,-357.288C1000.33,-344.273 1041.21,-329.22 1072.94,-317.538"/>
<polygon fill="midnightblue" stroke="midnightblue" points="963.343,-354.161 955.168,-360.901 965.761,-360.73 963.343,-354.161"/>
</g>
<!-- Node10 -->
<g id="node10" class="node"><title>Node10</title>
<g id="a_node10"><a xlink:href="ConfigHelper_8cpp.html" target="_top" xlink:title="/home/lucamuratore\l/advr&#45;superbuild/external\l/XBotInterface/src/ConfigHelper.cpp">
<polygon fill="none" stroke="black" points="625.5,-186.5 625.5,-227.5 800.5,-227.5 800.5,-186.5 625.5,-186.5"/>
<text text-anchor="start" x="633.5" y="-215.5" font-family="Helvetica,sans-Serif" font-size="10.00">/home/lucamuratore</text>
<text text-anchor="start" x="633.5" y="-204.5" font-family="Helvetica,sans-Serif" font-size="10.00">/advr&#45;superbuild/external</text>
<text text-anchor="middle" x="713" y="-193.5" font-family="Helvetica,sans-Serif" font-size="10.00">/XBotInterface/src/ConfigHelper.cpp</text>
</a>
</g>
</g>
<!-- Node9&#45;&gt;Node10 -->
<g id="edge11" class="edge"><title>Node9&#45;&gt;Node10</title>
<path fill="none" stroke="midnightblue" d="M713,-260.515C713,-249.257 713,-237.227 713,-227.525"/>
<polygon fill="midnightblue" stroke="midnightblue" points="709.5,-260.547 713,-270.547 716.5,-260.547 709.5,-260.547"/>
</g>
<!-- Node13 -->
<g id="node13" class="node"><title>Node13</title>
<g id="a_node13"><a xlink:href="ModelInterface_8h.html" target="_top" xlink:title="/home/lucamuratore\l/advr&#45;superbuild/external\l/XBotInterface/include/XBotInterface\l/ModelInterface.h">
<polygon fill="none" stroke="black" points="1112,-181 1112,-233 1288,-233 1288,-181 1112,-181"/>
<text text-anchor="start" x="1120" y="-221" font-family="Helvetica,sans-Serif" font-size="10.00">/home/lucamuratore</text>
<text text-anchor="start" x="1120" y="-210" font-family="Helvetica,sans-Serif" font-size="10.00">/advr&#45;superbuild/external</text>
<text text-anchor="start" x="1120" y="-199" font-family="Helvetica,sans-Serif" font-size="10.00">/XBotInterface/include/XBotInterface</text>
<text text-anchor="middle" x="1200" y="-188" font-family="Helvetica,sans-Serif" font-size="10.00">/ModelInterface.h</text>
</a>
</g>
</g>
<!-- Node12&#45;&gt;Node13 -->
<g id="edge14" class="edge"><title>Node12&#45;&gt;Node13</title>
<path fill="none" stroke="midnightblue" d="M1028.22,-267.516C1060.18,-256.442 1096.48,-243.864 1127.46,-233.133"/>
<polygon fill="midnightblue" stroke="midnightblue" points="1026.75,-264.32 1018.45,-270.901 1029.04,-270.934 1026.75,-264.32"/>
</g>
<!-- Node14 -->
<g id="node14" class="node"><title>Node14</title>
<g id="a_node14"><a xlink:href="RobotInterface_8h.html" target="_top" xlink:title="/home/lucamuratore\l/advr&#45;superbuild/external\l/XBotInterface/include/XBotInterface\l/RobotInterface.h">
<polygon fill="none" stroke="black" points="938,-91 938,-143 1114,-143 1114,-91 938,-91"/>
<text text-anchor="start" x="946" y="-131" font-family="Helvetica,sans-Serif" font-size="10.00">/home/lucamuratore</text>
<text text-anchor="start" x="946" y="-120" font-family="Helvetica,sans-Serif" font-size="10.00">/advr&#45;superbuild/external</text>
<text text-anchor="start" x="946" y="-109" font-family="Helvetica,sans-Serif" font-size="10.00">/XBotInterface/include/XBotInterface</text>
<text text-anchor="middle" x="1026" y="-98" font-family="Helvetica,sans-Serif" font-size="10.00">/RobotInterface.h</text>
</a>
</g>
</g>
<!-- Node12&#45;&gt;Node14 -->
<g id="edge21" class="edge"><title>Node12&#45;&gt;Node14</title>
<path fill="none" stroke="midnightblue" d="M1014.17,-265.094C1025.74,-256.703 1036.2,-246.413 1043,-234 1058.54,-205.615 1048.22,-167.742 1038.17,-143.116"/>
<polygon fill="midnightblue" stroke="midnightblue" points="1011.92,-262.387 1005.58,-270.872 1015.83,-268.195 1011.92,-262.387"/>
</g>
<!-- Node19 -->
<g id="node19" class="node"><title>Node19</title>
<g id="a_node19"><a xlink:href="XBotInterface_8cpp.html" target="_top" xlink:title="/home/lucamuratore\l/advr&#45;superbuild/external\l/XBotInterface/src/XBotInterface.cpp">
<polygon fill="none" stroke="black" points="857,-186.5 857,-227.5 1035,-227.5 1035,-186.5 857,-186.5"/>
<text text-anchor="start" x="865" y="-215.5" font-family="Helvetica,sans-Serif" font-size="10.00">/home/lucamuratore</text>
<text text-anchor="start" x="865" y="-204.5" font-family="Helvetica,sans-Serif" font-size="10.00">/advr&#45;superbuild/external</text>
<text text-anchor="middle" x="946" y="-193.5" font-family="Helvetica,sans-Serif" font-size="10.00">/XBotInterface/src/XBotInterface.cpp</text>
</a>
</g>
</g>
<!-- Node12&#45;&gt;Node19 -->
<g id="edge22" class="edge"><title>Node12&#45;&gt;Node19</title>
<path fill="none" stroke="midnightblue" d="M946,-260.515C946,-249.257 946,-237.227 946,-227.525"/>
<polygon fill="midnightblue" stroke="midnightblue" points="942.5,-260.547 946,-270.547 949.5,-260.547 942.5,-260.547"/>
</g>
<!-- Node13&#45;&gt;Node14 -->
<g id="edge15" class="edge"><title>Node13&#45;&gt;Node14</title>
<path fill="none" stroke="midnightblue" d="M1141.17,-176.249C1119.86,-165.468 1096.01,-153.407 1075.57,-143.069"/>
<polygon fill="midnightblue" stroke="midnightblue" points="1139.64,-179.393 1150.14,-180.783 1142.79,-173.146 1139.64,-179.393"/>
</g>
<!-- Node17 -->
<g id="node17" class="node"><title>Node17</title>
<g id="a_node17"><a xlink:href="Utils_8h.html" target="_top" xlink:title="/home/lucamuratore\l/advr&#45;superbuild/external\l/XBotInterface/include/XBotInterface\l/Utils.h">
<polygon fill="none" stroke="black" points="1132,-91 1132,-143 1308,-143 1308,-91 1132,-91"/>
<text text-anchor="start" x="1140" y="-131" font-family="Helvetica,sans-Serif" font-size="10.00">/home/lucamuratore</text>
<text text-anchor="start" x="1140" y="-120" font-family="Helvetica,sans-Serif" font-size="10.00">/advr&#45;superbuild/external</text>
<text text-anchor="start" x="1140" y="-109" font-family="Helvetica,sans-Serif" font-size="10.00">/XBotInterface/include/XBotInterface</text>
<text text-anchor="middle" x="1220" y="-98" font-family="Helvetica,sans-Serif" font-size="10.00">/Utils.h</text>
</a>
</g>
</g>
<!-- Node13&#45;&gt;Node17 -->
<g id="edge19" class="edge"><title>Node13&#45;&gt;Node17</title>
<path fill="none" stroke="midnightblue" d="M1208,-170.785C1210.11,-161.517 1212.34,-151.708 1214.3,-143.092"/>
<polygon fill="midnightblue" stroke="midnightblue" points="1204.59,-170.02 1205.78,-180.547 1211.41,-171.571 1204.59,-170.02"/>
</g>
<!-- Node18 -->
<g id="node18" class="node"><title>Node18</title>
<g id="a_node18"><a xlink:href="ModelInterface_8cpp.html" target="_top" xlink:title="/home/lucamuratore\l/advr&#45;superbuild/external\l/XBotInterface/src/ModelInterface.cpp">
<polygon fill="none" stroke="black" points="1326,-96.5 1326,-137.5 1508,-137.5 1508,-96.5 1326,-96.5"/>
<text text-anchor="start" x="1334" y="-125.5" font-family="Helvetica,sans-Serif" font-size="10.00">/home/lucamuratore</text>
<text text-anchor="start" x="1334" y="-114.5" font-family="Helvetica,sans-Serif" font-size="10.00">/advr&#45;superbuild/external</text>
<text text-anchor="middle" x="1417" y="-103.5" font-family="Helvetica,sans-Serif" font-size="10.00">/XBotInterface/src/ModelInterface.cpp</text>
</a>
</g>
</g>
<!-- Node13&#45;&gt;Node18 -->
<g id="edge20" class="edge"><title>Node13&#45;&gt;Node18</title>
<path fill="none" stroke="midnightblue" d="M1271.21,-177.121C1303.21,-164.144 1340.14,-149.17 1368.82,-137.538"/>
<polygon fill="midnightblue" stroke="midnightblue" points="1269.84,-173.899 1261.89,-180.901 1272.48,-180.386 1269.84,-173.899"/>
</g>
<!-- Node14&#45;&gt;Node11 -->
<g id="edge16" class="edge"><title>Node14&#45;&gt;Node11</title>
<path fill="none" stroke="midnightblue" d="M960.627,-86.7977C936.231,-75.9004 908.768,-63.6325 885.263,-53.1328"/>
<polygon fill="midnightblue" stroke="midnightblue" points="959.253,-90.0175 969.811,-90.9005 962.108,-83.6262 959.253,-90.0175"/>
</g>
<!-- Node15 -->
<g id="node15" class="node"><title>Node15</title>
<g id="a_node15"><a xlink:href="main__test_8cpp.html" target="_top" xlink:title="/home/lucamuratore\l/advr&#45;superbuild/external\l/XBotInterface/src/main\l_test.cpp">
<polygon fill="none" stroke="black" points="1135.5,-1 1135.5,-53 1258.5,-53 1258.5,-1 1135.5,-1"/>
<text text-anchor="start" x="1143.5" y="-41" font-family="Helvetica,sans-Serif" font-size="10.00">/home/lucamuratore</text>
<text text-anchor="start" x="1143.5" y="-30" font-family="Helvetica,sans-Serif" font-size="10.00">/advr&#45;superbuild/external</text>
<text text-anchor="start" x="1143.5" y="-19" font-family="Helvetica,sans-Serif" font-size="10.00">/XBotInterface/src/main</text>
<text text-anchor="middle" x="1197" y="-8" font-family="Helvetica,sans-Serif" font-size="10.00">_test.cpp</text>
</a>
</g>
</g>
<!-- Node14&#45;&gt;Node15 -->
<g id="edge17" class="edge"><title>Node14&#45;&gt;Node15</title>
<path fill="none" stroke="midnightblue" d="M1084.09,-86.1047C1104.97,-75.3602 1128.29,-63.3607 1148.29,-53.0687"/>
<polygon fill="midnightblue" stroke="midnightblue" points="1082.29,-83.0948 1075,-90.7827 1085.49,-89.3189 1082.29,-83.0948"/>
</g>
<!-- Node16 -->
<g id="node16" class="node"><title>Node16</title>
<g id="a_node16"><a xlink:href="RobotInterface_8cpp.html" target="_top" xlink:title="/home/lucamuratore\l/advr&#45;superbuild/external\l/XBotInterface/src/RobotInterface.cpp">
<polygon fill="none" stroke="black" points="935,-6.5 935,-47.5 1117,-47.5 1117,-6.5 935,-6.5"/>
<text text-anchor="start" x="943" y="-35.5" font-family="Helvetica,sans-Serif" font-size="10.00">/home/lucamuratore</text>
<text text-anchor="start" x="943" y="-24.5" font-family="Helvetica,sans-Serif" font-size="10.00">/advr&#45;superbuild/external</text>
<text text-anchor="middle" x="1026" y="-13.5" font-family="Helvetica,sans-Serif" font-size="10.00">/XBotInterface/src/RobotInterface.cpp</text>
</a>
</g>
</g>
<!-- Node14&#45;&gt;Node16 -->
<g id="edge18" class="edge"><title>Node14&#45;&gt;Node16</title>
<path fill="none" stroke="midnightblue" d="M1026,-80.5147C1026,-69.2575 1026,-57.227 1026,-47.5249"/>
<polygon fill="midnightblue" stroke="midnightblue" points="1022.5,-80.5467 1026,-90.5468 1029.5,-80.5468 1022.5,-80.5467"/>
</g>
<!-- Node22 -->
<g id="node22" class="node"><title>Node22</title>
<g id="a_node22"><a xlink:href="file__sinks_8h.html" target="_top" xlink:title="/home/lucamuratore\l/advr&#45;superbuild/external\l/XBotInterface/include/spdlog\l/sinks/file_sinks.h">
<polygon fill="none" stroke="black" points="1016.5,-811 1016.5,-863 1161.5,-863 1161.5,-811 1016.5,-811"/>
<text text-anchor="start" x="1024.5" y="-851" font-family="Helvetica,sans-Serif" font-size="10.00">/home/lucamuratore</text>
<text text-anchor="start" x="1024.5" y="-840" font-family="Helvetica,sans-Serif" font-size="10.00">/advr&#45;superbuild/external</text>
<text text-anchor="start" x="1024.5" y="-829" font-family="Helvetica,sans-Serif" font-size="10.00">/XBotInterface/include/spdlog</text>
<text text-anchor="middle" x="1089" y="-818" font-family="Helvetica,sans-Serif" font-size="10.00">/sinks/file_sinks.h</text>
</a>
</g>
</g>
<!-- Node21&#45;&gt;Node22 -->
<g id="edge25" class="edge"><title>Node21&#45;&gt;Node22</title>
<path fill="none" stroke="midnightblue" d="M1089,-1070.49C1089,-1015.56 1089,-911.328 1089,-863.341"/>
<polygon fill="midnightblue" stroke="midnightblue" points="1085.5,-1070.79 1089,-1080.79 1092.5,-1070.79 1085.5,-1070.79"/>
</g>
<!-- Node22&#45;&gt;Node6 -->
<g id="edge26" class="edge"><title>Node22&#45;&gt;Node6</title>
<path fill="none" stroke="midnightblue" d="M1096.15,-800.901C1103.12,-756.2 1107.71,-678.903 1069,-630 1042.89,-597.023 998.397,-581.489 959.937,-574.215"/>
<polygon fill="midnightblue" stroke="midnightblue" points="1092.66,-800.549 1094.45,-810.992 1099.57,-801.713 1092.66,-800.549"/>
</g>
<!-- Node23&#45;&gt;Node24 -->
<g id="edge28" class="edge"><title>Node23&#45;&gt;Node24</title>
<path fill="none" stroke="midnightblue" d="M720.942,-1070.49C720.069,-1061.31 719.566,-1051.62 719.548,-1043.09"/>
<polygon fill="midnightblue" stroke="midnightblue" points="717.477,-1071 722.079,-1080.55 724.433,-1070.22 717.477,-1071"/>
</g>
<!-- Node24&#45;&gt;Node2 -->
<g id="edge29" class="edge"><title>Node24&#45;&gt;Node2</title>
<path fill="none" stroke="midnightblue" d="M704.495,-981.671C699.082,-972.145 693.308,-961.983 688.257,-953.092"/>
<polygon fill="midnightblue" stroke="midnightblue" points="701.555,-983.581 709.538,-990.547 707.641,-980.123 701.555,-983.581"/>
</g>
<!-- Node24&#45;&gt;Node23 -->
<g id="edge30" class="edge"><title>Node24&#45;&gt;Node23</title>
<path fill="none" stroke="midnightblue" d="M733.021,-1053.12C733.904,-1062.29 734.419,-1071.99 734.451,-1080.55"/>
<polygon fill="midnightblue" stroke="midnightblue" points="736.488,-1052.63 731.873,-1043.09 729.533,-1053.43 736.488,-1052.63"/>
</g>
<!-- Node24&#45;&gt;Node25 -->
<g id="edge31" class="edge"><title>Node24&#45;&gt;Node25</title>
<path fill="none" stroke="midnightblue" d="M779.642,-985.96C799.475,-975.253 821.588,-963.315 840.566,-953.069"/>
<polygon fill="midnightblue" stroke="midnightblue" points="777.846,-982.952 770.709,-990.783 781.172,-989.112 777.846,-982.952"/>
</g>
<!-- Node25&#45;&gt;Node22 -->
<g id="edge41" class="edge"><title>Node25&#45;&gt;Node22</title>
<path fill="none" stroke="midnightblue" d="M954.033,-896.798C979.047,-885.9 1007.21,-873.632 1031.31,-863.133"/>
<polygon fill="midnightblue" stroke="midnightblue" points="952.385,-893.698 944.615,-900.901 955.18,-900.115 952.385,-893.698"/>
</g>
<!-- Node26 -->
<g id="node26" class="node"><title>Node26</title>
<g id="a_node26"><a xlink:href="logger_8h.html" target="_top" xlink:title="/home/lucamuratore\l/advr&#45;superbuild/external\l/XBotInterface/include/spdlog\l/logger.h">
<polygon fill="none" stroke="black" points="162.5,-811 162.5,-863 307.5,-863 307.5,-811 162.5,-811"/>
<text text-anchor="start" x="170.5" y="-851" font-family="Helvetica,sans-Serif" font-size="10.00">/home/lucamuratore</text>
<text text-anchor="start" x="170.5" y="-840" font-family="Helvetica,sans-Serif" font-size="10.00">/advr&#45;superbuild/external</text>
<text text-anchor="start" x="170.5" y="-829" font-family="Helvetica,sans-Serif" font-size="10.00">/XBotInterface/include/spdlog</text>
<text text-anchor="middle" x="235" y="-818" font-family="Helvetica,sans-Serif" font-size="10.00">/logger.h</text>
</a>
</g>
</g>
<!-- Node25&#45;&gt;Node26 -->
<g id="edge32" class="edge"><title>Node25&#45;&gt;Node26</title>
<path fill="none" stroke="midnightblue" d="M804.256,-908.221C787.983,-905.144 770.997,-902.224 755,-900 561.099,-873.041 508.01,-902.165 316,-864 313.248,-863.453 310.458,-862.844 307.651,-862.185"/>
<polygon fill="midnightblue" stroke="midnightblue" points="803.8,-911.697 814.281,-910.152 805.124,-904.824 803.8,-911.697"/>
</g>
<!-- Node28 -->
<g id="node28" class="node"><title>Node28</title>
<g id="a_node28"><a xlink:href="ansicolor__sink_8h.html" target="_top" xlink:title="/home/lucamuratore\l/advr&#45;superbuild/external\l/XBotInterface/include/spdlog\l/sinks/ansicolor_sink.h">
<polygon fill="none" stroke="black" points="915.5,-631 915.5,-683 1060.5,-683 1060.5,-631 915.5,-631"/>
<text text-anchor="start" x="923.5" y="-671" font-family="Helvetica,sans-Serif" font-size="10.00">/home/lucamuratore</text>
<text text-anchor="start" x="923.5" y="-660" font-family="Helvetica,sans-Serif" font-size="10.00">/advr&#45;superbuild/external</text>
<text text-anchor="start" x="923.5" y="-649" font-family="Helvetica,sans-Serif" font-size="10.00">/XBotInterface/include/spdlog</text>
<text text-anchor="middle" x="988" y="-638" font-family="Helvetica,sans-Serif" font-size="10.00">/sinks/ansicolor_sink.h</text>
</a>
</g>
</g>
<!-- Node25&#45;&gt;Node28 -->
<g id="edge38" class="edge"><title>Node25&#45;&gt;Node28</title>
<path fill="none" stroke="midnightblue" d="M941.251,-894.497C951.745,-885.929 961.489,-875.719 968,-864 1000.37,-805.735 996.331,-723.747 991.65,-683.008"/>
<polygon fill="midnightblue" stroke="midnightblue" points="938.929,-891.867 933.12,-900.727 943.186,-897.423 938.929,-891.867"/>
</g>
<!-- Node25&#45;&gt;Node29 -->
<g id="edge40" class="edge"><title>Node25&#45;&gt;Node29</title>
<path fill="none" stroke="midnightblue" d="M969.545,-909.99C1026.25,-898.486 1103.08,-881.9 1170,-864 1173.03,-863.19 1176.11,-862.337 1179.22,-861.455"/>
<polygon fill="midnightblue" stroke="midnightblue" points="968.666,-906.597 959.556,-912.006 970.051,-913.458 968.666,-906.597"/>
</g>
<!-- Node30 -->
<g id="node30" class="node"><title>Node30</title>
<g id="a_node30"><a xlink:href="null__sink_8h.html" target="_top" xlink:title="/home/lucamuratore\l/advr&#45;superbuild/external\l/XBotInterface/include/spdlog\l/sinks/null_sink.h">
<polygon fill="none" stroke="black" points="325.5,-811 325.5,-863 470.5,-863 470.5,-811 325.5,-811"/>
<text text-anchor="start" x="333.5" y="-851" font-family="Helvetica,sans-Serif" font-size="10.00">/home/lucamuratore</text>
<text text-anchor="start" x="333.5" y="-840" font-family="Helvetica,sans-Serif" font-size="10.00">/advr&#45;superbuild/external</text>
<text text-anchor="start" x="333.5" y="-829" font-family="Helvetica,sans-Serif" font-size="10.00">/XBotInterface/include/spdlog</text>
<text text-anchor="middle" x="398" y="-818" font-family="Helvetica,sans-Serif" font-size="10.00">/sinks/null_sink.h</text>
</a>
</g>
</g>
<!-- Node25&#45;&gt;Node30 -->
<g id="edge42" class="edge"><title>Node25&#45;&gt;Node30</title>
<path fill="none" stroke="midnightblue" d="M804.164,-908.832C787.899,-905.702 770.939,-902.606 755,-900 632.916,-880.036 599.72,-891.014 479,-864 476.262,-863.387 473.483,-862.722 470.687,-862.016"/>
<polygon fill="midnightblue" stroke="midnightblue" points="803.702,-912.308 814.186,-910.781 805.038,-905.436 803.702,-912.308"/>
</g>
<!-- Node31 -->
<g id="node31" class="node"><title>Node31</title>
<g id="a_node31"><a xlink:href="ostream__sink_8h.html" target="_top" xlink:title="/home/lucamuratore\l/advr&#45;superbuild/external\l/XBotInterface/include/spdlog\l/sinks/ostream_sink.h">
<polygon fill="none" stroke="black" points="488.5,-811 488.5,-863 633.5,-863 633.5,-811 488.5,-811"/>
<text text-anchor="start" x="496.5" y="-851" font-family="Helvetica,sans-Serif" font-size="10.00">/home/lucamuratore</text>
<text text-anchor="start" x="496.5" y="-840" font-family="Helvetica,sans-Serif" font-size="10.00">/advr&#45;superbuild/external</text>
<text text-anchor="start" x="496.5" y="-829" font-family="Helvetica,sans-Serif" font-size="10.00">/XBotInterface/include/spdlog</text>
<text text-anchor="middle" x="561" y="-818" font-family="Helvetica,sans-Serif" font-size="10.00">/sinks/ostream_sink.h</text>
</a>
</g>
</g>
<!-- Node25&#45;&gt;Node31 -->
<g id="edge43" class="edge"><title>Node25&#45;&gt;Node31</title>
<path fill="none" stroke="midnightblue" d="M804.357,-906.455C756.695,-894.842 695.747,-879.41 642,-864 639.303,-863.227 636.559,-862.425 633.792,-861.603"/>
<polygon fill="midnightblue" stroke="midnightblue" points="803.774,-909.915 814.318,-908.874 805.426,-903.113 803.774,-909.915"/>
</g>
<!-- Node32 -->
<g id="node32" class="node"><title>Node32</title>
<g id="a_node32"><a xlink:href="stdout__sinks_8h.html" target="_top" xlink:title="/home/lucamuratore\l/advr&#45;superbuild/external\l/XBotInterface/include/spdlog\l/sinks/stdout_sinks.h">
<polygon fill="none" stroke="black" points="814.5,-811 814.5,-863 959.5,-863 959.5,-811 814.5,-811"/>
<text text-anchor="start" x="822.5" y="-851" font-family="Helvetica,sans-Serif" font-size="10.00">/home/lucamuratore</text>
<text text-anchor="start" x="822.5" y="-840" font-family="Helvetica,sans-Serif" font-size="10.00">/advr&#45;superbuild/external</text>
<text text-anchor="start" x="822.5" y="-829" font-family="Helvetica,sans-Serif" font-size="10.00">/XBotInterface/include/spdlog</text>
<text text-anchor="middle" x="887" y="-818" font-family="Helvetica,sans-Serif" font-size="10.00">/sinks/stdout_sinks.h</text>
</a>
</g>
</g>
<!-- Node25&#45;&gt;Node32 -->
<g id="edge44" class="edge"><title>Node25&#45;&gt;Node32</title>
<path fill="none" stroke="midnightblue" d="M887,-890.489C887,-881.309 887,-871.616 887,-863.092"/>
<polygon fill="midnightblue" stroke="midnightblue" points="883.5,-890.547 887,-900.547 890.5,-890.547 883.5,-890.547"/>
</g>
<!-- Node33 -->
<g id="node33" class="node"><title>Node33</title>
<g id="a_node33"><a xlink:href="wincolor__sink_8h.html" target="_top" xlink:title="/home/lucamuratore\l/advr&#45;superbuild/external\l/XBotInterface/include/spdlog\l/sinks/wincolor_sink.h">
<polygon fill="none" stroke="black" points="651.5,-811 651.5,-863 796.5,-863 796.5,-811 651.5,-811"/>
<text text-anchor="start" x="659.5" y="-851" font-family="Helvetica,sans-Serif" font-size="10.00">/home/lucamuratore</text>
<text text-anchor="start" x="659.5" y="-840" font-family="Helvetica,sans-Serif" font-size="10.00">/advr&#45;superbuild/external</text>
<text text-anchor="start" x="659.5" y="-829" font-family="Helvetica,sans-Serif" font-size="10.00">/XBotInterface/include/spdlog</text>
<text text-anchor="middle" x="724" y="-818" font-family="Helvetica,sans-Serif" font-size="10.00">/sinks/wincolor_sink.h</text>
</a>
</g>
</g>
<!-- Node25&#45;&gt;Node33 -->
<g id="edge47" class="edge"><title>Node25&#45;&gt;Node33</title>
<path fill="none" stroke="midnightblue" d="M831.358,-895.96C811.525,-885.253 789.412,-873.315 770.434,-863.069"/>
<polygon fill="midnightblue" stroke="midnightblue" points="829.828,-899.112 840.291,-900.783 833.154,-892.952 829.828,-899.112"/>
</g>
<!-- Node26&#45;&gt;Node4 -->
<g id="edge33" class="edge"><title>Node26&#45;&gt;Node4</title>
<path fill="none" stroke="midnightblue" d="M183.851,-805.38C166.216,-794.823 146.683,-783.13 129.876,-773.069"/>
<polygon fill="midnightblue" stroke="midnightblue" points="182.498,-808.649 192.876,-810.783 186.093,-802.643 182.498,-808.649"/>
</g>
<!-- Node26&#45;&gt;Node5 -->
<g id="edge36" class="edge"><title>Node26&#45;&gt;Node5</title>
<path fill="none" stroke="midnightblue" d="M244.906,-801.152C252.258,-777.562 263.353,-746.067 277,-720 283.673,-707.254 292.64,-694.122 300.738,-683.244"/>
<polygon fill="midnightblue" stroke="midnightblue" points="241.552,-800.154 241.988,-810.74 248.248,-802.192 241.552,-800.154"/>
</g>
<!-- Node26&#45;&gt;Node7 -->
<g id="edge37" class="edge"><title>Node26&#45;&gt;Node7</title>
<path fill="none" stroke="midnightblue" d="M223.913,-800.992C212.076,-756.129 199.879,-678.387 239,-630 311.06,-540.872 660.548,-498.603 814.235,-484.09"/>
<polygon fill="midnightblue" stroke="midnightblue" points="220.602,-802.148 226.648,-810.848 227.347,-800.276 220.602,-802.148"/>
</g>
<!-- Node27 -->
<g id="node27" class="node"><title>Node27</title>
<g id="a_node27"><a xlink:href="logger__impl_8h.html" target="_top" xlink:title="/home/lucamuratore\l/advr&#45;superbuild/external\l/XBotInterface/include/spdlog\l/details/logger_impl.h">
<polygon fill="none" stroke="black" points="286.5,-721 286.5,-773 431.5,-773 431.5,-721 286.5,-721"/>
<text text-anchor="start" x="294.5" y="-761" font-family="Helvetica,sans-Serif" font-size="10.00">/home/lucamuratore</text>
<text text-anchor="start" x="294.5" y="-750" font-family="Helvetica,sans-Serif" font-size="10.00">/advr&#45;superbuild/external</text>
<text text-anchor="start" x="294.5" y="-739" font-family="Helvetica,sans-Serif" font-size="10.00">/XBotInterface/include/spdlog</text>
<text text-anchor="middle" x="359" y="-728" font-family="Helvetica,sans-Serif" font-size="10.00">/details/logger_impl.h</text>
</a>
</g>
</g>
<!-- Node26&#45;&gt;Node27 -->
<g id="edge34" class="edge"><title>Node26&#45;&gt;Node27</title>
<path fill="none" stroke="midnightblue" d="M272.441,-804.824C286.601,-794.467 302.765,-783.071 317.291,-773.221"/>
<polygon fill="midnightblue" stroke="midnightblue" points="270.333,-802.03 264.363,-810.783 274.488,-807.663 270.333,-802.03"/>
</g>
<!-- Node27&#45;&gt;Node26 -->
<g id="edge35" class="edge"><title>Node27&#45;&gt;Node26</title>
<path fill="none" stroke="midnightblue" d="M321.554,-779.18C307.393,-789.537 291.229,-800.933 276.704,-810.783"/>
<polygon fill="midnightblue" stroke="midnightblue" points="323.662,-781.974 329.632,-773.221 319.507,-776.34 323.662,-781.974"/>
</g>
<!-- Node28&#45;&gt;Node6 -->
<g id="edge39" class="edge"><title>Node28&#45;&gt;Node6</title>
<path fill="none" stroke="midnightblue" d="M951.216,-623.951C939.599,-613.829 926.935,-602.795 915.947,-593.221"/>
<polygon fill="midnightblue" stroke="midnightblue" points="949.219,-626.852 959.057,-630.783 953.817,-621.575 949.219,-626.852"/>
</g>
<!-- Node32&#45;&gt;Node6 -->
<g id="edge46" class="edge"><title>Node32&#45;&gt;Node6</title>
<path fill="none" stroke="midnightblue" d="M887,-800.49C887,-745.561 887,-641.328 887,-593.341"/>
<polygon fill="midnightblue" stroke="midnightblue" points="883.5,-800.787 887,-810.787 890.5,-800.787 883.5,-800.787"/>
</g>
<!-- Node32&#45;&gt;Node27 -->
<g id="edge45" class="edge"><title>Node32&#45;&gt;Node27</title>
<path fill="none" stroke="midnightblue" d="M804.479,-810.042C667.786,-779.75 518.247,-762.643 431.514,-754.282"/>
<polygon fill="midnightblue" stroke="midnightblue" points="803.774,-813.471 814.298,-812.246 805.307,-806.641 803.774,-813.471"/>
</g>
<!-- Node34&#45;&gt;Node2 -->
<g id="edge52" class="edge"><title>Node34&#45;&gt;Node2</title>
<path fill="none" stroke="midnightblue" d="M816.665,-986.942C790.202,-976.008 760.359,-963.679 734.833,-953.133"/>
<polygon fill="midnightblue" stroke="midnightblue" points="815.669,-990.317 826.248,-990.901 818.342,-983.847 815.669,-990.317"/>
</g>
<!-- Node34&#45;&gt;Node25 -->
<g id="edge53" class="edge"><title>Node34&#45;&gt;Node25</title>
<path fill="none" stroke="midnightblue" d="M887,-980.489C887,-971.309 887,-961.616 887,-953.092"/>
<polygon fill="midnightblue" stroke="midnightblue" points="883.5,-980.547 887,-990.547 890.5,-980.547 883.5,-980.547"/>
</g>
<!-- Node34&#45;&gt;Node29 -->
<g id="edge54" class="edge"><title>Node34&#45;&gt;Node29</title>
<path fill="none" stroke="midnightblue" d="M947.764,-986.367C1018.46,-951.892 1133.95,-895.57 1200.45,-863.141"/>
<polygon fill="midnightblue" stroke="midnightblue" points="945.975,-983.345 938.521,-990.874 949.044,-989.637 945.975,-983.345"/>
</g>
</g>
</svg>
