<?xml version="1.0" encoding="UTF-8" standalone="no"?>
<!DOCTYPE svg PUBLIC "-//W3C//DTD SVG 1.1//EN"
 "http://www.w3.org/Graphics/SVG/1.1/DTD/svg11.dtd">
<!-- Generated by graphviz version 2.38.0 (20140413.2041)
 -->
<!-- Title: /home/lucamuratore/advr&#45;superbuild/external/XBotInterface/include/spdlog/details/logger_impl.h Pages: 1 -->
<svg width="1714pt" height="676pt"
 viewBox="0.00 0.00 1714.00 676.00" xmlns="http://www.w3.org/2000/svg" xmlns:xlink="http://www.w3.org/1999/xlink">
<g id="graph0" class="graph" transform="scale(1 1) rotate(0) translate(4 672)">
<title>/home/lucamuratore/advr&#45;superbuild/external/XBotInterface/include/spdlog/details/logger_impl.h</title>
<!-- Node1 -->
<g id="node1" class="node"><title>Node1</title>
<polygon fill="#bfbfbf" stroke="black" points="1264.5,-615.5 1264.5,-667.5 1409.5,-667.5 1409.5,-615.5 1264.5,-615.5"/>
<text text-anchor="start" x="1272.5" y="-655.5" font-family="Helvetica,sans-Serif" font-size="10.00">/home/lucamuratore</text>
<text text-anchor="start" x="1272.5" y="-644.5" font-family="Helvetica,sans-Serif" font-size="10.00">/advr&#45;superbuild/external</text>
<text text-anchor="start" x="1272.5" y="-633.5" font-family="Helvetica,sans-Serif" font-size="10.00">/XBotInterface/include/spdlog</text>
<text text-anchor="middle" x="1337" y="-622.5" font-family="Helvetica,sans-Serif" font-size="10.00">/details/logger_impl.h</text>
</g>
<!-- Node2 -->
<g id="node2" class="node"><title>Node2</title>
<g id="a_node2"><a xlink:href="logger_8h.html" target="_top" xlink:title="spdlog/logger.h">
<polygon fill="none" stroke="black" points="1295.5,-554 1295.5,-573 1378.5,-573 1378.5,-554 1295.5,-554"/>
<text text-anchor="middle" x="1337" y="-561" font-family="Helvetica,sans-Serif" font-size="10.00">spdlog/logger.h</text>
</a>
</g>
</g>
<!-- Node1&#45;&gt;Node2 -->
<g id="edge1" class="edge"><title>Node1&#45;&gt;Node2</title>
<path fill="none" stroke="midnightblue" d="M1330.6,-615.193C1330.01,-604.765 1330.17,-592.896 1331.09,-583.266"/>
<polygon fill="midnightblue" stroke="midnightblue" points="1334.57,-583.6 1332.51,-573.209 1327.64,-582.621 1334.57,-583.6"/>
</g>
<!-- Node7 -->
<g id="node7" class="node"><title>Node7</title>
<polygon fill="none" stroke="#bfbfbf" points="245.5,-0.5 245.5,-19.5 286.5,-19.5 286.5,-0.5 245.5,-0.5"/>
<text text-anchor="middle" x="266" y="-7.5" font-family="Helvetica,sans-Serif" font-size="10.00">string</text>
</g>
<!-- Node1&#45;&gt;Node7 -->
<g id="edge78" class="edge"><title>Node1&#45;&gt;Node7</title>
<path fill="none" stroke="midnightblue" d="M1264.38,-640.498C990.815,-639.545 38,-627.304 38,-503 38,-503 38,-503 38,-445 38,-295.014 71.8103,-257.095 139,-123 155.295,-90.48 159.035,-80.4116 186,-56 200.675,-42.7152 219.944,-31.7276 235.894,-23.9358"/>
<polygon fill="midnightblue" stroke="midnightblue" points="237.762,-26.925 245.325,-19.5052 234.786,-20.5893 237.762,-26.925"/>
</g>
<!-- Node10 -->
<g id="node10" class="node"><title>Node10</title>
<polygon fill="none" stroke="#bfbfbf" points="1528,-0.5 1528,-19.5 1580,-19.5 1580,-0.5 1528,-0.5"/>
<text text-anchor="middle" x="1554" y="-7.5" font-family="Helvetica,sans-Serif" font-size="10.00">memory</text>
</g>
<!-- Node1&#45;&gt;Node10 -->
<g id="edge77" class="edge"><title>Node1&#45;&gt;Node10</title>
<path fill="none" stroke="midnightblue" d="M1409.9,-628.594C1517.44,-608.938 1706,-565.555 1706,-503 1706,-503 1706,-503 1706,-137.5 1706,-97.534 1697.1,-83.3951 1668,-56 1646.45,-35.7085 1614.65,-24.1816 1590.11,-17.8859"/>
<polygon fill="midnightblue" stroke="midnightblue" points="1590.63,-14.4112 1580.09,-15.4977 1589,-21.2205 1590.63,-14.4112"/>
</g>
<!-- Node39 -->
<g id="node39" class="node"><title>Node39</title>
<g id="a_node39"><a xlink:href="stdout__sinks_8h.html" target="_top" xlink:title="spdlog/sinks/stdout\l_sinks.h">
<polygon fill="none" stroke="black" points="1429.5,-548.5 1429.5,-578.5 1530.5,-578.5 1530.5,-548.5 1429.5,-548.5"/>
<text text-anchor="start" x="1437.5" y="-566.5" font-family="Helvetica,sans-Serif" font-size="10.00">spdlog/sinks/stdout</text>
<text text-anchor="middle" x="1480" y="-555.5" font-family="Helvetica,sans-Serif" font-size="10.00">_sinks.h</text>
</a>
</g>
</g>
<!-- Node1&#45;&gt;Node39 -->
<g id="edge71" class="edge"><title>Node1&#45;&gt;Node39</title>
<path fill="none" stroke="midnightblue" d="M1384.22,-615.404C1403.76,-605.021 1426.04,-593.18 1444.19,-583.532"/>
<polygon fill="midnightblue" stroke="midnightblue" points="1446.08,-586.49 1453.27,-578.707 1442.8,-580.309 1446.08,-586.49"/>
</g>
<!-- Node2&#45;&gt;Node1 -->
<g id="edge70" class="edge"><title>Node2&#45;&gt;Node1</title>
<path fill="none" stroke="midnightblue" d="M1341.49,-573.209C1343.11,-581.081 1343.86,-593.212 1343.74,-605.017"/>
<polygon fill="midnightblue" stroke="midnightblue" points="1340.23,-605.084 1343.4,-615.193 1347.23,-605.313 1340.23,-605.084"/>
</g>
<!-- Node3 -->
<g id="node3" class="node"><title>Node3</title>
<g id="a_node3"><a xlink:href="base__sink_8h.html" target="_top" xlink:title="spdlog/sinks/base_sink.h">
<polygon fill="none" stroke="black" points="1206.5,-492.5 1206.5,-511.5 1333.5,-511.5 1333.5,-492.5 1206.5,-492.5"/>
<text text-anchor="middle" x="1270" y="-499.5" font-family="Helvetica,sans-Serif" font-size="10.00">spdlog/sinks/base_sink.h</text>
</a>
</g>
</g>
<!-- Node2&#45;&gt;Node3 -->
<g id="edge2" class="edge"><title>Node2&#45;&gt;Node3</title>
<path fill="none" stroke="midnightblue" d="M1327.4,-553.975C1316.95,-544.697 1300.03,-529.671 1287.26,-518.331"/>
<polygon fill="midnightblue" stroke="midnightblue" points="1289.38,-515.532 1279.58,-511.509 1284.73,-520.766 1289.38,-515.532"/>
</g>
<!-- Node6 -->
<g id="node6" class="node"><title>Node6</title>
<g id="a_node6"><a xlink:href="common_8h.html" target="_top" xlink:title="spdlog/common.h">
<polygon fill="none" stroke="black" points="1148,-190.5 1148,-209.5 1242,-209.5 1242,-190.5 1148,-190.5"/>
<text text-anchor="middle" x="1195" y="-197.5" font-family="Helvetica,sans-Serif" font-size="10.00">spdlog/common.h</text>
</a>
</g>
</g>
<!-- Node2&#45;&gt;Node6 -->
<g id="edge66" class="edge"><title>Node2&#45;&gt;Node6</title>
<path fill="none" stroke="midnightblue" d="M1342.45,-553.996C1363.84,-519.411 1438.29,-387.11 1383,-302 1351,-252.751 1286.55,-225.768 1242.11,-212.359"/>
<polygon fill="midnightblue" stroke="midnightblue" points="1242.97,-208.965 1232.39,-209.546 1241.02,-215.688 1242.97,-208.965"/>
</g>
<!-- Node2&#45;&gt;Node7 -->
<g id="edge69" class="edge"><title>Node2&#45;&gt;Node7</title>
<path fill="none" stroke="midnightblue" d="M1295.26,-560.794C1080.91,-551.767 114,-507.682 114,-447 114,-447 114,-447 114,-255 114,-154.823 207.445,-61.7341 247.8,-26.2041"/>
<polygon fill="midnightblue" stroke="midnightblue" points="250.268,-28.6971 255.552,-19.5141 245.695,-23.3974 250.268,-28.6971"/>
</g>
<!-- Node2&#45;&gt;Node10 -->
<g id="edge68" class="edge"><title>Node2&#45;&gt;Node10</title>
<path fill="none" stroke="midnightblue" d="M1349.65,-553.842C1401.1,-517.483 1592,-371.12 1592,-201 1592,-201 1592,-201 1592,-137.5 1592,-97.3496 1574.22,-52.9463 1562.99,-28.8892"/>
<polygon fill="midnightblue" stroke="midnightblue" points="1566.01,-27.1043 1558.51,-19.6255 1559.71,-30.1518 1566.01,-27.1043"/>
</g>
<!-- Node24 -->
<g id="node24" class="node"><title>Node24</title>
<polygon fill="none" stroke="#bfbfbf" points="35,-0.5 35,-19.5 79,-19.5 79,-0.5 35,-0.5"/>
<text text-anchor="middle" x="57" y="-7.5" font-family="Helvetica,sans-Serif" font-size="10.00">vector</text>
</g>
<!-- Node2&#45;&gt;Node24 -->
<g id="edge67" class="edge"><title>Node2&#45;&gt;Node24</title>
<path fill="none" stroke="midnightblue" d="M1295.24,-561.918C1125.45,-559.333 486.569,-547.407 288,-512 119.691,-481.989 0,-427.963 0,-257 0,-257 0,-257 0,-137.5 0,-94.969 27.1139,-50.9312 43.9409,-27.6963"/>
<polygon fill="midnightblue" stroke="midnightblue" points="46.8154,-29.6969 50.0107,-19.5954 41.2134,-25.4995 46.8154,-29.6969"/>
</g>
<!-- Node4 -->
<g id="node4" class="node"><title>Node4</title>
<g id="a_node4"><a xlink:href="sink_8h.html" target="_top" xlink:title="spdlog/sinks/sink.h">
<polygon fill="none" stroke="black" points="1109.5,-375 1109.5,-394 1210.5,-394 1210.5,-375 1109.5,-375"/>
<text text-anchor="middle" x="1160" y="-382" font-family="Helvetica,sans-Serif" font-size="10.00">spdlog/sinks/sink.h</text>
</a>
</g>
</g>
<!-- Node3&#45;&gt;Node4 -->
<g id="edge3" class="edge"><title>Node3&#45;&gt;Node4</title>
<path fill="none" stroke="midnightblue" d="M1261.73,-492.319C1243.42,-473.088 1199.18,-426.641 1175.53,-401.805"/>
<polygon fill="midnightblue" stroke="midnightblue" points="1177.79,-399.11 1168.36,-394.282 1172.73,-403.937 1177.79,-399.11"/>
</g>
<!-- Node5 -->
<g id="node5" class="node"><title>Node5</title>
<g id="a_node5"><a xlink:href="log__msg_8h.html" target="_top" xlink:title="spdlog/details/log\l_msg.h">
<polygon fill="none" stroke="black" points="1110,-302.5 1110,-332.5 1202,-332.5 1202,-302.5 1110,-302.5"/>
<text text-anchor="start" x="1118" y="-320.5" font-family="Helvetica,sans-Serif" font-size="10.00">spdlog/details/log</text>
<text text-anchor="middle" x="1156" y="-309.5" font-family="Helvetica,sans-Serif" font-size="10.00">_msg.h</text>
</a>
</g>
</g>
<!-- Node3&#45;&gt;Node5 -->
<g id="edge64" class="edge"><title>Node3&#45;&gt;Node5</title>
<path fill="none" stroke="midnightblue" d="M1268.28,-492.21C1263.56,-469.837 1248.75,-409.639 1219,-369 1210.49,-357.373 1198.65,-346.94 1187.54,-338.618"/>
<polygon fill="midnightblue" stroke="midnightblue" points="1189.41,-335.656 1179.24,-332.681 1185.34,-341.348 1189.41,-335.656"/>
</g>
<!-- Node3&#45;&gt;Node6 -->
<g id="edge63" class="edge"><title>Node3&#45;&gt;Node6</title>
<path fill="none" stroke="midnightblue" d="M1282.06,-492.446C1328.14,-458.769 1487,-332.916 1416,-246 1395.7,-221.148 1310.8,-209.673 1252.34,-204.632"/>
<polygon fill="midnightblue" stroke="midnightblue" points="1252.37,-201.123 1242.12,-203.793 1251.8,-208.1 1252.37,-201.123"/>
</g>
<!-- Node36 -->
<g id="node36" class="node"><title>Node36</title>
<g id="a_node36"><a xlink:href="formatter_8h.html" target="_top" xlink:title="spdlog/formatter.h">
<polygon fill="none" stroke="black" points="820.5,-436.5 820.5,-455.5 915.5,-455.5 915.5,-436.5 820.5,-436.5"/>
<text text-anchor="middle" x="868" y="-443.5" font-family="Helvetica,sans-Serif" font-size="10.00">spdlog/formatter.h</text>
</a>
</g>
</g>
<!-- Node3&#45;&gt;Node36 -->
<g id="edge45" class="edge"><title>Node3&#45;&gt;Node36</title>
<path fill="none" stroke="midnightblue" d="M1206.3,-492.444C1129.12,-482.076 1000.21,-464.76 925.792,-454.763"/>
<polygon fill="midnightblue" stroke="midnightblue" points="926.041,-451.265 915.664,-453.403 925.109,-458.203 926.041,-451.265"/>
</g>
<!-- Node38 -->
<g id="node38" class="node"><title>Node38</title>
<polygon fill="none" stroke="#bfbfbf" points="1330,-308 1330,-327 1374,-327 1374,-308 1330,-308"/>
<text text-anchor="middle" x="1352" y="-315" font-family="Helvetica,sans-Serif" font-size="10.00">mutex</text>
</g>
<!-- Node3&#45;&gt;Node38 -->
<g id="edge65" class="edge"><title>Node3&#45;&gt;Node38</title>
<path fill="none" stroke="midnightblue" d="M1273.96,-492.198C1286.65,-463.952 1326.52,-375.2 1343.84,-336.661"/>
<polygon fill="midnightblue" stroke="midnightblue" points="1347.18,-337.77 1348.08,-327.214 1340.79,-334.901 1347.18,-337.77"/>
</g>
<!-- Node4&#45;&gt;Node5 -->
<g id="edge4" class="edge"><title>Node4&#45;&gt;Node5</title>
<path fill="none" stroke="midnightblue" d="M1159.46,-374.734C1158.96,-366.541 1158.18,-353.923 1157.49,-342.714"/>
<polygon fill="midnightblue" stroke="midnightblue" points="1160.97,-342.355 1156.87,-332.589 1153.99,-342.785 1160.97,-342.355"/>
</g>
<!-- Node5&#45;&gt;Node6 -->
<g id="edge5" class="edge"><title>Node5&#45;&gt;Node6</title>
<path fill="none" stroke="midnightblue" d="M1160.78,-302.337C1167.84,-281.433 1181.05,-242.31 1188.83,-219.27"/>
<polygon fill="midnightblue" stroke="midnightblue" points="1192.19,-220.264 1192.07,-209.669 1185.56,-218.024 1192.19,-220.264"/>
</g>
<!-- Node5&#45;&gt;Node7 -->
<g id="edge43" class="edge"><title>Node5&#45;&gt;Node7</title>
<path fill="none" stroke="midnightblue" d="M1109.89,-315.151C932.509,-309.36 304,-283.052 304,-201 304,-201 304,-201 304,-137.5 304,-97.3496 286.224,-52.9463 274.988,-28.8892"/>
<polygon fill="midnightblue" stroke="midnightblue" points="278.013,-27.1043 270.508,-19.6255 271.711,-30.1518 278.013,-27.1043"/>
</g>
<!-- Node25 -->
<g id="node25" class="node"><title>Node25</title>
<polygon fill="none" stroke="#bfbfbf" points="1102,-0.5 1102,-19.5 1142,-19.5 1142,-0.5 1102,-0.5"/>
<text text-anchor="middle" x="1122" y="-7.5" font-family="Helvetica,sans-Serif" font-size="10.00">utility</text>
</g>
<!-- Node5&#45;&gt;Node25 -->
<g id="edge44" class="edge"><title>Node5&#45;&gt;Node25</title>
<path fill="none" stroke="midnightblue" d="M1153.42,-302.42C1149.76,-282.081 1143.07,-243.267 1139,-210 1130.94,-144.136 1125.43,-65.5414 1123.16,-30.054"/>
<polygon fill="midnightblue" stroke="midnightblue" points="1126.64,-29.5145 1122.52,-19.7524 1119.65,-29.9513 1126.64,-29.5145"/>
</g>
<!-- Node27 -->
<g id="node27" class="node"><title>Node27</title>
<g id="a_node27"><a xlink:href="os_8h.html" target="_top" xlink:title="spdlog/details/os.h">
<polygon fill="none" stroke="black" points="739,-246.5 739,-265.5 837,-265.5 837,-246.5 739,-246.5"/>
<text text-anchor="middle" x="788" y="-253.5" font-family="Helvetica,sans-Serif" font-size="10.00">spdlog/details/os.h</text>
</a>
</g>
</g>
<!-- Node5&#45;&gt;Node27 -->
<g id="edge29" class="edge"><title>Node5&#45;&gt;Node27</title>
<path fill="none" stroke="midnightblue" d="M1109.77,-309.025C1043.21,-298.263 920.378,-278.404 847.247,-266.579"/>
<polygon fill="midnightblue" stroke="midnightblue" points="847.699,-263.107 837.268,-264.966 846.582,-270.017 847.699,-263.107"/>
</g>
<!-- Node6&#45;&gt;Node7 -->
<g id="edge6" class="edge"><title>Node6&#45;&gt;Node7</title>
<path fill="none" stroke="midnightblue" d="M1179.51,-190.385C1150.14,-174.443 1083.9,-140.385 1024,-123 749.153,-43.2341 400.931,-18.4369 296.766,-12.5529"/>
<polygon fill="midnightblue" stroke="midnightblue" points="296.814,-9.0504 286.638,-11.9977 296.431,-16.0399 296.814,-9.0504"/>
</g>
<!-- Node8 -->
<g id="node8" class="node"><title>Node8</title>
<polygon fill="none" stroke="#bfbfbf" points="1147.5,-129 1147.5,-148 1220.5,-148 1220.5,-129 1147.5,-129"/>
<text text-anchor="middle" x="1184" y="-136" font-family="Helvetica,sans-Serif" font-size="10.00">initializer_list</text>
</g>
<!-- Node6&#45;&gt;Node8 -->
<g id="edge7" class="edge"><title>Node6&#45;&gt;Node8</title>
<path fill="none" stroke="midnightblue" d="M1193.42,-190.475C1191.87,-182.08 1189.45,-168.981 1187.45,-158.163"/>
<polygon fill="midnightblue" stroke="midnightblue" points="1190.83,-157.206 1185.57,-148.009 1183.95,-158.479 1190.83,-157.206"/>
</g>
<!-- Node9 -->
<g id="node9" class="node"><title>Node9</title>
<polygon fill="none" stroke="#bfbfbf" points="492,-129 492,-148 538,-148 538,-129 492,-129"/>
<text text-anchor="middle" x="515" y="-136" font-family="Helvetica,sans-Serif" font-size="10.00">chrono</text>
</g>
<!-- Node6&#45;&gt;Node9 -->
<g id="edge8" class="edge"><title>Node6&#45;&gt;Node9</title>
<path fill="none" stroke="midnightblue" d="M1147.99,-194.887C1018.67,-183.571 659.82,-152.172 548.425,-142.425"/>
<polygon fill="midnightblue" stroke="midnightblue" points="548.404,-138.91 538.137,-141.524 547.794,-145.883 548.404,-138.91"/>
</g>
<!-- Node6&#45;&gt;Node10 -->
<g id="edge9" class="edge"><title>Node6&#45;&gt;Node10</title>
<path fill="none" stroke="midnightblue" d="M1229.36,-190.487C1252.7,-183.474 1283.33,-171.76 1306,-154 1348.34,-120.833 1332.5,-86.209 1377,-56 1419.68,-27.0251 1479.61,-16.7036 1517.62,-13.0289"/>
<polygon fill="midnightblue" stroke="midnightblue" points="1518.06,-16.5037 1527.72,-12.1587 1517.46,-9.52948 1518.06,-16.5037"/>
</g>
<!-- Node11 -->
<g id="node11" class="node"><title>Node11</title>
<polygon fill="none" stroke="#bfbfbf" points="1386,-62 1386,-81 1432,-81 1432,-62 1386,-62"/>
<text text-anchor="middle" x="1409" y="-69" font-family="Helvetica,sans-Serif" font-size="10.00">atomic</text>
</g>
<!-- Node6&#45;&gt;Node11 -->
<g id="edge10" class="edge"><title>Node6&#45;&gt;Node11</title>
<path fill="none" stroke="midnightblue" d="M1242,-191.433C1271.91,-184.992 1310.44,-173.564 1340,-154 1365.54,-137.098 1386.85,-108.07 1398.76,-89.6058"/>
<polygon fill="midnightblue" stroke="midnightblue" points="1401.78,-91.3715 1404.1,-81.033 1395.84,-87.6704 1401.78,-91.3715"/>
</g>
<!-- Node12 -->
<g id="node12" class="node"><title>Node12</title>
<polygon fill="none" stroke="#bfbfbf" points="1238.5,-129 1238.5,-148 1297.5,-148 1297.5,-129 1238.5,-129"/>
<text text-anchor="middle" x="1268" y="-136" font-family="Helvetica,sans-Serif" font-size="10.00">exception</text>
</g>
<!-- Node6&#45;&gt;Node12 -->
<g id="edge11" class="edge"><title>Node6&#45;&gt;Node12</title>
<path fill="none" stroke="midnightblue" d="M1205.46,-190.475C1216.95,-181.108 1235.63,-165.884 1249.59,-154.508"/>
<polygon fill="midnightblue" stroke="midnightblue" points="1252.02,-157.04 1257.56,-148.009 1247.6,-151.614 1252.02,-157.04"/>
</g>
<!-- Node13 -->
<g id="node13" class="node"><title>Node13</title>
<polygon fill="none" stroke="#bfbfbf" points="849.5,-129 849.5,-148 908.5,-148 908.5,-129 849.5,-129"/>
<text text-anchor="middle" x="879" y="-136" font-family="Helvetica,sans-Serif" font-size="10.00">functional</text>
</g>
<!-- Node6&#45;&gt;Node13 -->
<g id="edge12" class="edge"><title>Node6&#45;&gt;Node13</title>
<path fill="none" stroke="midnightblue" d="M1147.86,-194.177C1092.26,-187.841 997.367,-174.986 918,-154 915.185,-153.256 912.289,-152.386 909.408,-151.449"/>
<polygon fill="midnightblue" stroke="midnightblue" points="910.403,-148.089 899.808,-148.089 908.09,-154.696 910.403,-148.089"/>
</g>
<!-- Node14 -->
<g id="node14" class="node"><title>Node14</title>
<g id="a_node14"><a xlink:href="null__mutex_8h.html" target="_top" xlink:title="spdlog/details/null\l_mutex.h">
<polygon fill="none" stroke="black" points="1392.5,-123.5 1392.5,-153.5 1487.5,-153.5 1487.5,-123.5 1392.5,-123.5"/>
<text text-anchor="start" x="1400.5" y="-141.5" font-family="Helvetica,sans-Serif" font-size="10.00">spdlog/details/null</text>
<text text-anchor="middle" x="1440" y="-130.5" font-family="Helvetica,sans-Serif" font-size="10.00">_mutex.h</text>
</a>
</g>
</g>
<!-- Node6&#45;&gt;Node14 -->
<g id="edge13" class="edge"><title>Node6&#45;&gt;Node14</title>
<path fill="none" stroke="midnightblue" d="M1230.1,-190.475C1269.88,-180.815 1335.31,-164.926 1382.55,-153.452"/>
<polygon fill="midnightblue" stroke="midnightblue" points="1383.45,-156.836 1392.34,-151.075 1381.8,-150.034 1383.45,-156.836"/>
</g>
<!-- Node15 -->
<g id="node15" class="node"><title>Node15</title>
<g id="a_node15"><a xlink:href="fmt_8h.html" target="_top" xlink:title="spdlog/fmt/fmt.h">
<polygon fill="none" stroke="black" points="927,-129 927,-148 1015,-148 1015,-129 927,-129"/>
<text text-anchor="middle" x="971" y="-136" font-family="Helvetica,sans-Serif" font-size="10.00">spdlog/fmt/fmt.h</text>
</a>
</g>
</g>
<!-- Node6&#45;&gt;Node15 -->
<g id="edge15" class="edge"><title>Node6&#45;&gt;Node15</title>
<path fill="none" stroke="midnightblue" d="M1162.91,-190.475C1123.4,-179.982 1056.22,-162.137 1012.74,-150.587"/>
<polygon fill="midnightblue" stroke="midnightblue" points="1013.6,-147.194 1003.03,-148.009 1011.8,-153.959 1013.6,-147.194"/>
</g>
<!-- Node14&#45;&gt;Node11 -->
<g id="edge14" class="edge"><title>Node14&#45;&gt;Node11</title>
<path fill="none" stroke="midnightblue" d="M1433.27,-123.396C1428.68,-113.763 1422.55,-100.914 1417.6,-90.5373"/>
<polygon fill="midnightblue" stroke="midnightblue" points="1420.61,-88.7139 1413.15,-81.1945 1414.29,-91.7273 1420.61,-88.7139"/>
</g>
<!-- Node16 -->
<g id="node16" class="node"><title>Node16</title>
<g id="a_node16"><a xlink:href="format_8h.html" target="_top" xlink:title="spdlog/fmt/bundled\l/format.h">
<polygon fill="none" stroke="black" points="918.5,-56.5 918.5,-86.5 1017.5,-86.5 1017.5,-56.5 918.5,-56.5"/>
<text text-anchor="start" x="926.5" y="-74.5" font-family="Helvetica,sans-Serif" font-size="10.00">spdlog/fmt/bundled</text>
<text text-anchor="middle" x="968" y="-63.5" font-family="Helvetica,sans-Serif" font-size="10.00">/format.h</text>
</a>
</g>
</g>
<!-- Node15&#45;&gt;Node16 -->
<g id="edge16" class="edge"><title>Node15&#45;&gt;Node16</title>
<path fill="none" stroke="midnightblue" d="M970.595,-128.734C970.217,-120.541 969.635,-107.923 969.118,-96.7136"/>
<polygon fill="midnightblue" stroke="midnightblue" points="972.608,-96.417 968.65,-86.589 965.615,-96.7398 972.608,-96.417"/>
</g>
<!-- Node16&#45;&gt;Node7 -->
<g id="edge25" class="edge"><title>Node16&#45;&gt;Node7</title>
<path fill="none" stroke="midnightblue" d="M918.177,-58.4405C913.403,-57.5181 908.621,-56.6824 904,-56 672.067,-21.7509 388.722,-13.386 296.541,-11.5061"/>
<polygon fill="midnightblue" stroke="midnightblue" points="296.572,-8.00613 286.506,-11.3121 296.436,-15.0048 296.572,-8.00613"/>
</g>
<!-- Node16&#45;&gt;Node10 -->
<g id="edge23" class="edge"><title>Node16&#45;&gt;Node10</title>
<path fill="none" stroke="midnightblue" d="M1017.71,-65.4527C1133.15,-53.7316 1417.19,-24.8912 1517.88,-14.667"/>
<polygon fill="midnightblue" stroke="midnightblue" points="1518.28,-18.1454 1527.87,-13.6531 1517.57,-11.1812 1518.28,-18.1454"/>
</g>
<!-- Node17 -->
<g id="node17" class="node"><title>Node17</title>
<polygon fill="none" stroke="#bfbfbf" points="1034.5,-0.5 1034.5,-19.5 1083.5,-19.5 1083.5,-0.5 1034.5,-0.5"/>
<text text-anchor="middle" x="1059" y="-7.5" font-family="Helvetica,sans-Serif" font-size="10.00">cassert</text>
</g>
<!-- Node16&#45;&gt;Node17 -->
<g id="edge17" class="edge"><title>Node16&#45;&gt;Node17</title>
<path fill="none" stroke="midnightblue" d="M989.566,-56.3993C1003.88,-47.0402 1022.61,-34.7924 1037.01,-25.3771"/>
<polygon fill="midnightblue" stroke="midnightblue" points="1039.3,-28.0597 1045.76,-19.6578 1035.47,-22.2009 1039.3,-28.0597"/>
</g>
<!-- Node18 -->
<g id="node18" class="node"><title>Node18</title>
<polygon fill="none" stroke="#bfbfbf" points="640.5,-0.5 640.5,-19.5 687.5,-19.5 687.5,-0.5 640.5,-0.5"/>
<text text-anchor="middle" x="664" y="-7.5" font-family="Helvetica,sans-Serif" font-size="10.00">clocale</text>
</g>
<!-- Node16&#45;&gt;Node18 -->
<g id="edge18" class="edge"><title>Node16&#45;&gt;Node18</title>
<path fill="none" stroke="midnightblue" d="M918.439,-59.011C913.567,-57.96 908.692,-56.9389 904,-56 815.564,-38.3036 789.885,-40.1522 697.762,-19.9834"/>
<polygon fill="midnightblue" stroke="midnightblue" points="698.247,-16.5059 687.727,-17.7575 696.731,-23.3399 698.247,-16.5059"/>
</g>
<!-- Node19 -->
<g id="node19" class="node"><title>Node19</title>
<polygon fill="none" stroke="#bfbfbf" points="706,-0.5 706,-19.5 750,-19.5 750,-0.5 706,-0.5"/>
<text text-anchor="middle" x="728" y="-7.5" font-family="Helvetica,sans-Serif" font-size="10.00">cmath</text>
</g>
<!-- Node16&#45;&gt;Node19 -->
<g id="edge19" class="edge"><title>Node16&#45;&gt;Node19</title>
<path fill="none" stroke="midnightblue" d="M918.433,-59.1928C878.223,-49.8686 819.85,-35.9921 760.275,-20.2556"/>
<polygon fill="midnightblue" stroke="midnightblue" points="760.881,-16.7951 750.317,-17.6106 759.084,-23.5605 760.881,-16.7951"/>
</g>
<!-- Node20 -->
<g id="node20" class="node"><title>Node20</title>
<polygon fill="none" stroke="#bfbfbf" points="1160.5,-0.5 1160.5,-19.5 1203.5,-19.5 1203.5,-0.5 1160.5,-0.5"/>
<text text-anchor="middle" x="1182" y="-7.5" font-family="Helvetica,sans-Serif" font-size="10.00">cstdio</text>
</g>
<!-- Node16&#45;&gt;Node20 -->
<g id="edge20" class="edge"><title>Node16&#45;&gt;Node20</title>
<path fill="none" stroke="midnightblue" d="M1017.76,-56.9608C1052.36,-47.5023 1099.8,-34.4471 1150.49,-20.1169"/>
<polygon fill="midnightblue" stroke="midnightblue" points="1151.66,-23.4231 1160.33,-17.331 1149.76,-16.6879 1151.66,-23.4231"/>
</g>
<!-- Node21 -->
<g id="node21" class="node"><title>Node21</title>
<polygon fill="none" stroke="#bfbfbf" points="768,-0.5 768,-19.5 814,-19.5 814,-0.5 768,-0.5"/>
<text text-anchor="middle" x="791" y="-7.5" font-family="Helvetica,sans-Serif" font-size="10.00">cstring</text>
</g>
<!-- Node16&#45;&gt;Node21 -->
<g id="edge21" class="edge"><title>Node16&#45;&gt;Node21</title>
<path fill="none" stroke="midnightblue" d="M926.053,-56.3993C894.779,-45.886 852.66,-31.7276 823.823,-22.0337"/>
<polygon fill="midnightblue" stroke="midnightblue" points="824.81,-18.6732 814.216,-18.8044 822.58,-25.3084 824.81,-18.6732"/>
</g>
<!-- Node22 -->
<g id="node22" class="node"><title>Node22</title>
<polygon fill="none" stroke="#bfbfbf" points="832,-0.5 832,-19.5 872,-19.5 872,-0.5 832,-0.5"/>
<text text-anchor="middle" x="852" y="-7.5" font-family="Helvetica,sans-Serif" font-size="10.00">limits</text>
</g>
<!-- Node16&#45;&gt;Node22 -->
<g id="edge22" class="edge"><title>Node16&#45;&gt;Node22</title>
<path fill="none" stroke="midnightblue" d="M940.51,-56.3993C921.568,-46.6837 896.558,-33.8551 877.956,-24.3137"/>
<polygon fill="midnightblue" stroke="midnightblue" points="879.374,-21.1076 868.879,-19.6578 876.179,-27.336 879.374,-21.1076"/>
</g>
<!-- Node23 -->
<g id="node23" class="node"><title>Node23</title>
<polygon fill="none" stroke="#bfbfbf" points="890.5,-0.5 890.5,-19.5 949.5,-19.5 949.5,-0.5 890.5,-0.5"/>
<text text-anchor="middle" x="920" y="-7.5" font-family="Helvetica,sans-Serif" font-size="10.00">stdexcept</text>
</g>
<!-- Node16&#45;&gt;Node23 -->
<g id="edge24" class="edge"><title>Node16&#45;&gt;Node23</title>
<path fill="none" stroke="midnightblue" d="M956.625,-56.3993C949.65,-47.7533 940.686,-36.642 933.372,-27.576"/>
<polygon fill="midnightblue" stroke="midnightblue" points="935.987,-25.2433 926.984,-19.6578 930.539,-29.6385 935.987,-25.2433"/>
</g>
<!-- Node16&#45;&gt;Node24 -->
<g id="edge26" class="edge"><title>Node16&#45;&gt;Node24</title>
<path fill="none" stroke="midnightblue" d="M918.374,-67.2588C753.345,-56.4803 225.719,-22.0195 89.3944,-13.1158"/>
<polygon fill="midnightblue" stroke="midnightblue" points="89.4017,-9.60888 79.1948,-12.4496 88.9454,-16.594 89.4017,-9.60888"/>
</g>
<!-- Node16&#45;&gt;Node25 -->
<g id="edge27" class="edge"><title>Node16&#45;&gt;Node25</title>
<path fill="none" stroke="midnightblue" d="M1004.5,-56.3993C1031.35,-46.0237 1067.39,-32.098 1092.45,-22.417"/>
<polygon fill="midnightblue" stroke="midnightblue" points="1093.73,-25.6732 1101.8,-18.8044 1091.21,-19.1436 1093.73,-25.6732"/>
</g>
<!-- Node26 -->
<g id="node26" class="node"><title>Node26</title>
<polygon fill="none" stroke="#bfbfbf" points="967.5,-0.5 967.5,-19.5 1016.5,-19.5 1016.5,-0.5 967.5,-0.5"/>
<text text-anchor="middle" x="992" y="-7.5" font-family="Helvetica,sans-Serif" font-size="10.00">stdint.h</text>
</g>
<!-- Node16&#45;&gt;Node26 -->
<g id="edge28" class="edge"><title>Node16&#45;&gt;Node26</title>
<path fill="none" stroke="midnightblue" d="M973.688,-56.3993C976.995,-48.1989 981.198,-37.7809 984.742,-28.9936"/>
<polygon fill="midnightblue" stroke="midnightblue" points="988.013,-30.2411 988.508,-19.6578 981.521,-27.6225 988.013,-30.2411"/>
</g>
<!-- Node27&#45;&gt;Node6 -->
<g id="edge30" class="edge"><title>Node27&#45;&gt;Node6</title>
<path fill="none" stroke="midnightblue" d="M837.094,-248.486C912.822,-238.439 1057.76,-219.209 1138,-208.562"/>
<polygon fill="midnightblue" stroke="midnightblue" points="1138.48,-212.029 1147.94,-207.244 1137.56,-205.09 1138.48,-212.029"/>
</g>
<!-- Node27&#45;&gt;Node7 -->
<g id="edge34" class="edge"><title>Node27&#45;&gt;Node7</title>
<path fill="none" stroke="midnightblue" d="M738.988,-254.787C681.289,-252.841 583.735,-244.165 508,-210 494.851,-204.068 337.299,-71.3019 283.711,-25.9934"/>
<polygon fill="midnightblue" stroke="midnightblue" points="285.936,-23.2916 276.041,-19.5054 281.415,-28.636 285.936,-23.2916"/>
</g>
<!-- Node27&#45;&gt;Node9 -->
<g id="edge35" class="edge"><title>Node27&#45;&gt;Node9</title>
<path fill="none" stroke="midnightblue" d="M738.955,-253.684C670.02,-250.723 549.663,-241.118 521,-210 508.41,-196.332 508.605,-174.198 510.87,-158.378"/>
<polygon fill="midnightblue" stroke="midnightblue" points="514.378,-158.651 512.733,-148.185 507.492,-157.393 514.378,-158.651"/>
</g>
<!-- Node27&#45;&gt;Node13 -->
<g id="edge33" class="edge"><title>Node27&#45;&gt;Node13</title>
<path fill="none" stroke="midnightblue" d="M837.386,-250.45C888.793,-244.571 964.255,-232.332 982,-210 987.53,-203.041 986.703,-197.543 982,-190 977.74,-183.167 937.759,-164.815 908.888,-152.223"/>
<polygon fill="midnightblue" stroke="midnightblue" points="910.158,-148.959 899.59,-148.199 907.377,-155.383 910.158,-148.959"/>
</g>
<!-- Node27&#45;&gt;Node20 -->
<g id="edge31" class="edge"><title>Node27&#45;&gt;Node20</title>
<path fill="none" stroke="midnightblue" d="M837.058,-247.881C879.25,-240.635 935.403,-227.918 949,-210 954.373,-202.919 954.207,-197.204 949,-190 919.112,-148.653 869.888,-195.347 840,-154 831.929,-142.834 831.232,-133.628 840,-123 893.584,-58.0501 946.134,-113.667 1026,-87 1075.25,-70.5556 1128.89,-41.8066 1158.69,-24.774"/>
<polygon fill="midnightblue" stroke="midnightblue" points="1160.59,-27.7211 1167.49,-19.6861 1157.08,-21.6608 1160.59,-27.7211"/>
</g>
<!-- Node28 -->
<g id="node28" class="node"><title>Node28</title>
<polygon fill="none" stroke="#bfbfbf" points="394.5,-190.5 394.5,-209.5 435.5,-209.5 435.5,-190.5 394.5,-190.5"/>
<text text-anchor="middle" x="415" y="-197.5" font-family="Helvetica,sans-Serif" font-size="10.00">ctime</text>
</g>
<!-- Node27&#45;&gt;Node28 -->
<g id="edge32" class="edge"><title>Node27&#45;&gt;Node28</title>
<path fill="none" stroke="midnightblue" d="M738.724,-250.302C672.645,-243.579 551.838,-229.799 450,-210 448.537,-209.716 447.045,-209.407 445.54,-209.08"/>
<polygon fill="midnightblue" stroke="midnightblue" points="446.172,-205.633 435.635,-206.742 444.564,-212.446 446.172,-205.633"/>
</g>
<!-- Node29 -->
<g id="node29" class="node"><title>Node29</title>
<polygon fill="none" stroke="#bfbfbf" points="332,-190.5 332,-209.5 376,-209.5 376,-190.5 332,-190.5"/>
<text text-anchor="middle" x="354" y="-197.5" font-family="Helvetica,sans-Serif" font-size="10.00">thread</text>
</g>
<!-- Node27&#45;&gt;Node29 -->
<g id="edge36" class="edge"><title>Node27&#45;&gt;Node29</title>
<path fill="none" stroke="midnightblue" d="M738.888,-252.237C664.438,-247.454 518.519,-235.756 386.149,-209.917"/>
<polygon fill="midnightblue" stroke="midnightblue" points="386.728,-206.464 376.238,-207.951 385.366,-213.33 386.728,-206.464"/>
</g>
<!-- Node30 -->
<g id="node30" class="node"><title>Node30</title>
<polygon fill="none" stroke="#bfbfbf" points="894,-190.5 894,-209.5 940,-209.5 940,-190.5 894,-190.5"/>
<text text-anchor="middle" x="917" y="-197.5" font-family="Helvetica,sans-Serif" font-size="10.00">stdio.h</text>
</g>
<!-- Node27&#45;&gt;Node30 -->
<g id="edge37" class="edge"><title>Node27&#45;&gt;Node30</title>
<path fill="none" stroke="midnightblue" d="M808.44,-246.444C829.67,-237.557 863.099,-223.563 887.255,-213.451"/>
<polygon fill="midnightblue" stroke="midnightblue" points="888.782,-216.606 896.655,-209.516 886.079,-210.149 888.782,-216.606"/>
</g>
<!-- Node31 -->
<g id="node31" class="node"><title>Node31</title>
<polygon fill="none" stroke="#bfbfbf" points="530.5,-190.5 530.5,-209.5 579.5,-209.5 579.5,-190.5 530.5,-190.5"/>
<text text-anchor="middle" x="555" y="-197.5" font-family="Helvetica,sans-Serif" font-size="10.00">string.h</text>
</g>
<!-- Node27&#45;&gt;Node31 -->
<g id="edge38" class="edge"><title>Node27&#45;&gt;Node31</title>
<path fill="none" stroke="midnightblue" d="M748.256,-246.458C710.059,-238.15 650.477,-224.932 589.629,-210.087"/>
<polygon fill="midnightblue" stroke="midnightblue" points="590.402,-206.673 579.856,-207.691 588.735,-213.471 590.402,-206.673"/>
</g>
<!-- Node32 -->
<g id="node32" class="node"><title>Node32</title>
<polygon fill="none" stroke="#bfbfbf" points="598,-190.5 598,-209.5 658,-209.5 658,-190.5 598,-190.5"/>
<text text-anchor="middle" x="628" y="-197.5" font-family="Helvetica,sans-Serif" font-size="10.00">sys/stat.h</text>
</g>
<!-- Node27&#45;&gt;Node32 -->
<g id="edge39" class="edge"><title>Node27&#45;&gt;Node32</title>
<path fill="none" stroke="midnightblue" d="M762.648,-246.444C735.731,-237.359 693.004,-222.939 662.913,-212.783"/>
<polygon fill="midnightblue" stroke="midnightblue" points="663.828,-209.398 653.234,-209.516 661.59,-216.031 663.828,-209.398"/>
</g>
<!-- Node33 -->
<g id="node33" class="node"><title>Node33</title>
<polygon fill="none" stroke="#bfbfbf" points="676,-190.5 676,-209.5 744,-209.5 744,-190.5 676,-190.5"/>
<text text-anchor="middle" x="710" y="-197.5" font-family="Helvetica,sans-Serif" font-size="10.00">sys/types.h</text>
</g>
<!-- Node27&#45;&gt;Node33 -->
<g id="edge40" class="edge"><title>Node27&#45;&gt;Node33</title>
<path fill="none" stroke="midnightblue" d="M775.468,-246.324C763.414,-237.979 744.973,-225.212 730.731,-215.352"/>
<polygon fill="midnightblue" stroke="midnightblue" points="732.715,-212.469 722.501,-209.655 728.731,-218.224 732.715,-212.469"/>
</g>
<!-- Node34 -->
<g id="node34" class="node"><title>Node34</title>
<polygon fill="none" stroke="#bfbfbf" points="762.5,-190.5 762.5,-209.5 813.5,-209.5 813.5,-190.5 762.5,-190.5"/>
<text text-anchor="middle" x="788" y="-197.5" font-family="Helvetica,sans-Serif" font-size="10.00">unistd.h</text>
</g>
<!-- Node27&#45;&gt;Node34 -->
<g id="edge41" class="edge"><title>Node27&#45;&gt;Node34</title>
<path fill="none" stroke="midnightblue" d="M788,-246.083C788,-239.006 788,-228.861 788,-219.986"/>
<polygon fill="midnightblue" stroke="midnightblue" points="791.5,-219.751 788,-209.751 784.5,-219.751 791.5,-219.751"/>
</g>
<!-- Node35 -->
<g id="node35" class="node"><title>Node35</title>
<polygon fill="none" stroke="#bfbfbf" points="832,-190.5 832,-209.5 876,-209.5 876,-190.5 832,-190.5"/>
<text text-anchor="middle" x="854" y="-197.5" font-family="Helvetica,sans-Serif" font-size="10.00">fcntl.h</text>
</g>
<!-- Node27&#45;&gt;Node35 -->
<g id="edge42" class="edge"><title>Node27&#45;&gt;Node35</title>
<path fill="none" stroke="midnightblue" d="M798.604,-246.324C808.456,-238.263 823.351,-226.077 835.215,-216.369"/>
<polygon fill="midnightblue" stroke="midnightblue" points="837.68,-218.875 843.203,-209.834 833.247,-213.457 837.68,-218.875"/>
</g>
<!-- Node36&#45;&gt;Node5 -->
<g id="edge46" class="edge"><title>Node36&#45;&gt;Node5</title>
<path fill="none" stroke="midnightblue" d="M887.795,-436.305C934.334,-415.864 1051.5,-364.398 1114.46,-336.745"/>
<polygon fill="midnightblue" stroke="midnightblue" points="1115.96,-339.908 1123.71,-332.682 1113.15,-333.499 1115.96,-339.908"/>
</g>
<!-- Node36&#45;&gt;Node7 -->
<g id="edge48" class="edge"><title>Node36&#45;&gt;Node7</title>
<path fill="none" stroke="midnightblue" d="M820.192,-442.277C690.775,-434.005 337.463,-405.18 250,-333 176.964,-272.727 200.958,-216.792 214,-123 218.263,-92.343 219.411,-83.8092 233,-56 237.935,-45.9002 245.176,-35.7113 251.619,-27.589"/>
<polygon fill="midnightblue" stroke="midnightblue" points="254.476,-29.626 258.149,-19.6884 249.08,-25.1662 254.476,-29.626"/>
</g>
<!-- Node36&#45;&gt;Node10 -->
<g id="edge49" class="edge"><title>Node36&#45;&gt;Node10</title>
<path fill="none" stroke="midnightblue" d="M915.792,-442.575C998.951,-437.749 1166.43,-425.167 1219,-400 1275.7,-372.856 1268.38,-336.393 1321,-302 1356.03,-279.107 1369.55,-282.511 1408,-266 1473.27,-237.974 1554,-272.029 1554,-201 1554,-201 1554,-201 1554,-137.5 1554,-99.2024 1554,-54.3829 1554,-29.6971"/>
<polygon fill="midnightblue" stroke="midnightblue" points="1557.5,-29.5894 1554,-19.5894 1550.5,-29.5895 1557.5,-29.5894"/>
</g>
<!-- Node36&#45;&gt;Node24 -->
<g id="edge47" class="edge"><title>Node36&#45;&gt;Node24</title>
<path fill="none" stroke="midnightblue" d="M820.394,-444.481C644.03,-441.297 38,-418.599 38,-257 38,-257 38,-257 38,-137.5 38,-98.7728 46.8162,-54.1089 52.4377,-29.5661"/>
<polygon fill="midnightblue" stroke="midnightblue" points="55.9174,-30.0609 54.8205,-19.523 49.1065,-28.4449 55.9174,-30.0609"/>
</g>
<!-- Node37 -->
<g id="node37" class="node"><title>Node37</title>
<g id="a_node37"><a xlink:href="pattern__formatter__impl_8h.html" target="_top" xlink:title="spdlog/details/pattern\l_formatter_impl.h">
<polygon fill="none" stroke="black" points="813,-369.5 813,-399.5 923,-399.5 923,-369.5 813,-369.5"/>
<text text-anchor="start" x="821" y="-387.5" font-family="Helvetica,sans-Serif" font-size="10.00">spdlog/details/pattern</text>
<text text-anchor="middle" x="868" y="-376.5" font-family="Helvetica,sans-Serif" font-size="10.00">_formatter_impl.h</text>
</a>
</g>
</g>
<!-- Node36&#45;&gt;Node37 -->
<g id="edge50" class="edge"><title>Node36&#45;&gt;Node37</title>
<path fill="none" stroke="midnightblue" d="M863.099,-436.475C861.572,-429.471 860.991,-419.192 861.356,-409.696"/>
<polygon fill="midnightblue" stroke="midnightblue" points="864.861,-409.77 862.17,-399.523 857.883,-409.212 864.861,-409.77"/>
</g>
<!-- Node37&#45;&gt;Node5 -->
<g id="edge52" class="edge"><title>Node37&#45;&gt;Node5</title>
<path fill="none" stroke="midnightblue" d="M923.353,-371.55C969.567,-361.499 1037.15,-346.627 1096,-333 1097.26,-332.708 1098.54,-332.411 1099.83,-332.11"/>
<polygon fill="midnightblue" stroke="midnightblue" points="1100.9,-335.452 1109.83,-329.751 1099.3,-328.639 1100.9,-335.452"/>
</g>
<!-- Node37&#45;&gt;Node7 -->
<g id="edge59" class="edge"><title>Node37&#45;&gt;Node7</title>
<path fill="none" stroke="midnightblue" d="M812.88,-384.236C657.639,-384.84 228,-375.782 228,-257 228,-257 228,-257 228,-137.5 228,-97.3496 245.776,-52.9463 257.012,-28.8892"/>
<polygon fill="midnightblue" stroke="midnightblue" points="260.289,-30.1518 261.492,-19.6255 253.987,-27.1043 260.289,-30.1518"/>
</g>
<!-- Node37&#45;&gt;Node9 -->
<g id="edge55" class="edge"><title>Node37&#45;&gt;Node9</title>
<path fill="none" stroke="midnightblue" d="M812.919,-378.215C754.541,-371.595 660.172,-357.96 582,-333 460.606,-294.238 391.091,-317.716 323,-210 285.885,-151.287 417.589,-141.138 481.792,-139.617"/>
<polygon fill="midnightblue" stroke="midnightblue" points="481.911,-143.115 491.846,-139.436 481.785,-136.116 481.911,-143.115"/>
</g>
<!-- Node37&#45;&gt;Node10 -->
<g id="edge57" class="edge"><title>Node37&#45;&gt;Node10</title>
<path fill="none" stroke="midnightblue" d="M923.29,-379.839C991.871,-374.283 1111.86,-361.22 1211,-333 1215.44,-331.736 1516,-205.616 1516,-201 1516,-201 1516,-201 1516,-137.5 1516,-97.3496 1533.78,-52.9463 1545.01,-28.8892"/>
<polygon fill="midnightblue" stroke="midnightblue" points="1548.29,-30.1518 1549.49,-19.6255 1541.99,-27.1043 1548.29,-30.1518"/>
</g>
<!-- Node37&#45;&gt;Node15 -->
<g id="edge54" class="edge"><title>Node37&#45;&gt;Node15</title>
<path fill="none" stroke="midnightblue" d="M884.031,-369.246C913.457,-341.875 975.163,-278.563 998,-210 1004.18,-191.435 993.972,-170.546 984.385,-156.358"/>
<polygon fill="midnightblue" stroke="midnightblue" points="987.076,-154.108 978.353,-148.094 981.421,-158.235 987.076,-154.108"/>
</g>
<!-- Node37&#45;&gt;Node24 -->
<g id="edge62" class="edge"><title>Node37&#45;&gt;Node24</title>
<path fill="none" stroke="midnightblue" d="M812.912,-381.857C670.366,-377.205 297.198,-362.34 250,-333 132.464,-259.934 77.1253,-86.5384 61.6694,-29.5241"/>
<polygon fill="midnightblue" stroke="midnightblue" points="65.0252,-28.5226 59.1034,-19.7373 58.2541,-30.298 65.0252,-28.5226"/>
</g>
<!-- Node37&#45;&gt;Node25 -->
<g id="edge61" class="edge"><title>Node37&#45;&gt;Node25</title>
<path fill="none" stroke="midnightblue" d="M896.809,-369.357C913.078,-360.435 933.078,-347.81 948,-333 1042.74,-238.972 1099.15,-82.4531 1116.35,-29.3038"/>
<polygon fill="midnightblue" stroke="midnightblue" points="1119.75,-30.181 1119.43,-19.591 1113.07,-28.0686 1119.75,-30.181"/>
</g>
<!-- Node37&#45;&gt;Node27 -->
<g id="edge53" class="edge"><title>Node37&#45;&gt;Node27</title>
<path fill="none" stroke="midnightblue" d="M859.133,-369.479C844.415,-346.206 814.981,-299.663 798.976,-274.355"/>
<polygon fill="midnightblue" stroke="midnightblue" points="801.861,-272.37 793.558,-265.789 795.945,-276.111 801.861,-272.37"/>
</g>
<!-- Node37&#45;&gt;Node28 -->
<g id="edge56" class="edge"><title>Node37&#45;&gt;Node28</title>
<path fill="none" stroke="midnightblue" d="M833.206,-369.483C747.376,-334.904 526.639,-245.976 445.507,-213.29"/>
<polygon fill="midnightblue" stroke="midnightblue" points="446.468,-209.904 435.884,-209.414 443.852,-216.397 446.468,-209.904"/>
</g>
<!-- Node37&#45;&gt;Node29 -->
<g id="edge60" class="edge"><title>Node37&#45;&gt;Node29</title>
<path fill="none" stroke="midnightblue" d="M812.75,-372.013C772,-362.965 715.456,-349.199 667,-333 558.267,-296.651 434.181,-239.389 380.76,-213.936"/>
<polygon fill="midnightblue" stroke="midnightblue" points="382.158,-210.725 371.627,-209.566 379.136,-217.04 382.158,-210.725"/>
</g>
<!-- Node37&#45;&gt;Node36 -->
<g id="edge51" class="edge"><title>Node37&#45;&gt;Node36</title>
<path fill="none" stroke="midnightblue" d="M873.83,-399.523C874.873,-407.586 875.029,-417.813 874.299,-426.526"/>
<polygon fill="midnightblue" stroke="midnightblue" points="870.827,-426.085 872.901,-436.475 877.759,-427.06 870.827,-426.085"/>
</g>
<!-- Node37&#45;&gt;Node38 -->
<g id="edge58" class="edge"><title>Node37&#45;&gt;Node38</title>
<path fill="none" stroke="midnightblue" d="M923.217,-377.957C1002.12,-369.75 1151.58,-353.146 1278,-333 1291.77,-330.805 1306.9,-327.927 1319.86,-325.313"/>
<polygon fill="midnightblue" stroke="midnightblue" points="1320.64,-328.727 1329.73,-323.292 1319.23,-321.869 1320.64,-328.727"/>
</g>
<!-- Node39&#45;&gt;Node3 -->
<g id="edge73" class="edge"><title>Node39&#45;&gt;Node3</title>
<path fill="none" stroke="midnightblue" d="M1430.5,-548.475C1393.64,-538.03 1343.97,-523.958 1309.69,-514.247"/>
<polygon fill="midnightblue" stroke="midnightblue" points="1310.6,-510.865 1300.02,-511.506 1308.69,-517.6 1310.6,-510.865"/>
</g>
<!-- Node39&#45;&gt;Node10 -->
<g id="edge75" class="edge"><title>Node39&#45;&gt;Node10</title>
<path fill="none" stroke="midnightblue" d="M1530.7,-558.62C1566.51,-553.35 1613.38,-540.977 1644,-512 1666.37,-490.831 1668,-477.795 1668,-447 1668,-447 1668,-447 1668,-137.5 1668,-99.7399 1668.23,-84.9591 1644,-56 1630.03,-39.3059 1608.34,-28.202 1589.75,-21.2014"/>
<polygon fill="midnightblue" stroke="midnightblue" points="1590.69,-17.8208 1580.09,-17.8158 1588.37,-24.4268 1590.69,-17.8208"/>
</g>
<!-- Node39&#45;&gt;Node14 -->
<g id="edge72" class="edge"><title>Node39&#45;&gt;Node14</title>
<path fill="none" stroke="midnightblue" d="M1478.67,-548.426C1472.87,-487.077 1449.75,-242.593 1442.31,-163.98"/>
<polygon fill="midnightblue" stroke="midnightblue" points="1445.76,-163.253 1441.34,-153.627 1438.79,-163.912 1445.76,-163.253"/>
</g>
<!-- Node39&#45;&gt;Node20 -->
<g id="edge74" class="edge"><title>Node39&#45;&gt;Node20</title>
<path fill="none" stroke="midnightblue" d="M1526.64,-548.45C1570.67,-531.957 1630,-499.916 1630,-447 1630,-447 1630,-447 1630,-137.5 1630,-50.8572 1315.73,-20.6114 1213.63,-13.0709"/>
<polygon fill="midnightblue" stroke="midnightblue" points="1213.83,-9.57668 1203.61,-12.3542 1213.33,-16.5588 1213.83,-9.57668"/>
</g>
<!-- Node39&#45;&gt;Node38 -->
<g id="edge76" class="edge"><title>Node39&#45;&gt;Node38</title>
<path fill="none" stroke="midnightblue" d="M1471.39,-548.412C1454.51,-520.542 1416.23,-456.2 1388,-400 1377.29,-378.684 1366.42,-353.473 1359.47,-336.796"/>
<polygon fill="midnightblue" stroke="midnightblue" points="1362.56,-335.105 1355.51,-327.196 1356.09,-337.775 1362.56,-335.105"/>
</g>
</g>
</svg>
