<?xml version="1.0" encoding="UTF-8" standalone="no"?>
<!DOCTYPE svg PUBLIC "-//W3C//DTD SVG 1.1//EN"
 "http://www.w3.org/Graphics/SVG/1.1/DTD/svg11.dtd">
<!-- Generated by graphviz version 2.36.0 (20140111.2315)
 -->
<!-- Title: /home/lucamuratore/advr&#45;superbuild/external/XBotInterface/include/spdlog/details/logger_impl.h Pages: 1 -->
<svg width="1714pt" height="682pt"
 viewBox="0.00 0.00 1714.00 682.00" xmlns="http://www.w3.org/2000/svg" xmlns:xlink="http://www.w3.org/1999/xlink">
<g id="graph0" class="graph" transform="scale(1 1) rotate(0) translate(4 678)">
<title>/home/lucamuratore/advr&#45;superbuild/external/XBotInterface/include/spdlog/details/logger_impl.h</title>
<!-- Node1 -->
<g id="node1" class="node"><title>Node1</title>
<polygon fill="#bfbfbf" stroke="black" points="1264.5,-621 1264.5,-673 1409.5,-673 1409.5,-621 1264.5,-621"/>
<text text-anchor="start" x="1272.5" y="-661" font-family="Helvetica,sans-Serif" font-size="10.00">/home/lucamuratore</text>
<text text-anchor="start" x="1272.5" y="-650" font-family="Helvetica,sans-Serif" font-size="10.00">/advr&#45;superbuild/external</text>
<text text-anchor="start" x="1272.5" y="-639" font-family="Helvetica,sans-Serif" font-size="10.00">/XBotInterface/include/spdlog</text>
<text text-anchor="middle" x="1337" y="-628" font-family="Helvetica,sans-Serif" font-size="10.00">/details/logger_impl.h</text>
</g>
<!-- Node2 -->
<g id="node2" class="node"><title>Node2</title>
<g id="a_node2"><a xlink:href="logger_8h.html" target="_top" xlink:title="spdlog/logger.h">
<polygon fill="none" stroke="black" points="1295.5,-558.5 1295.5,-577.5 1378.5,-577.5 1378.5,-558.5 1295.5,-558.5"/>
<text text-anchor="middle" x="1337" y="-565.5" font-family="Helvetica,sans-Serif" font-size="10.00">spdlog/logger.h</text>
</a>
</g>
</g>
<!-- Node1&#45;&gt;Node2 -->
<g id="edge1" class="edge"><title>Node1&#45;&gt;Node2</title>
<path fill="none" stroke="midnightblue" d="M1330.62,-620.787C1329.99,-609.952 1330.16,-597.517 1331.13,-587.548"/>
<polygon fill="midnightblue" stroke="midnightblue" points="1334.61,-587.953 1332.56,-577.558 1327.68,-586.96 1334.61,-587.953"/>
</g>
<!-- Node7 -->
<g id="node7" class="node"><title>Node7</title>
<polygon fill="none" stroke="#bfbfbf" points="245.5,-0.5 245.5,-19.5 286.5,-19.5 286.5,-0.5 245.5,-0.5"/>
<text text-anchor="middle" x="266" y="-7.5" font-family="Helvetica,sans-Serif" font-size="10.00">string</text>
</g>
<!-- Node1&#45;&gt;Node7 -->
<g id="edge78" class="edge"><title>Node1&#45;&gt;Node7</title>
<path fill="none" stroke="midnightblue" d="M1264.38,-645.915C990.815,-644.65 38,-631.319 38,-507 38,-507 38,-507 38,-449 38,-297.741 72.0062,-259.614 139,-124 155.272,-91.0613 158.85,-80.7508 186,-56 200.628,-42.6643 219.896,-31.6752 235.857,-23.8953"/>
<polygon fill="midnightblue" stroke="midnightblue" points="237.726,-26.8851 245.297,-19.4736 234.756,-20.5461 237.726,-26.8851"/>
</g>
<!-- Node10 -->
<g id="node10" class="node"><title>Node10</title>
<polygon fill="none" stroke="#bfbfbf" points="1528,-0.5 1528,-19.5 1580,-19.5 1580,-0.5 1528,-0.5"/>
<text text-anchor="middle" x="1554" y="-7.5" font-family="Helvetica,sans-Serif" font-size="10.00">memory</text>
</g>
<!-- Node1&#45;&gt;Node10 -->
<g id="edge77" class="edge"><title>Node1&#45;&gt;Node10</title>
<path fill="none" stroke="midnightblue" d="M1409.9,-633.818C1517.44,-613.753 1706,-569.638 1706,-507 1706,-507 1706,-507 1706,-139 1706,-98.4288 1697.44,-83.9123 1668,-56 1646.52,-35.6338 1614.71,-24.1134 1590.15,-17.8392"/>
<polygon fill="midnightblue" stroke="midnightblue" points="1590.66,-14.3623 1580.12,-15.4609 1589.05,-21.1735 1590.66,-14.3623"/>
</g>
<!-- Node39 -->
<g id="node39" class="node"><title>Node39</title>
<g id="a_node39"><a xlink:href="stdout__sinks_8h.html" target="_top" xlink:title="spdlog/sinks/stdout\l_sinks.h">
<polygon fill="none" stroke="black" points="1429.5,-553 1429.5,-583 1530.5,-583 1530.5,-553 1429.5,-553"/>
<text text-anchor="start" x="1437.5" y="-571" font-family="Helvetica,sans-Serif" font-size="10.00">spdlog/sinks/stdout</text>
<text text-anchor="middle" x="1480" y="-560" font-family="Helvetica,sans-Serif" font-size="10.00">_sinks.h</text>
</a>
</g>
</g>
<!-- Node1&#45;&gt;Node39 -->
<g id="edge71" class="edge"><title>Node1&#45;&gt;Node39</title>
<path fill="none" stroke="midnightblue" d="M1383.82,-620.787C1403.75,-610.056 1426.6,-597.755 1445.02,-587.836"/>
<polygon fill="midnightblue" stroke="midnightblue" points="1446.8,-590.853 1453.94,-583.031 1443.48,-584.69 1446.8,-590.853"/>
</g>
<!-- Node2&#45;&gt;Node1 -->
<g id="edge70" class="edge"><title>Node2&#45;&gt;Node1</title>
<path fill="none" stroke="midnightblue" d="M1341.44,-577.558C1343.12,-585.662 1343.89,-598.387 1343.73,-610.677"/>
<polygon fill="midnightblue" stroke="midnightblue" points="1340.23,-610.672 1343.38,-620.787 1347.22,-610.915 1340.23,-610.672"/>
</g>
<!-- Node3 -->
<g id="node3" class="node"><title>Node3</title>
<g id="a_node3"><a xlink:href="base__sink_8h.html" target="_top" xlink:title="spdlog/sinks/base_sink.h">
<polygon fill="none" stroke="black" points="1206.5,-496.5 1206.5,-515.5 1333.5,-515.5 1333.5,-496.5 1206.5,-496.5"/>
<text text-anchor="middle" x="1270" y="-503.5" font-family="Helvetica,sans-Serif" font-size="10.00">spdlog/sinks/base_sink.h</text>
</a>
</g>
</g>
<!-- Node2&#45;&gt;Node3 -->
<g id="edge2" class="edge"><title>Node2&#45;&gt;Node3</title>
<path fill="none" stroke="midnightblue" d="M1327.4,-558.403C1316.95,-549.047 1300.03,-533.895 1287.26,-522.46"/>
<polygon fill="midnightblue" stroke="midnightblue" points="1289.37,-519.644 1279.58,-515.581 1284.7,-524.859 1289.37,-519.644"/>
</g>
<!-- Node6 -->
<g id="node6" class="node"><title>Node6</title>
<g id="a_node6"><a xlink:href="common_8h.html" target="_top" xlink:title="spdlog/common.h">
<polygon fill="none" stroke="black" points="1148,-192.5 1148,-211.5 1242,-211.5 1242,-192.5 1148,-192.5"/>
<text text-anchor="middle" x="1195" y="-199.5" font-family="Helvetica,sans-Serif" font-size="10.00">spdlog/common.h</text>
</a>
</g>
</g>
<!-- Node2&#45;&gt;Node6 -->
<g id="edge66" class="edge"><title>Node2&#45;&gt;Node6</title>
<path fill="none" stroke="midnightblue" d="M1342.45,-558.392C1363.85,-523.389 1438.26,-389.532 1382,-304 1349.77,-254.992 1285.45,-227.902 1241.33,-214.407"/>
<polygon fill="midnightblue" stroke="midnightblue" points="1242.27,-211.036 1231.69,-211.575 1240.3,-217.752 1242.27,-211.036"/>
</g>
<!-- Node2&#45;&gt;Node7 -->
<g id="edge69" class="edge"><title>Node2&#45;&gt;Node7</title>
<path fill="none" stroke="midnightblue" d="M1295.26,-565.277C1080.91,-556.163 114,-511.685 114,-451 114,-451 114,-451 114,-257 114,-156.231 207.445,-62.2488 247.8,-26.3607"/>
<polygon fill="midnightblue" stroke="midnightblue" points="250.314,-28.8121 255.552,-19.6028 245.714,-23.5354 250.314,-28.8121"/>
</g>
<!-- Node2&#45;&gt;Node10 -->
<g id="edge68" class="edge"><title>Node2&#45;&gt;Node10</title>
<path fill="none" stroke="midnightblue" d="M1349.65,-558.261C1401.1,-521.566 1592,-373.906 1592,-203 1592,-203 1592,-203 1592,-139 1592,-98.2307 1574.06,-53.0653 1562.84,-28.7866"/>
<polygon fill="midnightblue" stroke="midnightblue" points="1565.98,-27.2455 1558.51,-19.734 1559.67,-30.2655 1565.98,-27.2455"/>
</g>
<!-- Node24 -->
<g id="node24" class="node"><title>Node24</title>
<polygon fill="none" stroke="#bfbfbf" points="35,-0.5 35,-19.5 79,-19.5 79,-0.5 35,-0.5"/>
<text text-anchor="middle" x="57" y="-7.5" font-family="Helvetica,sans-Serif" font-size="10.00">vector</text>
</g>
<!-- Node2&#45;&gt;Node24 -->
<g id="edge67" class="edge"><title>Node2&#45;&gt;Node24</title>
<path fill="none" stroke="midnightblue" d="M1295.24,-566.396C1125.45,-563.719 486.566,-551.455 288,-516 206.357,-501.422 174.098,-512.626 110,-460 31.293,-395.38 0,-360.836 0,-259 0,-259 0,-259 0,-139 0,-96.0494 27.1139,-51.4573 43.9409,-27.9188"/>
<polygon fill="midnightblue" stroke="midnightblue" points="46.8788,-29.8325 50.0107,-19.7111 41.2506,-25.6703 46.8788,-29.8325"/>
</g>
<!-- Node4 -->
<g id="node4" class="node"><title>Node4</title>
<g id="a_node4"><a xlink:href="sink_8h.html" target="_top" xlink:title="spdlog/sinks/sink.h">
<polygon fill="none" stroke="black" points="1109.5,-378.5 1109.5,-397.5 1210.5,-397.5 1210.5,-378.5 1109.5,-378.5"/>
<text text-anchor="middle" x="1160" y="-385.5" font-family="Helvetica,sans-Serif" font-size="10.00">spdlog/sinks/sink.h</text>
</a>
</g>
</g>
<!-- Node3&#45;&gt;Node4 -->
<g id="edge3" class="edge"><title>Node3&#45;&gt;Node4</title>
<path fill="none" stroke="midnightblue" d="M1261.73,-496.281C1243.33,-476.872 1198.75,-429.861 1175.18,-405.011"/>
<polygon fill="midnightblue" stroke="midnightblue" points="1177.49,-402.353 1168.06,-397.505 1172.41,-407.169 1177.49,-402.353"/>
</g>
<!-- Node5 -->
<g id="node5" class="node"><title>Node5</title>
<g id="a_node5"><a xlink:href="log__msg_8h.html" target="_top" xlink:title="spdlog/details/log\l_msg.h">
<polygon fill="none" stroke="black" points="1110,-305 1110,-335 1202,-335 1202,-305 1110,-305"/>
<text text-anchor="start" x="1118" y="-323" font-family="Helvetica,sans-Serif" font-size="10.00">spdlog/details/log</text>
<text text-anchor="middle" x="1156" y="-312" font-family="Helvetica,sans-Serif" font-size="10.00">_msg.h</text>
</a>
</g>
</g>
<!-- Node3&#45;&gt;Node5 -->
<g id="edge64" class="edge"><title>Node3&#45;&gt;Node5</title>
<path fill="none" stroke="midnightblue" d="M1268.35,-496.478C1263.72,-474.221 1248.94,-413.217 1219,-372 1210.43,-360.205 1198.48,-349.605 1187.29,-341.164"/>
<polygon fill="midnightblue" stroke="midnightblue" points="1189.11,-338.158 1178.95,-335.146 1185.01,-343.835 1189.11,-338.158"/>
</g>
<!-- Node3&#45;&gt;Node6 -->
<g id="edge63" class="edge"><title>Node3&#45;&gt;Node6</title>
<path fill="none" stroke="midnightblue" d="M1282.09,-496.369C1328.26,-462.391 1487.42,-335.43 1416,-248 1395.7,-223.148 1310.8,-211.673 1252.34,-206.632"/>
<polygon fill="midnightblue" stroke="midnightblue" points="1252.37,-203.123 1242.12,-205.793 1251.8,-210.1 1252.37,-203.123"/>
</g>
<!-- Node36 -->
<g id="node36" class="node"><title>Node36</title>
<g id="a_node36"><a xlink:href="formatter_8h.html" target="_top" xlink:title="spdlog/formatter.h">
<polygon fill="none" stroke="black" points="820.5,-440.5 820.5,-459.5 915.5,-459.5 915.5,-440.5 820.5,-440.5"/>
<text text-anchor="middle" x="868" y="-447.5" font-family="Helvetica,sans-Serif" font-size="10.00">spdlog/formatter.h</text>
</a>
</g>
</g>
<!-- Node3&#45;&gt;Node36 -->
<g id="edge45" class="edge"><title>Node3&#45;&gt;Node36</title>
<path fill="none" stroke="midnightblue" d="M1206.3,-496.444C1129.12,-486.076 1000.21,-468.76 925.792,-458.763"/>
<polygon fill="midnightblue" stroke="midnightblue" points="926.041,-455.265 915.664,-457.403 925.109,-462.203 926.041,-455.265"/>
</g>
<!-- Node38 -->
<g id="node38" class="node"><title>Node38</title>
<polygon fill="none" stroke="#bfbfbf" points="1330,-310.5 1330,-329.5 1374,-329.5 1374,-310.5 1330,-310.5"/>
<text text-anchor="middle" x="1352" y="-317.5" font-family="Helvetica,sans-Serif" font-size="10.00">mutex</text>
</g>
<!-- Node3&#45;&gt;Node38 -->
<g id="edge65" class="edge"><title>Node3&#45;&gt;Node38</title>
<path fill="none" stroke="midnightblue" d="M1273.96,-496.125C1286.65,-467.647 1326.52,-378.166 1343.84,-339.31"/>
<polygon fill="midnightblue" stroke="midnightblue" points="1347.21,-340.344 1348.08,-329.786 1340.82,-337.495 1347.21,-340.344"/>
</g>
<!-- Node4&#45;&gt;Node5 -->
<g id="edge4" class="edge"><title>Node4&#45;&gt;Node5</title>
<path fill="none" stroke="midnightblue" d="M1159.48,-378.372C1158.97,-369.971 1158.17,-356.811 1157.47,-345.213"/>
<polygon fill="midnightblue" stroke="midnightblue" points="1160.96,-344.951 1156.86,-335.181 1153.97,-345.375 1160.96,-344.951"/>
</g>
<!-- Node5&#45;&gt;Node6 -->
<g id="edge5" class="edge"><title>Node5&#45;&gt;Node6</title>
<path fill="none" stroke="midnightblue" d="M1160.78,-304.776C1167.84,-283.781 1181.05,-244.488 1188.83,-221.349"/>
<polygon fill="midnightblue" stroke="midnightblue" points="1192.2,-222.301 1192.07,-211.707 1185.57,-220.07 1192.2,-222.301"/>
</g>
<!-- Node5&#45;&gt;Node7 -->
<g id="edge43" class="edge"><title>Node5&#45;&gt;Node7</title>
<path fill="none" stroke="midnightblue" d="M1109.89,-317.624C932.509,-311.731 304,-285.058 304,-203 304,-203 304,-203 304,-139 304,-98.2307 286.065,-53.0653 274.837,-28.7866"/>
<polygon fill="midnightblue" stroke="midnightblue" points="277.98,-27.2455 270.508,-19.734 271.665,-30.2655 277.98,-27.2455"/>
</g>
<!-- Node25 -->
<g id="node25" class="node"><title>Node25</title>
<polygon fill="none" stroke="#bfbfbf" points="1102,-0.5 1102,-19.5 1142,-19.5 1142,-0.5 1102,-0.5"/>
<text text-anchor="middle" x="1122" y="-7.5" font-family="Helvetica,sans-Serif" font-size="10.00">utility</text>
</g>
<!-- Node5&#45;&gt;Node25 -->
<g id="edge44" class="edge"><title>Node5&#45;&gt;Node25</title>
<path fill="none" stroke="midnightblue" d="M1153.41,-304.854C1149.76,-284.419 1143.06,-245.423 1139,-212 1130.91,-145.472 1125.42,-66.0887 1123.16,-30.2452"/>
<polygon fill="midnightblue" stroke="midnightblue" points="1126.62,-29.6059 1122.52,-19.8402 1119.64,-30.0366 1126.62,-29.6059"/>
</g>
<!-- Node27 -->
<g id="node27" class="node"><title>Node27</title>
<g id="a_node27"><a xlink:href="os_8h.html" target="_top" xlink:title="spdlog/details/os.h">
<polygon fill="none" stroke="black" points="739,-248.5 739,-267.5 837,-267.5 837,-248.5 739,-248.5"/>
<text text-anchor="middle" x="788" y="-255.5" font-family="Helvetica,sans-Serif" font-size="10.00">spdlog/details/os.h</text>
</a>
</g>
</g>
<!-- Node5&#45;&gt;Node27 -->
<g id="edge29" class="edge"><title>Node5&#45;&gt;Node27</title>
<path fill="none" stroke="midnightblue" d="M1109.77,-311.462C1043.21,-300.61 920.378,-280.583 847.247,-268.66"/>
<polygon fill="midnightblue" stroke="midnightblue" points="847.701,-265.188 837.268,-267.033 846.575,-272.097 847.701,-265.188"/>
</g>
<!-- Node6&#45;&gt;Node7 -->
<g id="edge6" class="edge"><title>Node6&#45;&gt;Node7</title>
<path fill="none" stroke="midnightblue" d="M1179.43,-192.275C1149.9,-176.13 1083.29,-141.634 1023,-124 748.623,-43.7485 400.787,-18.5757 296.733,-12.5841"/>
<polygon fill="midnightblue" stroke="midnightblue" points="296.796,-9.08221 286.616,-12.0184 296.405,-16.0713 296.796,-9.08221"/>
</g>
<!-- Node8 -->
<g id="node8" class="node"><title>Node8</title>
<polygon fill="none" stroke="#bfbfbf" points="1147.5,-130.5 1147.5,-149.5 1220.5,-149.5 1220.5,-130.5 1147.5,-130.5"/>
<text text-anchor="middle" x="1184" y="-137.5" font-family="Helvetica,sans-Serif" font-size="10.00">initializer_list</text>
</g>
<!-- Node6&#45;&gt;Node8 -->
<g id="edge7" class="edge"><title>Node6&#45;&gt;Node8</title>
<path fill="none" stroke="midnightblue" d="M1193.42,-192.403C1191.86,-183.849 1189.4,-170.45 1187.39,-159.476"/>
<polygon fill="midnightblue" stroke="midnightblue" points="1190.82,-158.785 1185.57,-149.581 1183.93,-160.048 1190.82,-158.785"/>
</g>
<!-- Node9 -->
<g id="node9" class="node"><title>Node9</title>
<polygon fill="none" stroke="#bfbfbf" points="492,-130.5 492,-149.5 538,-149.5 538,-130.5 492,-130.5"/>
<text text-anchor="middle" x="515" y="-137.5" font-family="Helvetica,sans-Serif" font-size="10.00">chrono</text>
</g>
<!-- Node6&#45;&gt;Node9 -->
<g id="edge8" class="edge"><title>Node6&#45;&gt;Node9</title>
<path fill="none" stroke="midnightblue" d="M1147.99,-196.852C1018.67,-185.442 659.82,-153.778 548.425,-143.949"/>
<polygon fill="midnightblue" stroke="midnightblue" points="548.406,-140.434 538.137,-143.042 547.791,-147.407 548.406,-140.434"/>
</g>
<!-- Node6&#45;&gt;Node10 -->
<g id="edge9" class="edge"><title>Node6&#45;&gt;Node10</title>
<path fill="none" stroke="midnightblue" d="M1229.66,-192.479C1253,-185.489 1283.49,-173.804 1306,-156 1348.75,-122.183 1332.05,-86.8301 1377,-56 1419.66,-26.7393 1479.84,-16.4975 1517.88,-12.9174"/>
<polygon fill="midnightblue" stroke="midnightblue" points="1518.31,-16.3934 1527.99,-12.074 1517.73,-9.41765 1518.31,-16.3934"/>
</g>
<!-- Node11 -->
<g id="node11" class="node"><title>Node11</title>
<polygon fill="none" stroke="#bfbfbf" points="1386,-62.5 1386,-81.5 1432,-81.5 1432,-62.5 1386,-62.5"/>
<text text-anchor="middle" x="1409" y="-69.5" font-family="Helvetica,sans-Serif" font-size="10.00">atomic</text>
</g>
<!-- Node6&#45;&gt;Node11 -->
<g id="edge10" class="edge"><title>Node6&#45;&gt;Node11</title>
<path fill="none" stroke="midnightblue" d="M1242.06,-193.523C1272,-187.118 1310.52,-175.697 1340,-156 1365.74,-138.8 1386.99,-109.235 1398.83,-90.4257"/>
<polygon fill="midnightblue" stroke="midnightblue" points="1401.94,-92.0564 1404.14,-81.6929 1395.95,-88.4214 1401.94,-92.0564"/>
</g>
<!-- Node12 -->
<g id="node12" class="node"><title>Node12</title>
<polygon fill="none" stroke="#bfbfbf" points="1238.5,-130.5 1238.5,-149.5 1297.5,-149.5 1297.5,-130.5 1238.5,-130.5"/>
<text text-anchor="middle" x="1268" y="-137.5" font-family="Helvetica,sans-Serif" font-size="10.00">exception</text>
</g>
<!-- Node6&#45;&gt;Node12 -->
<g id="edge11" class="edge"><title>Node6&#45;&gt;Node12</title>
<path fill="none" stroke="midnightblue" d="M1205.46,-192.403C1216.95,-182.958 1235.63,-167.606 1249.59,-156.134"/>
<polygon fill="midnightblue" stroke="midnightblue" points="1252.06,-158.634 1257.56,-149.581 1247.61,-153.226 1252.06,-158.634"/>
</g>
<!-- Node13 -->
<g id="node13" class="node"><title>Node13</title>
<polygon fill="none" stroke="#bfbfbf" points="849.5,-130.5 849.5,-149.5 908.5,-149.5 908.5,-130.5 849.5,-130.5"/>
<text text-anchor="middle" x="879" y="-137.5" font-family="Helvetica,sans-Serif" font-size="10.00">functional</text>
</g>
<!-- Node6&#45;&gt;Node13 -->
<g id="edge12" class="edge"><title>Node6&#45;&gt;Node13</title>
<path fill="none" stroke="midnightblue" d="M1147.81,-196.333C1092.18,-190.145 997.248,-177.431 918,-156 914.849,-155.148 911.6,-154.132 908.386,-153.036"/>
<polygon fill="midnightblue" stroke="midnightblue" points="909.572,-149.743 898.978,-149.592 907.166,-156.316 909.572,-149.743"/>
</g>
<!-- Node14 -->
<g id="node14" class="node"><title>Node14</title>
<g id="a_node14"><a xlink:href="null__mutex_8h.html" target="_top" xlink:title="spdlog/details/null\l_mutex.h">
<polygon fill="none" stroke="black" points="1392.5,-125 1392.5,-155 1487.5,-155 1487.5,-125 1392.5,-125"/>
<text text-anchor="start" x="1400.5" y="-143" font-family="Helvetica,sans-Serif" font-size="10.00">spdlog/details/null</text>
<text text-anchor="middle" x="1440" y="-132" font-family="Helvetica,sans-Serif" font-size="10.00">_mutex.h</text>
</a>
</g>
</g>
<!-- Node6&#45;&gt;Node14 -->
<g id="edge13" class="edge"><title>Node6&#45;&gt;Node14</title>
<path fill="none" stroke="midnightblue" d="M1229.84,-192.467C1269.56,-182.741 1335.08,-166.694 1382.42,-155.101"/>
<polygon fill="midnightblue" stroke="midnightblue" points="1383.35,-158.477 1392.23,-152.698 1381.69,-151.678 1383.35,-158.477"/>
</g>
<!-- Node15 -->
<g id="node15" class="node"><title>Node15</title>
<g id="a_node15"><a xlink:href="fmt_8h.html" target="_top" xlink:title="spdlog/fmt/fmt.h">
<polygon fill="none" stroke="black" points="927,-130.5 927,-149.5 1015,-149.5 1015,-130.5 927,-130.5"/>
<text text-anchor="middle" x="971" y="-137.5" font-family="Helvetica,sans-Serif" font-size="10.00">spdlog/fmt/fmt.h</text>
</a>
</g>
</g>
<!-- Node6&#45;&gt;Node15 -->
<g id="edge15" class="edge"><title>Node6&#45;&gt;Node15</title>
<path fill="none" stroke="midnightblue" d="M1162.91,-192.403C1123.4,-181.822 1056.22,-163.827 1012.74,-152.18"/>
<polygon fill="midnightblue" stroke="midnightblue" points="1013.6,-148.787 1003.03,-149.581 1011.79,-155.549 1013.6,-148.787"/>
</g>
<!-- Node14&#45;&gt;Node11 -->
<g id="edge14" class="edge"><title>Node14&#45;&gt;Node11</title>
<path fill="none" stroke="midnightblue" d="M1433.27,-124.679C1428.63,-114.796 1422.42,-101.579 1417.45,-90.9864"/>
<polygon fill="midnightblue" stroke="midnightblue" points="1420.57,-89.3916 1413.15,-81.8283 1414.23,-92.3676 1420.57,-89.3916"/>
</g>
<!-- Node16 -->
<g id="node16" class="node"><title>Node16</title>
<g id="a_node16"><a xlink:href="format_8h.html" target="_top" xlink:title="spdlog/fmt/bundled\l/format.h">
<polygon fill="none" stroke="black" points="918.5,-57 918.5,-87 1017.5,-87 1017.5,-57 918.5,-57"/>
<text text-anchor="start" x="926.5" y="-75" font-family="Helvetica,sans-Serif" font-size="10.00">spdlog/fmt/bundled</text>
<text text-anchor="middle" x="968" y="-64" font-family="Helvetica,sans-Serif" font-size="10.00">/format.h</text>
</a>
</g>
</g>
<!-- Node15&#45;&gt;Node16 -->
<g id="edge16" class="edge"><title>Node15&#45;&gt;Node16</title>
<path fill="none" stroke="midnightblue" d="M970.608,-130.372C970.226,-121.971 969.628,-108.811 969.101,-97.2126"/>
<polygon fill="midnightblue" stroke="midnightblue" points="972.595,-97.0122 968.645,-87.1815 965.602,-97.3301 972.595,-97.0122"/>
</g>
<!-- Node16&#45;&gt;Node7 -->
<g id="edge25" class="edge"><title>Node16&#45;&gt;Node7</title>
<path fill="none" stroke="midnightblue" d="M918.188,-58.5137C913.412,-57.5617 908.626,-56.7007 904,-56 672.196,-20.8908 388.767,-13.0846 296.553,-11.4269"/>
<polygon fill="midnightblue" stroke="midnightblue" points="296.572,-7.92678 286.514,-11.2576 296.454,-14.9258 296.572,-7.92678"/>
</g>
<!-- Node16&#45;&gt;Node10 -->
<g id="edge23" class="edge"><title>Node16&#45;&gt;Node10</title>
<path fill="none" stroke="midnightblue" d="M1017.71,-65.9103C1133.15,-54.0906 1417.19,-25.0079 1517.88,-14.6978"/>
<polygon fill="midnightblue" stroke="midnightblue" points="1518.28,-18.1758 1527.87,-13.6753 1517.57,-11.2122 1518.28,-18.1758"/>
</g>
<!-- Node17 -->
<g id="node17" class="node"><title>Node17</title>
<polygon fill="none" stroke="#bfbfbf" points="1034.5,-0.5 1034.5,-19.5 1083.5,-19.5 1083.5,-0.5 1034.5,-0.5"/>
<text text-anchor="middle" x="1059" y="-7.5" font-family="Helvetica,sans-Serif" font-size="10.00">cassert</text>
</g>
<!-- Node16&#45;&gt;Node17 -->
<g id="edge17" class="edge"><title>Node16&#45;&gt;Node17</title>
<path fill="none" stroke="midnightblue" d="M989.566,-56.7808C1003.97,-47.2862 1022.84,-34.8434 1037.27,-25.3267"/>
<polygon fill="midnightblue" stroke="midnightblue" points="1039.6,-27.9823 1046.02,-19.5557 1035.75,-22.1383 1039.6,-27.9823"/>
</g>
<!-- Node18 -->
<g id="node18" class="node"><title>Node18</title>
<polygon fill="none" stroke="#bfbfbf" points="640.5,-0.5 640.5,-19.5 687.5,-19.5 687.5,-0.5 640.5,-0.5"/>
<text text-anchor="middle" x="664" y="-7.5" font-family="Helvetica,sans-Serif" font-size="10.00">clocale</text>
</g>
<!-- Node16&#45;&gt;Node18 -->
<g id="edge18" class="edge"><title>Node16&#45;&gt;Node18</title>
<path fill="none" stroke="midnightblue" d="M918.448,-59.0869C913.575,-58.0053 908.696,-56.9579 904,-56 815.63,-37.9757 789.89,-40.1298 697.763,-19.9822"/>
<polygon fill="midnightblue" stroke="midnightblue" points="698.247,-16.5047 687.727,-17.7575 696.732,-23.3388 698.247,-16.5047"/>
</g>
<!-- Node19 -->
<g id="node19" class="node"><title>Node19</title>
<polygon fill="none" stroke="#bfbfbf" points="706,-0.5 706,-19.5 750,-19.5 750,-0.5 706,-0.5"/>
<text text-anchor="middle" x="728" y="-7.5" font-family="Helvetica,sans-Serif" font-size="10.00">cmath</text>
</g>
<!-- Node16&#45;&gt;Node19 -->
<g id="edge19" class="edge"><title>Node16&#45;&gt;Node19</title>
<path fill="none" stroke="midnightblue" d="M918.362,-59.1491C870.565,-47.6946 800.683,-30.824 760.001,-20.1717"/>
<polygon fill="midnightblue" stroke="midnightblue" points="760.882,-16.7843 750.319,-17.6046 759.088,-23.5505 760.882,-16.7843"/>
</g>
<!-- Node20 -->
<g id="node20" class="node"><title>Node20</title>
<polygon fill="none" stroke="#bfbfbf" points="1160.5,-0.5 1160.5,-19.5 1203.5,-19.5 1203.5,-0.5 1160.5,-0.5"/>
<text text-anchor="middle" x="1182" y="-7.5" font-family="Helvetica,sans-Serif" font-size="10.00">cstdio</text>
</g>
<!-- Node16&#45;&gt;Node20 -->
<g id="edge20" class="edge"><title>Node16&#45;&gt;Node20</title>
<path fill="none" stroke="midnightblue" d="M1017.75,-57.291C1052.35,-47.7221 1099.79,-34.5309 1150.49,-20.124"/>
<polygon fill="midnightblue" stroke="midnightblue" points="1151.67,-23.4271 1160.33,-17.324 1149.75,-16.6943 1151.67,-23.4271"/>
</g>
<!-- Node21 -->
<g id="node21" class="node"><title>Node21</title>
<polygon fill="none" stroke="#bfbfbf" points="768,-0.5 768,-19.5 814,-19.5 814,-0.5 768,-0.5"/>
<text text-anchor="middle" x="791" y="-7.5" font-family="Helvetica,sans-Serif" font-size="10.00">cstring</text>
</g>
<!-- Node16&#45;&gt;Node21 -->
<g id="edge21" class="edge"><title>Node16&#45;&gt;Node21</title>
<path fill="none" stroke="midnightblue" d="M926.501,-56.9327C895.15,-46.3052 852.713,-31.9197 823.736,-22.0969"/>
<polygon fill="midnightblue" stroke="midnightblue" points="824.682,-18.7221 814.088,-18.8264 822.435,-25.3516 824.682,-18.7221"/>
</g>
<!-- Node22 -->
<g id="node22" class="node"><title>Node22</title>
<polygon fill="none" stroke="#bfbfbf" points="832,-0.5 832,-19.5 872,-19.5 872,-0.5 832,-0.5"/>
<text text-anchor="middle" x="852" y="-7.5" font-family="Helvetica,sans-Serif" font-size="10.00">limits</text>
</g>
<!-- Node16&#45;&gt;Node22 -->
<g id="edge22" class="edge"><title>Node16&#45;&gt;Node22</title>
<path fill="none" stroke="midnightblue" d="M940.803,-56.9327C921.757,-47.0811 896.467,-34.0004 877.749,-24.3182"/>
<polygon fill="midnightblue" stroke="midnightblue" points="879.117,-21.0855 868.627,-19.6 875.901,-27.3031 879.117,-21.0855"/>
</g>
<!-- Node23 -->
<g id="node23" class="node"><title>Node23</title>
<polygon fill="none" stroke="#bfbfbf" points="890.5,-0.5 890.5,-19.5 949.5,-19.5 949.5,-0.5 890.5,-0.5"/>
<text text-anchor="middle" x="920" y="-7.5" font-family="Helvetica,sans-Serif" font-size="10.00">stdexcept</text>
</g>
<!-- Node16&#45;&gt;Node23 -->
<g id="edge24" class="edge"><title>Node16&#45;&gt;Node23</title>
<path fill="none" stroke="midnightblue" d="M956.625,-56.7808C949.65,-48.0621 940.686,-36.8574 933.372,-27.7153"/>
<polygon fill="midnightblue" stroke="midnightblue" points="935.964,-25.3528 926.984,-19.7305 930.498,-29.7257 935.964,-25.3528"/>
</g>
<!-- Node16&#45;&gt;Node24 -->
<g id="edge26" class="edge"><title>Node16&#45;&gt;Node24</title>
<path fill="none" stroke="midnightblue" d="M918.374,-67.7315C753.345,-56.8624 225.719,-22.1121 89.3944,-13.1335"/>
<polygon fill="midnightblue" stroke="midnightblue" points="89.4032,-9.62664 79.1948,-12.4618 88.9431,-16.6115 89.4032,-9.62664"/>
</g>
<!-- Node16&#45;&gt;Node25 -->
<g id="edge27" class="edge"><title>Node16&#45;&gt;Node25</title>
<path fill="none" stroke="midnightblue" d="M1004.11,-56.9327C1030.95,-46.475 1067.13,-32.3785 1092.3,-22.5712"/>
<polygon fill="midnightblue" stroke="midnightblue" points="1093.65,-25.8025 1101.7,-18.911 1091.11,-19.2801 1093.65,-25.8025"/>
</g>
<!-- Node26 -->
<g id="node26" class="node"><title>Node26</title>
<polygon fill="none" stroke="#bfbfbf" points="967.5,-0.5 967.5,-19.5 1016.5,-19.5 1016.5,-0.5 967.5,-0.5"/>
<text text-anchor="middle" x="992" y="-7.5" font-family="Helvetica,sans-Serif" font-size="10.00">stdint.h</text>
</g>
<!-- Node16&#45;&gt;Node26 -->
<g id="edge28" class="edge"><title>Node16&#45;&gt;Node26</title>
<path fill="none" stroke="midnightblue" d="M973.688,-56.7808C976.995,-48.5115 981.198,-38.006 984.742,-29.1448"/>
<polygon fill="midnightblue" stroke="midnightblue" points="988.043,-30.3152 988.508,-19.7305 981.544,-27.7154 988.043,-30.3152"/>
</g>
<!-- Node27&#45;&gt;Node6 -->
<g id="edge30" class="edge"><title>Node27&#45;&gt;Node6</title>
<path fill="none" stroke="midnightblue" d="M837.094,-250.486C912.822,-240.439 1057.76,-221.209 1138,-210.562"/>
<polygon fill="midnightblue" stroke="midnightblue" points="1138.48,-214.029 1147.94,-209.244 1137.56,-207.09 1138.48,-214.029"/>
</g>
<!-- Node27&#45;&gt;Node7 -->
<g id="edge34" class="edge"><title>Node27&#45;&gt;Node7</title>
<path fill="none" stroke="midnightblue" d="M738.959,-256.852C681.231,-254.968 583.65,-246.35 508,-212 494.812,-206.012 337.285,-71.909 283.707,-26.1444"/>
<polygon fill="midnightblue" stroke="midnightblue" points="285.915,-23.427 276.039,-19.5911 281.367,-28.7486 285.915,-23.427"/>
</g>
<!-- Node27&#45;&gt;Node9 -->
<g id="edge35" class="edge"><title>Node27&#45;&gt;Node9</title>
<path fill="none" stroke="midnightblue" d="M738.952,-255.687C670.014,-252.729 549.654,-243.126 521,-212 508.325,-198.232 508.535,-175.942 510.828,-160.01"/>
<polygon fill="midnightblue" stroke="midnightblue" points="514.349,-160.213 512.711,-149.746 507.464,-158.95 514.349,-160.213"/>
</g>
<!-- Node27&#45;&gt;Node13 -->
<g id="edge33" class="edge"><title>Node27&#45;&gt;Node13</title>
<path fill="none" stroke="midnightblue" d="M837.386,-252.45C888.793,-246.571 964.255,-234.332 982,-212 987.53,-205.041 986.688,-199.552 982,-192 977.722,-185.108 937.317,-166.393 908.41,-153.656"/>
<polygon fill="midnightblue" stroke="midnightblue" points="909.68,-150.392 899.116,-149.592 906.875,-156.805 909.68,-150.392"/>
</g>
<!-- Node27&#45;&gt;Node20 -->
<g id="edge31" class="edge"><title>Node27&#45;&gt;Node20</title>
<path fill="none" stroke="midnightblue" d="M837.058,-249.881C879.25,-242.635 935.403,-229.918 949,-212 954.373,-204.919 954.207,-199.204 949,-192 919.112,-150.653 869.888,-197.347 840,-156 831.668,-144.474 830.949,-134.971 840,-124 893.584,-59.0501 946.203,-114.874 1026,-88 1075.59,-71.2994 1129.51,-41.9372 1159.18,-24.7"/>
<polygon fill="midnightblue" stroke="midnightblue" points="1161.08,-27.6444 1167.93,-19.561 1157.53,-21.609 1161.08,-27.6444"/>
</g>
<!-- Node28 -->
<g id="node28" class="node"><title>Node28</title>
<polygon fill="none" stroke="#bfbfbf" points="394.5,-192.5 394.5,-211.5 435.5,-211.5 435.5,-192.5 394.5,-192.5"/>
<text text-anchor="middle" x="415" y="-199.5" font-family="Helvetica,sans-Serif" font-size="10.00">ctime</text>
</g>
<!-- Node27&#45;&gt;Node28 -->
<g id="edge32" class="edge"><title>Node27&#45;&gt;Node28</title>
<path fill="none" stroke="midnightblue" d="M738.724,-252.302C672.645,-245.579 551.838,-231.799 450,-212 448.537,-211.716 447.045,-211.407 445.54,-211.08"/>
<polygon fill="midnightblue" stroke="midnightblue" points="446.172,-207.633 435.635,-208.742 444.564,-214.446 446.172,-207.633"/>
</g>
<!-- Node29 -->
<g id="node29" class="node"><title>Node29</title>
<polygon fill="none" stroke="#bfbfbf" points="332,-192.5 332,-211.5 376,-211.5 376,-192.5 332,-192.5"/>
<text text-anchor="middle" x="354" y="-199.5" font-family="Helvetica,sans-Serif" font-size="10.00">thread</text>
</g>
<!-- Node27&#45;&gt;Node29 -->
<g id="edge36" class="edge"><title>Node27&#45;&gt;Node29</title>
<path fill="none" stroke="midnightblue" d="M738.888,-254.237C664.438,-249.454 518.519,-237.756 386.149,-211.917"/>
<polygon fill="midnightblue" stroke="midnightblue" points="386.728,-208.464 376.238,-209.951 385.366,-215.33 386.728,-208.464"/>
</g>
<!-- Node30 -->
<g id="node30" class="node"><title>Node30</title>
<polygon fill="none" stroke="#bfbfbf" points="894,-192.5 894,-211.5 940,-211.5 940,-192.5 894,-192.5"/>
<text text-anchor="middle" x="917" y="-199.5" font-family="Helvetica,sans-Serif" font-size="10.00">stdio.h</text>
</g>
<!-- Node27&#45;&gt;Node30 -->
<g id="edge37" class="edge"><title>Node27&#45;&gt;Node30</title>
<path fill="none" stroke="midnightblue" d="M808.44,-248.444C829.67,-239.557 863.099,-225.563 887.255,-215.451"/>
<polygon fill="midnightblue" stroke="midnightblue" points="888.782,-218.606 896.655,-211.516 886.079,-212.149 888.782,-218.606"/>
</g>
<!-- Node31 -->
<g id="node31" class="node"><title>Node31</title>
<polygon fill="none" stroke="#bfbfbf" points="530.5,-192.5 530.5,-211.5 579.5,-211.5 579.5,-192.5 530.5,-192.5"/>
<text text-anchor="middle" x="555" y="-199.5" font-family="Helvetica,sans-Serif" font-size="10.00">string.h</text>
</g>
<!-- Node27&#45;&gt;Node31 -->
<g id="edge38" class="edge"><title>Node27&#45;&gt;Node31</title>
<path fill="none" stroke="midnightblue" d="M748.256,-248.458C710.059,-240.15 650.477,-226.932 589.629,-212.087"/>
<polygon fill="midnightblue" stroke="midnightblue" points="590.402,-208.673 579.856,-209.691 588.735,-215.471 590.402,-208.673"/>
</g>
<!-- Node32 -->
<g id="node32" class="node"><title>Node32</title>
<polygon fill="none" stroke="#bfbfbf" points="598,-192.5 598,-211.5 658,-211.5 658,-192.5 598,-192.5"/>
<text text-anchor="middle" x="628" y="-199.5" font-family="Helvetica,sans-Serif" font-size="10.00">sys/stat.h</text>
</g>
<!-- Node27&#45;&gt;Node32 -->
<g id="edge39" class="edge"><title>Node27&#45;&gt;Node32</title>
<path fill="none" stroke="midnightblue" d="M762.648,-248.444C735.731,-239.359 693.004,-224.939 662.913,-214.783"/>
<polygon fill="midnightblue" stroke="midnightblue" points="663.828,-211.398 653.234,-211.516 661.59,-218.031 663.828,-211.398"/>
</g>
<!-- Node33 -->
<g id="node33" class="node"><title>Node33</title>
<polygon fill="none" stroke="#bfbfbf" points="676,-192.5 676,-211.5 744,-211.5 744,-192.5 676,-192.5"/>
<text text-anchor="middle" x="710" y="-199.5" font-family="Helvetica,sans-Serif" font-size="10.00">sys/types.h</text>
</g>
<!-- Node27&#45;&gt;Node33 -->
<g id="edge40" class="edge"><title>Node27&#45;&gt;Node33</title>
<path fill="none" stroke="midnightblue" d="M775.468,-248.324C763.414,-239.979 744.973,-227.212 730.731,-217.352"/>
<polygon fill="midnightblue" stroke="midnightblue" points="732.715,-214.469 722.501,-211.655 728.731,-220.224 732.715,-214.469"/>
</g>
<!-- Node34 -->
<g id="node34" class="node"><title>Node34</title>
<polygon fill="none" stroke="#bfbfbf" points="762.5,-192.5 762.5,-211.5 813.5,-211.5 813.5,-192.5 762.5,-192.5"/>
<text text-anchor="middle" x="788" y="-199.5" font-family="Helvetica,sans-Serif" font-size="10.00">unistd.h</text>
</g>
<!-- Node27&#45;&gt;Node34 -->
<g id="edge41" class="edge"><title>Node27&#45;&gt;Node34</title>
<path fill="none" stroke="midnightblue" d="M788,-248.083C788,-241.006 788,-230.861 788,-221.986"/>
<polygon fill="midnightblue" stroke="midnightblue" points="791.5,-221.751 788,-211.751 784.5,-221.751 791.5,-221.751"/>
</g>
<!-- Node35 -->
<g id="node35" class="node"><title>Node35</title>
<polygon fill="none" stroke="#bfbfbf" points="832,-192.5 832,-211.5 876,-211.5 876,-192.5 832,-192.5"/>
<text text-anchor="middle" x="854" y="-199.5" font-family="Helvetica,sans-Serif" font-size="10.00">fcntl.h</text>
</g>
<!-- Node27&#45;&gt;Node35 -->
<g id="edge42" class="edge"><title>Node27&#45;&gt;Node35</title>
<path fill="none" stroke="midnightblue" d="M798.604,-248.324C808.456,-240.263 823.351,-228.077 835.215,-218.369"/>
<polygon fill="midnightblue" stroke="midnightblue" points="837.68,-220.875 843.203,-211.834 833.247,-215.457 837.68,-220.875"/>
</g>
<!-- Node36&#45;&gt;Node5 -->
<g id="edge46" class="edge"><title>Node36&#45;&gt;Node5</title>
<path fill="none" stroke="midnightblue" d="M887.344,-440.403C933.649,-419.823 1051.69,-367.359 1114.78,-339.321"/>
<polygon fill="midnightblue" stroke="midnightblue" points="1116.33,-342.463 1124.04,-335.204 1113.48,-336.067 1116.33,-342.463"/>
</g>
<!-- Node36&#45;&gt;Node7 -->
<g id="edge48" class="edge"><title>Node36&#45;&gt;Node7</title>
<path fill="none" stroke="midnightblue" d="M820.17,-446.217C690.696,-437.78 337.252,-408.486 250,-336 176.488,-274.928 201.02,-218.686 214,-124 218.262,-92.9109 219.277,-84.2202 233,-56 237.916,-45.8907 245.155,-35.7009 251.601,-27.5804"/>
<polygon fill="midnightblue" stroke="midnightblue" points="254.458,-29.6181 258.137,-19.6827 249.065,-25.155 254.458,-29.6181"/>
</g>
<!-- Node36&#45;&gt;Node10 -->
<g id="edge49" class="edge"><title>Node36&#45;&gt;Node10</title>
<path fill="none" stroke="midnightblue" d="M915.817,-446.628C999.018,-441.886 1166.55,-429.432 1219,-404 1276.12,-376.3 1268.03,-338.999 1321,-304 1355.91,-280.93 1369.55,-284.511 1408,-268 1473.27,-239.974 1554,-274.029 1554,-203 1554,-203 1554,-203 1554,-139 1554,-100.248 1554,-54.8973 1554,-29.9188"/>
<polygon fill="midnightblue" stroke="midnightblue" points="1557.5,-29.6912 1554,-19.6913 1550.5,-29.6913 1557.5,-29.6912"/>
</g>
<!-- Node36&#45;&gt;Node24 -->
<g id="edge47" class="edge"><title>Node36&#45;&gt;Node24</title>
<path fill="none" stroke="midnightblue" d="M820.394,-448.372C644.03,-444.782 38,-420.683 38,-259 38,-259 38,-259 38,-139 38,-99.6464 46.8962,-54.2174 52.5138,-29.4534"/>
<polygon fill="midnightblue" stroke="midnightblue" points="55.9428,-30.1608 54.8205,-19.6256 49.128,-28.5613 55.9428,-30.1608"/>
</g>
<!-- Node37 -->
<g id="node37" class="node"><title>Node37</title>
<g id="a_node37"><a xlink:href="pattern__formatter__impl_8h.html" target="_top" xlink:title="spdlog/details/pattern\l_formatter_impl.h">
<polygon fill="none" stroke="black" points="813,-373 813,-403 923,-403 923,-373 813,-373"/>
<text text-anchor="start" x="821" y="-391" font-family="Helvetica,sans-Serif" font-size="10.00">spdlog/details/pattern</text>
<text text-anchor="middle" x="868" y="-380" font-family="Helvetica,sans-Serif" font-size="10.00">_formatter_impl.h</text>
</a>
</g>
</g>
<!-- Node36&#45;&gt;Node37 -->
<g id="edge50" class="edge"><title>Node36&#45;&gt;Node37</title>
<path fill="none" stroke="midnightblue" d="M863.099,-440.403C861.572,-433.341 860.991,-422.975 861.356,-413.399"/>
<polygon fill="midnightblue" stroke="midnightblue" points="864.868,-413.386 862.17,-403.141 857.89,-412.832 864.868,-413.386"/>
</g>
<!-- Node37&#45;&gt;Node5 -->
<g id="edge52" class="edge"><title>Node37&#45;&gt;Node5</title>
<path fill="none" stroke="midnightblue" d="M923.375,-375.018C969.601,-364.918 1037.19,-349.926 1096,-336 1097.26,-335.701 1098.54,-335.396 1099.83,-335.088"/>
<polygon fill="midnightblue" stroke="midnightblue" points="1100.95,-338.419 1109.84,-332.663 1099.3,-331.616 1100.95,-338.419"/>
</g>
<!-- Node37&#45;&gt;Node7 -->
<g id="edge59" class="edge"><title>Node37&#45;&gt;Node7</title>
<path fill="none" stroke="midnightblue" d="M812.88,-387.612C657.639,-387.866 228,-377.835 228,-259 228,-259 228,-259 228,-139 228,-98.2307 245.935,-53.0653 257.163,-28.7866"/>
<polygon fill="midnightblue" stroke="midnightblue" points="260.335,-30.2655 261.492,-19.734 254.02,-27.2455 260.335,-30.2655"/>
</g>
<!-- Node37&#45;&gt;Node9 -->
<g id="edge55" class="edge"><title>Node37&#45;&gt;Node9</title>
<path fill="none" stroke="midnightblue" d="M812.904,-381.643C754.514,-374.94 660.135,-361.157 582,-336 460.518,-296.886 391.023,-319.984 323,-212 285.947,-153.179 417.618,-142.795 481.802,-141.169"/>
<polygon fill="midnightblue" stroke="midnightblue" points="481.924,-144.668 491.853,-140.972 481.787,-137.669 481.924,-144.668"/>
</g>
<!-- Node37&#45;&gt;Node10 -->
<g id="edge57" class="edge"><title>Node37&#45;&gt;Node10</title>
<path fill="none" stroke="midnightblue" d="M923.002,-383.306C991.546,-377.686 1111.76,-364.474 1211,-336 1215.44,-334.726 1516,-207.621 1516,-203 1516,-203 1516,-203 1516,-139 1516,-98.2307 1533.94,-53.0653 1545.16,-28.7866"/>
<polygon fill="midnightblue" stroke="midnightblue" points="1548.33,-30.2655 1549.49,-19.734 1542.02,-27.2455 1548.33,-30.2655"/>
</g>
<!-- Node37&#45;&gt;Node15 -->
<g id="edge54" class="edge"><title>Node37&#45;&gt;Node15</title>
<path fill="none" stroke="midnightblue" d="M884.034,-372.592C913.464,-344.933 975.179,-280.991 998,-212 1004.18,-193.307 993.971,-172.27 984.384,-157.98"/>
<polygon fill="midnightblue" stroke="midnightblue" points="987.055,-155.7 978.353,-149.656 981.387,-159.807 987.055,-155.7"/>
</g>
<!-- Node37&#45;&gt;Node24 -->
<g id="edge62" class="edge"><title>Node37&#45;&gt;Node24</title>
<path fill="none" stroke="midnightblue" d="M812.904,-385.321C670.339,-380.576 297.129,-365.457 250,-336 131.576,-261.981 76.6694,-86.432 61.5141,-29.308"/>
<polygon fill="midnightblue" stroke="midnightblue" points="64.8803,-28.3445 59.006,-19.5274 58.0997,-30.0834 64.8803,-28.3445"/>
</g>
<!-- Node37&#45;&gt;Node25 -->
<g id="edge61" class="edge"><title>Node37&#45;&gt;Node25</title>
<path fill="none" stroke="midnightblue" d="M896.401,-372.854C912.729,-363.807 932.925,-350.973 948,-336 1043.38,-241.259 1099.39,-83.177 1116.42,-29.49"/>
<polygon fill="midnightblue" stroke="midnightblue" points="1119.84,-30.2667 1119.46,-19.6787 1113.15,-28.1934 1119.84,-30.2667"/>
</g>
<!-- Node37&#45;&gt;Node27 -->
<g id="edge53" class="edge"><title>Node37&#45;&gt;Node27</title>
<path fill="none" stroke="midnightblue" d="M859.133,-372.813C844.343,-349.149 814.692,-301.707 798.741,-276.186"/>
<polygon fill="midnightblue" stroke="midnightblue" points="801.627,-274.199 793.359,-267.574 795.691,-277.909 801.627,-274.199"/>
</g>
<!-- Node37&#45;&gt;Node28 -->
<g id="edge56" class="edge"><title>Node37&#45;&gt;Node28</title>
<path fill="none" stroke="midnightblue" d="M833.206,-372.867C747.376,-338.005 526.639,-248.346 445.507,-215.391"/>
<polygon fill="midnightblue" stroke="midnightblue" points="446.466,-212.003 435.884,-211.483 443.832,-218.489 446.466,-212.003"/>
</g>
<!-- Node37&#45;&gt;Node29 -->
<g id="edge60" class="edge"><title>Node37&#45;&gt;Node29</title>
<path fill="none" stroke="midnightblue" d="M812.742,-375.382C771.988,-366.236 715.444,-352.331 667,-336 558.235,-299.334 434.165,-241.66 380.754,-216.027"/>
<polygon fill="midnightblue" stroke="midnightblue" points="382.151,-212.815 371.623,-211.626 379.111,-219.121 382.151,-212.815"/>
</g>
<!-- Node37&#45;&gt;Node36 -->
<g id="edge51" class="edge"><title>Node37&#45;&gt;Node36</title>
<path fill="none" stroke="midnightblue" d="M873.83,-403.141C874.873,-411.272 875.029,-421.585 874.299,-430.371"/>
<polygon fill="midnightblue" stroke="midnightblue" points="870.815,-430.016 872.901,-440.403 877.748,-430.982 870.815,-430.016"/>
</g>
<!-- Node37&#45;&gt;Node38 -->
<g id="edge58" class="edge"><title>Node37&#45;&gt;Node38</title>
<path fill="none" stroke="midnightblue" d="M923.234,-381.481C1002.16,-373.289 1151.64,-356.635 1278,-336 1291.78,-333.75 1306.91,-330.775 1319.87,-328.068"/>
<polygon fill="midnightblue" stroke="midnightblue" points="1320.68,-331.474 1329.74,-325.974 1319.23,-324.626 1320.68,-331.474"/>
</g>
<!-- Node39&#45;&gt;Node3 -->
<g id="edge73" class="edge"><title>Node39&#45;&gt;Node3</title>
<path fill="none" stroke="midnightblue" d="M1430.76,-552.933C1393.8,-542.372 1343.85,-528.1 1309.49,-518.282"/>
<polygon fill="midnightblue" stroke="midnightblue" points="1310.37,-514.895 1299.79,-515.513 1308.45,-521.625 1310.37,-514.895"/>
</g>
<!-- Node39&#45;&gt;Node10 -->
<g id="edge75" class="edge"><title>Node39&#45;&gt;Node10</title>
<path fill="none" stroke="midnightblue" d="M1530.71,-562.95C1566.52,-557.563 1613.4,-545.045 1644,-516 1666.34,-494.8 1668,-481.795 1668,-451 1668,-451 1668,-451 1668,-139 1668,-100.6 1668.57,-85.5102 1644,-56 1630.07,-39.2717 1608.38,-28.1668 1589.78,-21.1743"/>
<polygon fill="midnightblue" stroke="midnightblue" points="1590.71,-17.7918 1580.12,-17.7939 1588.4,-24.3993 1590.71,-17.7918"/>
</g>
<!-- Node39&#45;&gt;Node14 -->
<g id="edge72" class="edge"><title>Node39&#45;&gt;Node14</title>
<path fill="none" stroke="midnightblue" d="M1478.67,-552.826C1472.87,-491.043 1449.75,-244.825 1442.31,-165.654"/>
<polygon fill="midnightblue" stroke="midnightblue" points="1445.76,-164.856 1441.34,-155.227 1438.79,-165.51 1445.76,-164.856"/>
</g>
<!-- Node39&#45;&gt;Node20 -->
<g id="edge74" class="edge"><title>Node39&#45;&gt;Node20</title>
<path fill="none" stroke="midnightblue" d="M1526.23,-552.984C1570.3,-536.418 1630,-504.166 1630,-451 1630,-451 1630,-451 1630,-139 1630,-52.2809 1315.73,-21.0344 1213.63,-13.1708"/>
<polygon fill="midnightblue" stroke="midnightblue" points="1213.84,-9.67702 1203.61,-12.4224 1213.32,-16.6576 1213.84,-9.67702"/>
</g>
<!-- Node39&#45;&gt;Node38 -->
<g id="edge76" class="edge"><title>Node39&#45;&gt;Node38</title>
<path fill="none" stroke="midnightblue" d="M1471.37,-552.881C1454.43,-524.948 1416.07,-460.444 1388,-404 1377.11,-382.105 1366.15,-356.144 1359.23,-339.159"/>
<polygon fill="midnightblue" stroke="midnightblue" points="1362.47,-337.828 1355.49,-329.861 1355.98,-340.445 1362.47,-337.828"/>
</g>
</g>
</svg>
