<?xml version="1.0" encoding="UTF-8" standalone="no"?>
<!DOCTYPE svg PUBLIC "-//W3C//DTD SVG 1.1//EN"
 "http://www.w3.org/Graphics/SVG/1.1/DTD/svg11.dtd">
<!-- Generated by graphviz version 2.36.0 (20140111.2315)
 -->
<!-- Title: /home/lucamuratore/advr&#45;superbuild/external/XBotInterface/include/spdlog/logger.h Pages: 1 -->
<svg width="1640pt" height="750pt"
 viewBox="0.00 0.00 1640.00 750.00" xmlns="http://www.w3.org/2000/svg" xmlns:xlink="http://www.w3.org/1999/xlink">
<g id="graph0" class="graph" transform="scale(1 1) rotate(0) translate(4 746)">
<title>/home/lucamuratore/advr&#45;superbuild/external/XBotInterface/include/spdlog/logger.h</title>
<!-- Node1 -->
<g id="node1" class="node"><title>Node1</title>
<polygon fill="#bfbfbf" stroke="black" points="547.5,-689 547.5,-741 692.5,-741 692.5,-689 547.5,-689"/>
<text text-anchor="start" x="555.5" y="-729" font-family="Helvetica,sans-Serif" font-size="10.00">/home/lucamuratore</text>
<text text-anchor="start" x="555.5" y="-718" font-family="Helvetica,sans-Serif" font-size="10.00">/advr&#45;superbuild/external</text>
<text text-anchor="start" x="555.5" y="-707" font-family="Helvetica,sans-Serif" font-size="10.00">/XBotInterface/include/spdlog</text>
<text text-anchor="middle" x="620" y="-696" font-family="Helvetica,sans-Serif" font-size="10.00">/logger.h</text>
</g>
<!-- Node2 -->
<g id="node2" class="node"><title>Node2</title>
<g id="a_node2"><a xlink:href="base__sink_8h.html" target="_top" xlink:title="spdlog/sinks/base_sink.h">
<polygon fill="none" stroke="black" points="321.5,-496.5 321.5,-515.5 448.5,-515.5 448.5,-496.5 321.5,-496.5"/>
<text text-anchor="middle" x="385" y="-503.5" font-family="Helvetica,sans-Serif" font-size="10.00">spdlog/sinks/base_sink.h</text>
</a>
</g>
</g>
<!-- Node1&#45;&gt;Node2 -->
<g id="edge1" class="edge"><title>Node1&#45;&gt;Node2</title>
<path fill="none" stroke="midnightblue" d="M591.184,-688.618C541.754,-645.077 442.26,-557.438 402.247,-522.192"/>
<polygon fill="midnightblue" stroke="midnightblue" points="404.468,-519.484 394.65,-515.501 399.841,-524.737 404.468,-519.484"/>
</g>
<!-- Node5 -->
<g id="node5" class="node"><title>Node5</title>
<g id="a_node5"><a xlink:href="common_8h.html" target="_top" xlink:title="spdlog/common.h">
<polygon fill="none" stroke="black" points="290,-192.5 290,-211.5 384,-211.5 384,-192.5 290,-192.5"/>
<text text-anchor="middle" x="337" y="-199.5" font-family="Helvetica,sans-Serif" font-size="10.00">spdlog/common.h</text>
</a>
</g>
</g>
<!-- Node1&#45;&gt;Node5 -->
<g id="edge65" class="edge"><title>Node1&#45;&gt;Node5</title>
<path fill="none" stroke="midnightblue" d="M547.49,-706.773C415.844,-691.63 151,-650.977 151,-569 151,-569 151,-569 151,-449 151,-344.268 201.776,-323.846 274,-248 285.486,-235.938 300.615,-225.009 313.168,-216.942"/>
<polygon fill="midnightblue" stroke="midnightblue" points="315.118,-219.851 321.764,-211.6 311.423,-213.906 315.118,-219.851"/>
</g>
<!-- Node6 -->
<g id="node6" class="node"><title>Node6</title>
<polygon fill="none" stroke="#bfbfbf" points="112.5,-0.5 112.5,-19.5 153.5,-19.5 153.5,-0.5 112.5,-0.5"/>
<text text-anchor="middle" x="133" y="-7.5" font-family="Helvetica,sans-Serif" font-size="10.00">string</text>
</g>
<!-- Node1&#45;&gt;Node6 -->
<g id="edge68" class="edge"><title>Node1&#45;&gt;Node6</title>
<path fill="none" stroke="midnightblue" d="M547.36,-712.215C383.639,-706.222 0,-680.303 0,-569 0,-569 0,-569 0,-139 0,-82.2774 63.5797,-42.8021 102.82,-23.8401"/>
<polygon fill="midnightblue" stroke="midnightblue" points="104.631,-26.8577 112.219,-19.4632 101.676,-20.5121 104.631,-26.8577"/>
</g>
<!-- Node9 -->
<g id="node9" class="node"><title>Node9</title>
<polygon fill="none" stroke="#bfbfbf" points="1430,-0.5 1430,-19.5 1482,-19.5 1482,-0.5 1430,-0.5"/>
<text text-anchor="middle" x="1456" y="-7.5" font-family="Helvetica,sans-Serif" font-size="10.00">memory</text>
</g>
<!-- Node1&#45;&gt;Node9 -->
<g id="edge67" class="edge"><title>Node1&#45;&gt;Node9</title>
<path fill="none" stroke="midnightblue" d="M692.543,-712.089C869.155,-706.888 1317.56,-690.223 1462,-652 1543.28,-630.491 1632,-653.08 1632,-569 1632,-569 1632,-569 1632,-139 1632,-70.4613 1543.62,-34.7843 1492.12,-19.8121"/>
<polygon fill="midnightblue" stroke="midnightblue" points="1492.92,-16.402 1482.35,-17.0902 1491.04,-23.1453 1492.92,-16.402"/>
</g>
<!-- Node23 -->
<g id="node23" class="node"><title>Node23</title>
<polygon fill="none" stroke="#bfbfbf" points="1282,-0.5 1282,-19.5 1326,-19.5 1326,-0.5 1282,-0.5"/>
<text text-anchor="middle" x="1304" y="-7.5" font-family="Helvetica,sans-Serif" font-size="10.00">vector</text>
</g>
<!-- Node1&#45;&gt;Node23 -->
<g id="edge66" class="edge"><title>Node1&#45;&gt;Node23</title>
<path fill="none" stroke="midnightblue" d="M692.81,-710.826C918.932,-700.009 1594,-660.09 1594,-569 1594,-569 1594,-569 1594,-387 1594,-212.602 1395.96,-69.674 1327.19,-25.2975"/>
<polygon fill="midnightblue" stroke="midnightblue" points="1328.7,-22.1071 1318.38,-19.6969 1324.94,-28.0148 1328.7,-22.1071"/>
</g>
<!-- Node38 -->
<g id="node38" class="node"><title>Node38</title>
<g id="a_node38"><a xlink:href="logger__impl_8h.html" target="_top" xlink:title="spdlog/details/logger\l_impl.h">
<polygon fill="none" stroke="black" points="567,-621 567,-651 673,-651 673,-621 567,-621"/>
<text text-anchor="start" x="575" y="-639" font-family="Helvetica,sans-Serif" font-size="10.00">spdlog/details/logger</text>
<text text-anchor="middle" x="620" y="-628" font-family="Helvetica,sans-Serif" font-size="10.00">_impl.h</text>
</a>
</g>
</g>
<!-- Node1&#45;&gt;Node38 -->
<g id="edge69" class="edge"><title>Node1&#45;&gt;Node38</title>
<path fill="none" stroke="midnightblue" d="M613.621,-688.787C613.107,-679.932 613.127,-670.007 613.68,-661.234"/>
<polygon fill="midnightblue" stroke="midnightblue" points="617.167,-661.536 614.619,-651.252 610.198,-660.88 617.167,-661.536"/>
</g>
<!-- Node3 -->
<g id="node3" class="node"><title>Node3</title>
<g id="a_node3"><a xlink:href="sink_8h.html" target="_top" xlink:title="spdlog/sinks/sink.h">
<polygon fill="none" stroke="black" points="255.5,-378.5 255.5,-397.5 356.5,-397.5 356.5,-378.5 255.5,-378.5"/>
<text text-anchor="middle" x="306" y="-385.5" font-family="Helvetica,sans-Serif" font-size="10.00">spdlog/sinks/sink.h</text>
</a>
</g>
</g>
<!-- Node2&#45;&gt;Node3 -->
<g id="edge2" class="edge"><title>Node2&#45;&gt;Node3</title>
<path fill="none" stroke="midnightblue" d="M379.062,-496.281C366.017,-477.126 334.66,-431.083 317.574,-405.994"/>
<polygon fill="midnightblue" stroke="midnightblue" points="320.314,-403.8 311.792,-397.505 314.528,-407.74 320.314,-403.8"/>
</g>
<!-- Node4 -->
<g id="node4" class="node"><title>Node4</title>
<g id="a_node4"><a xlink:href="log__msg_8h.html" target="_top" xlink:title="spdlog/details/log\l_msg.h">
<polygon fill="none" stroke="black" points="293,-305 293,-335 385,-335 385,-305 293,-305"/>
<text text-anchor="start" x="301" y="-323" font-family="Helvetica,sans-Serif" font-size="10.00">spdlog/details/log</text>
<text text-anchor="middle" x="339" y="-312" font-family="Helvetica,sans-Serif" font-size="10.00">_msg.h</text>
</a>
</g>
</g>
<!-- Node2&#45;&gt;Node4 -->
<g id="edge63" class="edge"><title>Node2&#45;&gt;Node4</title>
<path fill="none" stroke="midnightblue" d="M384.66,-496.381C383.61,-474.883 379.547,-417.358 365,-372 361.957,-362.511 357.309,-352.632 352.78,-344.124"/>
<polygon fill="midnightblue" stroke="midnightblue" points="355.732,-342.229 347.81,-335.194 349.615,-345.634 355.732,-342.229"/>
</g>
<!-- Node2&#45;&gt;Node5 -->
<g id="edge62" class="edge"><title>Node2&#45;&gt;Node5</title>
<path fill="none" stroke="midnightblue" d="M362.51,-496.46C329.847,-482.677 270.511,-452.108 246,-404 211.548,-336.381 284.922,-253.04 319.863,-218.81"/>
<polygon fill="midnightblue" stroke="midnightblue" points="322.64,-220.997 327.451,-211.557 317.803,-215.937 322.64,-220.997"/>
</g>
<!-- Node35 -->
<g id="node35" class="node"><title>Node35</title>
<g id="a_node35"><a xlink:href="formatter_8h.html" target="_top" xlink:title="spdlog/formatter.h">
<polygon fill="none" stroke="black" points="998.5,-440.5 998.5,-459.5 1093.5,-459.5 1093.5,-440.5 998.5,-440.5"/>
<text text-anchor="middle" x="1046" y="-447.5" font-family="Helvetica,sans-Serif" font-size="10.00">spdlog/formatter.h</text>
</a>
</g>
</g>
<!-- Node2&#45;&gt;Node35 -->
<g id="edge44" class="edge"><title>Node2&#45;&gt;Node35</title>
<path fill="none" stroke="midnightblue" d="M448.679,-499.798C577.084,-489.308 865.284,-465.763 988.43,-455.703"/>
<polygon fill="midnightblue" stroke="midnightblue" points="988.735,-459.19 998.417,-454.887 988.165,-452.213 988.735,-459.19"/>
</g>
<!-- Node37 -->
<g id="node37" class="node"><title>Node37</title>
<polygon fill="none" stroke="#bfbfbf" points="1408,-310.5 1408,-329.5 1452,-329.5 1452,-310.5 1408,-310.5"/>
<text text-anchor="middle" x="1430" y="-317.5" font-family="Helvetica,sans-Serif" font-size="10.00">mutex</text>
</g>
<!-- Node2&#45;&gt;Node37 -->
<g id="edge64" class="edge"><title>Node2&#45;&gt;Node37</title>
<path fill="none" stroke="midnightblue" d="M448.582,-503.91C574.04,-501.121 862.1,-491.542 1102,-460 1226.96,-443.57 1276.96,-476.584 1380,-404 1402.63,-388.06 1416.82,-358.325 1424.08,-339.112"/>
<polygon fill="midnightblue" stroke="midnightblue" points="1427.38,-340.269 1427.4,-329.674 1420.78,-337.942 1427.38,-340.269"/>
</g>
<!-- Node3&#45;&gt;Node4 -->
<g id="edge3" class="edge"><title>Node3&#45;&gt;Node4</title>
<path fill="none" stroke="midnightblue" d="M310.314,-378.372C314.643,-369.714 321.5,-356.001 327.424,-344.152"/>
<polygon fill="midnightblue" stroke="midnightblue" points="330.568,-345.691 331.909,-335.181 324.307,-342.56 330.568,-345.691"/>
</g>
<!-- Node4&#45;&gt;Node5 -->
<g id="edge4" class="edge"><title>Node4&#45;&gt;Node5</title>
<path fill="none" stroke="midnightblue" d="M338.755,-304.776C338.396,-283.971 337.728,-245.198 337.327,-221.981"/>
<polygon fill="midnightblue" stroke="midnightblue" points="340.822,-221.645 337.15,-211.707 333.823,-221.766 340.822,-221.645"/>
</g>
<!-- Node4&#45;&gt;Node6 -->
<g id="edge42" class="edge"><title>Node4&#45;&gt;Node6</title>
<path fill="none" stroke="midnightblue" d="M292.849,-307.429C233.733,-292.587 138.737,-268.663 138,-268 115.11,-247.4 114,-233.795 114,-203 114,-203 114,-203 114,-139 114,-99.6464 122.896,-54.2174 128.514,-29.4534"/>
<polygon fill="midnightblue" stroke="midnightblue" points="131.943,-30.1608 130.82,-19.6256 125.128,-28.5613 131.943,-30.1608"/>
</g>
<!-- Node24 -->
<g id="node24" class="node"><title>Node24</title>
<polygon fill="none" stroke="#bfbfbf" points="784,-0.5 784,-19.5 824,-19.5 824,-0.5 784,-0.5"/>
<text text-anchor="middle" x="804" y="-7.5" font-family="Helvetica,sans-Serif" font-size="10.00">utility</text>
</g>
<!-- Node4&#45;&gt;Node24 -->
<g id="edge43" class="edge"><title>Node4&#45;&gt;Node24</title>
<path fill="none" stroke="midnightblue" d="M348.832,-304.627C368.26,-277.5 414.446,-219.056 469,-192 566.81,-143.491 620.452,-215.489 712,-156 759.184,-125.339 786.802,-61.0688 798.057,-29.4159"/>
<polygon fill="midnightblue" stroke="midnightblue" points="801.459,-30.2831 801.361,-19.6887 794.831,-28.0318 801.459,-30.2831"/>
</g>
<!-- Node26 -->
<g id="node26" class="node"><title>Node26</title>
<g id="a_node26"><a xlink:href="os_8h.html" target="_top" xlink:title="spdlog/details/os.h">
<polygon fill="none" stroke="black" points="716,-248.5 716,-267.5 814,-267.5 814,-248.5 716,-248.5"/>
<text text-anchor="middle" x="765" y="-255.5" font-family="Helvetica,sans-Serif" font-size="10.00">spdlog/details/os.h</text>
</a>
</g>
</g>
<!-- Node4&#45;&gt;Node26 -->
<g id="edge28" class="edge"><title>Node4&#45;&gt;Node26</title>
<path fill="none" stroke="midnightblue" d="M385.4,-312.465C463.212,-301.505 619.885,-279.439 705.617,-267.364"/>
<polygon fill="midnightblue" stroke="midnightblue" points="706.296,-270.803 715.711,-265.942 705.32,-263.871 706.296,-270.803"/>
</g>
<!-- Node5&#45;&gt;Node6 -->
<g id="edge5" class="edge"><title>Node5&#45;&gt;Node6</title>
<path fill="none" stroke="midnightblue" d="M289.835,-194.008C263.283,-187.92 231.119,-176.663 209,-156 173.647,-122.974 190.014,-97.9982 166,-56 160.349,-46.1179 152.934,-35.8273 146.564,-27.585"/>
<polygon fill="midnightblue" stroke="midnightblue" points="149.154,-25.218 140.195,-19.5614 143.671,-29.5699 149.154,-25.218"/>
</g>
<!-- Node7 -->
<g id="node7" class="node"><title>Node7</title>
<polygon fill="none" stroke="#bfbfbf" points="401.5,-130.5 401.5,-149.5 474.5,-149.5 474.5,-130.5 401.5,-130.5"/>
<text text-anchor="middle" x="438" y="-137.5" font-family="Helvetica,sans-Serif" font-size="10.00">initializer_list</text>
</g>
<!-- Node5&#45;&gt;Node7 -->
<g id="edge6" class="edge"><title>Node5&#45;&gt;Node7</title>
<path fill="none" stroke="midnightblue" d="M351.471,-192.403C368.046,-182.557 395.426,-166.291 414.947,-154.695"/>
<polygon fill="midnightblue" stroke="midnightblue" points="416.746,-157.697 423.556,-149.581 413.171,-151.679 416.746,-157.697"/>
</g>
<!-- Node8 -->
<g id="node8" class="node"><title>Node8</title>
<polygon fill="none" stroke="#bfbfbf" points="1023,-130.5 1023,-149.5 1069,-149.5 1069,-130.5 1023,-130.5"/>
<text text-anchor="middle" x="1046" y="-137.5" font-family="Helvetica,sans-Serif" font-size="10.00">chrono</text>
</g>
<!-- Node5&#45;&gt;Node8 -->
<g id="edge7" class="edge"><title>Node5&#45;&gt;Node8</title>
<path fill="none" stroke="midnightblue" d="M384.069,-197.017C517.697,-185.708 897.17,-153.595 1012.4,-143.843"/>
<polygon fill="midnightblue" stroke="midnightblue" points="1013.05,-147.301 1022.71,-142.971 1012.45,-140.326 1013.05,-147.301"/>
</g>
<!-- Node5&#45;&gt;Node9 -->
<g id="edge8" class="edge"><title>Node5&#45;&gt;Node9</title>
<path fill="none" stroke="midnightblue" d="M384.034,-197.69C409.23,-195.942 440.804,-193.795 469,-192 739.592,-174.778 812.969,-213.228 1078,-156 1215.97,-126.208 1370.09,-53.9283 1430.12,-24.1535"/>
<polygon fill="midnightblue" stroke="midnightblue" points="1431.87,-27.1915 1439.25,-19.5906 1428.74,-20.9297 1431.87,-27.1915"/>
</g>
<!-- Node10 -->
<g id="node10" class="node"><title>Node10</title>
<polygon fill="none" stroke="#bfbfbf" points="658,-62.5 658,-81.5 704,-81.5 704,-62.5 658,-62.5"/>
<text text-anchor="middle" x="681" y="-69.5" font-family="Helvetica,sans-Serif" font-size="10.00">atomic</text>
</g>
<!-- Node5&#45;&gt;Node10 -->
<g id="edge9" class="edge"><title>Node5&#45;&gt;Node10</title>
<path fill="none" stroke="midnightblue" d="M379.616,-192.481C409.691,-185.386 450.289,-173.576 483,-156 502.751,-145.388 502.141,-134.408 522,-124 573.586,-96.9656 593.339,-108.105 648,-88 649.905,-87.2994 651.853,-86.5372 653.805,-85.7402"/>
<polygon fill="midnightblue" stroke="midnightblue" points="655.606,-88.7742 663.39,-81.5872 652.823,-82.3511 655.606,-88.7742"/>
</g>
<!-- Node11 -->
<g id="node11" class="node"><title>Node11</title>
<polygon fill="none" stroke="#bfbfbf" points="324.5,-130.5 324.5,-149.5 383.5,-149.5 383.5,-130.5 324.5,-130.5"/>
<text text-anchor="middle" x="354" y="-137.5" font-family="Helvetica,sans-Serif" font-size="10.00">exception</text>
</g>
<!-- Node5&#45;&gt;Node11 -->
<g id="edge10" class="edge"><title>Node5&#45;&gt;Node11</title>
<path fill="none" stroke="midnightblue" d="M339.436,-192.403C341.859,-183.849 345.656,-170.45 348.765,-159.476"/>
<polygon fill="midnightblue" stroke="midnightblue" points="352.21,-160.156 351.569,-149.581 345.475,-158.248 352.21,-160.156"/>
</g>
<!-- Node12 -->
<g id="node12" class="node"><title>Node12</title>
<polygon fill="none" stroke="#bfbfbf" points="644.5,-130.5 644.5,-149.5 703.5,-149.5 703.5,-130.5 644.5,-130.5"/>
<text text-anchor="middle" x="674" y="-137.5" font-family="Helvetica,sans-Serif" font-size="10.00">functional</text>
</g>
<!-- Node5&#45;&gt;Node12 -->
<g id="edge11" class="edge"><title>Node5&#45;&gt;Node12</title>
<path fill="none" stroke="midnightblue" d="M384.096,-197.076C443.381,-191.412 547.996,-179.008 635,-156 638.156,-155.165 641.408,-154.161 644.623,-153.072"/>
<polygon fill="midnightblue" stroke="midnightblue" points="645.84,-156.353 654.034,-149.636 643.44,-149.778 645.84,-156.353"/>
</g>
<!-- Node13 -->
<g id="node13" class="node"><title>Node13</title>
<g id="a_node13"><a xlink:href="null__mutex_8h.html" target="_top" xlink:title="spdlog/details/null\l_mutex.h">
<polygon fill="none" stroke="black" points="531.5,-125 531.5,-155 626.5,-155 626.5,-125 531.5,-125"/>
<text text-anchor="start" x="539.5" y="-143" font-family="Helvetica,sans-Serif" font-size="10.00">spdlog/details/null</text>
<text text-anchor="middle" x="579" y="-132" font-family="Helvetica,sans-Serif" font-size="10.00">_mutex.h</text>
</a>
</g>
</g>
<!-- Node5&#45;&gt;Node13 -->
<g id="edge12" class="edge"><title>Node5&#45;&gt;Node13</title>
<path fill="none" stroke="midnightblue" d="M371.416,-192.467C410.44,-182.792 474.698,-166.86 521.397,-155.282"/>
<polygon fill="midnightblue" stroke="midnightblue" points="522.513,-158.611 531.376,-152.807 520.828,-151.817 522.513,-158.611"/>
</g>
<!-- Node14 -->
<g id="node14" class="node"><title>Node14</title>
<g id="a_node14"><a xlink:href="fmt_8h.html" target="_top" xlink:title="spdlog/fmt/fmt.h">
<polygon fill="none" stroke="black" points="218,-130.5 218,-149.5 306,-149.5 306,-130.5 218,-130.5"/>
<text text-anchor="middle" x="262" y="-137.5" font-family="Helvetica,sans-Serif" font-size="10.00">spdlog/fmt/fmt.h</text>
</a>
</g>
</g>
<!-- Node5&#45;&gt;Node14 -->
<g id="edge14" class="edge"><title>Node5&#45;&gt;Node14</title>
<path fill="none" stroke="midnightblue" d="M326.254,-192.403C314.447,-182.958 295.257,-167.606 280.918,-156.134"/>
<polygon fill="midnightblue" stroke="midnightblue" points="282.721,-153.095 272.726,-149.581 278.348,-158.561 282.721,-153.095"/>
</g>
<!-- Node13&#45;&gt;Node10 -->
<g id="edge13" class="edge"><title>Node13&#45;&gt;Node10</title>
<path fill="none" stroke="midnightblue" d="M600.882,-124.841C617.971,-113.784 641.62,-98.4814 658.792,-87.3701"/>
<polygon fill="midnightblue" stroke="midnightblue" points="661.088,-90.0529 667.583,-81.6819 657.285,-84.1759 661.088,-90.0529"/>
</g>
<!-- Node15 -->
<g id="node15" class="node"><title>Node15</title>
<g id="a_node15"><a xlink:href="format_8h.html" target="_top" xlink:title="spdlog/fmt/bundled\l/format.h">
<polygon fill="none" stroke="black" points="540.5,-57 540.5,-87 639.5,-87 639.5,-57 540.5,-57"/>
<text text-anchor="start" x="548.5" y="-75" font-family="Helvetica,sans-Serif" font-size="10.00">spdlog/fmt/bundled</text>
<text text-anchor="middle" x="590" y="-64" font-family="Helvetica,sans-Serif" font-size="10.00">/format.h</text>
</a>
</g>
</g>
<!-- Node14&#45;&gt;Node15 -->
<g id="edge15" class="edge"><title>Node14&#45;&gt;Node15</title>
<path fill="none" stroke="midnightblue" d="M290.205,-130.495C298.183,-128.232 306.899,-125.893 315,-124 388.557,-106.809 474.267,-91.6781 530.197,-82.4518"/>
<polygon fill="midnightblue" stroke="midnightblue" points="530.982,-85.87 540.284,-80.7986 529.85,-78.9621 530.982,-85.87"/>
</g>
<!-- Node15&#45;&gt;Node6 -->
<g id="edge24" class="edge"><title>Node15&#45;&gt;Node6</title>
<path fill="none" stroke="midnightblue" d="M540.154,-58.7267C535.385,-57.7308 530.61,-56.8013 526,-56 392.047,-32.7145 230.236,-18.5315 163.77,-13.2985"/>
<polygon fill="midnightblue" stroke="midnightblue" points="163.818,-9.79179 153.577,-12.5077 163.276,-16.7708 163.818,-9.79179"/>
</g>
<!-- Node15&#45;&gt;Node9 -->
<g id="edge22" class="edge"><title>Node15&#45;&gt;Node9</title>
<path fill="none" stroke="midnightblue" d="M639.752,-57.6195C642.869,-57.0087 645.97,-56.4603 649,-56 950.408,-10.2202 1029.74,-39.2156 1334,-20 1362.8,-18.1809 1395.4,-15.7571 1419.65,-13.8831"/>
<polygon fill="midnightblue" stroke="midnightblue" points="1420.13,-17.3565 1429.83,-13.0911 1419.59,-10.3776 1420.13,-17.3565"/>
</g>
<!-- Node16 -->
<g id="node16" class="node"><title>Node16</title>
<polygon fill="none" stroke="#bfbfbf" points="467.5,-0.5 467.5,-19.5 516.5,-19.5 516.5,-0.5 467.5,-0.5"/>
<text text-anchor="middle" x="492" y="-7.5" font-family="Helvetica,sans-Serif" font-size="10.00">cassert</text>
</g>
<!-- Node15&#45;&gt;Node16 -->
<g id="edge16" class="edge"><title>Node15&#45;&gt;Node16</title>
<path fill="none" stroke="midnightblue" d="M566.775,-56.7808C550.972,-47.1054 530.168,-34.3684 514.517,-24.7861"/>
<polygon fill="midnightblue" stroke="midnightblue" points="516.33,-21.7923 505.974,-19.5557 512.675,-27.7623 516.33,-21.7923"/>
</g>
<!-- Node17 -->
<g id="node17" class="node"><title>Node17</title>
<polygon fill="none" stroke="#bfbfbf" points="534.5,-0.5 534.5,-19.5 581.5,-19.5 581.5,-0.5 534.5,-0.5"/>
<text text-anchor="middle" x="558" y="-7.5" font-family="Helvetica,sans-Serif" font-size="10.00">clocale</text>
</g>
<!-- Node15&#45;&gt;Node17 -->
<g id="edge17" class="edge"><title>Node15&#45;&gt;Node17</title>
<path fill="none" stroke="midnightblue" d="M582.416,-56.7808C577.91,-48.3318 572.159,-37.5481 567.37,-28.5693"/>
<polygon fill="midnightblue" stroke="midnightblue" points="570.45,-26.907 562.656,-19.7305 564.274,-30.2012 570.45,-26.907"/>
</g>
<!-- Node18 -->
<g id="node18" class="node"><title>Node18</title>
<polygon fill="none" stroke="#bfbfbf" points="600,-0.5 600,-19.5 644,-19.5 644,-0.5 600,-0.5"/>
<text text-anchor="middle" x="622" y="-7.5" font-family="Helvetica,sans-Serif" font-size="10.00">cmath</text>
</g>
<!-- Node15&#45;&gt;Node18 -->
<g id="edge18" class="edge"><title>Node15&#45;&gt;Node18</title>
<path fill="none" stroke="midnightblue" d="M597.584,-56.7808C602.09,-48.3318 607.841,-37.5481 612.63,-28.5693"/>
<polygon fill="midnightblue" stroke="midnightblue" points="615.726,-30.2012 617.344,-19.7305 609.55,-26.907 615.726,-30.2012"/>
</g>
<!-- Node19 -->
<g id="node19" class="node"><title>Node19</title>
<polygon fill="none" stroke="#bfbfbf" points="1075.5,-0.5 1075.5,-19.5 1118.5,-19.5 1118.5,-0.5 1075.5,-0.5"/>
<text text-anchor="middle" x="1097" y="-7.5" font-family="Helvetica,sans-Serif" font-size="10.00">cstdio</text>
</g>
<!-- Node15&#45;&gt;Node19 -->
<g id="edge19" class="edge"><title>Node15&#45;&gt;Node19</title>
<path fill="none" stroke="midnightblue" d="M639.78,-57.7893C642.89,-57.1364 645.982,-56.5322 649,-56 803.817,-28.701 991.87,-16.5219 1065.4,-12.5542"/>
<polygon fill="midnightblue" stroke="midnightblue" points="1065.59,-16.0487 1075.4,-12.0275 1065.22,-9.05842 1065.59,-16.0487"/>
</g>
<!-- Node20 -->
<g id="node20" class="node"><title>Node20</title>
<polygon fill="none" stroke="#bfbfbf" points="662,-0.5 662,-19.5 708,-19.5 708,-0.5 662,-0.5"/>
<text text-anchor="middle" x="685" y="-7.5" font-family="Helvetica,sans-Serif" font-size="10.00">cstring</text>
</g>
<!-- Node15&#45;&gt;Node20 -->
<g id="edge20" class="edge"><title>Node15&#45;&gt;Node20</title>
<path fill="none" stroke="midnightblue" d="M612.514,-56.7808C627.69,-47.1958 647.624,-34.6062 662.745,-25.0555"/>
<polygon fill="midnightblue" stroke="midnightblue" points="664.868,-27.8549 671.453,-19.5557 661.13,-21.9365 664.868,-27.8549"/>
</g>
<!-- Node21 -->
<g id="node21" class="node"><title>Node21</title>
<polygon fill="none" stroke="#bfbfbf" points="726,-0.5 726,-19.5 766,-19.5 766,-0.5 726,-0.5"/>
<text text-anchor="middle" x="746" y="-7.5" font-family="Helvetica,sans-Serif" font-size="10.00">limits</text>
</g>
<!-- Node15&#45;&gt;Node21 -->
<g id="edge21" class="edge"><title>Node15&#45;&gt;Node21</title>
<path fill="none" stroke="midnightblue" d="M626.575,-56.9327C653.924,-46.4138 690.845,-32.2135 716.361,-22.3996"/>
<polygon fill="midnightblue" stroke="midnightblue" points="717.793,-25.5987 725.87,-18.7422 715.28,-19.0653 717.793,-25.5987"/>
</g>
<!-- Node22 -->
<g id="node22" class="node"><title>Node22</title>
<polygon fill="none" stroke="#bfbfbf" points="323.5,-0.5 323.5,-19.5 382.5,-19.5 382.5,-0.5 323.5,-0.5"/>
<text text-anchor="middle" x="353" y="-7.5" font-family="Helvetica,sans-Serif" font-size="10.00">stdexcept</text>
</g>
<!-- Node15&#45;&gt;Node22 -->
<g id="edge23" class="edge"><title>Node15&#45;&gt;Node22</title>
<path fill="none" stroke="midnightblue" d="M540.317,-58.422C496.396,-47.3029 433.174,-31.2973 392.59,-21.0227"/>
<polygon fill="midnightblue" stroke="midnightblue" points="393.338,-17.6018 382.785,-18.5404 391.62,-24.3877 393.338,-17.6018"/>
</g>
<!-- Node15&#45;&gt;Node23 -->
<g id="edge25" class="edge"><title>Node15&#45;&gt;Node23</title>
<path fill="none" stroke="midnightblue" d="M639.761,-57.677C642.876,-57.0519 645.974,-56.4846 649,-56 710.727,-46.1158 1147.67,-20.1258 1271.41,-12.8923"/>
<polygon fill="midnightblue" stroke="midnightblue" points="1271.96,-16.3663 1281.74,-12.2896 1271.56,-9.37814 1271.96,-16.3663"/>
</g>
<!-- Node15&#45;&gt;Node24 -->
<g id="edge26" class="edge"><title>Node15&#45;&gt;Node24</title>
<path fill="none" stroke="midnightblue" d="M639.59,-57.7903C674.652,-48.3456 722.993,-35.1142 773.876,-20.2671"/>
<polygon fill="midnightblue" stroke="midnightblue" points="775.131,-23.5469 783.743,-17.3769 773.163,-16.8291 775.131,-23.5469"/>
</g>
<!-- Node25 -->
<g id="node25" class="node"><title>Node25</title>
<polygon fill="none" stroke="#bfbfbf" points="400.5,-0.5 400.5,-19.5 449.5,-19.5 449.5,-0.5 400.5,-0.5"/>
<text text-anchor="middle" x="425" y="-7.5" font-family="Helvetica,sans-Serif" font-size="10.00">stdint.h</text>
</g>
<!-- Node15&#45;&gt;Node25 -->
<g id="edge27" class="edge"><title>Node15&#45;&gt;Node25</title>
<path fill="none" stroke="midnightblue" d="M551.315,-56.9327C523.105,-46.6744 485.266,-32.9148 458.377,-23.1369"/>
<polygon fill="midnightblue" stroke="midnightblue" points="459.244,-19.7282 448.65,-19.6 456.852,-26.3068 459.244,-19.7282"/>
</g>
<!-- Node26&#45;&gt;Node5 -->
<g id="edge29" class="edge"><title>Node26&#45;&gt;Node5</title>
<path fill="none" stroke="midnightblue" d="M715.903,-250.806C636.146,-240.743 478.85,-220.897 394.176,-210.214"/>
<polygon fill="midnightblue" stroke="midnightblue" points="394.58,-206.737 384.22,-208.958 393.703,-213.682 394.58,-206.737"/>
</g>
<!-- Node26&#45;&gt;Node6 -->
<g id="edge33" class="edge"><title>Node26&#45;&gt;Node6</title>
<path fill="none" stroke="midnightblue" d="M715.837,-249.767C673.95,-242.48 618.46,-229.768 605,-212 599.633,-204.915 599.813,-199.218 605,-192 634.281,-151.255 682.719,-196.745 712,-156 720.3,-144.451 721.042,-134.978 712,-124 710.879,-122.639 282.721,-39.9022 163.493,-16.8848"/>
<polygon fill="midnightblue" stroke="midnightblue" points="164.045,-13.4266 153.562,-14.9678 162.718,-20.2998 164.045,-13.4266"/>
</g>
<!-- Node26&#45;&gt;Node8 -->
<g id="edge34" class="edge"><title>Node26&#45;&gt;Node8</title>
<path fill="none" stroke="midnightblue" d="M814.176,-255.227C882.657,-251.705 1001.76,-241.416 1032,-212 1045.62,-198.748 1048.04,-176.364 1047.73,-160.269"/>
<polygon fill="midnightblue" stroke="midnightblue" points="1051.2,-159.67 1047.15,-149.881 1044.21,-160.062 1051.2,-159.67"/>
</g>
<!-- Node26&#45;&gt;Node12 -->
<g id="edge32" class="edge"><title>Node26&#45;&gt;Node12</title>
<path fill="none" stroke="midnightblue" d="M715.865,-252.412C664.721,-246.5 589.646,-234.233 572,-212 566.474,-205.037 567.327,-199.561 572,-192 576.232,-185.153 616.245,-166.426 644.874,-153.674"/>
<polygon fill="midnightblue" stroke="midnightblue" points="646.348,-156.85 654.078,-149.605 643.517,-150.448 646.348,-156.85"/>
</g>
<!-- Node26&#45;&gt;Node19 -->
<g id="edge30" class="edge"><title>Node26&#45;&gt;Node19</title>
<path fill="none" stroke="midnightblue" d="M814.187,-254.801C886.107,-250.683 1015.4,-239.585 1052,-212 1108.91,-169.113 1104.49,-71.2097 1099.73,-29.9215"/>
<polygon fill="midnightblue" stroke="midnightblue" points="1103.19,-29.3391 1098.43,-19.8702 1096.25,-30.2363 1103.19,-29.3391"/>
</g>
<!-- Node27 -->
<g id="node27" class="node"><title>Node27</title>
<polygon fill="none" stroke="#bfbfbf" points="478.5,-192.5 478.5,-211.5 519.5,-211.5 519.5,-192.5 478.5,-192.5"/>
<text text-anchor="middle" x="499" y="-199.5" font-family="Helvetica,sans-Serif" font-size="10.00">ctime</text>
</g>
<!-- Node26&#45;&gt;Node27 -->
<g id="edge31" class="edge"><title>Node26&#45;&gt;Node27</title>
<path fill="none" stroke="midnightblue" d="M716.601,-248.435C669.741,-239.939 596.772,-226.172 534,-212 532.546,-211.672 531.061,-211.327 529.563,-210.972"/>
<polygon fill="midnightblue" stroke="midnightblue" points="530.226,-207.53 519.679,-208.534 528.55,-214.327 530.226,-207.53"/>
</g>
<!-- Node28 -->
<g id="node28" class="node"><title>Node28</title>
<polygon fill="none" stroke="#bfbfbf" points="1118,-192.5 1118,-211.5 1162,-211.5 1162,-192.5 1118,-192.5"/>
<text text-anchor="middle" x="1140" y="-199.5" font-family="Helvetica,sans-Serif" font-size="10.00">thread</text>
</g>
<!-- Node26&#45;&gt;Node28 -->
<g id="edge35" class="edge"><title>Node26&#45;&gt;Node28</title>
<path fill="none" stroke="midnightblue" d="M814.119,-252.241C880.31,-245.426 1001.65,-231.522 1104,-212 1105.25,-211.762 1106.51,-211.508 1107.79,-211.241"/>
<polygon fill="midnightblue" stroke="midnightblue" points="1108.64,-214.637 1117.62,-209.011 1107.09,-207.811 1108.64,-214.637"/>
</g>
<!-- Node29 -->
<g id="node29" class="node"><title>Node29</title>
<polygon fill="none" stroke="#bfbfbf" points="676,-192.5 676,-211.5 722,-211.5 722,-192.5 676,-192.5"/>
<text text-anchor="middle" x="699" y="-199.5" font-family="Helvetica,sans-Serif" font-size="10.00">stdio.h</text>
</g>
<!-- Node26&#45;&gt;Node29 -->
<g id="edge36" class="edge"><title>Node26&#45;&gt;Node29</title>
<path fill="none" stroke="midnightblue" d="M754.396,-248.324C744.544,-240.263 729.649,-228.077 717.785,-218.369"/>
<polygon fill="midnightblue" stroke="midnightblue" points="719.753,-215.457 709.797,-211.834 715.32,-220.875 719.753,-215.457"/>
</g>
<!-- Node30 -->
<g id="node30" class="node"><title>Node30</title>
<polygon fill="none" stroke="#bfbfbf" points="740.5,-192.5 740.5,-211.5 789.5,-211.5 789.5,-192.5 740.5,-192.5"/>
<text text-anchor="middle" x="765" y="-199.5" font-family="Helvetica,sans-Serif" font-size="10.00">string.h</text>
</g>
<!-- Node26&#45;&gt;Node30 -->
<g id="edge37" class="edge"><title>Node26&#45;&gt;Node30</title>
<path fill="none" stroke="midnightblue" d="M765,-248.083C765,-241.006 765,-230.861 765,-221.986"/>
<polygon fill="midnightblue" stroke="midnightblue" points="768.5,-221.751 765,-211.751 761.5,-221.751 768.5,-221.751"/>
</g>
<!-- Node31 -->
<g id="node31" class="node"><title>Node31</title>
<polygon fill="none" stroke="#bfbfbf" points="808,-192.5 808,-211.5 868,-211.5 868,-192.5 808,-192.5"/>
<text text-anchor="middle" x="838" y="-199.5" font-family="Helvetica,sans-Serif" font-size="10.00">sys/stat.h</text>
</g>
<!-- Node26&#45;&gt;Node31 -->
<g id="edge38" class="edge"><title>Node26&#45;&gt;Node31</title>
<path fill="none" stroke="midnightblue" d="M776.729,-248.324C787.837,-240.107 804.742,-227.602 817.983,-217.807"/>
<polygon fill="midnightblue" stroke="midnightblue" points="820.1,-220.595 826.058,-211.834 815.937,-214.967 820.1,-220.595"/>
</g>
<!-- Node32 -->
<g id="node32" class="node"><title>Node32</title>
<polygon fill="none" stroke="#bfbfbf" points="886,-192.5 886,-211.5 954,-211.5 954,-192.5 886,-192.5"/>
<text text-anchor="middle" x="920" y="-199.5" font-family="Helvetica,sans-Serif" font-size="10.00">sys/types.h</text>
</g>
<!-- Node26&#45;&gt;Node32 -->
<g id="edge39" class="edge"><title>Node26&#45;&gt;Node32</title>
<path fill="none" stroke="midnightblue" d="M789.56,-248.444C815.523,-239.399 856.668,-225.064 885.797,-214.916"/>
<polygon fill="midnightblue" stroke="midnightblue" points="887.263,-218.112 895.555,-211.516 884.96,-211.501 887.263,-218.112"/>
</g>
<!-- Node33 -->
<g id="node33" class="node"><title>Node33</title>
<polygon fill="none" stroke="#bfbfbf" points="972.5,-192.5 972.5,-211.5 1023.5,-211.5 1023.5,-192.5 972.5,-192.5"/>
<text text-anchor="middle" x="998" y="-199.5" font-family="Helvetica,sans-Serif" font-size="10.00">unistd.h</text>
</g>
<!-- Node26&#45;&gt;Node33 -->
<g id="edge40" class="edge"><title>Node26&#45;&gt;Node33</title>
<path fill="none" stroke="midnightblue" d="M804.148,-248.445C842.114,-240.071 901.586,-226.755 962.603,-212.043"/>
<polygon fill="midnightblue" stroke="midnightblue" points="963.511,-215.424 972.407,-209.67 961.864,-208.621 963.511,-215.424"/>
</g>
<!-- Node34 -->
<g id="node34" class="node"><title>Node34</title>
<polygon fill="none" stroke="#bfbfbf" points="614,-192.5 614,-211.5 658,-211.5 658,-192.5 614,-192.5"/>
<text text-anchor="middle" x="636" y="-199.5" font-family="Helvetica,sans-Serif" font-size="10.00">fcntl.h</text>
</g>
<!-- Node26&#45;&gt;Node34 -->
<g id="edge41" class="edge"><title>Node26&#45;&gt;Node34</title>
<path fill="none" stroke="midnightblue" d="M744.56,-248.444C723.33,-239.557 689.901,-225.563 665.745,-215.451"/>
<polygon fill="midnightblue" stroke="midnightblue" points="666.921,-212.149 656.345,-211.516 664.218,-218.606 666.921,-212.149"/>
</g>
<!-- Node35&#45;&gt;Node4 -->
<g id="edge45" class="edge"><title>Node35&#45;&gt;Node4</title>
<path fill="none" stroke="midnightblue" d="M998.288,-441.874C890.827,-425.559 621.814,-383.245 399,-336 397.73,-335.731 396.446,-335.453 395.152,-335.169"/>
<polygon fill="midnightblue" stroke="midnightblue" points="395.637,-331.69 385.11,-332.884 394.084,-338.516 395.637,-331.69"/>
</g>
<!-- Node35&#45;&gt;Node6 -->
<g id="edge47" class="edge"><title>Node35&#45;&gt;Node6</title>
<path fill="none" stroke="midnightblue" d="M998.472,-447.096C876.87,-441.132 545.615,-417.997 284,-336 179.295,-303.183 76,-312.727 76,-203 76,-203 76,-203 76,-139 76,-96.0494 103.114,-51.4573 119.941,-27.9188"/>
<polygon fill="midnightblue" stroke="midnightblue" points="122.879,-29.8325 126.011,-19.7111 117.251,-25.6703 122.879,-29.8325"/>
</g>
<!-- Node35&#45;&gt;Node9 -->
<g id="edge48" class="edge"><title>Node35&#45;&gt;Node9</title>
<path fill="none" stroke="midnightblue" d="M1090.43,-440.467C1136.7,-431.168 1205.77,-416.013 1230,-404 1273.04,-382.668 1283.85,-373.392 1314,-336 1391.48,-239.912 1397.6,-204.28 1439,-88 1445.87,-68.6972 1450.52,-45.645 1453.2,-29.8258"/>
<polygon fill="midnightblue" stroke="midnightblue" points="1456.68,-30.1678 1454.8,-19.7424 1449.77,-29.069 1456.68,-30.1678"/>
</g>
<!-- Node35&#45;&gt;Node23 -->
<g id="edge46" class="edge"><title>Node35&#45;&gt;Node23</title>
<path fill="none" stroke="midnightblue" d="M1085.01,-440.466C1154.49,-422.704 1295.44,-374.238 1328,-268 1354.45,-181.683 1324.41,-72.0592 1310.41,-29.2693"/>
<polygon fill="midnightblue" stroke="midnightblue" points="1313.68,-28.0259 1307.16,-19.6736 1307.05,-30.2678 1313.68,-28.0259"/>
</g>
<!-- Node36 -->
<g id="node36" class="node"><title>Node36</title>
<g id="a_node36"><a xlink:href="pattern__formatter__impl_8h.html" target="_top" xlink:title="spdlog/details/pattern\l_formatter_impl.h">
<polygon fill="none" stroke="black" points="991,-373 991,-403 1101,-403 1101,-373 991,-373"/>
<text text-anchor="start" x="999" y="-391" font-family="Helvetica,sans-Serif" font-size="10.00">spdlog/details/pattern</text>
<text text-anchor="middle" x="1046" y="-380" font-family="Helvetica,sans-Serif" font-size="10.00">_formatter_impl.h</text>
</a>
</g>
</g>
<!-- Node35&#45;&gt;Node36 -->
<g id="edge49" class="edge"><title>Node35&#45;&gt;Node36</title>
<path fill="none" stroke="midnightblue" d="M1041.1,-440.403C1039.57,-433.341 1038.99,-422.975 1039.36,-413.399"/>
<polygon fill="midnightblue" stroke="midnightblue" points="1042.87,-413.386 1040.17,-403.141 1035.89,-412.832 1042.87,-413.386"/>
</g>
<!-- Node36&#45;&gt;Node4 -->
<g id="edge51" class="edge"><title>Node36&#45;&gt;Node4</title>
<path fill="none" stroke="midnightblue" d="M990.669,-385.735C878.411,-382.489 616.123,-371.445 399,-336 397.718,-335.791 396.424,-335.568 395.121,-335.333"/>
<polygon fill="midnightblue" stroke="midnightblue" points="395.517,-331.843 385.027,-333.328 394.153,-338.709 395.517,-331.843"/>
</g>
<!-- Node36&#45;&gt;Node6 -->
<g id="edge58" class="edge"><title>Node36&#45;&gt;Node6</title>
<path fill="none" stroke="midnightblue" d="M990.906,-384.482C849.233,-377.721 479.793,-358.171 429,-336 409.683,-327.568 411.767,-315.339 394,-304 295.754,-241.302 152,-319.547 152,-203 152,-203 152,-203 152,-139 152,-99.6464 143.104,-54.2174 137.486,-29.4534"/>
<polygon fill="midnightblue" stroke="midnightblue" points="140.872,-28.5613 135.18,-19.6256 134.057,-30.1608 140.872,-28.5613"/>
</g>
<!-- Node36&#45;&gt;Node8 -->
<g id="edge54" class="edge"><title>Node36&#45;&gt;Node8</title>
<path fill="none" stroke="midnightblue" d="M1067.27,-372.901C1113.35,-340.59 1214.77,-258.827 1170,-192 1149.92,-162.032 1108.71,-149.657 1079.31,-144.557"/>
<polygon fill="midnightblue" stroke="midnightblue" points="1079.49,-141.044 1069.08,-142.989 1078.43,-147.963 1079.49,-141.044"/>
</g>
<!-- Node36&#45;&gt;Node9 -->
<g id="edge56" class="edge"><title>Node36&#45;&gt;Node9</title>
<path fill="none" stroke="midnightblue" d="M1101.02,-384.543C1145.46,-380.101 1207.68,-368.078 1252,-336 1310.41,-293.724 1415.91,-90.5521 1447.09,-28.8249"/>
<polygon fill="midnightblue" stroke="midnightblue" points="1450.37,-30.0972 1451.73,-19.5906 1444.11,-26.9531 1450.37,-30.0972"/>
</g>
<!-- Node36&#45;&gt;Node14 -->
<g id="edge53" class="edge"><title>Node36&#45;&gt;Node14</title>
<path fill="none" stroke="midnightblue" d="M990.914,-378.25C933.902,-368.911 842.377,-353.125 764,-336 547.48,-288.693 438.51,-367.915 281,-212 267.281,-198.42 263.141,-176.096 262.05,-160.104"/>
<polygon fill="midnightblue" stroke="midnightblue" points="265.537,-159.671 261.701,-149.795 258.541,-159.908 265.537,-159.671"/>
</g>
<!-- Node36&#45;&gt;Node23 -->
<g id="edge61" class="edge"><title>Node36&#45;&gt;Node23</title>
<path fill="none" stroke="midnightblue" d="M1101.23,-379.304C1166.4,-366.751 1266,-335.115 1266,-259 1266,-259 1266,-259 1266,-201 1266,-136.928 1287.04,-63.0202 1297.8,-29.3808"/>
<polygon fill="midnightblue" stroke="midnightblue" points="1301.23,-30.1816 1301.02,-19.5888 1294.57,-27.9989 1301.23,-30.1816"/>
</g>
<!-- Node36&#45;&gt;Node24 -->
<g id="edge60" class="edge"><title>Node36&#45;&gt;Node24</title>
<path fill="none" stroke="midnightblue" d="M1084.13,-372.935C1103.83,-364.364 1127.38,-351.966 1145,-336 1194.59,-291.069 1221.7,-250.386 1189,-192 1114.71,-59.3727 911.018,-23.0093 834.016,-13.8494"/>
<polygon fill="midnightblue" stroke="midnightblue" points="834.346,-10.3646 824.019,-12.7303 833.567,-17.3211 834.346,-10.3646"/>
</g>
<!-- Node36&#45;&gt;Node26 -->
<g id="edge52" class="edge"><title>Node36&#45;&gt;Node26</title>
<path fill="none" stroke="midnightblue" d="M1015.12,-372.936C960.095,-347.869 845.888,-295.846 793,-271.754"/>
<polygon fill="midnightblue" stroke="midnightblue" points="794.417,-268.554 783.866,-267.594 791.515,-274.924 794.417,-268.554"/>
</g>
<!-- Node36&#45;&gt;Node27 -->
<g id="edge55" class="edge"><title>Node36&#45;&gt;Node27</title>
<path fill="none" stroke="midnightblue" d="M990.7,-373.159C953.513,-363.529 903.522,-349.956 860,-336 735.588,-296.106 590.532,-239.526 529.019,-215.052"/>
<polygon fill="midnightblue" stroke="midnightblue" points="530.125,-211.725 519.54,-211.271 527.532,-218.227 530.125,-211.725"/>
</g>
<!-- Node36&#45;&gt;Node28 -->
<g id="edge59" class="edge"><title>Node36&#45;&gt;Node28</title>
<path fill="none" stroke="midnightblue" d="M1053.22,-372.867C1070.12,-339.792 1112.21,-257.393 1130.86,-220.89"/>
<polygon fill="midnightblue" stroke="midnightblue" points="1134.03,-222.389 1135.46,-211.891 1127.79,-219.204 1134.03,-222.389"/>
</g>
<!-- Node36&#45;&gt;Node35 -->
<g id="edge50" class="edge"><title>Node36&#45;&gt;Node35</title>
<path fill="none" stroke="midnightblue" d="M1051.83,-403.141C1052.87,-411.272 1053.03,-421.585 1052.3,-430.371"/>
<polygon fill="midnightblue" stroke="midnightblue" points="1048.81,-430.016 1050.9,-440.403 1055.75,-430.982 1048.81,-430.016"/>
</g>
<!-- Node36&#45;&gt;Node37 -->
<g id="edge57" class="edge"><title>Node36&#45;&gt;Node37</title>
<path fill="none" stroke="midnightblue" d="M1101.02,-377.544C1182.35,-363.565 1332.1,-337.827 1397.74,-326.545"/>
<polygon fill="midnightblue" stroke="midnightblue" points="1398.63,-329.943 1407.89,-324.8 1397.44,-323.044 1398.63,-329.943"/>
</g>
<!-- Node38&#45;&gt;Node1 -->
<g id="edge70" class="edge"><title>Node38&#45;&gt;Node1</title>
<path fill="none" stroke="midnightblue" d="M625.381,-651.252C626.4,-658.969 626.85,-668.877 626.731,-678.529"/>
<polygon fill="midnightblue" stroke="midnightblue" points="623.224,-678.673 626.379,-688.787 630.22,-678.913 623.224,-678.673"/>
</g>
<!-- Node38&#45;&gt;Node6 -->
<g id="edge78" class="edge"><title>Node38&#45;&gt;Node6</title>
<path fill="none" stroke="midnightblue" d="M566.809,-622.869C423.135,-586.631 38,-465.051 38,-203 38,-203 38,-203 38,-139 38,-89.8063 83.8058,-47.2138 111.804,-25.7745"/>
<polygon fill="midnightblue" stroke="midnightblue" points="114.228,-28.335 120.188,-19.5754 110.066,-22.7065 114.228,-28.335"/>
</g>
<!-- Node38&#45;&gt;Node9 -->
<g id="edge77" class="edge"><title>Node38&#45;&gt;Node9</title>
<path fill="none" stroke="midnightblue" d="M673.005,-633.379C871.01,-626.631 1556,-596.797 1556,-507 1556,-507 1556,-507 1556,-387 1556,-304.986 1570,-285.014 1570,-203 1570,-203 1570,-203 1570,-139 1570,-86.2307 1515.3,-45.1502 1481.68,-24.8847"/>
<polygon fill="midnightblue" stroke="midnightblue" points="1483.22,-21.7332 1472.82,-19.7283 1479.7,-27.7832 1483.22,-21.7332"/>
</g>
<!-- Node39 -->
<g id="node39" class="node"><title>Node39</title>
<g id="a_node39"><a xlink:href="stdout__sinks_8h.html" target="_top" xlink:title="spdlog/sinks/stdout\l_sinks.h">
<polygon fill="none" stroke="black" points="919.5,-553 919.5,-583 1020.5,-583 1020.5,-553 919.5,-553"/>
<text text-anchor="start" x="927.5" y="-571" font-family="Helvetica,sans-Serif" font-size="10.00">spdlog/sinks/stdout</text>
<text text-anchor="middle" x="970" y="-560" font-family="Helvetica,sans-Serif" font-size="10.00">_sinks.h</text>
</a>
</g>
</g>
<!-- Node38&#45;&gt;Node39 -->
<g id="edge71" class="edge"><title>Node38&#45;&gt;Node39</title>
<path fill="none" stroke="midnightblue" d="M673.157,-624.976C736.73,-612.988 842.89,-592.969 909.534,-580.402"/>
<polygon fill="midnightblue" stroke="midnightblue" points="910.295,-583.82 919.473,-578.528 908.998,-576.942 910.295,-583.82"/>
</g>
<!-- Node39&#45;&gt;Node2 -->
<g id="edge73" class="edge"><title>Node39&#45;&gt;Node2</title>
<path fill="none" stroke="midnightblue" d="M919.363,-561.806C815.796,-551.184 579.385,-526.937 458.756,-514.565"/>
<polygon fill="midnightblue" stroke="midnightblue" points="458.814,-511.052 448.509,-513.514 458.1,-518.016 458.814,-511.052"/>
</g>
<!-- Node39&#45;&gt;Node9 -->
<g id="edge75" class="edge"><title>Node39&#45;&gt;Node9</title>
<path fill="none" stroke="midnightblue" d="M1020.57,-566.962C1156.23,-565.504 1518,-552.137 1518,-451 1518,-451 1518,-451 1518,-387 1518,-304.53 1494,-285.47 1494,-203 1494,-203 1494,-203 1494,-139 1494,-98.2307 1476.06,-53.0653 1464.84,-28.7866"/>
<polygon fill="midnightblue" stroke="midnightblue" points="1467.98,-27.2455 1460.51,-19.734 1461.67,-30.2655 1467.98,-27.2455"/>
</g>
<!-- Node39&#45;&gt;Node13 -->
<g id="edge72" class="edge"><title>Node39&#45;&gt;Node13</title>
<path fill="none" stroke="midnightblue" d="M928.747,-552.92C827.714,-515.906 568.875,-405.176 469,-212 454.558,-184.067 487.85,-165.59 521.501,-154.506"/>
<polygon fill="midnightblue" stroke="midnightblue" points="522.91,-157.734 531.431,-151.437 520.844,-151.046 522.91,-157.734"/>
</g>
<!-- Node39&#45;&gt;Node19 -->
<g id="edge74" class="edge"><title>Node39&#45;&gt;Node19</title>
<path fill="none" stroke="midnightblue" d="M1020.77,-566.157C1149.76,-562.647 1480,-544.527 1480,-451 1480,-451 1480,-451 1480,-387 1480,-190.11 1219.07,-62.0842 1127.95,-23.3787"/>
<polygon fill="midnightblue" stroke="midnightblue" points="1129.27,-20.134 1118.69,-19.5044 1126.56,-26.592 1129.27,-20.134"/>
</g>
<!-- Node39&#45;&gt;Node37 -->
<g id="edge76" class="edge"><title>Node39&#45;&gt;Node37</title>
<path fill="none" stroke="midnightblue" d="M1020.59,-562.97C1111.81,-552.928 1304.01,-518.623 1408,-404 1424.01,-386.354 1428.6,-358.39 1429.8,-339.869"/>
<polygon fill="midnightblue" stroke="midnightblue" points="1433.3,-339.857 1430.17,-329.734 1426.3,-339.598 1433.3,-339.857"/>
</g>
</g>
</svg>
