<?xml version="1.0" encoding="UTF-8" standalone="no"?>
<!DOCTYPE svg PUBLIC "-//W3C//DTD SVG 1.1//EN"
 "http://www.w3.org/Graphics/SVG/1.1/DTD/svg11.dtd">
<!-- Generated by graphviz version 2.36.0 (20140111.2315)
 -->
<!-- Title: /home/lucamuratore/advr&#45;superbuild/external/XBotInterface/include/XBotInterface/ModelChain.h Pages: 1 -->
<svg width="1464pt" height="366pt"
 viewBox="0.00 0.00 1463.60 366.00" xmlns="http://www.w3.org/2000/svg" xmlns:xlink="http://www.w3.org/1999/xlink">
<g id="graph0" class="graph" transform="scale(1 1) rotate(0) translate(4 362)">
<title>/home/lucamuratore/advr&#45;superbuild/external/XBotInterface/include/XBotInterface/ModelChain.h</title>
<!-- Node1 -->
<g id="node1" class="node"><title>Node1</title>
<polygon fill="#bfbfbf" stroke="black" points="767,-305 767,-357 943,-357 943,-305 767,-305"/>
<text text-anchor="start" x="775" y="-345" font-family="Helvetica,sans-Serif" font-size="10.00">/home/lucamuratore</text>
<text text-anchor="start" x="775" y="-334" font-family="Helvetica,sans-Serif" font-size="10.00">/advr&#45;superbuild/external</text>
<text text-anchor="start" x="775" y="-323" font-family="Helvetica,sans-Serif" font-size="10.00">/XBotInterface/include/XBotInterface</text>
<text text-anchor="middle" x="855" y="-312" font-family="Helvetica,sans-Serif" font-size="10.00">/ModelChain.h</text>
</g>
<!-- Node2 -->
<g id="node2" class="node"><title>Node2</title>
<g id="a_node2"><a xlink:href="KinematicChain_8h.html" target="_top" xlink:title="XBotInterface/KinematicChain.h">
<polygon fill="none" stroke="black" points="776.5,-248.5 776.5,-267.5 933.5,-267.5 933.5,-248.5 776.5,-248.5"/>
<text text-anchor="middle" x="855" y="-255.5" font-family="Helvetica,sans-Serif" font-size="10.00">XBotInterface/KinematicChain.h</text>
</a>
</g>
</g>
<!-- Node1&#45;&gt;Node2 -->
<g id="edge1" class="edge"><title>Node1&#45;&gt;Node2</title>
<path fill="none" stroke="midnightblue" d="M855,-304.768C855,-295.89 855,-286.074 855,-277.816"/>
<polygon fill="midnightblue" stroke="midnightblue" points="858.5,-277.757 855,-267.757 851.5,-277.757 858.5,-277.757"/>
</g>
<!-- Node3 -->
<g id="node3" class="node"><title>Node3</title>
<polygon fill="none" stroke="#bfbfbf" points="731.5,-0.5 731.5,-19.5 772.5,-19.5 772.5,-0.5 731.5,-0.5"/>
<text text-anchor="middle" x="752" y="-7.5" font-family="Helvetica,sans-Serif" font-size="10.00">string</text>
</g>
<!-- Node2&#45;&gt;Node3 -->
<g id="edge2" class="edge"><title>Node2&#45;&gt;Node3</title>
<path fill="none" stroke="midnightblue" d="M859.929,-248.35C876.244,-218.458 925.011,-117.964 881,-56 858.884,-24.8628 813.556,-15.0922 782.965,-12.1282"/>
<polygon fill="midnightblue" stroke="midnightblue" points="783.062,-8.62532 772.821,-11.3399 782.519,-15.6043 783.062,-8.62532"/>
</g>
<!-- Node4 -->
<g id="node4" class="node"><title>Node4</title>
<polygon fill="none" stroke="#bfbfbf" points="308,-62.5 308,-81.5 352,-81.5 352,-62.5 308,-62.5"/>
<text text-anchor="middle" x="330" y="-69.5" font-family="Helvetica,sans-Serif" font-size="10.00">vector</text>
</g>
<!-- Node2&#45;&gt;Node4 -->
<g id="edge3" class="edge"><title>Node2&#45;&gt;Node4</title>
<path fill="none" stroke="midnightblue" d="M776.415,-250.389C683.363,-239.669 526.351,-212.281 410,-144 384.36,-128.953 359.502,-104.959 344.476,-89.0927"/>
<polygon fill="midnightblue" stroke="midnightblue" points="346.924,-86.5859 337.562,-81.6271 341.788,-91.3423 346.924,-86.5859"/>
</g>
<!-- Node5 -->
<g id="node5" class="node"><title>Node5</title>
<polygon fill="none" stroke="#bfbfbf" points="-0.5,-0.5 -0.5,-19.5 34.5,-19.5 34.5,-0.5 -0.5,-0.5"/>
<text text-anchor="middle" x="17" y="-7.5" font-family="Helvetica,sans-Serif" font-size="10.00">map</text>
</g>
<!-- Node2&#45;&gt;Node5 -->
<g id="edge4" class="edge"><title>Node2&#45;&gt;Node5</title>
<path fill="none" stroke="midnightblue" d="M776.291,-255.067C606.47,-250.439 216.559,-237.193 162,-212 83.2991,-175.66 38.6674,-72.0345 23.2229,-29.5321"/>
<polygon fill="midnightblue" stroke="midnightblue" points="26.4602,-28.1867 19.8499,-19.9069 19.8541,-30.5018 26.4602,-28.1867"/>
</g>
<!-- Node6 -->
<g id="node6" class="node"><title>Node6</title>
<polygon fill="none" stroke="#bfbfbf" points="1082,-0.5 1082,-19.5 1134,-19.5 1134,-0.5 1082,-0.5"/>
<text text-anchor="middle" x="1108" y="-7.5" font-family="Helvetica,sans-Serif" font-size="10.00">memory</text>
</g>
<!-- Node2&#45;&gt;Node6 -->
<g id="edge5" class="edge"><title>Node2&#45;&gt;Node6</title>
<path fill="none" stroke="midnightblue" d="M933.963,-257.096C1054.61,-256.032 1278.21,-248.934 1348,-212 1411.07,-178.622 1425.92,-155.176 1450,-88 1454.8,-74.6119 1459.38,-66.6925 1450,-56 1430.02,-33.2241 1227.96,-18.339 1144.14,-13.1001"/>
<polygon fill="midnightblue" stroke="midnightblue" points="1144.25,-9.60054 1134.06,-12.481 1143.82,-16.5874 1144.25,-9.60054"/>
</g>
<!-- Node7 -->
<g id="node7" class="node"><title>Node7</title>
<polygon fill="none" stroke="#bfbfbf" points="818,-62.5 818,-81.5 872,-81.5 872,-62.5 818,-62.5"/>
<text text-anchor="middle" x="845" y="-69.5" font-family="Helvetica,sans-Serif" font-size="10.00">iostream</text>
</g>
<!-- Node2&#45;&gt;Node7 -->
<g id="edge6" class="edge"><title>Node2&#45;&gt;Node7</title>
<path fill="none" stroke="midnightblue" d="M854.518,-248.125C852.977,-219.769 848.148,-130.93 846.022,-91.8108"/>
<polygon fill="midnightblue" stroke="midnightblue" points="849.515,-91.5809 845.477,-81.7857 842.525,-91.9609 849.515,-91.5809"/>
</g>
<!-- Node8 -->
<g id="node8" class="node"><title>Node8</title>
<polygon fill="none" stroke="#bfbfbf" points="53,-0.5 53,-19.5 157,-19.5 157,-0.5 53,-0.5"/>
<text text-anchor="middle" x="105" y="-7.5" font-family="Helvetica,sans-Serif" font-size="10.00">eigen3/Eigen/Dense</text>
</g>
<!-- Node2&#45;&gt;Node8 -->
<g id="edge7" class="edge"><title>Node2&#45;&gt;Node8</title>
<path fill="none" stroke="midnightblue" d="M776.441,-257.265C603.233,-256.016 197.052,-242.414 111,-144 83.1968,-112.203 92.0301,-58.0296 99.3624,-29.6289"/>
<polygon fill="midnightblue" stroke="midnightblue" points="102.79,-30.3671 102.114,-19.7939 96.0491,-28.4811 102.79,-30.3671"/>
</g>
<!-- Node9 -->
<g id="node9" class="node"><title>Node9</title>
<g id="a_node9"><a xlink:href="Joint_8h.html" target="_top" xlink:title="XBotInterface/Joint.h">
<polygon fill="none" stroke="black" points="614.5,-186.5 614.5,-205.5 723.5,-205.5 723.5,-186.5 614.5,-186.5"/>
<text text-anchor="middle" x="669" y="-193.5" font-family="Helvetica,sans-Serif" font-size="10.00">XBotInterface/Joint.h</text>
</a>
</g>
</g>
<!-- Node2&#45;&gt;Node9 -->
<g id="edge8" class="edge"><title>Node2&#45;&gt;Node9</title>
<path fill="none" stroke="midnightblue" d="M828.351,-248.403C796.031,-237.978 741.403,-220.356 705.267,-208.699"/>
<polygon fill="midnightblue" stroke="midnightblue" points="706.191,-205.32 695.6,-205.581 704.042,-211.982 706.191,-205.32"/>
</g>
<!-- Node21 -->
<g id="node21" class="node"><title>Node21</title>
<polygon fill="none" stroke="#bfbfbf" points="1092,-186.5 1092,-205.5 1186,-205.5 1186,-186.5 1092,-186.5"/>
<text text-anchor="middle" x="1139" y="-193.5" font-family="Helvetica,sans-Serif" font-size="10.00">XBotCoreModel.h</text>
</g>
<!-- Node2&#45;&gt;Node21 -->
<g id="edge31" class="edge"><title>Node2&#45;&gt;Node21</title>
<path fill="none" stroke="midnightblue" d="M903.238,-248.447C949.524,-240.013 1021.3,-226.336 1083,-212 1088.08,-210.82 1093.39,-209.504 1098.64,-208.154"/>
<polygon fill="midnightblue" stroke="midnightblue" points="1099.79,-211.471 1108.58,-205.546 1098.01,-204.701 1099.79,-211.471"/>
</g>
<!-- Node22 -->
<g id="node22" class="node"><title>Node22</title>
<g id="a_node22"><a xlink:href="ForceTorqueSensor_8h.html" target="_top" xlink:title="XBotInterface/ForceTorque\lSensor.h">
<polygon fill="none" stroke="black" points="940,-181 940,-211 1074,-211 1074,-181 940,-181"/>
<text text-anchor="start" x="948" y="-199" font-family="Helvetica,sans-Serif" font-size="10.00">XBotInterface/ForceTorque</text>
<text text-anchor="middle" x="1007" y="-188" font-family="Helvetica,sans-Serif" font-size="10.00">Sensor.h</text>
</a>
</g>
</g>
<!-- Node2&#45;&gt;Node22 -->
<g id="edge32" class="edge"><title>Node2&#45;&gt;Node22</title>
<path fill="none" stroke="midnightblue" d="M876.778,-248.403C898.881,-239.679 933.75,-225.914 961.846,-214.824"/>
<polygon fill="midnightblue" stroke="midnightblue" points="963.453,-217.953 971.469,-211.025 960.883,-211.441 963.453,-217.953"/>
</g>
<!-- Node27 -->
<g id="node27" class="node"><title>Node27</title>
<g id="a_node27"><a xlink:href="ImuSensor_8h.html" target="_top" xlink:title="XBotInterface/ImuSensor.h">
<polygon fill="none" stroke="black" points="1204.5,-186.5 1204.5,-205.5 1339.5,-205.5 1339.5,-186.5 1204.5,-186.5"/>
<text text-anchor="middle" x="1272" y="-193.5" font-family="Helvetica,sans-Serif" font-size="10.00">XBotInterface/ImuSensor.h</text>
</a>
</g>
</g>
<!-- Node2&#45;&gt;Node27 -->
<g id="edge47" class="edge"><title>Node2&#45;&gt;Node27</title>
<path fill="none" stroke="midnightblue" d="M929.476,-248.464C998.489,-240.242 1103.92,-226.885 1195,-212 1203.31,-210.642 1212.09,-209.066 1220.64,-207.455"/>
<polygon fill="midnightblue" stroke="midnightblue" points="1221.36,-210.881 1230.52,-205.56 1220.04,-204.006 1221.36,-210.881"/>
</g>
<!-- Node9&#45;&gt;Node3 -->
<g id="edge9" class="edge"><title>Node9&#45;&gt;Node3</title>
<path fill="none" stroke="midnightblue" d="M614.137,-192.769C490.117,-185.889 205.957,-158.743 299,-56 327.347,-24.6972 624.136,-14.296 721.356,-11.715"/>
<polygon fill="midnightblue" stroke="midnightblue" points="721.516,-15.2121 731.423,-11.457 721.337,-8.2144 721.516,-15.2121"/>
</g>
<!-- Node9&#45;&gt;Node6 -->
<g id="edge10" class="edge"><title>Node9&#45;&gt;Node6</title>
<path fill="none" stroke="midnightblue" d="M674.711,-186.277C691.695,-161.14 744.73,-88.2919 809,-56 854.508,-33.1348 1002.81,-19.0786 1071.93,-13.6139"/>
<polygon fill="midnightblue" stroke="midnightblue" points="1072.22,-17.1017 1081.92,-12.8403 1071.68,-10.1226 1072.22,-17.1017"/>
</g>
<!-- Node9&#45;&gt;Node7 -->
<g id="edge11" class="edge"><title>Node9&#45;&gt;Node7</title>
<path fill="none" stroke="midnightblue" d="M681.376,-186.421C711.094,-165.821 786.763,-113.369 823.855,-87.6575"/>
<polygon fill="midnightblue" stroke="midnightblue" points="826.177,-90.3061 832.402,-81.7326 822.19,-84.5531 826.177,-90.3061"/>
</g>
<!-- Node10 -->
<g id="node10" class="node"><title>Node10</title>
<polygon fill="none" stroke="#bfbfbf" points="966.5,-62.5 966.5,-81.5 1079.5,-81.5 1079.5,-62.5 966.5,-62.5"/>
<text text-anchor="middle" x="1023" y="-69.5" font-family="Helvetica,sans-Serif" font-size="10.00">srdfdom_advr/model.h</text>
</g>
<!-- Node9&#45;&gt;Node10 -->
<g id="edge12" class="edge"><title>Node9&#45;&gt;Node10</title>
<path fill="none" stroke="midnightblue" d="M693.893,-186.421C755.843,-165.071 917.07,-109.507 988.301,-84.9584"/>
<polygon fill="midnightblue" stroke="midnightblue" points="989.821,-88.1367 998.135,-81.5693 987.54,-81.5186 989.821,-88.1367"/>
</g>
<!-- Node11 -->
<g id="node11" class="node"><title>Node11</title>
<g id="a_node11"><a xlink:href="SyncFlags_8h.html" target="_top" xlink:title="XBotInterface/SyncFlags.h">
<polygon fill="none" stroke="black" points="120,-124.5 120,-143.5 254,-143.5 254,-124.5 120,-124.5"/>
<text text-anchor="middle" x="187" y="-131.5" font-family="Helvetica,sans-Serif" font-size="10.00">XBotInterface/SyncFlags.h</text>
</a>
</g>
</g>
<!-- Node9&#45;&gt;Node11 -->
<g id="edge13" class="edge"><title>Node9&#45;&gt;Node11</title>
<path fill="none" stroke="midnightblue" d="M614.178,-188.176C528.387,-177.496 362.116,-156.799 264.235,-144.614"/>
<polygon fill="midnightblue" stroke="midnightblue" points="264.463,-141.116 254.107,-143.354 263.598,-148.062 264.463,-141.116"/>
</g>
<!-- Node15 -->
<g id="node15" class="node"><title>Node15</title>
<g id="a_node15"><a xlink:href="table__printer_8h.html" target="_top" xlink:title="bprinter/table_printer.h">
<polygon fill="none" stroke="black" points="419.5,-124.5 419.5,-143.5 532.5,-143.5 532.5,-124.5 419.5,-124.5"/>
<text text-anchor="middle" x="476" y="-131.5" font-family="Helvetica,sans-Serif" font-size="10.00">bprinter/table_printer.h</text>
</a>
</g>
</g>
<!-- Node9&#45;&gt;Node15 -->
<g id="edge21" class="edge"><title>Node9&#45;&gt;Node15</title>
<path fill="none" stroke="midnightblue" d="M641.348,-186.403C607.668,-175.933 550.643,-158.205 513.153,-146.55"/>
<polygon fill="midnightblue" stroke="midnightblue" points="514.189,-143.207 503.601,-143.581 512.111,-149.892 514.189,-143.207"/>
</g>
<!-- Node20 -->
<g id="node20" class="node"><title>Node20</title>
<g id="a_node20"><a xlink:href="ControlMode_8h.html" target="_top" xlink:title="XBotInterface/ControlMode.h">
<polygon fill="none" stroke="black" points="550.5,-124.5 550.5,-143.5 693.5,-143.5 693.5,-124.5 550.5,-124.5"/>
<text text-anchor="middle" x="622" y="-131.5" font-family="Helvetica,sans-Serif" font-size="10.00">XBotInterface/ControlMode.h</text>
</a>
</g>
</g>
<!-- Node9&#45;&gt;Node20 -->
<g id="edge29" class="edge"><title>Node9&#45;&gt;Node20</title>
<path fill="none" stroke="midnightblue" d="M662.266,-186.403C655.216,-177.403 643.965,-163.041 635.146,-151.782"/>
<polygon fill="midnightblue" stroke="midnightblue" points="637.643,-149.295 628.721,-143.581 632.133,-153.611 637.643,-149.295"/>
</g>
<!-- Node12 -->
<g id="node12" class="node"><title>Node12</title>
<g id="a_node12"><a xlink:href="TypedefAndEnums_8h.html" target="_top" xlink:title="XBotInterface/TypedefAnd\lEnums.h">
<polygon fill="none" stroke="black" points="120,-57 120,-87 252,-87 252,-57 120,-57"/>
<text text-anchor="start" x="128" y="-75" font-family="Helvetica,sans-Serif" font-size="10.00">XBotInterface/TypedefAnd</text>
<text text-anchor="middle" x="186" y="-64" font-family="Helvetica,sans-Serif" font-size="10.00">Enums.h</text>
</a>
</g>
</g>
<!-- Node11&#45;&gt;Node12 -->
<g id="edge14" class="edge"><title>Node11&#45;&gt;Node12</title>
<path fill="none" stroke="midnightblue" d="M186.857,-124.403C186.739,-117.341 186.566,-106.975 186.407,-97.399"/>
<polygon fill="midnightblue" stroke="midnightblue" points="189.902,-97.0811 186.236,-87.1408 182.903,-97.1978 189.902,-97.0811"/>
</g>
<!-- Node12&#45;&gt;Node3 -->
<g id="edge17" class="edge"><title>Node12&#45;&gt;Node3</title>
<path fill="none" stroke="midnightblue" d="M252.276,-58.0819C256.913,-57.3295 261.522,-56.6258 266,-56 437.122,-32.0879 643.98,-17.7187 721.077,-12.8611"/>
<polygon fill="midnightblue" stroke="midnightblue" points="721.314,-16.3532 731.078,-12.2388 720.88,-9.36675 721.314,-16.3532"/>
</g>
<!-- Node12&#45;&gt;Node5 -->
<g id="edge15" class="edge"><title>Node12&#45;&gt;Node5</title>
<path fill="none" stroke="midnightblue" d="M146.377,-56.9327C114.923,-45.7654 71.7811,-30.4489 44.1435,-20.6368"/>
<polygon fill="midnightblue" stroke="midnightblue" points="45.3078,-17.3361 34.7131,-17.2887 42.9658,-23.9327 45.3078,-17.3361"/>
</g>
<!-- Node12&#45;&gt;Node6 -->
<g id="edge18" class="edge"><title>Node12&#45;&gt;Node6</title>
<path fill="none" stroke="midnightblue" d="M252.228,-61.3475C267.561,-59.3523 283.829,-57.4268 299,-56 596.465,-28.0248 957.22,-15.4939 1071.48,-12.0369"/>
<polygon fill="midnightblue" stroke="midnightblue" points="1071.86,-15.5271 1081.75,-11.7305 1071.65,-8.53018 1071.86,-15.5271"/>
</g>
<!-- Node12&#45;&gt;Node8 -->
<g id="edge20" class="edge"><title>Node12&#45;&gt;Node8</title>
<path fill="none" stroke="midnightblue" d="M166.804,-56.7808C154.184,-47.4329 137.707,-35.2273 124.939,-25.77"/>
<polygon fill="midnightblue" stroke="midnightblue" points="126.905,-22.8704 116.786,-19.7305 122.738,-28.4953 126.905,-22.8704"/>
</g>
<!-- Node13 -->
<g id="node13" class="node"><title>Node13</title>
<polygon fill="none" stroke="#bfbfbf" points="175.5,-0.5 175.5,-19.5 258.5,-19.5 258.5,-0.5 175.5,-0.5"/>
<text text-anchor="middle" x="217" y="-7.5" font-family="Helvetica,sans-Serif" font-size="10.00">unordered_map</text>
</g>
<!-- Node12&#45;&gt;Node13 -->
<g id="edge16" class="edge"><title>Node12&#45;&gt;Node13</title>
<path fill="none" stroke="midnightblue" d="M193.347,-56.7808C197.665,-48.4217 203.165,-37.7773 207.774,-28.8565"/>
<polygon fill="midnightblue" stroke="midnightblue" points="211.008,-30.2214 212.489,-19.7305 204.789,-27.0082 211.008,-30.2214"/>
</g>
<!-- Node14 -->
<g id="node14" class="node"><title>Node14</title>
<polygon fill="none" stroke="#bfbfbf" points="277,-0.5 277,-19.5 355,-19.5 355,-0.5 277,-0.5"/>
<text text-anchor="middle" x="316" y="-7.5" font-family="Helvetica,sans-Serif" font-size="10.00">boost/any.hpp</text>
</g>
<!-- Node12&#45;&gt;Node14 -->
<g id="edge19" class="edge"><title>Node12&#45;&gt;Node14</title>
<path fill="none" stroke="midnightblue" d="M216.479,-56.9327C238.118,-46.9455 266.947,-33.6397 288.006,-23.9205"/>
<polygon fill="midnightblue" stroke="midnightblue" points="289.754,-26.9685 297.367,-19.6 286.82,-20.6128 289.754,-26.9685"/>
</g>
<!-- Node15&#45;&gt;Node3 -->
<g id="edge25" class="edge"><title>Node15&#45;&gt;Node3</title>
<path fill="none" stroke="midnightblue" d="M526.737,-124.47C586.649,-114.097 679.98,-96.8758 694,-88 716.802,-73.5646 733.89,-46.7645 743.416,-28.9036"/>
<polygon fill="midnightblue" stroke="midnightblue" points="746.627,-30.3103 748.028,-19.8085 740.384,-27.1445 746.627,-30.3103"/>
</g>
<!-- Node15&#45;&gt;Node4 -->
<g id="edge24" class="edge"><title>Node15&#45;&gt;Node4</title>
<path fill="none" stroke="midnightblue" d="M452.435,-124.391C429.035,-115.699 392.239,-101.645 361,-88 359.596,-87.3867 358.162,-86.7459 356.719,-86.0893"/>
<polygon fill="midnightblue" stroke="midnightblue" points="357.808,-82.7339 347.269,-81.6491 354.832,-89.0694 357.808,-82.7339"/>
</g>
<!-- Node15&#45;&gt;Node7 -->
<g id="edge22" class="edge"><title>Node15&#45;&gt;Node7</title>
<path fill="none" stroke="midnightblue" d="M528.477,-124.467C604.025,-112.183 741.591,-89.8145 807.646,-79.0738"/>
<polygon fill="midnightblue" stroke="midnightblue" points="808.305,-82.5127 817.613,-77.4531 807.181,-75.6035 808.305,-82.5127"/>
</g>
<!-- Node16 -->
<g id="node16" class="node"><title>Node16</title>
<polygon fill="none" stroke="#bfbfbf" points="370,-62.5 370,-81.5 420,-81.5 420,-62.5 370,-62.5"/>
<text text-anchor="middle" x="395" y="-69.5" font-family="Helvetica,sans-Serif" font-size="10.00">iomanip</text>
</g>
<!-- Node15&#45;&gt;Node16 -->
<g id="edge23" class="edge"><title>Node15&#45;&gt;Node16</title>
<path fill="none" stroke="midnightblue" d="M464.395,-124.403C451.523,-114.869 430.526,-99.3154 414.994,-87.8106"/>
<polygon fill="midnightblue" stroke="midnightblue" points="416.703,-84.7204 406.584,-81.5806 412.536,-90.3454 416.703,-84.7204"/>
</g>
<!-- Node17 -->
<g id="node17" class="node"><title>Node17</title>
<polygon fill="none" stroke="#bfbfbf" points="438,-62.5 438,-81.5 490,-81.5 490,-62.5 438,-62.5"/>
<text text-anchor="middle" x="464" y="-69.5" font-family="Helvetica,sans-Serif" font-size="10.00">sstream</text>
</g>
<!-- Node15&#45;&gt;Node17 -->
<g id="edge26" class="edge"><title>Node15&#45;&gt;Node17</title>
<path fill="none" stroke="midnightblue" d="M474.281,-124.403C472.57,-115.849 469.89,-102.45 467.695,-91.4762"/>
<polygon fill="midnightblue" stroke="midnightblue" points="471.109,-90.7 465.716,-81.5806 464.245,-92.0728 471.109,-90.7"/>
</g>
<!-- Node18 -->
<g id="node18" class="node"><title>Node18</title>
<polygon fill="none" stroke="#bfbfbf" points="508,-62.5 508,-81.5 552,-81.5 552,-62.5 508,-62.5"/>
<text text-anchor="middle" x="530" y="-69.5" font-family="Helvetica,sans-Serif" font-size="10.00">cmath</text>
</g>
<!-- Node15&#45;&gt;Node18 -->
<g id="edge27" class="edge"><title>Node15&#45;&gt;Node18</title>
<path fill="none" stroke="midnightblue" d="M483.737,-124.403C491.997,-115.225 505.277,-100.47 515.494,-89.1173"/>
<polygon fill="midnightblue" stroke="midnightblue" points="518.189,-91.3549 522.277,-81.5806 512.986,-86.6722 518.189,-91.3549"/>
</g>
<!-- Node19 -->
<g id="node19" class="node"><title>Node19</title>
<g id="a_node19"><a xlink:href="table__printer_8tpp_8h.html" target="_top" xlink:title="impl/table_printer.tpp.h">
<polygon fill="none" stroke="black" points="570,-62.5 570,-81.5 686,-81.5 686,-62.5 570,-62.5"/>
<text text-anchor="middle" x="628" y="-69.5" font-family="Helvetica,sans-Serif" font-size="10.00">impl/table_printer.tpp.h</text>
</a>
</g>
</g>
<!-- Node15&#45;&gt;Node19 -->
<g id="edge28" class="edge"><title>Node15&#45;&gt;Node19</title>
<path fill="none" stroke="midnightblue" d="M497.778,-124.403C523.738,-114.156 567.311,-96.9561 596.835,-85.3021"/>
<polygon fill="midnightblue" stroke="midnightblue" points="598.246,-88.5079 606.263,-81.5806 595.676,-81.9968 598.246,-88.5079"/>
</g>
<!-- Node20&#45;&gt;Node3 -->
<g id="edge30" class="edge"><title>Node20&#45;&gt;Node3</title>
<path fill="none" stroke="midnightblue" d="M662.902,-124.498C684.945,-117.956 711.027,-106.749 728,-88 742.507,-71.9751 748.245,-47.2767 750.515,-30.1928"/>
<polygon fill="midnightblue" stroke="midnightblue" points="754.044,-30.0905 751.597,-19.7822 747.082,-29.3667 754.044,-30.0905"/>
</g>
<!-- Node22&#45;&gt;Node3 -->
<g id="edge33" class="edge"><title>Node22&#45;&gt;Node3</title>
<path fill="none" stroke="midnightblue" d="M1001.49,-180.736C989.825,-152.46 959.881,-89.1751 914,-56 874.45,-27.4023 817.456,-16.9646 782.676,-13.1644"/>
<polygon fill="midnightblue" stroke="midnightblue" points="782.932,-9.6728 772.639,-12.1853 782.252,-16.6397 782.932,-9.6728"/>
</g>
<!-- Node22&#45;&gt;Node6 -->
<g id="edge34" class="edge"><title>Node22&#45;&gt;Node6</title>
<path fill="none" stroke="midnightblue" d="M1043.37,-180.961C1059.92,-172.697 1078.19,-160.568 1089,-144 1111.98,-108.79 1112.02,-57.2269 1110.03,-29.7949"/>
<polygon fill="midnightblue" stroke="midnightblue" points="1113.5,-29.2795 1109.11,-19.6337 1106.52,-29.9073 1113.5,-29.2795"/>
</g>
<!-- Node22&#45;&gt;Node7 -->
<g id="edge35" class="edge"><title>Node22&#45;&gt;Node7</title>
<path fill="none" stroke="midnightblue" d="M986.954,-180.92C972.647,-170.794 953.008,-156.736 936,-144 910.775,-125.111 882.2,-102.635 863.911,-88.1081"/>
<polygon fill="midnightblue" stroke="midnightblue" points="865.822,-85.1558 855.818,-81.6655 861.462,-90.6322 865.822,-85.1558"/>
</g>
<!-- Node22&#45;&gt;Node10 -->
<g id="edge39" class="edge"><title>Node22&#45;&gt;Node10</title>
<path fill="none" stroke="midnightblue" d="M1005.74,-180.76C1004.76,-166.355 1004.01,-143.495 1007,-124 1008.69,-112.937 1012.34,-100.978 1015.73,-91.4229"/>
<polygon fill="midnightblue" stroke="midnightblue" points="1019.09,-92.4246 1019.32,-81.8323 1012.54,-89.9689 1019.09,-92.4246"/>
</g>
<!-- Node23 -->
<g id="node23" class="node"><title>Node23</title>
<polygon fill="none" stroke="#bfbfbf" points="1016,-124.5 1016,-143.5 1080,-143.5 1080,-124.5 1016,-124.5"/>
<text text-anchor="middle" x="1048" y="-131.5" font-family="Helvetica,sans-Serif" font-size="10.00">kdl/kdl.hpp</text>
</g>
<!-- Node22&#45;&gt;Node23 -->
<g id="edge36" class="edge"><title>Node22&#45;&gt;Node23</title>
<path fill="none" stroke="midnightblue" d="M1016.72,-180.781C1022.61,-172.152 1030.17,-161.088 1036.38,-151.999"/>
<polygon fill="midnightblue" stroke="midnightblue" points="1039.28,-153.962 1042.03,-143.731 1033.5,-150.012 1039.28,-153.962"/>
</g>
<!-- Node24 -->
<g id="node24" class="node"><title>Node24</title>
<polygon fill="none" stroke="#bfbfbf" points="1136,-57 1136,-87 1260,-87 1260,-57 1136,-57"/>
<text text-anchor="start" x="1144" y="-75" font-family="Helvetica,sans-Serif" font-size="10.00">eigen_conversions/eigen</text>
<text text-anchor="middle" x="1198" y="-64" font-family="Helvetica,sans-Serif" font-size="10.00">_kdl.h</text>
</g>
<!-- Node22&#45;&gt;Node24 -->
<g id="edge37" class="edge"><title>Node22&#45;&gt;Node24</title>
<path fill="none" stroke="midnightblue" d="M1047.28,-180.963C1070.16,-172.074 1098.77,-159.363 1122,-144 1143.29,-129.918 1164.24,-109.739 1178.73,-94.4906"/>
<polygon fill="midnightblue" stroke="midnightblue" points="1181.44,-96.7258 1185.69,-87.0243 1176.32,-91.953 1181.44,-96.7258"/>
</g>
<!-- Node25 -->
<g id="node25" class="node"><title>Node25</title>
<polygon fill="none" stroke="#bfbfbf" points="1354.5,-62.5 1354.5,-81.5 1441.5,-81.5 1441.5,-62.5 1354.5,-62.5"/>
<text text-anchor="middle" x="1398" y="-69.5" font-family="Helvetica,sans-Serif" font-size="10.00">Eigen/Geometry</text>
</g>
<!-- Node22&#45;&gt;Node25 -->
<g id="edge38" class="edge"><title>Node22&#45;&gt;Node25</title>
<path fill="none" stroke="midnightblue" d="M1074.1,-181.552C1077.11,-181.014 1080.08,-180.494 1083,-180 1195.42,-160.954 1236.99,-198.753 1337,-144 1359.64,-131.605 1377.67,-107.261 1388.09,-90.5654"/>
<polygon fill="midnightblue" stroke="midnightblue" points="1391.22,-92.1508 1393.33,-81.7676 1385.21,-88.5708 1391.22,-92.1508"/>
</g>
<!-- Node26 -->
<g id="node26" class="node"><title>Node26</title>
<g id="a_node26"><a xlink:href="GenericSensor_8h.html" target="_top" xlink:title="XBotInterface/GenericSensor.h">
<polygon fill="none" stroke="black" points="1176,-124.5 1176,-143.5 1328,-143.5 1328,-124.5 1176,-124.5"/>
<text text-anchor="middle" x="1252" y="-131.5" font-family="Helvetica,sans-Serif" font-size="10.00">XBotInterface/GenericSensor.h</text>
</a>
</g>
</g>
<!-- Node22&#45;&gt;Node26 -->
<g id="edge40" class="edge"><title>Node22&#45;&gt;Node26</title>
<path fill="none" stroke="midnightblue" d="M1064.44,-180.933C1108.12,-170.236 1167.35,-155.732 1207.47,-145.905"/>
<polygon fill="midnightblue" stroke="midnightblue" points="1208.36,-149.291 1217.24,-143.513 1206.69,-142.492 1208.36,-149.291"/>
</g>
<!-- Node26&#45;&gt;Node3 -->
<g id="edge41" class="edge"><title>Node26&#45;&gt;Node3</title>
<path fill="none" stroke="midnightblue" d="M1257.98,-124.347C1268.04,-108.625 1285.62,-75.2246 1268,-56 1235.1,-20.1102 888.601,-12.7389 782.622,-11.3196"/>
<polygon fill="midnightblue" stroke="midnightblue" points="782.62,-7.81937 772.577,-11.1935 782.532,-14.8188 782.62,-7.81937"/>
</g>
<!-- Node26&#45;&gt;Node6 -->
<g id="edge42" class="edge"><title>Node26&#45;&gt;Node6</title>
<path fill="none" stroke="midnightblue" d="M1266.95,-124.474C1278.93,-116.702 1294.87,-104.002 1302,-88 1307.79,-75.008 1310.85,-67.135 1302,-56 1282.67,-31.6757 1194.87,-19.3262 1144.26,-14.1263"/>
<polygon fill="midnightblue" stroke="midnightblue" points="1144.36,-10.6191 1134.07,-13.1234 1143.68,-17.5855 1144.36,-10.6191"/>
</g>
<!-- Node26&#45;&gt;Node7 -->
<g id="edge43" class="edge"><title>Node26&#45;&gt;Node7</title>
<path fill="none" stroke="midnightblue" d="M1194.12,-124.467C1109.37,-111.973 953.852,-89.047 882.535,-78.5334"/>
<polygon fill="midnightblue" stroke="midnightblue" points="882.642,-75.0114 872.238,-77.0155 881.621,-81.9366 882.642,-75.0114"/>
</g>
<!-- Node26&#45;&gt;Node10 -->
<g id="edge46" class="edge"><title>Node26&#45;&gt;Node10</title>
<path fill="none" stroke="midnightblue" d="M1219.19,-124.403C1178.8,-113.822 1110.12,-95.8269 1065.67,-84.1802"/>
<polygon fill="midnightblue" stroke="midnightblue" points="1066.31,-80.7295 1055.75,-81.5806 1064.54,-87.5009 1066.31,-80.7295"/>
</g>
<!-- Node26&#45;&gt;Node24 -->
<g id="edge45" class="edge"><title>Node26&#45;&gt;Node24</title>
<path fill="none" stroke="midnightblue" d="M1244.26,-124.403C1237.29,-116.657 1226.74,-104.938 1217.48,-94.6447"/>
<polygon fill="midnightblue" stroke="midnightblue" points="1220.02,-92.2324 1210.73,-87.1408 1214.81,-96.9152 1220.02,-92.2324"/>
</g>
<!-- Node26&#45;&gt;Node25 -->
<g id="edge44" class="edge"><title>Node26&#45;&gt;Node25</title>
<path fill="none" stroke="midnightblue" d="M1272.92,-124.403C1297.75,-114.2 1339.34,-97.1055 1367.69,-85.4544"/>
<polygon fill="midnightblue" stroke="midnightblue" points="1369.2,-88.6191 1377.12,-81.5806 1366.54,-82.1445 1369.2,-88.6191"/>
</g>
<!-- Node27&#45;&gt;Node25 -->
<g id="edge49" class="edge"><title>Node27&#45;&gt;Node25</title>
<path fill="none" stroke="midnightblue" d="M1301.16,-186.341C1323.04,-178.49 1352.32,-164.905 1371,-144 1384.15,-129.282 1391.15,-107.504 1394.7,-91.9531"/>
<polygon fill="midnightblue" stroke="midnightblue" points="1398.18,-92.4128 1396.71,-81.9198 1391.32,-91.0367 1398.18,-92.4128"/>
</g>
<!-- Node27&#45;&gt;Node26 -->
<g id="edge48" class="edge"><title>Node27&#45;&gt;Node26</title>
<path fill="none" stroke="midnightblue" d="M1269.13,-186.403C1266.25,-177.76 1261.72,-164.17 1258.04,-153.134"/>
<polygon fill="midnightblue" stroke="midnightblue" points="1261.34,-151.961 1254.86,-143.581 1254.7,-154.174 1261.34,-151.961"/>
</g>
</g>
</svg>
