<?xml version="1.0" encoding="UTF-8" standalone="no"?>
<!DOCTYPE svg PUBLIC "-//W3C//DTD SVG 1.1//EN"
 "http://www.w3.org/Graphics/SVG/1.1/DTD/svg11.dtd">
<!-- Generated by graphviz version 2.38.0 (20140413.2041)
 -->
<!-- Title: /home/lucamuratore/advr&#45;superbuild/external/XBotInterface/include/XBotInterface/ModelChain.h Pages: 1 -->
<svg width="766pt" height="328pt"
 viewBox="0.00 0.00 766.00 328.00" xmlns="http://www.w3.org/2000/svg" xmlns:xlink="http://www.w3.org/1999/xlink">
<g id="graph0" class="graph" transform="scale(1 1) rotate(0) translate(4 324)">
<title>/home/lucamuratore/advr&#45;superbuild/external/XBotInterface/include/XBotInterface/ModelChain.h</title>
<!-- Node1 -->
<g id="node1" class="node"><title>Node1</title>
<polygon fill="#bfbfbf" stroke="black" points="394,-267.5 394,-319.5 570,-319.5 570,-267.5 394,-267.5"/>
<text text-anchor="start" x="402" y="-307.5" font-family="Helvetica,sans-Serif" font-size="10.00">/home/lucamuratore</text>
<text text-anchor="start" x="402" y="-296.5" font-family="Helvetica,sans-Serif" font-size="10.00">/advr&#45;superbuild/external</text>
<text text-anchor="start" x="402" y="-285.5" font-family="Helvetica,sans-Serif" font-size="10.00">/XBotInterface/include/XBotInterface</text>
<text text-anchor="middle" x="482" y="-274.5" font-family="Helvetica,sans-Serif" font-size="10.00">/ModelChain.h</text>
</g>
<!-- Node2 -->
<g id="node2" class="node"><title>Node2</title>
<g id="a_node2"><a xlink:href="ModelInterface_8h.html" target="_top" xlink:title="/home/lucamuratore\l/advr&#45;superbuild/external\l/XBotInterface/include/XBotInterface\l/ModelInterface.h">
<polygon fill="none" stroke="black" points="198,-178.5 198,-230.5 374,-230.5 374,-178.5 198,-178.5"/>
<text text-anchor="start" x="206" y="-218.5" font-family="Helvetica,sans-Serif" font-size="10.00">/home/lucamuratore</text>
<text text-anchor="start" x="206" y="-207.5" font-family="Helvetica,sans-Serif" font-size="10.00">/advr&#45;superbuild/external</text>
<text text-anchor="start" x="206" y="-196.5" font-family="Helvetica,sans-Serif" font-size="10.00">/XBotInterface/include/XBotInterface</text>
<text text-anchor="middle" x="286" y="-185.5" font-family="Helvetica,sans-Serif" font-size="10.00">/ModelInterface.h</text>
</a>
</g>
</g>
<!-- Node1&#45;&gt;Node2 -->
<g id="edge1" class="edge"><title>Node1&#45;&gt;Node2</title>
<path fill="none" stroke="midnightblue" d="M416.204,-263.295C392.258,-252.665 365.425,-240.755 342.369,-230.521"/>
<polygon fill="midnightblue" stroke="midnightblue" points="415.012,-266.595 425.572,-267.453 417.852,-260.197 415.012,-266.595"/>
</g>
<!-- Node9 -->
<g id="node9" class="node"><title>Node9</title>
<g id="a_node9"><a xlink:href="RobotChain_8h.html" target="_top" xlink:title="/home/lucamuratore\l/advr&#45;superbuild/external\l/XBotInterface/include/XBotInterface\l/RobotChain.h">
<polygon fill="none" stroke="black" points="394,-178.5 394,-230.5 570,-230.5 570,-178.5 394,-178.5"/>
<text text-anchor="start" x="402" y="-218.5" font-family="Helvetica,sans-Serif" font-size="10.00">/home/lucamuratore</text>
<text text-anchor="start" x="402" y="-207.5" font-family="Helvetica,sans-Serif" font-size="10.00">/advr&#45;superbuild/external</text>
<text text-anchor="start" x="402" y="-196.5" font-family="Helvetica,sans-Serif" font-size="10.00">/XBotInterface/include/XBotInterface</text>
<text text-anchor="middle" x="482" y="-185.5" font-family="Helvetica,sans-Serif" font-size="10.00">/RobotChain.h</text>
</a>
</g>
</g>
<!-- Node1&#45;&gt;Node9 -->
<g id="edge8" class="edge"><title>Node1&#45;&gt;Node9</title>
<path fill="none" stroke="midnightblue" d="M482,-257.191C482,-248.282 482,-238.899 482,-230.607"/>
<polygon fill="midnightblue" stroke="midnightblue" points="478.5,-257.336 482,-267.336 485.5,-257.336 478.5,-257.336"/>
</g>
<!-- Node11 -->
<g id="node11" class="node"><title>Node11</title>
<g id="a_node11"><a xlink:href="ModelChain_8cpp.html" target="_top" xlink:title="/home/lucamuratore\l/advr&#45;superbuild/external\l/XBotInterface/src/ModelChain.cpp">
<polygon fill="none" stroke="black" points="588,-184 588,-225 758,-225 758,-184 588,-184"/>
<text text-anchor="start" x="596" y="-213" font-family="Helvetica,sans-Serif" font-size="10.00">/home/lucamuratore</text>
<text text-anchor="start" x="596" y="-202" font-family="Helvetica,sans-Serif" font-size="10.00">/advr&#45;superbuild/external</text>
<text text-anchor="middle" x="673" y="-191" font-family="Helvetica,sans-Serif" font-size="10.00">/XBotInterface/src/ModelChain.cpp</text>
</a>
</g>
</g>
<!-- Node1&#45;&gt;Node11 -->
<g id="edge11" class="edge"><title>Node1&#45;&gt;Node11</title>
<path fill="none" stroke="midnightblue" d="M546.169,-263.271C573.726,-250.719 605.197,-236.384 629.896,-225.134"/>
<polygon fill="midnightblue" stroke="midnightblue" points="544.638,-260.122 536.989,-267.453 547.54,-266.493 544.638,-260.122"/>
</g>
<!-- Node3 -->
<g id="node3" class="node"><title>Node3</title>
<g id="a_node3"><a xlink:href="RobotInterface_8h.html" target="_top" xlink:title="/home/lucamuratore\l/advr&#45;superbuild/external\l/XBotInterface/include/XBotInterface\l/RobotInterface.h">
<polygon fill="none" stroke="black" points="394,-89.5 394,-141.5 570,-141.5 570,-89.5 394,-89.5"/>
<text text-anchor="start" x="402" y="-129.5" font-family="Helvetica,sans-Serif" font-size="10.00">/home/lucamuratore</text>
<text text-anchor="start" x="402" y="-118.5" font-family="Helvetica,sans-Serif" font-size="10.00">/advr&#45;superbuild/external</text>
<text text-anchor="start" x="402" y="-107.5" font-family="Helvetica,sans-Serif" font-size="10.00">/XBotInterface/include/XBotInterface</text>
<text text-anchor="middle" x="482" y="-96.5" font-family="Helvetica,sans-Serif" font-size="10.00">/RobotInterface.h</text>
</a>
</g>
</g>
<!-- Node2&#45;&gt;Node3 -->
<g id="edge2" class="edge"><title>Node2&#45;&gt;Node3</title>
<path fill="none" stroke="midnightblue" d="M351.796,-174.295C375.742,-163.665 402.575,-151.755 425.631,-141.521"/>
<polygon fill="midnightblue" stroke="midnightblue" points="350.148,-171.197 342.428,-178.453 352.988,-177.595 350.148,-171.197"/>
</g>
<!-- Node7 -->
<g id="node7" class="node"><title>Node7</title>
<g id="a_node7"><a xlink:href="Utils_8h.html" target="_top" xlink:title="/home/lucamuratore\l/advr&#45;superbuild/external\l/XBotInterface/include/XBotInterface\l/Utils.h">
<polygon fill="none" stroke="black" points="0,-89.5 0,-141.5 176,-141.5 176,-89.5 0,-89.5"/>
<text text-anchor="start" x="8" y="-129.5" font-family="Helvetica,sans-Serif" font-size="10.00">/home/lucamuratore</text>
<text text-anchor="start" x="8" y="-118.5" font-family="Helvetica,sans-Serif" font-size="10.00">/advr&#45;superbuild/external</text>
<text text-anchor="start" x="8" y="-107.5" font-family="Helvetica,sans-Serif" font-size="10.00">/XBotInterface/include/XBotInterface</text>
<text text-anchor="middle" x="88" y="-96.5" font-family="Helvetica,sans-Serif" font-size="10.00">/Utils.h</text>
</a>
</g>
</g>
<!-- Node2&#45;&gt;Node7 -->
<g id="edge6" class="edge"><title>Node2&#45;&gt;Node7</title>
<path fill="none" stroke="midnightblue" d="M219.532,-174.295C195.342,-163.665 168.236,-151.755 144.945,-141.521"/>
<polygon fill="midnightblue" stroke="midnightblue" points="218.433,-177.634 228.996,-178.453 221.249,-171.226 218.433,-177.634"/>
</g>
<!-- Node8 -->
<g id="node8" class="node"><title>Node8</title>
<g id="a_node8"><a xlink:href="ModelInterface_8cpp.html" target="_top" xlink:title="/home/lucamuratore\l/advr&#45;superbuild/external\l/XBotInterface/src/ModelInterface.cpp">
<polygon fill="none" stroke="black" points="194,-95 194,-136 376,-136 376,-95 194,-95"/>
<text text-anchor="start" x="202" y="-124" font-family="Helvetica,sans-Serif" font-size="10.00">/home/lucamuratore</text>
<text text-anchor="start" x="202" y="-113" font-family="Helvetica,sans-Serif" font-size="10.00">/advr&#45;superbuild/external</text>
<text text-anchor="middle" x="285" y="-102" font-family="Helvetica,sans-Serif" font-size="10.00">/XBotInterface/src/ModelInterface.cpp</text>
</a>
</g>
</g>
<!-- Node2&#45;&gt;Node8 -->
<g id="edge7" class="edge"><title>Node2&#45;&gt;Node8</title>
<path fill="none" stroke="midnightblue" d="M285.594,-168.155C285.468,-157.21 285.334,-145.549 285.225,-136.082"/>
<polygon fill="midnightblue" stroke="midnightblue" points="282.096,-168.377 285.711,-178.336 289.095,-168.296 282.096,-168.377"/>
</g>
<!-- Node4 -->
<g id="node4" class="node"><title>Node4</title>
<g id="a_node4"><a xlink:href="StateMachine_8h.html" target="_top" xlink:title="/home/lucamuratore\l/advr&#45;superbuild/external\l/XBotInterface/include/XBotInterface\l/StateMachine.h">
<polygon fill="none" stroke="black" points="226,-0.5 226,-52.5 402,-52.5 402,-0.5 226,-0.5"/>
<text text-anchor="start" x="234" y="-40.5" font-family="Helvetica,sans-Serif" font-size="10.00">/home/lucamuratore</text>
<text text-anchor="start" x="234" y="-29.5" font-family="Helvetica,sans-Serif" font-size="10.00">/advr&#45;superbuild/external</text>
<text text-anchor="start" x="234" y="-18.5" font-family="Helvetica,sans-Serif" font-size="10.00">/XBotInterface/include/XBotInterface</text>
<text text-anchor="middle" x="314" y="-7.5" font-family="Helvetica,sans-Serif" font-size="10.00">/StateMachine.h</text>
</a>
</g>
</g>
<!-- Node3&#45;&gt;Node4 -->
<g id="edge3" class="edge"><title>Node3&#45;&gt;Node4</title>
<path fill="none" stroke="midnightblue" d="M424.33,-84.6354C404.189,-74.2049 381.8,-62.6109 362.483,-52.6075"/>
<polygon fill="midnightblue" stroke="midnightblue" points="422.918,-87.8454 433.407,-89.336 426.137,-81.6294 422.918,-87.8454"/>
</g>
<!-- Node5 -->
<g id="node5" class="node"><title>Node5</title>
<g id="a_node5"><a xlink:href="main__test_8cpp.html" target="_top" xlink:title="/home/lucamuratore\l/advr&#45;superbuild/external\l/XBotInterface/src/main\l_test.cpp">
<polygon fill="none" stroke="black" points="420.5,-0.5 420.5,-52.5 543.5,-52.5 543.5,-0.5 420.5,-0.5"/>
<text text-anchor="start" x="428.5" y="-40.5" font-family="Helvetica,sans-Serif" font-size="10.00">/home/lucamuratore</text>
<text text-anchor="start" x="428.5" y="-29.5" font-family="Helvetica,sans-Serif" font-size="10.00">/advr&#45;superbuild/external</text>
<text text-anchor="start" x="428.5" y="-18.5" font-family="Helvetica,sans-Serif" font-size="10.00">/XBotInterface/src/main</text>
<text text-anchor="middle" x="482" y="-7.5" font-family="Helvetica,sans-Serif" font-size="10.00">_test.cpp</text>
</a>
</g>
</g>
<!-- Node3&#45;&gt;Node5 -->
<g id="edge4" class="edge"><title>Node3&#45;&gt;Node5</title>
<path fill="none" stroke="midnightblue" d="M482,-79.1908C482,-70.2824 482,-60.8986 482,-52.6075"/>
<polygon fill="midnightblue" stroke="midnightblue" points="478.5,-79.336 482,-89.336 485.5,-79.336 478.5,-79.336"/>
</g>
<!-- Node6 -->
<g id="node6" class="node"><title>Node6</title>
<g id="a_node6"><a xlink:href="RobotInterface_8cpp.html" target="_top" xlink:title="/home/lucamuratore\l/advr&#45;superbuild/external\l/XBotInterface/src/RobotInterface.cpp">
<polygon fill="none" stroke="black" points="562,-6 562,-47 744,-47 744,-6 562,-6"/>
<text text-anchor="start" x="570" y="-35" font-family="Helvetica,sans-Serif" font-size="10.00">/home/lucamuratore</text>
<text text-anchor="start" x="570" y="-24" font-family="Helvetica,sans-Serif" font-size="10.00">/advr&#45;superbuild/external</text>
<text text-anchor="middle" x="653" y="-13" font-family="Helvetica,sans-Serif" font-size="10.00">/XBotInterface/src/RobotInterface.cpp</text>
</a>
</g>
</g>
<!-- Node3&#45;&gt;Node6 -->
<g id="edge5" class="edge"><title>Node3&#45;&gt;Node6</title>
<path fill="none" stroke="midnightblue" d="M540.642,-84.6648C565.063,-72.2399 592.738,-58.1596 614.511,-47.0821"/>
<polygon fill="midnightblue" stroke="midnightblue" points="538.786,-81.6819 531.46,-89.336 541.96,-87.9208 538.786,-81.6819"/>
</g>
<!-- Node9&#45;&gt;Node3 -->
<g id="edge9" class="edge"><title>Node9&#45;&gt;Node3</title>
<path fill="none" stroke="midnightblue" d="M482,-168.191C482,-159.282 482,-149.899 482,-141.607"/>
<polygon fill="midnightblue" stroke="midnightblue" points="478.5,-168.336 482,-178.336 485.5,-168.336 478.5,-168.336"/>
</g>
<!-- Node10 -->
<g id="node10" class="node"><title>Node10</title>
<g id="a_node10"><a xlink:href="RobotChain_8cpp.html" target="_top" xlink:title="/home/lucamuratore\l/advr&#45;superbuild/external\l/XBotInterface/src/RobotChain.cpp">
<polygon fill="none" stroke="black" points="588,-95 588,-136 758,-136 758,-95 588,-95"/>
<text text-anchor="start" x="596" y="-124" font-family="Helvetica,sans-Serif" font-size="10.00">/home/lucamuratore</text>
<text text-anchor="start" x="596" y="-113" font-family="Helvetica,sans-Serif" font-size="10.00">/advr&#45;superbuild/external</text>
<text text-anchor="middle" x="673" y="-102" font-family="Helvetica,sans-Serif" font-size="10.00">/XBotInterface/src/RobotChain.cpp</text>
</a>
</g>
</g>
<!-- Node9&#45;&gt;Node10 -->
<g id="edge10" class="edge"><title>Node9&#45;&gt;Node10</title>
<path fill="none" stroke="midnightblue" d="M546.169,-174.271C573.726,-161.719 605.197,-147.384 629.896,-136.134"/>
<polygon fill="midnightblue" stroke="midnightblue" points="544.638,-171.122 536.989,-178.453 547.54,-177.493 544.638,-171.122"/>
</g>
</g>
</svg>
