<?xml version="1.0" encoding="UTF-8" standalone="no"?>
<!DOCTYPE svg PUBLIC "-//W3C//DTD SVG 1.1//EN"
 "http://www.w3.org/Graphics/SVG/1.1/DTD/svg11.dtd">
<!-- Generated by graphviz version 2.38.0 (20140413.2041)
 -->
<!-- Title: /home/lucamuratore/advr&#45;superbuild/external/XBotInterface/include/spdlog/details/mpmc_bounded_q.h Pages: 1 -->
<svg width="866pt" height="307pt"
 viewBox="0.00 0.00 865.75 307.00" xmlns="http://www.w3.org/2000/svg" xmlns:xlink="http://www.w3.org/1999/xlink">
<g id="graph0" class="graph" transform="scale(1 1) rotate(0) translate(4 303)">
<title>/home/lucamuratore/advr&#45;superbuild/external/XBotInterface/include/spdlog/details/mpmc_bounded_q.h</title>
<!-- Node1 -->
<g id="node1" class="node"><title>Node1</title>
<polygon fill="#bfbfbf" stroke="black" points="564.25,-246.5 564.25,-298.5 709.25,-298.5 709.25,-246.5 564.25,-246.5"/>
<text text-anchor="start" x="572.25" y="-286.5" font-family="Helvetica,sans-Serif" font-size="10.00">/home/lucamuratore</text>
<text text-anchor="start" x="572.25" y="-275.5" font-family="Helvetica,sans-Serif" font-size="10.00">/advr&#45;superbuild/external</text>
<text text-anchor="start" x="572.25" y="-264.5" font-family="Helvetica,sans-Serif" font-size="10.00">/XBotInterface/include/spdlog</text>
<text text-anchor="middle" x="636.75" y="-253.5" font-family="Helvetica,sans-Serif" font-size="10.00">/details/mpmc_bounded_q.h</text>
</g>
<!-- Node2 -->
<g id="node2" class="node"><title>Node2</title>
<g id="a_node2"><a xlink:href="common_8h.html" target="_top" xlink:title="spdlog/common.h">
<polygon fill="none" stroke="black" points="206.75,-190.5 206.75,-209.5 300.75,-209.5 300.75,-190.5 206.75,-190.5"/>
<text text-anchor="middle" x="253.75" y="-197.5" font-family="Helvetica,sans-Serif" font-size="10.00">spdlog/common.h</text>
</a>
</g>
</g>
<!-- Node1&#45;&gt;Node2 -->
<g id="edge1" class="edge"><title>Node1&#45;&gt;Node2</title>
<path fill="none" stroke="midnightblue" d="M563.809,-258.074C489.903,-244.469 377.156,-223.716 309.923,-211.34"/>
<polygon fill="midnightblue" stroke="midnightblue" points="310.408,-207.871 299.94,-209.502 309.141,-214.755 310.408,-207.871"/>
</g>
<!-- Node7 -->
<g id="node7" class="node"><title>Node7</title>
<polygon fill="none" stroke="#bfbfbf" points="413.75,-62 413.75,-81 459.75,-81 459.75,-62 413.75,-62"/>
<text text-anchor="middle" x="436.75" y="-69" font-family="Helvetica,sans-Serif" font-size="10.00">atomic</text>
</g>
<!-- Node1&#45;&gt;Node7 -->
<g id="edge25" class="edge"><title>Node1&#45;&gt;Node7</title>
<path fill="none" stroke="midnightblue" d="M641.362,-246.483C645.834,-213.833 648.099,-156.879 617.75,-123 572.293,-72.2553 533.174,-109.157 468.75,-87 467.085,-86.4272 465.388,-85.7992 463.688,-85.1356"/>
<polygon fill="midnightblue" stroke="midnightblue" points="464.687,-81.7582 454.114,-81.0845 461.96,-88.2048 464.687,-81.7582"/>
</g>
<!-- Node21 -->
<g id="node21" class="node"><title>Node21</title>
<polygon fill="none" stroke="#bfbfbf" points="817.75,-0.5 817.75,-19.5 857.75,-19.5 857.75,-0.5 817.75,-0.5"/>
<text text-anchor="middle" x="837.75" y="-7.5" font-family="Helvetica,sans-Serif" font-size="10.00">utility</text>
</g>
<!-- Node1&#45;&gt;Node21 -->
<g id="edge26" class="edge"><title>Node1&#45;&gt;Node21</title>
<path fill="none" stroke="midnightblue" d="M656.389,-246.048C697.237,-193.108 790.403,-72.3633 824.734,-27.8693"/>
<polygon fill="midnightblue" stroke="midnightblue" points="827.618,-29.8614 830.955,-19.806 822.076,-25.5851 827.618,-29.8614"/>
</g>
<!-- Node3 -->
<g id="node3" class="node"><title>Node3</title>
<polygon fill="none" stroke="#bfbfbf" points="37.2501,-0.5 37.2501,-19.5 78.2501,-19.5 78.2501,-0.5 37.2501,-0.5"/>
<text text-anchor="middle" x="57.7501" y="-7.5" font-family="Helvetica,sans-Serif" font-size="10.00">string</text>
</g>
<!-- Node2&#45;&gt;Node3 -->
<g id="edge2" class="edge"><title>Node2&#45;&gt;Node3</title>
<path fill="none" stroke="midnightblue" d="M206.547,-197.144C143.26,-193.55 36.0273,-183.208 11.7501,-154 -19.6731,-116.195 20.1195,-56.5321 43.2885,-27.6976"/>
<polygon fill="midnightblue" stroke="midnightblue" points="46.153,-29.7267 49.848,-19.797 40.7673,-25.2552 46.153,-29.7267"/>
</g>
<!-- Node4 -->
<g id="node4" class="node"><title>Node4</title>
<polygon fill="none" stroke="#bfbfbf" points="21.2501,-129 21.2501,-148 94.2501,-148 94.2501,-129 21.2501,-129"/>
<text text-anchor="middle" x="57.7501" y="-136" font-family="Helvetica,sans-Serif" font-size="10.00">initializer_list</text>
</g>
<!-- Node2&#45;&gt;Node4 -->
<g id="edge3" class="edge"><title>Node2&#45;&gt;Node4</title>
<path fill="none" stroke="midnightblue" d="M224.958,-190.492C194.734,-181.53 145.849,-166.949 103.75,-154 100.804,-153.094 97.7537,-152.148 94.6906,-151.194"/>
<polygon fill="midnightblue" stroke="midnightblue" points="95.5623,-147.799 84.9733,-148.15 93.4699,-154.479 95.5623,-147.799"/>
</g>
<!-- Node5 -->
<g id="node5" class="node"><title>Node5</title>
<polygon fill="none" stroke="#bfbfbf" points="112.75,-129 112.75,-148 158.75,-148 158.75,-129 112.75,-129"/>
<text text-anchor="middle" x="135.75" y="-136" font-family="Helvetica,sans-Serif" font-size="10.00">chrono</text>
</g>
<!-- Node2&#45;&gt;Node5 -->
<g id="edge4" class="edge"><title>Node2&#45;&gt;Node5</title>
<path fill="none" stroke="midnightblue" d="M236.844,-190.475C217.216,-180.578 184.619,-164.142 161.76,-152.615"/>
<polygon fill="midnightblue" stroke="midnightblue" points="163.13,-149.386 152.625,-148.009 159.979,-155.637 163.13,-149.386"/>
</g>
<!-- Node6 -->
<g id="node6" class="node"><title>Node6</title>
<polygon fill="none" stroke="#bfbfbf" points="160.75,-0.5 160.75,-19.5 212.75,-19.5 212.75,-0.5 160.75,-0.5"/>
<text text-anchor="middle" x="186.75" y="-7.5" font-family="Helvetica,sans-Serif" font-size="10.00">memory</text>
</g>
<!-- Node2&#45;&gt;Node6 -->
<g id="edge5" class="edge"><title>Node2&#45;&gt;Node6</title>
<path fill="none" stroke="midnightblue" d="M249.231,-190.179C244.732,-181.209 237.789,-166.841 232.75,-154 215.503,-110.045 199.643,-56.736 191.835,-29.2902"/>
<polygon fill="midnightblue" stroke="midnightblue" points="195.161,-28.1892 189.083,-19.5109 188.422,-30.0851 195.161,-28.1892"/>
</g>
<!-- Node2&#45;&gt;Node7 -->
<g id="edge6" class="edge"><title>Node2&#45;&gt;Node7</title>
<path fill="none" stroke="midnightblue" d="M249.018,-190.441C241.291,-175.184 228.298,-143.015 243.75,-123 263.164,-97.8528 353.864,-82.8139 403.712,-76.3097"/>
<polygon fill="midnightblue" stroke="midnightblue" points="404.206,-79.7752 413.689,-75.0507 403.329,-72.8303 404.206,-79.7752"/>
</g>
<!-- Node8 -->
<g id="node8" class="node"><title>Node8</title>
<polygon fill="none" stroke="#bfbfbf" points="253.25,-129 253.25,-148 312.25,-148 312.25,-129 253.25,-129"/>
<text text-anchor="middle" x="282.75" y="-136" font-family="Helvetica,sans-Serif" font-size="10.00">exception</text>
</g>
<!-- Node2&#45;&gt;Node8 -->
<g id="edge7" class="edge"><title>Node2&#45;&gt;Node8</title>
<path fill="none" stroke="midnightblue" d="M257.905,-190.475C262.126,-181.815 268.787,-168.149 274.15,-157.145"/>
<polygon fill="midnightblue" stroke="midnightblue" points="277.368,-158.532 278.603,-148.009 271.075,-155.465 277.368,-158.532"/>
</g>
<!-- Node9 -->
<g id="node9" class="node"><title>Node9</title>
<polygon fill="none" stroke="#bfbfbf" points="330.25,-129 330.25,-148 389.25,-148 389.25,-129 330.25,-129"/>
<text text-anchor="middle" x="359.75" y="-136" font-family="Helvetica,sans-Serif" font-size="10.00">functional</text>
</g>
<!-- Node2&#45;&gt;Node9 -->
<g id="edge8" class="edge"><title>Node2&#45;&gt;Node9</title>
<path fill="none" stroke="midnightblue" d="M268.937,-190.475C286.412,-180.666 315.329,-164.435 335.833,-152.925"/>
<polygon fill="midnightblue" stroke="midnightblue" points="337.584,-155.956 344.591,-148.009 334.158,-149.852 337.584,-155.956"/>
</g>
<!-- Node10 -->
<g id="node10" class="node"><title>Node10</title>
<g id="a_node10"><a xlink:href="null__mutex_8h.html" target="_top" xlink:title="spdlog/details/null\l_mutex.h">
<polygon fill="none" stroke="black" points="407.25,-123.5 407.25,-153.5 502.25,-153.5 502.25,-123.5 407.25,-123.5"/>
<text text-anchor="start" x="415.25" y="-141.5" font-family="Helvetica,sans-Serif" font-size="10.00">spdlog/details/null</text>
<text text-anchor="middle" x="454.75" y="-130.5" font-family="Helvetica,sans-Serif" font-size="10.00">_mutex.h</text>
</a>
</g>
</g>
<!-- Node2&#45;&gt;Node10 -->
<g id="edge9" class="edge"><title>Node2&#45;&gt;Node10</title>
<path fill="none" stroke="midnightblue" d="M282.549,-190.475C312.443,-181.626 359.997,-167.549 397.566,-156.428"/>
<polygon fill="midnightblue" stroke="midnightblue" points="398.783,-159.718 407.378,-153.523 396.796,-153.005 398.783,-159.718"/>
</g>
<!-- Node11 -->
<g id="node11" class="node"><title>Node11</title>
<g id="a_node11"><a xlink:href="fmt_8h.html" target="_top" xlink:title="spdlog/fmt/fmt.h">
<polygon fill="none" stroke="black" points="520.75,-129 520.75,-148 608.75,-148 608.75,-129 520.75,-129"/>
<text text-anchor="middle" x="564.75" y="-136" font-family="Helvetica,sans-Serif" font-size="10.00">spdlog/fmt/fmt.h</text>
</a>
</g>
</g>
<!-- Node2&#45;&gt;Node11 -->
<g id="edge11" class="edge"><title>Node2&#45;&gt;Node11</title>
<path fill="none" stroke="midnightblue" d="M300.894,-192.035C352.627,-184.092 437.998,-170.104 510.75,-154 515.421,-152.966 520.294,-151.793 525.12,-150.572"/>
<polygon fill="midnightblue" stroke="midnightblue" points="526.082,-153.939 534.876,-148.03 524.316,-147.165 526.082,-153.939"/>
</g>
<!-- Node10&#45;&gt;Node7 -->
<g id="edge10" class="edge"><title>Node10&#45;&gt;Node7</title>
<path fill="none" stroke="midnightblue" d="M450.844,-123.396C448.205,-113.863 444.693,-101.182 441.835,-90.8624"/>
<polygon fill="midnightblue" stroke="midnightblue" points="445.2,-89.8977 439.158,-81.1945 438.454,-91.7659 445.2,-89.8977"/>
</g>
<!-- Node12 -->
<g id="node12" class="node"><title>Node12</title>
<g id="a_node12"><a xlink:href="format_8h.html" target="_top" xlink:title="spdlog/fmt/bundled\l/format.h">
<polygon fill="none" stroke="black" points="478.25,-56.5 478.25,-86.5 577.25,-86.5 577.25,-56.5 478.25,-56.5"/>
<text text-anchor="start" x="486.25" y="-74.5" font-family="Helvetica,sans-Serif" font-size="10.00">spdlog/fmt/bundled</text>
<text text-anchor="middle" x="527.75" y="-63.5" font-family="Helvetica,sans-Serif" font-size="10.00">/format.h</text>
</a>
</g>
</g>
<!-- Node11&#45;&gt;Node12 -->
<g id="edge12" class="edge"><title>Node11&#45;&gt;Node12</title>
<path fill="none" stroke="midnightblue" d="M559.76,-128.734C554.904,-120.203 547.317,-106.874 540.748,-95.3345"/>
<polygon fill="midnightblue" stroke="midnightblue" points="543.759,-93.5482 535.77,-86.589 537.675,-97.0111 543.759,-93.5482"/>
</g>
<!-- Node12&#45;&gt;Node3 -->
<g id="edge21" class="edge"><title>Node12&#45;&gt;Node3</title>
<path fill="none" stroke="midnightblue" d="M477.955,-57.7725C474.849,-57.1307 471.762,-56.5326 468.75,-56 431.52,-49.4166 177.194,-23.1902 88.3245,-14.1119"/>
<polygon fill="midnightblue" stroke="midnightblue" points="88.6363,-10.6256 78.3327,-13.0923 87.9256,-17.5895 88.6363,-10.6256"/>
</g>
<!-- Node12&#45;&gt;Node6 -->
<g id="edge19" class="edge"><title>Node12&#45;&gt;Node6</title>
<path fill="none" stroke="midnightblue" d="M477.932,-57.899C474.831,-57.2258 471.752,-56.5863 468.75,-56 363.059,-35.3601 332.304,-41.4531 223.155,-20.0957"/>
<polygon fill="midnightblue" stroke="midnightblue" points="223.545,-16.6047 213.054,-18.0854 222.178,-23.47 223.545,-16.6047"/>
</g>
<!-- Node13 -->
<g id="node13" class="node"><title>Node13</title>
<polygon fill="none" stroke="#bfbfbf" points="231.25,-0.5 231.25,-19.5 280.25,-19.5 280.25,-0.5 231.25,-0.5"/>
<text text-anchor="middle" x="255.75" y="-7.5" font-family="Helvetica,sans-Serif" font-size="10.00">cassert</text>
</g>
<!-- Node12&#45;&gt;Node13 -->
<g id="edge13" class="edge"><title>Node12&#45;&gt;Node13</title>
<path fill="none" stroke="midnightblue" d="M478.212,-58.1594C475.014,-57.414 471.839,-56.6881 468.75,-56 392.228,-38.9533 369.879,-38.7342 290.536,-20.3057"/>
<polygon fill="midnightblue" stroke="midnightblue" points="291.105,-16.8442 280.57,-17.9657 289.505,-23.6589 291.105,-16.8442"/>
</g>
<!-- Node14 -->
<g id="node14" class="node"><title>Node14</title>
<polygon fill="none" stroke="#bfbfbf" points="298.25,-0.5 298.25,-19.5 345.25,-19.5 345.25,-0.5 298.25,-0.5"/>
<text text-anchor="middle" x="321.75" y="-7.5" font-family="Helvetica,sans-Serif" font-size="10.00">clocale</text>
</g>
<!-- Node12&#45;&gt;Node14 -->
<g id="edge14" class="edge"><title>Node12&#45;&gt;Node14</title>
<path fill="none" stroke="midnightblue" d="M479.192,-56.4747C441.031,-45.4525 388.879,-30.3892 355.252,-20.6764"/>
<polygon fill="midnightblue" stroke="midnightblue" points="356.025,-17.2567 345.446,-17.8442 354.082,-23.9818 356.025,-17.2567"/>
</g>
<!-- Node15 -->
<g id="node15" class="node"><title>Node15</title>
<polygon fill="none" stroke="#bfbfbf" points="363.75,-0.5 363.75,-19.5 407.75,-19.5 407.75,-0.5 363.75,-0.5"/>
<text text-anchor="middle" x="385.75" y="-7.5" font-family="Helvetica,sans-Serif" font-size="10.00">cmath</text>
</g>
<!-- Node12&#45;&gt;Node15 -->
<g id="edge15" class="edge"><title>Node12&#45;&gt;Node15</title>
<path fill="none" stroke="midnightblue" d="M494.098,-56.3993C470.273,-46.4163 438.604,-33.1465 415.662,-23.5335"/>
<polygon fill="midnightblue" stroke="midnightblue" points="416.988,-20.2944 406.412,-19.6578 414.283,-26.7505 416.988,-20.2944"/>
</g>
<!-- Node16 -->
<g id="node16" class="node"><title>Node16</title>
<polygon fill="none" stroke="#bfbfbf" points="426.25,-0.5 426.25,-19.5 469.25,-19.5 469.25,-0.5 426.25,-0.5"/>
<text text-anchor="middle" x="447.75" y="-7.5" font-family="Helvetica,sans-Serif" font-size="10.00">cstdio</text>
</g>
<!-- Node12&#45;&gt;Node16 -->
<g id="edge16" class="edge"><title>Node12&#45;&gt;Node16</title>
<path fill="none" stroke="midnightblue" d="M508.791,-56.3993C496.327,-47.1293 480.053,-35.0254 467.443,-25.6469"/>
<polygon fill="midnightblue" stroke="midnightblue" points="469.504,-22.8173 459.391,-19.6578 465.326,-28.4341 469.504,-22.8173"/>
</g>
<!-- Node17 -->
<g id="node17" class="node"><title>Node17</title>
<polygon fill="none" stroke="#bfbfbf" points="487.75,-0.5 487.75,-19.5 533.75,-19.5 533.75,-0.5 487.75,-0.5"/>
<text text-anchor="middle" x="510.75" y="-7.5" font-family="Helvetica,sans-Serif" font-size="10.00">cstring</text>
</g>
<!-- Node12&#45;&gt;Node17 -->
<g id="edge17" class="edge"><title>Node12&#45;&gt;Node17</title>
<path fill="none" stroke="midnightblue" d="M523.721,-56.3993C521.404,-48.2881 518.466,-38.0071 515.973,-29.2807"/>
<polygon fill="midnightblue" stroke="midnightblue" points="519.336,-28.3115 513.224,-19.6578 512.606,-30.2346 519.336,-28.3115"/>
</g>
<!-- Node18 -->
<g id="node18" class="node"><title>Node18</title>
<polygon fill="none" stroke="#bfbfbf" points="551.75,-0.5 551.75,-19.5 591.75,-19.5 591.75,-0.5 551.75,-0.5"/>
<text text-anchor="middle" x="571.75" y="-7.5" font-family="Helvetica,sans-Serif" font-size="10.00">limits</text>
</g>
<!-- Node12&#45;&gt;Node18 -->
<g id="edge18" class="edge"><title>Node12&#45;&gt;Node18</title>
<path fill="none" stroke="midnightblue" d="M538.178,-56.3993C544.505,-47.8424 552.619,-36.8708 559.284,-27.857"/>
<polygon fill="midnightblue" stroke="midnightblue" points="562.216,-29.7792 565.348,-19.6578 556.588,-25.6171 562.216,-29.7792"/>
</g>
<!-- Node19 -->
<g id="node19" class="node"><title>Node19</title>
<polygon fill="none" stroke="#bfbfbf" points="610.25,-0.5 610.25,-19.5 669.25,-19.5 669.25,-0.5 610.25,-0.5"/>
<text text-anchor="middle" x="639.75" y="-7.5" font-family="Helvetica,sans-Serif" font-size="10.00">stdexcept</text>
</g>
<!-- Node12&#45;&gt;Node19 -->
<g id="edge20" class="edge"><title>Node12&#45;&gt;Node19</title>
<path fill="none" stroke="midnightblue" d="M554.293,-56.3993C572.413,-46.7728 596.286,-34.0902 614.193,-24.5772"/>
<polygon fill="midnightblue" stroke="midnightblue" points="616.264,-27.4403 623.453,-19.6578 612.98,-21.2585 616.264,-27.4403"/>
</g>
<!-- Node20 -->
<g id="node20" class="node"><title>Node20</title>
<polygon fill="none" stroke="#bfbfbf" points="687.75,-0.5 687.75,-19.5 731.75,-19.5 731.75,-0.5 687.75,-0.5"/>
<text text-anchor="middle" x="709.75" y="-7.5" font-family="Helvetica,sans-Serif" font-size="10.00">vector</text>
</g>
<!-- Node12&#45;&gt;Node20 -->
<g id="edge22" class="edge"><title>Node12&#45;&gt;Node20</title>
<path fill="none" stroke="midnightblue" d="M570.882,-56.3993C603.604,-45.7016 647.871,-31.2297 677.548,-21.5277"/>
<polygon fill="midnightblue" stroke="midnightblue" points="678.976,-24.7431 687.393,-18.3089 676.801,-18.0896 678.976,-24.7431"/>
</g>
<!-- Node12&#45;&gt;Node21 -->
<g id="edge23" class="edge"><title>Node12&#45;&gt;Node21</title>
<path fill="none" stroke="midnightblue" d="M577.374,-63.4732C631.73,-55.356 721.596,-40.7054 807.63,-20.0319"/>
<polygon fill="midnightblue" stroke="midnightblue" points="808.669,-23.3811 817.557,-17.6148 807.013,-16.5798 808.669,-23.3811"/>
</g>
<!-- Node22 -->
<g id="node22" class="node"><title>Node22</title>
<polygon fill="none" stroke="#bfbfbf" points="750.25,-0.5 750.25,-19.5 799.25,-19.5 799.25,-0.5 750.25,-0.5"/>
<text text-anchor="middle" x="774.75" y="-7.5" font-family="Helvetica,sans-Serif" font-size="10.00">stdint.h</text>
</g>
<!-- Node12&#45;&gt;Node22 -->
<g id="edge24" class="edge"><title>Node12&#45;&gt;Node22</title>
<path fill="none" stroke="midnightblue" d="M577.334,-59.1285C618.364,-49.6315 678.423,-35.531 739.995,-20.1416"/>
<polygon fill="midnightblue" stroke="midnightblue" points="741.039,-23.4883 749.887,-17.6611 739.336,-16.6985 741.039,-23.4883"/>
</g>
</g>
</svg>
