<?xml version="1.0" encoding="UTF-8" standalone="no"?>
<!DOCTYPE svg PUBLIC "-//W3C//DTD SVG 1.1//EN"
 "http://www.w3.org/Graphics/SVG/1.1/DTD/svg11.dtd">
<!-- Generated by graphviz version 2.36.0 (20140111.2315)
 -->
<!-- Title: /home/lucamuratore/advr&#45;superbuild/external/XBotInterface/include/spdlog/details/mpmc_bounded_q.h Pages: 1 -->
<svg width="866pt" height="310pt"
 viewBox="0.00 0.00 865.96 310.00" xmlns="http://www.w3.org/2000/svg" xmlns:xlink="http://www.w3.org/1999/xlink">
<g id="graph0" class="graph" transform="scale(1 1) rotate(0) translate(4 306)">
<title>/home/lucamuratore/advr&#45;superbuild/external/XBotInterface/include/spdlog/details/mpmc_bounded_q.h</title>
<!-- Node1 -->
<g id="node1" class="node"><title>Node1</title>
<polygon fill="#bfbfbf" stroke="black" points="564.458,-249 564.458,-301 709.458,-301 709.458,-249 564.458,-249"/>
<text text-anchor="start" x="572.458" y="-289" font-family="Helvetica,sans-Serif" font-size="10.00">/home/lucamuratore</text>
<text text-anchor="start" x="572.458" y="-278" font-family="Helvetica,sans-Serif" font-size="10.00">/advr&#45;superbuild/external</text>
<text text-anchor="start" x="572.458" y="-267" font-family="Helvetica,sans-Serif" font-size="10.00">/XBotInterface/include/spdlog</text>
<text text-anchor="middle" x="636.958" y="-256" font-family="Helvetica,sans-Serif" font-size="10.00">/details/mpmc_bounded_q.h</text>
</g>
<!-- Node2 -->
<g id="node2" class="node"><title>Node2</title>
<g id="a_node2"><a xlink:href="common_8h.html" target="_top" xlink:title="spdlog/common.h">
<polygon fill="none" stroke="black" points="206.958,-192.5 206.958,-211.5 300.958,-211.5 300.958,-192.5 206.958,-192.5"/>
<text text-anchor="middle" x="253.958" y="-199.5" font-family="Helvetica,sans-Serif" font-size="10.00">spdlog/common.h</text>
</a>
</g>
</g>
<!-- Node1&#45;&gt;Node2 -->
<g id="edge1" class="edge"><title>Node1&#45;&gt;Node2</title>
<path fill="none" stroke="midnightblue" d="M564.017,-260.478C490.008,-246.759 377.049,-225.818 309.85,-213.361"/>
<polygon fill="midnightblue" stroke="midnightblue" points="310.344,-209.893 299.874,-211.512 309.068,-216.776 310.344,-209.893"/>
</g>
<!-- Node7 -->
<g id="node7" class="node"><title>Node7</title>
<polygon fill="none" stroke="#bfbfbf" points="413.958,-62.5 413.958,-81.5 459.958,-81.5 459.958,-62.5 413.958,-62.5"/>
<text text-anchor="middle" x="436.958" y="-69.5" font-family="Helvetica,sans-Serif" font-size="10.00">atomic</text>
</g>
<!-- Node1&#45;&gt;Node7 -->
<g id="edge25" class="edge"><title>Node1&#45;&gt;Node7</title>
<path fill="none" stroke="midnightblue" d="M641.451,-248.72C645.758,-215.729 647.699,-158.188 616.958,-124 571.695,-73.662 532.813,-110.478 468.958,-88 467.048,-87.3277 465.099,-86.5795 463.152,-85.786"/>
<polygon fill="midnightblue" stroke="midnightblue" points="464.196,-82.4208 453.634,-81.5849 461.369,-88.8248 464.196,-82.4208"/>
</g>
<!-- Node21 -->
<g id="node21" class="node"><title>Node21</title>
<polygon fill="none" stroke="#bfbfbf" points="817.958,-0.5 817.958,-19.5 857.958,-19.5 857.958,-0.5 817.958,-0.5"/>
<text text-anchor="middle" x="837.958" y="-7.5" font-family="Helvetica,sans-Serif" font-size="10.00">utility</text>
</g>
<!-- Node1&#45;&gt;Node21 -->
<g id="edge26" class="edge"><title>Node1&#45;&gt;Node21</title>
<path fill="none" stroke="midnightblue" d="M656.231,-248.782C696.862,-195.618 790.4,-73.2277 824.883,-28.1089"/>
<polygon fill="midnightblue" stroke="midnightblue" points="827.84,-30.0026 831.132,-19.9319 822.279,-25.7519 827.84,-30.0026"/>
</g>
<!-- Node3 -->
<g id="node3" class="node"><title>Node3</title>
<polygon fill="none" stroke="#bfbfbf" points="37.4582,-0.5 37.4582,-19.5 78.4582,-19.5 78.4582,-0.5 37.4582,-0.5"/>
<text text-anchor="middle" x="57.9582" y="-7.5" font-family="Helvetica,sans-Serif" font-size="10.00">string</text>
</g>
<!-- Node2&#45;&gt;Node3 -->
<g id="edge2" class="edge"><title>Node2&#45;&gt;Node3</title>
<path fill="none" stroke="midnightblue" d="M206.755,-199.144C143.468,-195.55 36.2354,-185.208 11.9582,-156 -20.0166,-117.531 20.5035,-56.6125 43.7483,-27.5217"/>
<polygon fill="midnightblue" stroke="midnightblue" points="46.641,-29.5154 50.3082,-19.5754 41.2428,-25.0589 46.641,-29.5154"/>
</g>
<!-- Node4 -->
<g id="node4" class="node"><title>Node4</title>
<polygon fill="none" stroke="#bfbfbf" points="21.4582,-130.5 21.4582,-149.5 94.4582,-149.5 94.4582,-130.5 21.4582,-130.5"/>
<text text-anchor="middle" x="57.9582" y="-137.5" font-family="Helvetica,sans-Serif" font-size="10.00">initializer_list</text>
</g>
<!-- Node2&#45;&gt;Node4 -->
<g id="edge3" class="edge"><title>Node2&#45;&gt;Node4</title>
<path fill="none" stroke="midnightblue" d="M224.86,-192.493C194.593,-183.592 145.863,-169.116 103.958,-156 100.569,-154.939 97.0441,-153.819 93.5214,-152.689"/>
<polygon fill="midnightblue" stroke="midnightblue" points="94.3043,-149.264 83.7125,-149.517 92.1504,-155.925 94.3043,-149.264"/>
</g>
<!-- Node5 -->
<g id="node5" class="node"><title>Node5</title>
<polygon fill="none" stroke="#bfbfbf" points="112.958,-130.5 112.958,-149.5 158.958,-149.5 158.958,-130.5 112.958,-130.5"/>
<text text-anchor="middle" x="135.958" y="-137.5" font-family="Helvetica,sans-Serif" font-size="10.00">chrono</text>
</g>
<!-- Node2&#45;&gt;Node5 -->
<g id="edge4" class="edge"><title>Node2&#45;&gt;Node5</title>
<path fill="none" stroke="midnightblue" d="M237.052,-192.403C217.424,-182.423 184.827,-165.849 161.968,-154.225"/>
<polygon fill="midnightblue" stroke="midnightblue" points="163.334,-150.993 152.833,-149.581 160.161,-157.233 163.334,-150.993"/>
</g>
<!-- Node6 -->
<g id="node6" class="node"><title>Node6</title>
<polygon fill="none" stroke="#bfbfbf" points="160.958,-0.5 160.958,-19.5 212.958,-19.5 212.958,-0.5 160.958,-0.5"/>
<text text-anchor="middle" x="186.958" y="-7.5" font-family="Helvetica,sans-Serif" font-size="10.00">memory</text>
</g>
<!-- Node2&#45;&gt;Node6 -->
<g id="edge5" class="edge"><title>Node2&#45;&gt;Node6</title>
<path fill="none" stroke="midnightblue" d="M249.428,-192.183C244.921,-183.216 237.971,-168.851 232.958,-156 215.582,-111.452 199.775,-57.3886 192.009,-29.5517"/>
<polygon fill="midnightblue" stroke="midnightblue" points="195.307,-28.3427 189.274,-19.6328 188.559,-30.2034 195.307,-28.3427"/>
</g>
<!-- Node2&#45;&gt;Node7 -->
<g id="edge6" class="edge"><title>Node2&#45;&gt;Node7</title>
<path fill="none" stroke="midnightblue" d="M249.191,-192.331C241.409,-176.878 228.331,-144.293 243.958,-124 263.354,-98.8133 354.062,-83.5347 403.916,-76.8978"/>
<polygon fill="midnightblue" stroke="midnightblue" points="404.423,-80.3615 413.894,-75.6123 403.529,-73.4189 404.423,-80.3615"/>
</g>
<!-- Node8 -->
<g id="node8" class="node"><title>Node8</title>
<polygon fill="none" stroke="#bfbfbf" points="253.458,-130.5 253.458,-149.5 312.458,-149.5 312.458,-130.5 253.458,-130.5"/>
<text text-anchor="middle" x="282.958" y="-137.5" font-family="Helvetica,sans-Serif" font-size="10.00">exception</text>
</g>
<!-- Node2&#45;&gt;Node8 -->
<g id="edge7" class="edge"><title>Node2&#45;&gt;Node8</title>
<path fill="none" stroke="midnightblue" d="M258.113,-192.403C262.334,-183.671 268.995,-169.889 274.358,-158.794"/>
<polygon fill="midnightblue" stroke="midnightblue" points="277.61,-160.107 278.811,-149.581 271.308,-157.061 277.61,-160.107"/>
</g>
<!-- Node9 -->
<g id="node9" class="node"><title>Node9</title>
<polygon fill="none" stroke="#bfbfbf" points="330.458,-130.5 330.458,-149.5 389.458,-149.5 389.458,-130.5 330.458,-130.5"/>
<text text-anchor="middle" x="359.958" y="-137.5" font-family="Helvetica,sans-Serif" font-size="10.00">functional</text>
</g>
<!-- Node2&#45;&gt;Node9 -->
<g id="edge8" class="edge"><title>Node2&#45;&gt;Node9</title>
<path fill="none" stroke="midnightblue" d="M269.145,-192.403C286.62,-182.512 315.537,-166.144 336.041,-154.538"/>
<polygon fill="midnightblue" stroke="midnightblue" points="337.821,-157.553 344.799,-149.581 334.372,-151.461 337.821,-157.553"/>
</g>
<!-- Node10 -->
<g id="node10" class="node"><title>Node10</title>
<g id="a_node10"><a xlink:href="null__mutex_8h.html" target="_top" xlink:title="spdlog/details/null\l_mutex.h">
<polygon fill="none" stroke="black" points="407.458,-125 407.458,-155 502.458,-155 502.458,-125 407.458,-125"/>
<text text-anchor="start" x="415.458" y="-143" font-family="Helvetica,sans-Serif" font-size="10.00">spdlog/details/null</text>
<text text-anchor="middle" x="454.958" y="-132" font-family="Helvetica,sans-Serif" font-size="10.00">_mutex.h</text>
</a>
</g>
</g>
<!-- Node2&#45;&gt;Node10 -->
<g id="edge9" class="edge"><title>Node2&#45;&gt;Node10</title>
<path fill="none" stroke="midnightblue" d="M282.757,-192.403C312.75,-183.45 360.523,-169.19 398.149,-157.958"/>
<polygon fill="midnightblue" stroke="midnightblue" points="399.392,-161.24 407.973,-155.025 397.39,-154.532 399.392,-161.24"/>
</g>
<!-- Node11 -->
<g id="node11" class="node"><title>Node11</title>
<g id="a_node11"><a xlink:href="fmt_8h.html" target="_top" xlink:title="spdlog/fmt/fmt.h">
<polygon fill="none" stroke="black" points="520.958,-130.5 520.958,-149.5 608.958,-149.5 608.958,-130.5 520.958,-130.5"/>
<text text-anchor="middle" x="564.958" y="-137.5" font-family="Helvetica,sans-Serif" font-size="10.00">spdlog/fmt/fmt.h</text>
</a>
</g>
</g>
<!-- Node2&#45;&gt;Node11 -->
<g id="edge11" class="edge"><title>Node2&#45;&gt;Node11</title>
<path fill="none" stroke="midnightblue" d="M301.129,-194.155C352.885,-186.316 438.276,-172.417 510.958,-156 515.99,-154.863 521.253,-153.554 526.437,-152.193"/>
<polygon fill="midnightblue" stroke="midnightblue" points="527.487,-155.535 536.225,-149.542 525.657,-148.778 527.487,-155.535"/>
</g>
<!-- Node10&#45;&gt;Node7 -->
<g id="edge10" class="edge"><title>Node10&#45;&gt;Node7</title>
<path fill="none" stroke="midnightblue" d="M451.052,-124.679C448.413,-114.999 444.901,-102.123 442.043,-91.6449"/>
<polygon fill="midnightblue" stroke="midnightblue" points="445.374,-90.555 439.366,-81.8283 438.62,-92.3969 445.374,-90.555"/>
</g>
<!-- Node12 -->
<g id="node12" class="node"><title>Node12</title>
<g id="a_node12"><a xlink:href="format_8h.html" target="_top" xlink:title="spdlog/fmt/bundled\l/format.h">
<polygon fill="none" stroke="black" points="478.458,-57 478.458,-87 577.458,-87 577.458,-57 478.458,-57"/>
<text text-anchor="start" x="486.458" y="-75" font-family="Helvetica,sans-Serif" font-size="10.00">spdlog/fmt/bundled</text>
<text text-anchor="middle" x="527.958" y="-64" font-family="Helvetica,sans-Serif" font-size="10.00">/format.h</text>
</a>
</g>
</g>
<!-- Node11&#45;&gt;Node12 -->
<g id="edge12" class="edge"><title>Node11&#45;&gt;Node12</title>
<path fill="none" stroke="midnightblue" d="M560.121,-130.372C555.268,-121.714 547.58,-108.001 540.937,-96.152"/>
<polygon fill="midnightblue" stroke="midnightblue" points="543.852,-94.1927 535.908,-87.1815 537.746,-97.6158 543.852,-94.1927"/>
</g>
<!-- Node12&#45;&gt;Node3 -->
<g id="edge21" class="edge"><title>Node12&#45;&gt;Node3</title>
<path fill="none" stroke="midnightblue" d="M478.172,-57.8211C475.064,-57.1603 471.974,-56.5457 468.958,-56 431.755,-49.2682 177.412,-23.1377 88.5351,-14.0979"/>
<polygon fill="midnightblue" stroke="midnightblue" points="88.845,-10.6115 78.5425,-13.0827 88.1374,-17.5757 88.845,-10.6115"/>
</g>
<!-- Node12&#45;&gt;Node6 -->
<g id="edge19" class="edge"><title>Node12&#45;&gt;Node6</title>
<path fill="none" stroke="midnightblue" d="M478.148,-57.9478C475.046,-57.2556 471.964,-56.5994 468.958,-56 363.35,-34.9387 332.517,-41.4284 223.363,-20.0946"/>
<polygon fill="midnightblue" stroke="midnightblue" points="223.753,-16.6035 213.262,-18.0854 222.387,-23.469 223.753,-16.6035"/>
</g>
<!-- Node13 -->
<g id="node13" class="node"><title>Node13</title>
<polygon fill="none" stroke="#bfbfbf" points="231.458,-0.5 231.458,-19.5 280.458,-19.5 280.458,-0.5 231.458,-0.5"/>
<text text-anchor="middle" x="255.958" y="-7.5" font-family="Helvetica,sans-Serif" font-size="10.00">cassert</text>
</g>
<!-- Node12&#45;&gt;Node13 -->
<g id="edge13" class="edge"><title>Node12&#45;&gt;Node13</title>
<path fill="none" stroke="midnightblue" d="M478.428,-58.2105C475.228,-57.4451 472.05,-56.7018 468.958,-56 392.505,-38.6482 370.093,-38.7104 290.744,-20.3043"/>
<polygon fill="midnightblue" stroke="midnightblue" points="291.313,-16.8428 280.778,-17.9657 289.714,-23.6577 291.313,-16.8428"/>
</g>
<!-- Node14 -->
<g id="node14" class="node"><title>Node14</title>
<polygon fill="none" stroke="#bfbfbf" points="298.458,-0.5 298.458,-19.5 345.458,-19.5 345.458,-0.5 298.458,-0.5"/>
<text text-anchor="middle" x="321.958" y="-7.5" font-family="Helvetica,sans-Serif" font-size="10.00">clocale</text>
</g>
<!-- Node12&#45;&gt;Node14 -->
<g id="edge14" class="edge"><title>Node12&#45;&gt;Node14</title>
<path fill="none" stroke="midnightblue" d="M479.66,-56.9327C441.509,-45.8207 389.252,-30.6002 355.545,-20.7827"/>
<polygon fill="midnightblue" stroke="midnightblue" points="356.296,-17.356 345.716,-17.9198 354.339,-24.0767 356.296,-17.356"/>
</g>
<!-- Node15 -->
<g id="node15" class="node"><title>Node15</title>
<polygon fill="none" stroke="#bfbfbf" points="363.958,-0.5 363.958,-19.5 407.958,-19.5 407.958,-0.5 363.958,-0.5"/>
<text text-anchor="middle" x="385.958" y="-7.5" font-family="Helvetica,sans-Serif" font-size="10.00">cmath</text>
</g>
<!-- Node12&#45;&gt;Node15 -->
<g id="edge15" class="edge"><title>Node12&#45;&gt;Node15</title>
<path fill="none" stroke="midnightblue" d="M494.666,-56.9327C470.708,-46.81 438.683,-33.2779 415.605,-23.5267"/>
<polygon fill="midnightblue" stroke="midnightblue" points="416.885,-20.2682 406.312,-19.6 414.161,-26.7163 416.885,-20.2682"/>
</g>
<!-- Node16 -->
<g id="node16" class="node"><title>Node16</title>
<polygon fill="none" stroke="#bfbfbf" points="426.458,-0.5 426.458,-19.5 469.458,-19.5 469.458,-0.5 426.458,-0.5"/>
<text text-anchor="middle" x="447.958" y="-7.5" font-family="Helvetica,sans-Serif" font-size="10.00">cstdio</text>
</g>
<!-- Node12&#45;&gt;Node16 -->
<g id="edge16" class="edge"><title>Node12&#45;&gt;Node16</title>
<path fill="none" stroke="midnightblue" d="M508.999,-56.7808C496.535,-47.4329 480.261,-35.2273 467.652,-25.77"/>
<polygon fill="midnightblue" stroke="midnightblue" points="469.699,-22.9306 459.599,-19.7305 465.499,-28.5306 469.699,-22.9306"/>
</g>
<!-- Node17 -->
<g id="node17" class="node"><title>Node17</title>
<polygon fill="none" stroke="#bfbfbf" points="487.958,-0.5 487.958,-19.5 533.958,-19.5 533.958,-0.5 487.958,-0.5"/>
<text text-anchor="middle" x="510.958" y="-7.5" font-family="Helvetica,sans-Serif" font-size="10.00">cstring</text>
</g>
<!-- Node12&#45;&gt;Node17 -->
<g id="edge17" class="edge"><title>Node12&#45;&gt;Node17</title>
<path fill="none" stroke="midnightblue" d="M523.929,-56.7808C521.612,-48.6014 518.675,-38.2341 516.181,-29.4344"/>
<polygon fill="midnightblue" stroke="midnightblue" points="519.525,-28.3977 513.432,-19.7305 512.791,-30.3059 519.525,-28.3977"/>
</g>
<!-- Node18 -->
<g id="node18" class="node"><title>Node18</title>
<polygon fill="none" stroke="#bfbfbf" points="551.958,-0.5 551.958,-19.5 591.958,-19.5 591.958,-0.5 551.958,-0.5"/>
<text text-anchor="middle" x="571.958" y="-7.5" font-family="Helvetica,sans-Serif" font-size="10.00">limits</text>
</g>
<!-- Node12&#45;&gt;Node18 -->
<g id="edge18" class="edge"><title>Node12&#45;&gt;Node18</title>
<path fill="none" stroke="midnightblue" d="M538.386,-56.7808C544.713,-48.152 552.827,-37.0882 559.493,-27.9987"/>
<polygon fill="midnightblue" stroke="midnightblue" points="562.465,-29.8644 565.556,-19.7305 556.82,-25.7248 562.465,-29.8644"/>
</g>
<!-- Node19 -->
<g id="node19" class="node"><title>Node19</title>
<polygon fill="none" stroke="#bfbfbf" points="610.458,-0.5 610.458,-19.5 669.458,-19.5 669.458,-0.5 610.458,-0.5"/>
<text text-anchor="middle" x="639.958" y="-7.5" font-family="Helvetica,sans-Serif" font-size="10.00">stdexcept</text>
</g>
<!-- Node12&#45;&gt;Node19 -->
<g id="edge20" class="edge"><title>Node12&#45;&gt;Node19</title>
<path fill="none" stroke="midnightblue" d="M554.217,-56.9327C572.438,-47.1715 596.577,-34.2401 614.598,-24.5856"/>
<polygon fill="midnightblue" stroke="midnightblue" points="616.743,-27.4075 623.905,-19.6 613.437,-21.2371 616.743,-27.4075"/>
</g>
<!-- Node20 -->
<g id="node20" class="node"><title>Node20</title>
<polygon fill="none" stroke="#bfbfbf" points="687.958,-0.5 687.958,-19.5 731.958,-19.5 731.958,-0.5 687.958,-0.5"/>
<text text-anchor="middle" x="709.958" y="-7.5" font-family="Helvetica,sans-Serif" font-size="10.00">vector</text>
</g>
<!-- Node12&#45;&gt;Node20 -->
<g id="edge22" class="edge"><title>Node12&#45;&gt;Node20</title>
<path fill="none" stroke="midnightblue" d="M570.629,-56.9327C603.479,-46.1032 648.165,-31.3715 677.981,-21.5418"/>
<polygon fill="midnightblue" stroke="midnightblue" points="679.083,-24.8639 687.485,-18.4089 676.892,-18.2159 679.083,-24.8639"/>
</g>
<!-- Node12&#45;&gt;Node21 -->
<g id="edge23" class="edge"><title>Node12&#45;&gt;Node21</title>
<path fill="none" stroke="midnightblue" d="M577.621,-63.6666C633.867,-54.9655 728.086,-39.1919 807.958,-20 808.057,-19.9762 808.157,-19.9522 808.256,-19.9281"/>
<polygon fill="midnightblue" stroke="midnightblue" points="808.947,-23.3662 817.708,-17.4081 807.144,-16.6024 808.947,-23.3662"/>
</g>
<!-- Node22 -->
<g id="node22" class="node"><title>Node22</title>
<polygon fill="none" stroke="#bfbfbf" points="750.458,-0.5 750.458,-19.5 799.458,-19.5 799.458,-0.5 750.458,-0.5"/>
<text text-anchor="middle" x="774.958" y="-7.5" font-family="Helvetica,sans-Serif" font-size="10.00">stdint.h</text>
</g>
<!-- Node12&#45;&gt;Node22 -->
<g id="edge24" class="edge"><title>Node12&#45;&gt;Node22</title>
<path fill="none" stroke="midnightblue" d="M577.7,-59.2653C620.697,-49.0666 684.488,-33.8031 739.958,-20 740.061,-19.9744 740.164,-19.9488 740.267,-19.9231"/>
<polygon fill="midnightblue" stroke="midnightblue" points="741.274,-23.2789 750.114,-17.4395 739.562,-16.4914 741.274,-23.2789"/>
</g>
</g>
</svg>
