<?xml version="1.0" encoding="UTF-8" standalone="no"?>
<!DOCTYPE svg PUBLIC "-//W3C//DTD SVG 1.1//EN"
 "http://www.w3.org/Graphics/SVG/1.1/DTD/svg11.dtd">
<!-- Generated by graphviz version 2.36.0 (20140111.2315)
 -->
<!-- Title: /home/lucamuratore/advr&#45;superbuild/external/XBotInterface/include/spdlog/sinks/null_sink.h Pages: 1 -->
<svg width="1606pt" height="614pt"
 viewBox="0.00 0.00 1606.15 614.00" xmlns="http://www.w3.org/2000/svg" xmlns:xlink="http://www.w3.org/1999/xlink">
<g id="graph0" class="graph" transform="scale(1 1) rotate(0) translate(4 610)">
<title>/home/lucamuratore/advr&#45;superbuild/external/XBotInterface/include/spdlog/sinks/null_sink.h</title>
<!-- Node1 -->
<g id="node1" class="node"><title>Node1</title>
<polygon fill="#bfbfbf" stroke="black" points="1435.5,-553 1435.5,-605 1580.5,-605 1580.5,-553 1435.5,-553"/>
<text text-anchor="start" x="1443.5" y="-593" font-family="Helvetica,sans-Serif" font-size="10.00">/home/lucamuratore</text>
<text text-anchor="start" x="1443.5" y="-582" font-family="Helvetica,sans-Serif" font-size="10.00">/advr&#45;superbuild/external</text>
<text text-anchor="start" x="1443.5" y="-571" font-family="Helvetica,sans-Serif" font-size="10.00">/XBotInterface/include/spdlog</text>
<text text-anchor="middle" x="1508" y="-560" font-family="Helvetica,sans-Serif" font-size="10.00">/sinks/null_sink.h</text>
</g>
<!-- Node2 -->
<g id="node2" class="node"><title>Node2</title>
<g id="a_node2"><a xlink:href="base__sink_8h.html" target="_top" xlink:title="spdlog/sinks/base_sink.h">
<polygon fill="none" stroke="black" points="1328.5,-496.5 1328.5,-515.5 1455.5,-515.5 1455.5,-496.5 1328.5,-496.5"/>
<text text-anchor="middle" x="1392" y="-503.5" font-family="Helvetica,sans-Serif" font-size="10.00">spdlog/sinks/base_sink.h</text>
</a>
</g>
</g>
<!-- Node1&#45;&gt;Node2 -->
<g id="edge1" class="edge"><title>Node1&#45;&gt;Node2</title>
<path fill="none" stroke="midnightblue" d="M1467.1,-552.968C1449.49,-542.19 1429.57,-529.997 1414.68,-520.879"/>
<polygon fill="midnightblue" stroke="midnightblue" points="1416.47,-517.874 1406.11,-515.639 1412.82,-523.845 1416.47,-517.874"/>
</g>
<!-- Node13 -->
<g id="node13" class="node"><title>Node13</title>
<g id="a_node13"><a xlink:href="null__mutex_8h.html" target="_top" xlink:title="spdlog/details/null\l_mutex.h">
<polygon fill="none" stroke="black" points="1472.5,-125 1472.5,-155 1567.5,-155 1567.5,-125 1472.5,-125"/>
<text text-anchor="start" x="1480.5" y="-143" font-family="Helvetica,sans-Serif" font-size="10.00">spdlog/details/null</text>
<text text-anchor="middle" x="1520" y="-132" font-family="Helvetica,sans-Serif" font-size="10.00">_mutex.h</text>
</a>
</g>
</g>
<!-- Node1&#45;&gt;Node13 -->
<g id="edge65" class="edge"><title>Node1&#45;&gt;Node13</title>
<path fill="none" stroke="midnightblue" d="M1524.37,-552.875C1538.95,-528.041 1558,-488.439 1558,-451 1558,-451 1558,-451 1558,-257 1558,-223.437 1543.46,-187.005 1532.36,-164.099"/>
<polygon fill="midnightblue" stroke="midnightblue" points="1535.49,-162.524 1527.87,-155.159 1529.23,-165.666 1535.49,-162.524"/>
</g>
<!-- Node37 -->
<g id="node37" class="node"><title>Node37</title>
<polygon fill="none" stroke="#bfbfbf" points="1486,-310.5 1486,-329.5 1530,-329.5 1530,-310.5 1486,-310.5"/>
<text text-anchor="middle" x="1508" y="-317.5" font-family="Helvetica,sans-Serif" font-size="10.00">mutex</text>
</g>
<!-- Node1&#45;&gt;Node37 -->
<g id="edge66" class="edge"><title>Node1&#45;&gt;Node37</title>
<path fill="none" stroke="midnightblue" d="M1508,-552.89C1508,-501.534 1508,-385.499 1508,-339.904"/>
<polygon fill="midnightblue" stroke="midnightblue" points="1511.5,-339.688 1508,-329.688 1504.5,-339.688 1511.5,-339.688"/>
</g>
<!-- Node3 -->
<g id="node3" class="node"><title>Node3</title>
<g id="a_node3"><a xlink:href="sink_8h.html" target="_top" xlink:title="spdlog/sinks/sink.h">
<polygon fill="none" stroke="black" points="1297.5,-378.5 1297.5,-397.5 1398.5,-397.5 1398.5,-378.5 1297.5,-378.5"/>
<text text-anchor="middle" x="1348" y="-385.5" font-family="Helvetica,sans-Serif" font-size="10.00">spdlog/sinks/sink.h</text>
</a>
</g>
</g>
<!-- Node2&#45;&gt;Node3 -->
<g id="edge2" class="edge"><title>Node2&#45;&gt;Node3</title>
<path fill="none" stroke="midnightblue" d="M1388.69,-496.281C1381.52,-477.379 1364.42,-432.295 1354.83,-407"/>
<polygon fill="midnightblue" stroke="midnightblue" points="1358.05,-405.613 1351.23,-397.505 1351.5,-408.096 1358.05,-405.613"/>
</g>
<!-- Node4 -->
<g id="node4" class="node"><title>Node4</title>
<g id="a_node4"><a xlink:href="log__msg_8h.html" target="_top" xlink:title="spdlog/details/log\l_msg.h">
<polygon fill="none" stroke="black" points="1300,-305 1300,-335 1392,-335 1392,-305 1300,-305"/>
<text text-anchor="start" x="1308" y="-323" font-family="Helvetica,sans-Serif" font-size="10.00">spdlog/details/log</text>
<text text-anchor="middle" x="1346" y="-312" font-family="Helvetica,sans-Serif" font-size="10.00">_msg.h</text>
</a>
</g>
</g>
<!-- Node2&#45;&gt;Node4 -->
<g id="edge63" class="edge"><title>Node2&#45;&gt;Node4</title>
<path fill="none" stroke="midnightblue" d="M1377.4,-496.391C1353.37,-481.26 1306.33,-447.35 1288,-404 1282.46,-390.901 1282.14,-384.958 1288,-372 1293.49,-359.854 1303.47,-349.449 1313.61,-341.266"/>
<polygon fill="midnightblue" stroke="midnightblue" points="1315.81,-343.993 1321.71,-335.189 1311.61,-338.396 1315.81,-343.993"/>
</g>
<!-- Node5 -->
<g id="node5" class="node"><title>Node5</title>
<g id="a_node5"><a xlink:href="common_8h.html" target="_top" xlink:title="spdlog/common.h">
<polygon fill="none" stroke="black" points="1301,-192.5 1301,-211.5 1395,-211.5 1395,-192.5 1301,-192.5"/>
<text text-anchor="middle" x="1348" y="-199.5" font-family="Helvetica,sans-Serif" font-size="10.00">spdlog/common.h</text>
</a>
</g>
</g>
<!-- Node2&#45;&gt;Node5 -->
<g id="edge62" class="edge"><title>Node2&#45;&gt;Node5</title>
<path fill="none" stroke="midnightblue" d="M1394.35,-496.336C1401.62,-467.991 1422.06,-375.723 1401,-304 1391.75,-272.487 1372.24,-239.412 1359.64,-220.027"/>
<polygon fill="midnightblue" stroke="midnightblue" points="1362.54,-218.067 1354.09,-211.677 1356.71,-221.943 1362.54,-218.067"/>
</g>
<!-- Node35 -->
<g id="node35" class="node"><title>Node35</title>
<g id="a_node35"><a xlink:href="formatter_8h.html" target="_top" xlink:title="spdlog/formatter.h">
<polygon fill="none" stroke="black" points="532.5,-440.5 532.5,-459.5 627.5,-459.5 627.5,-440.5 532.5,-440.5"/>
<text text-anchor="middle" x="580" y="-447.5" font-family="Helvetica,sans-Serif" font-size="10.00">spdlog/formatter.h</text>
</a>
</g>
</g>
<!-- Node2&#45;&gt;Node35 -->
<g id="edge44" class="edge"><title>Node2&#45;&gt;Node35</title>
<path fill="none" stroke="midnightblue" d="M1328.28,-500.763C1174.57,-490.541 785.227,-464.648 637.786,-454.843"/>
<polygon fill="midnightblue" stroke="midnightblue" points="637.805,-451.337 627.595,-454.165 637.34,-458.321 637.805,-451.337"/>
</g>
<!-- Node2&#45;&gt;Node37 -->
<g id="edge64" class="edge"><title>Node2&#45;&gt;Node37</title>
<path fill="none" stroke="midnightblue" d="M1403.67,-496.388C1414.41,-488.013 1430.26,-474.468 1441,-460 1470.04,-420.881 1491.63,-367.195 1501.7,-339.38"/>
<polygon fill="midnightblue" stroke="midnightblue" points="1505.07,-340.36 1505.1,-329.765 1498.47,-338.031 1505.07,-340.36"/>
</g>
<!-- Node3&#45;&gt;Node4 -->
<g id="edge3" class="edge"><title>Node3&#45;&gt;Node4</title>
<path fill="none" stroke="midnightblue" d="M1347.74,-378.372C1347.48,-369.971 1347.09,-356.811 1346.73,-345.213"/>
<polygon fill="midnightblue" stroke="midnightblue" points="1350.23,-345.071 1346.43,-335.181 1343.23,-345.283 1350.23,-345.071"/>
</g>
<!-- Node4&#45;&gt;Node5 -->
<g id="edge4" class="edge"><title>Node4&#45;&gt;Node5</title>
<path fill="none" stroke="midnightblue" d="M1346.25,-304.776C1346.6,-283.971 1347.27,-245.198 1347.67,-221.981"/>
<polygon fill="midnightblue" stroke="midnightblue" points="1351.18,-221.766 1347.85,-211.707 1344.18,-221.645 1351.18,-221.766"/>
</g>
<!-- Node6 -->
<g id="node6" class="node"><title>Node6</title>
<polygon fill="none" stroke="#bfbfbf" points="1263.5,-0.5 1263.5,-19.5 1304.5,-19.5 1304.5,-0.5 1263.5,-0.5"/>
<text text-anchor="middle" x="1284" y="-7.5" font-family="Helvetica,sans-Serif" font-size="10.00">string</text>
</g>
<!-- Node4&#45;&gt;Node6 -->
<g id="edge42" class="edge"><title>Node4&#45;&gt;Node6</title>
<path fill="none" stroke="midnightblue" d="M1384.53,-304.939C1438.81,-282.778 1535.66,-234.038 1576,-156 1582.53,-143.366 1580.74,-137.408 1576,-124 1563.04,-87.3553 1554.36,-75.957 1521,-56 1455.32,-16.701 1362.62,-10.579 1314.96,-10.2925"/>
<polygon fill="midnightblue" stroke="midnightblue" points="1314.67,-6.79318 1304.68,-10.3189 1314.69,-13.7932 1314.67,-6.79318"/>
</g>
<!-- Node24 -->
<g id="node24" class="node"><title>Node24</title>
<polygon fill="none" stroke="#bfbfbf" points="655,-0.5 655,-19.5 695,-19.5 695,-0.5 655,-0.5"/>
<text text-anchor="middle" x="675" y="-7.5" font-family="Helvetica,sans-Serif" font-size="10.00">utility</text>
</g>
<!-- Node4&#45;&gt;Node24 -->
<g id="edge43" class="edge"><title>Node4&#45;&gt;Node24</title>
<path fill="none" stroke="midnightblue" d="M1299.98,-316.354C1137.87,-306.563 600.427,-269.925 552,-212 498.999,-148.603 606.202,-60.121 653.803,-25.6031"/>
<polygon fill="midnightblue" stroke="midnightblue" points="656.087,-28.2731 662.204,-19.6227 652.028,-22.5702 656.087,-28.2731"/>
</g>
<!-- Node26 -->
<g id="node26" class="node"><title>Node26</title>
<g id="a_node26"><a xlink:href="os_8h.html" target="_top" xlink:title="spdlog/details/os.h">
<polygon fill="none" stroke="black" points="872,-248.5 872,-267.5 970,-267.5 970,-248.5 872,-248.5"/>
<text text-anchor="middle" x="921" y="-255.5" font-family="Helvetica,sans-Serif" font-size="10.00">spdlog/details/os.h</text>
</a>
</g>
</g>
<!-- Node4&#45;&gt;Node26 -->
<g id="edge28" class="edge"><title>Node4&#45;&gt;Node26</title>
<path fill="none" stroke="midnightblue" d="M1299.71,-312.465C1222.08,-301.505 1065.77,-279.439 980.244,-267.364"/>
<polygon fill="midnightblue" stroke="midnightblue" points="980.565,-263.875 970.174,-265.942 979.586,-270.806 980.565,-263.875"/>
</g>
<!-- Node5&#45;&gt;Node6 -->
<g id="edge5" class="edge"><title>Node5&#45;&gt;Node6</title>
<path fill="none" stroke="midnightblue" d="M1358.71,-192.305C1367.94,-184.069 1380.59,-170.789 1386,-156 1390.89,-142.643 1391.11,-137.274 1386,-124 1369.62,-81.4137 1328.94,-44.8742 1304.19,-25.5941"/>
<polygon fill="midnightblue" stroke="midnightblue" points="1306.25,-22.7626 1296.17,-19.5127 1302.02,-28.3418 1306.25,-22.7626"/>
</g>
<!-- Node7 -->
<g id="node7" class="node"><title>Node7</title>
<polygon fill="none" stroke="#bfbfbf" points="1227.5,-130.5 1227.5,-149.5 1300.5,-149.5 1300.5,-130.5 1227.5,-130.5"/>
<text text-anchor="middle" x="1264" y="-137.5" font-family="Helvetica,sans-Serif" font-size="10.00">initializer_list</text>
</g>
<!-- Node5&#45;&gt;Node7 -->
<g id="edge6" class="edge"><title>Node5&#45;&gt;Node7</title>
<path fill="none" stroke="midnightblue" d="M1335.96,-192.403C1322.49,-182.78 1300.43,-167.024 1284.28,-155.489"/>
<polygon fill="midnightblue" stroke="midnightblue" points="1286.18,-152.545 1276.01,-149.581 1282.12,-158.241 1286.18,-152.545"/>
</g>
<!-- Node8 -->
<g id="node8" class="node"><title>Node8</title>
<polygon fill="none" stroke="#bfbfbf" points="708,-130.5 708,-149.5 754,-149.5 754,-130.5 708,-130.5"/>
<text text-anchor="middle" x="731" y="-137.5" font-family="Helvetica,sans-Serif" font-size="10.00">chrono</text>
</g>
<!-- Node5&#45;&gt;Node8 -->
<g id="edge7" class="edge"><title>Node5&#45;&gt;Node8</title>
<path fill="none" stroke="midnightblue" d="M1300.86,-196.416C1181.15,-184.775 867.581,-154.282 764.428,-144.251"/>
<polygon fill="midnightblue" stroke="midnightblue" points="764.577,-140.749 754.285,-143.264 763.899,-147.716 764.577,-140.749"/>
</g>
<!-- Node9 -->
<g id="node9" class="node"><title>Node9</title>
<polygon fill="none" stroke="#bfbfbf" points="0,-0.5 0,-19.5 52,-19.5 52,-0.5 0,-0.5"/>
<text text-anchor="middle" x="26" y="-7.5" font-family="Helvetica,sans-Serif" font-size="10.00">memory</text>
</g>
<!-- Node5&#45;&gt;Node9 -->
<g id="edge8" class="edge"><title>Node5&#45;&gt;Node9</title>
<path fill="none" stroke="midnightblue" d="M1321.93,-192.494C1295.57,-183.77 1253.72,-169.589 1218,-156 1183.36,-142.822 1177.18,-132.024 1141,-124 774.454,-42.7071 664.248,-166.059 297,-88 259.138,-79.9524 252.953,-67.5212 216,-56 151.516,-35.8953 131.483,-36.6869 62.4346,-20.2811"/>
<polygon fill="midnightblue" stroke="midnightblue" points="62.8988,-16.7926 52.3566,-17.848 61.256,-23.5971 62.8988,-16.7926"/>
</g>
<!-- Node10 -->
<g id="node10" class="node"><title>Node10</title>
<polygon fill="none" stroke="#bfbfbf" points="1466,-62.5 1466,-81.5 1512,-81.5 1512,-62.5 1466,-62.5"/>
<text text-anchor="middle" x="1489" y="-69.5" font-family="Helvetica,sans-Serif" font-size="10.00">atomic</text>
</g>
<!-- Node5&#45;&gt;Node10 -->
<g id="edge9" class="edge"><title>Node5&#45;&gt;Node10</title>
<path fill="none" stroke="midnightblue" d="M1365.04,-192.373C1380.32,-184.184 1402.9,-170.933 1420,-156 1443.08,-135.846 1464.82,-107.58 1477.52,-89.7841"/>
<polygon fill="midnightblue" stroke="midnightblue" points="1480.43,-91.7306 1483.3,-81.5311 1474.7,-87.7164 1480.43,-91.7306"/>
</g>
<!-- Node11 -->
<g id="node11" class="node"><title>Node11</title>
<polygon fill="none" stroke="#bfbfbf" points="1318.5,-130.5 1318.5,-149.5 1377.5,-149.5 1377.5,-130.5 1318.5,-130.5"/>
<text text-anchor="middle" x="1348" y="-137.5" font-family="Helvetica,sans-Serif" font-size="10.00">exception</text>
</g>
<!-- Node5&#45;&gt;Node11 -->
<g id="edge10" class="edge"><title>Node5&#45;&gt;Node11</title>
<path fill="none" stroke="midnightblue" d="M1348,-192.403C1348,-183.938 1348,-170.728 1348,-159.82"/>
<polygon fill="midnightblue" stroke="midnightblue" points="1351.5,-159.581 1348,-149.581 1344.5,-159.581 1351.5,-159.581"/>
</g>
<!-- Node12 -->
<g id="node12" class="node"><title>Node12</title>
<polygon fill="none" stroke="#bfbfbf" points="1073.5,-130.5 1073.5,-149.5 1132.5,-149.5 1132.5,-130.5 1073.5,-130.5"/>
<text text-anchor="middle" x="1103" y="-137.5" font-family="Helvetica,sans-Serif" font-size="10.00">functional</text>
</g>
<!-- Node5&#45;&gt;Node12 -->
<g id="edge11" class="edge"><title>Node5&#45;&gt;Node12</title>
<path fill="none" stroke="midnightblue" d="M1313.16,-192.467C1268.11,-181.435 1189.85,-162.27 1142.6,-150.698"/>
<polygon fill="midnightblue" stroke="midnightblue" points="1143.27,-147.259 1132.73,-148.28 1141.61,-154.058 1143.27,-147.259"/>
</g>
<!-- Node5&#45;&gt;Node13 -->
<g id="edge12" class="edge"><title>Node5&#45;&gt;Node13</title>
<path fill="none" stroke="midnightblue" d="M1372.64,-192.403C1397.98,-183.564 1438.15,-169.553 1470.15,-158.39"/>
<polygon fill="midnightblue" stroke="midnightblue" points="1471.5,-161.624 1479.79,-155.025 1469.2,-155.014 1471.5,-161.624"/>
</g>
<!-- Node14 -->
<g id="node14" class="node"><title>Node14</title>
<g id="a_node14"><a xlink:href="fmt_8h.html" target="_top" xlink:title="spdlog/fmt/fmt.h">
<polygon fill="none" stroke="black" points="356,-130.5 356,-149.5 444,-149.5 444,-130.5 356,-130.5"/>
<text text-anchor="middle" x="400" y="-137.5" font-family="Helvetica,sans-Serif" font-size="10.00">spdlog/fmt/fmt.h</text>
</a>
</g>
</g>
<!-- Node5&#45;&gt;Node14 -->
<g id="edge14" class="edge"><title>Node5&#45;&gt;Node14</title>
<path fill="none" stroke="midnightblue" d="M1300.99,-198.025C1141.89,-187.955 624.192,-155.189 454.448,-144.446"/>
<polygon fill="midnightblue" stroke="midnightblue" points="454.451,-140.939 444.25,-143.801 454.009,-147.925 454.451,-140.939"/>
</g>
<!-- Node13&#45;&gt;Node10 -->
<g id="edge13" class="edge"><title>Node13&#45;&gt;Node10</title>
<path fill="none" stroke="midnightblue" d="M1513.27,-124.679C1508.63,-114.796 1502.42,-101.579 1497.45,-90.9864"/>
<polygon fill="midnightblue" stroke="midnightblue" points="1500.57,-89.3916 1493.15,-81.8283 1494.23,-92.3676 1500.57,-89.3916"/>
</g>
<!-- Node15 -->
<g id="node15" class="node"><title>Node15</title>
<g id="a_node15"><a xlink:href="format_8h.html" target="_top" xlink:title="spdlog/fmt/bundled\l/format.h">
<polygon fill="none" stroke="black" points="306.5,-57 306.5,-87 405.5,-87 405.5,-57 306.5,-57"/>
<text text-anchor="start" x="314.5" y="-75" font-family="Helvetica,sans-Serif" font-size="10.00">spdlog/fmt/bundled</text>
<text text-anchor="middle" x="356" y="-64" font-family="Helvetica,sans-Serif" font-size="10.00">/format.h</text>
</a>
</g>
</g>
<!-- Node14&#45;&gt;Node15 -->
<g id="edge15" class="edge"><title>Node14&#45;&gt;Node15</title>
<path fill="none" stroke="midnightblue" d="M394.248,-130.372C388.419,-121.629 379.153,-107.729 371.2,-95.8006"/>
<polygon fill="midnightblue" stroke="midnightblue" points="373.914,-93.5605 365.454,-87.1815 368.089,-97.4434 373.914,-93.5605"/>
</g>
<!-- Node15&#45;&gt;Node6 -->
<g id="edge24" class="edge"><title>Node15&#45;&gt;Node6</title>
<path fill="none" stroke="midnightblue" d="M405.565,-67.7954C573.417,-56.9428 1117.5,-21.7653 1253.15,-12.9949"/>
<polygon fill="midnightblue" stroke="midnightblue" points="1253.5,-16.4795 1263.25,-12.3415 1253.05,-9.49404 1253.5,-16.4795"/>
</g>
<!-- Node15&#45;&gt;Node9 -->
<g id="edge22" class="edge"><title>Node15&#45;&gt;Node9</title>
<path fill="none" stroke="midnightblue" d="M306.465,-59.0002C301.588,-57.9361 296.705,-56.9166 292,-56 193.099,-36.7321 164.487,-40.6932 62.1171,-20.0627"/>
<polygon fill="midnightblue" stroke="midnightblue" points="62.808,-16.6317 52.3095,-18.0572 61.4056,-23.4897 62.808,-16.6317"/>
</g>
<!-- Node16 -->
<g id="node16" class="node"><title>Node16</title>
<polygon fill="none" stroke="#bfbfbf" points="398.5,-0.5 398.5,-19.5 447.5,-19.5 447.5,-0.5 398.5,-0.5"/>
<text text-anchor="middle" x="423" y="-7.5" font-family="Helvetica,sans-Serif" font-size="10.00">cassert</text>
</g>
<!-- Node15&#45;&gt;Node16 -->
<g id="edge16" class="edge"><title>Node15&#45;&gt;Node16</title>
<path fill="none" stroke="midnightblue" d="M371.878,-56.7808C382.015,-47.7026 395.162,-35.9291 405.585,-26.5951"/>
<polygon fill="midnightblue" stroke="midnightblue" points="408.136,-29.0091 413.251,-19.7305 403.466,-23.7944 408.136,-29.0091"/>
</g>
<!-- Node17 -->
<g id="node17" class="node"><title>Node17</title>
<polygon fill="none" stroke="#bfbfbf" points="465.5,-0.5 465.5,-19.5 512.5,-19.5 512.5,-0.5 465.5,-0.5"/>
<text text-anchor="middle" x="489" y="-7.5" font-family="Helvetica,sans-Serif" font-size="10.00">clocale</text>
</g>
<!-- Node15&#45;&gt;Node17 -->
<g id="edge17" class="edge"><title>Node15&#45;&gt;Node17</title>
<path fill="none" stroke="midnightblue" d="M387.183,-56.9327C409.421,-46.9004 439.082,-33.5193 460.652,-23.7888"/>
<polygon fill="midnightblue" stroke="midnightblue" points="462.261,-26.9027 469.937,-19.6 459.382,-20.5219 462.261,-26.9027"/>
</g>
<!-- Node18 -->
<g id="node18" class="node"><title>Node18</title>
<polygon fill="none" stroke="#bfbfbf" points="531,-0.5 531,-19.5 575,-19.5 575,-0.5 531,-0.5"/>
<text text-anchor="middle" x="553" y="-7.5" font-family="Helvetica,sans-Serif" font-size="10.00">cmath</text>
</g>
<!-- Node15&#45;&gt;Node18 -->
<g id="edge18" class="edge"><title>Node15&#45;&gt;Node18</title>
<path fill="none" stroke="midnightblue" d="M402.188,-56.9327C438.72,-45.806 488.777,-30.5602 521.007,-20.744"/>
<polygon fill="midnightblue" stroke="midnightblue" points="522.259,-24.0215 530.805,-17.7598 520.219,-17.3252 522.259,-24.0215"/>
</g>
<!-- Node19 -->
<g id="node19" class="node"><title>Node19</title>
<polygon fill="none" stroke="#bfbfbf" points="70.5,-0.5 70.5,-19.5 113.5,-19.5 113.5,-0.5 70.5,-0.5"/>
<text text-anchor="middle" x="92" y="-7.5" font-family="Helvetica,sans-Serif" font-size="10.00">cstdio</text>
</g>
<!-- Node15&#45;&gt;Node19 -->
<g id="edge19" class="edge"><title>Node15&#45;&gt;Node19</title>
<path fill="none" stroke="midnightblue" d="M306.409,-59.2721C301.543,-58.1529 296.678,-57.0462 292,-56 220.129,-39.9245 199.179,-38.788 123.628,-20.0052"/>
<polygon fill="midnightblue" stroke="midnightblue" points="124.177,-16.5346 113.626,-17.4958 122.473,-23.3242 124.177,-16.5346"/>
</g>
<!-- Node20 -->
<g id="node20" class="node"><title>Node20</title>
<polygon fill="none" stroke="#bfbfbf" points="132,-0.5 132,-19.5 178,-19.5 178,-0.5 132,-0.5"/>
<text text-anchor="middle" x="155" y="-7.5" font-family="Helvetica,sans-Serif" font-size="10.00">cstring</text>
</g>
<!-- Node15&#45;&gt;Node20 -->
<g id="edge20" class="edge"><title>Node15&#45;&gt;Node20</title>
<path fill="none" stroke="midnightblue" d="M308.874,-56.9327C271.649,-45.8207 220.661,-30.6002 187.772,-20.7827"/>
<polygon fill="midnightblue" stroke="midnightblue" points="188.765,-17.4265 178.181,-17.9198 186.762,-24.134 188.765,-17.4265"/>
</g>
<!-- Node21 -->
<g id="node21" class="node"><title>Node21</title>
<polygon fill="none" stroke="#bfbfbf" points="196,-0.5 196,-19.5 236,-19.5 236,-0.5 196,-0.5"/>
<text text-anchor="middle" x="216" y="-7.5" font-family="Helvetica,sans-Serif" font-size="10.00">limits</text>
</g>
<!-- Node15&#45;&gt;Node21 -->
<g id="edge21" class="edge"><title>Node15&#45;&gt;Node21</title>
<path fill="none" stroke="midnightblue" d="M323.176,-56.9327C299.662,-46.8552 268.263,-33.3986 245.534,-23.6575"/>
<polygon fill="midnightblue" stroke="midnightblue" points="246.637,-20.3223 236.067,-19.6 243.879,-26.7563 246.637,-20.3223"/>
</g>
<!-- Node22 -->
<g id="node22" class="node"><title>Node22</title>
<polygon fill="none" stroke="#bfbfbf" points="254.5,-0.5 254.5,-19.5 313.5,-19.5 313.5,-0.5 254.5,-0.5"/>
<text text-anchor="middle" x="284" y="-7.5" font-family="Helvetica,sans-Serif" font-size="10.00">stdexcept</text>
</g>
<!-- Node15&#45;&gt;Node22 -->
<g id="edge23" class="edge"><title>Node15&#45;&gt;Node22</title>
<path fill="none" stroke="midnightblue" d="M338.937,-56.7808C327.935,-47.6127 313.635,-35.6957 302.382,-26.3186"/>
<polygon fill="midnightblue" stroke="midnightblue" points="304.4,-23.4436 294.477,-19.7305 299.918,-28.8212 304.4,-23.4436"/>
</g>
<!-- Node23 -->
<g id="node23" class="node"><title>Node23</title>
<polygon fill="none" stroke="#bfbfbf" points="593,-0.5 593,-19.5 637,-19.5 637,-0.5 593,-0.5"/>
<text text-anchor="middle" x="615" y="-7.5" font-family="Helvetica,sans-Serif" font-size="10.00">vector</text>
</g>
<!-- Node15&#45;&gt;Node23 -->
<g id="edge25" class="edge"><title>Node15&#45;&gt;Node23</title>
<path fill="none" stroke="midnightblue" d="M405.6,-59.3088C410.464,-58.1822 415.326,-57.0637 420,-56 489.373,-40.2102 509.415,-38.1976 582.93,-19.8966"/>
<polygon fill="midnightblue" stroke="midnightblue" points="583.815,-23.2831 592.664,-17.4567 582.113,-16.4931 583.815,-23.2831"/>
</g>
<!-- Node15&#45;&gt;Node24 -->
<g id="edge26" class="edge"><title>Node15&#45;&gt;Node24</title>
<path fill="none" stroke="midnightblue" d="M405.707,-64.0339C463.576,-55.508 561.844,-39.7394 645,-20 645.099,-19.9765 645.199,-19.9528 645.298,-19.9289"/>
<polygon fill="midnightblue" stroke="midnightblue" points="645.984,-23.3681 654.754,-17.4235 644.191,-16.6016 645.984,-23.3681"/>
</g>
<!-- Node25 -->
<g id="node25" class="node"><title>Node25</title>
<polygon fill="none" stroke="#bfbfbf" points="331.5,-0.5 331.5,-19.5 380.5,-19.5 380.5,-0.5 331.5,-0.5"/>
<text text-anchor="middle" x="356" y="-7.5" font-family="Helvetica,sans-Serif" font-size="10.00">stdint.h</text>
</g>
<!-- Node15&#45;&gt;Node25 -->
<g id="edge27" class="edge"><title>Node15&#45;&gt;Node25</title>
<path fill="none" stroke="midnightblue" d="M356,-56.7808C356,-48.7812 356,-38.6887 356,-30.0168"/>
<polygon fill="midnightblue" stroke="midnightblue" points="359.5,-29.7305 356,-19.7305 352.5,-29.7306 359.5,-29.7305"/>
</g>
<!-- Node26&#45;&gt;Node5 -->
<g id="edge29" class="edge"><title>Node26&#45;&gt;Node5</title>
<path fill="none" stroke="midnightblue" d="M970.399,-250.753C1050.06,-240.679 1206.47,-220.898 1290.83,-210.23"/>
<polygon fill="midnightblue" stroke="midnightblue" points="1291.52,-213.671 1301,-208.944 1290.64,-206.727 1291.52,-213.671"/>
</g>
<!-- Node26&#45;&gt;Node6 -->
<g id="edge33" class="edge"><title>Node26&#45;&gt;Node6</title>
<path fill="none" stroke="midnightblue" d="M970.06,-255.605C1036.86,-252.554 1151.1,-242.845 1177,-212 1182.72,-205.192 1182.25,-199.176 1177,-192 1145.9,-149.446 1095.1,-198.554 1064,-156 1055.61,-144.518 1057.91,-136.854 1064,-124 1098.64,-50.8421 1201.56,-24.1534 1253.42,-15.1662"/>
<polygon fill="midnightblue" stroke="midnightblue" points="1254.06,-18.608 1263.37,-13.5513 1252.94,-11.6983 1254.06,-18.608"/>
</g>
<!-- Node26&#45;&gt;Node8 -->
<g id="edge34" class="edge"><title>Node26&#45;&gt;Node8</title>
<path fill="none" stroke="midnightblue" d="M871.788,-256.791C833.612,-253.954 781.975,-243.843 750,-212 736.322,-198.379 732.175,-176.062 731.071,-160.084"/>
<polygon fill="midnightblue" stroke="midnightblue" points="734.558,-159.656 730.712,-149.784 727.562,-159.9 734.558,-159.656"/>
</g>
<!-- Node26&#45;&gt;Node12 -->
<g id="edge32" class="edge"><title>Node26&#45;&gt;Node12</title>
<path fill="none" stroke="midnightblue" d="M970.285,-256.758C1044.77,-255.228 1180.58,-247.499 1211,-212 1216.78,-205.25 1215.76,-199.508 1211,-192 1202.61,-178.761 1166.47,-163.373 1138.27,-152.991"/>
<polygon fill="midnightblue" stroke="midnightblue" points="1139.29,-149.635 1128.69,-149.539 1136.91,-156.221 1139.29,-149.635"/>
</g>
<!-- Node26&#45;&gt;Node19 -->
<g id="edge30" class="edge"><title>Node26&#45;&gt;Node19</title>
<path fill="none" stroke="midnightblue" d="M881.359,-248.436C843.341,-239.994 784.434,-226.311 734,-212 706.552,-204.212 700.884,-198.043 673,-192 530.537,-161.128 482.318,-210.203 347,-156 279.005,-128.764 280.278,-91.1204 216,-56 199.679,-47.0824 154.153,-31.3662 123.051,-21.068"/>
<polygon fill="midnightblue" stroke="midnightblue" points="124.108,-17.7313 113.515,-17.9303 121.92,-24.3806 124.108,-17.7313"/>
</g>
<!-- Node27 -->
<g id="node27" class="node"><title>Node27</title>
<polygon fill="none" stroke="#bfbfbf" points="561.5,-192.5 561.5,-211.5 602.5,-211.5 602.5,-192.5 561.5,-192.5"/>
<text text-anchor="middle" x="582" y="-199.5" font-family="Helvetica,sans-Serif" font-size="10.00">ctime</text>
</g>
<!-- Node26&#45;&gt;Node27 -->
<g id="edge31" class="edge"><title>Node26&#45;&gt;Node27</title>
<path fill="none" stroke="midnightblue" d="M871.896,-252.102C812.637,-245.692 709.881,-232.991 612.558,-211.811"/>
<polygon fill="midnightblue" stroke="midnightblue" points="613.072,-208.34 602.552,-209.599 611.561,-215.175 613.072,-208.34"/>
</g>
<!-- Node28 -->
<g id="node28" class="node"><title>Node28</title>
<polygon fill="none" stroke="#bfbfbf" points="621,-192.5 621,-211.5 665,-211.5 665,-192.5 621,-192.5"/>
<text text-anchor="middle" x="643" y="-199.5" font-family="Helvetica,sans-Serif" font-size="10.00">thread</text>
</g>
<!-- Node26&#45;&gt;Node28 -->
<g id="edge35" class="edge"><title>Node26&#45;&gt;Node28</title>
<path fill="none" stroke="midnightblue" d="M871.693,-248.741C822.665,-240.315 745.391,-226.457 679,-212 677.725,-211.722 676.427,-211.432 675.117,-211.134"/>
<polygon fill="midnightblue" stroke="midnightblue" points="675.573,-207.645 665.035,-208.735 673.953,-214.455 675.573,-207.645"/>
</g>
<!-- Node29 -->
<g id="node29" class="node"><title>Node29</title>
<polygon fill="none" stroke="#bfbfbf" points="759,-192.5 759,-211.5 805,-211.5 805,-192.5 759,-192.5"/>
<text text-anchor="middle" x="782" y="-199.5" font-family="Helvetica,sans-Serif" font-size="10.00">stdio.h</text>
</g>
<!-- Node26&#45;&gt;Node29 -->
<g id="edge36" class="edge"><title>Node26&#45;&gt;Node29</title>
<path fill="none" stroke="midnightblue" d="M898.975,-248.444C875.896,-239.478 839.438,-225.314 813.359,-215.183"/>
<polygon fill="midnightblue" stroke="midnightblue" points="814.511,-211.875 803.922,-211.516 811.976,-218.4 814.511,-211.875"/>
</g>
<!-- Node30 -->
<g id="node30" class="node"><title>Node30</title>
<polygon fill="none" stroke="#bfbfbf" points="823.5,-192.5 823.5,-211.5 872.5,-211.5 872.5,-192.5 823.5,-192.5"/>
<text text-anchor="middle" x="848" y="-199.5" font-family="Helvetica,sans-Serif" font-size="10.00">string.h</text>
</g>
<!-- Node26&#45;&gt;Node30 -->
<g id="edge37" class="edge"><title>Node26&#45;&gt;Node30</title>
<path fill="none" stroke="midnightblue" d="M909.271,-248.324C898.163,-240.107 881.258,-227.602 868.017,-217.807"/>
<polygon fill="midnightblue" stroke="midnightblue" points="870.063,-214.967 859.942,-211.834 865.9,-220.595 870.063,-214.967"/>
</g>
<!-- Node31 -->
<g id="node31" class="node"><title>Node31</title>
<polygon fill="none" stroke="#bfbfbf" points="891,-192.5 891,-211.5 951,-211.5 951,-192.5 891,-192.5"/>
<text text-anchor="middle" x="921" y="-199.5" font-family="Helvetica,sans-Serif" font-size="10.00">sys/stat.h</text>
</g>
<!-- Node26&#45;&gt;Node31 -->
<g id="edge38" class="edge"><title>Node26&#45;&gt;Node31</title>
<path fill="none" stroke="midnightblue" d="M921,-248.083C921,-241.006 921,-230.861 921,-221.986"/>
<polygon fill="midnightblue" stroke="midnightblue" points="924.5,-221.751 921,-211.751 917.5,-221.751 924.5,-221.751"/>
</g>
<!-- Node32 -->
<g id="node32" class="node"><title>Node32</title>
<polygon fill="none" stroke="#bfbfbf" points="969,-192.5 969,-211.5 1037,-211.5 1037,-192.5 969,-192.5"/>
<text text-anchor="middle" x="1003" y="-199.5" font-family="Helvetica,sans-Serif" font-size="10.00">sys/types.h</text>
</g>
<!-- Node26&#45;&gt;Node32 -->
<g id="edge39" class="edge"><title>Node26&#45;&gt;Node32</title>
<path fill="none" stroke="midnightblue" d="M934.175,-248.324C946.847,-239.979 966.233,-227.212 981.206,-217.352"/>
<polygon fill="midnightblue" stroke="midnightblue" points="983.431,-220.078 989.858,-211.655 979.581,-214.231 983.431,-220.078"/>
</g>
<!-- Node33 -->
<g id="node33" class="node"><title>Node33</title>
<polygon fill="none" stroke="#bfbfbf" points="1055.5,-192.5 1055.5,-211.5 1106.5,-211.5 1106.5,-192.5 1055.5,-192.5"/>
<text text-anchor="middle" x="1081" y="-199.5" font-family="Helvetica,sans-Serif" font-size="10.00">unistd.h</text>
</g>
<!-- Node26&#45;&gt;Node33 -->
<g id="edge40" class="edge"><title>Node26&#45;&gt;Node33</title>
<path fill="none" stroke="midnightblue" d="M946.352,-248.444C973.269,-239.359 1016,-224.939 1046.09,-214.783"/>
<polygon fill="midnightblue" stroke="midnightblue" points="1047.41,-218.031 1055.77,-211.516 1045.17,-211.398 1047.41,-218.031"/>
</g>
<!-- Node34 -->
<g id="node34" class="node"><title>Node34</title>
<polygon fill="none" stroke="#bfbfbf" points="1125,-192.5 1125,-211.5 1169,-211.5 1169,-192.5 1125,-192.5"/>
<text text-anchor="middle" x="1147" y="-199.5" font-family="Helvetica,sans-Serif" font-size="10.00">fcntl.h</text>
</g>
<!-- Node26&#45;&gt;Node34 -->
<g id="edge41" class="edge"><title>Node26&#45;&gt;Node34</title>
<path fill="none" stroke="midnightblue" d="M960.145,-248.478C997.348,-240.254 1055.09,-227.171 1114.69,-211.982"/>
<polygon fill="midnightblue" stroke="midnightblue" points="1115.84,-215.301 1124.66,-209.426 1114.1,-208.52 1115.84,-215.301"/>
</g>
<!-- Node35&#45;&gt;Node4 -->
<g id="edge45" class="edge"><title>Node35&#45;&gt;Node4</title>
<path fill="none" stroke="midnightblue" d="M627.772,-442.804C742.06,-427.665 1040.04,-386.33 1286,-336 1287.27,-335.74 1288.56,-335.47 1289.85,-335.194"/>
<polygon fill="midnightblue" stroke="midnightblue" points="1290.91,-338.545 1299.9,-332.95 1289.38,-331.713 1290.91,-338.545"/>
</g>
<!-- Node35&#45;&gt;Node6 -->
<g id="edge47" class="edge"><title>Node35&#45;&gt;Node6</title>
<path fill="none" stroke="midnightblue" d="M627.545,-445.154C707.391,-438.451 873.396,-423.463 1013,-404 1099.7,-391.913 1320.82,-371.131 1401,-336 1482.44,-300.316 1499.35,-278.834 1558,-212 1577.36,-189.939 1584.91,-184.213 1593,-156 1606.11,-110.297 1593.89,-83.3491 1555,-56 1516.65,-29.0289 1377.34,-16.9423 1314.78,-12.7866"/>
<polygon fill="midnightblue" stroke="midnightblue" points="1314.93,-9.28922 1304.73,-12.1437 1314.49,-16.2749 1314.93,-9.28922"/>
</g>
<!-- Node35&#45;&gt;Node9 -->
<g id="edge48" class="edge"><title>Node35&#45;&gt;Node9</title>
<path fill="none" stroke="midnightblue" d="M532.169,-446.552C409.811,-438.989 95,-410.806 95,-321 95,-321 95,-321 95,-139 95,-94.2566 61.9276,-50.1152 41.5764,-27.1883"/>
<polygon fill="midnightblue" stroke="midnightblue" points="44.0797,-24.7396 34.7389,-19.7395 38.9228,-29.4732 44.0797,-24.7396"/>
</g>
<!-- Node35&#45;&gt;Node23 -->
<g id="edge46" class="edge"><title>Node35&#45;&gt;Node23</title>
<path fill="none" stroke="midnightblue" d="M532.437,-448.726C450.165,-445.475 290,-425.701 290,-321 290,-321 290,-321 290,-201 290,-158.421 314.648,-151.681 347,-124 350.097,-121.351 473.244,-57.5816 477,-56 496.341,-47.8551 548.931,-31.2599 583.318,-20.658"/>
<polygon fill="midnightblue" stroke="midnightblue" points="584.389,-23.9906 592.92,-17.7075 582.333,-17.2994 584.389,-23.9906"/>
</g>
<!-- Node36 -->
<g id="node36" class="node"><title>Node36</title>
<g id="a_node36"><a xlink:href="pattern__formatter__impl_8h.html" target="_top" xlink:title="spdlog/details/pattern\l_formatter_impl.h">
<polygon fill="none" stroke="black" points="525,-373 525,-403 635,-403 635,-373 525,-373"/>
<text text-anchor="start" x="533" y="-391" font-family="Helvetica,sans-Serif" font-size="10.00">spdlog/details/pattern</text>
<text text-anchor="middle" x="580" y="-380" font-family="Helvetica,sans-Serif" font-size="10.00">_formatter_impl.h</text>
</a>
</g>
</g>
<!-- Node35&#45;&gt;Node36 -->
<g id="edge49" class="edge"><title>Node35&#45;&gt;Node36</title>
<path fill="none" stroke="midnightblue" d="M575.099,-440.403C573.572,-433.341 572.991,-422.975 573.356,-413.399"/>
<polygon fill="midnightblue" stroke="midnightblue" points="576.868,-413.386 574.17,-403.141 569.89,-412.832 576.868,-413.386"/>
</g>
<!-- Node36&#45;&gt;Node4 -->
<g id="edge51" class="edge"><title>Node36&#45;&gt;Node4</title>
<path fill="none" stroke="midnightblue" d="M635.187,-384.251C778.638,-376.906 1160.78,-356.02 1286,-336 1287.28,-335.795 1288.58,-335.576 1289.88,-335.344"/>
<polygon fill="midnightblue" stroke="midnightblue" points="1290.84,-338.723 1299.98,-333.359 1289.49,-331.854 1290.84,-338.723"/>
</g>
<!-- Node36&#45;&gt;Node6 -->
<g id="edge58" class="edge"><title>Node36&#45;&gt;Node6</title>
<path fill="none" stroke="midnightblue" d="M635.043,-380.617C777.843,-362.812 1154.14,-307.534 1227,-212 1232.39,-204.932 1228.09,-200.822 1227,-192 1223.28,-161.743 1210.04,-153.427 1218,-124 1228.18,-86.3897 1254.34,-48.4575 1270.5,-27.5139"/>
<polygon fill="midnightblue" stroke="midnightblue" points="1273.28,-29.6428 1276.74,-19.6288 1267.79,-25.2996 1273.28,-29.6428"/>
</g>
<!-- Node36&#45;&gt;Node8 -->
<g id="edge54" class="edge"><title>Node36&#45;&gt;Node8</title>
<path fill="none" stroke="midnightblue" d="M571.659,-372.769C552.494,-338.005 510.067,-247.549 552,-192 569.556,-168.743 651.223,-152.942 697.951,-145.635"/>
<polygon fill="midnightblue" stroke="midnightblue" points="698.549,-149.084 707.911,-144.123 697.499,-142.164 698.549,-149.084"/>
</g>
<!-- Node36&#45;&gt;Node9 -->
<g id="edge56" class="edge"><title>Node36&#45;&gt;Node9</title>
<path fill="none" stroke="midnightblue" d="M524.882,-380.602C484.089,-374.024 428.321,-361.046 385,-336 233.725,-248.54 248.665,-161.011 109,-56 92.1342,-43.319 71.2422,-32.0123 54.6382,-23.9044"/>
<polygon fill="midnightblue" stroke="midnightblue" points="55.9538,-20.6543 45.4204,-19.5141 52.9437,-26.9741 55.9538,-20.6543"/>
</g>
<!-- Node36&#45;&gt;Node14 -->
<g id="edge53" class="edge"><title>Node36&#45;&gt;Node14</title>
<path fill="none" stroke="midnightblue" d="M524.984,-378.189C479.398,-369.649 419.775,-355.178 405,-336 364.543,-283.486 383.033,-197.267 393.978,-159.593"/>
<polygon fill="midnightblue" stroke="midnightblue" points="397.472,-160.137 397.058,-149.55 390.779,-158.084 397.472,-160.137"/>
</g>
<!-- Node36&#45;&gt;Node23 -->
<g id="edge61" class="edge"><title>Node36&#45;&gt;Node23</title>
<path fill="none" stroke="midnightblue" d="M524.707,-381.365C495.251,-375.228 461.391,-362.47 443,-336 406.483,-283.441 431.177,-254.898 443,-192 445.996,-176.061 484.475,-67.41 496,-56 502.49,-49.5748 550.264,-32.6692 583.269,-21.5068"/>
<polygon fill="midnightblue" stroke="midnightblue" points="584.611,-24.7481 592.976,-18.245 582.382,-18.1127 584.611,-24.7481"/>
</g>
<!-- Node36&#45;&gt;Node24 -->
<g id="edge60" class="edge"><title>Node36&#45;&gt;Node24</title>
<path fill="none" stroke="midnightblue" d="M564.952,-372.857C555.845,-363.354 544.888,-350.039 539,-336 502.557,-249.106 508.136,-213.697 537,-124 548.027,-89.7332 553.972,-79.7762 581,-56 599.71,-39.5405 625.497,-27.7663 645.329,-20.4002"/>
<polygon fill="midnightblue" stroke="midnightblue" points="646.551,-23.6806 654.809,-17.0428 644.214,-17.0822 646.551,-23.6806"/>
</g>
<!-- Node36&#45;&gt;Node26 -->
<g id="edge52" class="edge"><title>Node36&#45;&gt;Node26</title>
<path fill="none" stroke="midnightblue" d="M617.468,-372.936C684.801,-347.661 825.146,-294.98 888.604,-271.16"/>
<polygon fill="midnightblue" stroke="midnightblue" points="889.974,-274.385 898.106,-267.594 887.514,-267.831 889.974,-274.385"/>
</g>
<!-- Node36&#45;&gt;Node27 -->
<g id="edge55" class="edge"><title>Node36&#45;&gt;Node27</title>
<path fill="none" stroke="midnightblue" d="M580.154,-372.867C580.509,-340.216 581.386,-259.497 581.79,-222.317"/>
<polygon fill="midnightblue" stroke="midnightblue" points="585.294,-221.929 581.903,-211.891 578.295,-221.853 585.294,-221.929"/>
</g>
<!-- Node36&#45;&gt;Node28 -->
<g id="edge59" class="edge"><title>Node36&#45;&gt;Node28</title>
<path fill="none" stroke="midnightblue" d="M584.839,-372.867C596.115,-339.933 624.136,-258.096 636.713,-221.361"/>
<polygon fill="midnightblue" stroke="midnightblue" points="640.028,-222.486 639.956,-211.891 633.405,-220.218 640.028,-222.486"/>
</g>
<!-- Node36&#45;&gt;Node35 -->
<g id="edge50" class="edge"><title>Node36&#45;&gt;Node35</title>
<path fill="none" stroke="midnightblue" d="M585.83,-403.141C586.873,-411.272 587.029,-421.585 586.299,-430.371"/>
<polygon fill="midnightblue" stroke="midnightblue" points="582.815,-430.016 584.901,-440.403 589.748,-430.982 582.815,-430.016"/>
</g>
<!-- Node36&#45;&gt;Node37 -->
<g id="edge57" class="edge"><title>Node36&#45;&gt;Node37</title>
<path fill="none" stroke="midnightblue" d="M635.375,-385.038C767.89,-380.02 1113.63,-365.025 1401,-336 1426.23,-333.452 1454.64,-329.413 1475.85,-326.168"/>
<polygon fill="midnightblue" stroke="midnightblue" points="1476.58,-329.596 1485.93,-324.602 1475.51,-322.679 1476.58,-329.596"/>
</g>
</g>
</svg>
