<?xml version="1.0" encoding="UTF-8" standalone="no"?>
<!DOCTYPE svg PUBLIC "-//W3C//DTD SVG 1.1//EN"
 "http://www.w3.org/Graphics/SVG/1.1/DTD/svg11.dtd">
<!-- Generated by graphviz version 2.36.0 (20140111.2315)
 -->
<!-- Title: /home/lucamuratore/advr&#45;superbuild/external/XBotInterface/include/spdlog/details/os.h Pages: 1 -->
<svg width="1243pt" height="310pt"
 viewBox="0.00 0.00 1242.76 310.00" xmlns="http://www.w3.org/2000/svg" xmlns:xlink="http://www.w3.org/1999/xlink">
<g id="graph0" class="graph" transform="scale(1 1) rotate(0) translate(4 306)">
<title>/home/lucamuratore/advr&#45;superbuild/external/XBotInterface/include/spdlog/details/os.h</title>
<!-- Node1 -->
<g id="node1" class="node"><title>Node1</title>
<polygon fill="#bfbfbf" stroke="black" points="712.264,-249 712.264,-301 857.264,-301 857.264,-249 712.264,-249"/>
<text text-anchor="start" x="720.264" y="-289" font-family="Helvetica,sans-Serif" font-size="10.00">/home/lucamuratore</text>
<text text-anchor="start" x="720.264" y="-278" font-family="Helvetica,sans-Serif" font-size="10.00">/advr&#45;superbuild/external</text>
<text text-anchor="start" x="720.264" y="-267" font-family="Helvetica,sans-Serif" font-size="10.00">/XBotInterface/include/spdlog</text>
<text text-anchor="middle" x="784.764" y="-256" font-family="Helvetica,sans-Serif" font-size="10.00">/details/os.h</text>
</g>
<!-- Node2 -->
<g id="node2" class="node"><title>Node2</title>
<g id="a_node2"><a xlink:href="common_8h.html" target="_top" xlink:title="spdlog/common.h">
<polygon fill="none" stroke="black" points="217.764,-192.5 217.764,-211.5 311.764,-211.5 311.764,-192.5 217.764,-192.5"/>
<text text-anchor="middle" x="264.764" y="-199.5" font-family="Helvetica,sans-Serif" font-size="10.00">spdlog/common.h</text>
</a>
</g>
</g>
<!-- Node1&#45;&gt;Node2 -->
<g id="edge1" class="edge"><title>Node1&#45;&gt;Node2</title>
<path fill="none" stroke="midnightblue" d="M712.186,-264.09C607.766,-249.833 417.266,-223.822 322.083,-210.826"/>
<polygon fill="midnightblue" stroke="midnightblue" points="322.448,-207.344 312.067,-209.459 321.501,-214.279 322.448,-207.344"/>
</g>
<!-- Node3 -->
<g id="node3" class="node"><title>Node3</title>
<polygon fill="none" stroke="#bfbfbf" points="78.2637,-0.5 78.2637,-19.5 119.264,-19.5 119.264,-0.5 78.2637,-0.5"/>
<text text-anchor="middle" x="98.7637" y="-7.5" font-family="Helvetica,sans-Serif" font-size="10.00">string</text>
</g>
<!-- Node1&#45;&gt;Node3 -->
<g id="edge28" class="edge"><title>Node1&#45;&gt;Node3</title>
<path fill="none" stroke="midnightblue" d="M739.695,-248.924C722.879,-238.559 704.15,-225.749 688.764,-212 651.082,-178.329 659.911,-150.307 616.764,-124 605.716,-117.264 201.66,-35.4563 129.466,-19.7229"/>
<polygon fill="midnightblue" stroke="midnightblue" points="129.887,-16.229 119.359,-17.4192 128.331,-23.054 129.887,-16.229"/>
</g>
<!-- Node5 -->
<g id="node5" class="node"><title>Node5</title>
<polygon fill="none" stroke="#bfbfbf" points="484.764,-130.5 484.764,-149.5 530.764,-149.5 530.764,-130.5 484.764,-130.5"/>
<text text-anchor="middle" x="507.764" y="-137.5" font-family="Helvetica,sans-Serif" font-size="10.00">chrono</text>
</g>
<!-- Node1&#45;&gt;Node5 -->
<g id="edge29" class="edge"><title>Node1&#45;&gt;Node5</title>
<path fill="none" stroke="midnightblue" d="M712.179,-254.986C677.948,-244.601 637.166,-230.132 602.764,-212 573.335,-196.489 543.214,-172.277 524.995,-156.525"/>
<polygon fill="midnightblue" stroke="midnightblue" points="526.883,-153.524 517.063,-149.547 522.259,-158.78 526.883,-153.524"/>
</g>
<!-- Node9 -->
<g id="node9" class="node"><title>Node9</title>
<polygon fill="none" stroke="#bfbfbf" points="549.264,-130.5 549.264,-149.5 608.264,-149.5 608.264,-130.5 549.264,-130.5"/>
<text text-anchor="middle" x="578.764" y="-137.5" font-family="Helvetica,sans-Serif" font-size="10.00">functional</text>
</g>
<!-- Node1&#45;&gt;Node9 -->
<g id="edge27" class="edge"><title>Node1&#45;&gt;Node9</title>
<path fill="none" stroke="midnightblue" d="M712.111,-257.228C682.101,-247.651 648.412,-233.201 622.764,-212 605.526,-197.751 593.089,-174.904 585.925,-158.988"/>
<polygon fill="midnightblue" stroke="midnightblue" points="589.108,-157.529 581.98,-149.691 582.664,-160.263 589.108,-157.529"/>
</g>
<!-- Node16 -->
<g id="node16" class="node"><title>Node16</title>
<polygon fill="none" stroke="#bfbfbf" points="790.264,-0.5 790.264,-19.5 833.264,-19.5 833.264,-0.5 790.264,-0.5"/>
<text text-anchor="middle" x="811.764" y="-7.5" font-family="Helvetica,sans-Serif" font-size="10.00">cstdio</text>
</g>
<!-- Node1&#45;&gt;Node16 -->
<g id="edge25" class="edge"><title>Node1&#45;&gt;Node16</title>
<path fill="none" stroke="midnightblue" d="M727.427,-248.999C705.232,-235.192 686.645,-215.953 693.764,-192 714.08,-123.636 769.304,-56.9828 796.38,-27.2067"/>
<polygon fill="midnightblue" stroke="midnightblue" points="798.996,-29.5328 803.218,-19.8154 793.858,-24.7791 798.996,-29.5328"/>
</g>
<!-- Node23 -->
<g id="node23" class="node"><title>Node23</title>
<polygon fill="none" stroke="#bfbfbf" points="703.264,-192.5 703.264,-211.5 744.264,-211.5 744.264,-192.5 703.264,-192.5"/>
<text text-anchor="middle" x="723.764" y="-199.5" font-family="Helvetica,sans-Serif" font-size="10.00">ctime</text>
</g>
<!-- Node1&#45;&gt;Node23 -->
<g id="edge26" class="edge"><title>Node1&#45;&gt;Node23</title>
<path fill="none" stroke="midnightblue" d="M763.086,-248.768C754.764,-239.083 745.484,-228.281 738.03,-219.605"/>
<polygon fill="midnightblue" stroke="midnightblue" points="740.459,-217.061 731.287,-211.757 735.149,-221.623 740.459,-217.061"/>
</g>
<!-- Node24 -->
<g id="node24" class="node"><title>Node24</title>
<polygon fill="none" stroke="#bfbfbf" points="762.764,-192.5 762.764,-211.5 806.764,-211.5 806.764,-192.5 762.764,-192.5"/>
<text text-anchor="middle" x="784.764" y="-199.5" font-family="Helvetica,sans-Serif" font-size="10.00">thread</text>
</g>
<!-- Node1&#45;&gt;Node24 -->
<g id="edge30" class="edge"><title>Node1&#45;&gt;Node24</title>
<path fill="none" stroke="midnightblue" d="M784.764,-248.768C784.764,-239.89 784.764,-230.074 784.764,-221.816"/>
<polygon fill="midnightblue" stroke="midnightblue" points="788.264,-221.757 784.764,-211.757 781.264,-221.757 788.264,-221.757"/>
</g>
<!-- Node25 -->
<g id="node25" class="node"><title>Node25</title>
<polygon fill="none" stroke="#bfbfbf" points="824.764,-192.5 824.764,-211.5 870.764,-211.5 870.764,-192.5 824.764,-192.5"/>
<text text-anchor="middle" x="847.764" y="-199.5" font-family="Helvetica,sans-Serif" font-size="10.00">stdio.h</text>
</g>
<!-- Node1&#45;&gt;Node25 -->
<g id="edge31" class="edge"><title>Node1&#45;&gt;Node25</title>
<path fill="none" stroke="midnightblue" d="M807.153,-248.768C815.836,-238.982 825.531,-228.056 833.27,-219.335"/>
<polygon fill="midnightblue" stroke="midnightblue" points="835.974,-221.56 839.993,-211.757 830.738,-216.914 835.974,-221.56"/>
</g>
<!-- Node26 -->
<g id="node26" class="node"><title>Node26</title>
<polygon fill="none" stroke="#bfbfbf" points="889.264,-192.5 889.264,-211.5 938.264,-211.5 938.264,-192.5 889.264,-192.5"/>
<text text-anchor="middle" x="913.764" y="-199.5" font-family="Helvetica,sans-Serif" font-size="10.00">string.h</text>
</g>
<!-- Node1&#45;&gt;Node26 -->
<g id="edge32" class="edge"><title>Node1&#45;&gt;Node26</title>
<path fill="none" stroke="midnightblue" d="M830.244,-248.968C850.012,-238.088 872.398,-225.767 889.014,-216.622"/>
<polygon fill="midnightblue" stroke="midnightblue" points="890.995,-219.527 898.068,-211.639 887.619,-213.394 890.995,-219.527"/>
</g>
<!-- Node27 -->
<g id="node27" class="node"><title>Node27</title>
<polygon fill="none" stroke="#bfbfbf" points="956.764,-192.5 956.764,-211.5 1016.76,-211.5 1016.76,-192.5 956.764,-192.5"/>
<text text-anchor="middle" x="986.764" y="-199.5" font-family="Helvetica,sans-Serif" font-size="10.00">sys/stat.h</text>
</g>
<!-- Node1&#45;&gt;Node27 -->
<g id="edge33" class="edge"><title>Node1&#45;&gt;Node27</title>
<path fill="none" stroke="midnightblue" d="M855.981,-248.968C888.816,-237.427 926.263,-224.265 952.648,-214.991"/>
<polygon fill="midnightblue" stroke="midnightblue" points="953.912,-218.257 962.185,-211.639 951.591,-211.653 953.912,-218.257"/>
</g>
<!-- Node28 -->
<g id="node28" class="node"><title>Node28</title>
<polygon fill="none" stroke="#bfbfbf" points="1034.76,-192.5 1034.76,-211.5 1102.76,-211.5 1102.76,-192.5 1034.76,-192.5"/>
<text text-anchor="middle" x="1068.76" y="-199.5" font-family="Helvetica,sans-Serif" font-size="10.00">sys/types.h</text>
</g>
<!-- Node1&#45;&gt;Node28 -->
<g id="edge34" class="edge"><title>Node1&#45;&gt;Node28</title>
<path fill="none" stroke="midnightblue" d="M857.532,-255.808C910.286,-242.619 979.919,-225.211 1024.53,-214.058"/>
<polygon fill="midnightblue" stroke="midnightblue" points="1025.63,-217.392 1034.48,-211.571 1023.93,-210.601 1025.63,-217.392"/>
</g>
<!-- Node29 -->
<g id="node29" class="node"><title>Node29</title>
<polygon fill="none" stroke="#bfbfbf" points="1121.26,-192.5 1121.26,-211.5 1172.26,-211.5 1172.26,-192.5 1121.26,-192.5"/>
<text text-anchor="middle" x="1146.76" y="-199.5" font-family="Helvetica,sans-Serif" font-size="10.00">unistd.h</text>
</g>
<!-- Node1&#45;&gt;Node29 -->
<g id="edge35" class="edge"><title>Node1&#45;&gt;Node29</title>
<path fill="none" stroke="midnightblue" d="M857.447,-261.601C921.624,-250.337 1017.92,-232.669 1111.29,-211.984"/>
<polygon fill="midnightblue" stroke="midnightblue" points="1112.2,-215.369 1121.2,-209.777 1110.67,-208.537 1112.2,-215.369"/>
</g>
<!-- Node30 -->
<g id="node30" class="node"><title>Node30</title>
<polygon fill="none" stroke="#bfbfbf" points="1190.76,-192.5 1190.76,-211.5 1234.76,-211.5 1234.76,-192.5 1190.76,-192.5"/>
<text text-anchor="middle" x="1212.76" y="-199.5" font-family="Helvetica,sans-Serif" font-size="10.00">fcntl.h</text>
</g>
<!-- Node1&#45;&gt;Node30 -->
<g id="edge36" class="edge"><title>Node1&#45;&gt;Node30</title>
<path fill="none" stroke="midnightblue" d="M857.504,-265.249C935.121,-255.316 1061.76,-237.406 1180.48,-211.812"/>
<polygon fill="midnightblue" stroke="midnightblue" points="1181.44,-215.184 1190.47,-209.635 1179.95,-208.344 1181.44,-215.184"/>
</g>
<!-- Node2&#45;&gt;Node3 -->
<g id="edge2" class="edge"><title>Node2&#45;&gt;Node3</title>
<path fill="none" stroke="midnightblue" d="M217.744,-199.623C151.713,-196.586 36.6591,-186.886 10.7637,-156 -25.3389,-112.939 41.2795,-53.5054 77.5384,-26.0352"/>
<polygon fill="midnightblue" stroke="midnightblue" points="80.0573,-28.5259 86.0216,-19.7693 75.8984,-22.8953 80.0573,-28.5259"/>
</g>
<!-- Node4 -->
<g id="node4" class="node"><title>Node4</title>
<polygon fill="none" stroke="#bfbfbf" points="20.2637,-130.5 20.2637,-149.5 93.2637,-149.5 93.2637,-130.5 20.2637,-130.5"/>
<text text-anchor="middle" x="56.7637" y="-137.5" font-family="Helvetica,sans-Serif" font-size="10.00">initializer_list</text>
</g>
<!-- Node2&#45;&gt;Node4 -->
<g id="edge3" class="edge"><title>Node2&#45;&gt;Node4</title>
<path fill="none" stroke="midnightblue" d="M234.648,-192.435C203.03,-183.427 151.876,-168.809 107.764,-156 103.725,-154.827 99.5092,-153.597 95.3061,-152.367"/>
<polygon fill="midnightblue" stroke="midnightblue" points="96.1939,-148.98 85.613,-149.523 94.2232,-155.697 96.1939,-148.98"/>
</g>
<!-- Node2&#45;&gt;Node5 -->
<g id="edge4" class="edge"><title>Node2&#45;&gt;Node5</title>
<path fill="none" stroke="midnightblue" d="M311.824,-193.904C354.897,-186.711 420.061,-174.059 474.764,-156 477.033,-155.251 479.355,-154.394 481.664,-153.478"/>
<polygon fill="midnightblue" stroke="midnightblue" points="483.111,-156.666 490.916,-149.502 480.347,-150.234 483.111,-156.666"/>
</g>
<!-- Node6 -->
<g id="node6" class="node"><title>Node6</title>
<polygon fill="none" stroke="#bfbfbf" points="137.764,-0.5 137.764,-19.5 189.764,-19.5 189.764,-0.5 137.764,-0.5"/>
<text text-anchor="middle" x="163.764" y="-7.5" font-family="Helvetica,sans-Serif" font-size="10.00">memory</text>
</g>
<!-- Node2&#45;&gt;Node6 -->
<g id="edge5" class="edge"><title>Node2&#45;&gt;Node6</title>
<path fill="none" stroke="midnightblue" d="M225.003,-192.495C204.937,-186.016 182.258,-174.868 169.764,-156 144.108,-117.255 152.306,-59.0746 158.894,-29.5745"/>
<polygon fill="midnightblue" stroke="midnightblue" points="162.315,-30.3157 161.266,-19.7729 155.512,-28.669 162.315,-30.3157"/>
</g>
<!-- Node7 -->
<g id="node7" class="node"><title>Node7</title>
<polygon fill="none" stroke="#bfbfbf" points="219.764,-62.5 219.764,-81.5 265.764,-81.5 265.764,-62.5 219.764,-62.5"/>
<text text-anchor="middle" x="242.764" y="-69.5" font-family="Helvetica,sans-Serif" font-size="10.00">atomic</text>
</g>
<!-- Node2&#45;&gt;Node7 -->
<g id="edge6" class="edge"><title>Node2&#45;&gt;Node7</title>
<path fill="none" stroke="midnightblue" d="M230.579,-192.493C211.77,-185.877 190.021,-174.596 178.764,-156 171.398,-143.833 172.591,-136.813 178.764,-124 186.503,-107.936 202.037,-95.3647 215.862,-86.7227"/>
<polygon fill="midnightblue" stroke="midnightblue" points="217.735,-89.6823 224.602,-81.6139 214.202,-83.6391 217.735,-89.6823"/>
</g>
<!-- Node8 -->
<g id="node8" class="node"><title>Node8</title>
<polygon fill="none" stroke="#bfbfbf" points="188.264,-130.5 188.264,-149.5 247.264,-149.5 247.264,-130.5 188.264,-130.5"/>
<text text-anchor="middle" x="217.764" y="-137.5" font-family="Helvetica,sans-Serif" font-size="10.00">exception</text>
</g>
<!-- Node2&#45;&gt;Node8 -->
<g id="edge7" class="edge"><title>Node2&#45;&gt;Node8</title>
<path fill="none" stroke="midnightblue" d="M258.03,-192.403C250.98,-183.403 239.729,-169.041 230.91,-157.782"/>
<polygon fill="midnightblue" stroke="midnightblue" points="233.407,-155.295 224.485,-149.581 227.897,-159.611 233.407,-155.295"/>
</g>
<!-- Node2&#45;&gt;Node9 -->
<g id="edge8" class="edge"><title>Node2&#45;&gt;Node9</title>
<path fill="none" stroke="midnightblue" d="M312.101,-196.241C367.4,-189.998 461.319,-177.262 539.764,-156 542.915,-155.146 546.163,-154.129 549.377,-153.032"/>
<polygon fill="midnightblue" stroke="midnightblue" points="550.597,-156.312 558.784,-149.587 548.19,-149.739 550.597,-156.312"/>
</g>
<!-- Node10 -->
<g id="node10" class="node"><title>Node10</title>
<g id="a_node10"><a xlink:href="null__mutex_8h.html" target="_top" xlink:title="spdlog/details/null\l_mutex.h">
<polygon fill="none" stroke="black" points="265.264,-125 265.264,-155 360.264,-155 360.264,-125 265.264,-125"/>
<text text-anchor="start" x="273.264" y="-143" font-family="Helvetica,sans-Serif" font-size="10.00">spdlog/details/null</text>
<text text-anchor="middle" x="312.764" y="-132" font-family="Helvetica,sans-Serif" font-size="10.00">_mutex.h</text>
</a>
</g>
</g>
<!-- Node2&#45;&gt;Node10 -->
<g id="edge9" class="edge"><title>Node2&#45;&gt;Node10</title>
<path fill="none" stroke="midnightblue" d="M271.641,-192.403C277.717,-184.809 286.847,-173.396 294.962,-163.252"/>
<polygon fill="midnightblue" stroke="midnightblue" points="297.937,-165.136 301.451,-155.141 292.471,-160.763 297.937,-165.136"/>
</g>
<!-- Node11 -->
<g id="node11" class="node"><title>Node11</title>
<g id="a_node11"><a xlink:href="fmt_8h.html" target="_top" xlink:title="spdlog/fmt/fmt.h">
<polygon fill="none" stroke="black" points="378.764,-130.5 378.764,-149.5 466.764,-149.5 466.764,-130.5 378.764,-130.5"/>
<text text-anchor="middle" x="422.764" y="-137.5" font-family="Helvetica,sans-Serif" font-size="10.00">spdlog/fmt/fmt.h</text>
</a>
</g>
</g>
<!-- Node2&#45;&gt;Node11 -->
<g id="edge11" class="edge"><title>Node2&#45;&gt;Node11</title>
<path fill="none" stroke="midnightblue" d="M287.401,-192.403C314.504,-182.111 360.074,-164.806 390.768,-153.15"/>
<polygon fill="midnightblue" stroke="midnightblue" points="392.062,-156.403 400.168,-149.581 389.577,-149.859 392.062,-156.403"/>
</g>
<!-- Node10&#45;&gt;Node7 -->
<g id="edge10" class="edge"><title>Node10&#45;&gt;Node7</title>
<path fill="none" stroke="midnightblue" d="M297.575,-124.679C286.336,-114.082 271.034,-99.6546 259.454,-88.7362"/>
<polygon fill="midnightblue" stroke="midnightblue" points="261.804,-86.1419 252.127,-81.8283 257.002,-91.235 261.804,-86.1419"/>
</g>
<!-- Node12 -->
<g id="node12" class="node"><title>Node12</title>
<g id="a_node12"><a xlink:href="format_8h.html" target="_top" xlink:title="spdlog/fmt/bundled\l/format.h">
<polygon fill="none" stroke="black" points="471.264,-57 471.264,-87 570.264,-87 570.264,-57 471.264,-57"/>
<text text-anchor="start" x="479.264" y="-75" font-family="Helvetica,sans-Serif" font-size="10.00">spdlog/fmt/bundled</text>
<text text-anchor="middle" x="520.764" y="-64" font-family="Helvetica,sans-Serif" font-size="10.00">/format.h</text>
</a>
</g>
</g>
<!-- Node11&#45;&gt;Node12 -->
<g id="edge12" class="edge"><title>Node11&#45;&gt;Node12</title>
<path fill="none" stroke="midnightblue" d="M435.576,-130.372C449.639,-120.9 472.69,-105.376 491.269,-92.8638"/>
<polygon fill="midnightblue" stroke="midnightblue" points="493.367,-95.6705 499.706,-87.1815 489.457,-89.8645 493.367,-95.6705"/>
</g>
<!-- Node12&#45;&gt;Node3 -->
<g id="edge21" class="edge"><title>Node12&#45;&gt;Node3</title>
<path fill="none" stroke="midnightblue" d="M470.921,-58.7038C466.152,-57.7126 461.375,-56.7905 456.764,-56 315.465,-31.7788 274.32,-48.4056 129.448,-19.7452"/>
<polygon fill="midnightblue" stroke="midnightblue" points="129.79,-16.2437 119.295,-17.6968 128.405,-23.1054 129.79,-16.2437"/>
</g>
<!-- Node12&#45;&gt;Node6 -->
<g id="edge19" class="edge"><title>Node12&#45;&gt;Node6</title>
<path fill="none" stroke="midnightblue" d="M471.244,-58.9215C466.364,-57.8733 461.476,-56.879 456.764,-56 346.062,-35.3486 314.079,-42.0539 199.893,-20.0296"/>
<polygon fill="midnightblue" stroke="midnightblue" points="200.551,-16.5921 190.064,-18.1028 199.204,-23.4613 200.551,-16.5921"/>
</g>
<!-- Node13 -->
<g id="node13" class="node"><title>Node13</title>
<polygon fill="none" stroke="#bfbfbf" points="208.264,-0.5 208.264,-19.5 257.264,-19.5 257.264,-0.5 208.264,-0.5"/>
<text text-anchor="middle" x="232.764" y="-7.5" font-family="Helvetica,sans-Serif" font-size="10.00">cassert</text>
</g>
<!-- Node12&#45;&gt;Node13 -->
<g id="edge13" class="edge"><title>Node12&#45;&gt;Node13</title>
<path fill="none" stroke="midnightblue" d="M471.198,-59.1563C466.327,-58.0606 461.453,-56.991 456.764,-56 375.383,-38.8025 351.686,-39.3142 267.577,-20.2849"/>
<polygon fill="midnightblue" stroke="midnightblue" points="268.105,-16.8153 257.576,-17.9955 266.543,-23.6388 268.105,-16.8153"/>
</g>
<!-- Node14 -->
<g id="node14" class="node"><title>Node14</title>
<polygon fill="none" stroke="#bfbfbf" points="275.264,-0.5 275.264,-19.5 322.264,-19.5 322.264,-0.5 275.264,-0.5"/>
<text text-anchor="middle" x="298.764" y="-7.5" font-family="Helvetica,sans-Serif" font-size="10.00">clocale</text>
</g>
<!-- Node12&#45;&gt;Node14 -->
<g id="edge14" class="edge"><title>Node12&#45;&gt;Node14</title>
<path fill="none" stroke="midnightblue" d="M471.012,-57.6141C435.127,-47.95 385.258,-34.5022 332.447,-20.1803"/>
<polygon fill="midnightblue" stroke="midnightblue" points="333.122,-16.737 322.555,-17.4966 331.289,-23.4928 333.122,-16.737"/>
</g>
<!-- Node15 -->
<g id="node15" class="node"><title>Node15</title>
<polygon fill="none" stroke="#bfbfbf" points="340.764,-0.5 340.764,-19.5 384.764,-19.5 384.764,-0.5 340.764,-0.5"/>
<text text-anchor="middle" x="362.764" y="-7.5" font-family="Helvetica,sans-Serif" font-size="10.00">cmath</text>
</g>
<!-- Node12&#45;&gt;Node15 -->
<g id="edge15" class="edge"><title>Node12&#45;&gt;Node15</title>
<path fill="none" stroke="midnightblue" d="M483.72,-56.9327C456.664,-46.6584 420.36,-32.872 394.604,-23.0913"/>
<polygon fill="midnightblue" stroke="midnightblue" points="395.543,-19.7039 384.951,-19.4257 393.057,-26.2479 395.543,-19.7039"/>
</g>
<!-- Node12&#45;&gt;Node16 -->
<g id="edge16" class="edge"><title>Node12&#45;&gt;Node16</title>
<path fill="none" stroke="midnightblue" d="M570.408,-62.6159C620.787,-53.8055 701.192,-38.9165 780.043,-19.9912"/>
<polygon fill="midnightblue" stroke="midnightblue" points="781.256,-23.2987 790.149,-17.5409 779.606,-16.4958 781.256,-23.2987"/>
</g>
<!-- Node17 -->
<g id="node17" class="node"><title>Node17</title>
<polygon fill="none" stroke="#bfbfbf" points="402.764,-0.5 402.764,-19.5 448.764,-19.5 448.764,-0.5 402.764,-0.5"/>
<text text-anchor="middle" x="425.764" y="-7.5" font-family="Helvetica,sans-Serif" font-size="10.00">cstring</text>
</g>
<!-- Node12&#45;&gt;Node17 -->
<g id="edge17" class="edge"><title>Node12&#45;&gt;Node17</title>
<path fill="none" stroke="midnightblue" d="M498.25,-56.7808C483.074,-47.1958 463.14,-34.6062 448.018,-25.0555"/>
<polygon fill="midnightblue" stroke="midnightblue" points="449.634,-21.9365 439.31,-19.5557 445.896,-27.8549 449.634,-21.9365"/>
</g>
<!-- Node18 -->
<g id="node18" class="node"><title>Node18</title>
<polygon fill="none" stroke="#bfbfbf" points="466.764,-0.5 466.764,-19.5 506.764,-19.5 506.764,-0.5 466.764,-0.5"/>
<text text-anchor="middle" x="486.764" y="-7.5" font-family="Helvetica,sans-Serif" font-size="10.00">limits</text>
</g>
<!-- Node12&#45;&gt;Node18 -->
<g id="edge18" class="edge"><title>Node12&#45;&gt;Node18</title>
<path fill="none" stroke="midnightblue" d="M512.706,-56.7808C507.918,-48.3318 501.808,-37.5481 496.72,-28.5693"/>
<polygon fill="midnightblue" stroke="midnightblue" points="499.686,-26.7052 491.711,-19.7305 493.596,-30.1563 499.686,-26.7052"/>
</g>
<!-- Node19 -->
<g id="node19" class="node"><title>Node19</title>
<polygon fill="none" stroke="#bfbfbf" points="525.264,-0.5 525.264,-19.5 584.264,-19.5 584.264,-0.5 525.264,-0.5"/>
<text text-anchor="middle" x="554.764" y="-7.5" font-family="Helvetica,sans-Serif" font-size="10.00">stdexcept</text>
</g>
<!-- Node12&#45;&gt;Node19 -->
<g id="edge20" class="edge"><title>Node12&#45;&gt;Node19</title>
<path fill="none" stroke="midnightblue" d="M528.821,-56.7808C533.609,-48.3318 539.72,-37.5481 544.808,-28.5693"/>
<polygon fill="midnightblue" stroke="midnightblue" points="547.931,-30.1563 549.816,-19.7305 541.841,-26.7052 547.931,-30.1563"/>
</g>
<!-- Node20 -->
<g id="node20" class="node"><title>Node20</title>
<polygon fill="none" stroke="#bfbfbf" points="602.764,-0.5 602.764,-19.5 646.764,-19.5 646.764,-0.5 602.764,-0.5"/>
<text text-anchor="middle" x="624.764" y="-7.5" font-family="Helvetica,sans-Serif" font-size="10.00">vector</text>
</g>
<!-- Node12&#45;&gt;Node20 -->
<g id="edge22" class="edge"><title>Node12&#45;&gt;Node20</title>
<path fill="none" stroke="midnightblue" d="M545.147,-56.9327C561.91,-47.2619 584.066,-34.4793 600.749,-24.8546"/>
<polygon fill="midnightblue" stroke="midnightblue" points="602.944,-27.629 609.857,-19.6 599.446,-21.5656 602.944,-27.629"/>
</g>
<!-- Node21 -->
<g id="node21" class="node"><title>Node21</title>
<polygon fill="none" stroke="#bfbfbf" points="664.764,-0.5 664.764,-19.5 704.764,-19.5 704.764,-0.5 664.764,-0.5"/>
<text text-anchor="middle" x="684.764" y="-7.5" font-family="Helvetica,sans-Serif" font-size="10.00">utility</text>
</g>
<!-- Node12&#45;&gt;Node21 -->
<g id="edge23" class="edge"><title>Node12&#45;&gt;Node21</title>
<path fill="none" stroke="midnightblue" d="M559.214,-56.9327C588.429,-46.2444 628.033,-31.7551 654.891,-21.9289"/>
<polygon fill="midnightblue" stroke="midnightblue" points="656.324,-25.1317 664.513,-18.4089 653.919,-18.5578 656.324,-25.1317"/>
</g>
<!-- Node22 -->
<g id="node22" class="node"><title>Node22</title>
<polygon fill="none" stroke="#bfbfbf" points="723.264,-0.5 723.264,-19.5 772.264,-19.5 772.264,-0.5 723.264,-0.5"/>
<text text-anchor="middle" x="747.764" y="-7.5" font-family="Helvetica,sans-Serif" font-size="10.00">stdint.h</text>
</g>
<!-- Node12&#45;&gt;Node22 -->
<g id="edge24" class="edge"><title>Node12&#45;&gt;Node22</title>
<path fill="none" stroke="midnightblue" d="M570.349,-57.9035C607.126,-48.1884 658.76,-34.5457 713.382,-20.1002"/>
<polygon fill="midnightblue" stroke="midnightblue" points="714.477,-23.4308 723.25,-17.4903 712.688,-16.6635 714.477,-23.4308"/>
</g>
</g>
</svg>
