<?xml version="1.0" encoding="UTF-8" standalone="no"?>
<!DOCTYPE svg PUBLIC "-//W3C//DTD SVG 1.1//EN"
 "http://www.w3.org/Graphics/SVG/1.1/DTD/svg11.dtd">
<!-- Generated by graphviz version 2.38.0 (20140413.2041)
 -->
<!-- Title: /home/lucamuratore/advr&#45;superbuild/external/XBotInterface/include/spdlog/details/os.h Pages: 1 -->
<svg width="1243pt" height="307pt"
 viewBox="0.00 0.00 1242.60 307.00" xmlns="http://www.w3.org/2000/svg" xmlns:xlink="http://www.w3.org/1999/xlink">
<g id="graph0" class="graph" transform="scale(1 1) rotate(0) translate(4 303)">
<title>/home/lucamuratore/advr&#45;superbuild/external/XBotInterface/include/spdlog/details/os.h</title>
<!-- Node1 -->
<g id="node1" class="node"><title>Node1</title>
<polygon fill="#bfbfbf" stroke="black" points="712.1,-246.5 712.1,-298.5 857.1,-298.5 857.1,-246.5 712.1,-246.5"/>
<text text-anchor="start" x="720.1" y="-286.5" font-family="Helvetica,sans-Serif" font-size="10.00">/home/lucamuratore</text>
<text text-anchor="start" x="720.1" y="-275.5" font-family="Helvetica,sans-Serif" font-size="10.00">/advr&#45;superbuild/external</text>
<text text-anchor="start" x="720.1" y="-264.5" font-family="Helvetica,sans-Serif" font-size="10.00">/XBotInterface/include/spdlog</text>
<text text-anchor="middle" x="784.6" y="-253.5" font-family="Helvetica,sans-Serif" font-size="10.00">/details/os.h</text>
</g>
<!-- Node2 -->
<g id="node2" class="node"><title>Node2</title>
<g id="a_node2"><a xlink:href="common_8h.html" target="_top" xlink:title="spdlog/common.h">
<polygon fill="none" stroke="black" points="217.6,-190.5 217.6,-209.5 311.6,-209.5 311.6,-190.5 217.6,-190.5"/>
<text text-anchor="middle" x="264.6" y="-197.5" font-family="Helvetica,sans-Serif" font-size="10.00">spdlog/common.h</text>
</a>
</g>
</g>
<!-- Node1&#45;&gt;Node2 -->
<g id="edge1" class="edge"><title>Node1&#45;&gt;Node2</title>
<path fill="none" stroke="midnightblue" d="M712.022,-261.66C607.602,-247.503 417.102,-221.676 321.919,-208.771"/>
<polygon fill="midnightblue" stroke="midnightblue" points="322.282,-205.288 311.903,-207.413 321.342,-212.225 322.282,-205.288"/>
</g>
<!-- Node3 -->
<g id="node3" class="node"><title>Node3</title>
<polygon fill="none" stroke="#bfbfbf" points="78.0997,-0.5 78.0997,-19.5 119.1,-19.5 119.1,-0.5 78.0997,-0.5"/>
<text text-anchor="middle" x="98.5997" y="-7.5" font-family="Helvetica,sans-Serif" font-size="10.00">string</text>
</g>
<!-- Node1&#45;&gt;Node3 -->
<g id="edge28" class="edge"><title>Node1&#45;&gt;Node3</title>
<path fill="none" stroke="midnightblue" d="M739.074,-246.337C722.387,-236.108 703.865,-223.513 688.6,-210 651.019,-176.731 659.552,-148.966 616.6,-123 605.531,-116.309 201.491,-35.3212 129.3,-19.7126"/>
<polygon fill="midnightblue" stroke="midnightblue" points="129.719,-16.219 119.193,-17.4246 128.174,-23.0463 129.719,-16.219"/>
</g>
<!-- Node5 -->
<g id="node5" class="node"><title>Node5</title>
<polygon fill="none" stroke="#bfbfbf" points="484.6,-129 484.6,-148 530.6,-148 530.6,-129 484.6,-129"/>
<text text-anchor="middle" x="507.6" y="-136" font-family="Helvetica,sans-Serif" font-size="10.00">chrono</text>
</g>
<!-- Node1&#45;&gt;Node5 -->
<g id="edge29" class="edge"><title>Node1&#45;&gt;Node5</title>
<path fill="none" stroke="midnightblue" d="M712.039,-253.195C677.234,-242.943 635.6,-228.472 600.6,-210 571.65,-194.722 542.2,-170.648 524.411,-154.966"/>
<polygon fill="midnightblue" stroke="midnightblue" points="526.449,-152.092 516.669,-148.017 521.773,-157.301 526.449,-152.092"/>
</g>
<!-- Node9 -->
<g id="node9" class="node"><title>Node9</title>
<polygon fill="none" stroke="#bfbfbf" points="549.1,-129 549.1,-148 608.1,-148 608.1,-129 549.1,-129"/>
<text text-anchor="middle" x="578.6" y="-136" font-family="Helvetica,sans-Serif" font-size="10.00">functional</text>
</g>
<!-- Node1&#45;&gt;Node9 -->
<g id="edge27" class="edge"><title>Node1&#45;&gt;Node9</title>
<path fill="none" stroke="midnightblue" d="M711.982,-254.935C681.978,-245.448 648.283,-231.104 622.6,-210 605.408,-195.874 592.962,-173.183 585.782,-157.372"/>
<polygon fill="midnightblue" stroke="midnightblue" points="588.981,-155.951 581.828,-148.135 582.546,-158.706 588.981,-155.951"/>
</g>
<!-- Node16 -->
<g id="node16" class="node"><title>Node16</title>
<polygon fill="none" stroke="#bfbfbf" points="790.1,-0.5 790.1,-19.5 833.1,-19.5 833.1,-0.5 790.1,-0.5"/>
<text text-anchor="middle" x="811.6" y="-7.5" font-family="Helvetica,sans-Serif" font-size="10.00">cstdio</text>
</g>
<!-- Node1&#45;&gt;Node16 -->
<g id="edge25" class="edge"><title>Node1&#45;&gt;Node16</title>
<path fill="none" stroke="midnightblue" d="M726.661,-246.355C704.709,-232.671 686.501,-213.666 693.6,-190 713.845,-122.506 768.677,-56.9476 795.871,-27.3718"/>
<polygon fill="midnightblue" stroke="midnightblue" points="798.776,-29.3898 803.056,-19.6979 793.666,-24.6054 798.776,-29.3898"/>
</g>
<!-- Node23 -->
<g id="node23" class="node"><title>Node23</title>
<polygon fill="none" stroke="#bfbfbf" points="703.1,-190.5 703.1,-209.5 744.1,-209.5 744.1,-190.5 703.1,-190.5"/>
<text text-anchor="middle" x="723.6" y="-197.5" font-family="Helvetica,sans-Serif" font-size="10.00">ctime</text>
</g>
<!-- Node1&#45;&gt;Node23 -->
<g id="edge26" class="edge"><title>Node1&#45;&gt;Node23</title>
<path fill="none" stroke="midnightblue" d="M762.922,-246.446C754.6,-236.828 745.32,-226.103 737.866,-217.488"/>
<polygon fill="midnightblue" stroke="midnightblue" points="740.313,-214.968 731.123,-209.695 735.02,-219.548 740.313,-214.968"/>
</g>
<!-- Node24 -->
<g id="node24" class="node"><title>Node24</title>
<polygon fill="none" stroke="#bfbfbf" points="762.6,-190.5 762.6,-209.5 806.6,-209.5 806.6,-190.5 762.6,-190.5"/>
<text text-anchor="middle" x="784.6" y="-197.5" font-family="Helvetica,sans-Serif" font-size="10.00">thread</text>
</g>
<!-- Node1&#45;&gt;Node24 -->
<g id="edge30" class="edge"><title>Node1&#45;&gt;Node24</title>
<path fill="none" stroke="midnightblue" d="M784.6,-246.446C784.6,-237.73 784.6,-228.104 784.6,-219.964"/>
<polygon fill="midnightblue" stroke="midnightblue" points="788.1,-219.695 784.6,-209.695 781.1,-219.696 788.1,-219.695"/>
</g>
<!-- Node25 -->
<g id="node25" class="node"><title>Node25</title>
<polygon fill="none" stroke="#bfbfbf" points="824.6,-190.5 824.6,-209.5 870.6,-209.5 870.6,-190.5 824.6,-190.5"/>
<text text-anchor="middle" x="847.6" y="-197.5" font-family="Helvetica,sans-Serif" font-size="10.00">stdio.h</text>
</g>
<!-- Node1&#45;&gt;Node25 -->
<g id="edge31" class="edge"><title>Node1&#45;&gt;Node25</title>
<path fill="none" stroke="midnightblue" d="M806.988,-246.446C815.672,-236.728 825.367,-225.88 833.106,-217.22"/>
<polygon fill="midnightblue" stroke="midnightblue" points="835.776,-219.484 839.829,-209.695 830.556,-214.82 835.776,-219.484"/>
</g>
<!-- Node26 -->
<g id="node26" class="node"><title>Node26</title>
<polygon fill="none" stroke="#bfbfbf" points="889.1,-190.5 889.1,-209.5 938.1,-209.5 938.1,-190.5 889.1,-190.5"/>
<text text-anchor="middle" x="913.6" y="-197.5" font-family="Helvetica,sans-Serif" font-size="10.00">string.h</text>
</g>
<!-- Node1&#45;&gt;Node26 -->
<g id="edge32" class="edge"><title>Node1&#45;&gt;Node26</title>
<path fill="none" stroke="midnightblue" d="M830.443,-246.446C850.179,-235.66 872.463,-223.481 888.993,-214.448"/>
<polygon fill="midnightblue" stroke="midnightblue" points="890.901,-217.394 897.997,-209.527 887.544,-211.251 890.901,-217.394"/>
</g>
<!-- Node27 -->
<g id="node27" class="node"><title>Node27</title>
<polygon fill="none" stroke="#bfbfbf" points="956.6,-190.5 956.6,-209.5 1016.6,-209.5 1016.6,-190.5 956.6,-190.5"/>
<text text-anchor="middle" x="986.6" y="-197.5" font-family="Helvetica,sans-Serif" font-size="10.00">sys/stat.h</text>
</g>
<!-- Node1&#45;&gt;Node27 -->
<g id="edge33" class="edge"><title>Node1&#45;&gt;Node27</title>
<path fill="none" stroke="midnightblue" d="M856.386,-246.446C889.167,-235.005 926.439,-221.997 952.682,-212.838"/>
<polygon fill="midnightblue" stroke="midnightblue" points="953.88,-216.127 962.168,-209.527 951.573,-209.518 953.88,-216.127"/>
</g>
<!-- Node28 -->
<g id="node28" class="node"><title>Node28</title>
<polygon fill="none" stroke="#bfbfbf" points="1034.6,-190.5 1034.6,-209.5 1102.6,-209.5 1102.6,-190.5 1034.6,-190.5"/>
<text text-anchor="middle" x="1068.6" y="-197.5" font-family="Helvetica,sans-Serif" font-size="10.00">sys/types.h</text>
</g>
<!-- Node1&#45;&gt;Node28 -->
<g id="edge34" class="edge"><title>Node1&#45;&gt;Node28</title>
<path fill="none" stroke="midnightblue" d="M857.368,-253.436C910.122,-240.34 979.755,-223.055 1024.37,-211.98"/>
<polygon fill="midnightblue" stroke="midnightblue" points="1025.46,-215.316 1034.32,-209.51 1023.77,-208.523 1025.46,-215.316"/>
</g>
<!-- Node29 -->
<g id="node29" class="node"><title>Node29</title>
<polygon fill="none" stroke="#bfbfbf" points="1121.1,-190.5 1121.1,-209.5 1172.1,-209.5 1172.1,-190.5 1121.1,-190.5"/>
<text text-anchor="middle" x="1146.6" y="-197.5" font-family="Helvetica,sans-Serif" font-size="10.00">unistd.h</text>
</g>
<!-- Node1&#45;&gt;Node29 -->
<g id="edge35" class="edge"><title>Node1&#45;&gt;Node29</title>
<path fill="none" stroke="midnightblue" d="M857.287,-259.243C921.468,-248.096 1017.76,-230.588 1111.13,-209.981"/>
<polygon fill="midnightblue" stroke="midnightblue" points="1112.03,-213.367 1121.03,-207.781 1110.51,-206.533 1112.03,-213.367"/>
</g>
<!-- Node30 -->
<g id="node30" class="node"><title>Node30</title>
<polygon fill="none" stroke="#bfbfbf" points="1190.6,-190.5 1190.6,-209.5 1234.6,-209.5 1234.6,-190.5 1190.6,-190.5"/>
<text text-anchor="middle" x="1212.6" y="-197.5" font-family="Helvetica,sans-Serif" font-size="10.00">fcntl.h</text>
</g>
<!-- Node1&#45;&gt;Node30 -->
<g id="edge36" class="edge"><title>Node1&#45;&gt;Node30</title>
<path fill="none" stroke="midnightblue" d="M857.202,-263.107C935.015,-253.468 1062.22,-235.862 1180.39,-210.033"/>
<polygon fill="midnightblue" stroke="midnightblue" points="1181.33,-213.411 1190.34,-207.835 1179.82,-206.576 1181.33,-213.411"/>
</g>
<!-- Node2&#45;&gt;Node3 -->
<g id="edge2" class="edge"><title>Node2&#45;&gt;Node3</title>
<path fill="none" stroke="midnightblue" d="M217.58,-197.623C151.549,-194.586 36.495,-184.886 10.5997,-154 -25.1398,-111.372 41.3003,-52.8373 77.4449,-25.7966"/>
<polygon fill="midnightblue" stroke="midnightblue" points="79.8839,-28.3497 85.9009,-19.6292 75.759,-22.6942 79.8839,-28.3497"/>
</g>
<!-- Node4 -->
<g id="node4" class="node"><title>Node4</title>
<polygon fill="none" stroke="#bfbfbf" points="20.0997,-129 20.0997,-148 93.0997,-148 93.0997,-129 20.0997,-129"/>
<text text-anchor="middle" x="56.5997" y="-136" font-family="Helvetica,sans-Serif" font-size="10.00">initializer_list</text>
</g>
<!-- Node2&#45;&gt;Node4 -->
<g id="edge3" class="edge"><title>Node2&#45;&gt;Node4</title>
<path fill="none" stroke="midnightblue" d="M234.798,-190.475C198.347,-180.048 136.52,-162.362 96.1253,-150.807"/>
<polygon fill="midnightblue" stroke="midnightblue" points="96.9227,-147.394 86.3457,-148.009 94.9975,-154.124 96.9227,-147.394"/>
</g>
<!-- Node2&#45;&gt;Node5 -->
<g id="edge4" class="edge"><title>Node2&#45;&gt;Node5</title>
<path fill="none" stroke="midnightblue" d="M311.88,-191.915C355.156,-184.729 420.628,-172.082 475.6,-154 477.468,-153.385 479.374,-152.695 481.277,-151.959"/>
<polygon fill="midnightblue" stroke="midnightblue" points="482.749,-155.137 490.599,-148.022 480.025,-148.689 482.749,-155.137"/>
</g>
<!-- Node6 -->
<g id="node6" class="node"><title>Node6</title>
<polygon fill="none" stroke="#bfbfbf" points="137.6,-0.5 137.6,-19.5 189.6,-19.5 189.6,-0.5 137.6,-0.5"/>
<text text-anchor="middle" x="163.6" y="-7.5" font-family="Helvetica,sans-Serif" font-size="10.00">memory</text>
</g>
<!-- Node2&#45;&gt;Node6 -->
<g id="edge5" class="edge"><title>Node2&#45;&gt;Node6</title>
<path fill="none" stroke="midnightblue" d="M225.303,-190.349C205.461,-183.826 183.019,-172.685 170.6,-154 145.335,-115.988 152.713,-58.9339 158.904,-29.7118"/>
<polygon fill="midnightblue" stroke="midnightblue" points="162.386,-30.1868 161.227,-19.6556 155.566,-28.6109 162.386,-30.1868"/>
</g>
<!-- Node7 -->
<g id="node7" class="node"><title>Node7</title>
<polygon fill="none" stroke="#bfbfbf" points="219.6,-62 219.6,-81 265.6,-81 265.6,-62 219.6,-62"/>
<text text-anchor="middle" x="242.6" y="-69" font-family="Helvetica,sans-Serif" font-size="10.00">atomic</text>
</g>
<!-- Node2&#45;&gt;Node7 -->
<g id="edge6" class="edge"><title>Node2&#45;&gt;Node7</title>
<path fill="none" stroke="midnightblue" d="M230.415,-190.493C211.606,-183.877 189.857,-172.596 178.6,-154 171.465,-142.214 172.59,-135.398 178.6,-123 186.298,-107.12 201.68,-94.7288 215.434,-86.1953"/>
<polygon fill="midnightblue" stroke="midnightblue" points="217.245,-89.1909 224.141,-81.1468 213.734,-83.1353 217.245,-89.1909"/>
</g>
<!-- Node8 -->
<g id="node8" class="node"><title>Node8</title>
<polygon fill="none" stroke="#bfbfbf" points="188.1,-129 188.1,-148 247.1,-148 247.1,-129 188.1,-129"/>
<text text-anchor="middle" x="217.6" y="-136" font-family="Helvetica,sans-Serif" font-size="10.00">exception</text>
</g>
<!-- Node2&#45;&gt;Node8 -->
<g id="edge7" class="edge"><title>Node2&#45;&gt;Node8</title>
<path fill="none" stroke="midnightblue" d="M257.866,-190.475C250.816,-181.55 239.565,-167.307 230.746,-156.143"/>
<polygon fill="midnightblue" stroke="midnightblue" points="233.266,-153.687 224.321,-148.009 227.773,-158.026 233.266,-153.687"/>
</g>
<!-- Node2&#45;&gt;Node9 -->
<g id="edge8" class="edge"><title>Node2&#45;&gt;Node9</title>
<path fill="none" stroke="midnightblue" d="M311.895,-194.085C367.155,-187.695 461.037,-174.822 539.6,-154 542.415,-153.254 545.31,-152.383 548.191,-151.446"/>
<polygon fill="midnightblue" stroke="midnightblue" points="549.509,-154.693 557.791,-148.085 547.196,-148.086 549.509,-154.693"/>
</g>
<!-- Node10 -->
<g id="node10" class="node"><title>Node10</title>
<g id="a_node10"><a xlink:href="null__mutex_8h.html" target="_top" xlink:title="spdlog/details/null\l_mutex.h">
<polygon fill="none" stroke="black" points="265.1,-123.5 265.1,-153.5 360.1,-153.5 360.1,-123.5 265.1,-123.5"/>
<text text-anchor="start" x="273.1" y="-141.5" font-family="Helvetica,sans-Serif" font-size="10.00">spdlog/details/null</text>
<text text-anchor="middle" x="312.6" y="-130.5" font-family="Helvetica,sans-Serif" font-size="10.00">_mutex.h</text>
</a>
</g>
</g>
<!-- Node2&#45;&gt;Node10 -->
<g id="edge9" class="edge"><title>Node2&#45;&gt;Node10</title>
<path fill="none" stroke="midnightblue" d="M271.477,-190.475C277.553,-182.944 286.683,-171.626 294.798,-161.566"/>
<polygon fill="midnightblue" stroke="midnightblue" points="297.732,-163.504 301.287,-153.523 292.284,-159.108 297.732,-163.504"/>
</g>
<!-- Node11 -->
<g id="node11" class="node"><title>Node11</title>
<g id="a_node11"><a xlink:href="fmt_8h.html" target="_top" xlink:title="spdlog/fmt/fmt.h">
<polygon fill="none" stroke="black" points="378.6,-129 378.6,-148 466.6,-148 466.6,-129 378.6,-129"/>
<text text-anchor="middle" x="422.6" y="-136" font-family="Helvetica,sans-Serif" font-size="10.00">spdlog/fmt/fmt.h</text>
</a>
</g>
</g>
<!-- Node2&#45;&gt;Node11 -->
<g id="edge11" class="edge"><title>Node2&#45;&gt;Node11</title>
<path fill="none" stroke="midnightblue" d="M287.237,-190.475C314.34,-180.269 359.91,-163.108 390.604,-151.549"/>
<polygon fill="midnightblue" stroke="midnightblue" points="391.879,-154.809 400.004,-148.009 389.412,-148.258 391.879,-154.809"/>
</g>
<!-- Node10&#45;&gt;Node7 -->
<g id="edge10" class="edge"><title>Node10&#45;&gt;Node7</title>
<path fill="none" stroke="midnightblue" d="M297.411,-123.396C286.28,-113.06 271.164,-99.0237 259.625,-88.309"/>
<polygon fill="midnightblue" stroke="midnightblue" points="261.673,-85.4343 251.963,-81.1945 256.909,-90.5639 261.673,-85.4343"/>
</g>
<!-- Node12 -->
<g id="node12" class="node"><title>Node12</title>
<g id="a_node12"><a xlink:href="format_8h.html" target="_top" xlink:title="spdlog/fmt/bundled\l/format.h">
<polygon fill="none" stroke="black" points="471.1,-56.5 471.1,-86.5 570.1,-86.5 570.1,-56.5 471.1,-56.5"/>
<text text-anchor="start" x="479.1" y="-74.5" font-family="Helvetica,sans-Serif" font-size="10.00">spdlog/fmt/bundled</text>
<text text-anchor="middle" x="520.6" y="-63.5" font-family="Helvetica,sans-Serif" font-size="10.00">/format.h</text>
</a>
</g>
</g>
<!-- Node11&#45;&gt;Node12 -->
<g id="edge12" class="edge"><title>Node11&#45;&gt;Node12</title>
<path fill="none" stroke="midnightblue" d="M435.816,-128.734C449.825,-119.443 472.412,-104.461 490.752,-92.2968"/>
<polygon fill="midnightblue" stroke="midnightblue" points="492.959,-95.0332 499.358,-86.589 489.09,-89.1997 492.959,-95.0332"/>
</g>
<!-- Node12&#45;&gt;Node3 -->
<g id="edge21" class="edge"><title>Node12&#45;&gt;Node3</title>
<path fill="none" stroke="midnightblue" d="M471.095,-58.7009C466.212,-57.7126 461.319,-56.7909 456.6,-56 315.213,-32.3031 274.152,-48.4291 129.284,-19.746"/>
<polygon fill="midnightblue" stroke="midnightblue" points="129.626,-16.2445 119.131,-17.6968 128.241,-23.1061 129.626,-16.2445"/>
</g>
<!-- Node12&#45;&gt;Node6 -->
<g id="edge19" class="edge"><title>Node12&#45;&gt;Node6</title>
<path fill="none" stroke="midnightblue" d="M471.07,-58.8458C466.192,-57.8282 461.307,-56.86 456.6,-56 345.822,-35.7593 313.911,-42.0764 199.728,-20.0305"/>
<polygon fill="midnightblue" stroke="midnightblue" points="200.387,-16.593 189.9,-18.1028 199.039,-23.4622 200.387,-16.593"/>
</g>
<!-- Node13 -->
<g id="node13" class="node"><title>Node13</title>
<polygon fill="none" stroke="#bfbfbf" points="208.1,-0.5 208.1,-19.5 257.1,-19.5 257.1,-0.5 208.1,-0.5"/>
<text text-anchor="middle" x="232.6" y="-7.5" font-family="Helvetica,sans-Serif" font-size="10.00">cassert</text>
</g>
<!-- Node12&#45;&gt;Node13 -->
<g id="edge13" class="edge"><title>Node12&#45;&gt;Node13</title>
<path fill="none" stroke="midnightblue" d="M471.024,-59.0804C466.155,-58.0153 461.285,-56.9719 456.6,-56 375.156,-39.1045 351.517,-39.3367 267.412,-20.2861"/>
<polygon fill="midnightblue" stroke="midnightblue" points="267.941,-16.8166 257.412,-17.9955 266.378,-23.6399 267.941,-16.8166"/>
</g>
<!-- Node14 -->
<g id="node14" class="node"><title>Node14</title>
<polygon fill="none" stroke="#bfbfbf" points="275.1,-0.5 275.1,-19.5 322.1,-19.5 322.1,-0.5 275.1,-0.5"/>
<text text-anchor="middle" x="298.6" y="-7.5" font-family="Helvetica,sans-Serif" font-size="10.00">clocale</text>
</g>
<!-- Node12&#45;&gt;Node14 -->
<g id="edge14" class="edge"><title>Node12&#45;&gt;Node14</title>
<path fill="none" stroke="midnightblue" d="M470.839,-57.2791C434.949,-47.7265 385.079,-34.418 332.279,-20.1736"/>
<polygon fill="midnightblue" stroke="midnightblue" points="332.955,-16.7309 322.389,-17.5036 331.131,-23.489 332.955,-16.7309"/>
</g>
<!-- Node15 -->
<g id="node15" class="node"><title>Node15</title>
<polygon fill="none" stroke="#bfbfbf" points="340.6,-0.5 340.6,-19.5 384.6,-19.5 384.6,-0.5 340.6,-0.5"/>
<text text-anchor="middle" x="362.6" y="-7.5" font-family="Helvetica,sans-Serif" font-size="10.00">cmath</text>
</g>
<!-- Node12&#45;&gt;Node15 -->
<g id="edge15" class="edge"><title>Node12&#45;&gt;Node15</title>
<path fill="none" stroke="midnightblue" d="M483.156,-56.3993C456.087,-46.2058 419.919,-32.5855 394.28,-22.9304"/>
<polygon fill="midnightblue" stroke="midnightblue" points="395.265,-19.5612 384.673,-19.3124 392.798,-26.1121 395.265,-19.5612"/>
</g>
<!-- Node12&#45;&gt;Node16 -->
<g id="edge16" class="edge"><title>Node12&#45;&gt;Node16</title>
<path fill="none" stroke="midnightblue" d="M570.248,-62.2378C620.63,-53.5453 701.037,-38.828 779.881,-19.9862"/>
<polygon fill="midnightblue" stroke="midnightblue" points="781.087,-23.2956 789.986,-17.5461 779.444,-16.4911 781.087,-23.2956"/>
</g>
<!-- Node17 -->
<g id="node17" class="node"><title>Node17</title>
<polygon fill="none" stroke="#bfbfbf" points="402.6,-0.5 402.6,-19.5 448.6,-19.5 448.6,-0.5 402.6,-0.5"/>
<text text-anchor="middle" x="425.6" y="-7.5" font-family="Helvetica,sans-Serif" font-size="10.00">cstring</text>
</g>
<!-- Node12&#45;&gt;Node17 -->
<g id="edge17" class="edge"><title>Node12&#45;&gt;Node17</title>
<path fill="none" stroke="midnightblue" d="M498.086,-56.3993C483.001,-46.9511 463.215,-34.5589 448.126,-25.1089"/>
<polygon fill="midnightblue" stroke="midnightblue" points="449.756,-21.9996 439.423,-19.6578 446.04,-27.9321 449.756,-21.9996"/>
</g>
<!-- Node18 -->
<g id="node18" class="node"><title>Node18</title>
<polygon fill="none" stroke="#bfbfbf" points="466.6,-0.5 466.6,-19.5 506.6,-19.5 506.6,-0.5 466.6,-0.5"/>
<text text-anchor="middle" x="486.6" y="-7.5" font-family="Helvetica,sans-Serif" font-size="10.00">limits</text>
</g>
<!-- Node12&#45;&gt;Node18 -->
<g id="edge18" class="edge"><title>Node12&#45;&gt;Node18</title>
<path fill="none" stroke="midnightblue" d="M512.542,-56.3993C507.754,-48.0207 501.644,-37.3269 496.556,-28.4229"/>
<polygon fill="midnightblue" stroke="midnightblue" points="499.547,-26.6037 491.547,-19.6578 493.47,-30.0767 499.547,-26.6037"/>
</g>
<!-- Node19 -->
<g id="node19" class="node"><title>Node19</title>
<polygon fill="none" stroke="#bfbfbf" points="525.1,-0.5 525.1,-19.5 584.1,-19.5 584.1,-0.5 525.1,-0.5"/>
<text text-anchor="middle" x="554.6" y="-7.5" font-family="Helvetica,sans-Serif" font-size="10.00">stdexcept</text>
</g>
<!-- Node12&#45;&gt;Node19 -->
<g id="edge20" class="edge"><title>Node12&#45;&gt;Node19</title>
<path fill="none" stroke="midnightblue" d="M528.657,-56.3993C533.445,-48.0207 539.556,-37.3269 544.644,-28.4229"/>
<polygon fill="midnightblue" stroke="midnightblue" points="547.73,-30.0767 549.652,-19.6578 541.652,-26.6037 547.73,-30.0767"/>
</g>
<!-- Node20 -->
<g id="node20" class="node"><title>Node20</title>
<polygon fill="none" stroke="#bfbfbf" points="602.6,-0.5 602.6,-19.5 646.6,-19.5 646.6,-0.5 602.6,-0.5"/>
<text text-anchor="middle" x="624.6" y="-7.5" font-family="Helvetica,sans-Serif" font-size="10.00">vector</text>
</g>
<!-- Node12&#45;&gt;Node20 -->
<g id="edge22" class="edge"><title>Node12&#45;&gt;Node20</title>
<path fill="none" stroke="midnightblue" d="M545.246,-56.3993C561.917,-46.8619 583.83,-34.3248 600.405,-24.8422"/>
<polygon fill="midnightblue" stroke="midnightblue" points="602.525,-27.6617 609.467,-19.6578 599.049,-21.5858 602.525,-27.6617"/>
</g>
<!-- Node21 -->
<g id="node21" class="node"><title>Node21</title>
<polygon fill="none" stroke="#bfbfbf" points="664.6,-0.5 664.6,-19.5 704.6,-19.5 704.6,-0.5 664.6,-0.5"/>
<text text-anchor="middle" x="684.6" y="-7.5" font-family="Helvetica,sans-Serif" font-size="10.00">utility</text>
</g>
<!-- Node12&#45;&gt;Node21 -->
<g id="edge23" class="edge"><title>Node12&#45;&gt;Node21</title>
<path fill="none" stroke="midnightblue" d="M559.465,-56.3993C588.694,-45.795 628.144,-31.4822 654.878,-21.783"/>
<polygon fill="midnightblue" stroke="midnightblue" points="656.247,-25.0097 664.454,-18.3089 653.86,-18.4293 656.247,-25.0097"/>
</g>
<!-- Node22 -->
<g id="node22" class="node"><title>Node22</title>
<polygon fill="none" stroke="#bfbfbf" points="723.1,-0.5 723.1,-19.5 772.1,-19.5 772.1,-0.5 723.1,-0.5"/>
<text text-anchor="middle" x="747.6" y="-7.5" font-family="Helvetica,sans-Serif" font-size="10.00">stdint.h</text>
</g>
<!-- Node12&#45;&gt;Node22 -->
<g id="edge24" class="edge"><title>Node12&#45;&gt;Node22</title>
<path fill="none" stroke="midnightblue" d="M570.193,-57.5649C606.975,-47.9621 658.611,-34.4613 713.222,-20.094"/>
<polygon fill="midnightblue" stroke="midnightblue" points="714.308,-23.4273 723.088,-17.4973 712.526,-16.6578 714.308,-23.4273"/>
</g>
</g>
</svg>
