<?xml version="1.0" encoding="UTF-8" standalone="no"?>
<!DOCTYPE svg PUBLIC "-//W3C//DTD SVG 1.1//EN"
 "http://www.w3.org/Graphics/SVG/1.1/DTD/svg11.dtd">
<!-- Generated by graphviz version 2.38.0 (20140413.2041)
 -->
<!-- Title: /home/lucamuratore/advr&#45;superbuild/external/XBotInterface/include/spdlog/sinks/ostream_sink.h Pages: 1 -->
<svg width="1637pt" height="609pt"
 viewBox="0.00 0.00 1637.00 609.00" xmlns="http://www.w3.org/2000/svg" xmlns:xlink="http://www.w3.org/1999/xlink">
<g id="graph0" class="graph" transform="scale(1 1) rotate(0) translate(4 605)">
<title>/home/lucamuratore/advr&#45;superbuild/external/XBotInterface/include/spdlog/sinks/ostream_sink.h</title>
<!-- Node1 -->
<g id="node1" class="node"><title>Node1</title>
<polygon fill="#bfbfbf" stroke="black" points="1120.5,-548.5 1120.5,-600.5 1265.5,-600.5 1265.5,-548.5 1120.5,-548.5"/>
<text text-anchor="start" x="1128.5" y="-588.5" font-family="Helvetica,sans-Serif" font-size="10.00">/home/lucamuratore</text>
<text text-anchor="start" x="1128.5" y="-577.5" font-family="Helvetica,sans-Serif" font-size="10.00">/advr&#45;superbuild/external</text>
<text text-anchor="start" x="1128.5" y="-566.5" font-family="Helvetica,sans-Serif" font-size="10.00">/XBotInterface/include/spdlog</text>
<text text-anchor="middle" x="1193" y="-555.5" font-family="Helvetica,sans-Serif" font-size="10.00">/sinks/ostream_sink.h</text>
</g>
<!-- Node2 -->
<g id="node2" class="node"><title>Node2</title>
<g id="a_node2"><a xlink:href="null__mutex_8h.html" target="_top" xlink:title="spdlog/details/null\l_mutex.h">
<polygon fill="none" stroke="black" points="104.5,-123.5 104.5,-153.5 199.5,-153.5 199.5,-123.5 104.5,-123.5"/>
<text text-anchor="start" x="112.5" y="-141.5" font-family="Helvetica,sans-Serif" font-size="10.00">spdlog/details/null</text>
<text text-anchor="middle" x="152" y="-130.5" font-family="Helvetica,sans-Serif" font-size="10.00">_mutex.h</text>
</a>
</g>
</g>
<!-- Node1&#45;&gt;Node2 -->
<g id="edge1" class="edge"><title>Node1&#45;&gt;Node2</title>
<path fill="none" stroke="midnightblue" d="M1120.31,-571.886C891.167,-565.845 199,-539.906 199,-447 199,-447 199,-447 199,-255 199,-220.751 181.051,-184.723 167.337,-162.194"/>
<polygon fill="midnightblue" stroke="midnightblue" points="170.266,-160.278 161.967,-153.691 164.347,-164.015 170.266,-160.278"/>
</g>
<!-- Node4 -->
<g id="node4" class="node"><title>Node4</title>
<g id="a_node4"><a xlink:href="base__sink_8h.html" target="_top" xlink:title="spdlog/sinks/base_sink.h">
<polygon fill="none" stroke="black" points="773.5,-492.5 773.5,-511.5 900.5,-511.5 900.5,-492.5 773.5,-492.5"/>
<text text-anchor="middle" x="837" y="-499.5" font-family="Helvetica,sans-Serif" font-size="10.00">spdlog/sinks/base_sink.h</text>
</a>
</g>
</g>
<!-- Node1&#45;&gt;Node4 -->
<g id="edge3" class="edge"><title>Node1&#45;&gt;Node4</title>
<path fill="none" stroke="midnightblue" d="M1120.1,-559.063C1051.69,-545.516 951.021,-525.58 889.976,-513.491"/>
<polygon fill="midnightblue" stroke="midnightblue" points="890.652,-510.057 880.162,-511.548 889.292,-516.924 890.652,-510.057"/>
</g>
<!-- Node37 -->
<g id="node37" class="node"><title>Node37</title>
<polygon fill="none" stroke="#bfbfbf" points="1501,-308 1501,-327 1545,-327 1545,-308 1501,-308"/>
<text text-anchor="middle" x="1523" y="-315" font-family="Helvetica,sans-Serif" font-size="10.00">mutex</text>
</g>
<!-- Node1&#45;&gt;Node37 -->
<g id="edge67" class="edge"><title>Node1&#45;&gt;Node37</title>
<path fill="none" stroke="midnightblue" d="M1265.54,-554.632C1339.83,-531.295 1452.47,-483.967 1511,-400 1523.88,-381.521 1525.45,-354.931 1524.76,-337.205"/>
<polygon fill="midnightblue" stroke="midnightblue" points="1528.24,-336.752 1524.07,-327.011 1521.25,-337.224 1528.24,-336.752"/>
</g>
<!-- Node38 -->
<g id="node38" class="node"><title>Node38</title>
<polygon fill="none" stroke="#bfbfbf" points="1577,-492.5 1577,-511.5 1629,-511.5 1629,-492.5 1577,-492.5"/>
<text text-anchor="middle" x="1603" y="-499.5" font-family="Helvetica,sans-Serif" font-size="10.00">ostream</text>
</g>
<!-- Node1&#45;&gt;Node38 -->
<g id="edge66" class="edge"><title>Node1&#45;&gt;Node38</title>
<path fill="none" stroke="midnightblue" d="M1265.53,-562.686C1340.29,-551.25 1460.11,-532.11 1563,-512 1564.26,-511.754 1565.54,-511.499 1566.83,-511.236"/>
<polygon fill="midnightblue" stroke="midnightblue" points="1567.74,-514.62 1576.79,-509.119 1566.29,-507.772 1567.74,-514.62"/>
</g>
<!-- Node3 -->
<g id="node3" class="node"><title>Node3</title>
<polygon fill="none" stroke="#bfbfbf" points="167,-62 167,-81 213,-81 213,-62 167,-62"/>
<text text-anchor="middle" x="190" y="-69" font-family="Helvetica,sans-Serif" font-size="10.00">atomic</text>
</g>
<!-- Node2&#45;&gt;Node3 -->
<g id="edge2" class="edge"><title>Node2&#45;&gt;Node3</title>
<path fill="none" stroke="midnightblue" d="M160.245,-123.396C165.994,-113.562 173.702,-100.378 179.832,-89.892"/>
<polygon fill="midnightblue" stroke="midnightblue" points="182.892,-91.594 184.917,-81.1945 176.848,-88.0611 182.892,-91.594"/>
</g>
<!-- Node5 -->
<g id="node5" class="node"><title>Node5</title>
<g id="a_node5"><a xlink:href="sink_8h.html" target="_top" xlink:title="spdlog/sinks/sink.h">
<polygon fill="none" stroke="black" points="261.5,-375 261.5,-394 362.5,-394 362.5,-375 261.5,-375"/>
<text text-anchor="middle" x="312" y="-382" font-family="Helvetica,sans-Serif" font-size="10.00">spdlog/sinks/sink.h</text>
</a>
</g>
</g>
<!-- Node4&#45;&gt;Node5 -->
<g id="edge4" class="edge"><title>Node4&#45;&gt;Node5</title>
<path fill="none" stroke="midnightblue" d="M773.352,-500.317C663.84,-498.233 444.978,-489.827 377,-456 353.327,-444.22 334.009,-419.92 322.754,-403.17"/>
<polygon fill="midnightblue" stroke="midnightblue" points="325.431,-400.861 317.087,-394.332 319.538,-404.639 325.431,-400.861"/>
</g>
<!-- Node6 -->
<g id="node6" class="node"><title>Node6</title>
<g id="a_node6"><a xlink:href="log__msg_8h.html" target="_top" xlink:title="spdlog/details/log\l_msg.h">
<polygon fill="none" stroke="black" points="266,-302.5 266,-332.5 358,-332.5 358,-302.5 266,-302.5"/>
<text text-anchor="start" x="274" y="-320.5" font-family="Helvetica,sans-Serif" font-size="10.00">spdlog/details/log</text>
<text text-anchor="middle" x="312" y="-309.5" font-family="Helvetica,sans-Serif" font-size="10.00">_msg.h</text>
</a>
</g>
</g>
<!-- Node4&#45;&gt;Node6 -->
<g id="edge64" class="edge"><title>Node4&#45;&gt;Node6</title>
<path fill="none" stroke="midnightblue" d="M773.36,-498.788C679.107,-494.636 507.649,-483.473 453,-456 405.526,-432.134 409.461,-405.662 371,-369 360.268,-358.77 347.869,-348.01 337.216,-339.064"/>
<polygon fill="midnightblue" stroke="midnightblue" points="339.391,-336.321 329.466,-332.614 334.913,-341.701 339.391,-336.321"/>
</g>
<!-- Node7 -->
<g id="node7" class="node"><title>Node7</title>
<g id="a_node7"><a xlink:href="common_8h.html" target="_top" xlink:title="spdlog/common.h">
<polygon fill="none" stroke="black" points="383,-190.5 383,-209.5 477,-209.5 477,-190.5 383,-190.5"/>
<text text-anchor="middle" x="430" y="-197.5" font-family="Helvetica,sans-Serif" font-size="10.00">spdlog/common.h</text>
</a>
</g>
</g>
<!-- Node4&#45;&gt;Node7 -->
<g id="edge63" class="edge"><title>Node4&#45;&gt;Node7</title>
<path fill="none" stroke="midnightblue" d="M773.395,-494.373C667.606,-481.568 467,-448.924 467,-385.5 467,-385.5 467,-385.5 467,-316.5 467,-280.509 450.505,-241.088 439.542,-218.863"/>
<polygon fill="midnightblue" stroke="midnightblue" points="442.512,-216.984 434.837,-209.68 436.282,-220.176 442.512,-216.984"/>
</g>
<!-- Node35 -->
<g id="node35" class="node"><title>Node35</title>
<g id="a_node35"><a xlink:href="formatter_8h.html" target="_top" xlink:title="spdlog/formatter.h">
<polygon fill="none" stroke="black" points="1160.5,-436.5 1160.5,-455.5 1255.5,-455.5 1255.5,-436.5 1160.5,-436.5"/>
<text text-anchor="middle" x="1208" y="-443.5" font-family="Helvetica,sans-Serif" font-size="10.00">spdlog/formatter.h</text>
</a>
</g>
</g>
<!-- Node4&#45;&gt;Node35 -->
<g id="edge45" class="edge"><title>Node4&#45;&gt;Node35</title>
<path fill="none" stroke="midnightblue" d="M895.786,-492.444C965.458,-482.303 1080.81,-465.512 1150.1,-455.428"/>
<polygon fill="midnightblue" stroke="midnightblue" points="1151,-458.834 1160.39,-453.93 1149.99,-451.907 1151,-458.834"/>
</g>
<!-- Node4&#45;&gt;Node37 -->
<g id="edge65" class="edge"><title>Node4&#45;&gt;Node37</title>
<path fill="none" stroke="midnightblue" d="M900.603,-499.309C1046.41,-494.175 1398.98,-474.207 1487,-400 1506.09,-383.907 1515.42,-355.707 1519.71,-337.065"/>
<polygon fill="midnightblue" stroke="midnightblue" points="1523.16,-337.619 1521.73,-327.122 1516.3,-336.225 1523.16,-337.619"/>
</g>
<!-- Node5&#45;&gt;Node6 -->
<g id="edge5" class="edge"><title>Node5&#45;&gt;Node6</title>
<path fill="none" stroke="midnightblue" d="M312,-374.734C312,-366.541 312,-353.923 312,-342.714"/>
<polygon fill="midnightblue" stroke="midnightblue" points="315.5,-342.589 312,-332.589 308.5,-342.589 315.5,-342.589"/>
</g>
<!-- Node6&#45;&gt;Node7 -->
<g id="edge6" class="edge"><title>Node6&#45;&gt;Node7</title>
<path fill="none" stroke="midnightblue" d="M326.469,-302.337C348.6,-280.676 390.714,-239.453 413.825,-216.832"/>
<polygon fill="midnightblue" stroke="midnightblue" points="416.445,-219.166 421.143,-209.669 411.548,-214.163 416.445,-219.166"/>
</g>
<!-- Node8 -->
<g id="node8" class="node"><title>Node8</title>
<polygon fill="none" stroke="#bfbfbf" points="534.5,-0.5 534.5,-19.5 575.5,-19.5 575.5,-0.5 534.5,-0.5"/>
<text text-anchor="middle" x="555" y="-7.5" font-family="Helvetica,sans-Serif" font-size="10.00">string</text>
</g>
<!-- Node6&#45;&gt;Node8 -->
<g id="edge43" class="edge"><title>Node6&#45;&gt;Node8</title>
<path fill="none" stroke="midnightblue" d="M265.829,-316.964C187.742,-315.068 38,-298.697 38,-201 38,-201 38,-201 38,-137.5 38,-36.783 412.876,-15.8676 524.194,-11.877"/>
<polygon fill="midnightblue" stroke="midnightblue" points="524.538,-15.3675 534.414,-11.5324 524.302,-8.3715 524.538,-15.3675"/>
</g>
<!-- Node24 -->
<g id="node24" class="node"><title>Node24</title>
<polygon fill="none" stroke="#bfbfbf" points="56,-0.5 56,-19.5 96,-19.5 96,-0.5 56,-0.5"/>
<text text-anchor="middle" x="76" y="-7.5" font-family="Helvetica,sans-Serif" font-size="10.00">utility</text>
</g>
<!-- Node6&#45;&gt;Node24 -->
<g id="edge44" class="edge"><title>Node6&#45;&gt;Node24</title>
<path fill="none" stroke="midnightblue" d="M265.858,-313.923C194.039,-309.024 60.0056,-296.041 24,-266 0.35428,-246.271 0,-231.795 0,-201 0,-201 0,-201 0,-137.5 0,-99.7399 3.56271,-87.7513 24,-56 31.6734,-44.0787 43.4169,-33.5344 53.8034,-25.6548"/>
<polygon fill="midnightblue" stroke="midnightblue" points="56.0179,-28.3733 62.0898,-19.6909 51.9288,-22.6917 56.0179,-28.3733"/>
</g>
<!-- Node26 -->
<g id="node26" class="node"><title>Node26</title>
<g id="a_node26"><a xlink:href="os_8h.html" target="_top" xlink:title="spdlog/details/os.h">
<polygon fill="none" stroke="black" points="819,-246.5 819,-265.5 917,-265.5 917,-246.5 819,-246.5"/>
<text text-anchor="middle" x="868" y="-253.5" font-family="Helvetica,sans-Serif" font-size="10.00">spdlog/details/os.h</text>
</a>
</g>
</g>
<!-- Node6&#45;&gt;Node26 -->
<g id="edge29" class="edge"><title>Node6&#45;&gt;Node26</title>
<path fill="none" stroke="midnightblue" d="M358.448,-311.529C459.179,-300.75 697.589,-275.236 808.872,-263.328"/>
<polygon fill="midnightblue" stroke="midnightblue" points="809.343,-266.797 818.914,-262.253 808.598,-259.837 809.343,-266.797"/>
</g>
<!-- Node7&#45;&gt;Node2 -->
<g id="edge14" class="edge"><title>Node7&#45;&gt;Node2</title>
<path fill="none" stroke="midnightblue" d="M387.311,-190.426C343.691,-181.589 274.03,-167.271 214,-154 212.55,-153.679 211.081,-153.352 209.599,-153.021"/>
<polygon fill="midnightblue" stroke="midnightblue" points="210.227,-149.574 199.701,-150.779 208.681,-156.402 210.227,-149.574"/>
</g>
<!-- Node7&#45;&gt;Node3 -->
<g id="edge11" class="edge"><title>Node7&#45;&gt;Node3</title>
<path fill="none" stroke="midnightblue" d="M382.679,-196.513C343.352,-192.424 287.482,-181.743 247,-154 223.686,-138.023 206.883,-109.157 197.795,-90.4169"/>
<polygon fill="midnightblue" stroke="midnightblue" points="200.91,-88.813 193.548,-81.1936 194.552,-91.7408 200.91,-88.813"/>
</g>
<!-- Node7&#45;&gt;Node8 -->
<g id="edge7" class="edge"><title>Node7&#45;&gt;Node8</title>
<path fill="none" stroke="midnightblue" d="M431.534,-190.071C434.339,-175.335 441.216,-145.336 454,-123 476.374,-83.909 514.284,-46.7813 536.748,-26.6295"/>
<polygon fill="midnightblue" stroke="midnightblue" points="539.347,-29.005 544.537,-19.7686 534.72,-23.7522 539.347,-29.005"/>
</g>
<!-- Node9 -->
<g id="node9" class="node"><title>Node9</title>
<polygon fill="none" stroke="#bfbfbf" points="333.5,-129 333.5,-148 406.5,-148 406.5,-129 333.5,-129"/>
<text text-anchor="middle" x="370" y="-136" font-family="Helvetica,sans-Serif" font-size="10.00">initializer_list</text>
</g>
<!-- Node7&#45;&gt;Node9 -->
<g id="edge8" class="edge"><title>Node7&#45;&gt;Node9</title>
<path fill="none" stroke="midnightblue" d="M421.403,-190.475C412.136,-181.285 397.183,-166.456 385.788,-155.156"/>
<polygon fill="midnightblue" stroke="midnightblue" points="388.146,-152.565 378.581,-148.009 383.217,-157.536 388.146,-152.565"/>
</g>
<!-- Node10 -->
<g id="node10" class="node"><title>Node10</title>
<polygon fill="none" stroke="#bfbfbf" points="1113,-129 1113,-148 1159,-148 1159,-129 1113,-129"/>
<text text-anchor="middle" x="1136" y="-136" font-family="Helvetica,sans-Serif" font-size="10.00">chrono</text>
</g>
<!-- Node7&#45;&gt;Node10 -->
<g id="edge9" class="edge"><title>Node7&#45;&gt;Node10</title>
<path fill="none" stroke="midnightblue" d="M477.199,-196.37C603.637,-189.208 948.032,-168.894 1061,-154 1074.8,-152.181 1089.89,-149.416 1102.89,-146.787"/>
<polygon fill="midnightblue" stroke="midnightblue" points="1103.73,-150.188 1112.81,-144.729 1102.3,-143.335 1103.73,-150.188"/>
</g>
<!-- Node11 -->
<g id="node11" class="node"><title>Node11</title>
<polygon fill="none" stroke="#bfbfbf" points="1385,-0.5 1385,-19.5 1437,-19.5 1437,-0.5 1385,-0.5"/>
<text text-anchor="middle" x="1411" y="-7.5" font-family="Helvetica,sans-Serif" font-size="10.00">memory</text>
</g>
<!-- Node7&#45;&gt;Node11 -->
<g id="edge10" class="edge"><title>Node7&#45;&gt;Node11</title>
<path fill="none" stroke="midnightblue" d="M477.272,-197.501C564.082,-194.104 754.453,-183.661 912,-154 1090.99,-120.301 1298.38,-50.6832 1377.76,-22.8642"/>
<polygon fill="midnightblue" stroke="midnightblue" points="1378.96,-26.1521 1387.23,-19.5303 1376.64,-19.5493 1378.96,-26.1521"/>
</g>
<!-- Node12 -->
<g id="node12" class="node"><title>Node12</title>
<polygon fill="none" stroke="#bfbfbf" points="256.5,-129 256.5,-148 315.5,-148 315.5,-129 256.5,-129"/>
<text text-anchor="middle" x="286" y="-136" font-family="Helvetica,sans-Serif" font-size="10.00">exception</text>
</g>
<!-- Node7&#45;&gt;Node12 -->
<g id="edge12" class="edge"><title>Node7&#45;&gt;Node12</title>
<path fill="none" stroke="midnightblue" d="M409.368,-190.475C384.881,-180.357 343.853,-163.405 315.891,-151.851"/>
<polygon fill="midnightblue" stroke="midnightblue" points="317.172,-148.593 306.593,-148.009 314.499,-155.063 317.172,-148.593"/>
</g>
<!-- Node13 -->
<g id="node13" class="node"><title>Node13</title>
<polygon fill="none" stroke="#bfbfbf" points="463.5,-129 463.5,-148 522.5,-148 522.5,-129 463.5,-129"/>
<text text-anchor="middle" x="493" y="-136" font-family="Helvetica,sans-Serif" font-size="10.00">functional</text>
</g>
<!-- Node7&#45;&gt;Node13 -->
<g id="edge13" class="edge"><title>Node7&#45;&gt;Node13</title>
<path fill="none" stroke="midnightblue" d="M439.026,-190.475C448.757,-181.285 464.458,-166.456 476.423,-155.156"/>
<polygon fill="midnightblue" stroke="midnightblue" points="479.123,-157.42 483.99,-148.009 474.317,-152.331 479.123,-157.42"/>
</g>
<!-- Node14 -->
<g id="node14" class="node"><title>Node14</title>
<g id="a_node14"><a xlink:href="fmt_8h.html" target="_top" xlink:title="spdlog/fmt/fmt.h">
<polygon fill="none" stroke="black" points="815,-129 815,-148 903,-148 903,-129 815,-129"/>
<text text-anchor="middle" x="859" y="-136" font-family="Helvetica,sans-Serif" font-size="10.00">spdlog/fmt/fmt.h</text>
</a>
</g>
</g>
<!-- Node7&#45;&gt;Node14 -->
<g id="edge15" class="edge"><title>Node7&#45;&gt;Node14</title>
<path fill="none" stroke="midnightblue" d="M477.138,-192.462C557.35,-181.337 719.922,-158.789 804.74,-147.026"/>
<polygon fill="midnightblue" stroke="midnightblue" points="805.263,-150.487 814.688,-145.646 804.302,-143.553 805.263,-150.487"/>
</g>
<!-- Node15 -->
<g id="node15" class="node"><title>Node15</title>
<g id="a_node15"><a xlink:href="format_8h.html" target="_top" xlink:title="spdlog/fmt/bundled\l/format.h">
<polygon fill="none" stroke="black" points="809.5,-56.5 809.5,-86.5 908.5,-86.5 908.5,-56.5 809.5,-56.5"/>
<text text-anchor="start" x="817.5" y="-74.5" font-family="Helvetica,sans-Serif" font-size="10.00">spdlog/fmt/bundled</text>
<text text-anchor="middle" x="859" y="-63.5" font-family="Helvetica,sans-Serif" font-size="10.00">/format.h</text>
</a>
</g>
</g>
<!-- Node14&#45;&gt;Node15 -->
<g id="edge16" class="edge"><title>Node14&#45;&gt;Node15</title>
<path fill="none" stroke="midnightblue" d="M859,-128.734C859,-120.541 859,-107.923 859,-96.7136"/>
<polygon fill="midnightblue" stroke="midnightblue" points="862.5,-96.589 859,-86.589 855.5,-96.5891 862.5,-96.589"/>
</g>
<!-- Node15&#45;&gt;Node8 -->
<g id="edge25" class="edge"><title>Node15&#45;&gt;Node8</title>
<path fill="none" stroke="midnightblue" d="M809.351,-61.7626C755.82,-52.1814 668.164,-36.0275 593,-20 590.65,-19.499 588.223,-18.9642 585.784,-18.4146"/>
<polygon fill="midnightblue" stroke="midnightblue" points="586.4,-14.9646 575.868,-16.1205 584.822,-21.7844 586.4,-14.9646"/>
</g>
<!-- Node15&#45;&gt;Node11 -->
<g id="edge23" class="edge"><title>Node15&#45;&gt;Node11</title>
<path fill="none" stroke="midnightblue" d="M908.776,-66.2189C997.836,-58.3771 1190.27,-40.6066 1352,-20 1359.42,-19.0547 1367.35,-17.9268 1374.9,-16.7946"/>
<polygon fill="midnightblue" stroke="midnightblue" points="1375.54,-20.2375 1384.9,-15.2646 1374.48,-13.3181 1375.54,-20.2375"/>
</g>
<!-- Node16 -->
<g id="node16" class="node"><title>Node16</title>
<polygon fill="none" stroke="#bfbfbf" points="868.5,-0.5 868.5,-19.5 917.5,-19.5 917.5,-0.5 868.5,-0.5"/>
<text text-anchor="middle" x="893" y="-7.5" font-family="Helvetica,sans-Serif" font-size="10.00">cassert</text>
</g>
<!-- Node15&#45;&gt;Node16 -->
<g id="edge17" class="edge"><title>Node15&#45;&gt;Node16</title>
<path fill="none" stroke="midnightblue" d="M867.058,-56.3993C871.845,-48.0207 877.956,-37.3269 883.044,-28.4229"/>
<polygon fill="midnightblue" stroke="midnightblue" points="886.13,-30.0767 888.053,-19.6578 880.052,-26.6037 886.13,-30.0767"/>
</g>
<!-- Node17 -->
<g id="node17" class="node"><title>Node17</title>
<polygon fill="none" stroke="#bfbfbf" points="935.5,-0.5 935.5,-19.5 982.5,-19.5 982.5,-0.5 935.5,-0.5"/>
<text text-anchor="middle" x="959" y="-7.5" font-family="Helvetica,sans-Serif" font-size="10.00">clocale</text>
</g>
<!-- Node15&#45;&gt;Node17 -->
<g id="edge18" class="edge"><title>Node15&#45;&gt;Node17</title>
<path fill="none" stroke="midnightblue" d="M882.699,-56.3993C898.728,-46.8619 919.799,-34.3248 935.736,-24.8422"/>
<polygon fill="midnightblue" stroke="midnightblue" points="937.645,-27.779 944.449,-19.6578 934.066,-21.7633 937.645,-27.779"/>
</g>
<!-- Node18 -->
<g id="node18" class="node"><title>Node18</title>
<polygon fill="none" stroke="#bfbfbf" points="1001,-0.5 1001,-19.5 1045,-19.5 1045,-0.5 1001,-0.5"/>
<text text-anchor="middle" x="1023" y="-7.5" font-family="Helvetica,sans-Serif" font-size="10.00">cmath</text>
</g>
<!-- Node15&#45;&gt;Node18 -->
<g id="edge19" class="edge"><title>Node15&#45;&gt;Node18</title>
<path fill="none" stroke="midnightblue" d="M897.866,-56.3993C926.255,-46.0997 964.286,-32.3017 990.943,-22.6304"/>
<polygon fill="midnightblue" stroke="midnightblue" points="992.352,-25.8424 1000.56,-19.1417 989.965,-19.2621 992.352,-25.8424"/>
</g>
<!-- Node19 -->
<g id="node19" class="node"><title>Node19</title>
<polygon fill="none" stroke="#bfbfbf" points="1063.5,-0.5 1063.5,-19.5 1106.5,-19.5 1106.5,-0.5 1063.5,-0.5"/>
<text text-anchor="middle" x="1085" y="-7.5" font-family="Helvetica,sans-Serif" font-size="10.00">cstdio</text>
</g>
<!-- Node15&#45;&gt;Node19 -->
<g id="edge20" class="edge"><title>Node15&#45;&gt;Node19</title>
<path fill="none" stroke="midnightblue" d="M908.798,-58.0293C946.028,-48.6092 998.419,-35.1501 1053.41,-20.102"/>
<polygon fill="midnightblue" stroke="midnightblue" points="1054.63,-23.3981 1063.34,-17.3748 1052.77,-16.648 1054.63,-23.3981"/>
</g>
<!-- Node20 -->
<g id="node20" class="node"><title>Node20</title>
<polygon fill="none" stroke="#bfbfbf" points="602,-0.5 602,-19.5 648,-19.5 648,-0.5 602,-0.5"/>
<text text-anchor="middle" x="625" y="-7.5" font-family="Helvetica,sans-Serif" font-size="10.00">cstring</text>
</g>
<!-- Node15&#45;&gt;Node20 -->
<g id="edge21" class="edge"><title>Node15&#45;&gt;Node20</title>
<path fill="none" stroke="midnightblue" d="M809.088,-58.4517C770.382,-49.0109 715.153,-35.329 657.988,-20.2077"/>
<polygon fill="midnightblue" stroke="midnightblue" points="658.613,-16.7526 648.05,-17.5695 656.817,-23.5183 658.613,-16.7526"/>
</g>
<!-- Node21 -->
<g id="node21" class="node"><title>Node21</title>
<polygon fill="none" stroke="#bfbfbf" points="666,-0.5 666,-19.5 706,-19.5 706,-0.5 666,-0.5"/>
<text text-anchor="middle" x="686" y="-7.5" font-family="Helvetica,sans-Serif" font-size="10.00">limits</text>
</g>
<!-- Node15&#45;&gt;Node21 -->
<g id="edge22" class="edge"><title>Node15&#45;&gt;Node21</title>
<path fill="none" stroke="midnightblue" d="M818.001,-56.3993C786.677,-45.6259 744.223,-31.0247 716.013,-21.3224"/>
<polygon fill="midnightblue" stroke="midnightblue" points="716.906,-17.9284 706.311,-17.9857 714.629,-24.5478 716.906,-17.9284"/>
</g>
<!-- Node22 -->
<g id="node22" class="node"><title>Node22</title>
<polygon fill="none" stroke="#bfbfbf" points="724.5,-0.5 724.5,-19.5 783.5,-19.5 783.5,-0.5 724.5,-0.5"/>
<text text-anchor="middle" x="754" y="-7.5" font-family="Helvetica,sans-Serif" font-size="10.00">stdexcept</text>
</g>
<!-- Node15&#45;&gt;Node22 -->
<g id="edge24" class="edge"><title>Node15&#45;&gt;Node22</title>
<path fill="none" stroke="midnightblue" d="M834.116,-56.3993C817.286,-46.8619 795.161,-34.3248 778.427,-24.8422"/>
<polygon fill="midnightblue" stroke="midnightblue" points="779.704,-21.5429 769.278,-19.6578 776.253,-27.633 779.704,-21.5429"/>
</g>
<!-- Node23 -->
<g id="node23" class="node"><title>Node23</title>
<polygon fill="none" stroke="#bfbfbf" points="1299,-0.5 1299,-19.5 1343,-19.5 1343,-0.5 1299,-0.5"/>
<text text-anchor="middle" x="1321" y="-7.5" font-family="Helvetica,sans-Serif" font-size="10.00">vector</text>
</g>
<!-- Node15&#45;&gt;Node23 -->
<g id="edge26" class="edge"><title>Node15&#45;&gt;Node23</title>
<path fill="none" stroke="midnightblue" d="M908.881,-64.0759C1004.04,-51.8211 1209.07,-25.415 1288.57,-15.1762"/>
<polygon fill="midnightblue" stroke="midnightblue" points="1289.46,-18.5906 1298.93,-13.8419 1288.57,-11.648 1289.46,-18.5906"/>
</g>
<!-- Node15&#45;&gt;Node24 -->
<g id="edge27" class="edge"><title>Node15&#45;&gt;Node24</title>
<path fill="none" stroke="midnightblue" d="M809.426,-66.7329C661.425,-55.4863 225.665,-22.373 106.449,-13.3138"/>
<polygon fill="midnightblue" stroke="midnightblue" points="106.464,-9.80494 96.2274,-12.5371 105.933,-16.7848 106.464,-9.80494"/>
</g>
<!-- Node25 -->
<g id="node25" class="node"><title>Node25</title>
<polygon fill="none" stroke="#bfbfbf" points="801.5,-0.5 801.5,-19.5 850.5,-19.5 850.5,-0.5 801.5,-0.5"/>
<text text-anchor="middle" x="826" y="-7.5" font-family="Helvetica,sans-Serif" font-size="10.00">stdint.h</text>
</g>
<!-- Node15&#45;&gt;Node25 -->
<g id="edge28" class="edge"><title>Node15&#45;&gt;Node25</title>
<path fill="none" stroke="midnightblue" d="M851.179,-56.3993C846.532,-48.0207 840.601,-37.3269 835.663,-28.4229"/>
<polygon fill="midnightblue" stroke="midnightblue" points="838.713,-26.7052 830.802,-19.6578 832.591,-30.1004 838.713,-26.7052"/>
</g>
<!-- Node26&#45;&gt;Node7 -->
<g id="edge30" class="edge"><title>Node26&#45;&gt;Node7</title>
<path fill="none" stroke="midnightblue" d="M818.607,-248.91C736.912,-238.838 574.082,-218.764 487.401,-208.077"/>
<polygon fill="midnightblue" stroke="midnightblue" points="487.571,-204.571 477.218,-206.821 486.715,-211.519 487.571,-204.571"/>
</g>
<!-- Node26&#45;&gt;Node8 -->
<g id="edge34" class="edge"><title>Node26&#45;&gt;Node8</title>
<path fill="none" stroke="midnightblue" d="M818.853,-251.582C759.138,-246.407 663.224,-234.472 638,-210 587.623,-161.125 637.91,-116.893 603,-56 596.321,-44.3499 585.654,-33.9098 576.069,-26.0253"/>
<polygon fill="midnightblue" stroke="midnightblue" points="578.095,-23.1668 568.053,-19.7882 573.797,-28.6915 578.095,-23.1668"/>
</g>
<!-- Node26&#45;&gt;Node10 -->
<g id="edge35" class="edge"><title>Node26&#45;&gt;Node10</title>
<path fill="none" stroke="midnightblue" d="M917.187,-250.422C976.226,-244.084 1070.81,-230.983 1099,-210 1116.12,-197.257 1126.04,-174.246 1131.23,-157.985"/>
<polygon fill="midnightblue" stroke="midnightblue" points="1134.7,-158.592 1134.09,-148.014 1127.97,-156.661 1134.7,-158.592"/>
</g>
<!-- Node26&#45;&gt;Node13 -->
<g id="edge33" class="edge"><title>Node26&#45;&gt;Node13</title>
<path fill="none" stroke="midnightblue" d="M818.988,-252.343C765.003,-248.122 676.381,-237.328 605,-210 569.327,-196.343 532.753,-170.691 511.492,-154.384"/>
<polygon fill="midnightblue" stroke="midnightblue" points="513.399,-151.432 503.365,-148.029 509.087,-156.946 513.399,-151.432"/>
</g>
<!-- Node26&#45;&gt;Node19 -->
<g id="edge31" class="edge"><title>Node26&#45;&gt;Node19</title>
<path fill="none" stroke="midnightblue" d="M917.045,-250.372C969.162,-244.371 1046.68,-231.973 1066,-210 1111.26,-158.524 1097.99,-68.0283 1089.57,-29.3594"/>
<polygon fill="midnightblue" stroke="midnightblue" points="1092.95,-28.4563 1087.27,-19.5105 1086.13,-30.0437 1092.95,-28.4563"/>
</g>
<!-- Node27 -->
<g id="node27" class="node"><title>Node27</title>
<polygon fill="none" stroke="#bfbfbf" points="1151.5,-190.5 1151.5,-209.5 1192.5,-209.5 1192.5,-190.5 1151.5,-190.5"/>
<text text-anchor="middle" x="1172" y="-197.5" font-family="Helvetica,sans-Serif" font-size="10.00">ctime</text>
</g>
<!-- Node26&#45;&gt;Node27 -->
<g id="edge32" class="edge"><title>Node26&#45;&gt;Node27</title>
<path fill="none" stroke="midnightblue" d="M917.325,-248.049C971.456,-240.118 1060.8,-226.14 1137,-210 1138.46,-209.691 1139.95,-209.362 1141.45,-209.02"/>
<polygon fill="midnightblue" stroke="midnightblue" points="1142.44,-212.379 1151.34,-206.626 1140.8,-205.576 1142.44,-212.379"/>
</g>
<!-- Node28 -->
<g id="node28" class="node"><title>Node28</title>
<polygon fill="none" stroke="#bfbfbf" points="1211,-190.5 1211,-209.5 1255,-209.5 1255,-190.5 1211,-190.5"/>
<text text-anchor="middle" x="1233" y="-197.5" font-family="Helvetica,sans-Serif" font-size="10.00">thread</text>
</g>
<!-- Node26&#45;&gt;Node28 -->
<g id="edge36" class="edge"><title>Node26&#45;&gt;Node28</title>
<path fill="none" stroke="midnightblue" d="M917.172,-250.527C980.49,-244.289 1094.03,-231.483 1200.75,-209.757"/>
<polygon fill="midnightblue" stroke="midnightblue" points="1201.63,-213.148 1210.72,-207.696 1200.22,-206.293 1201.63,-213.148"/>
</g>
<!-- Node29 -->
<g id="node29" class="node"><title>Node29</title>
<polygon fill="none" stroke="#bfbfbf" points="779,-190.5 779,-209.5 825,-209.5 825,-190.5 779,-190.5"/>
<text text-anchor="middle" x="802" y="-197.5" font-family="Helvetica,sans-Serif" font-size="10.00">stdio.h</text>
</g>
<!-- Node26&#45;&gt;Node29 -->
<g id="edge37" class="edge"><title>Node26&#45;&gt;Node29</title>
<path fill="none" stroke="midnightblue" d="M857.396,-246.324C847.544,-238.263 832.649,-226.077 820.785,-216.369"/>
<polygon fill="midnightblue" stroke="midnightblue" points="822.753,-213.457 812.797,-209.834 818.32,-218.875 822.753,-213.457"/>
</g>
<!-- Node30 -->
<g id="node30" class="node"><title>Node30</title>
<polygon fill="none" stroke="#bfbfbf" points="843.5,-190.5 843.5,-209.5 892.5,-209.5 892.5,-190.5 843.5,-190.5"/>
<text text-anchor="middle" x="868" y="-197.5" font-family="Helvetica,sans-Serif" font-size="10.00">string.h</text>
</g>
<!-- Node26&#45;&gt;Node30 -->
<g id="edge38" class="edge"><title>Node26&#45;&gt;Node30</title>
<path fill="none" stroke="midnightblue" d="M868,-246.083C868,-239.006 868,-228.861 868,-219.986"/>
<polygon fill="midnightblue" stroke="midnightblue" points="871.5,-219.751 868,-209.751 864.5,-219.751 871.5,-219.751"/>
</g>
<!-- Node31 -->
<g id="node31" class="node"><title>Node31</title>
<polygon fill="none" stroke="#bfbfbf" points="911,-190.5 911,-209.5 971,-209.5 971,-190.5 911,-190.5"/>
<text text-anchor="middle" x="941" y="-197.5" font-family="Helvetica,sans-Serif" font-size="10.00">sys/stat.h</text>
</g>
<!-- Node26&#45;&gt;Node31 -->
<g id="edge39" class="edge"><title>Node26&#45;&gt;Node31</title>
<path fill="none" stroke="midnightblue" d="M879.729,-246.324C890.837,-238.107 907.742,-225.602 920.983,-215.807"/>
<polygon fill="midnightblue" stroke="midnightblue" points="923.1,-218.595 929.058,-209.834 918.937,-212.967 923.1,-218.595"/>
</g>
<!-- Node32 -->
<g id="node32" class="node"><title>Node32</title>
<polygon fill="none" stroke="#bfbfbf" points="989,-190.5 989,-209.5 1057,-209.5 1057,-190.5 989,-190.5"/>
<text text-anchor="middle" x="1023" y="-197.5" font-family="Helvetica,sans-Serif" font-size="10.00">sys/types.h</text>
</g>
<!-- Node26&#45;&gt;Node32 -->
<g id="edge40" class="edge"><title>Node26&#45;&gt;Node32</title>
<path fill="none" stroke="midnightblue" d="M892.56,-246.444C918.523,-237.399 959.668,-223.064 988.797,-212.916"/>
<polygon fill="midnightblue" stroke="midnightblue" points="990.263,-216.112 998.555,-209.516 987.96,-209.501 990.263,-216.112"/>
</g>
<!-- Node33 -->
<g id="node33" class="node"><title>Node33</title>
<polygon fill="none" stroke="#bfbfbf" points="647.5,-190.5 647.5,-209.5 698.5,-209.5 698.5,-190.5 647.5,-190.5"/>
<text text-anchor="middle" x="673" y="-197.5" font-family="Helvetica,sans-Serif" font-size="10.00">unistd.h</text>
</g>
<!-- Node26&#45;&gt;Node33 -->
<g id="edge41" class="edge"><title>Node26&#45;&gt;Node33</title>
<path fill="none" stroke="midnightblue" d="M837.102,-246.444C802.156,-236.766 745.344,-221.034 708.576,-210.852"/>
<polygon fill="midnightblue" stroke="midnightblue" points="709.343,-207.433 698.772,-208.137 707.475,-214.179 709.343,-207.433"/>
</g>
<!-- Node34 -->
<g id="node34" class="node"><title>Node34</title>
<polygon fill="none" stroke="#bfbfbf" points="717,-190.5 717,-209.5 761,-209.5 761,-190.5 717,-190.5"/>
<text text-anchor="middle" x="739" y="-197.5" font-family="Helvetica,sans-Serif" font-size="10.00">fcntl.h</text>
</g>
<!-- Node26&#45;&gt;Node34 -->
<g id="edge42" class="edge"><title>Node26&#45;&gt;Node34</title>
<path fill="none" stroke="midnightblue" d="M847.56,-246.444C826.33,-237.557 792.901,-223.563 768.745,-213.451"/>
<polygon fill="midnightblue" stroke="midnightblue" points="769.921,-210.149 759.345,-209.516 767.218,-216.606 769.921,-210.149"/>
</g>
<!-- Node35&#45;&gt;Node6 -->
<g id="edge46" class="edge"><title>Node35&#45;&gt;Node6</title>
<path fill="none" stroke="midnightblue" d="M1160.17,-444.258C1021.05,-441.742 618.353,-431.837 491,-400 437.024,-386.507 379.243,-357.173 344.367,-337.63"/>
<polygon fill="midnightblue" stroke="midnightblue" points="346.009,-334.538 335.585,-332.644 342.552,-340.625 346.009,-334.538"/>
</g>
<!-- Node35&#45;&gt;Node8 -->
<g id="edge48" class="edge"><title>Node35&#45;&gt;Node8</title>
<path fill="none" stroke="midnightblue" d="M1160.23,-441.477C1002.01,-429.178 505,-385.232 505,-318.5 505,-318.5 505,-318.5 505,-255 505,-208.648 521.377,-199.343 531,-154 540.374,-109.829 548.395,-57.3506 552.356,-29.8929"/>
<polygon fill="midnightblue" stroke="midnightblue" points="555.855,-30.1475 553.798,-19.7543 548.925,-29.1621 555.855,-30.1475"/>
</g>
<!-- Node35&#45;&gt;Node11 -->
<g id="edge49" class="edge"><title>Node35&#45;&gt;Node11</title>
<path fill="none" stroke="midnightblue" d="M1255.68,-443.138C1331.98,-437.326 1473,-413.705 1473,-318.5 1473,-318.5 1473,-318.5 1473,-137.5 1473,-94.3426 1443.54,-50.5787 1425.24,-27.5492"/>
<polygon fill="midnightblue" stroke="midnightblue" points="1427.91,-25.2846 1418.85,-19.7826 1422.5,-29.73 1427.91,-25.2846"/>
</g>
<!-- Node35&#45;&gt;Node23 -->
<g id="edge47" class="edge"><title>Node35&#45;&gt;Node23</title>
<path fill="none" stroke="midnightblue" d="M1221.44,-436.448C1234.71,-427.799 1255.37,-413.776 1272,-400 1304.92,-372.733 1317.39,-368.634 1341,-333 1358.64,-306.373 1359.46,-297.038 1367,-266 1389.09,-175.134 1392.68,-141.135 1354,-56 1349.35,-45.7658 1342.14,-35.5644 1335.64,-27.4684"/>
<polygon fill="midnightblue" stroke="midnightblue" points="1338.14,-25.0052 1329.02,-19.6079 1332.78,-29.5126 1338.14,-25.0052"/>
</g>
<!-- Node36 -->
<g id="node36" class="node"><title>Node36</title>
<g id="a_node36"><a xlink:href="pattern__formatter__impl_8h.html" target="_top" xlink:title="spdlog/details/pattern\l_formatter_impl.h">
<polygon fill="none" stroke="black" points="1153,-369.5 1153,-399.5 1263,-399.5 1263,-369.5 1153,-369.5"/>
<text text-anchor="start" x="1161" y="-387.5" font-family="Helvetica,sans-Serif" font-size="10.00">spdlog/details/pattern</text>
<text text-anchor="middle" x="1208" y="-376.5" font-family="Helvetica,sans-Serif" font-size="10.00">_formatter_impl.h</text>
</a>
</g>
</g>
<!-- Node35&#45;&gt;Node36 -->
<g id="edge50" class="edge"><title>Node35&#45;&gt;Node36</title>
<path fill="none" stroke="midnightblue" d="M1203.1,-436.475C1201.57,-429.471 1200.99,-419.192 1201.36,-409.696"/>
<polygon fill="midnightblue" stroke="midnightblue" points="1204.86,-409.77 1202.17,-399.523 1197.88,-409.212 1204.86,-409.77"/>
</g>
<!-- Node36&#45;&gt;Node6 -->
<g id="edge52" class="edge"><title>Node36&#45;&gt;Node6</title>
<path fill="none" stroke="midnightblue" d="M1152.87,-383.527C1018.55,-382.865 663.91,-376.738 372,-333 370.718,-332.808 369.424,-332.602 368.12,-332.383"/>
<polygon fill="midnightblue" stroke="midnightblue" points="368.499,-328.893 358.026,-330.492 367.21,-335.773 368.499,-328.893"/>
</g>
<!-- Node36&#45;&gt;Node8 -->
<g id="edge59" class="edge"><title>Node36&#45;&gt;Node8</title>
<path fill="none" stroke="midnightblue" d="M1152.6,-383.841C1036.72,-381.444 767.253,-359.113 619,-210 605.853,-196.777 572.566,-76.524 559.95,-29.6167"/>
<polygon fill="midnightblue" stroke="midnightblue" points="563.301,-28.5983 557.335,-19.8423 556.538,-30.4072 563.301,-28.5983"/>
</g>
<!-- Node36&#45;&gt;Node10 -->
<g id="edge55" class="edge"><title>Node36&#45;&gt;Node10</title>
<path fill="none" stroke="midnightblue" d="M1252.23,-369.437C1269.35,-361.586 1287.17,-349.887 1297,-333 1328.98,-278.079 1334.62,-241.226 1297,-190 1267.76,-150.181 1207.17,-140.909 1169.23,-139.218"/>
<polygon fill="midnightblue" stroke="midnightblue" points="1169.27,-135.718 1159.18,-138.923 1169.07,-142.715 1169.27,-135.718"/>
</g>
<!-- Node36&#45;&gt;Node11 -->
<g id="edge57" class="edge"><title>Node36&#45;&gt;Node11</title>
<path fill="none" stroke="midnightblue" d="M1263.25,-373.474C1289.68,-366.179 1320.05,-353.794 1341,-333 1426.47,-248.148 1418.71,-85.0912 1413.25,-29.8394"/>
<polygon fill="midnightblue" stroke="midnightblue" points="1416.71,-29.3164 1412.15,-19.7525 1409.75,-30.0718 1416.71,-29.3164"/>
</g>
<!-- Node36&#45;&gt;Node14 -->
<g id="edge54" class="edge"><title>Node36&#45;&gt;Node14</title>
<path fill="none" stroke="midnightblue" d="M1219.84,-369.412C1247.62,-334.6 1311.22,-243.477 1264,-190 1241.13,-164.107 1018.1,-148.359 913.122,-142.324"/>
<polygon fill="midnightblue" stroke="midnightblue" points="913.221,-138.825 903.039,-141.754 912.825,-145.813 913.221,-138.825"/>
</g>
<!-- Node36&#45;&gt;Node23 -->
<g id="edge62" class="edge"><title>Node36&#45;&gt;Node23</title>
<path fill="none" stroke="midnightblue" d="M1261.95,-369.439C1282.09,-361.708 1303.56,-350.096 1318,-333 1394.11,-242.903 1346.81,-82.6257 1327.82,-29.0236"/>
<polygon fill="midnightblue" stroke="midnightblue" points="1331.07,-27.7123 1324.35,-19.5218 1324.49,-30.1156 1331.07,-27.7123"/>
</g>
<!-- Node36&#45;&gt;Node24 -->
<g id="edge61" class="edge"><title>Node36&#45;&gt;Node24</title>
<path fill="none" stroke="midnightblue" d="M1152.72,-380.19C1066.37,-374.394 894.497,-360.332 751,-333 602.561,-304.726 194.439,-267.777 95,-154 64.4565,-119.053 68.1781,-59.7625 72.5609,-29.6888"/>
<polygon fill="midnightblue" stroke="midnightblue" points="76.0336,-30.1404 74.203,-19.7049 69.1264,-29.0043 76.0336,-30.1404"/>
</g>
<!-- Node36&#45;&gt;Node26 -->
<g id="edge53" class="edge"><title>Node36&#45;&gt;Node26</title>
<path fill="none" stroke="midnightblue" d="M1170.31,-369.479C1103.19,-344.505 964.043,-292.734 900.69,-269.163"/>
<polygon fill="midnightblue" stroke="midnightblue" points="901.789,-265.837 891.196,-265.63 899.348,-272.398 901.789,-265.837"/>
</g>
<!-- Node36&#45;&gt;Node27 -->
<g id="edge56" class="edge"><title>Node36&#45;&gt;Node27</title>
<path fill="none" stroke="midnightblue" d="M1205.23,-369.483C1198.82,-336.957 1182.92,-256.343 1175.69,-219.683"/>
<polygon fill="midnightblue" stroke="midnightblue" points="1179.11,-218.952 1173.74,-209.819 1172.24,-220.307 1179.11,-218.952"/>
</g>
<!-- Node36&#45;&gt;Node28 -->
<g id="edge60" class="edge"><title>Node36&#45;&gt;Node28</title>
<path fill="none" stroke="midnightblue" d="M1209.92,-369.483C1214.36,-337.097 1225.32,-257.037 1230.38,-220.159"/>
<polygon fill="midnightblue" stroke="midnightblue" points="1233.9,-220.201 1231.79,-209.819 1226.97,-219.251 1233.9,-220.201"/>
</g>
<!-- Node36&#45;&gt;Node35 -->
<g id="edge51" class="edge"><title>Node36&#45;&gt;Node35</title>
<path fill="none" stroke="midnightblue" d="M1213.83,-399.523C1214.87,-407.586 1215.03,-417.813 1214.3,-426.526"/>
<polygon fill="midnightblue" stroke="midnightblue" points="1210.83,-426.085 1212.9,-436.475 1217.76,-427.06 1210.83,-426.085"/>
</g>
<!-- Node36&#45;&gt;Node37 -->
<g id="edge58" class="edge"><title>Node36&#45;&gt;Node37</title>
<path fill="none" stroke="midnightblue" d="M1263.23,-372.103C1329.23,-358.484 1437.45,-336.154 1490.97,-325.11"/>
<polygon fill="midnightblue" stroke="midnightblue" points="1491.83,-328.506 1500.91,-323.058 1490.41,-321.651 1491.83,-328.506"/>
</g>
</g>
</svg>
