<?xml version="1.0" encoding="UTF-8" standalone="no"?>
<!DOCTYPE svg PUBLIC "-//W3C//DTD SVG 1.1//EN"
 "http://www.w3.org/Graphics/SVG/1.1/DTD/svg11.dtd">
<!-- Generated by graphviz version 2.36.0 (20140111.2315)
 -->
<!-- Title: /home/lucamuratore/advr&#45;superbuild/external/XBotInterface/include/spdlog/sinks/ostream_sink.h Pages: 1 -->
<svg width="1637pt" height="614pt"
 viewBox="0.00 0.00 1637.00 614.00" xmlns="http://www.w3.org/2000/svg" xmlns:xlink="http://www.w3.org/1999/xlink">
<g id="graph0" class="graph" transform="scale(1 1) rotate(0) translate(4 610)">
<title>/home/lucamuratore/advr&#45;superbuild/external/XBotInterface/include/spdlog/sinks/ostream_sink.h</title>
<!-- Node1 -->
<g id="node1" class="node"><title>Node1</title>
<polygon fill="#bfbfbf" stroke="black" points="1120.5,-553 1120.5,-605 1265.5,-605 1265.5,-553 1120.5,-553"/>
<text text-anchor="start" x="1128.5" y="-593" font-family="Helvetica,sans-Serif" font-size="10.00">/home/lucamuratore</text>
<text text-anchor="start" x="1128.5" y="-582" font-family="Helvetica,sans-Serif" font-size="10.00">/advr&#45;superbuild/external</text>
<text text-anchor="start" x="1128.5" y="-571" font-family="Helvetica,sans-Serif" font-size="10.00">/XBotInterface/include/spdlog</text>
<text text-anchor="middle" x="1193" y="-560" font-family="Helvetica,sans-Serif" font-size="10.00">/sinks/ostream_sink.h</text>
</g>
<!-- Node2 -->
<g id="node2" class="node"><title>Node2</title>
<g id="a_node2"><a xlink:href="null__mutex_8h.html" target="_top" xlink:title="spdlog/details/null\l_mutex.h">
<polygon fill="none" stroke="black" points="104.5,-125 104.5,-155 199.5,-155 199.5,-125 104.5,-125"/>
<text text-anchor="start" x="112.5" y="-143" font-family="Helvetica,sans-Serif" font-size="10.00">spdlog/details/null</text>
<text text-anchor="middle" x="152" y="-132" font-family="Helvetica,sans-Serif" font-size="10.00">_mutex.h</text>
</a>
</g>
</g>
<!-- Node1&#45;&gt;Node2 -->
<g id="edge1" class="edge"><title>Node1&#45;&gt;Node2</title>
<path fill="none" stroke="midnightblue" d="M1120.31,-576.35C891.167,-570.195 199,-543.912 199,-451 199,-451 199,-451 199,-257 199,-222.624 181.051,-186.435 167.337,-163.802"/>
<polygon fill="midnightblue" stroke="midnightblue" points="170.252,-161.863 161.967,-155.259 164.326,-165.588 170.252,-161.863"/>
</g>
<!-- Node4 -->
<g id="node4" class="node"><title>Node4</title>
<g id="a_node4"><a xlink:href="base__sink_8h.html" target="_top" xlink:title="spdlog/sinks/base_sink.h">
<polygon fill="none" stroke="black" points="773.5,-496.5 773.5,-515.5 900.5,-515.5 900.5,-496.5 773.5,-496.5"/>
<text text-anchor="middle" x="837" y="-503.5" font-family="Helvetica,sans-Serif" font-size="10.00">spdlog/sinks/base_sink.h</text>
</a>
</g>
</g>
<!-- Node1&#45;&gt;Node4 -->
<g id="edge3" class="edge"><title>Node1&#45;&gt;Node4</title>
<path fill="none" stroke="midnightblue" d="M1120.1,-563.461C1051.64,-549.808 950.87,-529.71 889.839,-517.538"/>
<polygon fill="midnightblue" stroke="midnightblue" points="890.151,-514.032 879.66,-515.508 888.782,-520.896 890.151,-514.032"/>
</g>
<!-- Node37 -->
<g id="node37" class="node"><title>Node37</title>
<polygon fill="none" stroke="#bfbfbf" points="1501,-310.5 1501,-329.5 1545,-329.5 1545,-310.5 1501,-310.5"/>
<text text-anchor="middle" x="1523" y="-317.5" font-family="Helvetica,sans-Serif" font-size="10.00">mutex</text>
</g>
<!-- Node1&#45;&gt;Node37 -->
<g id="edge67" class="edge"><title>Node1&#45;&gt;Node37</title>
<path fill="none" stroke="midnightblue" d="M1265.67,-559.358C1340.39,-536.135 1453.8,-488.775 1512,-404 1525.02,-385.036 1526.15,-357.801 1525.11,-339.768"/>
<polygon fill="midnightblue" stroke="midnightblue" points="1528.58,-339.32 1524.24,-329.655 1521.61,-339.917 1528.58,-339.32"/>
</g>
<!-- Node38 -->
<g id="node38" class="node"><title>Node38</title>
<polygon fill="none" stroke="#bfbfbf" points="1577,-496.5 1577,-515.5 1629,-515.5 1629,-496.5 1577,-496.5"/>
<text text-anchor="middle" x="1603" y="-503.5" font-family="Helvetica,sans-Serif" font-size="10.00">ostream</text>
</g>
<!-- Node1&#45;&gt;Node38 -->
<g id="edge66" class="edge"><title>Node1&#45;&gt;Node38</title>
<path fill="none" stroke="midnightblue" d="M1265.53,-567.06C1340.28,-555.501 1460.1,-536.182 1563,-516 1564.26,-515.753 1565.54,-515.497 1566.83,-515.233"/>
<polygon fill="midnightblue" stroke="midnightblue" points="1567.74,-518.617 1576.79,-513.114 1566.28,-511.77 1567.74,-518.617"/>
</g>
<!-- Node3 -->
<g id="node3" class="node"><title>Node3</title>
<polygon fill="none" stroke="#bfbfbf" points="167,-62.5 167,-81.5 213,-81.5 213,-62.5 167,-62.5"/>
<text text-anchor="middle" x="190" y="-69.5" font-family="Helvetica,sans-Serif" font-size="10.00">atomic</text>
</g>
<!-- Node2&#45;&gt;Node3 -->
<g id="edge2" class="edge"><title>Node2&#45;&gt;Node3</title>
<path fill="none" stroke="midnightblue" d="M160.245,-124.679C165.994,-114.694 173.702,-101.307 179.832,-90.6596"/>
<polygon fill="midnightblue" stroke="midnightblue" points="182.961,-92.2409 184.917,-81.8283 176.894,-88.7481 182.961,-92.2409"/>
</g>
<!-- Node5 -->
<g id="node5" class="node"><title>Node5</title>
<g id="a_node5"><a xlink:href="sink_8h.html" target="_top" xlink:title="spdlog/sinks/sink.h">
<polygon fill="none" stroke="black" points="261.5,-378.5 261.5,-397.5 362.5,-397.5 362.5,-378.5 261.5,-378.5"/>
<text text-anchor="middle" x="312" y="-385.5" font-family="Helvetica,sans-Serif" font-size="10.00">spdlog/sinks/sink.h</text>
</a>
</g>
</g>
<!-- Node4&#45;&gt;Node5 -->
<g id="edge4" class="edge"><title>Node4&#45;&gt;Node5</title>
<path fill="none" stroke="midnightblue" d="M773.34,-504.341C663.809,-502.295 444.918,-493.947 377,-460 353.132,-448.071 333.753,-423.404 322.547,-406.528"/>
<polygon fill="midnightblue" stroke="midnightblue" points="325.229,-404.222 316.921,-397.647 319.316,-407.968 325.229,-404.222"/>
</g>
<!-- Node6 -->
<g id="node6" class="node"><title>Node6</title>
<g id="a_node6"><a xlink:href="log__msg_8h.html" target="_top" xlink:title="spdlog/details/log\l_msg.h">
<polygon fill="none" stroke="black" points="266,-305 266,-335 358,-335 358,-305 266,-305"/>
<text text-anchor="start" x="274" y="-323" font-family="Helvetica,sans-Serif" font-size="10.00">spdlog/details/log</text>
<text text-anchor="middle" x="312" y="-312" font-family="Helvetica,sans-Serif" font-size="10.00">_msg.h</text>
</a>
</g>
</g>
<!-- Node4&#45;&gt;Node6 -->
<g id="edge64" class="edge"><title>Node4&#45;&gt;Node6</title>
<path fill="none" stroke="midnightblue" d="M773.341,-502.827C679.061,-498.726 507.57,-487.628 453,-460 405.305,-435.853 409.5,-409.089 371,-372 360.199,-361.595 347.7,-350.647 336.993,-341.573"/>
<polygon fill="midnightblue" stroke="midnightblue" points="339.122,-338.79 329.213,-335.039 334.621,-344.15 339.122,-338.79"/>
</g>
<!-- Node7 -->
<g id="node7" class="node"><title>Node7</title>
<g id="a_node7"><a xlink:href="common_8h.html" target="_top" xlink:title="spdlog/common.h">
<polygon fill="none" stroke="black" points="383,-192.5 383,-211.5 477,-211.5 477,-192.5 383,-192.5"/>
<text text-anchor="middle" x="430" y="-199.5" font-family="Helvetica,sans-Serif" font-size="10.00">spdlog/common.h</text>
</a>
</g>
</g>
<!-- Node4&#45;&gt;Node7 -->
<g id="edge63" class="edge"><title>Node4&#45;&gt;Node7</title>
<path fill="none" stroke="midnightblue" d="M773.395,-498.292C667.606,-485.352 467,-452.448 467,-389 467,-389 467,-389 467,-319 467,-282.704 450.355,-242.913 439.393,-220.643"/>
<polygon fill="midnightblue" stroke="midnightblue" points="442.502,-219.034 434.837,-211.72 436.267,-222.218 442.502,-219.034"/>
</g>
<!-- Node35 -->
<g id="node35" class="node"><title>Node35</title>
<g id="a_node35"><a xlink:href="formatter_8h.html" target="_top" xlink:title="spdlog/formatter.h">
<polygon fill="none" stroke="black" points="1160.5,-440.5 1160.5,-459.5 1255.5,-459.5 1255.5,-440.5 1160.5,-440.5"/>
<text text-anchor="middle" x="1208" y="-447.5" font-family="Helvetica,sans-Serif" font-size="10.00">spdlog/formatter.h</text>
</a>
</g>
</g>
<!-- Node4&#45;&gt;Node35 -->
<g id="edge45" class="edge"><title>Node4&#45;&gt;Node35</title>
<path fill="none" stroke="midnightblue" d="M895.786,-496.444C965.458,-486.303 1080.81,-469.512 1150.1,-459.428"/>
<polygon fill="midnightblue" stroke="midnightblue" points="1151,-462.834 1160.39,-457.93 1149.99,-455.907 1151,-462.834"/>
</g>
<!-- Node4&#45;&gt;Node37 -->
<g id="edge65" class="edge"><title>Node4&#45;&gt;Node37</title>
<path fill="none" stroke="midnightblue" d="M900.637,-503.349C1046.51,-498.3 1399.23,-478.502 1487,-404 1506.52,-387.432 1515.78,-358.311 1519.93,-339.341"/>
<polygon fill="midnightblue" stroke="midnightblue" points="1523.37,-339.997 1521.82,-329.516 1516.49,-338.673 1523.37,-339.997"/>
</g>
<!-- Node5&#45;&gt;Node6 -->
<g id="edge5" class="edge"><title>Node5&#45;&gt;Node6</title>
<path fill="none" stroke="midnightblue" d="M312,-378.372C312,-369.971 312,-356.811 312,-345.213"/>
<polygon fill="midnightblue" stroke="midnightblue" points="315.5,-345.181 312,-335.181 308.5,-345.181 315.5,-345.181"/>
</g>
<!-- Node6&#45;&gt;Node7 -->
<g id="edge6" class="edge"><title>Node6&#45;&gt;Node7</title>
<path fill="none" stroke="midnightblue" d="M326.469,-304.776C348.6,-283.021 390.714,-241.62 413.825,-218.901"/>
<polygon fill="midnightblue" stroke="midnightblue" points="416.465,-221.213 421.143,-211.707 411.558,-216.221 416.465,-221.213"/>
</g>
<!-- Node8 -->
<g id="node8" class="node"><title>Node8</title>
<polygon fill="none" stroke="#bfbfbf" points="534.5,-0.5 534.5,-19.5 575.5,-19.5 575.5,-0.5 534.5,-0.5"/>
<text text-anchor="middle" x="555" y="-7.5" font-family="Helvetica,sans-Serif" font-size="10.00">string</text>
</g>
<!-- Node6&#45;&gt;Node8 -->
<g id="edge43" class="edge"><title>Node6&#45;&gt;Node8</title>
<path fill="none" stroke="midnightblue" d="M265.829,-319.393C187.742,-317.375 38,-300.761 38,-203 38,-203 38,-203 38,-139 38,-74.1522 97.2861,-78.7829 158,-56 225.125,-30.8114 442.707,-16.96 523.991,-12.5605"/>
<polygon fill="midnightblue" stroke="midnightblue" points="524.288,-16.0497 534.089,-12.0249 523.917,-9.05953 524.288,-16.0497"/>
</g>
<!-- Node24 -->
<g id="node24" class="node"><title>Node24</title>
<polygon fill="none" stroke="#bfbfbf" points="56,-0.5 56,-19.5 96,-19.5 96,-0.5 56,-0.5"/>
<text text-anchor="middle" x="76" y="-7.5" font-family="Helvetica,sans-Serif" font-size="10.00">utility</text>
</g>
<!-- Node6&#45;&gt;Node24 -->
<g id="edge44" class="edge"><title>Node6&#45;&gt;Node24</title>
<path fill="none" stroke="midnightblue" d="M265.855,-316.338C194.031,-311.306 59.9909,-298.08 24,-268 0.370899,-248.251 0,-233.795 0,-203 0,-203 0,-203 0,-139 0,-100.6 3.29557,-88.3403 24,-56 31.6441,-44.0599 43.3855,-33.5143 53.7782,-25.6386"/>
<polygon fill="midnightblue" stroke="midnightblue" points="55.9931,-28.357 62.0713,-19.679 51.9081,-22.6725 55.9931,-28.357"/>
</g>
<!-- Node26 -->
<g id="node26" class="node"><title>Node26</title>
<g id="a_node26"><a xlink:href="os_8h.html" target="_top" xlink:title="spdlog/details/os.h">
<polygon fill="none" stroke="black" points="819,-248.5 819,-267.5 917,-267.5 917,-248.5 819,-248.5"/>
<text text-anchor="middle" x="868" y="-255.5" font-family="Helvetica,sans-Serif" font-size="10.00">spdlog/details/os.h</text>
</a>
</g>
</g>
<!-- Node6&#45;&gt;Node26 -->
<g id="edge29" class="edge"><title>Node6&#45;&gt;Node26</title>
<path fill="none" stroke="midnightblue" d="M358.448,-313.988C459.179,-303.117 697.589,-277.39 808.872,-265.381"/>
<polygon fill="midnightblue" stroke="midnightblue" points="809.347,-268.85 818.914,-264.297 808.596,-261.89 809.347,-268.85"/>
</g>
<!-- Node7&#45;&gt;Node2 -->
<g id="edge14" class="edge"><title>Node7&#45;&gt;Node2</title>
<path fill="none" stroke="midnightblue" d="M386.881,-192.439C343.219,-183.671 273.792,-169.458 214,-156 212.548,-155.673 211.078,-155.339 209.595,-155"/>
<polygon fill="midnightblue" stroke="midnightblue" points="210.224,-151.553 199.691,-152.701 208.641,-158.372 210.224,-151.553"/>
</g>
<!-- Node7&#45;&gt;Node3 -->
<g id="edge11" class="edge"><title>Node7&#45;&gt;Node3</title>
<path fill="none" stroke="midnightblue" d="M382.618,-198.602C343.254,-194.567 287.363,-183.915 247,-156 223.345,-139.64 206.552,-110.025 197.571,-90.9506"/>
<polygon fill="midnightblue" stroke="midnightblue" points="200.664,-89.2936 193.391,-81.5892 194.272,-92.1474 200.664,-89.2936"/>
</g>
<!-- Node7&#45;&gt;Node8 -->
<g id="edge7" class="edge"><title>Node7&#45;&gt;Node8</title>
<path fill="none" stroke="midnightblue" d="M431.432,-192.435C434.159,-177.692 441.017,-146.9 454,-124 476.439,-84.4218 514.643,-46.7569 537.079,-26.4766"/>
<polygon fill="midnightblue" stroke="midnightblue" points="539.684,-28.8435 544.84,-19.5874 535.037,-23.6085 539.684,-28.8435"/>
</g>
<!-- Node9 -->
<g id="node9" class="node"><title>Node9</title>
<polygon fill="none" stroke="#bfbfbf" points="333.5,-130.5 333.5,-149.5 406.5,-149.5 406.5,-130.5 333.5,-130.5"/>
<text text-anchor="middle" x="370" y="-137.5" font-family="Helvetica,sans-Serif" font-size="10.00">initializer_list</text>
</g>
<!-- Node7&#45;&gt;Node9 -->
<g id="edge8" class="edge"><title>Node7&#45;&gt;Node9</title>
<path fill="none" stroke="midnightblue" d="M421.403,-192.403C412.136,-183.136 397.183,-168.183 385.788,-156.788"/>
<polygon fill="midnightblue" stroke="midnightblue" points="388.127,-154.177 378.581,-149.581 383.177,-159.127 388.127,-154.177"/>
</g>
<!-- Node10 -->
<g id="node10" class="node"><title>Node10</title>
<polygon fill="none" stroke="#bfbfbf" points="1113,-130.5 1113,-149.5 1159,-149.5 1159,-130.5 1113,-130.5"/>
<text text-anchor="middle" x="1136" y="-137.5" font-family="Helvetica,sans-Serif" font-size="10.00">chrono</text>
</g>
<!-- Node7&#45;&gt;Node10 -->
<g id="edge9" class="edge"><title>Node7&#45;&gt;Node10</title>
<path fill="none" stroke="midnightblue" d="M477.204,-198.409C603.656,-191.345 948.081,-171.256 1061,-156 1074.81,-154.134 1089.9,-151.277 1102.9,-148.556"/>
<polygon fill="midnightblue" stroke="midnightblue" points="1103.78,-151.948 1112.82,-146.423 1102.3,-145.104 1103.78,-151.948"/>
</g>
<!-- Node11 -->
<g id="node11" class="node"><title>Node11</title>
<polygon fill="none" stroke="#bfbfbf" points="1385,-0.5 1385,-19.5 1437,-19.5 1437,-0.5 1385,-0.5"/>
<text text-anchor="middle" x="1411" y="-7.5" font-family="Helvetica,sans-Serif" font-size="10.00">memory</text>
</g>
<!-- Node7&#45;&gt;Node11 -->
<g id="edge10" class="edge"><title>Node7&#45;&gt;Node11</title>
<path fill="none" stroke="midnightblue" d="M477.183,-199.54C563.828,-196.208 753.827,-185.864 911,-156 1090.67,-121.861 1298.69,-51.1008 1377.99,-22.9394"/>
<polygon fill="midnightblue" stroke="midnightblue" points="1379.21,-26.2224 1387.45,-19.566 1376.86,-19.6294 1379.21,-26.2224"/>
</g>
<!-- Node12 -->
<g id="node12" class="node"><title>Node12</title>
<polygon fill="none" stroke="#bfbfbf" points="256.5,-130.5 256.5,-149.5 315.5,-149.5 315.5,-130.5 256.5,-130.5"/>
<text text-anchor="middle" x="286" y="-137.5" font-family="Helvetica,sans-Serif" font-size="10.00">exception</text>
</g>
<!-- Node7&#45;&gt;Node12 -->
<g id="edge12" class="edge"><title>Node7&#45;&gt;Node12</title>
<path fill="none" stroke="midnightblue" d="M409.368,-192.403C384.881,-182.2 343.853,-165.105 315.891,-153.454"/>
<polygon fill="midnightblue" stroke="midnightblue" points="317.17,-150.196 306.593,-149.581 314.478,-156.658 317.17,-150.196"/>
</g>
<!-- Node13 -->
<g id="node13" class="node"><title>Node13</title>
<polygon fill="none" stroke="#bfbfbf" points="463.5,-130.5 463.5,-149.5 522.5,-149.5 522.5,-130.5 463.5,-130.5"/>
<text text-anchor="middle" x="493" y="-137.5" font-family="Helvetica,sans-Serif" font-size="10.00">functional</text>
</g>
<!-- Node7&#45;&gt;Node13 -->
<g id="edge13" class="edge"><title>Node7&#45;&gt;Node13</title>
<path fill="none" stroke="midnightblue" d="M439.026,-192.403C448.757,-183.136 464.458,-168.183 476.423,-156.788"/>
<polygon fill="midnightblue" stroke="midnightblue" points="479.163,-159.012 483.99,-149.581 474.335,-153.943 479.163,-159.012"/>
</g>
<!-- Node14 -->
<g id="node14" class="node"><title>Node14</title>
<g id="a_node14"><a xlink:href="fmt_8h.html" target="_top" xlink:title="spdlog/fmt/fmt.h">
<polygon fill="none" stroke="black" points="815,-130.5 815,-149.5 903,-149.5 903,-130.5 815,-130.5"/>
<text text-anchor="middle" x="859" y="-137.5" font-family="Helvetica,sans-Serif" font-size="10.00">spdlog/fmt/fmt.h</text>
</a>
</g>
</g>
<!-- Node7&#45;&gt;Node14 -->
<g id="edge15" class="edge"><title>Node7&#45;&gt;Node14</title>
<path fill="none" stroke="midnightblue" d="M477.138,-194.407C557.35,-183.189 719.922,-160.451 804.74,-148.589"/>
<polygon fill="midnightblue" stroke="midnightblue" points="805.269,-152.049 814.688,-147.198 804.299,-145.116 805.269,-152.049"/>
</g>
<!-- Node15 -->
<g id="node15" class="node"><title>Node15</title>
<g id="a_node15"><a xlink:href="format_8h.html" target="_top" xlink:title="spdlog/fmt/bundled\l/format.h">
<polygon fill="none" stroke="black" points="809.5,-57 809.5,-87 908.5,-87 908.5,-57 809.5,-57"/>
<text text-anchor="start" x="817.5" y="-75" font-family="Helvetica,sans-Serif" font-size="10.00">spdlog/fmt/bundled</text>
<text text-anchor="middle" x="859" y="-64" font-family="Helvetica,sans-Serif" font-size="10.00">/format.h</text>
</a>
</g>
</g>
<!-- Node14&#45;&gt;Node15 -->
<g id="edge16" class="edge"><title>Node14&#45;&gt;Node15</title>
<path fill="none" stroke="midnightblue" d="M859,-130.372C859,-121.971 859,-108.811 859,-97.2126"/>
<polygon fill="midnightblue" stroke="midnightblue" points="862.5,-97.1814 859,-87.1815 855.5,-97.1815 862.5,-97.1814"/>
</g>
<!-- Node15&#45;&gt;Node8 -->
<g id="edge25" class="edge"><title>Node15&#45;&gt;Node8</title>
<path fill="none" stroke="midnightblue" d="M809.356,-62.1428C755.828,-52.4386 668.176,-36.1012 593,-20 590.651,-19.4968 588.224,-18.9605 585.785,-18.4098"/>
<polygon fill="midnightblue" stroke="midnightblue" points="586.401,-14.9599 575.87,-16.1137 584.822,-21.7795 586.401,-14.9599"/>
</g>
<!-- Node15&#45;&gt;Node11 -->
<g id="edge23" class="edge"><title>Node15&#45;&gt;Node11</title>
<path fill="none" stroke="midnightblue" d="M908.669,-66.6065C997.537,-58.5772 1189.56,-40.4645 1351,-20 1358.7,-19.0237 1366.94,-17.8636 1374.77,-16.7064"/>
<polygon fill="midnightblue" stroke="midnightblue" points="1375.38,-20.1539 1384.75,-15.2026 1374.34,-13.2321 1375.38,-20.1539"/>
</g>
<!-- Node16 -->
<g id="node16" class="node"><title>Node16</title>
<polygon fill="none" stroke="#bfbfbf" points="868.5,-0.5 868.5,-19.5 917.5,-19.5 917.5,-0.5 868.5,-0.5"/>
<text text-anchor="middle" x="893" y="-7.5" font-family="Helvetica,sans-Serif" font-size="10.00">cassert</text>
</g>
<!-- Node15&#45;&gt;Node16 -->
<g id="edge17" class="edge"><title>Node15&#45;&gt;Node16</title>
<path fill="none" stroke="midnightblue" d="M867.058,-56.7808C871.845,-48.3318 877.956,-37.5481 883.044,-28.5693"/>
<polygon fill="midnightblue" stroke="midnightblue" points="886.168,-30.1563 888.053,-19.7305 880.077,-26.7052 886.168,-30.1563"/>
</g>
<!-- Node17 -->
<g id="node17" class="node"><title>Node17</title>
<polygon fill="none" stroke="#bfbfbf" points="935.5,-0.5 935.5,-19.5 982.5,-19.5 982.5,-0.5 935.5,-0.5"/>
<text text-anchor="middle" x="959" y="-7.5" font-family="Helvetica,sans-Serif" font-size="10.00">clocale</text>
</g>
<!-- Node15&#45;&gt;Node17 -->
<g id="edge18" class="edge"><title>Node15&#45;&gt;Node17</title>
<path fill="none" stroke="midnightblue" d="M882.446,-56.9327C898.564,-47.2619 919.868,-34.4793 935.909,-24.8546"/>
<polygon fill="midnightblue" stroke="midnightblue" points="937.892,-27.7463 944.667,-19.6 934.291,-21.7438 937.892,-27.7463"/>
</g>
<!-- Node18 -->
<g id="node18" class="node"><title>Node18</title>
<polygon fill="none" stroke="#bfbfbf" points="1001,-0.5 1001,-19.5 1045,-19.5 1045,-0.5 1001,-0.5"/>
<text text-anchor="middle" x="1023" y="-7.5" font-family="Helvetica,sans-Serif" font-size="10.00">cmath</text>
</g>
<!-- Node15&#45;&gt;Node18 -->
<g id="edge19" class="edge"><title>Node15&#45;&gt;Node18</title>
<path fill="none" stroke="midnightblue" d="M897.451,-56.9327C925.994,-46.4901 964.454,-32.4193 991.255,-22.6139"/>
<polygon fill="midnightblue" stroke="midnightblue" points="992.723,-25.804 1000.91,-19.0812 990.318,-19.2301 992.723,-25.804"/>
</g>
<!-- Node19 -->
<g id="node19" class="node"><title>Node19</title>
<polygon fill="none" stroke="#bfbfbf" points="1063.5,-0.5 1063.5,-19.5 1106.5,-19.5 1106.5,-0.5 1063.5,-0.5"/>
<text text-anchor="middle" x="1085" y="-7.5" font-family="Helvetica,sans-Serif" font-size="10.00">cstdio</text>
</g>
<!-- Node15&#45;&gt;Node19 -->
<g id="edge20" class="edge"><title>Node15&#45;&gt;Node19</title>
<path fill="none" stroke="midnightblue" d="M908.903,-58.1315C948.123,-47.9574 1004.11,-33.3013 1053,-20 1053.21,-19.9432 1053.42,-19.8861 1053.63,-19.8288"/>
<polygon fill="midnightblue" stroke="midnightblue" points="1054.62,-23.1866 1063.33,-17.1501 1052.75,-16.4393 1054.62,-23.1866"/>
</g>
<!-- Node20 -->
<g id="node20" class="node"><title>Node20</title>
<polygon fill="none" stroke="#bfbfbf" points="602,-0.5 602,-19.5 648,-19.5 648,-0.5 602,-0.5"/>
<text text-anchor="middle" x="625" y="-7.5" font-family="Helvetica,sans-Serif" font-size="10.00">cstring</text>
</g>
<!-- Node15&#45;&gt;Node20 -->
<g id="edge21" class="edge"><title>Node15&#45;&gt;Node20</title>
<path fill="none" stroke="midnightblue" d="M809.096,-58.7963C770.394,-49.2421 715.167,-35.4143 657.992,-20.2143"/>
<polygon fill="midnightblue" stroke="midnightblue" points="658.616,-16.7585 648.052,-17.5631 656.812,-23.5221 658.616,-16.7585"/>
</g>
<!-- Node21 -->
<g id="node21" class="node"><title>Node21</title>
<polygon fill="none" stroke="#bfbfbf" points="666,-0.5 666,-19.5 706,-19.5 706,-0.5 666,-0.5"/>
<text text-anchor="middle" x="686" y="-7.5" font-family="Helvetica,sans-Serif" font-size="10.00">limits</text>
</g>
<!-- Node15&#45;&gt;Node21 -->
<g id="edge22" class="edge"><title>Node15&#45;&gt;Node21</title>
<path fill="none" stroke="midnightblue" d="M818.439,-56.9327C787.13,-46.0739 744.509,-31.292 716.166,-21.4623"/>
<polygon fill="midnightblue" stroke="midnightblue" points="717.013,-18.0514 706.418,-18.0814 714.719,-24.6649 717.013,-18.0514"/>
</g>
<!-- Node22 -->
<g id="node22" class="node"><title>Node22</title>
<polygon fill="none" stroke="#bfbfbf" points="724.5,-0.5 724.5,-19.5 783.5,-19.5 783.5,-0.5 724.5,-0.5"/>
<text text-anchor="middle" x="754" y="-7.5" font-family="Helvetica,sans-Serif" font-size="10.00">stdexcept</text>
</g>
<!-- Node15&#45;&gt;Node22 -->
<g id="edge24" class="edge"><title>Node15&#45;&gt;Node22</title>
<path fill="none" stroke="midnightblue" d="M834.382,-56.9327C817.3,-47.1715 794.67,-34.2401 777.775,-24.5856"/>
<polygon fill="midnightblue" stroke="midnightblue" points="779.469,-21.5226 769.05,-19.6 775.996,-27.6003 779.469,-21.5226"/>
</g>
<!-- Node23 -->
<g id="node23" class="node"><title>Node23</title>
<polygon fill="none" stroke="#bfbfbf" points="1299,-0.5 1299,-19.5 1343,-19.5 1343,-0.5 1299,-0.5"/>
<text text-anchor="middle" x="1321" y="-7.5" font-family="Helvetica,sans-Serif" font-size="10.00">vector</text>
</g>
<!-- Node15&#45;&gt;Node23 -->
<g id="edge26" class="edge"><title>Node15&#45;&gt;Node23</title>
<path fill="none" stroke="midnightblue" d="M908.881,-64.5219C1004.04,-52.1642 1209.07,-25.5361 1288.57,-15.2113"/>
<polygon fill="midnightblue" stroke="midnightblue" points="1289.47,-18.6246 1298.93,-13.8658 1288.57,-11.6829 1289.47,-18.6246"/>
</g>
<!-- Node15&#45;&gt;Node24 -->
<g id="edge27" class="edge"><title>Node15&#45;&gt;Node24</title>
<path fill="none" stroke="midnightblue" d="M809.426,-67.2012C661.425,-55.8601 225.665,-22.4686 106.449,-13.3332"/>
<polygon fill="midnightblue" stroke="midnightblue" points="106.466,-9.82436 96.2274,-12.55 105.931,-16.8039 106.466,-9.82436"/>
</g>
<!-- Node25 -->
<g id="node25" class="node"><title>Node25</title>
<polygon fill="none" stroke="#bfbfbf" points="801.5,-0.5 801.5,-19.5 850.5,-19.5 850.5,-0.5 801.5,-0.5"/>
<text text-anchor="middle" x="826" y="-7.5" font-family="Helvetica,sans-Serif" font-size="10.00">stdint.h</text>
</g>
<!-- Node15&#45;&gt;Node25 -->
<g id="edge28" class="edge"><title>Node15&#45;&gt;Node25</title>
<path fill="none" stroke="midnightblue" d="M851.179,-56.7808C846.532,-48.3318 840.601,-37.5481 835.663,-28.5693"/>
<polygon fill="midnightblue" stroke="midnightblue" points="838.688,-26.806 830.802,-19.7305 832.554,-30.1794 838.688,-26.806"/>
</g>
<!-- Node26&#45;&gt;Node7 -->
<g id="edge30" class="edge"><title>Node26&#45;&gt;Node7</title>
<path fill="none" stroke="midnightblue" d="M818.607,-250.91C736.912,-240.838 574.082,-220.764 487.401,-210.077"/>
<polygon fill="midnightblue" stroke="midnightblue" points="487.571,-206.571 477.218,-208.821 486.715,-213.519 487.571,-206.571"/>
</g>
<!-- Node26&#45;&gt;Node8 -->
<g id="edge34" class="edge"><title>Node26&#45;&gt;Node8</title>
<path fill="none" stroke="midnightblue" d="M818.842,-253.593C759.116,-248.43 663.19,-236.507 638,-212 587.069,-162.451 638.256,-117.694 603,-56 596.337,-44.3406 585.671,-33.8998 576.084,-26.0172"/>
<polygon fill="midnightblue" stroke="midnightblue" points="578.107,-23.1569 568.064,-19.7823 573.81,-28.6833 578.107,-23.1569"/>
</g>
<!-- Node26&#45;&gt;Node10 -->
<g id="edge35" class="edge"><title>Node26&#45;&gt;Node10</title>
<path fill="none" stroke="midnightblue" d="M917.197,-252.435C976.246,-246.11 1070.85,-233.023 1099,-212 1116.19,-199.162 1126.11,-175.988 1131.27,-159.613"/>
<polygon fill="midnightblue" stroke="midnightblue" points="1134.75,-160.149 1134.11,-149.573 1128.02,-158.241 1134.75,-160.149"/>
</g>
<!-- Node26&#45;&gt;Node13 -->
<g id="edge33" class="edge"><title>Node26&#45;&gt;Node13</title>
<path fill="none" stroke="midnightblue" d="M818.972,-254.387C764.972,-250.203 676.337,-239.442 605,-212 569.277,-198.258 532.718,-172.421 511.474,-155.994"/>
<polygon fill="midnightblue" stroke="midnightblue" points="513.374,-153.035 503.354,-149.593 509.04,-158.532 513.374,-153.035"/>
</g>
<!-- Node26&#45;&gt;Node19 -->
<g id="edge31" class="edge"><title>Node26&#45;&gt;Node19</title>
<path fill="none" stroke="midnightblue" d="M917.049,-252.376C969.169,-246.377 1046.69,-233.982 1066,-212 1111.69,-159.99 1098.19,-68.5938 1089.63,-29.5413"/>
<polygon fill="midnightblue" stroke="midnightblue" points="1092.99,-28.5344 1087.31,-19.5947 1086.18,-30.1292 1092.99,-28.5344"/>
</g>
<!-- Node27 -->
<g id="node27" class="node"><title>Node27</title>
<polygon fill="none" stroke="#bfbfbf" points="1151.5,-192.5 1151.5,-211.5 1192.5,-211.5 1192.5,-192.5 1151.5,-192.5"/>
<text text-anchor="middle" x="1172" y="-199.5" font-family="Helvetica,sans-Serif" font-size="10.00">ctime</text>
</g>
<!-- Node26&#45;&gt;Node27 -->
<g id="edge32" class="edge"><title>Node26&#45;&gt;Node27</title>
<path fill="none" stroke="midnightblue" d="M917.325,-250.049C971.456,-242.118 1060.8,-228.14 1137,-212 1138.46,-211.691 1139.95,-211.362 1141.45,-211.02"/>
<polygon fill="midnightblue" stroke="midnightblue" points="1142.44,-214.379 1151.34,-208.626 1140.8,-207.576 1142.44,-214.379"/>
</g>
<!-- Node28 -->
<g id="node28" class="node"><title>Node28</title>
<polygon fill="none" stroke="#bfbfbf" points="1211,-192.5 1211,-211.5 1255,-211.5 1255,-192.5 1211,-192.5"/>
<text text-anchor="middle" x="1233" y="-199.5" font-family="Helvetica,sans-Serif" font-size="10.00">thread</text>
</g>
<!-- Node26&#45;&gt;Node28 -->
<g id="edge36" class="edge"><title>Node26&#45;&gt;Node28</title>
<path fill="none" stroke="midnightblue" d="M917.172,-252.527C980.49,-246.289 1094.03,-233.483 1200.75,-211.757"/>
<polygon fill="midnightblue" stroke="midnightblue" points="1201.63,-215.148 1210.72,-209.696 1200.22,-208.293 1201.63,-215.148"/>
</g>
<!-- Node29 -->
<g id="node29" class="node"><title>Node29</title>
<polygon fill="none" stroke="#bfbfbf" points="779,-192.5 779,-211.5 825,-211.5 825,-192.5 779,-192.5"/>
<text text-anchor="middle" x="802" y="-199.5" font-family="Helvetica,sans-Serif" font-size="10.00">stdio.h</text>
</g>
<!-- Node26&#45;&gt;Node29 -->
<g id="edge37" class="edge"><title>Node26&#45;&gt;Node29</title>
<path fill="none" stroke="midnightblue" d="M857.396,-248.324C847.544,-240.263 832.649,-228.077 820.785,-218.369"/>
<polygon fill="midnightblue" stroke="midnightblue" points="822.753,-215.457 812.797,-211.834 818.32,-220.875 822.753,-215.457"/>
</g>
<!-- Node30 -->
<g id="node30" class="node"><title>Node30</title>
<polygon fill="none" stroke="#bfbfbf" points="843.5,-192.5 843.5,-211.5 892.5,-211.5 892.5,-192.5 843.5,-192.5"/>
<text text-anchor="middle" x="868" y="-199.5" font-family="Helvetica,sans-Serif" font-size="10.00">string.h</text>
</g>
<!-- Node26&#45;&gt;Node30 -->
<g id="edge38" class="edge"><title>Node26&#45;&gt;Node30</title>
<path fill="none" stroke="midnightblue" d="M868,-248.083C868,-241.006 868,-230.861 868,-221.986"/>
<polygon fill="midnightblue" stroke="midnightblue" points="871.5,-221.751 868,-211.751 864.5,-221.751 871.5,-221.751"/>
</g>
<!-- Node31 -->
<g id="node31" class="node"><title>Node31</title>
<polygon fill="none" stroke="#bfbfbf" points="911,-192.5 911,-211.5 971,-211.5 971,-192.5 911,-192.5"/>
<text text-anchor="middle" x="941" y="-199.5" font-family="Helvetica,sans-Serif" font-size="10.00">sys/stat.h</text>
</g>
<!-- Node26&#45;&gt;Node31 -->
<g id="edge39" class="edge"><title>Node26&#45;&gt;Node31</title>
<path fill="none" stroke="midnightblue" d="M879.729,-248.324C890.837,-240.107 907.742,-227.602 920.983,-217.807"/>
<polygon fill="midnightblue" stroke="midnightblue" points="923.1,-220.595 929.058,-211.834 918.937,-214.967 923.1,-220.595"/>
</g>
<!-- Node32 -->
<g id="node32" class="node"><title>Node32</title>
<polygon fill="none" stroke="#bfbfbf" points="989,-192.5 989,-211.5 1057,-211.5 1057,-192.5 989,-192.5"/>
<text text-anchor="middle" x="1023" y="-199.5" font-family="Helvetica,sans-Serif" font-size="10.00">sys/types.h</text>
</g>
<!-- Node26&#45;&gt;Node32 -->
<g id="edge40" class="edge"><title>Node26&#45;&gt;Node32</title>
<path fill="none" stroke="midnightblue" d="M892.56,-248.444C918.523,-239.399 959.668,-225.064 988.797,-214.916"/>
<polygon fill="midnightblue" stroke="midnightblue" points="990.263,-218.112 998.555,-211.516 987.96,-211.501 990.263,-218.112"/>
</g>
<!-- Node33 -->
<g id="node33" class="node"><title>Node33</title>
<polygon fill="none" stroke="#bfbfbf" points="647.5,-192.5 647.5,-211.5 698.5,-211.5 698.5,-192.5 647.5,-192.5"/>
<text text-anchor="middle" x="673" y="-199.5" font-family="Helvetica,sans-Serif" font-size="10.00">unistd.h</text>
</g>
<!-- Node26&#45;&gt;Node33 -->
<g id="edge41" class="edge"><title>Node26&#45;&gt;Node33</title>
<path fill="none" stroke="midnightblue" d="M837.102,-248.444C802.156,-238.766 745.344,-223.034 708.576,-212.852"/>
<polygon fill="midnightblue" stroke="midnightblue" points="709.343,-209.433 698.772,-210.137 707.475,-216.179 709.343,-209.433"/>
</g>
<!-- Node34 -->
<g id="node34" class="node"><title>Node34</title>
<polygon fill="none" stroke="#bfbfbf" points="717,-192.5 717,-211.5 761,-211.5 761,-192.5 717,-192.5"/>
<text text-anchor="middle" x="739" y="-199.5" font-family="Helvetica,sans-Serif" font-size="10.00">fcntl.h</text>
</g>
<!-- Node26&#45;&gt;Node34 -->
<g id="edge42" class="edge"><title>Node26&#45;&gt;Node34</title>
<path fill="none" stroke="midnightblue" d="M847.56,-248.444C826.33,-239.557 792.901,-225.563 768.745,-215.451"/>
<polygon fill="midnightblue" stroke="midnightblue" points="769.921,-212.149 759.345,-211.516 767.218,-218.606 769.921,-212.149"/>
</g>
<!-- Node35&#45;&gt;Node6 -->
<g id="edge46" class="edge"><title>Node35&#45;&gt;Node6</title>
<path fill="none" stroke="midnightblue" d="M1160.16,-448.3C1021.01,-445.899 618.242,-436.277 491,-404 462.541,-396.781 391.934,-362.014 348.386,-339.829"/>
<polygon fill="midnightblue" stroke="midnightblue" points="349.761,-336.601 339.264,-335.164 346.574,-342.833 349.761,-336.601"/>
</g>
<!-- Node35&#45;&gt;Node8 -->
<g id="edge48" class="edge"><title>Node35&#45;&gt;Node8</title>
<path fill="none" stroke="midnightblue" d="M1160.23,-445.377C1002.01,-432.746 505,-387.757 505,-321 505,-321 505,-321 505,-257 505,-210.648 521.428,-201.353 531,-156 540.497,-110.998 548.519,-57.4832 552.434,-29.7531"/>
<polygon fill="midnightblue" stroke="midnightblue" points="555.943,-29.9343 553.853,-19.5475 549.009,-28.9702 555.943,-29.9343"/>
</g>
<!-- Node35&#45;&gt;Node11 -->
<g id="edge49" class="edge"><title>Node35&#45;&gt;Node11</title>
<path fill="none" stroke="midnightblue" d="M1255.68,-446.914C1331.98,-440.738 1473,-416.416 1473,-321 1473,-321 1473,-321 1473,-139 1473,-95.2105 1443.25,-50.6639 1424.96,-27.4238"/>
<polygon fill="midnightblue" stroke="midnightblue" points="1427.63,-25.1546 1418.6,-19.606 1422.2,-29.5721 1427.63,-25.1546"/>
</g>
<!-- Node35&#45;&gt;Node23 -->
<g id="edge47" class="edge"><title>Node35&#45;&gt;Node23</title>
<path fill="none" stroke="midnightblue" d="M1221.46,-440.474C1234.75,-431.846 1255.42,-417.838 1272,-404 1328.8,-356.594 1350.88,-339.978 1368,-268 1389.85,-176.135 1392.93,-142.03 1354,-56 1349.37,-45.7585 1342.15,-35.5564 1335.65,-27.4619"/>
<polygon fill="midnightblue" stroke="midnightblue" points="1338.15,-24.9963 1329.03,-19.6036 1332.8,-29.5064 1338.15,-24.9963"/>
</g>
<!-- Node36 -->
<g id="node36" class="node"><title>Node36</title>
<g id="a_node36"><a xlink:href="pattern__formatter__impl_8h.html" target="_top" xlink:title="spdlog/details/pattern\l_formatter_impl.h">
<polygon fill="none" stroke="black" points="1153,-373 1153,-403 1263,-403 1263,-373 1153,-373"/>
<text text-anchor="start" x="1161" y="-391" font-family="Helvetica,sans-Serif" font-size="10.00">spdlog/details/pattern</text>
<text text-anchor="middle" x="1208" y="-380" font-family="Helvetica,sans-Serif" font-size="10.00">_formatter_impl.h</text>
</a>
</g>
</g>
<!-- Node35&#45;&gt;Node36 -->
<g id="edge50" class="edge"><title>Node35&#45;&gt;Node36</title>
<path fill="none" stroke="midnightblue" d="M1203.1,-440.403C1201.57,-433.341 1200.99,-422.975 1201.36,-413.399"/>
<polygon fill="midnightblue" stroke="midnightblue" points="1204.87,-413.386 1202.17,-403.141 1197.89,-412.832 1204.87,-413.386"/>
</g>
<!-- Node36&#45;&gt;Node6 -->
<g id="edge52" class="edge"><title>Node36&#45;&gt;Node6</title>
<path fill="none" stroke="midnightblue" d="M1152.85,-387.13C1018.47,-386.69 663.734,-380.973 372,-336 370.717,-335.802 369.421,-335.59 368.116,-335.364"/>
<polygon fill="midnightblue" stroke="midnightblue" points="368.496,-331.873 358.013,-333.412 367.168,-338.746 368.496,-331.873"/>
</g>
<!-- Node36&#45;&gt;Node8 -->
<g id="edge59" class="edge"><title>Node36&#45;&gt;Node8</title>
<path fill="none" stroke="midnightblue" d="M1152.9,-387.323C1036.99,-384.896 766.536,-362.401 619,-212 605.823,-198.567 572.554,-77.1524 559.946,-29.7949"/>
<polygon fill="midnightblue" stroke="midnightblue" points="563.277,-28.6979 557.334,-19.9268 556.51,-30.4896 563.277,-28.6979"/>
</g>
<!-- Node36&#45;&gt;Node10 -->
<g id="edge55" class="edge"><title>Node36&#45;&gt;Node10</title>
<path fill="none" stroke="midnightblue" d="M1251.77,-372.911C1269.04,-364.963 1287.09,-353.103 1297,-336 1329.09,-280.626 1334.81,-243.638 1297,-192 1267.79,-152.104 1207.19,-142.64 1169.24,-140.826"/>
<polygon fill="midnightblue" stroke="midnightblue" points="1169.29,-137.326 1159.18,-140.499 1169.06,-144.322 1169.29,-137.326"/>
</g>
<!-- Node36&#45;&gt;Node11 -->
<g id="edge57" class="edge"><title>Node36&#45;&gt;Node11</title>
<path fill="none" stroke="midnightblue" d="M1263.19,-376.681C1289.6,-369.265 1319.98,-356.773 1341,-336 1427.62,-250.399 1419.01,-85.1325 1413.3,-29.667"/>
<polygon fill="midnightblue" stroke="midnightblue" points="1416.76,-29.1113 1412.16,-19.566 1409.81,-29.895 1416.76,-29.1113"/>
</g>
<!-- Node36&#45;&gt;Node14 -->
<g id="edge54" class="edge"><title>Node36&#45;&gt;Node14</title>
<path fill="none" stroke="midnightblue" d="M1219.76,-372.794C1247.35,-337.693 1310.46,-245.824 1263,-192 1240.23,-166.18 1018.27,-150.128 913.381,-143.926"/>
<polygon fill="midnightblue" stroke="midnightblue" points="913.491,-140.427 903.304,-143.339 913.084,-147.415 913.491,-140.427"/>
</g>
<!-- Node36&#45;&gt;Node23 -->
<g id="edge62" class="edge"><title>Node36&#45;&gt;Node23</title>
<path fill="none" stroke="midnightblue" d="M1261.42,-372.931C1281.74,-365.111 1303.46,-353.341 1318,-336 1394.48,-244.779 1346.95,-83.1927 1327.85,-29.165"/>
<polygon fill="midnightblue" stroke="midnightblue" points="1331.08,-27.7849 1324.36,-19.5882 1324.5,-30.1822 1331.08,-27.7849"/>
</g>
<!-- Node36&#45;&gt;Node24 -->
<g id="edge61" class="edge"><title>Node36&#45;&gt;Node24</title>
<path fill="none" stroke="midnightblue" d="M1152.94,-383.677C1066.51,-377.832 893.984,-363.623 750,-336 601.752,-307.559 194.132,-269.839 95,-156 64.1007,-120.516 67.9816,-60.4183 72.4795,-29.9393"/>
<polygon fill="midnightblue" stroke="midnightblue" points="75.9742,-30.2601 74.1624,-19.8213 69.0691,-29.1115 75.9742,-30.2601"/>
</g>
<!-- Node36&#45;&gt;Node26 -->
<g id="edge53" class="edge"><title>Node36&#45;&gt;Node26</title>
<path fill="none" stroke="midnightblue" d="M1170.64,-372.936C1103.51,-347.661 963.573,-294.98 900.301,-271.16"/>
<polygon fill="midnightblue" stroke="midnightblue" points="901.419,-267.841 890.827,-267.594 898.953,-274.393 901.419,-267.841"/>
</g>
<!-- Node36&#45;&gt;Node27 -->
<g id="edge56" class="edge"><title>Node36&#45;&gt;Node27</title>
<path fill="none" stroke="midnightblue" d="M1205.23,-372.867C1198.82,-340.074 1182.92,-258.798 1175.69,-221.836"/>
<polygon fill="midnightblue" stroke="midnightblue" points="1179.09,-221.033 1173.74,-211.891 1172.22,-222.377 1179.09,-221.033"/>
</g>
<!-- Node36&#45;&gt;Node28 -->
<g id="edge60" class="edge"><title>Node36&#45;&gt;Node28</title>
<path fill="none" stroke="midnightblue" d="M1209.92,-372.867C1214.38,-340.074 1225.42,-258.798 1230.44,-221.836"/>
<polygon fill="midnightblue" stroke="midnightblue" points="1233.91,-222.271 1231.79,-211.891 1226.98,-221.329 1233.91,-222.271"/>
</g>
<!-- Node36&#45;&gt;Node35 -->
<g id="edge51" class="edge"><title>Node36&#45;&gt;Node35</title>
<path fill="none" stroke="midnightblue" d="M1213.83,-403.141C1214.87,-411.272 1215.03,-421.585 1214.3,-430.371"/>
<polygon fill="midnightblue" stroke="midnightblue" points="1210.81,-430.016 1212.9,-440.403 1217.75,-430.982 1210.81,-430.016"/>
</g>
<!-- Node36&#45;&gt;Node37 -->
<g id="edge58" class="edge"><title>Node36&#45;&gt;Node37</title>
<path fill="none" stroke="midnightblue" d="M1263.23,-375.428C1329.23,-361.599 1437.45,-338.925 1490.97,-327.712"/>
<polygon fill="midnightblue" stroke="midnightblue" points="1491.84,-331.104 1500.91,-325.628 1490.41,-324.253 1491.84,-331.104"/>
</g>
</g>
</svg>
