<?xml version="1.0" encoding="UTF-8" standalone="no"?>
<!DOCTYPE svg PUBLIC "-//W3C//DTD SVG 1.1//EN"
 "http://www.w3.org/Graphics/SVG/1.1/DTD/svg11.dtd">
<!-- Generated by graphviz version 2.36.0 (20140111.2315)
 -->
<!-- Title: /home/lucamuratore/advr&#45;superbuild/external/XBotInterface/include/spdlog/fmt/ostr.h Pages: 1 -->
<svg width="762pt" height="254pt"
 viewBox="0.00 0.00 762.00 254.00" xmlns="http://www.w3.org/2000/svg" xmlns:xlink="http://www.w3.org/1999/xlink">
<g id="graph0" class="graph" transform="scale(1 1) rotate(0) translate(4 250)">
<title>/home/lucamuratore/advr&#45;superbuild/external/XBotInterface/include/spdlog/fmt/ostr.h</title>
<!-- Node1 -->
<g id="node1" class="node"><title>Node1</title>
<polygon fill="#bfbfbf" stroke="black" points="355.5,-193 355.5,-245 500.5,-245 500.5,-193 355.5,-193"/>
<text text-anchor="start" x="363.5" y="-233" font-family="Helvetica,sans-Serif" font-size="10.00">/home/lucamuratore</text>
<text text-anchor="start" x="363.5" y="-222" font-family="Helvetica,sans-Serif" font-size="10.00">/advr&#45;superbuild/external</text>
<text text-anchor="start" x="363.5" y="-211" font-family="Helvetica,sans-Serif" font-size="10.00">/XBotInterface/include/spdlog</text>
<text text-anchor="middle" x="428" y="-200" font-family="Helvetica,sans-Serif" font-size="10.00">/fmt/ostr.h</text>
</g>
<!-- Node2 -->
<g id="node2" class="node"><title>Node2</title>
<g id="a_node2"><a xlink:href="fmt_8h.html" target="_top" xlink:title="spdlog/fmt/fmt.h">
<polygon fill="none" stroke="black" points="328,-130.5 328,-149.5 416,-149.5 416,-130.5 328,-130.5"/>
<text text-anchor="middle" x="372" y="-137.5" font-family="Helvetica,sans-Serif" font-size="10.00">spdlog/fmt/fmt.h</text>
</a>
</g>
</g>
<!-- Node1&#45;&gt;Node2 -->
<g id="edge1" class="edge"><title>Node1&#45;&gt;Node2</title>
<path fill="none" stroke="midnightblue" d="M409.664,-192.787C401.275,-181.253 391.568,-167.906 384.11,-157.651"/>
<polygon fill="midnightblue" stroke="midnightblue" points="386.936,-155.586 378.224,-149.558 381.275,-159.704 386.936,-155.586"/>
</g>
<!-- Node16 -->
<g id="node16" class="node"><title>Node16</title>
<g id="a_node16"><a xlink:href="ostream_8h.html" target="_top" xlink:title="spdlog/fmt/bundled\l/ostream.h">
<polygon fill="none" stroke="black" points="434.5,-125 434.5,-155 533.5,-155 533.5,-125 434.5,-125"/>
<text text-anchor="start" x="442.5" y="-143" font-family="Helvetica,sans-Serif" font-size="10.00">spdlog/fmt/bundled</text>
<text text-anchor="middle" x="484" y="-132" font-family="Helvetica,sans-Serif" font-size="10.00">/ostream.h</text>
</a>
</g>
</g>
<!-- Node1&#45;&gt;Node16 -->
<g id="edge15" class="edge"><title>Node1&#45;&gt;Node16</title>
<path fill="none" stroke="midnightblue" d="M446.336,-192.787C453.202,-183.348 460.95,-172.694 467.626,-163.514"/>
<polygon fill="midnightblue" stroke="midnightblue" points="470.584,-165.398 473.635,-155.252 464.923,-161.281 470.584,-165.398"/>
</g>
<!-- Node3 -->
<g id="node3" class="node"><title>Node3</title>
<g id="a_node3"><a xlink:href="format_8h.html" target="_top" xlink:title="spdlog/fmt/bundled\l/format.h">
<polygon fill="none" stroke="black" points="322.5,-57 322.5,-87 421.5,-87 421.5,-57 322.5,-57"/>
<text text-anchor="start" x="330.5" y="-75" font-family="Helvetica,sans-Serif" font-size="10.00">spdlog/fmt/bundled</text>
<text text-anchor="middle" x="372" y="-64" font-family="Helvetica,sans-Serif" font-size="10.00">/format.h</text>
</a>
</g>
</g>
<!-- Node2&#45;&gt;Node3 -->
<g id="edge2" class="edge"><title>Node2&#45;&gt;Node3</title>
<path fill="none" stroke="midnightblue" d="M372,-130.372C372,-121.971 372,-108.811 372,-97.2126"/>
<polygon fill="midnightblue" stroke="midnightblue" points="375.5,-97.1814 372,-87.1815 368.5,-97.1815 375.5,-97.1814"/>
</g>
<!-- Node4 -->
<g id="node4" class="node"><title>Node4</title>
<polygon fill="none" stroke="#bfbfbf" points="-0.5,-0.5 -0.5,-19.5 48.5,-19.5 48.5,-0.5 -0.5,-0.5"/>
<text text-anchor="middle" x="24" y="-7.5" font-family="Helvetica,sans-Serif" font-size="10.00">cassert</text>
</g>
<!-- Node3&#45;&gt;Node4 -->
<g id="edge3" class="edge"><title>Node3&#45;&gt;Node4</title>
<path fill="none" stroke="midnightblue" d="M322.32,-64.6116C261.999,-56.4882 157.031,-41.177 58.6059,-20.1812"/>
<polygon fill="midnightblue" stroke="midnightblue" points="59.3102,-16.7527 48.797,-18.0649 57.8339,-23.5952 59.3102,-16.7527"/>
</g>
<!-- Node5 -->
<g id="node5" class="node"><title>Node5</title>
<polygon fill="none" stroke="#bfbfbf" points="66.5,-0.5 66.5,-19.5 113.5,-19.5 113.5,-0.5 66.5,-0.5"/>
<text text-anchor="middle" x="90" y="-7.5" font-family="Helvetica,sans-Serif" font-size="10.00">clocale</text>
</g>
<!-- Node3&#45;&gt;Node5 -->
<g id="edge4" class="edge"><title>Node3&#45;&gt;Node5</title>
<path fill="none" stroke="midnightblue" d="M322.188,-61.7737C273.939,-52.6181 198.505,-37.7287 123.801,-20.0674"/>
<polygon fill="midnightblue" stroke="midnightblue" points="124.285,-16.5848 113.746,-17.672 122.663,-23.3942 124.285,-16.5848"/>
</g>
<!-- Node6 -->
<g id="node6" class="node"><title>Node6</title>
<polygon fill="none" stroke="#bfbfbf" points="132,-0.5 132,-19.5 176,-19.5 176,-0.5 132,-0.5"/>
<text text-anchor="middle" x="154" y="-7.5" font-family="Helvetica,sans-Serif" font-size="10.00">cmath</text>
</g>
<!-- Node3&#45;&gt;Node6 -->
<g id="edge5" class="edge"><title>Node3&#45;&gt;Node6</title>
<path fill="none" stroke="midnightblue" d="M322.33,-57.6901C286.822,-48.121 237.656,-34.7626 185.728,-20.1736"/>
<polygon fill="midnightblue" stroke="midnightblue" points="186.577,-16.7766 176.003,-17.4359 184.68,-23.5147 186.577,-16.7766"/>
</g>
<!-- Node7 -->
<g id="node7" class="node"><title>Node7</title>
<polygon fill="none" stroke="#bfbfbf" points="194.5,-0.5 194.5,-19.5 237.5,-19.5 237.5,-0.5 194.5,-0.5"/>
<text text-anchor="middle" x="216" y="-7.5" font-family="Helvetica,sans-Serif" font-size="10.00">cstdio</text>
</g>
<!-- Node3&#45;&gt;Node7 -->
<g id="edge6" class="edge"><title>Node3&#45;&gt;Node7</title>
<path fill="none" stroke="midnightblue" d="M335.425,-56.9327C308.712,-46.6584 272.867,-32.872 247.437,-23.0913"/>
<polygon fill="midnightblue" stroke="midnightblue" points="248.497,-19.7488 237.907,-19.4257 245.984,-26.2823 248.497,-19.7488"/>
</g>
<!-- Node8 -->
<g id="node8" class="node"><title>Node8</title>
<polygon fill="none" stroke="#bfbfbf" points="256,-0.5 256,-19.5 302,-19.5 302,-0.5 256,-0.5"/>
<text text-anchor="middle" x="279" y="-7.5" font-family="Helvetica,sans-Serif" font-size="10.00">cstring</text>
</g>
<!-- Node3&#45;&gt;Node8 -->
<g id="edge7" class="edge"><title>Node3&#45;&gt;Node8</title>
<path fill="none" stroke="midnightblue" d="M349.96,-56.7808C335.103,-47.1958 315.59,-34.6062 300.786,-25.0555"/>
<polygon fill="midnightblue" stroke="midnightblue" points="302.562,-22.036 292.261,-19.5557 298.767,-27.9181 302.562,-22.036"/>
</g>
<!-- Node9 -->
<g id="node9" class="node"><title>Node9</title>
<polygon fill="none" stroke="#bfbfbf" points="320,-0.5 320,-19.5 360,-19.5 360,-0.5 320,-0.5"/>
<text text-anchor="middle" x="340" y="-7.5" font-family="Helvetica,sans-Serif" font-size="10.00">limits</text>
</g>
<!-- Node3&#45;&gt;Node9 -->
<g id="edge8" class="edge"><title>Node3&#45;&gt;Node9</title>
<path fill="none" stroke="midnightblue" d="M364.416,-56.7808C359.91,-48.3318 354.159,-37.5481 349.37,-28.5693"/>
<polygon fill="midnightblue" stroke="midnightblue" points="352.45,-26.907 344.656,-19.7305 346.274,-30.2012 352.45,-26.907"/>
</g>
<!-- Node10 -->
<g id="node10" class="node"><title>Node10</title>
<polygon fill="none" stroke="#bfbfbf" points="378,-0.5 378,-19.5 430,-19.5 430,-0.5 378,-0.5"/>
<text text-anchor="middle" x="404" y="-7.5" font-family="Helvetica,sans-Serif" font-size="10.00">memory</text>
</g>
<!-- Node3&#45;&gt;Node10 -->
<g id="edge9" class="edge"><title>Node3&#45;&gt;Node10</title>
<path fill="none" stroke="midnightblue" d="M379.584,-56.7808C384.09,-48.3318 389.841,-37.5481 394.63,-28.5693"/>
<polygon fill="midnightblue" stroke="midnightblue" points="397.726,-30.2012 399.344,-19.7305 391.55,-26.907 397.726,-30.2012"/>
</g>
<!-- Node11 -->
<g id="node11" class="node"><title>Node11</title>
<polygon fill="none" stroke="#bfbfbf" points="448.5,-0.5 448.5,-19.5 507.5,-19.5 507.5,-0.5 448.5,-0.5"/>
<text text-anchor="middle" x="478" y="-7.5" font-family="Helvetica,sans-Serif" font-size="10.00">stdexcept</text>
</g>
<!-- Node3&#45;&gt;Node11 -->
<g id="edge10" class="edge"><title>Node3&#45;&gt;Node11</title>
<path fill="none" stroke="midnightblue" d="M396.852,-56.9327C414.097,-47.1715 436.942,-34.2401 453.999,-24.5856"/>
<polygon fill="midnightblue" stroke="midnightblue" points="455.828,-27.572 462.807,-19.6 452.38,-21.4802 455.828,-27.572"/>
</g>
<!-- Node12 -->
<g id="node12" class="node"><title>Node12</title>
<polygon fill="none" stroke="#bfbfbf" points="525.5,-0.5 525.5,-19.5 566.5,-19.5 566.5,-0.5 525.5,-0.5"/>
<text text-anchor="middle" x="546" y="-7.5" font-family="Helvetica,sans-Serif" font-size="10.00">string</text>
</g>
<!-- Node3&#45;&gt;Node12 -->
<g id="edge11" class="edge"><title>Node3&#45;&gt;Node12</title>
<path fill="none" stroke="midnightblue" d="M412.795,-56.9327C444.286,-46.0739 487.153,-31.292 515.659,-21.4623"/>
<polygon fill="midnightblue" stroke="midnightblue" points="517.151,-24.6502 525.464,-18.0814 514.869,-18.0325 517.151,-24.6502"/>
</g>
<!-- Node13 -->
<g id="node13" class="node"><title>Node13</title>
<polygon fill="none" stroke="#bfbfbf" points="585,-0.5 585,-19.5 629,-19.5 629,-0.5 585,-0.5"/>
<text text-anchor="middle" x="607" y="-7.5" font-family="Helvetica,sans-Serif" font-size="10.00">vector</text>
</g>
<!-- Node3&#45;&gt;Node13 -->
<g id="edge12" class="edge"><title>Node3&#45;&gt;Node13</title>
<path fill="none" stroke="midnightblue" d="M421.739,-58.9165C462.897,-48.8186 522.853,-33.8806 575,-20 575.101,-19.9731 575.202,-19.9461 575.304,-19.9191"/>
<polygon fill="midnightblue" stroke="midnightblue" points="576.261,-23.2858 584.988,-17.2782 574.42,-16.5324 576.261,-23.2858"/>
</g>
<!-- Node14 -->
<g id="node14" class="node"><title>Node14</title>
<polygon fill="none" stroke="#bfbfbf" points="647,-0.5 647,-19.5 687,-19.5 687,-0.5 647,-0.5"/>
<text text-anchor="middle" x="667" y="-7.5" font-family="Helvetica,sans-Serif" font-size="10.00">utility</text>
</g>
<!-- Node3&#45;&gt;Node14 -->
<g id="edge13" class="edge"><title>Node3&#45;&gt;Node14</title>
<path fill="none" stroke="midnightblue" d="M421.7,-61.2939C430.781,-59.5273 440.174,-57.7046 449,-56 532.53,-39.8665 554.371,-40.2493 637,-20 637.099,-19.9757 637.198,-19.9513 637.298,-19.9268"/>
<polygon fill="midnightblue" stroke="midnightblue" points="637.998,-23.363 646.744,-17.383 636.178,-16.6037 637.998,-23.363"/>
</g>
<!-- Node15 -->
<g id="node15" class="node"><title>Node15</title>
<polygon fill="none" stroke="#bfbfbf" points="705.5,-0.5 705.5,-19.5 754.5,-19.5 754.5,-0.5 705.5,-0.5"/>
<text text-anchor="middle" x="730" y="-7.5" font-family="Helvetica,sans-Serif" font-size="10.00">stdint.h</text>
</g>
<!-- Node3&#45;&gt;Node15 -->
<g id="edge14" class="edge"><title>Node3&#45;&gt;Node15</title>
<path fill="none" stroke="midnightblue" d="M421.641,-60.969C430.728,-59.2355 440.139,-57.508 449,-56 555.268,-37.9156 585.608,-41.9748 695.39,-19.9125"/>
<polygon fill="midnightblue" stroke="midnightblue" points="696.094,-23.3409 705.195,-17.9157 694.697,-16.4817 696.094,-23.3409"/>
</g>
<!-- Node17 -->
<g id="node17" class="node"><title>Node17</title>
<polygon fill="none" stroke="#bfbfbf" points="458,-62.5 458,-81.5 510,-81.5 510,-62.5 458,-62.5"/>
<text text-anchor="middle" x="484" y="-69.5" font-family="Helvetica,sans-Serif" font-size="10.00">ostream</text>
</g>
<!-- Node16&#45;&gt;Node17 -->
<g id="edge16" class="edge"><title>Node16&#45;&gt;Node17</title>
<path fill="none" stroke="midnightblue" d="M484,-124.679C484,-115.101 484,-102.394 484,-91.9766"/>
<polygon fill="midnightblue" stroke="midnightblue" points="487.5,-91.8283 484,-81.8283 480.5,-91.8283 487.5,-91.8283"/>
</g>
</g>
</svg>
