<?xml version="1.0" encoding="UTF-8" standalone="no"?>
<!DOCTYPE svg PUBLIC "-//W3C//DTD SVG 1.1//EN"
 "http://www.w3.org/Graphics/SVG/1.1/DTD/svg11.dtd">
<!-- Generated by graphviz version 2.36.0 (20140111.2315)
 -->
<!-- Title: /home/lucamuratore/advr&#45;superbuild/external/XBotInterface/include/spdlog/details/pattern_formatter_impl.h Pages: 1 -->
<svg width="1470pt" height="1142pt"
 viewBox="0.00 0.00 1470.15 1142.00" xmlns="http://www.w3.org/2000/svg" xmlns:xlink="http://www.w3.org/1999/xlink">
<g id="graph0" class="graph" transform="scale(1 1) rotate(0) translate(4 1138)">
<title>/home/lucamuratore/advr&#45;superbuild/external/XBotInterface/include/spdlog/details/pattern_formatter_impl.h</title>
<!-- Node1 -->
<g id="node1" class="node"><title>Node1</title>
<polygon fill="#bfbfbf" stroke="black" points="329.649,-1081 329.649,-1133 486.649,-1133 486.649,-1081 329.649,-1081"/>
<text text-anchor="start" x="337.649" y="-1121" font-family="Helvetica,sans-Serif" font-size="10.00">/home/lucamuratore</text>
<text text-anchor="start" x="337.649" y="-1110" font-family="Helvetica,sans-Serif" font-size="10.00">/advr&#45;superbuild/external</text>
<text text-anchor="start" x="337.649" y="-1099" font-family="Helvetica,sans-Serif" font-size="10.00">/XBotInterface/include/spdlog</text>
<text text-anchor="middle" x="408.149" y="-1088" font-family="Helvetica,sans-Serif" font-size="10.00">/details/pattern_formatter_impl.h</text>
</g>
<!-- Node2 -->
<g id="node2" class="node"><title>Node2</title>
<g id="a_node2"><a xlink:href="formatter_8h.html" target="_top" xlink:title="/home/lucamuratore\l/advr&#45;superbuild/external\l/XBotInterface/include/spdlog\l/formatter.h">
<polygon fill="none" stroke="black" points="335.649,-991 335.649,-1043 480.649,-1043 480.649,-991 335.649,-991"/>
<text text-anchor="start" x="343.649" y="-1031" font-family="Helvetica,sans-Serif" font-size="10.00">/home/lucamuratore</text>
<text text-anchor="start" x="343.649" y="-1020" font-family="Helvetica,sans-Serif" font-size="10.00">/advr&#45;superbuild/external</text>
<text text-anchor="start" x="343.649" y="-1009" font-family="Helvetica,sans-Serif" font-size="10.00">/XBotInterface/include/spdlog</text>
<text text-anchor="middle" x="408.149" y="-998" font-family="Helvetica,sans-Serif" font-size="10.00">/formatter.h</text>
</a>
</g>
</g>
<!-- Node1&#45;&gt;Node2 -->
<g id="edge1" class="edge"><title>Node1&#45;&gt;Node2</title>
<path fill="none" stroke="midnightblue" d="M401.512,-1070.49C401.265,-1061.31 401.423,-1051.62 401.987,-1043.09"/>
<polygon fill="midnightblue" stroke="midnightblue" points="398.019,-1070.71 401.963,-1080.55 405.012,-1070.4 398.019,-1070.71"/>
</g>
<!-- Node2&#45;&gt;Node1 -->
<g id="edge25" class="edge"><title>Node2&#45;&gt;Node1</title>
<path fill="none" stroke="midnightblue" d="M414.776,-1053.12C415.034,-1062.29 414.887,-1071.99 414.335,-1080.55"/>
<polygon fill="midnightblue" stroke="midnightblue" points="418.27,-1052.92 414.312,-1043.09 411.277,-1053.24 418.27,-1052.92"/>
</g>
<!-- Node3 -->
<g id="node3" class="node"><title>Node3</title>
<g id="a_node3"><a xlink:href="async__log__helper_8h.html" target="_top" xlink:title="/home/lucamuratore\l/advr&#45;superbuild/external\l/XBotInterface/include/spdlog\l/details/async_log_helper.h">
<polygon fill="none" stroke="black" points="147.649,-901 147.649,-953 292.649,-953 292.649,-901 147.649,-901"/>
<text text-anchor="start" x="155.649" y="-941" font-family="Helvetica,sans-Serif" font-size="10.00">/home/lucamuratore</text>
<text text-anchor="start" x="155.649" y="-930" font-family="Helvetica,sans-Serif" font-size="10.00">/advr&#45;superbuild/external</text>
<text text-anchor="start" x="155.649" y="-919" font-family="Helvetica,sans-Serif" font-size="10.00">/XBotInterface/include/spdlog</text>
<text text-anchor="middle" x="220.149" y="-908" font-family="Helvetica,sans-Serif" font-size="10.00">/details/async_log_helper.h</text>
</a>
</g>
</g>
<!-- Node2&#45;&gt;Node3 -->
<g id="edge2" class="edge"><title>Node2&#45;&gt;Node3</title>
<path fill="none" stroke="midnightblue" d="M345.455,-986.654C322.251,-975.792 296.174,-963.586 273.842,-953.133"/>
<polygon fill="midnightblue" stroke="midnightblue" points="343.987,-989.831 354.528,-990.901 346.954,-983.491 343.987,-989.831"/>
</g>
<!-- Node22 -->
<g id="node22" class="node"><title>Node22</title>
<g id="a_node22"><a xlink:href="base__sink_8h.html" target="_top" xlink:title="/home/lucamuratore\l/advr&#45;superbuild/external\l/XBotInterface/include/spdlog\l/sinks/base_sink.h">
<polygon fill="none" stroke="black" points="523.649,-901 523.649,-953 668.649,-953 668.649,-901 523.649,-901"/>
<text text-anchor="start" x="531.649" y="-941" font-family="Helvetica,sans-Serif" font-size="10.00">/home/lucamuratore</text>
<text text-anchor="start" x="531.649" y="-930" font-family="Helvetica,sans-Serif" font-size="10.00">/advr&#45;superbuild/external</text>
<text text-anchor="start" x="531.649" y="-919" font-family="Helvetica,sans-Serif" font-size="10.00">/XBotInterface/include/spdlog</text>
<text text-anchor="middle" x="596.149" y="-908" font-family="Helvetica,sans-Serif" font-size="10.00">/sinks/base_sink.h</text>
</a>
</g>
</g>
<!-- Node2&#45;&gt;Node22 -->
<g id="edge26" class="edge"><title>Node2&#45;&gt;Node22</title>
<path fill="none" stroke="midnightblue" d="M470.844,-986.654C494.047,-975.792 520.124,-963.586 542.456,-953.133"/>
<polygon fill="midnightblue" stroke="midnightblue" points="469.344,-983.491 461.771,-990.901 472.312,-989.831 469.344,-983.491"/>
</g>
<!-- Node4 -->
<g id="node4" class="node"><title>Node4</title>
<g id="a_node4"><a xlink:href="async__logger__impl_8h.html" target="_top" xlink:title="/home/lucamuratore\l/advr&#45;superbuild/external\l/XBotInterface/include/spdlog\l/details/async_logger_impl.h">
<polygon fill="none" stroke="black" points="34.6492,-631 34.6492,-683 179.649,-683 179.649,-631 34.6492,-631"/>
<text text-anchor="start" x="42.6492" y="-671" font-family="Helvetica,sans-Serif" font-size="10.00">/home/lucamuratore</text>
<text text-anchor="start" x="42.6492" y="-660" font-family="Helvetica,sans-Serif" font-size="10.00">/advr&#45;superbuild/external</text>
<text text-anchor="start" x="42.6492" y="-649" font-family="Helvetica,sans-Serif" font-size="10.00">/XBotInterface/include/spdlog</text>
<text text-anchor="middle" x="107.149" y="-638" font-family="Helvetica,sans-Serif" font-size="10.00">/details/async_logger_impl.h</text>
</a>
</g>
</g>
<!-- Node3&#45;&gt;Node4 -->
<g id="edge3" class="edge"><title>Node3&#45;&gt;Node4</title>
<path fill="none" stroke="midnightblue" d="M137.235,-921.644C96.5241,-914.807 50.8195,-899.098 25.1492,-864 -12.6324,-812.342 -3.36106,-777.299 25.1492,-720 32.6227,-704.98 45.6636,-692.631 59.1758,-683.017"/>
<polygon fill="midnightblue" stroke="midnightblue" points="136.776,-925.114 147.189,-923.16 137.83,-918.194 136.776,-925.114"/>
</g>
<!-- Node5 -->
<g id="node5" class="node"><title>Node5</title>
<g id="a_node5"><a xlink:href="async__logger_8h.html" target="_top" xlink:title="/home/lucamuratore\l/advr&#45;superbuild/external\l/XBotInterface/include/spdlog\l/async_logger.h">
<polygon fill="none" stroke="black" points="34.6492,-721 34.6492,-773 179.649,-773 179.649,-721 34.6492,-721"/>
<text text-anchor="start" x="42.6492" y="-761" font-family="Helvetica,sans-Serif" font-size="10.00">/home/lucamuratore</text>
<text text-anchor="start" x="42.6492" y="-750" font-family="Helvetica,sans-Serif" font-size="10.00">/advr&#45;superbuild/external</text>
<text text-anchor="start" x="42.6492" y="-739" font-family="Helvetica,sans-Serif" font-size="10.00">/XBotInterface/include/spdlog</text>
<text text-anchor="middle" x="107.149" y="-728" font-family="Helvetica,sans-Serif" font-size="10.00">/async_logger.h</text>
</a>
</g>
</g>
<!-- Node4&#45;&gt;Node5 -->
<g id="edge4" class="edge"><title>Node4&#45;&gt;Node5</title>
<path fill="none" stroke="midnightblue" d="M113.776,-693.123C114.034,-702.289 113.887,-711.99 113.335,-720.547"/>
<polygon fill="midnightblue" stroke="midnightblue" points="117.27,-692.92 113.312,-683.092 110.277,-693.243 117.27,-692.92"/>
</g>
<!-- Node5&#45;&gt;Node4 -->
<g id="edge5" class="edge"><title>Node5&#45;&gt;Node4</title>
<path fill="none" stroke="midnightblue" d="M100.512,-710.489C100.265,-701.309 100.423,-691.616 100.987,-683.092"/>
<polygon fill="midnightblue" stroke="midnightblue" points="97.0186,-710.714 100.963,-720.547 104.012,-710.4 97.0186,-710.714"/>
</g>
<!-- Node6 -->
<g id="node6" class="node"><title>Node6</title>
<g id="a_node6"><a xlink:href="registry_8h.html" target="_top" xlink:title="/home/lucamuratore\l/advr&#45;superbuild/external\l/XBotInterface/include/spdlog\l/details/registry.h">
<polygon fill="none" stroke="black" points="236.649,-631 236.649,-683 381.649,-683 381.649,-631 236.649,-631"/>
<text text-anchor="start" x="244.649" y="-671" font-family="Helvetica,sans-Serif" font-size="10.00">/home/lucamuratore</text>
<text text-anchor="start" x="244.649" y="-660" font-family="Helvetica,sans-Serif" font-size="10.00">/advr&#45;superbuild/external</text>
<text text-anchor="start" x="244.649" y="-649" font-family="Helvetica,sans-Serif" font-size="10.00">/XBotInterface/include/spdlog</text>
<text text-anchor="middle" x="309.149" y="-638" font-family="Helvetica,sans-Serif" font-size="10.00">/details/registry.h</text>
</a>
</g>
</g>
<!-- Node5&#45;&gt;Node6 -->
<g id="edge6" class="edge"><title>Node5&#45;&gt;Node6</title>
<path fill="none" stroke="midnightblue" d="M174.182,-716.798C199.196,-705.9 227.356,-693.632 251.458,-683.133"/>
<polygon fill="midnightblue" stroke="midnightblue" points="172.534,-713.698 164.764,-720.901 175.33,-720.115 172.534,-713.698"/>
</g>
<!-- Node7 -->
<g id="node7" class="node"><title>Node7</title>
<g id="a_node7"><a xlink:href="spdlog__impl_8h.html" target="_top" xlink:title="/home/lucamuratore\l/advr&#45;superbuild/external\l/XBotInterface/include/spdlog\l/details/spdlog_impl.h">
<polygon fill="none" stroke="black" points="849.649,-541 849.649,-593 994.649,-593 994.649,-541 849.649,-541"/>
<text text-anchor="start" x="857.649" y="-581" font-family="Helvetica,sans-Serif" font-size="10.00">/home/lucamuratore</text>
<text text-anchor="start" x="857.649" y="-570" font-family="Helvetica,sans-Serif" font-size="10.00">/advr&#45;superbuild/external</text>
<text text-anchor="start" x="857.649" y="-559" font-family="Helvetica,sans-Serif" font-size="10.00">/XBotInterface/include/spdlog</text>
<text text-anchor="middle" x="922.149" y="-548" font-family="Helvetica,sans-Serif" font-size="10.00">/details/spdlog_impl.h</text>
</a>
</g>
</g>
<!-- Node6&#45;&gt;Node7 -->
<g id="edge7" class="edge"><title>Node6&#45;&gt;Node7</title>
<path fill="none" stroke="midnightblue" d="M391.804,-644.134C512.441,-626.816 734.825,-594.892 849.517,-578.427"/>
<polygon fill="midnightblue" stroke="midnightblue" points="391.277,-640.674 381.876,-645.56 392.271,-647.603 391.277,-640.674"/>
</g>
<!-- Node8 -->
<g id="node8" class="node"><title>Node8</title>
<g id="a_node8"><a xlink:href="spdlog_8h.html" target="_top" xlink:title="/home/lucamuratore\l/advr&#45;superbuild/external\l/XBotInterface/include/spdlog\l/spdlog.h">
<polygon fill="none" stroke="black" points="849.649,-451 849.649,-503 994.649,-503 994.649,-451 849.649,-451"/>
<text text-anchor="start" x="857.649" y="-491" font-family="Helvetica,sans-Serif" font-size="10.00">/home/lucamuratore</text>
<text text-anchor="start" x="857.649" y="-480" font-family="Helvetica,sans-Serif" font-size="10.00">/advr&#45;superbuild/external</text>
<text text-anchor="start" x="857.649" y="-469" font-family="Helvetica,sans-Serif" font-size="10.00">/XBotInterface/include/spdlog</text>
<text text-anchor="middle" x="922.149" y="-458" font-family="Helvetica,sans-Serif" font-size="10.00">/spdlog.h</text>
</a>
</g>
</g>
<!-- Node7&#45;&gt;Node8 -->
<g id="edge8" class="edge"><title>Node7&#45;&gt;Node8</title>
<path fill="none" stroke="midnightblue" d="M915.512,-530.489C915.265,-521.309 915.423,-511.616 915.987,-503.092"/>
<polygon fill="midnightblue" stroke="midnightblue" points="912.019,-530.714 915.963,-540.547 919.012,-530.4 912.019,-530.714"/>
</g>
<!-- Node8&#45;&gt;Node7 -->
<g id="edge9" class="edge"><title>Node8&#45;&gt;Node7</title>
<path fill="none" stroke="midnightblue" d="M928.776,-513.123C929.034,-522.289 928.887,-531.99 928.335,-540.547"/>
<polygon fill="midnightblue" stroke="midnightblue" points="932.27,-512.92 928.312,-503.092 925.277,-513.243 932.27,-512.92"/>
</g>
<!-- Node9 -->
<g id="node9" class="node"><title>Node9</title>
<g id="a_node9"><a xlink:href="Logger_8hpp.html" target="_top" xlink:title="/home/lucamuratore\l/advr&#45;superbuild/external\l/XBotInterface/include/XBotInterface\l/Logger.hpp">
<polygon fill="none" stroke="black" points="834.149,-361 834.149,-413 1010.15,-413 1010.15,-361 834.149,-361"/>
<text text-anchor="start" x="842.149" y="-401" font-family="Helvetica,sans-Serif" font-size="10.00">/home/lucamuratore</text>
<text text-anchor="start" x="842.149" y="-390" font-family="Helvetica,sans-Serif" font-size="10.00">/advr&#45;superbuild/external</text>
<text text-anchor="start" x="842.149" y="-379" font-family="Helvetica,sans-Serif" font-size="10.00">/XBotInterface/include/XBotInterface</text>
<text text-anchor="middle" x="922.149" y="-368" font-family="Helvetica,sans-Serif" font-size="10.00">/Logger.hpp</text>
</a>
</g>
</g>
<!-- Node8&#45;&gt;Node9 -->
<g id="edge10" class="edge"><title>Node8&#45;&gt;Node9</title>
<path fill="none" stroke="midnightblue" d="M922.149,-440.489C922.149,-431.309 922.149,-421.616 922.149,-413.092"/>
<polygon fill="midnightblue" stroke="midnightblue" points="918.649,-440.547 922.149,-450.547 925.649,-440.547 918.649,-440.547"/>
</g>
<!-- Node10 -->
<g id="node10" class="node"><title>Node10</title>
<g id="a_node10"><a xlink:href="ConfigHelper_8h.html" target="_top" xlink:title="/home/lucamuratore\l/advr&#45;superbuild/external\l/XBotInterface/include/XBotInterface\l/ConfigHelper.h">
<polygon fill="none" stroke="black" points="660.149,-271 660.149,-323 836.149,-323 836.149,-271 660.149,-271"/>
<text text-anchor="start" x="668.149" y="-311" font-family="Helvetica,sans-Serif" font-size="10.00">/home/lucamuratore</text>
<text text-anchor="start" x="668.149" y="-300" font-family="Helvetica,sans-Serif" font-size="10.00">/advr&#45;superbuild/external</text>
<text text-anchor="start" x="668.149" y="-289" font-family="Helvetica,sans-Serif" font-size="10.00">/XBotInterface/include/XBotInterface</text>
<text text-anchor="middle" x="748.149" y="-278" font-family="Helvetica,sans-Serif" font-size="10.00">/ConfigHelper.h</text>
</a>
</g>
</g>
<!-- Node9&#45;&gt;Node10 -->
<g id="edge11" class="edge"><title>Node9&#45;&gt;Node10</title>
<path fill="none" stroke="midnightblue" d="M863.324,-356.249C842.006,-345.468 818.158,-333.407 797.717,-323.069"/>
<polygon fill="midnightblue" stroke="midnightblue" points="861.784,-359.393 872.288,-360.783 864.944,-353.146 861.784,-359.393"/>
</g>
<!-- Node12 -->
<g id="node12" class="node"><title>Node12</title>
<g id="a_node12"><a xlink:href="StateMachine_8h.html" target="_top" xlink:title="/home/lucamuratore\l/advr&#45;superbuild/external\l/XBotInterface/include/XBotInterface\l/StateMachine.h">
<polygon fill="none" stroke="black" points="736.149,-1 736.149,-53 912.149,-53 912.149,-1 736.149,-1"/>
<text text-anchor="start" x="744.149" y="-41" font-family="Helvetica,sans-Serif" font-size="10.00">/home/lucamuratore</text>
<text text-anchor="start" x="744.149" y="-30" font-family="Helvetica,sans-Serif" font-size="10.00">/advr&#45;superbuild/external</text>
<text text-anchor="start" x="744.149" y="-19" font-family="Helvetica,sans-Serif" font-size="10.00">/XBotInterface/include/XBotInterface</text>
<text text-anchor="middle" x="824.149" y="-8" font-family="Helvetica,sans-Serif" font-size="10.00">/StateMachine.h</text>
</a>
</g>
</g>
<!-- Node9&#45;&gt;Node12 -->
<g id="edge13" class="edge"><title>Node9&#45;&gt;Node12</title>
<path fill="none" stroke="midnightblue" d="M897.888,-352.352C892.364,-343.469 886.997,-333.657 883.149,-324 863.32,-274.226 837.521,-115.088 827.944,-53.0746"/>
<polygon fill="midnightblue" stroke="midnightblue" points="895.04,-354.394 903.414,-360.886 900.916,-350.589 895.04,-354.394"/>
</g>
<!-- Node13 -->
<g id="node13" class="node"><title>Node13</title>
<g id="a_node13"><a xlink:href="XBotInterface_8h.html" target="_top" xlink:title="/home/lucamuratore\l/advr&#45;superbuild/external\l/XBotInterface/include/XBotInterface\l/XBotInterface.h">
<polygon fill="none" stroke="black" points="892.149,-271 892.149,-323 1068.15,-323 1068.15,-271 892.149,-271"/>
<text text-anchor="start" x="900.149" y="-311" font-family="Helvetica,sans-Serif" font-size="10.00">/home/lucamuratore</text>
<text text-anchor="start" x="900.149" y="-300" font-family="Helvetica,sans-Serif" font-size="10.00">/advr&#45;superbuild/external</text>
<text text-anchor="start" x="900.149" y="-289" font-family="Helvetica,sans-Serif" font-size="10.00">/XBotInterface/include/XBotInterface</text>
<text text-anchor="middle" x="980.149" y="-278" font-family="Helvetica,sans-Serif" font-size="10.00">/XBotInterface.h</text>
</a>
</g>
</g>
<!-- Node9&#45;&gt;Node13 -->
<g id="edge14" class="edge"><title>Node9&#45;&gt;Node13</title>
<path fill="none" stroke="midnightblue" d="M944.581,-351.965C950.916,-342.354 957.691,-332.074 963.611,-323.092"/>
<polygon fill="midnightblue" stroke="midnightblue" points="941.506,-350.271 938.925,-360.547 947.351,-354.123 941.506,-350.271"/>
</g>
<!-- Node21 -->
<g id="node21" class="node"><title>Node21</title>
<g id="a_node21"><a xlink:href="Logger_8cpp.html" target="_top" xlink:title="/home/lucamuratore\l/advr&#45;superbuild/external\l/XBotInterface/src/Logger.cpp">
<polygon fill="none" stroke="black" points="1086.65,-276.5 1086.65,-317.5 1233.65,-317.5 1233.65,-276.5 1086.65,-276.5"/>
<text text-anchor="start" x="1094.65" y="-305.5" font-family="Helvetica,sans-Serif" font-size="10.00">/home/lucamuratore</text>
<text text-anchor="start" x="1094.65" y="-294.5" font-family="Helvetica,sans-Serif" font-size="10.00">/advr&#45;superbuild/external</text>
<text text-anchor="middle" x="1160.15" y="-283.5" font-family="Helvetica,sans-Serif" font-size="10.00">/XBotInterface/src/Logger.cpp</text>
</a>
</g>
</g>
<!-- Node9&#45;&gt;Node21 -->
<g id="edge24" class="edge"><title>Node9&#45;&gt;Node21</title>
<path fill="none" stroke="midnightblue" d="M999.802,-357.288C1035,-344.273 1075.71,-329.22 1107.31,-317.538"/>
<polygon fill="midnightblue" stroke="midnightblue" points="998.197,-354.15 990.032,-360.901 1000.63,-360.715 998.197,-354.15"/>
</g>
<!-- Node11 -->
<g id="node11" class="node"><title>Node11</title>
<g id="a_node11"><a xlink:href="ConfigHelper_8cpp.html" target="_top" xlink:title="/home/lucamuratore\l/advr&#45;superbuild/external\l/XBotInterface/src/ConfigHelper.cpp">
<polygon fill="none" stroke="black" points="660.649,-186.5 660.649,-227.5 835.649,-227.5 835.649,-186.5 660.649,-186.5"/>
<text text-anchor="start" x="668.649" y="-215.5" font-family="Helvetica,sans-Serif" font-size="10.00">/home/lucamuratore</text>
<text text-anchor="start" x="668.649" y="-204.5" font-family="Helvetica,sans-Serif" font-size="10.00">/advr&#45;superbuild/external</text>
<text text-anchor="middle" x="748.149" y="-193.5" font-family="Helvetica,sans-Serif" font-size="10.00">/XBotInterface/src/ConfigHelper.cpp</text>
</a>
</g>
</g>
<!-- Node10&#45;&gt;Node11 -->
<g id="edge12" class="edge"><title>Node10&#45;&gt;Node11</title>
<path fill="none" stroke="midnightblue" d="M748.149,-260.515C748.149,-249.257 748.149,-237.227 748.149,-227.525"/>
<polygon fill="midnightblue" stroke="midnightblue" points="744.649,-260.547 748.149,-270.547 751.649,-260.547 744.649,-260.547"/>
</g>
<!-- Node14 -->
<g id="node14" class="node"><title>Node14</title>
<g id="a_node14"><a xlink:href="ModelInterface_8h.html" target="_top" xlink:title="/home/lucamuratore\l/advr&#45;superbuild/external\l/XBotInterface/include/XBotInterface\l/ModelInterface.h">
<polygon fill="none" stroke="black" points="1008.15,-181 1008.15,-233 1184.15,-233 1184.15,-181 1008.15,-181"/>
<text text-anchor="start" x="1016.15" y="-221" font-family="Helvetica,sans-Serif" font-size="10.00">/home/lucamuratore</text>
<text text-anchor="start" x="1016.15" y="-210" font-family="Helvetica,sans-Serif" font-size="10.00">/advr&#45;superbuild/external</text>
<text text-anchor="start" x="1016.15" y="-199" font-family="Helvetica,sans-Serif" font-size="10.00">/XBotInterface/include/XBotInterface</text>
<text text-anchor="middle" x="1096.15" y="-188" font-family="Helvetica,sans-Serif" font-size="10.00">/ModelInterface.h</text>
</a>
</g>
</g>
<!-- Node13&#45;&gt;Node14 -->
<g id="edge15" class="edge"><title>Node13&#45;&gt;Node14</title>
<path fill="none" stroke="midnightblue" d="M1021.63,-264.534C1035.18,-254.254 1050.04,-242.979 1062.9,-233.221"/>
<polygon fill="midnightblue" stroke="midnightblue" points="1019.24,-261.95 1013.39,-270.783 1023.47,-267.527 1019.24,-261.95"/>
</g>
<!-- Node15 -->
<g id="node15" class="node"><title>Node15</title>
<g id="a_node15"><a xlink:href="RobotInterface_8h.html" target="_top" xlink:title="/home/lucamuratore\l/advr&#45;superbuild/external\l/XBotInterface/include/XBotInterface\l/RobotInterface.h">
<polygon fill="none" stroke="black" points="892.149,-91 892.149,-143 1068.15,-143 1068.15,-91 892.149,-91"/>
<text text-anchor="start" x="900.149" y="-131" font-family="Helvetica,sans-Serif" font-size="10.00">/home/lucamuratore</text>
<text text-anchor="start" x="900.149" y="-120" font-family="Helvetica,sans-Serif" font-size="10.00">/advr&#45;superbuild/external</text>
<text text-anchor="start" x="900.149" y="-109" font-family="Helvetica,sans-Serif" font-size="10.00">/XBotInterface/include/XBotInterface</text>
<text text-anchor="middle" x="980.149" y="-98" font-family="Helvetica,sans-Serif" font-size="10.00">/RobotInterface.h</text>
</a>
</g>
</g>
<!-- Node13&#45;&gt;Node15 -->
<g id="edge22" class="edge"><title>Node13&#45;&gt;Node15</title>
<path fill="none" stroke="midnightblue" d="M980.149,-260.717C980.149,-226.052 980.149,-174.016 980.149,-143.285"/>
<polygon fill="midnightblue" stroke="midnightblue" points="976.649,-260.874 980.149,-270.874 983.649,-260.875 976.649,-260.874"/>
</g>
<!-- Node20 -->
<g id="node20" class="node"><title>Node20</title>
<g id="a_node20"><a xlink:href="XBotInterface_8cpp.html" target="_top" xlink:title="/home/lucamuratore\l/advr&#45;superbuild/external\l/XBotInterface/src/XBotInterface.cpp">
<polygon fill="none" stroke="black" points="1202.15,-186.5 1202.15,-227.5 1380.15,-227.5 1380.15,-186.5 1202.15,-186.5"/>
<text text-anchor="start" x="1210.15" y="-215.5" font-family="Helvetica,sans-Serif" font-size="10.00">/home/lucamuratore</text>
<text text-anchor="start" x="1210.15" y="-204.5" font-family="Helvetica,sans-Serif" font-size="10.00">/advr&#45;superbuild/external</text>
<text text-anchor="middle" x="1291.15" y="-193.5" font-family="Helvetica,sans-Serif" font-size="10.00">/XBotInterface/src/XBotInterface.cpp</text>
</a>
</g>
</g>
<!-- Node13&#45;&gt;Node20 -->
<g id="edge23" class="edge"><title>Node13&#45;&gt;Node20</title>
<path fill="none" stroke="midnightblue" d="M1078.29,-268.231C1125.06,-254.998 1179.87,-239.486 1222.17,-227.519"/>
<polygon fill="midnightblue" stroke="midnightblue" points="1077.11,-264.928 1068.44,-271.018 1079.01,-271.663 1077.11,-264.928"/>
</g>
<!-- Node14&#45;&gt;Node15 -->
<g id="edge16" class="edge"><title>Node14&#45;&gt;Node15</title>
<path fill="none" stroke="midnightblue" d="M1054.67,-174.534C1041.12,-164.254 1026.26,-152.979 1013.39,-143.221"/>
<polygon fill="midnightblue" stroke="midnightblue" points="1052.83,-177.527 1062.91,-180.783 1057.06,-171.95 1052.83,-177.527"/>
</g>
<!-- Node18 -->
<g id="node18" class="node"><title>Node18</title>
<g id="a_node18"><a xlink:href="Utils_8h.html" target="_top" xlink:title="/home/lucamuratore\l/advr&#45;superbuild/external\l/XBotInterface/include/XBotInterface\l/Utils.h">
<polygon fill="none" stroke="black" points="1286.15,-91 1286.15,-143 1462.15,-143 1462.15,-91 1286.15,-91"/>
<text text-anchor="start" x="1294.15" y="-131" font-family="Helvetica,sans-Serif" font-size="10.00">/home/lucamuratore</text>
<text text-anchor="start" x="1294.15" y="-120" font-family="Helvetica,sans-Serif" font-size="10.00">/advr&#45;superbuild/external</text>
<text text-anchor="start" x="1294.15" y="-109" font-family="Helvetica,sans-Serif" font-size="10.00">/XBotInterface/include/XBotInterface</text>
<text text-anchor="middle" x="1374.15" y="-98" font-family="Helvetica,sans-Serif" font-size="10.00">/Utils.h</text>
</a>
</g>
</g>
<!-- Node14&#45;&gt;Node18 -->
<g id="edge20" class="edge"><title>Node14&#45;&gt;Node18</title>
<path fill="none" stroke="midnightblue" d="M1185.23,-177.802C1220.43,-166.659 1260.56,-153.956 1294.75,-143.133"/>
<polygon fill="midnightblue" stroke="midnightblue" points="1183.92,-174.546 1175.44,-180.901 1186.03,-181.219 1183.92,-174.546"/>
</g>
<!-- Node19 -->
<g id="node19" class="node"><title>Node19</title>
<g id="a_node19"><a xlink:href="ModelInterface_8cpp.html" target="_top" xlink:title="/home/lucamuratore\l/advr&#45;superbuild/external\l/XBotInterface/src/ModelInterface.cpp">
<polygon fill="none" stroke="black" points="1086.15,-96.5 1086.15,-137.5 1268.15,-137.5 1268.15,-96.5 1086.15,-96.5"/>
<text text-anchor="start" x="1094.15" y="-125.5" font-family="Helvetica,sans-Serif" font-size="10.00">/home/lucamuratore</text>
<text text-anchor="start" x="1094.15" y="-114.5" font-family="Helvetica,sans-Serif" font-size="10.00">/advr&#45;superbuild/external</text>
<text text-anchor="middle" x="1177.15" y="-103.5" font-family="Helvetica,sans-Serif" font-size="10.00">/XBotInterface/src/ModelInterface.cpp</text>
</a>
</g>
</g>
<!-- Node14&#45;&gt;Node19 -->
<g id="edge21" class="edge"><title>Node14&#45;&gt;Node19</title>
<path fill="none" stroke="midnightblue" d="M1126.6,-172.914C1137.58,-160.988 1149.61,-147.92 1159.18,-137.525"/>
<polygon fill="midnightblue" stroke="midnightblue" points="1123.77,-170.819 1119.58,-180.547 1128.93,-175.559 1123.77,-170.819"/>
</g>
<!-- Node15&#45;&gt;Node12 -->
<g id="edge17" class="edge"><title>Node15&#45;&gt;Node12</title>
<path fill="none" stroke="midnightblue" d="M926.64,-85.8154C907.725,-75.1451 886.67,-63.2684 868.589,-53.0687"/>
<polygon fill="midnightblue" stroke="midnightblue" points="925.016,-88.9179 935.446,-90.7827 928.456,-82.821 925.016,-88.9179"/>
</g>
<!-- Node16 -->
<g id="node16" class="node"><title>Node16</title>
<g id="a_node16"><a xlink:href="main__test_8cpp.html" target="_top" xlink:title="/home/lucamuratore\l/advr&#45;superbuild/external\l/XBotInterface/src/main\l_test.cpp">
<polygon fill="none" stroke="black" points="1130.65,-1 1130.65,-53 1253.65,-53 1253.65,-1 1130.65,-1"/>
<text text-anchor="start" x="1138.65" y="-41" font-family="Helvetica,sans-Serif" font-size="10.00">/home/lucamuratore</text>
<text text-anchor="start" x="1138.65" y="-30" font-family="Helvetica,sans-Serif" font-size="10.00">/advr&#45;superbuild/external</text>
<text text-anchor="start" x="1138.65" y="-19" font-family="Helvetica,sans-Serif" font-size="10.00">/XBotInterface/src/main</text>
<text text-anchor="middle" x="1192.15" y="-8" font-family="Helvetica,sans-Serif" font-size="10.00">_test.cpp</text>
</a>
</g>
</g>
<!-- Node15&#45;&gt;Node16 -->
<g id="edge18" class="edge"><title>Node15&#45;&gt;Node16</title>
<path fill="none" stroke="midnightblue" d="M1050.15,-86.9416C1076.49,-76.0085 1106.2,-63.6787 1131.6,-53.1328"/>
<polygon fill="midnightblue" stroke="midnightblue" points="1048.51,-83.8341 1040.62,-90.9005 1051.19,-90.2992 1048.51,-83.8341"/>
</g>
<!-- Node17 -->
<g id="node17" class="node"><title>Node17</title>
<g id="a_node17"><a xlink:href="RobotInterface_8cpp.html" target="_top" xlink:title="/home/lucamuratore\l/advr&#45;superbuild/external\l/XBotInterface/src/RobotInterface.cpp">
<polygon fill="none" stroke="black" points="930.149,-6.5 930.149,-47.5 1112.15,-47.5 1112.15,-6.5 930.149,-6.5"/>
<text text-anchor="start" x="938.149" y="-35.5" font-family="Helvetica,sans-Serif" font-size="10.00">/home/lucamuratore</text>
<text text-anchor="start" x="938.149" y="-24.5" font-family="Helvetica,sans-Serif" font-size="10.00">/advr&#45;superbuild/external</text>
<text text-anchor="middle" x="1021.15" y="-13.5" font-family="Helvetica,sans-Serif" font-size="10.00">/XBotInterface/src/RobotInterface.cpp</text>
</a>
</g>
</g>
<!-- Node15&#45;&gt;Node17 -->
<g id="edge19" class="edge"><title>Node15&#45;&gt;Node17</title>
<path fill="none" stroke="midnightblue" d="M996.361,-81.203C1001.7,-69.7495 1007.44,-57.425 1012.05,-47.5249"/>
<polygon fill="midnightblue" stroke="midnightblue" points="993.059,-80.0041 992.008,-90.5468 999.404,-82.9604 993.059,-80.0041"/>
</g>
<!-- Node23 -->
<g id="node23" class="node"><title>Node23</title>
<g id="a_node23"><a xlink:href="logger_8h.html" target="_top" xlink:title="/home/lucamuratore\l/advr&#45;superbuild/external\l/XBotInterface/include/spdlog\l/logger.h">
<polygon fill="none" stroke="black" points="34.6492,-811 34.6492,-863 179.649,-863 179.649,-811 34.6492,-811"/>
<text text-anchor="start" x="42.6492" y="-851" font-family="Helvetica,sans-Serif" font-size="10.00">/home/lucamuratore</text>
<text text-anchor="start" x="42.6492" y="-840" font-family="Helvetica,sans-Serif" font-size="10.00">/advr&#45;superbuild/external</text>
<text text-anchor="start" x="42.6492" y="-829" font-family="Helvetica,sans-Serif" font-size="10.00">/XBotInterface/include/spdlog</text>
<text text-anchor="middle" x="107.149" y="-818" font-family="Helvetica,sans-Serif" font-size="10.00">/logger.h</text>
</a>
</g>
</g>
<!-- Node22&#45;&gt;Node23 -->
<g id="edge27" class="edge"><title>Node22&#45;&gt;Node23</title>
<path fill="none" stroke="midnightblue" d="M513.503,-917.368C430.554,-907.788 299.463,-890.146 188.149,-864 185.417,-863.358 182.645,-862.669 179.853,-861.942"/>
<polygon fill="midnightblue" stroke="midnightblue" points="513.293,-920.867 523.626,-918.525 514.088,-913.912 513.293,-920.867"/>
</g>
<!-- Node25 -->
<g id="node25" class="node"><title>Node25</title>
<g id="a_node25"><a xlink:href="ansicolor__sink_8h.html" target="_top" xlink:title="/home/lucamuratore\l/advr&#45;superbuild/external\l/XBotInterface/include/spdlog\l/sinks/ansicolor_sink.h">
<polygon fill="none" stroke="black" points="1051.65,-721 1051.65,-773 1196.65,-773 1196.65,-721 1051.65,-721"/>
<text text-anchor="start" x="1059.65" y="-761" font-family="Helvetica,sans-Serif" font-size="10.00">/home/lucamuratore</text>
<text text-anchor="start" x="1059.65" y="-750" font-family="Helvetica,sans-Serif" font-size="10.00">/advr&#45;superbuild/external</text>
<text text-anchor="start" x="1059.65" y="-739" font-family="Helvetica,sans-Serif" font-size="10.00">/XBotInterface/include/spdlog</text>
<text text-anchor="middle" x="1124.15" y="-728" font-family="Helvetica,sans-Serif" font-size="10.00">/sinks/ansicolor_sink.h</text>
</a>
</g>
</g>
<!-- Node22&#45;&gt;Node25 -->
<g id="edge33" class="edge"><title>Node22&#45;&gt;Node25</title>
<path fill="none" stroke="midnightblue" d="M678.98,-921.897C789.507,-915.155 978.161,-898.839 1037.15,-864 1073.13,-842.749 1099.03,-800.283 1112.79,-773.051"/>
<polygon fill="midnightblue" stroke="midnightblue" points="678.637,-918.411 668.863,-922.501 679.054,-925.399 678.637,-918.411"/>
</g>
<!-- Node26 -->
<g id="node26" class="node"><title>Node26</title>
<g id="a_node26"><a xlink:href="dist__sink_8h.html" target="_top" xlink:title="/home/lucamuratore\l/advr&#45;superbuild/external\l/XBotInterface/include/spdlog\l/sinks/dist_sink.h">
<polygon fill="none" stroke="black" points="197.649,-811 197.649,-863 342.649,-863 342.649,-811 197.649,-811"/>
<text text-anchor="start" x="205.649" y="-851" font-family="Helvetica,sans-Serif" font-size="10.00">/home/lucamuratore</text>
<text text-anchor="start" x="205.649" y="-840" font-family="Helvetica,sans-Serif" font-size="10.00">/advr&#45;superbuild/external</text>
<text text-anchor="start" x="205.649" y="-829" font-family="Helvetica,sans-Serif" font-size="10.00">/XBotInterface/include/spdlog</text>
<text text-anchor="middle" x="270.149" y="-818" font-family="Helvetica,sans-Serif" font-size="10.00">/sinks/dist_sink.h</text>
</a>
</g>
</g>
<!-- Node22&#45;&gt;Node26 -->
<g id="edge35" class="edge"><title>Node22&#45;&gt;Node26</title>
<path fill="none" stroke="midnightblue" d="M513.506,-906.455C465.845,-894.842 404.897,-879.41 351.149,-864 348.452,-863.227 345.708,-862.425 342.941,-861.603"/>
<polygon fill="midnightblue" stroke="midnightblue" points="512.924,-909.915 523.467,-908.874 514.575,-903.113 512.924,-909.915"/>
</g>
<!-- Node27 -->
<g id="node27" class="node"><title>Node27</title>
<g id="a_node27"><a xlink:href="file__sinks_8h.html" target="_top" xlink:title="/home/lucamuratore\l/advr&#45;superbuild/external\l/XBotInterface/include/spdlog\l/sinks/file_sinks.h">
<polygon fill="none" stroke="black" points="950.649,-631 950.649,-683 1095.65,-683 1095.65,-631 950.649,-631"/>
<text text-anchor="start" x="958.649" y="-671" font-family="Helvetica,sans-Serif" font-size="10.00">/home/lucamuratore</text>
<text text-anchor="start" x="958.649" y="-660" font-family="Helvetica,sans-Serif" font-size="10.00">/advr&#45;superbuild/external</text>
<text text-anchor="start" x="958.649" y="-649" font-family="Helvetica,sans-Serif" font-size="10.00">/XBotInterface/include/spdlog</text>
<text text-anchor="middle" x="1023.15" y="-638" font-family="Helvetica,sans-Serif" font-size="10.00">/sinks/file_sinks.h</text>
</a>
</g>
</g>
<!-- Node22&#45;&gt;Node27 -->
<g id="edge36" class="edge"><title>Node22&#45;&gt;Node27</title>
<path fill="none" stroke="midnightblue" d="M679.063,-924.964C785.059,-921.756 960.061,-909.498 1003.15,-864 1049.72,-814.822 1038.55,-726.377 1029.42,-683.156"/>
<polygon fill="midnightblue" stroke="midnightblue" points="678.924,-921.466 669.027,-925.247 679.122,-928.464 678.924,-921.466"/>
</g>
<!-- Node28 -->
<g id="node28" class="node"><title>Node28</title>
<g id="a_node28"><a xlink:href="null__sink_8h.html" target="_top" xlink:title="/home/lucamuratore\l/advr&#45;superbuild/external\l/XBotInterface/include/spdlog\l/sinks/null_sink.h">
<polygon fill="none" stroke="black" points="360.649,-811 360.649,-863 505.649,-863 505.649,-811 360.649,-811"/>
<text text-anchor="start" x="368.649" y="-851" font-family="Helvetica,sans-Serif" font-size="10.00">/home/lucamuratore</text>
<text text-anchor="start" x="368.649" y="-840" font-family="Helvetica,sans-Serif" font-size="10.00">/advr&#45;superbuild/external</text>
<text text-anchor="start" x="368.649" y="-829" font-family="Helvetica,sans-Serif" font-size="10.00">/XBotInterface/include/spdlog</text>
<text text-anchor="middle" x="433.149" y="-818" font-family="Helvetica,sans-Serif" font-size="10.00">/sinks/null_sink.h</text>
</a>
</g>
</g>
<!-- Node22&#45;&gt;Node28 -->
<g id="edge38" class="edge"><title>Node22&#45;&gt;Node28</title>
<path fill="none" stroke="midnightblue" d="M540.507,-895.96C520.674,-885.253 498.561,-873.315 479.583,-863.069"/>
<polygon fill="midnightblue" stroke="midnightblue" points="538.978,-899.112 549.44,-900.783 542.303,-892.952 538.978,-899.112"/>
</g>
<!-- Node29 -->
<g id="node29" class="node"><title>Node29</title>
<g id="a_node29"><a xlink:href="ostream__sink_8h.html" target="_top" xlink:title="/home/lucamuratore\l/advr&#45;superbuild/external\l/XBotInterface/include/spdlog\l/sinks/ostream_sink.h">
<polygon fill="none" stroke="black" points="523.649,-811 523.649,-863 668.649,-863 668.649,-811 523.649,-811"/>
<text text-anchor="start" x="531.649" y="-851" font-family="Helvetica,sans-Serif" font-size="10.00">/home/lucamuratore</text>
<text text-anchor="start" x="531.649" y="-840" font-family="Helvetica,sans-Serif" font-size="10.00">/advr&#45;superbuild/external</text>
<text text-anchor="start" x="531.649" y="-829" font-family="Helvetica,sans-Serif" font-size="10.00">/XBotInterface/include/spdlog</text>
<text text-anchor="middle" x="596.149" y="-818" font-family="Helvetica,sans-Serif" font-size="10.00">/sinks/ostream_sink.h</text>
</a>
</g>
</g>
<!-- Node22&#45;&gt;Node29 -->
<g id="edge39" class="edge"><title>Node22&#45;&gt;Node29</title>
<path fill="none" stroke="midnightblue" d="M596.149,-890.489C596.149,-881.309 596.149,-871.616 596.149,-863.092"/>
<polygon fill="midnightblue" stroke="midnightblue" points="592.649,-890.547 596.149,-900.547 599.649,-890.547 592.649,-890.547"/>
</g>
<!-- Node30 -->
<g id="node30" class="node"><title>Node30</title>
<g id="a_node30"><a xlink:href="stdout__sinks_8h.html" target="_top" xlink:title="/home/lucamuratore\l/advr&#45;superbuild/external\l/XBotInterface/include/spdlog\l/sinks/stdout_sinks.h">
<polygon fill="none" stroke="black" points="849.649,-811 849.649,-863 994.649,-863 994.649,-811 849.649,-811"/>
<text text-anchor="start" x="857.649" y="-851" font-family="Helvetica,sans-Serif" font-size="10.00">/home/lucamuratore</text>
<text text-anchor="start" x="857.649" y="-840" font-family="Helvetica,sans-Serif" font-size="10.00">/advr&#45;superbuild/external</text>
<text text-anchor="start" x="857.649" y="-829" font-family="Helvetica,sans-Serif" font-size="10.00">/XBotInterface/include/spdlog</text>
<text text-anchor="middle" x="922.149" y="-818" font-family="Helvetica,sans-Serif" font-size="10.00">/sinks/stdout_sinks.h</text>
</a>
</g>
</g>
<!-- Node22&#45;&gt;Node30 -->
<g id="edge40" class="edge"><title>Node22&#45;&gt;Node30</title>
<path fill="none" stroke="midnightblue" d="M678.691,-906.294C726.111,-894.657 786.686,-879.254 840.149,-864 843.165,-863.139 846.238,-862.245 849.338,-861.328"/>
<polygon fill="midnightblue" stroke="midnightblue" points="677.661,-902.943 668.779,-908.719 679.325,-909.742 677.661,-902.943"/>
</g>
<!-- Node31 -->
<g id="node31" class="node"><title>Node31</title>
<g id="a_node31"><a xlink:href="wincolor__sink_8h.html" target="_top" xlink:title="/home/lucamuratore\l/advr&#45;superbuild/external\l/XBotInterface/include/spdlog\l/sinks/wincolor_sink.h">
<polygon fill="none" stroke="black" points="686.649,-811 686.649,-863 831.649,-863 831.649,-811 686.649,-811"/>
<text text-anchor="start" x="694.649" y="-851" font-family="Helvetica,sans-Serif" font-size="10.00">/home/lucamuratore</text>
<text text-anchor="start" x="694.649" y="-840" font-family="Helvetica,sans-Serif" font-size="10.00">/advr&#45;superbuild/external</text>
<text text-anchor="start" x="694.649" y="-829" font-family="Helvetica,sans-Serif" font-size="10.00">/XBotInterface/include/spdlog</text>
<text text-anchor="middle" x="759.149" y="-818" font-family="Helvetica,sans-Serif" font-size="10.00">/sinks/wincolor_sink.h</text>
</a>
</g>
</g>
<!-- Node22&#45;&gt;Node31 -->
<g id="edge43" class="edge"><title>Node22&#45;&gt;Node31</title>
<path fill="none" stroke="midnightblue" d="M651.791,-895.96C671.625,-885.253 693.737,-873.315 712.715,-863.069"/>
<polygon fill="midnightblue" stroke="midnightblue" points="649.995,-892.952 642.858,-900.783 653.321,-899.112 649.995,-892.952"/>
</g>
<!-- Node23&#45;&gt;Node5 -->
<g id="edge28" class="edge"><title>Node23&#45;&gt;Node5</title>
<path fill="none" stroke="midnightblue" d="M107.149,-800.489C107.149,-791.309 107.149,-781.616 107.149,-773.092"/>
<polygon fill="midnightblue" stroke="midnightblue" points="103.649,-800.547 107.149,-810.547 110.649,-800.547 103.649,-800.547"/>
</g>
<!-- Node23&#45;&gt;Node6 -->
<g id="edge31" class="edge"><title>Node23&#45;&gt;Node6</title>
<path fill="none" stroke="midnightblue" d="M174.364,-806.053C190.908,-797.038 207.937,-786.238 222.149,-774 230.519,-766.793 268.301,-714.951 291.234,-683.059"/>
<polygon fill="midnightblue" stroke="midnightblue" points="172.449,-803.107 165.245,-810.876 175.721,-809.295 172.449,-803.107"/>
</g>
<!-- Node23&#45;&gt;Node8 -->
<g id="edge32" class="edge"><title>Node23&#45;&gt;Node8</title>
<path fill="none" stroke="midnightblue" d="M158.649,-804.683C169.694,-795.932 180.368,-785.597 188.149,-774 225.094,-718.94 179.126,-675.718 227.149,-630 316.55,-544.891 690.014,-500.024 849.472,-484.442"/>
<polygon fill="midnightblue" stroke="midnightblue" points="156.454,-801.955 150.576,-810.77 160.668,-807.544 156.454,-801.955"/>
</g>
<!-- Node24 -->
<g id="node24" class="node"><title>Node24</title>
<g id="a_node24"><a xlink:href="logger__impl_8h.html" target="_top" xlink:title="/home/lucamuratore\l/advr&#45;superbuild/external\l/XBotInterface/include/spdlog\l/details/logger_impl.h">
<polygon fill="none" stroke="black" points="274.649,-721 274.649,-773 419.649,-773 419.649,-721 274.649,-721"/>
<text text-anchor="start" x="282.649" y="-761" font-family="Helvetica,sans-Serif" font-size="10.00">/home/lucamuratore</text>
<text text-anchor="start" x="282.649" y="-750" font-family="Helvetica,sans-Serif" font-size="10.00">/advr&#45;superbuild/external</text>
<text text-anchor="start" x="282.649" y="-739" font-family="Helvetica,sans-Serif" font-size="10.00">/XBotInterface/include/spdlog</text>
<text text-anchor="middle" x="347.149" y="-728" font-family="Helvetica,sans-Serif" font-size="10.00">/details/logger_impl.h</text>
</a>
</g>
</g>
<!-- Node23&#45;&gt;Node24 -->
<g id="edge29" class="edge"><title>Node23&#45;&gt;Node24</title>
<path fill="none" stroke="midnightblue" d="M179.061,-807.295C209.255,-796.012 244.294,-783.197 274.562,-772.374"/>
<polygon fill="midnightblue" stroke="midnightblue" points="177.576,-804.114 169.439,-810.901 180.032,-810.669 177.576,-804.114"/>
</g>
<!-- Node24&#45;&gt;Node23 -->
<g id="edge30" class="edge"><title>Node24&#45;&gt;Node23</title>
<path fill="none" stroke="midnightblue" d="M275.352,-776.662C245.152,-787.948 210.091,-800.772 179.799,-811.604"/>
<polygon fill="midnightblue" stroke="midnightblue" points="276.838,-779.843 284.974,-773.056 274.382,-773.288 276.838,-779.843"/>
</g>
<!-- Node25&#45;&gt;Node7 -->
<g id="edge34" class="edge"><title>Node25&#45;&gt;Node7</title>
<path fill="none" stroke="midnightblue" d="M1126.99,-710.475C1127.07,-685.231 1122.96,-652.032 1104.15,-630 1077.06,-598.265 1033.03,-582.739 995.067,-575.159"/>
<polygon fill="midnightblue" stroke="midnightblue" points="1123.49,-710.666 1126.73,-720.751 1130.48,-710.842 1123.49,-710.666"/>
</g>
<!-- Node27&#45;&gt;Node7 -->
<g id="edge37" class="edge"><title>Node27&#45;&gt;Node7</title>
<path fill="none" stroke="midnightblue" d="M986.365,-623.951C974.749,-613.829 962.084,-602.795 951.096,-593.221"/>
<polygon fill="midnightblue" stroke="midnightblue" points="984.368,-626.852 994.207,-630.783 988.966,-621.575 984.368,-626.852"/>
</g>
<!-- Node30&#45;&gt;Node7 -->
<g id="edge42" class="edge"><title>Node30&#45;&gt;Node7</title>
<path fill="none" stroke="midnightblue" d="M922.149,-800.49C922.149,-745.561 922.149,-641.328 922.149,-593.341"/>
<polygon fill="midnightblue" stroke="midnightblue" points="918.649,-800.787 922.149,-810.787 925.649,-800.787 918.649,-800.787"/>
</g>
<!-- Node30&#45;&gt;Node24 -->
<g id="edge41" class="edge"><title>Node30&#45;&gt;Node24</title>
<path fill="none" stroke="midnightblue" d="M839.328,-809.992C685.161,-776.904 514.381,-760.383 419.698,-752.972"/>
<polygon fill="midnightblue" stroke="midnightblue" points="838.943,-813.49 849.458,-812.196 840.431,-806.65 838.943,-813.49"/>
</g>
</g>
</svg>
