<?xml version="1.0" encoding="UTF-8" standalone="no"?>
<!DOCTYPE svg PUBLIC "-//W3C//DTD SVG 1.1//EN"
 "http://www.w3.org/Graphics/SVG/1.1/DTD/svg11.dtd">
<!-- Generated by graphviz version 2.36.0 (20140111.2315)
 -->
<!-- Title: /home/lucamuratore/advr&#45;superbuild/external/XBotInterface/include/spdlog/details/pattern_formatter_impl.h Pages: 1 -->
<svg width="1255pt" height="490pt"
 viewBox="0.00 0.00 1255.00 490.00" xmlns="http://www.w3.org/2000/svg" xmlns:xlink="http://www.w3.org/1999/xlink">
<g id="graph0" class="graph" transform="scale(1 1) rotate(0) translate(4 486)">
<title>/home/lucamuratore/advr&#45;superbuild/external/XBotInterface/include/spdlog/details/pattern_formatter_impl.h</title>
<!-- Node1 -->
<g id="node1" class="node"><title>Node1</title>
<polygon fill="#bfbfbf" stroke="black" points="337.5,-429 337.5,-481 494.5,-481 494.5,-429 337.5,-429"/>
<text text-anchor="start" x="345.5" y="-469" font-family="Helvetica,sans-Serif" font-size="10.00">/home/lucamuratore</text>
<text text-anchor="start" x="345.5" y="-458" font-family="Helvetica,sans-Serif" font-size="10.00">/advr&#45;superbuild/external</text>
<text text-anchor="start" x="345.5" y="-447" font-family="Helvetica,sans-Serif" font-size="10.00">/XBotInterface/include/spdlog</text>
<text text-anchor="middle" x="416" y="-436" font-family="Helvetica,sans-Serif" font-size="10.00">/details/pattern_formatter_impl.h</text>
</g>
<!-- Node2 -->
<g id="node2" class="node"><title>Node2</title>
<g id="a_node2"><a xlink:href="formatter_8h.html" target="_top" xlink:title="spdlog/formatter.h">
<polygon fill="none" stroke="black" points="216.5,-372.5 216.5,-391.5 311.5,-391.5 311.5,-372.5 216.5,-372.5"/>
<text text-anchor="middle" x="264" y="-379.5" font-family="Helvetica,sans-Serif" font-size="10.00">spdlog/formatter.h</text>
</a>
</g>
</g>
<!-- Node1&#45;&gt;Node2 -->
<g id="edge1" class="edge"><title>Node1&#45;&gt;Node2</title>
<path fill="none" stroke="midnightblue" d="M355.928,-428.968C331.729,-417.935 305.301,-405.422 286.948,-396.239"/>
<polygon fill="midnightblue" stroke="midnightblue" points="288.395,-393.049 277.894,-391.639 285.224,-399.289 288.395,-393.049"/>
</g>
<!-- Node3 -->
<g id="node3" class="node"><title>Node3</title>
<g id="a_node3"><a xlink:href="log__msg_8h.html" target="_top" xlink:title="spdlog/details/log\l_msg.h">
<polygon fill="none" stroke="black" points="258,-305 258,-335 350,-335 350,-305 258,-305"/>
<text text-anchor="start" x="266" y="-323" font-family="Helvetica,sans-Serif" font-size="10.00">spdlog/details/log</text>
<text text-anchor="middle" x="304" y="-312" font-family="Helvetica,sans-Serif" font-size="10.00">_msg.h</text>
</a>
</g>
</g>
<!-- Node1&#45;&gt;Node3 -->
<g id="edge47" class="edge"><title>Node1&#45;&gt;Node3</title>
<path fill="none" stroke="midnightblue" d="M394.934,-428.984C374.074,-404.213 342.448,-366.657 322.522,-342.995"/>
<polygon fill="midnightblue" stroke="midnightblue" points="325.118,-340.644 315.999,-335.249 319.763,-345.153 325.118,-340.644"/>
</g>
<!-- Node5 -->
<g id="node5" class="node"><title>Node5</title>
<polygon fill="none" stroke="#bfbfbf" points="169.5,-0.5 169.5,-19.5 210.5,-19.5 210.5,-0.5 169.5,-0.5"/>
<text text-anchor="middle" x="190" y="-7.5" font-family="Helvetica,sans-Serif" font-size="10.00">string</text>
</g>
<!-- Node1&#45;&gt;Node5 -->
<g id="edge54" class="edge"><title>Node1&#45;&gt;Node5</title>
<path fill="none" stroke="midnightblue" d="M337.366,-445.724C268.835,-433.905 173.237,-405.27 126,-336 72.5177,-257.572 83.3643,-217.459 100,-124 105.643,-92.2983 105.289,-81.4618 125,-56 135.074,-42.9874 149.969,-32.2928 162.961,-24.5993"/>
<polygon fill="midnightblue" stroke="midnightblue" points="164.977,-27.4814 171.987,-19.5374 161.553,-21.3758 164.977,-27.4814"/>
</g>
<!-- Node7 -->
<g id="node7" class="node"><title>Node7</title>
<polygon fill="none" stroke="#bfbfbf" points="720,-130.5 720,-149.5 766,-149.5 766,-130.5 720,-130.5"/>
<text text-anchor="middle" x="743" y="-137.5" font-family="Helvetica,sans-Serif" font-size="10.00">chrono</text>
</g>
<!-- Node1&#45;&gt;Node7 -->
<g id="edge50" class="edge"><title>Node1&#45;&gt;Node7</title>
<path fill="none" stroke="midnightblue" d="M416,-428.997C416,-402.265 416,-358.637 416,-321 416,-321 416,-321 416,-257 416,-220.822 433.884,-210.456 465,-192 559.659,-135.853 604.421,-187.077 710,-156 712.343,-155.31 714.734,-154.485 717.105,-153.581"/>
<polygon fill="midnightblue" stroke="midnightblue" points="718.723,-156.697 726.561,-149.568 715.988,-150.253 718.723,-156.697"/>
</g>
<!-- Node8 -->
<g id="node8" class="node"><title>Node8</title>
<polygon fill="none" stroke="#bfbfbf" points="75,-0.5 75,-19.5 127,-19.5 127,-0.5 75,-0.5"/>
<text text-anchor="middle" x="101" y="-7.5" font-family="Helvetica,sans-Serif" font-size="10.00">memory</text>
</g>
<!-- Node1&#45;&gt;Node8 -->
<g id="edge52" class="edge"><title>Node1&#45;&gt;Node8</title>
<path fill="none" stroke="midnightblue" d="M337.265,-445.104C216.662,-429.257 0,-391.042 0,-321 0,-321 0,-321 0,-139 0,-88.7195 48.6239,-46.5906 78.3965,-25.5077"/>
<polygon fill="midnightblue" stroke="midnightblue" points="80.6772,-28.1883 86.9564,-19.6547 76.7261,-22.41 80.6772,-28.1883"/>
</g>
<!-- Node13 -->
<g id="node13" class="node"><title>Node13</title>
<g id="a_node13"><a xlink:href="fmt_8h.html" target="_top" xlink:title="spdlog/fmt/fmt.h">
<polygon fill="none" stroke="black" points="614,-130.5 614,-149.5 702,-149.5 702,-130.5 614,-130.5"/>
<text text-anchor="middle" x="658" y="-137.5" font-family="Helvetica,sans-Serif" font-size="10.00">spdlog/fmt/fmt.h</text>
</a>
</g>
</g>
<!-- Node1&#45;&gt;Node13 -->
<g id="edge49" class="edge"><title>Node1&#45;&gt;Node13</title>
<path fill="none" stroke="midnightblue" d="M404.185,-428.62C393.03,-402.3 378,-359.663 378,-321 378,-321 378,-321 378,-257 378,-226.205 378.382,-211.762 402,-192 471.94,-133.481 515.079,-176.226 604,-156 609.03,-154.856 614.292,-153.542 619.475,-152.179"/>
<polygon fill="midnightblue" stroke="midnightblue" points="620.527,-155.52 629.263,-149.526 618.695,-148.764 620.527,-155.52"/>
</g>
<!-- Node22 -->
<g id="node22" class="node"><title>Node22</title>
<polygon fill="none" stroke="#bfbfbf" points="1172,-0.5 1172,-19.5 1216,-19.5 1216,-0.5 1172,-0.5"/>
<text text-anchor="middle" x="1194" y="-7.5" font-family="Helvetica,sans-Serif" font-size="10.00">vector</text>
</g>
<!-- Node1&#45;&gt;Node22 -->
<g id="edge57" class="edge"><title>Node1&#45;&gt;Node22</title>
<path fill="none" stroke="midnightblue" d="M494.866,-449.304C583.599,-442.541 731.355,-426.805 854,-392 913.736,-375.048 927.901,-366.481 982,-336 1089.1,-275.658 1147.05,-270.414 1192,-156 1208.41,-114.23 1211.83,-100.497 1206,-56 1204.84,-47.1813 1202.47,-37.6328 1200.13,-29.6098"/>
<polygon fill="midnightblue" stroke="midnightblue" points="1203.4,-28.3366 1197.09,-19.8268 1196.71,-30.4151 1203.4,-28.3366"/>
</g>
<!-- Node23 -->
<g id="node23" class="node"><title>Node23</title>
<polygon fill="none" stroke="#bfbfbf" points="976,-0.5 976,-19.5 1016,-19.5 1016,-0.5 976,-0.5"/>
<text text-anchor="middle" x="996" y="-7.5" font-family="Helvetica,sans-Serif" font-size="10.00">utility</text>
</g>
<!-- Node1&#45;&gt;Node23 -->
<g id="edge56" class="edge"><title>Node1&#45;&gt;Node23</title>
<path fill="none" stroke="midnightblue" d="M494.707,-453.763C609.848,-450.022 827.297,-429.821 982,-336 1062.12,-287.409 1166.29,-280.674 1136,-192 1111.6,-120.565 1046.29,-55.4542 1014.24,-26.6367"/>
<polygon fill="midnightblue" stroke="midnightblue" points="1016.31,-23.7971 1006.5,-19.8021 1011.68,-29.0445 1016.31,-23.7971"/>
</g>
<!-- Node25 -->
<g id="node25" class="node"><title>Node25</title>
<g id="a_node25"><a xlink:href="os_8h.html" target="_top" xlink:title="spdlog/details/os.h">
<polygon fill="none" stroke="black" points="677,-248.5 677,-267.5 775,-267.5 775,-248.5 677,-248.5"/>
<text text-anchor="middle" x="726" y="-255.5" font-family="Helvetica,sans-Serif" font-size="10.00">spdlog/details/os.h</text>
</a>
</g>
</g>
<!-- Node1&#45;&gt;Node25 -->
<g id="edge48" class="edge"><title>Node1&#45;&gt;Node25</title>
<path fill="none" stroke="midnightblue" d="M455.892,-428.906C521.918,-387.374 651.782,-305.685 703.74,-273.002"/>
<polygon fill="midnightblue" stroke="midnightblue" points="705.625,-275.951 712.226,-267.664 701.898,-270.026 705.625,-275.951"/>
</g>
<!-- Node26 -->
<g id="node26" class="node"><title>Node26</title>
<polygon fill="none" stroke="#bfbfbf" points="1024.5,-192.5 1024.5,-211.5 1065.5,-211.5 1065.5,-192.5 1024.5,-192.5"/>
<text text-anchor="middle" x="1045" y="-199.5" font-family="Helvetica,sans-Serif" font-size="10.00">ctime</text>
</g>
<!-- Node1&#45;&gt;Node26 -->
<g id="edge51" class="edge"><title>Node1&#45;&gt;Node26</title>
<path fill="none" stroke="midnightblue" d="M494.922,-446.946C616.503,-432.467 851.688,-389.724 1006,-268 1021.46,-255.801 1032.18,-235.648 1038.41,-221.012"/>
<polygon fill="midnightblue" stroke="midnightblue" points="1041.74,-222.108 1042.16,-211.522 1035.23,-219.536 1041.74,-222.108"/>
</g>
<!-- Node27 -->
<g id="node27" class="node"><title>Node27</title>
<polygon fill="none" stroke="#bfbfbf" points="1084,-192.5 1084,-211.5 1128,-211.5 1128,-192.5 1084,-192.5"/>
<text text-anchor="middle" x="1106" y="-199.5" font-family="Helvetica,sans-Serif" font-size="10.00">thread</text>
</g>
<!-- Node1&#45;&gt;Node27 -->
<g id="edge55" class="edge"><title>Node1&#45;&gt;Node27</title>
<path fill="none" stroke="midnightblue" d="M494.869,-450.7C602.681,-443.124 799.088,-418.17 943,-336 1002.76,-301.881 1062.84,-245.946 1090.41,-218.786"/>
<polygon fill="midnightblue" stroke="midnightblue" points="1092.97,-221.17 1097.59,-211.632 1088.03,-216.21 1092.97,-221.17"/>
</g>
<!-- Node34 -->
<g id="node34" class="node"><title>Node34</title>
<polygon fill="none" stroke="#bfbfbf" points="1203,-372.5 1203,-391.5 1247,-391.5 1247,-372.5 1203,-372.5"/>
<text text-anchor="middle" x="1225" y="-379.5" font-family="Helvetica,sans-Serif" font-size="10.00">mutex</text>
</g>
<!-- Node1&#45;&gt;Node34 -->
<g id="edge53" class="edge"><title>Node1&#45;&gt;Node34</title>
<path fill="none" stroke="midnightblue" d="M494.694,-451.97C635.035,-447.399 937.399,-433.251 1189,-392 1190.25,-391.795 1191.52,-391.568 1192.81,-391.324"/>
<polygon fill="midnightblue" stroke="midnightblue" points="1193.62,-394.729 1202.65,-389.194 1192.14,-387.888 1193.62,-394.729"/>
</g>
<!-- Node2&#45;&gt;Node1 -->
<g id="edge46" class="edge"><title>Node2&#45;&gt;Node1</title>
<path fill="none" stroke="midnightblue" d="M287.095,-391.639C306.433,-399.865 334.649,-412.724 359.791,-424.634"/>
<polygon fill="midnightblue" stroke="midnightblue" points="358.359,-427.828 368.893,-428.968 361.369,-421.508 358.359,-427.828"/>
</g>
<!-- Node2&#45;&gt;Node3 -->
<g id="edge2" class="edge"><title>Node2&#45;&gt;Node3</title>
<path fill="none" stroke="midnightblue" d="M269.731,-372.403C274.743,-364.885 282.251,-353.624 288.962,-343.556"/>
<polygon fill="midnightblue" stroke="midnightblue" points="291.938,-345.403 294.573,-335.141 286.114,-341.52 291.938,-345.403"/>
</g>
<!-- Node2&#45;&gt;Node5 -->
<g id="edge44" class="edge"><title>Node2&#45;&gt;Node5</title>
<path fill="none" stroke="midnightblue" d="M235.786,-372.383C192.335,-357.158 114,-321.1 114,-259 114,-259 114,-259 114,-139 114,-92.9944 150.748,-49.0786 173.138,-26.591"/>
<polygon fill="midnightblue" stroke="midnightblue" points="175.64,-29.0401 180.375,-19.5623 170.763,-24.0187 175.64,-29.0401"/>
</g>
<!-- Node2&#45;&gt;Node8 -->
<g id="edge45" class="edge"><title>Node2&#45;&gt;Node8</title>
<path fill="none" stroke="midnightblue" d="M216.264,-376.963C186.393,-371.955 149.29,-360.797 126,-336 48.0686,-253.026 76.3364,-200.927 62,-88 60.2088,-73.891 57.0292,-69.3253 62,-56 66.1734,-44.8124 74.5196,-34.5598 82.4238,-26.6759"/>
<polygon fill="midnightblue" stroke="midnightblue" points="85.0616,-29.0029 90.0098,-19.6346 80.2994,-23.8724 85.0616,-29.0029"/>
</g>
<!-- Node2&#45;&gt;Node22 -->
<g id="edge43" class="edge"><title>Node2&#45;&gt;Node22</title>
<path fill="none" stroke="midnightblue" d="M311.675,-378.215C475.699,-367.684 1013.4,-325.002 1136,-212 1188.75,-163.385 1194.63,-70.1451 1194.56,-30.073"/>
<polygon fill="midnightblue" stroke="midnightblue" points="1198.06,-29.8005 1194.41,-19.8544 1191.06,-29.9061 1198.06,-29.8005"/>
</g>
<!-- Node4 -->
<g id="node4" class="node"><title>Node4</title>
<g id="a_node4"><a xlink:href="common_8h.html" target="_top" xlink:title="spdlog/common.h">
<polygon fill="none" stroke="black" points="256,-192.5 256,-211.5 350,-211.5 350,-192.5 256,-192.5"/>
<text text-anchor="middle" x="303" y="-199.5" font-family="Helvetica,sans-Serif" font-size="10.00">spdlog/common.h</text>
</a>
</g>
</g>
<!-- Node3&#45;&gt;Node4 -->
<g id="edge3" class="edge"><title>Node3&#45;&gt;Node4</title>
<path fill="none" stroke="midnightblue" d="M303.877,-304.776C303.698,-283.971 303.364,-245.198 303.164,-221.981"/>
<polygon fill="midnightblue" stroke="midnightblue" points="306.661,-221.676 303.075,-211.707 299.661,-221.737 306.661,-221.676"/>
</g>
<!-- Node3&#45;&gt;Node5 -->
<g id="edge41" class="edge"><title>Node3&#45;&gt;Node5</title>
<path fill="none" stroke="midnightblue" d="M257.982,-305.469C213.245,-289.143 152,-256.943 152,-203 152,-203 152,-203 152,-139 152,-98.2307 169.935,-53.0653 181.163,-28.7866"/>
<polygon fill="midnightblue" stroke="midnightblue" points="184.335,-30.2655 185.492,-19.734 178.02,-27.2455 184.335,-30.2655"/>
</g>
<!-- Node3&#45;&gt;Node23 -->
<g id="edge42" class="edge"><title>Node3&#45;&gt;Node23</title>
<path fill="none" stroke="midnightblue" d="M350.449,-317.841C482.298,-313.56 854.722,-294.278 938,-212 989.028,-161.584 995.842,-69.3225 996.292,-29.7911"/>
<polygon fill="midnightblue" stroke="midnightblue" points="999.792,-29.711 996.275,-19.7167 992.792,-29.7225 999.792,-29.711"/>
</g>
<!-- Node3&#45;&gt;Node25 -->
<g id="edge27" class="edge"><title>Node3&#45;&gt;Node25</title>
<path fill="none" stroke="midnightblue" d="M350.369,-312.407C427.523,-301.437 582.143,-279.454 666.967,-267.393"/>
<polygon fill="midnightblue" stroke="midnightblue" points="667.548,-270.846 676.955,-265.973 666.562,-263.916 667.548,-270.846"/>
</g>
<!-- Node4&#45;&gt;Node5 -->
<g id="edge4" class="edge"><title>Node4&#45;&gt;Node5</title>
<path fill="none" stroke="midnightblue" d="M300.89,-192.467C294.782,-168.963 275.367,-101.973 242,-56 233.563,-44.3752 221.571,-33.7378 211.229,-25.7272"/>
<polygon fill="midnightblue" stroke="midnightblue" points="213.16,-22.8017 203.044,-19.6522 208.988,-28.4227 213.16,-22.8017"/>
</g>
<!-- Node6 -->
<g id="node6" class="node"><title>Node6</title>
<polygon fill="none" stroke="#bfbfbf" points="522.5,-130.5 522.5,-149.5 595.5,-149.5 595.5,-130.5 522.5,-130.5"/>
<text text-anchor="middle" x="559" y="-137.5" font-family="Helvetica,sans-Serif" font-size="10.00">initializer_list</text>
</g>
<!-- Node4&#45;&gt;Node6 -->
<g id="edge5" class="edge"><title>Node4&#45;&gt;Node6</title>
<path fill="none" stroke="midnightblue" d="M349.626,-192.454C392.404,-184.273 457.376,-170.985 513,-156 516.815,-154.972 520.78,-153.816 524.713,-152.613"/>
<polygon fill="midnightblue" stroke="midnightblue" points="525.837,-155.928 534.314,-149.573 523.724,-149.255 525.837,-155.928"/>
</g>
<!-- Node4&#45;&gt;Node7 -->
<g id="edge6" class="edge"><title>Node4&#45;&gt;Node7</title>
<path fill="none" stroke="midnightblue" d="M350.227,-196.625C450.019,-187.258 675.984,-165.355 710,-156 712.495,-155.314 715.041,-154.461 717.556,-153.513"/>
<polygon fill="midnightblue" stroke="midnightblue" points="719.094,-156.662 726.933,-149.534 716.36,-150.218 719.094,-156.662"/>
</g>
<!-- Node4&#45;&gt;Node8 -->
<g id="edge7" class="edge"><title>Node4&#45;&gt;Node8</title>
<path fill="none" stroke="midnightblue" d="M293.796,-192.342C262.313,-162.73 158.627,-65.2038 117.765,-26.7692"/>
<polygon fill="midnightblue" stroke="midnightblue" points="119.941,-24.0105 110.258,-19.7085 115.145,-29.1094 119.941,-24.0105"/>
</g>
<!-- Node9 -->
<g id="node9" class="node"><title>Node9</title>
<polygon fill="none" stroke="#bfbfbf" points="364,-62.5 364,-81.5 410,-81.5 410,-62.5 364,-62.5"/>
<text text-anchor="middle" x="387" y="-69.5" font-family="Helvetica,sans-Serif" font-size="10.00">atomic</text>
</g>
<!-- Node4&#45;&gt;Node9 -->
<g id="edge8" class="edge"><title>Node4&#45;&gt;Node9</title>
<path fill="none" stroke="midnightblue" d="M303.49,-192.197C304.7,-177.095 308.856,-145.776 323,-124 332.872,-108.801 348.797,-96.0863 362.291,-87.1536"/>
<polygon fill="midnightblue" stroke="midnightblue" points="364.537,-89.8754 371.14,-81.5897 360.811,-83.9494 364.537,-89.8754"/>
</g>
<!-- Node10 -->
<g id="node10" class="node"><title>Node10</title>
<polygon fill="none" stroke="#bfbfbf" points="332.5,-130.5 332.5,-149.5 391.5,-149.5 391.5,-130.5 332.5,-130.5"/>
<text text-anchor="middle" x="362" y="-137.5" font-family="Helvetica,sans-Serif" font-size="10.00">exception</text>
</g>
<!-- Node4&#45;&gt;Node10 -->
<g id="edge9" class="edge"><title>Node4&#45;&gt;Node10</title>
<path fill="none" stroke="midnightblue" d="M311.453,-192.403C320.566,-183.136 335.27,-168.183 346.476,-156.788"/>
<polygon fill="midnightblue" stroke="midnightblue" points="349.047,-159.165 353.562,-149.581 344.055,-154.257 349.047,-159.165"/>
</g>
<!-- Node11 -->
<g id="node11" class="node"><title>Node11</title>
<polygon fill="none" stroke="#bfbfbf" points="827.5,-130.5 827.5,-149.5 886.5,-149.5 886.5,-130.5 827.5,-130.5"/>
<text text-anchor="middle" x="857" y="-137.5" font-family="Helvetica,sans-Serif" font-size="10.00">functional</text>
</g>
<!-- Node4&#45;&gt;Node11 -->
<g id="edge10" class="edge"><title>Node4&#45;&gt;Node11</title>
<path fill="none" stroke="midnightblue" d="M350.051,-197.859C435.125,-191.881 620.086,-177.513 775,-156 788.936,-154.065 804.113,-151.436 817.579,-148.92"/>
<polygon fill="midnightblue" stroke="midnightblue" points="818.326,-152.34 827.494,-147.031 817.016,-145.464 818.326,-152.34"/>
</g>
<!-- Node12 -->
<g id="node12" class="node"><title>Node12</title>
<g id="a_node12"><a xlink:href="null__mutex_8h.html" target="_top" xlink:title="spdlog/details/null\l_mutex.h">
<polygon fill="none" stroke="black" points="409.5,-125 409.5,-155 504.5,-155 504.5,-125 409.5,-125"/>
<text text-anchor="start" x="417.5" y="-143" font-family="Helvetica,sans-Serif" font-size="10.00">spdlog/details/null</text>
<text text-anchor="middle" x="457" y="-132" font-family="Helvetica,sans-Serif" font-size="10.00">_mutex.h</text>
</a>
</g>
</g>
<!-- Node4&#45;&gt;Node12 -->
<g id="edge11" class="edge"><title>Node4&#45;&gt;Node12</title>
<path fill="none" stroke="midnightblue" d="M325.064,-192.403C347.556,-183.641 383.095,-169.794 411.624,-158.679"/>
<polygon fill="midnightblue" stroke="midnightblue" points="412.955,-161.917 421.002,-155.025 410.413,-155.394 412.955,-161.917"/>
</g>
<!-- Node4&#45;&gt;Node13 -->
<g id="edge13" class="edge"><title>Node4&#45;&gt;Node13</title>
<path fill="none" stroke="midnightblue" d="M350.168,-194.024C433.314,-181.716 597.831,-157.313 604,-156 609.161,-154.902 614.56,-153.595 619.862,-152.219"/>
<polygon fill="midnightblue" stroke="midnightblue" points="621.113,-155.506 629.855,-149.521 619.289,-148.748 621.113,-155.506"/>
</g>
<!-- Node12&#45;&gt;Node9 -->
<g id="edge12" class="edge"><title>Node12&#45;&gt;Node9</title>
<path fill="none" stroke="midnightblue" d="M441.811,-124.679C430.572,-114.082 415.27,-99.6546 403.69,-88.7362"/>
<polygon fill="midnightblue" stroke="midnightblue" points="406.04,-86.1419 396.363,-81.8283 401.238,-91.235 406.04,-86.1419"/>
</g>
<!-- Node14 -->
<g id="node14" class="node"><title>Node14</title>
<g id="a_node14"><a xlink:href="format_8h.html" target="_top" xlink:title="spdlog/fmt/bundled\l/format.h">
<polygon fill="none" stroke="black" points="613.5,-57 613.5,-87 712.5,-87 712.5,-57 613.5,-57"/>
<text text-anchor="start" x="621.5" y="-75" font-family="Helvetica,sans-Serif" font-size="10.00">spdlog/fmt/bundled</text>
<text text-anchor="middle" x="663" y="-64" font-family="Helvetica,sans-Serif" font-size="10.00">/format.h</text>
</a>
</g>
</g>
<!-- Node13&#45;&gt;Node14 -->
<g id="edge14" class="edge"><title>Node13&#45;&gt;Node14</title>
<path fill="none" stroke="midnightblue" d="M658.654,-130.372C659.29,-121.971 660.287,-108.811 661.166,-97.2126"/>
<polygon fill="midnightblue" stroke="midnightblue" points="664.66,-97.4173 661.926,-87.1815 657.68,-96.8885 664.66,-97.4173"/>
</g>
<!-- Node14&#45;&gt;Node5 -->
<g id="edge23" class="edge"><title>Node14&#45;&gt;Node5</title>
<path fill="none" stroke="midnightblue" d="M613.275,-64.6924C515.638,-52.3072 301.399,-25.1309 221.16,-14.9527"/>
<polygon fill="midnightblue" stroke="midnightblue" points="221.115,-11.4189 210.754,-13.6326 220.234,-18.3633 221.115,-11.4189"/>
</g>
<!-- Node14&#45;&gt;Node8 -->
<g id="edge21" class="edge"><title>Node14&#45;&gt;Node8</title>
<path fill="none" stroke="midnightblue" d="M613.287,-66.7952C522.899,-58.9644 325.662,-41.0201 160,-20 152.58,-19.0585 144.653,-17.9323 137.095,-16.8005"/>
<polygon fill="midnightblue" stroke="midnightblue" points="137.515,-13.324 127.1,-15.2704 136.456,-20.2434 137.515,-13.324"/>
</g>
<!-- Node15 -->
<g id="node15" class="node"><title>Node15</title>
<polygon fill="none" stroke="#bfbfbf" points="705.5,-0.5 705.5,-19.5 754.5,-19.5 754.5,-0.5 705.5,-0.5"/>
<text text-anchor="middle" x="730" y="-7.5" font-family="Helvetica,sans-Serif" font-size="10.00">cassert</text>
</g>
<!-- Node14&#45;&gt;Node15 -->
<g id="edge15" class="edge"><title>Node14&#45;&gt;Node15</title>
<path fill="none" stroke="midnightblue" d="M678.878,-56.7808C689.015,-47.7026 702.162,-35.9291 712.585,-26.5951"/>
<polygon fill="midnightblue" stroke="midnightblue" points="715.136,-29.0091 720.251,-19.7305 710.466,-23.7944 715.136,-29.0091"/>
</g>
<!-- Node16 -->
<g id="node16" class="node"><title>Node16</title>
<polygon fill="none" stroke="#bfbfbf" points="772.5,-0.5 772.5,-19.5 819.5,-19.5 819.5,-0.5 772.5,-0.5"/>
<text text-anchor="middle" x="796" y="-7.5" font-family="Helvetica,sans-Serif" font-size="10.00">clocale</text>
</g>
<!-- Node14&#45;&gt;Node16 -->
<g id="edge16" class="edge"><title>Node14&#45;&gt;Node16</title>
<path fill="none" stroke="midnightblue" d="M694.183,-56.9327C716.421,-46.9004 746.082,-33.5193 767.652,-23.7888"/>
<polygon fill="midnightblue" stroke="midnightblue" points="769.261,-26.9027 776.937,-19.6 766.382,-20.5219 769.261,-26.9027"/>
</g>
<!-- Node17 -->
<g id="node17" class="node"><title>Node17</title>
<polygon fill="none" stroke="#bfbfbf" points="838,-0.5 838,-19.5 882,-19.5 882,-0.5 838,-0.5"/>
<text text-anchor="middle" x="860" y="-7.5" font-family="Helvetica,sans-Serif" font-size="10.00">cmath</text>
</g>
<!-- Node14&#45;&gt;Node17 -->
<g id="edge17" class="edge"><title>Node14&#45;&gt;Node17</title>
<path fill="none" stroke="midnightblue" d="M709.188,-56.9327C745.72,-45.806 795.777,-30.5602 828.007,-20.744"/>
<polygon fill="midnightblue" stroke="midnightblue" points="829.259,-24.0215 837.805,-17.7598 827.219,-17.3252 829.259,-24.0215"/>
</g>
<!-- Node18 -->
<g id="node18" class="node"><title>Node18</title>
<polygon fill="none" stroke="#bfbfbf" points="909.5,-0.5 909.5,-19.5 952.5,-19.5 952.5,-0.5 909.5,-0.5"/>
<text text-anchor="middle" x="931" y="-7.5" font-family="Helvetica,sans-Serif" font-size="10.00">cstdio</text>
</g>
<!-- Node14&#45;&gt;Node18 -->
<g id="edge18" class="edge"><title>Node14&#45;&gt;Node18</title>
<path fill="none" stroke="midnightblue" d="M712.781,-59.8551C767.41,-47.6246 853.445,-28.3631 899.471,-18.0588"/>
<polygon fill="midnightblue" stroke="midnightblue" points="900.47,-21.4217 909.464,-15.8215 898.941,-14.5908 900.47,-21.4217"/>
</g>
<!-- Node19 -->
<g id="node19" class="node"><title>Node19</title>
<polygon fill="none" stroke="#bfbfbf" points="439,-0.5 439,-19.5 485,-19.5 485,-0.5 439,-0.5"/>
<text text-anchor="middle" x="462" y="-7.5" font-family="Helvetica,sans-Serif" font-size="10.00">cstring</text>
</g>
<!-- Node14&#45;&gt;Node19 -->
<g id="edge19" class="edge"><title>Node14&#45;&gt;Node19</title>
<path fill="none" stroke="midnightblue" d="M615.874,-56.9327C578.649,-45.8207 527.661,-30.6002 494.772,-20.7827"/>
<polygon fill="midnightblue" stroke="midnightblue" points="495.765,-17.4265 485.181,-17.9198 493.762,-24.134 495.765,-17.4265"/>
</g>
<!-- Node20 -->
<g id="node20" class="node"><title>Node20</title>
<polygon fill="none" stroke="#bfbfbf" points="503,-0.5 503,-19.5 543,-19.5 543,-0.5 503,-0.5"/>
<text text-anchor="middle" x="523" y="-7.5" font-family="Helvetica,sans-Serif" font-size="10.00">limits</text>
</g>
<!-- Node14&#45;&gt;Node20 -->
<g id="edge20" class="edge"><title>Node14&#45;&gt;Node20</title>
<path fill="none" stroke="midnightblue" d="M630.176,-56.9327C606.662,-46.8552 575.263,-33.3986 552.534,-23.6575"/>
<polygon fill="midnightblue" stroke="midnightblue" points="553.637,-20.3223 543.067,-19.6 550.879,-26.7563 553.637,-20.3223"/>
</g>
<!-- Node21 -->
<g id="node21" class="node"><title>Node21</title>
<polygon fill="none" stroke="#bfbfbf" points="561.5,-0.5 561.5,-19.5 620.5,-19.5 620.5,-0.5 561.5,-0.5"/>
<text text-anchor="middle" x="591" y="-7.5" font-family="Helvetica,sans-Serif" font-size="10.00">stdexcept</text>
</g>
<!-- Node14&#45;&gt;Node21 -->
<g id="edge22" class="edge"><title>Node14&#45;&gt;Node21</title>
<path fill="none" stroke="midnightblue" d="M645.937,-56.7808C634.935,-47.6127 620.635,-35.6957 609.382,-26.3186"/>
<polygon fill="midnightblue" stroke="midnightblue" points="611.4,-23.4436 601.477,-19.7305 606.918,-28.8212 611.4,-23.4436"/>
</g>
<!-- Node14&#45;&gt;Node22 -->
<g id="edge24" class="edge"><title>Node14&#45;&gt;Node22</title>
<path fill="none" stroke="midnightblue" d="M712.955,-65.3553C820.75,-53.1752 1072.64,-24.7134 1161.92,-14.6248"/>
<polygon fill="midnightblue" stroke="midnightblue" points="1162.44,-18.0887 1171.98,-13.4879 1161.65,-11.1329 1162.44,-18.0887"/>
</g>
<!-- Node14&#45;&gt;Node23 -->
<g id="edge25" class="edge"><title>Node14&#45;&gt;Node23</title>
<path fill="none" stroke="midnightblue" d="M712.54,-63.7973C771.868,-54.8778 874.126,-38.5705 961,-20 962.496,-19.6803 964.024,-19.3399 965.564,-18.9856"/>
<polygon fill="midnightblue" stroke="midnightblue" points="966.819,-22.2827 975.709,-16.5189 965.165,-15.4809 966.819,-22.2827"/>
</g>
<!-- Node24 -->
<g id="node24" class="node"><title>Node24</title>
<polygon fill="none" stroke="#bfbfbf" points="638.5,-0.5 638.5,-19.5 687.5,-19.5 687.5,-0.5 638.5,-0.5"/>
<text text-anchor="middle" x="663" y="-7.5" font-family="Helvetica,sans-Serif" font-size="10.00">stdint.h</text>
</g>
<!-- Node14&#45;&gt;Node24 -->
<g id="edge26" class="edge"><title>Node14&#45;&gt;Node24</title>
<path fill="none" stroke="midnightblue" d="M663,-56.7808C663,-48.7812 663,-38.6887 663,-30.0168"/>
<polygon fill="midnightblue" stroke="midnightblue" points="666.5,-29.7305 663,-19.7305 659.5,-29.7306 666.5,-29.7305"/>
</g>
<!-- Node25&#45;&gt;Node4 -->
<g id="edge28" class="edge"><title>Node25&#45;&gt;Node4</title>
<path fill="none" stroke="midnightblue" d="M676.649,-250.7C597.777,-240.631 443.719,-220.964 360.172,-210.299"/>
<polygon fill="midnightblue" stroke="midnightblue" points="360.459,-206.807 350.096,-209.012 359.572,-213.751 360.459,-206.807"/>
</g>
<!-- Node25&#45;&gt;Node5 -->
<g id="edge32" class="edge"><title>Node25&#45;&gt;Node5</title>
<path fill="none" stroke="midnightblue" d="M676.671,-255.484C560.992,-251.493 279.542,-239.082 247,-212 191.563,-165.865 187.856,-70.1363 188.965,-29.6874"/>
<polygon fill="midnightblue" stroke="midnightblue" points="192.464,-29.7632 189.377,-19.6281 185.47,-29.4762 192.464,-29.7632"/>
</g>
<!-- Node25&#45;&gt;Node7 -->
<g id="edge33" class="edge"><title>Node25&#45;&gt;Node7</title>
<path fill="none" stroke="midnightblue" d="M676.953,-255.489C610.854,-252.302 498.5,-242.435 473,-212 467.291,-205.186 467.206,-198.741 473,-192 507.725,-151.602 658.934,-171.166 710,-156 712.341,-155.305 714.732,-154.475 717.102,-153.569"/>
<polygon fill="midnightblue" stroke="midnightblue" points="718.721,-156.683 726.556,-149.551 715.984,-150.241 718.721,-156.683"/>
</g>
<!-- Node25&#45;&gt;Node11 -->
<g id="edge31" class="edge"><title>Node25&#45;&gt;Node11</title>
<path fill="none" stroke="midnightblue" d="M775.039,-251.025C820.97,-244.302 884.766,-231.675 900,-212 913.951,-193.983 894.262,-171.135 877.168,-156.298"/>
<polygon fill="midnightblue" stroke="midnightblue" points="879.094,-153.351 869.143,-149.714 874.654,-158.763 879.094,-153.351"/>
</g>
<!-- Node25&#45;&gt;Node18 -->
<g id="edge29" class="edge"><title>Node25&#45;&gt;Node18</title>
<path fill="none" stroke="midnightblue" d="M775.263,-251.989C825.61,-245.767 898.908,-233.285 917,-212 961.744,-159.359 945.781,-68.3053 936.15,-29.4424"/>
<polygon fill="midnightblue" stroke="midnightblue" points="939.475,-28.3274 933.547,-19.5465 932.706,-30.1078 939.475,-28.3274"/>
</g>
<!-- Node25&#45;&gt;Node26 -->
<g id="edge30" class="edge"><title>Node25&#45;&gt;Node26</title>
<path fill="none" stroke="midnightblue" d="M775.145,-248.681C841.805,-237.397 958.906,-217.574 1014.3,-208.197"/>
<polygon fill="midnightblue" stroke="midnightblue" points="1014.94,-211.639 1024.21,-206.519 1013.77,-204.737 1014.94,-211.639"/>
</g>
<!-- Node25&#45;&gt;Node27 -->
<g id="edge34" class="edge"><title>Node25&#45;&gt;Node27</title>
<path fill="none" stroke="midnightblue" d="M775.071,-252.925C840.874,-246.96 961.427,-234.282 1073.91,-211.712"/>
<polygon fill="midnightblue" stroke="midnightblue" points="1074.62,-215.138 1083.72,-209.713 1073.22,-208.279 1074.62,-215.138"/>
</g>
<!-- Node28 -->
<g id="node28" class="node"><title>Node28</title>
<polygon fill="none" stroke="#bfbfbf" points="482,-192.5 482,-211.5 528,-211.5 528,-192.5 482,-192.5"/>
<text text-anchor="middle" x="505" y="-199.5" font-family="Helvetica,sans-Serif" font-size="10.00">stdio.h</text>
</g>
<!-- Node25&#45;&gt;Node28 -->
<g id="edge35" class="edge"><title>Node25&#45;&gt;Node28</title>
<path fill="none" stroke="midnightblue" d="M688.237,-248.482C652.096,-240.225 595.816,-227.094 538.074,-212.202"/>
<polygon fill="midnightblue" stroke="midnightblue" points="538.6,-208.723 528.042,-209.601 536.843,-215.499 538.6,-208.723"/>
</g>
<!-- Node29 -->
<g id="node29" class="node"><title>Node29</title>
<polygon fill="none" stroke="#bfbfbf" points="546.5,-192.5 546.5,-211.5 595.5,-211.5 595.5,-192.5 546.5,-192.5"/>
<text text-anchor="middle" x="571" y="-199.5" font-family="Helvetica,sans-Serif" font-size="10.00">string.h</text>
</g>
<!-- Node25&#45;&gt;Node29 -->
<g id="edge36" class="edge"><title>Node25&#45;&gt;Node29</title>
<path fill="none" stroke="midnightblue" d="M701.44,-248.444C675.477,-239.399 634.332,-225.064 605.203,-214.916"/>
<polygon fill="midnightblue" stroke="midnightblue" points="606.04,-211.501 595.445,-211.516 603.737,-218.112 606.04,-211.501"/>
</g>
<!-- Node30 -->
<g id="node30" class="node"><title>Node30</title>
<polygon fill="none" stroke="#bfbfbf" points="614,-192.5 614,-211.5 674,-211.5 674,-192.5 614,-192.5"/>
<text text-anchor="middle" x="644" y="-199.5" font-family="Helvetica,sans-Serif" font-size="10.00">sys/stat.h</text>
</g>
<!-- Node25&#45;&gt;Node30 -->
<g id="edge37" class="edge"><title>Node25&#45;&gt;Node30</title>
<path fill="none" stroke="midnightblue" d="M712.825,-248.324C700.153,-239.979 680.767,-227.212 665.794,-217.352"/>
<polygon fill="midnightblue" stroke="midnightblue" points="667.419,-214.231 657.142,-211.655 663.569,-220.078 667.419,-214.231"/>
</g>
<!-- Node31 -->
<g id="node31" class="node"><title>Node31</title>
<polygon fill="none" stroke="#bfbfbf" points="692,-192.5 692,-211.5 760,-211.5 760,-192.5 692,-192.5"/>
<text text-anchor="middle" x="726" y="-199.5" font-family="Helvetica,sans-Serif" font-size="10.00">sys/types.h</text>
</g>
<!-- Node25&#45;&gt;Node31 -->
<g id="edge38" class="edge"><title>Node25&#45;&gt;Node31</title>
<path fill="none" stroke="midnightblue" d="M726,-248.083C726,-241.006 726,-230.861 726,-221.986"/>
<polygon fill="midnightblue" stroke="midnightblue" points="729.5,-221.751 726,-211.751 722.5,-221.751 729.5,-221.751"/>
</g>
<!-- Node32 -->
<g id="node32" class="node"><title>Node32</title>
<polygon fill="none" stroke="#bfbfbf" points="778.5,-192.5 778.5,-211.5 829.5,-211.5 829.5,-192.5 778.5,-192.5"/>
<text text-anchor="middle" x="804" y="-199.5" font-family="Helvetica,sans-Serif" font-size="10.00">unistd.h</text>
</g>
<!-- Node25&#45;&gt;Node32 -->
<g id="edge39" class="edge"><title>Node25&#45;&gt;Node32</title>
<path fill="none" stroke="midnightblue" d="M738.532,-248.324C750.586,-239.979 769.027,-227.212 783.269,-217.352"/>
<polygon fill="midnightblue" stroke="midnightblue" points="785.269,-220.224 791.499,-211.655 781.285,-214.469 785.269,-220.224"/>
</g>
<!-- Node33 -->
<g id="node33" class="node"><title>Node33</title>
<polygon fill="none" stroke="#bfbfbf" points="848,-192.5 848,-211.5 892,-211.5 892,-192.5 848,-192.5"/>
<text text-anchor="middle" x="870" y="-199.5" font-family="Helvetica,sans-Serif" font-size="10.00">fcntl.h</text>
</g>
<!-- Node25&#45;&gt;Node33 -->
<g id="edge40" class="edge"><title>Node25&#45;&gt;Node33</title>
<path fill="none" stroke="midnightblue" d="M748.817,-248.444C772.973,-239.385 811.276,-225.021 838.345,-214.871"/>
<polygon fill="midnightblue" stroke="midnightblue" points="839.628,-218.127 847.763,-211.339 837.17,-211.573 839.628,-218.127"/>
</g>
</g>
</svg>
