<?xml version="1.0" encoding="UTF-8" standalone="no"?>
<!DOCTYPE svg PUBLIC "-//W3C//DTD SVG 1.1//EN"
 "http://www.w3.org/Graphics/SVG/1.1/DTD/svg11.dtd">
<!-- Generated by graphviz version 2.36.0 (20140111.2315)
 -->
<!-- Title: /home/lucamuratore/advr&#45;superbuild/external/XBotInterface/include/spdlog/fmt/bundled/printf.h Pages: 1 -->
<svg width="199pt" height="174pt"
 viewBox="0.00 0.00 199.00 174.00" xmlns="http://www.w3.org/2000/svg" xmlns:xlink="http://www.w3.org/1999/xlink">
<g id="graph0" class="graph" transform="scale(1 1) rotate(0) translate(4 170)">
<title>/home/lucamuratore/advr&#45;superbuild/external/XBotInterface/include/spdlog/fmt/bundled/printf.h</title>
<!-- Node1 -->
<g id="node1" class="node"><title>Node1</title>
<polygon fill="#bfbfbf" stroke="black" points="20.5,-113 20.5,-165 165.5,-165 165.5,-113 20.5,-113"/>
<text text-anchor="start" x="28.5" y="-153" font-family="Helvetica,sans-Serif" font-size="10.00">/home/lucamuratore</text>
<text text-anchor="start" x="28.5" y="-142" font-family="Helvetica,sans-Serif" font-size="10.00">/advr&#45;superbuild/external</text>
<text text-anchor="start" x="28.5" y="-131" font-family="Helvetica,sans-Serif" font-size="10.00">/XBotInterface/include/spdlog</text>
<text text-anchor="middle" x="93" y="-120" font-family="Helvetica,sans-Serif" font-size="10.00">/fmt/bundled/printf.h</text>
</g>
<!-- Node2 -->
<g id="node2" class="node"><title>Node2</title>
<polygon fill="none" stroke="#bfbfbf" points="-1,-56.5 -1,-75.5 55,-75.5 55,-56.5 -1,-56.5"/>
<text text-anchor="middle" x="27" y="-63.5" font-family="Helvetica,sans-Serif" font-size="10.00">algorithm</text>
</g>
<!-- Node1&#45;&gt;Node2 -->
<g id="edge1" class="edge"><title>Node1&#45;&gt;Node2</title>
<path fill="none" stroke="midnightblue" d="M69.545,-112.768C60.4478,-102.982 50.2916,-92.0561 42.1843,-83.3346"/>
<polygon fill="midnightblue" stroke="midnightblue" points="44.5124,-80.6985 35.1405,-75.7572 39.3854,-85.4644 44.5124,-80.6985"/>
</g>
<!-- Node3 -->
<g id="node3" class="node"><title>Node3</title>
<polygon fill="none" stroke="#bfbfbf" points="73,-56.5 73,-75.5 113,-75.5 113,-56.5 73,-56.5"/>
<text text-anchor="middle" x="93" y="-63.5" font-family="Helvetica,sans-Serif" font-size="10.00">limits</text>
</g>
<!-- Node1&#45;&gt;Node3 -->
<g id="edge2" class="edge"><title>Node1&#45;&gt;Node3</title>
<path fill="none" stroke="midnightblue" d="M93,-112.768C93,-103.89 93,-94.0737 93,-85.8165"/>
<polygon fill="midnightblue" stroke="midnightblue" points="96.5001,-85.7571 93,-75.7572 89.5001,-85.7572 96.5001,-85.7571"/>
</g>
<!-- Node4 -->
<g id="node4" class="node"><title>Node4</title>
<g id="a_node4"><a xlink:href="ostream_8h.html" target="_top" xlink:title="ostream.h">
<polygon fill="none" stroke="black" points="131,-56.5 131,-75.5 191,-75.5 191,-56.5 131,-56.5"/>
<text text-anchor="middle" x="161" y="-63.5" font-family="Helvetica,sans-Serif" font-size="10.00">ostream.h</text>
</a>
</g>
</g>
<!-- Node1&#45;&gt;Node4 -->
<g id="edge3" class="edge"><title>Node1&#45;&gt;Node4</title>
<path fill="none" stroke="midnightblue" d="M117.166,-112.768C126.635,-102.881 137.218,-91.8307 145.613,-83.0656"/>
<polygon fill="midnightblue" stroke="midnightblue" points="148.224,-85.4001 152.613,-75.7572 143.168,-80.5583 148.224,-85.4001"/>
</g>
<!-- Node5 -->
<g id="node5" class="node"><title>Node5</title>
<polygon fill="none" stroke="#bfbfbf" points="135,-0.5 135,-19.5 187,-19.5 187,-0.5 135,-0.5"/>
<text text-anchor="middle" x="161" y="-7.5" font-family="Helvetica,sans-Serif" font-size="10.00">ostream</text>
</g>
<!-- Node4&#45;&gt;Node5 -->
<g id="edge4" class="edge"><title>Node4&#45;&gt;Node5</title>
<path fill="none" stroke="midnightblue" d="M161,-56.083C161,-49.0059 161,-38.8611 161,-29.9865"/>
<polygon fill="midnightblue" stroke="midnightblue" points="164.5,-29.751 161,-19.7511 157.5,-29.7511 164.5,-29.751"/>
</g>
</g>
</svg>
