<?xml version="1.0" encoding="UTF-8" standalone="no"?>
<!DOCTYPE svg PUBLIC "-//W3C//DTD SVG 1.1//EN"
 "http://www.w3.org/Graphics/SVG/1.1/DTD/svg11.dtd">
<!-- Generated by graphviz version 2.38.0 (20140413.2041)
 -->
<!-- Title: /home/lucamuratore/advr&#45;superbuild/external/XBotInterface/include/spdlog/details/registry.h Pages: 1 -->
<svg width="810pt" height="684pt"
 viewBox="0.00 0.00 810.00 684.00" xmlns="http://www.w3.org/2000/svg" xmlns:xlink="http://www.w3.org/1999/xlink">
<g id="graph0" class="graph" transform="scale(1 1) rotate(0) translate(4 680)">
<title>/home/lucamuratore/advr&#45;superbuild/external/XBotInterface/include/spdlog/details/registry.h</title>
<!-- Node1 -->
<g id="node1" class="node"><title>Node1</title>
<polygon fill="#bfbfbf" stroke="black" points="189.5,-623.5 189.5,-675.5 334.5,-675.5 334.5,-623.5 189.5,-623.5"/>
<text text-anchor="start" x="197.5" y="-663.5" font-family="Helvetica,sans-Serif" font-size="10.00">/home/lucamuratore</text>
<text text-anchor="start" x="197.5" y="-652.5" font-family="Helvetica,sans-Serif" font-size="10.00">/advr&#45;superbuild/external</text>
<text text-anchor="start" x="197.5" y="-641.5" font-family="Helvetica,sans-Serif" font-size="10.00">/XBotInterface/include/spdlog</text>
<text text-anchor="middle" x="262" y="-630.5" font-family="Helvetica,sans-Serif" font-size="10.00">/details/registry.h</text>
</g>
<!-- Node2 -->
<g id="node2" class="node"><title>Node2</title>
<g id="a_node2"><a xlink:href="spdlog__impl_8h.html" target="_top" xlink:title="/home/lucamuratore\l/advr&#45;superbuild/external\l/XBotInterface/include/spdlog\l/details/spdlog_impl.h">
<polygon fill="none" stroke="black" points="189.5,-534.5 189.5,-586.5 334.5,-586.5 334.5,-534.5 189.5,-534.5"/>
<text text-anchor="start" x="197.5" y="-574.5" font-family="Helvetica,sans-Serif" font-size="10.00">/home/lucamuratore</text>
<text text-anchor="start" x="197.5" y="-563.5" font-family="Helvetica,sans-Serif" font-size="10.00">/advr&#45;superbuild/external</text>
<text text-anchor="start" x="197.5" y="-552.5" font-family="Helvetica,sans-Serif" font-size="10.00">/XBotInterface/include/spdlog</text>
<text text-anchor="middle" x="262" y="-541.5" font-family="Helvetica,sans-Serif" font-size="10.00">/details/spdlog_impl.h</text>
</a>
</g>
</g>
<!-- Node1&#45;&gt;Node2 -->
<g id="edge1" class="edge"><title>Node1&#45;&gt;Node2</title>
<path fill="none" stroke="midnightblue" d="M262,-613.191C262,-604.282 262,-594.899 262,-586.607"/>
<polygon fill="midnightblue" stroke="midnightblue" points="258.5,-613.336 262,-623.336 265.5,-613.336 258.5,-613.336"/>
</g>
<!-- Node3 -->
<g id="node3" class="node"><title>Node3</title>
<g id="a_node3"><a xlink:href="spdlog_8h.html" target="_top" xlink:title="/home/lucamuratore\l/advr&#45;superbuild/external\l/XBotInterface/include/spdlog\l/spdlog.h">
<polygon fill="none" stroke="black" points="189.5,-445.5 189.5,-497.5 334.5,-497.5 334.5,-445.5 189.5,-445.5"/>
<text text-anchor="start" x="197.5" y="-485.5" font-family="Helvetica,sans-Serif" font-size="10.00">/home/lucamuratore</text>
<text text-anchor="start" x="197.5" y="-474.5" font-family="Helvetica,sans-Serif" font-size="10.00">/advr&#45;superbuild/external</text>
<text text-anchor="start" x="197.5" y="-463.5" font-family="Helvetica,sans-Serif" font-size="10.00">/XBotInterface/include/spdlog</text>
<text text-anchor="middle" x="262" y="-452.5" font-family="Helvetica,sans-Serif" font-size="10.00">/spdlog.h</text>
</a>
</g>
</g>
<!-- Node2&#45;&gt;Node3 -->
<g id="edge2" class="edge"><title>Node2&#45;&gt;Node3</title>
<path fill="none" stroke="midnightblue" d="M255.358,-524.191C255.121,-515.282 255.275,-505.899 255.818,-497.607"/>
<polygon fill="midnightblue" stroke="midnightblue" points="251.868,-524.503 255.814,-534.336 258.861,-524.189 251.868,-524.503"/>
</g>
<!-- Node3&#45;&gt;Node2 -->
<g id="edge3" class="edge"><title>Node3&#45;&gt;Node2</title>
<path fill="none" stroke="midnightblue" d="M268.641,-507.749C268.879,-516.655 268.727,-526.04 268.186,-534.336"/>
<polygon fill="midnightblue" stroke="midnightblue" points="272.131,-507.439 268.182,-497.607 265.138,-507.755 272.131,-507.439"/>
</g>
<!-- Node4 -->
<g id="node4" class="node"><title>Node4</title>
<g id="a_node4"><a xlink:href="Logger_8hpp.html" target="_top" xlink:title="/home/lucamuratore\l/advr&#45;superbuild/external\l/XBotInterface/include/XBotInterface\l/Logger.hpp">
<polygon fill="none" stroke="black" points="174,-356.5 174,-408.5 350,-408.5 350,-356.5 174,-356.5"/>
<text text-anchor="start" x="182" y="-396.5" font-family="Helvetica,sans-Serif" font-size="10.00">/home/lucamuratore</text>
<text text-anchor="start" x="182" y="-385.5" font-family="Helvetica,sans-Serif" font-size="10.00">/advr&#45;superbuild/external</text>
<text text-anchor="start" x="182" y="-374.5" font-family="Helvetica,sans-Serif" font-size="10.00">/XBotInterface/include/XBotInterface</text>
<text text-anchor="middle" x="262" y="-363.5" font-family="Helvetica,sans-Serif" font-size="10.00">/Logger.hpp</text>
</a>
</g>
</g>
<!-- Node3&#45;&gt;Node4 -->
<g id="edge4" class="edge"><title>Node3&#45;&gt;Node4</title>
<path fill="none" stroke="midnightblue" d="M262,-435.191C262,-426.282 262,-416.899 262,-408.607"/>
<polygon fill="midnightblue" stroke="midnightblue" points="258.5,-435.336 262,-445.336 265.5,-435.336 258.5,-435.336"/>
</g>
<!-- Node5 -->
<g id="node5" class="node"><title>Node5</title>
<g id="a_node5"><a xlink:href="ConfigHelper_8h.html" target="_top" xlink:title="/home/lucamuratore\l/advr&#45;superbuild/external\l/XBotInterface/include/XBotInterface\l/ConfigHelper.h">
<polygon fill="none" stroke="black" points="0,-267.5 0,-319.5 176,-319.5 176,-267.5 0,-267.5"/>
<text text-anchor="start" x="8" y="-307.5" font-family="Helvetica,sans-Serif" font-size="10.00">/home/lucamuratore</text>
<text text-anchor="start" x="8" y="-296.5" font-family="Helvetica,sans-Serif" font-size="10.00">/advr&#45;superbuild/external</text>
<text text-anchor="start" x="8" y="-285.5" font-family="Helvetica,sans-Serif" font-size="10.00">/XBotInterface/include/XBotInterface</text>
<text text-anchor="middle" x="88" y="-274.5" font-family="Helvetica,sans-Serif" font-size="10.00">/ConfigHelper.h</text>
</a>
</g>
</g>
<!-- Node4&#45;&gt;Node5 -->
<g id="edge5" class="edge"><title>Node4&#45;&gt;Node5</title>
<path fill="none" stroke="midnightblue" d="M202.553,-351.776C181.619,-341.309 158.312,-329.656 138.215,-319.607"/>
<polygon fill="midnightblue" stroke="midnightblue" points="201.162,-354.994 211.672,-356.336 204.293,-348.733 201.162,-354.994"/>
</g>
<!-- Node7 -->
<g id="node7" class="node"><title>Node7</title>
<g id="a_node7"><a xlink:href="StateMachine_8h.html" target="_top" xlink:title="/home/lucamuratore\l/advr&#45;superbuild/external\l/XBotInterface/include/XBotInterface\l/StateMachine.h">
<polygon fill="none" stroke="black" points="90,-0.5 90,-52.5 266,-52.5 266,-0.5 90,-0.5"/>
<text text-anchor="start" x="98" y="-40.5" font-family="Helvetica,sans-Serif" font-size="10.00">/home/lucamuratore</text>
<text text-anchor="start" x="98" y="-29.5" font-family="Helvetica,sans-Serif" font-size="10.00">/advr&#45;superbuild/external</text>
<text text-anchor="start" x="98" y="-18.5" font-family="Helvetica,sans-Serif" font-size="10.00">/XBotInterface/include/XBotInterface</text>
<text text-anchor="middle" x="178" y="-7.5" font-family="Helvetica,sans-Serif" font-size="10.00">/StateMachine.h</text>
</a>
</g>
</g>
<!-- Node4&#45;&gt;Node7 -->
<g id="edge7" class="edge"><title>Node4&#45;&gt;Node7</title>
<path fill="none" stroke="midnightblue" d="M237.285,-348.016C231.822,-339.266 226.597,-329.588 223,-320 187.629,-225.714 180.042,-104.345 178.428,-52.633"/>
<polygon fill="midnightblue" stroke="midnightblue" points="234.376,-349.963 242.776,-356.42 240.236,-346.134 234.376,-349.963"/>
</g>
<!-- Node8 -->
<g id="node8" class="node"><title>Node8</title>
<g id="a_node8"><a xlink:href="XBotInterface_8h.html" target="_top" xlink:title="/home/lucamuratore\l/advr&#45;superbuild/external\l/XBotInterface/include/XBotInterface\l/XBotInterface.h">
<polygon fill="none" stroke="black" points="232,-267.5 232,-319.5 408,-319.5 408,-267.5 232,-267.5"/>
<text text-anchor="start" x="240" y="-307.5" font-family="Helvetica,sans-Serif" font-size="10.00">/home/lucamuratore</text>
<text text-anchor="start" x="240" y="-296.5" font-family="Helvetica,sans-Serif" font-size="10.00">/advr&#45;superbuild/external</text>
<text text-anchor="start" x="240" y="-285.5" font-family="Helvetica,sans-Serif" font-size="10.00">/XBotInterface/include/XBotInterface</text>
<text text-anchor="middle" x="320" y="-274.5" font-family="Helvetica,sans-Serif" font-size="10.00">/XBotInterface.h</text>
</a>
</g>
</g>
<!-- Node4&#45;&gt;Node8 -->
<g id="edge8" class="edge"><title>Node4&#45;&gt;Node8</title>
<path fill="none" stroke="midnightblue" d="M284.382,-347.927C290.659,-338.511 297.374,-328.439 303.262,-319.607"/>
<polygon fill="midnightblue" stroke="midnightblue" points="281.411,-346.074 278.776,-356.336 287.235,-349.957 281.411,-346.074"/>
</g>
<!-- Node16 -->
<g id="node16" class="node"><title>Node16</title>
<g id="a_node16"><a xlink:href="Logger_8cpp.html" target="_top" xlink:title="/home/lucamuratore\l/advr&#45;superbuild/external\l/XBotInterface/src/Logger.cpp">
<polygon fill="none" stroke="black" points="426.5,-273 426.5,-314 573.5,-314 573.5,-273 426.5,-273"/>
<text text-anchor="start" x="434.5" y="-302" font-family="Helvetica,sans-Serif" font-size="10.00">/home/lucamuratore</text>
<text text-anchor="start" x="434.5" y="-291" font-family="Helvetica,sans-Serif" font-size="10.00">/advr&#45;superbuild/external</text>
<text text-anchor="middle" x="500" y="-280" font-family="Helvetica,sans-Serif" font-size="10.00">/XBotInterface/src/Logger.cpp</text>
</a>
</g>
</g>
<!-- Node4&#45;&gt;Node16 -->
<g id="edge18" class="edge"><title>Node4&#45;&gt;Node16</title>
<path fill="none" stroke="midnightblue" d="M340.172,-352.925C374.93,-340.219 414.977,-325.58 446.289,-314.134"/>
<polygon fill="midnightblue" stroke="midnightblue" points="338.711,-349.732 330.52,-356.453 341.114,-356.307 338.711,-349.732"/>
</g>
<!-- Node6 -->
<g id="node6" class="node"><title>Node6</title>
<g id="a_node6"><a xlink:href="ConfigHelper_8cpp.html" target="_top" xlink:title="/home/lucamuratore\l/advr&#45;superbuild/external\l/XBotInterface/src/ConfigHelper.cpp">
<polygon fill="none" stroke="black" points="0.5,-184 0.5,-225 175.5,-225 175.5,-184 0.5,-184"/>
<text text-anchor="start" x="8.5" y="-213" font-family="Helvetica,sans-Serif" font-size="10.00">/home/lucamuratore</text>
<text text-anchor="start" x="8.5" y="-202" font-family="Helvetica,sans-Serif" font-size="10.00">/advr&#45;superbuild/external</text>
<text text-anchor="middle" x="88" y="-191" font-family="Helvetica,sans-Serif" font-size="10.00">/XBotInterface/src/ConfigHelper.cpp</text>
</a>
</g>
</g>
<!-- Node5&#45;&gt;Node6 -->
<g id="edge6" class="edge"><title>Node5&#45;&gt;Node6</title>
<path fill="none" stroke="midnightblue" d="M88,-257.155C88,-246.21 88,-234.549 88,-225.082"/>
<polygon fill="midnightblue" stroke="midnightblue" points="84.5001,-257.336 88,-267.336 91.5001,-257.336 84.5001,-257.336"/>
</g>
<!-- Node9 -->
<g id="node9" class="node"><title>Node9</title>
<g id="a_node9"><a xlink:href="ModelInterface_8h.html" target="_top" xlink:title="/home/lucamuratore\l/advr&#45;superbuild/external\l/XBotInterface/include/XBotInterface\l/ModelInterface.h">
<polygon fill="none" stroke="black" points="348,-178.5 348,-230.5 524,-230.5 524,-178.5 348,-178.5"/>
<text text-anchor="start" x="356" y="-218.5" font-family="Helvetica,sans-Serif" font-size="10.00">/home/lucamuratore</text>
<text text-anchor="start" x="356" y="-207.5" font-family="Helvetica,sans-Serif" font-size="10.00">/advr&#45;superbuild/external</text>
<text text-anchor="start" x="356" y="-196.5" font-family="Helvetica,sans-Serif" font-size="10.00">/XBotInterface/include/XBotInterface</text>
<text text-anchor="middle" x="436" y="-185.5" font-family="Helvetica,sans-Serif" font-size="10.00">/ModelInterface.h</text>
</a>
</g>
</g>
<!-- Node8&#45;&gt;Node9 -->
<g id="edge9" class="edge"><title>Node8&#45;&gt;Node9</title>
<path fill="none" stroke="midnightblue" d="M361.708,-261.219C375.115,-251.164 389.786,-240.16 402.523,-230.607"/>
<polygon fill="midnightblue" stroke="midnightblue" points="359.452,-258.536 353.552,-267.336 363.652,-264.136 359.452,-258.536"/>
</g>
<!-- Node10 -->
<g id="node10" class="node"><title>Node10</title>
<g id="a_node10"><a xlink:href="RobotInterface_8h.html" target="_top" xlink:title="/home/lucamuratore\l/advr&#45;superbuild/external\l/XBotInterface/include/XBotInterface\l/RobotInterface.h">
<polygon fill="none" stroke="black" points="232,-89.5 232,-141.5 408,-141.5 408,-89.5 232,-89.5"/>
<text text-anchor="start" x="240" y="-129.5" font-family="Helvetica,sans-Serif" font-size="10.00">/home/lucamuratore</text>
<text text-anchor="start" x="240" y="-118.5" font-family="Helvetica,sans-Serif" font-size="10.00">/advr&#45;superbuild/external</text>
<text text-anchor="start" x="240" y="-107.5" font-family="Helvetica,sans-Serif" font-size="10.00">/XBotInterface/include/XBotInterface</text>
<text text-anchor="middle" x="320" y="-96.5" font-family="Helvetica,sans-Serif" font-size="10.00">/RobotInterface.h</text>
</a>
</g>
</g>
<!-- Node8&#45;&gt;Node10 -->
<g id="edge16" class="edge"><title>Node8&#45;&gt;Node10</title>
<path fill="none" stroke="midnightblue" d="M320,-257.249C320,-223.038 320,-171.969 320,-141.67"/>
<polygon fill="midnightblue" stroke="midnightblue" points="316.5,-257.283 320,-267.283 323.5,-257.284 316.5,-257.283"/>
</g>
<!-- Node15 -->
<g id="node15" class="node"><title>Node15</title>
<g id="a_node15"><a xlink:href="XBotInterface_8cpp.html" target="_top" xlink:title="/home/lucamuratore\l/advr&#45;superbuild/external\l/XBotInterface/src/XBotInterface.cpp">
<polygon fill="none" stroke="black" points="542,-184 542,-225 720,-225 720,-184 542,-184"/>
<text text-anchor="start" x="550" y="-213" font-family="Helvetica,sans-Serif" font-size="10.00">/home/lucamuratore</text>
<text text-anchor="start" x="550" y="-202" font-family="Helvetica,sans-Serif" font-size="10.00">/advr&#45;superbuild/external</text>
<text text-anchor="middle" x="631" y="-191" font-family="Helvetica,sans-Serif" font-size="10.00">/XBotInterface/src/XBotInterface.cpp</text>
</a>
</g>
</g>
<!-- Node8&#45;&gt;Node15 -->
<g id="edge17" class="edge"><title>Node8&#45;&gt;Node15</title>
<path fill="none" stroke="midnightblue" d="M418.083,-265.062C464.586,-252.053 519.06,-236.814 561.266,-225.008"/>
<polygon fill="midnightblue" stroke="midnightblue" points="416.976,-261.737 408.288,-267.802 418.861,-268.479 416.976,-261.737"/>
</g>
<!-- Node9&#45;&gt;Node10 -->
<g id="edge10" class="edge"><title>Node9&#45;&gt;Node10</title>
<path fill="none" stroke="midnightblue" d="M394.292,-172.219C380.885,-162.164 366.214,-151.16 353.477,-141.607"/>
<polygon fill="midnightblue" stroke="midnightblue" points="392.348,-175.136 402.448,-178.336 396.548,-169.536 392.348,-175.136"/>
</g>
<!-- Node13 -->
<g id="node13" class="node"><title>Node13</title>
<g id="a_node13"><a xlink:href="Utils_8h.html" target="_top" xlink:title="/home/lucamuratore\l/advr&#45;superbuild/external\l/XBotInterface/include/XBotInterface\l/Utils.h">
<polygon fill="none" stroke="black" points="426,-89.5 426,-141.5 602,-141.5 602,-89.5 426,-89.5"/>
<text text-anchor="start" x="434" y="-129.5" font-family="Helvetica,sans-Serif" font-size="10.00">/home/lucamuratore</text>
<text text-anchor="start" x="434" y="-118.5" font-family="Helvetica,sans-Serif" font-size="10.00">/advr&#45;superbuild/external</text>
<text text-anchor="start" x="434" y="-107.5" font-family="Helvetica,sans-Serif" font-size="10.00">/XBotInterface/include/XBotInterface</text>
<text text-anchor="middle" x="514" y="-96.5" font-family="Helvetica,sans-Serif" font-size="10.00">/Utils.h</text>
</a>
</g>
</g>
<!-- Node9&#45;&gt;Node13 -->
<g id="edge14" class="edge"><title>Node9&#45;&gt;Node13</title>
<path fill="none" stroke="midnightblue" d="M465.326,-170.79C473.988,-161.129 483.329,-150.71 491.49,-141.607"/>
<polygon fill="midnightblue" stroke="midnightblue" points="462.63,-168.554 458.561,-178.336 467.842,-173.227 462.63,-168.554"/>
</g>
<!-- Node14 -->
<g id="node14" class="node"><title>Node14</title>
<g id="a_node14"><a xlink:href="ModelInterface_8cpp.html" target="_top" xlink:title="/home/lucamuratore\l/advr&#45;superbuild/external\l/XBotInterface/src/ModelInterface.cpp">
<polygon fill="none" stroke="black" points="620,-95 620,-136 802,-136 802,-95 620,-95"/>
<text text-anchor="start" x="628" y="-124" font-family="Helvetica,sans-Serif" font-size="10.00">/home/lucamuratore</text>
<text text-anchor="start" x="628" y="-113" font-family="Helvetica,sans-Serif" font-size="10.00">/advr&#45;superbuild/external</text>
<text text-anchor="middle" x="711" y="-102" font-family="Helvetica,sans-Serif" font-size="10.00">/XBotInterface/src/ModelInterface.cpp</text>
</a>
</g>
</g>
<!-- Node9&#45;&gt;Node14 -->
<g id="edge15" class="edge"><title>Node9&#45;&gt;Node14</title>
<path fill="none" stroke="midnightblue" d="M524.783,-175.412C565.299,-162.595 612.295,-147.727 648.939,-136.134"/>
<polygon fill="midnightblue" stroke="midnightblue" points="523.651,-172.099 515.172,-178.453 525.762,-178.773 523.651,-172.099"/>
</g>
<!-- Node10&#45;&gt;Node7 -->
<g id="edge11" class="edge"><title>Node10&#45;&gt;Node7</title>
<path fill="none" stroke="midnightblue" d="M270.333,-84.0705C253.55,-73.7877 235.013,-62.4307 218.98,-52.6075"/>
<polygon fill="midnightblue" stroke="midnightblue" points="268.572,-87.0961 278.928,-89.336 272.229,-81.1273 268.572,-87.0961"/>
</g>
<!-- Node11 -->
<g id="node11" class="node"><title>Node11</title>
<g id="a_node11"><a xlink:href="main__test_8cpp.html" target="_top" xlink:title="/home/lucamuratore\l/advr&#45;superbuild/external\l/XBotInterface/src/main\l_test.cpp">
<polygon fill="none" stroke="black" points="284.5,-0.5 284.5,-52.5 407.5,-52.5 407.5,-0.5 284.5,-0.5"/>
<text text-anchor="start" x="292.5" y="-40.5" font-family="Helvetica,sans-Serif" font-size="10.00">/home/lucamuratore</text>
<text text-anchor="start" x="292.5" y="-29.5" font-family="Helvetica,sans-Serif" font-size="10.00">/advr&#45;superbuild/external</text>
<text text-anchor="start" x="292.5" y="-18.5" font-family="Helvetica,sans-Serif" font-size="10.00">/XBotInterface/src/main</text>
<text text-anchor="middle" x="346" y="-7.5" font-family="Helvetica,sans-Serif" font-size="10.00">_test.cpp</text>
</a>
</g>
</g>
<!-- Node10&#45;&gt;Node11 -->
<g id="edge12" class="edge"><title>Node10&#45;&gt;Node11</title>
<path fill="none" stroke="midnightblue" d="M330.465,-79.4811C333.153,-70.4865 335.992,-60.9887 338.497,-52.6075"/>
<polygon fill="midnightblue" stroke="midnightblue" points="327.03,-78.7525 327.52,-89.336 333.737,-80.7569 327.03,-78.7525"/>
</g>
<!-- Node12 -->
<g id="node12" class="node"><title>Node12</title>
<g id="a_node12"><a xlink:href="RobotInterface_8cpp.html" target="_top" xlink:title="/home/lucamuratore\l/advr&#45;superbuild/external\l/XBotInterface/src/RobotInterface.cpp">
<polygon fill="none" stroke="black" points="426,-6 426,-47 608,-47 608,-6 426,-6"/>
<text text-anchor="start" x="434" y="-35" font-family="Helvetica,sans-Serif" font-size="10.00">/home/lucamuratore</text>
<text text-anchor="start" x="434" y="-24" font-family="Helvetica,sans-Serif" font-size="10.00">/advr&#45;superbuild/external</text>
<text text-anchor="middle" x="517" y="-13" font-family="Helvetica,sans-Serif" font-size="10.00">/XBotInterface/src/RobotInterface.cpp</text>
</a>
</g>
</g>
<!-- Node10&#45;&gt;Node12 -->
<g id="edge13" class="edge"><title>Node10&#45;&gt;Node12</title>
<path fill="none" stroke="midnightblue" d="M386.185,-85.2713C414.607,-72.7192 447.067,-58.3842 472.542,-47.1338"/>
<polygon fill="midnightblue" stroke="midnightblue" points="384.45,-82.2111 376.716,-89.4527 387.278,-88.6145 384.45,-82.2111"/>
</g>
</g>
</svg>
