<?xml version="1.0" encoding="UTF-8" standalone="no"?>
<!DOCTYPE svg PUBLIC "-//W3C//DTD SVG 1.1//EN"
 "http://www.w3.org/Graphics/SVG/1.1/DTD/svg11.dtd">
<!-- Generated by graphviz version 2.38.0 (20140413.2041)
 -->
<!-- Title: /home/lucamuratore/advr&#45;superbuild/external/XBotInterface/include/spdlog/sinks/sink.h Pages: 1 -->
<svg width="1273pt" height="1040pt"
 viewBox="0.00 0.00 1272.50 1040.00" xmlns="http://www.w3.org/2000/svg" xmlns:xlink="http://www.w3.org/1999/xlink">
<g id="graph0" class="graph" transform="scale(1 1) rotate(0) translate(4 1036)">
<title>/home/lucamuratore/advr&#45;superbuild/external/XBotInterface/include/spdlog/sinks/sink.h</title>
<!-- Node1 -->
<g id="node1" class="node"><title>Node1</title>
<polygon fill="#bfbfbf" stroke="black" points="702,-979.5 702,-1031.5 847,-1031.5 847,-979.5 702,-979.5"/>
<text text-anchor="start" x="710" y="-1019.5" font-family="Helvetica,sans-Serif" font-size="10.00">/home/lucamuratore</text>
<text text-anchor="start" x="710" y="-1008.5" font-family="Helvetica,sans-Serif" font-size="10.00">/advr&#45;superbuild/external</text>
<text text-anchor="start" x="710" y="-997.5" font-family="Helvetica,sans-Serif" font-size="10.00">/XBotInterface/include/spdlog</text>
<text text-anchor="middle" x="774.5" y="-986.5" font-family="Helvetica,sans-Serif" font-size="10.00">/sinks/sink.h</text>
</g>
<!-- Node2 -->
<g id="node2" class="node"><title>Node2</title>
<g id="a_node2"><a xlink:href="async__log__helper_8h.html" target="_top" xlink:title="/home/lucamuratore\l/advr&#45;superbuild/external\l/XBotInterface/include/spdlog\l/details/async_log_helper.h">
<polygon fill="none" stroke="black" points="295,-890.5 295,-942.5 440,-942.5 440,-890.5 295,-890.5"/>
<text text-anchor="start" x="303" y="-930.5" font-family="Helvetica,sans-Serif" font-size="10.00">/home/lucamuratore</text>
<text text-anchor="start" x="303" y="-919.5" font-family="Helvetica,sans-Serif" font-size="10.00">/advr&#45;superbuild/external</text>
<text text-anchor="start" x="303" y="-908.5" font-family="Helvetica,sans-Serif" font-size="10.00">/XBotInterface/include/spdlog</text>
<text text-anchor="middle" x="367.5" y="-897.5" font-family="Helvetica,sans-Serif" font-size="10.00">/details/async_log_helper.h</text>
</a>
</g>
</g>
<!-- Node1&#45;&gt;Node2 -->
<g id="edge1" class="edge"><title>Node1&#45;&gt;Node2</title>
<path fill="none" stroke="midnightblue" d="M691.55,-986.769C617.749,-970.993 510.873,-948.147 440.318,-933.066"/>
<polygon fill="midnightblue" stroke="midnightblue" points="691.226,-990.278 701.737,-988.946 692.689,-983.433 691.226,-990.278"/>
</g>
<!-- Node21 -->
<g id="node21" class="node"><title>Node21</title>
<g id="a_node21"><a xlink:href="base__sink_8h.html" target="_top" xlink:title="/home/lucamuratore\l/advr&#45;superbuild/external\l/XBotInterface/include/spdlog\l/sinks/base_sink.h">
<polygon fill="none" stroke="black" points="702,-890.5 702,-942.5 847,-942.5 847,-890.5 702,-890.5"/>
<text text-anchor="start" x="710" y="-930.5" font-family="Helvetica,sans-Serif" font-size="10.00">/home/lucamuratore</text>
<text text-anchor="start" x="710" y="-919.5" font-family="Helvetica,sans-Serif" font-size="10.00">/advr&#45;superbuild/external</text>
<text text-anchor="start" x="710" y="-908.5" font-family="Helvetica,sans-Serif" font-size="10.00">/XBotInterface/include/spdlog</text>
<text text-anchor="middle" x="774.5" y="-897.5" font-family="Helvetica,sans-Serif" font-size="10.00">/sinks/base_sink.h</text>
</a>
</g>
</g>
<!-- Node1&#45;&gt;Node21 -->
<g id="edge24" class="edge"><title>Node1&#45;&gt;Node21</title>
<path fill="none" stroke="midnightblue" d="M774.5,-969.191C774.5,-960.282 774.5,-950.899 774.5,-942.607"/>
<polygon fill="midnightblue" stroke="midnightblue" points="771,-969.336 774.5,-979.336 778,-969.336 771,-969.336"/>
</g>
<!-- Node25 -->
<g id="node25" class="node"><title>Node25</title>
<g id="a_node25"><a xlink:href="dist__sink_8h.html" target="_top" xlink:title="/home/lucamuratore\l/advr&#45;superbuild/external\l/XBotInterface/include/spdlog\l/sinks/dist_sink.h">
<polygon fill="none" stroke="black" points="1056,-801.5 1056,-853.5 1201,-853.5 1201,-801.5 1056,-801.5"/>
<text text-anchor="start" x="1064" y="-841.5" font-family="Helvetica,sans-Serif" font-size="10.00">/home/lucamuratore</text>
<text text-anchor="start" x="1064" y="-830.5" font-family="Helvetica,sans-Serif" font-size="10.00">/advr&#45;superbuild/external</text>
<text text-anchor="start" x="1064" y="-819.5" font-family="Helvetica,sans-Serif" font-size="10.00">/XBotInterface/include/spdlog</text>
<text text-anchor="middle" x="1128.5" y="-808.5" font-family="Helvetica,sans-Serif" font-size="10.00">/sinks/dist_sink.h</text>
</a>
</g>
</g>
<!-- Node1&#45;&gt;Node25 -->
<g id="edge42" class="edge"><title>Node1&#45;&gt;Node25</title>
<path fill="none" stroke="midnightblue" d="M834.213,-974.812C902.68,-940.772 1013.72,-885.563 1078.04,-853.586"/>
<polygon fill="midnightblue" stroke="midnightblue" points="832.24,-971.884 824.844,-979.47 835.356,-978.152 832.24,-971.884"/>
</g>
<!-- Node3 -->
<g id="node3" class="node"><title>Node3</title>
<g id="a_node3"><a xlink:href="async__logger__impl_8h.html" target="_top" xlink:title="/home/lucamuratore\l/advr&#45;superbuild/external\l/XBotInterface/include/spdlog\l/details/async_logger_impl.h">
<polygon fill="none" stroke="black" points="0,-801.5 0,-853.5 145,-853.5 145,-801.5 0,-801.5"/>
<text text-anchor="start" x="8" y="-841.5" font-family="Helvetica,sans-Serif" font-size="10.00">/home/lucamuratore</text>
<text text-anchor="start" x="8" y="-830.5" font-family="Helvetica,sans-Serif" font-size="10.00">/advr&#45;superbuild/external</text>
<text text-anchor="start" x="8" y="-819.5" font-family="Helvetica,sans-Serif" font-size="10.00">/XBotInterface/include/spdlog</text>
<text text-anchor="middle" x="72.5" y="-808.5" font-family="Helvetica,sans-Serif" font-size="10.00">/details/async_logger_impl.h</text>
</a>
</g>
</g>
<!-- Node2&#45;&gt;Node3 -->
<g id="edge2" class="edge"><title>Node2&#45;&gt;Node3</title>
<path fill="none" stroke="midnightblue" d="M284.906,-892.288C245.117,-880.972 196.758,-867.023 153.5,-854 150.818,-853.193 148.087,-852.364 145.331,-851.523"/>
<polygon fill="midnightblue" stroke="midnightblue" points="283.99,-895.666 294.566,-895.031 285.902,-888.932 283.99,-895.666"/>
</g>
<!-- Node4 -->
<g id="node4" class="node"><title>Node4</title>
<g id="a_node4"><a xlink:href="async__logger_8h.html" target="_top" xlink:title="/home/lucamuratore\l/advr&#45;superbuild/external\l/XBotInterface/include/spdlog\l/async_logger.h">
<polygon fill="none" stroke="black" points="155,-712.5 155,-764.5 300,-764.5 300,-712.5 155,-712.5"/>
<text text-anchor="start" x="163" y="-752.5" font-family="Helvetica,sans-Serif" font-size="10.00">/home/lucamuratore</text>
<text text-anchor="start" x="163" y="-741.5" font-family="Helvetica,sans-Serif" font-size="10.00">/advr&#45;superbuild/external</text>
<text text-anchor="start" x="163" y="-730.5" font-family="Helvetica,sans-Serif" font-size="10.00">/XBotInterface/include/spdlog</text>
<text text-anchor="middle" x="227.5" y="-719.5" font-family="Helvetica,sans-Serif" font-size="10.00">/async_logger.h</text>
</a>
</g>
</g>
<!-- Node3&#45;&gt;Node4 -->
<g id="edge3" class="edge"><title>Node3&#45;&gt;Node4</title>
<path fill="none" stroke="midnightblue" d="M120.242,-796.07C138.111,-785.788 158.441,-774.431 176.586,-764.607"/>
<polygon fill="midnightblue" stroke="midnightblue" points="118.047,-793.297 111.146,-801.336 121.554,-799.355 118.047,-793.297"/>
</g>
<!-- Node4&#45;&gt;Node3 -->
<g id="edge4" class="edge"><title>Node4&#45;&gt;Node3</title>
<path fill="none" stroke="midnightblue" d="M179.861,-769.87C162.001,-780.149 141.671,-791.507 123.518,-801.336"/>
<polygon fill="midnightblue" stroke="midnightblue" points="182.05,-772.647 188.951,-764.607 178.543,-766.589 182.05,-772.647"/>
</g>
<!-- Node5 -->
<g id="node5" class="node"><title>Node5</title>
<g id="a_node5"><a xlink:href="registry_8h.html" target="_top" xlink:title="/home/lucamuratore\l/advr&#45;superbuild/external\l/XBotInterface/include/spdlog\l/details/registry.h">
<polygon fill="none" stroke="black" points="513,-623.5 513,-675.5 658,-675.5 658,-623.5 513,-623.5"/>
<text text-anchor="start" x="521" y="-663.5" font-family="Helvetica,sans-Serif" font-size="10.00">/home/lucamuratore</text>
<text text-anchor="start" x="521" y="-652.5" font-family="Helvetica,sans-Serif" font-size="10.00">/advr&#45;superbuild/external</text>
<text text-anchor="start" x="521" y="-641.5" font-family="Helvetica,sans-Serif" font-size="10.00">/XBotInterface/include/spdlog</text>
<text text-anchor="middle" x="585.5" y="-630.5" font-family="Helvetica,sans-Serif" font-size="10.00">/details/registry.h</text>
</a>
</g>
</g>
<!-- Node4&#45;&gt;Node5 -->
<g id="edge5" class="edge"><title>Node4&#45;&gt;Node5</title>
<path fill="none" stroke="midnightblue" d="M310.392,-717.356C371.582,-702.486 454.073,-682.439 512.724,-668.186"/>
<polygon fill="midnightblue" stroke="midnightblue" points="309.269,-714.027 300.378,-719.789 310.922,-720.829 309.269,-714.027"/>
</g>
<!-- Node6 -->
<g id="node6" class="node"><title>Node6</title>
<g id="a_node6"><a xlink:href="spdlog__impl_8h.html" target="_top" xlink:title="/home/lucamuratore\l/advr&#45;superbuild/external\l/XBotInterface/include/spdlog\l/details/spdlog_impl.h">
<polygon fill="none" stroke="black" points="652,-534.5 652,-586.5 797,-586.5 797,-534.5 652,-534.5"/>
<text text-anchor="start" x="660" y="-574.5" font-family="Helvetica,sans-Serif" font-size="10.00">/home/lucamuratore</text>
<text text-anchor="start" x="660" y="-563.5" font-family="Helvetica,sans-Serif" font-size="10.00">/advr&#45;superbuild/external</text>
<text text-anchor="start" x="660" y="-552.5" font-family="Helvetica,sans-Serif" font-size="10.00">/XBotInterface/include/spdlog</text>
<text text-anchor="middle" x="724.5" y="-541.5" font-family="Helvetica,sans-Serif" font-size="10.00">/details/spdlog_impl.h</text>
</a>
</g>
</g>
<!-- Node5&#45;&gt;Node6 -->
<g id="edge6" class="edge"><title>Node5&#45;&gt;Node6</title>
<path fill="none" stroke="midnightblue" d="M634.57,-617.787C650.879,-607.579 668.835,-596.341 684.386,-586.607"/>
<polygon fill="midnightblue" stroke="midnightblue" points="632.324,-615.064 625.705,-623.336 636.038,-620.997 632.324,-615.064"/>
</g>
<!-- Node7 -->
<g id="node7" class="node"><title>Node7</title>
<g id="a_node7"><a xlink:href="spdlog_8h.html" target="_top" xlink:title="/home/lucamuratore\l/advr&#45;superbuild/external\l/XBotInterface/include/spdlog\l/spdlog.h">
<polygon fill="none" stroke="black" points="652,-445.5 652,-497.5 797,-497.5 797,-445.5 652,-445.5"/>
<text text-anchor="start" x="660" y="-485.5" font-family="Helvetica,sans-Serif" font-size="10.00">/home/lucamuratore</text>
<text text-anchor="start" x="660" y="-474.5" font-family="Helvetica,sans-Serif" font-size="10.00">/advr&#45;superbuild/external</text>
<text text-anchor="start" x="660" y="-463.5" font-family="Helvetica,sans-Serif" font-size="10.00">/XBotInterface/include/spdlog</text>
<text text-anchor="middle" x="724.5" y="-452.5" font-family="Helvetica,sans-Serif" font-size="10.00">/spdlog.h</text>
</a>
</g>
</g>
<!-- Node6&#45;&gt;Node7 -->
<g id="edge7" class="edge"><title>Node6&#45;&gt;Node7</title>
<path fill="none" stroke="midnightblue" d="M717.858,-524.191C717.621,-515.282 717.775,-505.899 718.318,-497.607"/>
<polygon fill="midnightblue" stroke="midnightblue" points="714.368,-524.503 718.314,-534.336 721.361,-524.189 714.368,-524.503"/>
</g>
<!-- Node7&#45;&gt;Node6 -->
<g id="edge8" class="edge"><title>Node7&#45;&gt;Node6</title>
<path fill="none" stroke="midnightblue" d="M731.141,-507.749C731.379,-516.655 731.227,-526.04 730.686,-534.336"/>
<polygon fill="midnightblue" stroke="midnightblue" points="734.631,-507.439 730.682,-497.607 727.638,-507.755 734.631,-507.439"/>
</g>
<!-- Node8 -->
<g id="node8" class="node"><title>Node8</title>
<g id="a_node8"><a xlink:href="Logger_8hpp.html" target="_top" xlink:title="/home/lucamuratore\l/advr&#45;superbuild/external\l/XBotInterface/include/XBotInterface\l/Logger.hpp">
<polygon fill="none" stroke="black" points="636.5,-356.5 636.5,-408.5 812.5,-408.5 812.5,-356.5 636.5,-356.5"/>
<text text-anchor="start" x="644.5" y="-396.5" font-family="Helvetica,sans-Serif" font-size="10.00">/home/lucamuratore</text>
<text text-anchor="start" x="644.5" y="-385.5" font-family="Helvetica,sans-Serif" font-size="10.00">/advr&#45;superbuild/external</text>
<text text-anchor="start" x="644.5" y="-374.5" font-family="Helvetica,sans-Serif" font-size="10.00">/XBotInterface/include/XBotInterface</text>
<text text-anchor="middle" x="724.5" y="-363.5" font-family="Helvetica,sans-Serif" font-size="10.00">/Logger.hpp</text>
</a>
</g>
</g>
<!-- Node7&#45;&gt;Node8 -->
<g id="edge9" class="edge"><title>Node7&#45;&gt;Node8</title>
<path fill="none" stroke="midnightblue" d="M724.5,-435.191C724.5,-426.282 724.5,-416.899 724.5,-408.607"/>
<polygon fill="midnightblue" stroke="midnightblue" points="721,-435.336 724.5,-445.336 728,-435.336 721,-435.336"/>
</g>
<!-- Node9 -->
<g id="node9" class="node"><title>Node9</title>
<g id="a_node9"><a xlink:href="ConfigHelper_8h.html" target="_top" xlink:title="/home/lucamuratore\l/advr&#45;superbuild/external\l/XBotInterface/include/XBotInterface\l/ConfigHelper.h">
<polygon fill="none" stroke="black" points="462.5,-267.5 462.5,-319.5 638.5,-319.5 638.5,-267.5 462.5,-267.5"/>
<text text-anchor="start" x="470.5" y="-307.5" font-family="Helvetica,sans-Serif" font-size="10.00">/home/lucamuratore</text>
<text text-anchor="start" x="470.5" y="-296.5" font-family="Helvetica,sans-Serif" font-size="10.00">/advr&#45;superbuild/external</text>
<text text-anchor="start" x="470.5" y="-285.5" font-family="Helvetica,sans-Serif" font-size="10.00">/XBotInterface/include/XBotInterface</text>
<text text-anchor="middle" x="550.5" y="-274.5" font-family="Helvetica,sans-Serif" font-size="10.00">/ConfigHelper.h</text>
</a>
</g>
</g>
<!-- Node8&#45;&gt;Node9 -->
<g id="edge10" class="edge"><title>Node8&#45;&gt;Node9</title>
<path fill="none" stroke="midnightblue" d="M665.053,-351.776C644.119,-341.309 620.812,-329.656 600.715,-319.607"/>
<polygon fill="midnightblue" stroke="midnightblue" points="663.662,-354.994 674.172,-356.336 666.793,-348.733 663.662,-354.994"/>
</g>
<!-- Node11 -->
<g id="node11" class="node"><title>Node11</title>
<g id="a_node11"><a xlink:href="StateMachine_8h.html" target="_top" xlink:title="/home/lucamuratore\l/advr&#45;superbuild/external\l/XBotInterface/include/XBotInterface\l/StateMachine.h">
<polygon fill="none" stroke="black" points="538.5,-0.5 538.5,-52.5 714.5,-52.5 714.5,-0.5 538.5,-0.5"/>
<text text-anchor="start" x="546.5" y="-40.5" font-family="Helvetica,sans-Serif" font-size="10.00">/home/lucamuratore</text>
<text text-anchor="start" x="546.5" y="-29.5" font-family="Helvetica,sans-Serif" font-size="10.00">/advr&#45;superbuild/external</text>
<text text-anchor="start" x="546.5" y="-18.5" font-family="Helvetica,sans-Serif" font-size="10.00">/XBotInterface/include/XBotInterface</text>
<text text-anchor="middle" x="626.5" y="-7.5" font-family="Helvetica,sans-Serif" font-size="10.00">/StateMachine.h</text>
</a>
</g>
</g>
<!-- Node8&#45;&gt;Node11 -->
<g id="edge12" class="edge"><title>Node8&#45;&gt;Node11</title>
<path fill="none" stroke="midnightblue" d="M700.096,-347.896C694.625,-339.148 689.318,-329.502 685.5,-320 665.798,-270.97 640.03,-114.341 630.375,-52.7338"/>
<polygon fill="midnightblue" stroke="midnightblue" points="697.182,-349.835 705.572,-356.305 703.048,-346.016 697.182,-349.835"/>
</g>
<!-- Node12 -->
<g id="node12" class="node"><title>Node12</title>
<g id="a_node12"><a xlink:href="XBotInterface_8h.html" target="_top" xlink:title="/home/lucamuratore\l/advr&#45;superbuild/external\l/XBotInterface/include/XBotInterface\l/XBotInterface.h">
<polygon fill="none" stroke="black" points="694.5,-267.5 694.5,-319.5 870.5,-319.5 870.5,-267.5 694.5,-267.5"/>
<text text-anchor="start" x="702.5" y="-307.5" font-family="Helvetica,sans-Serif" font-size="10.00">/home/lucamuratore</text>
<text text-anchor="start" x="702.5" y="-296.5" font-family="Helvetica,sans-Serif" font-size="10.00">/advr&#45;superbuild/external</text>
<text text-anchor="start" x="702.5" y="-285.5" font-family="Helvetica,sans-Serif" font-size="10.00">/XBotInterface/include/XBotInterface</text>
<text text-anchor="middle" x="782.5" y="-274.5" font-family="Helvetica,sans-Serif" font-size="10.00">/XBotInterface.h</text>
</a>
</g>
</g>
<!-- Node8&#45;&gt;Node12 -->
<g id="edge13" class="edge"><title>Node8&#45;&gt;Node12</title>
<path fill="none" stroke="midnightblue" d="M746.882,-347.927C753.159,-338.511 759.874,-328.439 765.762,-319.607"/>
<polygon fill="midnightblue" stroke="midnightblue" points="743.911,-346.074 741.276,-356.336 749.735,-349.957 743.911,-346.074"/>
</g>
<!-- Node20 -->
<g id="node20" class="node"><title>Node20</title>
<g id="a_node20"><a xlink:href="Logger_8cpp.html" target="_top" xlink:title="/home/lucamuratore\l/advr&#45;superbuild/external\l/XBotInterface/src/Logger.cpp">
<polygon fill="none" stroke="black" points="889,-273 889,-314 1036,-314 1036,-273 889,-273"/>
<text text-anchor="start" x="897" y="-302" font-family="Helvetica,sans-Serif" font-size="10.00">/home/lucamuratore</text>
<text text-anchor="start" x="897" y="-291" font-family="Helvetica,sans-Serif" font-size="10.00">/advr&#45;superbuild/external</text>
<text text-anchor="middle" x="962.5" y="-280" font-family="Helvetica,sans-Serif" font-size="10.00">/XBotInterface/src/Logger.cpp</text>
</a>
</g>
</g>
<!-- Node8&#45;&gt;Node20 -->
<g id="edge23" class="edge"><title>Node8&#45;&gt;Node20</title>
<path fill="none" stroke="midnightblue" d="M802.672,-352.925C837.43,-340.219 877.477,-325.58 908.789,-314.134"/>
<polygon fill="midnightblue" stroke="midnightblue" points="801.211,-349.732 793.02,-356.453 803.614,-356.307 801.211,-349.732"/>
</g>
<!-- Node10 -->
<g id="node10" class="node"><title>Node10</title>
<g id="a_node10"><a xlink:href="ConfigHelper_8cpp.html" target="_top" xlink:title="/home/lucamuratore\l/advr&#45;superbuild/external\l/XBotInterface/src/ConfigHelper.cpp">
<polygon fill="none" stroke="black" points="463,-184 463,-225 638,-225 638,-184 463,-184"/>
<text text-anchor="start" x="471" y="-213" font-family="Helvetica,sans-Serif" font-size="10.00">/home/lucamuratore</text>
<text text-anchor="start" x="471" y="-202" font-family="Helvetica,sans-Serif" font-size="10.00">/advr&#45;superbuild/external</text>
<text text-anchor="middle" x="550.5" y="-191" font-family="Helvetica,sans-Serif" font-size="10.00">/XBotInterface/src/ConfigHelper.cpp</text>
</a>
</g>
</g>
<!-- Node9&#45;&gt;Node10 -->
<g id="edge11" class="edge"><title>Node9&#45;&gt;Node10</title>
<path fill="none" stroke="midnightblue" d="M550.5,-257.155C550.5,-246.21 550.5,-234.549 550.5,-225.082"/>
<polygon fill="midnightblue" stroke="midnightblue" points="547,-257.336 550.5,-267.336 554,-257.336 547,-257.336"/>
</g>
<!-- Node13 -->
<g id="node13" class="node"><title>Node13</title>
<g id="a_node13"><a xlink:href="ModelInterface_8h.html" target="_top" xlink:title="/home/lucamuratore\l/advr&#45;superbuild/external\l/XBotInterface/include/XBotInterface\l/ModelInterface.h">
<polygon fill="none" stroke="black" points="810.5,-178.5 810.5,-230.5 986.5,-230.5 986.5,-178.5 810.5,-178.5"/>
<text text-anchor="start" x="818.5" y="-218.5" font-family="Helvetica,sans-Serif" font-size="10.00">/home/lucamuratore</text>
<text text-anchor="start" x="818.5" y="-207.5" font-family="Helvetica,sans-Serif" font-size="10.00">/advr&#45;superbuild/external</text>
<text text-anchor="start" x="818.5" y="-196.5" font-family="Helvetica,sans-Serif" font-size="10.00">/XBotInterface/include/XBotInterface</text>
<text text-anchor="middle" x="898.5" y="-185.5" font-family="Helvetica,sans-Serif" font-size="10.00">/ModelInterface.h</text>
</a>
</g>
</g>
<!-- Node12&#45;&gt;Node13 -->
<g id="edge14" class="edge"><title>Node12&#45;&gt;Node13</title>
<path fill="none" stroke="midnightblue" d="M824.208,-261.219C837.615,-251.164 852.286,-240.16 865.023,-230.607"/>
<polygon fill="midnightblue" stroke="midnightblue" points="821.952,-258.536 816.052,-267.336 826.152,-264.136 821.952,-258.536"/>
</g>
<!-- Node14 -->
<g id="node14" class="node"><title>Node14</title>
<g id="a_node14"><a xlink:href="RobotInterface_8h.html" target="_top" xlink:title="/home/lucamuratore\l/advr&#45;superbuild/external\l/XBotInterface/include/XBotInterface\l/RobotInterface.h">
<polygon fill="none" stroke="black" points="694.5,-89.5 694.5,-141.5 870.5,-141.5 870.5,-89.5 694.5,-89.5"/>
<text text-anchor="start" x="702.5" y="-129.5" font-family="Helvetica,sans-Serif" font-size="10.00">/home/lucamuratore</text>
<text text-anchor="start" x="702.5" y="-118.5" font-family="Helvetica,sans-Serif" font-size="10.00">/advr&#45;superbuild/external</text>
<text text-anchor="start" x="702.5" y="-107.5" font-family="Helvetica,sans-Serif" font-size="10.00">/XBotInterface/include/XBotInterface</text>
<text text-anchor="middle" x="782.5" y="-96.5" font-family="Helvetica,sans-Serif" font-size="10.00">/RobotInterface.h</text>
</a>
</g>
</g>
<!-- Node12&#45;&gt;Node14 -->
<g id="edge21" class="edge"><title>Node12&#45;&gt;Node14</title>
<path fill="none" stroke="midnightblue" d="M782.5,-257.249C782.5,-223.038 782.5,-171.969 782.5,-141.67"/>
<polygon fill="midnightblue" stroke="midnightblue" points="779,-257.283 782.5,-267.283 786,-257.284 779,-257.283"/>
</g>
<!-- Node19 -->
<g id="node19" class="node"><title>Node19</title>
<g id="a_node19"><a xlink:href="XBotInterface_8cpp.html" target="_top" xlink:title="/home/lucamuratore\l/advr&#45;superbuild/external\l/XBotInterface/src/XBotInterface.cpp">
<polygon fill="none" stroke="black" points="1004.5,-184 1004.5,-225 1182.5,-225 1182.5,-184 1004.5,-184"/>
<text text-anchor="start" x="1012.5" y="-213" font-family="Helvetica,sans-Serif" font-size="10.00">/home/lucamuratore</text>
<text text-anchor="start" x="1012.5" y="-202" font-family="Helvetica,sans-Serif" font-size="10.00">/advr&#45;superbuild/external</text>
<text text-anchor="middle" x="1093.5" y="-191" font-family="Helvetica,sans-Serif" font-size="10.00">/XBotInterface/src/XBotInterface.cpp</text>
</a>
</g>
</g>
<!-- Node12&#45;&gt;Node19 -->
<g id="edge22" class="edge"><title>Node12&#45;&gt;Node19</title>
<path fill="none" stroke="midnightblue" d="M880.583,-265.062C927.086,-252.053 981.56,-236.814 1023.77,-225.008"/>
<polygon fill="midnightblue" stroke="midnightblue" points="879.476,-261.737 870.788,-267.802 881.361,-268.479 879.476,-261.737"/>
</g>
<!-- Node13&#45;&gt;Node14 -->
<g id="edge15" class="edge"><title>Node13&#45;&gt;Node14</title>
<path fill="none" stroke="midnightblue" d="M856.792,-172.219C843.385,-162.164 828.714,-151.16 815.977,-141.607"/>
<polygon fill="midnightblue" stroke="midnightblue" points="854.848,-175.136 864.948,-178.336 859.048,-169.536 854.848,-175.136"/>
</g>
<!-- Node17 -->
<g id="node17" class="node"><title>Node17</title>
<g id="a_node17"><a xlink:href="Utils_8h.html" target="_top" xlink:title="/home/lucamuratore\l/advr&#45;superbuild/external\l/XBotInterface/include/XBotInterface\l/Utils.h">
<polygon fill="none" stroke="black" points="1088.5,-89.5 1088.5,-141.5 1264.5,-141.5 1264.5,-89.5 1088.5,-89.5"/>
<text text-anchor="start" x="1096.5" y="-129.5" font-family="Helvetica,sans-Serif" font-size="10.00">/home/lucamuratore</text>
<text text-anchor="start" x="1096.5" y="-118.5" font-family="Helvetica,sans-Serif" font-size="10.00">/advr&#45;superbuild/external</text>
<text text-anchor="start" x="1096.5" y="-107.5" font-family="Helvetica,sans-Serif" font-size="10.00">/XBotInterface/include/XBotInterface</text>
<text text-anchor="middle" x="1176.5" y="-96.5" font-family="Helvetica,sans-Serif" font-size="10.00">/Utils.h</text>
</a>
</g>
</g>
<!-- Node13&#45;&gt;Node17 -->
<g id="edge19" class="edge"><title>Node13&#45;&gt;Node17</title>
<path fill="none" stroke="midnightblue" d="M988.232,-175.418C1023.09,-164.511 1062.69,-152.117 1096.55,-141.521"/>
<polygon fill="midnightblue" stroke="midnightblue" points="987.034,-172.126 978.536,-178.453 989.125,-178.806 987.034,-172.126"/>
</g>
<!-- Node18 -->
<g id="node18" class="node"><title>Node18</title>
<g id="a_node18"><a xlink:href="ModelInterface_8cpp.html" target="_top" xlink:title="/home/lucamuratore\l/advr&#45;superbuild/external\l/XBotInterface/src/ModelInterface.cpp">
<polygon fill="none" stroke="black" points="888.5,-95 888.5,-136 1070.5,-136 1070.5,-95 888.5,-95"/>
<text text-anchor="start" x="896.5" y="-124" font-family="Helvetica,sans-Serif" font-size="10.00">/home/lucamuratore</text>
<text text-anchor="start" x="896.5" y="-113" font-family="Helvetica,sans-Serif" font-size="10.00">/advr&#45;superbuild/external</text>
<text text-anchor="middle" x="979.5" y="-102" font-family="Helvetica,sans-Serif" font-size="10.00">/XBotInterface/src/ModelInterface.cpp</text>
</a>
</g>
</g>
<!-- Node13&#45;&gt;Node18 -->
<g id="edge20" class="edge"><title>Node13&#45;&gt;Node18</title>
<path fill="none" stroke="midnightblue" d="M928.901,-170.847C939.793,-159.148 951.727,-146.33 961.268,-136.082"/>
<polygon fill="midnightblue" stroke="midnightblue" points="926.181,-168.632 921.929,-178.336 931.304,-173.402 926.181,-168.632"/>
</g>
<!-- Node14&#45;&gt;Node11 -->
<g id="edge16" class="edge"><title>Node14&#45;&gt;Node11</title>
<path fill="none" stroke="midnightblue" d="M728.444,-84.3532C709.872,-73.9962 689.296,-62.5208 671.52,-52.6075"/>
<polygon fill="midnightblue" stroke="midnightblue" points="726.94,-87.522 737.378,-89.336 730.349,-81.4085 726.94,-87.522"/>
</g>
<!-- Node15 -->
<g id="node15" class="node"><title>Node15</title>
<g id="a_node15"><a xlink:href="main__test_8cpp.html" target="_top" xlink:title="/home/lucamuratore\l/advr&#45;superbuild/external\l/XBotInterface/src/main\l_test.cpp">
<polygon fill="none" stroke="black" points="933,-0.5 933,-52.5 1056,-52.5 1056,-0.5 933,-0.5"/>
<text text-anchor="start" x="941" y="-40.5" font-family="Helvetica,sans-Serif" font-size="10.00">/home/lucamuratore</text>
<text text-anchor="start" x="941" y="-29.5" font-family="Helvetica,sans-Serif" font-size="10.00">/advr&#45;superbuild/external</text>
<text text-anchor="start" x="941" y="-18.5" font-family="Helvetica,sans-Serif" font-size="10.00">/XBotInterface/src/main</text>
<text text-anchor="middle" x="994.5" y="-7.5" font-family="Helvetica,sans-Serif" font-size="10.00">_test.cpp</text>
</a>
</g>
</g>
<!-- Node14&#45;&gt;Node15 -->
<g id="edge17" class="edge"><title>Node14&#45;&gt;Node15</title>
<path fill="none" stroke="midnightblue" d="M852.981,-85.5764C879.054,-74.8763 908.37,-62.8457 933.529,-52.5211"/>
<polygon fill="midnightblue" stroke="midnightblue" points="851.457,-82.4182 843.535,-89.4527 854.115,-88.8941 851.457,-82.4182"/>
</g>
<!-- Node16 -->
<g id="node16" class="node"><title>Node16</title>
<g id="a_node16"><a xlink:href="RobotInterface_8cpp.html" target="_top" xlink:title="/home/lucamuratore\l/advr&#45;superbuild/external\l/XBotInterface/src/RobotInterface.cpp">
<polygon fill="none" stroke="black" points="732.5,-6 732.5,-47 914.5,-47 914.5,-6 732.5,-6"/>
<text text-anchor="start" x="740.5" y="-35" font-family="Helvetica,sans-Serif" font-size="10.00">/home/lucamuratore</text>
<text text-anchor="start" x="740.5" y="-24" font-family="Helvetica,sans-Serif" font-size="10.00">/advr&#45;superbuild/external</text>
<text text-anchor="middle" x="823.5" y="-13" font-family="Helvetica,sans-Serif" font-size="10.00">/XBotInterface/src/RobotInterface.cpp</text>
</a>
</g>
</g>
<!-- Node14&#45;&gt;Node16 -->
<g id="edge18" class="edge"><title>Node14&#45;&gt;Node16</title>
<path fill="none" stroke="midnightblue" d="M798.679,-80.1688C803.974,-68.9329 809.672,-56.842 814.272,-47.0821"/>
<polygon fill="midnightblue" stroke="midnightblue" points="795.456,-78.7981 794.359,-89.336 801.788,-81.7822 795.456,-78.7981"/>
</g>
<!-- Node22 -->
<g id="node22" class="node"><title>Node22</title>
<g id="a_node22"><a xlink:href="logger_8h.html" target="_top" xlink:title="/home/lucamuratore\l/advr&#45;superbuild/external\l/XBotInterface/include/spdlog\l/logger.h">
<polygon fill="none" stroke="black" points="489,-801.5 489,-853.5 634,-853.5 634,-801.5 489,-801.5"/>
<text text-anchor="start" x="497" y="-841.5" font-family="Helvetica,sans-Serif" font-size="10.00">/home/lucamuratore</text>
<text text-anchor="start" x="497" y="-830.5" font-family="Helvetica,sans-Serif" font-size="10.00">/advr&#45;superbuild/external</text>
<text text-anchor="start" x="497" y="-819.5" font-family="Helvetica,sans-Serif" font-size="10.00">/XBotInterface/include/spdlog</text>
<text text-anchor="middle" x="561.5" y="-808.5" font-family="Helvetica,sans-Serif" font-size="10.00">/logger.h</text>
</a>
</g>
</g>
<!-- Node21&#45;&gt;Node22 -->
<g id="edge25" class="edge"><title>Node21&#45;&gt;Node22</title>
<path fill="none" stroke="midnightblue" d="M703.687,-886.576C677.49,-875.876 648.036,-863.846 622.759,-853.521"/>
<polygon fill="midnightblue" stroke="midnightblue" points="702.596,-889.912 713.177,-890.453 705.243,-883.431 702.596,-889.912"/>
</g>
<!-- Node24 -->
<g id="node24" class="node"><title>Node24</title>
<g id="a_node24"><a xlink:href="ansicolor__sink_8h.html" target="_top" xlink:title="/home/lucamuratore\l/advr&#45;superbuild/external\l/XBotInterface/include/spdlog\l/sinks/ansicolor_sink.h">
<polygon fill="none" stroke="black" points="753,-623.5 753,-675.5 898,-675.5 898,-623.5 753,-623.5"/>
<text text-anchor="start" x="761" y="-663.5" font-family="Helvetica,sans-Serif" font-size="10.00">/home/lucamuratore</text>
<text text-anchor="start" x="761" y="-652.5" font-family="Helvetica,sans-Serif" font-size="10.00">/advr&#45;superbuild/external</text>
<text text-anchor="start" x="761" y="-641.5" font-family="Helvetica,sans-Serif" font-size="10.00">/XBotInterface/include/spdlog</text>
<text text-anchor="middle" x="825.5" y="-630.5" font-family="Helvetica,sans-Serif" font-size="10.00">/sinks/ansicolor_sink.h</text>
</a>
</g>
</g>
<!-- Node21&#45;&gt;Node24 -->
<g id="edge31" class="edge"><title>Node21&#45;&gt;Node24</title>
<path fill="none" stroke="midnightblue" d="M794.523,-881.305C798.802,-872.648 802.833,-863.192 805.5,-854 823.556,-791.779 826.032,-714.85 825.966,-675.805"/>
<polygon fill="midnightblue" stroke="midnightblue" points="791.336,-879.847 789.833,-890.335 797.548,-883.073 791.336,-879.847"/>
</g>
<!-- Node21&#45;&gt;Node25 -->
<g id="edge33" class="edge"><title>Node21&#45;&gt;Node25</title>
<path fill="none" stroke="midnightblue" d="M857.034,-897.802C909.949,-886.132 979.999,-870.081 1041.5,-854 1046.22,-852.766 1051.07,-851.456 1055.96,-850.108"/>
<polygon fill="midnightblue" stroke="midnightblue" points="856.039,-894.437 847.024,-900.003 857.542,-901.274 856.039,-894.437"/>
</g>
<!-- Node26 -->
<g id="node26" class="node"><title>Node26</title>
<g id="a_node26"><a xlink:href="file__sinks_8h.html" target="_top" xlink:title="/home/lucamuratore\l/advr&#45;superbuild/external\l/XBotInterface/include/spdlog\l/sinks/file_sinks.h">
<polygon fill="none" stroke="black" points="904,-712.5 904,-764.5 1049,-764.5 1049,-712.5 904,-712.5"/>
<text text-anchor="start" x="912" y="-752.5" font-family="Helvetica,sans-Serif" font-size="10.00">/home/lucamuratore</text>
<text text-anchor="start" x="912" y="-741.5" font-family="Helvetica,sans-Serif" font-size="10.00">/advr&#45;superbuild/external</text>
<text text-anchor="start" x="912" y="-730.5" font-family="Helvetica,sans-Serif" font-size="10.00">/XBotInterface/include/spdlog</text>
<text text-anchor="middle" x="976.5" y="-719.5" font-family="Helvetica,sans-Serif" font-size="10.00">/sinks/file_sinks.h</text>
</a>
</g>
</g>
<!-- Node21&#45;&gt;Node26 -->
<g id="edge34" class="edge"><title>Node21&#45;&gt;Node26</title>
<path fill="none" stroke="midnightblue" d="M857.419,-904.511C916.96,-894.721 989.859,-878.173 1008.5,-854 1028.67,-827.848 1011.12,-789.66 995.133,-764.696"/>
<polygon fill="midnightblue" stroke="midnightblue" points="856.554,-901.105 847.233,-906.142 857.661,-908.017 856.554,-901.105"/>
</g>
<!-- Node27 -->
<g id="node27" class="node"><title>Node27</title>
<g id="a_node27"><a xlink:href="null__sink_8h.html" target="_top" xlink:title="/home/lucamuratore\l/advr&#45;superbuild/external\l/XBotInterface/include/spdlog\l/sinks/null_sink.h">
<polygon fill="none" stroke="black" points="854,-801.5 854,-853.5 999,-853.5 999,-801.5 854,-801.5"/>
<text text-anchor="start" x="862" y="-841.5" font-family="Helvetica,sans-Serif" font-size="10.00">/home/lucamuratore</text>
<text text-anchor="start" x="862" y="-830.5" font-family="Helvetica,sans-Serif" font-size="10.00">/advr&#45;superbuild/external</text>
<text text-anchor="start" x="862" y="-819.5" font-family="Helvetica,sans-Serif" font-size="10.00">/XBotInterface/include/spdlog</text>
<text text-anchor="middle" x="926.5" y="-808.5" font-family="Helvetica,sans-Serif" font-size="10.00">/sinks/null_sink.h</text>
</a>
</g>
</g>
<!-- Node21&#45;&gt;Node27 -->
<g id="edge36" class="edge"><title>Node21&#45;&gt;Node27</title>
<path fill="none" stroke="midnightblue" d="M827.17,-885.353C845.265,-874.996 865.314,-863.521 882.634,-853.607"/>
<polygon fill="midnightblue" stroke="midnightblue" points="825.405,-882.331 818.465,-890.336 828.882,-888.406 825.405,-882.331"/>
</g>
<!-- Node28 -->
<g id="node28" class="node"><title>Node28</title>
<g id="a_node28"><a xlink:href="ostream__sink_8h.html" target="_top" xlink:title="/home/lucamuratore\l/advr&#45;superbuild/external\l/XBotInterface/include/spdlog\l/sinks/ostream_sink.h">
<polygon fill="none" stroke="black" points="163,-801.5 163,-853.5 308,-853.5 308,-801.5 163,-801.5"/>
<text text-anchor="start" x="171" y="-841.5" font-family="Helvetica,sans-Serif" font-size="10.00">/home/lucamuratore</text>
<text text-anchor="start" x="171" y="-830.5" font-family="Helvetica,sans-Serif" font-size="10.00">/advr&#45;superbuild/external</text>
<text text-anchor="start" x="171" y="-819.5" font-family="Helvetica,sans-Serif" font-size="10.00">/XBotInterface/include/spdlog</text>
<text text-anchor="middle" x="235.5" y="-808.5" font-family="Helvetica,sans-Serif" font-size="10.00">/sinks/ostream_sink.h</text>
</a>
</g>
</g>
<!-- Node21&#45;&gt;Node28 -->
<g id="edge37" class="edge"><title>Node21&#45;&gt;Node28</title>
<path fill="none" stroke="midnightblue" d="M691.515,-908.672C599.183,-900.079 445.944,-882.843 316.5,-854 313.766,-853.391 310.991,-852.732 308.198,-852.033"/>
<polygon fill="midnightblue" stroke="midnightblue" points="691.359,-912.173 701.638,-909.603 692,-905.202 691.359,-912.173"/>
</g>
<!-- Node29 -->
<g id="node29" class="node"><title>Node29</title>
<g id="a_node29"><a xlink:href="stdout__sinks_8h.html" target="_top" xlink:title="/home/lucamuratore\l/advr&#45;superbuild/external\l/XBotInterface/include/spdlog\l/sinks/stdout_sinks.h">
<polygon fill="none" stroke="black" points="652,-801.5 652,-853.5 797,-853.5 797,-801.5 652,-801.5"/>
<text text-anchor="start" x="660" y="-841.5" font-family="Helvetica,sans-Serif" font-size="10.00">/home/lucamuratore</text>
<text text-anchor="start" x="660" y="-830.5" font-family="Helvetica,sans-Serif" font-size="10.00">/advr&#45;superbuild/external</text>
<text text-anchor="start" x="660" y="-819.5" font-family="Helvetica,sans-Serif" font-size="10.00">/XBotInterface/include/spdlog</text>
<text text-anchor="middle" x="724.5" y="-808.5" font-family="Helvetica,sans-Serif" font-size="10.00">/sinks/stdout_sinks.h</text>
</a>
</g>
</g>
<!-- Node21&#45;&gt;Node29 -->
<g id="edge38" class="edge"><title>Node21&#45;&gt;Node29</title>
<path fill="none" stroke="midnightblue" d="M755.04,-881.639C749.676,-872.306 743.954,-862.349 738.93,-853.607"/>
<polygon fill="midnightblue" stroke="midnightblue" points="752.02,-883.41 760.038,-890.336 758.09,-879.922 752.02,-883.41"/>
</g>
<!-- Node30 -->
<g id="node30" class="node"><title>Node30</title>
<g id="a_node30"><a xlink:href="wincolor__sink_8h.html" target="_top" xlink:title="/home/lucamuratore\l/advr&#45;superbuild/external\l/XBotInterface/include/spdlog\l/sinks/wincolor_sink.h">
<polygon fill="none" stroke="black" points="326,-801.5 326,-853.5 471,-853.5 471,-801.5 326,-801.5"/>
<text text-anchor="start" x="334" y="-841.5" font-family="Helvetica,sans-Serif" font-size="10.00">/home/lucamuratore</text>
<text text-anchor="start" x="334" y="-830.5" font-family="Helvetica,sans-Serif" font-size="10.00">/advr&#45;superbuild/external</text>
<text text-anchor="start" x="334" y="-819.5" font-family="Helvetica,sans-Serif" font-size="10.00">/XBotInterface/include/spdlog</text>
<text text-anchor="middle" x="398.5" y="-808.5" font-family="Helvetica,sans-Serif" font-size="10.00">/sinks/wincolor_sink.h</text>
</a>
</g>
</g>
<!-- Node21&#45;&gt;Node30 -->
<g id="edge41" class="edge"><title>Node21&#45;&gt;Node30</title>
<path fill="none" stroke="midnightblue" d="M691.816,-900.545C632.394,-889.243 550.561,-872.544 479.5,-854 476.79,-853.293 474.035,-852.55 471.259,-851.781"/>
<polygon fill="midnightblue" stroke="midnightblue" points="691.422,-904.032 701.898,-902.451 692.723,-897.154 691.422,-904.032"/>
</g>
<!-- Node22&#45;&gt;Node4 -->
<g id="edge26" class="edge"><title>Node22&#45;&gt;Node4</title>
<path fill="none" stroke="midnightblue" d="M478.952,-800.91C412.982,-782.789 348.197,-767.152 300.044,-755.944"/>
<polygon fill="midnightblue" stroke="midnightblue" points="478.121,-804.311 488.692,-803.601 479.985,-797.564 478.121,-804.311"/>
</g>
<!-- Node22&#45;&gt;Node5 -->
<g id="edge29" class="edge"><title>Node22&#45;&gt;Node5</title>
<path fill="none" stroke="midnightblue" d="M546.89,-791.78C539.273,-768.764 533.121,-738.111 541.5,-712 545.712,-698.874 553.871,-686.17 562.03,-675.749"/>
<polygon fill="midnightblue" stroke="midnightblue" points="543.682,-793.204 550.326,-801.457 550.278,-790.862 543.682,-793.204"/>
</g>
<!-- Node22&#45;&gt;Node7 -->
<g id="edge30" class="edge"><title>Node22&#45;&gt;Node7</title>
<path fill="none" stroke="midnightblue" d="M537.219,-793.031C510.204,-751.334 473.997,-678.786 503.5,-623 535.727,-562.064 604.93,-521.181 657.367,-497.591"/>
<polygon fill="midnightblue" stroke="midnightblue" points="534.364,-795.057 542.818,-801.443 540.191,-791.179 534.364,-795.057"/>
</g>
<!-- Node23 -->
<g id="node23" class="node"><title>Node23</title>
<g id="a_node23"><a xlink:href="logger__impl_8h.html" target="_top" xlink:title="/home/lucamuratore\l/advr&#45;superbuild/external\l/XBotInterface/include/spdlog\l/details/logger_impl.h">
<polygon fill="none" stroke="black" points="551,-712.5 551,-764.5 696,-764.5 696,-712.5 551,-712.5"/>
<text text-anchor="start" x="559" y="-752.5" font-family="Helvetica,sans-Serif" font-size="10.00">/home/lucamuratore</text>
<text text-anchor="start" x="559" y="-741.5" font-family="Helvetica,sans-Serif" font-size="10.00">/advr&#45;superbuild/external</text>
<text text-anchor="start" x="559" y="-730.5" font-family="Helvetica,sans-Serif" font-size="10.00">/XBotInterface/include/spdlog</text>
<text text-anchor="middle" x="623.5" y="-719.5" font-family="Helvetica,sans-Serif" font-size="10.00">/details/logger_impl.h</text>
</a>
</g>
</g>
<!-- Node22&#45;&gt;Node23 -->
<g id="edge27" class="edge"><title>Node22&#45;&gt;Node23</title>
<path fill="none" stroke="midnightblue" d="M578.834,-792.927C585.239,-783.511 592.552,-773.439 599.425,-764.607"/>
<polygon fill="midnightblue" stroke="midnightblue" points="575.866,-791.07 573.247,-801.336 581.696,-794.944 575.866,-791.07"/>
</g>
<!-- Node23&#45;&gt;Node22 -->
<g id="edge28" class="edge"><title>Node23&#45;&gt;Node22</title>
<path fill="none" stroke="midnightblue" d="M606.207,-773.013C599.806,-782.426 592.493,-792.499 585.619,-801.336"/>
<polygon fill="midnightblue" stroke="midnightblue" points="609.172,-774.874 611.79,-764.607 603.341,-771.001 609.172,-774.874"/>
</g>
<!-- Node24&#45;&gt;Node6 -->
<g id="edge32" class="edge"><title>Node24&#45;&gt;Node6</title>
<path fill="none" stroke="midnightblue" d="M788.523,-616.649C777.03,-606.749 764.529,-595.98 753.648,-586.607"/>
<polygon fill="midnightblue" stroke="midnightblue" points="786.426,-619.461 796.287,-623.336 790.994,-614.158 786.426,-619.461"/>
</g>
<!-- Node26&#45;&gt;Node6 -->
<g id="edge35" class="edge"><title>Node26&#45;&gt;Node6</title>
<path fill="none" stroke="midnightblue" d="M962.997,-702.766C951.494,-677.386 932.651,-643.887 906.5,-623 875.098,-597.918 832.934,-582.822 797.096,-573.869"/>
<polygon fill="midnightblue" stroke="midnightblue" points="959.841,-704.284 967.046,-712.052 966.257,-701.487 959.841,-704.284"/>
</g>
<!-- Node29&#45;&gt;Node6 -->
<g id="edge40" class="edge"><title>Node29&#45;&gt;Node6</title>
<path fill="none" stroke="midnightblue" d="M724.5,-790.893C724.5,-736.555 724.5,-634.26 724.5,-586.832"/>
<polygon fill="midnightblue" stroke="midnightblue" points="721,-791.091 724.5,-801.091 728,-791.091 721,-791.091"/>
</g>
<!-- Node29&#45;&gt;Node23 -->
<g id="edge39" class="edge"><title>Node29&#45;&gt;Node23</title>
<path fill="none" stroke="midnightblue" d="M687.523,-794.649C676.03,-784.749 663.529,-773.98 652.648,-764.607"/>
<polygon fill="midnightblue" stroke="midnightblue" points="685.426,-797.461 695.287,-801.336 689.994,-792.158 685.426,-797.461"/>
</g>
</g>
</svg>
