<?xml version="1.0" encoding="UTF-8" standalone="no"?>
<!DOCTYPE svg PUBLIC "-//W3C//DTD SVG 1.1//EN"
 "http://www.w3.org/Graphics/SVG/1.1/DTD/svg11.dtd">
<!-- Generated by graphviz version 2.36.0 (20140111.2315)
 -->
<!-- Title: /home/lucamuratore/advr&#45;superbuild/external/XBotInterface/include/spdlog/spdlog.h Pages: 1 -->
<svg width="2764pt" height="998pt"
 viewBox="0.00 0.00 2764.00 998.00" xmlns="http://www.w3.org/2000/svg" xmlns:xlink="http://www.w3.org/1999/xlink">
<g id="graph0" class="graph" transform="scale(1 1) rotate(0) translate(4 994)">
<title>/home/lucamuratore/advr&#45;superbuild/external/XBotInterface/include/spdlog/spdlog.h</title>
<!-- Node1 -->
<g id="node1" class="node"><title>Node1</title>
<polygon fill="#bfbfbf" stroke="black" points="746.5,-937 746.5,-989 891.5,-989 891.5,-937 746.5,-937"/>
<text text-anchor="start" x="754.5" y="-977" font-family="Helvetica,sans-Serif" font-size="10.00">/home/lucamuratore</text>
<text text-anchor="start" x="754.5" y="-966" font-family="Helvetica,sans-Serif" font-size="10.00">/advr&#45;superbuild/external</text>
<text text-anchor="start" x="754.5" y="-955" font-family="Helvetica,sans-Serif" font-size="10.00">/XBotInterface/include/spdlog</text>
<text text-anchor="middle" x="819" y="-944" font-family="Helvetica,sans-Serif" font-size="10.00">/spdlog.h</text>
</g>
<!-- Node2 -->
<g id="node2" class="node"><title>Node2</title>
<g id="a_node2"><a xlink:href="tweakme_8h.html" target="_top" xlink:title="spdlog/tweakme.h">
<polygon fill="none" stroke="black" points="0,-874.5 0,-893.5 96,-893.5 96,-874.5 0,-874.5"/>
<text text-anchor="middle" x="48" y="-881.5" font-family="Helvetica,sans-Serif" font-size="10.00">spdlog/tweakme.h</text>
</a>
</g>
</g>
<!-- Node1&#45;&gt;Node2 -->
<g id="edge1" class="edge"><title>Node1&#45;&gt;Node2</title>
<path fill="none" stroke="midnightblue" d="M746.341,-959.248C617.444,-953.567 340.612,-937.76 110,-900 103.245,-898.894 96.1368,-897.447 89.2406,-895.889"/>
<polygon fill="midnightblue" stroke="midnightblue" points="89.8909,-892.447 79.3541,-893.554 88.2814,-899.259 89.8909,-892.447"/>
</g>
<!-- Node3 -->
<g id="node3" class="node"><title>Node3</title>
<g id="a_node3"><a xlink:href="common_8h.html" target="_top" xlink:title="spdlog/common.h">
<polygon fill="none" stroke="black" points="1113,-198.5 1113,-217.5 1207,-217.5 1207,-198.5 1113,-198.5"/>
<text text-anchor="middle" x="1160" y="-205.5" font-family="Helvetica,sans-Serif" font-size="10.00">spdlog/common.h</text>
</a>
</g>
</g>
<!-- Node1&#45;&gt;Node3 -->
<g id="edge2" class="edge"><title>Node1&#45;&gt;Node3</title>
<path fill="none" stroke="midnightblue" d="M891.606,-960.865C1104.03,-955.782 1716.26,-927.97 1826,-776 1841.88,-754.004 1814.88,-713.88 1802,-700 1689.21,-578.495 1607.74,-621.744 1471,-528 1408.93,-485.445 1399.23,-467.123 1344,-416 1282.18,-358.78 1265.34,-345.194 1212,-280 1197.4,-262.151 1181.94,-240.668 1171.71,-226.041"/>
<polygon fill="midnightblue" stroke="midnightblue" points="1174.38,-223.748 1165.8,-217.526 1168.62,-227.738 1174.38,-223.748"/>
</g>
<!-- Node4 -->
<g id="node4" class="node"><title>Node4</title>
<polygon fill="none" stroke="#bfbfbf" points="1604.5,-0.5 1604.5,-19.5 1645.5,-19.5 1645.5,-0.5 1604.5,-0.5"/>
<text text-anchor="middle" x="1625" y="-7.5" font-family="Helvetica,sans-Serif" font-size="10.00">string</text>
</g>
<!-- Node1&#45;&gt;Node4 -->
<g id="edge83" class="edge"><title>Node1&#45;&gt;Node4</title>
<path fill="none" stroke="midnightblue" d="M891.662,-961.283C1167.72,-958.244 2151.45,-944.466 2461,-900 2595.13,-880.733 2756,-958.504 2756,-823 2756,-823 2756,-823 2756,-331 2756,-207.612 2678.71,-184.184 2571,-124 2500.32,-84.509 2481.01,-73.6842 2402,-56 2256.1,-23.3431 1781.81,-13.5194 1655.92,-11.4562"/>
<polygon fill="midnightblue" stroke="midnightblue" points="1655.87,-7.95508 1645.81,-11.2952 1655.75,-14.9542 1655.87,-7.95508"/>
</g>
<!-- Node6 -->
<g id="node6" class="node"><title>Node6</title>
<polygon fill="none" stroke="#bfbfbf" points="2197,-130.5 2197,-149.5 2243,-149.5 2243,-130.5 2197,-130.5"/>
<text text-anchor="middle" x="2220" y="-137.5" font-family="Helvetica,sans-Serif" font-size="10.00">chrono</text>
</g>
<!-- Node1&#45;&gt;Node6 -->
<g id="edge82" class="edge"><title>Node1&#45;&gt;Node6</title>
<path fill="none" stroke="midnightblue" d="M891.701,-960.556C1239.64,-953.177 2718,-916.334 2718,-823 2718,-823 2718,-823 2718,-647 2718,-397.19 2602.77,-319.592 2388,-192 2345.25,-166.604 2288.77,-152.865 2253.41,-146.239"/>
<polygon fill="midnightblue" stroke="midnightblue" points="2253.62,-142.72 2243.16,-144.406 2252.38,-149.611 2253.62,-142.72"/>
</g>
<!-- Node7 -->
<g id="node7" class="node"><title>Node7</title>
<polygon fill="none" stroke="#bfbfbf" points="383,-0.5 383,-19.5 435,-19.5 435,-0.5 383,-0.5"/>
<text text-anchor="middle" x="409" y="-7.5" font-family="Helvetica,sans-Serif" font-size="10.00">memory</text>
</g>
<!-- Node1&#45;&gt;Node7 -->
<g id="edge80" class="edge"><title>Node1&#45;&gt;Node7</title>
<path fill="none" stroke="midnightblue" d="M746.263,-962.663C568.04,-962.338 124,-948.895 124,-823 124,-823 124,-823 124,-139 124,-31.1187 296.033,-13.6065 372.783,-11.1618"/>
<polygon fill="midnightblue" stroke="midnightblue" points="373.043,-14.6565 382.953,-10.909 372.869,-7.65865 373.043,-14.6565"/>
</g>
<!-- Node10 -->
<g id="node10" class="node"><title>Node10</title>
<polygon fill="none" stroke="#bfbfbf" points="474.5,-130.5 474.5,-149.5 533.5,-149.5 533.5,-130.5 474.5,-130.5"/>
<text text-anchor="middle" x="504" y="-137.5" font-family="Helvetica,sans-Serif" font-size="10.00">functional</text>
</g>
<!-- Node1&#45;&gt;Node10 -->
<g id="edge81" class="edge"><title>Node1&#45;&gt;Node10</title>
<path fill="none" stroke="midnightblue" d="M746.298,-959.782C590.401,-953.048 238,-926.39 238,-823 238,-823 238,-823 238,-331 238,-257.644 268.201,-235.861 327,-192 367.534,-161.763 425.528,-149.422 463.946,-144.405"/>
<polygon fill="midnightblue" stroke="midnightblue" points="464.718,-147.837 474.232,-143.175 463.887,-140.887 464.718,-147.837"/>
</g>
<!-- Node24 -->
<g id="node24" class="node"><title>Node24</title>
<g id="a_node24"><a xlink:href="logger_8h.html" target="_top" xlink:title="spdlog/logger.h">
<polygon fill="none" stroke="black" points="743.5,-700.5 743.5,-719.5 826.5,-719.5 826.5,-700.5 743.5,-700.5"/>
<text text-anchor="middle" x="785" y="-707.5" font-family="Helvetica,sans-Serif" font-size="10.00">spdlog/logger.h</text>
</a>
</g>
</g>
<!-- Node1&#45;&gt;Node24 -->
<g id="edge26" class="edge"><title>Node1&#45;&gt;Node24</title>
<path fill="none" stroke="midnightblue" d="M788.9,-936.927C777.543,-926.377 765.167,-913.438 756,-900 722.225,-850.489 715.022,-834.716 703,-776 701.217,-767.292 698.472,-763.649 703,-756 711.973,-740.84 728.067,-730.448 743.635,-723.504"/>
<polygon fill="midnightblue" stroke="midnightblue" points="745.248,-726.627 753.191,-719.615 742.61,-720.143 745.248,-726.627"/>
</g>
<!-- Node40 -->
<g id="node40" class="node"><title>Node40</title>
<g id="a_node40"><a xlink:href="spdlog__impl_8h.html" target="_top" xlink:title="spdlog/details/spdlog\l_impl.h">
<polygon fill="none" stroke="black" points="765,-869 765,-899 873,-899 873,-869 765,-869"/>
<text text-anchor="start" x="773" y="-887" font-family="Helvetica,sans-Serif" font-size="10.00">spdlog/details/spdlog</text>
<text text-anchor="middle" x="819" y="-876" font-family="Helvetica,sans-Serif" font-size="10.00">_impl.h</text>
</a>
</g>
</g>
<!-- Node1&#45;&gt;Node40 -->
<g id="edge84" class="edge"><title>Node1&#45;&gt;Node40</title>
<path fill="none" stroke="midnightblue" d="M812.621,-936.787C812.107,-927.932 812.127,-918.007 812.68,-909.234"/>
<polygon fill="midnightblue" stroke="midnightblue" points="816.167,-909.536 813.619,-899.252 809.198,-908.88 816.167,-909.536"/>
</g>
<!-- Node3&#45;&gt;Node4 -->
<g id="edge3" class="edge"><title>Node3&#45;&gt;Node4</title>
<path fill="none" stroke="midnightblue" d="M1207.3,-203.169C1249.63,-197.891 1311.92,-185.409 1358,-156 1406.45,-125.079 1391.34,-86.5935 1440,-56 1488.34,-25.6044 1555.69,-15.7397 1594.37,-12.5382"/>
<polygon fill="midnightblue" stroke="midnightblue" points="1594.77,-16.019 1604.49,-11.8004 1594.26,-9.03751 1594.77,-16.019"/>
</g>
<!-- Node5 -->
<g id="node5" class="node"><title>Node5</title>
<polygon fill="none" stroke="#bfbfbf" points="1199.5,-130.5 1199.5,-149.5 1272.5,-149.5 1272.5,-130.5 1199.5,-130.5"/>
<text text-anchor="middle" x="1236" y="-137.5" font-family="Helvetica,sans-Serif" font-size="10.00">initializer_list</text>
</g>
<!-- Node3&#45;&gt;Node5 -->
<g id="edge4" class="edge"><title>Node3&#45;&gt;Node5</title>
<path fill="none" stroke="midnightblue" d="M1169.94,-198.372C1182.16,-187.758 1203.13,-169.545 1218.17,-156.485"/>
<polygon fill="midnightblue" stroke="midnightblue" points="1220.56,-159.041 1225.82,-149.841 1215.97,-153.755 1220.56,-159.041"/>
</g>
<!-- Node3&#45;&gt;Node6 -->
<g id="edge5" class="edge"><title>Node3&#45;&gt;Node6</title>
<path fill="none" stroke="midnightblue" d="M1207.26,-204.057C1387.93,-192.808 2032.52,-152.673 2186.7,-143.074"/>
<polygon fill="midnightblue" stroke="midnightblue" points="2187.17,-146.551 2196.94,-142.436 2186.74,-139.564 2187.17,-146.551"/>
</g>
<!-- Node3&#45;&gt;Node7 -->
<g id="edge6" class="edge"><title>Node3&#45;&gt;Node7</title>
<path fill="none" stroke="midnightblue" d="M1138.12,-198.332C1114.83,-188.849 1077.12,-172.754 1046,-156 973.157,-116.781 967.258,-82.8323 889,-56 806.868,-27.8393 542.592,-15.7671 445.351,-12.2022"/>
<polygon fill="midnightblue" stroke="midnightblue" points="445.256,-8.69671 435.138,-11.8368 445.006,-15.6922 445.256,-8.69671"/>
</g>
<!-- Node8 -->
<g id="node8" class="node"><title>Node8</title>
<polygon fill="none" stroke="#bfbfbf" points="1211,-62.5 1211,-81.5 1257,-81.5 1257,-62.5 1211,-62.5"/>
<text text-anchor="middle" x="1234" y="-69.5" font-family="Helvetica,sans-Serif" font-size="10.00">atomic</text>
</g>
<!-- Node3&#45;&gt;Node8 -->
<g id="edge7" class="edge"><title>Node3&#45;&gt;Node8</title>
<path fill="none" stroke="midnightblue" d="M1162.18,-198.325C1166.32,-182.73 1176.25,-149.231 1191,-124 1198.41,-111.318 1209.04,-98.6823 1217.87,-89.1611"/>
<polygon fill="midnightblue" stroke="midnightblue" points="1220.65,-91.3146 1225.04,-81.6726 1215.6,-86.4716 1220.65,-91.3146"/>
</g>
<!-- Node9 -->
<g id="node9" class="node"><title>Node9</title>
<polygon fill="none" stroke="#bfbfbf" points="1290.5,-130.5 1290.5,-149.5 1349.5,-149.5 1349.5,-130.5 1290.5,-130.5"/>
<text text-anchor="middle" x="1320" y="-137.5" font-family="Helvetica,sans-Serif" font-size="10.00">exception</text>
</g>
<!-- Node3&#45;&gt;Node9 -->
<g id="edge8" class="edge"><title>Node3&#45;&gt;Node9</title>
<path fill="none" stroke="midnightblue" d="M1180.92,-198.372C1208.78,-186.877 1258.26,-166.469 1290.07,-153.346"/>
<polygon fill="midnightblue" stroke="midnightblue" points="1291.42,-156.575 1299.33,-149.526 1288.75,-150.104 1291.42,-156.575"/>
</g>
<!-- Node3&#45;&gt;Node10 -->
<g id="edge9" class="edge"><title>Node3&#45;&gt;Node10</title>
<path fill="none" stroke="midnightblue" d="M1112.82,-202.253C989.324,-189.828 658.203,-156.514 543.648,-144.989"/>
<polygon fill="midnightblue" stroke="midnightblue" points="543.865,-141.493 533.565,-143.975 543.165,-148.458 543.865,-141.493"/>
</g>
<!-- Node11 -->
<g id="node11" class="node"><title>Node11</title>
<g id="a_node11"><a xlink:href="null__mutex_8h.html" target="_top" xlink:title="spdlog/details/null\l_mutex.h">
<polygon fill="none" stroke="black" points="789.5,-125 789.5,-155 884.5,-155 884.5,-125 789.5,-125"/>
<text text-anchor="start" x="797.5" y="-143" font-family="Helvetica,sans-Serif" font-size="10.00">spdlog/details/null</text>
<text text-anchor="middle" x="837" y="-132" font-family="Helvetica,sans-Serif" font-size="10.00">_mutex.h</text>
</a>
</g>
</g>
<!-- Node3&#45;&gt;Node11 -->
<g id="edge10" class="edge"><title>Node3&#45;&gt;Node11</title>
<path fill="none" stroke="midnightblue" d="M1118.1,-198.439C1061.07,-186.785 958.762,-165.88 894.559,-152.761"/>
<polygon fill="midnightblue" stroke="midnightblue" points="895.093,-149.298 884.595,-150.725 893.691,-156.156 895.093,-149.298"/>
</g>
<!-- Node12 -->
<g id="node12" class="node"><title>Node12</title>
<g id="a_node12"><a xlink:href="fmt_8h.html" target="_top" xlink:title="spdlog/fmt/fmt.h">
<polygon fill="none" stroke="black" points="1055,-130.5 1055,-149.5 1143,-149.5 1143,-130.5 1055,-130.5"/>
<text text-anchor="middle" x="1099" y="-137.5" font-family="Helvetica,sans-Serif" font-size="10.00">spdlog/fmt/fmt.h</text>
</a>
</g>
</g>
<!-- Node3&#45;&gt;Node12 -->
<g id="edge12" class="edge"><title>Node3&#45;&gt;Node12</title>
<path fill="none" stroke="midnightblue" d="M1152.03,-198.372C1142.4,-187.955 1126,-170.217 1113.99,-157.216"/>
<polygon fill="midnightblue" stroke="midnightblue" points="1116.53,-154.809 1107.17,-149.841 1111.39,-159.561 1116.53,-154.809"/>
</g>
<!-- Node11&#45;&gt;Node8 -->
<g id="edge11" class="edge"><title>Node11&#45;&gt;Node8</title>
<path fill="none" stroke="midnightblue" d="M884.627,-135.971C954.247,-130.712 1087.43,-117.492 1197,-88 1199.98,-87.1971 1203.05,-86.2193 1206.08,-85.1517"/>
<polygon fill="midnightblue" stroke="midnightblue" points="1207.4,-88.3922 1215.48,-81.5399 1204.89,-81.8574 1207.4,-88.3922"/>
</g>
<!-- Node13 -->
<g id="node13" class="node"><title>Node13</title>
<g id="a_node13"><a xlink:href="format_8h.html" target="_top" xlink:title="spdlog/fmt/bundled\l/format.h">
<polygon fill="none" stroke="black" points="1017.5,-57 1017.5,-87 1116.5,-87 1116.5,-57 1017.5,-57"/>
<text text-anchor="start" x="1025.5" y="-75" font-family="Helvetica,sans-Serif" font-size="10.00">spdlog/fmt/bundled</text>
<text text-anchor="middle" x="1067" y="-64" font-family="Helvetica,sans-Serif" font-size="10.00">/format.h</text>
</a>
</g>
</g>
<!-- Node12&#45;&gt;Node13 -->
<g id="edge13" class="edge"><title>Node12&#45;&gt;Node13</title>
<path fill="none" stroke="midnightblue" d="M1094.82,-130.372C1090.66,-121.8 1084.1,-108.272 1078.4,-96.5045"/>
<polygon fill="midnightblue" stroke="midnightblue" points="1081.39,-94.6526 1073.88,-87.1815 1075.09,-97.7066 1081.39,-94.6526"/>
</g>
<!-- Node13&#45;&gt;Node4 -->
<g id="edge22" class="edge"><title>Node13&#45;&gt;Node4</title>
<path fill="none" stroke="midnightblue" d="M1116.83,-58.6136C1121.6,-57.641 1126.38,-56.7479 1131,-56 1304.75,-27.8652 1515.95,-15.9714 1594.04,-12.3191"/>
<polygon fill="midnightblue" stroke="midnightblue" points="1594.33,-15.8096 1604.16,-11.8576 1594.01,-8.81689 1594.33,-15.8096"/>
</g>
<!-- Node13&#45;&gt;Node7 -->
<g id="edge20" class="edge"><title>Node13&#45;&gt;Node7</title>
<path fill="none" stroke="midnightblue" d="M1017.28,-63.0244C1000.68,-60.5395 982.073,-57.9441 965,-56 769.441,-33.7309 533.957,-18.4582 445.197,-13.1087"/>
<polygon fill="midnightblue" stroke="midnightblue" points="445.303,-9.60895 435.112,-12.5057 444.885,-16.5965 445.303,-9.60895"/>
</g>
<!-- Node14 -->
<g id="node14" class="node"><title>Node14</title>
<polygon fill="none" stroke="#bfbfbf" points="1237.5,-0.5 1237.5,-19.5 1286.5,-19.5 1286.5,-0.5 1237.5,-0.5"/>
<text text-anchor="middle" x="1262" y="-7.5" font-family="Helvetica,sans-Serif" font-size="10.00">cassert</text>
</g>
<!-- Node13&#45;&gt;Node14 -->
<g id="edge14" class="edge"><title>Node13&#45;&gt;Node14</title>
<path fill="none" stroke="midnightblue" d="M1112.72,-56.9327C1147.86,-46.1186 1195.66,-31.4135 1227.6,-21.5838"/>
<polygon fill="midnightblue" stroke="midnightblue" points="1228.85,-24.861 1237.38,-18.5748 1226.79,-18.1705 1228.85,-24.861"/>
</g>
<!-- Node15 -->
<g id="node15" class="node"><title>Node15</title>
<polygon fill="none" stroke="#bfbfbf" points="1304.5,-0.5 1304.5,-19.5 1351.5,-19.5 1351.5,-0.5 1304.5,-0.5"/>
<text text-anchor="middle" x="1328" y="-7.5" font-family="Helvetica,sans-Serif" font-size="10.00">clocale</text>
</g>
<!-- Node13&#45;&gt;Node15 -->
<g id="edge15" class="edge"><title>Node13&#45;&gt;Node15</title>
<path fill="none" stroke="midnightblue" d="M1116.6,-59.3025C1121.46,-58.1772 1126.33,-57.0607 1131,-56 1200.79,-40.1626 1220.91,-37.9844 1294.5,-20.0251"/>
<polygon fill="midnightblue" stroke="midnightblue" points="1295.37,-23.4161 1304.24,-17.6318 1293.7,-16.6181 1295.37,-23.4161"/>
</g>
<!-- Node16 -->
<g id="node16" class="node"><title>Node16</title>
<polygon fill="none" stroke="#bfbfbf" points="909,-0.5 909,-19.5 953,-19.5 953,-0.5 909,-0.5"/>
<text text-anchor="middle" x="931" y="-7.5" font-family="Helvetica,sans-Serif" font-size="10.00">cmath</text>
</g>
<!-- Node13&#45;&gt;Node16 -->
<g id="edge16" class="edge"><title>Node13&#45;&gt;Node16</title>
<path fill="none" stroke="midnightblue" d="M1035.11,-56.9327C1012.27,-46.8552 981.77,-33.3986 959.69,-23.6575"/>
<polygon fill="midnightblue" stroke="midnightblue" points="961.055,-20.4343 950.493,-19.6 958.23,-26.8387 961.055,-20.4343"/>
</g>
<!-- Node17 -->
<g id="node17" class="node"><title>Node17</title>
<polygon fill="none" stroke="#bfbfbf" points="2544.5,-0.5 2544.5,-19.5 2587.5,-19.5 2587.5,-0.5 2544.5,-0.5"/>
<text text-anchor="middle" x="2566" y="-7.5" font-family="Helvetica,sans-Serif" font-size="10.00">cstdio</text>
</g>
<!-- Node13&#45;&gt;Node17 -->
<g id="edge17" class="edge"><title>Node13&#45;&gt;Node17</title>
<path fill="none" stroke="midnightblue" d="M1116.6,-64.5553C1142.09,-61.4819 1173.66,-58.039 1202,-56 1733.43,-17.7681 2383.7,-11.9806 2533.98,-11.1384"/>
<polygon fill="midnightblue" stroke="midnightblue" points="2534.33,-14.6367 2544.31,-11.084 2534.29,-7.63679 2534.33,-14.6367"/>
</g>
<!-- Node18 -->
<g id="node18" class="node"><title>Node18</title>
<polygon fill="none" stroke="#bfbfbf" points="971,-0.5 971,-19.5 1017,-19.5 1017,-0.5 971,-0.5"/>
<text text-anchor="middle" x="994" y="-7.5" font-family="Helvetica,sans-Serif" font-size="10.00">cstring</text>
</g>
<!-- Node13&#45;&gt;Node18 -->
<g id="edge18" class="edge"><title>Node13&#45;&gt;Node18</title>
<path fill="none" stroke="midnightblue" d="M1049.7,-56.7808C1038.55,-47.6127 1024.05,-35.6957 1012.64,-26.3186"/>
<polygon fill="midnightblue" stroke="midnightblue" points="1014.57,-23.3763 1004.62,-19.7305 1010.13,-28.7841 1014.57,-23.3763"/>
</g>
<!-- Node19 -->
<g id="node19" class="node"><title>Node19</title>
<polygon fill="none" stroke="#bfbfbf" points="1035,-0.5 1035,-19.5 1075,-19.5 1075,-0.5 1035,-0.5"/>
<text text-anchor="middle" x="1055" y="-7.5" font-family="Helvetica,sans-Serif" font-size="10.00">limits</text>
</g>
<!-- Node13&#45;&gt;Node19 -->
<g id="edge19" class="edge"><title>Node13&#45;&gt;Node19</title>
<path fill="none" stroke="midnightblue" d="M1064.16,-56.7808C1062.54,-48.6913 1060.49,-38.4617 1058.75,-29.725"/>
<polygon fill="midnightblue" stroke="midnightblue" points="1062.14,-28.8499 1056.75,-19.7305 1055.28,-30.2228 1062.14,-28.8499"/>
</g>
<!-- Node20 -->
<g id="node20" class="node"><title>Node20</title>
<polygon fill="none" stroke="#bfbfbf" points="1093.5,-0.5 1093.5,-19.5 1152.5,-19.5 1152.5,-0.5 1093.5,-0.5"/>
<text text-anchor="middle" x="1123" y="-7.5" font-family="Helvetica,sans-Serif" font-size="10.00">stdexcept</text>
</g>
<!-- Node13&#45;&gt;Node20 -->
<g id="edge21" class="edge"><title>Node13&#45;&gt;Node20</title>
<path fill="none" stroke="midnightblue" d="M1080.27,-56.7808C1088.58,-47.8824 1099.3,-36.3943 1107.92,-27.1524"/>
<polygon fill="midnightblue" stroke="midnightblue" points="1110.59,-29.4292 1114.85,-19.7305 1105.47,-24.653 1110.59,-29.4292"/>
</g>
<!-- Node21 -->
<g id="node21" class="node"><title>Node21</title>
<polygon fill="none" stroke="#bfbfbf" points="847,-0.5 847,-19.5 891,-19.5 891,-0.5 847,-0.5"/>
<text text-anchor="middle" x="869" y="-7.5" font-family="Helvetica,sans-Serif" font-size="10.00">vector</text>
</g>
<!-- Node13&#45;&gt;Node21 -->
<g id="edge23" class="edge"><title>Node13&#45;&gt;Node21</title>
<path fill="none" stroke="midnightblue" d="M1020.58,-56.9327C983.757,-45.7748 933.266,-30.4745 900.883,-20.6614"/>
<polygon fill="midnightblue" stroke="midnightblue" points="901.63,-17.2309 891.045,-17.6803 899.6,-23.93 901.63,-17.2309"/>
</g>
<!-- Node22 -->
<g id="node22" class="node"><title>Node22</title>
<polygon fill="none" stroke="#bfbfbf" points="1370,-0.5 1370,-19.5 1410,-19.5 1410,-0.5 1370,-0.5"/>
<text text-anchor="middle" x="1390" y="-7.5" font-family="Helvetica,sans-Serif" font-size="10.00">utility</text>
</g>
<!-- Node13&#45;&gt;Node22 -->
<g id="edge24" class="edge"><title>Node13&#45;&gt;Node22</title>
<path fill="none" stroke="midnightblue" d="M1116.54,-59.0068C1121.41,-57.9414 1126.3,-56.9197 1131,-56 1232.11,-36.2313 1259.54,-42.8549 1360,-20 1360.1,-19.9774 1360.2,-19.9546 1360.3,-19.9317"/>
<polygon fill="midnightblue" stroke="midnightblue" points="1360.97,-23.3748 1369.77,-17.4758 1359.21,-16.599 1360.97,-23.3748"/>
</g>
<!-- Node23 -->
<g id="node23" class="node"><title>Node23</title>
<polygon fill="none" stroke="#bfbfbf" points="1170.5,-0.5 1170.5,-19.5 1219.5,-19.5 1219.5,-0.5 1170.5,-0.5"/>
<text text-anchor="middle" x="1195" y="-7.5" font-family="Helvetica,sans-Serif" font-size="10.00">stdint.h</text>
</g>
<!-- Node13&#45;&gt;Node23 -->
<g id="edge25" class="edge"><title>Node13&#45;&gt;Node23</title>
<path fill="none" stroke="midnightblue" d="M1097.01,-56.9327C1118.32,-46.9455 1146.7,-33.6397 1167.44,-23.9205"/>
<polygon fill="midnightblue" stroke="midnightblue" points="1169.08,-27.0135 1176.65,-19.6 1166.11,-20.6753 1169.08,-27.0135"/>
</g>
<!-- Node24&#45;&gt;Node3 -->
<g id="edge66" class="edge"><title>Node24&#45;&gt;Node3</title>
<path fill="none" stroke="midnightblue" d="M800.383,-700.491C813.78,-692.472 833.037,-679.408 846,-664 905.128,-593.719 894,-554.845 894,-463 894,-463 894,-463 894,-331 894,-239.953 1024.35,-216.592 1102.55,-210.77"/>
<polygon fill="midnightblue" stroke="midnightblue" points="1103.01,-214.247 1112.75,-210.087 1102.54,-207.262 1103.01,-214.247"/>
</g>
<!-- Node24&#45;&gt;Node4 -->
<g id="edge69" class="edge"><title>Node24&#45;&gt;Node4</title>
<path fill="none" stroke="midnightblue" d="M810.576,-700.456C829.214,-693.174 854.063,-681.141 871,-664 957.895,-576.056 951.054,-530.778 997,-416 1014.24,-372.922 996.333,-350.823 1027,-316 1055.93,-283.15 1349.43,-178.461 1387,-156 1449.26,-118.776 1453.24,-92.3894 1516,-56 1541.19,-41.3945 1572.03,-29.1287 1594.47,-21.1107"/>
<polygon fill="midnightblue" stroke="midnightblue" points="1595.85,-24.3351 1604.14,-17.7325 1593.54,-17.7268 1595.85,-24.3351"/>
</g>
<!-- Node24&#45;&gt;Node7 -->
<g id="edge68" class="edge"><title>Node24&#45;&gt;Node7</title>
<path fill="none" stroke="midnightblue" d="M765.833,-700.428C748.59,-692.276 722.974,-679.048 703,-664 499.013,-510.315 352,-464.401 352,-209 352,-209 352,-209 352,-139 352,-96.0494 379.114,-51.4573 395.941,-27.9188"/>
<polygon fill="midnightblue" stroke="midnightblue" points="398.879,-29.8325 402.011,-19.7111 393.251,-25.6703 398.879,-29.8325"/>
</g>
<!-- Node24&#45;&gt;Node21 -->
<g id="edge67" class="edge"><title>Node24&#45;&gt;Node21</title>
<path fill="none" stroke="midnightblue" d="M767.001,-700.499C752.88,-692.896 733.853,-680.422 723,-664 702.135,-632.429 704,-618.843 704,-581 704,-581 704,-581 704,-269 704,-201.523 713.262,-181.235 749,-124 775.281,-81.9109 821.014,-44.996 847.791,-25.5559"/>
<polygon fill="midnightblue" stroke="midnightblue" points="849.971,-28.3003 856.089,-19.6508 845.912,-22.5969 849.971,-28.3003"/>
</g>
<!-- Node25 -->
<g id="node25" class="node"><title>Node25</title>
<g id="a_node25"><a xlink:href="base__sink_8h.html" target="_top" xlink:title="spdlog/sinks/base_sink.h">
<polygon fill="none" stroke="black" points="1479.5,-508.5 1479.5,-527.5 1606.5,-527.5 1606.5,-508.5 1479.5,-508.5"/>
<text text-anchor="middle" x="1543" y="-515.5" font-family="Helvetica,sans-Serif" font-size="10.00">spdlog/sinks/base_sink.h</text>
</a>
</g>
</g>
<!-- Node24&#45;&gt;Node25 -->
<g id="edge27" class="edge"><title>Node24&#45;&gt;Node25</title>
<path fill="none" stroke="midnightblue" d="M824.354,-700.483C864.56,-691.692 928.753,-677.408 984,-664 1178.4,-616.82 1409.33,-555.105 1501.77,-530.17"/>
<polygon fill="midnightblue" stroke="midnightblue" points="1502.83,-533.509 1511.57,-527.523 1501,-526.751 1502.83,-533.509"/>
</g>
<!-- Node38 -->
<g id="node38" class="node"><title>Node38</title>
<g id="a_node38"><a xlink:href="logger__impl_8h.html" target="_top" xlink:title="spdlog/details/logger\l_impl.h">
<polygon fill="none" stroke="black" points="732,-633 732,-663 838,-663 838,-633 732,-633"/>
<text text-anchor="start" x="740" y="-651" font-family="Helvetica,sans-Serif" font-size="10.00">spdlog/details/logger</text>
<text text-anchor="middle" x="785" y="-640" font-family="Helvetica,sans-Serif" font-size="10.00">_impl.h</text>
</a>
</g>
</g>
<!-- Node24&#45;&gt;Node38 -->
<g id="edge70" class="edge"><title>Node24&#45;&gt;Node38</title>
<path fill="none" stroke="midnightblue" d="M780.099,-700.403C778.572,-693.341 777.991,-682.975 778.356,-673.399"/>
<polygon fill="midnightblue" stroke="midnightblue" points="781.868,-673.386 779.17,-663.141 774.89,-672.832 781.868,-673.386"/>
</g>
<!-- Node25&#45;&gt;Node3 -->
<g id="edge63" class="edge"><title>Node25&#45;&gt;Node3</title>
<path fill="none" stroke="midnightblue" d="M1517.74,-508.42C1496.56,-500.614 1466.01,-487.897 1442,-472 1438.2,-469.485 1236.82,-280.955 1176.74,-224.685"/>
<polygon fill="midnightblue" stroke="midnightblue" points="1178.93,-221.938 1169.24,-217.656 1174.15,-227.047 1178.93,-221.938"/>
</g>
<!-- Node26 -->
<g id="node26" class="node"><title>Node26</title>
<g id="a_node26"><a xlink:href="sink_8h.html" target="_top" xlink:title="spdlog/sinks/sink.h">
<polygon fill="none" stroke="black" points="1658.5,-452.5 1658.5,-471.5 1759.5,-471.5 1759.5,-452.5 1658.5,-452.5"/>
<text text-anchor="middle" x="1709" y="-459.5" font-family="Helvetica,sans-Serif" font-size="10.00">spdlog/sinks/sink.h</text>
</a>
</g>
</g>
<!-- Node25&#45;&gt;Node26 -->
<g id="edge28" class="edge"><title>Node25&#45;&gt;Node26</title>
<path fill="none" stroke="midnightblue" d="M1569.3,-508.444C1597.35,-499.32 1641.94,-484.813 1673.18,-474.651"/>
<polygon fill="midnightblue" stroke="midnightblue" points="1674.39,-477.938 1682.82,-471.516 1672.23,-471.282 1674.39,-477.938"/>
</g>
<!-- Node27 -->
<g id="node27" class="node"><title>Node27</title>
<g id="a_node27"><a xlink:href="log__msg_8h.html" target="_top" xlink:title="spdlog/details/log\l_msg.h">
<polygon fill="none" stroke="black" points="1668,-317 1668,-347 1760,-347 1760,-317 1668,-317"/>
<text text-anchor="start" x="1676" y="-335" font-family="Helvetica,sans-Serif" font-size="10.00">spdlog/details/log</text>
<text text-anchor="middle" x="1714" y="-324" font-family="Helvetica,sans-Serif" font-size="10.00">_msg.h</text>
</a>
</g>
</g>
<!-- Node25&#45;&gt;Node27 -->
<g id="edge64" class="edge"><title>Node25&#45;&gt;Node27</title>
<path fill="none" stroke="midnightblue" d="M1554.56,-508.498C1566.17,-499.776 1584.39,-485.598 1599,-472 1638.89,-434.866 1677.68,-383.996 1698.44,-355.218"/>
<polygon fill="midnightblue" stroke="midnightblue" points="1701.32,-357.207 1704.28,-347.036 1695.62,-353.139 1701.32,-357.207"/>
</g>
<!-- Node35 -->
<g id="node35" class="node"><title>Node35</title>
<g id="a_node35"><a xlink:href="formatter_8h.html" target="_top" xlink:title="spdlog/formatter.h">
<polygon fill="none" stroke="black" points="1495.5,-452.5 1495.5,-471.5 1590.5,-471.5 1590.5,-452.5 1495.5,-452.5"/>
<text text-anchor="middle" x="1543" y="-459.5" font-family="Helvetica,sans-Serif" font-size="10.00">spdlog/formatter.h</text>
</a>
</g>
</g>
<!-- Node25&#45;&gt;Node35 -->
<g id="edge45" class="edge"><title>Node25&#45;&gt;Node35</title>
<path fill="none" stroke="midnightblue" d="M1543,-508.083C1543,-501.006 1543,-490.861 1543,-481.986"/>
<polygon fill="midnightblue" stroke="midnightblue" points="1546.5,-481.751 1543,-471.751 1539.5,-481.751 1546.5,-481.751"/>
</g>
<!-- Node37 -->
<g id="node37" class="node"><title>Node37</title>
<polygon fill="none" stroke="#bfbfbf" points="1036,-322.5 1036,-341.5 1080,-341.5 1080,-322.5 1036,-322.5"/>
<text text-anchor="middle" x="1058" y="-329.5" font-family="Helvetica,sans-Serif" font-size="10.00">mutex</text>
</g>
<!-- Node25&#45;&gt;Node37 -->
<g id="edge65" class="edge"><title>Node25&#45;&gt;Node37</title>
<path fill="none" stroke="midnightblue" d="M1504.23,-508.474C1469.64,-500.445 1417.84,-487.375 1374,-472 1359.35,-466.863 1161.41,-378.986 1086.48,-345.668"/>
<polygon fill="midnightblue" stroke="midnightblue" points="1087.71,-342.388 1077.15,-341.523 1084.87,-348.785 1087.71,-342.388"/>
</g>
<!-- Node26&#45;&gt;Node27 -->
<g id="edge29" class="edge"><title>Node26&#45;&gt;Node27</title>
<path fill="none" stroke="midnightblue" d="M1709.34,-452.202C1710.1,-432.87 1711.93,-386.114 1713.05,-357.239"/>
<polygon fill="midnightblue" stroke="midnightblue" points="1716.55,-357.272 1713.45,-347.143 1709.56,-356.999 1716.55,-357.272"/>
</g>
<!-- Node27&#45;&gt;Node3 -->
<g id="edge30" class="edge"><title>Node27&#45;&gt;Node3</title>
<path fill="none" stroke="midnightblue" d="M1667.72,-320.808C1564.16,-298.002 1314.53,-243.031 1208.72,-219.729"/>
<polygon fill="midnightblue" stroke="midnightblue" points="1209.16,-216.241 1198.64,-217.509 1207.65,-223.077 1209.16,-216.241"/>
</g>
<!-- Node27&#45;&gt;Node4 -->
<g id="edge43" class="edge"><title>Node27&#45;&gt;Node4</title>
<path fill="none" stroke="midnightblue" d="M1683.03,-316.801C1668.27,-308.322 1651.92,-296.051 1643,-280 1619.11,-237.027 1622.31,-83.4252 1624.22,-29.7088"/>
<polygon fill="midnightblue" stroke="midnightblue" points="1627.73,-29.7081 1624.61,-19.5809 1620.73,-29.4389 1627.73,-29.7081"/>
</g>
<!-- Node27&#45;&gt;Node22 -->
<g id="edge44" class="edge"><title>Node27&#45;&gt;Node22</title>
<path fill="none" stroke="midnightblue" d="M1687.24,-316.909C1670.56,-307.524 1649.09,-294.318 1632,-280 1532.44,-196.597 1435.84,-72.4493 1402.37,-27.7732"/>
<polygon fill="midnightblue" stroke="midnightblue" points="1405.14,-25.6429 1396.37,-19.7105 1399.53,-29.8223 1405.14,-25.6429"/>
</g>
<!-- Node28 -->
<g id="node28" class="node"><title>Node28</title>
<g id="a_node28"><a xlink:href="os_8h.html" target="_top" xlink:title="spdlog/details/os.h">
<polygon fill="none" stroke="red" points="1732,-260.5 1732,-279.5 1830,-279.5 1830,-260.5 1732,-260.5"/>
<text text-anchor="middle" x="1781" y="-267.5" font-family="Helvetica,sans-Serif" font-size="10.00">spdlog/details/os.h</text>
</a>
</g>
</g>
<!-- Node27&#45;&gt;Node28 -->
<g id="edge31" class="edge"><title>Node27&#45;&gt;Node28</title>
<path fill="none" stroke="midnightblue" d="M1729.88,-316.781C1740.02,-307.703 1753.16,-295.929 1763.59,-286.595"/>
<polygon fill="midnightblue" stroke="midnightblue" points="1766.14,-289.009 1771.25,-279.731 1761.47,-283.794 1766.14,-289.009"/>
</g>
<!-- Node28&#45;&gt;Node3 -->
<g id="edge32" class="edge"><title>Node28&#45;&gt;Node3</title>
<path fill="none" stroke="midnightblue" d="M1731.75,-264.242C1618.16,-253.267 1338.31,-226.228 1217.29,-214.535"/>
<polygon fill="midnightblue" stroke="midnightblue" points="1217.41,-211.031 1207.12,-213.553 1216.74,-217.998 1217.41,-211.031"/>
</g>
<!-- Node28&#45;&gt;Node4 -->
<g id="edge36" class="edge"><title>Node28&#45;&gt;Node4</title>
<path fill="none" stroke="midnightblue" d="M1773.49,-260.227C1766.36,-251.523 1755.75,-237.559 1749,-224 1714.11,-153.909 1743.74,-118.056 1696,-56 1685.27,-42.052 1668.89,-31.2596 1654.57,-23.7447"/>
<polygon fill="midnightblue" stroke="midnightblue" points="1656.06,-20.5727 1645.54,-19.2795 1652.95,-26.8481 1656.06,-20.5727"/>
</g>
<!-- Node28&#45;&gt;Node6 -->
<g id="edge37" class="edge"><title>Node28&#45;&gt;Node6</title>
<path fill="none" stroke="midnightblue" d="M1830.13,-261.894C1901.01,-251.45 2025.6,-232.299 2045,-224 2066.9,-214.629 2067.14,-203.509 2088,-192 2120.04,-174.318 2159.49,-159.945 2186.88,-151.018"/>
<polygon fill="midnightblue" stroke="midnightblue" points="2188.28,-154.244 2196.74,-147.867 2186.15,-147.576 2188.28,-154.244"/>
</g>
<!-- Node28&#45;&gt;Node10 -->
<g id="edge35" class="edge"><title>Node28&#45;&gt;Node10</title>
<path fill="none" stroke="midnightblue" d="M1731.63,-266.923C1619.74,-261.952 1338.37,-247.969 1104,-224 891.999,-202.318 639.652,-162.952 543.687,-147.486"/>
<polygon fill="midnightblue" stroke="midnightblue" points="543.995,-143.99 533.565,-145.85 542.878,-150.901 543.995,-143.99"/>
</g>
<!-- Node28&#45;&gt;Node17 -->
<g id="edge33" class="edge"><title>Node28&#45;&gt;Node17</title>
<path fill="none" stroke="midnightblue" d="M1830.14,-265.113C1889.98,-259.58 1993.75,-247.402 2080,-224 2116.96,-213.972 2124.39,-206.088 2160,-192 2200.83,-175.846 2211.61,-173.212 2252,-156 2359.65,-110.132 2485.36,-50.0748 2539.25,-24.0086"/>
<polygon fill="midnightblue" stroke="midnightblue" points="2540.99,-27.0578 2548.46,-19.5481 2537.93,-20.7581 2540.99,-27.0578"/>
</g>
<!-- Node29 -->
<g id="node29" class="node"><title>Node29</title>
<polygon fill="none" stroke="#bfbfbf" points="2168.5,-198.5 2168.5,-217.5 2209.5,-217.5 2209.5,-198.5 2168.5,-198.5"/>
<text text-anchor="middle" x="2189" y="-205.5" font-family="Helvetica,sans-Serif" font-size="10.00">ctime</text>
</g>
<!-- Node28&#45;&gt;Node29 -->
<g id="edge34" class="edge"><title>Node28&#45;&gt;Node29</title>
<path fill="none" stroke="midnightblue" d="M1830.26,-263.463C1895.73,-255.859 2014.9,-241.156 2116,-224 2129.99,-221.626 2145.39,-218.533 2158.43,-215.772"/>
<polygon fill="midnightblue" stroke="midnightblue" points="2159.26,-219.173 2168.3,-213.65 2157.79,-212.329 2159.26,-219.173"/>
</g>
<!-- Node30 -->
<g id="node30" class="node"><title>Node30</title>
<polygon fill="none" stroke="#bfbfbf" points="2228,-198.5 2228,-217.5 2272,-217.5 2272,-198.5 2228,-198.5"/>
<text text-anchor="middle" x="2250" y="-205.5" font-family="Helvetica,sans-Serif" font-size="10.00">thread</text>
</g>
<!-- Node28&#45;&gt;Node30 -->
<g id="edge38" class="edge"><title>Node28&#45;&gt;Node30</title>
<path fill="none" stroke="midnightblue" d="M1830.16,-269.251C1912.1,-268.501 2081.11,-261.955 2218,-224 2220.34,-223.35 2222.73,-222.541 2225.09,-221.639"/>
<polygon fill="midnightblue" stroke="midnightblue" points="2226.68,-224.765 2234.45,-217.567 2223.89,-218.346 2226.68,-224.765"/>
</g>
<!-- Node31 -->
<g id="node31" class="node"><title>Node31</title>
<polygon fill="none" stroke="#bfbfbf" points="1758,-198.5 1758,-217.5 1804,-217.5 1804,-198.5 1758,-198.5"/>
<text text-anchor="middle" x="1781" y="-205.5" font-family="Helvetica,sans-Serif" font-size="10.00">stdio.h</text>
</g>
<!-- Node28&#45;&gt;Node31 -->
<g id="edge39" class="edge"><title>Node28&#45;&gt;Node31</title>
<path fill="none" stroke="midnightblue" d="M1781,-260.403C1781,-251.938 1781,-238.728 1781,-227.82"/>
<polygon fill="midnightblue" stroke="midnightblue" points="1784.5,-227.581 1781,-217.581 1777.5,-227.581 1784.5,-227.581"/>
</g>
<!-- Node32 -->
<g id="node32" class="node"><title>Node32</title>
<polygon fill="none" stroke="#bfbfbf" points="1822.5,-198.5 1822.5,-217.5 1871.5,-217.5 1871.5,-198.5 1822.5,-198.5"/>
<text text-anchor="middle" x="1847" y="-205.5" font-family="Helvetica,sans-Serif" font-size="10.00">string.h</text>
</g>
<!-- Node28&#45;&gt;Node32 -->
<g id="edge40" class="edge"><title>Node28&#45;&gt;Node32</title>
<path fill="none" stroke="midnightblue" d="M1790.46,-260.403C1800.75,-251.047 1817.42,-235.895 1829.99,-224.46"/>
<polygon fill="midnightblue" stroke="midnightblue" points="1832.52,-226.897 1837.56,-217.581 1827.81,-221.718 1832.52,-226.897"/>
</g>
<!-- Node33 -->
<g id="node33" class="node"><title>Node33</title>
<polygon fill="none" stroke="#bfbfbf" points="1890,-198.5 1890,-217.5 1950,-217.5 1950,-198.5 1890,-198.5"/>
<text text-anchor="middle" x="1920" y="-205.5" font-family="Helvetica,sans-Serif" font-size="10.00">sys/stat.h</text>
</g>
<!-- Node28&#45;&gt;Node33 -->
<g id="edge41" class="edge"><title>Node28&#45;&gt;Node33</title>
<path fill="none" stroke="midnightblue" d="M1800.92,-260.403C1824.45,-250.245 1863.81,-233.255 1890.79,-221.607"/>
<polygon fill="midnightblue" stroke="midnightblue" points="1892.33,-224.757 1900.12,-217.581 1889.55,-218.33 1892.33,-224.757"/>
</g>
<!-- Node34 -->
<g id="node34" class="node"><title>Node34</title>
<polygon fill="none" stroke="#bfbfbf" points="1968,-198.5 1968,-217.5 2036,-217.5 2036,-198.5 1968,-198.5"/>
<text text-anchor="middle" x="2002" y="-205.5" font-family="Helvetica,sans-Serif" font-size="10.00">sys/types.h</text>
</g>
<!-- Node28&#45;&gt;Node34 -->
<g id="edge42" class="edge"><title>Node28&#45;&gt;Node34</title>
<path fill="none" stroke="midnightblue" d="M1818.19,-260.456C1854.17,-251.976 1910.13,-238.22 1958,-224 1961.35,-223.005 1964.83,-221.917 1968.29,-220.796"/>
<polygon fill="midnightblue" stroke="midnightblue" points="1969.52,-224.076 1977.9,-217.601 1967.31,-217.434 1969.52,-224.076"/>
</g>
<!-- Node35&#45;&gt;Node4 -->
<g id="edge48" class="edge"><title>Node35&#45;&gt;Node4</title>
<path fill="none" stroke="midnightblue" d="M1527.22,-452.467C1514.8,-444.769 1498.39,-432.179 1491,-416 1485.09,-403.065 1488.59,-398.017 1491,-384 1515.5,-241.265 1590.29,-81.1093 1616.12,-28.6548"/>
<polygon fill="midnightblue" stroke="midnightblue" points="1619.28,-30.1496 1620.6,-19.637 1613.01,-27.0331 1619.28,-30.1496"/>
</g>
<!-- Node35&#45;&gt;Node7 -->
<g id="edge49" class="edge"><title>Node35&#45;&gt;Node7</title>
<path fill="none" stroke="midnightblue" d="M1495.28,-452.801C1454.55,-445.189 1394.68,-432.545 1344,-416 1153.9,-353.934 570.288,-85.6008 436.519,-23.7503"/>
<polygon fill="midnightblue" stroke="midnightblue" points="437.88,-20.5236 427.335,-19.5013 434.941,-26.8767 437.88,-20.5236"/>
</g>
<!-- Node35&#45;&gt;Node21 -->
<g id="edge47" class="edge"><title>Node35&#45;&gt;Node21</title>
<path fill="none" stroke="midnightblue" d="M1518.26,-452.496C1443.66,-426.153 1216.21,-340.61 1055,-224 1020.87,-199.316 1017.86,-186.676 989,-156 960.976,-126.211 953.11,-119.48 927,-88 910.387,-67.9708 892.559,-43.8672 881.12,-28.027"/>
<polygon fill="midnightblue" stroke="midnightblue" points="883.854,-25.8334 875.18,-19.7486 878.166,-29.9141 883.854,-25.8334"/>
</g>
<!-- Node35&#45;&gt;Node27 -->
<g id="edge46" class="edge"><title>Node35&#45;&gt;Node27</title>
<path fill="none" stroke="midnightblue" d="M1559.56,-452.347C1575.33,-443.84 1599.5,-430.112 1619,-416 1645.55,-396.791 1673.52,-371.683 1692.18,-354.133"/>
<polygon fill="midnightblue" stroke="midnightblue" points="1694.73,-356.537 1699.57,-347.114 1689.91,-351.46 1694.73,-356.537"/>
</g>
<!-- Node36 -->
<g id="node36" class="node"><title>Node36</title>
<g id="a_node36"><a xlink:href="pattern__formatter__impl_8h.html" target="_top" xlink:title="spdlog/details/pattern\l_formatter_impl.h">
<polygon fill="none" stroke="black" points="1500,-385 1500,-415 1610,-415 1610,-385 1500,-385"/>
<text text-anchor="start" x="1508" y="-403" font-family="Helvetica,sans-Serif" font-size="10.00">spdlog/details/pattern</text>
<text text-anchor="middle" x="1555" y="-392" font-family="Helvetica,sans-Serif" font-size="10.00">_formatter_impl.h</text>
</a>
</g>
</g>
<!-- Node35&#45;&gt;Node36 -->
<g id="edge50" class="edge"><title>Node35&#45;&gt;Node36</title>
<path fill="none" stroke="midnightblue" d="M1539.82,-452.403C1539.7,-445.189 1541.26,-434.528 1543.62,-424.782"/>
<polygon fill="midnightblue" stroke="midnightblue" points="1547,-425.715 1546.34,-415.141 1540.26,-423.816 1547,-425.715"/>
</g>
<!-- Node36&#45;&gt;Node4 -->
<g id="edge59" class="edge"><title>Node36&#45;&gt;Node4</title>
<path fill="none" stroke="midnightblue" d="M1557.57,-384.731C1568.32,-325.15 1609.62,-96.2417 1621.68,-29.416"/>
<polygon fill="midnightblue" stroke="midnightblue" points="1625.13,-29.9722 1623.46,-19.5097 1618.24,-28.7294 1625.13,-29.9722"/>
</g>
<!-- Node36&#45;&gt;Node6 -->
<g id="edge55" class="edge"><title>Node36&#45;&gt;Node6</title>
<path fill="none" stroke="midnightblue" d="M1574.31,-384.804C1587.83,-374.741 1606.22,-360.806 1622,-348 1638.88,-334.298 1639.48,-325.569 1659,-316 1731.87,-280.283 1758.68,-297.149 1838,-280 1945.9,-256.67 1977.53,-265.08 2080,-224 2125.51,-205.754 2173.66,-174.104 2199.95,-155.608"/>
<polygon fill="midnightblue" stroke="midnightblue" points="2202.18,-158.312 2208.3,-149.658 2198.12,-152.612 2202.18,-158.312"/>
</g>
<!-- Node36&#45;&gt;Node7 -->
<g id="edge57" class="edge"><title>Node36&#45;&gt;Node7</title>
<path fill="none" stroke="midnightblue" d="M1499.96,-387.726C1458.31,-378.614 1399.94,-364.599 1350,-348 1215.04,-303.144 1181.45,-289.104 1055,-224 979.773,-185.268 970.291,-158.43 893,-124 794.849,-80.2774 765.597,-80.5915 661,-56 585.025,-38.1377 494.699,-23.6059 445.464,-16.2409"/>
<polygon fill="midnightblue" stroke="midnightblue" points="445.717,-12.7402 435.312,-14.7369 444.691,-19.6646 445.717,-12.7402"/>
</g>
<!-- Node36&#45;&gt;Node12 -->
<g id="edge54" class="edge"><title>Node36&#45;&gt;Node12</title>
<path fill="none" stroke="midnightblue" d="M1532.2,-384.868C1515.92,-374.718 1493.52,-360.652 1474,-348 1452.48,-334.057 1447.71,-329.634 1426,-316 1334.21,-258.361 1312.53,-241.303 1216,-192 1187.56,-177.472 1154.05,-163.136 1130.2,-153.381"/>
<polygon fill="midnightblue" stroke="midnightblue" points="1131.51,-150.136 1120.93,-149.621 1128.88,-156.623 1131.51,-150.136"/>
</g>
<!-- Node36&#45;&gt;Node21 -->
<g id="edge62" class="edge"><title>Node36&#45;&gt;Node21</title>
<path fill="none" stroke="midnightblue" d="M1516.67,-384.904C1489.98,-374.945 1453.65,-361.091 1422,-348 1389.64,-334.615 1382.23,-329.697 1350,-316 1289.08,-290.111 1274.1,-282.922 1212,-260 1164.53,-242.479 1147.38,-250.037 1104,-224 1011,-168.187 1009.28,-126.664 927,-56 914.673,-45.4131 900.237,-34.2095 888.852,-25.6295"/>
<polygon fill="midnightblue" stroke="midnightblue" points="890.931,-22.8142 880.825,-19.6335 886.742,-28.4222 890.931,-22.8142"/>
</g>
<!-- Node36&#45;&gt;Node22 -->
<g id="edge61" class="edge"><title>Node36&#45;&gt;Node22</title>
<path fill="none" stroke="midnightblue" d="M1548.62,-384.822C1528.91,-340.946 1467.5,-203.389 1420,-88 1411.75,-67.9508 1402.78,-44.7391 1396.82,-29.0857"/>
<polygon fill="midnightblue" stroke="midnightblue" points="1400.04,-27.6985 1393.22,-19.5881 1393.5,-30.1794 1400.04,-27.6985"/>
</g>
<!-- Node36&#45;&gt;Node27 -->
<g id="edge52" class="edge"><title>Node36&#45;&gt;Node27</title>
<path fill="none" stroke="midnightblue" d="M1589.11,-384.841C1612.98,-374.933 1645.06,-361.618 1670.73,-350.963"/>
<polygon fill="midnightblue" stroke="midnightblue" points="1672.33,-354.088 1680.22,-347.022 1669.64,-347.623 1672.33,-354.088"/>
</g>
<!-- Node36&#45;&gt;Node28 -->
<g id="edge53" class="edge"><title>Node36&#45;&gt;Node28</title>
<path fill="none" stroke="midnightblue" d="M1563.45,-384.732C1575.17,-366.168 1598.11,-333.987 1626,-316 1654.77,-297.442 1691.39,-286.348 1721.81,-279.82"/>
<polygon fill="midnightblue" stroke="midnightblue" points="1722.76,-283.198 1731.87,-277.777 1721.37,-276.338 1722.76,-283.198"/>
</g>
<!-- Node36&#45;&gt;Node29 -->
<g id="edge56" class="edge"><title>Node36&#45;&gt;Node29</title>
<path fill="none" stroke="midnightblue" d="M1610.28,-387.065C1653.67,-377.399 1715.48,-362.971 1769,-348 1942.12,-299.571 1985.65,-287.031 2154,-224 2156.11,-223.209 2158.28,-222.362 2160.46,-221.489"/>
<polygon fill="midnightblue" stroke="midnightblue" points="2161.98,-224.647 2169.87,-217.578 2159.3,-218.182 2161.98,-224.647"/>
</g>
<!-- Node36&#45;&gt;Node30 -->
<g id="edge60" class="edge"><title>Node36&#45;&gt;Node30</title>
<path fill="none" stroke="midnightblue" d="M1610.19,-391.406C1667.77,-382.944 1760.43,-367.806 1839,-348 2010.85,-304.678 2053.23,-289.289 2218,-224 2219.65,-223.347 2221.33,-222.651 2223.02,-221.929"/>
<polygon fill="midnightblue" stroke="midnightblue" points="2224.87,-224.933 2232.56,-217.644 2222.01,-218.547 2224.87,-224.933"/>
</g>
<!-- Node36&#45;&gt;Node35 -->
<g id="edge51" class="edge"><title>Node36&#45;&gt;Node35</title>
<path fill="none" stroke="midnightblue" d="M1558,-415.141C1557.41,-423.362 1555.47,-433.814 1552.94,-442.663"/>
<polygon fill="midnightblue" stroke="midnightblue" points="1549.54,-441.809 1549.62,-452.403 1556.16,-444.069 1549.54,-441.809"/>
</g>
<!-- Node36&#45;&gt;Node37 -->
<g id="edge58" class="edge"><title>Node36&#45;&gt;Node37</title>
<path fill="none" stroke="midnightblue" d="M1499.91,-391.685C1395.8,-377.859 1173.15,-348.292 1090.11,-337.264"/>
<polygon fill="midnightblue" stroke="midnightblue" points="1090.39,-333.77 1080.01,-335.923 1089.46,-340.709 1090.39,-333.77"/>
</g>
<!-- Node38&#45;&gt;Node4 -->
<g id="edge79" class="edge"><title>Node38&#45;&gt;Node4</title>
<path fill="none" stroke="midnightblue" d="M776.912,-632.932C764.456,-609.902 742,-562.369 742,-519 742,-519 742,-519 742,-269 742,-202.265 730.012,-167.056 781,-124 845.807,-69.2746 1082.18,-119.351 1161,-88 1182.48,-79.4563 1180.57,-64.6674 1202,-56 1273.48,-27.0872 1509.8,-15.4013 1594.48,-12.0759"/>
<polygon fill="midnightblue" stroke="midnightblue" points="1594.62,-15.5729 1604.48,-11.6944 1594.36,-8.57794 1594.62,-15.5729"/>
</g>
<!-- Node38&#45;&gt;Node7 -->
<g id="edge78" class="edge"><title>Node38&#45;&gt;Node7</title>
<path fill="none" stroke="midnightblue" d="M768.042,-632.79C756.437,-622.837 740.88,-609.035 728,-596 647.746,-514.778 390,-323.183 390,-209 390,-209 390,-209 390,-139 390,-99.6464 398.896,-54.2174 404.514,-29.4534"/>
<polygon fill="midnightblue" stroke="midnightblue" points="407.943,-30.1608 406.82,-19.6256 401.128,-28.5613 407.943,-30.1608"/>
</g>
<!-- Node38&#45;&gt;Node24 -->
<g id="edge71" class="edge"><title>Node38&#45;&gt;Node24</title>
<path fill="none" stroke="midnightblue" d="M790.83,-663.141C791.873,-671.272 792.029,-681.585 791.299,-690.371"/>
<polygon fill="midnightblue" stroke="midnightblue" points="787.815,-690.016 789.901,-700.403 794.748,-690.982 787.815,-690.016"/>
</g>
<!-- Node39 -->
<g id="node39" class="node"><title>Node39</title>
<g id="a_node39"><a xlink:href="stdout__sinks_8h.html" target="_top" xlink:title="spdlog/sinks/stdout\l_sinks.h">
<polygon fill="none" stroke="black" points="770.5,-565 770.5,-595 871.5,-595 871.5,-565 770.5,-565"/>
<text text-anchor="start" x="778.5" y="-583" font-family="Helvetica,sans-Serif" font-size="10.00">spdlog/sinks/stdout</text>
<text text-anchor="middle" x="821" y="-572" font-family="Helvetica,sans-Serif" font-size="10.00">_sinks.h</text>
</a>
</g>
</g>
<!-- Node38&#45;&gt;Node39 -->
<g id="edge72" class="edge"><title>Node38&#45;&gt;Node39</title>
<path fill="none" stroke="midnightblue" d="M792.811,-632.679C797.34,-624.376 803.152,-613.721 808.321,-604.245"/>
<polygon fill="midnightblue" stroke="midnightblue" points="811.488,-605.748 813.204,-595.293 805.343,-602.396 811.488,-605.748"/>
</g>
<!-- Node39&#45;&gt;Node7 -->
<g id="edge76" class="edge"><title>Node39&#45;&gt;Node7</title>
<path fill="none" stroke="midnightblue" d="M807.884,-564.742C750.211,-501.857 519.602,-248.325 465,-156 439.897,-113.553 422.097,-57.82 413.966,-29.3983"/>
<polygon fill="midnightblue" stroke="midnightblue" points="417.297,-28.3142 411.244,-19.6186 410.553,-30.1909 417.297,-28.3142"/>
</g>
<!-- Node39&#45;&gt;Node11 -->
<g id="edge73" class="edge"><title>Node39&#45;&gt;Node11</title>
<path fill="none" stroke="midnightblue" d="M820.393,-564.717C819.516,-542.827 818,-499.665 818,-463 818,-463 818,-463 818,-269 818,-232.437 825.679,-190.63 831.274,-165.024"/>
<polygon fill="midnightblue" stroke="midnightblue" points="834.725,-165.63 833.515,-155.104 827.897,-164.087 834.725,-165.63"/>
</g>
<!-- Node39&#45;&gt;Node17 -->
<g id="edge75" class="edge"><title>Node39&#45;&gt;Node17</title>
<path fill="none" stroke="midnightblue" d="M871.763,-577.321C997.834,-572.806 1335.23,-558.622 1615,-528 1937.8,-492.668 2025.14,-506.514 2337,-416 2449.22,-383.43 2501.55,-379.998 2562,-280 2613.67,-194.526 2595.01,-154.743 2580,-56 2578.63,-47.001 2575.81,-37.3251 2573.05,-29.2601"/>
<polygon fill="midnightblue" stroke="midnightblue" points="2576.31,-27.9759 2569.6,-19.7782 2569.73,-30.3722 2576.31,-27.9759"/>
</g>
<!-- Node39&#45;&gt;Node25 -->
<g id="edge74" class="edge"><title>Node39&#45;&gt;Node25</title>
<path fill="none" stroke="midnightblue" d="M871.77,-574.781C997.231,-564.355 1322.33,-537.338 1469.13,-525.138"/>
<polygon fill="midnightblue" stroke="midnightblue" points="1469.71,-528.602 1479.39,-524.286 1469.13,-521.626 1469.71,-528.602"/>
</g>
<!-- Node39&#45;&gt;Node37 -->
<g id="edge77" class="edge"><title>Node39&#45;&gt;Node37</title>
<path fill="none" stroke="midnightblue" d="M834.767,-564.711C876.06,-521.849 998.71,-394.542 1042.36,-349.234"/>
<polygon fill="midnightblue" stroke="midnightblue" points="1045.14,-351.397 1049.55,-341.767 1040.1,-346.54 1045.14,-351.397"/>
</g>
<!-- Node40&#45;&gt;Node1 -->
<g id="edge85" class="edge"><title>Node40&#45;&gt;Node1</title>
<path fill="none" stroke="midnightblue" d="M824.381,-899.252C825.4,-906.969 825.85,-916.877 825.731,-926.529"/>
<polygon fill="midnightblue" stroke="midnightblue" points="822.224,-926.673 825.379,-936.787 829.22,-926.913 822.224,-926.673"/>
</g>
<!-- Node40&#45;&gt;Node4 -->
<g id="edge137" class="edge"><title>Node40&#45;&gt;Node4</title>
<path fill="none" stroke="midnightblue" d="M873.089,-882.793C1116.9,-881.629 2115.27,-874.319 2425,-832 2540.88,-816.167 2680,-883.957 2680,-767 2680,-767 2680,-767 2680,-647 2680,-563.496 2718,-546.504 2718,-463 2718,-463 2718,-463 2718,-399 2718,-251.446 2659.65,-198.009 2532,-124 2445.66,-73.9442 2416.07,-74.4805 2318,-56 2188.17,-31.5349 1772.74,-15.9785 1655.86,-12.0076"/>
<polygon fill="midnightblue" stroke="midnightblue" points="1655.92,-8.50764 1645.8,-11.6697 1655.68,-15.5037 1655.92,-8.50764"/>
</g>
<!-- Node40&#45;&gt;Node6 -->
<g id="edge134" class="edge"><title>Node40&#45;&gt;Node6</title>
<path fill="none" stroke="midnightblue" d="M873.064,-882.458C1175.29,-879.086 2642,-858.027 2642,-767 2642,-767 2642,-767 2642,-517 2642,-468.971 2396.54,-219.263 2357,-192 2324.95,-169.899 2282.11,-155.972 2252.93,-148.359"/>
<polygon fill="midnightblue" stroke="midnightblue" points="2253.76,-144.96 2243.21,-145.926 2252.06,-151.751 2253.76,-144.96"/>
</g>
<!-- Node40&#45;&gt;Node7 -->
<g id="edge136" class="edge"><title>Node40&#45;&gt;Node7</title>
<path fill="none" stroke="midnightblue" d="M764.926,-883.502C684.88,-882.656 531.158,-874.897 409,-832 222.796,-766.613 162,-660.35 162,-463 162,-463 162,-463 162,-139 162,-45.2832 303.904,-20.0971 372.596,-13.3953"/>
<polygon fill="midnightblue" stroke="midnightblue" points="372.919,-16.8805 382.567,-12.5025 372.294,-9.90837 372.919,-16.8805"/>
</g>
<!-- Node40&#45;&gt;Node10 -->
<g id="edge135" class="edge"><title>Node40&#45;&gt;Node10</title>
<path fill="none" stroke="midnightblue" d="M764.669,-877.45C652.726,-865 401.543,-831.506 338,-776 314.807,-755.741 314,-741.795 314,-711 314,-711 314,-711 314,-269 314,-197.11 408.718,-162.927 464.401,-149.042"/>
<polygon fill="midnightblue" stroke="midnightblue" points="465.396,-152.404 474.312,-146.682 463.774,-145.594 465.396,-152.404"/>
</g>
<!-- Node40&#45;&gt;Node39 -->
<g id="edge128" class="edge"><title>Node40&#45;&gt;Node39</title>
<path fill="none" stroke="midnightblue" d="M797.147,-868.821C783.039,-859.204 764.652,-845.774 750,-832 726.326,-809.744 714.115,-806.533 703,-776 699.959,-767.647 702.29,-764.86 703,-756 707.459,-700.355 690.318,-677.256 723,-632 733.372,-617.637 749.018,-606.999 764.782,-599.268"/>
<polygon fill="midnightblue" stroke="midnightblue" points="766.393,-602.38 774.038,-595.046 763.488,-596.012 766.393,-602.38"/>
</g>
<!-- Node41 -->
<g id="node41" class="node"><title>Node41</title>
<g id="a_node41"><a xlink:href="registry_8h.html" target="_top" xlink:title="spdlog/details/registry.h">
<polygon fill="none" stroke="black" points="759,-812.5 759,-831.5 879,-831.5 879,-812.5 759,-812.5"/>
<text text-anchor="middle" x="819" y="-819.5" font-family="Helvetica,sans-Serif" font-size="10.00">spdlog/details/registry.h</text>
</a>
</g>
</g>
<!-- Node40&#45;&gt;Node41 -->
<g id="edge86" class="edge"><title>Node40&#45;&gt;Node41</title>
<path fill="none" stroke="midnightblue" d="M819,-868.781C819,-860.781 819,-850.689 819,-842.017"/>
<polygon fill="midnightblue" stroke="midnightblue" points="822.5,-841.73 819,-831.731 815.5,-841.731 822.5,-841.73"/>
</g>
<!-- Node45 -->
<g id="node45" class="node"><title>Node45</title>
<g id="a_node45"><a xlink:href="file__sinks_8h.html" target="_top" xlink:title="spdlog/sinks/file_sinks.h">
<polygon fill="none" stroke="black" points="2034,-570.5 2034,-589.5 2158,-589.5 2158,-570.5 2034,-570.5"/>
<text text-anchor="middle" x="2096" y="-577.5" font-family="Helvetica,sans-Serif" font-size="10.00">spdlog/sinks/file_sinks.h</text>
</a>
</g>
</g>
<!-- Node40&#45;&gt;Node45 -->
<g id="edge109" class="edge"><title>Node40&#45;&gt;Node45</title>
<path fill="none" stroke="midnightblue" d="M873.271,-880.361C1077.5,-870.048 1792.59,-830.334 1878,-776 1940.9,-735.989 1907.01,-680.055 1964,-632 1987.07,-612.55 2018.38,-600.024 2044.72,-592.256"/>
<polygon fill="midnightblue" stroke="midnightblue" points="2045.86,-595.572 2054.54,-589.507 2043.97,-588.831 2045.86,-595.572"/>
</g>
<!-- Node49 -->
<g id="node49" class="node"><title>Node49</title>
<g id="a_node49"><a xlink:href="ansicolor__sink_8h.html" target="_top" xlink:title="spdlog/sinks/ansicolor\l_sink.h">
<polygon fill="none" stroke="black" points="2295.5,-565 2295.5,-595 2408.5,-595 2408.5,-565 2295.5,-565"/>
<text text-anchor="start" x="2303.5" y="-583" font-family="Helvetica,sans-Serif" font-size="10.00">spdlog/sinks/ansicolor</text>
<text text-anchor="middle" x="2352" y="-572" font-family="Helvetica,sans-Serif" font-size="10.00">_sink.h</text>
</a>
</g>
</g>
<!-- Node40&#45;&gt;Node49 -->
<g id="edge129" class="edge"><title>Node40&#45;&gt;Node49</title>
<path fill="none" stroke="midnightblue" d="M873.23,-882.753C1007.04,-881.481 1363.39,-874.067 1657,-832 1768,-816.097 1796.45,-810.929 1903,-776 2061.18,-724.146 2240.16,-637.485 2315.51,-599.637"/>
<polygon fill="midnightblue" stroke="midnightblue" points="2317.24,-602.682 2324.6,-595.055 2314.09,-596.431 2317.24,-602.682"/>
</g>
<!-- Node41&#45;&gt;Node3 -->
<g id="edge102" class="edge"><title>Node41&#45;&gt;Node3</title>
<path fill="none" stroke="midnightblue" d="M879.19,-817.643C994.67,-809.547 1236,-783.907 1236,-711 1236,-711 1236,-711 1236,-461 1236,-362.473 1137.85,-373.898 1108,-280 1105.31,-271.529 1104.56,-268.196 1108,-260 1114.16,-245.321 1126.84,-232.744 1138.14,-223.753"/>
<polygon fill="midnightblue" stroke="midnightblue" points="1140.46,-226.389 1146.37,-217.601 1136.27,-220.781 1140.46,-226.389"/>
</g>
<!-- Node41&#45;&gt;Node4 -->
<g id="edge107" class="edge"><title>Node41&#45;&gt;Node4</title>
<path fill="none" stroke="midnightblue" d="M879.249,-820.518C1090.95,-818.04 1788,-802.903 1788,-711 1788,-711 1788,-711 1788,-399 1788,-361.157 1790.87,-346.882 1769,-316 1751.68,-291.549 1730.37,-303.668 1712,-280 1695.99,-259.373 1646.47,-87.1457 1630.23,-29.623"/>
<polygon fill="midnightblue" stroke="midnightblue" points="1633.52,-28.4038 1627.44,-19.7268 1626.78,-30.3012 1633.52,-28.4038"/>
</g>
<!-- Node41&#45;&gt;Node6 -->
<g id="edge103" class="edge"><title>Node41&#45;&gt;Node6</title>
<path fill="none" stroke="midnightblue" d="M879.192,-821.068C1080.12,-820.909 1719.73,-817.141 1802,-776 1831.62,-761.19 2158.29,-340.101 2181,-316 2222.19,-272.28 2256,-279.063 2280,-224 2285.68,-210.962 2285.97,-204.909 2280,-192 2272.77,-176.373 2258.14,-163.779 2245.13,-155.015"/>
<polygon fill="midnightblue" stroke="midnightblue" points="2246.82,-151.944 2236.5,-149.57 2243.09,-157.865 2246.82,-151.944"/>
</g>
<!-- Node41&#45;&gt;Node7 -->
<g id="edge105" class="edge"><title>Node41&#45;&gt;Node7</title>
<path fill="none" stroke="midnightblue" d="M758.803,-814.811C603.252,-795.169 200,-719.513 200,-463 200,-463 200,-463 200,-139 200,-58.9229 312.955,-27.4059 372.786,-16.3286"/>
<polygon fill="midnightblue" stroke="midnightblue" points="373.706,-19.7208 382.953,-14.5483 372.499,-12.8257 373.706,-19.7208"/>
</g>
<!-- Node41&#45;&gt;Node10 -->
<g id="edge104" class="edge"><title>Node41&#45;&gt;Node10</title>
<path fill="none" stroke="midnightblue" d="M776.045,-812.47C747.63,-805.55 710.344,-793.948 681,-776 584.216,-716.805 550.992,-697.347 500,-596 423.297,-443.554 478.896,-224.387 498.128,-159.664"/>
<polygon fill="midnightblue" stroke="midnightblue" points="501.59,-160.31 501.163,-149.723 494.895,-158.266 501.59,-160.31"/>
</g>
<!-- Node41&#45;&gt;Node11 -->
<g id="edge87" class="edge"><title>Node41&#45;&gt;Node11</title>
<path fill="none" stroke="midnightblue" d="M774.901,-812.48C751.135,-805.947 722.726,-794.753 703,-776 606.2,-683.979 475.57,-294.663 561,-192 588.182,-159.335 706.448,-147.506 779.062,-143.285"/>
<polygon fill="midnightblue" stroke="midnightblue" points="779.635,-146.759 789.428,-142.716 779.251,-139.769 779.635,-146.759"/>
</g>
<!-- Node41&#45;&gt;Node24 -->
<g id="edge88" class="edge"><title>Node41&#45;&gt;Node24</title>
<path fill="none" stroke="midnightblue" d="M767.47,-812.44C746.267,-806.104 723.732,-795.098 711,-776 696.554,-754.332 725.486,-735.44 751.297,-723.69"/>
<polygon fill="midnightblue" stroke="midnightblue" points="752.779,-726.863 760.579,-719.693 750.01,-720.434 752.779,-726.863"/>
</g>
<!-- Node41&#45;&gt;Node37 -->
<g id="edge106" class="edge"><title>Node41&#45;&gt;Node37</title>
<path fill="none" stroke="midnightblue" d="M879.133,-821.228C957.319,-818.002 1084,-799.169 1084,-711 1084,-711 1084,-711 1084,-461 1084,-421.278 1071.83,-375.985 1064.14,-351.343"/>
<polygon fill="midnightblue" stroke="midnightblue" points="1067.39,-350.009 1060.98,-341.569 1060.73,-352.161 1067.39,-350.009"/>
</g>
<!-- Node42 -->
<g id="node42" class="node"><title>Node42</title>
<g id="a_node42"><a xlink:href="async__logger_8h.html" target="_top" xlink:title="spdlog/async_logger.h">
<polygon fill="none" stroke="black" points="821,-756.5 821,-775.5 935,-775.5 935,-756.5 821,-756.5"/>
<text text-anchor="middle" x="878" y="-763.5" font-family="Helvetica,sans-Serif" font-size="10.00">spdlog/async_logger.h</text>
</a>
</g>
</g>
<!-- Node41&#45;&gt;Node42 -->
<g id="edge89" class="edge"><title>Node41&#45;&gt;Node42</title>
<path fill="none" stroke="midnightblue" d="M828.479,-812.324C837.201,-804.341 850.343,-792.313 860.898,-782.653"/>
<polygon fill="midnightblue" stroke="midnightblue" points="863.334,-785.167 868.348,-775.834 858.608,-780.004 863.334,-785.167"/>
</g>
<!-- Node44 -->
<g id="node44" class="node"><title>Node44</title>
<polygon fill="none" stroke="#bfbfbf" points="719.5,-756.5 719.5,-775.5 802.5,-775.5 802.5,-756.5 719.5,-756.5"/>
<text text-anchor="middle" x="761" y="-763.5" font-family="Helvetica,sans-Serif" font-size="10.00">unordered_map</text>
</g>
<!-- Node41&#45;&gt;Node44 -->
<g id="edge108" class="edge"><title>Node41&#45;&gt;Node44</title>
<path fill="none" stroke="midnightblue" d="M809.681,-812.324C801.107,-804.341 788.188,-792.313 777.812,-782.653"/>
<polygon fill="midnightblue" stroke="midnightblue" points="780.192,-780.086 770.488,-775.834 775.422,-785.21 780.192,-780.086"/>
</g>
<!-- Node42&#45;&gt;Node3 -->
<g id="edge90" class="edge"><title>Node42&#45;&gt;Node3</title>
<path fill="none" stroke="midnightblue" d="M901.542,-756.467C939.004,-741.196 1008,-705.413 1008,-649 1008,-649 1008,-649 1008,-517 1008,-427.45 953.613,-395.925 994,-316 1019.43,-265.677 1080.68,-235.854 1121.25,-220.959"/>
<polygon fill="midnightblue" stroke="midnightblue" points="1122.56,-224.206 1130.83,-217.576 1120.23,-217.606 1122.56,-224.206"/>
</g>
<!-- Node42&#45;&gt;Node4 -->
<g id="edge94" class="edge"><title>Node42&#45;&gt;Node4</title>
<path fill="none" stroke="midnightblue" d="M910.992,-756.454C934.711,-749.261 966.668,-737.342 991,-720 1119.06,-628.735 1117.62,-569.609 1222,-452 1371.29,-283.801 1556.8,-84.1475 1610.07,-26.9962"/>
<polygon fill="midnightblue" stroke="midnightblue" points="1612.69,-29.3192 1616.95,-19.6187 1607.57,-24.5452 1612.69,-29.3192"/>
</g>
<!-- Node42&#45;&gt;Node6 -->
<g id="edge92" class="edge"><title>Node42&#45;&gt;Node6</title>
<path fill="none" stroke="midnightblue" d="M935.273,-763.118C1145.71,-754.677 1864,-711.747 1864,-519 1864,-519 1864,-519 1864,-399 1864,-352.955 1837.85,-344.895 1802,-316 1771.96,-291.786 1743.87,-312.451 1723,-280 1705.86,-253.361 1724.47,-210.91 1749,-192 1783.6,-165.326 2085.24,-147.797 2186.79,-142.608"/>
<polygon fill="midnightblue" stroke="midnightblue" points="2186.99,-146.102 2196.8,-142.103 2186.64,-139.111 2186.99,-146.102"/>
</g>
<!-- Node42&#45;&gt;Node7 -->
<g id="edge95" class="edge"><title>Node42&#45;&gt;Node7</title>
<path fill="none" stroke="midnightblue" d="M823.245,-756.47C765.036,-747.039 677.042,-731.643 645,-720 477.358,-659.087 478.03,-566.943 383,-416 341.158,-349.539 289.334,-337.808 300,-260 312.818,-166.492 308.167,-135.524 359,-56 366.567,-44.1613 378.066,-33.511 388.128,-25.547"/>
<polygon fill="midnightblue" stroke="midnightblue" points="390.245,-28.3347 396.126,-19.5218 386.033,-22.7438 390.245,-28.3347"/>
</g>
<!-- Node42&#45;&gt;Node10 -->
<g id="edge93" class="edge"><title>Node42&#45;&gt;Node10</title>
<path fill="none" stroke="midnightblue" d="M825.685,-756.43C721.065,-735.989 496,-674.002 496,-519 496,-519 496,-519 496,-399 496,-309.512 500.868,-202.648 503.009,-159.967"/>
<polygon fill="midnightblue" stroke="midnightblue" points="506.508,-160.075 503.524,-149.909 499.517,-159.717 506.508,-160.075"/>
</g>
<!-- Node42&#45;&gt;Node24 -->
<g id="edge91" class="edge"><title>Node42&#45;&gt;Node24</title>
<path fill="none" stroke="midnightblue" d="M863.058,-756.324C848.415,-747.822 825.866,-734.729 808.762,-724.797"/>
<polygon fill="midnightblue" stroke="midnightblue" points="810.31,-721.649 799.905,-719.655 806.795,-727.703 810.31,-721.649"/>
</g>
<!-- Node43 -->
<g id="node43" class="node"><title>Node43</title>
<g id="a_node43"><a xlink:href="async__logger__impl_8h.html" target="_top" xlink:title="spdlog/details/async\l_logger_impl.h">
<polygon fill="none" stroke="red" points="570,-193 570,-223 676,-223 676,-193 570,-193"/>
<text text-anchor="start" x="578" y="-211" font-family="Helvetica,sans-Serif" font-size="10.00">spdlog/details/async</text>
<text text-anchor="middle" x="623" y="-200" font-family="Helvetica,sans-Serif" font-size="10.00">_logger_impl.h</text>
</a>
</g>
</g>
<!-- Node42&#45;&gt;Node43 -->
<g id="edge96" class="edge"><title>Node42&#45;&gt;Node43</title>
<path fill="none" stroke="midnightblue" d="M820.657,-756.899C790.376,-750.393 753.937,-739.087 726,-720 699.637,-701.988 693.459,-693.398 681,-664 635.03,-555.534 648,-518.805 648,-401 648,-401 648,-401 648,-331 648,-295.949 634.816,-257.245 627.041,-233.028"/>
<polygon fill="midnightblue" stroke="midnightblue" points="630.322,-231.793 624.005,-223.288 623.639,-233.876 630.322,-231.793"/>
</g>
<!-- Node43&#45;&gt;Node4 -->
<g id="edge98" class="edge"><title>Node43&#45;&gt;Node4</title>
<path fill="none" stroke="midnightblue" d="M638.423,-192.891C660.583,-173.562 703.565,-139.482 747,-124 905.964,-67.3379 967.17,-147.746 1125,-88 1147.61,-79.4395 1146.4,-64.5991 1169,-56 1247.23,-26.2322 1504.99,-14.9961 1594.25,-11.9399"/>
<polygon fill="midnightblue" stroke="midnightblue" points="1594.4,-15.437 1604.28,-11.607 1594.17,-8.44084 1594.4,-15.437"/>
</g>
<!-- Node43&#45;&gt;Node6 -->
<g id="edge100" class="edge"><title>Node43&#45;&gt;Node6</title>
<path fill="none" stroke="midnightblue" d="M676.135,-204.804C926.444,-194.459 1984.27,-150.742 2186.51,-142.384"/>
<polygon fill="midnightblue" stroke="midnightblue" points="2186.94,-145.869 2196.79,-141.959 2186.65,-138.875 2186.94,-145.869"/>
</g>
<!-- Node43&#45;&gt;Node7 -->
<g id="edge101" class="edge"><title>Node43&#45;&gt;Node7</title>
<path fill="none" stroke="midnightblue" d="M609.912,-192.802C594.208,-175.953 566.876,-147.217 542,-124 502.796,-87.4092 454.227,-47.4003 427.983,-26.1902"/>
<polygon fill="midnightblue" stroke="midnightblue" points="429.968,-23.2951 419.984,-19.7499 425.578,-28.7475 429.968,-23.2951"/>
</g>
<!-- Node43&#45;&gt;Node10 -->
<g id="edge99" class="edge"><title>Node43&#45;&gt;Node10</title>
<path fill="none" stroke="midnightblue" d="M597.472,-192.841C577.073,-181.528 548.662,-165.771 528.531,-154.605"/>
<polygon fill="midnightblue" stroke="midnightblue" points="530.096,-151.471 519.654,-149.682 526.701,-157.593 530.096,-151.471"/>
</g>
<!-- Node43&#45;&gt;Node42 -->
<g id="edge97" class="edge"><title>Node43&#45;&gt;Node42</title>
<path fill="none" stroke="midnightblue" d="M635.43,-223.288C648.626,-245.71 666,-290.763 666,-331 666,-401 666,-401 666,-401 666,-518.805 653.03,-555.534 699,-664 711.459,-693.398 717.637,-701.988 744,-720 768.094,-736.461 798.512,-747.135 824.337,-753.934"/>
<polygon fill="midnightblue" stroke="midnightblue" points="823.803,-757.408 834.353,-756.441 825.502,-750.617 823.803,-757.408"/>
</g>
<!-- Node45&#45;&gt;Node4 -->
<g id="edge126" class="edge"><title>Node45&#45;&gt;Node4</title>
<path fill="none" stroke="midnightblue" d="M2142.71,-570.495C2177.67,-562.815 2225.84,-549.379 2264,-528 2394.13,-455.096 2516.98,-400.174 2466,-260 2437.63,-181.993 2409.35,-166.421 2338,-124 2252.58,-73.2138 2222.41,-75.6831 2125,-56 1949.99,-20.6339 1734.88,-13.0532 1655.93,-11.4359"/>
<polygon fill="midnightblue" stroke="midnightblue" points="1655.78,-7.93247 1645.71,-11.245 1655.65,-14.9313 1655.78,-7.93247"/>
</g>
<!-- Node45&#45;&gt;Node6 -->
<g id="edge122" class="edge"><title>Node45&#45;&gt;Node6</title>
<path fill="none" stroke="midnightblue" d="M2134.29,-570.457C2163.83,-562.638 2204.79,-549.039 2236,-528 2291.58,-490.532 2311.81,-478.115 2337,-416 2374.42,-323.734 2392.95,-272.238 2334,-192 2314.85,-165.931 2279.3,-152.925 2252.97,-146.611"/>
<polygon fill="midnightblue" stroke="midnightblue" points="2253.55,-143.155 2243.03,-144.436 2252.05,-149.993 2253.55,-143.155"/>
</g>
<!-- Node45&#45;&gt;Node11 -->
<g id="edge111" class="edge"><title>Node45&#45;&gt;Node11</title>
<path fill="none" stroke="midnightblue" d="M2033.99,-576.864C1884.42,-571.343 1507.15,-555.102 1384,-528 1259.12,-500.518 1228.57,-481.9 1119,-416 1001,-345.036 894.169,-215.58 853.934,-163.543"/>
<polygon fill="midnightblue" stroke="midnightblue" points="856.491,-161.125 847.631,-155.316 850.934,-165.382 856.491,-161.125"/>
</g>
<!-- Node45&#45;&gt;Node12 -->
<g id="edge120" class="edge"><title>Node45&#45;&gt;Node12</title>
<path fill="none" stroke="midnightblue" d="M2034,-579.329C1855.57,-579.678 1343.45,-576.321 1184,-528 1017.13,-477.429 939.596,-443.867 880,-280 852.364,-204.011 971.23,-166.237 1044.68,-150.454"/>
<polygon fill="midnightblue" stroke="midnightblue" points="1045.65,-153.829 1054.73,-148.371 1044.23,-146.975 1045.65,-153.829"/>
</g>
<!-- Node45&#45;&gt;Node17 -->
<g id="edge123" class="edge"><title>Node45&#45;&gt;Node17</title>
<path fill="none" stroke="midnightblue" d="M2158,-573.648C2261.34,-564.328 2460.25,-544.532 2488,-528 2657.86,-426.793 2679.66,-346.672 2732,-156 2743.76,-113.141 2759,-91.2997 2732,-56 2715.78,-34.8028 2641.27,-21.2669 2597.79,-15.0285"/>
<polygon fill="midnightblue" stroke="midnightblue" points="2598.1,-11.5384 2587.71,-13.6341 2597.14,-18.4723 2598.1,-11.5384"/>
</g>
<!-- Node45&#45;&gt;Node25 -->
<g id="edge110" class="edge"><title>Node45&#45;&gt;Node25</title>
<path fill="none" stroke="midnightblue" d="M2033.91,-572.263C1931.3,-561.13 1726.81,-538.943 1616.92,-527.02"/>
<polygon fill="midnightblue" stroke="midnightblue" points="1617.23,-523.533 1606.91,-525.934 1616.47,-530.492 1617.23,-523.533"/>
</g>
<!-- Node45&#45;&gt;Node29 -->
<g id="edge124" class="edge"><title>Node45&#45;&gt;Node29</title>
<path fill="none" stroke="midnightblue" d="M2099.55,-570.44C2107.08,-551.454 2124,-504.227 2124,-463 2124,-463 2124,-463 2124,-331 2124,-288.865 2154.57,-247.141 2173.78,-225.083"/>
<polygon fill="midnightblue" stroke="midnightblue" points="2176.4,-227.402 2180.5,-217.632 2171.21,-222.715 2176.4,-227.402"/>
</g>
<!-- Node45&#45;&gt;Node37 -->
<g id="edge125" class="edge"><title>Node45&#45;&gt;Node37</title>
<path fill="none" stroke="midnightblue" d="M2033.93,-574.915C1886.77,-565.09 1524.95,-540.06 1471,-528 1332.51,-497.044 1296.95,-483.268 1172,-416 1135.27,-396.227 1096.93,-366.008 1075.4,-348.006"/>
<polygon fill="midnightblue" stroke="midnightblue" points="1077.65,-345.325 1067.76,-341.537 1073.13,-350.668 1077.65,-345.325"/>
</g>
<!-- Node46 -->
<g id="node46" class="node"><title>Node46</title>
<g id="a_node46"><a xlink:href="file__helper_8h.html" target="_top" xlink:title="spdlog/details/file\l_helper.h">
<polygon fill="none" stroke="black" points="2236,-385 2236,-415 2328,-415 2328,-385 2236,-385"/>
<text text-anchor="start" x="2244" y="-403" font-family="Helvetica,sans-Serif" font-size="10.00">spdlog/details/file</text>
<text text-anchor="middle" x="2282" y="-392" font-family="Helvetica,sans-Serif" font-size="10.00">_helper.h</text>
</a>
</g>
</g>
<!-- Node45&#45;&gt;Node46 -->
<g id="edge112" class="edge"><title>Node45&#45;&gt;Node46</title>
<path fill="none" stroke="midnightblue" d="M2131.48,-570.429C2156.92,-562.798 2190.67,-549.453 2214,-528 2245.18,-499.327 2264.86,-453.007 2274.62,-424.939"/>
<polygon fill="midnightblue" stroke="midnightblue" points="2278.04,-425.744 2277.87,-415.151 2271.4,-423.535 2278.04,-425.744"/>
</g>
<!-- Node47 -->
<g id="node47" class="node"><title>Node47</title>
<polygon fill="none" stroke="#bfbfbf" points="2190,-322.5 2190,-341.5 2234,-341.5 2234,-322.5 2190,-322.5"/>
<text text-anchor="middle" x="2212" y="-329.5" font-family="Helvetica,sans-Serif" font-size="10.00">cerrno</text>
</g>
<!-- Node45&#45;&gt;Node47 -->
<g id="edge127" class="edge"><title>Node45&#45;&gt;Node47</title>
<path fill="none" stroke="midnightblue" d="M2103.69,-570.174C2112.32,-560.162 2126.59,-543.243 2138,-528 2156.02,-503.921 2163.6,-499.405 2176,-472 2194.43,-431.26 2204.71,-379.368 2209.21,-351.955"/>
<polygon fill="midnightblue" stroke="midnightblue" points="2212.71,-352.228 2210.79,-341.808 2205.79,-351.149 2212.71,-352.228"/>
</g>
<!-- Node48 -->
<g id="node48" class="node"><title>Node48</title>
<polygon fill="none" stroke="#bfbfbf" points="2040,-508.5 2040,-527.5 2096,-527.5 2096,-508.5 2040,-508.5"/>
<text text-anchor="middle" x="2068" y="-515.5" font-family="Helvetica,sans-Serif" font-size="10.00">algorithm</text>
</g>
<!-- Node45&#45;&gt;Node48 -->
<g id="edge121" class="edge"><title>Node45&#45;&gt;Node48</title>
<path fill="none" stroke="midnightblue" d="M2091.99,-570.403C2087.91,-561.671 2081.48,-547.889 2076.3,-536.794"/>
<polygon fill="midnightblue" stroke="midnightblue" points="2079.4,-535.162 2072,-527.581 2073.06,-538.123 2079.4,-535.162"/>
</g>
<!-- Node46&#45;&gt;Node4 -->
<g id="edge117" class="edge"><title>Node46&#45;&gt;Node4</title>
<path fill="none" stroke="midnightblue" d="M2299.86,-384.789C2340.55,-350.653 2433.36,-261.698 2390,-192 2309.63,-62.7966 1788.88,-21.3503 1655.88,-12.8083"/>
<polygon fill="midnightblue" stroke="midnightblue" points="1655.81,-9.29653 1645.61,-12.1647 1655.37,-16.2828 1655.81,-9.29653"/>
</g>
<!-- Node46&#45;&gt;Node6 -->
<g id="edge115" class="edge"><title>Node46&#45;&gt;Node6</title>
<path fill="none" stroke="midnightblue" d="M2289.98,-384.997C2308.88,-349.804 2352.03,-255.904 2314,-192 2300.88,-169.962 2274.56,-156.859 2253.09,-149.464"/>
<polygon fill="midnightblue" stroke="midnightblue" points="2253.92,-146.055 2243.33,-146.367 2251.81,-152.728 2253.92,-146.055"/>
</g>
<!-- Node46&#45;&gt;Node17 -->
<g id="edge116" class="edge"><title>Node46&#45;&gt;Node17</title>
<path fill="none" stroke="midnightblue" d="M2328.26,-390.244C2408.74,-372.04 2566,-322.009 2566,-209 2566,-209 2566,-209 2566,-139 2566,-100.248 2566,-54.8973 2566,-29.9188"/>
<polygon fill="midnightblue" stroke="midnightblue" points="2569.5,-29.6912 2566,-19.6913 2562.5,-29.6913 2569.5,-29.6912"/>
</g>
<!-- Node46&#45;&gt;Node27 -->
<g id="edge114" class="edge"><title>Node46&#45;&gt;Node27</title>
<path fill="none" stroke="midnightblue" d="M2236,-393.655C2132.66,-381.647 1882.4,-352.568 1770.14,-339.523"/>
<polygon fill="midnightblue" stroke="midnightblue" points="1770.37,-336.027 1760.03,-338.349 1769.56,-342.98 1770.37,-336.027"/>
</g>
<!-- Node46&#45;&gt;Node28 -->
<g id="edge113" class="edge"><title>Node46&#45;&gt;Node28</title>
<path fill="none" stroke="midnightblue" d="M2279.56,-384.796C2275.45,-365.681 2265.21,-332.208 2242,-316 2209.76,-293.489 1957.67,-279.107 1840.5,-273.574"/>
<polygon fill="midnightblue" stroke="midnightblue" points="1840.42,-270.067 1830.27,-273.097 1840.09,-277.059 1840.42,-270.067"/>
</g>
<!-- Node46&#45;&gt;Node30 -->
<g id="edge118" class="edge"><title>Node46&#45;&gt;Node30</title>
<path fill="none" stroke="midnightblue" d="M2279.59,-384.719C2273.9,-350.932 2259.61,-266.075 2253.2,-228.004"/>
<polygon fill="midnightblue" stroke="midnightblue" points="2256.59,-227.079 2251.48,-217.799 2249.69,-228.241 2256.59,-227.079"/>
</g>
<!-- Node46&#45;&gt;Node47 -->
<g id="edge119" class="edge"><title>Node46&#45;&gt;Node47</title>
<path fill="none" stroke="midnightblue" d="M2266.81,-384.679C2255.57,-374.082 2240.27,-359.655 2228.69,-348.736"/>
<polygon fill="midnightblue" stroke="midnightblue" points="2231.04,-346.142 2221.36,-341.828 2226.24,-351.235 2231.04,-346.142"/>
</g>
<!-- Node49&#45;&gt;Node3 -->
<g id="edge131" class="edge"><title>Node49&#45;&gt;Node3</title>
<path fill="none" stroke="midnightblue" d="M2313.1,-564.965C2264.79,-548.21 2179.5,-520.847 2104,-508 1968.6,-484.959 1614.37,-523.384 1487,-472 1462.3,-462.035 1325.27,-333.283 1305,-316 1275.73,-291.038 1269.89,-282.925 1239,-260 1220.92,-246.581 1199.39,-232.817 1183.37,-222.976"/>
<polygon fill="midnightblue" stroke="midnightblue" points="1185.01,-219.875 1174.65,-217.666 1181.37,-225.855 1185.01,-219.875"/>
</g>
<!-- Node49&#45;&gt;Node4 -->
<g id="edge132" class="edge"><title>Node49&#45;&gt;Node4</title>
<path fill="none" stroke="midnightblue" d="M2408.75,-573.66C2469.41,-566.755 2560.12,-552.597 2584,-528 2688.03,-420.837 2682.07,-300.085 2579,-192 2458.09,-65.2058 2380.18,-93.3053 2209,-56 2001.31,-10.7394 1743.43,-9.3896 1655.79,-10.4179"/>
<polygon fill="midnightblue" stroke="midnightblue" points="1655.68,-6.91894 1645.73,-10.5559 1655.77,-13.9183 1655.68,-6.91894"/>
</g>
<!-- Node49&#45;&gt;Node25 -->
<g id="edge130" class="edge"><title>Node49&#45;&gt;Node25</title>
<path fill="none" stroke="midnightblue" d="M2295.44,-574.315C2258.58,-571.293 2209.45,-567.321 2166,-564 1967.63,-548.837 1733.62,-532.296 1616.93,-524.139"/>
<polygon fill="midnightblue" stroke="midnightblue" points="1616.91,-520.629 1606.69,-523.424 1616.42,-527.612 1616.91,-520.629"/>
</g>
<!-- Node50 -->
<g id="node50" class="node"><title>Node50</title>
<polygon fill="none" stroke="#bfbfbf" points="2540.5,-508.5 2540.5,-527.5 2575.5,-527.5 2575.5,-508.5 2540.5,-508.5"/>
<text text-anchor="middle" x="2558" y="-515.5" font-family="Helvetica,sans-Serif" font-size="10.00">map</text>
</g>
<!-- Node49&#45;&gt;Node50 -->
<g id="edge133" class="edge"><title>Node49&#45;&gt;Node50</title>
<path fill="none" stroke="midnightblue" d="M2400.3,-564.933C2440.86,-553.118 2497.37,-536.66 2530.57,-526.989"/>
<polygon fill="midnightblue" stroke="midnightblue" points="2531.86,-530.258 2540.49,-524.101 2529.91,-523.538 2531.86,-530.258"/>
</g>
</g>
</svg>
