<?xml version="1.0" encoding="UTF-8" standalone="no"?>
<!DOCTYPE svg PUBLIC "-//W3C//DTD SVG 1.1//EN"
 "http://www.w3.org/Graphics/SVG/1.1/DTD/svg11.dtd">
<!-- Generated by graphviz version 2.38.0 (20140413.2041)
 -->
<!-- Title: /home/lucamuratore/advr&#45;superbuild/external/XBotInterface/include/spdlog/spdlog.h Pages: 1 -->
<svg width="2764pt" height="989pt"
 viewBox="0.00 0.00 2764.00 989.00" xmlns="http://www.w3.org/2000/svg" xmlns:xlink="http://www.w3.org/1999/xlink">
<g id="graph0" class="graph" transform="scale(1 1) rotate(0) translate(4 985)">
<title>/home/lucamuratore/advr&#45;superbuild/external/XBotInterface/include/spdlog/spdlog.h</title>
<!-- Node1 -->
<g id="node1" class="node"><title>Node1</title>
<polygon fill="#bfbfbf" stroke="black" points="746.5,-928.5 746.5,-980.5 891.5,-980.5 891.5,-928.5 746.5,-928.5"/>
<text text-anchor="start" x="754.5" y="-968.5" font-family="Helvetica,sans-Serif" font-size="10.00">/home/lucamuratore</text>
<text text-anchor="start" x="754.5" y="-957.5" font-family="Helvetica,sans-Serif" font-size="10.00">/advr&#45;superbuild/external</text>
<text text-anchor="start" x="754.5" y="-946.5" font-family="Helvetica,sans-Serif" font-size="10.00">/XBotInterface/include/spdlog</text>
<text text-anchor="middle" x="819" y="-935.5" font-family="Helvetica,sans-Serif" font-size="10.00">/spdlog.h</text>
</g>
<!-- Node2 -->
<g id="node2" class="node"><title>Node2</title>
<g id="a_node2"><a xlink:href="tweakme_8h.html" target="_top" xlink:title="spdlog/tweakme.h">
<polygon fill="none" stroke="black" points="0,-867 0,-886 96,-886 96,-867 0,-867"/>
<text text-anchor="middle" x="48" y="-874" font-family="Helvetica,sans-Serif" font-size="10.00">spdlog/tweakme.h</text>
</a>
</g>
</g>
<!-- Node1&#45;&gt;Node2 -->
<g id="edge1" class="edge"><title>Node1&#45;&gt;Node2</title>
<path fill="none" stroke="midnightblue" d="M746.37,-950.635C617.518,-944.791 340.753,-928.797 110,-892 103.696,-890.995 97.0807,-889.705 90.6159,-888.311"/>
<polygon fill="midnightblue" stroke="midnightblue" points="91.1722,-884.848 80.6468,-886.059 89.6298,-891.676 91.1722,-884.848"/>
</g>
<!-- Node3 -->
<g id="node3" class="node"><title>Node3</title>
<g id="a_node3"><a xlink:href="common_8h.html" target="_top" xlink:title="spdlog/common.h">
<polygon fill="none" stroke="black" points="1113,-196 1113,-215 1207,-215 1207,-196 1113,-196"/>
<text text-anchor="middle" x="1160" y="-203" font-family="Helvetica,sans-Serif" font-size="10.00">spdlog/common.h</text>
</a>
</g>
</g>
<!-- Node1&#45;&gt;Node3 -->
<g id="edge2" class="edge"><title>Node1&#45;&gt;Node3</title>
<path fill="none" stroke="midnightblue" d="M891.609,-952.485C1104.04,-947.75 1716.29,-920.93 1826,-769 1841.89,-746.992 1814.91,-706.843 1802,-693 1689.2,-572.063 1607.44,-616.456 1471,-523 1409.18,-480.66 1400.25,-461.606 1345,-411 1283.12,-354.325 1265.48,-341.658 1212,-277 1197.53,-259.504 1182.25,-238.437 1172.03,-223.915"/>
<polygon fill="midnightblue" stroke="midnightblue" points="1174.69,-221.618 1166.1,-215.42 1168.95,-225.624 1174.69,-221.618"/>
</g>
<!-- Node4 -->
<g id="node4" class="node"><title>Node4</title>
<polygon fill="none" stroke="#bfbfbf" points="1604.5,-0.5 1604.5,-19.5 1645.5,-19.5 1645.5,-0.5 1604.5,-0.5"/>
<text text-anchor="middle" x="1625" y="-7.5" font-family="Helvetica,sans-Serif" font-size="10.00">string</text>
</g>
<!-- Node1&#45;&gt;Node4 -->
<g id="edge83" class="edge"><title>Node1&#45;&gt;Node4</title>
<path fill="none" stroke="midnightblue" d="M891.795,-953.038C1170.67,-950.921 2171.01,-940.073 2485,-892 2608.65,-873.069 2756,-941.091 2756,-816 2756,-816 2756,-816 2756,-327.5 2756,-204.939 2678.29,-182.238 2571,-123 2500.63,-84.1468 2481.47,-73.4348 2403,-56 2256.86,-23.5306 1782,-13.5702 1655.95,-11.4665"/>
<polygon fill="midnightblue" stroke="midnightblue" points="1655.89,-7.9652 1645.84,-11.3023 1655.78,-14.9643 1655.89,-7.9652"/>
</g>
<!-- Node6 -->
<g id="node6" class="node"><title>Node6</title>
<polygon fill="none" stroke="#bfbfbf" points="2197,-129 2197,-148 2243,-148 2243,-129 2197,-129"/>
<text text-anchor="middle" x="2220" y="-136" font-family="Helvetica,sans-Serif" font-size="10.00">chrono</text>
</g>
<!-- Node1&#45;&gt;Node6 -->
<g id="edge82" class="edge"><title>Node1&#45;&gt;Node6</title>
<path fill="none" stroke="midnightblue" d="M891.701,-952.113C1239.64,-945.008 2718,-909.329 2718,-816 2718,-816 2718,-816 2718,-640.5 2718,-392.306 2601.81,-316.043 2388,-190 2345.2,-164.77 2288.73,-151.189 2253.39,-144.655"/>
<polygon fill="midnightblue" stroke="midnightblue" points="2253.6,-141.137 2243.14,-142.849 2252.38,-148.031 2253.6,-141.137"/>
</g>
<!-- Node7 -->
<g id="node7" class="node"><title>Node7</title>
<polygon fill="none" stroke="#bfbfbf" points="383,-0.5 383,-19.5 435,-19.5 435,-0.5 383,-0.5"/>
<text text-anchor="middle" x="409" y="-7.5" font-family="Helvetica,sans-Serif" font-size="10.00">memory</text>
</g>
<!-- Node1&#45;&gt;Node7 -->
<g id="edge80" class="edge"><title>Node1&#45;&gt;Node7</title>
<path fill="none" stroke="midnightblue" d="M746.263,-954.314C568.04,-954.359 124,-941.843 124,-816 124,-816 124,-816 124,-137.5 124,-29.8298 296.033,-13.1061 372.783,-11.0027"/>
<polygon fill="midnightblue" stroke="midnightblue" points="373.026,-14.4985 382.953,-10.795 372.883,-7.49999 373.026,-14.4985"/>
</g>
<!-- Node10 -->
<g id="node10" class="node"><title>Node10</title>
<polygon fill="none" stroke="#bfbfbf" points="474.5,-129 474.5,-148 533.5,-148 533.5,-129 474.5,-129"/>
<text text-anchor="middle" x="504" y="-136" font-family="Helvetica,sans-Serif" font-size="10.00">functional</text>
</g>
<!-- Node1&#45;&gt;Node10 -->
<g id="edge81" class="edge"><title>Node1&#45;&gt;Node10</title>
<path fill="none" stroke="midnightblue" d="M746.298,-951.461C590.401,-945.111 238,-919.33 238,-816 238,-816 238,-816 238,-327.5 238,-254.704 268.487,-233.306 327,-190 367.618,-159.939 425.592,-147.747 463.982,-142.818"/>
<polygon fill="midnightblue" stroke="midnightblue" points="464.737,-146.254 474.26,-141.612 463.921,-139.302 464.737,-146.254"/>
</g>
<!-- Node24 -->
<g id="node24" class="node"><title>Node24</title>
<g id="a_node24"><a xlink:href="logger_8h.html" target="_top" xlink:title="spdlog/logger.h">
<polygon fill="none" stroke="black" points="743.5,-693.5 743.5,-712.5 826.5,-712.5 826.5,-693.5 743.5,-693.5"/>
<text text-anchor="middle" x="785" y="-700.5" font-family="Helvetica,sans-Serif" font-size="10.00">spdlog/logger.h</text>
</a>
</g>
</g>
<!-- Node1&#45;&gt;Node24 -->
<g id="edge26" class="edge"><title>Node1&#45;&gt;Node24</title>
<path fill="none" stroke="midnightblue" d="M788.589,-928.356C777.322,-917.949 765.09,-905.226 756,-892 722.284,-842.944 715.026,-827.298 703,-769 701.204,-760.294 698.472,-756.649 703,-749 711.973,-733.84 728.067,-723.448 743.635,-716.504"/>
<polygon fill="midnightblue" stroke="midnightblue" points="745.248,-719.627 753.191,-712.615 742.61,-713.143 745.248,-719.627"/>
</g>
<!-- Node40 -->
<g id="node40" class="node"><title>Node40</title>
<g id="a_node40"><a xlink:href="spdlog__impl_8h.html" target="_top" xlink:title="spdlog/details/spdlog\l_impl.h">
<polygon fill="none" stroke="black" points="765,-861.5 765,-891.5 873,-891.5 873,-861.5 765,-861.5"/>
<text text-anchor="start" x="773" y="-879.5" font-family="Helvetica,sans-Serif" font-size="10.00">spdlog/details/spdlog</text>
<text text-anchor="middle" x="819" y="-868.5" font-family="Helvetica,sans-Serif" font-size="10.00">_impl.h</text>
</a>
</g>
</g>
<!-- Node1&#45;&gt;Node40 -->
<g id="edge84" class="edge"><title>Node1&#45;&gt;Node40</title>
<path fill="none" stroke="midnightblue" d="M812.596,-928.193C812.116,-919.692 812.135,-910.233 812.655,-901.81"/>
<polygon fill="midnightblue" stroke="midnightblue" points="816.141,-902.126 813.582,-891.845 809.171,-901.478 816.141,-902.126"/>
</g>
<!-- Node3&#45;&gt;Node4 -->
<g id="edge3" class="edge"><title>Node3&#45;&gt;Node4</title>
<path fill="none" stroke="midnightblue" d="M1207.1,-200.869C1249.62,-195.749 1312.47,-183.453 1359,-154 1406.75,-123.778 1392.1,-85.9847 1440,-56 1488.4,-25.6985 1555.73,-15.8009 1594.39,-12.5681"/>
<polygon fill="midnightblue" stroke="midnightblue" points="1594.78,-16.0488 1604.5,-11.8216 1594.27,-9.06783 1594.78,-16.0488"/>
</g>
<!-- Node5 -->
<g id="node5" class="node"><title>Node5</title>
<polygon fill="none" stroke="#bfbfbf" points="1199.5,-129 1199.5,-148 1272.5,-148 1272.5,-129 1199.5,-129"/>
<text text-anchor="middle" x="1236" y="-136" font-family="Helvetica,sans-Serif" font-size="10.00">initializer_list</text>
</g>
<!-- Node3&#45;&gt;Node5 -->
<g id="edge4" class="edge"><title>Node3&#45;&gt;Node5</title>
<path fill="none" stroke="midnightblue" d="M1170.25,-195.734C1182.44,-185.305 1203.02,-167.709 1217.91,-154.973"/>
<polygon fill="midnightblue" stroke="midnightblue" points="1220.59,-157.287 1225.91,-148.127 1216.04,-151.967 1220.59,-157.287"/>
</g>
<!-- Node3&#45;&gt;Node6 -->
<g id="edge5" class="edge"><title>Node3&#45;&gt;Node6</title>
<path fill="none" stroke="midnightblue" d="M1207.26,-201.602C1387.93,-190.523 2032.52,-150.996 2186.7,-141.542"/>
<polygon fill="midnightblue" stroke="midnightblue" points="2187.17,-145.02 2196.94,-140.914 2186.74,-138.033 2187.17,-145.02"/>
</g>
<!-- Node3&#45;&gt;Node7 -->
<g id="edge6" class="edge"><title>Node3&#45;&gt;Node7</title>
<path fill="none" stroke="midnightblue" d="M1138.14,-195.892C1114.87,-186.482 1077.17,-170.528 1046,-154 973.327,-115.469 966.93,-82.3236 889,-56 806.74,-28.2139 542.544,-15.9092 445.337,-12.2426"/>
<polygon fill="midnightblue" stroke="midnightblue" points="445.25,-8.73711 435.128,-11.8663 444.992,-15.7324 445.25,-8.73711"/>
</g>
<!-- Node8 -->
<g id="node8" class="node"><title>Node8</title>
<polygon fill="none" stroke="#bfbfbf" points="1211,-62 1211,-81 1257,-81 1257,-62 1211,-62"/>
<text text-anchor="middle" x="1234" y="-69" font-family="Helvetica,sans-Serif" font-size="10.00">atomic</text>
</g>
<!-- Node3&#45;&gt;Node8 -->
<g id="edge7" class="edge"><title>Node3&#45;&gt;Node8</title>
<path fill="none" stroke="midnightblue" d="M1162.2,-195.978C1166.37,-180.657 1176.35,-147.752 1191,-123 1198.44,-110.43 1209.06,-97.9189 1217.89,-88.4938"/>
<polygon fill="midnightblue" stroke="midnightblue" points="1220.62,-90.7033 1225.06,-81.0818 1215.59,-85.8369 1220.62,-90.7033"/>
</g>
<!-- Node9 -->
<g id="node9" class="node"><title>Node9</title>
<polygon fill="none" stroke="#bfbfbf" points="1290.5,-129 1290.5,-148 1349.5,-148 1349.5,-129 1290.5,-129"/>
<text text-anchor="middle" x="1320" y="-136" font-family="Helvetica,sans-Serif" font-size="10.00">exception</text>
</g>
<!-- Node3&#45;&gt;Node9 -->
<g id="edge8" class="edge"><title>Node3&#45;&gt;Node9</title>
<path fill="none" stroke="midnightblue" d="M1181.25,-195.869C1208.94,-184.619 1257.56,-164.867 1289.27,-151.985"/>
<polygon fill="midnightblue" stroke="midnightblue" points="1290.97,-155.07 1298.92,-148.064 1288.34,-148.585 1290.97,-155.07"/>
</g>
<!-- Node3&#45;&gt;Node10 -->
<g id="edge9" class="edge"><title>Node3&#45;&gt;Node10</title>
<path fill="none" stroke="midnightblue" d="M1112.82,-199.825C989.324,-187.589 658.203,-154.779 543.648,-143.429"/>
<polygon fill="midnightblue" stroke="midnightblue" points="543.862,-139.933 533.565,-142.429 543.171,-146.899 543.862,-139.933"/>
</g>
<!-- Node11 -->
<g id="node11" class="node"><title>Node11</title>
<g id="a_node11"><a xlink:href="null__mutex_8h.html" target="_top" xlink:title="spdlog/details/null\l_mutex.h">
<polygon fill="none" stroke="black" points="789.5,-123.5 789.5,-153.5 884.5,-153.5 884.5,-123.5 789.5,-123.5"/>
<text text-anchor="start" x="797.5" y="-141.5" font-family="Helvetica,sans-Serif" font-size="10.00">spdlog/details/null</text>
<text text-anchor="middle" x="837" y="-130.5" font-family="Helvetica,sans-Serif" font-size="10.00">_mutex.h</text>
</a>
</g>
</g>
<!-- Node3&#45;&gt;Node11 -->
<g id="edge10" class="edge"><title>Node3&#45;&gt;Node11</title>
<path fill="none" stroke="midnightblue" d="M1117.44,-195.936C1060.29,-184.434 958.529,-163.956 894.573,-151.086"/>
<polygon fill="midnightblue" stroke="midnightblue" points="895.14,-147.63 884.646,-149.088 893.759,-154.492 895.14,-147.63"/>
</g>
<!-- Node12 -->
<g id="node12" class="node"><title>Node12</title>
<g id="a_node12"><a xlink:href="fmt_8h.html" target="_top" xlink:title="spdlog/fmt/fmt.h">
<polygon fill="none" stroke="black" points="1055,-129 1055,-148 1143,-148 1143,-129 1055,-129"/>
<text text-anchor="middle" x="1099" y="-136" font-family="Helvetica,sans-Serif" font-size="10.00">spdlog/fmt/fmt.h</text>
</a>
</g>
</g>
<!-- Node3&#45;&gt;Node12 -->
<g id="edge12" class="edge"><title>Node3&#45;&gt;Node12</title>
<path fill="none" stroke="midnightblue" d="M1151.77,-195.734C1142.17,-185.5 1126.09,-168.364 1114.2,-155.692"/>
<polygon fill="midnightblue" stroke="midnightblue" points="1116.49,-153.024 1107.1,-148.127 1111.39,-157.814 1116.49,-153.024"/>
</g>
<!-- Node11&#45;&gt;Node8 -->
<g id="edge11" class="edge"><title>Node11&#45;&gt;Node8</title>
<path fill="none" stroke="midnightblue" d="M884.582,-134.386C954.147,-129.037 1087.27,-115.773 1197,-87 1199.66,-86.3022 1202.39,-85.4701 1205.1,-84.5622"/>
<polygon fill="midnightblue" stroke="midnightblue" points="1206.51,-87.7739 1214.7,-81.0483 1204.1,-81.2009 1206.51,-87.7739"/>
</g>
<!-- Node13 -->
<g id="node13" class="node"><title>Node13</title>
<g id="a_node13"><a xlink:href="format_8h.html" target="_top" xlink:title="spdlog/fmt/bundled\l/format.h">
<polygon fill="none" stroke="black" points="1017.5,-56.5 1017.5,-86.5 1116.5,-86.5 1116.5,-56.5 1017.5,-56.5"/>
<text text-anchor="start" x="1025.5" y="-74.5" font-family="Helvetica,sans-Serif" font-size="10.00">spdlog/fmt/bundled</text>
<text text-anchor="middle" x="1067" y="-63.5" font-family="Helvetica,sans-Serif" font-size="10.00">/format.h</text>
</a>
</g>
</g>
<!-- Node12&#45;&gt;Node13 -->
<g id="edge13" class="edge"><title>Node12&#45;&gt;Node13</title>
<path fill="none" stroke="midnightblue" d="M1094.68,-128.734C1090.53,-120.287 1084.05,-107.138 1078.41,-95.6778"/>
<polygon fill="midnightblue" stroke="midnightblue" points="1081.49,-94.0148 1073.94,-86.589 1075.21,-97.1066 1081.49,-94.0148"/>
</g>
<!-- Node13&#45;&gt;Node4 -->
<g id="edge22" class="edge"><title>Node13&#45;&gt;Node4</title>
<path fill="none" stroke="midnightblue" d="M1116.84,-58.5403C1121.61,-57.5973 1126.39,-56.7295 1131,-56 1304.86,-28.5099 1515.99,-16.2313 1594.06,-12.3977"/>
<polygon fill="midnightblue" stroke="midnightblue" points="1594.35,-15.8877 1604.17,-11.9121 1594.02,-8.89572 1594.35,-15.8877"/>
</g>
<!-- Node13&#45;&gt;Node7 -->
<g id="edge20" class="edge"><title>Node13&#45;&gt;Node7</title>
<path fill="none" stroke="midnightblue" d="M1017.27,-62.8166C1000.68,-60.4163 982.065,-57.9018 965,-56 769.388,-34.2004 533.935,-18.6518 445.19,-13.1686"/>
<polygon fill="midnightblue" stroke="midnightblue" points="445.303,-9.669 435.107,-12.55 444.874,-16.6559 445.303,-9.669"/>
</g>
<!-- Node14 -->
<g id="node14" class="node"><title>Node14</title>
<polygon fill="none" stroke="#bfbfbf" points="1237.5,-0.5 1237.5,-19.5 1286.5,-19.5 1286.5,-0.5 1237.5,-0.5"/>
<text text-anchor="middle" x="1262" y="-7.5" font-family="Helvetica,sans-Serif" font-size="10.00">cassert</text>
</g>
<!-- Node13&#45;&gt;Node14 -->
<g id="edge14" class="edge"><title>Node13&#45;&gt;Node14</title>
<path fill="none" stroke="midnightblue" d="M1113.21,-56.3993C1148.27,-45.7012 1195.7,-31.2286 1227.5,-21.5266"/>
<polygon fill="midnightblue" stroke="midnightblue" points="1228.7,-24.8212 1237.24,-18.5551 1226.65,-18.1259 1228.7,-24.8212"/>
</g>
<!-- Node15 -->
<g id="node15" class="node"><title>Node15</title>
<polygon fill="none" stroke="#bfbfbf" points="1304.5,-0.5 1304.5,-19.5 1351.5,-19.5 1351.5,-0.5 1304.5,-0.5"/>
<text text-anchor="middle" x="1328" y="-7.5" font-family="Helvetica,sans-Serif" font-size="10.00">clocale</text>
</g>
<!-- Node13&#45;&gt;Node15 -->
<g id="edge15" class="edge"><title>Node13&#45;&gt;Node15</title>
<path fill="none" stroke="midnightblue" d="M1116.61,-59.2202C1121.47,-58.1268 1126.33,-57.0386 1131,-56 1201.12,-40.4074 1221.45,-38.3283 1294.16,-20.3604"/>
<polygon fill="midnightblue" stroke="midnightblue" points="1295.42,-23.6534 1304.28,-17.8414 1293.73,-16.8607 1295.42,-23.6534"/>
</g>
<!-- Node16 -->
<g id="node16" class="node"><title>Node16</title>
<polygon fill="none" stroke="#bfbfbf" points="909,-0.5 909,-19.5 953,-19.5 953,-0.5 909,-0.5"/>
<text text-anchor="middle" x="931" y="-7.5" font-family="Helvetica,sans-Serif" font-size="10.00">cmath</text>
</g>
<!-- Node13&#45;&gt;Node16 -->
<g id="edge16" class="edge"><title>Node13&#45;&gt;Node16</title>
<path fill="none" stroke="midnightblue" d="M1034.77,-56.3993C1012.16,-46.5054 982.162,-33.3832 960.239,-23.7919"/>
<polygon fill="midnightblue" stroke="midnightblue" points="961.354,-20.4595 950.789,-19.6578 958.548,-26.8726 961.354,-20.4595"/>
</g>
<!-- Node17 -->
<g id="node17" class="node"><title>Node17</title>
<polygon fill="none" stroke="#bfbfbf" points="2544.5,-0.5 2544.5,-19.5 2587.5,-19.5 2587.5,-0.5 2544.5,-0.5"/>
<text text-anchor="middle" x="2566" y="-7.5" font-family="Helvetica,sans-Serif" font-size="10.00">cstdio</text>
</g>
<!-- Node13&#45;&gt;Node17 -->
<g id="edge17" class="edge"><title>Node13&#45;&gt;Node17</title>
<path fill="none" stroke="midnightblue" d="M1116.61,-64.283C1142.09,-61.3154 1173.66,-57.9864 1202,-56 1733.5,-18.7407 2383.72,-12.2171 2533.98,-11.1815"/>
<polygon fill="midnightblue" stroke="midnightblue" points="2534.33,-14.6794 2544.31,-11.1137 2534.29,-7.67953 2534.33,-14.6794"/>
</g>
<!-- Node18 -->
<g id="node18" class="node"><title>Node18</title>
<polygon fill="none" stroke="#bfbfbf" points="971,-0.5 971,-19.5 1017,-19.5 1017,-0.5 971,-0.5"/>
<text text-anchor="middle" x="994" y="-7.5" font-family="Helvetica,sans-Serif" font-size="10.00">cstring</text>
</g>
<!-- Node13&#45;&gt;Node18 -->
<g id="edge18" class="edge"><title>Node13&#45;&gt;Node18</title>
<path fill="none" stroke="midnightblue" d="M1049.7,-56.3993C1038.55,-47.3076 1024.05,-35.4899 1012.64,-26.1909"/>
<polygon fill="midnightblue" stroke="midnightblue" points="1014.58,-23.2627 1004.62,-19.6578 1010.16,-28.6887 1014.58,-23.2627"/>
</g>
<!-- Node19 -->
<g id="node19" class="node"><title>Node19</title>
<polygon fill="none" stroke="#bfbfbf" points="1035,-0.5 1035,-19.5 1075,-19.5 1075,-0.5 1035,-0.5"/>
<text text-anchor="middle" x="1055" y="-7.5" font-family="Helvetica,sans-Serif" font-size="10.00">limits</text>
</g>
<!-- Node13&#45;&gt;Node19 -->
<g id="edge19" class="edge"><title>Node13&#45;&gt;Node19</title>
<path fill="none" stroke="midnightblue" d="M1064.16,-56.3993C1062.54,-48.3772 1060.49,-38.2328 1058.75,-29.569"/>
<polygon fill="midnightblue" stroke="midnightblue" points="1062.15,-28.7684 1056.75,-19.6578 1055.29,-30.1524 1062.15,-28.7684"/>
</g>
<!-- Node20 -->
<g id="node20" class="node"><title>Node20</title>
<polygon fill="none" stroke="#bfbfbf" points="1093.5,-0.5 1093.5,-19.5 1152.5,-19.5 1152.5,-0.5 1093.5,-0.5"/>
<text text-anchor="middle" x="1123" y="-7.5" font-family="Helvetica,sans-Serif" font-size="10.00">stdexcept</text>
</g>
<!-- Node13&#45;&gt;Node20 -->
<g id="edge21" class="edge"><title>Node13&#45;&gt;Node20</title>
<path fill="none" stroke="midnightblue" d="M1080.27,-56.3993C1088.58,-47.575 1099.3,-36.1827 1107.92,-27.0178"/>
<polygon fill="midnightblue" stroke="midnightblue" points="1110.55,-29.3386 1114.85,-19.6578 1105.45,-24.541 1110.55,-29.3386"/>
</g>
<!-- Node21 -->
<g id="node21" class="node"><title>Node21</title>
<polygon fill="none" stroke="#bfbfbf" points="847,-0.5 847,-19.5 891,-19.5 891,-0.5 847,-0.5"/>
<text text-anchor="middle" x="869" y="-7.5" font-family="Helvetica,sans-Serif" font-size="10.00">vector</text>
</g>
<!-- Node13&#45;&gt;Node21 -->
<g id="edge23" class="edge"><title>Node13&#45;&gt;Node21</title>
<path fill="none" stroke="midnightblue" d="M1020.33,-56.4747C983.6,-45.438 933.39,-30.3495 901.073,-20.6381"/>
<polygon fill="midnightblue" stroke="midnightblue" points="901.833,-17.212 891.249,-17.6859 899.819,-23.9158 901.833,-17.212"/>
</g>
<!-- Node22 -->
<g id="node22" class="node"><title>Node22</title>
<polygon fill="none" stroke="#bfbfbf" points="1370,-0.5 1370,-19.5 1410,-19.5 1410,-0.5 1370,-0.5"/>
<text text-anchor="middle" x="1390" y="-7.5" font-family="Helvetica,sans-Serif" font-size="10.00">utility</text>
</g>
<!-- Node13&#45;&gt;Node22 -->
<g id="edge24" class="edge"><title>Node13&#45;&gt;Node22</title>
<path fill="none" stroke="midnightblue" d="M1116.54,-58.9277C1121.42,-57.8935 1126.3,-56.8991 1131,-56 1229.45,-37.1653 1258.42,-42.9941 1359.78,-19.992"/>
<polygon fill="midnightblue" stroke="midnightblue" points="1360.86,-23.3339 1369.82,-17.6741 1359.29,-16.5133 1360.86,-23.3339"/>
</g>
<!-- Node23 -->
<g id="node23" class="node"><title>Node23</title>
<polygon fill="none" stroke="#bfbfbf" points="1170.5,-0.5 1170.5,-19.5 1219.5,-19.5 1219.5,-0.5 1170.5,-0.5"/>
<text text-anchor="middle" x="1195" y="-7.5" font-family="Helvetica,sans-Serif" font-size="10.00">stdint.h</text>
</g>
<!-- Node13&#45;&gt;Node23 -->
<g id="edge25" class="edge"><title>Node13&#45;&gt;Node23</title>
<path fill="none" stroke="midnightblue" d="M1097.33,-56.3993C1118.52,-46.55 1146.59,-33.5014 1167.2,-23.9217"/>
<polygon fill="midnightblue" stroke="midnightblue" points="1168.78,-27.047 1176.37,-19.6578 1165.83,-20.6993 1168.78,-27.047"/>
</g>
<!-- Node24&#45;&gt;Node3 -->
<g id="edge66" class="edge"><title>Node24&#45;&gt;Node3</title>
<path fill="none" stroke="midnightblue" d="M800.887,-693.369C814.482,-685.361 833.879,-672.38 847,-657 905.98,-587.862 894,-548.878 894,-458 894,-458 894,-458 894,-327.5 894,-236.583 1024.35,-213.66 1102.55,-208.088"/>
<polygon fill="midnightblue" stroke="midnightblue" points="1102.99,-211.567 1112.75,-207.438 1102.55,-204.582 1102.99,-211.567"/>
</g>
<!-- Node24&#45;&gt;Node4 -->
<g id="edge69" class="edge"><title>Node24&#45;&gt;Node4</title>
<path fill="none" stroke="midnightblue" d="M811.271,-693.371C830.08,-686.107 854.987,-674.136 872,-657 958.405,-569.969 951.101,-524.726 997,-411 1014.05,-368.76 996.743,-347.05 1027,-313 1056.11,-280.237 1350.28,-176.314 1388,-154 1449.67,-117.523 1453.91,-91.7544 1516,-56 1541.23,-41.4701 1572.07,-29.196 1594.5,-21.1555"/>
<polygon fill="midnightblue" stroke="midnightblue" points="1595.88,-24.379 1604.16,-17.7663 1593.56,-17.7736 1595.88,-24.379"/>
</g>
<!-- Node24&#45;&gt;Node7 -->
<g id="edge68" class="edge"><title>Node24&#45;&gt;Node7</title>
<path fill="none" stroke="midnightblue" d="M767.759,-693.408C687.226,-651.933 352,-463.83 352,-206.5 352,-206.5 352,-206.5 352,-137.5 352,-94.969 379.114,-50.9312 395.941,-27.6963"/>
<polygon fill="midnightblue" stroke="midnightblue" points="398.815,-29.6969 402.011,-19.5954 393.213,-25.4995 398.815,-29.6969"/>
</g>
<!-- Node24&#45;&gt;Node21 -->
<g id="edge67" class="edge"><title>Node24&#45;&gt;Node21</title>
<path fill="none" stroke="midnightblue" d="M767.019,-693.487C752.907,-685.878 733.886,-673.4 723,-657 702.431,-626.012 704,-612.694 704,-575.5 704,-575.5 704,-575.5 704,-266 704,-199.237 714.341,-179.442 750,-123 776.276,-81.4101 821.552,-44.7769 848.034,-25.4666"/>
<polygon fill="midnightblue" stroke="midnightblue" points="850.141,-28.263 856.24,-19.5999 846.07,-22.5687 850.141,-28.263"/>
</g>
<!-- Node25 -->
<g id="node25" class="node"><title>Node25</title>
<g id="a_node25"><a xlink:href="base__sink_8h.html" target="_top" xlink:title="spdlog/sinks/base_sink.h">
<polygon fill="none" stroke="black" points="1479.5,-503.5 1479.5,-522.5 1606.5,-522.5 1606.5,-503.5 1479.5,-503.5"/>
<text text-anchor="middle" x="1543" y="-510.5" font-family="Helvetica,sans-Serif" font-size="10.00">spdlog/sinks/base_sink.h</text>
</a>
</g>
</g>
<!-- Node24&#45;&gt;Node25 -->
<g id="edge27" class="edge"><title>Node24&#45;&gt;Node25</title>
<path fill="none" stroke="midnightblue" d="M824.344,-693.444C864.543,-684.623 928.731,-670.316 984,-657 1177.84,-610.3 1408.17,-549.775 1501.08,-525.153"/>
<polygon fill="midnightblue" stroke="midnightblue" points="1502.17,-528.484 1510.94,-522.537 1500.38,-521.718 1502.17,-528.484"/>
</g>
<!-- Node38 -->
<g id="node38" class="node"><title>Node38</title>
<g id="a_node38"><a xlink:href="logger__impl_8h.html" target="_top" xlink:title="spdlog/details/logger\l_impl.h">
<polygon fill="none" stroke="black" points="732,-626.5 732,-656.5 838,-656.5 838,-626.5 732,-626.5"/>
<text text-anchor="start" x="740" y="-644.5" font-family="Helvetica,sans-Serif" font-size="10.00">spdlog/details/logger</text>
<text text-anchor="middle" x="785" y="-633.5" font-family="Helvetica,sans-Serif" font-size="10.00">_impl.h</text>
</a>
</g>
</g>
<!-- Node24&#45;&gt;Node38 -->
<g id="edge70" class="edge"><title>Node24&#45;&gt;Node38</title>
<path fill="none" stroke="midnightblue" d="M780.099,-693.475C778.572,-686.471 777.991,-676.192 778.356,-666.696"/>
<polygon fill="midnightblue" stroke="midnightblue" points="781.861,-666.77 779.17,-656.523 774.883,-666.212 781.861,-666.77"/>
</g>
<!-- Node25&#45;&gt;Node3 -->
<g id="edge63" class="edge"><title>Node25&#45;&gt;Node3</title>
<path fill="none" stroke="midnightblue" d="M1517.76,-503.391C1496.59,-495.567 1466.05,-482.839 1442,-467 1434.44,-462.021 1236.57,-277.835 1176.88,-222.233"/>
<polygon fill="midnightblue" stroke="midnightblue" points="1179.12,-219.529 1169.41,-215.273 1174.34,-224.651 1179.12,-219.529"/>
</g>
<!-- Node26 -->
<g id="node26" class="node"><title>Node26</title>
<g id="a_node26"><a xlink:href="sink_8h.html" target="_top" xlink:title="spdlog/sinks/sink.h">
<polygon fill="none" stroke="black" points="1658.5,-447.5 1658.5,-466.5 1759.5,-466.5 1759.5,-447.5 1658.5,-447.5"/>
<text text-anchor="middle" x="1709" y="-454.5" font-family="Helvetica,sans-Serif" font-size="10.00">spdlog/sinks/sink.h</text>
</a>
</g>
</g>
<!-- Node25&#45;&gt;Node26 -->
<g id="edge28" class="edge"><title>Node25&#45;&gt;Node26</title>
<path fill="none" stroke="midnightblue" d="M1569.3,-503.444C1597.35,-494.32 1641.94,-479.813 1673.18,-469.651"/>
<polygon fill="midnightblue" stroke="midnightblue" points="1674.39,-472.938 1682.82,-466.516 1672.23,-466.282 1674.39,-472.938"/>
</g>
<!-- Node27 -->
<g id="node27" class="node"><title>Node27</title>
<g id="a_node27"><a xlink:href="log__msg_8h.html" target="_top" xlink:title="spdlog/details/log\l_msg.h">
<polygon fill="none" stroke="black" points="1668,-313.5 1668,-343.5 1760,-343.5 1760,-313.5 1668,-313.5"/>
<text text-anchor="start" x="1676" y="-331.5" font-family="Helvetica,sans-Serif" font-size="10.00">spdlog/details/log</text>
<text text-anchor="middle" x="1714" y="-320.5" font-family="Helvetica,sans-Serif" font-size="10.00">_msg.h</text>
</a>
</g>
</g>
<!-- Node25&#45;&gt;Node27 -->
<g id="edge64" class="edge"><title>Node25&#45;&gt;Node27</title>
<path fill="none" stroke="midnightblue" d="M1555.26,-503.236C1567.13,-494.54 1585.43,-480.582 1600,-467 1639.27,-430.406 1677.55,-380.436 1698.23,-351.909"/>
<polygon fill="midnightblue" stroke="midnightblue" points="1701.08,-353.947 1704.06,-343.782 1695.39,-349.864 1701.08,-353.947"/>
</g>
<!-- Node35 -->
<g id="node35" class="node"><title>Node35</title>
<g id="a_node35"><a xlink:href="formatter_8h.html" target="_top" xlink:title="spdlog/formatter.h">
<polygon fill="none" stroke="black" points="1495.5,-447.5 1495.5,-466.5 1590.5,-466.5 1590.5,-447.5 1495.5,-447.5"/>
<text text-anchor="middle" x="1543" y="-454.5" font-family="Helvetica,sans-Serif" font-size="10.00">spdlog/formatter.h</text>
</a>
</g>
</g>
<!-- Node25&#45;&gt;Node35 -->
<g id="edge45" class="edge"><title>Node25&#45;&gt;Node35</title>
<path fill="none" stroke="midnightblue" d="M1543,-503.083C1543,-496.006 1543,-485.861 1543,-476.986"/>
<polygon fill="midnightblue" stroke="midnightblue" points="1546.5,-476.751 1543,-466.751 1539.5,-476.751 1546.5,-476.751"/>
</g>
<!-- Node37 -->
<g id="node37" class="node"><title>Node37</title>
<polygon fill="none" stroke="#bfbfbf" points="1036,-319 1036,-338 1080,-338 1080,-319 1036,-319"/>
<text text-anchor="middle" x="1058" y="-326" font-family="Helvetica,sans-Serif" font-size="10.00">mutex</text>
</g>
<!-- Node25&#45;&gt;Node37 -->
<g id="edge65" class="edge"><title>Node25&#45;&gt;Node37</title>
<path fill="none" stroke="midnightblue" d="M1504.24,-503.432C1469.67,-495.375 1417.87,-482.287 1374,-467 1359.4,-461.913 1162.33,-375.385 1087,-342.259"/>
<polygon fill="midnightblue" stroke="midnightblue" points="1088.18,-338.954 1077.62,-338.132 1085.36,-345.362 1088.18,-338.954"/>
</g>
<!-- Node26&#45;&gt;Node27 -->
<g id="edge29" class="edge"><title>Node26&#45;&gt;Node27</title>
<path fill="none" stroke="midnightblue" d="M1709.34,-447.305C1710.09,-428.298 1711.91,-382.47 1713.04,-353.9"/>
<polygon fill="midnightblue" stroke="midnightblue" points="1716.53,-354.018 1713.43,-343.888 1709.54,-353.742 1716.53,-354.018"/>
</g>
<!-- Node27&#45;&gt;Node3 -->
<g id="edge30" class="edge"><title>Node27&#45;&gt;Node3</title>
<path fill="none" stroke="midnightblue" d="M1667.72,-317.392C1564.18,-294.777 1314.64,-240.274 1208.78,-217.155"/>
<polygon fill="midnightblue" stroke="midnightblue" points="1209.52,-213.732 1199,-215.018 1208.02,-220.571 1209.52,-213.732"/>
</g>
<!-- Node27&#45;&gt;Node4 -->
<g id="edge43" class="edge"><title>Node27&#45;&gt;Node4</title>
<path fill="none" stroke="midnightblue" d="M1682.68,-313.298C1668.02,-304.927 1651.86,-292.841 1643,-277 1619.31,-234.662 1622.35,-83.3129 1624.23,-29.861"/>
<polygon fill="midnightblue" stroke="midnightblue" points="1627.73,-29.8834 1624.61,-19.7578 1620.73,-29.6179 1627.73,-29.8834"/>
</g>
<!-- Node27&#45;&gt;Node22 -->
<g id="edge44" class="edge"><title>Node27&#45;&gt;Node22</title>
<path fill="none" stroke="midnightblue" d="M1686.88,-313.349C1670.26,-304.073 1648.99,-291.087 1632,-277 1532.84,-194.777 1436.32,-72.3065 1402.6,-27.8727"/>
<polygon fill="midnightblue" stroke="midnightblue" points="1405.19,-25.4971 1396.38,-19.618 1399.6,-29.7104 1405.19,-25.4971"/>
</g>
<!-- Node28 -->
<g id="node28" class="node"><title>Node28</title>
<g id="a_node28"><a xlink:href="os_8h.html" target="_top" xlink:title="spdlog/details/os.h">
<polygon fill="none" stroke="red" points="1732,-257.5 1732,-276.5 1830,-276.5 1830,-257.5 1732,-257.5"/>
<text text-anchor="middle" x="1781" y="-264.5" font-family="Helvetica,sans-Serif" font-size="10.00">spdlog/details/os.h</text>
</a>
</g>
</g>
<!-- Node27&#45;&gt;Node28 -->
<g id="edge31" class="edge"><title>Node27&#45;&gt;Node28</title>
<path fill="none" stroke="midnightblue" d="M1729.88,-313.399C1740.02,-304.397 1753.16,-292.721 1763.59,-283.465"/>
<polygon fill="midnightblue" stroke="midnightblue" points="1766.1,-285.915 1771.25,-276.658 1761.45,-280.681 1766.1,-285.915"/>
</g>
<!-- Node28&#45;&gt;Node3 -->
<g id="edge32" class="edge"><title>Node28&#45;&gt;Node3</title>
<path fill="none" stroke="midnightblue" d="M1731.75,-261.281C1618.16,-250.398 1338.31,-223.584 1217.29,-211.989"/>
<polygon fill="midnightblue" stroke="midnightblue" points="1217.41,-208.485 1207.12,-211.015 1216.74,-215.453 1217.41,-208.485"/>
</g>
<!-- Node28&#45;&gt;Node4 -->
<g id="edge36" class="edge"><title>Node28&#45;&gt;Node4</title>
<path fill="none" stroke="midnightblue" d="M1773.5,-257.219C1766.38,-248.509 1755.78,-234.542 1749,-221 1714.5,-152.136 1743.12,-116.926 1696,-56 1685.23,-42.08 1668.86,-31.2892 1654.54,-23.7682"/>
<polygon fill="midnightblue" stroke="midnightblue" points="1656.03,-20.5989 1645.52,-19.298 1652.92,-26.872 1656.03,-20.5989"/>
</g>
<!-- Node28&#45;&gt;Node6 -->
<g id="edge37" class="edge"><title>Node28&#45;&gt;Node6</title>
<path fill="none" stroke="midnightblue" d="M1830.12,-258.856C1900.97,-248.364 2025.54,-229.152 2045,-221 2066.73,-211.896 2067.27,-201.192 2088,-190 2120.16,-172.636 2159.59,-158.381 2186.94,-149.495"/>
<polygon fill="midnightblue" stroke="midnightblue" points="2188.32,-152.728 2196.79,-146.358 2186.2,-146.058 2188.32,-152.728"/>
</g>
<!-- Node28&#45;&gt;Node10 -->
<g id="edge35" class="edge"><title>Node28&#45;&gt;Node10</title>
<path fill="none" stroke="midnightblue" d="M1731.64,-263.882C1619.76,-258.826 1338.39,-244.681 1104,-221 892.044,-199.586 639.671,-161.003 543.693,-145.853"/>
<polygon fill="midnightblue" stroke="midnightblue" points="543.993,-142.357 533.569,-144.25 542.899,-149.271 543.993,-142.357"/>
</g>
<!-- Node28&#45;&gt;Node17 -->
<g id="edge33" class="edge"><title>Node28&#45;&gt;Node17</title>
<path fill="none" stroke="midnightblue" d="M1830.1,-261.981C1889.91,-256.318 1993.64,-244.012 2080,-221 2082.48,-220.34 2249.64,-154.997 2252,-154 2359.28,-108.718 2484.7,-49.7466 2538.84,-23.9889"/>
<polygon fill="midnightblue" stroke="midnightblue" points="2540.58,-27.0378 2548.1,-19.5767 2537.57,-20.7185 2540.58,-27.0378"/>
</g>
<!-- Node29 -->
<g id="node29" class="node"><title>Node29</title>
<polygon fill="none" stroke="#bfbfbf" points="2168.5,-196 2168.5,-215 2209.5,-215 2209.5,-196 2168.5,-196"/>
<text text-anchor="middle" x="2189" y="-203" font-family="Helvetica,sans-Serif" font-size="10.00">ctime</text>
</g>
<!-- Node28&#45;&gt;Node29 -->
<g id="edge34" class="edge"><title>Node28&#45;&gt;Node29</title>
<path fill="none" stroke="midnightblue" d="M1830.25,-260.363C1895.69,-252.648 2014.84,-237.824 2116,-221 2129.98,-218.675 2145.38,-215.681 2158.42,-213.017"/>
<polygon fill="midnightblue" stroke="midnightblue" points="2159.21,-216.427 2168.3,-210.971 2157.79,-209.572 2159.21,-216.427"/>
</g>
<!-- Node30 -->
<g id="node30" class="node"><title>Node30</title>
<polygon fill="none" stroke="#bfbfbf" points="2228,-196 2228,-215 2272,-215 2272,-196 2228,-196"/>
<text text-anchor="middle" x="2250" y="-203" font-family="Helvetica,sans-Serif" font-size="10.00">thread</text>
</g>
<!-- Node28&#45;&gt;Node30 -->
<g id="edge38" class="edge"><title>Node28&#45;&gt;Node30</title>
<path fill="none" stroke="midnightblue" d="M1830.27,-266.254C1912.39,-265.509 2081.78,-258.968 2219,-221 2220.93,-220.465 2222.89,-219.819 2224.84,-219.101"/>
<polygon fill="midnightblue" stroke="midnightblue" points="2226.47,-222.215 2234.3,-215.085 2223.73,-215.772 2226.47,-222.215"/>
</g>
<!-- Node31 -->
<g id="node31" class="node"><title>Node31</title>
<polygon fill="none" stroke="#bfbfbf" points="1758,-196 1758,-215 1804,-215 1804,-196 1758,-196"/>
<text text-anchor="middle" x="1781" y="-203" font-family="Helvetica,sans-Serif" font-size="10.00">stdio.h</text>
</g>
<!-- Node28&#45;&gt;Node31 -->
<g id="edge39" class="edge"><title>Node28&#45;&gt;Node31</title>
<path fill="none" stroke="midnightblue" d="M1781,-257.475C1781,-249.08 1781,-235.981 1781,-225.163"/>
<polygon fill="midnightblue" stroke="midnightblue" points="1784.5,-225.009 1781,-215.009 1777.5,-225.009 1784.5,-225.009"/>
</g>
<!-- Node32 -->
<g id="node32" class="node"><title>Node32</title>
<polygon fill="none" stroke="#bfbfbf" points="1822.5,-196 1822.5,-215 1871.5,-215 1871.5,-196 1822.5,-196"/>
<text text-anchor="middle" x="1847" y="-203" font-family="Helvetica,sans-Serif" font-size="10.00">string.h</text>
</g>
<!-- Node28&#45;&gt;Node32 -->
<g id="edge40" class="edge"><title>Node28&#45;&gt;Node32</title>
<path fill="none" stroke="midnightblue" d="M1790.46,-257.475C1800.75,-248.197 1817.42,-233.171 1829.99,-221.831"/>
<polygon fill="midnightblue" stroke="midnightblue" points="1832.48,-224.305 1837.56,-215.009 1827.79,-219.105 1832.48,-224.305"/>
</g>
<!-- Node33 -->
<g id="node33" class="node"><title>Node33</title>
<polygon fill="none" stroke="#bfbfbf" points="1890,-196 1890,-215 1950,-215 1950,-196 1890,-196"/>
<text text-anchor="middle" x="1920" y="-203" font-family="Helvetica,sans-Serif" font-size="10.00">sys/stat.h</text>
</g>
<!-- Node28&#45;&gt;Node33 -->
<g id="edge41" class="edge"><title>Node28&#45;&gt;Node33</title>
<path fill="none" stroke="midnightblue" d="M1800.92,-257.475C1824.45,-247.401 1863.81,-230.553 1890.79,-219.002"/>
<polygon fill="midnightblue" stroke="midnightblue" points="1892.31,-222.162 1900.12,-215.009 1889.55,-215.727 1892.31,-222.162"/>
</g>
<!-- Node34 -->
<g id="node34" class="node"><title>Node34</title>
<polygon fill="none" stroke="#bfbfbf" points="1968,-196 1968,-215 2036,-215 2036,-196 1968,-196"/>
<text text-anchor="middle" x="2002" y="-203" font-family="Helvetica,sans-Serif" font-size="10.00">sys/types.h</text>
</g>
<!-- Node28&#45;&gt;Node34 -->
<g id="edge42" class="edge"><title>Node28&#45;&gt;Node34</title>
<path fill="none" stroke="midnightblue" d="M1818.39,-257.44C1854.57,-248.948 1910.84,-235.184 1959,-221 1961.93,-220.137 1964.96,-219.204 1967.98,-218.24"/>
<polygon fill="midnightblue" stroke="midnightblue" points="1969.13,-221.548 1977.55,-215.112 1966.95,-214.895 1969.13,-221.548"/>
</g>
<!-- Node35&#45;&gt;Node4 -->
<g id="edge48" class="edge"><title>Node35&#45;&gt;Node4</title>
<path fill="none" stroke="midnightblue" d="M1527.22,-447.467C1514.8,-439.769 1498.39,-427.179 1491,-411 1485.27,-398.469 1488.64,-393.575 1491,-380 1515.49,-238.962 1589.99,-80.9715 1615.96,-28.7788"/>
<polygon fill="midnightblue" stroke="midnightblue" points="1619.24,-30.045 1620.6,-19.5382 1612.98,-26.9018 1619.24,-30.045"/>
</g>
<!-- Node35&#45;&gt;Node7 -->
<g id="edge49" class="edge"><title>Node35&#45;&gt;Node7</title>
<path fill="none" stroke="midnightblue" d="M1495.3,-447.743C1454.58,-440.095 1394.71,-427.431 1344,-411 1154.33,-349.549 571.601,-85.2002 436.963,-23.7822"/>
<polygon fill="midnightblue" stroke="midnightblue" points="438.261,-20.5272 427.71,-19.5589 435.354,-26.8952 438.261,-20.5272"/>
</g>
<!-- Node35&#45;&gt;Node21 -->
<g id="edge47" class="edge"><title>Node35&#45;&gt;Node21</title>
<path fill="none" stroke="midnightblue" d="M1518.02,-447.468C1443.25,-421.222 1216.38,-336.421 1055,-221 1021,-196.684 1017.86,-184.232 989,-154 960.983,-124.656 953.114,-118.05 927,-87 910.389,-67.2495 892.56,-43.4549 881.121,-27.8144"/>
<polygon fill="midnightblue" stroke="midnightblue" points="883.891,-25.6724 875.181,-19.64 878.228,-29.7873 883.891,-25.6724"/>
</g>
<!-- Node35&#45;&gt;Node27 -->
<g id="edge46" class="edge"><title>Node35&#45;&gt;Node27</title>
<path fill="none" stroke="midnightblue" d="M1559.23,-447.47C1574.97,-438.947 1599.31,-425.113 1619,-411 1645.27,-392.17 1673.09,-367.706 1691.78,-350.513"/>
<polygon fill="midnightblue" stroke="midnightblue" points="1694.26,-352.994 1699.21,-343.627 1689.49,-347.863 1694.26,-352.994"/>
</g>
<!-- Node36 -->
<g id="node36" class="node"><title>Node36</title>
<g id="a_node36"><a xlink:href="pattern__formatter__impl_8h.html" target="_top" xlink:title="spdlog/details/pattern\l_formatter_impl.h">
<polygon fill="none" stroke="black" points="1500,-380.5 1500,-410.5 1610,-410.5 1610,-380.5 1500,-380.5"/>
<text text-anchor="start" x="1508" y="-398.5" font-family="Helvetica,sans-Serif" font-size="10.00">spdlog/details/pattern</text>
<text text-anchor="middle" x="1555" y="-387.5" font-family="Helvetica,sans-Serif" font-size="10.00">_formatter_impl.h</text>
</a>
</g>
</g>
<!-- Node35&#45;&gt;Node36 -->
<g id="edge50" class="edge"><title>Node35&#45;&gt;Node36</title>
<path fill="none" stroke="midnightblue" d="M1539.82,-447.475C1539.7,-440.396 1541.23,-429.97 1543.55,-420.39"/>
<polygon fill="midnightblue" stroke="midnightblue" points="1546.99,-421.098 1546.34,-410.523 1540.25,-419.192 1546.99,-421.098"/>
</g>
<!-- Node36&#45;&gt;Node4 -->
<g id="edge59" class="edge"><title>Node36&#45;&gt;Node4</title>
<path fill="none" stroke="midnightblue" d="M1557.57,-380.396C1568.3,-321.634 1609.44,-96.2338 1621.6,-29.6345"/>
<polygon fill="midnightblue" stroke="midnightblue" points="1625.05,-30.1993 1623.41,-19.7334 1618.17,-28.9423 1625.05,-30.1993"/>
</g>
<!-- Node36&#45;&gt;Node6 -->
<g id="edge55" class="edge"><title>Node36&#45;&gt;Node6</title>
<path fill="none" stroke="midnightblue" d="M1574.63,-380.499C1588.36,-370.561 1607.04,-356.77 1623,-344 1639.49,-330.808 1640.03,-322.263 1659,-313 1732.31,-277.209 1759.26,-294.235 1839,-277 1946.48,-253.77 1977.79,-261.558 2080,-221 2125.13,-203.092 2173.06,-172.271 2199.49,-154.099"/>
<polygon fill="midnightblue" stroke="midnightblue" points="2201.7,-156.828 2207.9,-148.241 2197.7,-151.084 2201.7,-156.828"/>
</g>
<!-- Node36&#45;&gt;Node7 -->
<g id="edge57" class="edge"><title>Node36&#45;&gt;Node7</title>
<path fill="none" stroke="midnightblue" d="M1499.97,-383.35C1458.32,-374.335 1399.96,-360.46 1350,-344 1215.08,-299.547 1181.59,-285.448 1055,-221 980.349,-182.994 970.713,-156.652 894,-123 795.325,-79.7139 765.955,-80.3923 661,-56 584.979,-38.3322 494.67,-23.728 445.45,-16.2984"/>
<polygon fill="midnightblue" stroke="midnightblue" points="445.709,-12.7982 435.301,-14.7804 444.674,-19.7212 445.709,-12.7982"/>
</g>
<!-- Node36&#45;&gt;Node12 -->
<g id="edge54" class="edge"><title>Node36&#45;&gt;Node12</title>
<path fill="none" stroke="midnightblue" d="M1532.24,-380.447C1515.98,-370.369 1493.59,-356.431 1474,-344 1452.56,-330.393 1447.63,-326.31 1426,-313 1333.88,-256.312 1312.5,-238.857 1216,-190 1187.68,-175.66 1154.34,-161.529 1130.52,-151.878"/>
<polygon fill="midnightblue" stroke="midnightblue" points="1131.51,-148.507 1120.93,-148.029 1128.9,-155.003 1131.51,-148.507"/>
</g>
<!-- Node36&#45;&gt;Node21 -->
<g id="edge62" class="edge"><title>Node36&#45;&gt;Node21</title>
<path fill="none" stroke="midnightblue" d="M1516.7,-380.464C1490.04,-370.566 1453.71,-356.838 1422,-344 1389.71,-330.924 1382.14,-326.44 1350,-313 1288.93,-287.466 1274.1,-279.922 1212,-257 1164.53,-239.479 1147.5,-246.841 1104,-221 1011.54,-166.072 1008.9,-125.701 927,-56 914.625,-45.4687 900.19,-34.2652 888.816,-25.6715"/>
<polygon fill="midnightblue" stroke="midnightblue" points="890.901,-22.8602 880.8,-19.6629 886.702,-28.4613 890.901,-22.8602"/>
</g>
<!-- Node36&#45;&gt;Node22 -->
<g id="edge61" class="edge"><title>Node36&#45;&gt;Node22</title>
<path fill="none" stroke="midnightblue" d="M1548.85,-380.422C1529.85,-336.867 1470.4,-200.413 1422,-87 1413.6,-67.3148 1404.1,-44.7024 1397.64,-29.2951"/>
<polygon fill="midnightblue" stroke="midnightblue" points="1400.8,-27.7787 1393.72,-19.9042 1394.35,-30.4802 1400.8,-27.7787"/>
</g>
<!-- Node36&#45;&gt;Node27 -->
<g id="edge52" class="edge"><title>Node36&#45;&gt;Node27</title>
<path fill="none" stroke="midnightblue" d="M1589.5,-380.396C1613.15,-370.728 1644.72,-357.823 1670.15,-347.426"/>
<polygon fill="midnightblue" stroke="midnightblue" points="1671.63,-350.6 1679.57,-343.577 1668.99,-344.121 1671.63,-350.6"/>
</g>
<!-- Node36&#45;&gt;Node28 -->
<g id="edge53" class="edge"><title>Node36&#45;&gt;Node28</title>
<path fill="none" stroke="midnightblue" d="M1563.51,-380.494C1575.31,-362.27 1598.32,-330.676 1626,-313 1654.86,-294.572 1691.48,-283.483 1721.88,-276.927"/>
<polygon fill="midnightblue" stroke="midnightblue" points="1722.83,-280.304 1731.93,-274.873 1721.43,-273.446 1722.83,-280.304"/>
</g>
<!-- Node36&#45;&gt;Node29 -->
<g id="edge56" class="edge"><title>Node36&#45;&gt;Node29</title>
<path fill="none" stroke="midnightblue" d="M1610.28,-382.691C1653.67,-373.125 1715.48,-358.841 1769,-344 1942.1,-296.002 1985.32,-282.763 2154,-221 2155.85,-220.322 2157.75,-219.603 2159.66,-218.863"/>
<polygon fill="midnightblue" stroke="midnightblue" points="2161.14,-222.04 2169.12,-215.072 2158.54,-215.542 2161.14,-222.04"/>
</g>
<!-- Node36&#45;&gt;Node30 -->
<g id="edge60" class="edge"><title>Node36&#45;&gt;Node30</title>
<path fill="none" stroke="midnightblue" d="M1610.11,-386.811C1667.11,-378.345 1758.45,-363.331 1836,-344 2009.48,-300.759 2052.58,-286.339 2219,-221 2220.42,-220.444 2221.86,-219.853 2223.31,-219.241"/>
<polygon fill="midnightblue" stroke="midnightblue" points="2225.08,-222.287 2232.79,-215.022 2222.23,-215.892 2225.08,-222.287"/>
</g>
<!-- Node36&#45;&gt;Node35 -->
<g id="edge51" class="edge"><title>Node36&#45;&gt;Node35</title>
<path fill="none" stroke="midnightblue" d="M1558,-410.523C1557.41,-418.676 1555.47,-429.041 1552.94,-437.816"/>
<polygon fill="midnightblue" stroke="midnightblue" points="1549.56,-436.88 1549.62,-447.475 1556.18,-439.157 1549.56,-436.88"/>
</g>
<!-- Node36&#45;&gt;Node37 -->
<g id="edge58" class="edge"><title>Node36&#45;&gt;Node37</title>
<path fill="none" stroke="midnightblue" d="M1499.91,-387.296C1395.8,-373.679 1173.15,-344.56 1090.11,-333.699"/>
<polygon fill="midnightblue" stroke="midnightblue" points="1090.38,-330.205 1080.01,-332.379 1089.47,-337.146 1090.38,-330.205"/>
</g>
<!-- Node38&#45;&gt;Node4 -->
<g id="edge79" class="edge"><title>Node38&#45;&gt;Node4</title>
<path fill="none" stroke="midnightblue" d="M776.709,-626.238C764.214,-603.358 742,-556.681 742,-514 742,-514 742,-514 742,-266 742,-200.123 730.593,-165.414 781,-123 845.903,-68.3883 1081.95,-117.746 1161,-87 1182.29,-78.7194 1180.76,-64.4032 1202,-56 1273.7,-27.6362 1509.88,-15.6037 1594.5,-12.1318"/>
<polygon fill="midnightblue" stroke="midnightblue" points="1594.65,-15.6288 1604.5,-11.7327 1594.37,-8.63435 1594.65,-15.6288"/>
</g>
<!-- Node38&#45;&gt;Node7 -->
<g id="edge78" class="edge"><title>Node38&#45;&gt;Node7</title>
<path fill="none" stroke="midnightblue" d="M768.045,-626.437C756.441,-616.583 740.884,-602.918 728,-590 647.778,-509.57 390,-320.098 390,-206.5 390,-206.5 390,-206.5 390,-137.5 390,-98.7728 398.816,-54.1089 404.438,-29.5661"/>
<polygon fill="midnightblue" stroke="midnightblue" points="407.917,-30.0609 406.82,-19.523 401.106,-28.4449 407.917,-30.0609"/>
</g>
<!-- Node38&#45;&gt;Node24 -->
<g id="edge71" class="edge"><title>Node38&#45;&gt;Node24</title>
<path fill="none" stroke="midnightblue" d="M790.83,-656.523C791.873,-664.586 792.029,-674.813 791.299,-683.526"/>
<polygon fill="midnightblue" stroke="midnightblue" points="787.827,-683.085 789.901,-693.475 794.759,-684.06 787.827,-683.085"/>
</g>
<!-- Node39 -->
<g id="node39" class="node"><title>Node39</title>
<g id="a_node39"><a xlink:href="stdout__sinks_8h.html" target="_top" xlink:title="spdlog/sinks/stdout\l_sinks.h">
<polygon fill="none" stroke="black" points="770.5,-559.5 770.5,-589.5 871.5,-589.5 871.5,-559.5 770.5,-559.5"/>
<text text-anchor="start" x="778.5" y="-577.5" font-family="Helvetica,sans-Serif" font-size="10.00">spdlog/sinks/stdout</text>
<text text-anchor="middle" x="821" y="-566.5" font-family="Helvetica,sans-Serif" font-size="10.00">_sinks.h</text>
</a>
</g>
</g>
<!-- Node38&#45;&gt;Node39 -->
<g id="edge72" class="edge"><title>Node38&#45;&gt;Node39</title>
<path fill="none" stroke="midnightblue" d="M792.811,-626.396C797.34,-618.219 803.152,-607.725 808.321,-598.393"/>
<polygon fill="midnightblue" stroke="midnightblue" points="811.421,-600.02 813.204,-589.577 805.297,-596.629 811.421,-600.02"/>
</g>
<!-- Node39&#45;&gt;Node7 -->
<g id="edge76" class="edge"><title>Node39&#45;&gt;Node7</title>
<path fill="none" stroke="midnightblue" d="M807.891,-559.364C750.246,-497.015 519.741,-245.639 465,-154 440.014,-112.172 422.164,-57.1931 413.994,-29.1526"/>
<polygon fill="midnightblue" stroke="midnightblue" points="417.354,-28.1699 411.259,-19.5039 410.619,-30.0794 417.354,-28.1699"/>
</g>
<!-- Node39&#45;&gt;Node11 -->
<g id="edge73" class="edge"><title>Node39&#45;&gt;Node11</title>
<path fill="none" stroke="midnightblue" d="M820.393,-559.278C819.516,-537.483 818,-494.507 818,-458 818,-458 818,-458 818,-266 818,-230.051 825.597,-188.986 831.183,-163.648"/>
<polygon fill="midnightblue" stroke="midnightblue" points="834.615,-164.341 833.426,-153.813 827.79,-162.784 834.615,-164.341"/>
</g>
<!-- Node39&#45;&gt;Node17 -->
<g id="edge75" class="edge"><title>Node39&#45;&gt;Node17</title>
<path fill="none" stroke="midnightblue" d="M871.569,-574.211C1065.53,-575.667 1779,-569.318 2337,-411 2448.97,-379.231 2502.53,-377.05 2562,-277 2612.35,-192.288 2594.81,-153.429 2580,-56 2578.63,-47.001 2575.81,-37.3251 2573.05,-29.2601"/>
<polygon fill="midnightblue" stroke="midnightblue" points="2576.31,-27.9759 2569.6,-19.7782 2569.73,-30.3722 2576.31,-27.9759"/>
</g>
<!-- Node39&#45;&gt;Node25 -->
<g id="edge74" class="edge"><title>Node39&#45;&gt;Node25</title>
<path fill="none" stroke="midnightblue" d="M871.77,-569.316C997.231,-558.977 1322.33,-532.185 1469.13,-520.087"/>
<polygon fill="midnightblue" stroke="midnightblue" points="1469.71,-523.552 1479.39,-519.242 1469.14,-516.575 1469.71,-523.552"/>
</g>
<!-- Node39&#45;&gt;Node37 -->
<g id="edge77" class="edge"><title>Node39&#45;&gt;Node37</title>
<path fill="none" stroke="midnightblue" d="M834.767,-559.327C876.06,-516.814 998.71,-390.541 1042.36,-345.602"/>
<polygon fill="midnightblue" stroke="midnightblue" points="1045.1,-347.807 1049.55,-338.195 1040.08,-342.93 1045.1,-347.807"/>
</g>
<!-- Node40&#45;&gt;Node1 -->
<g id="edge85" class="edge"><title>Node40&#45;&gt;Node1</title>
<path fill="none" stroke="midnightblue" d="M824.418,-891.845C825.392,-899.278 825.832,-908.715 825.737,-917.958"/>
<polygon fill="midnightblue" stroke="midnightblue" points="822.232,-918.084 825.404,-928.193 829.228,-918.313 822.232,-918.084"/>
</g>
<!-- Node40&#45;&gt;Node4 -->
<g id="edge137" class="edge"><title>Node40&#45;&gt;Node4</title>
<path fill="none" stroke="midnightblue" d="M873.088,-875.312C1116.9,-874.234 2115.26,-867.27 2425,-825 2540.88,-809.185 2680,-876.957 2680,-760 2680,-760 2680,-760 2680,-640.5 2680,-557.649 2718,-540.851 2718,-458 2718,-458 2718,-458 2718,-394.5 2718,-248.483 2659.45,-196.016 2533,-123 2447.06,-73.3749 2417.55,-74.2261 2320,-56 2189.61,-31.6394 1772.24,-15.9817 1655.56,-12.0026"/>
<polygon fill="midnightblue" stroke="midnightblue" points="1655.64,-8.50344 1645.53,-11.6641 1655.41,-15.4995 1655.64,-8.50344"/>
</g>
<!-- Node40&#45;&gt;Node6 -->
<g id="edge134" class="edge"><title>Node40&#45;&gt;Node6</title>
<path fill="none" stroke="midnightblue" d="M873.064,-874.973C1175.29,-871.683 2642,-851.026 2642,-760 2642,-760 2642,-760 2642,-512 2642,-464.221 2396.44,-216.967 2357,-190 2324.9,-168.051 2282.07,-154.273 2252.9,-146.755"/>
<polygon fill="midnightblue" stroke="midnightblue" points="2253.74,-143.357 2243.2,-144.354 2252.06,-150.153 2253.74,-143.357"/>
</g>
<!-- Node40&#45;&gt;Node7 -->
<g id="edge136" class="edge"><title>Node40&#45;&gt;Node7</title>
<path fill="none" stroke="midnightblue" d="M764.928,-876.086C684.884,-875.361 531.166,-867.817 409,-825 223.454,-759.969 162,-654.612 162,-458 162,-458 162,-458 162,-137.5 162,-44.0146 303.904,-19.5709 372.596,-13.2149"/>
<polygon fill="midnightblue" stroke="midnightblue" points="372.897,-16.702 382.567,-12.3721 372.307,-9.72687 372.897,-16.702"/>
</g>
<!-- Node40&#45;&gt;Node10 -->
<g id="edge135" class="edge"><title>Node40&#45;&gt;Node10</title>
<path fill="none" stroke="midnightblue" d="M764.671,-870.01C652.733,-857.684 401.556,-824.462 338,-769 314.797,-748.752 314,-734.795 314,-704 314,-704 314,-704 314,-266 314,-194.372 408.718,-160.829 464.401,-147.298"/>
<polygon fill="midnightblue" stroke="midnightblue" points="465.362,-150.668 474.312,-144.999 463.78,-143.849 465.362,-150.668"/>
</g>
<!-- Node40&#45;&gt;Node39 -->
<g id="edge128" class="edge"><title>Node40&#45;&gt;Node39</title>
<path fill="none" stroke="midnightblue" d="M797.135,-861.496C783.022,-851.987 764.634,-838.692 750,-825 726.274,-802.8 714.115,-799.533 703,-769 699.959,-760.647 702.284,-757.86 703,-749 707.459,-693.795 690.456,-670.815 723,-626 733.295,-611.824 748.756,-601.329 764.374,-593.695"/>
<polygon fill="midnightblue" stroke="midnightblue" points="765.894,-596.849 773.55,-589.525 762.998,-590.476 765.894,-596.849"/>
</g>
<!-- Node41 -->
<g id="node41" class="node"><title>Node41</title>
<g id="a_node41"><a xlink:href="registry_8h.html" target="_top" xlink:title="spdlog/details/registry.h">
<polygon fill="none" stroke="black" points="759,-805.5 759,-824.5 879,-824.5 879,-805.5 759,-805.5"/>
<text text-anchor="middle" x="819" y="-812.5" font-family="Helvetica,sans-Serif" font-size="10.00">spdlog/details/registry.h</text>
</a>
</g>
</g>
<!-- Node40&#45;&gt;Node41 -->
<g id="edge86" class="edge"><title>Node40&#45;&gt;Node41</title>
<path fill="none" stroke="midnightblue" d="M819,-861.399C819,-853.466 819,-843.458 819,-834.858"/>
<polygon fill="midnightblue" stroke="midnightblue" points="822.5,-834.658 819,-824.658 815.5,-834.658 822.5,-834.658"/>
</g>
<!-- Node45 -->
<g id="node45" class="node"><title>Node45</title>
<g id="a_node45"><a xlink:href="file__sinks_8h.html" target="_top" xlink:title="spdlog/sinks/file_sinks.h">
<polygon fill="none" stroke="black" points="2034,-565 2034,-584 2158,-584 2158,-565 2034,-565"/>
<text text-anchor="middle" x="2096" y="-572" font-family="Helvetica,sans-Serif" font-size="10.00">spdlog/sinks/file_sinks.h</text>
</a>
</g>
</g>
<!-- Node40&#45;&gt;Node45 -->
<g id="edge109" class="edge"><title>Node40&#45;&gt;Node45</title>
<path fill="none" stroke="midnightblue" d="M873.265,-872.88C1077.48,-862.637 1792.49,-823.18 1878,-769 1940.65,-729.305 1907.15,-673.628 1964,-626 1986.93,-606.788 2017.96,-594.421 2044.17,-586.737"/>
<polygon fill="midnightblue" stroke="midnightblue" points="2045.26,-590.068 2053.96,-584.017 2043.39,-583.324 2045.26,-590.068"/>
</g>
<!-- Node49 -->
<g id="node49" class="node"><title>Node49</title>
<g id="a_node49"><a xlink:href="ansicolor__sink_8h.html" target="_top" xlink:title="spdlog/sinks/ansicolor\l_sink.h">
<polygon fill="none" stroke="black" points="2295.5,-559.5 2295.5,-589.5 2408.5,-589.5 2408.5,-559.5 2295.5,-559.5"/>
<text text-anchor="start" x="2303.5" y="-577.5" font-family="Helvetica,sans-Serif" font-size="10.00">spdlog/sinks/ansicolor</text>
<text text-anchor="middle" x="2352" y="-566.5" font-family="Helvetica,sans-Serif" font-size="10.00">_sink.h</text>
</a>
</g>
</g>
<!-- Node40&#45;&gt;Node49 -->
<g id="edge129" class="edge"><title>Node40&#45;&gt;Node49</title>
<path fill="none" stroke="midnightblue" d="M873.23,-875.296C1007.04,-874.129 1363.38,-866.979 1657,-825 1768,-809.13 1796.4,-803.779 1903,-769 2060.87,-717.495 2239.66,-631.708 2315.21,-594.113"/>
<polygon fill="midnightblue" stroke="midnightblue" points="2316.94,-597.159 2324.33,-589.56 2313.82,-590.897 2316.94,-597.159"/>
</g>
<!-- Node41&#45;&gt;Node3 -->
<g id="edge102" class="edge"><title>Node41&#45;&gt;Node3</title>
<path fill="none" stroke="midnightblue" d="M879.19,-810.643C994.67,-802.547 1236,-776.907 1236,-704 1236,-704 1236,-704 1236,-456 1236,-358.197 1137.87,-370.129 1108,-277 1105.29,-268.536 1104.54,-265.187 1108,-257 1114.09,-242.591 1126.53,-230.268 1137.71,-221.402"/>
<polygon fill="midnightblue" stroke="midnightblue" points="1139.96,-224.095 1145.89,-215.32 1135.78,-218.477 1139.96,-224.095"/>
</g>
<!-- Node41&#45;&gt;Node4 -->
<g id="edge107" class="edge"><title>Node41&#45;&gt;Node4</title>
<path fill="none" stroke="midnightblue" d="M879.249,-813.518C1090.95,-811.04 1788,-795.903 1788,-704 1788,-704 1788,-704 1788,-394.5 1788,-357.306 1790.56,-343.309 1769,-313 1751.63,-288.584 1730.41,-300.638 1712,-277 1696.11,-256.607 1646.52,-86.298 1630.24,-29.4157"/>
<polygon fill="midnightblue" stroke="midnightblue" points="1633.55,-28.2855 1627.44,-19.6296 1626.82,-30.2062 1633.55,-28.2855"/>
</g>
<!-- Node41&#45;&gt;Node6 -->
<g id="edge103" class="edge"><title>Node41&#45;&gt;Node6</title>
<path fill="none" stroke="midnightblue" d="M879.186,-814.055C1080.09,-813.852 1719.64,-809.965 1802,-769 1831.49,-754.33 2158.3,-336.871 2181,-313 2222.62,-269.236 2256.73,-276.302 2281,-221 2286.54,-208.384 2286.86,-202.468 2281,-190 2273.68,-174.433 2258.94,-162.019 2245.79,-153.395"/>
<polygon fill="midnightblue" stroke="midnightblue" points="2247.4,-150.278 2237.04,-148.038 2243.74,-156.247 2247.4,-150.278"/>
</g>
<!-- Node41&#45;&gt;Node7 -->
<g id="edge105" class="edge"><title>Node41&#45;&gt;Node7</title>
<path fill="none" stroke="midnightblue" d="M758.803,-807.966C603.252,-788.728 200,-714.154 200,-458 200,-458 200,-458 200,-137.5 200,-57.6778 312.955,-26.8516 372.786,-16.1223"/>
<polygon fill="midnightblue" stroke="midnightblue" points="373.677,-19.5213 382.953,-14.4008 372.509,-12.6196 373.677,-19.5213"/>
</g>
<!-- Node41&#45;&gt;Node10 -->
<g id="edge104" class="edge"><title>Node41&#45;&gt;Node10</title>
<path fill="none" stroke="midnightblue" d="M776.062,-805.444C747.653,-798.511 710.369,-786.907 681,-769 584.401,-710.102 551.05,-690.967 500,-590 423.759,-439.212 479.04,-222.109 498.162,-157.99"/>
<polygon fill="midnightblue" stroke="midnightblue" points="501.596,-158.729 501.179,-148.142 494.903,-156.679 501.596,-158.729"/>
</g>
<!-- Node41&#45;&gt;Node11 -->
<g id="edge87" class="edge"><title>Node41&#45;&gt;Node11</title>
<path fill="none" stroke="midnightblue" d="M774.919,-805.461C751.159,-798.922 722.75,-787.728 703,-769 606.87,-677.841 476.171,-291.759 561,-190 588.202,-157.369 706.461,-145.76 779.068,-141.675"/>
<polygon fill="midnightblue" stroke="midnightblue" points="779.633,-145.15 789.433,-141.126 779.262,-138.16 779.633,-145.15"/>
</g>
<!-- Node41&#45;&gt;Node24 -->
<g id="edge88" class="edge"><title>Node41&#45;&gt;Node24</title>
<path fill="none" stroke="midnightblue" d="M767.47,-805.44C746.267,-799.104 723.732,-788.098 711,-769 696.554,-747.332 725.486,-728.44 751.297,-716.69"/>
<polygon fill="midnightblue" stroke="midnightblue" points="752.779,-719.863 760.579,-712.693 750.01,-713.434 752.779,-719.863"/>
</g>
<!-- Node41&#45;&gt;Node37 -->
<g id="edge106" class="edge"><title>Node41&#45;&gt;Node37</title>
<path fill="none" stroke="midnightblue" d="M879.133,-814.228C957.319,-811.002 1084,-792.169 1084,-704 1084,-704 1084,-704 1084,-456 1084,-416.919 1071.95,-372.412 1064.25,-347.986"/>
<polygon fill="midnightblue" stroke="midnightblue" points="1067.51,-346.69 1061.08,-338.268 1060.86,-348.86 1067.51,-346.69"/>
</g>
<!-- Node42 -->
<g id="node42" class="node"><title>Node42</title>
<g id="a_node42"><a xlink:href="async__logger_8h.html" target="_top" xlink:title="spdlog/async_logger.h">
<polygon fill="none" stroke="black" points="821,-749.5 821,-768.5 935,-768.5 935,-749.5 821,-749.5"/>
<text text-anchor="middle" x="878" y="-756.5" font-family="Helvetica,sans-Serif" font-size="10.00">spdlog/async_logger.h</text>
</a>
</g>
</g>
<!-- Node41&#45;&gt;Node42 -->
<g id="edge89" class="edge"><title>Node41&#45;&gt;Node42</title>
<path fill="none" stroke="midnightblue" d="M828.479,-805.324C837.201,-797.341 850.343,-785.313 860.898,-775.653"/>
<polygon fill="midnightblue" stroke="midnightblue" points="863.334,-778.167 868.348,-768.834 858.608,-773.004 863.334,-778.167"/>
</g>
<!-- Node44 -->
<g id="node44" class="node"><title>Node44</title>
<polygon fill="none" stroke="#bfbfbf" points="719.5,-749.5 719.5,-768.5 802.5,-768.5 802.5,-749.5 719.5,-749.5"/>
<text text-anchor="middle" x="761" y="-756.5" font-family="Helvetica,sans-Serif" font-size="10.00">unordered_map</text>
</g>
<!-- Node41&#45;&gt;Node44 -->
<g id="edge108" class="edge"><title>Node41&#45;&gt;Node44</title>
<path fill="none" stroke="midnightblue" d="M809.681,-805.324C801.107,-797.341 788.188,-785.313 777.812,-775.653"/>
<polygon fill="midnightblue" stroke="midnightblue" points="780.192,-773.086 770.488,-768.834 775.422,-778.21 780.192,-773.086"/>
</g>
<!-- Node42&#45;&gt;Node3 -->
<g id="edge90" class="edge"><title>Node42&#45;&gt;Node3</title>
<path fill="none" stroke="midnightblue" d="M901.844,-749.411C939.374,-734.181 1008,-698.654 1008,-642.5 1008,-642.5 1008,-642.5 1008,-512 1008,-423.337 954.013,-392.134 994,-313 1019.32,-262.887 1080.31,-233.276 1120.89,-218.464"/>
<polygon fill="midnightblue" stroke="midnightblue" points="1122.2,-221.713 1130.48,-215.099 1119.88,-215.108 1122.2,-221.713"/>
</g>
<!-- Node42&#45;&gt;Node4 -->
<g id="edge94" class="edge"><title>Node42&#45;&gt;Node4</title>
<path fill="none" stroke="midnightblue" d="M910.973,-749.427C934.682,-742.22 966.635,-730.296 991,-713 1118.68,-622.361 1117.51,-563.617 1222,-447 1371.15,-280.536 1556.76,-83.2654 1610.06,-26.8027"/>
<polygon fill="midnightblue" stroke="midnightblue" points="1612.62,-29.1875 1616.95,-19.5143 1607.54,-24.3809 1612.62,-29.1875"/>
</g>
<!-- Node42&#45;&gt;Node6 -->
<g id="edge92" class="edge"><title>Node42&#45;&gt;Node6</title>
<path fill="none" stroke="midnightblue" d="M935.273,-756.229C1145.71,-748.193 1864,-706.656 1864,-514 1864,-514 1864,-514 1864,-394.5 1864,-348.988 1837.56,-341.406 1802,-313 1771.85,-288.918 1743.87,-309.451 1723,-277 1705.97,-250.527 1725.69,-207.855 1749,-190 1783.68,-163.433 2085.26,-146.178 2186.8,-141.079"/>
<polygon fill="midnightblue" stroke="midnightblue" points="2186.99,-144.574 2196.81,-140.583 2186.65,-137.582 2186.99,-144.574"/>
</g>
<!-- Node42&#45;&gt;Node7 -->
<g id="edge95" class="edge"><title>Node42&#45;&gt;Node7</title>
<path fill="none" stroke="midnightblue" d="M823.807,-749.458C765.634,-739.948 677.233,-724.416 645,-713 595.145,-695.344 578.744,-693.002 540,-657 393.669,-521.028 355.521,-468.882 300,-277 271.743,-179.344 304.066,-141.542 359,-56 366.592,-44.1772 378.092,-33.5279 388.149,-25.5604"/>
<polygon fill="midnightblue" stroke="midnightblue" points="390.266,-28.3482 396.141,-19.5315 386.05,-22.76 390.266,-28.3482"/>
</g>
<!-- Node42&#45;&gt;Node10 -->
<g id="edge93" class="edge"><title>Node42&#45;&gt;Node10</title>
<path fill="none" stroke="midnightblue" d="M824.885,-749.491C719.921,-729.328 496,-668.24 496,-514 496,-514 496,-514 496,-394.5 496,-306.24 500.847,-200.881 502.995,-158.517"/>
<polygon fill="midnightblue" stroke="midnightblue" points="506.502,-158.473 503.524,-148.305 499.512,-158.111 506.502,-158.473"/>
</g>
<!-- Node42&#45;&gt;Node24 -->
<g id="edge91" class="edge"><title>Node42&#45;&gt;Node24</title>
<path fill="none" stroke="midnightblue" d="M863.058,-749.324C848.415,-740.822 825.866,-727.729 808.762,-717.797"/>
<polygon fill="midnightblue" stroke="midnightblue" points="810.31,-714.649 799.905,-712.655 806.795,-720.703 810.31,-714.649"/>
</g>
<!-- Node43 -->
<g id="node43" class="node"><title>Node43</title>
<g id="a_node43"><a xlink:href="async__logger__impl_8h.html" target="_top" xlink:title="spdlog/details/async\l_logger_impl.h">
<polygon fill="none" stroke="red" points="570,-190.5 570,-220.5 676,-220.5 676,-190.5 570,-190.5"/>
<text text-anchor="start" x="578" y="-208.5" font-family="Helvetica,sans-Serif" font-size="10.00">spdlog/details/async</text>
<text text-anchor="middle" x="623" y="-197.5" font-family="Helvetica,sans-Serif" font-size="10.00">_logger_impl.h</text>
</a>
</g>
</g>
<!-- Node42&#45;&gt;Node43 -->
<g id="edge96" class="edge"><title>Node42&#45;&gt;Node43</title>
<path fill="none" stroke="midnightblue" d="M820.657,-749.899C790.376,-743.393 753.937,-732.087 726,-713 699.637,-694.988 693.477,-686.39 681,-657 635.397,-549.576 648,-513.203 648,-396.5 648,-396.5 648,-396.5 648,-327.5 648,-292.716 634.816,-254.334 627.041,-230.322"/>
<polygon fill="midnightblue" stroke="midnightblue" points="630.343,-229.155 624.005,-220.665 623.665,-231.254 630.343,-229.155"/>
</g>
<!-- Node43&#45;&gt;Node4 -->
<g id="edge98" class="edge"><title>Node43&#45;&gt;Node4</title>
<path fill="none" stroke="midnightblue" d="M638.848,-190.327C661.173,-171.295 703.984,-138.124 747,-123 906.625,-66.8792 967.624,-146.553 1126,-87 1148.05,-78.7078 1146.96,-64.3326 1169,-56 1247.3,-26.395 1505.02,-15.0541 1594.26,-11.9553"/>
<polygon fill="midnightblue" stroke="midnightblue" points="1594.41,-15.4524 1604.28,-11.6176 1594.17,-8.4564 1594.41,-15.4524"/>
</g>
<!-- Node43&#45;&gt;Node6 -->
<g id="edge100" class="edge"><title>Node43&#45;&gt;Node6</title>
<path fill="none" stroke="midnightblue" d="M676.135,-202.337C926.444,-192.149 1984.27,-149.095 2186.51,-140.863"/>
<polygon fill="midnightblue" stroke="midnightblue" points="2186.94,-144.349 2196.79,-140.445 2186.66,-137.354 2186.94,-144.349"/>
</g>
<!-- Node43&#45;&gt;Node7 -->
<g id="edge101" class="edge"><title>Node43&#45;&gt;Node7</title>
<path fill="none" stroke="midnightblue" d="M609.816,-190.239C594.28,-173.632 567.475,-145.594 543,-123 503.569,-86.5999 454.609,-46.996 428.145,-26.0177"/>
<polygon fill="midnightblue" stroke="midnightblue" points="430.096,-23.0988 420.078,-19.6489 425.758,-28.5928 430.096,-23.0988"/>
</g>
<!-- Node43&#45;&gt;Node10 -->
<g id="edge99" class="edge"><title>Node43&#45;&gt;Node10</title>
<path fill="none" stroke="midnightblue" d="M597.179,-190.396C576.761,-179.243 548.453,-163.781 528.411,-152.834"/>
<polygon fill="midnightblue" stroke="midnightblue" points="530.028,-149.729 519.574,-148.007 526.673,-155.872 530.028,-149.729"/>
</g>
<!-- Node43&#45;&gt;Node42 -->
<g id="edge97" class="edge"><title>Node43&#45;&gt;Node42</title>
<path fill="none" stroke="midnightblue" d="M635.43,-220.665C648.626,-242.895 666,-287.568 666,-327.5 666,-396.5 666,-396.5 666,-396.5 666,-513.203 653.397,-549.576 699,-657 711.477,-686.39 717.637,-694.988 744,-713 768.094,-729.461 798.512,-740.135 824.337,-746.934"/>
<polygon fill="midnightblue" stroke="midnightblue" points="823.803,-750.408 834.353,-749.441 825.502,-743.617 823.803,-750.408"/>
</g>
<!-- Node45&#45;&gt;Node4 -->
<g id="edge126" class="edge"><title>Node45&#45;&gt;Node4</title>
<path fill="none" stroke="midnightblue" d="M2143.81,-564.921C2178.68,-557.318 2226.24,-544.087 2264,-523 2393.61,-450.619 2517.25,-396.321 2466,-257 2437.57,-179.703 2408.92,-164.872 2338,-123 2254,-73.4083 2224.61,-75.3445 2129,-56 1952.61,-20.3097 1735.77,-12.9237 1656.18,-11.3971"/>
<polygon fill="midnightblue" stroke="midnightblue" points="1655.94,-7.89244 1645.88,-11.2182 1655.82,-14.8914 1655.94,-7.89244"/>
</g>
<!-- Node45&#45;&gt;Node6 -->
<g id="edge122" class="edge"><title>Node45&#45;&gt;Node6</title>
<path fill="none" stroke="midnightblue" d="M2134.9,-564.955C2164.4,-557.228 2205.01,-543.822 2236,-523 2291.64,-485.619 2312.02,-473.202 2337,-411 2373.6,-319.843 2391.79,-269.434 2334,-190 2315,-163.884 2279.43,-151.056 2253.05,-144.898"/>
<polygon fill="midnightblue" stroke="midnightblue" points="2253.6,-141.438 2243.09,-142.783 2252.15,-148.285 2253.6,-141.438"/>
</g>
<!-- Node45&#45;&gt;Node11 -->
<g id="edge111" class="edge"><title>Node45&#45;&gt;Node11</title>
<path fill="none" stroke="midnightblue" d="M2033.97,-571.484C1884.37,-566.24 1507.03,-550.621 1384,-523 1259.24,-494.99 1229.23,-475.8 1119,-411 1001.03,-341.652 894.182,-213.435 853.938,-161.854"/>
<polygon fill="midnightblue" stroke="midnightblue" points="856.519,-159.469 847.633,-153.697 850.98,-163.75 856.519,-159.469"/>
</g>
<!-- Node45&#45;&gt;Node12 -->
<g id="edge120" class="edge"><title>Node45&#45;&gt;Node12</title>
<path fill="none" stroke="midnightblue" d="M2034,-573.867C1855.58,-574.325 1343.46,-571.276 1184,-523 1017.65,-472.637 940,-440.122 880,-277 852.136,-201.246 971.433,-164.077 1044.93,-148.661"/>
<polygon fill="midnightblue" stroke="midnightblue" points="1045.87,-152.042 1054.97,-146.628 1044.48,-145.181 1045.87,-152.042"/>
</g>
<!-- Node45&#45;&gt;Node17 -->
<g id="edge123" class="edge"><title>Node45&#45;&gt;Node17</title>
<path fill="none" stroke="midnightblue" d="M2158.41,-568.186C2261.86,-558.976 2460.26,-539.453 2488,-523 2657.1,-422.693 2679.52,-343.478 2732,-154 2743.63,-112.025 2758.46,-90.5937 2732,-56 2715.78,-34.8028 2641.27,-21.2669 2597.79,-15.0285"/>
<polygon fill="midnightblue" stroke="midnightblue" points="2598.1,-11.5384 2587.71,-13.6341 2597.14,-18.4723 2598.1,-11.5384"/>
</g>
<!-- Node45&#45;&gt;Node25 -->
<g id="edge110" class="edge"><title>Node45&#45;&gt;Node25</title>
<path fill="none" stroke="midnightblue" d="M2033.91,-566.819C1931.3,-555.779 1726.81,-533.777 1616.92,-521.953"/>
<polygon fill="midnightblue" stroke="midnightblue" points="1617.22,-518.466 1606.91,-520.876 1616.48,-525.426 1617.22,-518.466"/>
</g>
<!-- Node45&#45;&gt;Node29 -->
<g id="edge124" class="edge"><title>Node45&#45;&gt;Node29</title>
<path fill="none" stroke="midnightblue" d="M2099.55,-564.979C2107.08,-546.077 2124,-499.059 2124,-458 2124,-458 2124,-458 2124,-327.5 2124,-285.818 2154.3,-244.645 2173.53,-222.718"/>
<polygon fill="midnightblue" stroke="midnightblue" points="2176.37,-224.802 2180.5,-215.048 2171.19,-220.093 2176.37,-224.802"/>
</g>
<!-- Node45&#45;&gt;Node37 -->
<g id="edge125" class="edge"><title>Node45&#45;&gt;Node37</title>
<path fill="none" stroke="midnightblue" d="M2033.93,-569.468C1886.77,-559.766 1524.95,-535.038 1471,-523 1332.5,-492.099 1297.24,-477.726 1172,-411 1135.77,-391.695 1097.77,-362.428 1076.07,-344.72"/>
<polygon fill="midnightblue" stroke="midnightblue" points="1078.02,-341.789 1068.08,-338.116 1073.56,-347.185 1078.02,-341.789"/>
</g>
<!-- Node46 -->
<g id="node46" class="node"><title>Node46</title>
<g id="a_node46"><a xlink:href="file__helper_8h.html" target="_top" xlink:title="spdlog/details/file\l_helper.h">
<polygon fill="none" stroke="black" points="2236,-380.5 2236,-410.5 2328,-410.5 2328,-380.5 2236,-380.5"/>
<text text-anchor="start" x="2244" y="-398.5" font-family="Helvetica,sans-Serif" font-size="10.00">spdlog/details/file</text>
<text text-anchor="middle" x="2282" y="-387.5" font-family="Helvetica,sans-Serif" font-size="10.00">_helper.h</text>
</a>
</g>
</g>
<!-- Node45&#45;&gt;Node46 -->
<g id="edge112" class="edge"><title>Node45&#45;&gt;Node46</title>
<path fill="none" stroke="midnightblue" d="M2132.01,-564.923C2157.38,-557.374 2190.82,-544.208 2214,-523 2245.16,-494.495 2264.85,-448.34 2274.61,-420.364"/>
<polygon fill="midnightblue" stroke="midnightblue" points="2278.02,-421.201 2277.87,-410.607 2271.38,-418.984 2278.02,-421.201"/>
</g>
<!-- Node47 -->
<g id="node47" class="node"><title>Node47</title>
<polygon fill="none" stroke="#bfbfbf" points="2190,-319 2190,-338 2234,-338 2234,-319 2190,-319"/>
<text text-anchor="middle" x="2212" y="-326" font-family="Helvetica,sans-Serif" font-size="10.00">cerrno</text>
</g>
<!-- Node45&#45;&gt;Node47 -->
<g id="edge127" class="edge"><title>Node45&#45;&gt;Node47</title>
<path fill="none" stroke="midnightblue" d="M2103.7,-564.773C2112.34,-554.87 2126.62,-538.127 2138,-523 2156.08,-498.964 2163.57,-494.388 2176,-467 2194.3,-426.696 2204.63,-375.366 2209.17,-348.249"/>
<polygon fill="midnightblue" stroke="midnightblue" points="2212.65,-348.639 2210.77,-338.213 2205.74,-347.537 2212.65,-348.639"/>
</g>
<!-- Node48 -->
<g id="node48" class="node"><title>Node48</title>
<polygon fill="none" stroke="#bfbfbf" points="2040,-503.5 2040,-522.5 2096,-522.5 2096,-503.5 2040,-503.5"/>
<text text-anchor="middle" x="2068" y="-510.5" font-family="Helvetica,sans-Serif" font-size="10.00">algorithm</text>
</g>
<!-- Node45&#45;&gt;Node48 -->
<g id="edge121" class="edge"><title>Node45&#45;&gt;Node48</title>
<path fill="none" stroke="midnightblue" d="M2091.99,-564.975C2087.91,-556.315 2081.48,-542.649 2076.3,-531.645"/>
<polygon fill="midnightblue" stroke="midnightblue" points="2079.43,-530.067 2072,-522.509 2073.1,-533.048 2079.43,-530.067"/>
</g>
<!-- Node46&#45;&gt;Node4 -->
<g id="edge117" class="edge"><title>Node46&#45;&gt;Node4</title>
<path fill="none" stroke="midnightblue" d="M2299.83,-380.468C2340.46,-346.76 2433.15,-258.911 2390,-190 2309.3,-61.1072 1788.79,-20.9478 1655.87,-12.7325"/>
<polygon fill="midnightblue" stroke="midnightblue" points="1655.79,-9.22142 1645.59,-12.1142 1655.37,-16.2088 1655.79,-9.22142"/>
</g>
<!-- Node46&#45;&gt;Node6 -->
<g id="edge115" class="edge"><title>Node46&#45;&gt;Node6</title>
<path fill="none" stroke="midnightblue" d="M2290.08,-380.403C2308.96,-345.42 2351.62,-252.919 2314,-190 2300.87,-168.038 2274.54,-155.074 2253.08,-147.792"/>
<polygon fill="midnightblue" stroke="midnightblue" points="2253.91,-144.385 2243.32,-144.746 2251.83,-151.067 2253.91,-144.385"/>
</g>
<!-- Node46&#45;&gt;Node17 -->
<g id="edge116" class="edge"><title>Node46&#45;&gt;Node17</title>
<path fill="none" stroke="midnightblue" d="M2328.26,-385.998C2408.74,-368.245 2566,-319.142 2566,-206.5 2566,-206.5 2566,-206.5 2566,-137.5 2566,-99.2024 2566,-54.3829 2566,-29.6971"/>
<polygon fill="midnightblue" stroke="midnightblue" points="2569.5,-29.5894 2566,-19.5894 2562.5,-29.5895 2569.5,-29.5894"/>
</g>
<!-- Node46&#45;&gt;Node27 -->
<g id="edge114" class="edge"><title>Node46&#45;&gt;Node27</title>
<path fill="none" stroke="midnightblue" d="M2236,-389.236C2132.66,-377.41 1882.4,-348.771 1770.14,-335.924"/>
<polygon fill="midnightblue" stroke="midnightblue" points="1770.37,-332.428 1760.03,-334.768 1769.57,-339.382 1770.37,-332.428"/>
</g>
<!-- Node46&#45;&gt;Node28 -->
<g id="edge113" class="edge"><title>Node46&#45;&gt;Node28</title>
<path fill="none" stroke="midnightblue" d="M2279.58,-380.236C2275.57,-361.417 2265.62,-328.833 2243,-313 2210.72,-290.4 1958.06,-276.065 1840.63,-270.559"/>
<polygon fill="midnightblue" stroke="midnightblue" points="1840.53,-267.051 1830.38,-270.085 1840.21,-274.043 1840.53,-267.051"/>
</g>
<!-- Node46&#45;&gt;Node30 -->
<g id="edge118" class="edge"><title>Node46&#45;&gt;Node30</title>
<path fill="none" stroke="midnightblue" d="M2279.82,-380.353C2277.3,-364.088 2272.99,-336.594 2269,-313 2263.78,-282.075 2257.28,-246.18 2253.4,-224.957"/>
<polygon fill="midnightblue" stroke="midnightblue" points="2256.83,-224.253 2251.58,-215.05 2249.94,-225.517 2256.83,-224.253"/>
</g>
<!-- Node46&#45;&gt;Node47 -->
<g id="edge119" class="edge"><title>Node46&#45;&gt;Node47</title>
<path fill="none" stroke="midnightblue" d="M2266.81,-380.396C2255.68,-370.06 2240.56,-356.024 2229.03,-345.309"/>
<polygon fill="midnightblue" stroke="midnightblue" points="2231.07,-342.434 2221.36,-338.195 2226.31,-347.564 2231.07,-342.434"/>
</g>
<!-- Node49&#45;&gt;Node3 -->
<g id="edge131" class="edge"><title>Node49&#45;&gt;Node3</title>
<path fill="none" stroke="midnightblue" d="M2312.83,-559.418C2264.64,-542.77 2179.96,-515.722 2105,-503 1969.37,-479.983 1614.73,-518.078 1487,-467 1470.24,-460.297 1253.53,-267.719 1239,-257 1220.93,-243.669 1199.4,-230.044 1183.38,-220.311"/>
<polygon fill="midnightblue" stroke="midnightblue" points="1185.03,-217.217 1174.66,-215.062 1181.42,-223.215 1185.03,-217.217"/>
</g>
<!-- Node49&#45;&gt;Node4 -->
<g id="edge132" class="edge"><title>Node49&#45;&gt;Node4</title>
<path fill="none" stroke="midnightblue" d="M2408.73,-568.371C2469.67,-561.662 2561.02,-547.741 2585,-523 2688.03,-416.715 2681.44,-296.852 2579,-190 2458.54,-64.3531 2381.13,-92.7824 2211,-56 2002.29,-10.8767 1743.21,-9.45567 1655.58,-10.4403"/>
<polygon fill="midnightblue" stroke="midnightblue" points="1655.48,-6.94125 1645.53,-10.5731 1655.58,-13.9406 1655.48,-6.94125"/>
</g>
<!-- Node49&#45;&gt;Node25 -->
<g id="edge130" class="edge"><title>Node49&#45;&gt;Node25</title>
<path fill="none" stroke="midnightblue" d="M2295.33,-568.966C2258.72,-566.06 2210.05,-562.239 2167,-559 1968.29,-544.048 1733.91,-527.415 1617.05,-519.19"/>
<polygon fill="midnightblue" stroke="midnightblue" points="1617.01,-515.679 1606.79,-518.468 1616.52,-522.662 1617.01,-515.679"/>
</g>
<!-- Node50 -->
<g id="node50" class="node"><title>Node50</title>
<polygon fill="none" stroke="#bfbfbf" points="2540.5,-503.5 2540.5,-522.5 2575.5,-522.5 2575.5,-503.5 2540.5,-503.5"/>
<text text-anchor="middle" x="2558" y="-510.5" font-family="Helvetica,sans-Serif" font-size="10.00">map</text>
</g>
<!-- Node49&#45;&gt;Node50 -->
<g id="edge133" class="edge"><title>Node49&#45;&gt;Node50</title>
<path fill="none" stroke="midnightblue" d="M2400.56,-559.475C2440.92,-547.818 2496.92,-531.641 2530.12,-522.054"/>
<polygon fill="midnightblue" stroke="midnightblue" points="2531.41,-525.324 2540.04,-519.187 2529.46,-518.599 2531.41,-525.324"/>
</g>
</g>
</svg>
