<?xml version="1.0" encoding="UTF-8" standalone="no"?>
<!DOCTYPE svg PUBLIC "-//W3C//DTD SVG 1.1//EN"
 "http://www.w3.org/Graphics/SVG/1.1/DTD/svg11.dtd">
<!-- Generated by graphviz version 2.36.0 (20140111.2315)
 -->
<!-- Title: /home/lucamuratore/advr&#45;superbuild/external/XBotInterface/include/spdlog/details/spdlog_impl.h Pages: 1 -->
<svg width="2950pt" height="930pt"
 viewBox="0.00 0.00 2950.04 930.00" xmlns="http://www.w3.org/2000/svg" xmlns:xlink="http://www.w3.org/1999/xlink">
<g id="graph0" class="graph" transform="scale(1 1) rotate(0) translate(4 926)">
<title>/home/lucamuratore/advr&#45;superbuild/external/XBotInterface/include/spdlog/details/spdlog_impl.h</title>
<!-- Node1 -->
<g id="node1" class="node"><title>Node1</title>
<polygon fill="#bfbfbf" stroke="black" points="1632.5,-869 1632.5,-921 1777.5,-921 1777.5,-869 1632.5,-869"/>
<text text-anchor="start" x="1640.5" y="-909" font-family="Helvetica,sans-Serif" font-size="10.00">/home/lucamuratore</text>
<text text-anchor="start" x="1640.5" y="-898" font-family="Helvetica,sans-Serif" font-size="10.00">/advr&#45;superbuild/external</text>
<text text-anchor="start" x="1640.5" y="-887" font-family="Helvetica,sans-Serif" font-size="10.00">/XBotInterface/include/spdlog</text>
<text text-anchor="middle" x="1705" y="-876" font-family="Helvetica,sans-Serif" font-size="10.00">/details/spdlog_impl.h</text>
</g>
<!-- Node2 -->
<g id="node2" class="node"><title>Node2</title>
<g id="a_node2"><a xlink:href="spdlog_8h.html" target="_top" xlink:title="spdlog/spdlog.h">
<polygon fill="none" stroke="black" points="261.5,-756.5 261.5,-775.5 346.5,-775.5 346.5,-756.5 261.5,-756.5"/>
<text text-anchor="middle" x="304" y="-763.5" font-family="Helvetica,sans-Serif" font-size="10.00">spdlog/spdlog.h</text>
</a>
</g>
</g>
<!-- Node1&#45;&gt;Node2 -->
<g id="edge1" class="edge"><title>Node1&#45;&gt;Node2</title>
<path fill="none" stroke="midnightblue" d="M1632.22,-889.65C1430.42,-876.824 847.109,-836.32 356.67,-776.54"/>
<polygon fill="midnightblue" stroke="midnightblue" points="356.907,-773.043 346.556,-775.303 356.057,-779.992 356.907,-773.043"/>
</g>
<!-- Node5 -->
<g id="node5" class="node"><title>Node5</title>
<polygon fill="none" stroke="#bfbfbf" points="2001.5,-0.5 2001.5,-19.5 2042.5,-19.5 2042.5,-0.5 2001.5,-0.5"/>
<text text-anchor="middle" x="2022" y="-7.5" font-family="Helvetica,sans-Serif" font-size="10.00">string</text>
</g>
<!-- Node1&#45;&gt;Node5 -->
<g id="edge150" class="edge"><title>Node1&#45;&gt;Node5</title>
<path fill="none" stroke="midnightblue" d="M1777.59,-893.906C2035.74,-892.626 2894,-879.881 2894,-767 2894,-767 2894,-767 2894,-387 2894,-255.203 2863.98,-200.984 2757,-124 2677.29,-66.6401 2629.38,-126.396 2539,-88 2517.07,-78.6855 2518.23,-64.5526 2496,-56 2414.46,-24.6346 2144.41,-14.3858 2052.75,-11.7661"/>
<polygon fill="midnightblue" stroke="midnightblue" points="2052.81,-8.26667 2042.72,-11.4899 2052.62,-15.264 2052.81,-8.26667"/>
</g>
<!-- Node7 -->
<g id="node7" class="node"><title>Node7</title>
<polygon fill="none" stroke="#bfbfbf" points="1320,-130.5 1320,-149.5 1366,-149.5 1366,-130.5 1320,-130.5"/>
<text text-anchor="middle" x="1343" y="-137.5" font-family="Helvetica,sans-Serif" font-size="10.00">chrono</text>
</g>
<!-- Node1&#45;&gt;Node7 -->
<g id="edge147" class="edge"><title>Node1&#45;&gt;Node7</title>
<path fill="none" stroke="midnightblue" d="M1777.61,-877.88C1833.05,-860.788 1900,-827.602 1900,-767 1900,-767 1900,-767 1900,-647 1900,-489.051 1733.25,-443.673 1807,-304 1827.61,-264.974 1848.52,-265.575 1889,-248 1958.49,-217.83 2101.61,-247.464 2050,-192 2048.54,-190.434 1515.76,-153.08 1376.16,-143.317"/>
<polygon fill="midnightblue" stroke="midnightblue" points="1376.29,-139.817 1366.07,-142.611 1375.8,-146.8 1376.29,-139.817"/>
</g>
<!-- Node8 -->
<g id="node8" class="node"><title>Node8</title>
<polygon fill="none" stroke="#bfbfbf" points="506,-0.5 506,-19.5 558,-19.5 558,-0.5 506,-0.5"/>
<text text-anchor="middle" x="532" y="-7.5" font-family="Helvetica,sans-Serif" font-size="10.00">memory</text>
</g>
<!-- Node1&#45;&gt;Node8 -->
<g id="edge149" class="edge"><title>Node1&#45;&gt;Node8</title>
<path fill="none" stroke="midnightblue" d="M1632.28,-892.451C1306.85,-885.051 0,-850.158 0,-767 0,-767 0,-767 0,-139 0,-94.7471 17.0398,-78.7452 55,-56 129.179,-11.5531 397.525,-9.62067 495.699,-10.4624"/>
<polygon fill="midnightblue" stroke="midnightblue" points="495.7,-13.9625 505.735,-10.5636 495.77,-6.96287 495.7,-13.9625"/>
</g>
<!-- Node11 -->
<g id="node11" class="node"><title>Node11</title>
<polygon fill="none" stroke="#bfbfbf" points="444.5,-130.5 444.5,-149.5 503.5,-149.5 503.5,-130.5 444.5,-130.5"/>
<text text-anchor="middle" x="474" y="-137.5" font-family="Helvetica,sans-Serif" font-size="10.00">functional</text>
</g>
<!-- Node1&#45;&gt;Node11 -->
<g id="edge148" class="edge"><title>Node1&#45;&gt;Node11</title>
<path fill="none" stroke="midnightblue" d="M1632.49,-892.392C1334.33,-884.947 214.563,-848.526 133,-720 53.0149,-593.961 190,-538.276 190,-389 190,-389 190,-389 190,-257 190,-204.818 356.394,-164.556 434.454,-148.54"/>
<polygon fill="midnightblue" stroke="midnightblue" points="435.301,-151.939 444.411,-146.53 433.916,-145.078 435.301,-151.939"/>
</g>
<!-- Node39 -->
<g id="node39" class="node"><title>Node39</title>
<g id="a_node39"><a xlink:href="stdout__sinks_8h.html" target="_top" xlink:title="spdlog/sinks/stdout\l_sinks.h">
<polygon fill="none" stroke="black" points="1988.5,-565 1988.5,-595 2089.5,-595 2089.5,-565 1988.5,-565"/>
<text text-anchor="start" x="1996.5" y="-583" font-family="Helvetica,sans-Serif" font-size="10.00">spdlog/sinks/stdout</text>
<text text-anchor="middle" x="2039" y="-572" font-family="Helvetica,sans-Serif" font-size="10.00">_sinks.h</text>
</a>
</g>
</g>
<!-- Node1&#45;&gt;Node39 -->
<g id="edge141" class="edge"><title>Node1&#45;&gt;Node39</title>
<path fill="none" stroke="midnightblue" d="M1777.86,-893.633C1866.95,-888.894 2006,-865.689 2006,-767 2006,-767 2006,-767 2006,-709 2006,-671.686 2019.31,-630.135 2029.03,-604.782"/>
<polygon fill="midnightblue" stroke="midnightblue" points="2032.36,-605.865 2032.79,-595.279 2025.85,-603.286 2032.36,-605.865"/>
</g>
<!-- Node40 -->
<g id="node40" class="node"><title>Node40</title>
<g id="a_node40"><a xlink:href="registry_8h.html" target="_top" xlink:title="spdlog/details/registry.h">
<polygon fill="none" stroke="black" points="1451,-812.5 1451,-831.5 1571,-831.5 1571,-812.5 1451,-812.5"/>
<text text-anchor="middle" x="1511" y="-819.5" font-family="Helvetica,sans-Serif" font-size="10.00">spdlog/details/registry.h</text>
</a>
</g>
</g>
<!-- Node1&#45;&gt;Node40 -->
<g id="edge85" class="edge"><title>Node1&#45;&gt;Node40</title>
<path fill="none" stroke="midnightblue" d="M1636.6,-868.968C1605.21,-857.478 1569.42,-844.381 1544.1,-835.114"/>
<polygon fill="midnightblue" stroke="midnightblue" points="1545.2,-831.789 1534.6,-831.639 1542.79,-838.363 1545.2,-831.789"/>
</g>
<!-- Node45 -->
<g id="node45" class="node"><title>Node45</title>
<g id="a_node45"><a xlink:href="file__sinks_8h.html" target="_top" xlink:title="spdlog/sinks/file_sinks.h">
<polygon fill="none" stroke="black" points="2570,-570.5 2570,-589.5 2694,-589.5 2694,-570.5 2570,-570.5"/>
<text text-anchor="middle" x="2632" y="-577.5" font-family="Helvetica,sans-Serif" font-size="10.00">spdlog/sinks/file_sinks.h</text>
</a>
</g>
</g>
<!-- Node1&#45;&gt;Node45 -->
<g id="edge122" class="edge"><title>Node1&#45;&gt;Node45</title>
<path fill="none" stroke="midnightblue" d="M1777.81,-891.071C1988.01,-881.654 2581,-847.919 2581,-767 2581,-767 2581,-767 2581,-709 2581,-666.741 2605.29,-621.851 2620.34,-598.086"/>
<polygon fill="midnightblue" stroke="midnightblue" points="2623.4,-599.81 2625.95,-589.528 2617.54,-595.973 2623.4,-599.81"/>
</g>
<!-- Node49 -->
<g id="node49" class="node"><title>Node49</title>
<g id="a_node49"><a xlink:href="ansicolor__sink_8h.html" target="_top" xlink:title="spdlog/sinks/ansicolor\l_sink.h">
<polygon fill="none" stroke="black" points="2236.5,-565 2236.5,-595 2349.5,-595 2349.5,-565 2236.5,-565"/>
<text text-anchor="start" x="2244.5" y="-583" font-family="Helvetica,sans-Serif" font-size="10.00">spdlog/sinks/ansicolor</text>
<text text-anchor="middle" x="2293" y="-572" font-family="Helvetica,sans-Serif" font-size="10.00">_sink.h</text>
</a>
</g>
</g>
<!-- Node1&#45;&gt;Node49 -->
<g id="edge142" class="edge"><title>Node1&#45;&gt;Node49</title>
<path fill="none" stroke="midnightblue" d="M1777.61,-889.074C1839.87,-882.515 1930.57,-867.281 2002,-832 2121.88,-772.789 2232.4,-652.462 2274.75,-602.993"/>
<polygon fill="midnightblue" stroke="midnightblue" points="2277.61,-605.036 2281.4,-595.145 2272.27,-600.509 2277.61,-605.036"/>
</g>
<!-- Node2&#45;&gt;Node1 -->
<g id="edge84" class="edge"><title>Node2&#45;&gt;Node1</title>
<path fill="none" stroke="midnightblue" d="M346.779,-772.763C354.562,-773.934 362.542,-775.085 370,-776 842.637,-833.991 1412.18,-874.293 1622.15,-888.429"/>
<polygon fill="midnightblue" stroke="midnightblue" points="1621.96,-891.924 1632.17,-889.102 1622.43,-884.94 1621.96,-891.924"/>
</g>
<!-- Node3 -->
<g id="node3" class="node"><title>Node3</title>
<g id="a_node3"><a xlink:href="tweakme_8h.html" target="_top" xlink:title="spdlog/tweakme.h">
<polygon fill="none" stroke="black" points="142,-700.5 142,-719.5 238,-719.5 238,-700.5 142,-700.5"/>
<text text-anchor="middle" x="190" y="-707.5" font-family="Helvetica,sans-Serif" font-size="10.00">spdlog/tweakme.h</text>
</a>
</g>
</g>
<!-- Node2&#45;&gt;Node3 -->
<g id="edge2" class="edge"><title>Node2&#45;&gt;Node3</title>
<path fill="none" stroke="midnightblue" d="M285.936,-756.444C267.425,-747.675 238.419,-733.935 217.145,-723.858"/>
<polygon fill="midnightblue" stroke="midnightblue" points="218.515,-720.634 207.979,-719.516 215.518,-726.96 218.515,-720.634"/>
</g>
<!-- Node4 -->
<g id="node4" class="node"><title>Node4</title>
<g id="a_node4"><a xlink:href="common_8h.html" target="_top" xlink:title="spdlog/common.h">
<polygon fill="none" stroke="black" points="2098,-192.5 2098,-211.5 2192,-211.5 2192,-192.5 2098,-192.5"/>
<text text-anchor="middle" x="2145" y="-199.5" font-family="Helvetica,sans-Serif" font-size="10.00">spdlog/common.h</text>
</a>
</g>
</g>
<!-- Node2&#45;&gt;Node4 -->
<g id="edge3" class="edge"><title>Node2&#45;&gt;Node4</title>
<path fill="none" stroke="midnightblue" d="M346.767,-762.33C420.839,-757.24 577.589,-744.416 708,-720 1110.96,-644.559 1236.17,-661.836 1593,-460 1695.45,-402.052 1710.83,-371.864 1807,-304 1843.06,-278.554 1848.12,-264.639 1889,-248 1907.13,-240.622 2018.23,-222.58 2087.99,-211.715"/>
<polygon fill="midnightblue" stroke="midnightblue" points="2088.62,-215.159 2097.96,-210.166 2087.54,-208.242 2088.62,-215.159"/>
</g>
<!-- Node2&#45;&gt;Node5 -->
<g id="edge83" class="edge"><title>Node2&#45;&gt;Node5</title>
<path fill="none" stroke="midnightblue" d="M308.968,-756.297C319.268,-737.405 342,-690.96 342,-649 342,-649 342,-649 342,-511 342,-393.946 309.871,-363.642 328,-248 339.274,-176.086 368.194,-152.909 435,-124 604.521,-50.6445 661.235,-74.6767 845,-56 1299.09,-9.84894 1856.1,-9.96661 1991.36,-10.7541"/>
<polygon fill="midnightblue" stroke="midnightblue" points="1991.39,-14.2543 2001.41,-10.8187 1991.43,-7.25442 1991.39,-14.2543"/>
</g>
<!-- Node2&#45;&gt;Node7 -->
<g id="edge82" class="edge"><title>Node2&#45;&gt;Node7</title>
<path fill="none" stroke="midnightblue" d="M346.526,-763.894C427.391,-761.08 599.666,-751.468 649,-720 680.498,-699.909 694,-686.36 694,-649 694,-649 694,-649 694,-579 694,-343.177 849.109,-303.327 1057,-192 1142.41,-146.262 1176.8,-174.017 1272,-156 1284.35,-153.662 1297.86,-150.868 1309.75,-148.329"/>
<polygon fill="midnightblue" stroke="midnightblue" points="1310.67,-151.711 1319.71,-146.181 1309.19,-144.868 1310.67,-151.711"/>
</g>
<!-- Node2&#45;&gt;Node8 -->
<g id="edge80" class="edge"><title>Node2&#45;&gt;Node8</title>
<path fill="none" stroke="midnightblue" d="M261.269,-765.213C222.65,-763.051 166.824,-753.684 133,-720 109.854,-696.95 114,-681.666 114,-649 114,-649 114,-649 114,-139 114,-100.6 108.668,-80.7826 138,-56 165.064,-33.1339 403.355,-17.9451 495.679,-12.8717"/>
<polygon fill="midnightblue" stroke="midnightblue" points="496.14,-16.3519 505.936,-12.3168 495.762,-9.36213 496.14,-16.3519"/>
</g>
<!-- Node2&#45;&gt;Node11 -->
<g id="edge81" class="edge"><title>Node2&#45;&gt;Node11</title>
<path fill="none" stroke="midnightblue" d="M299.246,-756.14C282.608,-724.28 228,-612.161 228,-513 228,-513 228,-513 228,-387 228,-280.826 284.661,-260.241 366,-192 386.895,-174.47 414.83,-161.49 437.054,-153.013"/>
<polygon fill="midnightblue" stroke="midnightblue" points="438.322,-156.276 446.504,-149.545 435.91,-149.704 438.322,-156.276"/>
</g>
<!-- Node22 -->
<g id="node22" class="node"><title>Node22</title>
<g id="a_node22"><a xlink:href="logger_8h.html" target="_top" xlink:title="spdlog/logger.h">
<polygon fill="none" stroke="black" points="557.5,-700.5 557.5,-719.5 640.5,-719.5 640.5,-700.5 557.5,-700.5"/>
<text text-anchor="middle" x="599" y="-707.5" font-family="Helvetica,sans-Serif" font-size="10.00">spdlog/logger.h</text>
</a>
</g>
</g>
<!-- Node2&#45;&gt;Node22 -->
<g id="edge24" class="edge"><title>Node2&#45;&gt;Node22</title>
<path fill="none" stroke="midnightblue" d="M346.58,-757.206C399.715,-747.479 490.511,-730.859 547.501,-720.427"/>
<polygon fill="midnightblue" stroke="midnightblue" points="548.179,-723.861 557.386,-718.618 546.919,-716.975 548.179,-723.861"/>
</g>
<!-- Node4&#45;&gt;Node5 -->
<g id="edge4" class="edge"><title>Node4&#45;&gt;Node5</title>
<path fill="none" stroke="midnightblue" d="M2126.8,-192.453C2112.13,-184.746 2091.89,-172.152 2079,-156 2048.02,-117.176 2032.16,-59.4455 2025.66,-29.9061"/>
<polygon fill="midnightblue" stroke="midnightblue" points="2029.01,-28.8257 2023.56,-19.7431 2022.16,-30.245 2029.01,-28.8257"/>
</g>
<!-- Node6 -->
<g id="node6" class="node"><title>Node6</title>
<polygon fill="none" stroke="#bfbfbf" points="2088.5,-130.5 2088.5,-149.5 2161.5,-149.5 2161.5,-130.5 2088.5,-130.5"/>
<text text-anchor="middle" x="2125" y="-137.5" font-family="Helvetica,sans-Serif" font-size="10.00">initializer_list</text>
</g>
<!-- Node4&#45;&gt;Node6 -->
<g id="edge5" class="edge"><title>Node4&#45;&gt;Node6</title>
<path fill="none" stroke="midnightblue" d="M2142.13,-192.403C2139.25,-183.76 2134.72,-170.17 2131.04,-159.134"/>
<polygon fill="midnightblue" stroke="midnightblue" points="2134.34,-157.961 2127.86,-149.581 2127.7,-160.174 2134.34,-157.961"/>
</g>
<!-- Node4&#45;&gt;Node7 -->
<g id="edge6" class="edge"><title>Node4&#45;&gt;Node7</title>
<path fill="none" stroke="midnightblue" d="M2097.77,-193.577C2093.12,-192.984 2088.47,-192.443 2084,-192 1772.23,-161.1 1685.87,-223.797 1380,-156 1376.75,-155.28 1373.42,-154.303 1370.15,-153.19"/>
<polygon fill="midnightblue" stroke="midnightblue" points="1371.27,-149.87 1360.68,-149.566 1368.77,-156.408 1371.27,-149.87"/>
</g>
<!-- Node4&#45;&gt;Node8 -->
<g id="edge7" class="edge"><title>Node4&#45;&gt;Node8</title>
<path fill="none" stroke="midnightblue" d="M2097.73,-193.881C2093.09,-193.226 2088.46,-192.589 2084,-192 1479.09,-112.121 739.054,-32.8818 568.311,-14.8222"/>
<polygon fill="midnightblue" stroke="midnightblue" points="568.431,-11.3155 558.118,-13.7453 567.695,-18.2767 568.431,-11.3155"/>
</g>
<!-- Node9 -->
<g id="node9" class="node"><title>Node9</title>
<polygon fill="none" stroke="#bfbfbf" points="2294,-62.5 2294,-81.5 2340,-81.5 2340,-62.5 2294,-62.5"/>
<text text-anchor="middle" x="2317" y="-69.5" font-family="Helvetica,sans-Serif" font-size="10.00">atomic</text>
</g>
<!-- Node4&#45;&gt;Node9 -->
<g id="edge8" class="edge"><title>Node4&#45;&gt;Node9</title>
<path fill="none" stroke="midnightblue" d="M2156.27,-192.391C2175.03,-178.092 2213.85,-148.584 2247,-124 2263.64,-111.656 2282.65,-97.8226 2296.66,-87.6806"/>
<polygon fill="midnightblue" stroke="midnightblue" points="2299.01,-90.2979 2305.06,-81.6016 2294.91,-84.6257 2299.01,-90.2979"/>
</g>
<!-- Node10 -->
<g id="node10" class="node"><title>Node10</title>
<polygon fill="none" stroke="#bfbfbf" points="1204.5,-130.5 1204.5,-149.5 1263.5,-149.5 1263.5,-130.5 1204.5,-130.5"/>
<text text-anchor="middle" x="1234" y="-137.5" font-family="Helvetica,sans-Serif" font-size="10.00">exception</text>
</g>
<!-- Node4&#45;&gt;Node10 -->
<g id="edge9" class="edge"><title>Node4&#45;&gt;Node10</title>
<path fill="none" stroke="midnightblue" d="M2097.68,-196.087C2082.47,-194.623 2065.53,-193.114 2050,-192 1722.01,-168.487 1637.45,-195.54 1311,-156 1298.87,-154.531 1285.78,-152.249 1273.9,-149.905"/>
<polygon fill="midnightblue" stroke="midnightblue" points="1274.32,-146.419 1263.83,-147.847 1272.92,-153.277 1274.32,-146.419"/>
</g>
<!-- Node4&#45;&gt;Node11 -->
<g id="edge10" class="edge"><title>Node4&#45;&gt;Node11</title>
<path fill="none" stroke="midnightblue" d="M2097.69,-195.935C2082.48,-194.462 2065.54,-192.987 2050,-192 1737.84,-172.182 727.195,-147.107 513.798,-141.952"/>
<polygon fill="midnightblue" stroke="midnightblue" points="513.76,-138.45 503.679,-141.708 513.591,-145.448 513.76,-138.45"/>
</g>
<!-- Node12 -->
<g id="node12" class="node"><title>Node12</title>
<g id="a_node12"><a xlink:href="null__mutex_8h.html" target="_top" xlink:title="spdlog/details/null\l_mutex.h">
<polygon fill="none" stroke="black" points="2400.5,-125 2400.5,-155 2495.5,-155 2495.5,-125 2400.5,-125"/>
<text text-anchor="start" x="2408.5" y="-143" font-family="Helvetica,sans-Serif" font-size="10.00">spdlog/details/null</text>
<text text-anchor="middle" x="2448" y="-132" font-family="Helvetica,sans-Serif" font-size="10.00">_mutex.h</text>
</a>
</g>
</g>
<!-- Node4&#45;&gt;Node12 -->
<g id="edge11" class="edge"><title>Node4&#45;&gt;Node12</title>
<path fill="none" stroke="midnightblue" d="M2188.09,-192.467C2241.14,-181.962 2331.44,-164.08 2390.41,-152.404"/>
<polygon fill="midnightblue" stroke="midnightblue" points="2391.18,-155.819 2400.31,-150.443 2389.82,-148.952 2391.18,-155.819"/>
</g>
<!-- Node13 -->
<g id="node13" class="node"><title>Node13</title>
<g id="a_node13"><a xlink:href="fmt_8h.html" target="_top" xlink:title="spdlog/fmt/fmt.h">
<polygon fill="none" stroke="black" points="2256,-130.5 2256,-149.5 2344,-149.5 2344,-130.5 2256,-130.5"/>
<text text-anchor="middle" x="2300" y="-137.5" font-family="Helvetica,sans-Serif" font-size="10.00">spdlog/fmt/fmt.h</text>
</a>
</g>
</g>
<!-- Node4&#45;&gt;Node13 -->
<g id="edge13" class="edge"><title>Node4&#45;&gt;Node13</title>
<path fill="none" stroke="midnightblue" d="M2167.21,-192.403C2193.68,-182.156 2238.11,-164.956 2268.22,-153.302"/>
<polygon fill="midnightblue" stroke="midnightblue" points="2269.77,-156.455 2277.83,-149.581 2267.24,-149.927 2269.77,-156.455"/>
</g>
<!-- Node12&#45;&gt;Node9 -->
<g id="edge12" class="edge"><title>Node12&#45;&gt;Node9</title>
<path fill="none" stroke="midnightblue" d="M2419.9,-124.841C2397.24,-113.425 2365.6,-97.4852 2343.41,-86.3033"/>
<polygon fill="midnightblue" stroke="midnightblue" points="2344.74,-83.0556 2334.23,-81.6819 2341.59,-89.307 2344.74,-83.0556"/>
</g>
<!-- Node14 -->
<g id="node14" class="node"><title>Node14</title>
<g id="a_node14"><a xlink:href="format_8h.html" target="_top" xlink:title="spdlog/fmt/bundled\l/format.h">
<polygon fill="none" stroke="red" points="2548.5,-57 2548.5,-87 2647.5,-87 2647.5,-57 2548.5,-57"/>
<text text-anchor="start" x="2556.5" y="-75" font-family="Helvetica,sans-Serif" font-size="10.00">spdlog/fmt/bundled</text>
<text text-anchor="middle" x="2598" y="-64" font-family="Helvetica,sans-Serif" font-size="10.00">/format.h</text>
</a>
</g>
</g>
<!-- Node13&#45;&gt;Node14 -->
<g id="edge14" class="edge"><title>Node13&#45;&gt;Node14</title>
<path fill="none" stroke="midnightblue" d="M2338.65,-130.439C2389.34,-119.213 2478.8,-99.4001 2538.25,-86.2343"/>
<polygon fill="midnightblue" stroke="midnightblue" points="2539.24,-89.5986 2548.25,-84.019 2537.73,-82.7642 2539.24,-89.5986"/>
</g>
<!-- Node14&#45;&gt;Node5 -->
<g id="edge21" class="edge"><title>Node14&#45;&gt;Node5</title>
<path fill="none" stroke="midnightblue" d="M2548.18,-58.5981C2543.4,-57.6287 2538.62,-56.7406 2534,-56 2353.08,-26.9995 2132.98,-15.57 2052.96,-12.1821"/>
<polygon fill="midnightblue" stroke="midnightblue" points="2052.75,-8.67071 2042.62,-11.7565 2052.46,-15.6648 2052.75,-8.67071"/>
</g>
<!-- Node14&#45;&gt;Node8 -->
<g id="edge20" class="edge"><title>Node14&#45;&gt;Node8</title>
<path fill="none" stroke="midnightblue" d="M2548.42,-67.4913C2498.19,-64.0593 2418.23,-58.9332 2349,-56 1696.94,-28.3733 1533.43,-36.4123 881,-20 767.017,-17.1327 632.098,-13.6196 568.561,-11.958"/>
<polygon fill="midnightblue" stroke="midnightblue" points="568.356,-8.45158 558.268,-11.6887 568.173,-15.4492 568.356,-8.45158"/>
</g>
<!-- Node15 -->
<g id="node15" class="node"><title>Node15</title>
<polygon fill="none" stroke="#bfbfbf" points="2450.5,-0.5 2450.5,-19.5 2499.5,-19.5 2499.5,-0.5 2450.5,-0.5"/>
<text text-anchor="middle" x="2475" y="-7.5" font-family="Helvetica,sans-Serif" font-size="10.00">cassert</text>
</g>
<!-- Node14&#45;&gt;Node15 -->
<g id="edge15" class="edge"><title>Node14&#45;&gt;Node15</title>
<path fill="none" stroke="midnightblue" d="M2569.16,-56.9327C2548.78,-46.9907 2521.66,-33.7601 2501.76,-24.0526"/>
<polygon fill="midnightblue" stroke="midnightblue" points="2503.15,-20.8386 2492.63,-19.6 2500.08,-27.13 2503.15,-20.8386"/>
</g>
<!-- Node16 -->
<g id="node16" class="node"><title>Node16</title>
<polygon fill="none" stroke="#bfbfbf" points="2517.5,-0.5 2517.5,-19.5 2564.5,-19.5 2564.5,-0.5 2517.5,-0.5"/>
<text text-anchor="middle" x="2541" y="-7.5" font-family="Helvetica,sans-Serif" font-size="10.00">clocale</text>
</g>
<!-- Node14&#45;&gt;Node16 -->
<g id="edge16" class="edge"><title>Node14&#45;&gt;Node16</title>
<path fill="none" stroke="midnightblue" d="M2584.49,-56.7808C2576.04,-47.8824 2565.12,-36.3943 2556.34,-27.1524"/>
<polygon fill="midnightblue" stroke="midnightblue" points="2558.72,-24.5699 2549.29,-19.7305 2553.64,-29.3912 2558.72,-24.5699"/>
</g>
<!-- Node17 -->
<g id="node17" class="node"><title>Node17</title>
<polygon fill="none" stroke="#bfbfbf" points="2583,-0.5 2583,-19.5 2627,-19.5 2627,-0.5 2583,-0.5"/>
<text text-anchor="middle" x="2605" y="-7.5" font-family="Helvetica,sans-Serif" font-size="10.00">cmath</text>
</g>
<!-- Node14&#45;&gt;Node17 -->
<g id="edge17" class="edge"><title>Node14&#45;&gt;Node17</title>
<path fill="none" stroke="midnightblue" d="M2599.66,-56.7808C2600.6,-48.6913 2601.8,-38.4617 2602.82,-29.725"/>
<polygon fill="midnightblue" stroke="midnightblue" points="2606.3,-30.0688 2603.98,-19.7305 2599.35,-29.2576 2606.3,-30.0688"/>
</g>
<!-- Node18 -->
<g id="node18" class="node"><title>Node18</title>
<polygon fill="none" stroke="#bfbfbf" points="2806.5,-0.5 2806.5,-19.5 2849.5,-19.5 2849.5,-0.5 2806.5,-0.5"/>
<text text-anchor="middle" x="2828" y="-7.5" font-family="Helvetica,sans-Serif" font-size="10.00">cstdio</text>
</g>
<!-- Node14&#45;&gt;Node18 -->
<g id="edge18" class="edge"><title>Node14&#45;&gt;Node18</title>
<path fill="none" stroke="midnightblue" d="M2647.62,-58.0548C2692.65,-46.3092 2757.69,-29.3409 2796.13,-19.314"/>
<polygon fill="midnightblue" stroke="midnightblue" points="2797.43,-22.591 2806.23,-16.68 2795.67,-15.8177 2797.43,-22.591"/>
</g>
<!-- Node19 -->
<g id="node19" class="node"><title>Node19</title>
<polygon fill="none" stroke="#bfbfbf" points="2645,-0.5 2645,-19.5 2691,-19.5 2691,-0.5 2645,-0.5"/>
<text text-anchor="middle" x="2668" y="-7.5" font-family="Helvetica,sans-Serif" font-size="10.00">cstring</text>
</g>
<!-- Node14&#45;&gt;Node19 -->
<g id="edge19" class="edge"><title>Node14&#45;&gt;Node19</title>
<path fill="none" stroke="midnightblue" d="M2614.59,-56.7808C2625.29,-47.6127 2639.19,-35.6957 2650.13,-26.3186"/>
<polygon fill="midnightblue" stroke="midnightblue" points="2652.5,-28.8959 2657.81,-19.7305 2647.94,-23.5811 2652.5,-28.8959"/>
</g>
<!-- Node20 -->
<g id="node20" class="node"><title>Node20</title>
<polygon fill="none" stroke="#bfbfbf" points="890,-0.5 890,-19.5 934,-19.5 934,-0.5 890,-0.5"/>
<text text-anchor="middle" x="912" y="-7.5" font-family="Helvetica,sans-Serif" font-size="10.00">vector</text>
</g>
<!-- Node14&#45;&gt;Node20 -->
<g id="edge22" class="edge"><title>Node14&#45;&gt;Node20</title>
<path fill="none" stroke="midnightblue" d="M2548.42,-67.5904C2498.18,-64.2354 2418.22,-59.1681 2349,-56 1787.13,-30.2841 1101,-14.9735 944.717,-11.6751"/>
<polygon fill="midnightblue" stroke="midnightblue" points="944.461,-8.16908 934.39,-11.4584 944.314,-15.1675 944.461,-8.16908"/>
</g>
<!-- Node21 -->
<g id="node21" class="node"><title>Node21</title>
<polygon fill="none" stroke="#bfbfbf" points="2717,-0.5 2717,-19.5 2757,-19.5 2757,-0.5 2717,-0.5"/>
<text text-anchor="middle" x="2737" y="-7.5" font-family="Helvetica,sans-Serif" font-size="10.00">utility</text>
</g>
<!-- Node14&#45;&gt;Node21 -->
<g id="edge23" class="edge"><title>Node14&#45;&gt;Node21</title>
<path fill="none" stroke="midnightblue" d="M2630.59,-56.9327C2653.94,-46.8552 2685.11,-33.3986 2707.68,-23.6575"/>
<polygon fill="midnightblue" stroke="midnightblue" points="2709.28,-26.7766 2717.08,-19.6 2706.51,-20.3498 2709.28,-26.7766"/>
</g>
<!-- Node22&#45;&gt;Node4 -->
<g id="edge66" class="edge"><title>Node22&#45;&gt;Node4</title>
<path fill="none" stroke="midnightblue" d="M624.662,-700.435C698.783,-675.969 919.9,-604.906 1108,-564 1212.11,-541.36 1241.15,-551.797 1345,-528 1444.76,-505.141 1477.06,-512.351 1565,-460 1613.07,-431.383 1613.65,-409.686 1655,-372 1717.92,-314.65 1723.1,-282.35 1801,-248 1917.01,-196.843 1958.39,-229.254 2084,-212 2085.25,-211.828 2086.52,-211.653 2087.8,-211.475"/>
<polygon fill="midnightblue" stroke="midnightblue" points="2088.31,-214.936 2097.72,-210.07 2087.33,-208.005 2088.31,-214.936"/>
</g>
<!-- Node22&#45;&gt;Node5 -->
<g id="edge69" class="edge"><title>Node22&#45;&gt;Node5</title>
<path fill="none" stroke="midnightblue" d="M608.305,-700.23C616.763,-691.743 628.963,-678.122 636,-664 652.924,-630.038 656,-618.945 656,-581 656,-581 656,-581 656,-511 656,-242.037 797.897,-134.988 1055,-56 1146.19,-27.9839 1836.29,-14.2657 1991.2,-11.5214"/>
<polygon fill="midnightblue" stroke="midnightblue" points="1991.47,-15.0172 2001.41,-11.3427 1991.35,-8.01829 1991.47,-15.0172"/>
</g>
<!-- Node22&#45;&gt;Node8 -->
<g id="edge68" class="edge"><title>Node22&#45;&gt;Node8</title>
<path fill="none" stroke="midnightblue" d="M567.236,-700.486C542.393,-693.02 507.564,-680.738 480,-664 441.258,-640.475 430.738,-632.597 404,-596 291.097,-441.468 228,-394.382 228,-203 228,-203 228,-203 228,-139 228,-24.0471 414.917,-10.6682 495.617,-10.2487"/>
<polygon fill="midnightblue" stroke="midnightblue" points="495.813,-13.7489 505.818,-10.2626 495.823,-6.74892 495.813,-13.7489"/>
</g>
<!-- Node22&#45;&gt;Node20 -->
<g id="edge67" class="edge"><title>Node22&#45;&gt;Node20</title>
<path fill="none" stroke="midnightblue" d="M573.386,-700.494C554.729,-693.23 529.871,-681.205 513,-664 453.369,-603.189 342,-406.169 342,-321 342,-321 342,-321 342,-257 342,-21.0742 758.736,-8.75209 879.545,-10.1367"/>
<polygon fill="midnightblue" stroke="midnightblue" points="879.602,-13.6379 889.655,-10.2937 879.711,-6.63874 879.602,-13.6379"/>
</g>
<!-- Node23 -->
<g id="node23" class="node"><title>Node23</title>
<g id="a_node23"><a xlink:href="base__sink_8h.html" target="_top" xlink:title="spdlog/sinks/base_sink.h">
<polygon fill="none" stroke="black" points="1975.5,-502.5 1975.5,-521.5 2102.5,-521.5 2102.5,-502.5 1975.5,-502.5"/>
<text text-anchor="middle" x="2039" y="-509.5" font-family="Helvetica,sans-Serif" font-size="10.00">spdlog/sinks/base_sink.h</text>
</a>
</g>
</g>
<!-- Node22&#45;&gt;Node23 -->
<g id="edge25" class="edge"><title>Node22&#45;&gt;Node23</title>
<path fill="none" stroke="midnightblue" d="M640.672,-705.659C721.115,-699.04 903.339,-683.227 1056,-664 1407.46,-619.735 1826.93,-549.438 1979.68,-523.263"/>
<polygon fill="midnightblue" stroke="midnightblue" points="1980.52,-526.67 1989.78,-521.529 1979.33,-519.771 1980.52,-526.67"/>
</g>
<!-- Node38 -->
<g id="node38" class="node"><title>Node38</title>
<g id="a_node38"><a xlink:href="logger__impl_8h.html" target="_top" xlink:title="spdlog/details/logger\l_impl.h">
<polygon fill="none" stroke="black" points="522,-633 522,-663 628,-663 628,-633 522,-633"/>
<text text-anchor="start" x="530" y="-651" font-family="Helvetica,sans-Serif" font-size="10.00">spdlog/details/logger</text>
<text text-anchor="middle" x="575" y="-640" font-family="Helvetica,sans-Serif" font-size="10.00">_impl.h</text>
</a>
</g>
</g>
<!-- Node22&#45;&gt;Node38 -->
<g id="edge70" class="edge"><title>Node22&#45;&gt;Node38</title>
<path fill="none" stroke="midnightblue" d="M590.661,-700.403C586.214,-693.189 581.377,-682.528 577.893,-672.782"/>
<polygon fill="midnightblue" stroke="midnightblue" points="581.193,-671.609 574.826,-663.141 574.523,-673.731 581.193,-671.609"/>
</g>
<!-- Node23&#45;&gt;Node4 -->
<g id="edge63" class="edge"><title>Node23&#45;&gt;Node4</title>
<path fill="none" stroke="midnightblue" d="M2042.76,-502.411C2047.11,-492.334 2054.41,-475.084 2060,-460 2092.84,-371.415 2126.52,-263.472 2139.47,-221.204"/>
<polygon fill="midnightblue" stroke="midnightblue" points="2142.86,-222.092 2142.43,-211.506 2136.16,-220.049 2142.86,-222.092"/>
</g>
<!-- Node24 -->
<g id="node24" class="node"><title>Node24</title>
<g id="a_node24"><a xlink:href="sink_8h.html" target="_top" xlink:title="spdlog/sinks/sink.h">
<polygon fill="none" stroke="black" points="1852.5,-440.5 1852.5,-459.5 1953.5,-459.5 1953.5,-440.5 1852.5,-440.5"/>
<text text-anchor="middle" x="1903" y="-447.5" font-family="Helvetica,sans-Serif" font-size="10.00">spdlog/sinks/sink.h</text>
</a>
</g>
</g>
<!-- Node23&#45;&gt;Node24 -->
<g id="edge26" class="edge"><title>Node23&#45;&gt;Node24</title>
<path fill="none" stroke="midnightblue" d="M2019.51,-502.403C1996.59,-492.29 1958.31,-475.404 1931.92,-463.761"/>
<polygon fill="midnightblue" stroke="midnightblue" points="1933.01,-460.415 1922.45,-459.581 1930.19,-466.819 1933.01,-460.415"/>
</g>
<!-- Node25 -->
<g id="node25" class="node"><title>Node25</title>
<g id="a_node25"><a xlink:href="log__msg_8h.html" target="_top" xlink:title="spdlog/details/log\l_msg.h">
<polygon fill="none" stroke="black" points="1928,-305 1928,-335 2020,-335 2020,-305 1928,-305"/>
<text text-anchor="start" x="1936" y="-323" font-family="Helvetica,sans-Serif" font-size="10.00">spdlog/details/log</text>
<text text-anchor="middle" x="1974" y="-312" font-family="Helvetica,sans-Serif" font-size="10.00">_msg.h</text>
</a>
</g>
</g>
<!-- Node23&#45;&gt;Node25 -->
<g id="edge64" class="edge"><title>Node23&#45;&gt;Node25</title>
<path fill="none" stroke="midnightblue" d="M2036.04,-502.342C2026.54,-474.577 1996.61,-387.102 1982.08,-344.617"/>
<polygon fill="midnightblue" stroke="midnightblue" points="1985.37,-343.413 1978.82,-335.085 1978.74,-345.679 1985.37,-343.413"/>
</g>
<!-- Node35 -->
<g id="node35" class="node"><title>Node35</title>
<g id="a_node35"><a xlink:href="formatter_8h.html" target="_top" xlink:title="spdlog/formatter.h">
<polygon fill="none" stroke="black" points="1434.5,-440.5 1434.5,-459.5 1529.5,-459.5 1529.5,-440.5 1434.5,-440.5"/>
<text text-anchor="middle" x="1482" y="-447.5" font-family="Helvetica,sans-Serif" font-size="10.00">spdlog/formatter.h</text>
</a>
</g>
</g>
<!-- Node23&#45;&gt;Node35 -->
<g id="edge45" class="edge"><title>Node23&#45;&gt;Node35</title>
<path fill="none" stroke="midnightblue" d="M1975.38,-504.146C1866.26,-492.392 1645.05,-468.564 1539.96,-457.243"/>
<polygon fill="midnightblue" stroke="midnightblue" points="1540.17,-453.746 1529.85,-456.155 1539.42,-460.706 1540.17,-453.746"/>
</g>
<!-- Node37 -->
<g id="node37" class="node"><title>Node37</title>
<polygon fill="none" stroke="#bfbfbf" points="2038,-310.5 2038,-329.5 2082,-329.5 2082,-310.5 2038,-310.5"/>
<text text-anchor="middle" x="2060" y="-317.5" font-family="Helvetica,sans-Serif" font-size="10.00">mutex</text>
</g>
<!-- Node23&#45;&gt;Node37 -->
<g id="edge65" class="edge"><title>Node23&#45;&gt;Node37</title>
<path fill="none" stroke="midnightblue" d="M2039.96,-502.342C2043.15,-473.472 2053.47,-380.048 2057.93,-339.767"/>
<polygon fill="midnightblue" stroke="midnightblue" points="2061.42,-340.032 2059.04,-329.708 2054.46,-339.263 2061.42,-340.032"/>
</g>
<!-- Node24&#45;&gt;Node25 -->
<g id="edge27" class="edge"><title>Node24&#45;&gt;Node25</title>
<path fill="none" stroke="midnightblue" d="M1907.88,-440.202C1918.75,-420.614 1945.23,-372.873 1961.18,-344.104"/>
<polygon fill="midnightblue" stroke="midnightblue" points="1964.37,-345.586 1966.16,-335.143 1958.24,-342.19 1964.37,-345.586"/>
</g>
<!-- Node25&#45;&gt;Node4 -->
<g id="edge28" class="edge"><title>Node25&#45;&gt;Node4</title>
<path fill="none" stroke="midnightblue" d="M1988.66,-304.827C2004.82,-289.652 2031.97,-265.411 2058,-248 2076.49,-235.635 2098.79,-224.16 2116.19,-215.892"/>
<polygon fill="midnightblue" stroke="midnightblue" points="2117.71,-219.044 2125.29,-211.643 2114.75,-212.701 2117.71,-219.044"/>
</g>
<!-- Node25&#45;&gt;Node5 -->
<g id="edge43" class="edge"><title>Node25&#45;&gt;Node5</title>
<path fill="none" stroke="midnightblue" d="M2016.84,-304.978C2076.59,-284.451 2180.03,-245.068 2201,-212 2251.24,-132.777 2112.6,-54.1957 2050.42,-23.9715"/>
<polygon fill="midnightblue" stroke="midnightblue" points="2051.68,-20.6907 2041.14,-19.5433 2048.66,-27.0084 2051.68,-20.6907"/>
</g>
<!-- Node25&#45;&gt;Node21 -->
<g id="edge44" class="edge"><title>Node25&#45;&gt;Node21</title>
<path fill="none" stroke="midnightblue" d="M2020.32,-305.58C2055.2,-295.419 2104.16,-281.033 2147,-268 2376.56,-198.159 2456.67,-221.574 2656,-88 2682.08,-70.5245 2707.55,-44.3812 2722.76,-27.5071"/>
<polygon fill="midnightblue" stroke="midnightblue" points="2725.73,-29.4333 2729.73,-19.6229 2720.49,-24.7971 2725.73,-29.4333"/>
</g>
<!-- Node26 -->
<g id="node26" class="node"><title>Node26</title>
<g id="a_node26"><a xlink:href="os_8h.html" target="_top" xlink:title="spdlog/details/os.h">
<polygon fill="none" stroke="black" points="1537,-248.5 1537,-267.5 1635,-267.5 1635,-248.5 1537,-248.5"/>
<text text-anchor="middle" x="1586" y="-255.5" font-family="Helvetica,sans-Serif" font-size="10.00">spdlog/details/os.h</text>
</a>
</g>
</g>
<!-- Node25&#45;&gt;Node26 -->
<g id="edge29" class="edge"><title>Node25&#45;&gt;Node26</title>
<path fill="none" stroke="midnightblue" d="M1927.97,-311.882C1857.46,-300.979 1722.76,-280.149 1645.12,-268.143"/>
<polygon fill="midnightblue" stroke="midnightblue" points="1645.44,-264.65 1635.02,-266.581 1644.37,-271.568 1645.44,-264.65"/>
</g>
<!-- Node26&#45;&gt;Node4 -->
<g id="edge30" class="edge"><title>Node26&#45;&gt;Node4</title>
<path fill="none" stroke="midnightblue" d="M1635.12,-252.255C1738.35,-242.282 1977.39,-219.192 2087.53,-208.552"/>
<polygon fill="midnightblue" stroke="midnightblue" points="2088.16,-212.007 2097.78,-207.562 2087.49,-205.04 2088.16,-212.007"/>
</g>
<!-- Node26&#45;&gt;Node5 -->
<g id="edge34" class="edge"><title>Node26&#45;&gt;Node5</title>
<path fill="none" stroke="midnightblue" d="M1567.28,-248.461C1544.07,-236.668 1509.38,-214.313 1525,-192 1635.95,-33.5084 1900.9,-13.2972 1991.23,-11.108"/>
<polygon fill="midnightblue" stroke="midnightblue" points="1991.42,-14.6052 2001.35,-10.9223 1991.29,-7.60635 1991.42,-14.6052"/>
</g>
<!-- Node26&#45;&gt;Node7 -->
<g id="edge35" class="edge"><title>Node26&#45;&gt;Node7</title>
<path fill="none" stroke="midnightblue" d="M1568.13,-248.47C1526,-228.359 1420.24,-177.874 1370.14,-153.955"/>
<polygon fill="midnightblue" stroke="midnightblue" points="1371.43,-150.692 1360.89,-149.542 1368.41,-157.009 1371.43,-150.692"/>
</g>
<!-- Node26&#45;&gt;Node11 -->
<g id="edge33" class="edge"><title>Node26&#45;&gt;Node11</title>
<path fill="none" stroke="midnightblue" d="M1553.37,-248.475C1524.57,-240.49 1481.72,-227.485 1446,-212 1429.21,-204.72 1427.59,-197.072 1410,-192 1237.85,-142.353 669.379,-140.381 513.714,-140.8"/>
<polygon fill="midnightblue" stroke="midnightblue" points="513.636,-137.3 503.647,-140.832 513.658,-144.3 513.636,-137.3"/>
</g>
<!-- Node26&#45;&gt;Node18 -->
<g id="edge31" class="edge"><title>Node26&#45;&gt;Node18</title>
<path fill="none" stroke="midnightblue" d="M1635.37,-250.503C1641.97,-249.651 1648.65,-248.798 1655,-248 1787.37,-231.372 1828.38,-259.612 1953,-212 2016.81,-187.622 2014.51,-146.52 2079,-124 2321.58,-39.286 2406.52,-149.479 2656,-88 2711.85,-74.2371 2772.11,-43.061 2804.38,-24.8806"/>
<polygon fill="midnightblue" stroke="midnightblue" points="2806.52,-27.6908 2813.46,-19.6893 2803.05,-21.6137 2806.52,-27.6908"/>
</g>
<!-- Node27 -->
<g id="node27" class="node"><title>Node27</title>
<polygon fill="none" stroke="#bfbfbf" points="2000.5,-192.5 2000.5,-211.5 2041.5,-211.5 2041.5,-192.5 2000.5,-192.5"/>
<text text-anchor="middle" x="2021" y="-199.5" font-family="Helvetica,sans-Serif" font-size="10.00">ctime</text>
</g>
<!-- Node26&#45;&gt;Node27 -->
<g id="edge32" class="edge"><title>Node26&#45;&gt;Node27</title>
<path fill="none" stroke="midnightblue" d="M1635.16,-249.806C1639.83,-249.173 1644.5,-248.561 1649,-248 1798.47,-229.346 1837.78,-238.827 1986,-212 1987.47,-211.735 1988.96,-211.441 1990.47,-211.127"/>
<polygon fill="midnightblue" stroke="midnightblue" points="1991.43,-214.497 2000.38,-208.832 1989.85,-207.677 1991.43,-214.497"/>
</g>
<!-- Node28 -->
<g id="node28" class="node"><title>Node28</title>
<polygon fill="none" stroke="#bfbfbf" points="1358,-192.5 1358,-211.5 1402,-211.5 1402,-192.5 1358,-192.5"/>
<text text-anchor="middle" x="1380" y="-199.5" font-family="Helvetica,sans-Serif" font-size="10.00">thread</text>
</g>
<!-- Node26&#45;&gt;Node28 -->
<g id="edge36" class="edge"><title>Node26&#45;&gt;Node28</title>
<path fill="none" stroke="midnightblue" d="M1553.36,-248.444C1514.68,-238.304 1450.64,-221.517 1412.17,-211.432"/>
<polygon fill="midnightblue" stroke="midnightblue" points="1412.6,-207.927 1402.04,-208.777 1410.82,-214.698 1412.6,-207.927"/>
</g>
<!-- Node29 -->
<g id="node29" class="node"><title>Node29</title>
<polygon fill="none" stroke="#bfbfbf" points="1666,-192.5 1666,-211.5 1712,-211.5 1712,-192.5 1666,-192.5"/>
<text text-anchor="middle" x="1689" y="-199.5" font-family="Helvetica,sans-Serif" font-size="10.00">stdio.h</text>
</g>
<!-- Node26&#45;&gt;Node29 -->
<g id="edge37" class="edge"><title>Node26&#45;&gt;Node29</title>
<path fill="none" stroke="midnightblue" d="M1602.55,-248.324C1618.99,-239.703 1644.43,-226.364 1663.47,-216.386"/>
<polygon fill="midnightblue" stroke="midnightblue" points="1665.26,-219.398 1672.49,-211.655 1662.01,-213.198 1665.26,-219.398"/>
</g>
<!-- Node30 -->
<g id="node30" class="node"><title>Node30</title>
<polygon fill="none" stroke="#bfbfbf" points="1730.5,-192.5 1730.5,-211.5 1779.5,-211.5 1779.5,-192.5 1730.5,-192.5"/>
<text text-anchor="middle" x="1755" y="-199.5" font-family="Helvetica,sans-Serif" font-size="10.00">string.h</text>
</g>
<!-- Node26&#45;&gt;Node30 -->
<g id="edge38" class="edge"><title>Node26&#45;&gt;Node30</title>
<path fill="none" stroke="midnightblue" d="M1612.78,-248.444C1641.92,-239.132 1688.61,-224.214 1720.48,-214.029"/>
<polygon fill="midnightblue" stroke="midnightblue" points="1721.81,-217.279 1730.27,-210.902 1719.68,-210.611 1721.81,-217.279"/>
</g>
<!-- Node31 -->
<g id="node31" class="node"><title>Node31</title>
<polygon fill="none" stroke="#bfbfbf" points="1798,-192.5 1798,-211.5 1858,-211.5 1858,-192.5 1798,-192.5"/>
<text text-anchor="middle" x="1828" y="-199.5" font-family="Helvetica,sans-Serif" font-size="10.00">sys/stat.h</text>
</g>
<!-- Node26&#45;&gt;Node31 -->
<g id="edge39" class="edge"><title>Node26&#45;&gt;Node31</title>
<path fill="none" stroke="midnightblue" d="M1624.35,-248.481C1664.99,-239.449 1731.03,-224.756 1788,-212 1788.1,-211.978 1788.2,-211.955 1788.3,-211.933"/>
<polygon fill="midnightblue" stroke="midnightblue" points="1788.87,-215.392 1797.86,-209.789 1787.34,-208.562 1788.87,-215.392"/>
</g>
<!-- Node32 -->
<g id="node32" class="node"><title>Node32</title>
<polygon fill="none" stroke="#bfbfbf" points="1876,-192.5 1876,-211.5 1944,-211.5 1944,-192.5 1876,-192.5"/>
<text text-anchor="middle" x="1910" y="-199.5" font-family="Helvetica,sans-Serif" font-size="10.00">sys/types.h</text>
</g>
<!-- Node26&#45;&gt;Node32 -->
<g id="edge40" class="edge"><title>Node26&#45;&gt;Node32</title>
<path fill="none" stroke="midnightblue" d="M1635.17,-249.743C1691.17,-241.329 1785.36,-226.721 1866,-212 1866.1,-211.982 1866.2,-211.963 1866.3,-211.945"/>
<polygon fill="midnightblue" stroke="midnightblue" points="1866.75,-215.423 1875.92,-210.12 1865.44,-208.546 1866.75,-215.423"/>
</g>
<!-- Node33 -->
<g id="node33" class="node"><title>Node33</title>
<polygon fill="none" stroke="#bfbfbf" points="1534.5,-192.5 1534.5,-211.5 1585.5,-211.5 1585.5,-192.5 1534.5,-192.5"/>
<text text-anchor="middle" x="1560" y="-199.5" font-family="Helvetica,sans-Serif" font-size="10.00">unistd.h</text>
</g>
<!-- Node26&#45;&gt;Node33 -->
<g id="edge41" class="edge"><title>Node26&#45;&gt;Node33</title>
<path fill="none" stroke="midnightblue" d="M1581.71,-248.083C1578.15,-240.691 1572.98,-229.953 1568.58,-220.811"/>
<polygon fill="midnightblue" stroke="midnightblue" points="1571.71,-219.243 1564.21,-211.751 1565.4,-222.279 1571.71,-219.243"/>
</g>
<!-- Node34 -->
<g id="node34" class="node"><title>Node34</title>
<polygon fill="none" stroke="#bfbfbf" points="1604,-192.5 1604,-211.5 1648,-211.5 1648,-192.5 1604,-192.5"/>
<text text-anchor="middle" x="1626" y="-199.5" font-family="Helvetica,sans-Serif" font-size="10.00">fcntl.h</text>
</g>
<!-- Node26&#45;&gt;Node34 -->
<g id="edge42" class="edge"><title>Node26&#45;&gt;Node34</title>
<path fill="none" stroke="midnightblue" d="M1592.61,-248.083C1598.26,-240.455 1606.54,-229.264 1613.45,-219.941"/>
<polygon fill="midnightblue" stroke="midnightblue" points="1616.38,-221.87 1619.52,-211.751 1610.75,-217.703 1616.38,-221.87"/>
</g>
<!-- Node35&#45;&gt;Node5 -->
<g id="edge48" class="edge"><title>Node35&#45;&gt;Node5</title>
<path fill="none" stroke="midnightblue" d="M1470.35,-440.456C1411.03,-396.496 1147.29,-195.101 1195,-124 1239.42,-57.7954 1283.34,-74.0505 1361,-56 1483.37,-27.5561 1878.22,-14.8885 1991.41,-11.7845"/>
<polygon fill="midnightblue" stroke="midnightblue" points="1991.57,-15.2817 2001.47,-11.5137 1991.38,-8.28424 1991.57,-15.2817"/>
</g>
<!-- Node35&#45;&gt;Node8 -->
<g id="edge49" class="edge"><title>Node35&#45;&gt;Node8</title>
<path fill="none" stroke="midnightblue" d="M1434.23,-443.471C1310.31,-427.179 972.433,-370.155 746,-212 673.39,-161.284 690.789,-111.789 622,-56 605.057,-42.259 583.228,-31.2161 565.312,-23.5087"/>
<polygon fill="midnightblue" stroke="midnightblue" points="566.395,-20.1689 555.817,-19.574 563.715,-26.6357 566.395,-20.1689"/>
</g>
<!-- Node35&#45;&gt;Node20 -->
<g id="edge47" class="edge"><title>Node35&#45;&gt;Node20</title>
<path fill="none" stroke="midnightblue" d="M1458.57,-440.446C1437.4,-432.307 1405.71,-419.087 1380,-404 1222.08,-311.319 1196.56,-267.095 1051,-156 1011.71,-126.012 996.654,-124.201 963,-88 946.003,-69.7167 930.817,-45.1929 921.526,-28.7812"/>
<polygon fill="midnightblue" stroke="midnightblue" points="924.433,-26.8054 916.539,-19.7391 918.304,-30.186 924.433,-26.8054"/>
</g>
<!-- Node35&#45;&gt;Node25 -->
<g id="edge46" class="edge"><title>Node35&#45;&gt;Node25</title>
<path fill="none" stroke="midnightblue" d="M1515.05,-440.403C1597.82,-418.867 1814.81,-362.416 1917.97,-335.578"/>
<polygon fill="midnightblue" stroke="midnightblue" points="1919.09,-338.903 1927.88,-332.997 1917.33,-332.128 1919.09,-338.903"/>
</g>
<!-- Node36 -->
<g id="node36" class="node"><title>Node36</title>
<g id="a_node36"><a xlink:href="pattern__formatter__impl_8h.html" target="_top" xlink:title="spdlog/details/pattern\l_formatter_impl.h">
<polygon fill="none" stroke="black" points="1434,-373 1434,-403 1544,-403 1544,-373 1434,-373"/>
<text text-anchor="start" x="1442" y="-391" font-family="Helvetica,sans-Serif" font-size="10.00">spdlog/details/pattern</text>
<text text-anchor="middle" x="1489" y="-380" font-family="Helvetica,sans-Serif" font-size="10.00">_formatter_impl.h</text>
</a>
</g>
</g>
<!-- Node35&#45;&gt;Node36 -->
<g id="edge50" class="edge"><title>Node35&#45;&gt;Node36</title>
<path fill="none" stroke="midnightblue" d="M1478.1,-440.403C1477.39,-433.265 1478.04,-422.752 1479.56,-413.09"/>
<polygon fill="midnightblue" stroke="midnightblue" points="1483.02,-413.629 1481.52,-403.141 1476.15,-412.274 1483.02,-413.629"/>
</g>
<!-- Node36&#45;&gt;Node5 -->
<g id="edge59" class="edge"><title>Node36&#45;&gt;Node5</title>
<path fill="none" stroke="midnightblue" d="M1457.79,-372.961C1440.51,-364.11 1419.47,-351.438 1404,-336 1331.17,-263.325 1245.88,-203.662 1311,-124 1398.53,-16.9228 1866.04,-10.5295 1991.18,-10.7636"/>
<polygon fill="midnightblue" stroke="midnightblue" points="1991.21,-14.2637 2001.23,-10.7987 1991.24,-7.26373 1991.21,-14.2637"/>
</g>
<!-- Node36&#45;&gt;Node7 -->
<g id="edge55" class="edge"><title>Node36&#45;&gt;Node7</title>
<path fill="none" stroke="midnightblue" d="M1472.31,-372.666C1441.59,-345.131 1376.68,-281.387 1349,-212 1342.35,-195.318 1341.31,-174.721 1341.66,-160.016"/>
<polygon fill="midnightblue" stroke="midnightblue" points="1345.17,-159.829 1342.16,-149.672 1338.18,-159.493 1345.17,-159.829"/>
</g>
<!-- Node36&#45;&gt;Node8 -->
<g id="edge57" class="edge"><title>Node36&#45;&gt;Node8</title>
<path fill="none" stroke="midnightblue" d="M1440.32,-372.9C1405.2,-362.705 1356.65,-348.571 1314,-336 1128.94,-281.455 1072.96,-293.293 898,-212 783.3,-158.708 773.377,-112.051 660,-56 630.174,-41.2547 594.293,-29.0814 568.12,-21.1309"/>
<polygon fill="midnightblue" stroke="midnightblue" points="568.83,-17.6905 558.247,-18.1918 566.832,-24.3995 568.83,-17.6905"/>
</g>
<!-- Node36&#45;&gt;Node13 -->
<g id="edge54" class="edge"><title>Node36&#45;&gt;Node13</title>
<path fill="none" stroke="midnightblue" d="M1541.74,-372.986C1605.27,-356.191 1715.28,-327.387 1810,-304 1983.32,-261.208 2038.48,-285.873 2201,-212 2232.56,-197.655 2264.29,-172.576 2283.03,-156.387"/>
<polygon fill="midnightblue" stroke="midnightblue" points="2285.49,-158.882 2290.68,-149.645 2280.87,-153.63 2285.49,-158.882"/>
</g>
<!-- Node36&#45;&gt;Node20 -->
<g id="edge62" class="edge"><title>Node36&#45;&gt;Node20</title>
<path fill="none" stroke="midnightblue" d="M1449.55,-372.912C1425.39,-363.667 1394.18,-350.61 1368,-336 1186.36,-234.622 989.786,-75.6592 930.145,-26.2023"/>
<polygon fill="midnightblue" stroke="midnightblue" points="932.282,-23.4274 922.357,-19.7198 927.804,-28.8074 932.282,-23.4274"/>
</g>
<!-- Node36&#45;&gt;Node21 -->
<g id="edge61" class="edge"><title>Node36&#45;&gt;Node21</title>
<path fill="none" stroke="midnightblue" d="M1544.19,-377.205C1599.59,-367.261 1687.34,-351.205 1763,-336 1833.21,-321.891 2008.35,-284.664 2078,-268 2268.39,-222.445 2317.2,-214.563 2504,-156 2587.99,-129.67 2621.93,-143.798 2690,-88 2709.16,-72.2959 2722.58,-46.6029 2730.05,-29.2595"/>
<polygon fill="midnightblue" stroke="midnightblue" points="2733.41,-30.2861 2733.92,-19.7038 2726.92,-27.6558 2733.41,-30.2861"/>
</g>
<!-- Node36&#45;&gt;Node25 -->
<g id="edge52" class="edge"><title>Node36&#45;&gt;Node25</title>
<path fill="none" stroke="midnightblue" d="M1544.16,-379.493C1637.13,-366.842 1824.03,-341.408 1917.74,-328.656"/>
<polygon fill="midnightblue" stroke="midnightblue" points="1918.44,-332.093 1927.87,-327.277 1917.49,-325.157 1918.44,-332.093"/>
</g>
<!-- Node36&#45;&gt;Node26 -->
<g id="edge53" class="edge"><title>Node36&#45;&gt;Node26</title>
<path fill="none" stroke="midnightblue" d="M1502.51,-372.697C1511.73,-362.701 1524.03,-348.888 1534,-336 1549.2,-316.348 1564.94,-292.469 1575.06,-276.564"/>
<polygon fill="midnightblue" stroke="midnightblue" points="1578.21,-278.127 1580.58,-267.8 1572.29,-274.395 1578.21,-278.127"/>
</g>
<!-- Node36&#45;&gt;Node27 -->
<g id="edge56" class="edge"><title>Node36&#45;&gt;Node27</title>
<path fill="none" stroke="midnightblue" d="M1508.85,-372.877C1558.03,-337.901 1681.98,-249.926 1687,-248 1811.99,-200.104 1854.45,-236.721 1986,-212 1987.46,-211.725 1988.96,-211.423 1990.46,-211.102"/>
<polygon fill="midnightblue" stroke="midnightblue" points="1991.43,-214.47 2000.37,-208.785 1989.84,-207.654 1991.43,-214.47"/>
</g>
<!-- Node36&#45;&gt;Node28 -->
<g id="edge60" class="edge"><title>Node36&#45;&gt;Node28</title>
<path fill="none" stroke="midnightblue" d="M1487.87,-372.998C1485.1,-346.263 1475.92,-287.13 1447,-248 1437.05,-234.54 1421.8,-223.845 1408.37,-216.264"/>
<polygon fill="midnightblue" stroke="midnightblue" points="1409.91,-213.122 1399.44,-211.518 1406.62,-219.302 1409.91,-213.122"/>
</g>
<!-- Node36&#45;&gt;Node35 -->
<g id="edge51" class="edge"><title>Node36&#45;&gt;Node35</title>
<path fill="none" stroke="midnightblue" d="M1493.18,-403.141C1493.28,-411.362 1492.2,-421.814 1490.41,-430.663"/>
<polygon fill="midnightblue" stroke="midnightblue" points="1487.01,-429.846 1487.9,-440.403 1493.79,-431.593 1487.01,-429.846"/>
</g>
<!-- Node36&#45;&gt;Node37 -->
<g id="edge58" class="edge"><title>Node36&#45;&gt;Node37</title>
<path fill="none" stroke="midnightblue" d="M1544.42,-384.267C1663.21,-378.001 1938.87,-361.178 2029,-336 2031.2,-335.386 2033.43,-334.621 2035.64,-333.764"/>
<polygon fill="midnightblue" stroke="midnightblue" points="2037.27,-336.871 2044.97,-329.601 2034.41,-330.478 2037.27,-336.871"/>
</g>
<!-- Node38&#45;&gt;Node5 -->
<g id="edge79" class="edge"><title>Node38&#45;&gt;Node5</title>
<path fill="none" stroke="midnightblue" d="M567.113,-632.616C554.699,-608.59 532,-558.444 532,-513 532,-513 532,-513 532,-387 532,-154.875 719.076,-138.62 936,-56 1036.84,-17.5937 1824.42,-11.8942 1991.08,-11.1157"/>
<polygon fill="midnightblue" stroke="midnightblue" points="1991.17,-14.6155 2001.15,-11.0712 1991.13,-7.61552 1991.17,-14.6155"/>
</g>
<!-- Node38&#45;&gt;Node8 -->
<g id="edge78" class="edge"><title>Node38&#45;&gt;Node8</title>
<path fill="none" stroke="midnightblue" d="M554.123,-632.93C541.966,-623.737 527.258,-610.727 518,-596 497.564,-563.49 494,-551.4 494,-513 494,-513 494,-513 494,-387 494,-267.206 393.397,-236.338 435,-124 450.434,-82.3244 488.873,-45.6696 512.466,-26.0823"/>
<polygon fill="midnightblue" stroke="midnightblue" points="514.836,-28.6669 520.416,-19.6605 510.438,-23.2215 514.836,-28.6669"/>
</g>
<!-- Node38&#45;&gt;Node22 -->
<g id="edge71" class="edge"><title>Node38&#45;&gt;Node22</title>
<path fill="none" stroke="midnightblue" d="M586.486,-663.141C590.829,-671.362 595.158,-681.814 597.94,-690.663"/>
<polygon fill="midnightblue" stroke="midnightblue" points="594.567,-691.6 600.462,-700.403 601.343,-689.845 594.567,-691.6"/>
</g>
<!-- Node38&#45;&gt;Node39 -->
<g id="edge72" class="edge"><title>Node38&#45;&gt;Node39</title>
<path fill="none" stroke="midnightblue" d="M628.404,-644.592C855.16,-634.37 1737.58,-594.589 1978.14,-583.744"/>
<polygon fill="midnightblue" stroke="midnightblue" points="1978.61,-587.226 1988.44,-583.279 1978.29,-580.233 1978.61,-587.226"/>
</g>
<!-- Node39&#45;&gt;Node8 -->
<g id="edge76" class="edge"><title>Node39&#45;&gt;Node8</title>
<path fill="none" stroke="midnightblue" d="M1988.13,-577.968C1859.4,-574.893 1510.43,-563.663 1222,-528 1057.8,-507.698 996.04,-548.105 856,-460 765.284,-402.927 586.777,-104.613 542.248,-28.626"/>
<polygon fill="midnightblue" stroke="midnightblue" points="545.146,-26.6477 537.081,-19.7775 539.101,-30.1779 545.146,-26.6477"/>
</g>
<!-- Node39&#45;&gt;Node12 -->
<g id="edge73" class="edge"><title>Node39&#45;&gt;Node12</title>
<path fill="none" stroke="midnightblue" d="M2065.61,-564.825C2083.93,-554.886 2108.71,-541.088 2130,-528 2189.75,-491.269 2196.69,-467.995 2261,-440 2325.45,-411.944 2367.97,-456.238 2415,-404 2475.81,-336.454 2462.43,-216.586 2453.14,-165.337"/>
<polygon fill="midnightblue" stroke="midnightblue" points="2456.52,-164.371 2451.2,-155.212 2449.65,-165.693 2456.52,-164.371"/>
</g>
<!-- Node39&#45;&gt;Node18 -->
<g id="edge75" class="edge"><title>Node39&#45;&gt;Node18</title>
<path fill="none" stroke="midnightblue" d="M2076.17,-564.993C2241.73,-502.337 2904,-248.849 2904,-203 2904,-203 2904,-203 2904,-139 2904,-92.9944 2867.25,-49.0786 2844.86,-26.591"/>
<polygon fill="midnightblue" stroke="midnightblue" points="2847.24,-24.0187 2837.63,-19.5623 2842.36,-29.0401 2847.24,-24.0187"/>
</g>
<!-- Node39&#45;&gt;Node23 -->
<g id="edge74" class="edge"><title>Node39&#45;&gt;Node23</title>
<path fill="none" stroke="midnightblue" d="M2039,-564.679C2039,-555.101 2039,-542.394 2039,-531.977"/>
<polygon fill="midnightblue" stroke="midnightblue" points="2042.5,-531.828 2039,-521.828 2035.5,-531.828 2042.5,-531.828"/>
</g>
<!-- Node39&#45;&gt;Node37 -->
<g id="edge77" class="edge"><title>Node39&#45;&gt;Node37</title>
<path fill="none" stroke="midnightblue" d="M2071.22,-564.937C2086.21,-556.554 2102.56,-544.328 2111,-528 2144.55,-463.114 2096.06,-375.242 2072.08,-338.393"/>
<polygon fill="midnightblue" stroke="midnightblue" points="2074.79,-336.149 2066.32,-329.789 2068.98,-340.045 2074.79,-336.149"/>
</g>
<!-- Node40&#45;&gt;Node4 -->
<g id="edge115" class="edge"><title>Node40&#45;&gt;Node4</title>
<path fill="none" stroke="midnightblue" d="M1570.61,-812.485C1661.42,-797.816 1824,-764.134 1824,-711 1824,-711 1824,-711 1824,-511 1824,-409.774 1846.18,-374.314 1919,-304 1969.18,-255.545 2046.58,-227.931 2096.52,-214.211"/>
<polygon fill="midnightblue" stroke="midnightblue" points="2097.66,-217.527 2106.43,-211.57 2095.86,-210.763 2097.66,-217.527"/>
</g>
<!-- Node40&#45;&gt;Node5 -->
<g id="edge120" class="edge"><title>Node40&#45;&gt;Node5</title>
<path fill="none" stroke="midnightblue" d="M1571.02,-820.734C1732.83,-819.526 2175.35,-812.848 2316,-776 2514.64,-723.96 2508.05,-592.281 2590,-404 2639.93,-289.284 2659.35,-201.335 2561,-124 2522.88,-94.0246 2499.81,-112.575 2458,-88 2439.55,-77.1513 2441.55,-64.7161 2422,-56 2355.88,-26.5232 2134.76,-15.2831 2052.86,-12.0689"/>
<polygon fill="midnightblue" stroke="midnightblue" points="2052.82,-8.56505 2042.7,-11.6836 2052.56,-15.56 2052.82,-8.56505"/>
</g>
<!-- Node40&#45;&gt;Node7 -->
<g id="edge116" class="edge"><title>Node40&#45;&gt;Node7</title>
<path fill="none" stroke="midnightblue" d="M1451.39,-812.485C1360.58,-797.816 1198,-764.134 1198,-711 1198,-711 1198,-711 1198,-647 1198,-448.769 1302.11,-223.167 1333.9,-158.913"/>
<polygon fill="midnightblue" stroke="midnightblue" points="1337.15,-160.224 1338.5,-149.715 1330.89,-157.09 1337.15,-160.224"/>
</g>
<!-- Node40&#45;&gt;Node8 -->
<g id="edge118" class="edge"><title>Node40&#45;&gt;Node8</title>
<path fill="none" stroke="midnightblue" d="M1450.69,-820.088C1215.84,-816.366 369.67,-801.312 252,-776 143.874,-752.741 38,-759.599 38,-649 38,-649 38,-649 38,-139 38,-89.2818 68.7064,-78.5826 113,-56 179.547,-22.0715 406.52,-13.6381 495.65,-11.6143"/>
<polygon fill="midnightblue" stroke="midnightblue" points="495.893,-15.11 505.816,-11.398 495.744,-8.1116 495.893,-15.11"/>
</g>
<!-- Node40&#45;&gt;Node11 -->
<g id="edge117" class="edge"><title>Node40&#45;&gt;Node11</title>
<path fill="none" stroke="midnightblue" d="M1450.63,-819.672C1226.32,-814.203 449.478,-790.294 366,-720 230.27,-605.706 380,-498.442 380,-321 380,-321 380,-321 380,-257 380,-211.858 423.502,-174.452 451.318,-155.147"/>
<polygon fill="midnightblue" stroke="midnightblue" points="453.355,-157.996 459.723,-149.529 449.465,-152.176 453.355,-157.996"/>
</g>
<!-- Node40&#45;&gt;Node12 -->
<g id="edge86" class="edge"><title>Node40&#45;&gt;Node12</title>
<path fill="none" stroke="midnightblue" d="M1571.08,-820.028C1773.21,-815.974 2416,-796.369 2416,-711 2416,-711 2416,-711 2416,-579 2416,-459.326 2505.57,-452.719 2532,-336 2535.14,-322.129 2535.35,-317.822 2532,-304 2518.94,-250.167 2484.83,-194.211 2464.32,-163.888"/>
<polygon fill="midnightblue" stroke="midnightblue" points="2466.98,-161.583 2458.42,-155.331 2461.21,-165.552 2466.98,-161.583"/>
</g>
<!-- Node40&#45;&gt;Node22 -->
<g id="edge87" class="edge"><title>Node40&#45;&gt;Node22</title>
<path fill="none" stroke="midnightblue" d="M1450.85,-818.678C1344.96,-814.071 1118.52,-801.901 929,-776 826.791,-762.032 708.493,-736.387 644.987,-721.834"/>
<polygon fill="midnightblue" stroke="midnightblue" points="645.433,-718.345 634.903,-719.511 643.862,-725.166 645.433,-718.345"/>
</g>
<!-- Node40&#45;&gt;Node37 -->
<g id="edge119" class="edge"><title>Node40&#45;&gt;Node37</title>
<path fill="none" stroke="midnightblue" d="M1571.13,-819.529C1653.77,-816.384 1796.9,-806.561 1838,-776 1947.8,-694.352 1905.15,-618.556 1966,-496 1995.06,-437.467 2032.6,-369.704 2050.15,-338.445"/>
<polygon fill="midnightblue" stroke="midnightblue" points="2053.25,-340.068 2055.11,-329.637 2047.15,-336.635 2053.25,-340.068"/>
</g>
<!-- Node41 -->
<g id="node41" class="node"><title>Node41</title>
<g id="a_node41"><a xlink:href="async__logger_8h.html" target="_top" xlink:title="spdlog/async_logger.h">
<polygon fill="none" stroke="black" points="938,-756.5 938,-775.5 1052,-775.5 1052,-756.5 938,-756.5"/>
<text text-anchor="middle" x="995" y="-763.5" font-family="Helvetica,sans-Serif" font-size="10.00">spdlog/async_logger.h</text>
</a>
</g>
</g>
<!-- Node40&#45;&gt;Node41 -->
<g id="edge88" class="edge"><title>Node40&#45;&gt;Node41</title>
<path fill="none" stroke="midnightblue" d="M1450.8,-814.7C1353.77,-804.546 1163.47,-784.631 1062.17,-774.03"/>
<polygon fill="midnightblue" stroke="midnightblue" points="1062.37,-770.531 1052.06,-772.971 1061.64,-777.493 1062.37,-770.531"/>
</g>
<!-- Node44 -->
<g id="node44" class="node"><title>Node44</title>
<polygon fill="none" stroke="#bfbfbf" points="1469.5,-756.5 1469.5,-775.5 1552.5,-775.5 1552.5,-756.5 1469.5,-756.5"/>
<text text-anchor="middle" x="1511" y="-763.5" font-family="Helvetica,sans-Serif" font-size="10.00">unordered_map</text>
</g>
<!-- Node40&#45;&gt;Node44 -->
<g id="edge121" class="edge"><title>Node40&#45;&gt;Node44</title>
<path fill="none" stroke="midnightblue" d="M1511,-812.083C1511,-805.006 1511,-794.861 1511,-785.986"/>
<polygon fill="midnightblue" stroke="midnightblue" points="1514.5,-785.751 1511,-775.751 1507.5,-785.751 1514.5,-785.751"/>
</g>
<!-- Node41&#45;&gt;Node4 -->
<g id="edge89" class="edge"><title>Node41&#45;&gt;Node4</title>
<path fill="none" stroke="midnightblue" d="M1019.5,-756.47C1118.17,-721.927 1486.26,-591.276 1592,-528 1674.82,-478.44 1837.13,-290.045 1924,-248 1938.62,-240.925 2027.1,-224.121 2087.58,-213.169"/>
<polygon fill="midnightblue" stroke="midnightblue" points="2088.55,-216.55 2097.77,-211.33 2087.31,-209.661 2088.55,-216.55"/>
</g>
<!-- Node41&#45;&gt;Node5 -->
<g id="edge93" class="edge"><title>Node41&#45;&gt;Node5</title>
<path fill="none" stroke="midnightblue" d="M1052.18,-763.265C1280.44,-755.53 2125.32,-718.976 2358,-596 2555.53,-491.602 2701.63,-268.242 2531,-124 2494.61,-93.2341 2472.26,-110.018 2430,-88 2408.24,-76.6615 2407.87,-64.8914 2385,-56 2324.5,-32.481 2129.11,-17.8269 2052.87,-12.8785"/>
<polygon fill="midnightblue" stroke="midnightblue" points="2052.72,-9.36183 2042.52,-12.2189 2052.28,-16.3477 2052.72,-9.36183"/>
</g>
<!-- Node41&#45;&gt;Node7 -->
<g id="edge91" class="edge"><title>Node41&#45;&gt;Node7</title>
<path fill="none" stroke="midnightblue" d="M998.328,-756.412C1012.11,-720.046 1064,-574.908 1064,-451 1064,-451 1064,-451 1064,-319 1064,-260.833 1238.53,-183.327 1311.51,-153.461"/>
<polygon fill="midnightblue" stroke="midnightblue" points="1313.16,-156.571 1321.11,-149.57 1310.53,-150.085 1313.16,-156.571"/>
</g>
<!-- Node41&#45;&gt;Node8 -->
<g id="edge94" class="edge"><title>Node41&#45;&gt;Node8</title>
<path fill="none" stroke="midnightblue" d="M937.587,-763.771C828.866,-760.749 597.262,-750.801 524,-720 452.41,-689.902 152,-409.406 152,-389 152,-389 152,-389 152,-139 152,-84.9127 192.344,-79.6223 241,-56 285.307,-34.489 427.783,-19.8655 495.541,-13.9484"/>
<polygon fill="midnightblue" stroke="midnightblue" points="496.084,-17.4148 505.748,-13.0737 495.486,-10.4404 496.084,-17.4148"/>
</g>
<!-- Node41&#45;&gt;Node11 -->
<g id="edge92" class="edge"><title>Node41&#45;&gt;Node11</title>
<path fill="none" stroke="midnightblue" d="M937.904,-765.384C832.376,-765.109 611.753,-759.639 548,-720 498.652,-689.317 456,-540.378 456,-513 456,-513 456,-513 456,-257 456,-222.306 463.96,-182.457 469.293,-159.652"/>
<polygon fill="midnightblue" stroke="midnightblue" points="472.761,-160.203 471.72,-149.66 465.959,-158.551 472.761,-160.203"/>
</g>
<!-- Node41&#45;&gt;Node22 -->
<g id="edge90" class="edge"><title>Node41&#45;&gt;Node22</title>
<path fill="none" stroke="midnightblue" d="M937.841,-757.206C860.822,-746.703 724.853,-728.162 650.727,-718.054"/>
<polygon fill="midnightblue" stroke="midnightblue" points="651.072,-714.568 640.691,-716.685 650.126,-721.504 651.072,-714.568"/>
</g>
<!-- Node42 -->
<g id="node42" class="node"><title>Node42</title>
<g id="a_node42"><a xlink:href="async__logger__impl_8h.html" target="_top" xlink:title="spdlog/details/async\l_logger_impl.h">
<polygon fill="none" stroke="black" points="831,-565 831,-595 937,-595 937,-565 831,-565"/>
<text text-anchor="start" x="839" y="-583" font-family="Helvetica,sans-Serif" font-size="10.00">spdlog/details/async</text>
<text text-anchor="middle" x="884" y="-572" font-family="Helvetica,sans-Serif" font-size="10.00">_logger_impl.h</text>
</a>
</g>
</g>
<!-- Node41&#45;&gt;Node42 -->
<g id="edge95" class="edge"><title>Node41&#45;&gt;Node42</title>
<path fill="none" stroke="midnightblue" d="M986.537,-756.125C965.749,-728.744 914.697,-644.969 893.236,-604.019"/>
<polygon fill="midnightblue" stroke="midnightblue" points="896.327,-602.376 888.676,-595.047 890.087,-605.548 896.327,-602.376"/>
</g>
<!-- Node42&#45;&gt;Node5 -->
<g id="edge111" class="edge"><title>Node42&#45;&gt;Node5</title>
<path fill="none" stroke="midnightblue" d="M881.932,-564.96C875.618,-518.361 859.281,-365.14 898,-248 943.083,-111.609 1020.8,-98.5661 1158,-56 1238.74,-30.949 1845.69,-15.1562 1990.87,-11.7122"/>
<polygon fill="midnightblue" stroke="midnightblue" points="1991.35,-15.2022 2001.26,-11.4683 1991.18,-8.20408 1991.35,-15.2022"/>
</g>
<!-- Node42&#45;&gt;Node7 -->
<g id="edge113" class="edge"><title>Node42&#45;&gt;Node7</title>
<path fill="none" stroke="midnightblue" d="M898.662,-564.841C934.942,-528.204 1026,-425.812 1026,-321 1026,-321 1026,-321 1026,-257 1026,-203.992 1077.25,-212.818 1126,-192 1142.84,-184.81 1253.34,-160.385 1309.84,-148.132"/>
<polygon fill="midnightblue" stroke="midnightblue" points="1310.7,-151.529 1319.73,-145.993 1309.22,-144.687 1310.7,-151.529"/>
</g>
<!-- Node42&#45;&gt;Node8 -->
<g id="edge114" class="edge"><title>Node42&#45;&gt;Node8</title>
<path fill="none" stroke="midnightblue" d="M830.734,-568.718C741.149,-549.887 570,-506.631 570,-451 570,-451 570,-451 570,-387 570,-249.18 544.415,-84.3777 535.232,-29.6658"/>
<polygon fill="midnightblue" stroke="midnightblue" points="538.666,-28.9816 533.537,-19.7112 531.765,-30.157 538.666,-28.9816"/>
</g>
<!-- Node42&#45;&gt;Node11 -->
<g id="edge112" class="edge"><title>Node42&#45;&gt;Node11</title>
<path fill="none" stroke="midnightblue" d="M831.689,-564.917C807.193,-556.697 778.521,-544.616 756,-528 699.029,-485.967 698.395,-460.703 656,-404 588.304,-313.456 513.167,-200.579 485.245,-158.164"/>
<polygon fill="midnightblue" stroke="midnightblue" points="488.159,-156.226 479.743,-149.79 482.309,-160.07 488.159,-156.226"/>
</g>
<!-- Node42&#45;&gt;Node41 -->
<g id="edge110" class="edge"><title>Node42&#45;&gt;Node41</title>
<path fill="none" stroke="midnightblue" d="M896.273,-595.047C919.889,-627.929 969.482,-709.89 988.177,-746.651"/>
<polygon fill="midnightblue" stroke="midnightblue" points="985.253,-748.644 992.756,-756.125 991.556,-745.599 985.253,-748.644"/>
</g>
<!-- Node43 -->
<g id="node43" class="node"><title>Node43</title>
<g id="a_node43"><a xlink:href="async__log__helper_8h.html" target="_top" xlink:title="spdlog/details/async\l_log_helper.h">
<polygon fill="none" stroke="red" points="1231,-497 1231,-527 1337,-527 1337,-497 1231,-497"/>
<text text-anchor="start" x="1239" y="-515" font-family="Helvetica,sans-Serif" font-size="10.00">spdlog/details/async</text>
<text text-anchor="middle" x="1284" y="-504" font-family="Helvetica,sans-Serif" font-size="10.00">_log_helper.h</text>
</a>
</g>
</g>
<!-- Node42&#45;&gt;Node43 -->
<g id="edge96" class="edge"><title>Node42&#45;&gt;Node43</title>
<path fill="none" stroke="midnightblue" d="M937.117,-570.236C1010.44,-558.138 1142.45,-536.355 1220.77,-523.433"/>
<polygon fill="midnightblue" stroke="midnightblue" points="1221.69,-526.829 1230.98,-521.748 1220.55,-519.923 1221.69,-526.829"/>
</g>
<!-- Node43&#45;&gt;Node4 -->
<g id="edge97" class="edge"><title>Node43&#45;&gt;Node4</title>
<path fill="none" stroke="midnightblue" d="M1337.04,-510.491C1391.13,-507.755 1475.73,-497.178 1538,-460 1581.63,-433.951 1574.92,-407.785 1611,-372 1672.9,-310.605 1682.72,-282.013 1763,-248 1777.73,-241.758 1984.54,-219.638 2087.54,-208.915"/>
<polygon fill="midnightblue" stroke="midnightblue" points="2088.19,-212.366 2097.78,-207.851 2087.47,-205.404 2088.19,-212.366"/>
</g>
<!-- Node43&#45;&gt;Node5 -->
<g id="edge106" class="edge"><title>Node43&#45;&gt;Node5</title>
<path fill="none" stroke="midnightblue" d="M1230.74,-501.846C1145.52,-483.807 988,-435.038 988,-321 988,-321 988,-321 988,-257 988,-213.987 1113.03,-99.4325 1226,-56 1298.33,-28.1919 1853.21,-14.6007 1991.07,-11.6323"/>
<polygon fill="midnightblue" stroke="midnightblue" points="1991.41,-15.1259 2001.33,-11.4144 1991.26,-8.12748 1991.41,-15.1259"/>
</g>
<!-- Node43&#45;&gt;Node7 -->
<g id="edge102" class="edge"><title>Node43&#45;&gt;Node7</title>
<path fill="none" stroke="midnightblue" d="M1286.24,-496.947C1295.36,-439.79 1329.65,-224.729 1340.01,-159.724"/>
<polygon fill="midnightblue" stroke="midnightblue" points="1343.49,-160.131 1341.61,-149.705 1336.58,-159.029 1343.49,-160.131"/>
</g>
<!-- Node43&#45;&gt;Node8 -->
<g id="edge105" class="edge"><title>Node43&#45;&gt;Node8</title>
<path fill="none" stroke="midnightblue" d="M1230.76,-509.189C1173.65,-505.442 1081.52,-494.1 1010,-460 856.613,-386.867 839.612,-331.703 719,-212 653.92,-147.411 648.835,-120.835 584,-56 573.447,-45.4475 560.802,-34.4713 550.624,-26.0011"/>
<polygon fill="midnightblue" stroke="midnightblue" points="552.704,-23.1806 542.755,-19.5399 548.262,-28.5907 552.704,-23.1806"/>
</g>
<!-- Node43&#45;&gt;Node10 -->
<g id="edge103" class="edge"><title>Node43&#45;&gt;Node10</title>
<path fill="none" stroke="midnightblue" d="M1268.22,-496.888C1258.6,-487.398 1246.87,-474.085 1240,-460 1201.88,-381.809 1210.48,-354.574 1202,-268 1198.71,-234.383 1192.66,-224.461 1202,-192 1205.59,-179.516 1213.24,-167.133 1220.16,-157.696"/>
<polygon fill="midnightblue" stroke="midnightblue" points="1223.04,-159.688 1226.41,-149.643 1217.51,-155.395 1223.04,-159.688"/>
</g>
<!-- Node43&#45;&gt;Node11 -->
<g id="edge104" class="edge"><title>Node43&#45;&gt;Node11</title>
<path fill="none" stroke="midnightblue" d="M1230.84,-506.548C1141.74,-498.627 966.276,-480.937 908,-460 719.608,-392.317 702.724,-316.54 546,-192 529.514,-178.899 509.972,-165.162 495.41,-155.25"/>
<polygon fill="midnightblue" stroke="midnightblue" points="497.305,-152.306 487.058,-149.612 493.388,-158.108 497.305,-152.306"/>
</g>
<!-- Node43&#45;&gt;Node20 -->
<g id="edge109" class="edge"><title>Node43&#45;&gt;Node20</title>
<path fill="none" stroke="midnightblue" d="M1230.96,-508.685C1160.75,-502.578 1038.36,-480.806 974,-404 878.976,-290.599 899.561,-91.8366 908.818,-29.9452"/>
<polygon fill="midnightblue" stroke="midnightblue" points="912.326,-30.1679 910.433,-19.7437 905.412,-29.0735 912.326,-30.1679"/>
</g>
<!-- Node43&#45;&gt;Node21 -->
<g id="edge108" class="edge"><title>Node43&#45;&gt;Node21</title>
<path fill="none" stroke="midnightblue" d="M1337.06,-503.12C1436.22,-488.646 1656.5,-457.695 1843,-440 1969.79,-427.97 2293.13,-440.989 2415,-404 2601.19,-347.491 2634.65,-263.817 2718,-88 2726.83,-69.3784 2731.83,-46.211 2734.46,-30.1784"/>
<polygon fill="midnightblue" stroke="midnightblue" points="2737.97,-30.3372 2735.98,-19.9323 2731.05,-29.3116 2737.97,-30.3372"/>
</g>
<!-- Node43&#45;&gt;Node24 -->
<g id="edge98" class="edge"><title>Node43&#45;&gt;Node24</title>
<path fill="none" stroke="midnightblue" d="M1337.04,-505.858C1451.42,-494.772 1720.69,-468.671 1841.94,-456.919"/>
<polygon fill="midnightblue" stroke="midnightblue" points="1842.54,-460.377 1852.15,-455.928 1841.86,-453.41 1842.54,-460.377"/>
</g>
<!-- Node43&#45;&gt;Node25 -->
<g id="edge99" class="edge"><title>Node43&#45;&gt;Node25</title>
<path fill="none" stroke="midnightblue" d="M1337.09,-504.158C1395.29,-496.067 1491.15,-480.996 1572,-460 1704.87,-425.493 1856.76,-367.802 1929.97,-338.796"/>
<polygon fill="midnightblue" stroke="midnightblue" points="1931.35,-342.015 1939.35,-335.067 1928.76,-335.51 1931.35,-342.015"/>
</g>
<!-- Node43&#45;&gt;Node26 -->
<g id="edge100" class="edge"><title>Node43&#45;&gt;Node26</title>
<path fill="none" stroke="midnightblue" d="M1296.9,-496.8C1320.91,-470.729 1374.58,-414.05 1425,-372 1471.78,-332.983 1531.55,-293.472 1563.48,-273.102"/>
<polygon fill="midnightblue" stroke="midnightblue" points="1565.51,-275.958 1572.08,-267.648 1561.76,-270.045 1565.51,-275.958"/>
</g>
<!-- Node43&#45;&gt;Node28 -->
<g id="edge107" class="edge"><title>Node43&#45;&gt;Node28</title>
<path fill="none" stroke="midnightblue" d="M1288.37,-496.966C1303.95,-446.987 1356.73,-277.666 1374.27,-221.371"/>
<polygon fill="midnightblue" stroke="midnightblue" points="1377.66,-222.276 1377.29,-211.687 1370.98,-220.193 1377.66,-222.276"/>
</g>
<!-- Node43&#45;&gt;Node35 -->
<g id="edge101" class="edge"><title>Node43&#45;&gt;Node35</title>
<path fill="none" stroke="midnightblue" d="M1330.42,-496.933C1364.97,-486.462 1411.56,-472.345 1443.93,-462.536"/>
<polygon fill="midnightblue" stroke="midnightblue" points="1445.35,-465.762 1453.91,-459.513 1443.32,-459.063 1445.35,-465.762"/>
</g>
<!-- Node45&#45;&gt;Node5 -->
<g id="edge139" class="edge"><title>Node45&#45;&gt;Node5</title>
<path fill="none" stroke="midnightblue" d="M2638.65,-570.195C2678.62,-516.277 2880.05,-229.534 2726,-124 2644.26,-68.0043 2598.19,-124.299 2506,-88 2482.14,-78.6066 2482.12,-64.6814 2458,-56 2383.07,-29.0361 2139.23,-16.083 2052.76,-12.2543"/>
<polygon fill="midnightblue" stroke="midnightblue" points="2052.69,-8.74836 2042.55,-11.8128 2052.39,-15.7418 2052.69,-8.74836"/>
</g>
<!-- Node45&#45;&gt;Node7 -->
<g id="edge135" class="edge"><title>Node45&#45;&gt;Node7</title>
<path fill="none" stroke="midnightblue" d="M2620.33,-570.335C2598.67,-554.465 2550.5,-520.149 2507,-496 2496.22,-490.015 2313.84,-412.594 2305,-404 2229.73,-330.862 2288.38,-250.132 2201,-192 2131.46,-145.735 1527.26,-141.385 1376.81,-141.022"/>
<polygon fill="midnightblue" stroke="midnightblue" points="1376.39,-137.521 1366.39,-141.002 1376.38,-144.521 1376.39,-137.521"/>
</g>
<!-- Node45&#45;&gt;Node12 -->
<g id="edge124" class="edge"><title>Node45&#45;&gt;Node12</title>
<path fill="none" stroke="midnightblue" d="M2637.03,-570.48C2649.28,-548.649 2678.65,-488.98 2665,-440 2631.08,-318.262 2520.83,-206.798 2471.84,-161.907"/>
<polygon fill="midnightblue" stroke="midnightblue" points="2474.01,-159.154 2464.25,-155.039 2469.31,-164.344 2474.01,-159.154"/>
</g>
<!-- Node45&#45;&gt;Node13 -->
<g id="edge133" class="edge"><title>Node45&#45;&gt;Node13</title>
<path fill="none" stroke="midnightblue" d="M2694.3,-576.106C2728.76,-570.927 2768.96,-558.213 2791,-528 2799.38,-516.51 2796.02,-509.306 2791,-496 2714.08,-292.181 2440.27,-185.801 2338.48,-152.599"/>
<polygon fill="midnightblue" stroke="midnightblue" points="2339.48,-149.247 2328.89,-149.524 2337.35,-155.912 2339.48,-149.247"/>
</g>
<!-- Node45&#45;&gt;Node18 -->
<g id="edge136" class="edge"><title>Node45&#45;&gt;Node18</title>
<path fill="none" stroke="midnightblue" d="M2675.76,-570.469C2761.21,-552.551 2942,-507.917 2942,-451 2942,-451 2942,-451 2942,-139 2942,-100.6 2942.57,-85.5102 2918,-56 2902.96,-37.9371 2878.87,-26.4307 2859.4,-19.5784"/>
<polygon fill="midnightblue" stroke="midnightblue" points="2860.3,-16.1911 2849.7,-16.4093 2858.12,-22.8444 2860.3,-16.1911"/>
</g>
<!-- Node45&#45;&gt;Node23 -->
<g id="edge123" class="edge"><title>Node45&#45;&gt;Node23</title>
<path fill="none" stroke="midnightblue" d="M2569.94,-572.093C2459.84,-559.839 2230.85,-534.353 2112.84,-521.218"/>
<polygon fill="midnightblue" stroke="midnightblue" points="2113.14,-517.73 2102.81,-520.102 2112.36,-524.687 2113.14,-517.73"/>
</g>
<!-- Node45&#45;&gt;Node27 -->
<g id="edge137" class="edge"><title>Node45&#45;&gt;Node27</title>
<path fill="none" stroke="midnightblue" d="M2614.09,-570.428C2543.57,-536.669 2288.19,-414.237 2272,-404 2177.29,-344.112 2076.79,-254.568 2037.81,-218.691"/>
<polygon fill="midnightblue" stroke="midnightblue" points="2040.16,-216.102 2030.45,-211.879 2035.41,-221.24 2040.16,-216.102"/>
</g>
<!-- Node45&#45;&gt;Node37 -->
<g id="edge138" class="edge"><title>Node45&#45;&gt;Node37</title>
<path fill="none" stroke="midnightblue" d="M2602.03,-570.434C2570.66,-561.156 2520.2,-545.338 2478,-528 2323.75,-464.629 2147.18,-369.266 2084.01,-334.386"/>
<polygon fill="midnightblue" stroke="midnightblue" points="2085.64,-331.288 2075.2,-329.505 2082.25,-337.412 2085.64,-331.288"/>
</g>
<!-- Node46 -->
<g id="node46" class="node"><title>Node46</title>
<g id="a_node46"><a xlink:href="file__helper_8h.html" target="_top" xlink:title="spdlog/details/file\l_helper.h">
<polygon fill="none" stroke="black" points="2314,-373 2314,-403 2406,-403 2406,-373 2314,-373"/>
<text text-anchor="start" x="2322" y="-391" font-family="Helvetica,sans-Serif" font-size="10.00">spdlog/details/file</text>
<text text-anchor="middle" x="2360" y="-380" font-family="Helvetica,sans-Serif" font-size="10.00">_helper.h</text>
</a>
</g>
</g>
<!-- Node45&#45;&gt;Node46 -->
<g id="edge125" class="edge"><title>Node45&#45;&gt;Node46</title>
<path fill="none" stroke="midnightblue" d="M2631.48,-570.256C2629.52,-545.689 2620.47,-475.52 2580,-440 2555.95,-418.897 2473.16,-403.973 2416.29,-395.927"/>
<polygon fill="midnightblue" stroke="midnightblue" points="2416.73,-392.455 2406.34,-394.552 2415.77,-399.389 2416.73,-392.455"/>
</g>
<!-- Node47 -->
<g id="node47" class="node"><title>Node47</title>
<polygon fill="none" stroke="#bfbfbf" points="2480,-310.5 2480,-329.5 2524,-329.5 2524,-310.5 2480,-310.5"/>
<text text-anchor="middle" x="2502" y="-317.5" font-family="Helvetica,sans-Serif" font-size="10.00">cerrno</text>
</g>
<!-- Node45&#45;&gt;Node47 -->
<g id="edge140" class="edge"><title>Node45&#45;&gt;Node47</title>
<path fill="none" stroke="midnightblue" d="M2694.34,-572.881C2723.58,-566.523 2755.92,-553.71 2774,-528 2782.18,-516.367 2780.81,-508.484 2774,-496 2722.13,-400.947 2594.06,-349.796 2534.02,-330.342"/>
<polygon fill="midnightblue" stroke="midnightblue" points="2534.91,-326.95 2524.32,-327.282 2532.8,-333.627 2534.91,-326.95"/>
</g>
<!-- Node48 -->
<g id="node48" class="node"><title>Node48</title>
<polygon fill="none" stroke="#bfbfbf" points="2710,-502.5 2710,-521.5 2766,-521.5 2766,-502.5 2710,-502.5"/>
<text text-anchor="middle" x="2738" y="-509.5" font-family="Helvetica,sans-Serif" font-size="10.00">algorithm</text>
</g>
<!-- Node45&#45;&gt;Node48 -->
<g id="edge134" class="edge"><title>Node45&#45;&gt;Node48</title>
<path fill="none" stroke="midnightblue" d="M2645.86,-570.372C2663.55,-559.353 2694.4,-540.145 2715.49,-527.014"/>
<polygon fill="midnightblue" stroke="midnightblue" points="2717.5,-529.887 2724.14,-521.63 2713.8,-523.945 2717.5,-529.887"/>
</g>
<!-- Node46&#45;&gt;Node5 -->
<g id="edge130" class="edge"><title>Node46&#45;&gt;Node5</title>
<path fill="none" stroke="midnightblue" d="M2364.65,-372.904C2377.74,-330.289 2410.33,-201.019 2352,-124 2333.15,-99.1094 2130.49,-40.9831 2052.42,-19.327"/>
<polygon fill="midnightblue" stroke="midnightblue" points="2053.26,-15.9271 2042.69,-16.6369 2051.39,-22.6742 2053.26,-15.9271"/>
</g>
<!-- Node46&#45;&gt;Node7 -->
<g id="edge128" class="edge"><title>Node46&#45;&gt;Node7</title>
<path fill="none" stroke="midnightblue" d="M2358.5,-372.811C2353.72,-335.649 2335.26,-235.361 2272,-192 2196.94,-140.555 1534.21,-140.162 1376.55,-140.806"/>
<polygon fill="midnightblue" stroke="midnightblue" points="1376.07,-137.308 1366.09,-140.853 1376.1,-144.308 1376.07,-137.308"/>
</g>
<!-- Node46&#45;&gt;Node18 -->
<g id="edge129" class="edge"><title>Node46&#45;&gt;Node18</title>
<path fill="none" stroke="midnightblue" d="M2378.3,-372.973C2400.17,-356.287 2437.96,-327.71 2471,-304 2603.02,-209.256 2652.63,-204.422 2766,-88 2784.82,-68.6756 2803.9,-44.0589 2815.82,-27.9304"/>
<polygon fill="midnightblue" stroke="midnightblue" points="2818.9,-29.6596 2821.97,-19.5192 2813.24,-25.5321 2818.9,-29.6596"/>
</g>
<!-- Node46&#45;&gt;Node25 -->
<g id="edge127" class="edge"><title>Node46&#45;&gt;Node25</title>
<path fill="none" stroke="midnightblue" d="M2313.92,-381.577C2251.64,-373.88 2137.01,-358.413 2030.11,-336.096"/>
<polygon fill="midnightblue" stroke="midnightblue" points="2030.63,-332.629 2020.12,-333.986 2029.18,-339.478 2030.63,-332.629"/>
</g>
<!-- Node46&#45;&gt;Node26 -->
<g id="edge126" class="edge"><title>Node46&#45;&gt;Node26</title>
<path fill="none" stroke="midnightblue" d="M2350.63,-372.745C2336.9,-353.241 2309.29,-318.956 2276,-304 2219.3,-278.525 1802.7,-264.816 1645.67,-260.509"/>
<polygon fill="midnightblue" stroke="midnightblue" points="1645.35,-257 1635.26,-260.227 1645.16,-263.997 1645.35,-257"/>
</g>
<!-- Node46&#45;&gt;Node28 -->
<g id="edge131" class="edge"><title>Node46&#45;&gt;Node28</title>
<path fill="none" stroke="midnightblue" d="M2323.99,-372.958C2272.86,-353.708 2175.86,-319.722 2090,-304 1843.8,-258.919 1771.18,-327.227 1528,-268 1481.95,-256.783 1432.24,-232.072 1403.74,-216.556"/>
<polygon fill="midnightblue" stroke="midnightblue" points="1405.37,-213.459 1394.93,-211.68 1401.98,-219.583 1405.37,-213.459"/>
</g>
<!-- Node46&#45;&gt;Node47 -->
<g id="edge132" class="edge"><title>Node46&#45;&gt;Node47</title>
<path fill="none" stroke="midnightblue" d="M2390.46,-372.841C2415.24,-361.323 2449.94,-345.199 2474.02,-334.004"/>
<polygon fill="midnightblue" stroke="midnightblue" points="2475.73,-337.071 2483.32,-329.682 2472.78,-330.723 2475.73,-337.071"/>
</g>
<!-- Node49&#45;&gt;Node4 -->
<g id="edge144" class="edge"><title>Node49&#45;&gt;Node4</title>
<path fill="none" stroke="midnightblue" d="M2285.28,-564.917C2279.86,-554.79 2272.61,-540.731 2267,-528 2216.59,-413.672 2167.81,-271.369 2151.09,-221.384"/>
<polygon fill="midnightblue" stroke="midnightblue" points="2154.34,-220.061 2147.86,-211.679 2147.7,-222.272 2154.34,-220.061"/>
</g>
<!-- Node49&#45;&gt;Node5 -->
<g id="edge145" class="edge"><title>Node49&#45;&gt;Node5</title>
<path fill="none" stroke="midnightblue" d="M2310.01,-564.775C2360.63,-521.995 2508.29,-393.911 2532,-336 2556.11,-277.096 2601.75,-238.401 2504,-124 2470.03,-84.2482 2438.49,-111.93 2392,-88 2370.82,-77.097 2371.05,-65.0187 2349,-56 2246.64,-14.1314 2112.77,-9.81519 2053.08,-10.227"/>
<polygon fill="midnightblue" stroke="midnightblue" points="2052.77,-6.73033 2042.82,-10.351 2052.86,-13.7298 2052.77,-6.73033"/>
</g>
<!-- Node49&#45;&gt;Node23 -->
<g id="edge143" class="edge"><title>Node49&#45;&gt;Node23</title>
<path fill="none" stroke="midnightblue" d="M2238.82,-564.922C2191.88,-552.725 2124.9,-535.32 2081.68,-524.09"/>
<polygon fill="midnightblue" stroke="midnightblue" points="2082.32,-520.641 2071.77,-521.514 2080.56,-527.416 2082.32,-520.641"/>
</g>
<!-- Node50 -->
<g id="node50" class="node"><title>Node50</title>
<polygon fill="none" stroke="#bfbfbf" points="2276.5,-502.5 2276.5,-521.5 2311.5,-521.5 2311.5,-502.5 2276.5,-502.5"/>
<text text-anchor="middle" x="2294" y="-509.5" font-family="Helvetica,sans-Serif" font-size="10.00">map</text>
</g>
<!-- Node49&#45;&gt;Node50 -->
<g id="edge146" class="edge"><title>Node49&#45;&gt;Node50</title>
<path fill="none" stroke="midnightblue" d="M2293.22,-564.679C2293.36,-555.101 2293.55,-542.394 2293.71,-531.977"/>
<polygon fill="midnightblue" stroke="midnightblue" points="2297.21,-531.88 2293.87,-521.828 2290.22,-531.774 2297.21,-531.88"/>
</g>
</g>
</svg>
