<?xml version="1.0" encoding="UTF-8" standalone="no"?>
<!DOCTYPE svg PUBLIC "-//W3C//DTD SVG 1.1//EN"
 "http://www.w3.org/Graphics/SVG/1.1/DTD/svg11.dtd">
<!-- Generated by graphviz version 2.38.0 (20140413.2041)
 -->
<!-- Title: /home/lucamuratore/advr&#45;superbuild/external/XBotInterface/include/spdlog/details/spdlog_impl.h Pages: 1 -->
<svg width="2950pt" height="922pt"
 viewBox="0.00 0.00 2950.01 922.00" xmlns="http://www.w3.org/2000/svg" xmlns:xlink="http://www.w3.org/1999/xlink">
<g id="graph0" class="graph" transform="scale(1 1) rotate(0) translate(4 918)">
<title>/home/lucamuratore/advr&#45;superbuild/external/XBotInterface/include/spdlog/details/spdlog_impl.h</title>
<!-- Node1 -->
<g id="node1" class="node"><title>Node1</title>
<polygon fill="#bfbfbf" stroke="black" points="1632.5,-861.5 1632.5,-913.5 1777.5,-913.5 1777.5,-861.5 1632.5,-861.5"/>
<text text-anchor="start" x="1640.5" y="-901.5" font-family="Helvetica,sans-Serif" font-size="10.00">/home/lucamuratore</text>
<text text-anchor="start" x="1640.5" y="-890.5" font-family="Helvetica,sans-Serif" font-size="10.00">/advr&#45;superbuild/external</text>
<text text-anchor="start" x="1640.5" y="-879.5" font-family="Helvetica,sans-Serif" font-size="10.00">/XBotInterface/include/spdlog</text>
<text text-anchor="middle" x="1705" y="-868.5" font-family="Helvetica,sans-Serif" font-size="10.00">/details/spdlog_impl.h</text>
</g>
<!-- Node2 -->
<g id="node2" class="node"><title>Node2</title>
<g id="a_node2"><a xlink:href="spdlog_8h.html" target="_top" xlink:title="spdlog/spdlog.h">
<polygon fill="none" stroke="black" points="261.5,-749.5 261.5,-768.5 346.5,-768.5 346.5,-749.5 261.5,-749.5"/>
<text text-anchor="middle" x="304" y="-756.5" font-family="Helvetica,sans-Serif" font-size="10.00">spdlog/spdlog.h</text>
</a>
</g>
</g>
<!-- Node1&#45;&gt;Node2 -->
<g id="edge1" class="edge"><title>Node1&#45;&gt;Node2</title>
<path fill="none" stroke="midnightblue" d="M1632.22,-882.184C1430.42,-869.456 847.104,-829.225 356.67,-769.539"/>
<polygon fill="midnightblue" stroke="midnightblue" points="356.907,-766.042 346.556,-768.304 356.058,-772.991 356.907,-766.042"/>
</g>
<!-- Node5 -->
<g id="node5" class="node"><title>Node5</title>
<polygon fill="none" stroke="#bfbfbf" points="2001.5,-0.5 2001.5,-19.5 2042.5,-19.5 2042.5,-0.5 2001.5,-0.5"/>
<text text-anchor="middle" x="2022" y="-7.5" font-family="Helvetica,sans-Serif" font-size="10.00">string</text>
</g>
<!-- Node1&#45;&gt;Node5 -->
<g id="edge150" class="edge"><title>Node1&#45;&gt;Node5</title>
<path fill="none" stroke="midnightblue" d="M1777.59,-886.436C2035.74,-885.263 2894,-872.876 2894,-760 2894,-760 2894,-760 2894,-383.5 2894,-252.48 2862.99,-198.627 2756,-123 2676.17,-66.5696 2629.25,-124.576 2539,-87 2517.25,-77.9445 2518.05,-64.2916 2496,-56 2414.22,-25.2525 2144.33,-14.6012 2052.73,-11.8224"/>
<polygon fill="midnightblue" stroke="midnightblue" points="2052.81,-8.3233 2042.71,-11.5286 2052.6,-15.3203 2052.81,-8.3233"/>
</g>
<!-- Node7 -->
<g id="node7" class="node"><title>Node7</title>
<polygon fill="none" stroke="#bfbfbf" points="1320,-129 1320,-148 1366,-148 1366,-129 1320,-129"/>
<text text-anchor="middle" x="1343" y="-136" font-family="Helvetica,sans-Serif" font-size="10.00">chrono</text>
</g>
<!-- Node1&#45;&gt;Node7 -->
<g id="edge147" class="edge"><title>Node1&#45;&gt;Node7</title>
<path fill="none" stroke="midnightblue" d="M1777.61,-870.53C1833.05,-853.557 1900,-820.531 1900,-760 1900,-760 1900,-760 1900,-640.5 1900,-484.481 1734.55,-440.175 1807,-302 1827.32,-263.24 1847.89,-263.517 1888,-246 1957.81,-215.509 2101.91,-245.754 2050,-190 2047.09,-186.87 1515.38,-151.047 1376.09,-141.713"/>
<polygon fill="midnightblue" stroke="midnightblue" points="1376.23,-138.214 1366.02,-141.038 1375.76,-145.199 1376.23,-138.214"/>
</g>
<!-- Node8 -->
<g id="node8" class="node"><title>Node8</title>
<polygon fill="none" stroke="#bfbfbf" points="506,-0.5 506,-19.5 558,-19.5 558,-0.5 506,-0.5"/>
<text text-anchor="middle" x="532" y="-7.5" font-family="Helvetica,sans-Serif" font-size="10.00">memory</text>
</g>
<!-- Node1&#45;&gt;Node8 -->
<g id="edge149" class="edge"><title>Node1&#45;&gt;Node8</title>
<path fill="none" stroke="midnightblue" d="M1632.28,-884.972C1306.85,-877.668 0,-843.156 0,-760 0,-760 0,-760 0,-137.5 0,-93.5511 18.1142,-78.275 56,-56 130.391,-12.2618 397.945,-9.88688 495.814,-10.5374"/>
<polygon fill="midnightblue" stroke="midnightblue" points="495.79,-14.0372 505.818,-10.6187 495.847,-7.03747 495.79,-14.0372"/>
</g>
<!-- Node11 -->
<g id="node11" class="node"><title>Node11</title>
<polygon fill="none" stroke="#bfbfbf" points="444.5,-129 444.5,-148 503.5,-148 503.5,-129 444.5,-129"/>
<text text-anchor="middle" x="474" y="-136" font-family="Helvetica,sans-Serif" font-size="10.00">functional</text>
</g>
<!-- Node1&#45;&gt;Node11 -->
<g id="edge148" class="edge"><title>Node1&#45;&gt;Node11</title>
<path fill="none" stroke="midnightblue" d="M1632.49,-884.916C1334.33,-877.57 214.561,-841.522 133,-713 53.8362,-588.255 190,-533.244 190,-385.5 190,-385.5 190,-385.5 190,-255 190,-202.85 356.394,-162.864 434.454,-146.975"/>
<polygon fill="midnightblue" stroke="midnightblue" points="435.292,-150.377 444.411,-144.982 433.918,-143.513 435.292,-150.377"/>
</g>
<!-- Node39 -->
<g id="node39" class="node"><title>Node39</title>
<g id="a_node39"><a xlink:href="stdout__sinks_8h.html" target="_top" xlink:title="spdlog/sinks/stdout\l_sinks.h">
<polygon fill="none" stroke="black" points="1988.5,-559.5 1988.5,-589.5 2089.5,-589.5 2089.5,-559.5 1988.5,-559.5"/>
<text text-anchor="start" x="1996.5" y="-577.5" font-family="Helvetica,sans-Serif" font-size="10.00">spdlog/sinks/stdout</text>
<text text-anchor="middle" x="2039" y="-566.5" font-family="Helvetica,sans-Serif" font-size="10.00">_sinks.h</text>
</a>
</g>
</g>
<!-- Node1&#45;&gt;Node39 -->
<g id="edge141" class="edge"><title>Node1&#45;&gt;Node39</title>
<path fill="none" stroke="midnightblue" d="M1777.86,-886.236C1866.95,-881.625 2006,-858.631 2006,-760 2006,-760 2006,-760 2006,-702 2006,-665.096 2019.31,-624.039 2029.03,-598.992"/>
<polygon fill="midnightblue" stroke="midnightblue" points="2032.32,-600.189 2032.79,-589.604 2025.82,-597.582 2032.32,-600.189"/>
</g>
<!-- Node40 -->
<g id="node40" class="node"><title>Node40</title>
<g id="a_node40"><a xlink:href="registry_8h.html" target="_top" xlink:title="spdlog/details/registry.h">
<polygon fill="none" stroke="black" points="1451,-805.5 1451,-824.5 1571,-824.5 1571,-805.5 1451,-805.5"/>
<text text-anchor="middle" x="1511" y="-812.5" font-family="Helvetica,sans-Serif" font-size="10.00">spdlog/details/registry.h</text>
</a>
</g>
</g>
<!-- Node1&#45;&gt;Node40 -->
<g id="edge85" class="edge"><title>Node1&#45;&gt;Node40</title>
<path fill="none" stroke="midnightblue" d="M1636.06,-861.446C1604.71,-850.056 1569.09,-837.111 1543.91,-827.959"/>
<polygon fill="midnightblue" stroke="midnightblue" points="1545.06,-824.653 1534.46,-824.527 1542.67,-831.232 1545.06,-824.653"/>
</g>
<!-- Node45 -->
<g id="node45" class="node"><title>Node45</title>
<g id="a_node45"><a xlink:href="file__sinks_8h.html" target="_top" xlink:title="spdlog/sinks/file_sinks.h">
<polygon fill="none" stroke="black" points="2570,-565 2570,-584 2694,-584 2694,-565 2570,-565"/>
<text text-anchor="middle" x="2632" y="-572" font-family="Helvetica,sans-Serif" font-size="10.00">spdlog/sinks/file_sinks.h</text>
</a>
</g>
</g>
<!-- Node1&#45;&gt;Node45 -->
<g id="edge122" class="edge"><title>Node1&#45;&gt;Node45</title>
<path fill="none" stroke="midnightblue" d="M1777.81,-883.612C1988.01,-874.314 2581,-840.912 2581,-760 2581,-760 2581,-760 2581,-702 2581,-660.376 2605.05,-616.271 2620.12,-592.718"/>
<polygon fill="midnightblue" stroke="midnightblue" points="2623.14,-594.483 2625.75,-584.213 2617.31,-590.619 2623.14,-594.483"/>
</g>
<!-- Node49 -->
<g id="node49" class="node"><title>Node49</title>
<g id="a_node49"><a xlink:href="ansicolor__sink_8h.html" target="_top" xlink:title="spdlog/sinks/ansicolor\l_sink.h">
<polygon fill="none" stroke="black" points="2236.5,-559.5 2236.5,-589.5 2349.5,-589.5 2349.5,-559.5 2236.5,-559.5"/>
<text text-anchor="start" x="2244.5" y="-577.5" font-family="Helvetica,sans-Serif" font-size="10.00">spdlog/sinks/ansicolor</text>
<text text-anchor="middle" x="2293" y="-566.5" font-family="Helvetica,sans-Serif" font-size="10.00">_sink.h</text>
</a>
</g>
</g>
<!-- Node1&#45;&gt;Node49 -->
<g id="edge142" class="edge"><title>Node1&#45;&gt;Node49</title>
<path fill="none" stroke="midnightblue" d="M1777.58,-881.669C1839.82,-875.197 1930.51,-860.106 2002,-825 2121.71,-766.214 2232.33,-646.566 2274.73,-597.372"/>
<polygon fill="midnightblue" stroke="midnightblue" points="2277.56,-599.445 2281.39,-589.567 2272.23,-594.9 2277.56,-599.445"/>
</g>
<!-- Node2&#45;&gt;Node1 -->
<g id="edge84" class="edge"><title>Node2&#45;&gt;Node1</title>
<path fill="none" stroke="midnightblue" d="M346.779,-765.765C354.561,-766.936 362.542,-768.086 370,-769 842.632,-826.902 1412.18,-866.941 1622.15,-880.972"/>
<polygon fill="midnightblue" stroke="midnightblue" points="1621.96,-884.468 1632.17,-881.641 1622.43,-877.483 1621.96,-884.468"/>
</g>
<!-- Node3 -->
<g id="node3" class="node"><title>Node3</title>
<g id="a_node3"><a xlink:href="tweakme_8h.html" target="_top" xlink:title="spdlog/tweakme.h">
<polygon fill="none" stroke="black" points="142,-693.5 142,-712.5 238,-712.5 238,-693.5 142,-693.5"/>
<text text-anchor="middle" x="190" y="-700.5" font-family="Helvetica,sans-Serif" font-size="10.00">spdlog/tweakme.h</text>
</a>
</g>
</g>
<!-- Node2&#45;&gt;Node3 -->
<g id="edge2" class="edge"><title>Node2&#45;&gt;Node3</title>
<path fill="none" stroke="midnightblue" d="M285.936,-749.444C267.425,-740.675 238.419,-726.935 217.145,-716.858"/>
<polygon fill="midnightblue" stroke="midnightblue" points="218.515,-713.634 207.979,-712.516 215.518,-719.96 218.515,-713.634"/>
</g>
<!-- Node4 -->
<g id="node4" class="node"><title>Node4</title>
<g id="a_node4"><a xlink:href="common_8h.html" target="_top" xlink:title="spdlog/common.h">
<polygon fill="none" stroke="black" points="2098,-190.5 2098,-209.5 2192,-209.5 2192,-190.5 2098,-190.5"/>
<text text-anchor="middle" x="2145" y="-197.5" font-family="Helvetica,sans-Serif" font-size="10.00">spdlog/common.h</text>
</a>
</g>
</g>
<!-- Node2&#45;&gt;Node4 -->
<g id="edge3" class="edge"><title>Node2&#45;&gt;Node4</title>
<path fill="none" stroke="midnightblue" d="M346.736,-755.159C420.76,-749.811 577.441,-736.608 708,-713 1111.05,-640.12 1243.45,-669.48 1593,-456 1693,-394.925 1711.25,-369.544 1807,-302 1842.76,-276.772 1847.51,-262.604 1888,-246 1906.18,-238.548 2017.72,-220.533 2087.76,-209.692"/>
<polygon fill="midnightblue" stroke="midnightblue" points="2088.42,-213.13 2097.77,-208.146 2087.36,-206.212 2088.42,-213.13"/>
</g>
<!-- Node2&#45;&gt;Node5 -->
<g id="edge83" class="edge"><title>Node2&#45;&gt;Node5</title>
<path fill="none" stroke="midnightblue" d="M308.968,-749.337C319.268,-730.532 342,-684.297 342,-642.5 342,-642.5 342,-642.5 342,-506.5 342,-365.831 263.736,-305.523 344,-190 372.657,-148.754 388.708,-142.48 435,-123 605.185,-51.3844 661.285,-74.4513 845,-56 1299.15,-10.3881 1856.11,-10.1048 1991.36,-10.7807"/>
<polygon fill="midnightblue" stroke="midnightblue" points="1991.39,-14.2808 2001.41,-10.8368 1991.43,-7.28091 1991.39,-14.2808"/>
</g>
<!-- Node2&#45;&gt;Node7 -->
<g id="edge82" class="edge"><title>Node2&#45;&gt;Node7</title>
<path fill="none" stroke="midnightblue" d="M346.517,-756.88C427.367,-754.042 599.616,-744.389 649,-713 680.371,-693.06 694,-679.672 694,-642.5 694,-642.5 694,-642.5 694,-573.5 694,-338.809 849.856,-300.323 1057,-190 1142.51,-144.456 1176.74,-171.696 1272,-154 1284.34,-151.707 1297.85,-148.999 1309.74,-146.548"/>
<polygon fill="midnightblue" stroke="midnightblue" points="1310.62,-149.939 1319.7,-144.476 1309.19,-143.086 1310.62,-149.939"/>
</g>
<!-- Node2&#45;&gt;Node8 -->
<g id="edge80" class="edge"><title>Node2&#45;&gt;Node8</title>
<path fill="none" stroke="midnightblue" d="M261.282,-758.2C222.673,-756.027 166.854,-746.654 133,-713 109.986,-690.122 114,-674.951 114,-642.5 114,-642.5 114,-642.5 114,-137.5 114,-99.7399 109.097,-80.2988 138,-56 165.12,-33.2003 403.377,-17.9711 495.685,-12.8793"/>
<polygon fill="midnightblue" stroke="midnightblue" points="496.146,-16.3596 505.941,-12.3223 495.766,-9.36985 496.146,-16.3596"/>
</g>
<!-- Node2&#45;&gt;Node11 -->
<g id="edge81" class="edge"><title>Node2&#45;&gt;Node11</title>
<path fill="none" stroke="midnightblue" d="M299.246,-749.234C282.608,-717.71 228,-606.76 228,-508.5 228,-508.5 228,-508.5 228,-383.5 228,-277.87 284.825,-257.59 366,-190 386.784,-172.694 414.487,-159.898 436.631,-151.517"/>
<polygon fill="midnightblue" stroke="midnightblue" points="437.857,-154.796 446.057,-148.086 435.463,-148.218 437.857,-154.796"/>
</g>
<!-- Node22 -->
<g id="node22" class="node"><title>Node22</title>
<g id="a_node22"><a xlink:href="logger_8h.html" target="_top" xlink:title="spdlog/logger.h">
<polygon fill="none" stroke="black" points="557.5,-693.5 557.5,-712.5 640.5,-712.5 640.5,-693.5 557.5,-693.5"/>
<text text-anchor="middle" x="599" y="-700.5" font-family="Helvetica,sans-Serif" font-size="10.00">spdlog/logger.h</text>
</a>
</g>
</g>
<!-- Node2&#45;&gt;Node22 -->
<g id="edge24" class="edge"><title>Node2&#45;&gt;Node22</title>
<path fill="none" stroke="midnightblue" d="M346.58,-750.206C399.715,-740.479 490.511,-723.859 547.501,-713.427"/>
<polygon fill="midnightblue" stroke="midnightblue" points="548.179,-716.861 557.386,-711.618 546.919,-709.975 548.179,-716.861"/>
</g>
<!-- Node4&#45;&gt;Node5 -->
<g id="edge4" class="edge"><title>Node4&#45;&gt;Node5</title>
<path fill="none" stroke="midnightblue" d="M2126.82,-190.437C2112.16,-182.721 2091.93,-170.121 2079,-154 2048.3,-115.712 2032.32,-58.7777 2025.73,-29.6455"/>
<polygon fill="midnightblue" stroke="midnightblue" points="2029.1,-28.6725 2023.59,-19.6226 2022.26,-30.1327 2029.1,-28.6725"/>
</g>
<!-- Node6 -->
<g id="node6" class="node"><title>Node6</title>
<polygon fill="none" stroke="#bfbfbf" points="2088.5,-129 2088.5,-148 2161.5,-148 2161.5,-129 2088.5,-129"/>
<text text-anchor="middle" x="2125" y="-136" font-family="Helvetica,sans-Serif" font-size="10.00">initializer_list</text>
</g>
<!-- Node4&#45;&gt;Node6 -->
<g id="edge5" class="edge"><title>Node4&#45;&gt;Node6</title>
<path fill="none" stroke="midnightblue" d="M2142.13,-190.475C2139.28,-181.992 2134.82,-168.704 2131.16,-157.822"/>
<polygon fill="midnightblue" stroke="midnightblue" points="2134.36,-156.373 2127.86,-148.009 2127.73,-158.603 2134.36,-156.373"/>
</g>
<!-- Node4&#45;&gt;Node7 -->
<g id="edge6" class="edge"><title>Node4&#45;&gt;Node7</title>
<path fill="none" stroke="midnightblue" d="M2097.77,-191.577C2093.12,-190.984 2088.47,-190.443 2084,-190 1772.23,-159.1 1686.26,-220.013 1380,-154 1376.99,-153.352 1373.91,-152.491 1370.88,-151.509"/>
<polygon fill="midnightblue" stroke="midnightblue" points="1372.05,-148.213 1361.46,-148.081 1369.66,-154.791 1372.05,-148.213"/>
</g>
<!-- Node4&#45;&gt;Node8 -->
<g id="edge7" class="edge"><title>Node4&#45;&gt;Node8</title>
<path fill="none" stroke="midnightblue" d="M2097.73,-191.875C2093.09,-191.222 2088.46,-190.586 2084,-190 1479.13,-110.518 739.063,-32.522 568.313,-14.7585"/>
<polygon fill="midnightblue" stroke="midnightblue" points="568.428,-11.2517 558.119,-13.6993 567.704,-18.2142 568.428,-11.2517"/>
</g>
<!-- Node9 -->
<g id="node9" class="node"><title>Node9</title>
<polygon fill="none" stroke="#bfbfbf" points="2294,-62 2294,-81 2340,-81 2340,-62 2294,-62"/>
<text text-anchor="middle" x="2317" y="-69" font-family="Helvetica,sans-Serif" font-size="10.00">atomic</text>
</g>
<!-- Node4&#45;&gt;Node9 -->
<g id="edge8" class="edge"><title>Node4&#45;&gt;Node9</title>
<path fill="none" stroke="midnightblue" d="M2156.58,-190.279C2175.46,-176.089 2214.05,-147.157 2247,-123 2263.65,-110.789 2282.66,-97.0902 2296.67,-87.0442"/>
<polygon fill="midnightblue" stroke="midnightblue" points="2298.98,-89.6922 2305.07,-81.0224 2294.9,-84.0023 2298.98,-89.6922"/>
</g>
<!-- Node10 -->
<g id="node10" class="node"><title>Node10</title>
<polygon fill="none" stroke="#bfbfbf" points="1204.5,-129 1204.5,-148 1263.5,-148 1263.5,-129 1204.5,-129"/>
<text text-anchor="middle" x="1234" y="-136" font-family="Helvetica,sans-Serif" font-size="10.00">exception</text>
</g>
<!-- Node4&#45;&gt;Node10 -->
<g id="edge9" class="edge"><title>Node4&#45;&gt;Node10</title>
<path fill="none" stroke="midnightblue" d="M2097.68,-194.087C2082.47,-192.623 2065.53,-191.114 2050,-190 1722.01,-166.487 1637.57,-192.518 1311,-154 1298.88,-152.57 1285.8,-150.362 1273.92,-148.096"/>
<polygon fill="midnightblue" stroke="midnightblue" points="1274.33,-144.61 1263.84,-146.108 1272.97,-151.477 1274.33,-144.61"/>
</g>
<!-- Node4&#45;&gt;Node11 -->
<g id="edge10" class="edge"><title>Node4&#45;&gt;Node11</title>
<path fill="none" stroke="midnightblue" d="M2097.69,-193.932C2082.48,-192.459 2065.54,-190.984 2050,-190 1737.84,-170.232 727.195,-145.516 513.798,-140.438"/>
<polygon fill="midnightblue" stroke="midnightblue" points="513.759,-136.936 503.679,-140.197 513.593,-143.934 513.759,-136.936"/>
</g>
<!-- Node12 -->
<g id="node12" class="node"><title>Node12</title>
<g id="a_node12"><a xlink:href="null__mutex_8h.html" target="_top" xlink:title="spdlog/details/null\l_mutex.h">
<polygon fill="none" stroke="black" points="2400.5,-123.5 2400.5,-153.5 2495.5,-153.5 2495.5,-123.5 2400.5,-123.5"/>
<text text-anchor="start" x="2408.5" y="-141.5" font-family="Helvetica,sans-Serif" font-size="10.00">spdlog/details/null</text>
<text text-anchor="middle" x="2448" y="-130.5" font-family="Helvetica,sans-Serif" font-size="10.00">_mutex.h</text>
</a>
</g>
</g>
<!-- Node4&#45;&gt;Node12 -->
<g id="edge11" class="edge"><title>Node4&#45;&gt;Node12</title>
<path fill="none" stroke="midnightblue" d="M2188.41,-190.475C2241.55,-180.041 2331.7,-162.338 2390.54,-150.784"/>
<polygon fill="midnightblue" stroke="midnightblue" points="2391.29,-154.204 2400.42,-148.843 2389.94,-147.335 2391.29,-154.204"/>
</g>
<!-- Node13 -->
<g id="node13" class="node"><title>Node13</title>
<g id="a_node13"><a xlink:href="fmt_8h.html" target="_top" xlink:title="spdlog/fmt/fmt.h">
<polygon fill="none" stroke="black" points="2256,-129 2256,-148 2344,-148 2344,-129 2256,-129"/>
<text text-anchor="middle" x="2300" y="-136" font-family="Helvetica,sans-Serif" font-size="10.00">spdlog/fmt/fmt.h</text>
</a>
</g>
</g>
<!-- Node4&#45;&gt;Node13 -->
<g id="edge13" class="edge"><title>Node4&#45;&gt;Node13</title>
<path fill="none" stroke="midnightblue" d="M2167.21,-190.475C2193.68,-180.313 2238.11,-163.256 2268.22,-151.7"/>
<polygon fill="midnightblue" stroke="midnightblue" points="2269.75,-154.86 2277.83,-148.009 2267.24,-148.325 2269.75,-154.86"/>
</g>
<!-- Node12&#45;&gt;Node9 -->
<g id="edge12" class="edge"><title>Node12&#45;&gt;Node9</title>
<path fill="none" stroke="midnightblue" d="M2419.57,-123.396C2396.89,-112.142 2365.37,-96.501 2343.28,-85.5375"/>
<polygon fill="midnightblue" stroke="midnightblue" points="2344.66,-82.3165 2334.14,-81.007 2341.55,-88.5871 2344.66,-82.3165"/>
</g>
<!-- Node14 -->
<g id="node14" class="node"><title>Node14</title>
<g id="a_node14"><a xlink:href="format_8h.html" target="_top" xlink:title="spdlog/fmt/bundled\l/format.h">
<polygon fill="none" stroke="red" points="2548.5,-56.5 2548.5,-86.5 2647.5,-86.5 2647.5,-56.5 2548.5,-56.5"/>
<text text-anchor="start" x="2556.5" y="-74.5" font-family="Helvetica,sans-Serif" font-size="10.00">spdlog/fmt/bundled</text>
<text text-anchor="middle" x="2598" y="-63.5" font-family="Helvetica,sans-Serif" font-size="10.00">/format.h</text>
</a>
</g>
</g>
<!-- Node13&#45;&gt;Node14 -->
<g id="edge14" class="edge"><title>Node13&#45;&gt;Node14</title>
<path fill="none" stroke="midnightblue" d="M2339.26,-128.936C2390.14,-117.839 2479.3,-98.39 2538.51,-85.4759"/>
<polygon fill="midnightblue" stroke="midnightblue" points="2539.45,-88.8538 2548.47,-83.303 2537.96,-82.0146 2539.45,-88.8538"/>
</g>
<!-- Node14&#45;&gt;Node5 -->
<g id="edge21" class="edge"><title>Node14&#45;&gt;Node5</title>
<path fill="none" stroke="midnightblue" d="M2548.16,-58.5248C2543.39,-57.585 2538.61,-56.7222 2534,-56 2352.97,-27.6708 2132.94,-15.8356 2052.95,-12.261"/>
<polygon fill="midnightblue" stroke="midnightblue" points="2052.75,-8.7492 2042.61,-11.8106 2052.44,-15.7426 2052.75,-8.7492"/>
</g>
<!-- Node14&#45;&gt;Node8 -->
<g id="edge20" class="edge"><title>Node14&#45;&gt;Node8</title>
<path fill="none" stroke="midnightblue" d="M2548.42,-67.1202C2498.18,-63.8117 2418.22,-58.8636 2349,-56 1696.92,-29.0257 1533.43,-36.4123 881,-20 767.017,-17.1327 632.098,-13.6196 568.561,-11.958"/>
<polygon fill="midnightblue" stroke="midnightblue" points="568.356,-8.45158 558.268,-11.6887 568.173,-15.4492 568.356,-8.45158"/>
</g>
<!-- Node15 -->
<g id="node15" class="node"><title>Node15</title>
<polygon fill="none" stroke="#bfbfbf" points="2450.5,-0.5 2450.5,-19.5 2499.5,-19.5 2499.5,-0.5 2450.5,-0.5"/>
<text text-anchor="middle" x="2475" y="-7.5" font-family="Helvetica,sans-Serif" font-size="10.00">cassert</text>
</g>
<!-- Node14&#45;&gt;Node15 -->
<g id="edge15" class="edge"><title>Node14&#45;&gt;Node15</title>
<path fill="none" stroke="midnightblue" d="M2568.85,-56.3993C2548.58,-46.5945 2521.76,-33.6194 2501.98,-24.052"/>
<polygon fill="midnightblue" stroke="midnightblue" points="2503.42,-20.8618 2492.9,-19.6578 2500.38,-27.1632 2503.42,-20.8618"/>
</g>
<!-- Node16 -->
<g id="node16" class="node"><title>Node16</title>
<polygon fill="none" stroke="#bfbfbf" points="2517.5,-0.5 2517.5,-19.5 2564.5,-19.5 2564.5,-0.5 2517.5,-0.5"/>
<text text-anchor="middle" x="2541" y="-7.5" font-family="Helvetica,sans-Serif" font-size="10.00">clocale</text>
</g>
<!-- Node14&#45;&gt;Node16 -->
<g id="edge16" class="edge"><title>Node14&#45;&gt;Node16</title>
<path fill="none" stroke="midnightblue" d="M2584.49,-56.3993C2576.04,-47.575 2565.12,-36.1827 2556.34,-27.0178"/>
<polygon fill="midnightblue" stroke="midnightblue" points="2558.74,-24.4577 2549.29,-19.6578 2553.68,-29.3002 2558.74,-24.4577"/>
</g>
<!-- Node17 -->
<g id="node17" class="node"><title>Node17</title>
<polygon fill="none" stroke="#bfbfbf" points="2583,-0.5 2583,-19.5 2627,-19.5 2627,-0.5 2583,-0.5"/>
<text text-anchor="middle" x="2605" y="-7.5" font-family="Helvetica,sans-Serif" font-size="10.00">cmath</text>
</g>
<!-- Node14&#45;&gt;Node17 -->
<g id="edge17" class="edge"><title>Node14&#45;&gt;Node17</title>
<path fill="none" stroke="midnightblue" d="M2599.66,-56.3993C2600.59,-48.4664 2601.77,-38.458 2602.78,-29.8583"/>
<polygon fill="midnightblue" stroke="midnightblue" points="2606.29,-29.9983 2603.98,-19.6578 2599.34,-29.1803 2606.29,-29.9983"/>
</g>
<!-- Node18 -->
<g id="node18" class="node"><title>Node18</title>
<polygon fill="none" stroke="#bfbfbf" points="2806.5,-0.5 2806.5,-19.5 2849.5,-19.5 2849.5,-0.5 2806.5,-0.5"/>
<text text-anchor="middle" x="2828" y="-7.5" font-family="Helvetica,sans-Serif" font-size="10.00">cstdio</text>
</g>
<!-- Node14&#45;&gt;Node18 -->
<g id="edge18" class="edge"><title>Node14&#45;&gt;Node18</title>
<path fill="none" stroke="midnightblue" d="M2647.62,-57.6626C2692.65,-46.015 2757.69,-29.1881 2796.13,-19.2447"/>
<polygon fill="midnightblue" stroke="midnightblue" points="2797.42,-22.5257 2806.23,-16.6327 2795.67,-15.7488 2797.42,-22.5257"/>
</g>
<!-- Node19 -->
<g id="node19" class="node"><title>Node19</title>
<polygon fill="none" stroke="#bfbfbf" points="2645,-0.5 2645,-19.5 2691,-19.5 2691,-0.5 2645,-0.5"/>
<text text-anchor="middle" x="2668" y="-7.5" font-family="Helvetica,sans-Serif" font-size="10.00">cstring</text>
</g>
<!-- Node14&#45;&gt;Node19 -->
<g id="edge19" class="edge"><title>Node14&#45;&gt;Node19</title>
<path fill="none" stroke="midnightblue" d="M2614.59,-56.3993C2625.29,-47.3076 2639.19,-35.4899 2650.13,-26.1909"/>
<polygon fill="midnightblue" stroke="midnightblue" points="2652.46,-28.8011 2657.81,-19.6578 2647.93,-23.4675 2652.46,-28.8011"/>
</g>
<!-- Node20 -->
<g id="node20" class="node"><title>Node20</title>
<polygon fill="none" stroke="#bfbfbf" points="890,-0.5 890,-19.5 934,-19.5 934,-0.5 890,-0.5"/>
<text text-anchor="middle" x="912" y="-7.5" font-family="Helvetica,sans-Serif" font-size="10.00">vector</text>
</g>
<!-- Node14&#45;&gt;Node20 -->
<g id="edge22" class="edge"><title>Node14&#45;&gt;Node20</title>
<path fill="none" stroke="midnightblue" d="M2548.41,-67.2193C2498.18,-63.9879 2418.21,-59.0985 2349,-56 1787.11,-30.8463 1100.99,-15.1081 944.716,-11.6993"/>
<polygon fill="midnightblue" stroke="midnightblue" points="944.463,-8.19309 934.389,-11.4752 944.311,-15.1914 944.463,-8.19309"/>
</g>
<!-- Node21 -->
<g id="node21" class="node"><title>Node21</title>
<polygon fill="none" stroke="#bfbfbf" points="2717,-0.5 2717,-19.5 2757,-19.5 2757,-0.5 2717,-0.5"/>
<text text-anchor="middle" x="2737" y="-7.5" font-family="Helvetica,sans-Serif" font-size="10.00">utility</text>
</g>
<!-- Node14&#45;&gt;Node21 -->
<g id="edge23" class="edge"><title>Node14&#45;&gt;Node21</title>
<path fill="none" stroke="midnightblue" d="M2630.94,-56.3993C2654.16,-46.4608 2684.99,-33.2649 2707.42,-23.6625"/>
<polygon fill="midnightblue" stroke="midnightblue" points="2708.96,-26.8106 2716.77,-19.6578 2706.2,-20.3754 2708.96,-26.8106"/>
</g>
<!-- Node22&#45;&gt;Node4 -->
<g id="edge66" class="edge"><title>Node22&#45;&gt;Node4</title>
<path fill="none" stroke="midnightblue" d="M624.939,-693.478C699.35,-669.301 920.231,-599.415 1108,-559 1311.54,-515.19 1385.64,-561.735 1565,-456 1612.93,-427.747 1613.7,-406.277 1655,-369 1717.98,-312.148 1723.3,-280.079 1801,-246 1917.11,-195.074 1958.39,-227.254 2084,-210 2085.25,-209.828 2086.52,-209.653 2087.8,-209.475"/>
<polygon fill="midnightblue" stroke="midnightblue" points="2088.31,-212.936 2097.72,-208.07 2087.33,-206.005 2088.31,-212.936"/>
</g>
<!-- Node22&#45;&gt;Node5 -->
<g id="edge69" class="edge"><title>Node22&#45;&gt;Node5</title>
<path fill="none" stroke="midnightblue" d="M608.59,-693.291C617.299,-684.848 629.845,-671.257 637,-657 653.683,-623.758 656,-612.694 656,-575.5 656,-575.5 656,-575.5 656,-506.5 656,-239.038 799.231,-134.22 1055,-56 1146.23,-28.1009 1836.3,-14.2922 1991.2,-11.5259"/>
<polygon fill="midnightblue" stroke="midnightblue" points="1991.48,-15.0217 2001.41,-11.3458 1991.35,-8.02276 1991.48,-15.0217"/>
</g>
<!-- Node22&#45;&gt;Node8 -->
<g id="edge68" class="edge"><title>Node22&#45;&gt;Node8</title>
<path fill="none" stroke="midnightblue" d="M567.27,-693.429C542.446,-685.933 507.625,-673.636 480,-657 441.425,-633.77 430.767,-626.21 404,-590 291.199,-437.405 228,-390.761 228,-201 228,-201 228,-201 228,-137.5 228,-22.7489 414.917,-10.1776 495.617,-10.0974"/>
<polygon fill="midnightblue" stroke="midnightblue" points="495.799,-13.5984 505.818,-10.1541 495.838,-6.59851 495.799,-13.5984"/>
</g>
<!-- Node22&#45;&gt;Node20 -->
<g id="edge67" class="edge"><title>Node22&#45;&gt;Node20</title>
<path fill="none" stroke="midnightblue" d="M573.412,-693.468C554.769,-686.191 529.917,-674.161 513,-657 453.836,-596.983 342,-402.776 342,-318.5 342,-318.5 342,-318.5 342,-255 342,-183.235 372.043,-157.447 435,-123 587.12,-39.7663 799.427,-18.0724 879.616,-12.6877"/>
<polygon fill="midnightblue" stroke="midnightblue" points="879.842,-16.1806 889.601,-12.057 879.4,-9.19448 879.842,-16.1806"/>
</g>
<!-- Node23 -->
<g id="node23" class="node"><title>Node23</title>
<g id="a_node23"><a xlink:href="base__sink_8h.html" target="_top" xlink:title="spdlog/sinks/base_sink.h">
<polygon fill="none" stroke="black" points="1975.5,-498 1975.5,-517 2102.5,-517 2102.5,-498 1975.5,-498"/>
<text text-anchor="middle" x="2039" y="-505" font-family="Helvetica,sans-Serif" font-size="10.00">spdlog/sinks/base_sink.h</text>
</a>
</g>
</g>
<!-- Node22&#45;&gt;Node23 -->
<g id="edge25" class="edge"><title>Node22&#45;&gt;Node23</title>
<path fill="none" stroke="midnightblue" d="M640.668,-698.624C721.103,-691.947 903.315,-676.037 1056,-657 1406.54,-613.293 1824.9,-544.552 1978.57,-518.744"/>
<polygon fill="midnightblue" stroke="midnightblue" points="1979.46,-522.144 1988.74,-517.034 1978.3,-515.241 1979.46,-522.144"/>
</g>
<!-- Node38 -->
<g id="node38" class="node"><title>Node38</title>
<g id="a_node38"><a xlink:href="logger__impl_8h.html" target="_top" xlink:title="spdlog/details/logger\l_impl.h">
<polygon fill="none" stroke="black" points="522,-626.5 522,-656.5 628,-656.5 628,-626.5 522,-626.5"/>
<text text-anchor="start" x="530" y="-644.5" font-family="Helvetica,sans-Serif" font-size="10.00">spdlog/details/logger</text>
<text text-anchor="middle" x="575" y="-633.5" font-family="Helvetica,sans-Serif" font-size="10.00">_impl.h</text>
</a>
</g>
</g>
<!-- Node22&#45;&gt;Node38 -->
<g id="edge70" class="edge"><title>Node22&#45;&gt;Node38</title>
<path fill="none" stroke="midnightblue" d="M590.661,-693.475C586.214,-686.32 581.377,-675.748 577.893,-666.084"/>
<polygon fill="midnightblue" stroke="midnightblue" points="581.214,-664.976 574.826,-656.523 574.548,-667.114 581.214,-664.976"/>
</g>
<!-- Node23&#45;&gt;Node4 -->
<g id="edge63" class="edge"><title>Node23&#45;&gt;Node4</title>
<path fill="none" stroke="midnightblue" d="M2042.76,-497.997C2047.11,-488.02 2054.41,-470.941 2060,-456 2092.72,-368.532 2126.22,-261.991 2139.29,-219.644"/>
<polygon fill="midnightblue" stroke="midnightblue" points="2142.7,-220.476 2142.29,-209.889 2136.01,-218.419 2142.7,-220.476"/>
</g>
<!-- Node24 -->
<g id="node24" class="node"><title>Node24</title>
<g id="a_node24"><a xlink:href="sink_8h.html" target="_top" xlink:title="spdlog/sinks/sink.h">
<polygon fill="none" stroke="black" points="1852.5,-436.5 1852.5,-455.5 1953.5,-455.5 1953.5,-436.5 1852.5,-436.5"/>
<text text-anchor="middle" x="1903" y="-443.5" font-family="Helvetica,sans-Serif" font-size="10.00">spdlog/sinks/sink.h</text>
</a>
</g>
</g>
<!-- Node23&#45;&gt;Node24 -->
<g id="edge26" class="edge"><title>Node23&#45;&gt;Node24</title>
<path fill="none" stroke="midnightblue" d="M2019.51,-497.975C1996.59,-487.945 1958.31,-471.2 1931.92,-459.655"/>
<polygon fill="midnightblue" stroke="midnightblue" points="1933.01,-456.311 1922.45,-455.509 1930.21,-462.724 1933.01,-456.311"/>
</g>
<!-- Node25 -->
<g id="node25" class="node"><title>Node25</title>
<g id="a_node25"><a xlink:href="log__msg_8h.html" target="_top" xlink:title="spdlog/details/log\l_msg.h">
<polygon fill="none" stroke="black" points="1928,-302.5 1928,-332.5 2020,-332.5 2020,-302.5 1928,-302.5"/>
<text text-anchor="start" x="1936" y="-320.5" font-family="Helvetica,sans-Serif" font-size="10.00">spdlog/details/log</text>
<text text-anchor="middle" x="1974" y="-309.5" font-family="Helvetica,sans-Serif" font-size="10.00">_msg.h</text>
</a>
</g>
</g>
<!-- Node23&#45;&gt;Node25 -->
<g id="edge64" class="edge"><title>Node23&#45;&gt;Node25</title>
<path fill="none" stroke="midnightblue" d="M2036.04,-497.934C2026.56,-470.526 1996.76,-384.324 1982.19,-342.174"/>
<polygon fill="midnightblue" stroke="midnightblue" points="1985.49,-341.011 1978.91,-332.704 1978.87,-343.299 1985.49,-341.011"/>
</g>
<!-- Node35 -->
<g id="node35" class="node"><title>Node35</title>
<g id="a_node35"><a xlink:href="formatter_8h.html" target="_top" xlink:title="spdlog/formatter.h">
<polygon fill="none" stroke="black" points="1434.5,-436.5 1434.5,-455.5 1529.5,-455.5 1529.5,-436.5 1434.5,-436.5"/>
<text text-anchor="middle" x="1482" y="-443.5" font-family="Helvetica,sans-Serif" font-size="10.00">spdlog/formatter.h</text>
</a>
</g>
</g>
<!-- Node23&#45;&gt;Node35 -->
<g id="edge45" class="edge"><title>Node23&#45;&gt;Node35</title>
<path fill="none" stroke="midnightblue" d="M1975.38,-499.704C1866.26,-488.047 1645.05,-464.417 1539.96,-453.191"/>
<polygon fill="midnightblue" stroke="midnightblue" points="1540.17,-449.694 1529.85,-452.112 1539.42,-456.654 1540.17,-449.694"/>
</g>
<!-- Node37 -->
<g id="node37" class="node"><title>Node37</title>
<polygon fill="none" stroke="#bfbfbf" points="2038,-308 2038,-327 2082,-327 2082,-308 2038,-308"/>
<text text-anchor="middle" x="2060" y="-315" font-family="Helvetica,sans-Serif" font-size="10.00">mutex</text>
</g>
<!-- Node23&#45;&gt;Node37 -->
<g id="edge65" class="edge"><title>Node23&#45;&gt;Node37</title>
<path fill="none" stroke="midnightblue" d="M2039.96,-497.934C2043.15,-469.367 2053.47,-376.926 2057.93,-337.07"/>
<polygon fill="midnightblue" stroke="midnightblue" points="2061.41,-337.444 2059.04,-327.117 2054.45,-336.666 2061.41,-337.444"/>
</g>
<!-- Node24&#45;&gt;Node25 -->
<g id="edge27" class="edge"><title>Node24&#45;&gt;Node25</title>
<path fill="none" stroke="midnightblue" d="M1907.88,-436.305C1918.69,-417.047 1944.95,-370.254 1960.94,-341.777"/>
<polygon fill="midnightblue" stroke="midnightblue" points="1964.08,-343.321 1965.92,-332.888 1957.98,-339.895 1964.08,-343.321"/>
</g>
<!-- Node25&#45;&gt;Node4 -->
<g id="edge28" class="edge"><title>Node25&#45;&gt;Node4</title>
<path fill="none" stroke="midnightblue" d="M1988.68,-302.437C2004.85,-287.378 2032.02,-263.314 2058,-246 2076.63,-233.588 2099.1,-222.043 2116.54,-213.755"/>
<polygon fill="midnightblue" stroke="midnightblue" points="2118.07,-216.902 2125.65,-209.501 2115.11,-210.559 2118.07,-216.902"/>
</g>
<!-- Node25&#45;&gt;Node5 -->
<g id="edge43" class="edge"><title>Node25&#45;&gt;Node5</title>
<path fill="none" stroke="midnightblue" d="M2017.08,-302.487C2076.87,-282.068 2180.05,-242.975 2201,-210 2250.91,-131.447 2113.16,-54.0015 2050.84,-24.0123"/>
<polygon fill="midnightblue" stroke="midnightblue" points="2052.06,-20.719 2041.52,-19.6138 2049.07,-27.0487 2052.06,-20.719"/>
</g>
<!-- Node25&#45;&gt;Node21 -->
<g id="edge44" class="edge"><title>Node25&#45;&gt;Node21</title>
<path fill="none" stroke="midnightblue" d="M2020.33,-303.247C2055.22,-293.204 2104.18,-278.966 2147,-266 2376.51,-196.507 2455.99,-219.292 2656,-87 2682.02,-69.788 2707.51,-43.9746 2722.74,-27.3075"/>
<polygon fill="midnightblue" stroke="midnightblue" points="2725.65,-29.3025 2729.72,-19.5195 2720.44,-24.6309 2725.65,-29.3025"/>
</g>
<!-- Node26 -->
<g id="node26" class="node"><title>Node26</title>
<g id="a_node26"><a xlink:href="os_8h.html" target="_top" xlink:title="spdlog/details/os.h">
<polygon fill="none" stroke="black" points="1537,-246.5 1537,-265.5 1635,-265.5 1635,-246.5 1537,-246.5"/>
<text text-anchor="middle" x="1586" y="-253.5" font-family="Helvetica,sans-Serif" font-size="10.00">spdlog/details/os.h</text>
</a>
</g>
</g>
<!-- Node25&#45;&gt;Node26 -->
<g id="edge29" class="edge"><title>Node25&#45;&gt;Node26</title>
<path fill="none" stroke="midnightblue" d="M1927.97,-309.441C1857.46,-298.629 1722.76,-277.973 1645.12,-266.066"/>
<polygon fill="midnightblue" stroke="midnightblue" points="1645.44,-262.574 1635.02,-264.517 1644.37,-269.493 1645.44,-262.574"/>
</g>
<!-- Node26&#45;&gt;Node4 -->
<g id="edge30" class="edge"><title>Node26&#45;&gt;Node4</title>
<path fill="none" stroke="midnightblue" d="M1635.12,-250.255C1738.35,-240.282 1977.39,-217.192 2087.53,-206.552"/>
<polygon fill="midnightblue" stroke="midnightblue" points="2088.16,-210.007 2097.78,-205.562 2087.49,-203.04 2088.16,-210.007"/>
</g>
<!-- Node26&#45;&gt;Node5 -->
<g id="edge34" class="edge"><title>Node26&#45;&gt;Node5</title>
<path fill="none" stroke="midnightblue" d="M1567.26,-246.453C1544.04,-234.651 1509.34,-212.285 1525,-190 1636.09,-31.9099 1900.95,-12.794 1991.24,-10.98"/>
<polygon fill="midnightblue" stroke="midnightblue" points="1991.41,-14.4779 2001.36,-10.8363 1991.31,-7.47864 1991.41,-14.4779"/>
</g>
<!-- Node26&#45;&gt;Node7 -->
<g id="edge35" class="edge"><title>Node26&#45;&gt;Node7</title>
<path fill="none" stroke="midnightblue" d="M1567.74,-246.319C1525.41,-226.203 1420.44,-176.307 1370.39,-152.518"/>
<polygon fill="midnightblue" stroke="midnightblue" points="1371.68,-149.256 1361.14,-148.124 1368.67,-155.578 1371.68,-149.256"/>
</g>
<!-- Node26&#45;&gt;Node11 -->
<g id="edge33" class="edge"><title>Node26&#45;&gt;Node11</title>
<path fill="none" stroke="midnightblue" d="M1552.75,-246.424C1523.93,-238.494 1481.39,-225.597 1446,-210 1429.61,-202.775 1428.19,-195.063 1411,-190 1238.95,-139.316 669.67,-138.46 513.773,-139.213"/>
<polygon fill="midnightblue" stroke="midnightblue" points="513.673,-135.713 503.692,-139.267 513.71,-142.713 513.673,-135.713"/>
</g>
<!-- Node26&#45;&gt;Node18 -->
<g id="edge31" class="edge"><title>Node26&#45;&gt;Node18</title>
<path fill="none" stroke="midnightblue" d="M1635.37,-248.503C1641.97,-247.651 1648.65,-246.798 1655,-246 1787.37,-229.372 1828.25,-257.279 1953,-210 2016.64,-185.883 2014.69,-145.265 2079,-123 2321.8,-38.9357 2406.37,-147.873 2656,-87 2711.76,-73.4021 2772.06,-42.636 2804.36,-24.6963"/>
<polygon fill="midnightblue" stroke="midnightblue" points="2806.45,-27.5325 2813.45,-19.5738 2803.02,-21.4342 2806.45,-27.5325"/>
</g>
<!-- Node27 -->
<g id="node27" class="node"><title>Node27</title>
<polygon fill="none" stroke="#bfbfbf" points="2000.5,-190.5 2000.5,-209.5 2041.5,-209.5 2041.5,-190.5 2000.5,-190.5"/>
<text text-anchor="middle" x="2021" y="-197.5" font-family="Helvetica,sans-Serif" font-size="10.00">ctime</text>
</g>
<!-- Node26&#45;&gt;Node27 -->
<g id="edge32" class="edge"><title>Node26&#45;&gt;Node27</title>
<path fill="none" stroke="midnightblue" d="M1635.16,-247.806C1639.83,-247.173 1644.5,-246.561 1649,-246 1798.47,-227.346 1837.78,-236.827 1986,-210 1987.47,-209.735 1988.96,-209.441 1990.47,-209.127"/>
<polygon fill="midnightblue" stroke="midnightblue" points="1991.43,-212.497 2000.38,-206.832 1989.85,-205.677 1991.43,-212.497"/>
</g>
<!-- Node28 -->
<g id="node28" class="node"><title>Node28</title>
<polygon fill="none" stroke="#bfbfbf" points="1358,-190.5 1358,-209.5 1402,-209.5 1402,-190.5 1358,-190.5"/>
<text text-anchor="middle" x="1380" y="-197.5" font-family="Helvetica,sans-Serif" font-size="10.00">thread</text>
</g>
<!-- Node26&#45;&gt;Node28 -->
<g id="edge36" class="edge"><title>Node26&#45;&gt;Node28</title>
<path fill="none" stroke="midnightblue" d="M1553.36,-246.444C1514.68,-236.304 1450.64,-219.517 1412.17,-209.432"/>
<polygon fill="midnightblue" stroke="midnightblue" points="1412.6,-205.927 1402.04,-206.777 1410.82,-212.698 1412.6,-205.927"/>
</g>
<!-- Node29 -->
<g id="node29" class="node"><title>Node29</title>
<polygon fill="none" stroke="#bfbfbf" points="1666,-190.5 1666,-209.5 1712,-209.5 1712,-190.5 1666,-190.5"/>
<text text-anchor="middle" x="1689" y="-197.5" font-family="Helvetica,sans-Serif" font-size="10.00">stdio.h</text>
</g>
<!-- Node26&#45;&gt;Node29 -->
<g id="edge37" class="edge"><title>Node26&#45;&gt;Node29</title>
<path fill="none" stroke="midnightblue" d="M1602.55,-246.324C1618.99,-237.703 1644.43,-224.364 1663.47,-214.386"/>
<polygon fill="midnightblue" stroke="midnightblue" points="1665.26,-217.398 1672.49,-209.655 1662.01,-211.198 1665.26,-217.398"/>
</g>
<!-- Node30 -->
<g id="node30" class="node"><title>Node30</title>
<polygon fill="none" stroke="#bfbfbf" points="1730.5,-190.5 1730.5,-209.5 1779.5,-209.5 1779.5,-190.5 1730.5,-190.5"/>
<text text-anchor="middle" x="1755" y="-197.5" font-family="Helvetica,sans-Serif" font-size="10.00">string.h</text>
</g>
<!-- Node26&#45;&gt;Node30 -->
<g id="edge38" class="edge"><title>Node26&#45;&gt;Node30</title>
<path fill="none" stroke="midnightblue" d="M1612.78,-246.444C1641.92,-237.132 1688.61,-222.214 1720.48,-212.029"/>
<polygon fill="midnightblue" stroke="midnightblue" points="1721.81,-215.279 1730.27,-208.902 1719.68,-208.611 1721.81,-215.279"/>
</g>
<!-- Node31 -->
<g id="node31" class="node"><title>Node31</title>
<polygon fill="none" stroke="#bfbfbf" points="1798,-190.5 1798,-209.5 1858,-209.5 1858,-190.5 1798,-190.5"/>
<text text-anchor="middle" x="1828" y="-197.5" font-family="Helvetica,sans-Serif" font-size="10.00">sys/stat.h</text>
</g>
<!-- Node26&#45;&gt;Node31 -->
<g id="edge39" class="edge"><title>Node26&#45;&gt;Node31</title>
<path fill="none" stroke="midnightblue" d="M1624.35,-246.481C1664.99,-237.449 1731.03,-222.756 1788,-210 1788.1,-209.978 1788.2,-209.955 1788.3,-209.933"/>
<polygon fill="midnightblue" stroke="midnightblue" points="1788.87,-213.392 1797.86,-207.789 1787.34,-206.562 1788.87,-213.392"/>
</g>
<!-- Node32 -->
<g id="node32" class="node"><title>Node32</title>
<polygon fill="none" stroke="#bfbfbf" points="1876,-190.5 1876,-209.5 1944,-209.5 1944,-190.5 1876,-190.5"/>
<text text-anchor="middle" x="1910" y="-197.5" font-family="Helvetica,sans-Serif" font-size="10.00">sys/types.h</text>
</g>
<!-- Node26&#45;&gt;Node32 -->
<g id="edge40" class="edge"><title>Node26&#45;&gt;Node32</title>
<path fill="none" stroke="midnightblue" d="M1635.11,-247.859C1689.2,-239.831 1779.01,-226.029 1865.75,-210.163"/>
<polygon fill="midnightblue" stroke="midnightblue" points="1866.56,-213.572 1875.76,-208.319 1865.29,-206.688 1866.56,-213.572"/>
</g>
<!-- Node33 -->
<g id="node33" class="node"><title>Node33</title>
<polygon fill="none" stroke="#bfbfbf" points="1534.5,-190.5 1534.5,-209.5 1585.5,-209.5 1585.5,-190.5 1534.5,-190.5"/>
<text text-anchor="middle" x="1560" y="-197.5" font-family="Helvetica,sans-Serif" font-size="10.00">unistd.h</text>
</g>
<!-- Node26&#45;&gt;Node33 -->
<g id="edge41" class="edge"><title>Node26&#45;&gt;Node33</title>
<path fill="none" stroke="midnightblue" d="M1581.71,-246.083C1578.15,-238.691 1572.98,-227.953 1568.58,-218.811"/>
<polygon fill="midnightblue" stroke="midnightblue" points="1571.71,-217.243 1564.21,-209.751 1565.4,-220.279 1571.71,-217.243"/>
</g>
<!-- Node34 -->
<g id="node34" class="node"><title>Node34</title>
<polygon fill="none" stroke="#bfbfbf" points="1604,-190.5 1604,-209.5 1648,-209.5 1648,-190.5 1604,-190.5"/>
<text text-anchor="middle" x="1626" y="-197.5" font-family="Helvetica,sans-Serif" font-size="10.00">fcntl.h</text>
</g>
<!-- Node26&#45;&gt;Node34 -->
<g id="edge42" class="edge"><title>Node26&#45;&gt;Node34</title>
<path fill="none" stroke="midnightblue" d="M1592.61,-246.083C1598.26,-238.455 1606.54,-227.264 1613.45,-217.941"/>
<polygon fill="midnightblue" stroke="midnightblue" points="1616.38,-219.87 1619.52,-209.751 1610.75,-215.703 1616.38,-219.87"/>
</g>
<!-- Node35&#45;&gt;Node5 -->
<g id="edge48" class="edge"><title>Node35&#45;&gt;Node5</title>
<path fill="none" stroke="midnightblue" d="M1469.96,-436.252C1409.89,-392.142 1147.46,-193.455 1195,-123 1239.5,-57.0492 1283.46,-73.8122 1361,-56 1483.45,-27.8725 1878.24,-14.9813 1991.42,-11.8049"/>
<polygon fill="midnightblue" stroke="midnightblue" points="1991.57,-15.3021 2001.47,-11.5276 1991.38,-8.30472 1991.57,-15.3021"/>
</g>
<!-- Node35&#45;&gt;Node8 -->
<g id="edge49" class="edge"><title>Node35&#45;&gt;Node8</title>
<path fill="none" stroke="midnightblue" d="M1434.31,-439.514C1310.58,-423.351 973.115,-366.79 746,-210 673.685,-160.077 690.424,-111.137 622,-56 605.014,-42.3124 583.184,-31.2708 565.278,-23.5507"/>
<polygon fill="midnightblue" stroke="midnightblue" points="566.367,-20.2132 555.79,-19.6078 563.681,-26.6773 566.367,-20.2132"/>
</g>
<!-- Node35&#45;&gt;Node20 -->
<g id="edge47" class="edge"><title>Node35&#45;&gt;Node20</title>
<path fill="none" stroke="midnightblue" d="M1458.58,-436.422C1437.42,-428.267 1405.74,-415.037 1380,-400 1222.36,-307.895 1195.82,-265.188 1051,-154 1012.85,-124.706 999.157,-121.85 966,-87 948.63,-68.7434 932.415,-44.5838 922.375,-28.4532"/>
<polygon fill="midnightblue" stroke="midnightblue" points="925.157,-26.2922 916.966,-19.5718 919.178,-29.9331 925.157,-26.2922"/>
</g>
<!-- Node35&#45;&gt;Node25 -->
<g id="edge46" class="edge"><title>Node35&#45;&gt;Node25</title>
<path fill="none" stroke="midnightblue" d="M1515.43,-436.405C1598.53,-415.039 1815.13,-359.347 1918.09,-332.876"/>
<polygon fill="midnightblue" stroke="midnightblue" points="1919.17,-336.211 1927.98,-330.331 1917.43,-329.432 1919.17,-336.211"/>
</g>
<!-- Node36 -->
<g id="node36" class="node"><title>Node36</title>
<g id="a_node36"><a xlink:href="pattern__formatter__impl_8h.html" target="_top" xlink:title="spdlog/details/pattern\l_formatter_impl.h">
<polygon fill="none" stroke="black" points="1434,-369.5 1434,-399.5 1544,-399.5 1544,-369.5 1434,-369.5"/>
<text text-anchor="start" x="1442" y="-387.5" font-family="Helvetica,sans-Serif" font-size="10.00">spdlog/details/pattern</text>
<text text-anchor="middle" x="1489" y="-376.5" font-family="Helvetica,sans-Serif" font-size="10.00">_formatter_impl.h</text>
</a>
</g>
</g>
<!-- Node35&#45;&gt;Node36 -->
<g id="edge50" class="edge"><title>Node35&#45;&gt;Node36</title>
<path fill="none" stroke="midnightblue" d="M1478.1,-436.475C1477.39,-429.396 1478.04,-418.97 1479.56,-409.39"/>
<polygon fill="midnightblue" stroke="midnightblue" points="1483,-410.014 1481.52,-399.523 1476.14,-408.648 1483,-410.014"/>
</g>
<!-- Node36&#45;&gt;Node5 -->
<g id="edge59" class="edge"><title>Node36&#45;&gt;Node5</title>
<path fill="none" stroke="midnightblue" d="M1457.41,-369.412C1440.22,-360.664 1419.39,-348.193 1404,-333 1331.35,-261.294 1246.28,-201.94 1311,-123 1398.66,-16.0717 1866.08,-10.3171 1991.18,-10.7217"/>
<polygon fill="midnightblue" stroke="midnightblue" points="1991.22,-14.2218 2001.23,-10.7704 1991.25,-7.22187 1991.22,-14.2218"/>
</g>
<!-- Node36&#45;&gt;Node7 -->
<g id="edge55" class="edge"><title>Node36&#45;&gt;Node7</title>
<path fill="none" stroke="midnightblue" d="M1472.32,-369.32C1441.6,-342.073 1376.7,-278.959 1349,-210 1342.35,-193.45 1341.32,-172.997 1341.66,-158.39"/>
<polygon fill="midnightblue" stroke="midnightblue" points="1345.17,-158.273 1342.16,-148.116 1338.18,-157.936 1345.17,-158.273"/>
</g>
<!-- Node36&#45;&gt;Node8 -->
<g id="edge57" class="edge"><title>Node36&#45;&gt;Node8</title>
<path fill="none" stroke="midnightblue" d="M1439.94,-369.437C1404.85,-359.353 1356.49,-345.413 1314,-333 1128.93,-278.939 1073.18,-290.53 898,-210 783.526,-157.376 773.107,-111.502 660,-56 630.13,-41.3427 594.254,-29.1603 568.094,-21.184"/>
<polygon fill="midnightblue" stroke="midnightblue" points="568.81,-17.745 558.226,-18.2339 566.804,-24.4517 568.81,-17.745"/>
</g>
<!-- Node36&#45;&gt;Node13 -->
<g id="edge54" class="edge"><title>Node36&#45;&gt;Node13</title>
<path fill="none" stroke="midnightblue" d="M1543.17,-369.438C1606.92,-352.959 1716.03,-324.983 1810,-302 1983.41,-259.588 2038.35,-283.601 2201,-210 2232.51,-195.742 2264.25,-170.844 2283.01,-154.773"/>
<polygon fill="midnightblue" stroke="midnightblue" points="2285.44,-157.296 2290.67,-148.081 2280.84,-152.025 2285.44,-157.296"/>
</g>
<!-- Node36&#45;&gt;Node20 -->
<g id="edge62" class="edge"><title>Node36&#45;&gt;Node20</title>
<path fill="none" stroke="midnightblue" d="M1449.29,-369.458C1425.17,-360.315 1394.1,-347.43 1368,-333 1186.52,-232.651 989.84,-75.0931 930.158,-26.0695"/>
<polygon fill="midnightblue" stroke="midnightblue" points="932.307,-23.305 922.365,-19.6438 927.854,-28.7059 932.307,-23.305"/>
</g>
<!-- Node36&#45;&gt;Node21 -->
<g id="edge61" class="edge"><title>Node36&#45;&gt;Node21</title>
<path fill="none" stroke="midnightblue" d="M1544.19,-373.785C1599.58,-363.926 1687.32,-348.019 1763,-333 1903.39,-305.137 1938.75,-299.095 2078,-266 2268.46,-220.734 2317.11,-212.28 2504,-154 2587.48,-127.967 2620.86,-141.815 2689,-87 2708.23,-71.5275 2722.02,-46.1617 2729.75,-29.0345"/>
<polygon fill="midnightblue" stroke="midnightblue" points="2733.08,-30.1686 2733.78,-19.5972 2726.64,-27.4223 2733.08,-30.1686"/>
</g>
<!-- Node36&#45;&gt;Node25 -->
<g id="edge52" class="edge"><title>Node36&#45;&gt;Node25</title>
<path fill="none" stroke="midnightblue" d="M1544.16,-376.107C1637.13,-363.647 1824.03,-338.599 1917.74,-326.04"/>
<polygon fill="midnightblue" stroke="midnightblue" points="1918.43,-329.479 1927.87,-324.682 1917.5,-322.541 1918.43,-329.479"/>
</g>
<!-- Node36&#45;&gt;Node26 -->
<g id="edge53" class="edge"><title>Node36&#45;&gt;Node26</title>
<path fill="none" stroke="midnightblue" d="M1502.5,-369.338C1511.72,-359.44 1524.01,-345.763 1534,-333 1549.18,-313.606 1564.91,-290.036 1575.04,-274.337"/>
<polygon fill="midnightblue" stroke="midnightblue" points="1578.14,-275.998 1580.57,-265.687 1572.24,-272.228 1578.14,-275.998"/>
</g>
<!-- Node36&#45;&gt;Node27 -->
<g id="edge56" class="edge"><title>Node36&#45;&gt;Node27</title>
<path fill="none" stroke="midnightblue" d="M1508.95,-369.255C1557.22,-334.855 1677.03,-249.793 1687,-246 1812.11,-198.422 1854.45,-234.721 1986,-210 1987.46,-209.725 1988.96,-209.423 1990.46,-209.102"/>
<polygon fill="midnightblue" stroke="midnightblue" points="1991.43,-212.47 2000.37,-206.785 1989.84,-205.654 1991.43,-212.47"/>
</g>
<!-- Node36&#45;&gt;Node28 -->
<g id="edge60" class="edge"><title>Node36&#45;&gt;Node28</title>
<path fill="none" stroke="midnightblue" d="M1487.79,-369.234C1484.89,-342.593 1475.54,-284.499 1447,-246 1437.03,-232.556 1421.78,-221.861 1408.35,-214.277"/>
<polygon fill="midnightblue" stroke="midnightblue" points="1409.9,-211.136 1399.42,-209.528 1406.61,-217.315 1409.9,-211.136"/>
</g>
<!-- Node36&#45;&gt;Node35 -->
<g id="edge51" class="edge"><title>Node36&#45;&gt;Node35</title>
<path fill="none" stroke="midnightblue" d="M1493.18,-399.523C1493.27,-407.586 1492.23,-417.813 1490.47,-426.526"/>
<polygon fill="midnightblue" stroke="midnightblue" points="1487.01,-425.918 1487.9,-436.475 1493.79,-427.668 1487.01,-425.918"/>
</g>
<!-- Node36&#45;&gt;Node37 -->
<g id="edge58" class="edge"><title>Node36&#45;&gt;Node37</title>
<path fill="none" stroke="midnightblue" d="M1544.39,-380.735C1663.13,-374.415 1938.71,-357.541 2029,-333 2030.94,-332.474 2032.9,-331.835 2034.85,-331.121"/>
<polygon fill="midnightblue" stroke="midnightblue" points="2036.47,-334.237 2044.31,-327.115 2033.74,-327.792 2036.47,-334.237"/>
</g>
<!-- Node38&#45;&gt;Node5 -->
<g id="edge79" class="edge"><title>Node38&#45;&gt;Node5</title>
<path fill="none" stroke="midnightblue" d="M567.113,-626.345C554.699,-602.698 532,-553.33 532,-508.5 532,-508.5 532,-508.5 532,-383.5 532,-152.358 719.781,-137.708 936,-56 1036.94,-17.8563 1824.45,-11.9501 1991.09,-11.1246"/>
<polygon fill="midnightblue" stroke="midnightblue" points="1991.17,-14.6244 2001.15,-11.0773 1991.14,-7.62446 1991.17,-14.6244"/>
</g>
<!-- Node38&#45;&gt;Node8 -->
<g id="edge78" class="edge"><title>Node38&#45;&gt;Node8</title>
<path fill="none" stroke="midnightblue" d="M553.867,-626.384C541.773,-617.302 527.218,-604.506 518,-590 497.748,-558.13 494,-546.26 494,-508.5 494,-508.5 494,-508.5 494,-383.5 494,-264.79 393.529,-234.231 435,-123 450.447,-81.5702 488.882,-45.282 512.47,-25.909"/>
<polygon fill="midnightblue" stroke="midnightblue" points="514.791,-28.535 520.419,-19.5588 510.421,-23.066 514.791,-28.535"/>
</g>
<!-- Node38&#45;&gt;Node22 -->
<g id="edge71" class="edge"><title>Node38&#45;&gt;Node22</title>
<path fill="none" stroke="midnightblue" d="M586.486,-656.523C590.781,-664.586 595.063,-674.813 597.847,-683.526"/>
<polygon fill="midnightblue" stroke="midnightblue" points="594.535,-684.693 600.462,-693.475 601.305,-682.914 594.535,-684.693"/>
</g>
<!-- Node38&#45;&gt;Node39 -->
<g id="edge72" class="edge"><title>Node38&#45;&gt;Node39</title>
<path fill="none" stroke="midnightblue" d="M628.404,-638.129C855.16,-628.061 1737.58,-588.883 1978.14,-578.202"/>
<polygon fill="midnightblue" stroke="midnightblue" points="1978.6,-581.685 1988.44,-577.745 1978.29,-574.692 1978.6,-581.685"/>
</g>
<!-- Node39&#45;&gt;Node8 -->
<g id="edge76" class="edge"><title>Node39&#45;&gt;Node8</title>
<path fill="none" stroke="midnightblue" d="M1988.13,-572.472C1859.41,-569.413 1510.47,-558.263 1222,-523 1058.29,-502.988 996.942,-543.286 857,-456 766.498,-399.551 587.074,-103.809 542.304,-28.4748"/>
<polygon fill="midnightblue" stroke="midnightblue" points="545.216,-26.5229 537.109,-19.7022 539.193,-30.09 545.216,-26.5229"/>
</g>
<!-- Node39&#45;&gt;Node12 -->
<g id="edge73" class="edge"><title>Node39&#45;&gt;Node12</title>
<path fill="none" stroke="midnightblue" d="M2065.6,-559.462C2083.92,-549.619 2108.7,-535.957 2130,-523 2189.71,-486.681 2196.84,-463.728 2261,-436 2325.52,-408.115 2367.94,-452.21 2415,-400 2475.28,-333.121 2462.19,-214.38 2453.06,-163.61"/>
<polygon fill="midnightblue" stroke="midnightblue" points="2456.46,-162.745 2451.15,-153.579 2449.58,-164.058 2456.46,-162.745"/>
</g>
<!-- Node39&#45;&gt;Node18 -->
<g id="edge75" class="edge"><title>Node39&#45;&gt;Node18</title>
<path fill="none" stroke="midnightblue" d="M2076.72,-559.432C2243.21,-497.081 2904,-246.731 2904,-201 2904,-201 2904,-201 2904,-137.5 2904,-92.1215 2867.62,-48.982 2845.2,-26.705"/>
<polygon fill="midnightblue" stroke="midnightblue" points="2847.57,-24.1293 2837.94,-19.7259 2842.72,-29.1776 2847.57,-24.1293"/>
</g>
<!-- Node39&#45;&gt;Node23 -->
<g id="edge74" class="edge"><title>Node39&#45;&gt;Node23</title>
<path fill="none" stroke="midnightblue" d="M2039,-559.396C2039,-550.064 2039,-537.714 2039,-527.517"/>
<polygon fill="midnightblue" stroke="midnightblue" points="2042.5,-527.195 2039,-517.195 2035.5,-527.195 2042.5,-527.195"/>
</g>
<!-- Node39&#45;&gt;Node37 -->
<g id="edge77" class="edge"><title>Node39&#45;&gt;Node37</title>
<path fill="none" stroke="midnightblue" d="M2071.59,-559.441C2086.47,-551.165 2102.62,-539.12 2111,-523 2144.32,-458.93 2095.95,-372.102 2072.05,-335.688"/>
<polygon fill="midnightblue" stroke="midnightblue" points="2074.8,-333.51 2066.3,-327.185 2069,-337.43 2074.8,-333.51"/>
</g>
<!-- Node40&#45;&gt;Node4 -->
<g id="edge115" class="edge"><title>Node40&#45;&gt;Node4</title>
<path fill="none" stroke="midnightblue" d="M1570.61,-805.485C1661.42,-790.816 1824,-757.134 1824,-704 1824,-704 1824,-704 1824,-506.5 1824,-406.283 1846.69,-371.385 1919,-302 1969.48,-253.565 2047.14,-225.889 2097.01,-212.156"/>
<polygon fill="midnightblue" stroke="midnightblue" points="2098.14,-215.476 2106.9,-209.514 2096.34,-208.713 2098.14,-215.476"/>
</g>
<!-- Node40&#45;&gt;Node5 -->
<g id="edge120" class="edge"><title>Node40&#45;&gt;Node5</title>
<path fill="none" stroke="midnightblue" d="M1571.02,-813.734C1732.83,-812.526 2175.35,-805.848 2316,-769 2513.09,-717.366 2505.14,-586.131 2588,-400 2638.32,-286.956 2657.8,-198.8 2560,-123 2522,-93.5507 2499.6,-111.1 2458,-87 2439.73,-76.4152 2441.35,-64.4449 2422,-56 2355.65,-27.0442 2134.67,-15.4818 2052.83,-12.1257"/>
<polygon fill="midnightblue" stroke="midnightblue" points="2052.81,-8.62208 2042.68,-11.7225 2052.53,-15.6166 2052.81,-8.62208"/>
</g>
<!-- Node40&#45;&gt;Node7 -->
<g id="edge116" class="edge"><title>Node40&#45;&gt;Node7</title>
<path fill="none" stroke="midnightblue" d="M1451.39,-805.485C1360.58,-790.816 1198,-757.134 1198,-704 1198,-704 1198,-704 1198,-640.5 1198,-444.078 1302.11,-220.809 1333.9,-157.226"/>
<polygon fill="midnightblue" stroke="midnightblue" points="1337.11,-158.627 1338.5,-148.124 1330.86,-155.466 1337.11,-158.627"/>
</g>
<!-- Node40&#45;&gt;Node8 -->
<g id="edge118" class="edge"><title>Node40&#45;&gt;Node8</title>
<path fill="none" stroke="midnightblue" d="M1450.69,-813.088C1215.84,-809.366 369.67,-794.312 252,-769 143.985,-745.765 38,-752.986 38,-642.5 38,-642.5 38,-642.5 38,-137.5 38,-88.2744 69.0442,-78.1596 113,-56 179.701,-22.3739 406.582,-13.7605 495.669,-11.6514"/>
<polygon fill="midnightblue" stroke="midnightblue" points="495.91,-15.147 505.83,-11.4253 495.755,-8.14877 495.91,-15.147"/>
</g>
<!-- Node40&#45;&gt;Node11 -->
<g id="edge117" class="edge"><title>Node40&#45;&gt;Node11</title>
<path fill="none" stroke="midnightblue" d="M1450.63,-812.666C1226.35,-807.175 449.558,-783.199 366,-713 231.67,-600.146 380,-493.944 380,-318.5 380,-318.5 380,-318.5 380,-255 380,-210.209 423.052,-173.144 450.885,-153.862"/>
<polygon fill="midnightblue" stroke="midnightblue" points="452.936,-156.701 459.312,-148.24 449.051,-150.878 452.936,-156.701"/>
</g>
<!-- Node40&#45;&gt;Node12 -->
<g id="edge86" class="edge"><title>Node40&#45;&gt;Node12</title>
<path fill="none" stroke="midnightblue" d="M1571.08,-813.028C1773.21,-808.974 2416,-789.369 2416,-704 2416,-704 2416,-704 2416,-573.5 2416,-454.634 2506.32,-448.833 2533,-333 2536.09,-319.574 2536.29,-315.38 2533,-302 2519.78,-248.202 2485.26,-192.465 2464.51,-162.278"/>
<polygon fill="midnightblue" stroke="midnightblue" points="2467.15,-159.946 2458.55,-153.76 2461.41,-163.96 2467.15,-159.946"/>
</g>
<!-- Node40&#45;&gt;Node22 -->
<g id="edge87" class="edge"><title>Node40&#45;&gt;Node22</title>
<path fill="none" stroke="midnightblue" d="M1450.85,-811.678C1344.96,-807.071 1118.52,-794.901 929,-769 826.791,-755.032 708.493,-729.387 644.987,-714.834"/>
<polygon fill="midnightblue" stroke="midnightblue" points="645.433,-711.345 634.903,-712.511 643.862,-718.166 645.433,-711.345"/>
</g>
<!-- Node40&#45;&gt;Node37 -->
<g id="edge119" class="edge"><title>Node40&#45;&gt;Node37</title>
<path fill="none" stroke="midnightblue" d="M1571.11,-812.506C1653.73,-809.333 1796.84,-799.477 1838,-769 1946.99,-688.298 1905.22,-613.239 1966,-492 1995.09,-433.967 2032.62,-366.786 2050.15,-335.795"/>
<polygon fill="midnightblue" stroke="midnightblue" points="2053.22,-337.488 2055.11,-327.063 2047.13,-334.033 2053.22,-337.488"/>
</g>
<!-- Node41 -->
<g id="node41" class="node"><title>Node41</title>
<g id="a_node41"><a xlink:href="async__logger_8h.html" target="_top" xlink:title="spdlog/async_logger.h">
<polygon fill="none" stroke="black" points="938,-749.5 938,-768.5 1052,-768.5 1052,-749.5 938,-749.5"/>
<text text-anchor="middle" x="995" y="-756.5" font-family="Helvetica,sans-Serif" font-size="10.00">spdlog/async_logger.h</text>
</a>
</g>
</g>
<!-- Node40&#45;&gt;Node41 -->
<g id="edge88" class="edge"><title>Node40&#45;&gt;Node41</title>
<path fill="none" stroke="midnightblue" d="M1450.8,-807.7C1353.77,-797.546 1163.47,-777.631 1062.17,-767.03"/>
<polygon fill="midnightblue" stroke="midnightblue" points="1062.37,-763.531 1052.06,-765.971 1061.64,-770.493 1062.37,-763.531"/>
</g>
<!-- Node44 -->
<g id="node44" class="node"><title>Node44</title>
<polygon fill="none" stroke="#bfbfbf" points="1469.5,-749.5 1469.5,-768.5 1552.5,-768.5 1552.5,-749.5 1469.5,-749.5"/>
<text text-anchor="middle" x="1511" y="-756.5" font-family="Helvetica,sans-Serif" font-size="10.00">unordered_map</text>
</g>
<!-- Node40&#45;&gt;Node44 -->
<g id="edge121" class="edge"><title>Node40&#45;&gt;Node44</title>
<path fill="none" stroke="midnightblue" d="M1511,-805.083C1511,-798.006 1511,-787.861 1511,-778.986"/>
<polygon fill="midnightblue" stroke="midnightblue" points="1514.5,-778.751 1511,-768.751 1507.5,-778.751 1514.5,-778.751"/>
</g>
<!-- Node41&#45;&gt;Node4 -->
<g id="edge89" class="edge"><title>Node41&#45;&gt;Node4</title>
<path fill="none" stroke="midnightblue" d="M1019.82,-749.427C1118.97,-715.006 1486.25,-585.699 1592,-523 1674.65,-473.998 1837.4,-287.629 1924,-246 1938.64,-238.964 2027.12,-222.148 2087.58,-211.184"/>
<polygon fill="midnightblue" stroke="midnightblue" points="2088.56,-214.564 2097.78,-209.343 2087.32,-207.676 2088.56,-214.564"/>
</g>
<!-- Node41&#45;&gt;Node5 -->
<g id="edge93" class="edge"><title>Node41&#45;&gt;Node5</title>
<path fill="none" stroke="midnightblue" d="M1052.15,-756.257C1280.29,-748.499 2124.79,-711.934 2358,-590 2554.01,-487.514 2700.72,-263.633 2530,-123 2493.54,-92.9661 2472.02,-108.578 2430,-87 2408.4,-75.906 2407.7,-64.6301 2385,-56 2324.32,-32.9328 2129.04,-18.0089 2052.85,-12.9335"/>
<polygon fill="midnightblue" stroke="midnightblue" points="2052.71,-9.41692 2042.51,-12.2563 2052.26,-16.402 2052.71,-9.41692"/>
</g>
<!-- Node41&#45;&gt;Node7 -->
<g id="edge91" class="edge"><title>Node41&#45;&gt;Node7</title>
<path fill="none" stroke="midnightblue" d="M998.328,-749.497C1012.11,-713.49 1064,-569.779 1064,-447 1064,-447 1064,-447 1064,-316.5 1064,-258.427 1238.53,-181.492 1311.51,-151.861"/>
<polygon fill="midnightblue" stroke="midnightblue" points="1313.14,-154.98 1321.11,-148 1310.52,-148.486 1313.14,-154.98"/>
</g>
<!-- Node41&#45;&gt;Node8 -->
<g id="edge94" class="edge"><title>Node41&#45;&gt;Node8</title>
<path fill="none" stroke="midnightblue" d="M937.72,-758.87C747.983,-758.496 152,-729.912 152,-385.5 152,-385.5 152,-385.5 152,-137.5 152,-83.8652 192.645,-79.2051 241,-56 325.432,-15.4819 438.041,-9.90952 495.264,-10.0172"/>
<polygon fill="midnightblue" stroke="midnightblue" points="495.587,-13.5199 505.615,-10.101 495.644,-6.52009 495.587,-13.5199"/>
</g>
<!-- Node41&#45;&gt;Node11 -->
<g id="edge92" class="edge"><title>Node41&#45;&gt;Node11</title>
<path fill="none" stroke="midnightblue" d="M937.904,-758.384C832.376,-758.109 611.753,-752.639 548,-713 499.784,-683.021 456,-535.136 456,-508.5 456,-508.5 456,-508.5 456,-255 456,-220.452 463.96,-180.776 469.293,-158.07"/>
<polygon fill="midnightblue" stroke="midnightblue" points="472.75,-158.666 471.72,-148.122 465.95,-157.007 472.75,-158.666"/>
</g>
<!-- Node41&#45;&gt;Node22 -->
<g id="edge90" class="edge"><title>Node41&#45;&gt;Node22</title>
<path fill="none" stroke="midnightblue" d="M937.841,-750.206C860.822,-739.703 724.853,-721.162 650.727,-711.054"/>
<polygon fill="midnightblue" stroke="midnightblue" points="651.072,-707.568 640.691,-709.685 650.126,-714.504 651.072,-707.568"/>
</g>
<!-- Node42 -->
<g id="node42" class="node"><title>Node42</title>
<g id="a_node42"><a xlink:href="async__logger__impl_8h.html" target="_top" xlink:title="spdlog/details/async\l_logger_impl.h">
<polygon fill="none" stroke="black" points="831,-559.5 831,-589.5 937,-589.5 937,-559.5 831,-559.5"/>
<text text-anchor="start" x="839" y="-577.5" font-family="Helvetica,sans-Serif" font-size="10.00">spdlog/details/async</text>
<text text-anchor="middle" x="884" y="-566.5" font-family="Helvetica,sans-Serif" font-size="10.00">_logger_impl.h</text>
</a>
</g>
</g>
<!-- Node41&#45;&gt;Node42 -->
<g id="edge95" class="edge"><title>Node41&#45;&gt;Node42</title>
<path fill="none" stroke="midnightblue" d="M986.537,-749.198C965.799,-722.106 914.945,-639.351 893.393,-598.628"/>
<polygon fill="midnightblue" stroke="midnightblue" points="896.487,-596.991 888.805,-589.695 890.26,-600.189 896.487,-596.991"/>
</g>
<!-- Node42&#45;&gt;Node5 -->
<g id="edge111" class="edge"><title>Node42&#45;&gt;Node5</title>
<path fill="none" stroke="midnightblue" d="M881.918,-559.284C875.667,-512.794 859.752,-361.625 898,-246 943.061,-109.778 1021.78,-97.9336 1159,-56 1319.3,-7.01163 1857.25,-9.25817 1991.46,-10.6215"/>
<polygon fill="midnightblue" stroke="midnightblue" points="1991.43,-14.1212 2001.46,-10.7293 1991.5,-7.12164 1991.43,-14.1212"/>
</g>
<!-- Node42&#45;&gt;Node7 -->
<g id="edge113" class="edge"><title>Node42&#45;&gt;Node7</title>
<path fill="none" stroke="midnightblue" d="M898.928,-559.274C935.386,-522.915 1026,-422.125 1026,-318.5 1026,-318.5 1026,-318.5 1026,-255 1026,-201.992 1077.23,-210.765 1126,-190 1142.84,-182.832 1253.34,-158.67 1309.84,-146.553"/>
<polygon fill="midnightblue" stroke="midnightblue" points="1310.69,-149.952 1319.73,-144.437 1309.22,-143.107 1310.69,-149.952"/>
</g>
<!-- Node42&#45;&gt;Node8 -->
<g id="edge114" class="edge"><title>Node42&#45;&gt;Node8</title>
<path fill="none" stroke="midnightblue" d="M830.734,-563.454C741.149,-545.021 570,-502.539 570,-447 570,-447 570,-447 570,-383.5 570,-246.95 544.415,-83.6899 535.232,-29.4908"/>
<polygon fill="midnightblue" stroke="midnightblue" points="538.681,-28.8918 533.537,-19.6295 531.782,-30.078 538.681,-28.8918"/>
</g>
<!-- Node42&#45;&gt;Node11 -->
<g id="edge112" class="edge"><title>Node42&#45;&gt;Node11</title>
<path fill="none" stroke="midnightblue" d="M831.087,-559.397C806.737,-551.274 778.359,-539.37 756,-523 699.154,-481.38 698.426,-456.248 656,-400 588.501,-310.51 513.505,-198.984 485.428,-156.768"/>
<polygon fill="midnightblue" stroke="midnightblue" points="488.193,-154.604 479.747,-148.207 482.361,-158.474 488.193,-154.604"/>
</g>
<!-- Node42&#45;&gt;Node41 -->
<g id="edge110" class="edge"><title>Node42&#45;&gt;Node41</title>
<path fill="none" stroke="midnightblue" d="M896.462,-589.695C920.159,-622.487 969.555,-703.475 988.191,-739.827"/>
<polygon fill="midnightblue" stroke="midnightblue" points="985.23,-741.74 992.756,-749.198 991.523,-738.675 985.23,-741.74"/>
</g>
<!-- Node43 -->
<g id="node43" class="node"><title>Node43</title>
<g id="a_node43"><a xlink:href="async__log__helper_8h.html" target="_top" xlink:title="spdlog/details/async\l_log_helper.h">
<polygon fill="none" stroke="red" points="1231,-492.5 1231,-522.5 1337,-522.5 1337,-492.5 1231,-492.5"/>
<text text-anchor="start" x="1239" y="-510.5" font-family="Helvetica,sans-Serif" font-size="10.00">spdlog/details/async</text>
<text text-anchor="middle" x="1284" y="-499.5" font-family="Helvetica,sans-Serif" font-size="10.00">_log_helper.h</text>
</a>
</g>
</g>
<!-- Node42&#45;&gt;Node43 -->
<g id="edge96" class="edge"><title>Node42&#45;&gt;Node43</title>
<path fill="none" stroke="midnightblue" d="M937.117,-564.869C1010.44,-552.954 1142.45,-531.501 1220.77,-518.775"/>
<polygon fill="midnightblue" stroke="midnightblue" points="1221.67,-522.174 1230.98,-517.115 1220.55,-515.265 1221.67,-522.174"/>
</g>
<!-- Node43&#45;&gt;Node4 -->
<g id="edge97" class="edge"><title>Node43&#45;&gt;Node4</title>
<path fill="none" stroke="midnightblue" d="M1337.24,-506.031C1391.31,-503.34 1475.71,-492.872 1538,-456 1581.44,-430.289 1574.99,-404.373 1611,-369 1672.99,-308.099 1682.92,-279.745 1763,-246 1777.74,-239.787 1984.54,-217.653 2087.55,-206.92"/>
<polygon fill="midnightblue" stroke="midnightblue" points="2088.2,-210.372 2097.78,-205.856 2087.47,-203.409 2088.2,-210.372"/>
</g>
<!-- Node43&#45;&gt;Node5 -->
<g id="edge106" class="edge"><title>Node43&#45;&gt;Node5</title>
<path fill="none" stroke="midnightblue" d="M1230.74,-497.63C1145.52,-480.054 988,-432.189 988,-318.5 988,-318.5 988,-318.5 988,-255 988,-210.978 1116.28,-97.7309 1226,-56 1298.43,-28.4533 1853.23,-14.6662 1991.07,-11.6446"/>
<polygon fill="midnightblue" stroke="midnightblue" points="1991.42,-15.1381 2001.34,-11.4227 1991.26,-8.13974 1991.42,-15.1381"/>
</g>
<!-- Node43&#45;&gt;Node7 -->
<g id="edge102" class="edge"><title>Node43&#45;&gt;Node7</title>
<path fill="none" stroke="midnightblue" d="M1286.31,-492.113C1295.54,-434.729 1329.7,-222.209 1340.03,-157.995"/>
<polygon fill="midnightblue" stroke="midnightblue" points="1343.49,-158.526 1341.62,-148.098 1336.57,-157.415 1343.49,-158.526"/>
</g>
<!-- Node43&#45;&gt;Node8 -->
<g id="edge105" class="edge"><title>Node43&#45;&gt;Node8</title>
<path fill="none" stroke="midnightblue" d="M1230.8,-504.729C1173.73,-501.038 1081.62,-489.822 1010,-456 856.555,-383.539 838.946,-329.03 718,-210 653.336,-146.36 648.241,-120.067 584,-56 573.433,-45.4617 560.788,-34.4859 550.613,-26.0124"/>
<polygon fill="midnightblue" stroke="midnightblue" points="552.695,-23.1931 542.747,-19.5476 548.25,-28.601 552.695,-23.1931"/>
</g>
<!-- Node43&#45;&gt;Node10 -->
<g id="edge103" class="edge"><title>Node43&#45;&gt;Node10</title>
<path fill="none" stroke="midnightblue" d="M1267.8,-492.128C1258.26,-482.77 1246.77,-469.774 1240,-456 1202,-378.723 1210.49,-351.698 1202,-266 1198.67,-232.387 1192.59,-222.44 1202,-190 1205.59,-177.611 1213.24,-165.349 1220.16,-156.011"/>
<polygon fill="midnightblue" stroke="midnightblue" points="1222.99,-158.072 1226.41,-148.045 1217.48,-153.75 1222.99,-158.072"/>
</g>
<!-- Node43&#45;&gt;Node11 -->
<g id="edge104" class="edge"><title>Node43&#45;&gt;Node11</title>
<path fill="none" stroke="midnightblue" d="M1230.85,-502.104C1141.76,-494.279 966.317,-476.789 908,-456 719.938,-388.958 702.812,-313.578 546,-190 529.515,-177.009 509.973,-163.408 495.41,-153.598"/>
<polygon fill="midnightblue" stroke="midnightblue" points="497.318,-150.663 487.059,-148.019 493.43,-156.484 497.318,-150.663"/>
</g>
<!-- Node43&#45;&gt;Node20 -->
<g id="edge109" class="edge"><title>Node43&#45;&gt;Node20</title>
<path fill="none" stroke="midnightblue" d="M1230.98,-504.261C1160.8,-498.257 1038.44,-476.67 974,-400 879.749,-287.867 899.814,-91.0511 908.88,-29.7615"/>
<polygon fill="midnightblue" stroke="midnightblue" points="912.373,-30.0802 910.462,-19.6591 905.457,-28.997 912.373,-30.0802"/>
</g>
<!-- Node43&#45;&gt;Node21 -->
<g id="edge108" class="edge"><title>Node43&#45;&gt;Node21</title>
<path fill="none" stroke="midnightblue" d="M1337.06,-498.683C1436.22,-484.324 1656.51,-453.611 1843,-436 1969.8,-424.026 2292.94,-436.374 2415,-400 2600.26,-344.792 2632.96,-261.083 2717,-87 2725.88,-68.6101 2731.21,-45.7452 2734.11,-29.9241"/>
<polygon fill="midnightblue" stroke="midnightblue" points="2737.6,-30.2548 2735.81,-19.8134 2730.7,-29.0964 2737.6,-30.2548"/>
</g>
<!-- Node43&#45;&gt;Node24 -->
<g id="edge98" class="edge"><title>Node43&#45;&gt;Node24</title>
<path fill="none" stroke="midnightblue" d="M1337.04,-501.401C1451.42,-490.407 1720.69,-464.524 1841.94,-452.869"/>
<polygon fill="midnightblue" stroke="midnightblue" points="1842.54,-456.328 1852.15,-451.887 1841.87,-449.36 1842.54,-456.328"/>
</g>
<!-- Node43&#45;&gt;Node25 -->
<g id="edge99" class="edge"><title>Node43&#45;&gt;Node25</title>
<path fill="none" stroke="midnightblue" d="M1337.08,-499.724C1395.27,-491.711 1491.12,-476.787 1572,-456 1704.64,-421.91 1856.33,-364.944 1929.67,-336.215"/>
<polygon fill="midnightblue" stroke="midnightblue" points="1931.04,-339.437 1939.07,-332.521 1928.48,-332.922 1931.04,-339.437"/>
</g>
<!-- Node43&#45;&gt;Node26 -->
<g id="edge100" class="edge"><title>Node43&#45;&gt;Node26</title>
<path fill="none" stroke="midnightblue" d="M1296.92,-492.451C1320.94,-466.658 1374.65,-410.586 1425,-369 1471.83,-330.321 1531.58,-291.163 1563.49,-270.975"/>
<polygon fill="midnightblue" stroke="midnightblue" points="1565.49,-273.855 1572.09,-265.57 1561.76,-267.928 1565.49,-273.855"/>
</g>
<!-- Node43&#45;&gt;Node28 -->
<g id="edge107" class="edge"><title>Node43&#45;&gt;Node28</title>
<path fill="none" stroke="midnightblue" d="M1288.5,-492.175C1304.24,-442.076 1356.82,-274.755 1374.3,-219.144"/>
<polygon fill="midnightblue" stroke="midnightblue" points="1377.65,-220.169 1377.3,-209.58 1370.97,-218.07 1377.65,-220.169"/>
</g>
<!-- Node43&#45;&gt;Node35 -->
<g id="edge101" class="edge"><title>Node43&#45;&gt;Node35</title>
<path fill="none" stroke="midnightblue" d="M1330.67,-492.475C1365.13,-482.12 1411.46,-468.199 1443.74,-458.498"/>
<polygon fill="midnightblue" stroke="midnightblue" points="1445.12,-461.736 1453.69,-455.506 1443.11,-455.032 1445.12,-461.736"/>
</g>
<!-- Node45&#45;&gt;Node5 -->
<g id="edge139" class="edge"><title>Node45&#45;&gt;Node5</title>
<path fill="none" stroke="midnightblue" d="M2638.62,-564.77C2678.4,-511.311 2878.93,-227.037 2726,-123 2644.08,-67.2701 2598.45,-122.627 2506,-87 2482.3,-77.8682 2481.96,-64.4247 2458,-56 2382.88,-29.5824 2139.16,-16.2823 2052.74,-12.3089"/>
<polygon fill="midnightblue" stroke="midnightblue" points="2052.68,-8.80303 2042.54,-11.8499 2052.37,-15.796 2052.68,-8.80303"/>
</g>
<!-- Node45&#45;&gt;Node7 -->
<g id="edge135" class="edge"><title>Node45&#45;&gt;Node7</title>
<path fill="none" stroke="midnightblue" d="M2619.96,-564.77C2598.1,-549.119 2550.14,-515.71 2507,-492 2485.39,-480.12 2322.72,-417.154 2305,-400 2230.17,-327.558 2287.84,-247.502 2201,-190 2131.36,-143.887 1527.23,-139.806 1376.81,-139.508"/>
<polygon fill="midnightblue" stroke="midnightblue" points="1376.39,-136.007 1366.38,-139.492 1376.38,-143.007 1376.39,-136.007"/>
</g>
<!-- Node45&#45;&gt;Node12 -->
<g id="edge124" class="edge"><title>Node45&#45;&gt;Node12</title>
<path fill="none" stroke="midnightblue" d="M2637.21,-564.753C2649.55,-542.9 2678.55,-484.212 2665,-436 2631.07,-315.297 2521.32,-205.153 2472.18,-160.511"/>
<polygon fill="midnightblue" stroke="midnightblue" points="2474.34,-157.747 2464.56,-153.673 2469.66,-162.957 2474.34,-157.747"/>
</g>
<!-- Node45&#45;&gt;Node13 -->
<g id="edge133" class="edge"><title>Node45&#45;&gt;Node13</title>
<path fill="none" stroke="midnightblue" d="M2694.26,-570.98C2729.02,-565.99 2769.7,-553.424 2792,-523 2800.15,-511.888 2796.92,-504.87 2792,-492 2714.51,-289.189 2441.61,-184.132 2339.21,-151.149"/>
<polygon fill="midnightblue" stroke="midnightblue" points="2340.15,-147.776 2329.56,-148.093 2338.03,-154.449 2340.15,-147.776"/>
</g>
<!-- Node45&#45;&gt;Node18 -->
<g id="edge136" class="edge"><title>Node45&#45;&gt;Node18</title>
<path fill="none" stroke="midnightblue" d="M2676.75,-564.961C2762.59,-547.294 2942,-503.602 2942,-447 2942,-447 2942,-447 2942,-137.5 2942,-99.7399 2942.23,-84.9591 2918,-56 2902.92,-37.974 2878.83,-26.4657 2859.37,-19.6034"/>
<polygon fill="midnightblue" stroke="midnightblue" points="2860.27,-16.2183 2849.68,-16.4284 2858.09,-22.8699 2860.27,-16.2183"/>
</g>
<!-- Node45&#45;&gt;Node23 -->
<g id="edge123" class="edge"><title>Node45&#45;&gt;Node23</title>
<path fill="none" stroke="midnightblue" d="M2569.94,-566.697C2459.84,-554.629 2230.85,-529.529 2112.84,-516.594"/>
<polygon fill="midnightblue" stroke="midnightblue" points="2113.13,-513.105 2102.81,-515.495 2112.37,-520.063 2113.13,-513.105"/>
</g>
<!-- Node45&#45;&gt;Node27 -->
<g id="edge137" class="edge"><title>Node45&#45;&gt;Node27</title>
<path fill="none" stroke="midnightblue" d="M2613.63,-564.939C2544.76,-532.802 2304.19,-420.169 2272,-400 2177.81,-340.982 2077.69,-252.808 2038.32,-216.987"/>
<polygon fill="midnightblue" stroke="midnightblue" points="2040.2,-213.962 2030.46,-209.793 2035.47,-219.126 2040.2,-213.962"/>
</g>
<!-- Node45&#45;&gt;Node37 -->
<g id="edge138" class="edge"><title>Node45&#45;&gt;Node37</title>
<path fill="none" stroke="midnightblue" d="M2601.75,-564.929C2570.37,-555.727 2520.1,-540.105 2478,-523 2324.23,-460.52 2148.05,-366.611 2084.47,-331.962"/>
<polygon fill="midnightblue" stroke="midnightblue" points="2086.04,-328.832 2075.59,-327.107 2082.68,-334.974 2086.04,-328.832"/>
</g>
<!-- Node46 -->
<g id="node46" class="node"><title>Node46</title>
<g id="a_node46"><a xlink:href="file__helper_8h.html" target="_top" xlink:title="spdlog/details/file\l_helper.h">
<polygon fill="none" stroke="black" points="2314,-369.5 2314,-399.5 2406,-399.5 2406,-369.5 2314,-369.5"/>
<text text-anchor="start" x="2322" y="-387.5" font-family="Helvetica,sans-Serif" font-size="10.00">spdlog/details/file</text>
<text text-anchor="middle" x="2360" y="-376.5" font-family="Helvetica,sans-Serif" font-size="10.00">_helper.h</text>
</a>
</g>
</g>
<!-- Node45&#45;&gt;Node46 -->
<g id="edge125" class="edge"><title>Node45&#45;&gt;Node46</title>
<path fill="none" stroke="midnightblue" d="M2631.45,-564.844C2629.42,-540.523 2620.19,-471.069 2580,-436 2555.91,-414.976 2473.12,-400.234 2416.27,-392.309"/>
<polygon fill="midnightblue" stroke="midnightblue" points="2416.71,-388.836 2406.33,-390.955 2415.76,-395.772 2416.71,-388.836"/>
</g>
<!-- Node47 -->
<g id="node47" class="node"><title>Node47</title>
<polygon fill="none" stroke="#bfbfbf" points="2480,-308 2480,-327 2524,-327 2524,-308 2480,-308"/>
<text text-anchor="middle" x="2502" y="-315" font-family="Helvetica,sans-Serif" font-size="10.00">cerrno</text>
</g>
<!-- Node45&#45;&gt;Node47 -->
<g id="edge140" class="edge"><title>Node45&#45;&gt;Node47</title>
<path fill="none" stroke="midnightblue" d="M2685.15,-564.917C2734.49,-554.298 2797.22,-532.448 2775,-492 2722.86,-397.082 2594.36,-346.713 2534.13,-327.638"/>
<polygon fill="midnightblue" stroke="midnightblue" points="2534.98,-324.237 2524.39,-324.639 2532.92,-330.927 2534.98,-324.237"/>
</g>
<!-- Node48 -->
<g id="node48" class="node"><title>Node48</title>
<polygon fill="none" stroke="#bfbfbf" points="2710,-498 2710,-517 2766,-517 2766,-498 2710,-498"/>
<text text-anchor="middle" x="2738" y="-505" font-family="Helvetica,sans-Serif" font-size="10.00">algorithm</text>
</g>
<!-- Node45&#45;&gt;Node48 -->
<g id="edge134" class="edge"><title>Node45&#45;&gt;Node48</title>
<path fill="none" stroke="midnightblue" d="M2646.3,-564.734C2664.02,-553.867 2694.43,-535.216 2715.34,-522.393"/>
<polygon fill="midnightblue" stroke="midnightblue" points="2717.24,-525.339 2723.93,-517.127 2713.58,-519.371 2717.24,-525.339"/>
</g>
<!-- Node46&#45;&gt;Node5 -->
<g id="edge130" class="edge"><title>Node46&#45;&gt;Node5</title>
<path fill="none" stroke="midnightblue" d="M2364.76,-369.241C2378,-326.737 2410.57,-199.146 2353,-123 2334.14,-98.0495 2130.84,-40.6088 2052.52,-19.2215"/>
<polygon fill="midnightblue" stroke="midnightblue" points="2053.32,-15.8128 2042.75,-16.565 2051.48,-22.5673 2053.32,-15.8128"/>
</g>
<!-- Node46&#45;&gt;Node7 -->
<g id="edge128" class="edge"><title>Node46&#45;&gt;Node7</title>
<path fill="none" stroke="midnightblue" d="M2358.46,-369.414C2353.6,-332.524 2334.93,-232.976 2272,-190 2196.85,-138.685 1534.19,-138.581 1376.55,-139.291"/>
<polygon fill="midnightblue" stroke="midnightblue" points="1376.07,-135.794 1366.08,-139.343 1376.1,-142.794 1376.07,-135.794"/>
</g>
<!-- Node46&#45;&gt;Node18 -->
<g id="edge129" class="edge"><title>Node46&#45;&gt;Node18</title>
<path fill="none" stroke="midnightblue" d="M2378.73,-369.481C2400.69,-353.101 2438.27,-325.275 2471,-302 2603.22,-207.984 2652.02,-202.457 2766,-87 2784.6,-68.1583 2803.48,-44.1686 2815.43,-28.2348"/>
<polygon fill="midnightblue" stroke="midnightblue" points="2818.48,-30.0028 2821.62,-19.8839 2812.85,-25.8364 2818.48,-30.0028"/>
</g>
<!-- Node46&#45;&gt;Node25 -->
<g id="edge127" class="edge"><title>Node46&#45;&gt;Node25</title>
<path fill="none" stroke="midnightblue" d="M2313.94,-378.046C2251.69,-370.329 2137.09,-354.904 2030.12,-333.102"/>
<polygon fill="midnightblue" stroke="midnightblue" points="2030.63,-329.633 2020.13,-331.042 2029.22,-336.489 2030.63,-329.633"/>
</g>
<!-- Node46&#45;&gt;Node26 -->
<g id="edge126" class="edge"><title>Node46&#45;&gt;Node26</title>
<path fill="none" stroke="midnightblue" d="M2350.56,-369.499C2336.76,-350.343 2309.06,-316.672 2276,-302 2219.19,-276.784 1802.66,-262.915 1645.65,-258.538"/>
<polygon fill="midnightblue" stroke="midnightblue" points="1645.34,-255.028 1635.25,-258.251 1645.15,-262.025 1645.34,-255.028"/>
</g>
<!-- Node46&#45;&gt;Node28 -->
<g id="edge131" class="edge"><title>Node46&#45;&gt;Node28</title>
<path fill="none" stroke="midnightblue" d="M2323.24,-369.4C2272.05,-350.453 2175.99,-317.38 2091,-302 1844.27,-257.353 1771.62,-325.318 1528,-266 1481.94,-254.786 1432.24,-230.074 1403.74,-214.557"/>
<polygon fill="midnightblue" stroke="midnightblue" points="1405.37,-211.459 1394.93,-209.68 1401.98,-217.584 1405.37,-211.459"/>
</g>
<!-- Node46&#45;&gt;Node47 -->
<g id="edge132" class="edge"><title>Node46&#45;&gt;Node47</title>
<path fill="none" stroke="midnightblue" d="M2390.81,-369.396C2415.62,-358.041 2450.18,-342.22 2474.16,-331.244"/>
<polygon fill="midnightblue" stroke="midnightblue" points="2475.78,-334.352 2483.42,-327.007 2472.87,-327.987 2475.78,-334.352"/>
</g>
<!-- Node49&#45;&gt;Node4 -->
<g id="edge144" class="edge"><title>Node49&#45;&gt;Node4</title>
<path fill="none" stroke="midnightblue" d="M2285.05,-559.127C2279.66,-549.136 2272.53,-535.432 2267,-523 2216.6,-409.774 2167.82,-268.756 2151.09,-219.219"/>
<polygon fill="midnightblue" stroke="midnightblue" points="2154.36,-217.965 2147.86,-209.601 2147.72,-220.195 2154.36,-217.965"/>
</g>
<!-- Node49&#45;&gt;Node5 -->
<g id="edge145" class="edge"><title>Node49&#45;&gt;Node5</title>
<path fill="none" stroke="midnightblue" d="M2310.07,-559.451C2360.9,-517.196 2509.16,-390.643 2533,-333 2557.28,-274.306 2605.13,-240.61 2504,-123 2469.91,-83.3553 2438.67,-110.578 2392,-87 2370.97,-76.376 2370.87,-64.754 2349,-56 2246.32,-14.9071 2112.62,-10.1971 2053.02,-10.368"/>
<polygon fill="midnightblue" stroke="midnightblue" points="2052.75,-6.86996 2042.78,-10.4491 2052.8,-13.8697 2052.75,-6.86996"/>
</g>
<!-- Node49&#45;&gt;Node23 -->
<g id="edge143" class="edge"><title>Node49&#45;&gt;Node23</title>
<path fill="none" stroke="midnightblue" d="M2238.2,-559.476C2191.48,-547.521 2125.25,-530.573 2082.21,-519.558"/>
<polygon fill="midnightblue" stroke="midnightblue" points="2082.88,-516.117 2072.33,-517.029 2081.15,-522.899 2082.88,-516.117"/>
</g>
<!-- Node50 -->
<g id="node50" class="node"><title>Node50</title>
<polygon fill="none" stroke="#bfbfbf" points="2276.5,-498 2276.5,-517 2311.5,-517 2311.5,-498 2276.5,-498"/>
<text text-anchor="middle" x="2294" y="-505" font-family="Helvetica,sans-Serif" font-size="10.00">map</text>
</g>
<!-- Node49&#45;&gt;Node50 -->
<g id="edge146" class="edge"><title>Node49&#45;&gt;Node50</title>
<path fill="none" stroke="midnightblue" d="M2293.22,-559.396C2293.36,-550.064 2293.55,-537.714 2293.71,-527.517"/>
<polygon fill="midnightblue" stroke="midnightblue" points="2297.21,-527.247 2293.87,-517.195 2290.21,-527.139 2297.21,-527.247"/>
</g>
</g>
</svg>
