<?xml version="1.0" encoding="UTF-8" standalone="no"?>
<!DOCTYPE svg PUBLIC "-//W3C//DTD SVG 1.1//EN"
 "http://www.w3.org/Graphics/SVG/1.1/DTD/svg11.dtd">
<!-- Generated by graphviz version 2.36.0 (20140111.2315)
 -->
<!-- Title: /home/lucamuratore/advr&#45;superbuild/external/XBotInterface/include/spdlog/sinks/stdout_sinks.h Pages: 1 -->
<svg width="1525pt" height="614pt"
 viewBox="0.00 0.00 1525.00 614.00" xmlns="http://www.w3.org/2000/svg" xmlns:xlink="http://www.w3.org/1999/xlink">
<g id="graph0" class="graph" transform="scale(1 1) rotate(0) translate(4 610)">
<title>/home/lucamuratore/advr&#45;superbuild/external/XBotInterface/include/spdlog/sinks/stdout_sinks.h</title>
<!-- Node1 -->
<g id="node1" class="node"><title>Node1</title>
<polygon fill="#bfbfbf" stroke="black" points="285.5,-553 285.5,-605 430.5,-605 430.5,-553 285.5,-553"/>
<text text-anchor="start" x="293.5" y="-593" font-family="Helvetica,sans-Serif" font-size="10.00">/home/lucamuratore</text>
<text text-anchor="start" x="293.5" y="-582" font-family="Helvetica,sans-Serif" font-size="10.00">/advr&#45;superbuild/external</text>
<text text-anchor="start" x="293.5" y="-571" font-family="Helvetica,sans-Serif" font-size="10.00">/XBotInterface/include/spdlog</text>
<text text-anchor="middle" x="358" y="-560" font-family="Helvetica,sans-Serif" font-size="10.00">/sinks/stdout_sinks.h</text>
</g>
<!-- Node2 -->
<g id="node2" class="node"><title>Node2</title>
<g id="a_node2"><a xlink:href="null__mutex_8h.html" target="_top" xlink:title="spdlog/details/null\l_mutex.h">
<polygon fill="none" stroke="black" points="66.5,-125 66.5,-155 161.5,-155 161.5,-125 66.5,-125"/>
<text text-anchor="start" x="74.5" y="-143" font-family="Helvetica,sans-Serif" font-size="10.00">spdlog/details/null</text>
<text text-anchor="middle" x="114" y="-132" font-family="Helvetica,sans-Serif" font-size="10.00">_mutex.h</text>
</a>
</g>
</g>
<!-- Node1&#45;&gt;Node2 -->
<g id="edge1" class="edge"><title>Node1&#45;&gt;Node2</title>
<path fill="none" stroke="midnightblue" d="M285.409,-566.564C221.993,-551.954 140,-519.768 140,-451 140,-451 140,-451 140,-257 140,-224.427 130.118,-187.927 122.538,-164.722"/>
<polygon fill="midnightblue" stroke="midnightblue" points="125.787,-163.405 119.261,-155.059 119.158,-165.653 125.787,-163.405"/>
</g>
<!-- Node4 -->
<g id="node4" class="node"><title>Node4</title>
<g id="a_node4"><a xlink:href="base__sink_8h.html" target="_top" xlink:title="spdlog/sinks/base_sink.h">
<polygon fill="none" stroke="black" points="294.5,-496.5 294.5,-515.5 421.5,-515.5 421.5,-496.5 294.5,-496.5"/>
<text text-anchor="middle" x="358" y="-503.5" font-family="Helvetica,sans-Serif" font-size="10.00">spdlog/sinks/base_sink.h</text>
</a>
</g>
</g>
<!-- Node1&#45;&gt;Node4 -->
<g id="edge3" class="edge"><title>Node1&#45;&gt;Node4</title>
<path fill="none" stroke="midnightblue" d="M358,-552.768C358,-543.89 358,-534.074 358,-525.816"/>
<polygon fill="midnightblue" stroke="midnightblue" points="361.5,-525.757 358,-515.757 354.5,-525.757 361.5,-525.757"/>
</g>
<!-- Node11 -->
<g id="node11" class="node"><title>Node11</title>
<polygon fill="none" stroke="#bfbfbf" points="1415,-0.5 1415,-19.5 1467,-19.5 1467,-0.5 1415,-0.5"/>
<text text-anchor="middle" x="1441" y="-7.5" font-family="Helvetica,sans-Serif" font-size="10.00">memory</text>
</g>
<!-- Node1&#45;&gt;Node11 -->
<g id="edge67" class="edge"><title>Node1&#45;&gt;Node11</title>
<path fill="none" stroke="midnightblue" d="M430.501,-577.701C684.234,-575.711 1517,-560.813 1517,-451 1517,-451 1517,-451 1517,-139 1517,-92.9944 1480.25,-49.0786 1457.86,-26.591"/>
<polygon fill="midnightblue" stroke="midnightblue" points="1460.24,-24.0187 1450.63,-19.5623 1455.36,-29.0401 1460.24,-24.0187"/>
</g>
<!-- Node19 -->
<g id="node19" class="node"><title>Node19</title>
<polygon fill="none" stroke="#bfbfbf" points="1193.5,-0.5 1193.5,-19.5 1236.5,-19.5 1236.5,-0.5 1193.5,-0.5"/>
<text text-anchor="middle" x="1215" y="-7.5" font-family="Helvetica,sans-Serif" font-size="10.00">cstdio</text>
</g>
<!-- Node1&#45;&gt;Node19 -->
<g id="edge66" class="edge"><title>Node1&#45;&gt;Node19</title>
<path fill="none" stroke="midnightblue" d="M430.653,-576.813C667.635,-571.99 1403,-549.118 1403,-451 1403,-451 1403,-451 1403,-139 1403,-64.2239 1300.12,-30.0337 1246.57,-17.3022"/>
<polygon fill="midnightblue" stroke="midnightblue" points="1247.09,-13.8313 1236.57,-15.0364 1245.55,-20.6584 1247.09,-13.8313"/>
</g>
<!-- Node37 -->
<g id="node37" class="node"><title>Node37</title>
<polygon fill="none" stroke="#bfbfbf" points="253,-310.5 253,-329.5 297,-329.5 297,-310.5 253,-310.5"/>
<text text-anchor="middle" x="275" y="-317.5" font-family="Helvetica,sans-Serif" font-size="10.00">mutex</text>
</g>
<!-- Node1&#45;&gt;Node37 -->
<g id="edge68" class="edge"><title>Node1&#45;&gt;Node37</title>
<path fill="none" stroke="midnightblue" d="M317.153,-552.995C304.609,-543.119 292.219,-530.609 285,-516 256,-457.316 265.06,-376.213 271.262,-339.902"/>
<polygon fill="midnightblue" stroke="midnightblue" points="274.759,-340.24 273.124,-329.772 267.874,-338.975 274.759,-340.24"/>
</g>
<!-- Node3 -->
<g id="node3" class="node"><title>Node3</title>
<polygon fill="none" stroke="#bfbfbf" points="174,-62.5 174,-81.5 220,-81.5 220,-62.5 174,-62.5"/>
<text text-anchor="middle" x="197" y="-69.5" font-family="Helvetica,sans-Serif" font-size="10.00">atomic</text>
</g>
<!-- Node2&#45;&gt;Node3 -->
<g id="edge2" class="edge"><title>Node2&#45;&gt;Node3</title>
<path fill="none" stroke="midnightblue" d="M132.01,-124.679C145.592,-113.879 164.179,-99.0983 177.998,-88.1103"/>
<polygon fill="midnightblue" stroke="midnightblue" points="180.249,-90.7917 185.898,-81.8283 175.892,-85.3128 180.249,-90.7917"/>
</g>
<!-- Node5 -->
<g id="node5" class="node"><title>Node5</title>
<g id="a_node5"><a xlink:href="sink_8h.html" target="_top" xlink:title="spdlog/sinks/sink.h">
<polygon fill="none" stroke="black" points="307.5,-378.5 307.5,-397.5 408.5,-397.5 408.5,-378.5 307.5,-378.5"/>
<text text-anchor="middle" x="358" y="-385.5" font-family="Helvetica,sans-Serif" font-size="10.00">spdlog/sinks/sink.h</text>
</a>
</g>
</g>
<!-- Node4&#45;&gt;Node5 -->
<g id="edge4" class="edge"><title>Node4&#45;&gt;Node5</title>
<path fill="none" stroke="midnightblue" d="M358,-496.281C358,-477.547 358,-433.098 358,-407.682"/>
<polygon fill="midnightblue" stroke="midnightblue" points="361.5,-407.505 358,-397.505 354.5,-407.505 361.5,-407.505"/>
</g>
<!-- Node6 -->
<g id="node6" class="node"><title>Node6</title>
<g id="a_node6"><a xlink:href="log__msg_8h.html" target="_top" xlink:title="spdlog/details/log\l_msg.h">
<polygon fill="none" stroke="black" points="315,-305 315,-335 407,-335 407,-305 315,-305"/>
<text text-anchor="start" x="323" y="-323" font-family="Helvetica,sans-Serif" font-size="10.00">spdlog/details/log</text>
<text text-anchor="middle" x="361" y="-312" font-family="Helvetica,sans-Serif" font-size="10.00">_msg.h</text>
</a>
</g>
</g>
<!-- Node4&#45;&gt;Node6 -->
<g id="edge64" class="edge"><title>Node4&#45;&gt;Node6</title>
<path fill="none" stroke="midnightblue" d="M365.309,-496.275C378.719,-479.63 406.813,-441.636 417,-404 420.716,-390.272 422.748,-385.009 417,-372 411.727,-360.066 402.129,-349.722 392.352,-341.527"/>
<polygon fill="midnightblue" stroke="midnightblue" points="394.225,-338.55 384.187,-335.162 389.921,-344.071 394.225,-338.55"/>
</g>
<!-- Node7 -->
<g id="node7" class="node"><title>Node7</title>
<g id="a_node7"><a xlink:href="common_8h.html" target="_top" xlink:title="spdlog/common.h">
<polygon fill="none" stroke="black" points="313,-192.5 313,-211.5 407,-211.5 407,-192.5 313,-192.5"/>
<text text-anchor="middle" x="360" y="-199.5" font-family="Helvetica,sans-Serif" font-size="10.00">spdlog/common.h</text>
</a>
</g>
</g>
<!-- Node4&#45;&gt;Node7 -->
<g id="edge63" class="edge"><title>Node4&#45;&gt;Node7</title>
<path fill="none" stroke="midnightblue" d="M325.128,-496.396C279.63,-482.271 203,-449.5 203,-389 203,-389 203,-389 203,-319 203,-262.208 270.277,-230.061 316.75,-214.63"/>
<polygon fill="midnightblue" stroke="midnightblue" points="317.85,-217.953 326.32,-211.588 315.729,-211.282 317.85,-217.953"/>
</g>
<!-- Node35 -->
<g id="node35" class="node"><title>Node35</title>
<g id="a_node35"><a xlink:href="formatter_8h.html" target="_top" xlink:title="spdlog/formatter.h">
<polygon fill="none" stroke="black" points="899.5,-440.5 899.5,-459.5 994.5,-459.5 994.5,-440.5 899.5,-440.5"/>
<text text-anchor="middle" x="947" y="-447.5" font-family="Helvetica,sans-Serif" font-size="10.00">spdlog/formatter.h</text>
</a>
</g>
</g>
<!-- Node4&#45;&gt;Node35 -->
<g id="edge45" class="edge"><title>Node4&#45;&gt;Node35</title>
<path fill="none" stroke="midnightblue" d="M421.593,-499.17C536.833,-488.604 778.487,-466.449 889.275,-456.292"/>
<polygon fill="midnightblue" stroke="midnightblue" points="889.622,-459.775 899.26,-455.377 888.982,-452.805 889.622,-459.775"/>
</g>
<!-- Node4&#45;&gt;Node37 -->
<g id="edge65" class="edge"><title>Node4&#45;&gt;Node37</title>
<path fill="none" stroke="midnightblue" d="M351.693,-496.239C339.704,-479.226 313.444,-440.207 298,-404 288.952,-382.789 282.459,-357.013 278.726,-339.869"/>
<polygon fill="midnightblue" stroke="midnightblue" points="282.133,-339.063 276.672,-329.984 275.279,-340.487 282.133,-339.063"/>
</g>
<!-- Node5&#45;&gt;Node6 -->
<g id="edge5" class="edge"><title>Node5&#45;&gt;Node6</title>
<path fill="none" stroke="midnightblue" d="M358.392,-378.372C358.774,-369.971 359.372,-356.811 359.899,-345.213"/>
<polygon fill="midnightblue" stroke="midnightblue" points="363.398,-345.33 360.355,-335.181 356.405,-345.012 363.398,-345.33"/>
</g>
<!-- Node6&#45;&gt;Node7 -->
<g id="edge6" class="edge"><title>Node6&#45;&gt;Node7</title>
<path fill="none" stroke="midnightblue" d="M360.877,-304.776C360.698,-283.971 360.364,-245.198 360.164,-221.981"/>
<polygon fill="midnightblue" stroke="midnightblue" points="363.661,-221.676 360.075,-211.707 356.661,-221.737 363.661,-221.676"/>
</g>
<!-- Node8 -->
<g id="node8" class="node"><title>Node8</title>
<polygon fill="none" stroke="#bfbfbf" points="510.5,-0.5 510.5,-19.5 551.5,-19.5 551.5,-0.5 510.5,-0.5"/>
<text text-anchor="middle" x="531" y="-7.5" font-family="Helvetica,sans-Serif" font-size="10.00">string</text>
</g>
<!-- Node6&#45;&gt;Node8 -->
<g id="edge43" class="edge"><title>Node6&#45;&gt;Node8</title>
<path fill="none" stroke="midnightblue" d="M377.792,-304.757C399.625,-284.548 435,-245.281 435,-203 435,-203 435,-203 435,-139 435,-100.6 435.858,-86.643 459,-56 469.785,-41.7191 486.534,-30.8627 501.165,-23.3945"/>
<polygon fill="midnightblue" stroke="midnightblue" points="502.883,-26.452 510.389,-18.9741 499.858,-20.1393 502.883,-26.452"/>
</g>
<!-- Node24 -->
<g id="node24" class="node"><title>Node24</title>
<polygon fill="none" stroke="#bfbfbf" points="18,-0.5 18,-19.5 58,-19.5 58,-0.5 18,-0.5"/>
<text text-anchor="middle" x="38" y="-7.5" font-family="Helvetica,sans-Serif" font-size="10.00">utility</text>
</g>
<!-- Node6&#45;&gt;Node24 -->
<g id="edge44" class="edge"><title>Node6&#45;&gt;Node24</title>
<path fill="none" stroke="midnightblue" d="M314.912,-306.644C217.591,-280.233 0,-219.355 0,-203 0,-203 0,-203 0,-139 0,-98.2307 17.9354,-53.0653 29.1626,-28.7866"/>
<polygon fill="midnightblue" stroke="midnightblue" points="32.335,-30.2655 33.4917,-19.734 26.0199,-27.2455 32.335,-30.2655"/>
</g>
<!-- Node26 -->
<g id="node26" class="node"><title>Node26</title>
<g id="a_node26"><a xlink:href="os_8h.html" target="_top" xlink:title="spdlog/details/os.h">
<polygon fill="none" stroke="black" points="807,-248.5 807,-267.5 905,-267.5 905,-248.5 807,-248.5"/>
<text text-anchor="middle" x="856" y="-255.5" font-family="Helvetica,sans-Serif" font-size="10.00">spdlog/details/os.h</text>
</a>
</g>
</g>
<!-- Node6&#45;&gt;Node26 -->
<g id="edge29" class="edge"><title>Node6&#45;&gt;Node26</title>
<path fill="none" stroke="midnightblue" d="M407.124,-313.409C497.296,-302.479 696.833,-278.293 796.678,-266.191"/>
<polygon fill="midnightblue" stroke="midnightblue" points="797.388,-269.63 806.894,-264.952 796.546,-262.681 797.388,-269.63"/>
</g>
<!-- Node7&#45;&gt;Node2 -->
<g id="edge14" class="edge"><title>Node7&#45;&gt;Node2</title>
<path fill="none" stroke="midnightblue" d="M322.429,-192.442C286.142,-184.101 229.389,-170.858 171.66,-156.384"/>
<polygon fill="midnightblue" stroke="midnightblue" points="172.186,-152.908 161.634,-153.86 170.477,-159.696 172.186,-152.908"/>
</g>
<!-- Node7&#45;&gt;Node3 -->
<g id="edge11" class="edge"><title>Node7&#45;&gt;Node3</title>
<path fill="none" stroke="midnightblue" d="M347.93,-192.187C335.73,-183.224 316.39,-168.861 300,-156 282.361,-142.159 278.435,-138.098 261,-124 245.92,-111.806 228.726,-98.1162 215.959,-87.9925"/>
<polygon fill="midnightblue" stroke="midnightblue" points="217.921,-85.0813 207.909,-81.6158 213.575,-90.5685 217.921,-85.0813"/>
</g>
<!-- Node7&#45;&gt;Node8 -->
<g id="edge7" class="edge"><title>Node7&#45;&gt;Node8</title>
<path fill="none" stroke="midnightblue" d="M363.449,-192.293C375.566,-161.774 415.736,-61.2123 421,-56 442.682,-34.532 476.018,-22.8505 500.31,-16.8125"/>
<polygon fill="midnightblue" stroke="midnightblue" points="501.147,-20.2116 510.107,-14.5583 499.577,-13.3899 501.147,-20.2116"/>
</g>
<!-- Node9 -->
<g id="node9" class="node"><title>Node9</title>
<polygon fill="none" stroke="#bfbfbf" points="179.5,-130.5 179.5,-149.5 252.5,-149.5 252.5,-130.5 179.5,-130.5"/>
<text text-anchor="middle" x="216" y="-137.5" font-family="Helvetica,sans-Serif" font-size="10.00">initializer_list</text>
</g>
<!-- Node7&#45;&gt;Node9 -->
<g id="edge8" class="edge"><title>Node7&#45;&gt;Node9</title>
<path fill="none" stroke="midnightblue" d="M339.368,-192.403C314.881,-182.2 273.853,-165.105 245.891,-153.454"/>
<polygon fill="midnightblue" stroke="midnightblue" points="247.17,-150.196 236.593,-149.581 244.478,-156.658 247.17,-150.196"/>
</g>
<!-- Node10 -->
<g id="node10" class="node"><title>Node10</title>
<polygon fill="none" stroke="#bfbfbf" points="908,-130.5 908,-149.5 954,-149.5 954,-130.5 908,-130.5"/>
<text text-anchor="middle" x="931" y="-137.5" font-family="Helvetica,sans-Serif" font-size="10.00">chrono</text>
</g>
<!-- Node7&#45;&gt;Node10 -->
<g id="edge9" class="edge"><title>Node7&#45;&gt;Node10</title>
<path fill="none" stroke="midnightblue" d="M407.213,-196.039C519.63,-184.226 800.979,-154.662 897.716,-144.497"/>
<polygon fill="midnightblue" stroke="midnightblue" points="898.219,-147.964 907.799,-143.438 897.488,-141.002 898.219,-147.964"/>
</g>
<!-- Node7&#45;&gt;Node11 -->
<g id="edge10" class="edge"><title>Node7&#45;&gt;Node11</title>
<path fill="none" stroke="midnightblue" d="M407.138,-194.3C521.331,-177.898 821.747,-133.716 1071,-88 1193.82,-65.4726 1338.52,-33.8832 1404.68,-19.1565"/>
<polygon fill="midnightblue" stroke="midnightblue" points="1405.62,-22.5348 1414.61,-16.9417 1404.09,-15.7027 1405.62,-22.5348"/>
</g>
<!-- Node12 -->
<g id="node12" class="node"><title>Node12</title>
<polygon fill="none" stroke="#bfbfbf" points="309.5,-130.5 309.5,-149.5 368.5,-149.5 368.5,-130.5 309.5,-130.5"/>
<text text-anchor="middle" x="339" y="-137.5" font-family="Helvetica,sans-Serif" font-size="10.00">exception</text>
</g>
<!-- Node7&#45;&gt;Node12 -->
<g id="edge12" class="edge"><title>Node7&#45;&gt;Node12</title>
<path fill="none" stroke="midnightblue" d="M356.991,-192.403C353.966,-183.76 349.21,-170.17 345.347,-159.134"/>
<polygon fill="midnightblue" stroke="midnightblue" points="348.61,-157.863 342.003,-149.581 342.003,-160.175 348.61,-157.863"/>
</g>
<!-- Node13 -->
<g id="node13" class="node"><title>Node13</title>
<polygon fill="none" stroke="#bfbfbf" points="501.5,-130.5 501.5,-149.5 560.5,-149.5 560.5,-130.5 501.5,-130.5"/>
<text text-anchor="middle" x="531" y="-137.5" font-family="Helvetica,sans-Serif" font-size="10.00">functional</text>
</g>
<!-- Node7&#45;&gt;Node13 -->
<g id="edge13" class="edge"><title>Node7&#45;&gt;Node13</title>
<path fill="none" stroke="midnightblue" d="M384.5,-192.403C413.96,-182.067 463.579,-164.656 496.802,-152.999"/>
<polygon fill="midnightblue" stroke="midnightblue" points="498.268,-156.194 506.545,-149.581 495.95,-149.589 498.268,-156.194"/>
</g>
<!-- Node14 -->
<g id="node14" class="node"><title>Node14</title>
<g id="a_node14"><a xlink:href="fmt_8h.html" target="_top" xlink:title="spdlog/fmt/fmt.h">
<polygon fill="none" stroke="black" points="972,-130.5 972,-149.5 1060,-149.5 1060,-130.5 972,-130.5"/>
<text text-anchor="middle" x="1016" y="-137.5" font-family="Helvetica,sans-Serif" font-size="10.00">spdlog/fmt/fmt.h</text>
</a>
</g>
</g>
<!-- Node7&#45;&gt;Node14 -->
<g id="edge15" class="edge"><title>Node7&#45;&gt;Node14</title>
<path fill="none" stroke="midnightblue" d="M407.39,-198.699C530.162,-192.541 856.397,-174.865 963,-156 968.532,-155.021 974.317,-153.701 979.946,-152.249"/>
<polygon fill="midnightblue" stroke="midnightblue" points="981.108,-155.56 989.824,-149.536 979.254,-148.81 981.108,-155.56"/>
</g>
<!-- Node15 -->
<g id="node15" class="node"><title>Node15</title>
<g id="a_node15"><a xlink:href="format_8h.html" target="_top" xlink:title="spdlog/fmt/bundled\l/format.h">
<polygon fill="none" stroke="black" points="963.5,-57 963.5,-87 1062.5,-87 1062.5,-57 963.5,-57"/>
<text text-anchor="start" x="971.5" y="-75" font-family="Helvetica,sans-Serif" font-size="10.00">spdlog/fmt/bundled</text>
<text text-anchor="middle" x="1013" y="-64" font-family="Helvetica,sans-Serif" font-size="10.00">/format.h</text>
</a>
</g>
</g>
<!-- Node14&#45;&gt;Node15 -->
<g id="edge16" class="edge"><title>Node14&#45;&gt;Node15</title>
<path fill="none" stroke="midnightblue" d="M1015.61,-130.372C1015.23,-121.971 1014.63,-108.811 1014.1,-97.2126"/>
<polygon fill="midnightblue" stroke="midnightblue" points="1017.6,-97.0122 1013.64,-87.1815 1010.6,-97.3301 1017.6,-97.0122"/>
</g>
<!-- Node15&#45;&gt;Node8 -->
<g id="edge25" class="edge"><title>Node15&#45;&gt;Node8</title>
<path fill="none" stroke="midnightblue" d="M963.233,-64.8049C863.79,-52.4261 643.11,-24.9555 561.831,-14.8378"/>
<polygon fill="midnightblue" stroke="midnightblue" points="562.105,-11.3451 551.75,-13.5829 561.241,-18.2915 562.105,-11.3451"/>
</g>
<!-- Node15&#45;&gt;Node11 -->
<g id="edge23" class="edge"><title>Node15&#45;&gt;Node11</title>
<path fill="none" stroke="midnightblue" d="M1062.52,-64.0586C1149.63,-51.8468 1328.3,-26.7987 1404.87,-16.0652"/>
<polygon fill="midnightblue" stroke="midnightblue" points="1405.56,-19.5029 1414.97,-14.6484 1404.59,-12.5707 1405.56,-19.5029"/>
</g>
<!-- Node16 -->
<g id="node16" class="node"><title>Node16</title>
<polygon fill="none" stroke="#bfbfbf" points="934.5,-0.5 934.5,-19.5 983.5,-19.5 983.5,-0.5 934.5,-0.5"/>
<text text-anchor="middle" x="959" y="-7.5" font-family="Helvetica,sans-Serif" font-size="10.00">cassert</text>
</g>
<!-- Node15&#45;&gt;Node16 -->
<g id="edge17" class="edge"><title>Node15&#45;&gt;Node16</title>
<path fill="none" stroke="midnightblue" d="M1000.2,-56.7808C992.275,-47.9722 982.064,-36.6262 973.79,-27.4332"/>
<polygon fill="midnightblue" stroke="midnightblue" points="976.149,-24.8221 966.857,-19.7305 970.946,-29.5049 976.149,-24.8221"/>
</g>
<!-- Node17 -->
<g id="node17" class="node"><title>Node17</title>
<polygon fill="none" stroke="#bfbfbf" points="1001.5,-0.5 1001.5,-19.5 1048.5,-19.5 1048.5,-0.5 1001.5,-0.5"/>
<text text-anchor="middle" x="1025" y="-7.5" font-family="Helvetica,sans-Serif" font-size="10.00">clocale</text>
</g>
<!-- Node15&#45;&gt;Node17 -->
<g id="edge18" class="edge"><title>Node15&#45;&gt;Node17</title>
<path fill="none" stroke="midnightblue" d="M1015.84,-56.7808C1017.46,-48.6913 1019.51,-38.4617 1021.25,-29.725"/>
<polygon fill="midnightblue" stroke="midnightblue" points="1024.72,-30.2228 1023.25,-19.7305 1017.86,-28.8499 1024.72,-30.2228"/>
</g>
<!-- Node18 -->
<g id="node18" class="node"><title>Node18</title>
<polygon fill="none" stroke="#bfbfbf" points="1067,-0.5 1067,-19.5 1111,-19.5 1111,-0.5 1067,-0.5"/>
<text text-anchor="middle" x="1089" y="-7.5" font-family="Helvetica,sans-Serif" font-size="10.00">cmath</text>
</g>
<!-- Node15&#45;&gt;Node18 -->
<g id="edge19" class="edge"><title>Node15&#45;&gt;Node18</title>
<path fill="none" stroke="midnightblue" d="M1031.01,-56.7808C1042.74,-47.5228 1058.02,-35.4618 1069.94,-26.0435"/>
<polygon fill="midnightblue" stroke="midnightblue" points="1072.26,-28.6741 1077.94,-19.7305 1067.92,-23.1799 1072.26,-28.6741"/>
</g>
<!-- Node15&#45;&gt;Node19 -->
<g id="edge20" class="edge"><title>Node15&#45;&gt;Node19</title>
<path fill="none" stroke="midnightblue" d="M1060.36,-56.9327C1098.24,-45.681 1150.3,-30.2171 1183.3,-20.4152"/>
<polygon fill="midnightblue" stroke="midnightblue" points="1184.72,-23.6467 1193.3,-17.4442 1182.72,-16.9365 1184.72,-23.6467"/>
</g>
<!-- Node20 -->
<g id="node20" class="node"><title>Node20</title>
<polygon fill="none" stroke="#bfbfbf" points="1129,-0.5 1129,-19.5 1175,-19.5 1175,-0.5 1129,-0.5"/>
<text text-anchor="middle" x="1152" y="-7.5" font-family="Helvetica,sans-Serif" font-size="10.00">cstring</text>
</g>
<!-- Node15&#45;&gt;Node20 -->
<g id="edge21" class="edge"><title>Node15&#45;&gt;Node20</title>
<path fill="none" stroke="midnightblue" d="M1045.59,-56.9327C1068.94,-46.8552 1100.11,-33.3986 1122.68,-23.6575"/>
<polygon fill="midnightblue" stroke="midnightblue" points="1124.28,-26.7766 1132.08,-19.6 1121.51,-20.3498 1124.28,-26.7766"/>
</g>
<!-- Node21 -->
<g id="node21" class="node"><title>Node21</title>
<polygon fill="none" stroke="#bfbfbf" points="732,-0.5 732,-19.5 772,-19.5 772,-0.5 732,-0.5"/>
<text text-anchor="middle" x="752" y="-7.5" font-family="Helvetica,sans-Serif" font-size="10.00">limits</text>
</g>
<!-- Node15&#45;&gt;Node21 -->
<g id="edge22" class="edge"><title>Node15&#45;&gt;Node21</title>
<path fill="none" stroke="midnightblue" d="M963.378,-61.3572C918.416,-52.3358 850.163,-37.9372 782.235,-20.1608"/>
<polygon fill="midnightblue" stroke="midnightblue" points="782.781,-16.6849 772.218,-17.5138 780.992,-23.4526 782.781,-16.6849"/>
</g>
<!-- Node22 -->
<g id="node22" class="node"><title>Node22</title>
<polygon fill="none" stroke="#bfbfbf" points="790.5,-0.5 790.5,-19.5 849.5,-19.5 849.5,-0.5 790.5,-0.5"/>
<text text-anchor="middle" x="820" y="-7.5" font-family="Helvetica,sans-Serif" font-size="10.00">stdexcept</text>
</g>
<!-- Node15&#45;&gt;Node22 -->
<g id="edge24" class="edge"><title>Node15&#45;&gt;Node22</title>
<path fill="none" stroke="midnightblue" d="M967.75,-56.9327C934.071,-46.4624 888.658,-32.3445 857.107,-22.5358"/>
<polygon fill="midnightblue" stroke="midnightblue" points="857.971,-19.1392 847.382,-19.5127 855.893,-25.8236 857.971,-19.1392"/>
</g>
<!-- Node23 -->
<g id="node23" class="node"><title>Node23</title>
<polygon fill="none" stroke="#bfbfbf" points="1267,-0.5 1267,-19.5 1311,-19.5 1311,-0.5 1267,-0.5"/>
<text text-anchor="middle" x="1289" y="-7.5" font-family="Helvetica,sans-Serif" font-size="10.00">vector</text>
</g>
<!-- Node15&#45;&gt;Node23 -->
<g id="edge26" class="edge"><title>Node15&#45;&gt;Node23</title>
<path fill="none" stroke="midnightblue" d="M1062.66,-60.2039C1119.05,-47.9452 1209.39,-28.3061 1257.1,-17.9351"/>
<polygon fill="midnightblue" stroke="midnightblue" points="1257.85,-21.3529 1266.88,-15.8084 1256.37,-14.5127 1257.85,-21.3529"/>
</g>
<!-- Node15&#45;&gt;Node24 -->
<g id="edge27" class="edge"><title>Node15&#45;&gt;Node24</title>
<path fill="none" stroke="midnightblue" d="M963.309,-67.9421C788.942,-57.2118 207.967,-21.4595 68.3574,-12.8681"/>
<polygon fill="midnightblue" stroke="midnightblue" points="68.199,-9.35187 58.0029,-12.2309 67.769,-16.3387 68.199,-9.35187"/>
</g>
<!-- Node25 -->
<g id="node25" class="node"><title>Node25</title>
<polygon fill="none" stroke="#bfbfbf" points="867.5,-0.5 867.5,-19.5 916.5,-19.5 916.5,-0.5 867.5,-0.5"/>
<text text-anchor="middle" x="892" y="-7.5" font-family="Helvetica,sans-Serif" font-size="10.00">stdint.h</text>
</g>
<!-- Node15&#45;&gt;Node25 -->
<g id="edge28" class="edge"><title>Node15&#45;&gt;Node25</title>
<path fill="none" stroke="midnightblue" d="M984.631,-56.9327C964.581,-46.9907 937.899,-33.7601 918.323,-24.0526"/>
<polygon fill="midnightblue" stroke="midnightblue" points="919.857,-20.9069 909.343,-19.6 916.748,-27.1782 919.857,-20.9069"/>
</g>
<!-- Node26&#45;&gt;Node7 -->
<g id="edge30" class="edge"><title>Node26&#45;&gt;Node7</title>
<path fill="none" stroke="midnightblue" d="M806.628,-251.625C714.213,-241.564 515.6,-219.94 417.392,-209.248"/>
<polygon fill="midnightblue" stroke="midnightblue" points="417.672,-205.758 407.351,-208.155 416.914,-212.717 417.672,-205.758"/>
</g>
<!-- Node26&#45;&gt;Node8 -->
<g id="edge34" class="edge"><title>Node26&#45;&gt;Node8</title>
<path fill="none" stroke="midnightblue" d="M806.749,-256.698C732.707,-255.08 598.151,-247.227 568,-212 546.194,-186.522 601.119,-160.633 603,-156 619.719,-114.82 624.545,-94.873 603,-56 594.005,-39.7712 576.449,-28.6223 560.924,-21.4812"/>
<polygon fill="midnightblue" stroke="midnightblue" points="562.189,-18.216 551.616,-17.5432 559.462,-24.6629 562.189,-18.216"/>
</g>
<!-- Node26&#45;&gt;Node10 -->
<g id="edge35" class="edge"><title>Node26&#45;&gt;Node10</title>
<path fill="none" stroke="midnightblue" d="M905.435,-251.209C952.182,-244.596 1017.43,-232.024 1033,-212 1038.46,-204.983 1037.67,-199.561 1033,-192 1030.84,-188.501 988.486,-168.047 959.043,-154.129"/>
<polygon fill="midnightblue" stroke="midnightblue" points="960.168,-150.79 949.63,-149.694 957.184,-157.123 960.168,-150.79"/>
</g>
<!-- Node26&#45;&gt;Node13 -->
<g id="edge33" class="edge"><title>Node26&#45;&gt;Node13</title>
<path fill="none" stroke="midnightblue" d="M849.195,-248.234C837.638,-234.008 812.717,-206.07 785,-192 715.211,-156.573 622.94,-145.744 570.996,-142.441"/>
<polygon fill="midnightblue" stroke="midnightblue" points="571.039,-138.938 560.855,-141.86 570.639,-145.927 571.039,-138.938"/>
</g>
<!-- Node26&#45;&gt;Node19 -->
<g id="edge31" class="edge"><title>Node26&#45;&gt;Node19</title>
<path fill="none" stroke="midnightblue" d="M905.303,-254.226C946.41,-249.962 1005.13,-239.185 1049,-212 1126.15,-164.191 1184.29,-67.9388 1205.87,-28.4802"/>
<polygon fill="midnightblue" stroke="midnightblue" points="1209.02,-30.004 1210.66,-19.5362 1202.85,-26.699 1209.02,-30.004"/>
</g>
<!-- Node27 -->
<g id="node27" class="node"><title>Node27</title>
<polygon fill="none" stroke="#bfbfbf" points="1119.5,-192.5 1119.5,-211.5 1160.5,-211.5 1160.5,-192.5 1119.5,-192.5"/>
<text text-anchor="middle" x="1140" y="-199.5" font-family="Helvetica,sans-Serif" font-size="10.00">ctime</text>
</g>
<!-- Node26&#45;&gt;Node27 -->
<g id="edge32" class="edge"><title>Node26&#45;&gt;Node27</title>
<path fill="none" stroke="midnightblue" d="M905.345,-249.172C955.735,-240.924 1036.12,-227.059 1105,-212 1106.46,-211.682 1107.94,-211.345 1109.44,-210.996"/>
<polygon fill="midnightblue" stroke="midnightblue" points="1110.45,-214.354 1119.33,-208.581 1108.79,-207.553 1110.45,-214.354"/>
</g>
<!-- Node28 -->
<g id="node28" class="node"><title>Node28</title>
<polygon fill="none" stroke="#bfbfbf" points="1179,-192.5 1179,-211.5 1223,-211.5 1223,-192.5 1179,-192.5"/>
<text text-anchor="middle" x="1201" y="-199.5" font-family="Helvetica,sans-Serif" font-size="10.00">thread</text>
</g>
<!-- Node26&#45;&gt;Node28 -->
<g id="edge36" class="edge"><title>Node26&#45;&gt;Node28</title>
<path fill="none" stroke="midnightblue" d="M905.144,-251.957C965.085,-245.359 1069.61,-232.413 1168.82,-211.76"/>
<polygon fill="midnightblue" stroke="midnightblue" points="1169.65,-215.162 1178.71,-209.672 1168.21,-208.313 1169.65,-215.162"/>
</g>
<!-- Node29 -->
<g id="node29" class="node"><title>Node29</title>
<polygon fill="none" stroke="#bfbfbf" points="833,-192.5 833,-211.5 879,-211.5 879,-192.5 833,-192.5"/>
<text text-anchor="middle" x="856" y="-199.5" font-family="Helvetica,sans-Serif" font-size="10.00">stdio.h</text>
</g>
<!-- Node26&#45;&gt;Node29 -->
<g id="edge37" class="edge"><title>Node26&#45;&gt;Node29</title>
<path fill="none" stroke="midnightblue" d="M856,-248.083C856,-241.006 856,-230.861 856,-221.986"/>
<polygon fill="midnightblue" stroke="midnightblue" points="859.5,-221.751 856,-211.751 852.5,-221.751 859.5,-221.751"/>
</g>
<!-- Node30 -->
<g id="node30" class="node"><title>Node30</title>
<polygon fill="none" stroke="#bfbfbf" points="897.5,-192.5 897.5,-211.5 946.5,-211.5 946.5,-192.5 897.5,-192.5"/>
<text text-anchor="middle" x="922" y="-199.5" font-family="Helvetica,sans-Serif" font-size="10.00">string.h</text>
</g>
<!-- Node26&#45;&gt;Node30 -->
<g id="edge38" class="edge"><title>Node26&#45;&gt;Node30</title>
<path fill="none" stroke="midnightblue" d="M866.604,-248.324C876.456,-240.263 891.351,-228.077 903.215,-218.369"/>
<polygon fill="midnightblue" stroke="midnightblue" points="905.68,-220.875 911.203,-211.834 901.247,-215.457 905.68,-220.875"/>
</g>
<!-- Node31 -->
<g id="node31" class="node"><title>Node31</title>
<polygon fill="none" stroke="#bfbfbf" points="965,-192.5 965,-211.5 1025,-211.5 1025,-192.5 965,-192.5"/>
<text text-anchor="middle" x="995" y="-199.5" font-family="Helvetica,sans-Serif" font-size="10.00">sys/stat.h</text>
</g>
<!-- Node26&#45;&gt;Node31 -->
<g id="edge39" class="edge"><title>Node26&#45;&gt;Node31</title>
<path fill="none" stroke="midnightblue" d="M878.025,-248.444C901.104,-239.478 937.562,-225.314 963.641,-215.183"/>
<polygon fill="midnightblue" stroke="midnightblue" points="965.024,-218.4 973.078,-211.516 962.489,-211.875 965.024,-218.4"/>
</g>
<!-- Node32 -->
<g id="node32" class="node"><title>Node32</title>
<polygon fill="none" stroke="#bfbfbf" points="577,-192.5 577,-211.5 645,-211.5 645,-192.5 577,-192.5"/>
<text text-anchor="middle" x="611" y="-199.5" font-family="Helvetica,sans-Serif" font-size="10.00">sys/types.h</text>
</g>
<!-- Node26&#45;&gt;Node32 -->
<g id="edge40" class="edge"><title>Node26&#45;&gt;Node32</title>
<path fill="none" stroke="midnightblue" d="M817.179,-248.444C773.149,-238.739 701.492,-222.945 655.309,-212.766"/>
<polygon fill="midnightblue" stroke="midnightblue" points="655.81,-209.293 645.291,-210.558 654.303,-216.128 655.81,-209.293"/>
</g>
<!-- Node33 -->
<g id="node33" class="node"><title>Node33</title>
<polygon fill="none" stroke="#bfbfbf" points="663.5,-192.5 663.5,-211.5 714.5,-211.5 714.5,-192.5 663.5,-192.5"/>
<text text-anchor="middle" x="689" y="-199.5" font-family="Helvetica,sans-Serif" font-size="10.00">unistd.h</text>
</g>
<!-- Node26&#45;&gt;Node33 -->
<g id="edge41" class="edge"><title>Node26&#45;&gt;Node33</title>
<path fill="none" stroke="midnightblue" d="M829.538,-248.444C801.073,-239.239 755.667,-224.557 724.203,-214.383"/>
<polygon fill="midnightblue" stroke="midnightblue" points="725.108,-210.997 714.516,-211.251 722.954,-217.658 725.108,-210.997"/>
</g>
<!-- Node34 -->
<g id="node34" class="node"><title>Node34</title>
<polygon fill="none" stroke="#bfbfbf" points="733,-192.5 733,-211.5 777,-211.5 777,-192.5 733,-192.5"/>
<text text-anchor="middle" x="755" y="-199.5" font-family="Helvetica,sans-Serif" font-size="10.00">fcntl.h</text>
</g>
<!-- Node26&#45;&gt;Node34 -->
<g id="edge42" class="edge"><title>Node26&#45;&gt;Node34</title>
<path fill="none" stroke="midnightblue" d="M839.773,-248.324C823.649,-239.703 798.7,-226.364 780.036,-216.386"/>
<polygon fill="midnightblue" stroke="midnightblue" points="781.656,-213.283 771.187,-211.655 778.356,-219.456 781.656,-213.283"/>
</g>
<!-- Node35&#45;&gt;Node6 -->
<g id="edge46" class="edge"><title>Node35&#45;&gt;Node6</title>
<path fill="none" stroke="midnightblue" d="M899.272,-447.12C799.431,-442.715 571.76,-430.071 499,-404 474.863,-395.352 472.834,-385.44 451,-372 433.063,-360.959 412.671,-349.33 395.839,-339.97"/>
<polygon fill="midnightblue" stroke="midnightblue" points="397.337,-336.798 386.892,-335.021 393.949,-342.924 397.337,-336.798"/>
</g>
<!-- Node35&#45;&gt;Node8 -->
<g id="edge48" class="edge"><title>Node35&#45;&gt;Node8</title>
<path fill="none" stroke="midnightblue" d="M899.381,-440.454C779.181,-417.536 473,-350.206 473,-259 473,-259 473,-259 473,-139 473,-95.9238 500.59,-51.3793 517.712,-27.8825"/>
<polygon fill="midnightblue" stroke="midnightblue" points="520.663,-29.7826 523.888,-19.6907 515.073,-25.5684 520.663,-29.7826"/>
</g>
<!-- Node35&#45;&gt;Node11 -->
<g id="edge49" class="edge"><title>Node35&#45;&gt;Node11</title>
<path fill="none" stroke="midnightblue" d="M994.68,-447.662C1125.26,-442.712 1479,-420.153 1479,-321 1479,-321 1479,-321 1479,-139 1479,-98.2307 1461.06,-53.0653 1449.84,-28.7866"/>
<polygon fill="midnightblue" stroke="midnightblue" points="1452.98,-27.2455 1445.51,-19.734 1446.67,-30.2655 1452.98,-27.2455"/>
</g>
<!-- Node35&#45;&gt;Node23 -->
<g id="edge47" class="edge"><title>Node35&#45;&gt;Node23</title>
<path fill="none" stroke="midnightblue" d="M994.543,-444.592C1104.1,-433.121 1365,-397.749 1365,-321 1365,-321 1365,-321 1365,-139 1365,-92.9944 1328.25,-49.0786 1305.86,-26.591"/>
<polygon fill="midnightblue" stroke="midnightblue" points="1308.24,-24.0187 1298.63,-19.5623 1303.36,-29.0401 1308.24,-24.0187"/>
</g>
<!-- Node36 -->
<g id="node36" class="node"><title>Node36</title>
<g id="a_node36"><a xlink:href="pattern__formatter__impl_8h.html" target="_top" xlink:title="spdlog/details/pattern\l_formatter_impl.h">
<polygon fill="none" stroke="black" points="892,-373 892,-403 1002,-403 1002,-373 892,-373"/>
<text text-anchor="start" x="900" y="-391" font-family="Helvetica,sans-Serif" font-size="10.00">spdlog/details/pattern</text>
<text text-anchor="middle" x="947" y="-380" font-family="Helvetica,sans-Serif" font-size="10.00">_formatter_impl.h</text>
</a>
</g>
</g>
<!-- Node35&#45;&gt;Node36 -->
<g id="edge50" class="edge"><title>Node35&#45;&gt;Node36</title>
<path fill="none" stroke="midnightblue" d="M942.099,-440.403C940.572,-433.341 939.991,-422.975 940.356,-413.399"/>
<polygon fill="midnightblue" stroke="midnightblue" points="943.868,-413.386 941.17,-403.141 936.89,-412.832 943.868,-413.386"/>
</g>
<!-- Node36&#45;&gt;Node6 -->
<g id="edge52" class="edge"><title>Node36&#45;&gt;Node6</title>
<path fill="none" stroke="midnightblue" d="M891.74,-384.344C795.517,-379.118 591.201,-365.359 421,-336 419.72,-335.779 418.428,-335.546 417.126,-335.302"/>
<polygon fill="midnightblue" stroke="midnightblue" points="417.539,-331.814 407.041,-333.243 416.139,-338.672 417.539,-331.814"/>
</g>
<!-- Node36&#45;&gt;Node8 -->
<g id="edge59" class="edge"><title>Node36&#45;&gt;Node8</title>
<path fill="none" stroke="midnightblue" d="M891.852,-380.691C803.69,-367.303 633.379,-327.142 559,-212 554.177,-204.533 557.799,-200.807 559,-192 561.243,-175.546 566.757,-172.454 569,-156 570.921,-141.908 571.297,-138.036 569,-124 563.313,-89.244 548.398,-50.7685 539.034,-28.8728"/>
<polygon fill="midnightblue" stroke="midnightblue" points="542.167,-27.3004 534.949,-19.5448 535.755,-30.109 542.167,-27.3004"/>
</g>
<!-- Node36&#45;&gt;Node10 -->
<g id="edge55" class="edge"><title>Node36&#45;&gt;Node10</title>
<path fill="none" stroke="midnightblue" d="M1002.35,-373.595C1104.91,-346.288 1307.39,-279.336 1231,-192 1191.44,-146.77 1020.65,-172.949 963,-156 960.715,-155.328 958.388,-154.516 956.083,-153.62"/>
<polygon fill="midnightblue" stroke="midnightblue" points="957.47,-150.406 946.904,-149.62 954.674,-156.824 957.47,-150.406"/>
</g>
<!-- Node36&#45;&gt;Node11 -->
<g id="edge57" class="edge"><title>Node36&#45;&gt;Node11</title>
<path fill="none" stroke="midnightblue" d="M1002.23,-384.347C1131.14,-376.652 1441,-348.814 1441,-259 1441,-259 1441,-259 1441,-139 1441,-100.248 1441,-54.8973 1441,-29.9188"/>
<polygon fill="midnightblue" stroke="midnightblue" points="1444.5,-29.6912 1441,-19.6913 1437.5,-29.6913 1444.5,-29.6912"/>
</g>
<!-- Node36&#45;&gt;Node14 -->
<g id="edge54" class="edge"><title>Node36&#45;&gt;Node14</title>
<path fill="none" stroke="midnightblue" d="M1002.17,-386.007C1077.47,-381.161 1208.11,-359.316 1252,-268 1258.78,-253.888 1268.5,-213.316 1251,-192 1228.48,-164.569 1132.2,-151.078 1070.08,-145.111"/>
<polygon fill="midnightblue" stroke="midnightblue" points="1070.32,-141.618 1060.04,-144.183 1069.68,-148.589 1070.32,-141.618"/>
</g>
<!-- Node36&#45;&gt;Node23 -->
<g id="edge62" class="edge"><title>Node36&#45;&gt;Node23</title>
<path fill="none" stroke="midnightblue" d="M1002.12,-381.68C1071.39,-374.159 1185.51,-358.752 1221,-336 1324.5,-269.646 1302.74,-88.2706 1292.6,-29.5862"/>
<polygon fill="midnightblue" stroke="midnightblue" points="1296.01,-28.7632 1290.76,-19.5556 1289.12,-30.022 1296.01,-28.7632"/>
</g>
<!-- Node36&#45;&gt;Node24 -->
<g id="edge61" class="edge"><title>Node36&#45;&gt;Node24</title>
<path fill="none" stroke="midnightblue" d="M891.932,-380.891C715.246,-360.105 167.695,-286.084 57,-156 26.5074,-120.166 30.2061,-60.225 34.5725,-29.8593"/>
<polygon fill="midnightblue" stroke="midnightblue" points="38.0608,-30.2131 36.2088,-19.7814 31.1513,-29.0912 38.0608,-30.2131"/>
</g>
<!-- Node36&#45;&gt;Node26 -->
<g id="edge53" class="edge"><title>Node36&#45;&gt;Node26</title>
<path fill="none" stroke="midnightblue" d="M936.914,-372.813C920.016,-349.044 886.064,-301.288 867.979,-275.85"/>
<polygon fill="midnightblue" stroke="midnightblue" points="870.742,-273.696 862.095,-267.574 865.037,-277.752 870.742,-273.696"/>
</g>
<!-- Node36&#45;&gt;Node27 -->
<g id="edge56" class="edge"><title>Node36&#45;&gt;Node27</title>
<path fill="none" stroke="midnightblue" d="M961.824,-372.867C997.111,-339.226 1085.92,-254.561 1123.16,-219.059"/>
<polygon fill="midnightblue" stroke="midnightblue" points="1125.85,-221.325 1130.67,-211.891 1121.02,-216.258 1125.85,-221.325"/>
</g>
<!-- Node36&#45;&gt;Node28 -->
<g id="edge60" class="edge"><title>Node36&#45;&gt;Node28</title>
<path fill="none" stroke="midnightblue" d="M972.442,-372.86C989.611,-363.047 1012.59,-349.382 1032,-336 1089.35,-296.459 1152.88,-243.906 1183.11,-218.312"/>
<polygon fill="midnightblue" stroke="midnightblue" points="1185.7,-220.704 1191.05,-211.56 1181.17,-215.371 1185.7,-220.704"/>
</g>
<!-- Node36&#45;&gt;Node35 -->
<g id="edge51" class="edge"><title>Node36&#45;&gt;Node35</title>
<path fill="none" stroke="midnightblue" d="M952.83,-403.141C953.873,-411.272 954.029,-421.585 953.299,-430.371"/>
<polygon fill="midnightblue" stroke="midnightblue" points="949.815,-430.016 951.901,-440.403 956.748,-430.982 949.815,-430.016"/>
</g>
<!-- Node36&#45;&gt;Node37 -->
<g id="edge58" class="edge"><title>Node36&#45;&gt;Node37</title>
<path fill="none" stroke="midnightblue" d="M891.51,-385.217C756.848,-380.467 415.759,-365.79 306,-336 303.797,-335.402 301.561,-334.649 299.351,-333.799"/>
<polygon fill="midnightblue" stroke="midnightblue" points="300.574,-330.513 290.014,-329.649 297.731,-336.91 300.574,-330.513"/>
</g>
</g>
</svg>
