<?xml version="1.0" encoding="UTF-8" standalone="no"?>
<!DOCTYPE svg PUBLIC "-//W3C//DTD SVG 1.1//EN"
 "http://www.w3.org/Graphics/SVG/1.1/DTD/svg11.dtd">
<!-- Generated by graphviz version 2.36.0 (20140111.2315)
 -->
<!-- Title: fmt::internal::Arg Pages: 1 -->
<svg width="411pt" height="646pt"
 viewBox="0.00 0.00 411.00 646.00" xmlns="http://www.w3.org/2000/svg" xmlns:xlink="http://www.w3.org/1999/xlink">
<g id="graph0" class="graph" transform="scale(1 1) rotate(0) translate(4 642)">
<title>fmt::internal::Arg</title>
<!-- Node1 -->
<g id="node1" class="node"><title>Node1</title>
<polygon fill="#bfbfbf" stroke="black" points="147.5,-354.5 147.5,-411.5 236.5,-411.5 236.5,-354.5 147.5,-354.5"/>
<text text-anchor="middle" x="192" y="-399.5" font-family="Helvetica,sans-Serif" font-size="10.00">fmt::internal::Arg</text>
<polyline fill="none" stroke="black" points="147.5,-392.5 236.5,-392.5 "/>
<text text-anchor="start" x="155.5" y="-380.5" font-family="Helvetica,sans-Serif" font-size="10.00">+ type</text>
<polyline fill="none" stroke="black" points="147.5,-373.5 236.5,-373.5 "/>
<text text-anchor="middle" x="192" y="-361.5" font-family="Helvetica,sans-Serif" font-size="10.00"> </text>
</g>
<!-- Node3 -->
<g id="node3" class="node"><title>Node3</title>
<g id="a_node3"><a xlink:href="classfmt_1_1internal_1_1MakeArg.html" target="_top" xlink:title="{fmt::internal::MakeArg\l\&lt; Formatter \&gt;\n||+ MakeArg()\l+ MakeArg()\l}">
<polygon fill="none" stroke="black" points="-0.5,-172.5 -0.5,-251.5 112.5,-251.5 112.5,-172.5 -0.5,-172.5"/>
<text text-anchor="start" x="7.5" y="-239.5" font-family="Helvetica,sans-Serif" font-size="10.00">fmt::internal::MakeArg</text>
<text text-anchor="middle" x="56" y="-228.5" font-family="Helvetica,sans-Serif" font-size="10.00">&lt; Formatter &gt;</text>
<polyline fill="none" stroke="black" points="-0.5,-221.5 112.5,-221.5 "/>
<text text-anchor="middle" x="56" y="-209.5" font-family="Helvetica,sans-Serif" font-size="10.00"> </text>
<polyline fill="none" stroke="black" points="-0.5,-202.5 112.5,-202.5 "/>
<text text-anchor="start" x="7.5" y="-190.5" font-family="Helvetica,sans-Serif" font-size="10.00">+ MakeArg()</text>
<text text-anchor="start" x="7.5" y="-179.5" font-family="Helvetica,sans-Serif" font-size="10.00">+ MakeArg()</text>
</a>
</g>
</g>
<!-- Node1&#45;&gt;Node3 -->
<g id="edge2" class="edge"><title>Node1&#45;&gt;Node3</title>
<path fill="none" stroke="midnightblue" d="M150.009,-347.726C139.959,-338.584 129.646,-328.354 121,-318 103.96,-297.594 88.1773,-272.322 76.4317,-251.684"/>
<polygon fill="none" stroke="midnightblue" points="147.813,-350.458 157.611,-354.489 152.466,-345.228 147.813,-350.458"/>
</g>
<!-- Node4 -->
<g id="node4" class="node"><title>Node4</title>
<g id="a_node4"><a xlink:href="classfmt_1_1internal_1_1MakeValue.html" target="_top" xlink:title="{fmt::internal::MakeValue\l\&lt; Formatter \&gt;\n||+ MakeValue()\l+ MakeValue()\l+ MakeValue()\l+ MakeValue()\l+ MakeValue()\l+ MakeValue()\l+ MakeValue()\l+ MakeValue()\l+ type()\l+ type()\l+ type()\l+ type()\l+ type()\l+ type()\l}">
<polygon fill="none" stroke="black" points="130.5,-106.5 130.5,-317.5 253.5,-317.5 253.5,-106.5 130.5,-106.5"/>
<text text-anchor="start" x="138.5" y="-305.5" font-family="Helvetica,sans-Serif" font-size="10.00">fmt::internal::MakeValue</text>
<text text-anchor="middle" x="192" y="-294.5" font-family="Helvetica,sans-Serif" font-size="10.00">&lt; Formatter &gt;</text>
<polyline fill="none" stroke="black" points="130.5,-287.5 253.5,-287.5 "/>
<text text-anchor="middle" x="192" y="-275.5" font-family="Helvetica,sans-Serif" font-size="10.00"> </text>
<polyline fill="none" stroke="black" points="130.5,-268.5 253.5,-268.5 "/>
<text text-anchor="start" x="138.5" y="-256.5" font-family="Helvetica,sans-Serif" font-size="10.00">+ MakeValue()</text>
<text text-anchor="start" x="138.5" y="-245.5" font-family="Helvetica,sans-Serif" font-size="10.00">+ MakeValue()</text>
<text text-anchor="start" x="138.5" y="-234.5" font-family="Helvetica,sans-Serif" font-size="10.00">+ MakeValue()</text>
<text text-anchor="start" x="138.5" y="-223.5" font-family="Helvetica,sans-Serif" font-size="10.00">+ MakeValue()</text>
<text text-anchor="start" x="138.5" y="-212.5" font-family="Helvetica,sans-Serif" font-size="10.00">+ MakeValue()</text>
<text text-anchor="start" x="138.5" y="-201.5" font-family="Helvetica,sans-Serif" font-size="10.00">+ MakeValue()</text>
<text text-anchor="start" x="138.5" y="-190.5" font-family="Helvetica,sans-Serif" font-size="10.00">+ MakeValue()</text>
<text text-anchor="start" x="138.5" y="-179.5" font-family="Helvetica,sans-Serif" font-size="10.00">+ MakeValue()</text>
<text text-anchor="start" x="138.5" y="-168.5" font-family="Helvetica,sans-Serif" font-size="10.00">+ type()</text>
<text text-anchor="start" x="138.5" y="-157.5" font-family="Helvetica,sans-Serif" font-size="10.00">+ type()</text>
<text text-anchor="start" x="138.5" y="-146.5" font-family="Helvetica,sans-Serif" font-size="10.00">+ type()</text>
<text text-anchor="start" x="138.5" y="-135.5" font-family="Helvetica,sans-Serif" font-size="10.00">+ type()</text>
<text text-anchor="start" x="138.5" y="-124.5" font-family="Helvetica,sans-Serif" font-size="10.00">+ type()</text>
<text text-anchor="start" x="138.5" y="-113.5" font-family="Helvetica,sans-Serif" font-size="10.00">+ type()</text>
</a>
</g>
</g>
<!-- Node1&#45;&gt;Node4 -->
<g id="edge3" class="edge"><title>Node1&#45;&gt;Node4</title>
<path fill="none" stroke="midnightblue" d="M192,-344.233C192,-336.038 192,-326.987 192,-317.584"/>
<polygon fill="none" stroke="midnightblue" points="188.5,-344.471 192,-354.471 195.5,-344.471 188.5,-344.471"/>
</g>
<!-- Node5 -->
<g id="node5" class="node"><title>Node5</title>
<g id="a_node5"><a xlink:href="structfmt_1_1internal_1_1NamedArg.html" target="_top" xlink:title="{fmt::internal::NamedArg\l\&lt; Char \&gt;\n|+ name\l|+ NamedArg()\l}">
<polygon fill="none" stroke="black" points="271.5,-178 271.5,-246 392.5,-246 392.5,-178 271.5,-178"/>
<text text-anchor="start" x="279.5" y="-234" font-family="Helvetica,sans-Serif" font-size="10.00">fmt::internal::NamedArg</text>
<text text-anchor="middle" x="332" y="-223" font-family="Helvetica,sans-Serif" font-size="10.00">&lt; Char &gt;</text>
<polyline fill="none" stroke="black" points="271.5,-216 392.5,-216 "/>
<text text-anchor="start" x="279.5" y="-204" font-family="Helvetica,sans-Serif" font-size="10.00">+ name</text>
<polyline fill="none" stroke="black" points="271.5,-197 392.5,-197 "/>
<text text-anchor="start" x="279.5" y="-185" font-family="Helvetica,sans-Serif" font-size="10.00">+ NamedArg()</text>
</a>
</g>
</g>
<!-- Node1&#45;&gt;Node5 -->
<g id="edge4" class="edge"><title>Node1&#45;&gt;Node5</title>
<path fill="none" stroke="midnightblue" d="M233.133,-347.453C243.048,-338.318 253.285,-328.158 262,-318 281.258,-295.552 299.672,-267.58 312.775,-246.153"/>
<polygon fill="none" stroke="midnightblue" points="230.715,-344.921 225.645,-354.223 235.41,-350.113 230.715,-344.921"/>
</g>
<!-- Node2 -->
<g id="node2" class="node"><title>Node2</title>
<g id="a_node2"><a xlink:href="structfmt_1_1internal_1_1Value.html" target="_top" xlink:title="{fmt::internal::Value\n|+ int_value\l+ uint_value\l+ long_long_value\l+ ulong_long_value\l+ double_value\l+ long_double_value\l+ pointer\l+ string\l+ sstring\l+ ustring\l+ wstring\l+ custom\l+ @3\l|}">
<polygon fill="none" stroke="black" points="139,-448.5 139,-637.5 245,-637.5 245,-448.5 139,-448.5"/>
<text text-anchor="middle" x="192" y="-625.5" font-family="Helvetica,sans-Serif" font-size="10.00">fmt::internal::Value</text>
<polyline fill="none" stroke="black" points="139,-618.5 245,-618.5 "/>
<text text-anchor="start" x="147" y="-606.5" font-family="Helvetica,sans-Serif" font-size="10.00">+ int_value</text>
<text text-anchor="start" x="147" y="-595.5" font-family="Helvetica,sans-Serif" font-size="10.00">+ uint_value</text>
<text text-anchor="start" x="147" y="-584.5" font-family="Helvetica,sans-Serif" font-size="10.00">+ long_long_value</text>
<text text-anchor="start" x="147" y="-573.5" font-family="Helvetica,sans-Serif" font-size="10.00">+ ulong_long_value</text>
<text text-anchor="start" x="147" y="-562.5" font-family="Helvetica,sans-Serif" font-size="10.00">+ double_value</text>
<text text-anchor="start" x="147" y="-551.5" font-family="Helvetica,sans-Serif" font-size="10.00">+ long_double_value</text>
<text text-anchor="start" x="147" y="-540.5" font-family="Helvetica,sans-Serif" font-size="10.00">+ pointer</text>
<text text-anchor="start" x="147" y="-529.5" font-family="Helvetica,sans-Serif" font-size="10.00">+ string</text>
<text text-anchor="start" x="147" y="-518.5" font-family="Helvetica,sans-Serif" font-size="10.00">+ sstring</text>
<text text-anchor="start" x="147" y="-507.5" font-family="Helvetica,sans-Serif" font-size="10.00">+ ustring</text>
<text text-anchor="start" x="147" y="-496.5" font-family="Helvetica,sans-Serif" font-size="10.00">+ wstring</text>
<text text-anchor="start" x="147" y="-485.5" font-family="Helvetica,sans-Serif" font-size="10.00">+ custom</text>
<text text-anchor="start" x="147" y="-474.5" font-family="Helvetica,sans-Serif" font-size="10.00">+ @3</text>
<polyline fill="none" stroke="black" points="139,-467.5 245,-467.5 "/>
<text text-anchor="middle" x="192" y="-455.5" font-family="Helvetica,sans-Serif" font-size="10.00"> </text>
</a>
</g>
</g>
<!-- Node2&#45;&gt;Node1 -->
<g id="edge1" class="edge"><title>Node2&#45;&gt;Node1</title>
<path fill="none" stroke="midnightblue" d="M192,-438.128C192,-428.563 192,-419.539 192,-411.702"/>
<polygon fill="none" stroke="midnightblue" points="188.5,-438.265 192,-448.265 195.5,-438.265 188.5,-438.265"/>
</g>
<!-- Node6 -->
<g id="node6" class="node"><title>Node6</title>
<g id="a_node6"><a xlink:href="structfmt_1_1internal_1_1NamedArgWithType.html" target="_top" xlink:title="{fmt::internal::NamedArgWith\lType\&lt; Char \&gt;\n||+ NamedArgWithType()\l}">
<polygon fill="none" stroke="black" points="261.5,-1 261.5,-69 402.5,-69 402.5,-1 261.5,-1"/>
<text text-anchor="start" x="269.5" y="-57" font-family="Helvetica,sans-Serif" font-size="10.00">fmt::internal::NamedArgWith</text>
<text text-anchor="middle" x="332" y="-46" font-family="Helvetica,sans-Serif" font-size="10.00">Type&lt; Char &gt;</text>
<polyline fill="none" stroke="black" points="261.5,-39 402.5,-39 "/>
<text text-anchor="middle" x="332" y="-27" font-family="Helvetica,sans-Serif" font-size="10.00"> </text>
<polyline fill="none" stroke="black" points="261.5,-20 402.5,-20 "/>
<text text-anchor="start" x="269.5" y="-8" font-family="Helvetica,sans-Serif" font-size="10.00">+ NamedArgWithType()</text>
</a>
</g>
</g>
<!-- Node5&#45;&gt;Node6 -->
<g id="edge5" class="edge"><title>Node5&#45;&gt;Node6</title>
<path fill="none" stroke="midnightblue" d="M332,-167.351C332,-136.949 332,-97.023 332,-69.204"/>
<polygon fill="none" stroke="midnightblue" points="328.5,-167.672 332,-177.672 335.5,-167.672 328.5,-167.672"/>
</g>
</g>
</svg>
