<?xml version="1.0" encoding="UTF-8" standalone="no"?>
<!DOCTYPE svg PUBLIC "-//W3C//DTD SVG 1.1//EN"
 "http://www.w3.org/Graphics/SVG/1.1/DTD/svg11.dtd">
<!-- Generated by graphviz version 2.38.0 (20140413.2041)
 -->
<!-- Title: fmt::AlignSpec Pages: 1 -->
<svg width="93pt" height="215pt"
 viewBox="0.00 0.00 93.00 215.00" xmlns="http://www.w3.org/2000/svg" xmlns:xlink="http://www.w3.org/1999/xlink">
<g id="graph0" class="graph" transform="scale(1 1) rotate(0) translate(4 211)">
<title>fmt::AlignSpec</title>
<!-- Node1 -->
<g id="node1" class="node"><title>Node1</title>
<polygon fill="#bfbfbf" stroke="black" points="2,-0.5 2,-79.5 83,-79.5 83,-0.5 2,-0.5"/>
<text text-anchor="middle" x="42.5" y="-67.5" font-family="Helvetica,sans-Serif" font-size="10.00">fmt::AlignSpec</text>
<polyline fill="none" stroke="black" points="2,-60.5 83,-60.5 "/>
<text text-anchor="start" x="10" y="-48.5" font-family="Helvetica,sans-Serif" font-size="10.00">+ align_</text>
<polyline fill="none" stroke="black" points="2,-41.5 83,-41.5 "/>
<text text-anchor="start" x="10" y="-29.5" font-family="Helvetica,sans-Serif" font-size="10.00">+ AlignSpec()</text>
<text text-anchor="start" x="10" y="-18.5" font-family="Helvetica,sans-Serif" font-size="10.00">+ align()</text>
<text text-anchor="start" x="10" y="-7.5" font-family="Helvetica,sans-Serif" font-size="10.00">+ precision()</text>
</g>
<!-- Node2 -->
<g id="node2" class="node"><title>Node2</title>
<g id="a_node2"><a xlink:href="structfmt_1_1WidthSpec.html" target="_top" xlink:title="{fmt::WidthSpec\n|+ width_\l+ fill_\l|+ WidthSpec()\l+ width()\l+ fill()\l}">
<polygon fill="none" stroke="black" points="0,-116.5 0,-206.5 85,-206.5 85,-116.5 0,-116.5"/>
<text text-anchor="middle" x="42.5" y="-194.5" font-family="Helvetica,sans-Serif" font-size="10.00">fmt::WidthSpec</text>
<polyline fill="none" stroke="black" points="0,-187.5 85,-187.5 "/>
<text text-anchor="start" x="8" y="-175.5" font-family="Helvetica,sans-Serif" font-size="10.00">+ width_</text>
<text text-anchor="start" x="8" y="-164.5" font-family="Helvetica,sans-Serif" font-size="10.00">+ fill_</text>
<polyline fill="none" stroke="black" points="0,-157.5 85,-157.5 "/>
<text text-anchor="start" x="8" y="-145.5" font-family="Helvetica,sans-Serif" font-size="10.00">+ WidthSpec()</text>
<text text-anchor="start" x="8" y="-134.5" font-family="Helvetica,sans-Serif" font-size="10.00">+ width()</text>
<text text-anchor="start" x="8" y="-123.5" font-family="Helvetica,sans-Serif" font-size="10.00">+ fill()</text>
</a>
</g>
</g>
<!-- Node2&#45;&gt;Node1 -->
<g id="edge1" class="edge"><title>Node2&#45;&gt;Node1</title>
<path fill="none" stroke="midnightblue" d="M42.5,-106.079C42.5,-97.234 42.5,-88.2325 42.5,-79.8576"/>
<polygon fill="none" stroke="midnightblue" points="39.0001,-106.342 42.5,-116.342 46.0001,-106.342 39.0001,-106.342"/>
</g>
</g>
</svg>
