<?xml version="1.0" encoding="UTF-8" standalone="no"?>
<!DOCTYPE svg PUBLIC "-//W3C//DTD SVG 1.1//EN"
 "http://www.w3.org/Graphics/SVG/1.1/DTD/svg11.dtd">
<!-- Generated by graphviz version 2.36.0 (20140111.2315)
 -->
<!-- Title: XBot::FSM::Event Pages: 1 -->
<svg width="202pt" height="376pt"
 viewBox="0.00 0.00 202.00 376.00" xmlns="http://www.w3.org/2000/svg" xmlns:xlink="http://www.w3.org/1999/xlink">
<g id="graph0" class="graph" transform="scale(1 1) rotate(0) translate(4 372)">
<title>XBot::FSM::Event</title>
<!-- Node1 -->
<g id="node1" class="node"><title>Node1</title>
<polygon fill="#bfbfbf" stroke="black" points="15.5,-0.5 15.5,-57.5 112.5,-57.5 112.5,-0.5 15.5,-0.5"/>
<text text-anchor="middle" x="64" y="-45.5" font-family="Helvetica,sans-Serif" font-size="10.00">XBot::FSM::Event</text>
<polyline fill="none" stroke="black" points="15.5,-38.5 112.5,-38.5 "/>
<text text-anchor="middle" x="64" y="-26.5" font-family="Helvetica,sans-Serif" font-size="10.00"> </text>
<polyline fill="none" stroke="black" points="15.5,-19.5 112.5,-19.5 "/>
<text text-anchor="middle" x="64" y="-7.5" font-family="Helvetica,sans-Serif" font-size="10.00"> </text>
</g>
<!-- Node2 -->
<g id="node2" class="node"><title>Node2</title>
<g id="a_node2"><a xlink:href="structXBot_1_1FSM_1_1Message.html" target="_top" xlink:title="Base class for defining custom messages that can be processed by the states during the entry phase...">
<polygon fill="none" stroke="black" points="83.5,-96.5 83.5,-153.5 194.5,-153.5 194.5,-96.5 83.5,-96.5"/>
<text text-anchor="middle" x="139" y="-141.5" font-family="Helvetica,sans-Serif" font-size="10.00">XBot::FSM::Message</text>
<polyline fill="none" stroke="black" points="83.5,-134.5 194.5,-134.5 "/>
<text text-anchor="middle" x="139" y="-122.5" font-family="Helvetica,sans-Serif" font-size="10.00"> </text>
<polyline fill="none" stroke="black" points="83.5,-115.5 194.5,-115.5 "/>
<text text-anchor="middle" x="139" y="-103.5" font-family="Helvetica,sans-Serif" font-size="10.00"> </text>
</a>
</g>
</g>
<!-- Node2&#45;&gt;Node1 -->
<g id="edge1" class="edge"><title>Node2&#45;&gt;Node1</title>
<path fill="none" stroke="midnightblue" d="M110.588,-88.3904C102.515,-78.2724 93.8444,-67.405 86.1981,-57.8216"/>
<polygon fill="none" stroke="midnightblue" points="107.93,-90.6714 116.903,-96.3053 113.402,-86.3056 107.93,-90.6714"/>
</g>
<!-- Node3 -->
<g id="node3" class="node"><title>Node3</title>
<g id="a_node3"><a xlink:title="STL class. ">
<polygon fill="none" stroke="#bfbfbf" points="17,-202.5 17,-259.5 77,-259.5 77,-202.5 17,-202.5"/>
<text text-anchor="middle" x="47" y="-247.5" font-family="Helvetica,sans-Serif" font-size="10.00">std::string</text>
<polyline fill="none" stroke="#bfbfbf" points="17,-240.5 77,-240.5 "/>
<text text-anchor="middle" x="47" y="-228.5" font-family="Helvetica,sans-Serif" font-size="10.00"> </text>
<polyline fill="none" stroke="#bfbfbf" points="17,-221.5 77,-221.5 "/>
<text text-anchor="middle" x="47" y="-209.5" font-family="Helvetica,sans-Serif" font-size="10.00"> </text>
</a>
</g>
</g>
<!-- Node3&#45;&gt;Node1 -->
<g id="edge4" class="edge"><title>Node3&#45;&gt;Node1</title>
<path fill="none" stroke="#404040" d="M42.3716,-202.331C38.6082,-175.088 34.8405,-132.393 41,-96 42.5035,-87.1167 45.0697,-77.8343 47.9556,-69.1317"/>
<polygon fill="none" stroke="#404040" points="47.9951,-69.0207 46.2389,-62.0267 52.0194,-57.7156 53.7756,-64.7096 47.9951,-69.0207"/>
<text text-anchor="middle" x="58" y="-122.5" font-family="Helvetica,sans-Serif" font-size="10.00"> +name</text>
</g>
<!-- Node3&#45;&gt;Node2 -->
<g id="edge2" class="edge"><title>Node3&#45;&gt;Node2</title>
<path fill="none" stroke="#404040" d="M71.4128,-202.403C82.1218,-190.297 94.8496,-175.909 106.356,-162.901"/>
<polygon fill="none" stroke="#404040" points="106.522,-162.714 107.502,-155.57 114.473,-153.726 113.494,-160.87 106.522,-162.714"/>
<text text-anchor="middle" x="119.5" y="-175.5" font-family="Helvetica,sans-Serif" font-size="10.00"> +message</text>
</g>
<!-- Node4 -->
<g id="node4" class="node"><title>Node4</title>
<g id="a_node4"><a xlink:title="STL class. ">
<polygon fill="none" stroke="#bfbfbf" points="-0.5,-299 -0.5,-367 94.5,-367 94.5,-299 -0.5,-299"/>
<text text-anchor="start" x="7.5" y="-355" font-family="Helvetica,sans-Serif" font-size="10.00">std::basic_string&lt;</text>
<text text-anchor="middle" x="47" y="-344" font-family="Helvetica,sans-Serif" font-size="10.00"> char &gt;</text>
<polyline fill="none" stroke="#bfbfbf" points="-0.5,-337 94.5,-337 "/>
<text text-anchor="middle" x="47" y="-325" font-family="Helvetica,sans-Serif" font-size="10.00"> </text>
<polyline fill="none" stroke="#bfbfbf" points="-0.5,-318 94.5,-318 "/>
<text text-anchor="middle" x="47" y="-306" font-family="Helvetica,sans-Serif" font-size="10.00"> </text>
</a>
</g>
</g>
<!-- Node4&#45;&gt;Node3 -->
<g id="edge3" class="edge"><title>Node4&#45;&gt;Node3</title>
<path fill="none" stroke="midnightblue" d="M47,-288.857C47,-278.952 47,-268.682 47,-259.64"/>
<polygon fill="none" stroke="midnightblue" points="43.5001,-288.979 47,-298.979 50.5001,-288.979 43.5001,-288.979"/>
</g>
</g>
</svg>
