<?xml version="1.0" encoding="UTF-8" standalone="no"?>
<!DOCTYPE svg PUBLIC "-//W3C//DTD SVG 1.1//EN"
 "http://www.w3.org/Graphics/SVG/1.1/DTD/svg11.dtd">
<!-- Generated by graphviz version 2.38.0 (20140413.2041)
 -->
<!-- Title: fmt::internal::Value Pages: 1 -->
<svg width="646pt" height="281pt"
 viewBox="0.00 0.00 646.00 281.00" xmlns="http://www.w3.org/2000/svg" xmlns:xlink="http://www.w3.org/1999/xlink">
<g id="graph0" class="graph" transform="scale(1 1) rotate(0) translate(4 277)">
<title>fmt::internal::Value</title>
<!-- Node1 -->
<g id="node1" class="node"><title>Node1</title>
<polygon fill="#bfbfbf" stroke="black" points="255,-0.5 255,-134.5 361,-134.5 361,-0.5 255,-0.5"/>
<text text-anchor="middle" x="308" y="-122.5" font-family="Helvetica,sans-Serif" font-size="10.00">fmt::internal::Value</text>
<polyline fill="none" stroke="black" points="255,-115.5 361,-115.5 "/>
<text text-anchor="start" x="263" y="-103.5" font-family="Helvetica,sans-Serif" font-size="10.00">+ int_value</text>
<text text-anchor="start" x="263" y="-92.5" font-family="Helvetica,sans-Serif" font-size="10.00">+ uint_value</text>
<text text-anchor="start" x="263" y="-81.5" font-family="Helvetica,sans-Serif" font-size="10.00">+ long_long_value</text>
<text text-anchor="start" x="263" y="-70.5" font-family="Helvetica,sans-Serif" font-size="10.00">+ ulong_long_value</text>
<text text-anchor="start" x="263" y="-59.5" font-family="Helvetica,sans-Serif" font-size="10.00">+ double_value</text>
<text text-anchor="start" x="263" y="-48.5" font-family="Helvetica,sans-Serif" font-size="10.00">+ long_double_value</text>
<text text-anchor="start" x="263" y="-37.5" font-family="Helvetica,sans-Serif" font-size="10.00">+ pointer</text>
<text text-anchor="start" x="263" y="-26.5" font-family="Helvetica,sans-Serif" font-size="10.00">+ @3</text>
<polyline fill="none" stroke="black" points="255,-19.5 361,-19.5 "/>
<text text-anchor="middle" x="308" y="-7.5" font-family="Helvetica,sans-Serif" font-size="10.00"> </text>
</g>
<!-- Node2 -->
<g id="node2" class="node"><title>Node2</title>
<g id="a_node2"><a xlink:href="structfmt_1_1internal_1_1Value_1_1StringValue.html" target="_top" xlink:title="{fmt::internal::Value\l::StringValue\&lt; signed\l char \&gt;\n|+ value\l+ size\l|}">
<polygon fill="none" stroke="black" points="0,-182.5 0,-272.5 110,-272.5 110,-182.5 0,-182.5"/>
<text text-anchor="start" x="8" y="-260.5" font-family="Helvetica,sans-Serif" font-size="10.00">fmt::internal::Value</text>
<text text-anchor="start" x="8" y="-249.5" font-family="Helvetica,sans-Serif" font-size="10.00">::StringValue&lt; signed</text>
<text text-anchor="middle" x="55" y="-238.5" font-family="Helvetica,sans-Serif" font-size="10.00"> char &gt;</text>
<polyline fill="none" stroke="black" points="0,-231.5 110,-231.5 "/>
<text text-anchor="start" x="8" y="-219.5" font-family="Helvetica,sans-Serif" font-size="10.00">+ value</text>
<text text-anchor="start" x="8" y="-208.5" font-family="Helvetica,sans-Serif" font-size="10.00">+ size</text>
<polyline fill="none" stroke="black" points="0,-201.5 110,-201.5 "/>
<text text-anchor="middle" x="55" y="-189.5" font-family="Helvetica,sans-Serif" font-size="10.00"> </text>
</a>
</g>
</g>
<!-- Node2&#45;&gt;Node1 -->
<g id="edge1" class="edge"><title>Node2&#45;&gt;Node1</title>
<path fill="none" stroke="#404040" d="M110.349,-187.679C113.263,-185.741 116.159,-183.838 119,-182 160.095,-155.416 207.294,-127.07 244.244,-105.355"/>
<polygon fill="none" stroke="#404040" points="244.519,-105.195 247.673,-98.7096 254.872,-99.1267 251.718,-105.612 244.519,-105.195"/>
<text text-anchor="middle" x="185.5" y="-156" font-family="Helvetica,sans-Serif" font-size="10.00"> +sstring</text>
</g>
<!-- Node3 -->
<g id="node3" class="node"><title>Node3</title>
<g id="a_node3"><a xlink:href="structfmt_1_1internal_1_1Value_1_1CustomValue.html" target="_top" xlink:title="{fmt::internal::Value\l::CustomValue\n|+ value\l+ format\l|}">
<polygon fill="none" stroke="black" points="128.5,-188 128.5,-267 227.5,-267 227.5,-188 128.5,-188"/>
<text text-anchor="start" x="136.5" y="-255" font-family="Helvetica,sans-Serif" font-size="10.00">fmt::internal::Value</text>
<text text-anchor="middle" x="178" y="-244" font-family="Helvetica,sans-Serif" font-size="10.00">::CustomValue</text>
<polyline fill="none" stroke="black" points="128.5,-237 227.5,-237 "/>
<text text-anchor="start" x="136.5" y="-225" font-family="Helvetica,sans-Serif" font-size="10.00">+ value</text>
<text text-anchor="start" x="136.5" y="-214" font-family="Helvetica,sans-Serif" font-size="10.00">+ format</text>
<polyline fill="none" stroke="black" points="128.5,-207 227.5,-207 "/>
<text text-anchor="middle" x="178" y="-195" font-family="Helvetica,sans-Serif" font-size="10.00"> </text>
</a>
</g>
</g>
<!-- Node3&#45;&gt;Node1 -->
<g id="edge2" class="edge"><title>Node3&#45;&gt;Node1</title>
<path fill="none" stroke="#404040" d="M209.802,-187.849C221.006,-174.231 234.01,-158.426 246.816,-142.862"/>
<polygon fill="none" stroke="#404040" points="247.122,-142.491 247.845,-135.316 254.746,-133.224 254.023,-140.399 247.122,-142.491"/>
<text text-anchor="middle" x="261" y="-156" font-family="Helvetica,sans-Serif" font-size="10.00"> +custom</text>
</g>
<!-- Node4 -->
<g id="node4" class="node"><title>Node4</title>
<g id="a_node4"><a xlink:href="structfmt_1_1internal_1_1Value_1_1StringValue.html" target="_top" xlink:title="{fmt::internal::Value\l::StringValue\&lt; wchar_t \&gt;\n|+ value\l+ size\l|}">
<polygon fill="none" stroke="black" points="245.5,-188 245.5,-267 370.5,-267 370.5,-188 245.5,-188"/>
<text text-anchor="start" x="253.5" y="-255" font-family="Helvetica,sans-Serif" font-size="10.00">fmt::internal::Value</text>
<text text-anchor="middle" x="308" y="-244" font-family="Helvetica,sans-Serif" font-size="10.00">::StringValue&lt; wchar_t &gt;</text>
<polyline fill="none" stroke="black" points="245.5,-237 370.5,-237 "/>
<text text-anchor="start" x="253.5" y="-225" font-family="Helvetica,sans-Serif" font-size="10.00">+ value</text>
<text text-anchor="start" x="253.5" y="-214" font-family="Helvetica,sans-Serif" font-size="10.00">+ size</text>
<polyline fill="none" stroke="black" points="245.5,-207 370.5,-207 "/>
<text text-anchor="middle" x="308" y="-195" font-family="Helvetica,sans-Serif" font-size="10.00"> </text>
</a>
</g>
</g>
<!-- Node4&#45;&gt;Node1 -->
<g id="edge3" class="edge"><title>Node4&#45;&gt;Node1</title>
<path fill="none" stroke="#404040" d="M308,-187.849C308,-175.483 308,-161.315 308,-147.161"/>
<polygon fill="none" stroke="#404040" points="308,-146.772 304,-140.772 308,-134.772 312,-140.772 308,-146.772"/>
<text text-anchor="middle" x="328.5" y="-156" font-family="Helvetica,sans-Serif" font-size="10.00"> +wstring</text>
</g>
<!-- Node5 -->
<g id="node5" class="node"><title>Node5</title>
<g id="a_node5"><a xlink:href="structfmt_1_1internal_1_1Value_1_1StringValue.html" target="_top" xlink:title="{fmt::internal::Value\l::StringValue\&lt; unsigned\l char \&gt;\n|+ value\l+ size\l|}">
<polygon fill="none" stroke="black" points="388.5,-182.5 388.5,-272.5 509.5,-272.5 509.5,-182.5 388.5,-182.5"/>
<text text-anchor="start" x="396.5" y="-260.5" font-family="Helvetica,sans-Serif" font-size="10.00">fmt::internal::Value</text>
<text text-anchor="start" x="396.5" y="-249.5" font-family="Helvetica,sans-Serif" font-size="10.00">::StringValue&lt; unsigned</text>
<text text-anchor="middle" x="449" y="-238.5" font-family="Helvetica,sans-Serif" font-size="10.00"> char &gt;</text>
<polyline fill="none" stroke="black" points="388.5,-231.5 509.5,-231.5 "/>
<text text-anchor="start" x="396.5" y="-219.5" font-family="Helvetica,sans-Serif" font-size="10.00">+ value</text>
<text text-anchor="start" x="396.5" y="-208.5" font-family="Helvetica,sans-Serif" font-size="10.00">+ size</text>
<polyline fill="none" stroke="black" points="388.5,-201.5 509.5,-201.5 "/>
<text text-anchor="middle" x="449" y="-189.5" font-family="Helvetica,sans-Serif" font-size="10.00"> </text>
</a>
</g>
</g>
<!-- Node5&#45;&gt;Node1 -->
<g id="edge4" class="edge"><title>Node5&#45;&gt;Node1</title>
<path fill="none" stroke="#404040" d="M409.724,-182.488C397.122,-168.367 382.852,-152.377 369.072,-136.935"/>
<polygon fill="none" stroke="#404040" points="369.021,-136.879 362.042,-135.065 361.031,-127.925 368.011,-129.739 369.021,-136.879"/>
<text text-anchor="middle" x="411.5" y="-156" font-family="Helvetica,sans-Serif" font-size="10.00"> +ustring</text>
</g>
<!-- Node6 -->
<g id="node6" class="node"><title>Node6</title>
<g id="a_node6"><a xlink:href="structfmt_1_1internal_1_1Value_1_1StringValue.html" target="_top" xlink:title="{fmt::internal::Value\l::StringValue\&lt; char \&gt;\n|+ value\l+ size\l|}">
<polygon fill="none" stroke="black" points="528,-188 528,-267 638,-267 638,-188 528,-188"/>
<text text-anchor="start" x="536" y="-255" font-family="Helvetica,sans-Serif" font-size="10.00">fmt::internal::Value</text>
<text text-anchor="middle" x="583" y="-244" font-family="Helvetica,sans-Serif" font-size="10.00">::StringValue&lt; char &gt;</text>
<polyline fill="none" stroke="black" points="528,-237 638,-237 "/>
<text text-anchor="start" x="536" y="-225" font-family="Helvetica,sans-Serif" font-size="10.00">+ value</text>
<text text-anchor="start" x="536" y="-214" font-family="Helvetica,sans-Serif" font-size="10.00">+ size</text>
<polyline fill="none" stroke="black" points="528,-207 638,-207 "/>
<text text-anchor="middle" x="583" y="-195" font-family="Helvetica,sans-Serif" font-size="10.00"> </text>
</a>
</g>
</g>
<!-- Node6&#45;&gt;Node1 -->
<g id="edge5" class="edge"><title>Node6&#45;&gt;Node1</title>
<path fill="none" stroke="#404040" d="M527.941,-188.227C524.6,-186.085 521.269,-183.995 518,-182 469.999,-152.708 413.886,-122.581 371.745,-100.734"/>
<polygon fill="none" stroke="#404040" points="371.735,-100.729 364.568,-101.53 361.072,-95.2227 368.239,-94.4215 371.735,-100.729"/>
<text text-anchor="middle" x="502" y="-156" font-family="Helvetica,sans-Serif" font-size="10.00"> +string</text>
</g>
</g>
</svg>
