<?xml version="1.0" encoding="UTF-8" standalone="no"?>
<!DOCTYPE svg PUBLIC "-//W3C//DTD SVG 1.1//EN"
 "http://www.w3.org/Graphics/SVG/1.1/DTD/svg11.dtd">
<!-- Generated by graphviz version 2.36.0 (20140111.2315)
 -->
<!-- Title: fmt::internal::NamedArgWithType&lt; Char, T &gt; Pages: 1 -->
<svg width="646pt" height="596pt"
 viewBox="0.00 0.00 646.00 596.00" xmlns="http://www.w3.org/2000/svg" xmlns:xlink="http://www.w3.org/1999/xlink">
<g id="graph0" class="graph" transform="scale(1 1) rotate(0) translate(4 592)">
<title>fmt::internal::NamedArgWithType&lt; Char, T &gt;</title>
<!-- Node1 -->
<g id="node1" class="node"><title>Node1</title>
<polygon fill="#bfbfbf" stroke="black" points="237.5,-1 237.5,-69 378.5,-69 378.5,-1 237.5,-1"/>
<text text-anchor="start" x="245.5" y="-57" font-family="Helvetica,sans-Serif" font-size="10.00">fmt::internal::NamedArgWith</text>
<text text-anchor="middle" x="308" y="-46" font-family="Helvetica,sans-Serif" font-size="10.00">Type&lt; Char, T &gt;</text>
<polyline fill="none" stroke="black" points="237.5,-39 378.5,-39 "/>
<text text-anchor="middle" x="308" y="-27" font-family="Helvetica,sans-Serif" font-size="10.00"> </text>
<polyline fill="none" stroke="black" points="237.5,-20 378.5,-20 "/>
<text text-anchor="start" x="245.5" y="-8" font-family="Helvetica,sans-Serif" font-size="10.00">+ NamedArgWithType()</text>
</g>
<!-- Node2 -->
<g id="node2" class="node"><title>Node2</title>
<g id="a_node2"><a xlink:href="structfmt_1_1internal_1_1NamedArg.html" target="_top" xlink:title="{fmt::internal::NamedArg\l\&lt; Char \&gt;\n|+ name\l|+ NamedArg()\l}">
<polygon fill="none" stroke="black" points="247.5,-109 247.5,-177 368.5,-177 368.5,-109 247.5,-109"/>
<text text-anchor="start" x="255.5" y="-165" font-family="Helvetica,sans-Serif" font-size="10.00">fmt::internal::NamedArg</text>
<text text-anchor="middle" x="308" y="-154" font-family="Helvetica,sans-Serif" font-size="10.00">&lt; Char &gt;</text>
<polyline fill="none" stroke="black" points="247.5,-147 368.5,-147 "/>
<text text-anchor="start" x="255.5" y="-135" font-family="Helvetica,sans-Serif" font-size="10.00">+ name</text>
<polyline fill="none" stroke="black" points="247.5,-128 368.5,-128 "/>
<text text-anchor="start" x="255.5" y="-116" font-family="Helvetica,sans-Serif" font-size="10.00">+ NamedArg()</text>
</a>
</g>
</g>
<!-- Node2&#45;&gt;Node1 -->
<g id="edge1" class="edge"><title>Node2&#45;&gt;Node1</title>
<path fill="none" stroke="midnightblue" d="M308,-98.696C308,-88.8277 308,-78.4951 308,-69.1303"/>
<polygon fill="none" stroke="midnightblue" points="304.5,-98.7517 308,-108.752 311.5,-98.7518 304.5,-98.7517"/>
</g>
<!-- Node3 -->
<g id="node3" class="node"><title>Node3</title>
<g id="a_node3"><a xlink:href="structfmt_1_1internal_1_1Arg.html" target="_top" xlink:title="{fmt::internal::Arg\n|+ type\l|}">
<polygon fill="none" stroke="black" points="263.5,-216.5 263.5,-273.5 352.5,-273.5 352.5,-216.5 263.5,-216.5"/>
<text text-anchor="middle" x="308" y="-261.5" font-family="Helvetica,sans-Serif" font-size="10.00">fmt::internal::Arg</text>
<polyline fill="none" stroke="black" points="263.5,-254.5 352.5,-254.5 "/>
<text text-anchor="start" x="271.5" y="-242.5" font-family="Helvetica,sans-Serif" font-size="10.00">+ type</text>
<polyline fill="none" stroke="black" points="263.5,-235.5 352.5,-235.5 "/>
<text text-anchor="middle" x="308" y="-223.5" font-family="Helvetica,sans-Serif" font-size="10.00"> </text>
</a>
</g>
</g>
<!-- Node3&#45;&gt;Node2 -->
<g id="edge2" class="edge"><title>Node3&#45;&gt;Node2</title>
<path fill="none" stroke="midnightblue" d="M308,-206.337C308,-196.755 308,-186.528 308,-177.187"/>
<polygon fill="none" stroke="midnightblue" points="304.5,-206.41 308,-216.41 311.5,-206.41 304.5,-206.41"/>
</g>
<!-- Node4 -->
<g id="node4" class="node"><title>Node4</title>
<g id="a_node4"><a xlink:href="structfmt_1_1internal_1_1Value.html" target="_top" xlink:title="{fmt::internal::Value\n|+ int_value\l+ uint_value\l+ long_long_value\l+ ulong_long_value\l+ double_value\l+ long_double_value\l+ pointer\l+ @3\l|}">
<polygon fill="none" stroke="black" points="255,-313 255,-447 361,-447 361,-313 255,-313"/>
<text text-anchor="middle" x="308" y="-435" font-family="Helvetica,sans-Serif" font-size="10.00">fmt::internal::Value</text>
<polyline fill="none" stroke="black" points="255,-428 361,-428 "/>
<text text-anchor="start" x="263" y="-416" font-family="Helvetica,sans-Serif" font-size="10.00">+ int_value</text>
<text text-anchor="start" x="263" y="-405" font-family="Helvetica,sans-Serif" font-size="10.00">+ uint_value</text>
<text text-anchor="start" x="263" y="-394" font-family="Helvetica,sans-Serif" font-size="10.00">+ long_long_value</text>
<text text-anchor="start" x="263" y="-383" font-family="Helvetica,sans-Serif" font-size="10.00">+ ulong_long_value</text>
<text text-anchor="start" x="263" y="-372" font-family="Helvetica,sans-Serif" font-size="10.00">+ double_value</text>
<text text-anchor="start" x="263" y="-361" font-family="Helvetica,sans-Serif" font-size="10.00">+ long_double_value</text>
<text text-anchor="start" x="263" y="-350" font-family="Helvetica,sans-Serif" font-size="10.00">+ pointer</text>
<text text-anchor="start" x="263" y="-339" font-family="Helvetica,sans-Serif" font-size="10.00">+ @3</text>
<polyline fill="none" stroke="black" points="255,-332 361,-332 "/>
<text text-anchor="middle" x="308" y="-320" font-family="Helvetica,sans-Serif" font-size="10.00"> </text>
</a>
</g>
</g>
<!-- Node4&#45;&gt;Node3 -->
<g id="edge3" class="edge"><title>Node4&#45;&gt;Node3</title>
<path fill="none" stroke="midnightblue" d="M308,-302.878C308,-292.502 308,-282.445 308,-273.747"/>
<polygon fill="none" stroke="midnightblue" points="304.5,-302.89 308,-312.89 311.5,-302.89 304.5,-302.89"/>
</g>
<!-- Node5 -->
<g id="node5" class="node"><title>Node5</title>
<g id="a_node5"><a xlink:href="structfmt_1_1internal_1_1Value_1_1StringValue.html" target="_top" xlink:title="{fmt::internal::Value\l::StringValue\&lt; signed\l char \&gt;\n|+ value\l+ size\l|}">
<polygon fill="none" stroke="black" points="0,-497 0,-587 110,-587 110,-497 0,-497"/>
<text text-anchor="start" x="8" y="-575" font-family="Helvetica,sans-Serif" font-size="10.00">fmt::internal::Value</text>
<text text-anchor="start" x="8" y="-564" font-family="Helvetica,sans-Serif" font-size="10.00">::StringValue&lt; signed</text>
<text text-anchor="middle" x="55" y="-553" font-family="Helvetica,sans-Serif" font-size="10.00"> char &gt;</text>
<polyline fill="none" stroke="black" points="0,-546 110,-546 "/>
<text text-anchor="start" x="8" y="-534" font-family="Helvetica,sans-Serif" font-size="10.00">+ value</text>
<text text-anchor="start" x="8" y="-523" font-family="Helvetica,sans-Serif" font-size="10.00">+ size</text>
<polyline fill="none" stroke="black" points="0,-516 110,-516 "/>
<text text-anchor="middle" x="55" y="-504" font-family="Helvetica,sans-Serif" font-size="10.00"> </text>
</a>
</g>
</g>
<!-- Node5&#45;&gt;Node4 -->
<g id="edge4" class="edge"><title>Node5&#45;&gt;Node4</title>
<path fill="none" stroke="#404040" d="M110.349,-501.747C113.263,-499.786 116.159,-497.86 119,-496 160.092,-469.094 207.29,-440.374 244.242,-418.365"/>
<polygon fill="none" stroke="#404040" points="244.552,-418.18 247.668,-411.677 254.869,-412.052 251.754,-418.555 244.552,-418.18"/>
<text text-anchor="middle" x="185.5" y="-469.5" font-family="Helvetica,sans-Serif" font-size="10.00"> +sstring</text>
</g>
<!-- Node6 -->
<g id="node6" class="node"><title>Node6</title>
<g id="a_node6"><a xlink:href="structfmt_1_1internal_1_1Value_1_1CustomValue.html" target="_top" xlink:title="{fmt::internal::Value\l::CustomValue\n|+ value\l+ format\l|}">
<polygon fill="none" stroke="black" points="128.5,-502.5 128.5,-581.5 227.5,-581.5 227.5,-502.5 128.5,-502.5"/>
<text text-anchor="start" x="136.5" y="-569.5" font-family="Helvetica,sans-Serif" font-size="10.00">fmt::internal::Value</text>
<text text-anchor="middle" x="178" y="-558.5" font-family="Helvetica,sans-Serif" font-size="10.00">::CustomValue</text>
<polyline fill="none" stroke="black" points="128.5,-551.5 227.5,-551.5 "/>
<text text-anchor="start" x="136.5" y="-539.5" font-family="Helvetica,sans-Serif" font-size="10.00">+ value</text>
<text text-anchor="start" x="136.5" y="-528.5" font-family="Helvetica,sans-Serif" font-size="10.00">+ format</text>
<polyline fill="none" stroke="black" points="128.5,-521.5 227.5,-521.5 "/>
<text text-anchor="middle" x="178" y="-509.5" font-family="Helvetica,sans-Serif" font-size="10.00"> </text>
</a>
</g>
</g>
<!-- Node6&#45;&gt;Node4 -->
<g id="edge5" class="edge"><title>Node6&#45;&gt;Node4</title>
<path fill="none" stroke="#404040" d="M209.469,-502.268C220.839,-488.275 234.094,-471.962 247.126,-455.922"/>
<polygon fill="none" stroke="#404040" points="247.191,-455.842 247.87,-448.663 254.758,-446.529 254.079,-453.708 247.191,-455.842"/>
<text text-anchor="middle" x="257" y="-469.5" font-family="Helvetica,sans-Serif" font-size="10.00"> +custom</text>
</g>
<!-- Node7 -->
<g id="node7" class="node"><title>Node7</title>
<g id="a_node7"><a xlink:href="structfmt_1_1internal_1_1Value_1_1StringValue.html" target="_top" xlink:title="{fmt::internal::Value\l::StringValue\&lt; wchar_t \&gt;\n|+ value\l+ size\l|}">
<polygon fill="none" stroke="black" points="245.5,-502.5 245.5,-581.5 370.5,-581.5 370.5,-502.5 245.5,-502.5"/>
<text text-anchor="start" x="253.5" y="-569.5" font-family="Helvetica,sans-Serif" font-size="10.00">fmt::internal::Value</text>
<text text-anchor="middle" x="308" y="-558.5" font-family="Helvetica,sans-Serif" font-size="10.00">::StringValue&lt; wchar_t &gt;</text>
<polyline fill="none" stroke="black" points="245.5,-551.5 370.5,-551.5 "/>
<text text-anchor="start" x="253.5" y="-539.5" font-family="Helvetica,sans-Serif" font-size="10.00">+ value</text>
<text text-anchor="start" x="253.5" y="-528.5" font-family="Helvetica,sans-Serif" font-size="10.00">+ size</text>
<polyline fill="none" stroke="black" points="245.5,-521.5 370.5,-521.5 "/>
<text text-anchor="middle" x="308" y="-509.5" font-family="Helvetica,sans-Serif" font-size="10.00"> </text>
</a>
</g>
</g>
<!-- Node7&#45;&gt;Node4 -->
<g id="edge6" class="edge"><title>Node7&#45;&gt;Node4</title>
<path fill="none" stroke="#404040" d="M308,-502.268C308,-489.335 308,-474.42 308,-459.57"/>
<polygon fill="none" stroke="#404040" points="308,-459.157 304,-453.157 308,-447.157 312,-453.157 308,-459.157"/>
<text text-anchor="middle" x="328.5" y="-469.5" font-family="Helvetica,sans-Serif" font-size="10.00"> +wstring</text>
</g>
<!-- Node8 -->
<g id="node8" class="node"><title>Node8</title>
<g id="a_node8"><a xlink:href="structfmt_1_1internal_1_1Value_1_1StringValue.html" target="_top" xlink:title="{fmt::internal::Value\l::StringValue\&lt; unsigned\l char \&gt;\n|+ value\l+ size\l|}">
<polygon fill="none" stroke="black" points="388.5,-497 388.5,-587 509.5,-587 509.5,-497 388.5,-497"/>
<text text-anchor="start" x="396.5" y="-575" font-family="Helvetica,sans-Serif" font-size="10.00">fmt::internal::Value</text>
<text text-anchor="start" x="396.5" y="-564" font-family="Helvetica,sans-Serif" font-size="10.00">::StringValue&lt; unsigned</text>
<text text-anchor="middle" x="449" y="-553" font-family="Helvetica,sans-Serif" font-size="10.00"> char &gt;</text>
<polyline fill="none" stroke="black" points="388.5,-546 509.5,-546 "/>
<text text-anchor="start" x="396.5" y="-534" font-family="Helvetica,sans-Serif" font-size="10.00">+ value</text>
<text text-anchor="start" x="396.5" y="-523" font-family="Helvetica,sans-Serif" font-size="10.00">+ size</text>
<polyline fill="none" stroke="black" points="388.5,-516 509.5,-516 "/>
<text text-anchor="middle" x="449" y="-504" font-family="Helvetica,sans-Serif" font-size="10.00"> </text>
</a>
</g>
</g>
<!-- Node8&#45;&gt;Node4 -->
<g id="edge7" class="edge"><title>Node8&#45;&gt;Node4</title>
<path fill="none" stroke="#404040" d="M410.098,-496.856C397.424,-482.474 383.032,-466.142 369.134,-450.372"/>
<polygon fill="none" stroke="#404040" points="368.959,-450.173 361.991,-448.316 361.025,-441.17 367.993,-443.027 368.959,-450.173"/>
<text text-anchor="middle" x="411.5" y="-469.5" font-family="Helvetica,sans-Serif" font-size="10.00"> +ustring</text>
</g>
<!-- Node9 -->
<g id="node9" class="node"><title>Node9</title>
<g id="a_node9"><a xlink:href="structfmt_1_1internal_1_1Value_1_1StringValue.html" target="_top" xlink:title="{fmt::internal::Value\l::StringValue\&lt; char \&gt;\n|+ value\l+ size\l|}">
<polygon fill="none" stroke="black" points="528,-502.5 528,-581.5 638,-581.5 638,-502.5 528,-502.5"/>
<text text-anchor="start" x="536" y="-569.5" font-family="Helvetica,sans-Serif" font-size="10.00">fmt::internal::Value</text>
<text text-anchor="middle" x="583" y="-558.5" font-family="Helvetica,sans-Serif" font-size="10.00">::StringValue&lt; char &gt;</text>
<polyline fill="none" stroke="black" points="528,-551.5 638,-551.5 "/>
<text text-anchor="start" x="536" y="-539.5" font-family="Helvetica,sans-Serif" font-size="10.00">+ value</text>
<text text-anchor="start" x="536" y="-528.5" font-family="Helvetica,sans-Serif" font-size="10.00">+ size</text>
<polyline fill="none" stroke="black" points="528,-521.5 638,-521.5 "/>
<text text-anchor="middle" x="583" y="-509.5" font-family="Helvetica,sans-Serif" font-size="10.00"> </text>
</a>
</g>
</g>
<!-- Node9&#45;&gt;Node4 -->
<g id="edge8" class="edge"><title>Node9&#45;&gt;Node4</title>
<path fill="none" stroke="#404040" d="M527.943,-502.303C524.602,-500.135 521.27,-498.019 518,-496 470.013,-466.362 413.899,-435.835 371.754,-413.687"/>
<polygon fill="none" stroke="#404040" points="371.712,-413.665 364.541,-414.426 361.081,-408.1 368.252,-407.339 371.712,-413.665"/>
<text text-anchor="middle" x="502" y="-469.5" font-family="Helvetica,sans-Serif" font-size="10.00"> +string</text>
</g>
</g>
</svg>
