<?xml version="1.0" encoding="UTF-8" standalone="no"?>
<!DOCTYPE svg PUBLIC "-//W3C//DTD SVG 1.1//EN"
 "http://www.w3.org/Graphics/SVG/1.1/DTD/svg11.dtd">
<!-- Generated by graphviz version 2.36.0 (20140111.2315)
 -->
<!-- Title: fmt::AlignTypeSpec&lt; TYPE &gt; Pages: 1 -->
<svg width="110pt" height="344pt"
 viewBox="0.00 0.00 110.00 344.00" xmlns="http://www.w3.org/2000/svg" xmlns:xlink="http://www.w3.org/1999/xlink">
<g id="graph0" class="graph" transform="scale(1 1) rotate(0) translate(4 340)">
<title>fmt::AlignTypeSpec&lt; TYPE &gt;</title>
<!-- Node1 -->
<g id="node1" class="node"><title>Node1</title>
<polygon fill="#bfbfbf" stroke="black" points="-0.5,-1 -0.5,-91 102.5,-91 102.5,-1 -0.5,-1"/>
<text text-anchor="start" x="7.5" y="-79" font-family="Helvetica,sans-Serif" font-size="10.00">fmt::AlignTypeSpec</text>
<text text-anchor="middle" x="51" y="-68" font-family="Helvetica,sans-Serif" font-size="10.00">&lt; TYPE &gt;</text>
<polyline fill="none" stroke="black" points="-0.5,-61 102.5,-61 "/>
<text text-anchor="middle" x="51" y="-49" font-family="Helvetica,sans-Serif" font-size="10.00"> </text>
<polyline fill="none" stroke="black" points="-0.5,-42 102.5,-42 "/>
<text text-anchor="start" x="7.5" y="-30" font-family="Helvetica,sans-Serif" font-size="10.00">+ AlignTypeSpec()</text>
<text text-anchor="start" x="7.5" y="-19" font-family="Helvetica,sans-Serif" font-size="10.00">+ flag()</text>
<text text-anchor="start" x="7.5" y="-8" font-family="Helvetica,sans-Serif" font-size="10.00">+ type()</text>
</g>
<!-- Node2 -->
<g id="node2" class="node"><title>Node2</title>
<g id="a_node2"><a xlink:href="structfmt_1_1AlignSpec.html" target="_top" xlink:title="{fmt::AlignSpec\n|+ align_\l|+ AlignSpec()\l+ align()\l+ precision()\l}">
<polygon fill="none" stroke="black" points="10.5,-128.5 10.5,-207.5 91.5,-207.5 91.5,-128.5 10.5,-128.5"/>
<text text-anchor="middle" x="51" y="-195.5" font-family="Helvetica,sans-Serif" font-size="10.00">fmt::AlignSpec</text>
<polyline fill="none" stroke="black" points="10.5,-188.5 91.5,-188.5 "/>
<text text-anchor="start" x="18.5" y="-176.5" font-family="Helvetica,sans-Serif" font-size="10.00">+ align_</text>
<polyline fill="none" stroke="black" points="10.5,-169.5 91.5,-169.5 "/>
<text text-anchor="start" x="18.5" y="-157.5" font-family="Helvetica,sans-Serif" font-size="10.00">+ AlignSpec()</text>
<text text-anchor="start" x="18.5" y="-146.5" font-family="Helvetica,sans-Serif" font-size="10.00">+ align()</text>
<text text-anchor="start" x="18.5" y="-135.5" font-family="Helvetica,sans-Serif" font-size="10.00">+ precision()</text>
</a>
</g>
</g>
<!-- Node2&#45;&gt;Node1 -->
<g id="edge1" class="edge"><title>Node2&#45;&gt;Node1</title>
<path fill="none" stroke="midnightblue" d="M51,-118.176C51,-109.318 51,-100.123 51,-91.4012"/>
<polygon fill="none" stroke="midnightblue" points="47.5001,-118.371 51,-128.371 54.5001,-118.371 47.5001,-118.371"/>
</g>
<!-- Node3 -->
<g id="node3" class="node"><title>Node3</title>
<g id="a_node3"><a xlink:href="structfmt_1_1WidthSpec.html" target="_top" xlink:title="{fmt::WidthSpec\n|+ width_\l+ fill_\l|+ WidthSpec()\l+ width()\l+ fill()\l}">
<polygon fill="none" stroke="black" points="8.5,-245 8.5,-335 93.5,-335 93.5,-245 8.5,-245"/>
<text text-anchor="middle" x="51" y="-323" font-family="Helvetica,sans-Serif" font-size="10.00">fmt::WidthSpec</text>
<polyline fill="none" stroke="black" points="8.5,-316 93.5,-316 "/>
<text text-anchor="start" x="16.5" y="-304" font-family="Helvetica,sans-Serif" font-size="10.00">+ width_</text>
<text text-anchor="start" x="16.5" y="-293" font-family="Helvetica,sans-Serif" font-size="10.00">+ fill_</text>
<polyline fill="none" stroke="black" points="8.5,-286 93.5,-286 "/>
<text text-anchor="start" x="16.5" y="-274" font-family="Helvetica,sans-Serif" font-size="10.00">+ WidthSpec()</text>
<text text-anchor="start" x="16.5" y="-263" font-family="Helvetica,sans-Serif" font-size="10.00">+ width()</text>
<text text-anchor="start" x="16.5" y="-252" font-family="Helvetica,sans-Serif" font-size="10.00">+ fill()</text>
</a>
</g>
</g>
<!-- Node3&#45;&gt;Node2 -->
<g id="edge2" class="edge"><title>Node3&#45;&gt;Node2</title>
<path fill="none" stroke="midnightblue" d="M51,-234.844C51,-225.742 51,-216.459 51,-207.844"/>
<polygon fill="none" stroke="midnightblue" points="47.5001,-234.998 51,-244.998 54.5001,-234.998 47.5001,-234.998"/>
</g>
</g>
</svg>
