<?xml version="1.0" encoding="UTF-8" standalone="no"?>
<!DOCTYPE svg PUBLIC "-//W3C//DTD SVG 1.1//EN"
 "http://www.w3.org/Graphics/SVG/1.1/DTD/svg11.dtd">
<!-- Generated by graphviz version 2.36.0 (20140111.2315)
 -->
<!-- Title: fmt::AlignSpec Pages: 1 -->
<svg width="340pt" height="366pt"
 viewBox="0.00 0.00 340.00 366.00" xmlns="http://www.w3.org/2000/svg" xmlns:xlink="http://www.w3.org/1999/xlink">
<g id="graph0" class="graph" transform="scale(1 1) rotate(0) translate(4 362)">
<title>fmt::AlignSpec</title>
<!-- Node1 -->
<g id="node1" class="node"><title>Node1</title>
<polygon fill="#bfbfbf" stroke="black" points="125.5,-150.5 125.5,-229.5 206.5,-229.5 206.5,-150.5 125.5,-150.5"/>
<text text-anchor="middle" x="166" y="-217.5" font-family="Helvetica,sans-Serif" font-size="10.00">fmt::AlignSpec</text>
<polyline fill="none" stroke="black" points="125.5,-210.5 206.5,-210.5 "/>
<text text-anchor="start" x="133.5" y="-198.5" font-family="Helvetica,sans-Serif" font-size="10.00">+ align_</text>
<polyline fill="none" stroke="black" points="125.5,-191.5 206.5,-191.5 "/>
<text text-anchor="start" x="133.5" y="-179.5" font-family="Helvetica,sans-Serif" font-size="10.00">+ AlignSpec()</text>
<text text-anchor="start" x="133.5" y="-168.5" font-family="Helvetica,sans-Serif" font-size="10.00">+ align()</text>
<text text-anchor="start" x="133.5" y="-157.5" font-family="Helvetica,sans-Serif" font-size="10.00">+ precision()</text>
</g>
<!-- Node3 -->
<g id="node3" class="node"><title>Node3</title>
<g id="a_node3"><a xlink:href="structfmt_1_1AlignTypeSpec.html" target="_top" xlink:title="{fmt::AlignTypeSpec\l\&lt; TYPE \&gt;\n||+ AlignTypeSpec()\l+ flag()\l+ type()\l}">
<polygon fill="none" stroke="black" points="-0.5,-12 -0.5,-102 102.5,-102 102.5,-12 -0.5,-12"/>
<text text-anchor="start" x="7.5" y="-90" font-family="Helvetica,sans-Serif" font-size="10.00">fmt::AlignTypeSpec</text>
<text text-anchor="middle" x="51" y="-79" font-family="Helvetica,sans-Serif" font-size="10.00">&lt; TYPE &gt;</text>
<polyline fill="none" stroke="black" points="-0.5,-72 102.5,-72 "/>
<text text-anchor="middle" x="51" y="-60" font-family="Helvetica,sans-Serif" font-size="10.00"> </text>
<polyline fill="none" stroke="black" points="-0.5,-53 102.5,-53 "/>
<text text-anchor="start" x="7.5" y="-41" font-family="Helvetica,sans-Serif" font-size="10.00">+ AlignTypeSpec()</text>
<text text-anchor="start" x="7.5" y="-30" font-family="Helvetica,sans-Serif" font-size="10.00">+ flag()</text>
<text text-anchor="start" x="7.5" y="-19" font-family="Helvetica,sans-Serif" font-size="10.00">+ type()</text>
</a>
</g>
</g>
<!-- Node1&#45;&gt;Node3 -->
<g id="edge2" class="edge"><title>Node1&#45;&gt;Node3</title>
<path fill="none" stroke="midnightblue" d="M125.449,-142.807C113.897,-129.648 101.344,-115.348 89.8937,-102.305"/>
<polygon fill="none" stroke="midnightblue" points="122.891,-145.198 132.118,-150.404 128.151,-140.58 122.891,-145.198"/>
</g>
<!-- Node4 -->
<g id="node4" class="node"><title>Node4</title>
<g id="a_node4"><a xlink:href="structfmt_1_1FormatSpec.html" target="_top" xlink:title="{fmt::FormatSpec\n|+ flags_\l+ precision_\l+ type_\l|+ FormatSpec()\l+ flag()\l+ precision()\l+ type()\l}">
<polygon fill="none" stroke="black" points="121,-1 121,-113 211,-113 211,-1 121,-1"/>
<text text-anchor="middle" x="166" y="-101" font-family="Helvetica,sans-Serif" font-size="10.00">fmt::FormatSpec</text>
<polyline fill="none" stroke="black" points="121,-94 211,-94 "/>
<text text-anchor="start" x="129" y="-82" font-family="Helvetica,sans-Serif" font-size="10.00">+ flags_</text>
<text text-anchor="start" x="129" y="-71" font-family="Helvetica,sans-Serif" font-size="10.00">+ precision_</text>
<text text-anchor="start" x="129" y="-60" font-family="Helvetica,sans-Serif" font-size="10.00">+ type_</text>
<polyline fill="none" stroke="black" points="121,-53 211,-53 "/>
<text text-anchor="start" x="129" y="-41" font-family="Helvetica,sans-Serif" font-size="10.00">+ FormatSpec()</text>
<text text-anchor="start" x="129" y="-30" font-family="Helvetica,sans-Serif" font-size="10.00">+ flag()</text>
<text text-anchor="start" x="129" y="-19" font-family="Helvetica,sans-Serif" font-size="10.00">+ precision()</text>
<text text-anchor="start" x="129" y="-8" font-family="Helvetica,sans-Serif" font-size="10.00">+ type()</text>
</a>
</g>
</g>
<!-- Node1&#45;&gt;Node4 -->
<g id="edge3" class="edge"><title>Node1&#45;&gt;Node4</title>
<path fill="none" stroke="midnightblue" d="M166,-140.315C166,-131.514 166,-122.28 166,-113.307"/>
<polygon fill="none" stroke="midnightblue" points="162.5,-140.404 166,-150.404 169.5,-140.404 162.5,-140.404"/>
</g>
<!-- Node5 -->
<g id="node5" class="node"><title>Node5</title>
<g id="a_node5"><a xlink:href="classfmt_1_1StrFormatSpec.html" target="_top" xlink:title="{fmt::StrFormatSpec\l\&lt; Char \&gt;\n||+ StrFormatSpec()\l+ str()\l}">
<polygon fill="none" stroke="black" points="229.5,-17.5 229.5,-96.5 332.5,-96.5 332.5,-17.5 229.5,-17.5"/>
<text text-anchor="start" x="237.5" y="-84.5" font-family="Helvetica,sans-Serif" font-size="10.00">fmt::StrFormatSpec</text>
<text text-anchor="middle" x="281" y="-73.5" font-family="Helvetica,sans-Serif" font-size="10.00">&lt; Char &gt;</text>
<polyline fill="none" stroke="black" points="229.5,-66.5 332.5,-66.5 "/>
<text text-anchor="middle" x="281" y="-54.5" font-family="Helvetica,sans-Serif" font-size="10.00"> </text>
<polyline fill="none" stroke="black" points="229.5,-47.5 332.5,-47.5 "/>
<text text-anchor="start" x="237.5" y="-35.5" font-family="Helvetica,sans-Serif" font-size="10.00">+ StrFormatSpec()</text>
<text text-anchor="start" x="237.5" y="-24.5" font-family="Helvetica,sans-Serif" font-size="10.00">+ str()</text>
</a>
</g>
</g>
<!-- Node1&#45;&gt;Node5 -->
<g id="edge4" class="edge"><title>Node1&#45;&gt;Node5</title>
<path fill="none" stroke="midnightblue" d="M206.642,-142.703C219.827,-127.684 234.31,-111.186 246.963,-96.7726"/>
<polygon fill="none" stroke="midnightblue" points="203.849,-140.58 199.882,-150.404 209.109,-145.198 203.849,-140.58"/>
</g>
<!-- Node2 -->
<g id="node2" class="node"><title>Node2</title>
<g id="a_node2"><a xlink:href="structfmt_1_1WidthSpec.html" target="_top" xlink:title="{fmt::WidthSpec\n|+ width_\l+ fill_\l|+ WidthSpec()\l+ width()\l+ fill()\l}">
<polygon fill="none" stroke="black" points="123.5,-267 123.5,-357 208.5,-357 208.5,-267 123.5,-267"/>
<text text-anchor="middle" x="166" y="-345" font-family="Helvetica,sans-Serif" font-size="10.00">fmt::WidthSpec</text>
<polyline fill="none" stroke="black" points="123.5,-338 208.5,-338 "/>
<text text-anchor="start" x="131.5" y="-326" font-family="Helvetica,sans-Serif" font-size="10.00">+ width_</text>
<text text-anchor="start" x="131.5" y="-315" font-family="Helvetica,sans-Serif" font-size="10.00">+ fill_</text>
<polyline fill="none" stroke="black" points="123.5,-308 208.5,-308 "/>
<text text-anchor="start" x="131.5" y="-296" font-family="Helvetica,sans-Serif" font-size="10.00">+ WidthSpec()</text>
<text text-anchor="start" x="131.5" y="-285" font-family="Helvetica,sans-Serif" font-size="10.00">+ width()</text>
<text text-anchor="start" x="131.5" y="-274" font-family="Helvetica,sans-Serif" font-size="10.00">+ fill()</text>
</a>
</g>
</g>
<!-- Node2&#45;&gt;Node1 -->
<g id="edge1" class="edge"><title>Node2&#45;&gt;Node1</title>
<path fill="none" stroke="midnightblue" d="M166,-256.844C166,-247.742 166,-238.459 166,-229.844"/>
<polygon fill="none" stroke="midnightblue" points="162.5,-256.998 166,-266.998 169.5,-256.998 162.5,-256.998"/>
</g>
</g>
</svg>
