<?xml version="1.0" encoding="UTF-8" standalone="no"?>
<!DOCTYPE svg PUBLIC "-//W3C//DTD SVG 1.1//EN"
 "http://www.w3.org/Graphics/SVG/1.1/DTD/svg11.dtd">
<!-- Generated by graphviz version 2.38.0 (20140413.2041)
 -->
<!-- Title: fmt::EmptySpec Pages: 1 -->
<svg width="133pt" height="215pt"
 viewBox="0.00 0.00 133.00 215.00" xmlns="http://www.w3.org/2000/svg" xmlns:xlink="http://www.w3.org/1999/xlink">
<g id="graph0" class="graph" transform="scale(1 1) rotate(0) translate(4 211)">
<title>fmt::EmptySpec</title>
<!-- Node1 -->
<g id="node1" class="node"><title>Node1</title>
<polygon fill="#bfbfbf" stroke="black" points="18.5,-149.5 18.5,-206.5 106.5,-206.5 106.5,-149.5 18.5,-149.5"/>
<text text-anchor="middle" x="62.5" y="-194.5" font-family="Helvetica,sans-Serif" font-size="10.00">fmt::EmptySpec</text>
<polyline fill="none" stroke="black" points="18.5,-187.5 106.5,-187.5 "/>
<text text-anchor="middle" x="62.5" y="-175.5" font-family="Helvetica,sans-Serif" font-size="10.00"> </text>
<polyline fill="none" stroke="black" points="18.5,-168.5 106.5,-168.5 "/>
<text text-anchor="middle" x="62.5" y="-156.5" font-family="Helvetica,sans-Serif" font-size="10.00"> </text>
</g>
<!-- Node2 -->
<g id="node2" class="node"><title>Node2</title>
<g id="a_node2"><a xlink:href="structfmt_1_1TypeSpec.html" target="_top" xlink:title="{fmt::TypeSpec\&lt; TYPE \&gt;\n||+ align()\l+ width()\l+ precision()\l+ flag()\l+ type()\l+ fill()\l}">
<polygon fill="none" stroke="black" points="-7.10543e-15,-0.5 -7.10543e-15,-112.5 125,-112.5 125,-0.5 -7.10543e-15,-0.5"/>
<text text-anchor="middle" x="62.5" y="-100.5" font-family="Helvetica,sans-Serif" font-size="10.00">fmt::TypeSpec&lt; TYPE &gt;</text>
<polyline fill="none" stroke="black" points="-7.10543e-15,-93.5 125,-93.5 "/>
<text text-anchor="middle" x="62.5" y="-81.5" font-family="Helvetica,sans-Serif" font-size="10.00"> </text>
<polyline fill="none" stroke="black" points="-7.10543e-15,-74.5 125,-74.5 "/>
<text text-anchor="start" x="8" y="-62.5" font-family="Helvetica,sans-Serif" font-size="10.00">+ align()</text>
<text text-anchor="start" x="8" y="-51.5" font-family="Helvetica,sans-Serif" font-size="10.00">+ width()</text>
<text text-anchor="start" x="8" y="-40.5" font-family="Helvetica,sans-Serif" font-size="10.00">+ precision()</text>
<text text-anchor="start" x="8" y="-29.5" font-family="Helvetica,sans-Serif" font-size="10.00">+ flag()</text>
<text text-anchor="start" x="8" y="-18.5" font-family="Helvetica,sans-Serif" font-size="10.00">+ type()</text>
<text text-anchor="start" x="8" y="-7.5" font-family="Helvetica,sans-Serif" font-size="10.00">+ fill()</text>
</a>
</g>
</g>
<!-- Node1&#45;&gt;Node2 -->
<g id="edge1" class="edge"><title>Node1&#45;&gt;Node2</title>
<path fill="none" stroke="midnightblue" d="M62.5,-139.108C62.5,-130.748 62.5,-121.725 62.5,-112.834"/>
<polygon fill="none" stroke="midnightblue" points="59.0001,-139.284 62.5,-149.284 66.0001,-139.284 59.0001,-139.284"/>
</g>
</g>
</svg>
