<?xml version="1.0" encoding="UTF-8" standalone="no"?>
<!DOCTYPE svg PUBLIC "-//W3C//DTD SVG 1.1//EN"
 "http://www.w3.org/Graphics/SVG/1.1/DTD/svg11.dtd">
<!-- Generated by graphviz version 2.38.0 (20140413.2041)
 -->
<!-- Title: fmt::internal::Value Pages: 1 -->
<svg width="411pt" height="645pt"
 viewBox="0.00 0.00 411.00 645.00" xmlns="http://www.w3.org/2000/svg" xmlns:xlink="http://www.w3.org/1999/xlink">
<g id="graph0" class="graph" transform="scale(1 1) rotate(0) translate(4 641)">
<title>fmt::internal::Value</title>
<!-- Node1 -->
<g id="node1" class="node"><title>Node1</title>
<polygon fill="#bfbfbf" stroke="black" points="139.5,-447.5 139.5,-636.5 245.5,-636.5 245.5,-447.5 139.5,-447.5"/>
<text text-anchor="middle" x="192.5" y="-624.5" font-family="Helvetica,sans-Serif" font-size="10.00">fmt::internal::Value</text>
<polyline fill="none" stroke="black" points="139.5,-617.5 245.5,-617.5 "/>
<text text-anchor="start" x="147.5" y="-605.5" font-family="Helvetica,sans-Serif" font-size="10.00">+ int_value</text>
<text text-anchor="start" x="147.5" y="-594.5" font-family="Helvetica,sans-Serif" font-size="10.00">+ uint_value</text>
<text text-anchor="start" x="147.5" y="-583.5" font-family="Helvetica,sans-Serif" font-size="10.00">+ long_long_value</text>
<text text-anchor="start" x="147.5" y="-572.5" font-family="Helvetica,sans-Serif" font-size="10.00">+ ulong_long_value</text>
<text text-anchor="start" x="147.5" y="-561.5" font-family="Helvetica,sans-Serif" font-size="10.00">+ double_value</text>
<text text-anchor="start" x="147.5" y="-550.5" font-family="Helvetica,sans-Serif" font-size="10.00">+ long_double_value</text>
<text text-anchor="start" x="147.5" y="-539.5" font-family="Helvetica,sans-Serif" font-size="10.00">+ pointer</text>
<text text-anchor="start" x="147.5" y="-528.5" font-family="Helvetica,sans-Serif" font-size="10.00">+ string</text>
<text text-anchor="start" x="147.5" y="-517.5" font-family="Helvetica,sans-Serif" font-size="10.00">+ sstring</text>
<text text-anchor="start" x="147.5" y="-506.5" font-family="Helvetica,sans-Serif" font-size="10.00">+ ustring</text>
<text text-anchor="start" x="147.5" y="-495.5" font-family="Helvetica,sans-Serif" font-size="10.00">+ wstring</text>
<text text-anchor="start" x="147.5" y="-484.5" font-family="Helvetica,sans-Serif" font-size="10.00">+ custom</text>
<text text-anchor="start" x="147.5" y="-473.5" font-family="Helvetica,sans-Serif" font-size="10.00">+ @3</text>
<polyline fill="none" stroke="black" points="139.5,-466.5 245.5,-466.5 "/>
<text text-anchor="middle" x="192.5" y="-454.5" font-family="Helvetica,sans-Serif" font-size="10.00"> </text>
</g>
<!-- Node2 -->
<g id="node2" class="node"><title>Node2</title>
<g id="a_node2"><a xlink:href="structfmt_1_1internal_1_1Arg.html" target="_top" xlink:title="{fmt::internal::Arg\n|+ type\l|}">
<polygon fill="none" stroke="black" points="148,-353.5 148,-410.5 237,-410.5 237,-353.5 148,-353.5"/>
<text text-anchor="middle" x="192.5" y="-398.5" font-family="Helvetica,sans-Serif" font-size="10.00">fmt::internal::Arg</text>
<polyline fill="none" stroke="black" points="148,-391.5 237,-391.5 "/>
<text text-anchor="start" x="156" y="-379.5" font-family="Helvetica,sans-Serif" font-size="10.00">+ type</text>
<polyline fill="none" stroke="black" points="148,-372.5 237,-372.5 "/>
<text text-anchor="middle" x="192.5" y="-360.5" font-family="Helvetica,sans-Serif" font-size="10.00"> </text>
</a>
</g>
</g>
<!-- Node1&#45;&gt;Node2 -->
<g id="edge1" class="edge"><title>Node1&#45;&gt;Node2</title>
<path fill="none" stroke="midnightblue" d="M192.5,-437.128C192.5,-427.563 192.5,-418.539 192.5,-410.702"/>
<polygon fill="none" stroke="midnightblue" points="189,-437.265 192.5,-447.265 196,-437.265 189,-437.265"/>
</g>
<!-- Node3 -->
<g id="node3" class="node"><title>Node3</title>
<g id="a_node3"><a xlink:href="classfmt_1_1internal_1_1MakeArg.html" target="_top" xlink:title="{fmt::internal::MakeArg\l\&lt; Formatter \&gt;\n||+ MakeArg()\l+ MakeArg()\l}">
<polygon fill="none" stroke="black" points="0,-171.5 0,-250.5 113,-250.5 113,-171.5 0,-171.5"/>
<text text-anchor="start" x="8" y="-238.5" font-family="Helvetica,sans-Serif" font-size="10.00">fmt::internal::MakeArg</text>
<text text-anchor="middle" x="56.5" y="-227.5" font-family="Helvetica,sans-Serif" font-size="10.00">&lt; Formatter &gt;</text>
<polyline fill="none" stroke="black" points="0,-220.5 113,-220.5 "/>
<text text-anchor="middle" x="56.5" y="-208.5" font-family="Helvetica,sans-Serif" font-size="10.00"> </text>
<polyline fill="none" stroke="black" points="0,-201.5 113,-201.5 "/>
<text text-anchor="start" x="8" y="-189.5" font-family="Helvetica,sans-Serif" font-size="10.00">+ MakeArg()</text>
<text text-anchor="start" x="8" y="-178.5" font-family="Helvetica,sans-Serif" font-size="10.00">+ MakeArg()</text>
</a>
</g>
</g>
<!-- Node2&#45;&gt;Node3 -->
<g id="edge2" class="edge"><title>Node2&#45;&gt;Node3</title>
<path fill="none" stroke="midnightblue" d="M151.175,-346.616C141.265,-337.476 131.078,-327.274 122.5,-317 105.389,-296.505 89.3695,-271.23 77.3986,-250.613"/>
<polygon fill="none" stroke="midnightblue" points="148.901,-349.277 158.669,-353.381 153.592,-344.082 148.901,-349.277"/>
</g>
<!-- Node4 -->
<g id="node4" class="node"><title>Node4</title>
<g id="a_node4"><a xlink:href="classfmt_1_1internal_1_1MakeValue.html" target="_top" xlink:title="{fmt::internal::MakeValue\l\&lt; Formatter \&gt;\n||+ MakeValue()\l+ MakeValue()\l+ MakeValue()\l+ MakeValue()\l+ MakeValue()\l+ MakeValue()\l+ MakeValue()\l+ MakeValue()\l+ type()\l+ type()\l+ type()\l+ type()\l+ type()\l+ type()\l}">
<polygon fill="none" stroke="black" points="131,-105.5 131,-316.5 254,-316.5 254,-105.5 131,-105.5"/>
<text text-anchor="start" x="139" y="-304.5" font-family="Helvetica,sans-Serif" font-size="10.00">fmt::internal::MakeValue</text>
<text text-anchor="middle" x="192.5" y="-293.5" font-family="Helvetica,sans-Serif" font-size="10.00">&lt; Formatter &gt;</text>
<polyline fill="none" stroke="black" points="131,-286.5 254,-286.5 "/>
<text text-anchor="middle" x="192.5" y="-274.5" font-family="Helvetica,sans-Serif" font-size="10.00"> </text>
<polyline fill="none" stroke="black" points="131,-267.5 254,-267.5 "/>
<text text-anchor="start" x="139" y="-255.5" font-family="Helvetica,sans-Serif" font-size="10.00">+ MakeValue()</text>
<text text-anchor="start" x="139" y="-244.5" font-family="Helvetica,sans-Serif" font-size="10.00">+ MakeValue()</text>
<text text-anchor="start" x="139" y="-233.5" font-family="Helvetica,sans-Serif" font-size="10.00">+ MakeValue()</text>
<text text-anchor="start" x="139" y="-222.5" font-family="Helvetica,sans-Serif" font-size="10.00">+ MakeValue()</text>
<text text-anchor="start" x="139" y="-211.5" font-family="Helvetica,sans-Serif" font-size="10.00">+ MakeValue()</text>
<text text-anchor="start" x="139" y="-200.5" font-family="Helvetica,sans-Serif" font-size="10.00">+ MakeValue()</text>
<text text-anchor="start" x="139" y="-189.5" font-family="Helvetica,sans-Serif" font-size="10.00">+ MakeValue()</text>
<text text-anchor="start" x="139" y="-178.5" font-family="Helvetica,sans-Serif" font-size="10.00">+ MakeValue()</text>
<text text-anchor="start" x="139" y="-167.5" font-family="Helvetica,sans-Serif" font-size="10.00">+ type()</text>
<text text-anchor="start" x="139" y="-156.5" font-family="Helvetica,sans-Serif" font-size="10.00">+ type()</text>
<text text-anchor="start" x="139" y="-145.5" font-family="Helvetica,sans-Serif" font-size="10.00">+ type()</text>
<text text-anchor="start" x="139" y="-134.5" font-family="Helvetica,sans-Serif" font-size="10.00">+ type()</text>
<text text-anchor="start" x="139" y="-123.5" font-family="Helvetica,sans-Serif" font-size="10.00">+ type()</text>
<text text-anchor="start" x="139" y="-112.5" font-family="Helvetica,sans-Serif" font-size="10.00">+ type()</text>
</a>
</g>
</g>
<!-- Node2&#45;&gt;Node4 -->
<g id="edge3" class="edge"><title>Node2&#45;&gt;Node4</title>
<path fill="none" stroke="midnightblue" d="M192.5,-343.233C192.5,-335.038 192.5,-325.987 192.5,-316.584"/>
<polygon fill="none" stroke="midnightblue" points="189,-343.471 192.5,-353.471 196,-343.471 189,-343.471"/>
</g>
<!-- Node5 -->
<g id="node5" class="node"><title>Node5</title>
<g id="a_node5"><a xlink:href="structfmt_1_1internal_1_1NamedArg.html" target="_top" xlink:title="{fmt::internal::NamedArg\l\&lt; Char \&gt;\n|+ name\l|+ NamedArg()\l}">
<polygon fill="none" stroke="black" points="272,-177 272,-245 393,-245 393,-177 272,-177"/>
<text text-anchor="start" x="280" y="-233" font-family="Helvetica,sans-Serif" font-size="10.00">fmt::internal::NamedArg</text>
<text text-anchor="middle" x="332.5" y="-222" font-family="Helvetica,sans-Serif" font-size="10.00">&lt; Char &gt;</text>
<polyline fill="none" stroke="black" points="272,-215 393,-215 "/>
<text text-anchor="start" x="280" y="-203" font-family="Helvetica,sans-Serif" font-size="10.00">+ name</text>
<polyline fill="none" stroke="black" points="272,-196 393,-196 "/>
<text text-anchor="start" x="280" y="-184" font-family="Helvetica,sans-Serif" font-size="10.00">+ NamedArg()</text>
</a>
</g>
</g>
<!-- Node2&#45;&gt;Node5 -->
<g id="edge4" class="edge"><title>Node2&#45;&gt;Node5</title>
<path fill="none" stroke="midnightblue" d="M234.296,-346.562C244.351,-337.423 254.715,-327.236 263.5,-317 282.679,-294.655 300.818,-266.677 313.681,-245.222"/>
<polygon fill="none" stroke="midnightblue" points="231.838,-344.064 226.699,-353.329 236.494,-349.291 231.838,-344.064"/>
</g>
<!-- Node6 -->
<g id="node6" class="node"><title>Node6</title>
<g id="a_node6"><a xlink:href="structfmt_1_1internal_1_1NamedArgWithType.html" target="_top" xlink:title="{fmt::internal::NamedArgWith\lType\&lt; Char \&gt;\n||+ NamedArgWithType()\l}">
<polygon fill="none" stroke="black" points="262,-0.5 262,-68.5 403,-68.5 403,-0.5 262,-0.5"/>
<text text-anchor="start" x="270" y="-56.5" font-family="Helvetica,sans-Serif" font-size="10.00">fmt::internal::NamedArgWith</text>
<text text-anchor="middle" x="332.5" y="-45.5" font-family="Helvetica,sans-Serif" font-size="10.00">Type&lt; Char &gt;</text>
<polyline fill="none" stroke="black" points="262,-38.5 403,-38.5 "/>
<text text-anchor="middle" x="332.5" y="-26.5" font-family="Helvetica,sans-Serif" font-size="10.00"> </text>
<polyline fill="none" stroke="black" points="262,-19.5 403,-19.5 "/>
<text text-anchor="start" x="270" y="-7.5" font-family="Helvetica,sans-Serif" font-size="10.00">+ NamedArgWithType()</text>
</a>
</g>
</g>
<!-- Node5&#45;&gt;Node6 -->
<g id="edge5" class="edge"><title>Node5&#45;&gt;Node6</title>
<path fill="none" stroke="midnightblue" d="M332.5,-166.476C332.5,-136.161 332.5,-96.3486 332.5,-68.6091"/>
<polygon fill="none" stroke="midnightblue" points="329,-166.767 332.5,-176.767 336,-166.767 329,-166.767"/>
</g>
</g>
</svg>
