<?xml version="1.0" encoding="UTF-8" standalone="no"?>
<!DOCTYPE svg PUBLIC "-//W3C//DTD SVG 1.1//EN"
 "http://www.w3.org/Graphics/SVG/1.1/DTD/svg11.dtd">
<!-- Generated by graphviz version 2.36.0 (20140111.2315)
 -->
<!-- Title: fmt::internal::NamedArg&lt; Char &gt; Pages: 1 -->
<svg width="646pt" height="488pt"
 viewBox="0.00 0.00 646.00 488.00" xmlns="http://www.w3.org/2000/svg" xmlns:xlink="http://www.w3.org/1999/xlink">
<g id="graph0" class="graph" transform="scale(1 1) rotate(0) translate(4 484)">
<title>fmt::internal::NamedArg&lt; Char &gt;</title>
<!-- Node1 -->
<g id="node1" class="node"><title>Node1</title>
<polygon fill="#bfbfbf" stroke="black" points="247.5,-1 247.5,-69 368.5,-69 368.5,-1 247.5,-1"/>
<text text-anchor="start" x="255.5" y="-57" font-family="Helvetica,sans-Serif" font-size="10.00">fmt::internal::NamedArg</text>
<text text-anchor="middle" x="308" y="-46" font-family="Helvetica,sans-Serif" font-size="10.00">&lt; Char &gt;</text>
<polyline fill="none" stroke="black" points="247.5,-39 368.5,-39 "/>
<text text-anchor="start" x="255.5" y="-27" font-family="Helvetica,sans-Serif" font-size="10.00">+ name</text>
<polyline fill="none" stroke="black" points="247.5,-20 368.5,-20 "/>
<text text-anchor="start" x="255.5" y="-8" font-family="Helvetica,sans-Serif" font-size="10.00">+ NamedArg()</text>
</g>
<!-- Node2 -->
<g id="node2" class="node"><title>Node2</title>
<g id="a_node2"><a xlink:href="structfmt_1_1internal_1_1Arg.html" target="_top" xlink:title="{fmt::internal::Arg\n|+ type\l|}">
<polygon fill="none" stroke="black" points="263.5,-108.5 263.5,-165.5 352.5,-165.5 352.5,-108.5 263.5,-108.5"/>
<text text-anchor="middle" x="308" y="-153.5" font-family="Helvetica,sans-Serif" font-size="10.00">fmt::internal::Arg</text>
<polyline fill="none" stroke="black" points="263.5,-146.5 352.5,-146.5 "/>
<text text-anchor="start" x="271.5" y="-134.5" font-family="Helvetica,sans-Serif" font-size="10.00">+ type</text>
<polyline fill="none" stroke="black" points="263.5,-127.5 352.5,-127.5 "/>
<text text-anchor="middle" x="308" y="-115.5" font-family="Helvetica,sans-Serif" font-size="10.00"> </text>
</a>
</g>
</g>
<!-- Node2&#45;&gt;Node1 -->
<g id="edge1" class="edge"><title>Node2&#45;&gt;Node1</title>
<path fill="none" stroke="midnightblue" d="M308,-98.3375C308,-88.7551 308,-78.5279 308,-69.1868"/>
<polygon fill="none" stroke="midnightblue" points="304.5,-98.4098 308,-108.41 311.5,-98.4099 304.5,-98.4098"/>
</g>
<!-- Node3 -->
<g id="node3" class="node"><title>Node3</title>
<g id="a_node3"><a xlink:href="structfmt_1_1internal_1_1Value.html" target="_top" xlink:title="{fmt::internal::Value\n|+ int_value\l+ uint_value\l+ long_long_value\l+ ulong_long_value\l+ double_value\l+ long_double_value\l+ pointer\l+ @3\l|}">
<polygon fill="none" stroke="black" points="255,-205 255,-339 361,-339 361,-205 255,-205"/>
<text text-anchor="middle" x="308" y="-327" font-family="Helvetica,sans-Serif" font-size="10.00">fmt::internal::Value</text>
<polyline fill="none" stroke="black" points="255,-320 361,-320 "/>
<text text-anchor="start" x="263" y="-308" font-family="Helvetica,sans-Serif" font-size="10.00">+ int_value</text>
<text text-anchor="start" x="263" y="-297" font-family="Helvetica,sans-Serif" font-size="10.00">+ uint_value</text>
<text text-anchor="start" x="263" y="-286" font-family="Helvetica,sans-Serif" font-size="10.00">+ long_long_value</text>
<text text-anchor="start" x="263" y="-275" font-family="Helvetica,sans-Serif" font-size="10.00">+ ulong_long_value</text>
<text text-anchor="start" x="263" y="-264" font-family="Helvetica,sans-Serif" font-size="10.00">+ double_value</text>
<text text-anchor="start" x="263" y="-253" font-family="Helvetica,sans-Serif" font-size="10.00">+ long_double_value</text>
<text text-anchor="start" x="263" y="-242" font-family="Helvetica,sans-Serif" font-size="10.00">+ pointer</text>
<text text-anchor="start" x="263" y="-231" font-family="Helvetica,sans-Serif" font-size="10.00">+ @3</text>
<polyline fill="none" stroke="black" points="255,-224 361,-224 "/>
<text text-anchor="middle" x="308" y="-212" font-family="Helvetica,sans-Serif" font-size="10.00"> </text>
</a>
</g>
</g>
<!-- Node3&#45;&gt;Node2 -->
<g id="edge2" class="edge"><title>Node3&#45;&gt;Node2</title>
<path fill="none" stroke="midnightblue" d="M308,-194.878C308,-184.502 308,-174.445 308,-165.747"/>
<polygon fill="none" stroke="midnightblue" points="304.5,-194.89 308,-204.89 311.5,-194.89 304.5,-194.89"/>
</g>
<!-- Node4 -->
<g id="node4" class="node"><title>Node4</title>
<g id="a_node4"><a xlink:href="structfmt_1_1internal_1_1Value_1_1StringValue.html" target="_top" xlink:title="{fmt::internal::Value\l::StringValue\&lt; signed\l char \&gt;\n|+ value\l+ size\l|}">
<polygon fill="none" stroke="black" points="0,-389 0,-479 110,-479 110,-389 0,-389"/>
<text text-anchor="start" x="8" y="-467" font-family="Helvetica,sans-Serif" font-size="10.00">fmt::internal::Value</text>
<text text-anchor="start" x="8" y="-456" font-family="Helvetica,sans-Serif" font-size="10.00">::StringValue&lt; signed</text>
<text text-anchor="middle" x="55" y="-445" font-family="Helvetica,sans-Serif" font-size="10.00"> char &gt;</text>
<polyline fill="none" stroke="black" points="0,-438 110,-438 "/>
<text text-anchor="start" x="8" y="-426" font-family="Helvetica,sans-Serif" font-size="10.00">+ value</text>
<text text-anchor="start" x="8" y="-415" font-family="Helvetica,sans-Serif" font-size="10.00">+ size</text>
<polyline fill="none" stroke="black" points="0,-408 110,-408 "/>
<text text-anchor="middle" x="55" y="-396" font-family="Helvetica,sans-Serif" font-size="10.00"> </text>
</a>
</g>
</g>
<!-- Node4&#45;&gt;Node3 -->
<g id="edge3" class="edge"><title>Node4&#45;&gt;Node3</title>
<path fill="none" stroke="#404040" d="M110.349,-393.747C113.263,-391.786 116.159,-389.86 119,-388 160.092,-361.094 207.29,-332.374 244.242,-310.365"/>
<polygon fill="none" stroke="#404040" points="244.552,-310.18 247.668,-303.677 254.869,-304.052 251.754,-310.555 244.552,-310.18"/>
<text text-anchor="middle" x="185.5" y="-361.5" font-family="Helvetica,sans-Serif" font-size="10.00"> +sstring</text>
</g>
<!-- Node5 -->
<g id="node5" class="node"><title>Node5</title>
<g id="a_node5"><a xlink:href="structfmt_1_1internal_1_1Value_1_1CustomValue.html" target="_top" xlink:title="{fmt::internal::Value\l::CustomValue\n|+ value\l+ format\l|}">
<polygon fill="none" stroke="black" points="128.5,-394.5 128.5,-473.5 227.5,-473.5 227.5,-394.5 128.5,-394.5"/>
<text text-anchor="start" x="136.5" y="-461.5" font-family="Helvetica,sans-Serif" font-size="10.00">fmt::internal::Value</text>
<text text-anchor="middle" x="178" y="-450.5" font-family="Helvetica,sans-Serif" font-size="10.00">::CustomValue</text>
<polyline fill="none" stroke="black" points="128.5,-443.5 227.5,-443.5 "/>
<text text-anchor="start" x="136.5" y="-431.5" font-family="Helvetica,sans-Serif" font-size="10.00">+ value</text>
<text text-anchor="start" x="136.5" y="-420.5" font-family="Helvetica,sans-Serif" font-size="10.00">+ format</text>
<polyline fill="none" stroke="black" points="128.5,-413.5 227.5,-413.5 "/>
<text text-anchor="middle" x="178" y="-401.5" font-family="Helvetica,sans-Serif" font-size="10.00"> </text>
</a>
</g>
</g>
<!-- Node5&#45;&gt;Node3 -->
<g id="edge4" class="edge"><title>Node5&#45;&gt;Node3</title>
<path fill="none" stroke="#404040" d="M209.469,-394.268C220.839,-380.275 234.094,-363.962 247.126,-347.922"/>
<polygon fill="none" stroke="#404040" points="247.191,-347.842 247.87,-340.663 254.758,-338.529 254.079,-345.708 247.191,-347.842"/>
<text text-anchor="middle" x="257" y="-361.5" font-family="Helvetica,sans-Serif" font-size="10.00"> +custom</text>
</g>
<!-- Node6 -->
<g id="node6" class="node"><title>Node6</title>
<g id="a_node6"><a xlink:href="structfmt_1_1internal_1_1Value_1_1StringValue.html" target="_top" xlink:title="{fmt::internal::Value\l::StringValue\&lt; wchar_t \&gt;\n|+ value\l+ size\l|}">
<polygon fill="none" stroke="black" points="245.5,-394.5 245.5,-473.5 370.5,-473.5 370.5,-394.5 245.5,-394.5"/>
<text text-anchor="start" x="253.5" y="-461.5" font-family="Helvetica,sans-Serif" font-size="10.00">fmt::internal::Value</text>
<text text-anchor="middle" x="308" y="-450.5" font-family="Helvetica,sans-Serif" font-size="10.00">::StringValue&lt; wchar_t &gt;</text>
<polyline fill="none" stroke="black" points="245.5,-443.5 370.5,-443.5 "/>
<text text-anchor="start" x="253.5" y="-431.5" font-family="Helvetica,sans-Serif" font-size="10.00">+ value</text>
<text text-anchor="start" x="253.5" y="-420.5" font-family="Helvetica,sans-Serif" font-size="10.00">+ size</text>
<polyline fill="none" stroke="black" points="245.5,-413.5 370.5,-413.5 "/>
<text text-anchor="middle" x="308" y="-401.5" font-family="Helvetica,sans-Serif" font-size="10.00"> </text>
</a>
</g>
</g>
<!-- Node6&#45;&gt;Node3 -->
<g id="edge5" class="edge"><title>Node6&#45;&gt;Node3</title>
<path fill="none" stroke="#404040" d="M308,-394.268C308,-381.335 308,-366.42 308,-351.57"/>
<polygon fill="none" stroke="#404040" points="308,-351.157 304,-345.157 308,-339.157 312,-345.157 308,-351.157"/>
<text text-anchor="middle" x="328.5" y="-361.5" font-family="Helvetica,sans-Serif" font-size="10.00"> +wstring</text>
</g>
<!-- Node7 -->
<g id="node7" class="node"><title>Node7</title>
<g id="a_node7"><a xlink:href="structfmt_1_1internal_1_1Value_1_1StringValue.html" target="_top" xlink:title="{fmt::internal::Value\l::StringValue\&lt; unsigned\l char \&gt;\n|+ value\l+ size\l|}">
<polygon fill="none" stroke="black" points="388.5,-389 388.5,-479 509.5,-479 509.5,-389 388.5,-389"/>
<text text-anchor="start" x="396.5" y="-467" font-family="Helvetica,sans-Serif" font-size="10.00">fmt::internal::Value</text>
<text text-anchor="start" x="396.5" y="-456" font-family="Helvetica,sans-Serif" font-size="10.00">::StringValue&lt; unsigned</text>
<text text-anchor="middle" x="449" y="-445" font-family="Helvetica,sans-Serif" font-size="10.00"> char &gt;</text>
<polyline fill="none" stroke="black" points="388.5,-438 509.5,-438 "/>
<text text-anchor="start" x="396.5" y="-426" font-family="Helvetica,sans-Serif" font-size="10.00">+ value</text>
<text text-anchor="start" x="396.5" y="-415" font-family="Helvetica,sans-Serif" font-size="10.00">+ size</text>
<polyline fill="none" stroke="black" points="388.5,-408 509.5,-408 "/>
<text text-anchor="middle" x="449" y="-396" font-family="Helvetica,sans-Serif" font-size="10.00"> </text>
</a>
</g>
</g>
<!-- Node7&#45;&gt;Node3 -->
<g id="edge6" class="edge"><title>Node7&#45;&gt;Node3</title>
<path fill="none" stroke="#404040" d="M410.098,-388.856C397.424,-374.474 383.032,-358.142 369.134,-342.372"/>
<polygon fill="none" stroke="#404040" points="368.959,-342.173 361.991,-340.316 361.025,-333.17 367.993,-335.027 368.959,-342.173"/>
<text text-anchor="middle" x="411.5" y="-361.5" font-family="Helvetica,sans-Serif" font-size="10.00"> +ustring</text>
</g>
<!-- Node8 -->
<g id="node8" class="node"><title>Node8</title>
<g id="a_node8"><a xlink:href="structfmt_1_1internal_1_1Value_1_1StringValue.html" target="_top" xlink:title="{fmt::internal::Value\l::StringValue\&lt; char \&gt;\n|+ value\l+ size\l|}">
<polygon fill="none" stroke="black" points="528,-394.5 528,-473.5 638,-473.5 638,-394.5 528,-394.5"/>
<text text-anchor="start" x="536" y="-461.5" font-family="Helvetica,sans-Serif" font-size="10.00">fmt::internal::Value</text>
<text text-anchor="middle" x="583" y="-450.5" font-family="Helvetica,sans-Serif" font-size="10.00">::StringValue&lt; char &gt;</text>
<polyline fill="none" stroke="black" points="528,-443.5 638,-443.5 "/>
<text text-anchor="start" x="536" y="-431.5" font-family="Helvetica,sans-Serif" font-size="10.00">+ value</text>
<text text-anchor="start" x="536" y="-420.5" font-family="Helvetica,sans-Serif" font-size="10.00">+ size</text>
<polyline fill="none" stroke="black" points="528,-413.5 638,-413.5 "/>
<text text-anchor="middle" x="583" y="-401.5" font-family="Helvetica,sans-Serif" font-size="10.00"> </text>
</a>
</g>
</g>
<!-- Node8&#45;&gt;Node3 -->
<g id="edge7" class="edge"><title>Node8&#45;&gt;Node3</title>
<path fill="none" stroke="#404040" d="M527.943,-394.303C524.602,-392.135 521.27,-390.019 518,-388 470.013,-358.362 413.899,-327.835 371.754,-305.687"/>
<polygon fill="none" stroke="#404040" points="371.712,-305.665 364.541,-306.426 361.081,-300.1 368.252,-299.339 371.712,-305.665"/>
<text text-anchor="middle" x="502" y="-361.5" font-family="Helvetica,sans-Serif" font-size="10.00"> +string</text>
</g>
</g>
</svg>
