<?xml version="1.0" encoding="UTF-8" standalone="no"?>
<!DOCTYPE svg PUBLIC "-//W3C//DTD SVG 1.1//EN"
 "http://www.w3.org/Graphics/SVG/1.1/DTD/svg11.dtd">
<!-- Generated by graphviz version 2.36.0 (20140111.2315)
 -->
<!-- Title: fmt::AlignSpec Pages: 1 -->
<svg width="92pt" height="216pt"
 viewBox="0.00 0.00 92.00 216.00" xmlns="http://www.w3.org/2000/svg" xmlns:xlink="http://www.w3.org/1999/xlink">
<g id="graph0" class="graph" transform="scale(1 1) rotate(0) translate(4 212)">
<title>fmt::AlignSpec</title>
<!-- Node1 -->
<g id="node1" class="node"><title>Node1</title>
<polygon fill="#bfbfbf" stroke="black" points="1.5,-0.5 1.5,-79.5 82.5,-79.5 82.5,-0.5 1.5,-0.5"/>
<text text-anchor="middle" x="42" y="-67.5" font-family="Helvetica,sans-Serif" font-size="10.00">fmt::AlignSpec</text>
<polyline fill="none" stroke="black" points="1.5,-60.5 82.5,-60.5 "/>
<text text-anchor="start" x="9.5" y="-48.5" font-family="Helvetica,sans-Serif" font-size="10.00">+ align_</text>
<polyline fill="none" stroke="black" points="1.5,-41.5 82.5,-41.5 "/>
<text text-anchor="start" x="9.5" y="-29.5" font-family="Helvetica,sans-Serif" font-size="10.00">+ AlignSpec()</text>
<text text-anchor="start" x="9.5" y="-18.5" font-family="Helvetica,sans-Serif" font-size="10.00">+ align()</text>
<text text-anchor="start" x="9.5" y="-7.5" font-family="Helvetica,sans-Serif" font-size="10.00">+ precision()</text>
</g>
<!-- Node2 -->
<g id="node2" class="node"><title>Node2</title>
<g id="a_node2"><a xlink:href="structfmt_1_1WidthSpec.html" target="_top" xlink:title="{fmt::WidthSpec\n|+ width_\l+ fill_\l|+ WidthSpec()\l+ width()\l+ fill()\l}">
<polygon fill="none" stroke="black" points="-0.5,-117 -0.5,-207 84.5,-207 84.5,-117 -0.5,-117"/>
<text text-anchor="middle" x="42" y="-195" font-family="Helvetica,sans-Serif" font-size="10.00">fmt::WidthSpec</text>
<polyline fill="none" stroke="black" points="-0.5,-188 84.5,-188 "/>
<text text-anchor="start" x="7.5" y="-176" font-family="Helvetica,sans-Serif" font-size="10.00">+ width_</text>
<text text-anchor="start" x="7.5" y="-165" font-family="Helvetica,sans-Serif" font-size="10.00">+ fill_</text>
<polyline fill="none" stroke="black" points="-0.5,-158 84.5,-158 "/>
<text text-anchor="start" x="7.5" y="-146" font-family="Helvetica,sans-Serif" font-size="10.00">+ WidthSpec()</text>
<text text-anchor="start" x="7.5" y="-135" font-family="Helvetica,sans-Serif" font-size="10.00">+ width()</text>
<text text-anchor="start" x="7.5" y="-124" font-family="Helvetica,sans-Serif" font-size="10.00">+ fill()</text>
</a>
</g>
</g>
<!-- Node2&#45;&gt;Node1 -->
<g id="edge1" class="edge"><title>Node2&#45;&gt;Node1</title>
<path fill="none" stroke="midnightblue" d="M42,-106.844C42,-97.7422 42,-88.4594 42,-79.844"/>
<polygon fill="none" stroke="midnightblue" points="38.5001,-106.998 42,-116.998 45.5001,-106.998 38.5001,-106.998"/>
</g>
</g>
</svg>
