<?xml version="1.0" encoding="UTF-8" standalone="no"?>
<!DOCTYPE svg PUBLIC "-//W3C//DTD SVG 1.1//EN"
 "http://www.w3.org/Graphics/SVG/1.1/DTD/svg11.dtd">
<!-- Generated by graphviz version 2.36.0 (20140111.2315)
 -->
<!-- Title: fmt::internal::Value::StringValue&lt; Char &gt; Pages: 1 -->
<svg width="118pt" height="184pt"
 viewBox="0.00 0.00 118.00 184.00" xmlns="http://www.w3.org/2000/svg" xmlns:xlink="http://www.w3.org/1999/xlink">
<g id="graph0" class="graph" transform="scale(1 1) rotate(0) translate(4 180)">
<title>fmt::internal::Value::StringValue&lt; Char &gt;</title>
<!-- Node1 -->
<g id="node1" class="node"><title>Node1</title>
<polygon fill="#bfbfbf" stroke="black" points="-1,-1 -1,-69 111,-69 111,-1 -1,-1"/>
<text text-anchor="start" x="7" y="-57" font-family="Helvetica,sans-Serif" font-size="10.00">fmt::internal::Value</text>
<text text-anchor="middle" x="55" y="-46" font-family="Helvetica,sans-Serif" font-size="10.00">::StringValue&lt; Char &gt;</text>
<polyline fill="none" stroke="black" points="-1,-39 111,-39 "/>
<text text-anchor="start" x="7" y="-27" font-family="Helvetica,sans-Serif" font-size="10.00">+ size</text>
<polyline fill="none" stroke="black" points="-1,-20 111,-20 "/>
<text text-anchor="middle" x="55" y="-8" font-family="Helvetica,sans-Serif" font-size="10.00"> </text>
</g>
<!-- Node2 -->
<g id="node2" class="node"><title>Node2</title>
<polygon fill="none" stroke="#bfbfbf" points="36,-118.5 36,-175.5 74,-175.5 74,-118.5 36,-118.5"/>
<text text-anchor="middle" x="55" y="-163.5" font-family="Helvetica,sans-Serif" font-size="10.00">Char</text>
<polyline fill="none" stroke="#bfbfbf" points="36,-156.5 74,-156.5 "/>
<text text-anchor="middle" x="55" y="-144.5" font-family="Helvetica,sans-Serif" font-size="10.00"> </text>
<polyline fill="none" stroke="#bfbfbf" points="36,-137.5 74,-137.5 "/>
<text text-anchor="middle" x="55" y="-125.5" font-family="Helvetica,sans-Serif" font-size="10.00"> </text>
</g>
<!-- Node2&#45;&gt;Node1 -->
<g id="edge1" class="edge"><title>Node2&#45;&gt;Node1</title>
<path fill="none" stroke="#404040" d="M55,-118.242C55,-107.073 55,-93.8972 55,-81.4036"/>
<polygon fill="none" stroke="#404040" points="55.0001,-81.2368 51,-75.2368 55,-69.2368 59,-75.2367 55.0001,-81.2368"/>
<text text-anchor="middle" x="71.5" y="-91.5" font-family="Helvetica,sans-Serif" font-size="10.00"> +value</text>
</g>
</g>
</svg>
