<?xml version="1.0" encoding="UTF-8" standalone="no"?>
<!DOCTYPE svg PUBLIC "-//W3C//DTD SVG 1.1//EN"
 "http://www.w3.org/Graphics/SVG/1.1/DTD/svg11.dtd">
<!-- Generated by graphviz version 2.38.0 (20140413.2041)
 -->
<!-- Title: fmt::FormatSpec Pages: 1 -->
<svg width="98pt" height="364pt"
 viewBox="0.00 0.00 98.00 364.00" xmlns="http://www.w3.org/2000/svg" xmlns:xlink="http://www.w3.org/1999/xlink">
<g id="graph0" class="graph" transform="scale(1 1) rotate(0) translate(4 360)">
<title>fmt::FormatSpec</title>
<!-- Node1 -->
<g id="node1" class="node"><title>Node1</title>
<polygon fill="#bfbfbf" stroke="black" points="0,-0.5 0,-112.5 90,-112.5 90,-0.5 0,-0.5"/>
<text text-anchor="middle" x="45" y="-100.5" font-family="Helvetica,sans-Serif" font-size="10.00">fmt::FormatSpec</text>
<polyline fill="none" stroke="black" points="0,-93.5 90,-93.5 "/>
<text text-anchor="start" x="8" y="-81.5" font-family="Helvetica,sans-Serif" font-size="10.00">+ flags_</text>
<text text-anchor="start" x="8" y="-70.5" font-family="Helvetica,sans-Serif" font-size="10.00">+ precision_</text>
<text text-anchor="start" x="8" y="-59.5" font-family="Helvetica,sans-Serif" font-size="10.00">+ type_</text>
<polyline fill="none" stroke="black" points="0,-52.5 90,-52.5 "/>
<text text-anchor="start" x="8" y="-40.5" font-family="Helvetica,sans-Serif" font-size="10.00">+ FormatSpec()</text>
<text text-anchor="start" x="8" y="-29.5" font-family="Helvetica,sans-Serif" font-size="10.00">+ flag()</text>
<text text-anchor="start" x="8" y="-18.5" font-family="Helvetica,sans-Serif" font-size="10.00">+ precision()</text>
<text text-anchor="start" x="8" y="-7.5" font-family="Helvetica,sans-Serif" font-size="10.00">+ type()</text>
</g>
<!-- Node2 -->
<g id="node2" class="node"><title>Node2</title>
<g id="a_node2"><a xlink:href="structfmt_1_1AlignSpec.html" target="_top" xlink:title="{fmt::AlignSpec\n|+ align_\l|+ AlignSpec()\l+ align()\l+ precision()\l}">
<polygon fill="none" stroke="black" points="4.5,-149.5 4.5,-228.5 85.5,-228.5 85.5,-149.5 4.5,-149.5"/>
<text text-anchor="middle" x="45" y="-216.5" font-family="Helvetica,sans-Serif" font-size="10.00">fmt::AlignSpec</text>
<polyline fill="none" stroke="black" points="4.5,-209.5 85.5,-209.5 "/>
<text text-anchor="start" x="12.5" y="-197.5" font-family="Helvetica,sans-Serif" font-size="10.00">+ align_</text>
<polyline fill="none" stroke="black" points="4.5,-190.5 85.5,-190.5 "/>
<text text-anchor="start" x="12.5" y="-178.5" font-family="Helvetica,sans-Serif" font-size="10.00">+ AlignSpec()</text>
<text text-anchor="start" x="12.5" y="-167.5" font-family="Helvetica,sans-Serif" font-size="10.00">+ align()</text>
<text text-anchor="start" x="12.5" y="-156.5" font-family="Helvetica,sans-Serif" font-size="10.00">+ precision()</text>
</a>
</g>
</g>
<!-- Node2&#45;&gt;Node1 -->
<g id="edge1" class="edge"><title>Node2&#45;&gt;Node1</title>
<path fill="none" stroke="midnightblue" d="M45,-139.012C45,-130.464 45,-121.518 45,-112.814"/>
<polygon fill="none" stroke="midnightblue" points="41.5001,-139.199 45,-149.199 48.5001,-139.199 41.5001,-139.199"/>
</g>
<!-- Node3 -->
<g id="node3" class="node"><title>Node3</title>
<g id="a_node3"><a xlink:href="structfmt_1_1WidthSpec.html" target="_top" xlink:title="{fmt::WidthSpec\n|+ width_\l+ fill_\l|+ WidthSpec()\l+ width()\l+ fill()\l}">
<polygon fill="none" stroke="black" points="2.5,-265.5 2.5,-355.5 87.5,-355.5 87.5,-265.5 2.5,-265.5"/>
<text text-anchor="middle" x="45" y="-343.5" font-family="Helvetica,sans-Serif" font-size="10.00">fmt::WidthSpec</text>
<polyline fill="none" stroke="black" points="2.5,-336.5 87.5,-336.5 "/>
<text text-anchor="start" x="10.5" y="-324.5" font-family="Helvetica,sans-Serif" font-size="10.00">+ width_</text>
<text text-anchor="start" x="10.5" y="-313.5" font-family="Helvetica,sans-Serif" font-size="10.00">+ fill_</text>
<polyline fill="none" stroke="black" points="2.5,-306.5 87.5,-306.5 "/>
<text text-anchor="start" x="10.5" y="-294.5" font-family="Helvetica,sans-Serif" font-size="10.00">+ WidthSpec()</text>
<text text-anchor="start" x="10.5" y="-283.5" font-family="Helvetica,sans-Serif" font-size="10.00">+ width()</text>
<text text-anchor="start" x="10.5" y="-272.5" font-family="Helvetica,sans-Serif" font-size="10.00">+ fill()</text>
</a>
</g>
</g>
<!-- Node3&#45;&gt;Node2 -->
<g id="edge2" class="edge"><title>Node3&#45;&gt;Node2</title>
<path fill="none" stroke="midnightblue" d="M45,-255.079C45,-246.234 45,-237.233 45,-228.858"/>
<polygon fill="none" stroke="midnightblue" points="41.5001,-255.342 45,-265.342 48.5001,-255.342 41.5001,-255.342"/>
</g>
</g>
</svg>
