<?xml version="1.0" encoding="UTF-8" standalone="no"?>
<!DOCTYPE svg PUBLIC "-//W3C//DTD SVG 1.1//EN"
 "http://www.w3.org/Graphics/SVG/1.1/DTD/svg11.dtd">
<!-- Generated by graphviz version 2.36.0 (20140111.2315)
 -->
<!-- Title: fmt::internal::NamedArg&lt; Char &gt; Pages: 1 -->
<svg width="148pt" height="504pt"
 viewBox="0.00 0.00 148.00 504.00" xmlns="http://www.w3.org/2000/svg" xmlns:xlink="http://www.w3.org/1999/xlink">
<g id="graph0" class="graph" transform="scale(1 1) rotate(0) translate(4 500)">
<title>fmt::internal::NamedArg&lt; Char &gt;</title>
<!-- Node1 -->
<g id="node1" class="node"><title>Node1</title>
<polygon fill="#bfbfbf" stroke="black" points="9.5,-107 9.5,-175 130.5,-175 130.5,-107 9.5,-107"/>
<text text-anchor="start" x="17.5" y="-163" font-family="Helvetica,sans-Serif" font-size="10.00">fmt::internal::NamedArg</text>
<text text-anchor="middle" x="70" y="-152" font-family="Helvetica,sans-Serif" font-size="10.00">&lt; Char &gt;</text>
<polyline fill="none" stroke="black" points="9.5,-145 130.5,-145 "/>
<text text-anchor="start" x="17.5" y="-133" font-family="Helvetica,sans-Serif" font-size="10.00">+ name</text>
<polyline fill="none" stroke="black" points="9.5,-126 130.5,-126 "/>
<text text-anchor="start" x="17.5" y="-114" font-family="Helvetica,sans-Serif" font-size="10.00">+ NamedArg()</text>
</g>
<!-- Node4 -->
<g id="node4" class="node"><title>Node4</title>
<g id="a_node4"><a xlink:href="structfmt_1_1internal_1_1NamedArgWithType.html" target="_top" xlink:title="{fmt::internal::NamedArgWith\lType\&lt; Char \&gt;\n||+ NamedArgWithType()\l}">
<polygon fill="none" stroke="black" points="-0.5,-1 -0.5,-69 140.5,-69 140.5,-1 -0.5,-1"/>
<text text-anchor="start" x="7.5" y="-57" font-family="Helvetica,sans-Serif" font-size="10.00">fmt::internal::NamedArgWith</text>
<text text-anchor="middle" x="70" y="-46" font-family="Helvetica,sans-Serif" font-size="10.00">Type&lt; Char &gt;</text>
<polyline fill="none" stroke="black" points="-0.5,-39 140.5,-39 "/>
<text text-anchor="middle" x="70" y="-27" font-family="Helvetica,sans-Serif" font-size="10.00"> </text>
<polyline fill="none" stroke="black" points="-0.5,-20 140.5,-20 "/>
<text text-anchor="start" x="7.5" y="-8" font-family="Helvetica,sans-Serif" font-size="10.00">+ NamedArgWithType()</text>
</a>
</g>
</g>
<!-- Node1&#45;&gt;Node4 -->
<g id="edge3" class="edge"><title>Node1&#45;&gt;Node4</title>
<path fill="none" stroke="midnightblue" d="M70,-96.6737C70,-87.5025 70,-77.9608 70,-69.2336"/>
<polygon fill="none" stroke="midnightblue" points="66.5001,-96.8078 70,-106.808 73.5001,-96.8078 66.5001,-96.8078"/>
</g>
<!-- Node2 -->
<g id="node2" class="node"><title>Node2</title>
<g id="a_node2"><a xlink:href="structfmt_1_1internal_1_1Arg.html" target="_top" xlink:title="{fmt::internal::Arg\n|+ type\l|}">
<polygon fill="none" stroke="black" points="25.5,-212.5 25.5,-269.5 114.5,-269.5 114.5,-212.5 25.5,-212.5"/>
<text text-anchor="middle" x="70" y="-257.5" font-family="Helvetica,sans-Serif" font-size="10.00">fmt::internal::Arg</text>
<polyline fill="none" stroke="black" points="25.5,-250.5 114.5,-250.5 "/>
<text text-anchor="start" x="33.5" y="-238.5" font-family="Helvetica,sans-Serif" font-size="10.00">+ type</text>
<polyline fill="none" stroke="black" points="25.5,-231.5 114.5,-231.5 "/>
<text text-anchor="middle" x="70" y="-219.5" font-family="Helvetica,sans-Serif" font-size="10.00"> </text>
</a>
</g>
</g>
<!-- Node2&#45;&gt;Node1 -->
<g id="edge1" class="edge"><title>Node2&#45;&gt;Node1</title>
<path fill="none" stroke="midnightblue" d="M70,-202.302C70,-193.395 70,-183.961 70,-175.266"/>
<polygon fill="none" stroke="midnightblue" points="66.5001,-202.441 70,-212.441 73.5001,-202.441 66.5001,-202.441"/>
</g>
<!-- Node3 -->
<g id="node3" class="node"><title>Node3</title>
<g id="a_node3"><a xlink:href="structfmt_1_1internal_1_1Value.html" target="_top" xlink:title="{fmt::internal::Value\n|+ int_value\l+ uint_value\l+ long_long_value\l+ ulong_long_value\l+ double_value\l+ long_double_value\l+ pointer\l+ string\l+ sstring\l+ ustring\l+ wstring\l+ custom\l+ @3\l|}">
<polygon fill="none" stroke="black" points="17,-306.5 17,-495.5 123,-495.5 123,-306.5 17,-306.5"/>
<text text-anchor="middle" x="70" y="-483.5" font-family="Helvetica,sans-Serif" font-size="10.00">fmt::internal::Value</text>
<polyline fill="none" stroke="black" points="17,-476.5 123,-476.5 "/>
<text text-anchor="start" x="25" y="-464.5" font-family="Helvetica,sans-Serif" font-size="10.00">+ int_value</text>
<text text-anchor="start" x="25" y="-453.5" font-family="Helvetica,sans-Serif" font-size="10.00">+ uint_value</text>
<text text-anchor="start" x="25" y="-442.5" font-family="Helvetica,sans-Serif" font-size="10.00">+ long_long_value</text>
<text text-anchor="start" x="25" y="-431.5" font-family="Helvetica,sans-Serif" font-size="10.00">+ ulong_long_value</text>
<text text-anchor="start" x="25" y="-420.5" font-family="Helvetica,sans-Serif" font-size="10.00">+ double_value</text>
<text text-anchor="start" x="25" y="-409.5" font-family="Helvetica,sans-Serif" font-size="10.00">+ long_double_value</text>
<text text-anchor="start" x="25" y="-398.5" font-family="Helvetica,sans-Serif" font-size="10.00">+ pointer</text>
<text text-anchor="start" x="25" y="-387.5" font-family="Helvetica,sans-Serif" font-size="10.00">+ string</text>
<text text-anchor="start" x="25" y="-376.5" font-family="Helvetica,sans-Serif" font-size="10.00">+ sstring</text>
<text text-anchor="start" x="25" y="-365.5" font-family="Helvetica,sans-Serif" font-size="10.00">+ ustring</text>
<text text-anchor="start" x="25" y="-354.5" font-family="Helvetica,sans-Serif" font-size="10.00">+ wstring</text>
<text text-anchor="start" x="25" y="-343.5" font-family="Helvetica,sans-Serif" font-size="10.00">+ custom</text>
<text text-anchor="start" x="25" y="-332.5" font-family="Helvetica,sans-Serif" font-size="10.00">+ @3</text>
<polyline fill="none" stroke="black" points="17,-325.5 123,-325.5 "/>
<text text-anchor="middle" x="70" y="-313.5" font-family="Helvetica,sans-Serif" font-size="10.00"> </text>
</a>
</g>
</g>
<!-- Node3&#45;&gt;Node2 -->
<g id="edge2" class="edge"><title>Node3&#45;&gt;Node2</title>
<path fill="none" stroke="midnightblue" d="M70,-296.128C70,-286.563 70,-277.539 70,-269.702"/>
<polygon fill="none" stroke="midnightblue" points="66.5001,-296.265 70,-306.265 73.5001,-296.265 66.5001,-296.265"/>
</g>
</g>
</svg>
