<?xml version="1.0" encoding="UTF-8" standalone="no"?>
<!DOCTYPE svg PUBLIC "-//W3C//DTD SVG 1.1//EN"
 "http://www.w3.org/Graphics/SVG/1.1/DTD/svg11.dtd">
<!-- Generated by graphviz version 2.38.0 (20140413.2041)
 -->
<!-- Title: fmt::WidthSpec Pages: 1 -->
<svg width="341pt" height="364pt"
 viewBox="0.00 0.00 341.00 364.00" xmlns="http://www.w3.org/2000/svg" xmlns:xlink="http://www.w3.org/1999/xlink">
<g id="graph0" class="graph" transform="scale(1 1) rotate(0) translate(4 360)">
<title>fmt::WidthSpec</title>
<!-- Node1 -->
<g id="node1" class="node"><title>Node1</title>
<polygon fill="#bfbfbf" stroke="black" points="124,-265.5 124,-355.5 209,-355.5 209,-265.5 124,-265.5"/>
<text text-anchor="middle" x="166.5" y="-343.5" font-family="Helvetica,sans-Serif" font-size="10.00">fmt::WidthSpec</text>
<polyline fill="none" stroke="black" points="124,-336.5 209,-336.5 "/>
<text text-anchor="start" x="132" y="-324.5" font-family="Helvetica,sans-Serif" font-size="10.00">+ width_</text>
<text text-anchor="start" x="132" y="-313.5" font-family="Helvetica,sans-Serif" font-size="10.00">+ fill_</text>
<polyline fill="none" stroke="black" points="124,-306.5 209,-306.5 "/>
<text text-anchor="start" x="132" y="-294.5" font-family="Helvetica,sans-Serif" font-size="10.00">+ WidthSpec()</text>
<text text-anchor="start" x="132" y="-283.5" font-family="Helvetica,sans-Serif" font-size="10.00">+ width()</text>
<text text-anchor="start" x="132" y="-272.5" font-family="Helvetica,sans-Serif" font-size="10.00">+ fill()</text>
</g>
<!-- Node2 -->
<g id="node2" class="node"><title>Node2</title>
<g id="a_node2"><a xlink:href="structfmt_1_1AlignSpec.html" target="_top" xlink:title="{fmt::AlignSpec\n|+ align_\l|+ AlignSpec()\l+ align()\l+ precision()\l}">
<polygon fill="none" stroke="black" points="126,-149.5 126,-228.5 207,-228.5 207,-149.5 126,-149.5"/>
<text text-anchor="middle" x="166.5" y="-216.5" font-family="Helvetica,sans-Serif" font-size="10.00">fmt::AlignSpec</text>
<polyline fill="none" stroke="black" points="126,-209.5 207,-209.5 "/>
<text text-anchor="start" x="134" y="-197.5" font-family="Helvetica,sans-Serif" font-size="10.00">+ align_</text>
<polyline fill="none" stroke="black" points="126,-190.5 207,-190.5 "/>
<text text-anchor="start" x="134" y="-178.5" font-family="Helvetica,sans-Serif" font-size="10.00">+ AlignSpec()</text>
<text text-anchor="start" x="134" y="-167.5" font-family="Helvetica,sans-Serif" font-size="10.00">+ align()</text>
<text text-anchor="start" x="134" y="-156.5" font-family="Helvetica,sans-Serif" font-size="10.00">+ precision()</text>
</a>
</g>
</g>
<!-- Node1&#45;&gt;Node2 -->
<g id="edge1" class="edge"><title>Node1&#45;&gt;Node2</title>
<path fill="none" stroke="midnightblue" d="M166.5,-255.079C166.5,-246.234 166.5,-237.233 166.5,-228.858"/>
<polygon fill="none" stroke="midnightblue" points="163,-255.342 166.5,-265.342 170,-255.342 163,-255.342"/>
</g>
<!-- Node3 -->
<g id="node3" class="node"><title>Node3</title>
<g id="a_node3"><a xlink:href="structfmt_1_1AlignTypeSpec.html" target="_top" xlink:title="{fmt::AlignTypeSpec\l\&lt; TYPE \&gt;\n||+ AlignTypeSpec()\l+ flag()\l+ type()\l}">
<polygon fill="none" stroke="black" points="0,-11.5 0,-101.5 103,-101.5 103,-11.5 0,-11.5"/>
<text text-anchor="start" x="8" y="-89.5" font-family="Helvetica,sans-Serif" font-size="10.00">fmt::AlignTypeSpec</text>
<text text-anchor="middle" x="51.5" y="-78.5" font-family="Helvetica,sans-Serif" font-size="10.00">&lt; TYPE &gt;</text>
<polyline fill="none" stroke="black" points="0,-71.5 103,-71.5 "/>
<text text-anchor="middle" x="51.5" y="-59.5" font-family="Helvetica,sans-Serif" font-size="10.00"> </text>
<polyline fill="none" stroke="black" points="0,-52.5 103,-52.5 "/>
<text text-anchor="start" x="8" y="-40.5" font-family="Helvetica,sans-Serif" font-size="10.00">+ AlignTypeSpec()</text>
<text text-anchor="start" x="8" y="-29.5" font-family="Helvetica,sans-Serif" font-size="10.00">+ flag()</text>
<text text-anchor="start" x="8" y="-18.5" font-family="Helvetica,sans-Serif" font-size="10.00">+ type()</text>
</a>
</g>
</g>
<!-- Node2&#45;&gt;Node3 -->
<g id="edge2" class="edge"><title>Node2&#45;&gt;Node3</title>
<path fill="none" stroke="midnightblue" d="M125.393,-141.353C114.068,-128.501 101.817,-114.599 90.608,-101.879"/>
<polygon fill="none" stroke="midnightblue" points="123.07,-144.01 132.308,-149.199 128.322,-139.382 123.07,-144.01"/>
</g>
<!-- Node4 -->
<g id="node4" class="node"><title>Node4</title>
<g id="a_node4"><a xlink:href="structfmt_1_1FormatSpec.html" target="_top" xlink:title="{fmt::FormatSpec\n|+ flags_\l+ precision_\l+ type_\l|+ FormatSpec()\l+ flag()\l+ precision()\l+ type()\l}">
<polygon fill="none" stroke="black" points="121.5,-0.5 121.5,-112.5 211.5,-112.5 211.5,-0.5 121.5,-0.5"/>
<text text-anchor="middle" x="166.5" y="-100.5" font-family="Helvetica,sans-Serif" font-size="10.00">fmt::FormatSpec</text>
<polyline fill="none" stroke="black" points="121.5,-93.5 211.5,-93.5 "/>
<text text-anchor="start" x="129.5" y="-81.5" font-family="Helvetica,sans-Serif" font-size="10.00">+ flags_</text>
<text text-anchor="start" x="129.5" y="-70.5" font-family="Helvetica,sans-Serif" font-size="10.00">+ precision_</text>
<text text-anchor="start" x="129.5" y="-59.5" font-family="Helvetica,sans-Serif" font-size="10.00">+ type_</text>
<polyline fill="none" stroke="black" points="121.5,-52.5 211.5,-52.5 "/>
<text text-anchor="start" x="129.5" y="-40.5" font-family="Helvetica,sans-Serif" font-size="10.00">+ FormatSpec()</text>
<text text-anchor="start" x="129.5" y="-29.5" font-family="Helvetica,sans-Serif" font-size="10.00">+ flag()</text>
<text text-anchor="start" x="129.5" y="-18.5" font-family="Helvetica,sans-Serif" font-size="10.00">+ precision()</text>
<text text-anchor="start" x="129.5" y="-7.5" font-family="Helvetica,sans-Serif" font-size="10.00">+ type()</text>
</a>
</g>
</g>
<!-- Node2&#45;&gt;Node4 -->
<g id="edge3" class="edge"><title>Node2&#45;&gt;Node4</title>
<path fill="none" stroke="midnightblue" d="M166.5,-139.012C166.5,-130.464 166.5,-121.518 166.5,-112.814"/>
<polygon fill="none" stroke="midnightblue" points="163,-139.199 166.5,-149.199 170,-139.199 163,-139.199"/>
</g>
<!-- Node5 -->
<g id="node5" class="node"><title>Node5</title>
<g id="a_node5"><a xlink:href="classfmt_1_1StrFormatSpec.html" target="_top" xlink:title="{fmt::StrFormatSpec\l\&lt; Char \&gt;\n||+ StrFormatSpec()\l+ str()\l}">
<polygon fill="none" stroke="black" points="230,-17 230,-96 333,-96 333,-17 230,-17"/>
<text text-anchor="start" x="238" y="-84" font-family="Helvetica,sans-Serif" font-size="10.00">fmt::StrFormatSpec</text>
<text text-anchor="middle" x="281.5" y="-73" font-family="Helvetica,sans-Serif" font-size="10.00">&lt; Char &gt;</text>
<polyline fill="none" stroke="black" points="230,-66 333,-66 "/>
<text text-anchor="middle" x="281.5" y="-54" font-family="Helvetica,sans-Serif" font-size="10.00"> </text>
<polyline fill="none" stroke="black" points="230,-47 333,-47 "/>
<text text-anchor="start" x="238" y="-35" font-family="Helvetica,sans-Serif" font-size="10.00">+ StrFormatSpec()</text>
<text text-anchor="start" x="238" y="-24" font-family="Helvetica,sans-Serif" font-size="10.00">+ str()</text>
</a>
</g>
</g>
<!-- Node2&#45;&gt;Node5 -->
<g id="edge4" class="edge"><title>Node2&#45;&gt;Node5</title>
<path fill="none" stroke="midnightblue" d="M207.383,-141.606C220.427,-126.805 234.718,-110.588 247.241,-96.3768"/>
<polygon fill="none" stroke="midnightblue" points="204.678,-139.382 200.692,-149.199 209.93,-144.01 204.678,-139.382"/>
</g>
</g>
</svg>
