<?xml version="1.0" encoding="UTF-8" standalone="no"?>
<!DOCTYPE svg PUBLIC "-//W3C//DTD SVG 1.1//EN"
 "http://www.w3.org/Graphics/SVG/1.1/DTD/svg11.dtd">
<!-- Generated by graphviz version 2.38.0 (20140413.2041)
 -->
<!-- Title: fmt::internal::Value::StringValue&lt; Char &gt; Pages: 1 -->
<svg width="120pt" height="182pt"
 viewBox="0.00 0.00 120.00 182.00" xmlns="http://www.w3.org/2000/svg" xmlns:xlink="http://www.w3.org/1999/xlink">
<g id="graph0" class="graph" transform="scale(1 1) rotate(0) translate(4 178)">
<title>fmt::internal::Value::StringValue&lt; Char &gt;</title>
<!-- Node1 -->
<g id="node1" class="node"><title>Node1</title>
<polygon fill="#bfbfbf" stroke="black" points="-7.10543e-15,-0.5 -7.10543e-15,-68.5 112,-68.5 112,-0.5 -7.10543e-15,-0.5"/>
<text text-anchor="start" x="8" y="-56.5" font-family="Helvetica,sans-Serif" font-size="10.00">fmt::internal::Value</text>
<text text-anchor="middle" x="56" y="-45.5" font-family="Helvetica,sans-Serif" font-size="10.00">::StringValue&lt; Char &gt;</text>
<polyline fill="none" stroke="black" points="-7.10543e-15,-38.5 112,-38.5 "/>
<text text-anchor="start" x="8" y="-26.5" font-family="Helvetica,sans-Serif" font-size="10.00">+ size</text>
<polyline fill="none" stroke="black" points="-7.10543e-15,-19.5 112,-19.5 "/>
<text text-anchor="middle" x="56" y="-7.5" font-family="Helvetica,sans-Serif" font-size="10.00"> </text>
</g>
<!-- Node2 -->
<g id="node2" class="node"><title>Node2</title>
<polygon fill="none" stroke="#bfbfbf" points="37,-116.5 37,-173.5 75,-173.5 75,-116.5 37,-116.5"/>
<text text-anchor="middle" x="56" y="-161.5" font-family="Helvetica,sans-Serif" font-size="10.00">Char</text>
<polyline fill="none" stroke="#bfbfbf" points="37,-154.5 75,-154.5 "/>
<text text-anchor="middle" x="56" y="-142.5" font-family="Helvetica,sans-Serif" font-size="10.00"> </text>
<polyline fill="none" stroke="#bfbfbf" points="37,-135.5 75,-135.5 "/>
<text text-anchor="middle" x="56" y="-123.5" font-family="Helvetica,sans-Serif" font-size="10.00"> </text>
</g>
<!-- Node2&#45;&gt;Node1 -->
<g id="edge1" class="edge"><title>Node2&#45;&gt;Node1</title>
<path fill="none" stroke="#404040" d="M56,-116.34C56,-105.529 56,-92.847 56,-80.7745"/>
<polygon fill="none" stroke="#404040" points="56.0001,-80.5186 52,-74.5186 56,-68.5186 60,-74.5185 56.0001,-80.5186"/>
<text text-anchor="middle" x="72.5" y="-90" font-family="Helvetica,sans-Serif" font-size="10.00"> +value</text>
</g>
</g>
</svg>
