<?xml version="1.0" encoding="UTF-8" standalone="no"?>
<!DOCTYPE svg PUBLIC "-//W3C//DTD SVG 1.1//EN"
 "http://www.w3.org/Graphics/SVG/1.1/DTD/svg11.dtd">
<!-- Generated by graphviz version 2.36.0 (20140111.2315)
 -->
<!-- Title: fmt::internal::DummyStream Pages: 1 -->
<svg width="148pt" height="466pt"
 viewBox="0.00 0.00 148.00 466.00" xmlns="http://www.w3.org/2000/svg" xmlns:xlink="http://www.w3.org/1999/xlink">
<g id="graph0" class="graph" transform="scale(1 1) rotate(0) translate(4 462)">
<title>fmt::internal::DummyStream</title>
<!-- Node1 -->
<g id="node1" class="node"><title>Node1</title>
<polygon fill="#bfbfbf" stroke="black" points="0,-1 0,-69 140,-69 140,-1 0,-1"/>
<text text-anchor="middle" x="70" y="-57" font-family="Helvetica,sans-Serif" font-size="10.00">fmt::internal::DummyStream</text>
<polyline fill="none" stroke="black" points="0,-50 140,-50 "/>
<text text-anchor="middle" x="70" y="-38" font-family="Helvetica,sans-Serif" font-size="10.00"> </text>
<polyline fill="none" stroke="black" points="0,-31 140,-31 "/>
<text text-anchor="start" x="8" y="-19" font-family="Helvetica,sans-Serif" font-size="10.00">+ DummyStream()</text>
<text text-anchor="start" x="8" y="-8" font-family="Helvetica,sans-Serif" font-size="10.00">+ operator&lt;&lt;()</text>
</g>
<!-- Node2 -->
<g id="node2" class="node"><title>Node2</title>
<g id="a_node2"><a xlink:title="STL class. ">
<polygon fill="none" stroke="#bfbfbf" points="34.5,-106.5 34.5,-163.5 105.5,-163.5 105.5,-106.5 34.5,-106.5"/>
<text text-anchor="middle" x="70" y="-151.5" font-family="Helvetica,sans-Serif" font-size="10.00">std::ostream</text>
<polyline fill="none" stroke="#bfbfbf" points="34.5,-144.5 105.5,-144.5 "/>
<text text-anchor="middle" x="70" y="-132.5" font-family="Helvetica,sans-Serif" font-size="10.00"> </text>
<polyline fill="none" stroke="#bfbfbf" points="34.5,-125.5 105.5,-125.5 "/>
<text text-anchor="middle" x="70" y="-113.5" font-family="Helvetica,sans-Serif" font-size="10.00"> </text>
</a>
</g>
</g>
<!-- Node2&#45;&gt;Node1 -->
<g id="edge1" class="edge"><title>Node2&#45;&gt;Node1</title>
<path fill="none" stroke="midnightblue" d="M70,-96.3023C70,-87.3951 70,-77.9608 70,-69.2659"/>
<polygon fill="none" stroke="midnightblue" points="66.5001,-96.4407 70,-106.441 73.5001,-96.4408 66.5001,-96.4407"/>
</g>
<!-- Node3 -->
<g id="node3" class="node"><title>Node3</title>
<g id="a_node3"><a xlink:title="STL class. ">
<polygon fill="none" stroke="#bfbfbf" points="20,-201 20,-269 120,-269 120,-201 20,-201"/>
<text text-anchor="start" x="28" y="-257" font-family="Helvetica,sans-Serif" font-size="10.00">std::basic_ostream</text>
<text text-anchor="middle" x="70" y="-246" font-family="Helvetica,sans-Serif" font-size="10.00">&lt; char &gt;</text>
<polyline fill="none" stroke="#bfbfbf" points="20,-239 120,-239 "/>
<text text-anchor="middle" x="70" y="-227" font-family="Helvetica,sans-Serif" font-size="10.00"> </text>
<polyline fill="none" stroke="#bfbfbf" points="20,-220 120,-220 "/>
<text text-anchor="middle" x="70" y="-208" font-family="Helvetica,sans-Serif" font-size="10.00"> </text>
</a>
</g>
</g>
<!-- Node3&#45;&gt;Node2 -->
<g id="edge2" class="edge"><title>Node3&#45;&gt;Node2</title>
<path fill="none" stroke="midnightblue" d="M70,-190.638C70,-181.455 70,-172.005 70,-163.6"/>
<polygon fill="none" stroke="midnightblue" points="66.5001,-190.822 70,-200.822 73.5001,-190.822 66.5001,-190.822"/>
</g>
<!-- Node4 -->
<g id="node4" class="node"><title>Node4</title>
<g id="a_node4"><a xlink:title="STL class. ">
<polygon fill="none" stroke="#bfbfbf" points="12,-306.5 12,-363.5 128,-363.5 128,-306.5 12,-306.5"/>
<text text-anchor="middle" x="70" y="-351.5" font-family="Helvetica,sans-Serif" font-size="10.00">std::basic_ios&lt; Char &gt;</text>
<polyline fill="none" stroke="#bfbfbf" points="12,-344.5 128,-344.5 "/>
<text text-anchor="middle" x="70" y="-332.5" font-family="Helvetica,sans-Serif" font-size="10.00"> </text>
<polyline fill="none" stroke="#bfbfbf" points="12,-325.5 128,-325.5 "/>
<text text-anchor="middle" x="70" y="-313.5" font-family="Helvetica,sans-Serif" font-size="10.00"> </text>
</a>
</g>
</g>
<!-- Node4&#45;&gt;Node3 -->
<g id="edge3" class="edge"><title>Node4&#45;&gt;Node3</title>
<path fill="none" stroke="midnightblue" d="M70,-296.302C70,-287.395 70,-277.961 70,-269.266"/>
<polygon fill="none" stroke="midnightblue" points="66.5001,-296.441 70,-306.441 73.5001,-296.441 66.5001,-296.441"/>
</g>
<!-- Node5 -->
<g id="node5" class="node"><title>Node5</title>
<g id="a_node5"><a xlink:title="STL class. ">
<polygon fill="none" stroke="#bfbfbf" points="32.5,-400.5 32.5,-457.5 107.5,-457.5 107.5,-400.5 32.5,-400.5"/>
<text text-anchor="middle" x="70" y="-445.5" font-family="Helvetica,sans-Serif" font-size="10.00">std::ios_base</text>
<polyline fill="none" stroke="#bfbfbf" points="32.5,-438.5 107.5,-438.5 "/>
<text text-anchor="middle" x="70" y="-426.5" font-family="Helvetica,sans-Serif" font-size="10.00"> </text>
<polyline fill="none" stroke="#bfbfbf" points="32.5,-419.5 107.5,-419.5 "/>
<text text-anchor="middle" x="70" y="-407.5" font-family="Helvetica,sans-Serif" font-size="10.00"> </text>
</a>
</g>
</g>
<!-- Node5&#45;&gt;Node4 -->
<g id="edge4" class="edge"><title>Node5&#45;&gt;Node4</title>
<path fill="none" stroke="midnightblue" d="M70,-390.209C70,-381.293 70,-371.951 70,-363.584"/>
<polygon fill="none" stroke="midnightblue" points="66.5001,-390.397 70,-400.397 73.5001,-390.397 66.5001,-390.397"/>
</g>
</g>
</svg>
