<?xml version="1.0" encoding="UTF-8" standalone="no"?>
<!DOCTYPE svg PUBLIC "-//W3C//DTD SVG 1.1//EN"
 "http://www.w3.org/Graphics/SVG/1.1/DTD/svg11.dtd">
<!-- Generated by graphviz version 2.36.0 (20140111.2315)
 -->
<!-- Title: /home/lucamuratore/advr&#45;superbuild/external/XBotInterface/include/XBotInterface/SyncFlags.h Pages: 1 -->
<svg width="491pt" height="186pt"
 viewBox="0.00 0.00 491.00 186.00" xmlns="http://www.w3.org/2000/svg" xmlns:xlink="http://www.w3.org/1999/xlink">
<g id="graph0" class="graph" transform="scale(1 1) rotate(0) translate(4 182)">
<title>/home/lucamuratore/advr&#45;superbuild/external/XBotInterface/include/XBotInterface/SyncFlags.h</title>
<!-- Node1 -->
<g id="node1" class="node"><title>Node1</title>
<polygon fill="#bfbfbf" stroke="black" points="118,-125 118,-177 294,-177 294,-125 118,-125"/>
<text text-anchor="start" x="126" y="-165" font-family="Helvetica,sans-Serif" font-size="10.00">/home/lucamuratore</text>
<text text-anchor="start" x="126" y="-154" font-family="Helvetica,sans-Serif" font-size="10.00">/advr&#45;superbuild/external</text>
<text text-anchor="start" x="126" y="-143" font-family="Helvetica,sans-Serif" font-size="10.00">/XBotInterface/include/XBotInterface</text>
<text text-anchor="middle" x="206" y="-132" font-family="Helvetica,sans-Serif" font-size="10.00">/SyncFlags.h</text>
</g>
<!-- Node2 -->
<g id="node2" class="node"><title>Node2</title>
<g id="a_node2"><a xlink:href="TypedefAndEnums_8h.html" target="_top" xlink:title="XBotInterface/TypedefAnd\lEnums.h">
<polygon fill="none" stroke="black" points="140,-57 140,-87 272,-87 272,-57 140,-57"/>
<text text-anchor="start" x="148" y="-75" font-family="Helvetica,sans-Serif" font-size="10.00">XBotInterface/TypedefAnd</text>
<text text-anchor="middle" x="206" y="-64" font-family="Helvetica,sans-Serif" font-size="10.00">Enums.h</text>
</a>
</g>
</g>
<!-- Node1&#45;&gt;Node2 -->
<g id="edge1" class="edge"><title>Node1&#45;&gt;Node2</title>
<path fill="none" stroke="midnightblue" d="M206,-124.787C206,-116.029 206,-106.225 206,-97.5232"/>
<polygon fill="midnightblue" stroke="midnightblue" points="209.5,-97.252 206,-87.252 202.5,-97.2521 209.5,-97.252"/>
</g>
<!-- Node3 -->
<g id="node3" class="node"><title>Node3</title>
<polygon fill="none" stroke="#bfbfbf" points="-0.5,-0.5 -0.5,-19.5 34.5,-19.5 34.5,-0.5 -0.5,-0.5"/>
<text text-anchor="middle" x="17" y="-7.5" font-family="Helvetica,sans-Serif" font-size="10.00">map</text>
</g>
<!-- Node2&#45;&gt;Node3 -->
<g id="edge2" class="edge"><title>Node2&#45;&gt;Node3</title>
<path fill="none" stroke="midnightblue" d="M159.862,-56.9683C129.394,-47.6103 88.3647,-34.8356 44.3354,-20.3801"/>
<polygon fill="midnightblue" stroke="midnightblue" points="45.1909,-16.977 34.5979,-17.1716 43.0002,-23.6254 45.1909,-16.977"/>
</g>
<!-- Node4 -->
<g id="node4" class="node"><title>Node4</title>
<polygon fill="none" stroke="#bfbfbf" points="52.5,-0.5 52.5,-19.5 135.5,-19.5 135.5,-0.5 52.5,-0.5"/>
<text text-anchor="middle" x="94" y="-7.5" font-family="Helvetica,sans-Serif" font-size="10.00">unordered_map</text>
</g>
<!-- Node2&#45;&gt;Node4 -->
<g id="edge3" class="edge"><title>Node2&#45;&gt;Node4</title>
<path fill="none" stroke="midnightblue" d="M179.741,-56.9327C161.52,-47.1715 137.382,-34.2401 119.36,-24.5856"/>
<polygon fill="midnightblue" stroke="midnightblue" points="120.521,-21.2371 110.053,-19.6 117.215,-27.4075 120.521,-21.2371"/>
</g>
<!-- Node5 -->
<g id="node5" class="node"><title>Node5</title>
<polygon fill="none" stroke="#bfbfbf" points="153.5,-0.5 153.5,-19.5 194.5,-19.5 194.5,-0.5 153.5,-0.5"/>
<text text-anchor="middle" x="174" y="-7.5" font-family="Helvetica,sans-Serif" font-size="10.00">string</text>
</g>
<!-- Node2&#45;&gt;Node5 -->
<g id="edge4" class="edge"><title>Node2&#45;&gt;Node5</title>
<path fill="none" stroke="midnightblue" d="M198.416,-56.7808C193.91,-48.3318 188.159,-37.5481 183.37,-28.5693"/>
<polygon fill="midnightblue" stroke="midnightblue" points="186.45,-26.907 178.656,-19.7305 180.274,-30.2012 186.45,-26.907"/>
</g>
<!-- Node6 -->
<g id="node6" class="node"><title>Node6</title>
<polygon fill="none" stroke="#bfbfbf" points="213,-0.5 213,-19.5 265,-19.5 265,-0.5 213,-0.5"/>
<text text-anchor="middle" x="239" y="-7.5" font-family="Helvetica,sans-Serif" font-size="10.00">memory</text>
</g>
<!-- Node2&#45;&gt;Node6 -->
<g id="edge5" class="edge"><title>Node2&#45;&gt;Node6</title>
<path fill="none" stroke="midnightblue" d="M213.821,-56.7808C218.468,-48.3318 224.399,-37.5481 229.337,-28.5693"/>
<polygon fill="midnightblue" stroke="midnightblue" points="232.446,-30.1794 234.198,-19.7305 226.312,-26.806 232.446,-30.1794"/>
</g>
<!-- Node7 -->
<g id="node7" class="node"><title>Node7</title>
<polygon fill="none" stroke="#bfbfbf" points="283,-0.5 283,-19.5 361,-19.5 361,-0.5 283,-0.5"/>
<text text-anchor="middle" x="322" y="-7.5" font-family="Helvetica,sans-Serif" font-size="10.00">boost/any.hpp</text>
</g>
<!-- Node2&#45;&gt;Node7 -->
<g id="edge6" class="edge"><title>Node2&#45;&gt;Node7</title>
<path fill="none" stroke="midnightblue" d="M233.197,-56.9327C252.243,-47.0811 277.533,-34.0004 296.251,-24.3182"/>
<polygon fill="midnightblue" stroke="midnightblue" points="298.099,-27.3031 305.373,-19.6 294.883,-21.0855 298.099,-27.3031"/>
</g>
<!-- Node8 -->
<g id="node8" class="node"><title>Node8</title>
<polygon fill="none" stroke="#bfbfbf" points="379,-0.5 379,-19.5 483,-19.5 483,-0.5 379,-0.5"/>
<text text-anchor="middle" x="431" y="-7.5" font-family="Helvetica,sans-Serif" font-size="10.00">eigen3/Eigen/Dense</text>
</g>
<!-- Node2&#45;&gt;Node8 -->
<g id="edge7" class="edge"><title>Node2&#45;&gt;Node8</title>
<path fill="none" stroke="midnightblue" d="M258.753,-56.9327C298.526,-46.3264 352.335,-31.9772 389.165,-22.1559"/>
<polygon fill="midnightblue" stroke="midnightblue" points="390.317,-25.4712 399.077,-19.5127 388.513,-18.7076 390.317,-25.4712"/>
</g>
</g>
</svg>
