<?xml version="1.0" encoding="UTF-8" standalone="no"?>
<!DOCTYPE svg PUBLIC "-//W3C//DTD SVG 1.1//EN"
 "http://www.w3.org/Graphics/SVG/1.1/DTD/svg11.dtd">
<!-- Generated by graphviz version 2.36.0 (20140111.2315)
 -->
<!-- Title: /home/lucamuratore/advr&#45;superbuild/external/XBotInterface/include/spdlog/sinks/syslog_sink.h Pages: 1 -->
<svg width="763pt" height="310pt"
 viewBox="0.00 0.00 763.00 310.00" xmlns="http://www.w3.org/2000/svg" xmlns:xlink="http://www.w3.org/1999/xlink">
<g id="graph0" class="graph" transform="scale(1 1) rotate(0) translate(4 306)">
<title>/home/lucamuratore/advr&#45;superbuild/external/XBotInterface/include/spdlog/sinks/syslog_sink.h</title>
<!-- Node1 -->
<g id="node1" class="node"><title>Node1</title>
<polygon fill="#bfbfbf" stroke="black" points="261.5,-249 261.5,-301 406.5,-301 406.5,-249 261.5,-249"/>
<text text-anchor="start" x="269.5" y="-289" font-family="Helvetica,sans-Serif" font-size="10.00">/home/lucamuratore</text>
<text text-anchor="start" x="269.5" y="-278" font-family="Helvetica,sans-Serif" font-size="10.00">/advr&#45;superbuild/external</text>
<text text-anchor="start" x="269.5" y="-267" font-family="Helvetica,sans-Serif" font-size="10.00">/XBotInterface/include/spdlog</text>
<text text-anchor="middle" x="334" y="-256" font-family="Helvetica,sans-Serif" font-size="10.00">/sinks/syslog_sink.h</text>
</g>
<!-- Node2 -->
<g id="node2" class="node"><title>Node2</title>
<g id="a_node2"><a xlink:href="common_8h.html" target="_top" xlink:title="spdlog/common.h">
<polygon fill="none" stroke="black" points="287,-192.5 287,-211.5 381,-211.5 381,-192.5 287,-192.5"/>
<text text-anchor="middle" x="334" y="-199.5" font-family="Helvetica,sans-Serif" font-size="10.00">spdlog/common.h</text>
</a>
</g>
</g>
<!-- Node1&#45;&gt;Node2 -->
<g id="edge1" class="edge"><title>Node1&#45;&gt;Node2</title>
<path fill="none" stroke="midnightblue" d="M334,-248.768C334,-239.89 334,-230.074 334,-221.816"/>
<polygon fill="midnightblue" stroke="midnightblue" points="337.5,-221.757 334,-211.757 330.5,-221.757 337.5,-221.757"/>
</g>
<!-- Node3 -->
<g id="node3" class="node"><title>Node3</title>
<polygon fill="none" stroke="#bfbfbf" points="-0.5,-0.5 -0.5,-19.5 40.5,-19.5 40.5,-0.5 -0.5,-0.5"/>
<text text-anchor="middle" x="20" y="-7.5" font-family="Helvetica,sans-Serif" font-size="10.00">string</text>
</g>
<!-- Node2&#45;&gt;Node3 -->
<g id="edge2" class="edge"><title>Node2&#45;&gt;Node3</title>
<path fill="none" stroke="midnightblue" d="M286.965,-197.89C223.007,-192.79 113.004,-180.65 82,-156 41.7276,-123.981 27.1715,-60.8358 22.2777,-29.5158"/>
<polygon fill="midnightblue" stroke="midnightblue" points="25.733,-28.9525 20.8821,-19.5334 18.8005,-29.9217 25.733,-28.9525"/>
</g>
<!-- Node4 -->
<g id="node4" class="node"><title>Node4</title>
<polygon fill="none" stroke="#bfbfbf" points="219.5,-130.5 219.5,-149.5 292.5,-149.5 292.5,-130.5 219.5,-130.5"/>
<text text-anchor="middle" x="256" y="-137.5" font-family="Helvetica,sans-Serif" font-size="10.00">initializer_list</text>
</g>
<!-- Node2&#45;&gt;Node4 -->
<g id="edge3" class="edge"><title>Node2&#45;&gt;Node4</title>
<path fill="none" stroke="midnightblue" d="M322.825,-192.403C310.429,-182.869 290.21,-167.315 275.254,-155.811"/>
<polygon fill="midnightblue" stroke="midnightblue" points="277.215,-152.904 267.155,-149.581 272.947,-158.452 277.215,-152.904"/>
</g>
<!-- Node5 -->
<g id="node5" class="node"><title>Node5</title>
<polygon fill="none" stroke="#bfbfbf" points="311,-130.5 311,-149.5 357,-149.5 357,-130.5 311,-130.5"/>
<text text-anchor="middle" x="334" y="-137.5" font-family="Helvetica,sans-Serif" font-size="10.00">chrono</text>
</g>
<!-- Node2&#45;&gt;Node5 -->
<g id="edge4" class="edge"><title>Node2&#45;&gt;Node5</title>
<path fill="none" stroke="midnightblue" d="M334,-192.403C334,-183.938 334,-170.728 334,-159.82"/>
<polygon fill="midnightblue" stroke="midnightblue" points="337.5,-159.581 334,-149.581 330.5,-159.581 337.5,-159.581"/>
</g>
<!-- Node6 -->
<g id="node6" class="node"><title>Node6</title>
<polygon fill="none" stroke="#bfbfbf" points="59,-0.5 59,-19.5 111,-19.5 111,-0.5 59,-0.5"/>
<text text-anchor="middle" x="85" y="-7.5" font-family="Helvetica,sans-Serif" font-size="10.00">memory</text>
</g>
<!-- Node2&#45;&gt;Node6 -->
<g id="edge5" class="edge"><title>Node2&#45;&gt;Node6</title>
<path fill="none" stroke="midnightblue" d="M286.812,-198.13C226.901,-193.452 128.37,-181.954 104,-156 71.6384,-121.535 76.3028,-60.4907 81.2511,-29.7689"/>
<polygon fill="midnightblue" stroke="midnightblue" points="84.7549,-30.0602 83.0848,-19.5978 77.866,-28.8181 84.7549,-30.0602"/>
</g>
<!-- Node7 -->
<g id="node7" class="node"><title>Node7</title>
<polygon fill="none" stroke="#bfbfbf" points="448,-62.5 448,-81.5 494,-81.5 494,-62.5 448,-62.5"/>
<text text-anchor="middle" x="471" y="-69.5" font-family="Helvetica,sans-Serif" font-size="10.00">atomic</text>
</g>
<!-- Node2&#45;&gt;Node7 -->
<g id="edge6" class="edge"><title>Node2&#45;&gt;Node7</title>
<path fill="none" stroke="midnightblue" d="M381.096,-200.14C414.318,-196.758 456.722,-186.24 479,-156 492.781,-137.293 486.138,-109.418 479.263,-91.2242"/>
<polygon fill="midnightblue" stroke="midnightblue" points="482.406,-89.6679 475.341,-81.7729 475.941,-92.3507 482.406,-89.6679"/>
</g>
<!-- Node8 -->
<g id="node8" class="node"><title>Node8</title>
<polygon fill="none" stroke="#bfbfbf" points="527.5,-130.5 527.5,-149.5 586.5,-149.5 586.5,-130.5 527.5,-130.5"/>
<text text-anchor="middle" x="557" y="-137.5" font-family="Helvetica,sans-Serif" font-size="10.00">exception</text>
</g>
<!-- Node2&#45;&gt;Node8 -->
<g id="edge7" class="edge"><title>Node2&#45;&gt;Node8</title>
<path fill="none" stroke="midnightblue" d="M371.612,-192.495C408.002,-184.043 464.602,-170.307 513,-156 516.352,-155.009 519.83,-153.924 523.294,-152.805"/>
<polygon fill="midnightblue" stroke="midnightblue" points="524.52,-156.086 532.907,-149.612 522.314,-149.443 524.52,-156.086"/>
</g>
<!-- Node9 -->
<g id="node9" class="node"><title>Node9</title>
<polygon fill="none" stroke="#bfbfbf" points="604.5,-130.5 604.5,-149.5 663.5,-149.5 663.5,-130.5 604.5,-130.5"/>
<text text-anchor="middle" x="634" y="-137.5" font-family="Helvetica,sans-Serif" font-size="10.00">functional</text>
</g>
<!-- Node2&#45;&gt;Node9 -->
<g id="edge8" class="edge"><title>Node2&#45;&gt;Node9</title>
<path fill="none" stroke="midnightblue" d="M381.287,-195.686C434.047,-189.104 521.637,-176.221 595,-156 598.147,-155.133 601.393,-154.107 604.605,-153.005"/>
<polygon fill="midnightblue" stroke="midnightblue" points="605.829,-156.284 614.011,-149.553 603.417,-149.712 605.829,-156.284"/>
</g>
<!-- Node10 -->
<g id="node10" class="node"><title>Node10</title>
<g id="a_node10"><a xlink:href="null__mutex_8h.html" target="_top" xlink:title="spdlog/details/null\l_mutex.h">
<polygon fill="none" stroke="black" points="375.5,-125 375.5,-155 470.5,-155 470.5,-125 375.5,-125"/>
<text text-anchor="start" x="383.5" y="-143" font-family="Helvetica,sans-Serif" font-size="10.00">spdlog/details/null</text>
<text text-anchor="middle" x="423" y="-132" font-family="Helvetica,sans-Serif" font-size="10.00">_mutex.h</text>
</a>
</g>
</g>
<!-- Node2&#45;&gt;Node10 -->
<g id="edge9" class="edge"><title>Node2&#45;&gt;Node10</title>
<path fill="none" stroke="midnightblue" d="M346.752,-192.403C358.918,-184.201 377.691,-171.545 393.565,-160.844"/>
<polygon fill="midnightblue" stroke="midnightblue" points="395.689,-163.633 402.024,-155.141 391.776,-157.829 395.689,-163.633"/>
</g>
<!-- Node11 -->
<g id="node11" class="node"><title>Node11</title>
<g id="a_node11"><a xlink:href="fmt_8h.html" target="_top" xlink:title="spdlog/fmt/fmt.h">
<polygon fill="none" stroke="black" points="113,-130.5 113,-149.5 201,-149.5 201,-130.5 113,-130.5"/>
<text text-anchor="middle" x="157" y="-137.5" font-family="Helvetica,sans-Serif" font-size="10.00">spdlog/fmt/fmt.h</text>
</a>
</g>
</g>
<!-- Node2&#45;&gt;Node11 -->
<g id="edge11" class="edge"><title>Node2&#45;&gt;Node11</title>
<path fill="none" stroke="midnightblue" d="M308.64,-192.403C278.016,-182.022 226.343,-164.506 191.954,-152.849"/>
<polygon fill="midnightblue" stroke="midnightblue" points="192.907,-149.476 182.313,-149.581 190.66,-156.106 192.907,-149.476"/>
</g>
<!-- Node10&#45;&gt;Node7 -->
<g id="edge10" class="edge"><title>Node10&#45;&gt;Node7</title>
<path fill="none" stroke="midnightblue" d="M433.415,-124.679C440.825,-114.49 450.812,-100.759 458.628,-90.0112"/>
<polygon fill="midnightblue" stroke="midnightblue" points="461.528,-91.9743 464.579,-81.8283 455.867,-87.8571 461.528,-91.9743"/>
</g>
<!-- Node12 -->
<g id="node12" class="node"><title>Node12</title>
<g id="a_node12"><a xlink:href="format_8h.html" target="_top" xlink:title="spdlog/fmt/bundled\l/format.h">
<polygon fill="none" stroke="black" points="302.5,-57 302.5,-87 401.5,-87 401.5,-57 302.5,-57"/>
<text text-anchor="start" x="310.5" y="-75" font-family="Helvetica,sans-Serif" font-size="10.00">spdlog/fmt/bundled</text>
<text text-anchor="middle" x="352" y="-64" font-family="Helvetica,sans-Serif" font-size="10.00">/format.h</text>
</a>
</g>
</g>
<!-- Node11&#45;&gt;Node12 -->
<g id="edge12" class="edge"><title>Node11&#45;&gt;Node12</title>
<path fill="none" stroke="midnightblue" d="M182.493,-130.372C212.345,-120.268 262.544,-103.277 300.586,-90.4016"/>
<polygon fill="midnightblue" stroke="midnightblue" points="302.12,-93.5775 310.47,-87.0562 299.876,-86.947 302.12,-93.5775"/>
</g>
<!-- Node12&#45;&gt;Node3 -->
<g id="edge21" class="edge"><title>Node12&#45;&gt;Node3</title>
<path fill="none" stroke="midnightblue" d="M302.455,-64.5588C244.374,-56.5812 145.104,-41.6205 50.5817,-19.8711"/>
<polygon fill="midnightblue" stroke="midnightblue" points="51.0998,-16.3981 40.5663,-17.5365 49.5107,-23.2153 51.0998,-16.3981"/>
</g>
<!-- Node12&#45;&gt;Node6 -->
<g id="edge19" class="edge"><title>Node12&#45;&gt;Node6</title>
<path fill="none" stroke="midnightblue" d="M302.102,-60.5633C257.247,-51.0613 189.317,-36.3764 121.371,-20.268"/>
<polygon fill="midnightblue" stroke="midnightblue" points="121.887,-16.7932 111.349,-17.8815 120.266,-23.6029 121.887,-16.7932"/>
</g>
<!-- Node13 -->
<g id="node13" class="node"><title>Node13</title>
<polygon fill="none" stroke="#bfbfbf" points="394.5,-0.5 394.5,-19.5 443.5,-19.5 443.5,-0.5 394.5,-0.5"/>
<text text-anchor="middle" x="419" y="-7.5" font-family="Helvetica,sans-Serif" font-size="10.00">cassert</text>
</g>
<!-- Node12&#45;&gt;Node13 -->
<g id="edge13" class="edge"><title>Node12&#45;&gt;Node13</title>
<path fill="none" stroke="midnightblue" d="M367.878,-56.7808C378.015,-47.7026 391.162,-35.9291 401.585,-26.5951"/>
<polygon fill="midnightblue" stroke="midnightblue" points="404.136,-29.0091 409.251,-19.7305 399.466,-23.7944 404.136,-29.0091"/>
</g>
<!-- Node14 -->
<g id="node14" class="node"><title>Node14</title>
<polygon fill="none" stroke="#bfbfbf" points="461.5,-0.5 461.5,-19.5 508.5,-19.5 508.5,-0.5 461.5,-0.5"/>
<text text-anchor="middle" x="485" y="-7.5" font-family="Helvetica,sans-Serif" font-size="10.00">clocale</text>
</g>
<!-- Node12&#45;&gt;Node14 -->
<g id="edge14" class="edge"><title>Node12&#45;&gt;Node14</title>
<path fill="none" stroke="midnightblue" d="M383.183,-56.9327C405.421,-46.9004 435.082,-33.5193 456.652,-23.7888"/>
<polygon fill="midnightblue" stroke="midnightblue" points="458.261,-26.9027 465.937,-19.6 455.382,-20.5219 458.261,-26.9027"/>
</g>
<!-- Node15 -->
<g id="node15" class="node"><title>Node15</title>
<polygon fill="none" stroke="#bfbfbf" points="527,-0.5 527,-19.5 571,-19.5 571,-0.5 527,-0.5"/>
<text text-anchor="middle" x="549" y="-7.5" font-family="Helvetica,sans-Serif" font-size="10.00">cmath</text>
</g>
<!-- Node12&#45;&gt;Node15 -->
<g id="edge15" class="edge"><title>Node12&#45;&gt;Node15</title>
<path fill="none" stroke="midnightblue" d="M398.188,-56.9327C434.72,-45.806 484.777,-30.5602 517.007,-20.744"/>
<polygon fill="midnightblue" stroke="midnightblue" points="518.259,-24.0215 526.805,-17.7598 516.219,-17.3252 518.259,-24.0215"/>
</g>
<!-- Node16 -->
<g id="node16" class="node"><title>Node16</title>
<polygon fill="none" stroke="#bfbfbf" points="589.5,-0.5 589.5,-19.5 632.5,-19.5 632.5,-0.5 589.5,-0.5"/>
<text text-anchor="middle" x="611" y="-7.5" font-family="Helvetica,sans-Serif" font-size="10.00">cstdio</text>
</g>
<!-- Node12&#45;&gt;Node16 -->
<g id="edge16" class="edge"><title>Node12&#45;&gt;Node16</title>
<path fill="none" stroke="midnightblue" d="M401.776,-60.6132C447.888,-50.8026 518.301,-35.3428 579,-20 579.21,-19.947 579.42,-19.8936 579.632,-19.8398"/>
<polygon fill="midnightblue" stroke="midnightblue" points="580.587,-23.2073 589.353,-17.2563 578.79,-16.4421 580.587,-23.2073"/>
</g>
<!-- Node17 -->
<g id="node17" class="node"><title>Node17</title>
<polygon fill="none" stroke="#bfbfbf" points="651,-0.5 651,-19.5 697,-19.5 697,-0.5 651,-0.5"/>
<text text-anchor="middle" x="674" y="-7.5" font-family="Helvetica,sans-Serif" font-size="10.00">cstring</text>
</g>
<!-- Node12&#45;&gt;Node17 -->
<g id="edge17" class="edge"><title>Node12&#45;&gt;Node17</title>
<path fill="none" stroke="midnightblue" d="M401.773,-62.3386C481.325,-48.4778 629.41,-22.5974 641,-20 641.101,-19.9773 641.203,-19.9544 641.305,-19.9315"/>
<polygon fill="midnightblue" stroke="midnightblue" points="642.105,-23.339 650.988,-17.5648 640.443,-16.5391 642.105,-23.339"/>
</g>
<!-- Node18 -->
<g id="node18" class="node"><title>Node18</title>
<polygon fill="none" stroke="#bfbfbf" points="715,-0.5 715,-19.5 755,-19.5 755,-0.5 715,-0.5"/>
<text text-anchor="middle" x="735" y="-7.5" font-family="Helvetica,sans-Serif" font-size="10.00">limits</text>
</g>
<!-- Node12&#45;&gt;Node18 -->
<g id="edge18" class="edge"><title>Node12&#45;&gt;Node18</title>
<path fill="none" stroke="midnightblue" d="M401.637,-62.1181C413.84,-60.024 426.88,-57.8612 439,-56 554.117,-38.3216 587.28,-45.4169 704.726,-19.9559"/>
<polygon fill="midnightblue" stroke="midnightblue" points="705.821,-23.2987 714.834,-17.7301 704.315,-16.4624 705.821,-23.2987"/>
</g>
<!-- Node19 -->
<g id="node19" class="node"><title>Node19</title>
<polygon fill="none" stroke="#bfbfbf" points="129.5,-0.5 129.5,-19.5 188.5,-19.5 188.5,-0.5 129.5,-0.5"/>
<text text-anchor="middle" x="159" y="-7.5" font-family="Helvetica,sans-Serif" font-size="10.00">stdexcept</text>
</g>
<!-- Node12&#45;&gt;Node19 -->
<g id="edge20" class="edge"><title>Node12&#45;&gt;Node19</title>
<path fill="none" stroke="midnightblue" d="M306.75,-56.9327C273.071,-46.4624 227.658,-32.3445 196.107,-22.5358"/>
<polygon fill="midnightblue" stroke="midnightblue" points="196.971,-19.1392 186.382,-19.5127 194.893,-25.8236 196.971,-19.1392"/>
</g>
<!-- Node20 -->
<g id="node20" class="node"><title>Node20</title>
<polygon fill="none" stroke="#bfbfbf" points="207,-0.5 207,-19.5 251,-19.5 251,-0.5 207,-0.5"/>
<text text-anchor="middle" x="229" y="-7.5" font-family="Helvetica,sans-Serif" font-size="10.00">vector</text>
</g>
<!-- Node12&#45;&gt;Node20 -->
<g id="edge22" class="edge"><title>Node12&#45;&gt;Node20</title>
<path fill="none" stroke="midnightblue" d="M323.162,-56.9327C302.781,-46.9907 275.658,-33.7601 255.758,-24.0526"/>
<polygon fill="midnightblue" stroke="midnightblue" points="257.152,-20.8386 246.63,-19.6 254.083,-27.13 257.152,-20.8386"/>
</g>
<!-- Node21 -->
<g id="node21" class="node"><title>Node21</title>
<polygon fill="none" stroke="#bfbfbf" points="269,-0.5 269,-19.5 309,-19.5 309,-0.5 269,-0.5"/>
<text text-anchor="middle" x="289" y="-7.5" font-family="Helvetica,sans-Serif" font-size="10.00">utility</text>
</g>
<!-- Node12&#45;&gt;Node21 -->
<g id="edge23" class="edge"><title>Node12&#45;&gt;Node21</title>
<path fill="none" stroke="midnightblue" d="M337.07,-56.7808C327.632,-47.7925 315.42,-36.162 305.667,-26.8731"/>
<polygon fill="midnightblue" stroke="midnightblue" points="307.822,-24.0926 298.167,-19.7305 302.995,-29.1616 307.822,-24.0926"/>
</g>
<!-- Node22 -->
<g id="node22" class="node"><title>Node22</title>
<polygon fill="none" stroke="#bfbfbf" points="327.5,-0.5 327.5,-19.5 376.5,-19.5 376.5,-0.5 327.5,-0.5"/>
<text text-anchor="middle" x="352" y="-7.5" font-family="Helvetica,sans-Serif" font-size="10.00">stdint.h</text>
</g>
<!-- Node12&#45;&gt;Node22 -->
<g id="edge24" class="edge"><title>Node12&#45;&gt;Node22</title>
<path fill="none" stroke="midnightblue" d="M352,-56.7808C352,-48.7812 352,-38.6887 352,-30.0168"/>
<polygon fill="midnightblue" stroke="midnightblue" points="355.5,-29.7305 352,-19.7305 348.5,-29.7306 355.5,-29.7305"/>
</g>
</g>
</svg>
