<?xml version="1.0" encoding="UTF-8" standalone="no"?>
<!DOCTYPE svg PUBLIC "-//W3C//DTD SVG 1.1//EN"
 "http://www.w3.org/Graphics/SVG/1.1/DTD/svg11.dtd">
<!-- Generated by graphviz version 2.38.0 (20140413.2041)
 -->
<!-- Title: /home/lucamuratore/advr&#45;superbuild/external/XBotInterface/include/bprinter/table_printer.h Pages: 1 -->
<svg width="518pt" height="117pt"
 viewBox="0.00 0.00 518.00 117.00" xmlns="http://www.w3.org/2000/svg" xmlns:xlink="http://www.w3.org/1999/xlink">
<g id="graph0" class="graph" transform="scale(1 1) rotate(0) translate(4 113)">
<title>/home/lucamuratore/advr&#45;superbuild/external/XBotInterface/include/bprinter/table_printer.h</title>
<!-- Node1 -->
<g id="node1" class="node"><title>Node1</title>
<polygon fill="#bfbfbf" stroke="black" points="148.5,-56.5 148.5,-108.5 297.5,-108.5 297.5,-56.5 148.5,-56.5"/>
<text text-anchor="start" x="156.5" y="-96.5" font-family="Helvetica,sans-Serif" font-size="10.00">/home/lucamuratore</text>
<text text-anchor="start" x="156.5" y="-85.5" font-family="Helvetica,sans-Serif" font-size="10.00">/advr&#45;superbuild/external</text>
<text text-anchor="start" x="156.5" y="-74.5" font-family="Helvetica,sans-Serif" font-size="10.00">/XBotInterface/include/bprinter</text>
<text text-anchor="middle" x="223" y="-63.5" font-family="Helvetica,sans-Serif" font-size="10.00">/table_printer.h</text>
</g>
<!-- Node2 -->
<g id="node2" class="node"><title>Node2</title>
<polygon fill="none" stroke="#bfbfbf" points="0,-0.5 0,-19.5 54,-19.5 54,-0.5 0,-0.5"/>
<text text-anchor="middle" x="27" y="-7.5" font-family="Helvetica,sans-Serif" font-size="10.00">iostream</text>
</g>
<!-- Node1&#45;&gt;Node2 -->
<g id="edge1" class="edge"><title>Node1&#45;&gt;Node2</title>
<path fill="none" stroke="midnightblue" d="M153.346,-56.4458C121.679,-45.0555 85.6921,-32.1112 60.2471,-22.9588"/>
<polygon fill="midnightblue" stroke="midnightblue" points="61.3006,-19.6183 50.7062,-19.527 58.9313,-26.2051 61.3006,-19.6183"/>
</g>
<!-- Node3 -->
<g id="node3" class="node"><title>Node3</title>
<polygon fill="none" stroke="#bfbfbf" points="72,-0.5 72,-19.5 122,-19.5 122,-0.5 72,-0.5"/>
<text text-anchor="middle" x="97" y="-7.5" font-family="Helvetica,sans-Serif" font-size="10.00">iomanip</text>
</g>
<!-- Node1&#45;&gt;Node3 -->
<g id="edge2" class="edge"><title>Node1&#45;&gt;Node3</title>
<path fill="none" stroke="midnightblue" d="M178.222,-56.4458C158.946,-45.6603 137.18,-33.4814 121.035,-24.448"/>
<polygon fill="midnightblue" stroke="midnightblue" points="122.676,-21.3555 112.24,-19.527 119.258,-27.4643 122.676,-21.3555"/>
</g>
<!-- Node4 -->
<g id="node4" class="node"><title>Node4</title>
<polygon fill="none" stroke="#bfbfbf" points="140,-0.5 140,-19.5 184,-19.5 184,-0.5 140,-0.5"/>
<text text-anchor="middle" x="162" y="-7.5" font-family="Helvetica,sans-Serif" font-size="10.00">vector</text>
</g>
<!-- Node1&#45;&gt;Node4 -->
<g id="edge3" class="edge"><title>Node1&#45;&gt;Node4</title>
<path fill="none" stroke="midnightblue" d="M201.322,-56.4458C193.001,-46.8285 183.721,-36.1032 176.266,-27.4881"/>
<polygon fill="midnightblue" stroke="midnightblue" points="178.714,-24.9676 169.524,-19.6955 173.42,-29.5478 178.714,-24.9676"/>
</g>
<!-- Node5 -->
<g id="node5" class="node"><title>Node5</title>
<polygon fill="none" stroke="#bfbfbf" points="202.5,-0.5 202.5,-19.5 243.5,-19.5 243.5,-0.5 202.5,-0.5"/>
<text text-anchor="middle" x="223" y="-7.5" font-family="Helvetica,sans-Serif" font-size="10.00">string</text>
</g>
<!-- Node1&#45;&gt;Node5 -->
<g id="edge4" class="edge"><title>Node1&#45;&gt;Node5</title>
<path fill="none" stroke="midnightblue" d="M223,-56.4458C223,-47.7301 223,-38.1045 223,-29.9641"/>
<polygon fill="midnightblue" stroke="midnightblue" points="226.5,-29.6954 223,-19.6955 219.5,-29.6955 226.5,-29.6954"/>
</g>
<!-- Node6 -->
<g id="node6" class="node"><title>Node6</title>
<polygon fill="none" stroke="#bfbfbf" points="262,-0.5 262,-19.5 314,-19.5 314,-0.5 262,-0.5"/>
<text text-anchor="middle" x="288" y="-7.5" font-family="Helvetica,sans-Serif" font-size="10.00">sstream</text>
</g>
<!-- Node1&#45;&gt;Node6 -->
<g id="edge5" class="edge"><title>Node1&#45;&gt;Node6</title>
<path fill="none" stroke="midnightblue" d="M246.1,-56.4458C255.059,-46.7283 265.061,-35.8797 273.046,-27.2196"/>
<polygon fill="midnightblue" stroke="midnightblue" points="275.778,-29.42 279.983,-19.6955 270.631,-24.6751 275.778,-29.42"/>
</g>
<!-- Node7 -->
<g id="node7" class="node"><title>Node7</title>
<polygon fill="none" stroke="#bfbfbf" points="332,-0.5 332,-19.5 376,-19.5 376,-0.5 332,-0.5"/>
<text text-anchor="middle" x="354" y="-7.5" font-family="Helvetica,sans-Serif" font-size="10.00">cmath</text>
</g>
<!-- Node1&#45;&gt;Node7 -->
<g id="edge6" class="edge"><title>Node1&#45;&gt;Node7</title>
<path fill="none" stroke="midnightblue" d="M269.555,-56.4458C289.596,-45.6603 312.226,-33.4814 329.012,-24.448"/>
<polygon fill="midnightblue" stroke="midnightblue" points="331.008,-27.348 338.156,-19.527 327.691,-21.184 331.008,-27.348"/>
</g>
<!-- Node8 -->
<g id="node8" class="node"><title>Node8</title>
<g id="a_node8"><a xlink:href="table__printer_8tpp_8h.html" target="_top" xlink:title="impl/table_printer.tpp.h">
<polygon fill="none" stroke="black" points="394,-0.5 394,-19.5 510,-19.5 510,-0.5 394,-0.5"/>
<text text-anchor="middle" x="452" y="-7.5" font-family="Helvetica,sans-Serif" font-size="10.00">impl/table_printer.tpp.h</text>
</a>
</g>
</g>
<!-- Node1&#45;&gt;Node8 -->
<g id="edge7" class="edge"><title>Node1&#45;&gt;Node8</title>
<path fill="none" stroke="midnightblue" d="M297.666,-58.5132C336.767,-46.4755 382.949,-32.2581 414.538,-22.533"/>
<polygon fill="midnightblue" stroke="midnightblue" points="415.727,-25.8293 424.254,-19.5418 413.667,-19.1391 415.727,-25.8293"/>
</g>
</g>
</svg>
