<?xml version="1.0" encoding="UTF-8" standalone="no"?>
<!DOCTYPE svg PUBLIC "-//W3C//DTD SVG 1.1//EN"
 "http://www.w3.org/Graphics/SVG/1.1/DTD/svg11.dtd">
<!-- Generated by graphviz version 2.36.0 (20140111.2315)
 -->
<!-- Title: /home/lucamuratore/advr&#45;superbuild/external/XBotInterface/src/bprinter/table_printer.cpp Pages: 1 -->
<svg width="518pt" height="174pt"
 viewBox="0.00 0.00 518.00 174.00" xmlns="http://www.w3.org/2000/svg" xmlns:xlink="http://www.w3.org/1999/xlink">
<g id="graph0" class="graph" transform="scale(1 1) rotate(0) translate(4 170)">
<title>/home/lucamuratore/advr&#45;superbuild/external/XBotInterface/src/bprinter/table_printer.cpp</title>
<!-- Node1 -->
<g id="node1" class="node"><title>Node1</title>
<polygon fill="#bfbfbf" stroke="black" points="126.5,-113 126.5,-165 257.5,-165 257.5,-113 126.5,-113"/>
<text text-anchor="start" x="134.5" y="-153" font-family="Helvetica,sans-Serif" font-size="10.00">/home/lucamuratore</text>
<text text-anchor="start" x="134.5" y="-142" font-family="Helvetica,sans-Serif" font-size="10.00">/advr&#45;superbuild/external</text>
<text text-anchor="start" x="134.5" y="-131" font-family="Helvetica,sans-Serif" font-size="10.00">/XBotInterface/src/bprinter</text>
<text text-anchor="middle" x="192" y="-120" font-family="Helvetica,sans-Serif" font-size="10.00">/table_printer.cpp</text>
</g>
<!-- Node2 -->
<g id="node2" class="node"><title>Node2</title>
<g id="a_node2"><a xlink:href="table__printer_8h.html" target="_top" xlink:title="bprinter/table_printer.h">
<polygon fill="none" stroke="black" points="135.5,-56.5 135.5,-75.5 248.5,-75.5 248.5,-56.5 135.5,-56.5"/>
<text text-anchor="middle" x="192" y="-63.5" font-family="Helvetica,sans-Serif" font-size="10.00">bprinter/table_printer.h</text>
</a>
</g>
</g>
<!-- Node1&#45;&gt;Node2 -->
<g id="edge1" class="edge"><title>Node1&#45;&gt;Node2</title>
<path fill="none" stroke="midnightblue" d="M192,-112.768C192,-103.89 192,-94.0737 192,-85.8165"/>
<polygon fill="midnightblue" stroke="midnightblue" points="195.5,-85.7571 192,-75.7572 188.5,-85.7572 195.5,-85.7571"/>
</g>
<!-- Node4 -->
<g id="node4" class="node"><title>Node4</title>
<polygon fill="none" stroke="#bfbfbf" points="0,-0.5 0,-19.5 50,-19.5 50,-0.5 0,-0.5"/>
<text text-anchor="middle" x="25" y="-7.5" font-family="Helvetica,sans-Serif" font-size="10.00">iomanip</text>
</g>
<!-- Node1&#45;&gt;Node4 -->
<g id="edge10" class="edge"><title>Node1&#45;&gt;Node4</title>
<path fill="none" stroke="midnightblue" d="M159.006,-112.909C124.868,-86.9477 72.6893,-47.2667 44.5745,-25.886"/>
<polygon fill="midnightblue" stroke="midnightblue" points="46.4237,-22.8952 36.3452,-19.6278 42.1864,-28.467 46.4237,-22.8952"/>
</g>
<!-- Node10 -->
<g id="node10" class="node"><title>Node10</title>
<polygon fill="none" stroke="#bfbfbf" points="266.5,-56.5 266.5,-75.5 325.5,-75.5 325.5,-56.5 266.5,-56.5"/>
<text text-anchor="middle" x="296" y="-63.5" font-family="Helvetica,sans-Serif" font-size="10.00">stdexcept</text>
</g>
<!-- Node1&#45;&gt;Node10 -->
<g id="edge9" class="edge"><title>Node1&#45;&gt;Node10</title>
<path fill="none" stroke="midnightblue" d="M228.667,-112.968C244.062,-102.458 261.426,-90.6034 274.665,-81.5655"/>
<polygon fill="midnightblue" stroke="midnightblue" points="276.81,-84.3385 283.096,-75.8095 272.864,-78.5573 276.81,-84.3385"/>
</g>
<!-- Node3 -->
<g id="node3" class="node"><title>Node3</title>
<polygon fill="none" stroke="#bfbfbf" points="68,-0.5 68,-19.5 122,-19.5 122,-0.5 68,-0.5"/>
<text text-anchor="middle" x="95" y="-7.5" font-family="Helvetica,sans-Serif" font-size="10.00">iostream</text>
</g>
<!-- Node2&#45;&gt;Node3 -->
<g id="edge2" class="edge"><title>Node2&#45;&gt;Node3</title>
<path fill="none" stroke="midnightblue" d="M176.415,-56.324C161.001,-47.7428 137.188,-34.486 119.29,-24.5224"/>
<polygon fill="midnightblue" stroke="midnightblue" points="120.986,-21.4606 110.546,-19.6545 117.581,-27.5767 120.986,-21.4606"/>
</g>
<!-- Node2&#45;&gt;Node4 -->
<g id="edge3" class="edge"><title>Node2&#45;&gt;Node4</title>
<path fill="none" stroke="midnightblue" d="M165.538,-56.4435C136.99,-47.2123 91.4016,-32.4712 59.928,-22.2941"/>
<polygon fill="midnightblue" stroke="midnightblue" points="60.8365,-18.9095 50.2447,-19.1629 58.6827,-25.5699 60.8365,-18.9095"/>
</g>
<!-- Node5 -->
<g id="node5" class="node"><title>Node5</title>
<polygon fill="none" stroke="#bfbfbf" points="140,-0.5 140,-19.5 184,-19.5 184,-0.5 140,-0.5"/>
<text text-anchor="middle" x="162" y="-7.5" font-family="Helvetica,sans-Serif" font-size="10.00">vector</text>
</g>
<!-- Node2&#45;&gt;Node5 -->
<g id="edge4" class="edge"><title>Node2&#45;&gt;Node5</title>
<path fill="none" stroke="midnightblue" d="M187.046,-56.083C182.896,-48.6127 176.847,-37.7244 171.733,-28.5199"/>
<polygon fill="midnightblue" stroke="midnightblue" points="174.778,-26.7929 166.862,-19.7511 168.659,-30.1924 174.778,-26.7929"/>
</g>
<!-- Node6 -->
<g id="node6" class="node"><title>Node6</title>
<polygon fill="none" stroke="#bfbfbf" points="202.5,-0.5 202.5,-19.5 243.5,-19.5 243.5,-0.5 202.5,-0.5"/>
<text text-anchor="middle" x="223" y="-7.5" font-family="Helvetica,sans-Serif" font-size="10.00">string</text>
</g>
<!-- Node2&#45;&gt;Node6 -->
<g id="edge5" class="edge"><title>Node2&#45;&gt;Node6</title>
<path fill="none" stroke="midnightblue" d="M197.119,-56.083C201.408,-48.6127 207.658,-37.7244 212.942,-28.5199"/>
<polygon fill="midnightblue" stroke="midnightblue" points="216.033,-30.1662 217.976,-19.7511 209.962,-26.6811 216.033,-30.1662"/>
</g>
<!-- Node7 -->
<g id="node7" class="node"><title>Node7</title>
<polygon fill="none" stroke="#bfbfbf" points="262,-0.5 262,-19.5 314,-19.5 314,-0.5 262,-0.5"/>
<text text-anchor="middle" x="288" y="-7.5" font-family="Helvetica,sans-Serif" font-size="10.00">sstream</text>
</g>
<!-- Node2&#45;&gt;Node7 -->
<g id="edge6" class="edge"><title>Node2&#45;&gt;Node7</title>
<path fill="none" stroke="midnightblue" d="M207.424,-56.324C222.54,-47.8215 245.815,-34.7288 263.471,-24.7975"/>
<polygon fill="midnightblue" stroke="midnightblue" points="265.614,-27.6077 272.614,-19.6545 262.183,-21.5066 265.614,-27.6077"/>
</g>
<!-- Node8 -->
<g id="node8" class="node"><title>Node8</title>
<polygon fill="none" stroke="#bfbfbf" points="332,-0.5 332,-19.5 376,-19.5 376,-0.5 332,-0.5"/>
<text text-anchor="middle" x="354" y="-7.5" font-family="Helvetica,sans-Serif" font-size="10.00">cmath</text>
</g>
<!-- Node2&#45;&gt;Node8 -->
<g id="edge7" class="edge"><title>Node2&#45;&gt;Node8</title>
<path fill="none" stroke="midnightblue" d="M217.669,-56.4435C245.965,-47.0118 291.515,-31.8282 322.088,-21.6375"/>
<polygon fill="midnightblue" stroke="midnightblue" points="323.455,-24.8711 331.835,-18.3884 321.241,-18.2304 323.455,-24.8711"/>
</g>
<!-- Node9 -->
<g id="node9" class="node"><title>Node9</title>
<g id="a_node9"><a xlink:href="table__printer_8tpp_8h.html" target="_top" xlink:title="impl/table_printer.tpp.h">
<polygon fill="none" stroke="black" points="394,-0.5 394,-19.5 510,-19.5 510,-0.5 394,-0.5"/>
<text text-anchor="middle" x="452" y="-7.5" font-family="Helvetica,sans-Serif" font-size="10.00">impl/table_printer.tpp.h</text>
</a>
</g>
</g>
<!-- Node2&#45;&gt;Node9 -->
<g id="edge8" class="edge"><title>Node2&#45;&gt;Node9</title>
<path fill="none" stroke="midnightblue" d="M233.198,-56.4435C278.649,-47.0036 351.842,-31.802 400.909,-21.6111"/>
<polygon fill="midnightblue" stroke="midnightblue" points="401.916,-24.9769 410.995,-19.5164 400.492,-18.1232 401.916,-24.9769"/>
</g>
</g>
</svg>
