<?xml version="1.0" encoding="UTF-8" standalone="no"?>
<!DOCTYPE svg PUBLIC "-//W3C//DTD SVG 1.1//EN"
 "http://www.w3.org/Graphics/SVG/1.1/DTD/svg11.dtd">
<!-- Generated by graphviz version 2.36.0 (20140111.2315)
 -->
<!-- Title: /home/lucamuratore/advr&#45;superbuild/external/XBotInterface/include/bprinter/table_printer.h Pages: 1 -->
<svg width="518pt" height="118pt"
 viewBox="0.00 0.00 518.00 118.00" xmlns="http://www.w3.org/2000/svg" xmlns:xlink="http://www.w3.org/1999/xlink">
<g id="graph0" class="graph" transform="scale(1 1) rotate(0) translate(4 114)">
<title>/home/lucamuratore/advr&#45;superbuild/external/XBotInterface/include/bprinter/table_printer.h</title>
<!-- Node1 -->
<g id="node1" class="node"><title>Node1</title>
<polygon fill="#bfbfbf" stroke="black" points="148.5,-57 148.5,-109 297.5,-109 297.5,-57 148.5,-57"/>
<text text-anchor="start" x="156.5" y="-97" font-family="Helvetica,sans-Serif" font-size="10.00">/home/lucamuratore</text>
<text text-anchor="start" x="156.5" y="-86" font-family="Helvetica,sans-Serif" font-size="10.00">/advr&#45;superbuild/external</text>
<text text-anchor="start" x="156.5" y="-75" font-family="Helvetica,sans-Serif" font-size="10.00">/XBotInterface/include/bprinter</text>
<text text-anchor="middle" x="223" y="-64" font-family="Helvetica,sans-Serif" font-size="10.00">/table_printer.h</text>
</g>
<!-- Node2 -->
<g id="node2" class="node"><title>Node2</title>
<polygon fill="none" stroke="#bfbfbf" points="0,-0.5 0,-19.5 54,-19.5 54,-0.5 0,-0.5"/>
<text text-anchor="middle" x="27" y="-7.5" font-family="Helvetica,sans-Serif" font-size="10.00">iostream</text>
</g>
<!-- Node1&#45;&gt;Node2 -->
<g id="edge1" class="edge"><title>Node1&#45;&gt;Node2</title>
<path fill="none" stroke="midnightblue" d="M153.898,-56.9681C122.178,-45.4779 86.0236,-32.381 60.4417,-23.1141"/>
<polygon fill="midnightblue" stroke="midnightblue" points="61.4424,-19.7541 50.8482,-19.6389 59.0583,-26.3356 61.4424,-19.7541"/>
</g>
<!-- Node3 -->
<g id="node3" class="node"><title>Node3</title>
<polygon fill="none" stroke="#bfbfbf" points="72,-0.5 72,-19.5 122,-19.5 122,-0.5 72,-0.5"/>
<text text-anchor="middle" x="97" y="-7.5" font-family="Helvetica,sans-Serif" font-size="10.00">iomanip</text>
</g>
<!-- Node1&#45;&gt;Node3 -->
<g id="edge2" class="edge"><title>Node1&#45;&gt;Node3</title>
<path fill="none" stroke="midnightblue" d="M178.577,-56.9681C159.269,-46.088 137.404,-33.7673 121.174,-24.6218"/>
<polygon fill="midnightblue" stroke="midnightblue" points="122.761,-21.4989 112.331,-19.6389 119.325,-27.5973 122.761,-21.4989"/>
</g>
<!-- Node4 -->
<g id="node4" class="node"><title>Node4</title>
<polygon fill="none" stroke="#bfbfbf" points="140,-0.5 140,-19.5 184,-19.5 184,-0.5 140,-0.5"/>
<text text-anchor="middle" x="162" y="-7.5" font-family="Helvetica,sans-Serif" font-size="10.00">vector</text>
</g>
<!-- Node1&#45;&gt;Node4 -->
<g id="edge3" class="edge"><title>Node1&#45;&gt;Node4</title>
<path fill="none" stroke="midnightblue" d="M201.322,-56.7681C193.001,-47.0826 183.721,-36.2813 176.266,-27.605"/>
<polygon fill="midnightblue" stroke="midnightblue" points="178.695,-25.0613 169.524,-19.7572 173.386,-29.6231 178.695,-25.0613"/>
</g>
<!-- Node5 -->
<g id="node5" class="node"><title>Node5</title>
<polygon fill="none" stroke="#bfbfbf" points="202.5,-0.5 202.5,-19.5 243.5,-19.5 243.5,-0.5 202.5,-0.5"/>
<text text-anchor="middle" x="223" y="-7.5" font-family="Helvetica,sans-Serif" font-size="10.00">string</text>
</g>
<!-- Node1&#45;&gt;Node5 -->
<g id="edge4" class="edge"><title>Node1&#45;&gt;Node5</title>
<path fill="none" stroke="midnightblue" d="M223,-56.7681C223,-47.8897 223,-38.0737 223,-29.8165"/>
<polygon fill="midnightblue" stroke="midnightblue" points="226.5,-29.7571 223,-19.7572 219.5,-29.7572 226.5,-29.7571"/>
</g>
<!-- Node6 -->
<g id="node6" class="node"><title>Node6</title>
<polygon fill="none" stroke="#bfbfbf" points="262,-0.5 262,-19.5 314,-19.5 314,-0.5 262,-0.5"/>
<text text-anchor="middle" x="288" y="-7.5" font-family="Helvetica,sans-Serif" font-size="10.00">sstream</text>
</g>
<!-- Node1&#45;&gt;Node6 -->
<g id="edge5" class="edge"><title>Node1&#45;&gt;Node6</title>
<path fill="none" stroke="midnightblue" d="M246.1,-56.7681C255.059,-46.9817 265.061,-36.0561 273.046,-27.3346"/>
<polygon fill="midnightblue" stroke="midnightblue" points="275.812,-29.4964 279.983,-19.7572 270.649,-24.7696 275.812,-29.4964"/>
</g>
<!-- Node7 -->
<g id="node7" class="node"><title>Node7</title>
<polygon fill="none" stroke="#bfbfbf" points="332,-0.5 332,-19.5 376,-19.5 376,-0.5 332,-0.5"/>
<text text-anchor="middle" x="354" y="-7.5" font-family="Helvetica,sans-Serif" font-size="10.00">cmath</text>
</g>
<!-- Node1&#45;&gt;Node7 -->
<g id="edge6" class="edge"><title>Node1&#45;&gt;Node7</title>
<path fill="none" stroke="midnightblue" d="M269.186,-56.9681C289.26,-46.088 311.993,-33.7673 328.867,-24.6218"/>
<polygon fill="midnightblue" stroke="midnightblue" points="330.937,-27.481 338.061,-19.6389 327.601,-21.3268 330.937,-27.481"/>
</g>
<!-- Node8 -->
<g id="node8" class="node"><title>Node8</title>
<g id="a_node8"><a xlink:href="table__printer_8tpp_8h.html" target="_top" xlink:title="impl/table_printer.tpp.h">
<polygon fill="none" stroke="black" points="394,-0.5 394,-19.5 510,-19.5 510,-0.5 394,-0.5"/>
<text text-anchor="middle" x="452" y="-7.5" font-family="Helvetica,sans-Serif" font-size="10.00">impl/table_printer.tpp.h</text>
</a>
</g>
</g>
<!-- Node1&#45;&gt;Node8 -->
<g id="edge7" class="edge"><title>Node1&#45;&gt;Node8</title>
<path fill="none" stroke="midnightblue" d="M297.666,-58.8502C336.885,-46.6906 383.227,-32.3226 414.823,-22.5264"/>
<polygon fill="midnightblue" stroke="midnightblue" points="416.021,-25.8195 424.536,-19.5151 413.948,-19.1335 416.021,-25.8195"/>
</g>
</g>
</svg>
