<?xml version="1.0" encoding="UTF-8" standalone="no"?>
<!DOCTYPE svg PUBLIC "-//W3C//DTD SVG 1.1//EN"
 "http://www.w3.org/Graphics/SVG/1.1/DTD/svg11.dtd">
<!-- Generated by graphviz version 2.38.0 (20140413.2041)
 -->
<!-- Title: /home/lucamuratore/advr&#45;superbuild/external/XBotInterface/include/bprinter/impl/table_printer.tpp.h Pages: 1 -->
<svg width="859pt" height="684pt"
 viewBox="0.00 0.00 858.50 684.00" xmlns="http://www.w3.org/2000/svg" xmlns:xlink="http://www.w3.org/1999/xlink">
<g id="graph0" class="graph" transform="scale(1 1) rotate(0) translate(4 680)">
<title>/home/lucamuratore/advr&#45;superbuild/external/XBotInterface/include/bprinter/impl/table_printer.tpp.h</title>
<!-- Node1 -->
<g id="node1" class="node"><title>Node1</title>
<polygon fill="#bfbfbf" stroke="black" points="561.5,-623.5 561.5,-675.5 710.5,-675.5 710.5,-623.5 561.5,-623.5"/>
<text text-anchor="start" x="569.5" y="-663.5" font-family="Helvetica,sans-Serif" font-size="10.00">/home/lucamuratore</text>
<text text-anchor="start" x="569.5" y="-652.5" font-family="Helvetica,sans-Serif" font-size="10.00">/advr&#45;superbuild/external</text>
<text text-anchor="start" x="569.5" y="-641.5" font-family="Helvetica,sans-Serif" font-size="10.00">/XBotInterface/include/bprinter</text>
<text text-anchor="middle" x="636" y="-630.5" font-family="Helvetica,sans-Serif" font-size="10.00">/impl/table_printer.tpp.h</text>
</g>
<!-- Node2 -->
<g id="node2" class="node"><title>Node2</title>
<g id="a_node2"><a xlink:href="table__printer_8h.html" target="_top" xlink:title="/home/lucamuratore\l/advr&#45;superbuild/external\l/XBotInterface/include/bprinter\l/table_printer.h">
<polygon fill="none" stroke="black" points="561.5,-534.5 561.5,-586.5 710.5,-586.5 710.5,-534.5 561.5,-534.5"/>
<text text-anchor="start" x="569.5" y="-574.5" font-family="Helvetica,sans-Serif" font-size="10.00">/home/lucamuratore</text>
<text text-anchor="start" x="569.5" y="-563.5" font-family="Helvetica,sans-Serif" font-size="10.00">/advr&#45;superbuild/external</text>
<text text-anchor="start" x="569.5" y="-552.5" font-family="Helvetica,sans-Serif" font-size="10.00">/XBotInterface/include/bprinter</text>
<text text-anchor="middle" x="636" y="-541.5" font-family="Helvetica,sans-Serif" font-size="10.00">/table_printer.h</text>
</a>
</g>
</g>
<!-- Node1&#45;&gt;Node2 -->
<g id="edge1" class="edge"><title>Node1&#45;&gt;Node2</title>
<path fill="none" stroke="midnightblue" d="M636,-613.191C636,-604.282 636,-594.899 636,-586.607"/>
<polygon fill="midnightblue" stroke="midnightblue" points="632.5,-613.336 636,-623.336 639.5,-613.336 632.5,-613.336"/>
</g>
<!-- Node3 -->
<g id="node3" class="node"><title>Node3</title>
<g id="a_node3"><a xlink:href="Joint_8h.html" target="_top" xlink:title="/home/lucamuratore\l/advr&#45;superbuild/external\l/XBotInterface/include/XBotInterface\l/Joint.h">
<polygon fill="none" stroke="black" points="376,-445.5 376,-497.5 552,-497.5 552,-445.5 376,-445.5"/>
<text text-anchor="start" x="384" y="-485.5" font-family="Helvetica,sans-Serif" font-size="10.00">/home/lucamuratore</text>
<text text-anchor="start" x="384" y="-474.5" font-family="Helvetica,sans-Serif" font-size="10.00">/advr&#45;superbuild/external</text>
<text text-anchor="start" x="384" y="-463.5" font-family="Helvetica,sans-Serif" font-size="10.00">/XBotInterface/include/XBotInterface</text>
<text text-anchor="middle" x="464" y="-452.5" font-family="Helvetica,sans-Serif" font-size="10.00">/Joint.h</text>
</a>
</g>
</g>
<!-- Node2&#45;&gt;Node3 -->
<g id="edge2" class="edge"><title>Node2&#45;&gt;Node3</title>
<path fill="none" stroke="midnightblue" d="M577.236,-529.776C556.543,-519.309 533.504,-507.656 513.638,-497.607"/>
<polygon fill="midnightblue" stroke="midnightblue" points="575.747,-532.946 586.25,-534.336 578.907,-526.699 575.747,-532.946"/>
</g>
<!-- Node20 -->
<g id="node20" class="node"><title>Node20</title>
<g id="a_node20"><a xlink:href="table__printer_8cpp.html" target="_top" xlink:title="/home/lucamuratore\l/advr&#45;superbuild/external\l/XBotInterface/src/bprinter\l/table_printer.cpp">
<polygon fill="none" stroke="black" points="570.5,-445.5 570.5,-497.5 701.5,-497.5 701.5,-445.5 570.5,-445.5"/>
<text text-anchor="start" x="578.5" y="-485.5" font-family="Helvetica,sans-Serif" font-size="10.00">/home/lucamuratore</text>
<text text-anchor="start" x="578.5" y="-474.5" font-family="Helvetica,sans-Serif" font-size="10.00">/advr&#45;superbuild/external</text>
<text text-anchor="start" x="578.5" y="-463.5" font-family="Helvetica,sans-Serif" font-size="10.00">/XBotInterface/src/bprinter</text>
<text text-anchor="middle" x="636" y="-452.5" font-family="Helvetica,sans-Serif" font-size="10.00">/table_printer.cpp</text>
</a>
</g>
</g>
<!-- Node2&#45;&gt;Node20 -->
<g id="edge23" class="edge"><title>Node2&#45;&gt;Node20</title>
<path fill="none" stroke="midnightblue" d="M636,-524.191C636,-515.282 636,-505.899 636,-497.607"/>
<polygon fill="midnightblue" stroke="midnightblue" points="632.5,-524.336 636,-534.336 639.5,-524.336 632.5,-524.336"/>
</g>
<!-- Node21 -->
<g id="node21" class="node"><title>Node21</title>
<g id="a_node21"><a xlink:href="test__main_8cxx.html" target="_top" xlink:title="/home/lucamuratore\l/advr&#45;superbuild/external\l/XBotInterface/src/bprinter\l/test_main.cxx">
<polygon fill="none" stroke="black" points="719.5,-445.5 719.5,-497.5 850.5,-497.5 850.5,-445.5 719.5,-445.5"/>
<text text-anchor="start" x="727.5" y="-485.5" font-family="Helvetica,sans-Serif" font-size="10.00">/home/lucamuratore</text>
<text text-anchor="start" x="727.5" y="-474.5" font-family="Helvetica,sans-Serif" font-size="10.00">/advr&#45;superbuild/external</text>
<text text-anchor="start" x="727.5" y="-463.5" font-family="Helvetica,sans-Serif" font-size="10.00">/XBotInterface/src/bprinter</text>
<text text-anchor="middle" x="785" y="-452.5" font-family="Helvetica,sans-Serif" font-size="10.00">/test_main.cxx</text>
</a>
</g>
</g>
<!-- Node2&#45;&gt;Node21 -->
<g id="edge24" class="edge"><title>Node2&#45;&gt;Node21</title>
<path fill="none" stroke="midnightblue" d="M688.115,-529.07C705.726,-518.788 725.176,-507.431 742,-497.607"/>
<polygon fill="midnightblue" stroke="midnightblue" points="685.968,-526.271 679.097,-534.336 689.497,-532.316 685.968,-526.271"/>
</g>
<!-- Node4 -->
<g id="node4" class="node"><title>Node4</title>
<g id="a_node4"><a xlink:href="KinematicChain_8h.html" target="_top" xlink:title="/home/lucamuratore\l/advr&#45;superbuild/external\l/XBotInterface/include/XBotInterface\l/KinematicChain.h">
<polygon fill="none" stroke="black" points="288,-356.5 288,-408.5 464,-408.5 464,-356.5 288,-356.5"/>
<text text-anchor="start" x="296" y="-396.5" font-family="Helvetica,sans-Serif" font-size="10.00">/home/lucamuratore</text>
<text text-anchor="start" x="296" y="-385.5" font-family="Helvetica,sans-Serif" font-size="10.00">/advr&#45;superbuild/external</text>
<text text-anchor="start" x="296" y="-374.5" font-family="Helvetica,sans-Serif" font-size="10.00">/XBotInterface/include/XBotInterface</text>
<text text-anchor="middle" x="376" y="-363.5" font-family="Helvetica,sans-Serif" font-size="10.00">/KinematicChain.h</text>
</a>
</g>
</g>
<!-- Node3&#45;&gt;Node4 -->
<g id="edge3" class="edge"><title>Node3&#45;&gt;Node4</title>
<path fill="none" stroke="midnightblue" d="M431.204,-438.077C421.351,-428.335 410.694,-417.8 401.396,-408.607"/>
<polygon fill="midnightblue" stroke="midnightblue" points="428.975,-440.794 438.547,-445.336 433.896,-435.816 428.975,-440.794"/>
</g>
<!-- Node19 -->
<g id="node19" class="node"><title>Node19</title>
<g id="a_node19"><a xlink:href="Joint_8cpp.html" target="_top" xlink:title="/home/lucamuratore\l/advr&#45;superbuild/external\l/XBotInterface/src/Joint.cpp">
<polygon fill="none" stroke="black" points="482.5,-362 482.5,-403 621.5,-403 621.5,-362 482.5,-362"/>
<text text-anchor="start" x="490.5" y="-391" font-family="Helvetica,sans-Serif" font-size="10.00">/home/lucamuratore</text>
<text text-anchor="start" x="490.5" y="-380" font-family="Helvetica,sans-Serif" font-size="10.00">/advr&#45;superbuild/external</text>
<text text-anchor="middle" x="552" y="-369" font-family="Helvetica,sans-Serif" font-size="10.00">/XBotInterface/src/Joint.cpp</text>
</a>
</g>
</g>
<!-- Node3&#45;&gt;Node19 -->
<g id="edge22" class="edge"><title>Node3&#45;&gt;Node19</title>
<path fill="none" stroke="midnightblue" d="M496.69,-438.181C508.615,-426.392 521.728,-413.428 532.193,-403.082"/>
<polygon fill="midnightblue" stroke="midnightblue" points="494.104,-435.816 489.453,-445.336 499.025,-440.794 494.104,-435.816"/>
</g>
<!-- Node5 -->
<g id="node5" class="node"><title>Node5</title>
<g id="a_node5"><a xlink:href="ModelChain_8h.html" target="_top" xlink:title="/home/lucamuratore\l/advr&#45;superbuild/external\l/XBotInterface/include/XBotInterface\l/ModelChain.h">
<polygon fill="none" stroke="black" points="191,-267.5 191,-319.5 367,-319.5 367,-267.5 191,-267.5"/>
<text text-anchor="start" x="199" y="-307.5" font-family="Helvetica,sans-Serif" font-size="10.00">/home/lucamuratore</text>
<text text-anchor="start" x="199" y="-296.5" font-family="Helvetica,sans-Serif" font-size="10.00">/advr&#45;superbuild/external</text>
<text text-anchor="start" x="199" y="-285.5" font-family="Helvetica,sans-Serif" font-size="10.00">/XBotInterface/include/XBotInterface</text>
<text text-anchor="middle" x="279" y="-274.5" font-family="Helvetica,sans-Serif" font-size="10.00">/ModelChain.h</text>
</a>
</g>
</g>
<!-- Node4&#45;&gt;Node5 -->
<g id="edge4" class="edge"><title>Node4&#45;&gt;Node5</title>
<path fill="none" stroke="midnightblue" d="M340.488,-349.649C329.45,-339.749 317.443,-328.98 306.993,-319.607"/>
<polygon fill="midnightblue" stroke="midnightblue" points="338.162,-352.265 347.944,-356.336 342.836,-347.054 338.162,-352.265"/>
</g>
<!-- Node13 -->
<g id="node13" class="node"><title>Node13</title>
<g id="a_node13"><a xlink:href="RobotChain_8h.html" target="_top" xlink:title="/home/lucamuratore\l/advr&#45;superbuild/external\l/XBotInterface/include/XBotInterface\l/RobotChain.h">
<polygon fill="none" stroke="black" points="0,-178.5 0,-230.5 176,-230.5 176,-178.5 0,-178.5"/>
<text text-anchor="start" x="8" y="-218.5" font-family="Helvetica,sans-Serif" font-size="10.00">/home/lucamuratore</text>
<text text-anchor="start" x="8" y="-207.5" font-family="Helvetica,sans-Serif" font-size="10.00">/advr&#45;superbuild/external</text>
<text text-anchor="start" x="8" y="-196.5" font-family="Helvetica,sans-Serif" font-size="10.00">/XBotInterface/include/XBotInterface</text>
<text text-anchor="middle" x="88" y="-185.5" font-family="Helvetica,sans-Serif" font-size="10.00">/RobotChain.h</text>
</a>
</g>
</g>
<!-- Node4&#45;&gt;Node13 -->
<g id="edge16" class="edge"><title>Node4&#45;&gt;Node13</title>
<path fill="none" stroke="midnightblue" d="M277.713,-362.157C245.407,-352.816 210.502,-339.299 182,-320 147.287,-296.495 118.67,-256.503 102.459,-230.548"/>
<polygon fill="midnightblue" stroke="midnightblue" points="277.073,-365.612 287.645,-364.923 278.951,-358.868 277.073,-365.612"/>
</g>
<!-- Node16 -->
<g id="node16" class="node"><title>Node16</title>
<g id="a_node16"><a xlink:href="XBotInterface_8h.html" target="_top" xlink:title="/home/lucamuratore\l/advr&#45;superbuild/external\l/XBotInterface/include/XBotInterface\l/XBotInterface.h">
<polygon fill="none" stroke="black" points="385,-267.5 385,-319.5 561,-319.5 561,-267.5 385,-267.5"/>
<text text-anchor="start" x="393" y="-307.5" font-family="Helvetica,sans-Serif" font-size="10.00">/home/lucamuratore</text>
<text text-anchor="start" x="393" y="-296.5" font-family="Helvetica,sans-Serif" font-size="10.00">/advr&#45;superbuild/external</text>
<text text-anchor="start" x="393" y="-285.5" font-family="Helvetica,sans-Serif" font-size="10.00">/XBotInterface/include/XBotInterface</text>
<text text-anchor="middle" x="473" y="-274.5" font-family="Helvetica,sans-Serif" font-size="10.00">/XBotInterface.h</text>
</a>
</g>
</g>
<!-- Node4&#45;&gt;Node16 -->
<g id="edge17" class="edge"><title>Node4&#45;&gt;Node16</title>
<path fill="none" stroke="midnightblue" d="M411.512,-349.649C422.55,-339.749 434.557,-328.98 445.007,-319.607"/>
<polygon fill="midnightblue" stroke="midnightblue" points="409.164,-347.054 404.056,-356.336 413.838,-352.265 409.164,-347.054"/>
</g>
<!-- Node18 -->
<g id="node18" class="node"><title>Node18</title>
<g id="a_node18"><a xlink:href="KinematicChain_8cpp.html" target="_top" xlink:title="/home/lucamuratore\l/advr&#45;superbuild/external\l/XBotInterface/src/KinematicChain.cpp">
<polygon fill="none" stroke="black" points="578.5,-273 578.5,-314 765.5,-314 765.5,-273 578.5,-273"/>
<text text-anchor="start" x="586.5" y="-302" font-family="Helvetica,sans-Serif" font-size="10.00">/home/lucamuratore</text>
<text text-anchor="start" x="586.5" y="-291" font-family="Helvetica,sans-Serif" font-size="10.00">/advr&#45;superbuild/external</text>
<text text-anchor="middle" x="672" y="-280" font-family="Helvetica,sans-Serif" font-size="10.00">/XBotInterface/src/KinematicChain.cpp</text>
</a>
</g>
</g>
<!-- Node4&#45;&gt;Node18 -->
<g id="edge21" class="edge"><title>Node4&#45;&gt;Node18</title>
<path fill="none" stroke="midnightblue" d="M471.011,-353.574C514.745,-340.72 565.591,-325.775 605.2,-314.134"/>
<polygon fill="midnightblue" stroke="midnightblue" points="469.826,-350.275 461.218,-356.453 471.8,-356.991 469.826,-350.275"/>
</g>
<!-- Node6 -->
<g id="node6" class="node"><title>Node6</title>
<g id="a_node6"><a xlink:href="ModelInterface_8h.html" target="_top" xlink:title="/home/lucamuratore\l/advr&#45;superbuild/external\l/XBotInterface/include/XBotInterface\l/ModelInterface.h">
<polygon fill="none" stroke="black" points="420,-178.5 420,-230.5 596,-230.5 596,-178.5 420,-178.5"/>
<text text-anchor="start" x="428" y="-218.5" font-family="Helvetica,sans-Serif" font-size="10.00">/home/lucamuratore</text>
<text text-anchor="start" x="428" y="-207.5" font-family="Helvetica,sans-Serif" font-size="10.00">/advr&#45;superbuild/external</text>
<text text-anchor="start" x="428" y="-196.5" font-family="Helvetica,sans-Serif" font-size="10.00">/XBotInterface/include/XBotInterface</text>
<text text-anchor="middle" x="508" y="-185.5" font-family="Helvetica,sans-Serif" font-size="10.00">/ModelInterface.h</text>
</a>
</g>
</g>
<!-- Node5&#45;&gt;Node6 -->
<g id="edge5" class="edge"><title>Node5&#45;&gt;Node6</title>
<path fill="none" stroke="midnightblue" d="M354.392,-263.858C382.741,-253.087 414.725,-240.936 442.14,-230.521"/>
<polygon fill="midnightblue" stroke="midnightblue" points="353.034,-260.629 344.929,-267.453 355.52,-267.173 353.034,-260.629"/>
</g>
<!-- Node5&#45;&gt;Node13 -->
<g id="edge12" class="edge"><title>Node5&#45;&gt;Node13</title>
<path fill="none" stroke="midnightblue" d="M214.882,-263.295C191.547,-252.665 165.399,-240.755 142.931,-230.521"/>
<polygon fill="midnightblue" stroke="midnightblue" points="213.46,-266.493 224.011,-267.453 216.362,-260.122 213.46,-266.493"/>
</g>
<!-- Node15 -->
<g id="node15" class="node"><title>Node15</title>
<g id="a_node15"><a xlink:href="ModelChain_8cpp.html" target="_top" xlink:title="/home/lucamuratore\l/advr&#45;superbuild/external\l/XBotInterface/src/ModelChain.cpp">
<polygon fill="none" stroke="black" points="194,-184 194,-225 364,-225 364,-184 194,-184"/>
<text text-anchor="start" x="202" y="-213" font-family="Helvetica,sans-Serif" font-size="10.00">/home/lucamuratore</text>
<text text-anchor="start" x="202" y="-202" font-family="Helvetica,sans-Serif" font-size="10.00">/advr&#45;superbuild/external</text>
<text text-anchor="middle" x="279" y="-191" font-family="Helvetica,sans-Serif" font-size="10.00">/XBotInterface/src/ModelChain.cpp</text>
</a>
</g>
</g>
<!-- Node5&#45;&gt;Node15 -->
<g id="edge15" class="edge"><title>Node5&#45;&gt;Node15</title>
<path fill="none" stroke="midnightblue" d="M279,-257.155C279,-246.21 279,-234.549 279,-225.082"/>
<polygon fill="midnightblue" stroke="midnightblue" points="275.5,-257.336 279,-267.336 282.5,-257.336 275.5,-257.336"/>
</g>
<!-- Node7 -->
<g id="node7" class="node"><title>Node7</title>
<g id="a_node7"><a xlink:href="RobotInterface_8h.html" target="_top" xlink:title="/home/lucamuratore\l/advr&#45;superbuild/external\l/XBotInterface/include/XBotInterface\l/RobotInterface.h">
<polygon fill="none" stroke="black" points="226,-89.5 226,-141.5 402,-141.5 402,-89.5 226,-89.5"/>
<text text-anchor="start" x="234" y="-129.5" font-family="Helvetica,sans-Serif" font-size="10.00">/home/lucamuratore</text>
<text text-anchor="start" x="234" y="-118.5" font-family="Helvetica,sans-Serif" font-size="10.00">/advr&#45;superbuild/external</text>
<text text-anchor="start" x="234" y="-107.5" font-family="Helvetica,sans-Serif" font-size="10.00">/XBotInterface/include/XBotInterface</text>
<text text-anchor="middle" x="314" y="-96.5" font-family="Helvetica,sans-Serif" font-size="10.00">/RobotInterface.h</text>
</a>
</g>
</g>
<!-- Node6&#45;&gt;Node7 -->
<g id="edge6" class="edge"><title>Node6&#45;&gt;Node7</title>
<path fill="none" stroke="midnightblue" d="M442.875,-174.295C419.173,-163.665 392.615,-151.755 369.794,-141.521"/>
<polygon fill="midnightblue" stroke="midnightblue" points="441.591,-177.554 452.147,-178.453 444.455,-171.167 441.591,-177.554"/>
</g>
<!-- Node11 -->
<g id="node11" class="node"><title>Node11</title>
<g id="a_node11"><a xlink:href="Utils_8h.html" target="_top" xlink:title="/home/lucamuratore\l/advr&#45;superbuild/external\l/XBotInterface/include/XBotInterface\l/Utils.h">
<polygon fill="none" stroke="black" points="420,-89.5 420,-141.5 596,-141.5 596,-89.5 420,-89.5"/>
<text text-anchor="start" x="428" y="-129.5" font-family="Helvetica,sans-Serif" font-size="10.00">/home/lucamuratore</text>
<text text-anchor="start" x="428" y="-118.5" font-family="Helvetica,sans-Serif" font-size="10.00">/advr&#45;superbuild/external</text>
<text text-anchor="start" x="428" y="-107.5" font-family="Helvetica,sans-Serif" font-size="10.00">/XBotInterface/include/XBotInterface</text>
<text text-anchor="middle" x="508" y="-96.5" font-family="Helvetica,sans-Serif" font-size="10.00">/Utils.h</text>
</a>
</g>
</g>
<!-- Node6&#45;&gt;Node11 -->
<g id="edge10" class="edge"><title>Node6&#45;&gt;Node11</title>
<path fill="none" stroke="midnightblue" d="M508,-168.191C508,-159.282 508,-149.899 508,-141.607"/>
<polygon fill="midnightblue" stroke="midnightblue" points="504.5,-168.336 508,-178.336 511.5,-168.336 504.5,-168.336"/>
</g>
<!-- Node12 -->
<g id="node12" class="node"><title>Node12</title>
<g id="a_node12"><a xlink:href="ModelInterface_8cpp.html" target="_top" xlink:title="/home/lucamuratore\l/advr&#45;superbuild/external\l/XBotInterface/src/ModelInterface.cpp">
<polygon fill="none" stroke="black" points="614,-95 614,-136 796,-136 796,-95 614,-95"/>
<text text-anchor="start" x="622" y="-124" font-family="Helvetica,sans-Serif" font-size="10.00">/home/lucamuratore</text>
<text text-anchor="start" x="622" y="-113" font-family="Helvetica,sans-Serif" font-size="10.00">/advr&#45;superbuild/external</text>
<text text-anchor="middle" x="705" y="-102" font-family="Helvetica,sans-Serif" font-size="10.00">/XBotInterface/src/ModelInterface.cpp</text>
</a>
</g>
</g>
<!-- Node6&#45;&gt;Node12 -->
<g id="edge11" class="edge"><title>Node6&#45;&gt;Node12</title>
<path fill="none" stroke="midnightblue" d="M574.185,-174.271C602.607,-161.719 635.067,-147.384 660.542,-136.134"/>
<polygon fill="midnightblue" stroke="midnightblue" points="572.45,-171.211 564.716,-178.453 575.278,-177.615 572.45,-171.211"/>
</g>
<!-- Node8 -->
<g id="node8" class="node"><title>Node8</title>
<g id="a_node8"><a xlink:href="StateMachine_8h.html" target="_top" xlink:title="/home/lucamuratore\l/advr&#45;superbuild/external\l/XBotInterface/include/XBotInterface\l/StateMachine.h">
<polygon fill="none" stroke="black" points="58,-0.5 58,-52.5 234,-52.5 234,-0.5 58,-0.5"/>
<text text-anchor="start" x="66" y="-40.5" font-family="Helvetica,sans-Serif" font-size="10.00">/home/lucamuratore</text>
<text text-anchor="start" x="66" y="-29.5" font-family="Helvetica,sans-Serif" font-size="10.00">/advr&#45;superbuild/external</text>
<text text-anchor="start" x="66" y="-18.5" font-family="Helvetica,sans-Serif" font-size="10.00">/XBotInterface/include/XBotInterface</text>
<text text-anchor="middle" x="146" y="-7.5" font-family="Helvetica,sans-Serif" font-size="10.00">/StateMachine.h</text>
</a>
</g>
</g>
<!-- Node7&#45;&gt;Node8 -->
<g id="edge7" class="edge"><title>Node7&#45;&gt;Node8</title>
<path fill="none" stroke="midnightblue" d="M256.33,-84.6354C236.189,-74.2049 213.8,-62.6109 194.483,-52.6075"/>
<polygon fill="midnightblue" stroke="midnightblue" points="254.918,-87.8454 265.407,-89.336 258.137,-81.6294 254.918,-87.8454"/>
</g>
<!-- Node9 -->
<g id="node9" class="node"><title>Node9</title>
<g id="a_node9"><a xlink:href="main__test_8cpp.html" target="_top" xlink:title="/home/lucamuratore\l/advr&#45;superbuild/external\l/XBotInterface/src/main\l_test.cpp">
<polygon fill="none" stroke="black" points="252.5,-0.5 252.5,-52.5 375.5,-52.5 375.5,-0.5 252.5,-0.5"/>
<text text-anchor="start" x="260.5" y="-40.5" font-family="Helvetica,sans-Serif" font-size="10.00">/home/lucamuratore</text>
<text text-anchor="start" x="260.5" y="-29.5" font-family="Helvetica,sans-Serif" font-size="10.00">/advr&#45;superbuild/external</text>
<text text-anchor="start" x="260.5" y="-18.5" font-family="Helvetica,sans-Serif" font-size="10.00">/XBotInterface/src/main</text>
<text text-anchor="middle" x="314" y="-7.5" font-family="Helvetica,sans-Serif" font-size="10.00">_test.cpp</text>
</a>
</g>
</g>
<!-- Node7&#45;&gt;Node9 -->
<g id="edge8" class="edge"><title>Node7&#45;&gt;Node9</title>
<path fill="none" stroke="midnightblue" d="M314,-79.1908C314,-70.2824 314,-60.8986 314,-52.6075"/>
<polygon fill="midnightblue" stroke="midnightblue" points="310.5,-79.336 314,-89.336 317.5,-79.336 310.5,-79.336"/>
</g>
<!-- Node10 -->
<g id="node10" class="node"><title>Node10</title>
<g id="a_node10"><a xlink:href="RobotInterface_8cpp.html" target="_top" xlink:title="/home/lucamuratore\l/advr&#45;superbuild/external\l/XBotInterface/src/RobotInterface.cpp">
<polygon fill="none" stroke="black" points="394,-6 394,-47 576,-47 576,-6 394,-6"/>
<text text-anchor="start" x="402" y="-35" font-family="Helvetica,sans-Serif" font-size="10.00">/home/lucamuratore</text>
<text text-anchor="start" x="402" y="-24" font-family="Helvetica,sans-Serif" font-size="10.00">/advr&#45;superbuild/external</text>
<text text-anchor="middle" x="485" y="-13" font-family="Helvetica,sans-Serif" font-size="10.00">/XBotInterface/src/RobotInterface.cpp</text>
</a>
</g>
</g>
<!-- Node7&#45;&gt;Node10 -->
<g id="edge9" class="edge"><title>Node7&#45;&gt;Node10</title>
<path fill="none" stroke="midnightblue" d="M372.642,-84.6648C397.063,-72.2399 424.738,-58.1596 446.511,-47.0821"/>
<polygon fill="midnightblue" stroke="midnightblue" points="370.786,-81.6819 363.46,-89.336 373.96,-87.9208 370.786,-81.6819"/>
</g>
<!-- Node13&#45;&gt;Node7 -->
<g id="edge13" class="edge"><title>Node13&#45;&gt;Node7</title>
<path fill="none" stroke="midnightblue" d="M162.404,-174.858C190.382,-164.087 221.947,-151.936 249.003,-141.521"/>
<polygon fill="midnightblue" stroke="midnightblue" points="161.14,-171.594 153.065,-178.453 163.655,-178.126 161.14,-171.594"/>
</g>
<!-- Node14 -->
<g id="node14" class="node"><title>Node14</title>
<g id="a_node14"><a xlink:href="RobotChain_8cpp.html" target="_top" xlink:title="/home/lucamuratore\l/advr&#45;superbuild/external\l/XBotInterface/src/RobotChain.cpp">
<polygon fill="none" stroke="black" points="3,-95 3,-136 173,-136 173,-95 3,-95"/>
<text text-anchor="start" x="11" y="-124" font-family="Helvetica,sans-Serif" font-size="10.00">/home/lucamuratore</text>
<text text-anchor="start" x="11" y="-113" font-family="Helvetica,sans-Serif" font-size="10.00">/advr&#45;superbuild/external</text>
<text text-anchor="middle" x="88" y="-102" font-family="Helvetica,sans-Serif" font-size="10.00">/XBotInterface/src/RobotChain.cpp</text>
</a>
</g>
</g>
<!-- Node13&#45;&gt;Node14 -->
<g id="edge14" class="edge"><title>Node13&#45;&gt;Node14</title>
<path fill="none" stroke="midnightblue" d="M88,-168.155C88,-157.21 88,-145.549 88,-136.082"/>
<polygon fill="midnightblue" stroke="midnightblue" points="84.5001,-168.336 88,-178.336 91.5001,-168.336 84.5001,-168.336"/>
</g>
<!-- Node16&#45;&gt;Node6 -->
<g id="edge18" class="edge"><title>Node16&#45;&gt;Node6</title>
<path fill="none" stroke="midnightblue" d="M486.971,-257.771C490.624,-248.691 494.491,-239.079 497.899,-230.607"/>
<polygon fill="midnightblue" stroke="midnightblue" points="483.609,-256.752 483.123,-267.336 490.103,-259.365 483.609,-256.752"/>
</g>
<!-- Node16&#45;&gt;Node7 -->
<g id="edge19" class="edge"><title>Node16&#45;&gt;Node7</title>
<path fill="none" stroke="midnightblue" d="M438.48,-260.29C429.23,-251.123 419.458,-240.925 411,-231 392.201,-208.939 391.524,-200.292 373,-178 362.693,-165.596 350.467,-152.606 339.824,-141.777"/>
<polygon fill="midnightblue" stroke="midnightblue" points="436.153,-262.909 445.751,-267.396 441.046,-257.903 436.153,-262.909"/>
</g>
<!-- Node17 -->
<g id="node17" class="node"><title>Node17</title>
<g id="a_node17"><a xlink:href="XBotInterface_8cpp.html" target="_top" xlink:title="/home/lucamuratore\l/advr&#45;superbuild/external\l/XBotInterface/src/XBotInterface.cpp">
<polygon fill="none" stroke="black" points="614,-184 614,-225 792,-225 792,-184 614,-184"/>
<text text-anchor="start" x="622" y="-213" font-family="Helvetica,sans-Serif" font-size="10.00">/home/lucamuratore</text>
<text text-anchor="start" x="622" y="-202" font-family="Helvetica,sans-Serif" font-size="10.00">/advr&#45;superbuild/external</text>
<text text-anchor="middle" x="703" y="-191" font-family="Helvetica,sans-Serif" font-size="10.00">/XBotInterface/src/XBotInterface.cpp</text>
</a>
</g>
</g>
<!-- Node16&#45;&gt;Node17 -->
<g id="edge20" class="edge"><title>Node16&#45;&gt;Node17</title>
<path fill="none" stroke="midnightblue" d="M548.975,-263.762C582.465,-251.094 620.964,-236.531 651.094,-225.134"/>
<polygon fill="midnightblue" stroke="midnightblue" points="547.332,-260.641 539.217,-267.453 549.808,-267.188 547.332,-260.641"/>
</g>
</g>
</svg>
