<?xml version="1.0" encoding="UTF-8" standalone="no"?>
<!DOCTYPE svg PUBLIC "-//W3C//DTD SVG 1.1//EN"
 "http://www.w3.org/Graphics/SVG/1.1/DTD/svg11.dtd">
<!-- Generated by graphviz version 2.36.0 (20140111.2315)
 -->
<!-- Title: /home/lucamuratore/advr&#45;superbuild/external/XBotInterface/include/spdlog/tweakme.h Pages: 1 -->
<svg width="810pt" height="602pt"
 viewBox="0.00 0.00 810.00 602.00" xmlns="http://www.w3.org/2000/svg" xmlns:xlink="http://www.w3.org/1999/xlink">
<g id="graph0" class="graph" transform="scale(1 1) rotate(0) translate(4 598)">
<title>/home/lucamuratore/advr&#45;superbuild/external/XBotInterface/include/spdlog/tweakme.h</title>
<!-- Node1 -->
<g id="node1" class="node"><title>Node1</title>
<polygon fill="#bfbfbf" stroke="black" points="10.5,-541 10.5,-593 155.5,-593 155.5,-541 10.5,-541"/>
<text text-anchor="start" x="18.5" y="-581" font-family="Helvetica,sans-Serif" font-size="10.00">/home/lucamuratore</text>
<text text-anchor="start" x="18.5" y="-570" font-family="Helvetica,sans-Serif" font-size="10.00">/advr&#45;superbuild/external</text>
<text text-anchor="start" x="18.5" y="-559" font-family="Helvetica,sans-Serif" font-size="10.00">/XBotInterface/include/spdlog</text>
<text text-anchor="middle" x="83" y="-548" font-family="Helvetica,sans-Serif" font-size="10.00">/tweakme.h</text>
</g>
<!-- Node2 -->
<g id="node2" class="node"><title>Node2</title>
<g id="a_node2"><a xlink:href="spdlog_8h.html" target="_top" xlink:title="/home/lucamuratore\l/advr&#45;superbuild/external\l/XBotInterface/include/spdlog\l/spdlog.h">
<polygon fill="none" stroke="black" points="10.5,-451 10.5,-503 155.5,-503 155.5,-451 10.5,-451"/>
<text text-anchor="start" x="18.5" y="-491" font-family="Helvetica,sans-Serif" font-size="10.00">/home/lucamuratore</text>
<text text-anchor="start" x="18.5" y="-480" font-family="Helvetica,sans-Serif" font-size="10.00">/advr&#45;superbuild/external</text>
<text text-anchor="start" x="18.5" y="-469" font-family="Helvetica,sans-Serif" font-size="10.00">/XBotInterface/include/spdlog</text>
<text text-anchor="middle" x="83" y="-458" font-family="Helvetica,sans-Serif" font-size="10.00">/spdlog.h</text>
</a>
</g>
</g>
<!-- Node1&#45;&gt;Node2 -->
<g id="edge1" class="edge"><title>Node1&#45;&gt;Node2</title>
<path fill="none" stroke="midnightblue" d="M83,-530.489C83,-521.309 83,-511.616 83,-503.092"/>
<polygon fill="midnightblue" stroke="midnightblue" points="79.5001,-530.547 83,-540.547 86.5001,-530.547 79.5001,-530.547"/>
</g>
<!-- Node3 -->
<g id="node3" class="node"><title>Node3</title>
<g id="a_node3"><a xlink:href="spdlog__impl_8h.html" target="_top" xlink:title="/home/lucamuratore\l/advr&#45;superbuild/external\l/XBotInterface/include/spdlog\l/details/spdlog_impl.h">
<polygon fill="none" stroke="black" points="10.5,-361 10.5,-413 155.5,-413 155.5,-361 10.5,-361"/>
<text text-anchor="start" x="18.5" y="-401" font-family="Helvetica,sans-Serif" font-size="10.00">/home/lucamuratore</text>
<text text-anchor="start" x="18.5" y="-390" font-family="Helvetica,sans-Serif" font-size="10.00">/advr&#45;superbuild/external</text>
<text text-anchor="start" x="18.5" y="-379" font-family="Helvetica,sans-Serif" font-size="10.00">/XBotInterface/include/spdlog</text>
<text text-anchor="middle" x="83" y="-368" font-family="Helvetica,sans-Serif" font-size="10.00">/details/spdlog_impl.h</text>
</a>
</g>
</g>
<!-- Node2&#45;&gt;Node3 -->
<g id="edge2" class="edge"><title>Node2&#45;&gt;Node3</title>
<path fill="none" stroke="midnightblue" d="M76.3629,-440.489C76.1159,-431.309 76.2741,-421.616 76.8376,-413.092"/>
<polygon fill="midnightblue" stroke="midnightblue" points="72.8694,-440.714 76.814,-450.547 79.8624,-440.4 72.8694,-440.714"/>
</g>
<!-- Node4 -->
<g id="node4" class="node"><title>Node4</title>
<g id="a_node4"><a xlink:href="Logger_8hpp.html" target="_top" xlink:title="/home/lucamuratore\l/advr&#45;superbuild/external\l/XBotInterface/include/XBotInterface\l/Logger.hpp">
<polygon fill="none" stroke="black" points="174,-361 174,-413 350,-413 350,-361 174,-361"/>
<text text-anchor="start" x="182" y="-401" font-family="Helvetica,sans-Serif" font-size="10.00">/home/lucamuratore</text>
<text text-anchor="start" x="182" y="-390" font-family="Helvetica,sans-Serif" font-size="10.00">/advr&#45;superbuild/external</text>
<text text-anchor="start" x="182" y="-379" font-family="Helvetica,sans-Serif" font-size="10.00">/XBotInterface/include/XBotInterface</text>
<text text-anchor="middle" x="262" y="-368" font-family="Helvetica,sans-Serif" font-size="10.00">/Logger.hpp</text>
</a>
</g>
</g>
<!-- Node2&#45;&gt;Node4 -->
<g id="edge4" class="edge"><title>Node2&#45;&gt;Node4</title>
<path fill="none" stroke="midnightblue" d="M143.516,-446.249C165.446,-435.468 189.979,-423.407 211.008,-413.069"/>
<polygon fill="midnightblue" stroke="midnightblue" points="141.724,-443.23 134.294,-450.783 144.813,-449.512 141.724,-443.23"/>
</g>
<!-- Node3&#45;&gt;Node2 -->
<g id="edge3" class="edge"><title>Node3&#45;&gt;Node2</title>
<path fill="none" stroke="midnightblue" d="M89.6264,-423.123C89.8848,-432.289 89.738,-441.99 89.186,-450.547"/>
<polygon fill="midnightblue" stroke="midnightblue" points="93.1208,-422.92 89.1624,-413.092 86.1283,-423.243 93.1208,-422.92"/>
</g>
<!-- Node5 -->
<g id="node5" class="node"><title>Node5</title>
<g id="a_node5"><a xlink:href="ConfigHelper_8h.html" target="_top" xlink:title="/home/lucamuratore\l/advr&#45;superbuild/external\l/XBotInterface/include/XBotInterface\l/ConfigHelper.h">
<polygon fill="none" stroke="black" points="0,-271 0,-323 176,-323 176,-271 0,-271"/>
<text text-anchor="start" x="8" y="-311" font-family="Helvetica,sans-Serif" font-size="10.00">/home/lucamuratore</text>
<text text-anchor="start" x="8" y="-300" font-family="Helvetica,sans-Serif" font-size="10.00">/advr&#45;superbuild/external</text>
<text text-anchor="start" x="8" y="-289" font-family="Helvetica,sans-Serif" font-size="10.00">/XBotInterface/include/XBotInterface</text>
<text text-anchor="middle" x="88" y="-278" font-family="Helvetica,sans-Serif" font-size="10.00">/ConfigHelper.h</text>
</a>
</g>
</g>
<!-- Node4&#45;&gt;Node5 -->
<g id="edge5" class="edge"><title>Node4&#45;&gt;Node5</title>
<path fill="none" stroke="midnightblue" d="M203.175,-356.249C181.857,-345.468 158.009,-333.407 137.568,-323.069"/>
<polygon fill="midnightblue" stroke="midnightblue" points="201.635,-359.393 212.139,-360.783 204.795,-353.146 201.635,-359.393"/>
</g>
<!-- Node7 -->
<g id="node7" class="node"><title>Node7</title>
<g id="a_node7"><a xlink:href="StateMachine_8h.html" target="_top" xlink:title="/home/lucamuratore\l/advr&#45;superbuild/external\l/XBotInterface/include/XBotInterface\l/StateMachine.h">
<polygon fill="none" stroke="black" points="90,-1 90,-53 266,-53 266,-1 90,-1"/>
<text text-anchor="start" x="98" y="-41" font-family="Helvetica,sans-Serif" font-size="10.00">/home/lucamuratore</text>
<text text-anchor="start" x="98" y="-30" font-family="Helvetica,sans-Serif" font-size="10.00">/advr&#45;superbuild/external</text>
<text text-anchor="start" x="98" y="-19" font-family="Helvetica,sans-Serif" font-size="10.00">/XBotInterface/include/XBotInterface</text>
<text text-anchor="middle" x="178" y="-8" font-family="Helvetica,sans-Serif" font-size="10.00">/StateMachine.h</text>
</a>
</g>
</g>
<!-- Node4&#45;&gt;Node7 -->
<g id="edge7" class="edge"><title>Node4&#45;&gt;Node7</title>
<path fill="none" stroke="midnightblue" d="M237.429,-352.472C231.912,-343.586 226.625,-333.743 223,-324 187.384,-228.271 179.931,-105.105 178.391,-53.0231"/>
<polygon fill="midnightblue" stroke="midnightblue" points="234.587,-354.521 242.971,-360.999 240.457,-350.707 234.587,-354.521"/>
</g>
<!-- Node8 -->
<g id="node8" class="node"><title>Node8</title>
<g id="a_node8"><a xlink:href="XBotInterface_8h.html" target="_top" xlink:title="/home/lucamuratore\l/advr&#45;superbuild/external\l/XBotInterface/include/XBotInterface\l/XBotInterface.h">
<polygon fill="none" stroke="black" points="232,-271 232,-323 408,-323 408,-271 232,-271"/>
<text text-anchor="start" x="240" y="-311" font-family="Helvetica,sans-Serif" font-size="10.00">/home/lucamuratore</text>
<text text-anchor="start" x="240" y="-300" font-family="Helvetica,sans-Serif" font-size="10.00">/advr&#45;superbuild/external</text>
<text text-anchor="start" x="240" y="-289" font-family="Helvetica,sans-Serif" font-size="10.00">/XBotInterface/include/XBotInterface</text>
<text text-anchor="middle" x="320" y="-278" font-family="Helvetica,sans-Serif" font-size="10.00">/XBotInterface.h</text>
</a>
</g>
</g>
<!-- Node4&#45;&gt;Node8 -->
<g id="edge8" class="edge"><title>Node4&#45;&gt;Node8</title>
<path fill="none" stroke="midnightblue" d="M284.432,-351.965C290.766,-342.354 297.542,-332.074 303.462,-323.092"/>
<polygon fill="midnightblue" stroke="midnightblue" points="281.357,-350.271 278.776,-360.547 287.202,-354.123 281.357,-350.271"/>
</g>
<!-- Node16 -->
<g id="node16" class="node"><title>Node16</title>
<g id="a_node16"><a xlink:href="Logger_8cpp.html" target="_top" xlink:title="/home/lucamuratore\l/advr&#45;superbuild/external\l/XBotInterface/src/Logger.cpp">
<polygon fill="none" stroke="black" points="426.5,-276.5 426.5,-317.5 573.5,-317.5 573.5,-276.5 426.5,-276.5"/>
<text text-anchor="start" x="434.5" y="-305.5" font-family="Helvetica,sans-Serif" font-size="10.00">/home/lucamuratore</text>
<text text-anchor="start" x="434.5" y="-294.5" font-family="Helvetica,sans-Serif" font-size="10.00">/advr&#45;superbuild/external</text>
<text text-anchor="middle" x="500" y="-283.5" font-family="Helvetica,sans-Serif" font-size="10.00">/XBotInterface/src/Logger.cpp</text>
</a>
</g>
</g>
<!-- Node4&#45;&gt;Node16 -->
<g id="edge18" class="edge"><title>Node4&#45;&gt;Node16</title>
<path fill="none" stroke="midnightblue" d="M339.653,-357.288C374.853,-344.273 415.565,-329.22 447.158,-317.538"/>
<polygon fill="midnightblue" stroke="midnightblue" points="338.048,-354.15 329.883,-360.901 340.476,-360.715 338.048,-354.15"/>
</g>
<!-- Node6 -->
<g id="node6" class="node"><title>Node6</title>
<g id="a_node6"><a xlink:href="ConfigHelper_8cpp.html" target="_top" xlink:title="/home/lucamuratore\l/advr&#45;superbuild/external\l/XBotInterface/src/ConfigHelper.cpp">
<polygon fill="none" stroke="black" points="0.5,-186.5 0.5,-227.5 175.5,-227.5 175.5,-186.5 0.5,-186.5"/>
<text text-anchor="start" x="8.5" y="-215.5" font-family="Helvetica,sans-Serif" font-size="10.00">/home/lucamuratore</text>
<text text-anchor="start" x="8.5" y="-204.5" font-family="Helvetica,sans-Serif" font-size="10.00">/advr&#45;superbuild/external</text>
<text text-anchor="middle" x="88" y="-193.5" font-family="Helvetica,sans-Serif" font-size="10.00">/XBotInterface/src/ConfigHelper.cpp</text>
</a>
</g>
</g>
<!-- Node5&#45;&gt;Node6 -->
<g id="edge6" class="edge"><title>Node5&#45;&gt;Node6</title>
<path fill="none" stroke="midnightblue" d="M88,-260.515C88,-249.257 88,-237.227 88,-227.525"/>
<polygon fill="midnightblue" stroke="midnightblue" points="84.5001,-260.547 88,-270.547 91.5001,-260.547 84.5001,-260.547"/>
</g>
<!-- Node9 -->
<g id="node9" class="node"><title>Node9</title>
<g id="a_node9"><a xlink:href="ModelInterface_8h.html" target="_top" xlink:title="/home/lucamuratore\l/advr&#45;superbuild/external\l/XBotInterface/include/XBotInterface\l/ModelInterface.h">
<polygon fill="none" stroke="black" points="348,-181 348,-233 524,-233 524,-181 348,-181"/>
<text text-anchor="start" x="356" y="-221" font-family="Helvetica,sans-Serif" font-size="10.00">/home/lucamuratore</text>
<text text-anchor="start" x="356" y="-210" font-family="Helvetica,sans-Serif" font-size="10.00">/advr&#45;superbuild/external</text>
<text text-anchor="start" x="356" y="-199" font-family="Helvetica,sans-Serif" font-size="10.00">/XBotInterface/include/XBotInterface</text>
<text text-anchor="middle" x="436" y="-188" font-family="Helvetica,sans-Serif" font-size="10.00">/ModelInterface.h</text>
</a>
</g>
</g>
<!-- Node8&#45;&gt;Node9 -->
<g id="edge9" class="edge"><title>Node8&#45;&gt;Node9</title>
<path fill="none" stroke="midnightblue" d="M361.479,-264.534C375.029,-254.254 389.891,-242.979 402.754,-233.221"/>
<polygon fill="midnightblue" stroke="midnightblue" points="359.093,-261.95 353.241,-270.783 363.323,-267.527 359.093,-261.95"/>
</g>
<!-- Node10 -->
<g id="node10" class="node"><title>Node10</title>
<g id="a_node10"><a xlink:href="RobotInterface_8h.html" target="_top" xlink:title="/home/lucamuratore\l/advr&#45;superbuild/external\l/XBotInterface/include/XBotInterface\l/RobotInterface.h">
<polygon fill="none" stroke="black" points="232,-91 232,-143 408,-143 408,-91 232,-91"/>
<text text-anchor="start" x="240" y="-131" font-family="Helvetica,sans-Serif" font-size="10.00">/home/lucamuratore</text>
<text text-anchor="start" x="240" y="-120" font-family="Helvetica,sans-Serif" font-size="10.00">/advr&#45;superbuild/external</text>
<text text-anchor="start" x="240" y="-109" font-family="Helvetica,sans-Serif" font-size="10.00">/XBotInterface/include/XBotInterface</text>
<text text-anchor="middle" x="320" y="-98" font-family="Helvetica,sans-Serif" font-size="10.00">/RobotInterface.h</text>
</a>
</g>
</g>
<!-- Node8&#45;&gt;Node10 -->
<g id="edge16" class="edge"><title>Node8&#45;&gt;Node10</title>
<path fill="none" stroke="midnightblue" d="M320,-260.717C320,-226.052 320,-174.016 320,-143.285"/>
<polygon fill="midnightblue" stroke="midnightblue" points="316.5,-260.874 320,-270.874 323.5,-260.875 316.5,-260.874"/>
</g>
<!-- Node15 -->
<g id="node15" class="node"><title>Node15</title>
<g id="a_node15"><a xlink:href="XBotInterface_8cpp.html" target="_top" xlink:title="/home/lucamuratore\l/advr&#45;superbuild/external\l/XBotInterface/src/XBotInterface.cpp">
<polygon fill="none" stroke="black" points="542,-186.5 542,-227.5 720,-227.5 720,-186.5 542,-186.5"/>
<text text-anchor="start" x="550" y="-215.5" font-family="Helvetica,sans-Serif" font-size="10.00">/home/lucamuratore</text>
<text text-anchor="start" x="550" y="-204.5" font-family="Helvetica,sans-Serif" font-size="10.00">/advr&#45;superbuild/external</text>
<text text-anchor="middle" x="631" y="-193.5" font-family="Helvetica,sans-Serif" font-size="10.00">/XBotInterface/src/XBotInterface.cpp</text>
</a>
</g>
</g>
<!-- Node8&#45;&gt;Node15 -->
<g id="edge17" class="edge"><title>Node8&#45;&gt;Node15</title>
<path fill="none" stroke="midnightblue" d="M418.138,-268.231C464.906,-254.998 519.725,-239.486 562.018,-227.519"/>
<polygon fill="midnightblue" stroke="midnightblue" points="416.957,-264.928 408.288,-271.018 418.863,-271.663 416.957,-264.928"/>
</g>
<!-- Node9&#45;&gt;Node10 -->
<g id="edge10" class="edge"><title>Node9&#45;&gt;Node10</title>
<path fill="none" stroke="midnightblue" d="M394.521,-174.534C380.971,-164.254 366.109,-152.979 353.246,-143.221"/>
<polygon fill="midnightblue" stroke="midnightblue" points="392.677,-177.527 402.759,-180.783 396.907,-171.95 392.677,-177.527"/>
</g>
<!-- Node13 -->
<g id="node13" class="node"><title>Node13</title>
<g id="a_node13"><a xlink:href="Utils_8h.html" target="_top" xlink:title="/home/lucamuratore\l/advr&#45;superbuild/external\l/XBotInterface/include/XBotInterface\l/Utils.h">
<polygon fill="none" stroke="black" points="426,-91 426,-143 602,-143 602,-91 426,-91"/>
<text text-anchor="start" x="434" y="-131" font-family="Helvetica,sans-Serif" font-size="10.00">/home/lucamuratore</text>
<text text-anchor="start" x="434" y="-120" font-family="Helvetica,sans-Serif" font-size="10.00">/advr&#45;superbuild/external</text>
<text text-anchor="start" x="434" y="-109" font-family="Helvetica,sans-Serif" font-size="10.00">/XBotInterface/include/XBotInterface</text>
<text text-anchor="middle" x="514" y="-98" font-family="Helvetica,sans-Serif" font-size="10.00">/Utils.h</text>
</a>
</g>
</g>
<!-- Node9&#45;&gt;Node13 -->
<g id="edge14" class="edge"><title>Node9&#45;&gt;Node13</title>
<path fill="none" stroke="midnightblue" d="M465.387,-172.846C474.127,-162.985 483.554,-152.349 491.759,-143.092"/>
<polygon fill="midnightblue" stroke="midnightblue" points="462.575,-170.742 458.561,-180.547 467.813,-175.385 462.575,-170.742"/>
</g>
<!-- Node14 -->
<g id="node14" class="node"><title>Node14</title>
<g id="a_node14"><a xlink:href="ModelInterface_8cpp.html" target="_top" xlink:title="/home/lucamuratore\l/advr&#45;superbuild/external\l/XBotInterface/src/ModelInterface.cpp">
<polygon fill="none" stroke="black" points="620,-96.5 620,-137.5 802,-137.5 802,-96.5 620,-96.5"/>
<text text-anchor="start" x="628" y="-125.5" font-family="Helvetica,sans-Serif" font-size="10.00">/home/lucamuratore</text>
<text text-anchor="start" x="628" y="-114.5" font-family="Helvetica,sans-Serif" font-size="10.00">/advr&#45;superbuild/external</text>
<text text-anchor="middle" x="711" y="-103.5" font-family="Helvetica,sans-Serif" font-size="10.00">/XBotInterface/src/ModelInterface.cpp</text>
</a>
</g>
</g>
<!-- Node9&#45;&gt;Node14 -->
<g id="edge15" class="edge"><title>Node9&#45;&gt;Node14</title>
<path fill="none" stroke="midnightblue" d="M524.164,-177.788C565.189,-164.659 612.97,-149.37 649.943,-137.538"/>
<polygon fill="midnightblue" stroke="midnightblue" points="522.893,-174.519 514.436,-180.901 525.027,-181.186 522.893,-174.519"/>
</g>
<!-- Node10&#45;&gt;Node7 -->
<g id="edge11" class="edge"><title>Node10&#45;&gt;Node7</title>
<path fill="none" stroke="midnightblue" d="M270.629,-85.4039C253.669,-74.8936 234.889,-63.2553 218.697,-53.221"/>
<polygon fill="midnightblue" stroke="midnightblue" points="268.965,-88.4901 279.308,-90.7827 272.652,-82.54 268.965,-88.4901"/>
</g>
<!-- Node11 -->
<g id="node11" class="node"><title>Node11</title>
<g id="a_node11"><a xlink:href="main__test_8cpp.html" target="_top" xlink:title="/home/lucamuratore\l/advr&#45;superbuild/external\l/XBotInterface/src/main\l_test.cpp">
<polygon fill="none" stroke="black" points="284.5,-1 284.5,-53 407.5,-53 407.5,-1 284.5,-1"/>
<text text-anchor="start" x="292.5" y="-41" font-family="Helvetica,sans-Serif" font-size="10.00">/home/lucamuratore</text>
<text text-anchor="start" x="292.5" y="-30" font-family="Helvetica,sans-Serif" font-size="10.00">/advr&#45;superbuild/external</text>
<text text-anchor="start" x="292.5" y="-19" font-family="Helvetica,sans-Serif" font-size="10.00">/XBotInterface/src/main</text>
<text text-anchor="middle" x="346" y="-8" font-family="Helvetica,sans-Serif" font-size="10.00">_test.cpp</text>
</a>
</g>
</g>
<!-- Node10&#45;&gt;Node11 -->
<g id="edge12" class="edge"><title>Node10&#45;&gt;Node11</title>
<path fill="none" stroke="midnightblue" d="M330.404,-80.7852C333.143,-71.5174 336.041,-61.7076 338.586,-53.0921"/>
<polygon fill="midnightblue" stroke="midnightblue" points="326.997,-79.9648 327.52,-90.5468 333.71,-81.9483 326.997,-79.9648"/>
</g>
<!-- Node12 -->
<g id="node12" class="node"><title>Node12</title>
<g id="a_node12"><a xlink:href="RobotInterface_8cpp.html" target="_top" xlink:title="/home/lucamuratore\l/advr&#45;superbuild/external\l/XBotInterface/src/RobotInterface.cpp">
<polygon fill="none" stroke="black" points="426,-6.5 426,-47.5 608,-47.5 608,-6.5 426,-6.5"/>
<text text-anchor="start" x="434" y="-35.5" font-family="Helvetica,sans-Serif" font-size="10.00">/home/lucamuratore</text>
<text text-anchor="start" x="434" y="-24.5" font-family="Helvetica,sans-Serif" font-size="10.00">/advr&#45;superbuild/external</text>
<text text-anchor="middle" x="517" y="-13.5" font-family="Helvetica,sans-Serif" font-size="10.00">/XBotInterface/src/RobotInterface.cpp</text>
</a>
</g>
</g>
<!-- Node10&#45;&gt;Node12 -->
<g id="edge13" class="edge"><title>Node10&#45;&gt;Node12</title>
<path fill="none" stroke="midnightblue" d="M385.398,-86.7865C414.274,-73.8875 447.445,-59.07 473.261,-47.5384"/>
<polygon fill="midnightblue" stroke="midnightblue" points="383.892,-83.6262 376.189,-90.9005 386.747,-90.0175 383.892,-83.6262"/>
</g>
</g>
</svg>
