<?xml version="1.0" encoding="UTF-8" standalone="no"?>
<!DOCTYPE svg PUBLIC "-//W3C//DTD SVG 1.1//EN"
 "http://www.w3.org/Graphics/SVG/1.1/DTD/svg11.dtd">
<!-- Generated by graphviz version 2.36.0 (20140111.2315)
 -->
<!-- Title: /home/lucamuratore/advr&#45;superbuild/external/XBotInterface/include/XBotInterface/TypedefAndEnums.h Pages: 1 -->
<svg width="804pt" height="692pt"
 viewBox="0.00 0.00 804.00 692.00" xmlns="http://www.w3.org/2000/svg" xmlns:xlink="http://www.w3.org/1999/xlink">
<g id="graph0" class="graph" transform="scale(1 1) rotate(0) translate(4 688)">
<title>/home/lucamuratore/advr&#45;superbuild/external/XBotInterface/include/XBotInterface/TypedefAndEnums.h</title>
<!-- Node1 -->
<g id="node1" class="node"><title>Node1</title>
<polygon fill="#bfbfbf" stroke="black" points="456,-631 456,-683 632,-683 632,-631 456,-631"/>
<text text-anchor="start" x="464" y="-671" font-family="Helvetica,sans-Serif" font-size="10.00">/home/lucamuratore</text>
<text text-anchor="start" x="464" y="-660" font-family="Helvetica,sans-Serif" font-size="10.00">/advr&#45;superbuild/external</text>
<text text-anchor="start" x="464" y="-649" font-family="Helvetica,sans-Serif" font-size="10.00">/XBotInterface/include/XBotInterface</text>
<text text-anchor="middle" x="544" y="-638" font-family="Helvetica,sans-Serif" font-size="10.00">/TypedefAndEnums.h</text>
</g>
<!-- Node2 -->
<g id="node2" class="node"><title>Node2</title>
<g id="a_node2"><a xlink:href="SyncFlags_8h.html" target="_top" xlink:title="/home/lucamuratore\l/advr&#45;superbuild/external\l/XBotInterface/include/XBotInterface\l/SyncFlags.h">
<polygon fill="none" stroke="black" points="398,-541 398,-593 574,-593 574,-541 398,-541"/>
<text text-anchor="start" x="406" y="-581" font-family="Helvetica,sans-Serif" font-size="10.00">/home/lucamuratore</text>
<text text-anchor="start" x="406" y="-570" font-family="Helvetica,sans-Serif" font-size="10.00">/advr&#45;superbuild/external</text>
<text text-anchor="start" x="406" y="-559" font-family="Helvetica,sans-Serif" font-size="10.00">/XBotInterface/include/XBotInterface</text>
<text text-anchor="middle" x="486" y="-548" font-family="Helvetica,sans-Serif" font-size="10.00">/SyncFlags.h</text>
</a>
</g>
</g>
<!-- Node1&#45;&gt;Node2 -->
<g id="edge1" class="edge"><title>Node1&#45;&gt;Node2</title>
<path fill="none" stroke="midnightblue" d="M521.568,-621.965C515.234,-612.354 508.458,-602.074 502.538,-593.092"/>
<polygon fill="midnightblue" stroke="midnightblue" points="518.798,-624.123 527.224,-630.547 524.643,-620.271 518.798,-624.123"/>
</g>
<!-- Node16 -->
<g id="node16" class="node"><title>Node16</title>
<g id="a_node16"><a xlink:href="XBotInterface_8h.html" target="_top" xlink:title="/home/lucamuratore\l/advr&#45;superbuild/external\l/XBotInterface/include/XBotInterface\l/XBotInterface.h">
<polygon fill="none" stroke="black" points="514,-271 514,-323 690,-323 690,-271 514,-271"/>
<text text-anchor="start" x="522" y="-311" font-family="Helvetica,sans-Serif" font-size="10.00">/home/lucamuratore</text>
<text text-anchor="start" x="522" y="-300" font-family="Helvetica,sans-Serif" font-size="10.00">/advr&#45;superbuild/external</text>
<text text-anchor="start" x="522" y="-289" font-family="Helvetica,sans-Serif" font-size="10.00">/XBotInterface/include/XBotInterface</text>
<text text-anchor="middle" x="602" y="-278" font-family="Helvetica,sans-Serif" font-size="10.00">/XBotInterface.h</text>
</a>
</g>
</g>
<!-- Node1&#45;&gt;Node16 -->
<g id="edge23" class="edge"><title>Node1&#45;&gt;Node16</title>
<path fill="none" stroke="midnightblue" d="M568.64,-622.352C573.949,-613.527 578.894,-603.743 582,-594 612.667,-497.819 608.099,-375.405 604.273,-323.307"/>
<polygon fill="midnightblue" stroke="midnightblue" points="565.669,-620.501 563.264,-630.819 571.579,-624.253 565.669,-620.501"/>
</g>
<!-- Node3 -->
<g id="node3" class="node"><title>Node3</title>
<g id="a_node3"><a xlink:href="Joint_8h.html" target="_top" xlink:title="/home/lucamuratore\l/advr&#45;superbuild/external\l/XBotInterface/include/XBotInterface\l/Joint.h">
<polygon fill="none" stroke="black" points="398,-451 398,-503 574,-503 574,-451 398,-451"/>
<text text-anchor="start" x="406" y="-491" font-family="Helvetica,sans-Serif" font-size="10.00">/home/lucamuratore</text>
<text text-anchor="start" x="406" y="-480" font-family="Helvetica,sans-Serif" font-size="10.00">/advr&#45;superbuild/external</text>
<text text-anchor="start" x="406" y="-469" font-family="Helvetica,sans-Serif" font-size="10.00">/XBotInterface/include/XBotInterface</text>
<text text-anchor="middle" x="486" y="-458" font-family="Helvetica,sans-Serif" font-size="10.00">/Joint.h</text>
</a>
</g>
</g>
<!-- Node2&#45;&gt;Node3 -->
<g id="edge2" class="edge"><title>Node2&#45;&gt;Node3</title>
<path fill="none" stroke="midnightblue" d="M486,-530.489C486,-521.309 486,-511.616 486,-503.092"/>
<polygon fill="midnightblue" stroke="midnightblue" points="482.5,-530.547 486,-540.547 489.5,-530.547 482.5,-530.547"/>
</g>
<!-- Node4 -->
<g id="node4" class="node"><title>Node4</title>
<g id="a_node4"><a xlink:href="KinematicChain_8h.html" target="_top" xlink:title="/home/lucamuratore\l/advr&#45;superbuild/external\l/XBotInterface/include/XBotInterface\l/KinematicChain.h">
<polygon fill="none" stroke="black" points="231,-361 231,-413 407,-413 407,-361 231,-361"/>
<text text-anchor="start" x="239" y="-401" font-family="Helvetica,sans-Serif" font-size="10.00">/home/lucamuratore</text>
<text text-anchor="start" x="239" y="-390" font-family="Helvetica,sans-Serif" font-size="10.00">/advr&#45;superbuild/external</text>
<text text-anchor="start" x="239" y="-379" font-family="Helvetica,sans-Serif" font-size="10.00">/XBotInterface/include/XBotInterface</text>
<text text-anchor="middle" x="319" y="-368" font-family="Helvetica,sans-Serif" font-size="10.00">/KinematicChain.h</text>
</a>
</g>
</g>
<!-- Node3&#45;&gt;Node4 -->
<g id="edge3" class="edge"><title>Node3&#45;&gt;Node4</title>
<path fill="none" stroke="midnightblue" d="M429.267,-446.105C408.877,-435.36 386.105,-423.361 366.574,-413.069"/>
<polygon fill="midnightblue" stroke="midnightblue" points="427.666,-449.217 438.145,-450.783 430.929,-443.024 427.666,-449.217"/>
</g>
<!-- Node19 -->
<g id="node19" class="node"><title>Node19</title>
<g id="a_node19"><a xlink:href="Joint_8cpp.html" target="_top" xlink:title="/home/lucamuratore\l/advr&#45;superbuild/external\l/XBotInterface/src/Joint.cpp">
<polygon fill="none" stroke="black" points="425.5,-366.5 425.5,-407.5 564.5,-407.5 564.5,-366.5 425.5,-366.5"/>
<text text-anchor="start" x="433.5" y="-395.5" font-family="Helvetica,sans-Serif" font-size="10.00">/home/lucamuratore</text>
<text text-anchor="start" x="433.5" y="-384.5" font-family="Helvetica,sans-Serif" font-size="10.00">/advr&#45;superbuild/external</text>
<text text-anchor="middle" x="495" y="-373.5" font-family="Helvetica,sans-Serif" font-size="10.00">/XBotInterface/src/Joint.cpp</text>
</a>
</g>
</g>
<!-- Node3&#45;&gt;Node19 -->
<g id="edge22" class="edge"><title>Node3&#45;&gt;Node19</title>
<path fill="none" stroke="midnightblue" d="M489.629,-440.515C490.78,-429.257 492.011,-417.227 493.003,-407.525"/>
<polygon fill="midnightblue" stroke="midnightblue" points="486.139,-440.243 488.603,-450.547 493.103,-440.955 486.139,-440.243"/>
</g>
<!-- Node5 -->
<g id="node5" class="node"><title>Node5</title>
<g id="a_node5"><a xlink:href="ModelChain_8h.html" target="_top" xlink:title="/home/lucamuratore\l/advr&#45;superbuild/external\l/XBotInterface/include/XBotInterface\l/ModelChain.h">
<polygon fill="none" stroke="black" points="116,-271 116,-323 292,-323 292,-271 116,-271"/>
<text text-anchor="start" x="124" y="-311" font-family="Helvetica,sans-Serif" font-size="10.00">/home/lucamuratore</text>
<text text-anchor="start" x="124" y="-300" font-family="Helvetica,sans-Serif" font-size="10.00">/advr&#45;superbuild/external</text>
<text text-anchor="start" x="124" y="-289" font-family="Helvetica,sans-Serif" font-size="10.00">/XBotInterface/include/XBotInterface</text>
<text text-anchor="middle" x="204" y="-278" font-family="Helvetica,sans-Serif" font-size="10.00">/ModelChain.h</text>
</a>
</g>
</g>
<!-- Node4&#45;&gt;Node5 -->
<g id="edge4" class="edge"><title>Node4&#45;&gt;Node5</title>
<path fill="none" stroke="midnightblue" d="M277.879,-354.534C264.446,-344.254 249.711,-332.979 236.959,-323.221"/>
<polygon fill="midnightblue" stroke="midnightblue" points="275.977,-357.485 286.046,-360.783 280.231,-351.926 275.977,-357.485"/>
</g>
<!-- Node13 -->
<g id="node13" class="node"><title>Node13</title>
<g id="a_node13"><a xlink:href="RobotChain_8h.html" target="_top" xlink:title="/home/lucamuratore\l/advr&#45;superbuild/external\l/XBotInterface/include/XBotInterface\l/RobotChain.h">
<polygon fill="none" stroke="black" points="0,-181 0,-233 176,-233 176,-181 0,-181"/>
<text text-anchor="start" x="8" y="-221" font-family="Helvetica,sans-Serif" font-size="10.00">/home/lucamuratore</text>
<text text-anchor="start" x="8" y="-210" font-family="Helvetica,sans-Serif" font-size="10.00">/advr&#45;superbuild/external</text>
<text text-anchor="start" x="8" y="-199" font-family="Helvetica,sans-Serif" font-size="10.00">/XBotInterface/include/XBotInterface</text>
<text text-anchor="middle" x="88" y="-188" font-family="Helvetica,sans-Serif" font-size="10.00">/RobotChain.h</text>
</a>
</g>
</g>
<!-- Node4&#45;&gt;Node13 -->
<g id="edge16" class="edge"><title>Node4&#45;&gt;Node13</title>
<path fill="none" stroke="midnightblue" d="M220.76,-379.849C179.97,-372.19 135.58,-356.303 107,-324 85.0939,-299.24 83.3041,-259.364 84.9433,-233.419"/>
<polygon fill="midnightblue" stroke="midnightblue" points="220.316,-383.324 230.766,-381.58 221.509,-376.426 220.316,-383.324"/>
</g>
<!-- Node4&#45;&gt;Node16 -->
<g id="edge17" class="edge"><title>Node4&#45;&gt;Node16</title>
<path fill="none" stroke="midnightblue" d="M409.683,-357.802C445.518,-346.659 486.368,-333.956 521.175,-323.133"/>
<polygon fill="midnightblue" stroke="midnightblue" points="408.227,-354.589 399.718,-360.901 410.306,-361.273 408.227,-354.589"/>
</g>
<!-- Node18 -->
<g id="node18" class="node"><title>Node18</title>
<g id="a_node18"><a xlink:href="KinematicChain_8cpp.html" target="_top" xlink:title="/home/lucamuratore\l/advr&#45;superbuild/external\l/XBotInterface/src/KinematicChain.cpp">
<polygon fill="none" stroke="black" points="309.5,-276.5 309.5,-317.5 496.5,-317.5 496.5,-276.5 309.5,-276.5"/>
<text text-anchor="start" x="317.5" y="-305.5" font-family="Helvetica,sans-Serif" font-size="10.00">/home/lucamuratore</text>
<text text-anchor="start" x="317.5" y="-294.5" font-family="Helvetica,sans-Serif" font-size="10.00">/advr&#45;superbuild/external</text>
<text text-anchor="middle" x="403" y="-283.5" font-family="Helvetica,sans-Serif" font-size="10.00">/XBotInterface/src/KinematicChain.cpp</text>
</a>
</g>
</g>
<!-- Node4&#45;&gt;Node18 -->
<g id="edge21" class="edge"><title>Node4&#45;&gt;Node18</title>
<path fill="none" stroke="midnightblue" d="M350.257,-353.254C361.728,-341.237 374.345,-328.019 384.363,-317.525"/>
<polygon fill="midnightblue" stroke="midnightblue" points="347.669,-350.896 343.296,-360.547 352.733,-355.73 347.669,-350.896"/>
</g>
<!-- Node6 -->
<g id="node6" class="node"><title>Node6</title>
<g id="a_node6"><a xlink:href="ModelInterface_8h.html" target="_top" xlink:title="/home/lucamuratore\l/advr&#45;superbuild/external\l/XBotInterface/include/XBotInterface\l/ModelInterface.h">
<polygon fill="none" stroke="black" points="420,-181 420,-233 596,-233 596,-181 420,-181"/>
<text text-anchor="start" x="428" y="-221" font-family="Helvetica,sans-Serif" font-size="10.00">/home/lucamuratore</text>
<text text-anchor="start" x="428" y="-210" font-family="Helvetica,sans-Serif" font-size="10.00">/advr&#45;superbuild/external</text>
<text text-anchor="start" x="428" y="-199" font-family="Helvetica,sans-Serif" font-size="10.00">/XBotInterface/include/XBotInterface</text>
<text text-anchor="middle" x="508" y="-188" font-family="Helvetica,sans-Serif" font-size="10.00">/ModelInterface.h</text>
</a>
</g>
</g>
<!-- Node5&#45;&gt;Node6 -->
<g id="edge5" class="edge"><title>Node5&#45;&gt;Node6</title>
<path fill="none" stroke="midnightblue" d="M300.447,-268.081C339.262,-256.845 383.681,-243.987 421.441,-233.057"/>
<polygon fill="midnightblue" stroke="midnightblue" points="299.34,-264.758 290.707,-270.901 301.286,-271.482 299.34,-264.758"/>
</g>
<!-- Node5&#45;&gt;Node13 -->
<g id="edge12" class="edge"><title>Node5&#45;&gt;Node13</title>
<path fill="none" stroke="midnightblue" d="M162.521,-264.534C148.971,-254.254 134.109,-242.979 121.246,-233.221"/>
<polygon fill="midnightblue" stroke="midnightblue" points="160.677,-267.527 170.759,-270.783 164.907,-261.95 160.677,-267.527"/>
</g>
<!-- Node15 -->
<g id="node15" class="node"><title>Node15</title>
<g id="a_node15"><a xlink:href="ModelChain_8cpp.html" target="_top" xlink:title="/home/lucamuratore\l/advr&#45;superbuild/external\l/XBotInterface/src/ModelChain.cpp">
<polygon fill="none" stroke="black" points="194,-186.5 194,-227.5 364,-227.5 364,-186.5 194,-186.5"/>
<text text-anchor="start" x="202" y="-215.5" font-family="Helvetica,sans-Serif" font-size="10.00">/home/lucamuratore</text>
<text text-anchor="start" x="202" y="-204.5" font-family="Helvetica,sans-Serif" font-size="10.00">/advr&#45;superbuild/external</text>
<text text-anchor="middle" x="279" y="-193.5" font-family="Helvetica,sans-Serif" font-size="10.00">/XBotInterface/src/ModelChain.cpp</text>
</a>
</g>
</g>
<!-- Node5&#45;&gt;Node15 -->
<g id="edge15" class="edge"><title>Node5&#45;&gt;Node15</title>
<path fill="none" stroke="midnightblue" d="M232.198,-262.914C242.363,-250.988 253.5,-237.92 262.359,-227.525"/>
<polygon fill="midnightblue" stroke="midnightblue" points="229.516,-260.666 225.693,-270.547 234.843,-265.206 229.516,-260.666"/>
</g>
<!-- Node7 -->
<g id="node7" class="node"><title>Node7</title>
<g id="a_node7"><a xlink:href="RobotInterface_8h.html" target="_top" xlink:title="/home/lucamuratore\l/advr&#45;superbuild/external\l/XBotInterface/include/XBotInterface\l/RobotInterface.h">
<polygon fill="none" stroke="black" points="226,-91 226,-143 402,-143 402,-91 226,-91"/>
<text text-anchor="start" x="234" y="-131" font-family="Helvetica,sans-Serif" font-size="10.00">/home/lucamuratore</text>
<text text-anchor="start" x="234" y="-120" font-family="Helvetica,sans-Serif" font-size="10.00">/advr&#45;superbuild/external</text>
<text text-anchor="start" x="234" y="-109" font-family="Helvetica,sans-Serif" font-size="10.00">/XBotInterface/include/XBotInterface</text>
<text text-anchor="middle" x="314" y="-98" font-family="Helvetica,sans-Serif" font-size="10.00">/RobotInterface.h</text>
</a>
</g>
</g>
<!-- Node6&#45;&gt;Node7 -->
<g id="edge6" class="edge"><title>Node6&#45;&gt;Node7</title>
<path fill="none" stroke="midnightblue" d="M443.304,-176.654C419.36,-165.792 392.451,-153.586 369.406,-143.133"/>
<polygon fill="midnightblue" stroke="midnightblue" points="442.114,-179.957 452.667,-180.901 445.006,-173.582 442.114,-179.957"/>
</g>
<!-- Node11 -->
<g id="node11" class="node"><title>Node11</title>
<g id="a_node11"><a xlink:href="Utils_8h.html" target="_top" xlink:title="/home/lucamuratore\l/advr&#45;superbuild/external\l/XBotInterface/include/XBotInterface\l/Utils.h">
<polygon fill="none" stroke="black" points="420,-91 420,-143 596,-143 596,-91 420,-91"/>
<text text-anchor="start" x="428" y="-131" font-family="Helvetica,sans-Serif" font-size="10.00">/home/lucamuratore</text>
<text text-anchor="start" x="428" y="-120" font-family="Helvetica,sans-Serif" font-size="10.00">/advr&#45;superbuild/external</text>
<text text-anchor="start" x="428" y="-109" font-family="Helvetica,sans-Serif" font-size="10.00">/XBotInterface/include/XBotInterface</text>
<text text-anchor="middle" x="508" y="-98" font-family="Helvetica,sans-Serif" font-size="10.00">/Utils.h</text>
</a>
</g>
</g>
<!-- Node6&#45;&gt;Node11 -->
<g id="edge10" class="edge"><title>Node6&#45;&gt;Node11</title>
<path fill="none" stroke="midnightblue" d="M508,-170.489C508,-161.309 508,-151.616 508,-143.092"/>
<polygon fill="midnightblue" stroke="midnightblue" points="504.5,-170.547 508,-180.547 511.5,-170.547 504.5,-170.547"/>
</g>
<!-- Node12 -->
<g id="node12" class="node"><title>Node12</title>
<g id="a_node12"><a xlink:href="ModelInterface_8cpp.html" target="_top" xlink:title="/home/lucamuratore\l/advr&#45;superbuild/external\l/XBotInterface/src/ModelInterface.cpp">
<polygon fill="none" stroke="black" points="614,-96.5 614,-137.5 796,-137.5 796,-96.5 614,-96.5"/>
<text text-anchor="start" x="622" y="-125.5" font-family="Helvetica,sans-Serif" font-size="10.00">/home/lucamuratore</text>
<text text-anchor="start" x="622" y="-114.5" font-family="Helvetica,sans-Serif" font-size="10.00">/advr&#45;superbuild/external</text>
<text text-anchor="middle" x="705" y="-103.5" font-family="Helvetica,sans-Serif" font-size="10.00">/XBotInterface/src/ModelInterface.cpp</text>
</a>
</g>
</g>
<!-- Node6&#45;&gt;Node12 -->
<g id="edge11" class="edge"><title>Node6&#45;&gt;Node12</title>
<path fill="none" stroke="midnightblue" d="M573.398,-176.787C602.274,-163.888 635.445,-149.07 661.261,-137.538"/>
<polygon fill="midnightblue" stroke="midnightblue" points="571.892,-173.626 564.189,-180.901 574.747,-180.018 571.892,-173.626"/>
</g>
<!-- Node8 -->
<g id="node8" class="node"><title>Node8</title>
<g id="a_node8"><a xlink:href="StateMachine_8h.html" target="_top" xlink:title="/home/lucamuratore\l/advr&#45;superbuild/external\l/XBotInterface/include/XBotInterface\l/StateMachine.h">
<polygon fill="none" stroke="black" points="58,-1 58,-53 234,-53 234,-1 58,-1"/>
<text text-anchor="start" x="66" y="-41" font-family="Helvetica,sans-Serif" font-size="10.00">/home/lucamuratore</text>
<text text-anchor="start" x="66" y="-30" font-family="Helvetica,sans-Serif" font-size="10.00">/advr&#45;superbuild/external</text>
<text text-anchor="start" x="66" y="-19" font-family="Helvetica,sans-Serif" font-size="10.00">/XBotInterface/include/XBotInterface</text>
<text text-anchor="middle" x="146" y="-8" font-family="Helvetica,sans-Serif" font-size="10.00">/StateMachine.h</text>
</a>
</g>
</g>
<!-- Node7&#45;&gt;Node8 -->
<g id="edge7" class="edge"><title>Node7&#45;&gt;Node8</title>
<path fill="none" stroke="midnightblue" d="M256.927,-86.1047C236.415,-75.3602 213.507,-63.3607 193.858,-53.0687"/>
<polygon fill="midnightblue" stroke="midnightblue" points="255.376,-89.243 265.858,-90.7827 258.624,-83.0422 255.376,-89.243"/>
</g>
<!-- Node9 -->
<g id="node9" class="node"><title>Node9</title>
<g id="a_node9"><a xlink:href="main__test_8cpp.html" target="_top" xlink:title="/home/lucamuratore\l/advr&#45;superbuild/external\l/XBotInterface/src/main\l_test.cpp">
<polygon fill="none" stroke="black" points="252.5,-1 252.5,-53 375.5,-53 375.5,-1 252.5,-1"/>
<text text-anchor="start" x="260.5" y="-41" font-family="Helvetica,sans-Serif" font-size="10.00">/home/lucamuratore</text>
<text text-anchor="start" x="260.5" y="-30" font-family="Helvetica,sans-Serif" font-size="10.00">/advr&#45;superbuild/external</text>
<text text-anchor="start" x="260.5" y="-19" font-family="Helvetica,sans-Serif" font-size="10.00">/XBotInterface/src/main</text>
<text text-anchor="middle" x="314" y="-8" font-family="Helvetica,sans-Serif" font-size="10.00">_test.cpp</text>
</a>
</g>
</g>
<!-- Node7&#45;&gt;Node9 -->
<g id="edge8" class="edge"><title>Node7&#45;&gt;Node9</title>
<path fill="none" stroke="midnightblue" d="M314,-80.4892C314,-71.3088 314,-61.616 314,-53.0921"/>
<polygon fill="midnightblue" stroke="midnightblue" points="310.5,-80.5467 314,-90.5468 317.5,-80.5468 310.5,-80.5467"/>
</g>
<!-- Node10 -->
<g id="node10" class="node"><title>Node10</title>
<g id="a_node10"><a xlink:href="RobotInterface_8cpp.html" target="_top" xlink:title="/home/lucamuratore\l/advr&#45;superbuild/external\l/XBotInterface/src/RobotInterface.cpp">
<polygon fill="none" stroke="black" points="394,-6.5 394,-47.5 576,-47.5 576,-6.5 394,-6.5"/>
<text text-anchor="start" x="402" y="-35.5" font-family="Helvetica,sans-Serif" font-size="10.00">/home/lucamuratore</text>
<text text-anchor="start" x="402" y="-24.5" font-family="Helvetica,sans-Serif" font-size="10.00">/advr&#45;superbuild/external</text>
<text text-anchor="middle" x="485" y="-13.5" font-family="Helvetica,sans-Serif" font-size="10.00">/XBotInterface/src/RobotInterface.cpp</text>
</a>
</g>
</g>
<!-- Node7&#45;&gt;Node10 -->
<g id="edge9" class="edge"><title>Node7&#45;&gt;Node10</title>
<path fill="none" stroke="midnightblue" d="M371.936,-86.1848C396.659,-73.4622 424.824,-58.9678 446.859,-47.6283"/>
<polygon fill="midnightblue" stroke="midnightblue" points="370.292,-83.0948 363.002,-90.7827 373.495,-89.3189 370.292,-83.0948"/>
</g>
<!-- Node13&#45;&gt;Node7 -->
<g id="edge13" class="edge"><title>Node13&#45;&gt;Node7</title>
<path fill="none" stroke="midnightblue" d="M161.889,-177.229C190.15,-166.225 222.133,-153.771 249.454,-143.133"/>
<polygon fill="midnightblue" stroke="midnightblue" points="160.509,-174.011 152.46,-180.901 163.049,-180.533 160.509,-174.011"/>
</g>
<!-- Node14 -->
<g id="node14" class="node"><title>Node14</title>
<g id="a_node14"><a xlink:href="RobotChain_8cpp.html" target="_top" xlink:title="/home/lucamuratore\l/advr&#45;superbuild/external\l/XBotInterface/src/RobotChain.cpp">
<polygon fill="none" stroke="black" points="3,-96.5 3,-137.5 173,-137.5 173,-96.5 3,-96.5"/>
<text text-anchor="start" x="11" y="-125.5" font-family="Helvetica,sans-Serif" font-size="10.00">/home/lucamuratore</text>
<text text-anchor="start" x="11" y="-114.5" font-family="Helvetica,sans-Serif" font-size="10.00">/advr&#45;superbuild/external</text>
<text text-anchor="middle" x="88" y="-103.5" font-family="Helvetica,sans-Serif" font-size="10.00">/XBotInterface/src/RobotChain.cpp</text>
</a>
</g>
</g>
<!-- Node13&#45;&gt;Node14 -->
<g id="edge14" class="edge"><title>Node13&#45;&gt;Node14</title>
<path fill="none" stroke="midnightblue" d="M88,-170.515C88,-159.257 88,-147.227 88,-137.525"/>
<polygon fill="midnightblue" stroke="midnightblue" points="84.5001,-170.547 88,-180.547 91.5001,-170.547 84.5001,-170.547"/>
</g>
<!-- Node16&#45;&gt;Node6 -->
<g id="edge18" class="edge"><title>Node16&#45;&gt;Node6</title>
<path fill="none" stroke="midnightblue" d="M567.453,-263.658C556.727,-253.617 545.069,-242.703 534.941,-233.221"/>
<polygon fill="midnightblue" stroke="midnightblue" points="565.371,-266.504 575.063,-270.783 570.155,-261.393 565.371,-266.504"/>
</g>
<!-- Node16&#45;&gt;Node7 -->
<g id="edge19" class="edge"><title>Node16&#45;&gt;Node7</title>
<path fill="none" stroke="midnightblue" d="M506.597,-267.942C463.184,-254.641 419.541,-240.303 411,-234 387.386,-216.575 391.61,-202.691 373,-180 362.635,-167.362 350.284,-154.138 339.568,-143.164"/>
<polygon fill="midnightblue" stroke="midnightblue" points="505.842,-271.371 516.428,-270.939 507.883,-264.675 505.842,-271.371"/>
</g>
<!-- Node17 -->
<g id="node17" class="node"><title>Node17</title>
<g id="a_node17"><a xlink:href="XBotInterface_8cpp.html" target="_top" xlink:title="/home/lucamuratore\l/advr&#45;superbuild/external\l/XBotInterface/src/XBotInterface.cpp">
<polygon fill="none" stroke="black" points="614,-186.5 614,-227.5 792,-227.5 792,-186.5 614,-186.5"/>
<text text-anchor="start" x="622" y="-215.5" font-family="Helvetica,sans-Serif" font-size="10.00">/home/lucamuratore</text>
<text text-anchor="start" x="622" y="-204.5" font-family="Helvetica,sans-Serif" font-size="10.00">/advr&#45;superbuild/external</text>
<text text-anchor="middle" x="703" y="-193.5" font-family="Helvetica,sans-Serif" font-size="10.00">/XBotInterface/src/XBotInterface.cpp</text>
</a>
</g>
</g>
<!-- Node16&#45;&gt;Node17 -->
<g id="edge20" class="edge"><title>Node16&#45;&gt;Node17</title>
<path fill="none" stroke="midnightblue" d="M638.541,-264.162C652.563,-251.945 668.142,-238.371 680.472,-227.628"/>
<polygon fill="midnightblue" stroke="midnightblue" points="636.183,-261.575 630.943,-270.783 640.781,-266.852 636.183,-261.575"/>
</g>
</g>
</svg>
