<?xml version="1.0" encoding="UTF-8" standalone="no"?>
<!DOCTYPE svg PUBLIC "-//W3C//DTD SVG 1.1//EN"
 "http://www.w3.org/Graphics/SVG/1.1/DTD/svg11.dtd">
<!-- Generated by graphviz version 2.36.0 (20140111.2315)
 -->
<!-- Title: /home/lucamuratore/advr&#45;superbuild/external/XBotInterface/include/XBotInterface/TypedefAndEnums.h Pages: 1 -->
<svg width="491pt" height="118pt"
 viewBox="0.00 0.00 491.00 118.00" xmlns="http://www.w3.org/2000/svg" xmlns:xlink="http://www.w3.org/1999/xlink">
<g id="graph0" class="graph" transform="scale(1 1) rotate(0) translate(4 114)">
<title>/home/lucamuratore/advr&#45;superbuild/external/XBotInterface/include/XBotInterface/TypedefAndEnums.h</title>
<!-- Node1 -->
<g id="node1" class="node"><title>Node1</title>
<polygon fill="#bfbfbf" stroke="black" points="118,-57 118,-109 294,-109 294,-57 118,-57"/>
<text text-anchor="start" x="126" y="-97" font-family="Helvetica,sans-Serif" font-size="10.00">/home/lucamuratore</text>
<text text-anchor="start" x="126" y="-86" font-family="Helvetica,sans-Serif" font-size="10.00">/advr&#45;superbuild/external</text>
<text text-anchor="start" x="126" y="-75" font-family="Helvetica,sans-Serif" font-size="10.00">/XBotInterface/include/XBotInterface</text>
<text text-anchor="middle" x="206" y="-64" font-family="Helvetica,sans-Serif" font-size="10.00">/TypedefAndEnums.h</text>
</g>
<!-- Node2 -->
<g id="node2" class="node"><title>Node2</title>
<polygon fill="none" stroke="#bfbfbf" points="-0.5,-0.5 -0.5,-19.5 34.5,-19.5 34.5,-0.5 -0.5,-0.5"/>
<text text-anchor="middle" x="17" y="-7.5" font-family="Helvetica,sans-Serif" font-size="10.00">map</text>
</g>
<!-- Node1&#45;&gt;Node2 -->
<g id="edge1" class="edge"><title>Node1&#45;&gt;Node2</title>
<path fill="none" stroke="midnightblue" d="M139.366,-56.9681C106.673,-44.6866 69.0933,-30.5694 44.3005,-21.2557"/>
<polygon fill="midnightblue" stroke="midnightblue" points="45.4193,-17.9373 34.8272,-17.697 42.9576,-24.4902 45.4193,-17.9373"/>
</g>
<!-- Node3 -->
<g id="node3" class="node"><title>Node3</title>
<polygon fill="none" stroke="#bfbfbf" points="52.5,-0.5 52.5,-19.5 135.5,-19.5 135.5,-0.5 52.5,-0.5"/>
<text text-anchor="middle" x="94" y="-7.5" font-family="Helvetica,sans-Serif" font-size="10.00">unordered_map</text>
</g>
<!-- Node1&#45;&gt;Node3 -->
<g id="edge2" class="edge"><title>Node1&#45;&gt;Node3</title>
<path fill="none" stroke="midnightblue" d="M166.513,-56.9681C149.671,-46.2914 130.64,-34.2274 116.302,-25.1379"/>
<polygon fill="midnightblue" stroke="midnightblue" points="117.947,-22.037 107.628,-19.6389 114.2,-27.9491 117.947,-22.037"/>
</g>
<!-- Node4 -->
<g id="node4" class="node"><title>Node4</title>
<polygon fill="none" stroke="#bfbfbf" points="153.5,-0.5 153.5,-19.5 194.5,-19.5 194.5,-0.5 153.5,-0.5"/>
<text text-anchor="middle" x="174" y="-7.5" font-family="Helvetica,sans-Serif" font-size="10.00">string</text>
</g>
<!-- Node1&#45;&gt;Node4 -->
<g id="edge3" class="edge"><title>Node1&#45;&gt;Node4</title>
<path fill="none" stroke="midnightblue" d="M194.628,-56.7681C190.49,-47.587 185.9,-37.4034 182.103,-28.9775"/>
<polygon fill="midnightblue" stroke="midnightblue" points="185.247,-27.4358 177.947,-19.7572 178.865,-30.3121 185.247,-27.4358"/>
</g>
<!-- Node5 -->
<g id="node5" class="node"><title>Node5</title>
<polygon fill="none" stroke="#bfbfbf" points="213,-0.5 213,-19.5 265,-19.5 265,-0.5 213,-0.5"/>
<text text-anchor="middle" x="239" y="-7.5" font-family="Helvetica,sans-Serif" font-size="10.00">memory</text>
</g>
<!-- Node1&#45;&gt;Node5 -->
<g id="edge4" class="edge"><title>Node1&#45;&gt;Node5</title>
<path fill="none" stroke="midnightblue" d="M217.727,-56.7681C221.995,-47.587 226.728,-37.4034 230.644,-28.9775"/>
<polygon fill="midnightblue" stroke="midnightblue" points="233.889,-30.3007 234.93,-19.7572 227.541,-27.3503 233.889,-30.3007"/>
</g>
<!-- Node6 -->
<g id="node6" class="node"><title>Node6</title>
<polygon fill="none" stroke="#bfbfbf" points="283,-0.5 283,-19.5 361,-19.5 361,-0.5 283,-0.5"/>
<text text-anchor="middle" x="322" y="-7.5" font-family="Helvetica,sans-Serif" font-size="10.00">boost/any.hpp</text>
</g>
<!-- Node1&#45;&gt;Node6 -->
<g id="edge5" class="edge"><title>Node1&#45;&gt;Node6</title>
<path fill="none" stroke="midnightblue" d="M246.897,-56.9681C264.507,-46.1897 284.427,-33.9975 299.324,-24.879"/>
<polygon fill="midnightblue" stroke="midnightblue" points="301.184,-27.8446 307.886,-19.6389 297.529,-21.8742 301.184,-27.8446"/>
</g>
<!-- Node7 -->
<g id="node7" class="node"><title>Node7</title>
<polygon fill="none" stroke="#bfbfbf" points="379,-0.5 379,-19.5 483,-19.5 483,-0.5 379,-0.5"/>
<text text-anchor="middle" x="431" y="-7.5" font-family="Helvetica,sans-Serif" font-size="10.00">eigen3/Eigen/Dense</text>
</g>
<!-- Node1&#45;&gt;Node7 -->
<g id="edge6" class="edge"><title>Node1&#45;&gt;Node7</title>
<path fill="none" stroke="midnightblue" d="M285.327,-56.9681C322.336,-45.2897 364.605,-31.9514 394.044,-22.6617"/>
<polygon fill="midnightblue" stroke="midnightblue" points="395.409,-25.9012 403.892,-19.5541 393.302,-19.2256 395.409,-25.9012"/>
</g>
</g>
</svg>
