<?xml version="1.0" encoding="UTF-8" standalone="no"?>
<!DOCTYPE svg PUBLIC "-//W3C//DTD SVG 1.1//EN"
 "http://www.w3.org/Graphics/SVG/1.1/DTD/svg11.dtd">
<!-- Generated by graphviz version 2.36.0 (20140111.2315)
 -->
<!-- Title: /home/lucamuratore/advr&#45;superbuild/external/XBotInterface/include/spdlog/sinks/wincolor_sink.h Pages: 1 -->
<svg width="1735pt" height="614pt"
 viewBox="0.00 0.00 1735.00 614.00" xmlns="http://www.w3.org/2000/svg" xmlns:xlink="http://www.w3.org/1999/xlink">
<g id="graph0" class="graph" transform="scale(1 1) rotate(0) translate(4 610)">
<title>/home/lucamuratore/advr&#45;superbuild/external/XBotInterface/include/spdlog/sinks/wincolor_sink.h</title>
<!-- Node1 -->
<g id="node1" class="node"><title>Node1</title>
<polygon fill="#bfbfbf" stroke="black" points="1440.5,-553 1440.5,-605 1585.5,-605 1585.5,-553 1440.5,-553"/>
<text text-anchor="start" x="1448.5" y="-593" font-family="Helvetica,sans-Serif" font-size="10.00">/home/lucamuratore</text>
<text text-anchor="start" x="1448.5" y="-582" font-family="Helvetica,sans-Serif" font-size="10.00">/advr&#45;superbuild/external</text>
<text text-anchor="start" x="1448.5" y="-571" font-family="Helvetica,sans-Serif" font-size="10.00">/XBotInterface/include/spdlog</text>
<text text-anchor="middle" x="1513" y="-560" font-family="Helvetica,sans-Serif" font-size="10.00">/sinks/wincolor_sink.h</text>
</g>
<!-- Node2 -->
<g id="node2" class="node"><title>Node2</title>
<g id="a_node2"><a xlink:href="base__sink_8h.html" target="_top" xlink:title="spdlog/sinks/base_sink.h">
<polygon fill="none" stroke="black" points="1089.5,-496.5 1089.5,-515.5 1216.5,-515.5 1216.5,-496.5 1089.5,-496.5"/>
<text text-anchor="middle" x="1153" y="-503.5" font-family="Helvetica,sans-Serif" font-size="10.00">spdlog/sinks/base_sink.h</text>
</a>
</g>
</g>
<!-- Node1&#45;&gt;Node2 -->
<g id="edge1" class="edge"><title>Node1&#45;&gt;Node2</title>
<path fill="none" stroke="midnightblue" d="M1440.15,-563.632C1370.77,-549.948 1267.99,-529.679 1206.05,-517.464"/>
<polygon fill="midnightblue" stroke="midnightblue" points="1206.59,-514.002 1196.1,-515.501 1205.24,-520.87 1206.59,-514.002"/>
</g>
<!-- Node5 -->
<g id="node5" class="node"><title>Node5</title>
<g id="a_node5"><a xlink:href="common_8h.html" target="_top" xlink:title="spdlog/common.h">
<polygon fill="none" stroke="black" points="1216,-192.5 1216,-211.5 1310,-211.5 1310,-192.5 1216,-192.5"/>
<text text-anchor="middle" x="1263" y="-199.5" font-family="Helvetica,sans-Serif" font-size="10.00">spdlog/common.h</text>
</a>
</g>
</g>
<!-- Node1&#45;&gt;Node5 -->
<g id="edge66" class="edge"><title>Node1&#45;&gt;Node5</title>
<path fill="none" stroke="midnightblue" d="M1475.96,-552.899C1447.14,-530.08 1412,-493.538 1412,-451 1412,-451 1412,-451 1412,-319 1412,-263.53 1346.91,-230.711 1302.77,-214.832"/>
<polygon fill="midnightblue" stroke="midnightblue" points="1303.75,-211.467 1293.15,-211.518 1301.47,-218.085 1303.75,-211.467"/>
</g>
<!-- Node6 -->
<g id="node6" class="node"><title>Node6</title>
<polygon fill="none" stroke="#bfbfbf" points="1095.5,-0.5 1095.5,-19.5 1136.5,-19.5 1136.5,-0.5 1095.5,-0.5"/>
<text text-anchor="middle" x="1116" y="-7.5" font-family="Helvetica,sans-Serif" font-size="10.00">string</text>
</g>
<!-- Node1&#45;&gt;Node6 -->
<g id="edge68" class="edge"><title>Node1&#45;&gt;Node6</title>
<path fill="none" stroke="midnightblue" d="M1539.15,-552.892C1561.14,-528.983 1589,-490.827 1589,-451 1589,-451 1589,-451 1589,-139 1589,-87.1446 1553.62,-78.6963 1507,-56 1443.5,-25.0883 1227.6,-14.7565 1146.83,-11.9242"/>
<polygon fill="midnightblue" stroke="midnightblue" points="1146.91,-8.42488 1136.79,-11.5869 1146.67,-15.4209 1146.91,-8.42488"/>
</g>
<!-- Node13 -->
<g id="node13" class="node"><title>Node13</title>
<g id="a_node13"><a xlink:href="null__mutex_8h.html" target="_top" xlink:title="spdlog/details/null\l_mutex.h">
<polygon fill="none" stroke="black" points="1465.5,-125 1465.5,-155 1560.5,-155 1560.5,-125 1465.5,-125"/>
<text text-anchor="start" x="1473.5" y="-143" font-family="Helvetica,sans-Serif" font-size="10.00">spdlog/details/null</text>
<text text-anchor="middle" x="1513" y="-132" font-family="Helvetica,sans-Serif" font-size="10.00">_mutex.h</text>
</a>
</g>
</g>
<!-- Node1&#45;&gt;Node13 -->
<g id="edge65" class="edge"><title>Node1&#45;&gt;Node13</title>
<path fill="none" stroke="midnightblue" d="M1513,-552.699C1513,-527.068 1513,-486.278 1513,-451 1513,-451 1513,-451 1513,-257 1513,-225.358 1513,-188.862 1513,-165.388"/>
<polygon fill="midnightblue" stroke="midnightblue" points="1516.5,-165.286 1513,-155.287 1509.5,-165.287 1516.5,-165.286"/>
</g>
<!-- Node37 -->
<g id="node37" class="node"><title>Node37</title>
<polygon fill="none" stroke="#bfbfbf" points="0,-310.5 0,-329.5 44,-329.5 44,-310.5 0,-310.5"/>
<text text-anchor="middle" x="22" y="-317.5" font-family="Helvetica,sans-Serif" font-size="10.00">mutex</text>
</g>
<!-- Node1&#45;&gt;Node37 -->
<g id="edge67" class="edge"><title>Node1&#45;&gt;Node37</title>
<path fill="none" stroke="midnightblue" d="M1440.11,-576.847C1188.77,-572.102 360.158,-549.848 112,-460 71.1913,-445.225 54.3136,-441.226 32,-404 20.2529,-384.402 19.1719,-357.521 20.0811,-339.724"/>
<polygon fill="midnightblue" stroke="midnightblue" points="23.572,-339.976 20.8502,-329.737 16.5926,-339.438 23.572,-339.976"/>
</g>
<!-- Node38 -->
<g id="node38" class="node"><title>Node38</title>
<polygon fill="none" stroke="#bfbfbf" points="1617.5,-496.5 1617.5,-515.5 1652.5,-515.5 1652.5,-496.5 1617.5,-496.5"/>
<text text-anchor="middle" x="1635" y="-503.5" font-family="Helvetica,sans-Serif" font-size="10.00">map</text>
</g>
<!-- Node1&#45;&gt;Node38 -->
<g id="edge69" class="edge"><title>Node1&#45;&gt;Node38</title>
<path fill="none" stroke="midnightblue" d="M1556.01,-552.968C1574.53,-542.19 1595.48,-529.997 1611.15,-520.879"/>
<polygon fill="midnightblue" stroke="midnightblue" points="1613.27,-523.694 1620.16,-515.639 1609.75,-517.644 1613.27,-523.694"/>
</g>
<!-- Node39 -->
<g id="node39" class="node"><title>Node39</title>
<polygon fill="none" stroke="#bfbfbf" points="1671,-496.5 1671,-515.5 1727,-515.5 1727,-496.5 1671,-496.5"/>
<text text-anchor="middle" x="1699" y="-503.5" font-family="Helvetica,sans-Serif" font-size="10.00">wincon.h</text>
</g>
<!-- Node1&#45;&gt;Node39 -->
<g id="edge70" class="edge"><title>Node1&#45;&gt;Node39</title>
<path fill="none" stroke="midnightblue" d="M1578.58,-552.968C1608.54,-541.529 1642.68,-528.497 1666.94,-519.237"/>
<polygon fill="midnightblue" stroke="midnightblue" points="1668.27,-522.475 1676.37,-515.639 1665.78,-515.935 1668.27,-522.475"/>
</g>
<!-- Node3 -->
<g id="node3" class="node"><title>Node3</title>
<g id="a_node3"><a xlink:href="sink_8h.html" target="_top" xlink:title="spdlog/sinks/sink.h">
<polygon fill="none" stroke="black" points="1180.5,-378.5 1180.5,-397.5 1281.5,-397.5 1281.5,-378.5 1180.5,-378.5"/>
<text text-anchor="middle" x="1231" y="-385.5" font-family="Helvetica,sans-Serif" font-size="10.00">spdlog/sinks/sink.h</text>
</a>
</g>
</g>
<!-- Node2&#45;&gt;Node3 -->
<g id="edge2" class="edge"><title>Node2&#45;&gt;Node3</title>
<path fill="none" stroke="midnightblue" d="M1158.86,-496.281C1171.74,-477.126 1202.7,-431.083 1219.57,-405.994"/>
<polygon fill="midnightblue" stroke="midnightblue" points="1222.61,-407.756 1225.28,-397.505 1216.8,-403.85 1222.61,-407.756"/>
</g>
<!-- Node4 -->
<g id="node4" class="node"><title>Node4</title>
<g id="a_node4"><a xlink:href="log__msg_8h.html" target="_top" xlink:title="spdlog/details/log\l_msg.h">
<polygon fill="none" stroke="black" points="1068,-305 1068,-335 1160,-335 1160,-305 1068,-305"/>
<text text-anchor="start" x="1076" y="-323" font-family="Helvetica,sans-Serif" font-size="10.00">spdlog/details/log</text>
<text text-anchor="middle" x="1114" y="-312" font-family="Helvetica,sans-Serif" font-size="10.00">_msg.h</text>
</a>
</g>
</g>
<!-- Node2&#45;&gt;Node4 -->
<g id="edge63" class="edge"><title>Node2&#45;&gt;Node4</title>
<path fill="none" stroke="midnightblue" d="M1151.12,-496.125C1145.36,-468.975 1127.86,-386.379 1119.1,-345.065"/>
<polygon fill="midnightblue" stroke="midnightblue" points="1122.47,-344.104 1116.98,-335.047 1115.63,-345.556 1122.47,-344.104"/>
</g>
<!-- Node2&#45;&gt;Node5 -->
<g id="edge62" class="edge"><title>Node2&#45;&gt;Node5</title>
<path fill="none" stroke="midnightblue" d="M1186.68,-496.412C1232.81,-482.387 1310,-449.832 1310,-389 1310,-389 1310,-389 1310,-319 1310,-281.522 1288.67,-241.89 1274.74,-220.018"/>
<polygon fill="midnightblue" stroke="midnightblue" points="1277.58,-217.955 1269.14,-211.54 1271.74,-221.813 1277.58,-217.955"/>
</g>
<!-- Node35 -->
<g id="node35" class="node"><title>Node35</title>
<g id="a_node35"><a xlink:href="formatter_8h.html" target="_top" xlink:title="spdlog/formatter.h">
<polygon fill="none" stroke="black" points="299.5,-440.5 299.5,-459.5 394.5,-459.5 394.5,-440.5 299.5,-440.5"/>
<text text-anchor="middle" x="347" y="-447.5" font-family="Helvetica,sans-Serif" font-size="10.00">spdlog/formatter.h</text>
</a>
</g>
</g>
<!-- Node2&#45;&gt;Node35 -->
<g id="edge44" class="edge"><title>Node2&#45;&gt;Node35</title>
<path fill="none" stroke="midnightblue" d="M1089.42,-500.74C936.772,-490.513 551.408,-464.695 404.817,-454.874"/>
<polygon fill="midnightblue" stroke="midnightblue" points="404.893,-451.371 394.682,-454.195 404.425,-458.355 404.893,-451.371"/>
</g>
<!-- Node2&#45;&gt;Node37 -->
<g id="edge64" class="edge"><title>Node2&#45;&gt;Node37</title>
<path fill="none" stroke="midnightblue" d="M1089.27,-505.686C945.743,-506.358 586.563,-503.146 290,-460 185.033,-444.729 139.183,-472.269 58,-404 38.4044,-387.522 29.1675,-358.376 25.0427,-339.376"/>
<polygon fill="midnightblue" stroke="midnightblue" points="28.4771,-338.701 23.165,-329.534 21.6011,-340.013 28.4771,-338.701"/>
</g>
<!-- Node3&#45;&gt;Node4 -->
<g id="edge3" class="edge"><title>Node3&#45;&gt;Node4</title>
<path fill="none" stroke="midnightblue" d="M1215.7,-378.372C1198.61,-368.729 1170.39,-352.812 1148.01,-340.187"/>
<polygon fill="midnightblue" stroke="midnightblue" points="1149.57,-337.046 1139.14,-335.181 1146.13,-343.143 1149.57,-337.046"/>
</g>
<!-- Node4&#45;&gt;Node5 -->
<g id="edge4" class="edge"><title>Node4&#45;&gt;Node5</title>
<path fill="none" stroke="midnightblue" d="M1132.27,-304.776C1160.58,-282.736 1214.79,-240.532 1243.71,-218.018"/>
<polygon fill="midnightblue" stroke="midnightblue" points="1246.08,-220.612 1251.82,-211.707 1241.78,-215.088 1246.08,-220.612"/>
</g>
<!-- Node4&#45;&gt;Node6 -->
<g id="edge42" class="edge"><title>Node4&#45;&gt;Node6</title>
<path fill="none" stroke="midnightblue" d="M1114.4,-304.715C1114.99,-282.823 1116,-239.658 1116,-203 1116,-203 1116,-203 1116,-139 1116,-100.248 1116,-54.8973 1116,-29.9188"/>
<polygon fill="midnightblue" stroke="midnightblue" points="1119.5,-29.6912 1116,-19.6913 1112.5,-29.6913 1119.5,-29.6912"/>
</g>
<!-- Node24 -->
<g id="node24" class="node"><title>Node24</title>
<polygon fill="none" stroke="#bfbfbf" points="813,-0.5 813,-19.5 853,-19.5 853,-0.5 813,-0.5"/>
<text text-anchor="middle" x="833" y="-7.5" font-family="Helvetica,sans-Serif" font-size="10.00">utility</text>
</g>
<!-- Node4&#45;&gt;Node24 -->
<g id="edge43" class="edge"><title>Node4&#45;&gt;Node24</title>
<path fill="none" stroke="midnightblue" d="M1101.2,-304.966C1055.03,-254.362 897.242,-81.4147 847.883,-27.313"/>
<polygon fill="midnightblue" stroke="midnightblue" points="850.251,-24.7158 840.926,-19.6873 845.08,-29.4337 850.251,-24.7158"/>
</g>
<!-- Node26 -->
<g id="node26" class="node"><title>Node26</title>
<g id="a_node26"><a xlink:href="os_8h.html" target="_top" xlink:title="spdlog/details/os.h">
<polygon fill="none" stroke="black" points="655,-248.5 655,-267.5 753,-267.5 753,-248.5 655,-248.5"/>
<text text-anchor="middle" x="704" y="-255.5" font-family="Helvetica,sans-Serif" font-size="10.00">spdlog/details/os.h</text>
</a>
</g>
</g>
<!-- Node4&#45;&gt;Node26 -->
<g id="edge28" class="edge"><title>Node4&#45;&gt;Node26</title>
<path fill="none" stroke="midnightblue" d="M1067.76,-312.234C992.978,-301.289 845.555,-279.715 763.201,-267.664"/>
<polygon fill="midnightblue" stroke="midnightblue" points="763.647,-264.192 753.245,-266.207 762.633,-271.118 763.647,-264.192"/>
</g>
<!-- Node5&#45;&gt;Node6 -->
<g id="edge5" class="edge"><title>Node5&#45;&gt;Node6</title>
<path fill="none" stroke="midnightblue" d="M1259.98,-192.276C1249.66,-162.596 1215.86,-66.778 1206,-56 1189.94,-38.4367 1165.48,-26.8217 1146.11,-19.7985"/>
<polygon fill="midnightblue" stroke="midnightblue" points="1147.11,-16.4426 1136.52,-16.5372 1144.86,-23.07 1147.11,-16.4426"/>
</g>
<!-- Node7 -->
<g id="node7" class="node"><title>Node7</title>
<polygon fill="none" stroke="#bfbfbf" points="1335.5,-130.5 1335.5,-149.5 1408.5,-149.5 1408.5,-130.5 1335.5,-130.5"/>
<text text-anchor="middle" x="1372" y="-137.5" font-family="Helvetica,sans-Serif" font-size="10.00">initializer_list</text>
</g>
<!-- Node5&#45;&gt;Node7 -->
<g id="edge6" class="edge"><title>Node5&#45;&gt;Node7</title>
<path fill="none" stroke="midnightblue" d="M1278.62,-192.403C1296.59,-182.512 1326.32,-166.144 1347.41,-154.538"/>
<polygon fill="midnightblue" stroke="midnightblue" points="1349.34,-157.469 1356.41,-149.581 1345.96,-151.337 1349.34,-157.469"/>
</g>
<!-- Node8 -->
<g id="node8" class="node"><title>Node8</title>
<polygon fill="none" stroke="#bfbfbf" points="635,-130.5 635,-149.5 681,-149.5 681,-130.5 635,-130.5"/>
<text text-anchor="middle" x="658" y="-137.5" font-family="Helvetica,sans-Serif" font-size="10.00">chrono</text>
</g>
<!-- Node5&#45;&gt;Node8 -->
<g id="edge7" class="edge"><title>Node5&#45;&gt;Node8</title>
<path fill="none" stroke="midnightblue" d="M1215.78,-196.317C1097.85,-184.622 792.656,-154.354 691.283,-144.301"/>
<polygon fill="midnightblue" stroke="midnightblue" points="691.329,-140.788 681.033,-143.284 690.638,-147.754 691.329,-140.788"/>
</g>
<!-- Node9 -->
<g id="node9" class="node"><title>Node9</title>
<polygon fill="none" stroke="#bfbfbf" points="190,-0.5 190,-19.5 242,-19.5 242,-0.5 190,-0.5"/>
<text text-anchor="middle" x="216" y="-7.5" font-family="Helvetica,sans-Serif" font-size="10.00">memory</text>
</g>
<!-- Node5&#45;&gt;Node9 -->
<g id="edge8" class="edge"><title>Node5&#45;&gt;Node9</title>
<path fill="none" stroke="midnightblue" d="M1248.93,-192.284C1221.01,-175.501 1156.09,-139.033 1096,-124 829.525,-57.3314 749.657,-134.892 479,-88 393.918,-73.2595 297.284,-40.717 248.243,-23.0238"/>
<polygon fill="midnightblue" stroke="midnightblue" points="249.398,-19.7197 238.804,-19.5891 247.004,-26.2978 249.398,-19.7197"/>
</g>
<!-- Node10 -->
<g id="node10" class="node"><title>Node10</title>
<polygon fill="none" stroke="#bfbfbf" points="1452,-62.5 1452,-81.5 1498,-81.5 1498,-62.5 1452,-62.5"/>
<text text-anchor="middle" x="1475" y="-69.5" font-family="Helvetica,sans-Serif" font-size="10.00">atomic</text>
</g>
<!-- Node5&#45;&gt;Node10 -->
<g id="edge9" class="edge"><title>Node5&#45;&gt;Node10</title>
<path fill="none" stroke="midnightblue" d="M1310.04,-195.602C1342.54,-189.985 1385.43,-178.659 1417,-156 1440.38,-139.22 1457.57,-109.965 1466.93,-91.0482"/>
<polygon fill="midnightblue" stroke="midnightblue" points="1470.22,-92.2853 1471.32,-81.7475 1463.89,-89.3005 1470.22,-92.2853"/>
</g>
<!-- Node11 -->
<g id="node11" class="node"><title>Node11</title>
<polygon fill="none" stroke="#bfbfbf" points="1258.5,-130.5 1258.5,-149.5 1317.5,-149.5 1317.5,-130.5 1258.5,-130.5"/>
<text text-anchor="middle" x="1288" y="-137.5" font-family="Helvetica,sans-Serif" font-size="10.00">exception</text>
</g>
<!-- Node5&#45;&gt;Node11 -->
<g id="edge10" class="edge"><title>Node5&#45;&gt;Node11</title>
<path fill="none" stroke="midnightblue" d="M1266.58,-192.403C1270.18,-183.76 1275.85,-170.17 1280.44,-159.134"/>
<polygon fill="midnightblue" stroke="midnightblue" points="1283.81,-160.158 1284.42,-149.581 1277.35,-157.465 1283.81,-160.158"/>
</g>
<!-- Node12 -->
<g id="node12" class="node"><title>Node12</title>
<polygon fill="none" stroke="#bfbfbf" points="1028.5,-130.5 1028.5,-149.5 1087.5,-149.5 1087.5,-130.5 1028.5,-130.5"/>
<text text-anchor="middle" x="1058" y="-137.5" font-family="Helvetica,sans-Serif" font-size="10.00">functional</text>
</g>
<!-- Node5&#45;&gt;Node12 -->
<g id="edge11" class="edge"><title>Node5&#45;&gt;Node12</title>
<path fill="none" stroke="midnightblue" d="M1233.63,-192.403C1197.7,-181.889 1136.77,-164.054 1096.96,-152.402"/>
<polygon fill="midnightblue" stroke="midnightblue" points="1097.9,-149.031 1087.32,-149.581 1095.93,-155.749 1097.9,-149.031"/>
</g>
<!-- Node5&#45;&gt;Node13 -->
<g id="edge12" class="edge"><title>Node5&#45;&gt;Node13</title>
<path fill="none" stroke="midnightblue" d="M1298.7,-192.483C1336.52,-183.452 1397.98,-168.76 1451,-156 1452.45,-155.652 1453.91,-155.299 1455.39,-154.943"/>
<polygon fill="midnightblue" stroke="midnightblue" points="1456.37,-158.306 1465.28,-152.559 1454.73,-151.501 1456.37,-158.306"/>
</g>
<!-- Node14 -->
<g id="node14" class="node"><title>Node14</title>
<g id="a_node14"><a xlink:href="fmt_8h.html" target="_top" xlink:title="spdlog/fmt/fmt.h">
<polygon fill="none" stroke="black" points="491,-130.5 491,-149.5 579,-149.5 579,-130.5 491,-130.5"/>
<text text-anchor="middle" x="535" y="-137.5" font-family="Helvetica,sans-Serif" font-size="10.00">spdlog/fmt/fmt.h</text>
</a>
</g>
</g>
<!-- Node5&#45;&gt;Node14 -->
<g id="edge14" class="edge"><title>Node5&#45;&gt;Node14</title>
<path fill="none" stroke="midnightblue" d="M1215.71,-199.163C1109.81,-194.72 845.667,-181.807 626,-156 614.073,-154.599 601.324,-152.731 589.258,-150.791"/>
<polygon fill="midnightblue" stroke="midnightblue" points="589.753,-147.325 579.317,-149.152 588.614,-154.232 589.753,-147.325"/>
</g>
<!-- Node13&#45;&gt;Node10 -->
<g id="edge13" class="edge"><title>Node13&#45;&gt;Node10</title>
<path fill="none" stroke="midnightblue" d="M1504.75,-124.679C1499.01,-114.694 1491.3,-101.307 1485.17,-90.6596"/>
<polygon fill="midnightblue" stroke="midnightblue" points="1488.11,-88.7481 1480.08,-81.8283 1482.04,-92.2409 1488.11,-88.7481"/>
</g>
<!-- Node15 -->
<g id="node15" class="node"><title>Node15</title>
<g id="a_node15"><a xlink:href="format_8h.html" target="_top" xlink:title="spdlog/fmt/bundled\l/format.h">
<polygon fill="none" stroke="black" points="488.5,-57 488.5,-87 587.5,-87 587.5,-57 488.5,-57"/>
<text text-anchor="start" x="496.5" y="-75" font-family="Helvetica,sans-Serif" font-size="10.00">spdlog/fmt/bundled</text>
<text text-anchor="middle" x="538" y="-64" font-family="Helvetica,sans-Serif" font-size="10.00">/format.h</text>
</a>
</g>
</g>
<!-- Node14&#45;&gt;Node15 -->
<g id="edge15" class="edge"><title>Node14&#45;&gt;Node15</title>
<path fill="none" stroke="midnightblue" d="M535.392,-130.372C535.774,-121.971 536.372,-108.811 536.899,-97.2126"/>
<polygon fill="midnightblue" stroke="midnightblue" points="540.398,-97.3301 537.355,-87.1815 533.405,-97.0122 540.398,-97.3301"/>
</g>
<!-- Node15&#45;&gt;Node6 -->
<g id="edge24" class="edge"><title>Node15&#45;&gt;Node6</title>
<path fill="none" stroke="midnightblue" d="M587.53,-65.8585C703.632,-53.8063 990.658,-24.0113 1085.23,-14.194"/>
<polygon fill="midnightblue" stroke="midnightblue" points="1085.7,-17.664 1095.29,-13.1501 1084.98,-10.7014 1085.7,-17.664"/>
</g>
<!-- Node15&#45;&gt;Node9 -->
<g id="edge22" class="edge"><title>Node15&#45;&gt;Node9</title>
<path fill="none" stroke="midnightblue" d="M488.393,-61.7565C423.125,-49.5947 309.951,-28.5065 252.186,-17.7427"/>
<polygon fill="midnightblue" stroke="midnightblue" points="252.54,-14.2486 242.068,-15.8574 251.258,-21.1301 252.54,-14.2486"/>
</g>
<!-- Node16 -->
<g id="node16" class="node"><title>Node16</title>
<polygon fill="none" stroke="#bfbfbf" points="351.5,-0.5 351.5,-19.5 400.5,-19.5 400.5,-0.5 351.5,-0.5"/>
<text text-anchor="middle" x="376" y="-7.5" font-family="Helvetica,sans-Serif" font-size="10.00">cassert</text>
</g>
<!-- Node15&#45;&gt;Node16 -->
<g id="edge16" class="edge"><title>Node15&#45;&gt;Node16</title>
<path fill="none" stroke="midnightblue" d="M500.018,-56.9327C472.321,-46.6744 435.17,-32.9148 408.77,-23.1369"/>
<polygon fill="midnightblue" stroke="midnightblue" points="409.813,-19.7911 399.22,-19.6 407.382,-26.3554 409.813,-19.7911"/>
</g>
<!-- Node17 -->
<g id="node17" class="node"><title>Node17</title>
<polygon fill="none" stroke="#bfbfbf" points="418.5,-0.5 418.5,-19.5 465.5,-19.5 465.5,-0.5 418.5,-0.5"/>
<text text-anchor="middle" x="442" y="-7.5" font-family="Helvetica,sans-Serif" font-size="10.00">clocale</text>
</g>
<!-- Node15&#45;&gt;Node17 -->
<g id="edge17" class="edge"><title>Node15&#45;&gt;Node17</title>
<path fill="none" stroke="midnightblue" d="M515.249,-56.7808C499.913,-47.1958 479.77,-34.6062 464.489,-25.0555"/>
<polygon fill="midnightblue" stroke="midnightblue" points="466.024,-21.8877 455.689,-19.5557 462.314,-27.8237 466.024,-21.8877"/>
</g>
<!-- Node18 -->
<g id="node18" class="node"><title>Node18</title>
<polygon fill="none" stroke="#bfbfbf" points="484,-0.5 484,-19.5 528,-19.5 528,-0.5 484,-0.5"/>
<text text-anchor="middle" x="506" y="-7.5" font-family="Helvetica,sans-Serif" font-size="10.00">cmath</text>
</g>
<!-- Node15&#45;&gt;Node18 -->
<g id="edge18" class="edge"><title>Node15&#45;&gt;Node18</title>
<path fill="none" stroke="midnightblue" d="M530.416,-56.7808C525.91,-48.3318 520.159,-37.5481 515.37,-28.5693"/>
<polygon fill="midnightblue" stroke="midnightblue" points="518.45,-26.907 510.656,-19.7305 512.274,-30.2012 518.45,-26.907"/>
</g>
<!-- Node19 -->
<g id="node19" class="node"><title>Node19</title>
<polygon fill="none" stroke="#bfbfbf" points="290.5,-0.5 290.5,-19.5 333.5,-19.5 333.5,-0.5 290.5,-0.5"/>
<text text-anchor="middle" x="312" y="-7.5" font-family="Helvetica,sans-Serif" font-size="10.00">cstdio</text>
</g>
<!-- Node15&#45;&gt;Node19 -->
<g id="edge19" class="edge"><title>Node15&#45;&gt;Node19</title>
<path fill="none" stroke="midnightblue" d="M488.324,-58.613C450.87,-49.1514 398.006,-35.5384 343.445,-20.3389"/>
<polygon fill="midnightblue" stroke="midnightblue" points="344.176,-16.9088 333.602,-17.5844 342.289,-23.6498 344.176,-16.9088"/>
</g>
<!-- Node20 -->
<g id="node20" class="node"><title>Node20</title>
<polygon fill="none" stroke="#bfbfbf" points="546,-0.5 546,-19.5 592,-19.5 592,-0.5 546,-0.5"/>
<text text-anchor="middle" x="569" y="-7.5" font-family="Helvetica,sans-Serif" font-size="10.00">cstring</text>
</g>
<!-- Node15&#45;&gt;Node20 -->
<g id="edge20" class="edge"><title>Node15&#45;&gt;Node20</title>
<path fill="none" stroke="midnightblue" d="M545.347,-56.7808C549.665,-48.4217 555.165,-37.7773 559.774,-28.8565"/>
<polygon fill="midnightblue" stroke="midnightblue" points="563.008,-30.2214 564.489,-19.7305 556.789,-27.0082 563.008,-30.2214"/>
</g>
<!-- Node21 -->
<g id="node21" class="node"><title>Node21</title>
<polygon fill="none" stroke="#bfbfbf" points="610,-0.5 610,-19.5 650,-19.5 650,-0.5 610,-0.5"/>
<text text-anchor="middle" x="630" y="-7.5" font-family="Helvetica,sans-Serif" font-size="10.00">limits</text>
</g>
<!-- Node15&#45;&gt;Node21 -->
<g id="edge21" class="edge"><title>Node15&#45;&gt;Node21</title>
<path fill="none" stroke="midnightblue" d="M559.803,-56.7808C574.5,-47.1958 593.804,-34.6062 608.448,-25.0555"/>
<polygon fill="midnightblue" stroke="midnightblue" points="610.417,-27.9501 616.881,-19.5557 606.593,-22.0868 610.417,-27.9501"/>
</g>
<!-- Node22 -->
<g id="node22" class="node"><title>Node22</title>
<polygon fill="none" stroke="#bfbfbf" points="668.5,-0.5 668.5,-19.5 727.5,-19.5 727.5,-0.5 668.5,-0.5"/>
<text text-anchor="middle" x="698" y="-7.5" font-family="Helvetica,sans-Serif" font-size="10.00">stdexcept</text>
</g>
<!-- Node15&#45;&gt;Node22 -->
<g id="edge23" class="edge"><title>Node15&#45;&gt;Node22</title>
<path fill="none" stroke="midnightblue" d="M575.513,-56.9327C602.868,-46.6744 639.561,-32.9148 665.635,-23.1369"/>
<polygon fill="midnightblue" stroke="midnightblue" points="666.932,-26.3885 675.067,-19.6 664.474,-19.8342 666.932,-26.3885"/>
</g>
<!-- Node23 -->
<g id="node23" class="node"><title>Node23</title>
<polygon fill="none" stroke="#bfbfbf" points="88,-0.5 88,-19.5 132,-19.5 132,-0.5 88,-0.5"/>
<text text-anchor="middle" x="110" y="-7.5" font-family="Helvetica,sans-Serif" font-size="10.00">vector</text>
</g>
<!-- Node15&#45;&gt;Node23 -->
<g id="edge25" class="edge"><title>Node15&#45;&gt;Node23</title>
<path fill="none" stroke="midnightblue" d="M488.485,-64.0586C399.979,-51.6512 216.952,-25.9932 142.533,-15.5607"/>
<polygon fill="midnightblue" stroke="midnightblue" points="142.754,-12.0576 132.365,-14.1353 141.782,-18.9898 142.754,-12.0576"/>
</g>
<!-- Node15&#45;&gt;Node24 -->
<g id="edge26" class="edge"><title>Node15&#45;&gt;Node24</title>
<path fill="none" stroke="midnightblue" d="M587.557,-59.1117C592.43,-58.025 597.306,-56.9697 602,-56 690.878,-37.6388 714.726,-41.0735 803,-20 803.099,-19.9763 803.198,-19.9525 803.298,-19.9286"/>
<polygon fill="midnightblue" stroke="midnightblue" points="803.986,-23.3672 812.752,-17.4163 802.188,-16.602 803.986,-23.3672"/>
</g>
<!-- Node25 -->
<g id="node25" class="node"><title>Node25</title>
<polygon fill="none" stroke="#bfbfbf" points="745.5,-0.5 745.5,-19.5 794.5,-19.5 794.5,-0.5 745.5,-0.5"/>
<text text-anchor="middle" x="770" y="-7.5" font-family="Helvetica,sans-Serif" font-size="10.00">stdint.h</text>
</g>
<!-- Node15&#45;&gt;Node25 -->
<g id="edge27" class="edge"><title>Node15&#45;&gt;Node25</title>
<path fill="none" stroke="midnightblue" d="M587.66,-58.3065C625.53,-48.6045 679.245,-34.7957 735.673,-20.0724"/>
<polygon fill="midnightblue" stroke="midnightblue" points="736.7,-23.4217 745.491,-17.5085 734.931,-16.6488 736.7,-23.4217"/>
</g>
<!-- Node26&#45;&gt;Node5 -->
<g id="edge29" class="edge"><title>Node26&#45;&gt;Node5</title>
<path fill="none" stroke="midnightblue" d="M753.118,-252.255C856.355,-242.282 1095.39,-219.192 1205.53,-208.552"/>
<polygon fill="midnightblue" stroke="midnightblue" points="1206.16,-212.007 1215.78,-207.562 1205.49,-205.04 1206.16,-212.007"/>
</g>
<!-- Node26&#45;&gt;Node6 -->
<g id="edge33" class="edge"><title>Node26&#45;&gt;Node6</title>
<path fill="none" stroke="midnightblue" d="M753.231,-253.859C815.201,-248.903 916.85,-237.119 944,-212 996.704,-163.237 937.042,-108.523 986,-56 1011.82,-28.3034 1055.51,-17.6529 1085.04,-13.5577"/>
<polygon fill="midnightblue" stroke="midnightblue" points="1085.71,-17.002 1095.22,-12.3261 1084.87,-10.0526 1085.71,-17.002"/>
</g>
<!-- Node26&#45;&gt;Node8 -->
<g id="edge34" class="edge"><title>Node26&#45;&gt;Node8</title>
<path fill="none" stroke="midnightblue" d="M654.562,-251.962C605.049,-245.775 533.843,-233.377 517,-212 470.569,-153.071 512.57,-196.714 621,-156 623.245,-155.157 625.559,-154.268 627.882,-153.361"/>
<polygon fill="midnightblue" stroke="midnightblue" points="629.334,-156.55 637.331,-149.6 626.746,-150.046 629.334,-156.55"/>
</g>
<!-- Node26&#45;&gt;Node12 -->
<g id="edge32" class="edge"><title>Node26&#45;&gt;Node12</title>
<path fill="none" stroke="midnightblue" d="M753.204,-257.036C810.009,-255.288 904.985,-246.76 978,-212 1005.13,-199.085 1029.92,-174.134 1044.49,-157.52"/>
<polygon fill="midnightblue" stroke="midnightblue" points="1047.33,-159.586 1051.14,-149.7 1042,-155.052 1047.33,-159.586"/>
</g>
<!-- Node26&#45;&gt;Node19 -->
<g id="edge30" class="edge"><title>Node26&#45;&gt;Node19</title>
<path fill="none" stroke="midnightblue" d="M654.66,-254.432C611.183,-250.317 547.414,-239.642 499,-212 415.816,-164.507 347.993,-67.7094 322.677,-28.2875"/>
<polygon fill="midnightblue" stroke="midnightblue" points="325.47,-26.1551 317.173,-19.5662 319.55,-29.8909 325.47,-26.1551"/>
</g>
<!-- Node27 -->
<g id="node27" class="node"><title>Node27</title>
<polygon fill="none" stroke="#bfbfbf" points="290.5,-192.5 290.5,-211.5 331.5,-211.5 331.5,-192.5 290.5,-192.5"/>
<text text-anchor="middle" x="311" y="-199.5" font-family="Helvetica,sans-Serif" font-size="10.00">ctime</text>
</g>
<!-- Node26&#45;&gt;Node27 -->
<g id="edge31" class="edge"><title>Node26&#45;&gt;Node27</title>
<path fill="none" stroke="midnightblue" d="M654.836,-253.542C586.564,-248.162 459.136,-236.028 341.441,-211.736"/>
<polygon fill="midnightblue" stroke="midnightblue" points="342.045,-208.286 331.539,-209.658 340.607,-215.137 342.045,-208.286"/>
</g>
<!-- Node28 -->
<g id="node28" class="node"><title>Node28</title>
<polygon fill="none" stroke="#bfbfbf" points="350,-192.5 350,-211.5 394,-211.5 394,-192.5 350,-192.5"/>
<text text-anchor="middle" x="372" y="-199.5" font-family="Helvetica,sans-Serif" font-size="10.00">thread</text>
</g>
<!-- Node26&#45;&gt;Node28 -->
<g id="edge35" class="edge"><title>Node26&#45;&gt;Node28</title>
<path fill="none" stroke="midnightblue" d="M654.655,-248.974C585.784,-237.772 462.745,-217.76 404.403,-208.27"/>
<polygon fill="midnightblue" stroke="midnightblue" points="404.722,-204.776 394.289,-206.625 403.598,-211.685 404.722,-204.776"/>
</g>
<!-- Node29 -->
<g id="node29" class="node"><title>Node29</title>
<polygon fill="none" stroke="#bfbfbf" points="744,-192.5 744,-211.5 790,-211.5 790,-192.5 744,-192.5"/>
<text text-anchor="middle" x="767" y="-199.5" font-family="Helvetica,sans-Serif" font-size="10.00">stdio.h</text>
</g>
<!-- Node26&#45;&gt;Node29 -->
<g id="edge36" class="edge"><title>Node26&#45;&gt;Node29</title>
<path fill="none" stroke="midnightblue" d="M714.122,-248.324C723.526,-240.263 737.744,-228.077 749.069,-218.369"/>
<polygon fill="midnightblue" stroke="midnightblue" points="751.379,-220.999 756.694,-211.834 746.823,-215.684 751.379,-220.999"/>
</g>
<!-- Node30 -->
<g id="node30" class="node"><title>Node30</title>
<polygon fill="none" stroke="#bfbfbf" points="808.5,-192.5 808.5,-211.5 857.5,-211.5 857.5,-192.5 808.5,-192.5"/>
<text text-anchor="middle" x="833" y="-199.5" font-family="Helvetica,sans-Serif" font-size="10.00">string.h</text>
</g>
<!-- Node26&#45;&gt;Node30 -->
<g id="edge37" class="edge"><title>Node26&#45;&gt;Node30</title>
<path fill="none" stroke="midnightblue" d="M724.44,-248.444C745.67,-239.557 779.099,-225.563 803.255,-215.451"/>
<polygon fill="midnightblue" stroke="midnightblue" points="804.782,-218.606 812.655,-211.516 802.079,-212.149 804.782,-218.606"/>
</g>
<!-- Node31 -->
<g id="node31" class="node"><title>Node31</title>
<polygon fill="none" stroke="#bfbfbf" points="876,-192.5 876,-211.5 936,-211.5 936,-192.5 876,-192.5"/>
<text text-anchor="middle" x="906" y="-199.5" font-family="Helvetica,sans-Serif" font-size="10.00">sys/stat.h</text>
</g>
<!-- Node26&#45;&gt;Node31 -->
<g id="edge38" class="edge"><title>Node26&#45;&gt;Node31</title>
<path fill="none" stroke="midnightblue" d="M736.008,-248.444C771.239,-239.025 827.926,-223.871 866.046,-213.681"/>
<polygon fill="midnightblue" stroke="midnightblue" points="867.035,-217.039 875.792,-211.075 865.227,-210.277 867.035,-217.039"/>
</g>
<!-- Node32 -->
<g id="node32" class="node"><title>Node32</title>
<polygon fill="none" stroke="#bfbfbf" points="526,-192.5 526,-211.5 594,-211.5 594,-192.5 526,-192.5"/>
<text text-anchor="middle" x="560" y="-199.5" font-family="Helvetica,sans-Serif" font-size="10.00">sys/types.h</text>
</g>
<!-- Node26&#45;&gt;Node32 -->
<g id="edge39" class="edge"><title>Node26&#45;&gt;Node32</title>
<path fill="none" stroke="midnightblue" d="M681.183,-248.444C657.168,-239.438 619.171,-225.189 592.131,-215.049"/>
<polygon fill="midnightblue" stroke="midnightblue" points="593.303,-211.751 582.71,-211.516 590.845,-218.305 593.303,-211.751"/>
</g>
<!-- Node33 -->
<g id="node33" class="node"><title>Node33</title>
<polygon fill="none" stroke="#bfbfbf" points="612.5,-192.5 612.5,-211.5 663.5,-211.5 663.5,-192.5 612.5,-192.5"/>
<text text-anchor="middle" x="638" y="-199.5" font-family="Helvetica,sans-Serif" font-size="10.00">unistd.h</text>
</g>
<!-- Node26&#45;&gt;Node33 -->
<g id="edge40" class="edge"><title>Node26&#45;&gt;Node33</title>
<path fill="none" stroke="midnightblue" d="M693.396,-248.324C683.544,-240.263 668.649,-228.077 656.785,-218.369"/>
<polygon fill="midnightblue" stroke="midnightblue" points="658.753,-215.457 648.797,-211.834 654.32,-220.875 658.753,-215.457"/>
</g>
<!-- Node34 -->
<g id="node34" class="node"><title>Node34</title>
<polygon fill="none" stroke="#bfbfbf" points="682,-192.5 682,-211.5 726,-211.5 726,-192.5 682,-192.5"/>
<text text-anchor="middle" x="704" y="-199.5" font-family="Helvetica,sans-Serif" font-size="10.00">fcntl.h</text>
</g>
<!-- Node26&#45;&gt;Node34 -->
<g id="edge41" class="edge"><title>Node26&#45;&gt;Node34</title>
<path fill="none" stroke="midnightblue" d="M704,-248.083C704,-241.006 704,-230.861 704,-221.986"/>
<polygon fill="midnightblue" stroke="midnightblue" points="707.5,-221.751 704,-211.751 700.5,-221.751 707.5,-221.751"/>
</g>
<!-- Node35&#45;&gt;Node4 -->
<g id="edge45" class="edge"><title>Node35&#45;&gt;Node4</title>
<path fill="none" stroke="midnightblue" d="M394.84,-442.809C509.291,-427.683 807.7,-386.372 1054,-336 1055.27,-335.74 1056.56,-335.471 1057.85,-335.194"/>
<polygon fill="midnightblue" stroke="midnightblue" points="1058.91,-338.545 1067.9,-332.951 1057.38,-331.713 1058.91,-338.545"/>
</g>
<!-- Node35&#45;&gt;Node6 -->
<g id="edge47" class="edge"><title>Node35&#45;&gt;Node6</title>
<path fill="none" stroke="midnightblue" d="M394.629,-446.115C562.417,-435.467 1118.69,-395.862 1169,-336 1247.08,-243.089 1159.22,-80.7839 1126.94,-28.0647"/>
<polygon fill="midnightblue" stroke="midnightblue" points="1129.88,-26.1634 1121.61,-19.5376 1123.94,-29.8729 1129.88,-26.1634"/>
</g>
<!-- Node35&#45;&gt;Node9 -->
<g id="edge48" class="edge"><title>Node35&#45;&gt;Node9</title>
<path fill="none" stroke="midnightblue" d="M326.916,-440.417C293.309,-424.918 226.203,-388.882 194,-336 144.731,-255.093 160.426,-218.018 172,-124 175.806,-93.0811 177.079,-84.781 189,-56 193.01,-46.3201 198.865,-36.2561 204.099,-28.1064"/>
<polygon fill="midnightblue" stroke="midnightblue" points="207.166,-29.8162 209.81,-19.5566 201.346,-25.928 207.166,-29.8162"/>
</g>
<!-- Node35&#45;&gt;Node23 -->
<g id="edge46" class="edge"><title>Node35&#45;&gt;Node23</title>
<path fill="none" stroke="midnightblue" d="M299.413,-447.68C220.704,-442.687 72,-420.135 72,-321 72,-321 72,-321 72,-139 72,-98.2307 89.9354,-53.0653 101.163,-28.7866"/>
<polygon fill="midnightblue" stroke="midnightblue" points="104.335,-30.2655 105.492,-19.734 98.0199,-27.2455 104.335,-30.2655"/>
</g>
<!-- Node36 -->
<g id="node36" class="node"><title>Node36</title>
<g id="a_node36"><a xlink:href="pattern__formatter__impl_8h.html" target="_top" xlink:title="spdlog/details/pattern\l_formatter_impl.h">
<polygon fill="none" stroke="black" points="292,-373 292,-403 402,-403 402,-373 292,-373"/>
<text text-anchor="start" x="300" y="-391" font-family="Helvetica,sans-Serif" font-size="10.00">spdlog/details/pattern</text>
<text text-anchor="middle" x="347" y="-380" font-family="Helvetica,sans-Serif" font-size="10.00">_formatter_impl.h</text>
</a>
</g>
</g>
<!-- Node35&#45;&gt;Node36 -->
<g id="edge49" class="edge"><title>Node35&#45;&gt;Node36</title>
<path fill="none" stroke="midnightblue" d="M342.099,-440.403C340.572,-433.341 339.991,-422.975 340.356,-413.399"/>
<polygon fill="midnightblue" stroke="midnightblue" points="343.868,-413.386 341.17,-403.141 336.89,-412.832 343.868,-413.386"/>
</g>
<!-- Node36&#45;&gt;Node4 -->
<g id="edge51" class="edge"><title>Node36&#45;&gt;Node4</title>
<path fill="none" stroke="midnightblue" d="M402.376,-386.255C522.043,-383.935 813.391,-374.458 1054,-336 1055.28,-335.795 1056.58,-335.576 1057.88,-335.345"/>
<polygon fill="midnightblue" stroke="midnightblue" points="1058.84,-338.723 1067.98,-333.359 1057.49,-331.854 1058.84,-338.723"/>
</g>
<!-- Node36&#45;&gt;Node6 -->
<g id="edge58" class="edge"><title>Node36&#45;&gt;Node6</title>
<path fill="none" stroke="midnightblue" d="M402.326,-384.898C518.587,-377.821 791.87,-346.92 966,-212 1002.09,-184.036 992.26,-161.007 1019,-124 1045.34,-87.5541 1080.66,-48.4758 1100.6,-27.1621"/>
<polygon fill="midnightblue" stroke="midnightblue" points="1103.36,-29.3382 1107.67,-19.6612 1098.26,-24.5361 1103.36,-29.3382"/>
</g>
<!-- Node36&#45;&gt;Node8 -->
<g id="edge54" class="edge"><title>Node36&#45;&gt;Node8</title>
<path fill="none" stroke="midnightblue" d="M333.94,-372.876C303.228,-337.961 232.55,-246.485 281,-192 326.499,-140.835 519.435,-167.088 587,-156 599.404,-153.964 612.924,-151.237 624.806,-148.666"/>
<polygon fill="midnightblue" stroke="midnightblue" points="625.747,-152.043 634.757,-146.469 624.237,-145.208 625.747,-152.043"/>
</g>
<!-- Node36&#45;&gt;Node9 -->
<g id="edge56" class="edge"><title>Node36&#45;&gt;Node9</title>
<path fill="none" stroke="midnightblue" d="M294.377,-372.931C271.951,-364.926 246.705,-353.016 228,-336 199.165,-309.768 186,-297.982 186,-259 186,-259 186,-259 186,-139 186,-98.8379 200.173,-53.4133 209.036,-28.935"/>
<polygon fill="midnightblue" stroke="midnightblue" points="212.329,-30.1213 212.559,-19.5289 205.774,-27.6663 212.329,-30.1213"/>
</g>
<!-- Node36&#45;&gt;Node14 -->
<g id="edge53" class="edge"><title>Node36&#45;&gt;Node14</title>
<path fill="none" stroke="midnightblue" d="M295.593,-372.903C277.299,-365.138 258.619,-353.415 248,-336 214.682,-281.357 206.894,-241.054 248,-192 277.103,-157.269 405.927,-146.172 480.717,-142.639"/>
<polygon fill="midnightblue" stroke="midnightblue" points="481.06,-146.128 490.896,-142.189 480.751,-139.135 481.06,-146.128"/>
</g>
<!-- Node36&#45;&gt;Node23 -->
<g id="edge61" class="edge"><title>Node36&#45;&gt;Node23</title>
<path fill="none" stroke="midnightblue" d="M291.836,-381.712C259.109,-375.733 219.219,-363.018 194,-336 110.457,-246.5 107.462,-85.0216 109.075,-29.9767"/>
<polygon fill="midnightblue" stroke="midnightblue" points="112.585,-29.7774 109.474,-19.6495 105.59,-29.5067 112.585,-29.7774"/>
</g>
<!-- Node36&#45;&gt;Node24 -->
<g id="edge60" class="edge"><title>Node36&#45;&gt;Node24</title>
<path fill="none" stroke="midnightblue" d="M354.486,-372.937C373.857,-337.766 429.041,-245.019 499,-192 532.679,-166.477 550.706,-177.643 587,-156 606.257,-144.516 607.412,-136.538 626,-124 687.149,-82.7553 764.741,-43.6017 805.355,-24.0202"/>
<polygon fill="midnightblue" stroke="midnightblue" points="807.109,-27.061 814.616,-19.5855 804.085,-20.7474 807.109,-27.061"/>
</g>
<!-- Node36&#45;&gt;Node26 -->
<g id="edge52" class="edge"><title>Node36&#45;&gt;Node26</title>
<path fill="none" stroke="midnightblue" d="M386.226,-372.936C456.864,-347.609 604.254,-294.763 670.493,-271.014"/>
<polygon fill="midnightblue" stroke="midnightblue" points="671.8,-274.263 680.032,-267.594 669.437,-267.674 671.8,-274.263"/>
</g>
<!-- Node36&#45;&gt;Node27 -->
<g id="edge55" class="edge"><title>Node36&#45;&gt;Node27</title>
<path fill="none" stroke="midnightblue" d="M344.235,-372.867C337.819,-340.074 321.917,-258.798 314.685,-221.836"/>
<polygon fill="midnightblue" stroke="midnightblue" points="318.095,-221.033 312.74,-211.891 311.225,-222.377 318.095,-221.033"/>
</g>
<!-- Node36&#45;&gt;Node28 -->
<g id="edge59" class="edge"><title>Node36&#45;&gt;Node28</title>
<path fill="none" stroke="midnightblue" d="M348.92,-372.867C353.376,-340.074 364.419,-258.798 369.441,-221.836"/>
<polygon fill="midnightblue" stroke="midnightblue" points="372.914,-222.271 370.792,-211.891 365.977,-221.329 372.914,-222.271"/>
</g>
<!-- Node36&#45;&gt;Node35 -->
<g id="edge50" class="edge"><title>Node36&#45;&gt;Node35</title>
<path fill="none" stroke="midnightblue" d="M352.83,-403.141C353.873,-411.272 354.029,-421.585 353.299,-430.371"/>
<polygon fill="midnightblue" stroke="midnightblue" points="349.815,-430.016 351.901,-440.403 356.748,-430.982 349.815,-430.016"/>
</g>
<!-- Node36&#45;&gt;Node37 -->
<g id="edge57" class="edge"><title>Node36&#45;&gt;Node37</title>
<path fill="none" stroke="midnightblue" d="M291.868,-375.804C223.644,-361.949 109.716,-338.813 54.2751,-327.554"/>
<polygon fill="midnightblue" stroke="midnightblue" points="54.8091,-324.091 44.3126,-325.531 53.4159,-330.951 54.8091,-324.091"/>
</g>
</g>
</svg>
